<svg width="222" height="47" viewBox="0 0 222 47" fill="none" xmlns="http://www.w3.org/2000/svg">
<circle cx="7" cy="43" r="4" transform="rotate(-90 7 43)" fill="#FBC800"/>
<line x1="26" y1="42.5" x2="222" y2="42.5" stroke="#D7D7D7"/>
<path d="M4.5 16.18C3.13 16.18 2.115 15.705 1.455 14.755C0.795 13.805 0.465 12.475 0.465 10.765C0.465 9.055 0.795 7.725 1.455 6.775C2.115 5.825 3.13 5.35 4.5 5.35C5.87 5.35 6.885 5.825 7.545 6.775C8.205 7.725 8.535 9.055 8.535 10.765C8.535 12.475 8.205 13.805 7.545 14.755C6.885 15.705 5.87 16.18 4.5 16.18ZM4.5 14.275C5.1 14.275 5.515 14.055 5.745 13.615C5.975 13.175 6.09 12.555 6.09 11.755V9.775C6.09 8.975 5.975 8.355 5.745 7.915C5.515 7.475 5.1 7.255 4.5 7.255C3.9 7.255 3.485 7.475 3.255 7.915C3.025 8.355 2.91 8.975 2.91 9.775V11.755C2.91 12.555 3.025 13.175 3.255 13.615C3.485 14.055 3.9 14.275 4.5 14.275ZM11.3191 16.165C10.8691 16.165 10.5341 16.055 10.3141 15.835C10.1041 15.605 9.99914 15.315 9.99914 14.965V14.665C9.99914 14.315 10.1041 14.03 10.3141 13.81C10.5341 13.58 10.8691 13.465 11.3191 13.465C11.7691 13.465 12.0991 13.58 12.3091 13.81C12.5291 14.03 12.6391 14.315 12.6391 14.665V14.965C12.6391 15.315 12.5291 15.605 12.3091 15.835C12.0991 16.055 11.7691 16.165 11.3191 16.165ZM15.0477 16V14.185H17.8677V7.165H17.7327L15.6027 9.955L14.1627 8.83L16.6677 5.53H20.1177V14.185H22.3377V16H15.0477ZM27.1318 16.18C26.5118 16.18 25.9568 16.105 25.4668 15.955C24.9868 15.795 24.5818 15.58 24.2518 15.31C23.9218 15.04 23.6668 14.72 23.4868 14.35C23.3168 13.98 23.2318 13.575 23.2318 13.135C23.2318 12.465 23.4168 11.92 23.7868 11.5C24.1568 11.07 24.6568 10.77 25.2868 10.6V10.48C24.7768 10.29 24.3568 10 24.0268 9.61C23.7068 9.22 23.5468 8.72 23.5468 8.11C23.5468 7.71 23.6218 7.34 23.7718 7C23.9318 6.66 24.1618 6.37 24.4618 6.13C24.7718 5.88 25.1468 5.69 25.5868 5.56C26.0368 5.42 26.5518 5.35 27.1318 5.35C27.7118 5.35 28.2218 5.42 28.6618 5.56C29.1118 5.69 29.4868 5.88 29.7868 6.13C30.0968 6.37 30.3268 6.66 30.4768 7C30.6368 7.34 30.7168 7.71 30.7168 8.11C30.7168 8.72 30.5518 9.22 30.2218 9.61C29.9018 10 29.4868 10.29 28.9768 10.48V10.6C29.6068 10.77 30.1068 11.07 30.4768 11.5C30.8468 11.92 31.0318 12.465 31.0318 13.135C31.0318 13.575 30.9418 13.98 30.7618 14.35C30.5918 14.72 30.3418 15.04 30.0118 15.31C29.6818 15.58 29.2718 15.795 28.7818 15.955C28.3018 16.105 27.7518 16.18 27.1318 16.18ZM27.1318 14.455C27.6318 14.455 28.0118 14.34 28.2718 14.11C28.5418 13.87 28.6768 13.54 28.6768 13.12V12.82C28.6768 12.4 28.5418 12.075 28.2718 11.845C28.0118 11.605 27.6318 11.485 27.1318 11.485C26.6318 11.485 26.2468 11.605 25.9768 11.845C25.7168 12.075 25.5868 12.4 25.5868 12.82V13.12C25.5868 13.54 25.7168 13.87 25.9768 14.11C26.2468 14.34 26.6318 14.455 27.1318 14.455ZM27.1318 9.835C27.6118 9.835 27.9768 9.725 28.2268 9.505C28.4768 9.275 28.6018 8.965 28.6018 8.575V8.335C28.6018 7.945 28.4768 7.64 28.2268 7.42C27.9768 7.19 27.6118 7.075 27.1318 7.075C26.6518 7.075 26.2868 7.19 26.0368 7.42C25.7868 7.64 25.6618 7.945 25.6618 8.335V8.575C25.6618 8.965 25.7868 9.275 26.0368 9.505C26.2868 9.725 26.6518 9.835 27.1318 9.835Z" fill="#FBC800"/>
</svg>
