<svg width="222" height="250" viewBox="0 0 222 250" fill="none" xmlns="http://www.w3.org/2000/svg">
<circle cx="7.5" cy="219.5" r="7.5" fill="#00C7A5"/>
<circle cx="7.5" cy="242.5" r="7.5" fill="#00C7A5"/>
<circle cx="30.5" cy="219.5" r="7.5" fill="#00C7A5"/>
<circle cx="30.5" cy="242.5" r="7.5" fill="#00C7A5"/>
<circle cx="53.5" cy="219.5" r="7.5" fill="#00C7A5"/>
<circle cx="53.5" cy="242.5" r="7.5" fill="#00C7A5"/>
<circle cx="75" cy="221" r="6" fill="#00C7A5"/>
<circle cx="76.5" cy="242.5" r="7.5" fill="#00C7A5"/>
<circle cx="99.5" cy="242.5" r="7.5" fill="#00C7A5"/>
<circle cx="122.5" cy="242.5" r="7.5" fill="#00C7A5"/>
<circle cx="145.5" cy="242.5" r="7.5" fill="#00C7A5"/>
<circle cx="168.5" cy="242.5" r="7.5" fill="#00C7A5"/>
<circle cx="191.5" cy="242.5" r="7.5" fill="#00C7A5"/>
<circle cx="214.5" cy="242.5" r="7.5" fill="#00C7A5"/>
<path d="M4.56 193.18C3.94 193.18 3.385 193.085 2.895 192.895C2.405 192.695 1.99 192.415 1.65 192.055C1.32 191.685 1.065 191.245 0.885 190.735C0.715 190.225 0.63 189.655 0.63 189.025C0.63 188.295 0.74 187.605 0.96 186.955C1.19 186.295 1.48 185.69 1.83 185.14C2.19 184.58 2.59 184.08 3.03 183.64C3.48 183.2 3.93 182.83 4.38 182.53H7.485C6.845 182.99 6.27 183.43 5.76 183.85C5.25 184.26 4.805 184.675 4.425 185.095C4.055 185.515 3.745 185.945 3.495 186.385C3.255 186.815 3.085 187.28 2.985 187.78L3.12 187.825C3.21 187.625 3.315 187.43 3.435 187.24C3.565 187.05 3.72 186.885 3.9 186.745C4.09 186.595 4.31 186.475 4.56 186.385C4.81 186.295 5.1 186.25 5.43 186.25C5.86 186.25 6.26 186.33 6.63 186.49C7.01 186.64 7.335 186.855 7.605 187.135C7.885 187.415 8.1 187.76 8.25 188.17C8.41 188.57 8.49 189.015 8.49 189.505C8.49 190.045 8.395 190.54 8.205 190.99C8.025 191.44 7.76 191.83 7.41 192.16C7.07 192.48 6.66 192.73 6.18 192.91C5.7 193.09 5.16 193.18 4.56 193.18ZM4.56 191.425C5.06 191.425 5.45 191.29 5.73 191.02C6.01 190.74 6.15 190.345 6.15 189.835V189.565C6.15 189.055 6.01 188.665 5.73 188.395C5.45 188.115 5.06 187.975 4.56 187.975C4.06 187.975 3.67 188.115 3.39 188.395C3.11 188.665 2.97 189.055 2.97 189.565V189.835C2.97 190.345 3.11 190.74 3.39 191.02C3.67 191.29 4.06 191.425 4.56 191.425ZM11.3191 193.165C10.8691 193.165 10.5341 193.055 10.3141 192.835C10.1041 192.605 9.99914 192.315 9.99914 191.965V191.665C9.99914 191.315 10.1041 191.03 10.3141 190.81C10.5341 190.58 10.8691 190.465 11.3191 190.465C11.7691 190.465 12.0991 190.58 12.3091 190.81C12.5291 191.03 12.6391 191.315 12.6391 191.665V191.965C12.6391 192.315 12.5291 192.605 12.3091 192.835C12.0991 193.055 11.7691 193.165 11.3191 193.165ZM18.1377 193.18C17.5177 193.18 16.9627 193.105 16.4727 192.955C15.9927 192.795 15.5877 192.58 15.2577 192.31C14.9277 192.04 14.6727 191.72 14.4927 191.35C14.3227 190.98 14.2377 190.575 14.2377 190.135C14.2377 189.465 14.4227 188.92 14.7927 188.5C15.1627 188.07 15.6627 187.77 16.2927 187.6V187.48C15.7827 187.29 15.3627 187 15.0327 186.61C14.7127 186.22 14.5527 185.72 14.5527 185.11C14.5527 184.71 14.6277 184.34 14.7777 184C14.9377 183.66 15.1677 183.37 15.4677 183.13C15.7777 182.88 16.1527 182.69 16.5927 182.56C17.0427 182.42 17.5577 182.35 18.1377 182.35C18.7177 182.35 19.2277 182.42 19.6677 182.56C20.1177 182.69 20.4927 182.88 20.7927 183.13C21.1027 183.37 21.3327 183.66 21.4827 184C21.6427 184.34 21.7227 184.71 21.7227 185.11C21.7227 185.72 21.5577 186.22 21.2277 186.61C20.9077 187 20.4927 187.29 19.9827 187.48V187.6C20.6127 187.77 21.1127 188.07 21.4827 188.5C21.8527 188.92 22.0377 189.465 22.0377 190.135C22.0377 190.575 21.9477 190.98 21.7677 191.35C21.5977 191.72 21.3477 192.04 21.0177 192.31C20.6877 192.58 20.2777 192.795 19.7877 192.955C19.3077 193.105 18.7577 193.18 18.1377 193.18ZM18.1377 191.455C18.6377 191.455 19.0177 191.34 19.2777 191.11C19.5477 190.87 19.6827 190.54 19.6827 190.12V189.82C19.6827 189.4 19.5477 189.075 19.2777 188.845C19.0177 188.605 18.6377 188.485 18.1377 188.485C17.6377 188.485 17.2527 188.605 16.9827 188.845C16.7227 189.075 16.5927 189.4 16.5927 189.82V190.12C16.5927 190.54 16.7227 190.87 16.9827 191.11C17.2527 191.34 17.6377 191.455 18.1377 191.455ZM18.1377 186.835C18.6177 186.835 18.9827 186.725 19.2327 186.505C19.4827 186.275 19.6077 185.965 19.6077 185.575V185.335C19.6077 184.945 19.4827 184.64 19.2327 184.42C18.9827 184.19 18.6177 184.075 18.1377 184.075C17.6577 184.075 17.2927 184.19 17.0427 184.42C16.7927 184.64 16.6677 184.945 16.6677 185.335V185.575C16.6677 185.965 16.7927 186.275 17.0427 186.505C17.2927 186.725 17.6577 186.835 18.1377 186.835ZM25.1218 193L28.6318 184.36H25.3618V186.265H23.4568V182.53H30.8668V184.48L27.4918 193H25.1218Z" fill="#00C7A5"/>
</svg>
