<svg width="222" height="61" viewBox="0 0 222 61" fill="none" xmlns="http://www.w3.org/2000/svg">
<circle cx="7.5" cy="7.5" r="7.5" fill="#6CBAFA"/>
<circle cx="7.5" cy="30.5" r="7.5" fill="#6CBAFA"/>
<circle cx="7.5" cy="53.5" r="7.5" fill="#6CBAFA"/>
<circle cx="30.5" cy="7.5" r="7.5" fill="#6CBAFA"/>
<circle cx="30.5" cy="30.5" r="7.5" fill="#6CBAFA"/>
<circle cx="30.5" cy="53.5" r="7.5" fill="#6CBAFA"/>
<circle cx="49.5" cy="11.5" r="3.5" fill="#6CBAFA"/>
<circle cx="53.5" cy="30.5" r="7.5" fill="#6CBAFA"/>
<circle cx="53.5" cy="53.5" r="7.5" fill="#6CBAFA"/>
<circle cx="76.5" cy="30.5" r="7.5" fill="#6CBAFA"/>
<circle cx="76.5" cy="53.5" r="7.5" fill="#6CBAFA"/>
<circle cx="99.5" cy="30.5" r="7.5" fill="#6CBAFA"/>
<circle cx="99.5" cy="53.5" r="7.5" fill="#6CBAFA"/>
<circle cx="122.5" cy="30.5" r="7.5" fill="#6CBAFA"/>
<circle cx="122.5" cy="53.5" r="7.5" fill="#6CBAFA"/>
<circle cx="145.5" cy="30.5" r="7.5" fill="#6CBAFA"/>
<circle cx="145.5" cy="53.5" r="7.5" fill="#6CBAFA"/>
<circle cx="168.5" cy="30.5" r="7.5" fill="#6CBAFA"/>
<circle cx="168.5" cy="53.5" r="7.5" fill="#6CBAFA"/>
<circle cx="191.5" cy="30.5" r="7.5" fill="#6CBAFA"/>
<circle cx="191.5" cy="53.5" r="7.5" fill="#6CBAFA"/>
<circle cx="214.5" cy="30.5" r="7.5" fill="#6CBAFA"/>
<circle cx="214.5" cy="53.5" r="7.5" fill="#6CBAFA"/>
</svg>
