<svg width="222" height="100" viewBox="0 0 222 100" fill="none" xmlns="http://www.w3.org/2000/svg">
<circle cx="7.5" cy="69.5" r="7.5" fill="#00C7A5"/>
<circle cx="7.5" cy="92.5" r="7.5" fill="#00C7A5"/>
<circle cx="30.5" cy="69.5" r="7.5" fill="#00C7A5"/>
<circle cx="30.5" cy="92.5" r="7.5" fill="#00C7A5"/>
<circle cx="53.5" cy="69.5" r="7.5" fill="#00C7A5"/>
<circle cx="53.5" cy="92.5" r="7.5" fill="#00C7A5"/>
<circle cx="76.5" cy="92.5" r="7.5" fill="#00C7A5"/>
<circle cx="99.5" cy="92.5" r="7.5" fill="#00C7A5"/>
<circle cx="122.5" cy="92.5" r="7.5" fill="#00C7A5"/>
<circle cx="145.5" cy="92.5" r="7.5" fill="#00C7A5"/>
<circle cx="76.5" cy="69.5" r="7.5" fill="#00C7A5"/>
<circle cx="99.5" cy="69.5" r="7.5" fill="#00C7A5"/>
<circle cx="122.5" cy="69.5" r="7.5" fill="#00C7A5"/>
<circle cx="139.5" cy="75.5" r="1.5" fill="#00C7A5"/>
<circle cx="168.5" cy="92.5" r="7.5" fill="#00C7A5"/>
<circle cx="191.5" cy="92.5" r="7.5" fill="#00C7A5"/>
<circle cx="214.5" cy="92.5" r="7.5" fill="#00C7A5"/>
<path d="M4.5 43.18C3.88 43.18 3.325 43.105 2.835 42.955C2.355 42.795 1.95 42.58 1.62 42.31C1.29 42.04 1.035 41.72 0.855 41.35C0.685 40.98 0.6 40.575 0.6 40.135C0.6 39.465 0.785 38.92 1.155 38.5C1.525 38.07 2.025 37.77 2.655 37.6V37.48C2.145 37.29 1.725 37 1.395 36.61C1.075 36.22 0.915 35.72 0.915 35.11C0.915 34.71 0.99 34.34 1.14 34C1.3 33.66 1.53 33.37 1.83 33.13C2.14 32.88 2.515 32.69 2.955 32.56C3.405 32.42 3.92 32.35 4.5 32.35C5.08 32.35 5.59 32.42 6.03 32.56C6.48 32.69 6.855 32.88 7.155 33.13C7.465 33.37 7.695 33.66 7.845 34C8.005 34.34 8.085 34.71 8.085 35.11C8.085 35.72 7.92 36.22 7.59 36.61C7.27 37 6.855 37.29 6.345 37.48V37.6C6.975 37.77 7.475 38.07 7.845 38.5C8.215 38.92 8.4 39.465 8.4 40.135C8.4 40.575 8.31 40.98 8.13 41.35C7.96 41.72 7.71 42.04 7.38 42.31C7.05 42.58 6.64 42.795 6.15 42.955C5.67 43.105 5.12 43.18 4.5 43.18ZM4.5 41.455C5 41.455 5.38 41.34 5.64 41.11C5.91 40.87 6.045 40.54 6.045 40.12V39.82C6.045 39.4 5.91 39.075 5.64 38.845C5.38 38.605 5 38.485 4.5 38.485C4 38.485 3.615 38.605 3.345 38.845C3.085 39.075 2.955 39.4 2.955 39.82V40.12C2.955 40.54 3.085 40.87 3.345 41.11C3.615 41.34 4 41.455 4.5 41.455ZM4.5 36.835C4.98 36.835 5.345 36.725 5.595 36.505C5.845 36.275 5.97 35.965 5.97 35.575V35.335C5.97 34.945 5.845 34.64 5.595 34.42C5.345 34.19 4.98 34.075 4.5 34.075C4.02 34.075 3.655 34.19 3.405 34.42C3.155 34.64 3.03 34.945 3.03 35.335V35.575C3.03 35.965 3.155 36.275 3.405 36.505C3.655 36.725 4.02 36.835 4.5 36.835ZM11.3191 43.165C10.8691 43.165 10.5341 43.055 10.3141 42.835C10.1041 42.605 9.99914 42.315 9.99914 41.965V41.665C9.99914 41.315 10.1041 41.03 10.3141 40.81C10.5341 40.58 10.8691 40.465 11.3191 40.465C11.7691 40.465 12.0991 40.58 12.3091 40.81C12.5291 41.03 12.6391 41.315 12.6391 41.665V41.965C12.6391 42.315 12.5291 42.605 12.3091 42.835C12.0991 43.055 11.7691 43.165 11.3191 43.165ZM18.1977 43.18C17.5777 43.18 17.0227 43.085 16.5327 42.895C16.0427 42.695 15.6277 42.415 15.2877 42.055C14.9577 41.685 14.7027 41.245 14.5227 40.735C14.3527 40.225 14.2677 39.655 14.2677 39.025C14.2677 38.295 14.3777 37.605 14.5977 36.955C14.8277 36.295 15.1177 35.69 15.4677 35.14C15.8277 34.58 16.2277 34.08 16.6677 33.64C17.1177 33.2 17.5677 32.83 18.0177 32.53H21.1227C20.4827 32.99 19.9077 33.43 19.3977 33.85C18.8877 34.26 18.4427 34.675 18.0627 35.095C17.6927 35.515 17.3827 35.945 17.1327 36.385C16.8927 36.815 16.7227 37.28 16.6227 37.78L16.7577 37.825C16.8477 37.625 16.9527 37.43 17.0727 37.24C17.2027 37.05 17.3577 36.885 17.5377 36.745C17.7277 36.595 17.9477 36.475 18.1977 36.385C18.4477 36.295 18.7377 36.25 19.0677 36.25C19.4977 36.25 19.8977 36.33 20.2677 36.49C20.6477 36.64 20.9727 36.855 21.2427 37.135C21.5227 37.415 21.7377 37.76 21.8877 38.17C22.0477 38.57 22.1277 39.015 22.1277 39.505C22.1277 40.045 22.0327 40.54 21.8427 40.99C21.6627 41.44 21.3977 41.83 21.0477 42.16C20.7077 42.48 20.2977 42.73 19.8177 42.91C19.3377 43.09 18.7977 43.18 18.1977 43.18ZM18.1977 41.425C18.6977 41.425 19.0877 41.29 19.3677 41.02C19.6477 40.74 19.7877 40.345 19.7877 39.835V39.565C19.7877 39.055 19.6477 38.665 19.3677 38.395C19.0877 38.115 18.6977 37.975 18.1977 37.975C17.6977 37.975 17.3077 38.115 17.0277 38.395C16.7477 38.665 16.6077 39.055 16.6077 39.565V39.835C16.6077 40.345 16.7477 40.74 17.0277 41.02C17.3077 41.29 17.6977 41.425 18.1977 41.425Z" fill="#00C7A5"/>
</svg>
