<svg width="222" height="100" viewBox="0 0 222 100" fill="none" xmlns="http://www.w3.org/2000/svg">
<circle cx="26" cy="97" r="3" transform="rotate(-90 26 97)" fill="#8D75F3"/>
<circle cx="7.5" cy="92.5" r="7.5" transform="rotate(-90 7.5 92.5)" fill="#8D75F3"/>
<line x1="53" y1="92.5" x2="222" y2="92.5" stroke="#D7D7D7"/>
<path d="M4.5 66.18C3.13 66.18 2.115 65.705 1.455 64.755C0.795 63.805 0.465 62.475 0.465 60.765C0.465 59.055 0.795 57.725 1.455 56.775C2.115 55.825 3.13 55.35 4.5 55.35C5.87 55.35 6.885 55.825 7.545 56.775C8.205 57.725 8.535 59.055 8.535 60.765C8.535 62.475 8.205 63.805 7.545 64.755C6.885 65.705 5.87 66.18 4.5 66.18ZM4.5 64.275C5.1 64.275 5.515 64.055 5.745 63.615C5.975 63.175 6.09 62.555 6.09 61.755V59.775C6.09 58.975 5.975 58.355 5.745 57.915C5.515 57.475 5.1 57.255 4.5 57.255C3.9 57.255 3.485 57.475 3.255 57.915C3.025 58.355 2.91 58.975 2.91 59.775V61.755C2.91 62.555 3.025 63.175 3.255 63.615C3.485 64.055 3.9 64.275 4.5 64.275ZM11.3191 66.165C10.8691 66.165 10.5341 66.055 10.3141 65.835C10.1041 65.605 9.99914 65.315 9.99914 64.965V64.665C9.99914 64.315 10.1041 64.03 10.3141 63.81C10.5341 63.58 10.8691 63.465 11.3191 63.465C11.7691 63.465 12.0991 63.58 12.3091 63.81C12.5291 64.03 12.6391 64.315 12.6391 64.665V64.965C12.6391 65.315 12.5291 65.605 12.3091 65.835C12.0991 66.055 11.7691 66.165 11.3191 66.165ZM18.1977 66.18C17.5777 66.18 17.0227 66.085 16.5327 65.895C16.0427 65.695 15.6277 65.415 15.2877 65.055C14.9577 64.685 14.7027 64.245 14.5227 63.735C14.3527 63.225 14.2677 62.655 14.2677 62.025C14.2677 61.295 14.3777 60.605 14.5977 59.955C14.8277 59.295 15.1177 58.69 15.4677 58.14C15.8277 57.58 16.2277 57.08 16.6677 56.64C17.1177 56.2 17.5677 55.83 18.0177 55.53H21.1227C20.4827 55.99 19.9077 56.43 19.3977 56.85C18.8877 57.26 18.4427 57.675 18.0627 58.095C17.6927 58.515 17.3827 58.945 17.1327 59.385C16.8927 59.815 16.7227 60.28 16.6227 60.78L16.7577 60.825C16.8477 60.625 16.9527 60.43 17.0727 60.24C17.2027 60.05 17.3577 59.885 17.5377 59.745C17.7277 59.595 17.9477 59.475 18.1977 59.385C18.4477 59.295 18.7377 59.25 19.0677 59.25C19.4977 59.25 19.8977 59.33 20.2677 59.49C20.6477 59.64 20.9727 59.855 21.2427 60.135C21.5227 60.415 21.7377 60.76 21.8877 61.17C22.0477 61.57 22.1277 62.015 22.1277 62.505C22.1277 63.045 22.0327 63.54 21.8427 63.99C21.6627 64.44 21.3977 64.83 21.0477 65.16C20.7077 65.48 20.2977 65.73 19.8177 65.91C19.3377 66.09 18.7977 66.18 18.1977 66.18ZM18.1977 64.425C18.6977 64.425 19.0877 64.29 19.3677 64.02C19.6477 63.74 19.7877 63.345 19.7877 62.835V62.565C19.7877 62.055 19.6477 61.665 19.3677 61.395C19.0877 61.115 18.6977 60.975 18.1977 60.975C17.6977 60.975 17.3077 61.115 17.0277 61.395C16.7477 61.665 16.6077 62.055 16.6077 62.565V62.835C16.6077 63.345 16.7477 63.74 17.0277 64.02C17.3077 64.29 17.6977 64.425 18.1977 64.425ZM27.1318 66.18C26.5118 66.18 25.9568 66.105 25.4668 65.955C24.9868 65.795 24.5818 65.58 24.2518 65.31C23.9218 65.04 23.6668 64.72 23.4868 64.35C23.3168 63.98 23.2318 63.575 23.2318 63.135C23.2318 62.465 23.4168 61.92 23.7868 61.5C24.1568 61.07 24.6568 60.77 25.2868 60.6V60.48C24.7768 60.29 24.3568 60 24.0268 59.61C23.7068 59.22 23.5468 58.72 23.5468 58.11C23.5468 57.71 23.6218 57.34 23.7718 57C23.9318 56.66 24.1618 56.37 24.4618 56.13C24.7718 55.88 25.1468 55.69 25.5868 55.56C26.0368 55.42 26.5518 55.35 27.1318 55.35C27.7118 55.35 28.2218 55.42 28.6618 55.56C29.1118 55.69 29.4868 55.88 29.7868 56.13C30.0968 56.37 30.3268 56.66 30.4768 57C30.6368 57.34 30.7168 57.71 30.7168 58.11C30.7168 58.72 30.5518 59.22 30.2218 59.61C29.9018 60 29.4868 60.29 28.9768 60.48V60.6C29.6068 60.77 30.1068 61.07 30.4768 61.5C30.8468 61.92 31.0318 62.465 31.0318 63.135C31.0318 63.575 30.9418 63.98 30.7618 64.35C30.5918 64.72 30.3418 65.04 30.0118 65.31C29.6818 65.58 29.2718 65.795 28.7818 65.955C28.3018 66.105 27.7518 66.18 27.1318 66.18ZM27.1318 64.455C27.6318 64.455 28.0118 64.34 28.2718 64.11C28.5418 63.87 28.6768 63.54 28.6768 63.12V62.82C28.6768 62.4 28.5418 62.075 28.2718 61.845C28.0118 61.605 27.6318 61.485 27.1318 61.485C26.6318 61.485 26.2468 61.605 25.9768 61.845C25.7168 62.075 25.5868 62.4 25.5868 62.82V63.12C25.5868 63.54 25.7168 63.87 25.9768 64.11C26.2468 64.34 26.6318 64.455 27.1318 64.455ZM27.1318 59.835C27.6118 59.835 27.9768 59.725 28.2268 59.505C28.4768 59.275 28.6018 58.965 28.6018 58.575V58.335C28.6018 57.945 28.4768 57.64 28.2268 57.42C27.9768 57.19 27.6118 57.075 27.1318 57.075C26.6518 57.075 26.2868 57.19 26.0368 57.42C25.7868 57.64 25.6618 57.945 25.6618 58.335V58.575C25.6618 58.965 25.7868 59.275 26.0368 59.505C26.2868 59.725 26.6518 59.835 27.1318 59.835Z" fill="#8D75F3"/>
</svg>
