<svg width="222" height="47" viewBox="0 0 222 47" fill="none" xmlns="http://www.w3.org/2000/svg">
<circle cx="7" cy="43" r="4" transform="rotate(-90 7 43)" fill="#FBC800"/>
<line x1="26" y1="42.5" x2="222" y2="42.5" stroke="#D7D7D7"/>
<path d="M4.5 16.18C3.13 16.18 2.115 15.705 1.455 14.755C0.795 13.805 0.465 12.475 0.465 10.765C0.465 9.055 0.795 7.725 1.455 6.775C2.115 5.825 3.13 5.35 4.5 5.35C5.87 5.35 6.885 5.825 7.545 6.775C8.205 7.725 8.535 9.055 8.535 10.765C8.535 12.475 8.205 13.805 7.545 14.755C6.885 15.705 5.87 16.18 4.5 16.18ZM4.5 14.275C5.1 14.275 5.515 14.055 5.745 13.615C5.975 13.175 6.09 12.555 6.09 11.755V9.775C6.09 8.975 5.975 8.355 5.745 7.915C5.515 7.475 5.1 7.255 4.5 7.255C3.9 7.255 3.485 7.475 3.255 7.915C3.025 8.355 2.91 8.975 2.91 9.775V11.755C2.91 12.555 3.025 13.175 3.255 13.615C3.485 14.055 3.9 14.275 4.5 14.275ZM11.3191 16.165C10.8691 16.165 10.5341 16.055 10.3141 15.835C10.1041 15.605 9.99914 15.315 9.99914 14.965V14.665C9.99914 14.315 10.1041 14.03 10.3141 13.81C10.5341 13.58 10.8691 13.465 11.3191 13.465C11.7691 13.465 12.0991 13.58 12.3091 13.81C12.5291 14.03 12.6391 14.315 12.6391 14.665V14.965C12.6391 15.315 12.5291 15.605 12.3091 15.835C12.0991 16.055 11.7691 16.165 11.3191 16.165ZM15.0477 16V14.185H17.8677V7.165H17.7327L15.6027 9.955L14.1627 8.83L16.6677 5.53H20.1177V14.185H22.3377V16H15.0477ZM30.4618 7.495H25.7068L25.4818 10.81H25.6018C25.7018 10.56 25.8118 10.335 25.9318 10.135C26.0618 9.925 26.2118 9.75 26.3818 9.61C26.5518 9.46 26.7568 9.345 26.9968 9.265C27.2368 9.185 27.5218 9.145 27.8518 9.145C28.3018 9.145 28.7218 9.22 29.1118 9.37C29.5018 9.52 29.8418 9.74 30.1318 10.03C30.4218 10.31 30.6518 10.66 30.8218 11.08C30.9918 11.49 31.0768 11.955 31.0768 12.475C31.0768 13.005 30.9868 13.5 30.8068 13.96C30.6368 14.41 30.3768 14.8 30.0268 15.13C29.6868 15.46 29.2668 15.72 28.7668 15.91C28.2668 16.09 27.6968 16.18 27.0568 16.18C26.5468 16.18 26.0968 16.125 25.7068 16.015C25.3168 15.905 24.9718 15.76 24.6718 15.58C24.3718 15.39 24.1118 15.175 23.8918 14.935C23.6718 14.695 23.4818 14.44 23.3218 14.17L24.9568 12.88C25.1868 13.29 25.4618 13.64 25.7818 13.93C26.1018 14.21 26.5318 14.35 27.0718 14.35C27.6118 14.35 28.0168 14.195 28.2868 13.885C28.5668 13.575 28.7068 13.165 28.7068 12.655V12.535C28.7068 12.055 28.5668 11.675 28.2868 11.395C28.0068 11.115 27.6218 10.975 27.1318 10.975C26.7218 10.975 26.3818 11.06 26.1118 11.23C25.8518 11.39 25.6518 11.55 25.5118 11.71L23.6668 11.455L24.0568 5.53H30.4618V7.495Z" fill="#FBC800"/>
</svg>
