<svg width="222" height="927" viewBox="0 0 222 927" fill="none" xmlns="http://www.w3.org/2000/svg">
<path d="M8.37 9.505C8.37 10.245 8.255 10.94 8.025 11.59C7.805 12.24 7.515 12.845 7.155 13.405C6.805 13.955 6.405 14.45 5.955 14.89C5.515 15.33 5.07 15.7 4.62 16H1.515C2.155 15.54 2.73 15.105 3.24 14.695C3.75 14.275 4.19 13.855 4.56 13.435C4.94 13.015 5.25 12.59 5.49 12.16C5.73 11.72 5.905 11.25 6.015 10.75L5.88 10.705C5.79 10.905 5.68 11.1 5.55 11.29C5.43 11.48 5.275 11.65 5.085 11.8C4.905 11.94 4.69 12.055 4.44 12.145C4.19 12.235 3.9 12.28 3.57 12.28C3.14 12.28 2.735 12.205 2.355 12.055C1.985 11.895 1.66 11.675 1.38 11.395C1.11 11.115 0.895 10.775 0.735 10.375C0.585 9.975 0.51 9.525 0.51 9.025C0.51 8.485 0.6 7.99 0.78 7.54C0.97 7.09 1.235 6.705 1.575 6.385C1.925 6.055 2.34 5.8 2.82 5.62C3.3 5.44 3.84 5.35 4.44 5.35C5.06 5.35 5.615 5.45 6.105 5.65C6.595 5.84 7.005 6.12 7.335 6.49C7.675 6.85 7.93 7.285 8.1 7.795C8.28 8.305 8.37 8.875 8.37 9.505ZM4.44 10.555C4.94 10.555 5.33 10.42 5.61 10.15C5.89 9.87 6.03 9.475 6.03 8.965V8.695C6.03 8.185 5.89 7.795 5.61 7.525C5.33 7.245 4.94 7.105 4.44 7.105C3.94 7.105 3.55 7.245 3.27 7.525C2.99 7.795 2.85 8.185 2.85 8.695V8.965C2.85 9.475 2.99 9.87 3.27 10.15C3.55 10.42 3.94 10.555 4.44 10.555ZM16.8241 7.495H12.0691L11.8441 10.81H11.9641C12.0641 10.56 12.1741 10.335 12.2941 10.135C12.4241 9.925 12.5741 9.75 12.7441 9.61C12.9141 9.46 13.1191 9.345 13.3591 9.265C13.5991 9.185 13.8841 9.145 14.2141 9.145C14.6641 9.145 15.0841 9.22 15.4741 9.37C15.8641 9.52 16.2041 9.74 16.4941 10.03C16.7841 10.31 17.0141 10.66 17.1841 11.08C17.3541 11.49 17.4391 11.955 17.4391 12.475C17.4391 13.005 17.3491 13.5 17.1691 13.96C16.9991 14.41 16.7391 14.8 16.3891 15.13C16.0491 15.46 15.6291 15.72 15.1291 15.91C14.6291 16.09 14.0591 16.18 13.4191 16.18C12.9091 16.18 12.4591 16.125 12.0691 16.015C11.6791 15.905 11.3341 15.76 11.0341 15.58C10.7341 15.39 10.4741 15.175 10.2541 14.935C10.0341 14.695 9.84414 14.44 9.68414 14.17L11.3191 12.88C11.5491 13.29 11.8241 13.64 12.1441 13.93C12.4641 14.21 12.8941 14.35 13.4341 14.35C13.9741 14.35 14.3791 14.195 14.6491 13.885C14.9291 13.575 15.0691 13.165 15.0691 12.655V12.535C15.0691 12.055 14.9291 11.675 14.6491 11.395C14.3691 11.115 13.9841 10.975 13.4941 10.975C13.0841 10.975 12.7441 11.06 12.4741 11.23C12.2141 11.39 12.0141 11.55 11.8741 11.71L10.0291 11.455L10.4191 5.53H16.8241V7.495ZM22.4883 16.18C21.1183 16.18 20.1033 15.705 19.4433 14.755C18.7833 13.805 18.4533 12.475 18.4533 10.765C18.4533 9.055 18.7833 7.725 19.4433 6.775C20.1033 5.825 21.1183 5.35 22.4883 5.35C23.8583 5.35 24.8733 5.825 25.5333 6.775C26.1933 7.725 26.5233 9.055 26.5233 10.765C26.5233 12.475 26.1933 13.805 25.5333 14.755C24.8733 15.705 23.8583 16.18 22.4883 16.18ZM22.4883 14.275C23.0883 14.275 23.5033 14.055 23.7333 13.615C23.9633 13.175 24.0783 12.555 24.0783 11.755V9.775C24.0783 8.975 23.9633 8.355 23.7333 7.915C23.5033 7.475 23.0883 7.255 22.4883 7.255C21.8883 7.255 21.4733 7.475 21.2433 7.915C21.0133 8.355 20.8983 8.975 20.8983 9.775V11.755C20.8983 12.555 21.0133 13.175 21.2433 13.615C21.4733 14.055 21.8883 14.275 22.4883 14.275ZM31.4824 16.18C30.1124 16.18 29.0974 15.705 28.4374 14.755C27.7774 13.805 27.4474 12.475 27.4474 10.765C27.4474 9.055 27.7774 7.725 28.4374 6.775C29.0974 5.825 30.1124 5.35 31.4824 5.35C32.8524 5.35 33.8674 5.825 34.5274 6.775C35.1874 7.725 35.5174 9.055 35.5174 10.765C35.5174 12.475 35.1874 13.805 34.5274 14.755C33.8674 15.705 32.8524 16.18 31.4824 16.18ZM31.4824 14.275C32.0824 14.275 32.4974 14.055 32.7274 13.615C32.9574 13.175 33.0724 12.555 33.0724 11.755V9.775C33.0724 8.975 32.9574 8.355 32.7274 7.915C32.4974 7.475 32.0824 7.255 31.4824 7.255C30.8824 7.255 30.4674 7.475 30.2374 7.915C30.0074 8.355 29.8924 8.975 29.8924 9.775V11.755C29.8924 12.555 30.0074 13.175 30.2374 13.615C30.4674 14.055 30.8824 14.275 31.4824 14.275Z" fill="#00C7A5"/>
<circle cx="7.5" cy="413.5" r="7.5" fill="#00C7A5"/>
<circle cx="7.5" cy="597.5" r="7.5" fill="#00C7A5"/>
<circle cx="7.5" cy="367.5" r="7.5" fill="#00C7A5"/>
<circle cx="7.5" cy="436.5" r="7.5" fill="#00C7A5"/>
<circle cx="7.5" cy="620.5" r="7.5" fill="#00C7A5"/>
<circle cx="7.5" cy="390.5" r="7.5" fill="#00C7A5"/>
<circle cx="7.5" cy="459.5" r="7.5" fill="#00C7A5"/>
<circle cx="7.5" cy="643.5" r="7.5" fill="#00C7A5"/>
<circle cx="7.5" cy="482.5" r="7.5" fill="#00C7A5"/>
<circle cx="7.5" cy="666.5" r="7.5" fill="#00C7A5"/>
<circle cx="7.5" cy="505.5" r="7.5" fill="#00C7A5"/>
<circle cx="7.5" cy="689.5" r="7.5" fill="#00C7A5"/>
<circle cx="7.5" cy="528.5" r="7.5" fill="#00C7A5"/>
<circle cx="7.5" cy="712.5" r="7.5" fill="#00C7A5"/>
<circle cx="7.5" cy="551.5" r="7.5" fill="#00C7A5"/>
<circle cx="7.5" cy="735.5" r="7.5" fill="#00C7A5"/>
<circle cx="7.5" cy="574.5" r="7.5" fill="#00C7A5"/>
<circle cx="7.5" cy="758.5" r="7.5" fill="#00C7A5"/>
<circle cx="7.5" cy="781.5" r="7.5" fill="#00C7A5"/>
<circle cx="7.5" cy="804.5" r="7.5" fill="#00C7A5"/>
<circle cx="7.5" cy="344.5" r="7.5" fill="#00C7A5"/>
<circle cx="7.5" cy="827.5" r="7.5" fill="#00C7A5"/>
<circle cx="7.5" cy="850.5" r="7.5" fill="#00C7A5"/>
<circle cx="7.5" cy="873.5" r="7.5" fill="#00C7A5"/>
<circle cx="7.5" cy="896.5" r="7.5" fill="#00C7A5"/>
<circle cx="7.5" cy="919.5" r="7.5" fill="#00C7A5"/>
<circle cx="30.5" cy="413.5" r="7.5" fill="#00C7A5"/>
<circle cx="30.5" cy="597.5" r="7.5" fill="#00C7A5"/>
<circle cx="30.5" cy="367.5" r="7.5" fill="#00C7A5"/>
<circle cx="30.5" cy="436.5" r="7.5" fill="#00C7A5"/>
<circle cx="30.5" cy="620.5" r="7.5" fill="#00C7A5"/>
<circle cx="30.5" cy="390.5" r="7.5" fill="#00C7A5"/>
<circle cx="30.5" cy="459.5" r="7.5" fill="#00C7A5"/>
<circle cx="30.5" cy="643.5" r="7.5" fill="#00C7A5"/>
<circle cx="30.5" cy="482.5" r="7.5" fill="#00C7A5"/>
<circle cx="30.5" cy="666.5" r="7.5" fill="#00C7A5"/>
<circle cx="30.5" cy="505.5" r="7.5" fill="#00C7A5"/>
<circle cx="30.5" cy="689.5" r="7.5" fill="#00C7A5"/>
<circle cx="30.5" cy="528.5" r="7.5" fill="#00C7A5"/>
<circle cx="30.5" cy="712.5" r="7.5" fill="#00C7A5"/>
<circle cx="30.5" cy="551.5" r="7.5" fill="#00C7A5"/>
<circle cx="30.5" cy="735.5" r="7.5" fill="#00C7A5"/>
<circle cx="30.5" cy="574.5" r="7.5" fill="#00C7A5"/>
<circle cx="30.5" cy="758.5" r="7.5" fill="#00C7A5"/>
<circle cx="30.5" cy="781.5" r="7.5" fill="#00C7A5"/>
<circle cx="30.5" cy="804.5" r="7.5" fill="#00C7A5"/>
<circle cx="30.5" cy="344.5" r="7.5" fill="#00C7A5"/>
<circle cx="30.5" cy="827.5" r="7.5" fill="#00C7A5"/>
<circle cx="30.5" cy="850.5" r="7.5" fill="#00C7A5"/>
<circle cx="30.5" cy="873.5" r="7.5" fill="#00C7A5"/>
<circle cx="30.5" cy="896.5" r="7.5" fill="#00C7A5"/>
<circle cx="30.5" cy="919.5" r="7.5" fill="#00C7A5"/>
<circle cx="53.5" cy="413.5" r="7.5" fill="#00C7A5"/>
<circle cx="53.5" cy="597.5" r="7.5" fill="#00C7A5"/>
<circle cx="53.5" cy="367.5" r="7.5" fill="#00C7A5"/>
<circle cx="53.5" cy="436.5" r="7.5" fill="#00C7A5"/>
<circle cx="53.5" cy="620.5" r="7.5" fill="#00C7A5"/>
<circle cx="53.5" cy="390.5" r="7.5" fill="#00C7A5"/>
<circle cx="53.5" cy="459.5" r="7.5" fill="#00C7A5"/>
<circle cx="53.5" cy="643.5" r="7.5" fill="#00C7A5"/>
<circle cx="53.5" cy="482.5" r="7.5" fill="#00C7A5"/>
<circle cx="53.5" cy="666.5" r="7.5" fill="#00C7A5"/>
<circle cx="53.5" cy="505.5" r="7.5" fill="#00C7A5"/>
<circle cx="53.5" cy="689.5" r="7.5" fill="#00C7A5"/>
<circle cx="53.5" cy="528.5" r="7.5" fill="#00C7A5"/>
<circle cx="53.5" cy="712.5" r="7.5" fill="#00C7A5"/>
<circle cx="53.5" cy="551.5" r="7.5" fill="#00C7A5"/>
<circle cx="53.5" cy="735.5" r="7.5" fill="#00C7A5"/>
<circle cx="53.5" cy="574.5" r="7.5" fill="#00C7A5"/>
<circle cx="53.5" cy="758.5" r="7.5" fill="#00C7A5"/>
<circle cx="53.5" cy="781.5" r="7.5" fill="#00C7A5"/>
<circle cx="53.5" cy="804.5" r="7.5" fill="#00C7A5"/>
<circle cx="53.5" cy="344.5" r="7.5" fill="#00C7A5"/>
<circle cx="53.5" cy="827.5" r="7.5" fill="#00C7A5"/>
<circle cx="53.5" cy="850.5" r="7.5" fill="#00C7A5"/>
<circle cx="53.5" cy="873.5" r="7.5" fill="#00C7A5"/>
<circle cx="53.5" cy="896.5" r="7.5" fill="#00C7A5"/>
<circle cx="53.5" cy="919.5" r="7.5" fill="#00C7A5"/>
<circle cx="76.5" cy="413.5" r="7.5" fill="#00C7A5"/>
<circle cx="76.5" cy="597.5" r="7.5" fill="#00C7A5"/>
<circle cx="76.5" cy="367.5" r="7.5" fill="#00C7A5"/>
<circle cx="76.5" cy="436.5" r="7.5" fill="#00C7A5"/>
<circle cx="76.5" cy="620.5" r="7.5" fill="#00C7A5"/>
<circle cx="76.5" cy="390.5" r="7.5" fill="#00C7A5"/>
<circle cx="76.5" cy="459.5" r="7.5" fill="#00C7A5"/>
<circle cx="76.5" cy="643.5" r="7.5" fill="#00C7A5"/>
<circle cx="76.5" cy="482.5" r="7.5" fill="#00C7A5"/>
<circle cx="76.5" cy="666.5" r="7.5" fill="#00C7A5"/>
<circle cx="76.5" cy="505.5" r="7.5" fill="#00C7A5"/>
<circle cx="76.5" cy="689.5" r="7.5" fill="#00C7A5"/>
<circle cx="76.5" cy="528.5" r="7.5" fill="#00C7A5"/>
<circle cx="76.5" cy="712.5" r="7.5" fill="#00C7A5"/>
<circle cx="76.5" cy="551.5" r="7.5" fill="#00C7A5"/>
<circle cx="76.5" cy="735.5" r="7.5" fill="#00C7A5"/>
<circle cx="76.5" cy="574.5" r="7.5" fill="#00C7A5"/>
<circle cx="76.5" cy="758.5" r="7.5" fill="#00C7A5"/>
<circle cx="76.5" cy="781.5" r="7.5" fill="#00C7A5"/>
<circle cx="76.5" cy="804.5" r="7.5" fill="#00C7A5"/>
<circle cx="76.5" cy="344.5" r="7.5" fill="#00C7A5"/>
<circle cx="76.5" cy="827.5" r="7.5" fill="#00C7A5"/>
<circle cx="76.5" cy="850.5" r="7.5" fill="#00C7A5"/>
<circle cx="76.5" cy="873.5" r="7.5" fill="#00C7A5"/>
<circle cx="76.5" cy="896.5" r="7.5" fill="#00C7A5"/>
<circle cx="76.5" cy="919.5" r="7.5" fill="#00C7A5"/>
<circle cx="99.5" cy="413.5" r="7.5" fill="#00C7A5"/>
<circle cx="99.5" cy="597.5" r="7.5" fill="#00C7A5"/>
<circle cx="99.5" cy="367.5" r="7.5" fill="#00C7A5"/>
<circle cx="99.5" cy="436.5" r="7.5" fill="#00C7A5"/>
<circle cx="99.5" cy="620.5" r="7.5" fill="#00C7A5"/>
<circle cx="99.5" cy="390.5" r="7.5" fill="#00C7A5"/>
<circle cx="99.5" cy="459.5" r="7.5" fill="#00C7A5"/>
<circle cx="99.5" cy="643.5" r="7.5" fill="#00C7A5"/>
<circle cx="99.5" cy="482.5" r="7.5" fill="#00C7A5"/>
<circle cx="99.5" cy="666.5" r="7.5" fill="#00C7A5"/>
<circle cx="99.5" cy="505.5" r="7.5" fill="#00C7A5"/>
<circle cx="99.5" cy="689.5" r="7.5" fill="#00C7A5"/>
<circle cx="99.5" cy="528.5" r="7.5" fill="#00C7A5"/>
<circle cx="99.5" cy="712.5" r="7.5" fill="#00C7A5"/>
<circle cx="99.5" cy="551.5" r="7.5" fill="#00C7A5"/>
<circle cx="99.5" cy="735.5" r="7.5" fill="#00C7A5"/>
<circle cx="99.5" cy="574.5" r="7.5" fill="#00C7A5"/>
<circle cx="99.5" cy="758.5" r="7.5" fill="#00C7A5"/>
<circle cx="99.5" cy="781.5" r="7.5" fill="#00C7A5"/>
<circle cx="99.5" cy="804.5" r="7.5" fill="#00C7A5"/>
<circle cx="99.5" cy="344.5" r="7.5" fill="#00C7A5"/>
<circle cx="99.5" cy="827.5" r="7.5" fill="#00C7A5"/>
<circle cx="99.5" cy="850.5" r="7.5" fill="#00C7A5"/>
<circle cx="99.5" cy="873.5" r="7.5" fill="#00C7A5"/>
<circle cx="99.5" cy="896.5" r="7.5" fill="#00C7A5"/>
<circle cx="99.5" cy="919.5" r="7.5" fill="#00C7A5"/>
<circle cx="122.5" cy="413.5" r="7.5" fill="#00C7A5"/>
<circle cx="122.5" cy="597.5" r="7.5" fill="#00C7A5"/>
<circle cx="122.5" cy="367.5" r="7.5" fill="#00C7A5"/>
<circle cx="122.5" cy="436.5" r="7.5" fill="#00C7A5"/>
<circle cx="122.5" cy="620.5" r="7.5" fill="#00C7A5"/>
<circle cx="122.5" cy="390.5" r="7.5" fill="#00C7A5"/>
<circle cx="122.5" cy="459.5" r="7.5" fill="#00C7A5"/>
<circle cx="122.5" cy="643.5" r="7.5" fill="#00C7A5"/>
<circle cx="122.5" cy="482.5" r="7.5" fill="#00C7A5"/>
<circle cx="122.5" cy="666.5" r="7.5" fill="#00C7A5"/>
<circle cx="122.5" cy="505.5" r="7.5" fill="#00C7A5"/>
<circle cx="122.5" cy="689.5" r="7.5" fill="#00C7A5"/>
<circle cx="122.5" cy="528.5" r="7.5" fill="#00C7A5"/>
<circle cx="122.5" cy="712.5" r="7.5" fill="#00C7A5"/>
<circle cx="122.5" cy="551.5" r="7.5" fill="#00C7A5"/>
<circle cx="122.5" cy="735.5" r="7.5" fill="#00C7A5"/>
<circle cx="122.5" cy="574.5" r="7.5" fill="#00C7A5"/>
<circle cx="122.5" cy="758.5" r="7.5" fill="#00C7A5"/>
<circle cx="122.5" cy="781.5" r="7.5" fill="#00C7A5"/>
<circle cx="122.5" cy="804.5" r="7.5" fill="#00C7A5"/>
<circle cx="122.5" cy="344.5" r="7.5" fill="#00C7A5"/>
<circle cx="122.5" cy="827.5" r="7.5" fill="#00C7A5"/>
<circle cx="122.5" cy="850.5" r="7.5" fill="#00C7A5"/>
<circle cx="122.5" cy="873.5" r="7.5" fill="#00C7A5"/>
<circle cx="122.5" cy="896.5" r="7.5" fill="#00C7A5"/>
<circle cx="122.5" cy="919.5" r="7.5" fill="#00C7A5"/>
<circle cx="145.5" cy="413.5" r="7.5" fill="#00C7A5"/>
<circle cx="145.5" cy="597.5" r="7.5" fill="#00C7A5"/>
<circle cx="145.5" cy="367.5" r="7.5" fill="#00C7A5"/>
<circle cx="145.5" cy="436.5" r="7.5" fill="#00C7A5"/>
<circle cx="145.5" cy="620.5" r="7.5" fill="#00C7A5"/>
<circle cx="145.5" cy="390.5" r="7.5" fill="#00C7A5"/>
<circle cx="145.5" cy="459.5" r="7.5" fill="#00C7A5"/>
<circle cx="145.5" cy="643.5" r="7.5" fill="#00C7A5"/>
<circle cx="145.5" cy="482.5" r="7.5" fill="#00C7A5"/>
<circle cx="145.5" cy="666.5" r="7.5" fill="#00C7A5"/>
<circle cx="145.5" cy="505.5" r="7.5" fill="#00C7A5"/>
<circle cx="145.5" cy="689.5" r="7.5" fill="#00C7A5"/>
<circle cx="145.5" cy="528.5" r="7.5" fill="#00C7A5"/>
<circle cx="145.5" cy="712.5" r="7.5" fill="#00C7A5"/>
<circle cx="145.5" cy="551.5" r="7.5" fill="#00C7A5"/>
<circle cx="145.5" cy="735.5" r="7.5" fill="#00C7A5"/>
<circle cx="145.5" cy="574.5" r="7.5" fill="#00C7A5"/>
<circle cx="145.5" cy="758.5" r="7.5" fill="#00C7A5"/>
<circle cx="145.5" cy="781.5" r="7.5" fill="#00C7A5"/>
<circle cx="145.5" cy="804.5" r="7.5" fill="#00C7A5"/>
<circle cx="145.5" cy="344.5" r="7.5" fill="#00C7A5"/>
<circle cx="145.5" cy="827.5" r="7.5" fill="#00C7A5"/>
<circle cx="145.5" cy="850.5" r="7.5" fill="#00C7A5"/>
<circle cx="145.5" cy="873.5" r="7.5" fill="#00C7A5"/>
<circle cx="145.5" cy="896.5" r="7.5" fill="#00C7A5"/>
<circle cx="145.5" cy="919.5" r="7.5" fill="#00C7A5"/>
<circle cx="168.5" cy="413.5" r="7.5" fill="#00C7A5"/>
<circle cx="168.5" cy="597.5" r="7.5" fill="#00C7A5"/>
<circle cx="168.5" cy="367.5" r="7.5" fill="#00C7A5"/>
<circle cx="168.5" cy="436.5" r="7.5" fill="#00C7A5"/>
<circle cx="168.5" cy="620.5" r="7.5" fill="#00C7A5"/>
<circle cx="168.5" cy="390.5" r="7.5" fill="#00C7A5"/>
<circle cx="168.5" cy="459.5" r="7.5" fill="#00C7A5"/>
<circle cx="168.5" cy="643.5" r="7.5" fill="#00C7A5"/>
<circle cx="168.5" cy="482.5" r="7.5" fill="#00C7A5"/>
<circle cx="168.5" cy="666.5" r="7.5" fill="#00C7A5"/>
<circle cx="168.5" cy="505.5" r="7.5" fill="#00C7A5"/>
<circle cx="168.5" cy="689.5" r="7.5" fill="#00C7A5"/>
<circle cx="168.5" cy="528.5" r="7.5" fill="#00C7A5"/>
<circle cx="168.5" cy="712.5" r="7.5" fill="#00C7A5"/>
<circle cx="168.5" cy="551.5" r="7.5" fill="#00C7A5"/>
<circle cx="168.5" cy="735.5" r="7.5" fill="#00C7A5"/>
<circle cx="168.5" cy="574.5" r="7.5" fill="#00C7A5"/>
<circle cx="168.5" cy="758.5" r="7.5" fill="#00C7A5"/>
<circle cx="168.5" cy="781.5" r="7.5" fill="#00C7A5"/>
<circle cx="168.5" cy="804.5" r="7.5" fill="#00C7A5"/>
<circle cx="168.5" cy="344.5" r="7.5" fill="#00C7A5"/>
<circle cx="168.5" cy="827.5" r="7.5" fill="#00C7A5"/>
<circle cx="168.5" cy="850.5" r="7.5" fill="#00C7A5"/>
<circle cx="168.5" cy="873.5" r="7.5" fill="#00C7A5"/>
<circle cx="168.5" cy="896.5" r="7.5" fill="#00C7A5"/>
<circle cx="168.5" cy="919.5" r="7.5" fill="#00C7A5"/>
<circle cx="191.5" cy="413.5" r="7.5" fill="#00C7A5"/>
<circle cx="191.5" cy="597.5" r="7.5" fill="#00C7A5"/>
<circle cx="191.5" cy="367.5" r="7.5" fill="#00C7A5"/>
<circle cx="191.5" cy="436.5" r="7.5" fill="#00C7A5"/>
<circle cx="191.5" cy="620.5" r="7.5" fill="#00C7A5"/>
<circle cx="191.5" cy="390.5" r="7.5" fill="#00C7A5"/>
<circle cx="191.5" cy="459.5" r="7.5" fill="#00C7A5"/>
<circle cx="191.5" cy="643.5" r="7.5" fill="#00C7A5"/>
<circle cx="191.5" cy="482.5" r="7.5" fill="#00C7A5"/>
<circle cx="191.5" cy="666.5" r="7.5" fill="#00C7A5"/>
<circle cx="191.5" cy="505.5" r="7.5" fill="#00C7A5"/>
<circle cx="191.5" cy="689.5" r="7.5" fill="#00C7A5"/>
<circle cx="191.5" cy="528.5" r="7.5" fill="#00C7A5"/>
<circle cx="191.5" cy="712.5" r="7.5" fill="#00C7A5"/>
<circle cx="191.5" cy="551.5" r="7.5" fill="#00C7A5"/>
<circle cx="191.5" cy="735.5" r="7.5" fill="#00C7A5"/>
<circle cx="191.5" cy="574.5" r="7.5" fill="#00C7A5"/>
<circle cx="191.5" cy="758.5" r="7.5" fill="#00C7A5"/>
<circle cx="191.5" cy="781.5" r="7.5" fill="#00C7A5"/>
<circle cx="191.5" cy="804.5" r="7.5" fill="#00C7A5"/>
<circle cx="191.5" cy="344.5" r="7.5" fill="#00C7A5"/>
<circle cx="191.5" cy="827.5" r="7.5" fill="#00C7A5"/>
<circle cx="191.5" cy="850.5" r="7.5" fill="#00C7A5"/>
<circle cx="191.5" cy="873.5" r="7.5" fill="#00C7A5"/>
<circle cx="191.5" cy="896.5" r="7.5" fill="#00C7A5"/>
<circle cx="191.5" cy="919.5" r="7.5" fill="#00C7A5"/>
<circle cx="214.5" cy="413.5" r="7.5" fill="#00C7A5"/>
<circle cx="214.5" cy="597.5" r="7.5" fill="#00C7A5"/>
<circle cx="214.5" cy="367.5" r="7.5" fill="#00C7A5"/>
<circle cx="214.5" cy="436.5" r="7.5" fill="#00C7A5"/>
<circle cx="214.5" cy="620.5" r="7.5" fill="#00C7A5"/>
<circle cx="214.5" cy="390.5" r="7.5" fill="#00C7A5"/>
<circle cx="214.5" cy="459.5" r="7.5" fill="#00C7A5"/>
<circle cx="214.5" cy="643.5" r="7.5" fill="#00C7A5"/>
<circle cx="214.5" cy="482.5" r="7.5" fill="#00C7A5"/>
<circle cx="214.5" cy="666.5" r="7.5" fill="#00C7A5"/>
<circle cx="214.5" cy="505.5" r="7.5" fill="#00C7A5"/>
<circle cx="214.5" cy="689.5" r="7.5" fill="#00C7A5"/>
<circle cx="214.5" cy="528.5" r="7.5" fill="#00C7A5"/>
<circle cx="214.5" cy="712.5" r="7.5" fill="#00C7A5"/>
<circle cx="214.5" cy="551.5" r="7.5" fill="#00C7A5"/>
<circle cx="214.5" cy="735.5" r="7.5" fill="#00C7A5"/>
<circle cx="214.5" cy="574.5" r="7.5" fill="#00C7A5"/>
<circle cx="214.5" cy="758.5" r="7.5" fill="#00C7A5"/>
<circle cx="214.5" cy="781.5" r="7.5" fill="#00C7A5"/>
<circle cx="214.5" cy="804.5" r="7.5" fill="#00C7A5"/>
<circle cx="214.5" cy="344.5" r="7.5" fill="#00C7A5"/>
<circle cx="7.5" cy="114.5" r="7.5" fill="#00C7A5"/>
<circle cx="7.5" cy="298.5" r="7.5" fill="#00C7A5"/>
<circle cx="7.5" cy="68.5" r="7.5" fill="#00C7A5"/>
<circle cx="7.5" cy="137.5" r="7.5" fill="#00C7A5"/>
<circle cx="7.5" cy="321.5" r="7.5" fill="#00C7A5"/>
<circle cx="7.5" cy="91.5" r="7.5" fill="#00C7A5"/>
<circle cx="7.5" cy="160.5" r="7.5" fill="#00C7A5"/>
<circle cx="7.5" cy="183.5" r="7.5" fill="#00C7A5"/>
<circle cx="7.5" cy="206.5" r="7.5" fill="#00C7A5"/>
<circle cx="7.5" cy="229.5" r="7.5" fill="#00C7A5"/>
<circle cx="7.5" cy="252.5" r="7.5" fill="#00C7A5"/>
<circle cx="7.5" cy="275.5" r="7.5" fill="#00C7A5"/>
<circle cx="7.5" cy="45.5" r="7.5" fill="#00C7A5"/>
<circle cx="30.5" cy="114.5" r="7.5" fill="#00C7A5"/>
<circle cx="30.5" cy="298.5" r="7.5" fill="#00C7A5"/>
<circle cx="30.5" cy="68.5" r="7.5" fill="#00C7A5"/>
<circle cx="30.5" cy="137.5" r="7.5" fill="#00C7A5"/>
<circle cx="30.5" cy="321.5" r="7.5" fill="#00C7A5"/>
<circle cx="30.5" cy="91.5" r="7.5" fill="#00C7A5"/>
<circle cx="30.5" cy="160.5" r="7.5" fill="#00C7A5"/>
<circle cx="30.5" cy="183.5" r="7.5" fill="#00C7A5"/>
<circle cx="30.5" cy="206.5" r="7.5" fill="#00C7A5"/>
<circle cx="30.5" cy="229.5" r="7.5" fill="#00C7A5"/>
<circle cx="30.5" cy="252.5" r="7.5" fill="#00C7A5"/>
<circle cx="30.5" cy="275.5" r="7.5" fill="#00C7A5"/>
<circle cx="30.5" cy="45.5" r="7.5" fill="#00C7A5"/>
<circle cx="53.5" cy="114.5" r="7.5" fill="#00C7A5"/>
<circle cx="53.5" cy="298.5" r="7.5" fill="#00C7A5"/>
<circle cx="53.5" cy="68.5" r="7.5" fill="#00C7A5"/>
<circle cx="53.5" cy="137.5" r="7.5" fill="#00C7A5"/>
<circle cx="53.5" cy="321.5" r="7.5" fill="#00C7A5"/>
<circle cx="53.5" cy="91.5" r="7.5" fill="#00C7A5"/>
<circle cx="53.5" cy="160.5" r="7.5" fill="#00C7A5"/>
<circle cx="53.5" cy="183.5" r="7.5" fill="#00C7A5"/>
<circle cx="53.5" cy="206.5" r="7.5" fill="#00C7A5"/>
<circle cx="53.5" cy="229.5" r="7.5" fill="#00C7A5"/>
<circle cx="53.5" cy="252.5" r="7.5" fill="#00C7A5"/>
<circle cx="53.5" cy="275.5" r="7.5" fill="#00C7A5"/>
<circle cx="53.5" cy="45.5" r="7.5" fill="#00C7A5"/>
<circle cx="76.5" cy="114.5" r="7.5" fill="#00C7A5"/>
<circle cx="76.5" cy="298.5" r="7.5" fill="#00C7A5"/>
<circle cx="76.5" cy="68.5" r="7.5" fill="#00C7A5"/>
<circle cx="76.5" cy="137.5" r="7.5" fill="#00C7A5"/>
<circle cx="76.5" cy="321.5" r="7.5" fill="#00C7A5"/>
<circle cx="76.5" cy="91.5" r="7.5" fill="#00C7A5"/>
<circle cx="76.5" cy="160.5" r="7.5" fill="#00C7A5"/>
<circle cx="76.5" cy="183.5" r="7.5" fill="#00C7A5"/>
<circle cx="76.5" cy="206.5" r="7.5" fill="#00C7A5"/>
<circle cx="76.5" cy="229.5" r="7.5" fill="#00C7A5"/>
<circle cx="76.5" cy="252.5" r="7.5" fill="#00C7A5"/>
<circle cx="76.5" cy="275.5" r="7.5" fill="#00C7A5"/>
<circle cx="76.5" cy="45.5" r="7.5" fill="#00C7A5"/>
<circle cx="99.5" cy="114.5" r="7.5" fill="#00C7A5"/>
<circle cx="99.5" cy="298.5" r="7.5" fill="#00C7A5"/>
<circle cx="99.5" cy="68.5" r="7.5" fill="#00C7A5"/>
<circle cx="99.5" cy="137.5" r="7.5" fill="#00C7A5"/>
<circle cx="99.5" cy="321.5" r="7.5" fill="#00C7A5"/>
<circle cx="99.5" cy="91.5" r="7.5" fill="#00C7A5"/>
<circle cx="99.5" cy="160.5" r="7.5" fill="#00C7A5"/>
<circle cx="99.5" cy="183.5" r="7.5" fill="#00C7A5"/>
<circle cx="99.5" cy="206.5" r="7.5" fill="#00C7A5"/>
<circle cx="99.5" cy="229.5" r="7.5" fill="#00C7A5"/>
<circle cx="99.5" cy="252.5" r="7.5" fill="#00C7A5"/>
<circle cx="99.5" cy="275.5" r="7.5" fill="#00C7A5"/>
<circle cx="99.5" cy="45.5" r="7.5" fill="#00C7A5"/>
<circle cx="122.5" cy="114.5" r="7.5" fill="#00C7A5"/>
<circle cx="122.5" cy="298.5" r="7.5" fill="#00C7A5"/>
<circle cx="122.5" cy="68.5" r="7.5" fill="#00C7A5"/>
<circle cx="122.5" cy="137.5" r="7.5" fill="#00C7A5"/>
<circle cx="122.5" cy="321.5" r="7.5" fill="#00C7A5"/>
<circle cx="122.5" cy="91.5" r="7.5" fill="#00C7A5"/>
<circle cx="122.5" cy="160.5" r="7.5" fill="#00C7A5"/>
<circle cx="122.5" cy="183.5" r="7.5" fill="#00C7A5"/>
<circle cx="122.5" cy="206.5" r="7.5" fill="#00C7A5"/>
<circle cx="122.5" cy="229.5" r="7.5" fill="#00C7A5"/>
<circle cx="122.5" cy="252.5" r="7.5" fill="#00C7A5"/>
<circle cx="122.5" cy="275.5" r="7.5" fill="#00C7A5"/>
<circle cx="122.5" cy="45.5" r="7.5" fill="#00C7A5"/>
<circle cx="145.5" cy="114.5" r="7.5" fill="#00C7A5"/>
<circle cx="145.5" cy="298.5" r="7.5" fill="#00C7A5"/>
<circle cx="145.5" cy="68.5" r="7.5" fill="#00C7A5"/>
<circle cx="145.5" cy="137.5" r="7.5" fill="#00C7A5"/>
<circle cx="145.5" cy="321.5" r="7.5" fill="#00C7A5"/>
<circle cx="145.5" cy="91.5" r="7.5" fill="#00C7A5"/>
<circle cx="145.5" cy="160.5" r="7.5" fill="#00C7A5"/>
<circle cx="145.5" cy="183.5" r="7.5" fill="#00C7A5"/>
<circle cx="145.5" cy="206.5" r="7.5" fill="#00C7A5"/>
<circle cx="145.5" cy="229.5" r="7.5" fill="#00C7A5"/>
<circle cx="145.5" cy="252.5" r="7.5" fill="#00C7A5"/>
<circle cx="145.5" cy="275.5" r="7.5" fill="#00C7A5"/>
<circle cx="145.5" cy="45.5" r="7.5" fill="#00C7A5"/>
<circle cx="168.5" cy="114.5" r="7.5" fill="#00C7A5"/>
<circle cx="168.5" cy="298.5" r="7.5" fill="#00C7A5"/>
<circle cx="168.5" cy="68.5" r="7.5" fill="#00C7A5"/>
<circle cx="168.5" cy="137.5" r="7.5" fill="#00C7A5"/>
<circle cx="168.5" cy="321.5" r="7.5" fill="#00C7A5"/>
<circle cx="168.5" cy="91.5" r="7.5" fill="#00C7A5"/>
<circle cx="168.5" cy="160.5" r="7.5" fill="#00C7A5"/>
<circle cx="168.5" cy="183.5" r="7.5" fill="#00C7A5"/>
<circle cx="168.5" cy="206.5" r="7.5" fill="#00C7A5"/>
<circle cx="168.5" cy="229.5" r="7.5" fill="#00C7A5"/>
<circle cx="168.5" cy="252.5" r="7.5" fill="#00C7A5"/>
<circle cx="168.5" cy="275.5" r="7.5" fill="#00C7A5"/>
<circle cx="168.5" cy="45.5" r="7.5" fill="#00C7A5"/>
<circle cx="191.5" cy="114.5" r="7.5" fill="#00C7A5"/>
<circle cx="191.5" cy="298.5" r="7.5" fill="#00C7A5"/>
<circle cx="191.5" cy="68.5" r="7.5" fill="#00C7A5"/>
<circle cx="191.5" cy="137.5" r="7.5" fill="#00C7A5"/>
<circle cx="191.5" cy="321.5" r="7.5" fill="#00C7A5"/>
<circle cx="191.5" cy="91.5" r="7.5" fill="#00C7A5"/>
<circle cx="191.5" cy="160.5" r="7.5" fill="#00C7A5"/>
<circle cx="191.5" cy="183.5" r="7.5" fill="#00C7A5"/>
<circle cx="191.5" cy="206.5" r="7.5" fill="#00C7A5"/>
<circle cx="191.5" cy="229.5" r="7.5" fill="#00C7A5"/>
<circle cx="191.5" cy="252.5" r="7.5" fill="#00C7A5"/>
<circle cx="191.5" cy="275.5" r="7.5" fill="#00C7A5"/>
<circle cx="191.5" cy="45.5" r="7.5" fill="#00C7A5"/>
<circle cx="214.5" cy="114.5" r="7.5" fill="#00C7A5"/>
<circle cx="214.5" cy="298.5" r="7.5" fill="#00C7A5"/>
<circle cx="214.5" cy="68.5" r="7.5" fill="#00C7A5"/>
<circle cx="214.5" cy="137.5" r="7.5" fill="#00C7A5"/>
<circle cx="214.5" cy="321.5" r="7.5" fill="#00C7A5"/>
<circle cx="214.5" cy="91.5" r="7.5" fill="#00C7A5"/>
<circle cx="214.5" cy="160.5" r="7.5" fill="#00C7A5"/>
<circle cx="214.5" cy="183.5" r="7.5" fill="#00C7A5"/>
<circle cx="214.5" cy="206.5" r="7.5" fill="#00C7A5"/>
<circle cx="214.5" cy="229.5" r="7.5" fill="#00C7A5"/>
<circle cx="214.5" cy="252.5" r="7.5" fill="#00C7A5"/>
<circle cx="214.5" cy="275.5" r="7.5" fill="#00C7A5"/>
<circle cx="214.5" cy="45.5" r="7.5" fill="#00C7A5"/>
<circle cx="214.5" cy="827.5" r="7.5" fill="#00C7A5"/>
<circle cx="214.5" cy="850.5" r="7.5" fill="#00C7A5"/>
<circle cx="214.5" cy="873.5" r="7.5" fill="#00C7A5"/>
<circle cx="214.5" cy="896.5" r="7.5" fill="#00C7A5"/>
<circle cx="214.5" cy="919.5" r="7.5" fill="#00C7A5"/>
</svg>
