<svg width="222" height="250" viewBox="0 0 222 250" fill="none" xmlns="http://www.w3.org/2000/svg">
<circle cx="30.5" cy="242.5" r="7.5" transform="rotate(-90 30.5 242.5)" fill="#8D75F3"/>
<circle cx="7.5" cy="242.5" r="7.5" transform="rotate(-90 7.5 242.5)" fill="#8D75F3"/>
<line x1="53" y1="242.5" x2="222" y2="242.5" stroke="#D7D7D7"/>
<path d="M4.5 216.18C3.13 216.18 2.115 215.705 1.455 214.755C0.795 213.805 0.465 212.475 0.465 210.765C0.465 209.055 0.795 207.725 1.455 206.775C2.115 205.825 3.13 205.35 4.5 205.35C5.87 205.35 6.885 205.825 7.545 206.775C8.205 207.725 8.535 209.055 8.535 210.765C8.535 212.475 8.205 213.805 7.545 214.755C6.885 215.705 5.87 216.18 4.5 216.18ZM4.5 214.275C5.1 214.275 5.515 214.055 5.745 213.615C5.975 213.175 6.09 212.555 6.09 211.755V209.775C6.09 208.975 5.975 208.355 5.745 207.915C5.515 207.475 5.1 207.255 4.5 207.255C3.9 207.255 3.485 207.475 3.255 207.915C3.025 208.355 2.91 208.975 2.91 209.775V211.755C2.91 212.555 3.025 213.175 3.255 213.615C3.485 214.055 3.9 214.275 4.5 214.275ZM11.3191 216.165C10.8691 216.165 10.5341 216.055 10.3141 215.835C10.1041 215.605 9.99914 215.315 9.99914 214.965V214.665C9.99914 214.315 10.1041 214.03 10.3141 213.81C10.5341 213.58 10.8691 213.465 11.3191 213.465C11.7691 213.465 12.0991 213.58 12.3091 213.81C12.5291 214.03 12.6391 214.315 12.6391 214.665V214.965C12.6391 215.315 12.5291 215.605 12.3091 215.835C12.0991 216.055 11.7691 216.165 11.3191 216.165ZM22.0077 209.505C22.0077 210.245 21.8927 210.94 21.6627 211.59C21.4427 212.24 21.1527 212.845 20.7927 213.405C20.4427 213.955 20.0427 214.45 19.5927 214.89C19.1527 215.33 18.7077 215.7 18.2577 216H15.1527C15.7927 215.54 16.3677 215.105 16.8777 214.695C17.3877 214.275 17.8277 213.855 18.1977 213.435C18.5777 213.015 18.8877 212.59 19.1277 212.16C19.3677 211.72 19.5427 211.25 19.6527 210.75L19.5177 210.705C19.4277 210.905 19.3177 211.1 19.1877 211.29C19.0677 211.48 18.9127 211.65 18.7227 211.8C18.5427 211.94 18.3277 212.055 18.0777 212.145C17.8277 212.235 17.5377 212.28 17.2077 212.28C16.7777 212.28 16.3727 212.205 15.9927 212.055C15.6227 211.895 15.2977 211.675 15.0177 211.395C14.7477 211.115 14.5327 210.775 14.3727 210.375C14.2227 209.975 14.1477 209.525 14.1477 209.025C14.1477 208.485 14.2377 207.99 14.4177 207.54C14.6077 207.09 14.8727 206.705 15.2127 206.385C15.5627 206.055 15.9777 205.8 16.4577 205.62C16.9377 205.44 17.4777 205.35 18.0777 205.35C18.6977 205.35 19.2527 205.45 19.7427 205.65C20.2327 205.84 20.6427 206.12 20.9727 206.49C21.3127 206.85 21.5677 207.285 21.7377 207.795C21.9177 208.305 22.0077 208.875 22.0077 209.505ZM18.0777 210.555C18.5777 210.555 18.9677 210.42 19.2477 210.15C19.5277 209.87 19.6677 209.475 19.6677 208.965V208.695C19.6677 208.185 19.5277 207.795 19.2477 207.525C18.9677 207.245 18.5777 207.105 18.0777 207.105C17.5777 207.105 17.1877 207.245 16.9077 207.525C16.6277 207.795 16.4877 208.185 16.4877 208.695V208.965C16.4877 209.475 16.6277 209.87 16.9077 210.15C17.1877 210.42 17.5777 210.555 18.0777 210.555ZM27.6868 216V213.99H23.0818V212.07L27.1618 205.53H29.8318V212.25H31.1518V213.99H29.8318V216H27.6868ZM24.8818 212.25H27.6868V207.855H27.5368L24.8818 212.25Z" fill="#8D75F3"/>
</svg>
