<svg width="222" height="130" viewBox="0 0 222 130" fill="none" xmlns="http://www.w3.org/2000/svg">
<circle cx="7.5" cy="7.5" r="7.5" fill="#8D75F3"/>
<circle cx="7.5" cy="30.5" r="7.5" fill="#8D75F3"/>
<circle cx="7.5" cy="53.5" r="7.5" fill="#8D75F3"/>
<circle cx="7.5" cy="76.5" r="7.5" fill="#8D75F3"/>
<circle cx="7.5" cy="99.5" r="7.5" fill="#8D75F3"/>
<circle cx="7.5" cy="122.5" r="7.5" fill="#8D75F3"/>
<circle cx="30.5" cy="7.5" r="7.5" fill="#8D75F3"/>
<circle cx="30.5" cy="30.5" r="7.5" fill="#8D75F3"/>
<circle cx="30.5" cy="53.5" r="7.5" fill="#8D75F3"/>
<circle cx="30.5" cy="76.5" r="7.5" fill="#8D75F3"/>
<circle cx="30.5" cy="99.5" r="7.5" fill="#8D75F3"/>
<circle cx="30.5" cy="122.5" r="7.5" fill="#8D75F3"/>
<circle cx="53.5" cy="30.5" r="7.5" fill="#8D75F3"/>
<circle cx="53.5" cy="53.5" r="7.5" fill="#8D75F3"/>
<circle cx="53.5" cy="76.5" r="7.5" fill="#8D75F3"/>
<circle cx="53.5" cy="99.5" r="7.5" fill="#8D75F3"/>
<circle cx="53.5" cy="122.5" r="7.5" fill="#8D75F3"/>
<circle cx="76.5" cy="30.5" r="7.5" fill="#8D75F3"/>
<circle cx="76.5" cy="53.5" r="7.5" fill="#8D75F3"/>
<circle cx="76.5" cy="76.5" r="7.5" fill="#8D75F3"/>
<circle cx="76.5" cy="99.5" r="7.5" fill="#8D75F3"/>
<circle cx="76.5" cy="122.5" r="7.5" fill="#8D75F3"/>
<circle cx="99.5" cy="30.5" r="7.5" fill="#8D75F3"/>
<circle cx="99.5" cy="53.5" r="7.5" fill="#8D75F3"/>
<circle cx="99.5" cy="76.5" r="7.5" fill="#8D75F3"/>
<circle cx="99.5" cy="99.5" r="7.5" fill="#8D75F3"/>
<circle cx="99.5" cy="122.5" r="7.5" fill="#8D75F3"/>
<circle cx="122.5" cy="30.5" r="7.5" fill="#8D75F3"/>
<circle cx="122.5" cy="53.5" r="7.5" fill="#8D75F3"/>
<circle cx="122.5" cy="76.5" r="7.5" fill="#8D75F3"/>
<circle cx="122.5" cy="99.5" r="7.5" fill="#8D75F3"/>
<circle cx="122.5" cy="122.5" r="7.5" fill="#8D75F3"/>
<circle cx="145.5" cy="30.5" r="7.5" fill="#8D75F3"/>
<circle cx="145.5" cy="53.5" r="7.5" fill="#8D75F3"/>
<circle cx="145.5" cy="76.5" r="7.5" fill="#8D75F3"/>
<circle cx="145.5" cy="99.5" r="7.5" fill="#8D75F3"/>
<circle cx="145.5" cy="122.5" r="7.5" fill="#8D75F3"/>
<circle cx="168.5" cy="30.5" r="7.5" fill="#8D75F3"/>
<circle cx="168.5" cy="53.5" r="7.5" fill="#8D75F3"/>
<circle cx="168.5" cy="76.5" r="7.5" fill="#8D75F3"/>
<circle cx="168.5" cy="99.5" r="7.5" fill="#8D75F3"/>
<circle cx="168.5" cy="122.5" r="7.5" fill="#8D75F3"/>
<circle cx="191.5" cy="30.5" r="7.5" fill="#8D75F3"/>
<circle cx="191.5" cy="53.5" r="7.5" fill="#8D75F3"/>
<circle cx="191.5" cy="76.5" r="7.5" fill="#8D75F3"/>
<circle cx="191.5" cy="99.5" r="7.5" fill="#8D75F3"/>
<circle cx="191.5" cy="122.5" r="7.5" fill="#8D75F3"/>
<circle cx="214.5" cy="30.5" r="7.5" fill="#8D75F3"/>
<circle cx="214.5" cy="53.5" r="7.5" fill="#8D75F3"/>
<circle cx="214.5" cy="76.5" r="7.5" fill="#8D75F3"/>
<circle cx="214.5" cy="99.5" r="7.5" fill="#8D75F3"/>
<circle cx="214.5" cy="122.5" r="7.5" fill="#8D75F3"/>
</svg>
