<svg width="222" height="86" viewBox="0 0 222 86" fill="none" xmlns="http://www.w3.org/2000/svg">
<circle cx="7.5" cy="32.5" r="7.5" fill="#00C7A5"/>
<circle cx="7.5" cy="55.5" r="7.5" fill="#00C7A5"/>
<circle cx="7.5" cy="78.5" r="7.5" fill="#00C7A5"/>
<circle cx="30.5" cy="32.5" r="7.5" fill="#00C7A5"/>
<circle cx="30.5" cy="55.5" r="7.5" fill="#00C7A5"/>
<circle cx="30.5" cy="78.5" r="7.5" fill="#00C7A5"/>
<circle cx="53.5" cy="32.5" r="7.5" fill="#00C7A5"/>
<circle cx="53.5" cy="55.5" r="7.5" fill="#00C7A5"/>
<circle cx="53.5" cy="78.5" r="7.5" fill="#00C7A5"/>
<circle cx="76.5" cy="32.5" r="7.5" fill="#00C7A5"/>
<circle cx="76.5" cy="55.5" r="7.5" fill="#00C7A5"/>
<circle cx="76.5" cy="78.5" r="7.5" fill="#00C7A5"/>
<circle cx="99.5" cy="32.5" r="7.5" fill="#00C7A5"/>
<circle cx="99.5" cy="55.5" r="7.5" fill="#00C7A5"/>
<circle cx="99.5" cy="78.5" r="7.5" fill="#00C7A5"/>
<circle cx="122.5" cy="32.5" r="7.5" fill="#00C7A5"/>
<circle cx="122.5" cy="55.5" r="7.5" fill="#00C7A5"/>
<circle cx="122.5" cy="78.5" r="7.5" fill="#00C7A5"/>
<circle cx="145.5" cy="32.5" r="7.5" fill="#00C7A5"/>
<circle cx="145.5" cy="55.5" r="7.5" fill="#00C7A5"/>
<circle cx="145.5" cy="78.5" r="7.5" fill="#00C7A5"/>
<circle cx="168.5" cy="32.5" r="7.5" fill="#00C7A5"/>
<circle cx="168.5" cy="55.5" r="7.5" fill="#00C7A5"/>
<circle cx="168.5" cy="78.5" r="7.5" fill="#00C7A5"/>
<circle cx="187.5" cy="36.5" r="3.5" fill="#00C7A5"/>
<circle cx="191.5" cy="55.5" r="7.5" fill="#00C7A5"/>
<circle cx="191.5" cy="78.5" r="7.5" fill="#00C7A5"/>
<circle cx="214.5" cy="55.5" r="7.5" fill="#00C7A5"/>
<circle cx="214.5" cy="78.5" r="7.5" fill="#00C7A5"/>
<path d="M2.49 16L6 7.36H2.73V9.265H0.825V5.53H8.235V7.48L4.86 16H2.49ZM10.4041 16V14.185H13.2241V7.165H13.0891L10.9591 9.955L9.51914 8.83L12.0241 5.53H15.4741V14.185H17.6941V16H10.4041ZM22.4883 16.18C21.1183 16.18 20.1033 15.705 19.4433 14.755C18.7833 13.805 18.4533 12.475 18.4533 10.765C18.4533 9.055 18.7833 7.725 19.4433 6.775C20.1033 5.825 21.1183 5.35 22.4883 5.35C23.8583 5.35 24.8733 5.825 25.5333 6.775C26.1933 7.725 26.5233 9.055 26.5233 10.765C26.5233 12.475 26.1933 13.805 25.5333 14.755C24.8733 15.705 23.8583 16.18 22.4883 16.18ZM22.4883 14.275C23.0883 14.275 23.5033 14.055 23.7333 13.615C23.9633 13.175 24.0783 12.555 24.0783 11.755V9.775C24.0783 8.975 23.9633 8.355 23.7333 7.915C23.5033 7.475 23.0883 7.255 22.4883 7.255C21.8883 7.255 21.4733 7.475 21.2433 7.915C21.0133 8.355 20.8983 8.975 20.8983 9.775V11.755C20.8983 12.555 21.0133 13.175 21.2433 13.615C21.4733 14.055 21.8883 14.275 22.4883 14.275Z" fill="#00C7A5"/>
</svg>
