<svg width="222" height="50" viewBox="0 0 222 50" fill="none" xmlns="http://www.w3.org/2000/svg">
<circle cx="10.5" cy="42.5" r="7.5" transform="rotate(-90 10.5 42.5)" fill="#6CBAFA"/>
<line x1="26" y1="42.5" x2="222" y2="42.5" stroke="#D7D7D7"/>
<path d="M4.5 16.18C3.13 16.18 2.115 15.705 1.455 14.755C0.795 13.805 0.465 12.475 0.465 10.765C0.465 9.055 0.795 7.725 1.455 6.775C2.115 5.825 3.13 5.35 4.5 5.35C5.87 5.35 6.885 5.825 7.545 6.775C8.205 7.725 8.535 9.055 8.535 10.765C8.535 12.475 8.205 13.805 7.545 14.755C6.885 15.705 5.87 16.18 4.5 16.18ZM4.5 14.275C5.1 14.275 5.515 14.055 5.745 13.615C5.975 13.175 6.09 12.555 6.09 11.755V9.775C6.09 8.975 5.975 8.355 5.745 7.915C5.515 7.475 5.1 7.255 4.5 7.255C3.9 7.255 3.485 7.475 3.255 7.915C3.025 8.355 2.91 8.975 2.91 9.775V11.755C2.91 12.555 3.025 13.175 3.255 13.615C3.485 14.055 3.9 14.275 4.5 14.275ZM11.3191 16.165C10.8691 16.165 10.5341 16.055 10.3141 15.835C10.1041 15.605 9.99914 15.315 9.99914 14.965V14.665C9.99914 14.315 10.1041 14.03 10.3141 13.81C10.5341 13.58 10.8691 13.465 11.3191 13.465C11.7691 13.465 12.0991 13.58 12.3091 13.81C12.5291 14.03 12.6391 14.315 12.6391 14.665V14.965C12.6391 15.315 12.5291 15.605 12.3091 15.835C12.0991 16.055 11.7691 16.165 11.3191 16.165ZM18.6927 16V13.99H14.0877V12.07L18.1677 5.53H20.8377V12.25H22.1577V13.99H20.8377V16H18.6927ZM15.8877 12.25H18.6927V7.855H18.5427L15.8877 12.25ZM27.6868 16V13.99H23.0818V12.07L27.1618 5.53H29.8318V12.25H31.1518V13.99H29.8318V16H27.6868ZM24.8818 12.25H27.6868V7.855H27.5368L24.8818 12.25Z" fill="#6CBAFA"/>
</svg>
