<svg width="222" height="127" viewBox="0 0 222 127" fill="none" xmlns="http://www.w3.org/2000/svg">
<path d="M94.2822 120.618L96.4971 113.49H98.2373L94.4141 124.468C93.8223 126.05 92.8818 126.841 91.5928 126.841L91.2852 126.814L90.6787 126.7V125.382L91.1182 125.417C91.6689 125.417 92.0967 125.306 92.4014 125.083C92.7119 124.86 92.9668 124.453 93.166 123.861L93.5264 122.895L90.1338 113.49H91.9092L94.2822 120.618ZM103.52 123.176C102.23 123.176 101.182 122.754 100.373 121.91C99.5645 121.061 99.1602 119.927 99.1602 118.509V118.21C99.1602 117.267 99.3389 116.426 99.6963 115.688C100.06 114.943 100.563 114.363 101.208 113.947C101.858 113.525 102.562 113.314 103.317 113.314C104.554 113.314 105.515 113.722 106.2 114.536C106.886 115.351 107.229 116.517 107.229 118.034V118.711H100.786C100.81 119.648 101.082 120.407 101.604 120.987C102.131 121.562 102.799 121.849 103.607 121.849C104.182 121.849 104.668 121.731 105.066 121.497C105.465 121.263 105.813 120.952 106.112 120.565L107.105 121.339C106.309 122.563 105.113 123.176 103.52 123.176ZM103.317 114.65C102.661 114.65 102.11 114.891 101.665 115.371C101.22 115.846 100.944 116.514 100.839 117.375H105.603V117.252C105.556 116.426 105.333 115.787 104.935 115.336C104.536 114.879 103.997 114.65 103.317 114.65ZM114.989 123C114.896 122.812 114.819 122.479 114.761 121.998C114.005 122.783 113.103 123.176 112.054 123.176C111.116 123.176 110.346 122.912 109.742 122.385C109.145 121.852 108.846 121.178 108.846 120.363C108.846 119.373 109.221 118.605 109.971 118.061C110.727 117.51 111.787 117.234 113.152 117.234H114.734V116.487C114.734 115.919 114.564 115.468 114.225 115.134C113.885 114.794 113.384 114.624 112.722 114.624C112.142 114.624 111.655 114.771 111.263 115.063C110.87 115.356 110.674 115.711 110.674 116.127H109.039C109.039 115.652 109.206 115.195 109.54 114.756C109.88 114.311 110.337 113.959 110.911 113.701C111.491 113.443 112.127 113.314 112.818 113.314C113.914 113.314 114.772 113.59 115.394 114.141C116.015 114.686 116.337 115.438 116.36 116.399V120.776C116.36 121.649 116.472 122.344 116.694 122.859V123H114.989ZM112.291 121.761C112.801 121.761 113.284 121.629 113.741 121.365C114.198 121.102 114.529 120.759 114.734 120.337V118.386H113.46C111.468 118.386 110.472 118.969 110.472 120.135C110.472 120.645 110.642 121.043 110.981 121.33C111.321 121.617 111.758 121.761 112.291 121.761ZM123.506 114.949C123.26 114.908 122.993 114.888 122.706 114.888C121.64 114.888 120.916 115.342 120.535 116.25V123H118.909V113.49H120.491L120.518 114.589C121.051 113.739 121.807 113.314 122.785 113.314C123.102 113.314 123.342 113.355 123.506 113.438V114.949ZM130.546 120.478C130.546 120.038 130.379 119.698 130.045 119.458C129.717 119.212 129.14 119.001 128.313 118.825C127.493 118.649 126.84 118.438 126.354 118.192C125.873 117.946 125.516 117.653 125.281 117.313C125.053 116.974 124.938 116.569 124.938 116.101C124.938 115.321 125.267 114.662 125.923 114.123C126.585 113.584 127.429 113.314 128.454 113.314C129.532 113.314 130.405 113.593 131.073 114.149C131.747 114.706 132.084 115.418 132.084 116.285H130.449C130.449 115.84 130.259 115.456 129.878 115.134C129.503 114.812 129.028 114.65 128.454 114.65C127.862 114.65 127.399 114.779 127.065 115.037C126.731 115.295 126.564 115.632 126.564 116.048C126.564 116.44 126.72 116.736 127.03 116.936C127.341 117.135 127.9 117.325 128.709 117.507C129.523 117.688 130.183 117.905 130.687 118.157C131.19 118.409 131.562 118.714 131.803 119.071C132.049 119.423 132.172 119.854 132.172 120.363C132.172 121.213 131.832 121.896 131.152 122.411C130.473 122.921 129.591 123.176 128.507 123.176C127.745 123.176 127.071 123.041 126.485 122.771C125.899 122.502 125.439 122.127 125.105 121.646C124.777 121.16 124.613 120.636 124.613 120.073H126.239C126.269 120.618 126.485 121.052 126.89 121.374C127.3 121.69 127.839 121.849 128.507 121.849C129.122 121.849 129.614 121.726 129.983 121.479C130.358 121.228 130.546 120.894 130.546 120.478Z" fill="black"/>
<path d="M61.9189 34.2842L63.751 28.6035H65.043L62.3906 36H61.4268L58.7471 28.6035H60.0391L61.9189 34.2842ZM70.7168 36C70.6439 35.8542 70.5846 35.5944 70.5391 35.2207C69.9512 35.8314 69.2493 36.1367 68.4336 36.1367C67.7044 36.1367 67.1051 35.9316 66.6357 35.5215C66.1709 35.1068 65.9385 34.5827 65.9385 33.9492C65.9385 33.179 66.2301 32.582 66.8135 32.1582C67.4014 31.7298 68.2262 31.5156 69.2881 31.5156H70.5186V30.9346C70.5186 30.4925 70.3864 30.1416 70.1221 29.8818C69.8577 29.6175 69.4681 29.4854 68.9531 29.4854C68.502 29.4854 68.1237 29.5993 67.8184 29.8271C67.513 30.055 67.3604 30.3307 67.3604 30.6543H66.0889C66.0889 30.2852 66.2188 29.9297 66.4785 29.5879C66.7428 29.2415 67.0983 28.9681 67.5449 28.7676C67.9961 28.5671 68.4906 28.4668 69.0283 28.4668C69.8805 28.4668 70.5482 28.681 71.0312 29.1094C71.5143 29.5332 71.765 30.1188 71.7832 30.8662V34.2705C71.7832 34.9495 71.8698 35.4896 72.043 35.8906V36H70.7168ZM68.6182 35.0361C69.0146 35.0361 69.3906 34.9336 69.7461 34.7285C70.1016 34.5234 70.359 34.2568 70.5186 33.9287V32.4111H69.5273C67.9779 32.4111 67.2031 32.8646 67.2031 33.7715C67.2031 34.168 67.3353 34.4779 67.5996 34.7012C67.8639 34.9245 68.2035 35.0361 68.6182 35.0361ZM77.3408 29.7383C77.1494 29.7064 76.9421 29.6904 76.7188 29.6904C75.8893 29.6904 75.3265 30.0436 75.0303 30.75V36H73.7656V28.6035H74.9961L75.0166 29.458C75.4313 28.7972 76.0192 28.4668 76.7803 28.4668C77.0264 28.4668 77.2132 28.4987 77.3408 28.5625V29.7383ZM82.085 29.7383C81.8936 29.7064 81.6862 29.6904 81.4629 29.6904C80.6335 29.6904 80.0706 30.0436 79.7744 30.75V36H78.5098V28.6035H79.7402L79.7607 29.458C80.1755 28.7972 80.7633 28.4668 81.5244 28.4668C81.7705 28.4668 81.9574 28.4987 82.085 28.5625V29.7383ZM85.7969 34.1475L87.5195 28.6035H88.873L85.8994 37.1416C85.4391 38.3721 84.7077 38.9873 83.7051 38.9873L83.4658 38.9668L82.9941 38.8779V37.8525L83.3359 37.8799C83.7643 37.8799 84.097 37.7933 84.334 37.6201C84.5755 37.4469 84.7738 37.1302 84.9287 36.6699L85.209 35.918L82.5703 28.6035H83.9512L85.7969 34.1475ZM91.3818 36H90.1172V28.6035H91.3818V36ZM90.0146 26.6416C90.0146 26.4365 90.0762 26.2633 90.1992 26.1221C90.3268 25.9808 90.5137 25.9102 90.7598 25.9102C91.0059 25.9102 91.1927 25.9808 91.3203 26.1221C91.4479 26.2633 91.5117 26.4365 91.5117 26.6416C91.5117 26.8467 91.4479 27.0176 91.3203 27.1543C91.1927 27.291 91.0059 27.3594 90.7598 27.3594C90.5137 27.3594 90.3268 27.291 90.1992 27.1543C90.0762 27.0176 90.0146 26.8467 90.0146 26.6416ZM94.6084 28.6035L94.6494 29.5332C95.2145 28.8223 95.9528 28.4668 96.8643 28.4668C98.4274 28.4668 99.2158 29.3486 99.2295 31.1123V36H97.9648V31.1055C97.9603 30.5723 97.8372 30.1781 97.5957 29.9229C97.3587 29.6676 96.9873 29.54 96.4814 29.54C96.0713 29.54 95.7113 29.6494 95.4014 29.8682C95.0915 30.0869 94.8499 30.374 94.6768 30.7295V36H93.4121V28.6035H94.6084ZM100.836 32.2402C100.836 31.0872 101.103 30.1712 101.636 29.4922C102.169 28.8086 102.875 28.4668 103.755 28.4668C104.657 28.4668 105.361 28.7858 105.867 29.4238L105.929 28.6035H107.084V35.8223C107.084 36.7793 106.799 37.5335 106.229 38.085C105.664 38.6364 104.903 38.9121 103.946 38.9121C103.413 38.9121 102.891 38.7982 102.381 38.5703C101.87 38.3424 101.481 38.0303 101.212 37.6338L101.868 36.875C102.41 37.5449 103.074 37.8799 103.857 37.8799C104.473 37.8799 104.951 37.7067 105.293 37.3604C105.639 37.014 105.812 36.5264 105.812 35.8975V35.2617C105.307 35.8451 104.616 36.1367 103.741 36.1367C102.875 36.1367 102.174 35.7881 101.636 35.0908C101.103 34.3936 100.836 33.4434 100.836 32.2402ZM102.107 32.3838C102.107 33.2178 102.278 33.874 102.62 34.3525C102.962 34.8265 103.44 35.0635 104.056 35.0635C104.853 35.0635 105.439 34.7012 105.812 33.9766V30.5996C105.425 29.8932 104.844 29.54 104.069 29.54C103.454 29.54 102.973 29.7793 102.627 30.2578C102.281 30.7363 102.107 31.445 102.107 32.3838ZM118.732 32.3838C118.732 33.514 118.473 34.4232 117.953 35.1113C117.434 35.7949 116.736 36.1367 115.861 36.1367C114.927 36.1367 114.205 35.8063 113.694 35.1455L113.633 36H112.471V25.5H113.735V29.417C114.246 28.7835 114.95 28.4668 115.848 28.4668C116.745 28.4668 117.45 28.8063 117.96 29.4854C118.475 30.1644 118.732 31.0941 118.732 32.2744V32.3838ZM117.468 32.2402C117.468 31.3789 117.301 30.7135 116.969 30.2441C116.636 29.7747 116.158 29.54 115.533 29.54C114.699 29.54 114.1 29.9274 113.735 30.7021V33.9014C114.123 34.6761 114.727 35.0635 115.547 35.0635C116.153 35.0635 116.625 34.8288 116.962 34.3594C117.299 33.89 117.468 33.1836 117.468 32.2402ZM123.401 36.1367C122.399 36.1367 121.583 35.8086 120.954 35.1523C120.325 34.4915 120.011 33.6097 120.011 32.5068V32.2744C120.011 31.5407 120.15 30.8867 120.428 30.3125C120.71 29.7337 121.102 29.2826 121.604 28.959C122.109 28.6309 122.656 28.4668 123.244 28.4668C124.206 28.4668 124.953 28.7835 125.486 29.417C126.02 30.0505 126.286 30.9574 126.286 32.1377V32.6641H121.275C121.294 33.3932 121.506 33.9834 121.911 34.4346C122.321 34.8812 122.841 35.1045 123.47 35.1045C123.916 35.1045 124.295 35.0133 124.604 34.8311C124.914 34.6488 125.186 34.4072 125.418 34.1064L126.19 34.708C125.571 35.6605 124.641 36.1367 123.401 36.1367ZM123.244 29.5059C122.734 29.5059 122.305 29.6927 121.959 30.0664C121.613 30.4355 121.398 30.9551 121.316 31.625H125.021V31.5293C124.985 30.8867 124.812 30.39 124.502 30.0391C124.192 29.6836 123.773 29.5059 123.244 29.5059ZM129.472 26.8125V28.6035H130.853V29.5811H129.472V34.168C129.472 34.4642 129.533 34.6875 129.656 34.8379C129.779 34.9837 129.989 35.0566 130.285 35.0566C130.431 35.0566 130.632 35.0293 130.887 34.9746V36C130.554 36.0911 130.23 36.1367 129.916 36.1367C129.351 36.1367 128.925 35.9658 128.638 35.624C128.351 35.2822 128.207 34.7969 128.207 34.168V29.5811H126.86V28.6035H128.207V26.8125H129.472ZM138.885 34.2568L140.307 28.6035H141.571L139.418 36H138.393L136.595 30.3945L134.845 36H133.819L131.673 28.6035H132.931L134.387 34.1406L136.109 28.6035H137.128L138.885 34.2568ZM145.933 36.1367C144.93 36.1367 144.114 35.8086 143.485 35.1523C142.856 34.4915 142.542 33.6097 142.542 32.5068V32.2744C142.542 31.5407 142.681 30.8867 142.959 30.3125C143.242 29.7337 143.633 29.2826 144.135 28.959C144.641 28.6309 145.188 28.4668 145.775 28.4668C146.737 28.4668 147.484 28.7835 148.018 29.417C148.551 30.0505 148.817 30.9574 148.817 32.1377V32.6641H143.807C143.825 33.3932 144.037 33.9834 144.442 34.4346C144.853 34.8812 145.372 35.1045 146.001 35.1045C146.448 35.1045 146.826 35.0133 147.136 34.8311C147.446 34.6488 147.717 34.4072 147.949 34.1064L148.722 34.708C148.102 35.6605 147.172 36.1367 145.933 36.1367ZM145.775 29.5059C145.265 29.5059 144.837 29.6927 144.49 30.0664C144.144 30.4355 143.93 30.9551 143.848 31.625H147.553V31.5293C147.516 30.8867 147.343 30.39 147.033 30.0391C146.723 29.6836 146.304 29.5059 145.775 29.5059ZM153.356 36.1367C152.354 36.1367 151.538 35.8086 150.909 35.1523C150.28 34.4915 149.966 33.6097 149.966 32.5068V32.2744C149.966 31.5407 150.105 30.8867 150.383 30.3125C150.665 29.7337 151.057 29.2826 151.559 28.959C152.064 28.6309 152.611 28.4668 153.199 28.4668C154.161 28.4668 154.908 28.7835 155.441 29.417C155.975 30.0505 156.241 30.9574 156.241 32.1377V32.6641H151.23C151.249 33.3932 151.461 33.9834 151.866 34.4346C152.276 34.8812 152.796 35.1045 153.425 35.1045C153.871 35.1045 154.25 35.0133 154.56 34.8311C154.869 34.6488 155.141 34.4072 155.373 34.1064L156.146 34.708C155.526 35.6605 154.596 36.1367 153.356 36.1367ZM153.199 29.5059C152.689 29.5059 152.26 29.6927 151.914 30.0664C151.568 30.4355 151.354 30.9551 151.271 31.625H154.977V31.5293C154.94 30.8867 154.767 30.39 154.457 30.0391C154.147 29.6836 153.728 29.5059 153.199 29.5059ZM158.907 28.6035L158.948 29.5332C159.513 28.8223 160.252 28.4668 161.163 28.4668C162.726 28.4668 163.515 29.3486 163.528 31.1123V36H162.264V31.1055C162.259 30.5723 162.136 30.1781 161.895 29.9229C161.658 29.6676 161.286 29.54 160.78 29.54C160.37 29.54 160.01 29.6494 159.7 29.8682C159.39 30.0869 159.149 30.374 158.976 30.7295V36H157.711V28.6035H158.907Z" fill="black"/>
<path d="M11.457 77.8984L13 63.5625H28.2734V67.6641H16.9453L16.1641 74.4609C17.4792 73.7057 18.9635 73.3281 20.6172 73.3281C23.3255 73.3281 25.4284 74.194 26.9258 75.9258C28.4362 77.6576 29.1914 79.9883 29.1914 82.918C29.1914 85.8086 28.3581 88.1133 26.6914 89.832C25.0247 91.5378 22.7396 92.3906 19.8359 92.3906C17.2318 92.3906 15.0703 91.6549 13.3516 90.1836C11.6458 88.6992 10.7214 86.7461 10.5781 84.3242H15.168C15.3503 85.7044 15.8451 86.7656 16.6523 87.5078C17.4596 88.237 18.5143 88.6016 19.8164 88.6016C21.2747 88.6016 22.4076 88.0807 23.2148 87.0391C24.0352 85.9974 24.4453 84.5781 24.4453 82.7812C24.4453 81.0495 23.9961 79.6823 23.0977 78.6797C22.1992 77.6641 20.9622 77.1562 19.3867 77.1562C18.5273 77.1562 17.7982 77.2734 17.1992 77.5078C16.6003 77.7292 15.9492 78.1719 15.2461 78.8359L11.457 77.8984ZM34.1914 77.8984L35.7344 63.5625H51.0078V67.6641H39.6797L38.8984 74.4609C40.2135 73.7057 41.6979 73.3281 43.3516 73.3281C46.0599 73.3281 48.1628 74.194 49.6602 75.9258C51.1706 77.6576 51.9258 79.9883 51.9258 82.918C51.9258 85.8086 51.0924 88.1133 49.4258 89.832C47.7591 91.5378 45.474 92.3906 42.5703 92.3906C39.9661 92.3906 37.8047 91.6549 36.0859 90.1836C34.3802 88.6992 33.4557 86.7461 33.3125 84.3242H37.9023C38.0846 85.7044 38.5794 86.7656 39.3867 87.5078C40.194 88.237 41.2487 88.6016 42.5508 88.6016C44.0091 88.6016 45.1419 88.0807 45.9492 87.0391C46.7695 85.9974 47.1797 84.5781 47.1797 82.7812C47.1797 81.0495 46.7305 79.6823 45.832 78.6797C44.9336 77.6641 43.6966 77.1562 42.1211 77.1562C41.2617 77.1562 40.5326 77.2734 39.9336 77.5078C39.3346 77.7292 38.6836 78.1719 37.9805 78.8359L34.1914 77.8984ZM74.1914 80.0273C74.1914 84.1159 73.4232 87.2018 71.8867 89.2852C70.3633 91.3555 68.0391 92.3906 64.9141 92.3906C61.8411 92.3906 59.5234 91.3815 57.9609 89.3633C56.4115 87.332 55.6172 84.3307 55.5781 80.3594V75.4375C55.5781 71.349 56.3398 68.2826 57.8633 66.2383C59.3997 64.194 61.737 63.1719 64.875 63.1719C67.987 63.1719 70.3047 64.168 71.8281 66.1602C73.3646 68.1523 74.1523 71.1341 74.1914 75.1055V80.0273ZM69.4453 74.7148C69.4453 72.0456 69.0807 70.0924 68.3516 68.8555C67.6224 67.6055 66.4635 66.9805 64.875 66.9805C63.3255 66.9805 62.1862 67.5729 61.457 68.7578C60.7279 69.9297 60.3438 71.7656 60.3047 74.2656V80.7109C60.3047 83.3672 60.6758 85.3464 61.418 86.6484C62.1602 87.9505 63.3255 88.6016 64.9141 88.6016C66.4375 88.6016 67.5638 88.0026 68.293 86.8047C69.0221 85.5938 69.4062 83.7057 69.4453 81.1406V74.7148ZM109.172 79.8711H89.2891V76.043H109.172V79.8711ZM129.621 75.6133H132.512C133.97 75.6003 135.122 75.2227 135.969 74.4805C136.828 73.7383 137.258 72.6641 137.258 71.2578C137.258 69.9036 136.9 68.8555 136.184 68.1133C135.48 67.3581 134.4 66.9805 132.941 66.9805C131.665 66.9805 130.617 67.3516 129.797 68.0938C128.977 68.8229 128.566 69.7799 128.566 70.9648H123.82C123.82 69.5065 124.204 68.1784 124.973 66.9805C125.754 65.7826 126.835 64.8516 128.215 64.1875C129.608 63.5104 131.164 63.1719 132.883 63.1719C135.721 63.1719 137.948 63.888 139.562 65.3203C141.19 66.7396 142.004 68.7188 142.004 71.2578C142.004 72.5339 141.594 73.7383 140.773 74.8711C139.966 75.9909 138.918 76.8372 137.629 77.4102C139.191 77.944 140.376 78.7839 141.184 79.9297C142.004 81.0755 142.414 82.4427 142.414 84.0312C142.414 86.5833 141.535 88.6146 139.777 90.125C138.033 91.6354 135.734 92.3906 132.883 92.3906C130.148 92.3906 127.909 91.6615 126.164 90.2031C124.419 88.7448 123.547 86.8047 123.547 84.3828H128.293C128.293 85.6328 128.71 86.6484 129.543 87.4297C130.389 88.2109 131.522 88.6016 132.941 88.6016C134.413 88.6016 135.572 88.2109 136.418 87.4297C137.264 86.6484 137.688 85.5156 137.688 84.0312C137.688 82.5339 137.245 81.3815 136.359 80.5742C135.474 79.7669 134.159 79.3633 132.414 79.3633H129.621V75.6133ZM165.988 92H146.867V88.7383L156.34 78.4062C157.707 76.8828 158.677 75.6133 159.25 74.5977C159.836 73.569 160.129 72.5404 160.129 71.5117C160.129 70.1576 159.745 69.0638 158.977 68.2305C158.221 67.3971 157.199 66.9805 155.91 66.9805C154.374 66.9805 153.182 67.4492 152.336 68.3867C151.49 69.3242 151.066 70.6068 151.066 72.2344H146.32C146.32 70.5026 146.711 68.9466 147.492 67.5664C148.286 66.1732 149.413 65.0924 150.871 64.3242C152.342 63.556 154.035 63.1719 155.949 63.1719C158.71 63.1719 160.884 63.8685 162.473 65.2617C164.074 66.6419 164.875 68.556 164.875 71.0039C164.875 72.4232 164.471 73.9141 163.664 75.4766C162.87 77.026 161.561 78.7904 159.738 80.7695L152.785 88.2109H165.988V92ZM188.137 80.0273C188.137 84.1159 187.368 87.2018 185.832 89.2852C184.309 91.3555 181.984 92.3906 178.859 92.3906C175.786 92.3906 173.469 91.3815 171.906 89.3633C170.357 87.332 169.562 84.3307 169.523 80.3594V75.4375C169.523 71.349 170.285 68.2826 171.809 66.2383C173.345 64.194 175.682 63.1719 178.82 63.1719C181.932 63.1719 184.25 64.168 185.773 66.1602C187.31 68.1523 188.098 71.1341 188.137 75.1055V80.0273ZM183.391 74.7148C183.391 72.0456 183.026 70.0924 182.297 68.8555C181.568 67.6055 180.409 66.9805 178.82 66.9805C177.271 66.9805 176.132 67.5729 175.402 68.7578C174.673 69.9297 174.289 71.7656 174.25 74.2656V80.7109C174.25 83.3672 174.621 85.3464 175.363 86.6484C176.105 87.9505 177.271 88.6016 178.859 88.6016C180.383 88.6016 181.509 88.0026 182.238 86.8047C182.967 85.5938 183.352 83.7057 183.391 81.1406V74.7148ZM210.871 80.0273C210.871 84.1159 210.103 87.2018 208.566 89.2852C207.043 91.3555 204.719 92.3906 201.594 92.3906C198.521 92.3906 196.203 91.3815 194.641 89.3633C193.091 87.332 192.297 84.3307 192.258 80.3594V75.4375C192.258 71.349 193.02 68.2826 194.543 66.2383C196.079 64.194 198.417 63.1719 201.555 63.1719C204.667 63.1719 206.984 64.168 208.508 66.1602C210.044 68.1523 210.832 71.1341 210.871 75.1055V80.0273ZM206.125 74.7148C206.125 72.0456 205.76 70.0924 205.031 68.8555C204.302 67.6055 203.143 66.9805 201.555 66.9805C200.005 66.9805 198.866 67.5729 198.137 68.7578C197.408 69.9297 197.023 71.7656 196.984 74.2656V80.7109C196.984 83.3672 197.355 85.3464 198.098 86.6484C198.84 87.9505 200.005 88.6016 201.594 88.6016C203.117 88.6016 204.243 88.0026 204.973 86.8047C205.702 85.5938 206.086 83.7057 206.125 81.1406V74.7148Z" fill="#FBC800"/>
</svg>
