<svg width="222" height="199" viewBox="0 0 222 199" fill="none" xmlns="http://www.w3.org/2000/svg">
<rect y="93.0132" width="222" height="104.015" fill="white" fill-opacity="0.3"/>
<ellipse cx="79.4859" cy="116.502" rx="7.48585" ry="7.48692" fill="#00C7A5" fill-opacity="0.2"/>
<ellipse cx="79.4859" cy="146.507" rx="7.48585" ry="7.48692" fill="#00C7A5" fill-opacity="0.2"/>
<ellipse cx="87.4859" cy="131.505" rx="7.48585" ry="7.48692" fill="#00C7A5" fill-opacity="0.2"/>
<ellipse cx="143.486" cy="176.511" rx="7.48585" ry="7.48692" fill="#00C7A5" fill-opacity="0.2"/>
<ellipse cx="103.486" cy="131.505" rx="7.48585" ry="7.48692" fill="#00C7A5" fill-opacity="0.2"/>
<ellipse cx="87.4859" cy="161.509" rx="7.48585" ry="7.48692" fill="#00C7A5" fill-opacity="0.2"/>
<ellipse cx="95.4859" cy="116.502" rx="7.48585" ry="7.48692" fill="#00C7A5" fill-opacity="0.2"/>
<ellipse cx="95.4859" cy="146.507" rx="7.48585" ry="7.48692" fill="#00C7A5" fill-opacity="0.2"/>
<ellipse cx="95.4859" cy="176.511" rx="7.48585" ry="7.48692" fill="#00C7A5" fill-opacity="0.2"/>
<ellipse cx="119.486" cy="101.5" rx="7.48585" ry="7.48692" fill="#00C7A5" fill-opacity="0.2"/>
<ellipse cx="119.486" cy="131.505" rx="7.48585" ry="7.48692" fill="#00C7A5" fill-opacity="0.2"/>
<ellipse cx="103.486" cy="161.509" rx="7.48585" ry="7.48692" fill="#00C7A5" fill-opacity="0.2"/>
<ellipse cx="111.486" cy="116.502" rx="7.48585" ry="7.48692" fill="#00C7A5" fill-opacity="0.2"/>
<ellipse cx="111.486" cy="146.507" rx="7.48585" ry="7.48692" fill="#8D75F3"/>
<ellipse cx="111.486" cy="176.511" rx="7.48585" ry="7.48692" fill="#00C7A5" fill-opacity="0.2"/>
<ellipse cx="135.486" cy="131.505" rx="7.48585" ry="7.48692" fill="#00C7A5" fill-opacity="0.2"/>
<ellipse cx="119.486" cy="161.509" rx="7.48585" ry="7.48692" fill="#00C7A5" fill-opacity="0.2"/>
<ellipse cx="127.486" cy="116.502" rx="7.48585" ry="7.48692" fill="#00C7A5" fill-opacity="0.2"/>
<ellipse cx="127.486" cy="146.507" rx="7.48585" ry="7.48692" fill="#00C7A5" fill-opacity="0.2"/>
<ellipse cx="127.486" cy="176.511" rx="7.48585" ry="7.48692" fill="#00C7A5" fill-opacity="0.2"/>
<ellipse cx="143.486" cy="116.502" rx="7.48585" ry="7.48692" fill="#00C7A5" fill-opacity="0.2"/>
<ellipse cx="103.486" cy="191.513" rx="7.48585" ry="7.48692" fill="#00C7A5" fill-opacity="0.2"/>
<ellipse cx="151.486" cy="131.505" rx="7.48585" ry="7.48692" fill="#00C7A5" fill-opacity="0.2"/>
<ellipse cx="135.486" cy="161.509" rx="7.48585" ry="7.48692" fill="#00C7A5" fill-opacity="0.2"/>
<ellipse cx="79.4859" cy="176.511" rx="7.48585" ry="7.48692" fill="#00C7A5" fill-opacity="0.2"/>
<ellipse cx="143.486" cy="146.507" rx="7.48585" ry="7.48692" fill="#00C7A5" fill-opacity="0.2"/>
<ellipse cx="119.486" cy="191.513" rx="7.48585" ry="7.48692" fill="#00C7A5" fill-opacity="0.2"/>
<ellipse cx="103.486" cy="101.5" rx="7.48585" ry="7.48692" fill="#00C7A5" fill-opacity="0.2"/>
<ellipse cx="71.4859" cy="161.509" rx="7.48585" ry="7.48692" fill="#00C7A5" fill-opacity="0.2"/>
<path d="M59.2666 19H56.7969V9.18262L53.5625 10.3428V8.21582L59.1348 6.20312H59.2666V19ZM67.6689 15.0713L66.5615 16.0996V19H64.1182V5.5H66.5615V13.2168L67.2998 12.373L69.9277 9.49023H72.8633L69.2773 13.4541L73.3643 19H70.3672L67.6689 15.0713ZM74.6562 14.1748C74.6562 13.4541 74.7441 12.7949 74.9199 12.1973C75.1016 11.5996 75.3594 11.0869 75.6934 10.6592C76.0273 10.2314 76.4316 9.90039 76.9062 9.66602C77.3809 9.43164 77.917 9.31445 78.5146 9.31445C79.0713 9.31445 79.5488 9.4082 79.9473 9.5957C80.3457 9.7832 80.6855 10.0498 80.9668 10.3955L81.0635 9.49023H83.2871V18.6924C83.2871 19.3369 83.1758 19.9111 82.9531 20.415C82.7363 20.9189 82.4287 21.3438 82.0303 21.6895C81.6377 22.0352 81.1631 22.2959 80.6064 22.4717C80.0557 22.6533 79.4463 22.7441 78.7783 22.7441C78.4912 22.7441 78.1836 22.7148 77.8555 22.6562C77.5273 22.5977 77.2021 22.5068 76.8799 22.3838C76.5576 22.2607 76.2529 22.1025 75.9658 21.9092C75.6787 21.7217 75.4326 21.4961 75.2275 21.2324L76.3262 19.7471C76.6367 20.0986 76.9883 20.3652 77.3809 20.5469C77.7734 20.7344 78.1982 20.8281 78.6553 20.8281C79.3408 20.8281 79.874 20.6436 80.2549 20.2744C80.6416 19.9111 80.835 19.3926 80.835 18.7188V18.1738C80.5479 18.4902 80.2109 18.7363 79.8242 18.9121C79.4434 19.0879 79.001 19.1758 78.4971 19.1758C77.9053 19.1758 77.3721 19.0557 76.8975 18.8154C76.4287 18.5693 76.0273 18.2324 75.6934 17.8047C75.3594 17.377 75.1016 16.8701 74.9199 16.2842C74.7441 15.6924 74.6562 15.0508 74.6562 14.3594V14.1748ZM77.1084 14.3594C77.1084 14.7578 77.1465 15.1299 77.2227 15.4756C77.3047 15.8154 77.4277 16.1143 77.5918 16.3721C77.7559 16.624 77.9639 16.8232 78.2158 16.9697C78.4678 17.1162 78.7666 17.1895 79.1123 17.1895C79.54 17.1895 79.8916 17.1074 80.167 16.9434C80.4482 16.7793 80.6709 16.5508 80.835 16.2578V12.2324C80.6709 11.9336 80.4482 11.7051 80.167 11.5469C79.8916 11.3828 79.5459 11.3008 79.1299 11.3008C78.7842 11.3008 78.4854 11.377 78.2334 11.5293C77.9814 11.6758 77.7705 11.8809 77.6006 12.1445C77.4365 12.4023 77.3135 12.707 77.2314 13.0586C77.1494 13.4043 77.1084 13.7764 77.1084 14.1748V14.3594ZM99.4678 6.20312L100.681 11.0107L102.061 6.20312H105.128V19H102.86V15.2119L102.966 9.22656L101.287 14.7812H100.065L98.5625 9.46387L98.668 15.2119V19H96.4004V6.20312H99.4678ZM111.948 19.1758C111.216 19.1758 110.551 19.0557 109.953 18.8154C109.355 18.5752 108.843 18.25 108.415 17.8398C107.987 17.4238 107.656 16.9375 107.422 16.3809C107.193 15.8184 107.079 15.2178 107.079 14.5791V14.2275C107.079 13.501 107.193 12.8389 107.422 12.2412C107.65 11.6377 107.97 11.1191 108.38 10.6855C108.79 10.252 109.276 9.91504 109.839 9.6748C110.401 9.43457 111.014 9.31445 111.676 9.31445C112.361 9.31445 112.971 9.42871 113.504 9.65723C114.043 9.87988 114.497 10.1963 114.866 10.6064C115.241 11.0166 115.525 11.5117 115.719 12.0918C115.912 12.666 116.009 13.3018 116.009 13.999V15.0361H109.558C109.604 15.3584 109.698 15.6543 109.839 15.9238C109.985 16.1875 110.17 16.416 110.393 16.6094C110.615 16.8027 110.87 16.9521 111.157 17.0576C111.444 17.1631 111.758 17.2158 112.098 17.2158C112.338 17.2158 112.575 17.1924 112.81 17.1455C113.05 17.0986 113.278 17.0312 113.495 16.9434C113.712 16.8496 113.914 16.7354 114.102 16.6006C114.289 16.4658 114.453 16.3076 114.594 16.126L115.815 17.4443C115.663 17.6611 115.464 17.875 115.218 18.0859C114.978 18.291 114.69 18.4756 114.356 18.6396C114.028 18.7979 113.662 18.9268 113.258 19.0264C112.854 19.126 112.417 19.1758 111.948 19.1758ZM111.658 11.292C111.383 11.292 111.131 11.3418 110.902 11.4414C110.674 11.5352 110.472 11.6729 110.296 11.8545C110.126 12.0361 109.982 12.2529 109.865 12.5049C109.748 12.7568 109.66 13.0381 109.602 13.3486H113.609V13.1553C113.598 12.8975 113.548 12.6543 113.46 12.4258C113.372 12.1973 113.246 12.001 113.082 11.8369C112.918 11.667 112.716 11.5352 112.476 11.4414C112.241 11.3418 111.969 11.292 111.658 11.292ZM122.627 7.16113V9.49023H126.178V11.292H122.627V15.3789C122.627 15.7246 122.665 16.0146 122.741 16.249C122.823 16.4775 122.938 16.6621 123.084 16.8027C123.23 16.9375 123.406 17.0342 123.611 17.0928C123.822 17.1514 124.057 17.1807 124.314 17.1807C124.502 17.1807 124.692 17.1719 124.886 17.1543C125.085 17.1367 125.272 17.1162 125.448 17.0928C125.63 17.0635 125.797 17.0342 125.949 17.0049C126.107 16.9756 126.242 16.9463 126.354 16.917L126.591 18.5957C126.421 18.6953 126.222 18.7832 125.993 18.8594C125.765 18.9297 125.521 18.9883 125.264 19.0352C125.006 19.082 124.736 19.1172 124.455 19.1406C124.18 19.1699 123.907 19.1846 123.638 19.1846C123.116 19.1846 122.642 19.1172 122.214 18.9824C121.792 18.8418 121.429 18.6279 121.124 18.3408C120.825 18.0479 120.594 17.6787 120.43 17.2334C120.266 16.7822 120.184 16.2432 120.184 15.6162V11.292H118.013V9.49023H120.184V7.16113H122.627ZM131.398 10.7998C131.715 10.3369 132.099 9.97363 132.55 9.70996C133.007 9.44629 133.517 9.31445 134.079 9.31445C134.577 9.31445 135.034 9.39062 135.45 9.54297C135.866 9.68945 136.224 9.9209 136.522 10.2373C136.821 10.5537 137.053 10.9609 137.217 11.459C137.387 11.9512 137.472 12.5459 137.472 13.2432V19H135.028V13.2256C135.028 12.8857 134.984 12.5928 134.896 12.3467C134.814 12.1006 134.694 11.9014 134.536 11.749C134.378 11.5967 134.188 11.4854 133.965 11.415C133.742 11.3389 133.49 11.3008 133.209 11.3008C132.799 11.3008 132.441 11.374 132.137 11.5205C131.838 11.667 131.592 11.8721 131.398 12.1357V19H128.955V5.5H131.398V10.7998ZM145.707 19C145.648 18.8828 145.599 18.748 145.558 18.5957C145.517 18.4434 145.481 18.2822 145.452 18.1123C145.317 18.2588 145.162 18.3965 144.986 18.5254C144.811 18.6543 144.614 18.7686 144.397 18.8682C144.187 18.9619 143.952 19.0352 143.694 19.0879C143.437 19.1465 143.158 19.1758 142.859 19.1758C142.373 19.1758 141.925 19.1055 141.515 18.9648C141.11 18.8242 140.762 18.6279 140.469 18.376C140.176 18.124 139.947 17.8252 139.783 17.4795C139.619 17.1279 139.537 16.7471 139.537 16.3369C139.537 15.335 139.909 14.5615 140.653 14.0166C141.403 13.4658 142.52 13.1904 144.002 13.1904H145.364V12.6279C145.364 12.1709 145.215 11.8105 144.916 11.5469C144.617 11.2773 144.187 11.1426 143.624 11.1426C143.126 11.1426 142.763 11.251 142.534 11.4678C142.306 11.6787 142.191 11.9629 142.191 12.3203H139.748C139.748 11.916 139.836 11.5322 140.012 11.1689C140.193 10.8057 140.454 10.4863 140.794 10.2109C141.14 9.93555 141.559 9.71875 142.051 9.56055C142.549 9.39648 143.117 9.31445 143.756 9.31445C144.33 9.31445 144.863 9.38477 145.355 9.52539C145.854 9.66602 146.284 9.87402 146.647 10.1494C147.011 10.4248 147.295 10.7734 147.5 11.1953C147.705 11.6113 147.808 12.0947 147.808 12.6455V16.7236C147.808 17.2334 147.84 17.6553 147.904 17.9893C147.969 18.3232 148.062 18.6104 148.186 18.8506V19H145.707ZM143.378 17.2861C143.624 17.2861 143.853 17.2568 144.063 17.1982C144.274 17.1396 144.465 17.0635 144.635 16.9697C144.805 16.876 144.951 16.7705 145.074 16.6533C145.197 16.5303 145.294 16.4072 145.364 16.2842V14.6494H144.116C143.735 14.6494 143.41 14.6875 143.141 14.7637C142.871 14.834 142.651 14.9365 142.481 15.0713C142.312 15.2002 142.186 15.3584 142.104 15.5459C142.021 15.7275 141.98 15.9268 141.98 16.1436C141.98 16.4717 142.095 16.7441 142.323 16.9609C142.558 17.1777 142.909 17.2861 143.378 17.2861ZM152.791 9.49023L152.94 10.8086C153.28 10.334 153.693 9.96777 154.18 9.70996C154.666 9.44629 155.205 9.31445 155.797 9.31445C156.277 9.31445 156.717 9.38477 157.115 9.52539C157.514 9.66602 157.856 9.8916 158.144 10.2021C158.437 10.5068 158.662 10.9023 158.82 11.3887C158.984 11.8691 159.066 12.4551 159.066 13.1465V19H156.623V13.1816C156.623 12.8066 156.579 12.499 156.491 12.2588C156.409 12.0127 156.289 11.8193 156.131 11.6787C155.973 11.5381 155.782 11.4414 155.56 11.3887C155.337 11.3301 155.085 11.3008 154.804 11.3008C154.388 11.3008 154.033 11.3857 153.74 11.5557C153.447 11.7197 153.21 11.9482 153.028 12.2412V19H150.576V9.49023H152.791ZM166.001 19.1758C165.269 19.1758 164.604 19.0557 164.006 18.8154C163.408 18.5752 162.896 18.25 162.468 17.8398C162.04 17.4238 161.709 16.9375 161.475 16.3809C161.246 15.8184 161.132 15.2178 161.132 14.5791V14.2275C161.132 13.501 161.246 12.8389 161.475 12.2412C161.703 11.6377 162.022 11.1191 162.433 10.6855C162.843 10.252 163.329 9.91504 163.892 9.6748C164.454 9.43457 165.066 9.31445 165.729 9.31445C166.414 9.31445 167.023 9.42871 167.557 9.65723C168.096 9.87988 168.55 10.1963 168.919 10.6064C169.294 11.0166 169.578 11.5117 169.771 12.0918C169.965 12.666 170.062 13.3018 170.062 13.999V15.0361H163.61C163.657 15.3584 163.751 15.6543 163.892 15.9238C164.038 16.1875 164.223 16.416 164.445 16.6094C164.668 16.8027 164.923 16.9521 165.21 17.0576C165.497 17.1631 165.811 17.2158 166.15 17.2158C166.391 17.2158 166.628 17.1924 166.862 17.1455C167.103 17.0986 167.331 17.0312 167.548 16.9434C167.765 16.8496 167.967 16.7354 168.154 16.6006C168.342 16.4658 168.506 16.3076 168.646 16.126L169.868 17.4443C169.716 17.6611 169.517 17.875 169.271 18.0859C169.03 18.291 168.743 18.4756 168.409 18.6396C168.081 18.7979 167.715 18.9268 167.311 19.0264C166.906 19.126 166.47 19.1758 166.001 19.1758ZM165.711 11.292C165.436 11.292 165.184 11.3418 164.955 11.4414C164.727 11.5352 164.524 11.6729 164.349 11.8545C164.179 12.0361 164.035 12.2529 163.918 12.5049C163.801 12.7568 163.713 13.0381 163.654 13.3486H167.662V13.1553C167.65 12.8975 167.601 12.6543 167.513 12.4258C167.425 12.1973 167.299 12.001 167.135 11.8369C166.971 11.667 166.769 11.5352 166.528 11.4414C166.294 11.3418 166.021 11.292 165.711 11.292Z" fill="#8D75F3"/>
<path d="M106.851 39.3242H116.141V41.4072H106.851V39.3242ZM106.851 35.3252H116.141V37.3906H106.851V35.3252ZM108.731 34.4639L110.788 29.1641H112.212L114.26 34.4639H112.555L111.509 31.8447L110.489 34.4639H108.731ZM69.0488 68H60.3213V66.3301L64.4609 61.8828C64.7832 61.5312 65.0557 61.2119 65.2783 60.9248C65.501 60.6377 65.6797 60.377 65.8145 60.1426C65.9551 59.9023 66.0547 59.6797 66.1133 59.4746C66.1777 59.2695 66.21 59.0703 66.21 58.877C66.21 58.5898 66.1689 58.335 66.0869 58.1123C66.0049 57.8896 65.8877 57.7021 65.7354 57.5498C65.5889 57.3916 65.4102 57.2715 65.1992 57.1895C64.9941 57.1074 64.7656 57.0664 64.5137 57.0664C63.8398 57.0664 63.3359 57.2539 63.002 57.6289C62.6738 58.0039 62.5098 58.5283 62.5098 59.2021H60.0576C60.0576 58.6338 60.166 58.0977 60.3828 57.5938C60.5996 57.084 60.9043 56.6387 61.2969 56.2578C61.6953 55.877 62.1729 55.5781 62.7295 55.3613C63.292 55.1387 63.9131 55.0273 64.5928 55.0273C65.2432 55.0273 65.8174 55.1182 66.3154 55.2998C66.8193 55.4814 67.2383 55.7363 67.5723 56.0645C67.9121 56.3926 68.1699 56.7881 68.3457 57.251C68.5215 57.708 68.6094 58.2148 68.6094 58.7715C68.6094 59.1934 68.542 59.5977 68.4072 59.9844C68.2783 60.3652 68.0908 60.7432 67.8447 61.1182C67.6045 61.4932 67.3145 61.877 66.9746 62.2695C66.6348 62.6562 66.2568 63.0635 65.8408 63.4912L63.4326 66.04H69.0488V68ZM79.5254 58.6045C79.5254 59.2256 79.3672 59.7793 79.0508 60.2656C78.7402 60.7461 78.3125 61.1299 77.7676 61.417C78.3887 61.71 78.8809 62.1201 79.2441 62.6475C79.6133 63.1748 79.7979 63.793 79.7979 64.502C79.7979 65.1055 79.6865 65.6357 79.4639 66.0928C79.2471 66.5498 78.9453 66.9336 78.5586 67.2441C78.1777 67.5488 77.7266 67.7803 77.2051 67.9385C76.6836 68.0967 76.1211 68.1758 75.5176 68.1758C74.9082 68.1758 74.3398 68.0967 73.8125 67.9385C73.291 67.7803 72.8369 67.5488 72.4502 67.2441C72.0635 66.9336 71.7588 66.5498 71.5361 66.0928C71.3193 65.6357 71.2109 65.1055 71.2109 64.502C71.2109 64.1504 71.2578 63.8193 71.3516 63.5088C71.4512 63.1924 71.5889 62.9053 71.7646 62.6475C71.9404 62.3838 72.1514 62.1494 72.3975 61.9443C72.6494 61.7334 72.9307 61.5547 73.2412 61.4082C72.6963 61.127 72.2686 60.7461 71.958 60.2656C71.6475 59.7793 71.4922 59.2256 71.4922 58.6045C71.4922 58.0244 71.5918 57.5146 71.791 57.0752C71.9902 56.6299 72.2656 56.2549 72.6172 55.9502C72.9746 55.6455 73.3965 55.417 73.8828 55.2646C74.375 55.1064 74.9111 55.0273 75.4912 55.0273C76.0713 55.0273 76.6074 55.1064 77.0996 55.2646C77.5918 55.417 78.0166 55.6455 78.374 55.9502C78.7373 56.2549 79.0186 56.6299 79.2178 57.0752C79.4229 57.5146 79.5254 58.0244 79.5254 58.6045ZM77.3457 64.335C77.3457 64.042 77.3018 63.7783 77.2139 63.5439C77.126 63.3096 77 63.1104 76.8359 62.9463C76.6777 62.7764 76.4844 62.6475 76.2559 62.5596C76.0332 62.4717 75.7812 62.4277 75.5 62.4277C75.2188 62.4277 74.9639 62.4717 74.7354 62.5596C74.5127 62.6475 74.3223 62.7764 74.1641 62.9463C74.0059 63.1104 73.8828 63.3096 73.7949 63.5439C73.707 63.7783 73.6631 64.042 73.6631 64.335C73.6631 64.9209 73.8301 65.3809 74.1641 65.7148C74.498 66.0488 74.9492 66.2158 75.5176 66.2158C75.7871 66.2158 76.0332 66.1748 76.2559 66.0928C76.4785 66.0049 76.6689 65.8789 76.8271 65.7148C76.9912 65.5508 77.1172 65.3545 77.2051 65.126C77.2988 64.8916 77.3457 64.6279 77.3457 64.335ZM77.0908 58.7188C77.0908 58.4609 77.0527 58.2266 76.9766 58.0156C76.9004 57.8047 76.792 57.626 76.6514 57.4795C76.5166 57.3271 76.3496 57.21 76.1504 57.1279C75.957 57.0459 75.7373 57.0049 75.4912 57.0049C74.9932 57.0049 74.6094 57.1572 74.3398 57.4619C74.0703 57.7666 73.9355 58.1855 73.9355 58.7188C73.9355 58.9766 73.9707 59.2139 74.041 59.4307C74.1113 59.6416 74.2139 59.8232 74.3486 59.9756C74.4893 60.1279 74.6562 60.248 74.8496 60.3359C75.0488 60.418 75.2715 60.459 75.5176 60.459C75.7637 60.459 75.9834 60.418 76.1768 60.3359C76.3701 60.248 76.5342 60.1279 76.6689 59.9756C76.8037 59.8232 76.9062 59.6416 76.9766 59.4307C77.0527 59.2139 77.0908 58.9766 77.0908 58.7188ZM85.8799 64.0713L84.7725 65.0996V68H82.3291V54.5H84.7725V62.2168L85.5107 61.373L88.1387 58.4902H91.0742L87.4883 62.4541L91.5752 68H88.5781L85.8799 64.0713ZM92.8672 63.1748C92.8672 62.4541 92.9551 61.7949 93.1309 61.1973C93.3125 60.5996 93.5703 60.0869 93.9043 59.6592C94.2383 59.2314 94.6426 58.9004 95.1172 58.666C95.5918 58.4316 96.1279 58.3145 96.7256 58.3145C97.2822 58.3145 97.7598 58.4082 98.1582 58.5957C98.5566 58.7832 98.8965 59.0498 99.1777 59.3955L99.2744 58.4902H101.498V67.6924C101.498 68.3369 101.387 68.9111 101.164 69.415C100.947 69.9189 100.64 70.3438 100.241 70.6895C99.8486 71.0352 99.374 71.2959 98.8174 71.4717C98.2666 71.6533 97.6572 71.7441 96.9893 71.7441C96.7021 71.7441 96.3945 71.7148 96.0664 71.6562C95.7383 71.5977 95.4131 71.5068 95.0908 71.3838C94.7686 71.2607 94.4639 71.1025 94.1768 70.9092C93.8896 70.7217 93.6436 70.4961 93.4385 70.2324L94.5371 68.7471C94.8477 69.0986 95.1992 69.3652 95.5918 69.5469C95.9844 69.7344 96.4092 69.8281 96.8662 69.8281C97.5518 69.8281 98.085 69.6436 98.4658 69.2744C98.8525 68.9111 99.0459 68.3926 99.0459 67.7188V67.1738C98.7588 67.4902 98.4219 67.7363 98.0352 67.9121C97.6543 68.0879 97.2119 68.1758 96.708 68.1758C96.1162 68.1758 95.583 68.0557 95.1084 67.8154C94.6396 67.5693 94.2383 67.2324 93.9043 66.8047C93.5703 66.377 93.3125 65.8701 93.1309 65.2842C92.9551 64.6924 92.8672 64.0508 92.8672 63.3594V63.1748ZM95.3193 63.3594C95.3193 63.7578 95.3574 64.1299 95.4336 64.4756C95.5156 64.8154 95.6387 65.1143 95.8027 65.3721C95.9668 65.624 96.1748 65.8232 96.4268 65.9697C96.6787 66.1162 96.9775 66.1895 97.3232 66.1895C97.751 66.1895 98.1025 66.1074 98.3779 65.9434C98.6592 65.7793 98.8818 65.5508 99.0459 65.2578V61.2324C98.8818 60.9336 98.6592 60.7051 98.3779 60.5469C98.1025 60.3828 97.7568 60.3008 97.3408 60.3008C96.9951 60.3008 96.6963 60.377 96.4443 60.5293C96.1924 60.6758 95.9814 60.8809 95.8115 61.1445C95.6475 61.4023 95.5244 61.707 95.4424 62.0586C95.3604 62.4043 95.3193 62.7764 95.3193 63.1748V63.3594ZM123.532 63.9922C123.491 64.6367 123.351 65.2168 123.11 65.7324C122.876 66.248 122.56 66.6875 122.161 67.0508C121.763 67.4141 121.288 67.6953 120.737 67.8945C120.187 68.0879 119.577 68.1846 118.909 68.1846C118.153 68.1846 117.482 68.0469 116.896 67.7715C116.311 67.4902 115.818 67.1006 115.42 66.6025C115.021 66.0986 114.717 65.4951 114.506 64.792C114.295 64.0889 114.189 63.3154 114.189 62.4717V60.749C114.189 59.8994 114.301 59.123 114.523 58.4199C114.746 57.7168 115.062 57.1133 115.473 56.6094C115.883 56.1055 116.378 55.7158 116.958 55.4404C117.544 55.1592 118.2 55.0186 118.927 55.0186C119.63 55.0186 120.254 55.1182 120.799 55.3174C121.35 55.5166 121.818 55.8008 122.205 56.1699C122.592 56.5391 122.896 56.9902 123.119 57.5234C123.342 58.0566 123.482 58.6572 123.541 59.3252H121.08C121.057 58.9443 120.998 58.6104 120.904 58.3232C120.816 58.0361 120.685 57.7988 120.509 57.6113C120.339 57.418 120.122 57.2744 119.858 57.1807C119.601 57.0811 119.29 57.0312 118.927 57.0312C118.546 57.0312 118.215 57.1133 117.934 57.2773C117.652 57.4414 117.418 57.6816 117.23 57.998C117.049 58.3145 116.914 58.7041 116.826 59.167C116.738 59.624 116.694 60.1455 116.694 60.7314V62.4717C116.694 63.7314 116.87 64.6631 117.222 65.2666C117.579 65.8701 118.142 66.1719 118.909 66.1719C119.554 66.1719 120.063 66.002 120.438 65.6621C120.813 65.3164 121.021 64.7598 121.062 63.9922H123.532ZM134.387 62.542C134.387 63.3623 134.278 64.1182 134.062 64.8096C133.845 65.501 133.531 66.0957 133.121 66.5938C132.711 67.0918 132.21 67.4814 131.618 67.7627C131.032 68.0381 130.37 68.1758 129.632 68.1758C128.894 68.1758 128.237 68.0381 127.663 67.7627C127.089 67.4814 126.605 67.0918 126.213 66.5938C125.82 66.0898 125.521 65.4951 125.316 64.8096C125.111 64.1182 125.009 63.3623 125.009 62.542V60.6787C125.009 59.8584 125.111 59.1025 125.316 58.4111C125.521 57.7197 125.82 57.125 126.213 56.627C126.605 56.123 127.086 55.7305 127.654 55.4492C128.229 55.168 128.885 55.0273 129.623 55.0273C130.367 55.0273 131.032 55.168 131.618 55.4492C132.21 55.7305 132.711 56.123 133.121 56.627C133.531 57.125 133.845 57.7197 134.062 58.4111C134.278 59.1025 134.387 59.8584 134.387 60.6787V62.542ZM131.882 60.6611C131.882 60.1396 131.838 59.6592 131.75 59.2197C131.668 58.7803 131.536 58.4023 131.354 58.0859C131.173 57.7695 130.938 57.5234 130.651 57.3477C130.37 57.166 130.027 57.0752 129.623 57.0752C129.225 57.0752 128.891 57.166 128.621 57.3477C128.352 57.5234 128.135 57.7695 127.971 58.0859C127.807 58.4023 127.689 58.7803 127.619 59.2197C127.549 59.6592 127.514 60.1396 127.514 60.6611V62.542C127.514 63.0576 127.549 63.5352 127.619 63.9746C127.689 64.4141 127.807 64.7949 127.971 65.1172C128.135 65.4395 128.352 65.6914 128.621 65.873C128.891 66.0547 129.228 66.1455 129.632 66.1455C130.03 66.1455 130.37 66.0547 130.651 65.873C130.938 65.6914 131.17 65.4424 131.346 65.126C131.527 64.8037 131.662 64.4229 131.75 63.9834C131.838 63.5439 131.882 63.0635 131.882 62.542V60.6611ZM141.29 70.34H135.602V68.864L137.564 66.938C138.104 66.41 138.47 66.008 138.662 65.732C138.866 65.444 138.968 65.144 138.968 64.832C138.968 64.616 138.896 64.448 138.752 64.328C138.62 64.208 138.434 64.148 138.194 64.148C137.726 64.148 137.198 64.406 136.61 64.922L135.53 63.59C135.914 63.254 136.34 62.984 136.808 62.78C137.288 62.564 137.846 62.456 138.482 62.456C139.262 62.456 139.886 62.648 140.354 63.032C140.834 63.404 141.074 63.944 141.074 64.652C141.074 65.192 140.924 65.684 140.624 66.128C140.324 66.572 139.82 67.112 139.112 67.748L138.194 68.576H141.29V70.34ZM147.79 68.1758C147.058 68.1758 146.393 68.0557 145.795 67.8154C145.197 67.5752 144.685 67.25 144.257 66.8398C143.829 66.4238 143.498 65.9375 143.264 65.3809C143.035 64.8184 142.921 64.2178 142.921 63.5791V63.2275C142.921 62.501 143.035 61.8389 143.264 61.2412C143.492 60.6377 143.812 60.1191 144.222 59.6855C144.632 59.252 145.118 58.915 145.681 58.6748C146.243 58.4346 146.855 58.3145 147.518 58.3145C148.203 58.3145 148.812 58.4287 149.346 58.6572C149.885 58.8799 150.339 59.1963 150.708 59.6064C151.083 60.0166 151.367 60.5117 151.561 61.0918C151.754 61.666 151.851 62.3018 151.851 62.999V64.0361H145.399C145.446 64.3584 145.54 64.6543 145.681 64.9238C145.827 65.1875 146.012 65.416 146.234 65.6094C146.457 65.8027 146.712 65.9521 146.999 66.0576C147.286 66.1631 147.6 66.2158 147.939 66.2158C148.18 66.2158 148.417 66.1924 148.651 66.1455C148.892 66.0986 149.12 66.0312 149.337 65.9434C149.554 65.8496 149.756 65.7354 149.943 65.6006C150.131 65.4658 150.295 65.3076 150.436 65.126L151.657 66.4443C151.505 66.6611 151.306 66.875 151.06 67.0859C150.819 67.291 150.532 67.4756 150.198 67.6396C149.87 67.7979 149.504 67.9268 149.1 68.0264C148.695 68.126 148.259 68.1758 147.79 68.1758ZM147.5 60.292C147.225 60.292 146.973 60.3418 146.744 60.4414C146.516 60.5352 146.313 60.6729 146.138 60.8545C145.968 61.0361 145.824 61.2529 145.707 61.5049C145.59 61.7568 145.502 62.0381 145.443 62.3486H149.451V62.1553C149.439 61.8975 149.39 61.6543 149.302 61.4258C149.214 61.1973 149.088 61.001 148.924 60.8369C148.76 60.667 148.558 60.5352 148.317 60.4414C148.083 60.3418 147.811 60.292 147.5 60.292ZM153.74 63.166C153.74 62.4453 153.822 61.7861 153.986 61.1885C154.15 60.5908 154.391 60.0811 154.707 59.6592C155.029 59.2314 155.422 58.9004 155.885 58.666C156.354 58.4316 156.89 58.3145 157.493 58.3145C158.032 58.3145 158.501 58.4141 158.899 58.6133C159.304 58.8125 159.652 59.0938 159.945 59.457L160.095 58.4902H162.248V71.6562H159.796V67.1914C159.509 67.5078 159.175 67.751 158.794 67.9209C158.413 68.0908 157.974 68.1758 157.476 68.1758C156.878 68.1758 156.348 68.0557 155.885 67.8154C155.422 67.5693 155.032 67.2324 154.716 66.8047C154.399 66.3711 154.156 65.8613 153.986 65.2754C153.822 64.6836 153.74 64.042 153.74 63.3506V63.166ZM156.184 63.3506C156.184 63.7432 156.219 64.1123 156.289 64.458C156.359 64.8037 156.471 65.1084 156.623 65.3721C156.775 65.6299 156.972 65.835 157.212 65.9873C157.458 66.1396 157.754 66.2158 158.1 66.2158C158.527 66.2158 158.876 66.1309 159.146 65.9609C159.421 65.791 159.638 65.5566 159.796 65.2578V61.2148C159.638 60.9219 159.421 60.6963 159.146 60.5381C158.876 60.374 158.533 60.292 158.117 60.292C157.771 60.292 157.476 60.3682 157.229 60.5205C156.989 60.667 156.79 60.8691 156.632 61.127C156.479 61.3848 156.365 61.6895 156.289 62.041C156.219 62.3867 156.184 62.7617 156.184 63.166V63.3506Z" fill="#00C7A5"/>
</svg>
