<svg width="222" height="148" viewBox="0 0 222 148" fill="none" xmlns="http://www.w3.org/2000/svg">
<rect y="44" width="222" height="104" fill="white" fill-opacity="0.3"/>
<circle cx="111.486" cy="96.4859" r="7.48585" fill="#8D75F3"/>
<circle cx="112" cy="96" r="23.5" stroke="#8D75F3" stroke-opacity="0.3" stroke-width="3"/>
<circle cx="112" cy="96" r="30.5" stroke="#8D75F3" stroke-opacity="0.2" stroke-width="3"/>
<circle cx="112" cy="96" r="37.5" stroke="#8D75F3" stroke-opacity="0.1" stroke-width="3"/>
<path d="M59.2666 19H56.7969V9.18262L53.5625 10.3428V8.21582L59.1348 6.20312H59.2666V19ZM67.6689 15.0713L66.5615 16.0996V19H64.1182V5.5H66.5615V13.2168L67.2998 12.373L69.9277 9.49023H72.8633L69.2773 13.4541L73.3643 19H70.3672L67.6689 15.0713ZM74.6562 14.1748C74.6562 13.4541 74.7441 12.7949 74.9199 12.1973C75.1016 11.5996 75.3594 11.0869 75.6934 10.6592C76.0273 10.2314 76.4316 9.90039 76.9062 9.66602C77.3809 9.43164 77.917 9.31445 78.5146 9.31445C79.0713 9.31445 79.5488 9.4082 79.9473 9.5957C80.3457 9.7832 80.6855 10.0498 80.9668 10.3955L81.0635 9.49023H83.2871V18.6924C83.2871 19.3369 83.1758 19.9111 82.9531 20.415C82.7363 20.9189 82.4287 21.3438 82.0303 21.6895C81.6377 22.0352 81.1631 22.2959 80.6064 22.4717C80.0557 22.6533 79.4463 22.7441 78.7783 22.7441C78.4912 22.7441 78.1836 22.7148 77.8555 22.6562C77.5273 22.5977 77.2021 22.5068 76.8799 22.3838C76.5576 22.2607 76.2529 22.1025 75.9658 21.9092C75.6787 21.7217 75.4326 21.4961 75.2275 21.2324L76.3262 19.7471C76.6367 20.0986 76.9883 20.3652 77.3809 20.5469C77.7734 20.7344 78.1982 20.8281 78.6553 20.8281C79.3408 20.8281 79.874 20.6436 80.2549 20.2744C80.6416 19.9111 80.835 19.3926 80.835 18.7188V18.1738C80.5479 18.4902 80.2109 18.7363 79.8242 18.9121C79.4434 19.0879 79.001 19.1758 78.4971 19.1758C77.9053 19.1758 77.3721 19.0557 76.8975 18.8154C76.4287 18.5693 76.0273 18.2324 75.6934 17.8047C75.3594 17.377 75.1016 16.8701 74.9199 16.2842C74.7441 15.6924 74.6562 15.0508 74.6562 14.3594V14.1748ZM77.1084 14.3594C77.1084 14.7578 77.1465 15.1299 77.2227 15.4756C77.3047 15.8154 77.4277 16.1143 77.5918 16.3721C77.7559 16.624 77.9639 16.8232 78.2158 16.9697C78.4678 17.1162 78.7666 17.1895 79.1123 17.1895C79.54 17.1895 79.8916 17.1074 80.167 16.9434C80.4482 16.7793 80.6709 16.5508 80.835 16.2578V12.2324C80.6709 11.9336 80.4482 11.7051 80.167 11.5469C79.8916 11.3828 79.5459 11.3008 79.1299 11.3008C78.7842 11.3008 78.4854 11.377 78.2334 11.5293C77.9814 11.6758 77.7705 11.8809 77.6006 12.1445C77.4365 12.4023 77.3135 12.707 77.2314 13.0586C77.1494 13.4043 77.1084 13.7764 77.1084 14.1748V14.3594ZM99.4678 6.20312L100.681 11.0107L102.061 6.20312H105.128V19H102.86V15.2119L102.966 9.22656L101.287 14.7812H100.065L98.5625 9.46387L98.668 15.2119V19H96.4004V6.20312H99.4678ZM111.948 19.1758C111.216 19.1758 110.551 19.0557 109.953 18.8154C109.355 18.5752 108.843 18.25 108.415 17.8398C107.987 17.4238 107.656 16.9375 107.422 16.3809C107.193 15.8184 107.079 15.2178 107.079 14.5791V14.2275C107.079 13.501 107.193 12.8389 107.422 12.2412C107.65 11.6377 107.97 11.1191 108.38 10.6855C108.79 10.252 109.276 9.91504 109.839 9.6748C110.401 9.43457 111.014 9.31445 111.676 9.31445C112.361 9.31445 112.971 9.42871 113.504 9.65723C114.043 9.87988 114.497 10.1963 114.866 10.6064C115.241 11.0166 115.525 11.5117 115.719 12.0918C115.912 12.666 116.009 13.3018 116.009 13.999V15.0361H109.558C109.604 15.3584 109.698 15.6543 109.839 15.9238C109.985 16.1875 110.17 16.416 110.393 16.6094C110.615 16.8027 110.87 16.9521 111.157 17.0576C111.444 17.1631 111.758 17.2158 112.098 17.2158C112.338 17.2158 112.575 17.1924 112.81 17.1455C113.05 17.0986 113.278 17.0312 113.495 16.9434C113.712 16.8496 113.914 16.7354 114.102 16.6006C114.289 16.4658 114.453 16.3076 114.594 16.126L115.815 17.4443C115.663 17.6611 115.464 17.875 115.218 18.0859C114.978 18.291 114.69 18.4756 114.356 18.6396C114.028 18.7979 113.662 18.9268 113.258 19.0264C112.854 19.126 112.417 19.1758 111.948 19.1758ZM111.658 11.292C111.383 11.292 111.131 11.3418 110.902 11.4414C110.674 11.5352 110.472 11.6729 110.296 11.8545C110.126 12.0361 109.982 12.2529 109.865 12.5049C109.748 12.7568 109.66 13.0381 109.602 13.3486H113.609V13.1553C113.598 12.8975 113.548 12.6543 113.46 12.4258C113.372 12.1973 113.246 12.001 113.082 11.8369C112.918 11.667 112.716 11.5352 112.476 11.4414C112.241 11.3418 111.969 11.292 111.658 11.292ZM122.627 7.16113V9.49023H126.178V11.292H122.627V15.3789C122.627 15.7246 122.665 16.0146 122.741 16.249C122.823 16.4775 122.938 16.6621 123.084 16.8027C123.23 16.9375 123.406 17.0342 123.611 17.0928C123.822 17.1514 124.057 17.1807 124.314 17.1807C124.502 17.1807 124.692 17.1719 124.886 17.1543C125.085 17.1367 125.272 17.1162 125.448 17.0928C125.63 17.0635 125.797 17.0342 125.949 17.0049C126.107 16.9756 126.242 16.9463 126.354 16.917L126.591 18.5957C126.421 18.6953 126.222 18.7832 125.993 18.8594C125.765 18.9297 125.521 18.9883 125.264 19.0352C125.006 19.082 124.736 19.1172 124.455 19.1406C124.18 19.1699 123.907 19.1846 123.638 19.1846C123.116 19.1846 122.642 19.1172 122.214 18.9824C121.792 18.8418 121.429 18.6279 121.124 18.3408C120.825 18.0479 120.594 17.6787 120.43 17.2334C120.266 16.7822 120.184 16.2432 120.184 15.6162V11.292H118.013V9.49023H120.184V7.16113H122.627ZM131.398 10.7998C131.715 10.3369 132.099 9.97363 132.55 9.70996C133.007 9.44629 133.517 9.31445 134.079 9.31445C134.577 9.31445 135.034 9.39062 135.45 9.54297C135.866 9.68945 136.224 9.9209 136.522 10.2373C136.821 10.5537 137.053 10.9609 137.217 11.459C137.387 11.9512 137.472 12.5459 137.472 13.2432V19H135.028V13.2256C135.028 12.8857 134.984 12.5928 134.896 12.3467C134.814 12.1006 134.694 11.9014 134.536 11.749C134.378 11.5967 134.188 11.4854 133.965 11.415C133.742 11.3389 133.49 11.3008 133.209 11.3008C132.799 11.3008 132.441 11.374 132.137 11.5205C131.838 11.667 131.592 11.8721 131.398 12.1357V19H128.955V5.5H131.398V10.7998ZM145.707 19C145.648 18.8828 145.599 18.748 145.558 18.5957C145.517 18.4434 145.481 18.2822 145.452 18.1123C145.317 18.2588 145.162 18.3965 144.986 18.5254C144.811 18.6543 144.614 18.7686 144.397 18.8682C144.187 18.9619 143.952 19.0352 143.694 19.0879C143.437 19.1465 143.158 19.1758 142.859 19.1758C142.373 19.1758 141.925 19.1055 141.515 18.9648C141.11 18.8242 140.762 18.6279 140.469 18.376C140.176 18.124 139.947 17.8252 139.783 17.4795C139.619 17.1279 139.537 16.7471 139.537 16.3369C139.537 15.335 139.909 14.5615 140.653 14.0166C141.403 13.4658 142.52 13.1904 144.002 13.1904H145.364V12.6279C145.364 12.1709 145.215 11.8105 144.916 11.5469C144.617 11.2773 144.187 11.1426 143.624 11.1426C143.126 11.1426 142.763 11.251 142.534 11.4678C142.306 11.6787 142.191 11.9629 142.191 12.3203H139.748C139.748 11.916 139.836 11.5322 140.012 11.1689C140.193 10.8057 140.454 10.4863 140.794 10.2109C141.14 9.93555 141.559 9.71875 142.051 9.56055C142.549 9.39648 143.117 9.31445 143.756 9.31445C144.33 9.31445 144.863 9.38477 145.355 9.52539C145.854 9.66602 146.284 9.87402 146.647 10.1494C147.011 10.4248 147.295 10.7734 147.5 11.1953C147.705 11.6113 147.808 12.0947 147.808 12.6455V16.7236C147.808 17.2334 147.84 17.6553 147.904 17.9893C147.969 18.3232 148.062 18.6104 148.186 18.8506V19H145.707ZM143.378 17.2861C143.624 17.2861 143.853 17.2568 144.063 17.1982C144.274 17.1396 144.465 17.0635 144.635 16.9697C144.805 16.876 144.951 16.7705 145.074 16.6533C145.197 16.5303 145.294 16.4072 145.364 16.2842V14.6494H144.116C143.735 14.6494 143.41 14.6875 143.141 14.7637C142.871 14.834 142.651 14.9365 142.481 15.0713C142.312 15.2002 142.186 15.3584 142.104 15.5459C142.021 15.7275 141.98 15.9268 141.98 16.1436C141.98 16.4717 142.095 16.7441 142.323 16.9609C142.558 17.1777 142.909 17.2861 143.378 17.2861ZM152.791 9.49023L152.94 10.8086C153.28 10.334 153.693 9.96777 154.18 9.70996C154.666 9.44629 155.205 9.31445 155.797 9.31445C156.277 9.31445 156.717 9.38477 157.115 9.52539C157.514 9.66602 157.856 9.8916 158.144 10.2021C158.437 10.5068 158.662 10.9023 158.82 11.3887C158.984 11.8691 159.066 12.4551 159.066 13.1465V19H156.623V13.1816C156.623 12.8066 156.579 12.499 156.491 12.2588C156.409 12.0127 156.289 11.8193 156.131 11.6787C155.973 11.5381 155.782 11.4414 155.56 11.3887C155.337 11.3301 155.085 11.3008 154.804 11.3008C154.388 11.3008 154.033 11.3857 153.74 11.5557C153.447 11.7197 153.21 11.9482 153.028 12.2412V19H150.576V9.49023H152.791ZM166.001 19.1758C165.269 19.1758 164.604 19.0557 164.006 18.8154C163.408 18.5752 162.896 18.25 162.468 17.8398C162.04 17.4238 161.709 16.9375 161.475 16.3809C161.246 15.8184 161.132 15.2178 161.132 14.5791V14.2275C161.132 13.501 161.246 12.8389 161.475 12.2412C161.703 11.6377 162.022 11.1191 162.433 10.6855C162.843 10.252 163.329 9.91504 163.892 9.6748C164.454 9.43457 165.066 9.31445 165.729 9.31445C166.414 9.31445 167.023 9.42871 167.557 9.65723C168.096 9.87988 168.55 10.1963 168.919 10.6064C169.294 11.0166 169.578 11.5117 169.771 12.0918C169.965 12.666 170.062 13.3018 170.062 13.999V15.0361H163.61C163.657 15.3584 163.751 15.6543 163.892 15.9238C164.038 16.1875 164.223 16.416 164.445 16.6094C164.668 16.8027 164.923 16.9521 165.21 17.0576C165.497 17.1631 165.811 17.2158 166.15 17.2158C166.391 17.2158 166.628 17.1924 166.862 17.1455C167.103 17.0986 167.331 17.0312 167.548 16.9434C167.765 16.8496 167.967 16.7354 168.154 16.6006C168.342 16.4658 168.506 16.3076 168.646 16.126L169.868 17.4443C169.716 17.6611 169.517 17.875 169.271 18.0859C169.03 18.291 168.743 18.4756 168.409 18.6396C168.081 18.7979 167.715 18.9268 167.311 19.0264C166.906 19.126 166.47 19.1758 166.001 19.1758ZM165.711 11.292C165.436 11.292 165.184 11.3418 164.955 11.4414C164.727 11.5352 164.524 11.6729 164.349 11.8545C164.179 12.0361 164.035 12.2529 163.918 12.5049C163.801 12.7568 163.713 13.0381 163.654 13.3486H167.662V13.1553C167.65 12.8975 167.601 12.6543 167.513 12.4258C167.425 12.1973 167.299 12.001 167.135 11.8369C166.971 11.667 166.769 11.5352 166.528 11.4414C166.294 11.3418 166.021 11.292 165.711 11.292Z" fill="#8D75F3"/>
</svg>
