<svg width="222" height="149" viewBox="0 0 222 149" fill="none" xmlns="http://www.w3.org/2000/svg">
<rect y="44" width="222" height="104" fill="white" fill-opacity="0.3"/>
<circle cx="79.4859" cy="66.4859" r="7.48585" fill="#8D75F3" fill-opacity="0.2"/>
<circle cx="79.4859" cy="96.4859" r="7.48585" fill="#8D75F3" fill-opacity="0.2"/>
<circle cx="87.4859" cy="81.4859" r="7.48585" fill="#8D75F3" fill-opacity="0.2"/>
<circle cx="143.486" cy="126.486" r="7.48585" fill="#8D75F3" fill-opacity="0.2"/>
<circle cx="103.486" cy="81.4859" r="7.48585" fill="#8D75F3" fill-opacity="0.2"/>
<circle cx="87.4859" cy="111.486" r="7.48585" fill="#8D75F3" fill-opacity="0.2"/>
<circle cx="95.4859" cy="66.4859" r="7.48585" fill="#8D75F3" fill-opacity="0.2"/>
<circle cx="95.4859" cy="96.4859" r="7.48585" fill="#8D75F3" fill-opacity="0.2"/>
<circle cx="95.4859" cy="126.486" r="7.48585" fill="#8D75F3" fill-opacity="0.2"/>
<circle cx="119.486" cy="51.4859" r="7.48585" fill="#8D75F3" fill-opacity="0.2"/>
<circle cx="119.486" cy="81.4859" r="7.48585" fill="#8D75F3" fill-opacity="0.2"/>
<circle cx="103.486" cy="111.486" r="7.48585" fill="#8D75F3" fill-opacity="0.2"/>
<circle cx="111.486" cy="66.4859" r="7.48585" fill="#8D75F3" fill-opacity="0.2"/>
<circle cx="111.486" cy="96.4859" r="7.48585" fill="#8D75F3"/>
<circle cx="111.486" cy="126.486" r="7.48585" fill="#8D75F3" fill-opacity="0.2"/>
<circle cx="135.486" cy="81.4859" r="7.48585" fill="#8D75F3" fill-opacity="0.2"/>
<circle cx="119.486" cy="111.486" r="7.48585" fill="#8D75F3" fill-opacity="0.2"/>
<circle cx="127.486" cy="66.4859" r="7.48585" fill="#8D75F3" fill-opacity="0.2"/>
<circle cx="127.486" cy="96.4859" r="7.48585" fill="#8D75F3" fill-opacity="0.2"/>
<circle cx="127.486" cy="126.486" r="7.48585" fill="#8D75F3" fill-opacity="0.2"/>
<circle cx="143.486" cy="66.4859" r="7.48585" fill="#8D75F3" fill-opacity="0.2"/>
<circle cx="103.486" cy="141.486" r="7.48585" fill="#8D75F3" fill-opacity="0.2"/>
<circle cx="151.486" cy="81.4859" r="7.48585" fill="#8D75F3" fill-opacity="0.2"/>
<circle cx="135.486" cy="111.486" r="7.48585" fill="#8D75F3" fill-opacity="0.2"/>
<circle cx="79.4859" cy="126.486" r="7.48585" fill="#8D75F3" fill-opacity="0.2"/>
<circle cx="143.486" cy="96.4859" r="7.48585" fill="#8D75F3" fill-opacity="0.2"/>
<circle cx="119.486" cy="141.486" r="7.48585" fill="#8D75F3" fill-opacity="0.2"/>
<circle cx="103.486" cy="51.4859" r="7.48585" fill="#8D75F3" fill-opacity="0.2"/>
<circle cx="71.4859" cy="111.486" r="7.48585" fill="#8D75F3" fill-opacity="0.2"/>
<path d="M69.0488 19H60.3213V17.3301L64.4609 12.8828C64.7832 12.5312 65.0557 12.2119 65.2783 11.9248C65.501 11.6377 65.6797 11.377 65.8145 11.1426C65.9551 10.9023 66.0547 10.6797 66.1133 10.4746C66.1777 10.2695 66.21 10.0703 66.21 9.87695C66.21 9.58984 66.1689 9.33496 66.0869 9.1123C66.0049 8.88965 65.8877 8.70215 65.7354 8.5498C65.5889 8.3916 65.4102 8.27148 65.1992 8.18945C64.9941 8.10742 64.7656 8.06641 64.5137 8.06641C63.8398 8.06641 63.3359 8.25391 63.002 8.62891C62.6738 9.00391 62.5098 9.52832 62.5098 10.2021H60.0576C60.0576 9.63379 60.166 9.09766 60.3828 8.59375C60.5996 8.08398 60.9043 7.63867 61.2969 7.25781C61.6953 6.87695 62.1729 6.57813 62.7295 6.36133C63.292 6.13867 63.9131 6.02734 64.5928 6.02734C65.2432 6.02734 65.8174 6.11816 66.3154 6.2998C66.8193 6.48145 67.2383 6.73633 67.5723 7.06445C67.9121 7.39258 68.1699 7.78809 68.3457 8.25098C68.5215 8.70801 68.6094 9.21484 68.6094 9.77148C68.6094 10.1934 68.542 10.5977 68.4072 10.9844C68.2783 11.3652 68.0908 11.7432 67.8447 12.1182C67.6045 12.4932 67.3145 12.877 66.9746 13.2695C66.6348 13.6562 66.2568 14.0635 65.8408 14.4912L63.4326 17.04H69.0488V19ZM79.5254 9.60449C79.5254 10.2256 79.3672 10.7793 79.0508 11.2656C78.7402 11.7461 78.3125 12.1299 77.7676 12.417C78.3887 12.71 78.8809 13.1201 79.2441 13.6475C79.6133 14.1748 79.7979 14.793 79.7979 15.502C79.7979 16.1055 79.6865 16.6357 79.4639 17.0928C79.2471 17.5498 78.9453 17.9336 78.5586 18.2441C78.1777 18.5488 77.7266 18.7803 77.2051 18.9385C76.6836 19.0967 76.1211 19.1758 75.5176 19.1758C74.9082 19.1758 74.3398 19.0967 73.8125 18.9385C73.291 18.7803 72.8369 18.5488 72.4502 18.2441C72.0635 17.9336 71.7588 17.5498 71.5361 17.0928C71.3193 16.6357 71.2109 16.1055 71.2109 15.502C71.2109 15.1504 71.2578 14.8193 71.3516 14.5088C71.4512 14.1924 71.5889 13.9053 71.7646 13.6475C71.9404 13.3838 72.1514 13.1494 72.3975 12.9443C72.6494 12.7334 72.9307 12.5547 73.2412 12.4082C72.6963 12.127 72.2686 11.7461 71.958 11.2656C71.6475 10.7793 71.4922 10.2256 71.4922 9.60449C71.4922 9.02441 71.5918 8.51465 71.791 8.0752C71.9902 7.62988 72.2656 7.25488 72.6172 6.9502C72.9746 6.64551 73.3965 6.41699 73.8828 6.26465C74.375 6.10645 74.9111 6.02734 75.4912 6.02734C76.0713 6.02734 76.6074 6.10645 77.0996 6.26465C77.5918 6.41699 78.0166 6.64551 78.374 6.9502C78.7373 7.25488 79.0186 7.62988 79.2178 8.0752C79.4229 8.51465 79.5254 9.02441 79.5254 9.60449ZM77.3457 15.335C77.3457 15.042 77.3018 14.7783 77.2139 14.5439C77.126 14.3096 77 14.1104 76.8359 13.9463C76.6777 13.7764 76.4844 13.6475 76.2559 13.5596C76.0332 13.4717 75.7812 13.4277 75.5 13.4277C75.2188 13.4277 74.9639 13.4717 74.7354 13.5596C74.5127 13.6475 74.3223 13.7764 74.1641 13.9463C74.0059 14.1104 73.8828 14.3096 73.7949 14.5439C73.707 14.7783 73.6631 15.042 73.6631 15.335C73.6631 15.9209 73.8301 16.3809 74.1641 16.7148C74.498 17.0488 74.9492 17.2158 75.5176 17.2158C75.7871 17.2158 76.0332 17.1748 76.2559 17.0928C76.4785 17.0049 76.6689 16.8789 76.8271 16.7148C76.9912 16.5508 77.1172 16.3545 77.2051 16.126C77.2988 15.8916 77.3457 15.6279 77.3457 15.335ZM77.0908 9.71875C77.0908 9.46094 77.0527 9.22656 76.9766 9.01562C76.9004 8.80469 76.792 8.62598 76.6514 8.47949C76.5166 8.32715 76.3496 8.20996 76.1504 8.12793C75.957 8.0459 75.7373 8.00488 75.4912 8.00488C74.9932 8.00488 74.6094 8.15723 74.3398 8.46191C74.0703 8.7666 73.9355 9.18555 73.9355 9.71875C73.9355 9.97656 73.9707 10.2139 74.041 10.4307C74.1113 10.6416 74.2139 10.8232 74.3486 10.9756C74.4893 11.1279 74.6562 11.248 74.8496 11.3359C75.0488 11.418 75.2715 11.459 75.5176 11.459C75.7637 11.459 75.9834 11.418 76.1768 11.3359C76.3701 11.248 76.5342 11.1279 76.6689 10.9756C76.8037 10.8232 76.9062 10.6416 76.9766 10.4307C77.0527 10.2139 77.0908 9.97656 77.0908 9.71875ZM85.8799 15.0713L84.7725 16.0996V19H82.3291V5.5H84.7725V13.2168L85.5107 12.373L88.1387 9.49023H91.0742L87.4883 13.4541L91.5752 19H88.5781L85.8799 15.0713ZM92.8672 14.1748C92.8672 13.4541 92.9551 12.7949 93.1309 12.1973C93.3125 11.5996 93.5703 11.0869 93.9043 10.6592C94.2383 10.2314 94.6426 9.90039 95.1172 9.66602C95.5918 9.43164 96.1279 9.31445 96.7256 9.31445C97.2822 9.31445 97.7598 9.4082 98.1582 9.5957C98.5566 9.7832 98.8965 10.0498 99.1777 10.3955L99.2744 9.49023H101.498V18.6924C101.498 19.3369 101.387 19.9111 101.164 20.415C100.947 20.9189 100.64 21.3438 100.241 21.6895C99.8486 22.0352 99.374 22.2959 98.8174 22.4717C98.2666 22.6533 97.6572 22.7441 96.9893 22.7441C96.7021 22.7441 96.3945 22.7148 96.0664 22.6562C95.7383 22.5977 95.4131 22.5068 95.0908 22.3838C94.7686 22.2607 94.4639 22.1025 94.1768 21.9092C93.8896 21.7217 93.6436 21.4961 93.4385 21.2324L94.5371 19.7471C94.8477 20.0986 95.1992 20.3652 95.5918 20.5469C95.9844 20.7344 96.4092 20.8281 96.8662 20.8281C97.5518 20.8281 98.085 20.6436 98.4658 20.2744C98.8525 19.9111 99.0459 19.3926 99.0459 18.7188V18.1738C98.7588 18.4902 98.4219 18.7363 98.0352 18.9121C97.6543 19.0879 97.2119 19.1758 96.708 19.1758C96.1162 19.1758 95.583 19.0557 95.1084 18.8154C94.6396 18.5693 94.2383 18.2324 93.9043 17.8047C93.5703 17.377 93.3125 16.8701 93.1309 16.2842C92.9551 15.6924 92.8672 15.0508 92.8672 14.3594V14.1748ZM95.3193 14.3594C95.3193 14.7578 95.3574 15.1299 95.4336 15.4756C95.5156 15.8154 95.6387 16.1143 95.8027 16.3721C95.9668 16.624 96.1748 16.8232 96.4268 16.9697C96.6787 17.1162 96.9775 17.1895 97.3232 17.1895C97.751 17.1895 98.1025 17.1074 98.3779 16.9434C98.6592 16.7793 98.8818 16.5508 99.0459 16.2578V12.2324C98.8818 11.9336 98.6592 11.7051 98.3779 11.5469C98.1025 11.3828 97.7568 11.3008 97.3408 11.3008C96.9951 11.3008 96.6963 11.377 96.4443 11.5293C96.1924 11.6758 95.9814 11.8809 95.8115 12.1445C95.6475 12.4023 95.5244 12.707 95.4424 13.0586C95.3604 13.4043 95.3193 13.7764 95.3193 14.1748V14.3594ZM123.532 14.9922C123.491 15.6367 123.351 16.2168 123.11 16.7324C122.876 17.248 122.56 17.6875 122.161 18.0508C121.763 18.4141 121.288 18.6953 120.737 18.8945C120.187 19.0879 119.577 19.1846 118.909 19.1846C118.153 19.1846 117.482 19.0469 116.896 18.7715C116.311 18.4902 115.818 18.1006 115.42 17.6025C115.021 17.0986 114.717 16.4951 114.506 15.792C114.295 15.0889 114.189 14.3154 114.189 13.4717V11.749C114.189 10.8994 114.301 10.123 114.523 9.41992C114.746 8.7168 115.062 8.11328 115.473 7.60938C115.883 7.10547 116.378 6.71582 116.958 6.44043C117.544 6.15918 118.2 6.01855 118.927 6.01855C119.63 6.01855 120.254 6.11816 120.799 6.31738C121.35 6.5166 121.818 6.80078 122.205 7.16992C122.592 7.53906 122.896 7.99023 123.119 8.52344C123.342 9.05664 123.482 9.65723 123.541 10.3252H121.08C121.057 9.94434 120.998 9.61035 120.904 9.32324C120.816 9.03613 120.685 8.79883 120.509 8.61133C120.339 8.41797 120.122 8.27441 119.858 8.18066C119.601 8.08105 119.29 8.03125 118.927 8.03125C118.546 8.03125 118.215 8.11328 117.934 8.27734C117.652 8.44141 117.418 8.68164 117.23 8.99805C117.049 9.31445 116.914 9.7041 116.826 10.167C116.738 10.624 116.694 11.1455 116.694 11.7314V13.4717C116.694 14.7314 116.87 15.6631 117.222 16.2666C117.579 16.8701 118.142 17.1719 118.909 17.1719C119.554 17.1719 120.063 17.002 120.438 16.6621C120.813 16.3164 121.021 15.7598 121.062 14.9922H123.532ZM134.387 13.542C134.387 14.3623 134.278 15.1182 134.062 15.8096C133.845 16.501 133.531 17.0957 133.121 17.5938C132.711 18.0918 132.21 18.4814 131.618 18.7627C131.032 19.0381 130.37 19.1758 129.632 19.1758C128.894 19.1758 128.237 19.0381 127.663 18.7627C127.089 18.4814 126.605 18.0918 126.213 17.5938C125.82 17.0898 125.521 16.4951 125.316 15.8096C125.111 15.1182 125.009 14.3623 125.009 13.542V11.6787C125.009 10.8584 125.111 10.1025 125.316 9.41113C125.521 8.71973 125.82 8.125 126.213 7.62695C126.605 7.12305 127.086 6.73047 127.654 6.44922C128.229 6.16797 128.885 6.02734 129.623 6.02734C130.367 6.02734 131.032 6.16797 131.618 6.44922C132.21 6.73047 132.711 7.12305 133.121 7.62695C133.531 8.125 133.845 8.71973 134.062 9.41113C134.278 10.1025 134.387 10.8584 134.387 11.6787V13.542ZM131.882 11.6611C131.882 11.1396 131.838 10.6592 131.75 10.2197C131.668 9.78027 131.536 9.40234 131.354 9.08594C131.173 8.76953 130.938 8.52344 130.651 8.34766C130.37 8.16602 130.027 8.0752 129.623 8.0752C129.225 8.0752 128.891 8.16602 128.621 8.34766C128.352 8.52344 128.135 8.76953 127.971 9.08594C127.807 9.40234 127.689 9.78027 127.619 10.2197C127.549 10.6592 127.514 11.1396 127.514 11.6611V13.542C127.514 14.0576 127.549 14.5352 127.619 14.9746C127.689 15.4141 127.807 15.7949 127.971 16.1172C128.135 16.4395 128.352 16.6914 128.621 16.873C128.891 17.0547 129.228 17.1455 129.632 17.1455C130.03 17.1455 130.37 17.0547 130.651 16.873C130.938 16.6914 131.17 16.4424 131.346 16.126C131.527 15.8037 131.662 15.4229 131.75 14.9834C131.838 14.5439 131.882 14.0635 131.882 13.542V11.6611ZM141.29 21.34H135.602V19.864L137.564 17.938C138.104 17.41 138.47 17.008 138.662 16.732C138.866 16.444 138.968 16.144 138.968 15.832C138.968 15.616 138.896 15.448 138.752 15.328C138.62 15.208 138.434 15.148 138.194 15.148C137.726 15.148 137.198 15.406 136.61 15.922L135.53 14.59C135.914 14.254 136.34 13.984 136.808 13.78C137.288 13.564 137.846 13.456 138.482 13.456C139.262 13.456 139.886 13.648 140.354 14.032C140.834 14.404 141.074 14.944 141.074 15.652C141.074 16.192 140.924 16.684 140.624 17.128C140.324 17.572 139.82 18.112 139.112 18.748L138.194 19.576H141.29V21.34ZM147.79 19.1758C147.058 19.1758 146.393 19.0557 145.795 18.8154C145.197 18.5752 144.685 18.25 144.257 17.8398C143.829 17.4238 143.498 16.9375 143.264 16.3809C143.035 15.8184 142.921 15.2178 142.921 14.5791V14.2275C142.921 13.501 143.035 12.8389 143.264 12.2412C143.492 11.6377 143.812 11.1191 144.222 10.6855C144.632 10.252 145.118 9.91504 145.681 9.6748C146.243 9.43457 146.855 9.31445 147.518 9.31445C148.203 9.31445 148.812 9.42871 149.346 9.65723C149.885 9.87988 150.339 10.1963 150.708 10.6064C151.083 11.0166 151.367 11.5117 151.561 12.0918C151.754 12.666 151.851 13.3018 151.851 13.999V15.0361H145.399C145.446 15.3584 145.54 15.6543 145.681 15.9238C145.827 16.1875 146.012 16.416 146.234 16.6094C146.457 16.8027 146.712 16.9521 146.999 17.0576C147.286 17.1631 147.6 17.2158 147.939 17.2158C148.18 17.2158 148.417 17.1924 148.651 17.1455C148.892 17.0986 149.12 17.0312 149.337 16.9434C149.554 16.8496 149.756 16.7354 149.943 16.6006C150.131 16.4658 150.295 16.3076 150.436 16.126L151.657 17.4443C151.505 17.6611 151.306 17.875 151.06 18.0859C150.819 18.291 150.532 18.4756 150.198 18.6396C149.87 18.7979 149.504 18.9268 149.1 19.0264C148.695 19.126 148.259 19.1758 147.79 19.1758ZM147.5 11.292C147.225 11.292 146.973 11.3418 146.744 11.4414C146.516 11.5352 146.313 11.6729 146.138 11.8545C145.968 12.0361 145.824 12.2529 145.707 12.5049C145.59 12.7568 145.502 13.0381 145.443 13.3486H149.451V13.1553C149.439 12.8975 149.39 12.6543 149.302 12.4258C149.214 12.1973 149.088 12.001 148.924 11.8369C148.76 11.667 148.558 11.5352 148.317 11.4414C148.083 11.3418 147.811 11.292 147.5 11.292ZM153.74 14.166C153.74 13.4453 153.822 12.7861 153.986 12.1885C154.15 11.5908 154.391 11.0811 154.707 10.6592C155.029 10.2314 155.422 9.90039 155.885 9.66602C156.354 9.43164 156.89 9.31445 157.493 9.31445C158.032 9.31445 158.501 9.41406 158.899 9.61328C159.304 9.8125 159.652 10.0938 159.945 10.457L160.095 9.49023H162.248V22.6562H159.796V18.1914C159.509 18.5078 159.175 18.751 158.794 18.9209C158.413 19.0908 157.974 19.1758 157.476 19.1758C156.878 19.1758 156.348 19.0557 155.885 18.8154C155.422 18.5693 155.032 18.2324 154.716 17.8047C154.399 17.3711 154.156 16.8613 153.986 16.2754C153.822 15.6836 153.74 15.042 153.74 14.3506V14.166ZM156.184 14.3506C156.184 14.7432 156.219 15.1123 156.289 15.458C156.359 15.8037 156.471 16.1084 156.623 16.3721C156.775 16.6299 156.972 16.835 157.212 16.9873C157.458 17.1396 157.754 17.2158 158.1 17.2158C158.527 17.2158 158.876 17.1309 159.146 16.9609C159.421 16.791 159.638 16.5566 159.796 16.2578V12.2148C159.638 11.9219 159.421 11.6963 159.146 11.5381C158.876 11.374 158.533 11.292 158.117 11.292C157.771 11.292 157.476 11.3682 157.229 11.5205C156.989 11.667 156.79 11.8691 156.632 12.127C156.479 12.3848 156.365 12.6895 156.289 13.041C156.219 13.3867 156.184 13.7617 156.184 14.166V14.3506Z" fill="#00C7A5"/>
</svg>
