<svg id="ee9di2f19m041" xmlns="http://www.w3.org/2000/svg" xmlns:xlink="http://www.w3.org/1999/xlink" viewBox="0 0 222 199" shape-rendering="geometricPrecision" text-rendering="geometricPrecision"><style><![CDATA[#ee9di2f19m043 {animation: ee9di2f19m043__tt 3000ms linear 1 normal forwards}@keyframes ee9di2f19m043__tt { 0% {transform: translate(0px,0px) translate(111.490000px,146.500000px)} 33.333333% {transform: translate(0px,0px) translate(79.485900px,116.502000px)} 100% {transform: translate(0px,0px) translate(79.485900px,116.502000px)} }#ee9di2f19m044 {animation: ee9di2f19m044__tt 3000ms linear 1 normal forwards}@keyframes ee9di2f19m044__tt { 0% {transform: translate(0px,0px) translate(111.490000px,146.507000px)} 33.333333% {transform: translate(0px,0px) translate(79.485900px,146.507000px)} 100% {transform: translate(0px,0px) translate(79.485900px,146.507000px)} }#ee9di2f19m045 {animation: ee9di2f19m045__tt 3000ms linear 1 normal forwards}@keyframes ee9di2f19m045__tt { 0% {transform: translate(0px,0px) translate(111.490000px,146.500000px)} 33.333333% {transform: translate(0px,0px) translate(87.485900px,131.505000px)} 100% {transform: translate(0px,0px) translate(87.485900px,131.505000px)} }#ee9di2f19m046 {animation: ee9di2f19m046__tt 3000ms linear 1 normal forwards}@keyframes ee9di2f19m046__tt { 0% {transform: translate(0px,0px) translate(111.490000px,146.510000px)} 33.333333% {transform: translate(0px,0px) translate(143.486000px,176.511000px)} 100% {transform: translate(0px,0px) translate(143.486000px,176.511000px)} }#ee9di2f19m047 {animation: ee9di2f19m047__tt 3000ms linear 1 normal forwards}@keyframes ee9di2f19m047__tt { 0% {transform: translate(0px,0px) translate(111.490000px,146.500000px)} 33.333333% {transform: translate(0px,0px) translate(103.486000px,131.505000px)} 100% {transform: translate(0px,0px) translate(103.486000px,131.505000px)} }#ee9di2f19m048 {animation: ee9di2f19m048__tt 3000ms linear 1 normal forwards}@keyframes ee9di2f19m048__tt { 0% {transform: translate(0px,0px) translate(111.490000px,146.510000px)} 33.333333% {transform: translate(0px,0px) translate(87.485900px,161.509000px)} 100% {transform: translate(0px,0px) translate(87.485900px,161.509000px)} }#ee9di2f19m049 {animation: ee9di2f19m049__tt 3000ms linear 1 normal forwards}@keyframes ee9di2f19m049__tt { 0% {transform: translate(0px,0px) translate(111.490000px,146.500000px)} 33.333333% {transform: translate(0px,0px) translate(95.485900px,116.502000px)} 100% {transform: translate(0px,0px) translate(95.485900px,116.502000px)} }#ee9di2f19m0410 {animation: ee9di2f19m0410__tt 3000ms linear 1 normal forwards}@keyframes ee9di2f19m0410__tt { 0% {transform: translate(0px,0px) translate(111.490000px,146.507000px)} 33.333333% {transform: translate(0px,0px) translate(95.485900px,146.507000px)} 100% {transform: translate(0px,0px) translate(95.485900px,146.507000px)} }#ee9di2f19m0411 {animation: ee9di2f19m0411__tt 3000ms linear 1 normal forwards}@keyframes ee9di2f19m0411__tt { 0% {transform: translate(0px,0px) translate(111.490000px,146.510000px)} 33.333333% {transform: translate(0px,0px) translate(95.485900px,176.511000px)} 100% {transform: translate(0px,0px) translate(95.485900px,176.511000px)} }#ee9di2f19m0412 {animation: ee9di2f19m0412__tt 3000ms linear 1 normal forwards}@keyframes ee9di2f19m0412__tt { 0% {transform: translate(0px,0px) translate(111.490000px,146.500000px)} 33.333333% {transform: translate(0px,0px) translate(119.486000px,101.500000px)} 100% {transform: translate(0px,0px) translate(119.486000px,101.500000px)} }#ee9di2f19m0413 {animation: ee9di2f19m0413__tt 3000ms linear 1 normal forwards}@keyframes ee9di2f19m0413__tt { 0% {transform: translate(0px,0px) translate(111.490000px,146.500000px)} 33.333333% {transform: translate(0px,0px) translate(119.486000px,131.505000px)} 100% {transform: translate(0px,0px) translate(119.486000px,131.505000px)} }#ee9di2f19m0414 {animation: ee9di2f19m0414__tt 3000ms linear 1 normal forwards}@keyframes ee9di2f19m0414__tt { 0% {transform: translate(0px,0px) translate(111.490000px,146.510000px)} 33.333333% {transform: translate(0px,0px) translate(103.486000px,161.509000px)} 100% {transform: translate(0px,0px) translate(103.486000px,161.509000px)} }#ee9di2f19m0415 {animation: ee9di2f19m0415__tt 3000ms linear 1 normal forwards}@keyframes ee9di2f19m0415__tt { 0% {transform: translate(0px,0px) translate(111.486000px,146.500000px)} 33.333333% {transform: translate(0px,0px) translate(111.486000px,116.502000px)} 100% {transform: translate(0px,0px) translate(111.486000px,116.502000px)} }#ee9di2f19m0416 {animation: ee9di2f19m0416__tt 3000ms linear 1 normal forwards}@keyframes ee9di2f19m0416__tt { 0% {transform: translate(0px,0px) translate(111.486000px,146.510000px)} 33.333333% {transform: translate(0px,0px) translate(111.486000px,176.511000px)} 100% {transform: translate(0px,0px) translate(111.486000px,176.511000px)} }#ee9di2f19m0417 {animation: ee9di2f19m0417__tt 3000ms linear 1 normal forwards}@keyframes ee9di2f19m0417__tt { 0% {transform: translate(0px,0px) translate(111.490000px,146.500000px)} 33.333333% {transform: translate(0px,0px) translate(135.486000px,131.505000px)} 100% {transform: translate(0px,0px) translate(135.486000px,131.505000px)} }#ee9di2f19m0418 {animation: ee9di2f19m0418__tt 3000ms linear 1 normal forwards}@keyframes ee9di2f19m0418__tt { 0% {transform: translate(0px,0px) translate(111.490000px,146.510000px)} 33.333333% {transform: translate(0px,0px) translate(119.486000px,161.509000px)} 100% {transform: translate(0px,0px) translate(119.486000px,161.509000px)} }#ee9di2f19m0419 {animation: ee9di2f19m0419__tt 3000ms linear 1 normal forwards}@keyframes ee9di2f19m0419__tt { 0% {transform: translate(0px,0px) translate(111.490000px,146.500000px)} 33.333333% {transform: translate(0px,0px) translate(127.486000px,116.502000px)} 100% {transform: translate(0px,0px) translate(127.486000px,116.502000px)} }#ee9di2f19m0420 {animation: ee9di2f19m0420__tt 3000ms linear 1 normal forwards}@keyframes ee9di2f19m0420__tt { 0% {transform: translate(0px,0px) translate(111.490000px,146.507000px)} 33.333333% {transform: translate(0px,0px) translate(127.486000px,146.507000px)} 100% {transform: translate(0px,0px) translate(127.486000px,146.507000px)} }#ee9di2f19m0421 {animation: ee9di2f19m0421__tt 3000ms linear 1 normal forwards}@keyframes ee9di2f19m0421__tt { 0% {transform: translate(0px,0px) translate(111.490000px,146.510000px)} 33.333333% {transform: translate(0px,0px) translate(127.486000px,176.511000px)} 100% {transform: translate(0px,0px) translate(127.486000px,176.511000px)} }#ee9di2f19m0422 {animation: ee9di2f19m0422__tt 3000ms linear 1 normal forwards}@keyframes ee9di2f19m0422__tt { 0% {transform: translate(0px,0px) translate(111.490000px,146.500000px)} 33.333333% {transform: translate(0px,0px) translate(143.486000px,116.502000px)} 100% {transform: translate(0px,0px) translate(143.486000px,116.502000px)} }#ee9di2f19m0423 {animation: ee9di2f19m0423__tt 3000ms linear 1 normal forwards}@keyframes ee9di2f19m0423__tt { 0% {transform: translate(0px,0px) translate(111.490000px,146.510000px)} 33.333333% {transform: translate(0px,0px) translate(103.486000px,191.513000px)} 100% {transform: translate(0px,0px) translate(103.486000px,191.513000px)} }#ee9di2f19m0424 {animation: ee9di2f19m0424__tt 3000ms linear 1 normal forwards}@keyframes ee9di2f19m0424__tt { 0% {transform: translate(0px,0px) translate(111.490000px,146.500000px)} 33.333333% {transform: translate(0px,0px) translate(151.486000px,131.505000px)} 100% {transform: translate(0px,0px) translate(151.486000px,131.505000px)} }#ee9di2f19m0425 {animation: ee9di2f19m0425__tt 3000ms linear 1 normal forwards}@keyframes ee9di2f19m0425__tt { 0% {transform: translate(0px,0px) translate(111.490000px,146.510000px)} 33.333333% {transform: translate(0px,0px) translate(135.486000px,161.509000px)} 100% {transform: translate(0px,0px) translate(135.486000px,161.509000px)} }#ee9di2f19m0426 {animation: ee9di2f19m0426__tt 3000ms linear 1 normal forwards}@keyframes ee9di2f19m0426__tt { 0% {transform: translate(0px,0px) translate(111.490000px,146.510000px)} 33.333333% {transform: translate(0px,0px) translate(79.485900px,176.511000px)} 100% {transform: translate(0px,0px) translate(79.485900px,176.511000px)} }#ee9di2f19m0427 {animation: ee9di2f19m0427__tt 3000ms linear 1 normal forwards}@keyframes ee9di2f19m0427__tt { 0% {transform: translate(0px,0px) translate(111.490000px,146.507000px)} 33.333333% {transform: translate(0px,0px) translate(143.486000px,146.507000px)} 100% {transform: translate(0px,0px) translate(143.486000px,146.507000px)} }#ee9di2f19m0428 {animation: ee9di2f19m0428__tt 3000ms linear 1 normal forwards}@keyframes ee9di2f19m0428__tt { 0% {transform: translate(0px,0px) translate(111.490000px,146.510000px);animation-timing-function: cubic-bezier(0.470000,0,0.745000,0.715000)} 33.333333% {transform: translate(0px,0px) translate(119.486000px,191.513000px)} 100% {transform: translate(0px,0px) translate(119.486000px,191.513000px)} }#ee9di2f19m0429 {animation: ee9di2f19m0429__tt 3000ms linear 1 normal forwards}@keyframes ee9di2f19m0429__tt { 0% {transform: translate(0px,0px) translate(111.490000px,146.500000px);animation-timing-function: cubic-bezier(0.470000,0,0.745000,0.715000)} 33.333333% {transform: translate(0px,0px) translate(103.490000px,101.500000px)} 100% {transform: translate(0px,0px) translate(103.490000px,101.500000px)} }#ee9di2f19m0430 {animation: ee9di2f19m0430__tt 3000ms linear 1 normal forwards}@keyframes ee9di2f19m0430__tt { 0% {transform: translate(0px,0px) translate(111.490000px,146.510000px);animation-timing-function: cubic-bezier(0.470000,0,0.745000,0.715000)} 33.333333% {transform: translate(0px,0px) translate(71.485900px,161.509000px)} 100% {transform: translate(0px,0px) translate(71.485900px,161.509000px)} }]]></style><rect id="ee9di2f19m042" width="222" height="104.015000" rx="0" ry="0" transform="matrix(1 0 0 1 0 93.01320000000000)" fill="rgb(255,255,255)" fill-opacity="0.3" stroke="none" stroke-width="1"/><ellipse id="ee9di2f19m043" rx="7.485850" ry="7.486920" transform="translate(0,0) translate(111.490000,146.500000)" fill="rgb(0,199,165)" fill-opacity="0.2" stroke="none" stroke-width="1"/><ellipse id="ee9di2f19m044" rx="7.485850" ry="7.486920" transform="translate(0,0) translate(111.490000,146.507000)" fill="rgb(0,199,165)" fill-opacity="0.2" stroke="none" stroke-width="1"/><ellipse id="ee9di2f19m045" rx="7.485850" ry="7.486920" transform="translate(0,0) translate(111.490000,146.500000)" fill="rgb(0,199,165)" fill-opacity="0.2" stroke="none" stroke-width="1"/><ellipse id="ee9di2f19m046" rx="7.485850" ry="7.486920" transform="translate(0,0) translate(111.490000,146.510000)" fill="rgb(0,199,165)" fill-opacity="0.2" stroke="none" stroke-width="1"/><ellipse id="ee9di2f19m047" rx="7.485850" ry="7.486920" transform="translate(0,0) translate(111.490000,146.500000)" fill="rgb(0,199,165)" fill-opacity="0.2" stroke="none" stroke-width="1"/><ellipse id="ee9di2f19m048" rx="7.485850" ry="7.486920" transform="translate(0,0) translate(111.490000,146.510000)" fill="rgb(0,199,165)" fill-opacity="0.2" stroke="none" stroke-width="1"/><ellipse id="ee9di2f19m049" rx="7.485850" ry="7.486920" transform="translate(0,0) translate(111.490000,146.500000)" fill="rgb(0,199,165)" fill-opacity="0.2" stroke="none" stroke-width="1"/><ellipse id="ee9di2f19m0410" rx="7.485850" ry="7.486920" transform="translate(0,0) translate(111.490000,146.507000)" fill="rgb(0,199,165)" fill-opacity="0.2" stroke="none" stroke-width="1"/><ellipse id="ee9di2f19m0411" rx="7.485850" ry="7.486920" transform="translate(0,0) translate(111.490000,146.510000)" fill="rgb(0,199,165)" fill-opacity="0.2" stroke="none" stroke-width="1"/><ellipse id="ee9di2f19m0412" rx="7.485850" ry="7.486920" transform="translate(0,0) translate(111.490000,146.500000)" fill="rgb(0,199,165)" fill-opacity="0.2" stroke="none" stroke-width="1"/><ellipse id="ee9di2f19m0413" rx="7.485850" ry="7.486920" transform="translate(0,0) translate(111.490000,146.500000)" fill="rgb(0,199,165)" fill-opacity="0.2" stroke="none" stroke-width="1"/><ellipse id="ee9di2f19m0414" rx="7.485850" ry="7.486920" transform="translate(0,0) translate(111.490000,146.510000)" fill="rgb(0,199,165)" fill-opacity="0.2" stroke="none" stroke-width="1"/><ellipse id="ee9di2f19m0415" rx="7.485850" ry="7.486920" transform="translate(0,0) translate(111.486000,146.500000)" fill="rgb(0,199,165)" fill-opacity="0.2" stroke="none" stroke-width="1"/><ellipse id="ee9di2f19m0416" rx="7.485850" ry="7.486920" transform="translate(0,0) translate(111.486000,146.510000)" fill="rgb(0,199,165)" fill-opacity="0.2" stroke="none" stroke-width="1"/><ellipse id="ee9di2f19m0417" rx="7.485850" ry="7.486920" transform="translate(0,0) translate(111.490000,146.500000)" fill="rgb(0,199,165)" fill-opacity="0.2" stroke="none" stroke-width="1"/><ellipse id="ee9di2f19m0418" rx="7.485850" ry="7.486920" transform="translate(0,0) translate(111.490000,146.510000)" fill="rgb(0,199,165)" fill-opacity="0.2" stroke="none" stroke-width="1"/><ellipse id="ee9di2f19m0419" rx="7.485850" ry="7.486920" transform="translate(0,0) translate(111.490000,146.500000)" fill="rgb(0,199,165)" fill-opacity="0.2" stroke="none" stroke-width="1"/><ellipse id="ee9di2f19m0420" rx="7.485850" ry="7.486920" transform="translate(0,0) translate(111.490000,146.507000)" fill="rgb(0,199,165)" fill-opacity="0.2" stroke="none" stroke-width="1"/><ellipse id="ee9di2f19m0421" rx="7.485850" ry="7.486920" transform="translate(0,0) translate(111.490000,146.510000)" fill="rgb(0,199,165)" fill-opacity="0.2" stroke="none" stroke-width="1"/><ellipse id="ee9di2f19m0422" rx="7.485850" ry="7.486920" transform="translate(0,0) translate(111.490000,146.500000)" fill="rgb(0,199,165)" fill-opacity="0.2" stroke="none" stroke-width="1"/><ellipse id="ee9di2f19m0423" rx="7.485850" ry="7.486920" transform="translate(0,0) translate(111.490000,146.510000)" fill="rgb(0,199,165)" fill-opacity="0.2" stroke="none" stroke-width="1"/><ellipse id="ee9di2f19m0424" rx="7.485850" ry="7.486920" transform="translate(0,0) translate(111.490000,146.500000)" fill="rgb(0,199,165)" fill-opacity="0.2" stroke="none" stroke-width="1"/><ellipse id="ee9di2f19m0425" rx="7.485850" ry="7.486920" transform="translate(0,0) translate(111.490000,146.510000)" fill="rgb(0,199,165)" fill-opacity="0.2" stroke="none" stroke-width="1"/><ellipse id="ee9di2f19m0426" rx="7.485850" ry="7.486920" transform="translate(0,0) translate(111.490000,146.510000)" fill="rgb(0,199,165)" fill-opacity="0.2" stroke="none" stroke-width="1"/><ellipse id="ee9di2f19m0427" rx="7.485850" ry="7.486920" transform="translate(0,0) translate(111.490000,146.507000)" fill="rgb(0,199,165)" fill-opacity="0.2" stroke="none" stroke-width="1"/><ellipse id="ee9di2f19m0428" rx="7.485850" ry="7.486920" transform="translate(0,0) translate(111.490000,146.510000)" fill="rgb(0,199,165)" fill-opacity="0.2" stroke="none" stroke-width="1"/><ellipse id="ee9di2f19m0429" rx="7.485850" ry="7.486920" transform="translate(0,0) translate(111.490000,146.500000)" fill="rgb(0,199,165)" fill-opacity="0.2" stroke="none" stroke-width="1"/><ellipse id="ee9di2f19m0430" rx="7.485850" ry="7.486920" transform="translate(0,0) translate(111.490000,146.510000)" fill="rgb(0,199,165)" fill-opacity="0.2" stroke="none" stroke-width="1"/><ellipse id="ee9di2f19m0431" rx="7.485850" ry="7.486920" transform="matrix(1 0 0 1 111.48600000000000 146.50700000000001)" fill="rgb(141,117,243)" stroke="none" stroke-width="1"/><path id="ee9di2f19m0432" d="M59.266600,19L56.796900,19L56.796900,9.182620L53.562500,10.342800L53.562500,8.215820L59.134800,6.203120L59.266600,6.203120L59.266600,19ZM67.668900,15.071300L66.561500,16.099600L66.561500,19L64.118200,19L64.118200,5.500000L66.561500,5.500000L66.561500,13.216800L67.299800,12.373000L69.927700,9.490230L72.863300,9.490230L69.277300,13.454100L73.364300,19L70.367200,19L67.668900,15.071300ZM74.656200,14.174800C74.656200,13.454100,74.744100,12.794900,74.919900,12.197300C75.101600,11.599600,75.359400,11.086900,75.693400,10.659200C76.027300,10.231400,76.431600,9.900390,76.906200,9.666020C77.380900,9.431640,77.917000,9.314450,78.514600,9.314450C79.071300,9.314450,79.548800,9.408200,79.947300,9.595700C80.345700,9.783200,80.685500,10.049800,80.966800,10.395500L81.063500,9.490230L83.287100,9.490230L83.287100,18.692400C83.287100,19.336900,83.175800,19.911100,82.953100,20.415000C82.736300,20.918900,82.428700,21.343800,82.030300,21.689500C81.637700,22.035200,81.163100,22.295900,80.606400,22.471700C80.055700,22.653300,79.446300,22.744100,78.778300,22.744100C78.491200,22.744100,78.183600,22.714800,77.855500,22.656200C77.527300,22.597700,77.202100,22.506800,76.879900,22.383800C76.557600,22.260700,76.252900,22.102500,75.965800,21.909200C75.678700,21.721700,75.432600,21.496100,75.227500,21.232400L76.326200,19.747100C76.636700,20.098600,76.988300,20.365200,77.380900,20.546900C77.773400,20.734400,78.198200,20.828100,78.655300,20.828100C79.340800,20.828100,79.874000,20.643600,80.254900,20.274400C80.641600,19.911100,80.835000,19.392600,80.835000,18.718800L80.835000,18.173800C80.547900,18.490200,80.210900,18.736300,79.824200,18.912100C79.443400,19.087900,79.001000,19.175800,78.497100,19.175800C77.905300,19.175800,77.372100,19.055700,76.897500,18.815400C76.428700,18.569300,76.027300,18.232400,75.693400,17.804700C75.359400,17.377000,75.101600,16.870100,74.919900,16.284200C74.744100,15.692400,74.656200,15.050800,74.656200,14.359400L74.656200,14.174800ZM77.108400,14.359400C77.108400,14.757800,77.146500,15.129900,77.222700,15.475600C77.304700,15.815400,77.427700,16.114300,77.591800,16.372100C77.755900,16.624000,77.963900,16.823200,78.215800,16.969700C78.467800,17.116200,78.766600,17.189500,79.112300,17.189500C79.540000,17.189500,79.891600,17.107400,80.167000,16.943400C80.448200,16.779300,80.670900,16.550800,80.835000,16.257800L80.835000,12.232400C80.670900,11.933600,80.448200,11.705100,80.167000,11.546900C79.891600,11.382800,79.545900,11.300800,79.129900,11.300800C78.784200,11.300800,78.485400,11.377000,78.233400,11.529300C77.981400,11.675800,77.770500,11.880900,77.600600,12.144500C77.436500,12.402300,77.313500,12.707000,77.231400,13.058600C77.149400,13.404300,77.108400,13.776400,77.108400,14.174800L77.108400,14.359400ZM99.467800,6.203120L100.681000,11.010700L102.061000,6.203120L105.128000,6.203120L105.128000,19L102.860000,19L102.860000,15.211900L102.966000,9.226560L101.287000,14.781200L100.065000,14.781200L98.562500,9.463870L98.668000,15.211900L98.668000,19L96.400400,19L96.400400,6.203120L99.467800,6.203120ZM111.948000,19.175800C111.216000,19.175800,110.551000,19.055700,109.953000,18.815400C109.355000,18.575200,108.843000,18.250000,108.415000,17.839800C107.987000,17.423800,107.656000,16.937500,107.422000,16.380900C107.193000,15.818400,107.079000,15.217800,107.079000,14.579100L107.079000,14.227500C107.079000,13.501000,107.193000,12.838900,107.422000,12.241200C107.650000,11.637700,107.970000,11.119100,108.380000,10.685500C108.790000,10.252000,109.276000,9.915040,109.839000,9.674800C110.401000,9.434570,111.014000,9.314450,111.676000,9.314450C112.361000,9.314450,112.971000,9.428710,113.504000,9.657230C114.043000,9.879880,114.497000,10.196300,114.866000,10.606400C115.241000,11.016600,115.525000,11.511700,115.719000,12.091800C115.912000,12.666000,116.009000,13.301800,116.009000,13.999000L116.009000,15.036100L109.558000,15.036100C109.604000,15.358400,109.698000,15.654300,109.839000,15.923800C109.985000,16.187500,110.170000,16.416000,110.393000,16.609400C110.615000,16.802700,110.870000,16.952100,111.157000,17.057600C111.444000,17.163100,111.758000,17.215800,112.098000,17.215800C112.338000,17.215800,112.575000,17.192400,112.810000,17.145500C113.050000,17.098600,113.278000,17.031200,113.495000,16.943400C113.712000,16.849600,113.914000,16.735400,114.102000,16.600600C114.289000,16.465800,114.453000,16.307600,114.594000,16.126000L115.815000,17.444300C115.663000,17.661100,115.464000,17.875000,115.218000,18.085900C114.978000,18.291000,114.690000,18.475600,114.356000,18.639600C114.028000,18.797900,113.662000,18.926800,113.258000,19.026400C112.854000,19.126000,112.417000,19.175800,111.948000,19.175800ZM111.658000,11.292000C111.383000,11.292000,111.131000,11.341800,110.902000,11.441400C110.674000,11.535200,110.472000,11.672900,110.296000,11.854500C110.126000,12.036100,109.982000,12.252900,109.865000,12.504900C109.748000,12.756800,109.660000,13.038100,109.602000,13.348600L113.609000,13.348600L113.609000,13.155300C113.598000,12.897500,113.548000,12.654300,113.460000,12.425800C113.372000,12.197300,113.246000,12.001000,113.082000,11.836900C112.918000,11.667000,112.716000,11.535200,112.476000,11.441400C112.241000,11.341800,111.969000,11.292000,111.658000,11.292000ZM122.627000,7.161130L122.627000,9.490230L126.178000,9.490230L126.178000,11.292000L122.627000,11.292000L122.627000,15.378900C122.627000,15.724600,122.665000,16.014600,122.741000,16.249000C122.823000,16.477500,122.938000,16.662100,123.084000,16.802700C123.230000,16.937500,123.406000,17.034200,123.611000,17.092800C123.822000,17.151400,124.057000,17.180700,124.314000,17.180700C124.502000,17.180700,124.692000,17.171900,124.886000,17.154300C125.085000,17.136700,125.272000,17.116200,125.448000,17.092800C125.630000,17.063500,125.797000,17.034200,125.949000,17.004900C126.107000,16.975600,126.242000,16.946300,126.354000,16.917000L126.591000,18.595700C126.421000,18.695300,126.222000,18.783200,125.993000,18.859400C125.765000,18.929700,125.521000,18.988300,125.264000,19.035200C125.006000,19.082000,124.736000,19.117200,124.455000,19.140600C124.180000,19.169900,123.907000,19.184600,123.638000,19.184600C123.116000,19.184600,122.642000,19.117200,122.214000,18.982400C121.792000,18.841800,121.429000,18.627900,121.124000,18.340800C120.825000,18.047900,120.594000,17.678700,120.430000,17.233400C120.266000,16.782200,120.184000,16.243200,120.184000,15.616200L120.184000,11.292000L118.013000,11.292000L118.013000,9.490230L120.184000,9.490230L120.184000,7.161130L122.627000,7.161130ZM131.398000,10.799800C131.715000,10.336900,132.099000,9.973630,132.550000,9.709960C133.007000,9.446290,133.517000,9.314450,134.079000,9.314450C134.577000,9.314450,135.034000,9.390620,135.450000,9.542970C135.866000,9.689450,136.224000,9.920900,136.522000,10.237300C136.821000,10.553700,137.053000,10.960900,137.217000,11.459000C137.387000,11.951200,137.472000,12.545900,137.472000,13.243200L137.472000,19L135.028000,19L135.028000,13.225600C135.028000,12.885700,134.984000,12.592800,134.896000,12.346700C134.814000,12.100600,134.694000,11.901400,134.536000,11.749000C134.378000,11.596700,134.188000,11.485400,133.965000,11.415000C133.742000,11.338900,133.490000,11.300800,133.209000,11.300800C132.799000,11.300800,132.441000,11.374000,132.137000,11.520500C131.838000,11.667000,131.592000,11.872100,131.398000,12.135700L131.398000,19L128.955000,19L128.955000,5.500000L131.398000,5.500000L131.398000,10.799800ZM145.707000,19C145.648000,18.882800,145.599000,18.748000,145.558000,18.595700C145.517000,18.443400,145.481000,18.282200,145.452000,18.112300C145.317000,18.258800,145.162000,18.396500,144.986000,18.525400C144.811000,18.654300,144.614000,18.768600,144.397000,18.868200C144.187000,18.961900,143.952000,19.035200,143.694000,19.087900C143.437000,19.146500,143.158000,19.175800,142.859000,19.175800C142.373000,19.175800,141.925000,19.105500,141.515000,18.964800C141.110000,18.824200,140.762000,18.627900,140.469000,18.376000C140.176000,18.124000,139.947000,17.825200,139.783000,17.479500C139.619000,17.127900,139.537000,16.747100,139.537000,16.336900C139.537000,15.335000,139.909000,14.561500,140.653000,14.016600C141.403000,13.465800,142.520000,13.190400,144.002000,13.190400L145.364000,13.190400L145.364000,12.627900C145.364000,12.170900,145.215000,11.810500,144.916000,11.546900C144.617000,11.277300,144.187000,11.142600,143.624000,11.142600C143.126000,11.142600,142.763000,11.251000,142.534000,11.467800C142.306000,11.678700,142.191000,11.962900,142.191000,12.320300L139.748000,12.320300C139.748000,11.916000,139.836000,11.532200,140.012000,11.168900C140.193000,10.805700,140.454000,10.486300,140.794000,10.210900C141.140000,9.935550,141.559000,9.718750,142.051000,9.560550C142.549000,9.396480,143.117000,9.314450,143.756000,9.314450C144.330000,9.314450,144.863000,9.384770,145.355000,9.525390C145.854000,9.666020,146.284000,9.874020,146.647000,10.149400C147.011000,10.424800,147.295000,10.773400,147.500000,11.195300C147.705000,11.611300,147.808000,12.094700,147.808000,12.645500L147.808000,16.723600C147.808000,17.233400,147.840000,17.655300,147.904000,17.989300C147.969000,18.323200,148.062000,18.610400,148.186000,18.850600L148.186000,19L145.707000,19ZM143.378000,17.286100C143.624000,17.286100,143.853000,17.256800,144.063000,17.198200C144.274000,17.139600,144.465000,17.063500,144.635000,16.969700C144.805000,16.876000,144.951000,16.770500,145.074000,16.653300C145.197000,16.530300,145.294000,16.407200,145.364000,16.284200L145.364000,14.649400L144.116000,14.649400C143.735000,14.649400,143.410000,14.687500,143.141000,14.763700C142.871000,14.834000,142.651000,14.936500,142.481000,15.071300C142.312000,15.200200,142.186000,15.358400,142.104000,15.545900C142.021000,15.727500,141.980000,15.926800,141.980000,16.143600C141.980000,16.471700,142.095000,16.744100,142.323000,16.960900C142.558000,17.177700,142.909000,17.286100,143.378000,17.286100ZM152.791000,9.490230L152.940000,10.808600C153.280000,10.334000,153.693000,9.967770,154.180000,9.709960C154.666000,9.446290,155.205000,9.314450,155.797000,9.314450C156.277000,9.314450,156.717000,9.384770,157.115000,9.525390C157.514000,9.666020,157.856000,9.891600,158.144000,10.202100C158.437000,10.506800,158.662000,10.902300,158.820000,11.388700C158.984000,11.869100,159.066000,12.455100,159.066000,13.146500L159.066000,19L156.623000,19L156.623000,13.181600C156.623000,12.806600,156.579000,12.499000,156.491000,12.258800C156.409000,12.012700,156.289000,11.819300,156.131000,11.678700C155.973000,11.538100,155.782000,11.441400,155.560000,11.388700C155.337000,11.330100,155.085000,11.300800,154.804000,11.300800C154.388000,11.300800,154.033000,11.385700,153.740000,11.555700C153.447000,11.719700,153.210000,11.948200,153.028000,12.241200L153.028000,19L150.576000,19L150.576000,9.490230L152.791000,9.490230ZM166.001000,19.175800C165.269000,19.175800,164.604000,19.055700,164.006000,18.815400C163.408000,18.575200,162.896000,18.250000,162.468000,17.839800C162.040000,17.423800,161.709000,16.937500,161.475000,16.380900C161.246000,15.818400,161.132000,15.217800,161.132000,14.579100L161.132000,14.227500C161.132000,13.501000,161.246000,12.838900,161.475000,12.241200C161.703000,11.637700,162.022000,11.119100,162.433000,10.685500C162.843000,10.252000,163.329000,9.915040,163.892000,9.674800C164.454000,9.434570,165.066000,9.314450,165.729000,9.314450C166.414000,9.314450,167.023000,9.428710,167.557000,9.657230C168.096000,9.879880,168.550000,10.196300,168.919000,10.606400C169.294000,11.016600,169.578000,11.511700,169.771000,12.091800C169.965000,12.666000,170.062000,13.301800,170.062000,13.999000L170.062000,15.036100L163.610000,15.036100C163.657000,15.358400,163.751000,15.654300,163.892000,15.923800C164.038000,16.187500,164.223000,16.416000,164.445000,16.609400C164.668000,16.802700,164.923000,16.952100,165.210000,17.057600C165.497000,17.163100,165.811000,17.215800,166.150000,17.215800C166.391000,17.215800,166.628000,17.192400,166.862000,17.145500C167.103000,17.098600,167.331000,17.031200,167.548000,16.943400C167.765000,16.849600,167.967000,16.735400,168.154000,16.600600C168.342000,16.465800,168.506000,16.307600,168.646000,16.126000L169.868000,17.444300C169.716000,17.661100,169.517000,17.875000,169.271000,18.085900C169.030000,18.291000,168.743000,18.475600,168.409000,18.639600C168.081000,18.797900,167.715000,18.926800,167.311000,19.026400C166.906000,19.126000,166.470000,19.175800,166.001000,19.175800ZM165.711000,11.292000C165.436000,11.292000,165.184000,11.341800,164.955000,11.441400C164.727000,11.535200,164.524000,11.672900,164.349000,11.854500C164.179000,12.036100,164.035000,12.252900,163.918000,12.504900C163.801000,12.756800,163.713000,13.038100,163.654000,13.348600L167.662000,13.348600L167.662000,13.155300C167.650000,12.897500,167.601000,12.654300,167.513000,12.425800C167.425000,12.197300,167.299000,12.001000,167.135000,11.836900C166.971000,11.667000,166.769000,11.535200,166.528000,11.441400C166.294000,11.341800,166.021000,11.292000,165.711000,11.292000Z" fill="rgb(141,117,243)" stroke="none" stroke-width="1"/><path id="ee9di2f19m0433" d="M106.851000,39.324200L116.141000,39.324200L116.141000,41.407200L106.851000,41.407200L106.851000,39.324200ZM106.851000,35.325200L116.141000,35.325200L116.141000,37.390600L106.851000,37.390600L106.851000,35.325200ZM108.731000,34.463900L110.788000,29.164100L112.212000,29.164100L114.260000,34.463900L112.555000,34.463900L111.509000,31.844700L110.489000,34.463900L108.731000,34.463900ZM69.048800,68L60.321300,68L60.321300,66.330100L64.460900,61.882800C64.783200,61.531200,65.055700,61.211900,65.278300,60.924800C65.501000,60.637700,65.679700,60.377000,65.814500,60.142600C65.955100,59.902300,66.054700,59.679700,66.113300,59.474600C66.177700,59.269500,66.210000,59.070300,66.210000,58.877000C66.210000,58.589800,66.168900,58.335000,66.086900,58.112300C66.004900,57.889600,65.887700,57.702100,65.735400,57.549800C65.588900,57.391600,65.410200,57.271500,65.199200,57.189500C64.994100,57.107400,64.765600,57.066400,64.513700,57.066400C63.839800,57.066400,63.335900,57.253900,63.002000,57.628900C62.673800,58.003900,62.509800,58.528300,62.509800,59.202100L60.057600,59.202100C60.057600,58.633800,60.166000,58.097700,60.382800,57.593800C60.599600,57.084000,60.904300,56.638700,61.296900,56.257800C61.695300,55.877000,62.172900,55.578100,62.729500,55.361300C63.292000,55.138700,63.913100,55.027300,64.592800,55.027300C65.243200,55.027300,65.817400,55.118200,66.315400,55.299800C66.819300,55.481400,67.238300,55.736300,67.572300,56.064500C67.912100,56.392600,68.169900,56.788100,68.345700,57.251000C68.521500,57.708000,68.609400,58.214800,68.609400,58.771500C68.609400,59.193400,68.542000,59.597700,68.407200,59.984400C68.278300,60.365200,68.090800,60.743200,67.844700,61.118200C67.604500,61.493200,67.314500,61.877000,66.974600,62.269500C66.634800,62.656200,66.256800,63.063500,65.840800,63.491200L63.432600,66.040000L69.048800,66.040000L69.048800,68ZM79.525400,58.604500C79.525400,59.225600,79.367200,59.779300,79.050800,60.265600C78.740200,60.746100,78.312500,61.129900,77.767600,61.417000C78.388700,61.710000,78.880900,62.120100,79.244100,62.647500C79.613300,63.174800,79.797900,63.793000,79.797900,64.502000C79.797900,65.105500,79.686500,65.635700,79.463900,66.092800C79.247100,66.549800,78.945300,66.933600,78.558600,67.244100C78.177700,67.548800,77.726600,67.780300,77.205100,67.938500C76.683600,68.096700,76.121100,68.175800,75.517600,68.175800C74.908200,68.175800,74.339800,68.096700,73.812500,67.938500C73.291000,67.780300,72.836900,67.548800,72.450200,67.244100C72.063500,66.933600,71.758800,66.549800,71.536100,66.092800C71.319300,65.635700,71.210900,65.105500,71.210900,64.502000C71.210900,64.150400,71.257800,63.819300,71.351600,63.508800C71.451200,63.192400,71.588900,62.905300,71.764600,62.647500C71.940400,62.383800,72.151400,62.149400,72.397500,61.944300C72.649400,61.733400,72.930700,61.554700,73.241200,61.408200C72.696300,61.127000,72.268600,60.746100,71.958000,60.265600C71.647500,59.779300,71.492200,59.225600,71.492200,58.604500C71.492200,58.024400,71.591800,57.514600,71.791000,57.075200C71.990200,56.629900,72.265600,56.254900,72.617200,55.950200C72.974600,55.645500,73.396500,55.417000,73.882800,55.264600C74.375000,55.106400,74.911100,55.027300,75.491200,55.027300C76.071300,55.027300,76.607400,55.106400,77.099600,55.264600C77.591800,55.417000,78.016600,55.645500,78.374000,55.950200C78.737300,56.254900,79.018600,56.629900,79.217800,57.075200C79.422900,57.514600,79.525400,58.024400,79.525400,58.604500ZM77.345700,64.335000C77.345700,64.042000,77.301800,63.778300,77.213900,63.543900C77.126000,63.309600,77,63.110400,76.835900,62.946300C76.677700,62.776400,76.484400,62.647500,76.255900,62.559600C76.033200,62.471700,75.781200,62.427700,75.500000,62.427700C75.218800,62.427700,74.963900,62.471700,74.735400,62.559600C74.512700,62.647500,74.322300,62.776400,74.164100,62.946300C74.005900,63.110400,73.882800,63.309600,73.794900,63.543900C73.707000,63.778300,73.663100,64.042000,73.663100,64.335000C73.663100,64.920900,73.830100,65.380900,74.164100,65.714800C74.498000,66.048800,74.949200,66.215800,75.517600,66.215800C75.787100,66.215800,76.033200,66.174800,76.255900,66.092800C76.478500,66.004900,76.668900,65.878900,76.827100,65.714800C76.991200,65.550800,77.117200,65.354500,77.205100,65.126000C77.298800,64.891600,77.345700,64.627900,77.345700,64.335000ZM77.090800,58.718800C77.090800,58.460900,77.052700,58.226600,76.976600,58.015600C76.900400,57.804700,76.792000,57.626000,76.651400,57.479500C76.516600,57.327100,76.349600,57.210000,76.150400,57.127900C75.957000,57.045900,75.737300,57.004900,75.491200,57.004900C74.993200,57.004900,74.609400,57.157200,74.339800,57.461900C74.070300,57.766600,73.935500,58.185500,73.935500,58.718800C73.935500,58.976600,73.970700,59.213900,74.041000,59.430700C74.111300,59.641600,74.213900,59.823200,74.348600,59.975600C74.489300,60.127900,74.656200,60.248000,74.849600,60.335900C75.048800,60.418000,75.271500,60.459000,75.517600,60.459000C75.763700,60.459000,75.983400,60.418000,76.176800,60.335900C76.370100,60.248000,76.534200,60.127900,76.668900,59.975600C76.803700,59.823200,76.906200,59.641600,76.976600,59.430700C77.052700,59.213900,77.090800,58.976600,77.090800,58.718800ZM85.879900,64.071300L84.772500,65.099600L84.772500,68L82.329100,68L82.329100,54.500000L84.772500,54.500000L84.772500,62.216800L85.510700,61.373000L88.138700,58.490200L91.074200,58.490200L87.488300,62.454100L91.575200,68L88.578100,68L85.879900,64.071300ZM92.867200,63.174800C92.867200,62.454100,92.955100,61.794900,93.130900,61.197300C93.312500,60.599600,93.570300,60.086900,93.904300,59.659200C94.238300,59.231400,94.642600,58.900400,95.117200,58.666000C95.591800,58.431600,96.127900,58.314500,96.725600,58.314500C97.282200,58.314500,97.759800,58.408200,98.158200,58.595700C98.556600,58.783200,98.896500,59.049800,99.177700,59.395500L99.274400,58.490200L101.498000,58.490200L101.498000,67.692400C101.498000,68.336900,101.387000,68.911100,101.164000,69.415000C100.947000,69.918900,100.640000,70.343800,100.241000,70.689500C99.848600,71.035200,99.374000,71.295900,98.817400,71.471700C98.266600,71.653300,97.657200,71.744100,96.989300,71.744100C96.702100,71.744100,96.394500,71.714800,96.066400,71.656200C95.738300,71.597700,95.413100,71.506800,95.090800,71.383800C94.768600,71.260700,94.463900,71.102500,94.176800,70.909200C93.889600,70.721700,93.643600,70.496100,93.438500,70.232400L94.537100,68.747100C94.847700,69.098600,95.199200,69.365200,95.591800,69.546900C95.984400,69.734400,96.409200,69.828100,96.866200,69.828100C97.551800,69.828100,98.085000,69.643600,98.465800,69.274400C98.852500,68.911100,99.045900,68.392600,99.045900,67.718800L99.045900,67.173800C98.758800,67.490200,98.421900,67.736300,98.035200,67.912100C97.654300,68.087900,97.211900,68.175800,96.708000,68.175800C96.116200,68.175800,95.583000,68.055700,95.108400,67.815400C94.639600,67.569300,94.238300,67.232400,93.904300,66.804700C93.570300,66.377000,93.312500,65.870100,93.130900,65.284200C92.955100,64.692400,92.867200,64.050800,92.867200,63.359400L92.867200,63.174800ZM95.319300,63.359400C95.319300,63.757800,95.357400,64.129900,95.433600,64.475600C95.515600,64.815400,95.638700,65.114300,95.802700,65.372100C95.966800,65.624000,96.174800,65.823200,96.426800,65.969700C96.678700,66.116200,96.977500,66.189500,97.323200,66.189500C97.751000,66.189500,98.102500,66.107400,98.377900,65.943400C98.659200,65.779300,98.881800,65.550800,99.045900,65.257800L99.045900,61.232400C98.881800,60.933600,98.659200,60.705100,98.377900,60.546900C98.102500,60.382800,97.756800,60.300800,97.340800,60.300800C96.995100,60.300800,96.696300,60.377000,96.444300,60.529300C96.192400,60.675800,95.981400,60.880900,95.811500,61.144500C95.647500,61.402300,95.524400,61.707000,95.442400,62.058600C95.360400,62.404300,95.319300,62.776400,95.319300,63.174800L95.319300,63.359400ZM123.532000,63.992200C123.491000,64.636700,123.351000,65.216800,123.110000,65.732400C122.876000,66.248000,122.560000,66.687500,122.161000,67.050800C121.763000,67.414100,121.288000,67.695300,120.737000,67.894500C120.187000,68.087900,119.577000,68.184600,118.909000,68.184600C118.153000,68.184600,117.482000,68.046900,116.896000,67.771500C116.311000,67.490200,115.818000,67.100600,115.420000,66.602500C115.021000,66.098600,114.717000,65.495100,114.506000,64.792000C114.295000,64.088900,114.189000,63.315400,114.189000,62.471700L114.189000,60.749000C114.189000,59.899400,114.301000,59.123000,114.523000,58.419900C114.746000,57.716800,115.062000,57.113300,115.473000,56.609400C115.883000,56.105500,116.378000,55.715800,116.958000,55.440400C117.544000,55.159200,118.200000,55.018600,118.927000,55.018600C119.630000,55.018600,120.254000,55.118200,120.799000,55.317400C121.350000,55.516600,121.818000,55.800800,122.205000,56.169900C122.592000,56.539100,122.896000,56.990200,123.119000,57.523400C123.342000,58.056600,123.482000,58.657200,123.541000,59.325200L121.080000,59.325200C121.057000,58.944300,120.998000,58.610400,120.904000,58.323200C120.816000,58.036100,120.685000,57.798800,120.509000,57.611300C120.339000,57.418000,120.122000,57.274400,119.858000,57.180700C119.601000,57.081100,119.290000,57.031200,118.927000,57.031200C118.546000,57.031200,118.215000,57.113300,117.934000,57.277300C117.652000,57.441400,117.418000,57.681600,117.230000,57.998000C117.049000,58.314500,116.914000,58.704100,116.826000,59.167000C116.738000,59.624000,116.694000,60.145500,116.694000,60.731400L116.694000,62.471700C116.694000,63.731400,116.870000,64.663100,117.222000,65.266600C117.579000,65.870100,118.142000,66.171900,118.909000,66.171900C119.554000,66.171900,120.063000,66.002000,120.438000,65.662100C120.813000,65.316400,121.021000,64.759800,121.062000,63.992200L123.532000,63.992200ZM134.387000,62.542000C134.387000,63.362300,134.278000,64.118200,134.062000,64.809600C133.845000,65.501000,133.531000,66.095700,133.121000,66.593800C132.711000,67.091800,132.210000,67.481400,131.618000,67.762700C131.032000,68.038100,130.370000,68.175800,129.632000,68.175800C128.894000,68.175800,128.237000,68.038100,127.663000,67.762700C127.089000,67.481400,126.605000,67.091800,126.213000,66.593800C125.820000,66.089800,125.521000,65.495100,125.316000,64.809600C125.111000,64.118200,125.009000,63.362300,125.009000,62.542000L125.009000,60.678700C125.009000,59.858400,125.111000,59.102500,125.316000,58.411100C125.521000,57.719700,125.820000,57.125000,126.213000,56.627000C126.605000,56.123000,127.086000,55.730500,127.654000,55.449200C128.229000,55.168000,128.885000,55.027300,129.623000,55.027300C130.367000,55.027300,131.032000,55.168000,131.618000,55.449200C132.210000,55.730500,132.711000,56.123000,133.121000,56.627000C133.531000,57.125000,133.845000,57.719700,134.062000,58.411100C134.278000,59.102500,134.387000,59.858400,134.387000,60.678700L134.387000,62.542000ZM131.882000,60.661100C131.882000,60.139600,131.838000,59.659200,131.750000,59.219700C131.668000,58.780300,131.536000,58.402300,131.354000,58.085900C131.173000,57.769500,130.938000,57.523400,130.651000,57.347700C130.370000,57.166000,130.027000,57.075200,129.623000,57.075200C129.225000,57.075200,128.891000,57.166000,128.621000,57.347700C128.352000,57.523400,128.135000,57.769500,127.971000,58.085900C127.807000,58.402300,127.689000,58.780300,127.619000,59.219700C127.549000,59.659200,127.514000,60.139600,127.514000,60.661100L127.514000,62.542000C127.514000,63.057600,127.549000,63.535200,127.619000,63.974600C127.689000,64.414100,127.807000,64.794900,127.971000,65.117200C128.135000,65.439500,128.352000,65.691400,128.621000,65.873000C128.891000,66.054700,129.228000,66.145500,129.632000,66.145500C130.030000,66.145500,130.370000,66.054700,130.651000,65.873000C130.938000,65.691400,131.170000,65.442400,131.346000,65.126000C131.527000,64.803700,131.662000,64.422900,131.750000,63.983400C131.838000,63.543900,131.882000,63.063500,131.882000,62.542000L131.882000,60.661100ZM141.290000,70.340000L135.602000,70.340000L135.602000,68.864000L137.564000,66.938000C138.104000,66.410000,138.470000,66.008000,138.662000,65.732000C138.866000,65.444000,138.968000,65.144000,138.968000,64.832000C138.968000,64.616000,138.896000,64.448000,138.752000,64.328000C138.620000,64.208000,138.434000,64.148000,138.194000,64.148000C137.726000,64.148000,137.198000,64.406000,136.610000,64.922000L135.530000,63.590000C135.914000,63.254000,136.340000,62.984000,136.808000,62.780000C137.288000,62.564000,137.846000,62.456000,138.482000,62.456000C139.262000,62.456000,139.886000,62.648000,140.354000,63.032000C140.834000,63.404000,141.074000,63.944000,141.074000,64.652000C141.074000,65.192000,140.924000,65.684000,140.624000,66.128000C140.324000,66.572000,139.820000,67.112000,139.112000,67.748000L138.194000,68.576000L141.290000,68.576000L141.290000,70.340000ZM147.790000,68.175800C147.058000,68.175800,146.393000,68.055700,145.795000,67.815400C145.197000,67.575200,144.685000,67.250000,144.257000,66.839800C143.829000,66.423800,143.498000,65.937500,143.264000,65.380900C143.035000,64.818400,142.921000,64.217800,142.921000,63.579100L142.921000,63.227500C142.921000,62.501000,143.035000,61.838900,143.264000,61.241200C143.492000,60.637700,143.812000,60.119100,144.222000,59.685500C144.632000,59.252000,145.118000,58.915000,145.681000,58.674800C146.243000,58.434600,146.855000,58.314500,147.518000,58.314500C148.203000,58.314500,148.812000,58.428700,149.346000,58.657200C149.885000,58.879900,150.339000,59.196300,150.708000,59.606400C151.083000,60.016600,151.367000,60.511700,151.561000,61.091800C151.754000,61.666000,151.851000,62.301800,151.851000,62.999000L151.851000,64.036100L145.399000,64.036100C145.446000,64.358400,145.540000,64.654300,145.681000,64.923800C145.827000,65.187500,146.012000,65.416000,146.234000,65.609400C146.457000,65.802700,146.712000,65.952100,146.999000,66.057600C147.286000,66.163100,147.600000,66.215800,147.939000,66.215800C148.180000,66.215800,148.417000,66.192400,148.651000,66.145500C148.892000,66.098600,149.120000,66.031200,149.337000,65.943400C149.554000,65.849600,149.756000,65.735400,149.943000,65.600600C150.131000,65.465800,150.295000,65.307600,150.436000,65.126000L151.657000,66.444300C151.505000,66.661100,151.306000,66.875000,151.060000,67.085900C150.819000,67.291000,150.532000,67.475600,150.198000,67.639600C149.870000,67.797900,149.504000,67.926800,149.100000,68.026400C148.695000,68.126000,148.259000,68.175800,147.790000,68.175800ZM147.500000,60.292000C147.225000,60.292000,146.973000,60.341800,146.744000,60.441400C146.516000,60.535200,146.313000,60.672900,146.138000,60.854500C145.968000,61.036100,145.824000,61.252900,145.707000,61.504900C145.590000,61.756800,145.502000,62.038100,145.443000,62.348600L149.451000,62.348600L149.451000,62.155300C149.439000,61.897500,149.390000,61.654300,149.302000,61.425800C149.214000,61.197300,149.088000,61.001000,148.924000,60.836900C148.760000,60.667000,148.558000,60.535200,148.317000,60.441400C148.083000,60.341800,147.811000,60.292000,147.500000,60.292000ZM153.740000,63.166000C153.740000,62.445300,153.822000,61.786100,153.986000,61.188500C154.150000,60.590800,154.391000,60.081100,154.707000,59.659200C155.029000,59.231400,155.422000,58.900400,155.885000,58.666000C156.354000,58.431600,156.890000,58.314500,157.493000,58.314500C158.032000,58.314500,158.501000,58.414100,158.899000,58.613300C159.304000,58.812500,159.652000,59.093800,159.945000,59.457000L160.095000,58.490200L162.248000,58.490200L162.248000,71.656200L159.796000,71.656200L159.796000,67.191400C159.509000,67.507800,159.175000,67.751000,158.794000,67.920900C158.413000,68.090800,157.974000,68.175800,157.476000,68.175800C156.878000,68.175800,156.348000,68.055700,155.885000,67.815400C155.422000,67.569300,155.032000,67.232400,154.716000,66.804700C154.399000,66.371100,154.156000,65.861300,153.986000,65.275400C153.822000,64.683600,153.740000,64.042000,153.740000,63.350600L153.740000,63.166000ZM156.184000,63.350600C156.184000,63.743200,156.219000,64.112300,156.289000,64.458000C156.359000,64.803700,156.471000,65.108400,156.623000,65.372100C156.775000,65.629900,156.972000,65.835000,157.212000,65.987300C157.458000,66.139600,157.754000,66.215800,158.100000,66.215800C158.527000,66.215800,158.876000,66.130900,159.146000,65.960900C159.421000,65.791000,159.638000,65.556600,159.796000,65.257800L159.796000,61.214800C159.638000,60.921900,159.421000,60.696300,159.146000,60.538100C158.876000,60.374000,158.533000,60.292000,158.117000,60.292000C157.771000,60.292000,157.476000,60.368200,157.229000,60.520500C156.989000,60.667000,156.790000,60.869100,156.632000,61.127000C156.479000,61.384800,156.365000,61.689500,156.289000,62.041000C156.219000,62.386700,156.184000,62.761700,156.184000,63.166000L156.184000,63.350600Z" fill="rgb(0,199,165)" stroke="none" stroke-width="1"/></svg>