<svg width="222" height="148" viewBox="0 0 222 148" fill="none" xmlns="http://www.w3.org/2000/svg">
<rect y="44" width="222" height="104" fill="white" fill-opacity="0.3"/>
<circle cx="111.485" cy="96.485" r="7.485" fill="#00C7A5"/>
<path d="M71.0723 19H68.6025V9.18262L65.3682 10.3428V8.21582L70.9404 6.20312H71.0723V19ZM79.4746 15.0713L78.3672 16.0996V19H75.9238V5.5H78.3672V13.2168L79.1055 12.373L81.7334 9.49023H84.6689L81.083 13.4541L85.1699 19H82.1729L79.4746 15.0713ZM86.4619 14.1748C86.4619 13.4541 86.5498 12.7949 86.7256 12.1973C86.9072 11.5996 87.165 11.0869 87.499 10.6592C87.833 10.2314 88.2373 9.90039 88.7119 9.66602C89.1865 9.43164 89.7227 9.31445 90.3203 9.31445C90.877 9.31445 91.3545 9.4082 91.7529 9.5957C92.1514 9.7832 92.4912 10.0498 92.7725 10.3955L92.8691 9.49023H95.0928V18.6924C95.0928 19.3369 94.9814 19.9111 94.7588 20.415C94.542 20.9189 94.2344 21.3438 93.8359 21.6895C93.4434 22.0352 92.9688 22.2959 92.4121 22.4717C91.8613 22.6533 91.252 22.7441 90.584 22.7441C90.2969 22.7441 89.9893 22.7148 89.6611 22.6562C89.333 22.5977 89.0078 22.5068 88.6855 22.3838C88.3633 22.2607 88.0586 22.1025 87.7715 21.9092C87.4844 21.7217 87.2383 21.4961 87.0332 21.2324L88.1318 19.7471C88.4424 20.0986 88.7939 20.3652 89.1865 20.5469C89.5791 20.7344 90.0039 20.8281 90.4609 20.8281C91.1465 20.8281 91.6797 20.6436 92.0605 20.2744C92.4473 19.9111 92.6406 19.3926 92.6406 18.7188V18.1738C92.3535 18.4902 92.0166 18.7363 91.6299 18.9121C91.249 19.0879 90.8066 19.1758 90.3027 19.1758C89.7109 19.1758 89.1777 19.0557 88.7031 18.8154C88.2344 18.5693 87.833 18.2324 87.499 17.8047C87.165 17.377 86.9072 16.8701 86.7256 16.2842C86.5498 15.6924 86.4619 15.0508 86.4619 14.3594V14.1748ZM88.9141 14.3594C88.9141 14.7578 88.9521 15.1299 89.0283 15.4756C89.1104 15.8154 89.2334 16.1143 89.3975 16.3721C89.5615 16.624 89.7695 16.8232 90.0215 16.9697C90.2734 17.1162 90.5723 17.1895 90.918 17.1895C91.3457 17.1895 91.6973 17.1074 91.9727 16.9434C92.2539 16.7793 92.4766 16.5508 92.6406 16.2578V12.2324C92.4766 11.9336 92.2539 11.7051 91.9727 11.5469C91.6973 11.3828 91.3516 11.3008 90.9355 11.3008C90.5898 11.3008 90.291 11.377 90.0391 11.5293C89.7871 11.6758 89.5762 11.8809 89.4062 12.1445C89.2422 12.4023 89.1191 12.707 89.0371 13.0586C88.9551 13.4043 88.9141 13.7764 88.9141 14.1748V14.3594ZM117.127 14.9922C117.086 15.6367 116.945 16.2168 116.705 16.7324C116.471 17.248 116.154 17.6875 115.756 18.0508C115.357 18.4141 114.883 18.6953 114.332 18.8945C113.781 19.0879 113.172 19.1846 112.504 19.1846C111.748 19.1846 111.077 19.0469 110.491 18.7715C109.905 18.4902 109.413 18.1006 109.015 17.6025C108.616 17.0986 108.312 16.4951 108.101 15.792C107.89 15.0889 107.784 14.3154 107.784 13.4717V11.749C107.784 10.8994 107.896 10.123 108.118 9.41992C108.341 8.7168 108.657 8.11328 109.067 7.60938C109.478 7.10547 109.973 6.71582 110.553 6.44043C111.139 6.15918 111.795 6.01855 112.521 6.01855C113.225 6.01855 113.849 6.11816 114.394 6.31738C114.944 6.5166 115.413 6.80078 115.8 7.16992C116.187 7.53906 116.491 7.99023 116.714 8.52344C116.937 9.05664 117.077 9.65723 117.136 10.3252H114.675C114.651 9.94434 114.593 9.61035 114.499 9.32324C114.411 9.03613 114.279 8.79883 114.104 8.61133C113.934 8.41797 113.717 8.27441 113.453 8.18066C113.195 8.08105 112.885 8.03125 112.521 8.03125C112.141 8.03125 111.81 8.11328 111.528 8.27734C111.247 8.44141 111.013 8.68164 110.825 8.99805C110.644 9.31445 110.509 9.7041 110.421 10.167C110.333 10.624 110.289 11.1455 110.289 11.7314V13.4717C110.289 14.7314 110.465 15.6631 110.816 16.2666C111.174 16.8701 111.736 17.1719 112.504 17.1719C113.148 17.1719 113.658 17.002 114.033 16.6621C114.408 16.3164 114.616 15.7598 114.657 14.9922H117.127ZM127.981 13.542C127.981 14.3623 127.873 15.1182 127.656 15.8096C127.439 16.501 127.126 17.0957 126.716 17.5938C126.306 18.0918 125.805 18.4814 125.213 18.7627C124.627 19.0381 123.965 19.1758 123.227 19.1758C122.488 19.1758 121.832 19.0381 121.258 18.7627C120.684 18.4814 120.2 18.0918 119.808 17.5938C119.415 17.0898 119.116 16.4951 118.911 15.8096C118.706 15.1182 118.604 14.3623 118.604 13.542V11.6787C118.604 10.8584 118.706 10.1025 118.911 9.41113C119.116 8.71973 119.415 8.125 119.808 7.62695C120.2 7.12305 120.681 6.73047 121.249 6.44922C121.823 6.16797 122.479 6.02734 123.218 6.02734C123.962 6.02734 124.627 6.16797 125.213 6.44922C125.805 6.73047 126.306 7.12305 126.716 7.62695C127.126 8.125 127.439 8.71973 127.656 9.41113C127.873 10.1025 127.981 10.8584 127.981 11.6787V13.542ZM125.477 11.6611C125.477 11.1396 125.433 10.6592 125.345 10.2197C125.263 9.78027 125.131 9.40234 124.949 9.08594C124.768 8.76953 124.533 8.52344 124.246 8.34766C123.965 8.16602 123.622 8.0752 123.218 8.0752C122.819 8.0752 122.485 8.16602 122.216 8.34766C121.946 8.52344 121.729 8.76953 121.565 9.08594C121.401 9.40234 121.284 9.78027 121.214 10.2197C121.144 10.6592 121.108 11.1396 121.108 11.6611V13.542C121.108 14.0576 121.144 14.5352 121.214 14.9746C121.284 15.4141 121.401 15.7949 121.565 16.1172C121.729 16.4395 121.946 16.6914 122.216 16.873C122.485 17.0547 122.822 17.1455 123.227 17.1455C123.625 17.1455 123.965 17.0547 124.246 16.873C124.533 16.6914 124.765 16.4424 124.94 16.126C125.122 15.8037 125.257 15.4229 125.345 14.9834C125.433 14.5439 125.477 14.0635 125.477 13.542V11.6611ZM134.885 21.34H129.197V19.864L131.159 17.938C131.699 17.41 132.065 17.008 132.257 16.732C132.461 16.444 132.563 16.144 132.563 15.832C132.563 15.616 132.491 15.448 132.347 15.328C132.215 15.208 132.029 15.148 131.789 15.148C131.321 15.148 130.793 15.406 130.205 15.922L129.125 14.59C129.509 14.254 129.935 13.984 130.403 13.78C130.883 13.564 131.441 13.456 132.077 13.456C132.857 13.456 133.481 13.648 133.949 14.032C134.429 14.404 134.669 14.944 134.669 15.652C134.669 16.192 134.519 16.684 134.219 17.128C133.919 17.572 133.415 18.112 132.707 18.748L131.789 19.576H134.885V21.34ZM141.385 19.1758C140.652 19.1758 139.987 19.0557 139.39 18.8154C138.792 18.5752 138.279 18.25 137.852 17.8398C137.424 17.4238 137.093 16.9375 136.858 16.3809C136.63 15.8184 136.516 15.2178 136.516 14.5791V14.2275C136.516 13.501 136.63 12.8389 136.858 12.2412C137.087 11.6377 137.406 11.1191 137.816 10.6855C138.227 10.252 138.713 9.91504 139.275 9.6748C139.838 9.43457 140.45 9.31445 141.112 9.31445C141.798 9.31445 142.407 9.42871 142.94 9.65723C143.479 9.87988 143.934 10.1963 144.303 10.6064C144.678 11.0166 144.962 11.5117 145.155 12.0918C145.349 12.666 145.445 13.3018 145.445 13.999V15.0361H138.994C139.041 15.3584 139.135 15.6543 139.275 15.9238C139.422 16.1875 139.606 16.416 139.829 16.6094C140.052 16.8027 140.307 16.9521 140.594 17.0576C140.881 17.1631 141.194 17.2158 141.534 17.2158C141.774 17.2158 142.012 17.1924 142.246 17.1455C142.486 17.0986 142.715 17.0312 142.932 16.9434C143.148 16.8496 143.351 16.7354 143.538 16.6006C143.726 16.4658 143.89 16.3076 144.03 16.126L145.252 17.4443C145.1 17.6611 144.9 17.875 144.654 18.0859C144.414 18.291 144.127 18.4756 143.793 18.6396C143.465 18.7979 143.099 18.9268 142.694 19.0264C142.29 19.126 141.854 19.1758 141.385 19.1758ZM141.095 11.292C140.819 11.292 140.567 11.3418 140.339 11.4414C140.11 11.5352 139.908 11.6729 139.732 11.8545C139.562 12.0361 139.419 12.2529 139.302 12.5049C139.185 12.7568 139.097 13.0381 139.038 13.3486H143.046V13.1553C143.034 12.8975 142.984 12.6543 142.896 12.4258C142.809 12.1973 142.683 12.001 142.519 11.8369C142.354 11.667 142.152 11.5352 141.912 11.4414C141.678 11.3418 141.405 11.292 141.095 11.292ZM147.335 14.166C147.335 13.4453 147.417 12.7861 147.581 12.1885C147.745 11.5908 147.985 11.0811 148.302 10.6592C148.624 10.2314 149.017 9.90039 149.479 9.66602C149.948 9.43164 150.484 9.31445 151.088 9.31445C151.627 9.31445 152.096 9.41406 152.494 9.61328C152.898 9.8125 153.247 10.0938 153.54 10.457L153.689 9.49023H155.843V22.6562H153.391V18.1914C153.104 18.5078 152.77 18.751 152.389 18.9209C152.008 19.0908 151.568 19.1758 151.07 19.1758C150.473 19.1758 149.942 19.0557 149.479 18.8154C149.017 18.5693 148.627 18.2324 148.311 17.8047C147.994 17.3711 147.751 16.8613 147.581 16.2754C147.417 15.6836 147.335 15.042 147.335 14.3506V14.166ZM149.778 14.3506C149.778 14.7432 149.813 15.1123 149.884 15.458C149.954 15.8037 150.065 16.1084 150.218 16.3721C150.37 16.6299 150.566 16.835 150.807 16.9873C151.053 17.1396 151.349 17.2158 151.694 17.2158C152.122 17.2158 152.471 17.1309 152.74 16.9609C153.016 16.791 153.232 16.5566 153.391 16.2578V12.2148C153.232 11.9219 153.016 11.6963 152.74 11.5381C152.471 11.374 152.128 11.292 151.712 11.292C151.366 11.292 151.07 11.3682 150.824 11.5205C150.584 11.667 150.385 11.8691 150.227 12.127C150.074 12.3848 149.96 12.6895 149.884 13.041C149.813 13.3867 149.778 13.7617 149.778 14.166V14.3506Z" fill="#00C7A5"/>
</svg>
