<svg width="222" height="148" viewBox="0 0 222 148" fill="none" xmlns="http://www.w3.org/2000/svg">
<rect y="44" width="222" height="104" fill="white" fill-opacity="0.3"/>
<circle cx="111.485" cy="96.485" r="7.485" fill="#00C7A5"/>
<path d="M71.5723 19H69.1025V9.18262L65.8682 10.3428V8.21582L71.4404 6.20312H71.5723V19ZM79.9746 15.0713L78.8672 16.0996V19H76.4238V5.5H78.8672V13.2168L79.6055 12.373L82.2334 9.49023H85.1689L81.583 13.4541L85.6699 19H82.6729L79.9746 15.0713ZM86.9619 14.1748C86.9619 13.4541 87.0498 12.7949 87.2256 12.1973C87.4072 11.5996 87.665 11.0869 87.999 10.6592C88.333 10.2314 88.7373 9.90039 89.2119 9.66602C89.6865 9.43164 90.2227 9.31445 90.8203 9.31445C91.377 9.31445 91.8545 9.4082 92.2529 9.5957C92.6514 9.7832 92.9912 10.0498 93.2725 10.3955L93.3691 9.49023H95.5928V18.6924C95.5928 19.3369 95.4814 19.9111 95.2588 20.415C95.042 20.9189 94.7344 21.3438 94.3359 21.6895C93.9434 22.0352 93.4688 22.2959 92.9121 22.4717C92.3613 22.6533 91.752 22.7441 91.084 22.7441C90.7969 22.7441 90.4893 22.7148 90.1611 22.6562C89.833 22.5977 89.5078 22.5068 89.1855 22.3838C88.8633 22.2607 88.5586 22.1025 88.2715 21.9092C87.9844 21.7217 87.7383 21.4961 87.5332 21.2324L88.6318 19.7471C88.9424 20.0986 89.2939 20.3652 89.6865 20.5469C90.0791 20.7344 90.5039 20.8281 90.9609 20.8281C91.6465 20.8281 92.1797 20.6436 92.5605 20.2744C92.9473 19.9111 93.1406 19.3926 93.1406 18.7188V18.1738C92.8535 18.4902 92.5166 18.7363 92.1299 18.9121C91.749 19.0879 91.3066 19.1758 90.8027 19.1758C90.2109 19.1758 89.6777 19.0557 89.2031 18.8154C88.7344 18.5693 88.333 18.2324 87.999 17.8047C87.665 17.377 87.4072 16.8701 87.2256 16.2842C87.0498 15.6924 86.9619 15.0508 86.9619 14.3594V14.1748ZM89.4141 14.3594C89.4141 14.7578 89.4521 15.1299 89.5283 15.4756C89.6104 15.8154 89.7334 16.1143 89.8975 16.3721C90.0615 16.624 90.2695 16.8232 90.5215 16.9697C90.7734 17.1162 91.0723 17.1895 91.418 17.1895C91.8457 17.1895 92.1973 17.1074 92.4727 16.9434C92.7539 16.7793 92.9766 16.5508 93.1406 16.2578V12.2324C92.9766 11.9336 92.7539 11.7051 92.4727 11.5469C92.1973 11.3828 91.8516 11.3008 91.4355 11.3008C91.0898 11.3008 90.791 11.377 90.5391 11.5293C90.2871 11.6758 90.0762 11.8809 89.9062 12.1445C89.7422 12.4023 89.6191 12.707 89.5371 13.0586C89.4551 13.4043 89.4141 13.7764 89.4141 14.1748V14.3594ZM117.627 14.9922C117.586 15.6367 117.445 16.2168 117.205 16.7324C116.971 17.248 116.654 17.6875 116.256 18.0508C115.857 18.4141 115.383 18.6953 114.832 18.8945C114.281 19.0879 113.672 19.1846 113.004 19.1846C112.248 19.1846 111.577 19.0469 110.991 18.7715C110.405 18.4902 109.913 18.1006 109.515 17.6025C109.116 17.0986 108.812 16.4951 108.601 15.792C108.39 15.0889 108.284 14.3154 108.284 13.4717V11.749C108.284 10.8994 108.396 10.123 108.618 9.41992C108.841 8.7168 109.157 8.11328 109.567 7.60938C109.978 7.10547 110.473 6.71582 111.053 6.44043C111.639 6.15918 112.295 6.01855 113.021 6.01855C113.725 6.01855 114.349 6.11816 114.894 6.31738C115.444 6.5166 115.913 6.80078 116.3 7.16992C116.687 7.53906 116.991 7.99023 117.214 8.52344C117.437 9.05664 117.577 9.65723 117.636 10.3252H115.175C115.151 9.94434 115.093 9.61035 114.999 9.32324C114.911 9.03613 114.779 8.79883 114.604 8.61133C114.434 8.41797 114.217 8.27441 113.953 8.18066C113.695 8.08105 113.385 8.03125 113.021 8.03125C112.641 8.03125 112.31 8.11328 112.028 8.27734C111.747 8.44141 111.513 8.68164 111.325 8.99805C111.144 9.31445 111.009 9.7041 110.921 10.167C110.833 10.624 110.789 11.1455 110.789 11.7314V13.4717C110.789 14.7314 110.965 15.6631 111.316 16.2666C111.674 16.8701 112.236 17.1719 113.004 17.1719C113.648 17.1719 114.158 17.002 114.533 16.6621C114.908 16.3164 115.116 15.7598 115.157 14.9922H117.627ZM128.481 13.542C128.481 14.3623 128.373 15.1182 128.156 15.8096C127.939 16.501 127.626 17.0957 127.216 17.5938C126.806 18.0918 126.305 18.4814 125.713 18.7627C125.127 19.0381 124.465 19.1758 123.727 19.1758C122.988 19.1758 122.332 19.0381 121.758 18.7627C121.184 18.4814 120.7 18.0918 120.308 17.5938C119.915 17.0898 119.616 16.4951 119.411 15.8096C119.206 15.1182 119.104 14.3623 119.104 13.542V11.6787C119.104 10.8584 119.206 10.1025 119.411 9.41113C119.616 8.71973 119.915 8.125 120.308 7.62695C120.7 7.12305 121.181 6.73047 121.749 6.44922C122.323 6.16797 122.979 6.02734 123.718 6.02734C124.462 6.02734 125.127 6.16797 125.713 6.44922C126.305 6.73047 126.806 7.12305 127.216 7.62695C127.626 8.125 127.939 8.71973 128.156 9.41113C128.373 10.1025 128.481 10.8584 128.481 11.6787V13.542ZM125.977 11.6611C125.977 11.1396 125.933 10.6592 125.845 10.2197C125.763 9.78027 125.631 9.40234 125.449 9.08594C125.268 8.76953 125.033 8.52344 124.746 8.34766C124.465 8.16602 124.122 8.0752 123.718 8.0752C123.319 8.0752 122.985 8.16602 122.716 8.34766C122.446 8.52344 122.229 8.76953 122.065 9.08594C121.901 9.40234 121.784 9.78027 121.714 10.2197C121.644 10.6592 121.608 11.1396 121.608 11.6611V13.542C121.608 14.0576 121.644 14.5352 121.714 14.9746C121.784 15.4141 121.901 15.7949 122.065 16.1172C122.229 16.4395 122.446 16.6914 122.716 16.873C122.985 17.0547 123.322 17.1455 123.727 17.1455C124.125 17.1455 124.465 17.0547 124.746 16.873C125.033 16.6914 125.265 16.4424 125.44 16.126C125.622 15.8037 125.757 15.4229 125.845 14.9834C125.933 14.5439 125.977 14.0635 125.977 13.542V11.6611ZM135.385 21.34H129.697V19.864L131.659 17.938C132.199 17.41 132.565 17.008 132.757 16.732C132.961 16.444 133.063 16.144 133.063 15.832C133.063 15.616 132.991 15.448 132.847 15.328C132.715 15.208 132.529 15.148 132.289 15.148C131.821 15.148 131.293 15.406 130.705 15.922L129.625 14.59C130.009 14.254 130.435 13.984 130.903 13.78C131.383 13.564 131.941 13.456 132.577 13.456C133.357 13.456 133.981 13.648 134.449 14.032C134.929 14.404 135.169 14.944 135.169 15.652C135.169 16.192 135.019 16.684 134.719 17.128C134.419 17.572 133.915 18.112 133.207 18.748L132.289 19.576H135.385V21.34ZM141.885 19.1758C141.152 19.1758 140.487 19.0557 139.89 18.8154C139.292 18.5752 138.779 18.25 138.352 17.8398C137.924 17.4238 137.593 16.9375 137.358 16.3809C137.13 15.8184 137.016 15.2178 137.016 14.5791V14.2275C137.016 13.501 137.13 12.8389 137.358 12.2412C137.587 11.6377 137.906 11.1191 138.316 10.6855C138.727 10.252 139.213 9.91504 139.775 9.6748C140.338 9.43457 140.95 9.31445 141.612 9.31445C142.298 9.31445 142.907 9.42871 143.44 9.65723C143.979 9.87988 144.434 10.1963 144.803 10.6064C145.178 11.0166 145.462 11.5117 145.655 12.0918C145.849 12.666 145.945 13.3018 145.945 13.999V15.0361H139.494C139.541 15.3584 139.635 15.6543 139.775 15.9238C139.922 16.1875 140.106 16.416 140.329 16.6094C140.552 16.8027 140.807 16.9521 141.094 17.0576C141.381 17.1631 141.694 17.2158 142.034 17.2158C142.274 17.2158 142.512 17.1924 142.746 17.1455C142.986 17.0986 143.215 17.0312 143.432 16.9434C143.648 16.8496 143.851 16.7354 144.038 16.6006C144.226 16.4658 144.39 16.3076 144.53 16.126L145.752 17.4443C145.6 17.6611 145.4 17.875 145.154 18.0859C144.914 18.291 144.627 18.4756 144.293 18.6396C143.965 18.7979 143.599 18.9268 143.194 19.0264C142.79 19.126 142.354 19.1758 141.885 19.1758ZM141.595 11.292C141.319 11.292 141.067 11.3418 140.839 11.4414C140.61 11.5352 140.408 11.6729 140.232 11.8545C140.062 12.0361 139.919 12.2529 139.802 12.5049C139.685 12.7568 139.597 13.0381 139.538 13.3486H143.546V13.1553C143.534 12.8975 143.484 12.6543 143.396 12.4258C143.309 12.1973 143.183 12.001 143.019 11.8369C142.854 11.667 142.652 11.5352 142.412 11.4414C142.178 11.3418 141.905 11.292 141.595 11.292ZM147.835 14.166C147.835 13.4453 147.917 12.7861 148.081 12.1885C148.245 11.5908 148.485 11.0811 148.802 10.6592C149.124 10.2314 149.517 9.90039 149.979 9.66602C150.448 9.43164 150.984 9.31445 151.588 9.31445C152.127 9.31445 152.596 9.41406 152.994 9.61328C153.398 9.8125 153.747 10.0938 154.04 10.457L154.189 9.49023H156.343V22.6562H153.891V18.1914C153.604 18.5078 153.27 18.751 152.889 18.9209C152.508 19.0908 152.068 19.1758 151.57 19.1758C150.973 19.1758 150.442 19.0557 149.979 18.8154C149.517 18.5693 149.127 18.2324 148.811 17.8047C148.494 17.3711 148.251 16.8613 148.081 16.2754C147.917 15.6836 147.835 15.042 147.835 14.3506V14.166ZM150.278 14.3506C150.278 14.7432 150.313 15.1123 150.384 15.458C150.454 15.8037 150.565 16.1084 150.718 16.3721C150.87 16.6299 151.066 16.835 151.307 16.9873C151.553 17.1396 151.849 17.2158 152.194 17.2158C152.622 17.2158 152.971 17.1309 153.24 16.9609C153.516 16.791 153.732 16.5566 153.891 16.2578V12.2148C153.732 11.9219 153.516 11.6963 153.24 11.5381C152.971 11.374 152.628 11.292 152.212 11.292C151.866 11.292 151.57 11.3682 151.324 11.5205C151.084 11.667 150.885 11.8691 150.727 12.127C150.574 12.3848 150.46 12.6895 150.384 13.041C150.313 13.3867 150.278 13.7617 150.278 14.166V14.3506Z" fill="#00C7A5"/>
</svg>
