<svg width="222" height="198" viewBox="0 0 222 198" fill="none" xmlns="http://www.w3.org/2000/svg">
<rect y="94" width="222" height="104" fill="white" fill-opacity="0.3"/>
<circle cx="111.485" cy="146.485" r="7.485" fill="#00C7A5"/>
<path d="M21.4297 19H18.96V9.18262L15.7256 10.3428V8.21582L21.2979 6.20312H21.4297V19ZM29.832 15.0713L28.7246 16.0996V19H26.2812V5.5H28.7246V13.2168L29.4629 12.373L32.0908 9.49023H35.0264L31.4404 13.4541L35.5273 19H32.5303L29.832 15.0713ZM36.8193 14.1748C36.8193 13.4541 36.9072 12.7949 37.083 12.1973C37.2646 11.5996 37.5225 11.0869 37.8564 10.6592C38.1904 10.2314 38.5947 9.90039 39.0693 9.66602C39.5439 9.43164 40.0801 9.31445 40.6777 9.31445C41.2344 9.31445 41.7119 9.4082 42.1104 9.5957C42.5088 9.7832 42.8486 10.0498 43.1299 10.3955L43.2266 9.49023H45.4502V18.6924C45.4502 19.3369 45.3389 19.9111 45.1162 20.415C44.8994 20.9189 44.5918 21.3438 44.1934 21.6895C43.8008 22.0352 43.3262 22.2959 42.7695 22.4717C42.2188 22.6533 41.6094 22.7441 40.9414 22.7441C40.6543 22.7441 40.3467 22.7148 40.0186 22.6562C39.6904 22.5977 39.3652 22.5068 39.043 22.3838C38.7207 22.2607 38.416 22.1025 38.1289 21.9092C37.8418 21.7217 37.5957 21.4961 37.3906 21.2324L38.4893 19.7471C38.7998 20.0986 39.1514 20.3652 39.5439 20.5469C39.9365 20.7344 40.3613 20.8281 40.8184 20.8281C41.5039 20.8281 42.0371 20.6436 42.418 20.2744C42.8047 19.9111 42.998 19.3926 42.998 18.7188V18.1738C42.7109 18.4902 42.374 18.7363 41.9873 18.9121C41.6064 19.0879 41.1641 19.1758 40.6602 19.1758C40.0684 19.1758 39.5352 19.0557 39.0605 18.8154C38.5918 18.5693 38.1904 18.2324 37.8564 17.8047C37.5225 17.377 37.2646 16.8701 37.083 16.2842C36.9072 15.6924 36.8193 15.0508 36.8193 14.3594V14.1748ZM39.2715 14.3594C39.2715 14.7578 39.3096 15.1299 39.3857 15.4756C39.4678 15.8154 39.5908 16.1143 39.7549 16.3721C39.9189 16.624 40.127 16.8232 40.3789 16.9697C40.6309 17.1162 40.9297 17.1895 41.2754 17.1895C41.7031 17.1895 42.0547 17.1074 42.3301 16.9434C42.6113 16.7793 42.834 16.5508 42.998 16.2578V12.2324C42.834 11.9336 42.6113 11.7051 42.3301 11.5469C42.0547 11.3828 41.709 11.3008 41.293 11.3008C40.9473 11.3008 40.6484 11.377 40.3965 11.5293C40.1445 11.6758 39.9336 11.8809 39.7637 12.1445C39.5996 12.4023 39.4766 12.707 39.3945 13.0586C39.3125 13.4043 39.2715 13.7764 39.2715 14.1748V14.3594ZM67.4844 14.9922C67.4434 15.6367 67.3027 16.2168 67.0625 16.7324C66.8281 17.248 66.5117 17.6875 66.1133 18.0508C65.7148 18.4141 65.2402 18.6953 64.6895 18.8945C64.1387 19.0879 63.5293 19.1846 62.8613 19.1846C62.1055 19.1846 61.4346 19.0469 60.8486 18.7715C60.2627 18.4902 59.7705 18.1006 59.3721 17.6025C58.9736 17.0986 58.6689 16.4951 58.458 15.792C58.2471 15.0889 58.1416 14.3154 58.1416 13.4717V11.749C58.1416 10.8994 58.2529 10.123 58.4756 9.41992C58.6982 8.7168 59.0146 8.11328 59.4248 7.60938C59.835 7.10547 60.3301 6.71582 60.9102 6.44043C61.4961 6.15918 62.1523 6.01855 62.8789 6.01855C63.582 6.01855 64.2061 6.11816 64.751 6.31738C65.3018 6.5166 65.7705 6.80078 66.1572 7.16992C66.5439 7.53906 66.8486 7.99023 67.0713 8.52344C67.2939 9.05664 67.4346 9.65723 67.4932 10.3252H65.0322C65.0088 9.94434 64.9502 9.61035 64.8564 9.32324C64.7686 9.03613 64.6367 8.79883 64.4609 8.61133C64.291 8.41797 64.0742 8.27441 63.8105 8.18066C63.5527 8.08105 63.2422 8.03125 62.8789 8.03125C62.498 8.03125 62.167 8.11328 61.8857 8.27734C61.6045 8.44141 61.3701 8.68164 61.1826 8.99805C61.001 9.31445 60.8662 9.7041 60.7783 10.167C60.6904 10.624 60.6465 11.1455 60.6465 11.7314V13.4717C60.6465 14.7314 60.8223 15.6631 61.1738 16.2666C61.5312 16.8701 62.0938 17.1719 62.8613 17.1719C63.5059 17.1719 64.0156 17.002 64.3906 16.6621C64.7656 16.3164 64.9736 15.7598 65.0146 14.9922H67.4844ZM75.4385 19C75.3799 18.8828 75.3301 18.748 75.2891 18.5957C75.248 18.4434 75.2129 18.2822 75.1836 18.1123C75.0488 18.2588 74.8936 18.3965 74.7178 18.5254C74.542 18.6543 74.3457 18.7686 74.1289 18.8682C73.918 18.9619 73.6836 19.0352 73.4258 19.0879C73.168 19.1465 72.8896 19.1758 72.5908 19.1758C72.1045 19.1758 71.6562 19.1055 71.2461 18.9648C70.8418 18.8242 70.4932 18.6279 70.2002 18.376C69.9072 18.124 69.6787 17.8252 69.5146 17.4795C69.3506 17.1279 69.2686 16.7471 69.2686 16.3369C69.2686 15.335 69.6406 14.5615 70.3848 14.0166C71.1348 13.4658 72.251 13.1904 73.7334 13.1904H75.0957V12.6279C75.0957 12.1709 74.9463 11.8105 74.6475 11.5469C74.3486 11.2773 73.918 11.1426 73.3555 11.1426C72.8574 11.1426 72.4941 11.251 72.2656 11.4678C72.0371 11.6787 71.9229 11.9629 71.9229 12.3203H69.4795C69.4795 11.916 69.5674 11.5322 69.7432 11.1689C69.9248 10.8057 70.1855 10.4863 70.5254 10.2109C70.8711 9.93555 71.29 9.71875 71.7822 9.56055C72.2803 9.39648 72.8486 9.31445 73.4873 9.31445C74.0615 9.31445 74.5947 9.38477 75.0869 9.52539C75.585 9.66602 76.0156 9.87402 76.3789 10.1494C76.7422 10.4248 77.0264 10.7734 77.2314 11.1953C77.4365 11.6113 77.5391 12.0947 77.5391 12.6455V16.7236C77.5391 17.2334 77.5713 17.6553 77.6357 17.9893C77.7002 18.3232 77.7939 18.6104 77.917 18.8506V19H75.4385ZM73.1094 17.2861C73.3555 17.2861 73.584 17.2568 73.7949 17.1982C74.0059 17.1396 74.1963 17.0635 74.3662 16.9697C74.5361 16.876 74.6826 16.7705 74.8057 16.6533C74.9287 16.5303 75.0254 16.4072 75.0957 16.2842V14.6494H73.8477C73.4668 14.6494 73.1416 14.6875 72.8721 14.7637C72.6025 14.834 72.3828 14.9365 72.2129 15.0713C72.043 15.2002 71.917 15.3584 71.835 15.5459C71.7529 15.7275 71.7119 15.9268 71.7119 16.1436C71.7119 16.4717 71.8262 16.7441 72.0547 16.9609C72.2891 17.1777 72.6406 17.2861 73.1094 17.2861ZM87.1367 9.31445C87.5059 9.31445 87.8457 9.34082 88.1562 9.39355C88.4727 9.44043 88.7275 9.49316 88.9209 9.55176L88.5605 11.9863C88.2383 11.9102 87.9072 11.8545 87.5674 11.8193C87.2334 11.7783 86.9141 11.7578 86.6094 11.7578C85.9238 11.7578 85.373 11.8896 84.957 12.1533C84.5469 12.417 84.2393 12.7949 84.0342 13.2871V19H81.5908V9.49023H83.8672L83.9814 11.0459C84.3682 10.5068 84.8311 10.085 85.3701 9.78027C85.9092 9.46973 86.498 9.31445 87.1367 9.31445ZM99.6875 14.3418C99.6875 15.0508 99.6084 15.7012 99.4502 16.293C99.2979 16.8848 99.0664 17.3945 98.7559 17.8223C98.4453 18.25 98.0586 18.584 97.5957 18.8242C97.1328 19.0586 96.5938 19.1758 95.9785 19.1758C95.4219 19.1758 94.9385 19.0732 94.5283 18.8682C94.124 18.6572 93.7754 18.3643 93.4824 17.9893L93.3682 19H91.1709V5.5H93.6143V10.3516C93.8955 10.0234 94.2266 9.76855 94.6074 9.58691C94.9941 9.40527 95.4453 9.31445 95.9609 9.31445C96.582 9.31445 97.124 9.43457 97.5869 9.6748C98.0557 9.91504 98.4453 10.249 98.7559 10.6768C99.0664 11.1045 99.2979 11.6172 99.4502 12.2148C99.6084 12.8066 99.6875 13.4541 99.6875 14.1572V14.3418ZM97.2441 14.1572C97.2441 13.7705 97.2148 13.4043 97.1562 13.0586C97.0977 12.7129 96.9951 12.4111 96.8486 12.1533C96.708 11.8896 96.5146 11.6816 96.2686 11.5293C96.0225 11.377 95.7148 11.3008 95.3457 11.3008C94.9004 11.3008 94.5371 11.3945 94.2559 11.582C93.9805 11.7695 93.7666 12.0273 93.6143 12.3555V16.1436C93.7666 16.4717 93.9805 16.7295 94.2559 16.917C94.5371 17.1045 94.9062 17.1982 95.3633 17.1982C95.7324 17.1982 96.0371 17.1279 96.2773 16.9873C96.5176 16.8408 96.708 16.6416 96.8486 16.3896C96.9951 16.1318 97.0977 15.8301 97.1562 15.4844C97.2148 15.1328 97.2441 14.752 97.2441 14.3418V14.1572ZM101.595 14.1572C101.595 13.4658 101.694 12.8271 101.894 12.2412C102.093 11.6494 102.383 11.1367 102.764 10.7031C103.15 10.2695 103.619 9.92969 104.17 9.68359C104.727 9.4375 105.362 9.31445 106.077 9.31445C106.792 9.31445 107.428 9.4375 107.984 9.68359C108.541 9.92969 109.01 10.2695 109.391 10.7031C109.777 11.1367 110.07 11.6494 110.27 12.2412C110.469 12.8271 110.568 13.4658 110.568 14.1572V14.3418C110.568 15.0391 110.469 15.6836 110.27 16.2754C110.07 16.8613 109.78 17.3711 109.399 17.8047C109.019 18.2383 108.55 18.5781 107.993 18.8242C107.437 19.0645 106.804 19.1846 106.095 19.1846C105.38 19.1846 104.741 19.0645 104.179 18.8242C103.622 18.5781 103.15 18.2383 102.764 17.8047C102.383 17.3711 102.093 16.8613 101.894 16.2754C101.694 15.6836 101.595 15.0391 101.595 14.3418V14.1572ZM104.038 14.3418C104.038 14.7402 104.076 15.1152 104.152 15.4668C104.229 15.8125 104.349 16.1172 104.513 16.3809C104.677 16.6387 104.888 16.8438 105.146 16.9961C105.409 17.1484 105.726 17.2246 106.095 17.2246C106.452 17.2246 106.76 17.1484 107.018 16.9961C107.275 16.8438 107.483 16.6387 107.642 16.3809C107.806 16.1172 107.926 15.8125 108.002 15.4668C108.078 15.1152 108.116 14.7402 108.116 14.3418V14.1572C108.116 13.7705 108.078 13.4043 108.002 13.0586C107.926 12.7129 107.806 12.4082 107.642 12.1445C107.483 11.8809 107.275 11.6729 107.018 11.5205C106.76 11.3682 106.446 11.292 106.077 11.292C105.714 11.292 105.403 11.3682 105.146 11.5205C104.888 11.6729 104.677 11.8809 104.513 12.1445C104.349 12.4082 104.229 12.7129 104.152 13.0586C104.076 13.4043 104.038 13.7705 104.038 14.1572V14.3418ZM114.954 9.49023L115.104 10.8086C115.443 10.334 115.856 9.96777 116.343 9.70996C116.829 9.44629 117.368 9.31445 117.96 9.31445C118.44 9.31445 118.88 9.38477 119.278 9.52539C119.677 9.66602 120.02 9.8916 120.307 10.2021C120.6 10.5068 120.825 10.9023 120.983 11.3887C121.147 11.8691 121.229 12.4551 121.229 13.1465V19H118.786V13.1816C118.786 12.8066 118.742 12.499 118.654 12.2588C118.572 12.0127 118.452 11.8193 118.294 11.6787C118.136 11.5381 117.945 11.4414 117.723 11.3887C117.5 11.3301 117.248 11.3008 116.967 11.3008C116.551 11.3008 116.196 11.3857 115.903 11.5557C115.61 11.7197 115.373 11.9482 115.191 12.2412V19H112.739V9.49023H114.954ZM134.22 19V6.20312H137.533C138.383 6.20312 139.15 6.34961 139.836 6.64258C140.527 6.92969 141.116 7.33398 141.603 7.85547C142.095 8.37109 142.473 8.98926 142.736 9.70996C143.006 10.4307 143.141 11.2217 143.141 12.083V13.1377C143.141 13.999 143.006 14.79 142.736 15.5107C142.473 16.2256 142.101 16.8438 141.62 17.3652C141.14 17.8809 140.562 18.2822 139.889 18.5693C139.215 18.8564 138.471 19 137.656 19H134.22ZM136.707 8.20703V17.0137H137.656C138.119 17.0137 138.532 16.9258 138.896 16.75C139.265 16.5742 139.575 16.3193 139.827 15.9854C140.085 15.6514 140.281 15.2471 140.416 14.7725C140.551 14.292 140.618 13.7471 140.618 13.1377V12.0654C140.618 11.4912 140.551 10.9697 140.416 10.501C140.287 10.0264 140.091 9.61914 139.827 9.2793C139.569 8.93945 139.247 8.67578 138.86 8.48828C138.479 8.30078 138.037 8.20703 137.533 8.20703H136.707ZM145.821 9.49023H150.998V17.0137H153.573V19H145.821V17.0137H148.528V11.4854H145.821V9.49023ZM148.353 7.05566C148.353 6.86816 148.385 6.69531 148.449 6.53711C148.52 6.37305 148.616 6.23535 148.739 6.12402C148.862 6.00684 149.009 5.91602 149.179 5.85156C149.354 5.78711 149.548 5.75488 149.759 5.75488C150.192 5.75488 150.535 5.87793 150.787 6.12402C151.045 6.36426 151.174 6.6748 151.174 7.05566C151.174 7.43652 151.045 7.75 150.787 7.99609C150.535 8.23633 150.192 8.35645 149.759 8.35645C149.548 8.35645 149.354 8.32422 149.179 8.25977C149.009 8.19531 148.862 8.10742 148.739 7.99609C148.616 7.87891 148.52 7.74121 148.449 7.58301C148.385 7.41895 148.353 7.24316 148.353 7.05566ZM155.647 14.1572C155.647 13.4658 155.747 12.8271 155.946 12.2412C156.146 11.6494 156.436 11.1367 156.816 10.7031C157.203 10.2695 157.672 9.92969 158.223 9.68359C158.779 9.4375 159.415 9.31445 160.13 9.31445C160.845 9.31445 161.48 9.4375 162.037 9.68359C162.594 9.92969 163.062 10.2695 163.443 10.7031C163.83 11.1367 164.123 11.6494 164.322 12.2412C164.521 12.8271 164.621 13.4658 164.621 14.1572V14.3418C164.621 15.0391 164.521 15.6836 164.322 16.2754C164.123 16.8613 163.833 17.3711 163.452 17.8047C163.071 18.2383 162.603 18.5781 162.046 18.8242C161.489 19.0645 160.856 19.1846 160.147 19.1846C159.433 19.1846 158.794 19.0645 158.231 18.8242C157.675 18.5781 157.203 18.2383 156.816 17.8047C156.436 17.3711 156.146 16.8613 155.946 16.2754C155.747 15.6836 155.647 15.0391 155.647 14.3418V14.1572ZM158.091 14.3418C158.091 14.7402 158.129 15.1152 158.205 15.4668C158.281 15.8125 158.401 16.1172 158.565 16.3809C158.729 16.6387 158.94 16.8438 159.198 16.9961C159.462 17.1484 159.778 17.2246 160.147 17.2246C160.505 17.2246 160.812 17.1484 161.07 16.9961C161.328 16.8438 161.536 16.6387 161.694 16.3809C161.858 16.1172 161.979 15.8125 162.055 15.4668C162.131 15.1152 162.169 14.7402 162.169 14.3418V14.1572C162.169 13.7705 162.131 13.4043 162.055 13.0586C161.979 12.7129 161.858 12.4082 161.694 12.1445C161.536 11.8809 161.328 11.6729 161.07 11.5205C160.812 11.3682 160.499 11.292 160.13 11.292C159.767 11.292 159.456 11.3682 159.198 11.5205C158.94 11.6729 158.729 11.8809 158.565 12.1445C158.401 12.4082 158.281 12.7129 158.205 13.0586C158.129 13.4043 158.091 13.7705 158.091 14.1572V14.3418ZM171.143 12.4609L173.234 9.49023H175.862L172.672 14.1572L175.977 19H173.34L171.151 15.8887L168.98 19H166.335L169.64 14.1572L166.458 9.49023H169.086L171.143 12.4609ZM178.253 9.49023H183.43V17.0137H186.005V19H178.253V17.0137H180.96V11.4854H178.253V9.49023ZM180.784 7.05566C180.784 6.86816 180.816 6.69531 180.881 6.53711C180.951 6.37305 181.048 6.23535 181.171 6.12402C181.294 6.00684 181.44 5.91602 181.61 5.85156C181.786 5.78711 181.979 5.75488 182.19 5.75488C182.624 5.75488 182.967 5.87793 183.219 6.12402C183.477 6.36426 183.605 6.6748 183.605 7.05566C183.605 7.43652 183.477 7.75 183.219 7.99609C182.967 8.23633 182.624 8.35645 182.19 8.35645C181.979 8.35645 181.786 8.32422 181.61 8.25977C181.44 8.19531 181.294 8.10742 181.171 7.99609C181.048 7.87891 180.951 7.74121 180.881 7.58301C180.816 7.41895 180.784 7.24316 180.784 7.05566ZM188.158 14.1748C188.158 13.4541 188.24 12.7949 188.404 12.1973C188.574 11.5996 188.82 11.0869 189.143 10.6592C189.465 10.2314 189.854 9.90039 190.312 9.66602C190.774 9.43164 191.302 9.31445 191.894 9.31445C192.392 9.31445 192.828 9.40527 193.203 9.58691C193.584 9.7627 193.921 10.0146 194.214 10.3428V5.5H196.666V19H194.46L194.337 18.0068C194.038 18.376 193.687 18.6631 193.282 18.8682C192.878 19.0732 192.409 19.1758 191.876 19.1758C191.296 19.1758 190.774 19.0557 190.312 18.8154C189.854 18.5693 189.465 18.2324 189.143 17.8047C188.826 17.377 188.583 16.8701 188.413 16.2842C188.243 15.6924 188.158 15.0508 188.158 14.3594V14.1748ZM190.602 14.3594C190.602 14.7578 190.634 15.1299 190.698 15.4756C190.769 15.8154 190.88 16.1143 191.032 16.3721C191.185 16.624 191.381 16.8232 191.621 16.9697C191.861 17.1162 192.154 17.1895 192.5 17.1895C192.922 17.1895 193.271 17.0986 193.546 16.917C193.827 16.7354 194.05 16.4863 194.214 16.1699V12.3203C194.05 11.998 193.83 11.749 193.555 11.5732C193.279 11.3916 192.934 11.3008 192.518 11.3008C192.172 11.3008 191.876 11.377 191.63 11.5293C191.39 11.6758 191.193 11.8809 191.041 12.1445C190.889 12.4023 190.777 12.707 190.707 13.0586C190.637 13.4043 190.602 13.7764 190.602 14.1748V14.3594ZM203.838 19.1758C203.105 19.1758 202.44 19.0557 201.843 18.8154C201.245 18.5752 200.732 18.25 200.305 17.8398C199.877 17.4238 199.546 16.9375 199.312 16.3809C199.083 15.8184 198.969 15.2178 198.969 14.5791V14.2275C198.969 13.501 199.083 12.8389 199.312 12.2412C199.54 11.6377 199.859 11.1191 200.27 10.6855C200.68 10.252 201.166 9.91504 201.729 9.6748C202.291 9.43457 202.903 9.31445 203.565 9.31445C204.251 9.31445 204.86 9.42871 205.394 9.65723C205.933 9.87988 206.387 10.1963 206.756 10.6064C207.131 11.0166 207.415 11.5117 207.608 12.0918C207.802 12.666 207.898 13.3018 207.898 13.999V15.0361H201.447C201.494 15.3584 201.588 15.6543 201.729 15.9238C201.875 16.1875 202.06 16.416 202.282 16.6094C202.505 16.8027 202.76 16.9521 203.047 17.0576C203.334 17.1631 203.647 17.2158 203.987 17.2158C204.228 17.2158 204.465 17.1924 204.699 17.1455C204.939 17.0986 205.168 17.0312 205.385 16.9434C205.602 16.8496 205.804 16.7354 205.991 16.6006C206.179 16.4658 206.343 16.3076 206.483 16.126L207.705 17.4443C207.553 17.6611 207.354 17.875 207.107 18.0859C206.867 18.291 206.58 18.4756 206.246 18.6396C205.918 18.7979 205.552 18.9268 205.147 19.0264C204.743 19.126 204.307 19.1758 203.838 19.1758ZM203.548 11.292C203.272 11.292 203.021 11.3418 202.792 11.4414C202.563 11.5352 202.361 11.6729 202.186 11.8545C202.016 12.0361 201.872 12.2529 201.755 12.5049C201.638 12.7568 201.55 13.0381 201.491 13.3486H205.499V13.1553C205.487 12.8975 205.438 12.6543 205.35 12.4258C205.262 12.1973 205.136 12.001 204.972 11.8369C204.808 11.667 204.605 11.5352 204.365 11.4414C204.131 11.3418 203.858 11.292 203.548 11.292ZM106.851 39.3242H116.141V41.4072H106.851V39.3242ZM106.851 35.3252H116.141V37.3906H106.851V35.3252ZM108.731 34.4639L110.788 29.1641H112.212L114.26 34.4639H112.555L111.509 31.8447L110.489 34.4639H108.731ZM72.0723 68H69.6025V58.1826L66.3682 59.3428V57.2158L71.9404 55.2031H72.0723V68ZM80.4746 64.0713L79.3672 65.0996V68H76.9238V54.5H79.3672V62.2168L80.1055 61.373L82.7334 58.4902H85.6689L82.083 62.4541L86.1699 68H83.1729L80.4746 64.0713ZM87.4619 63.1748C87.4619 62.4541 87.5498 61.7949 87.7256 61.1973C87.9072 60.5996 88.165 60.0869 88.499 59.6592C88.833 59.2314 89.2373 58.9004 89.7119 58.666C90.1865 58.4316 90.7227 58.3145 91.3203 58.3145C91.877 58.3145 92.3545 58.4082 92.7529 58.5957C93.1514 58.7832 93.4912 59.0498 93.7725 59.3955L93.8691 58.4902H96.0928V67.6924C96.0928 68.3369 95.9814 68.9111 95.7588 69.415C95.542 69.9189 95.2344 70.3438 94.8359 70.6895C94.4434 71.0352 93.9688 71.2959 93.4121 71.4717C92.8613 71.6533 92.252 71.7441 91.584 71.7441C91.2969 71.7441 90.9893 71.7148 90.6611 71.6562C90.333 71.5977 90.0078 71.5068 89.6855 71.3838C89.3633 71.2607 89.0586 71.1025 88.7715 70.9092C88.4844 70.7217 88.2383 70.4961 88.0332 70.2324L89.1318 68.7471C89.4424 69.0986 89.7939 69.3652 90.1865 69.5469C90.5791 69.7344 91.0039 69.8281 91.4609 69.8281C92.1465 69.8281 92.6797 69.6436 93.0605 69.2744C93.4473 68.9111 93.6406 68.3926 93.6406 67.7188V67.1738C93.3535 67.4902 93.0166 67.7363 92.6299 67.9121C92.249 68.0879 91.8066 68.1758 91.3027 68.1758C90.7109 68.1758 90.1777 68.0557 89.7031 67.8154C89.2344 67.5693 88.833 67.2324 88.499 66.8047C88.165 66.377 87.9072 65.8701 87.7256 65.2842C87.5498 64.6924 87.4619 64.0508 87.4619 63.3594V63.1748ZM89.9141 63.3594C89.9141 63.7578 89.9521 64.1299 90.0283 64.4756C90.1104 64.8154 90.2334 65.1143 90.3975 65.3721C90.5615 65.624 90.7695 65.8232 91.0215 65.9697C91.2734 66.1162 91.5723 66.1895 91.918 66.1895C92.3457 66.1895 92.6973 66.1074 92.9727 65.9434C93.2539 65.7793 93.4766 65.5508 93.6406 65.2578V61.2324C93.4766 60.9336 93.2539 60.7051 92.9727 60.5469C92.6973 60.3828 92.3516 60.3008 91.9355 60.3008C91.5898 60.3008 91.291 60.377 91.0391 60.5293C90.7871 60.6758 90.5762 60.8809 90.4062 61.1445C90.2422 61.4023 90.1191 61.707 90.0371 62.0586C89.9551 62.4043 89.9141 62.7764 89.9141 63.1748V63.3594ZM118.127 63.9922C118.086 64.6367 117.945 65.2168 117.705 65.7324C117.471 66.248 117.154 66.6875 116.756 67.0508C116.357 67.4141 115.883 67.6953 115.332 67.8945C114.781 68.0879 114.172 68.1846 113.504 68.1846C112.748 68.1846 112.077 68.0469 111.491 67.7715C110.905 67.4902 110.413 67.1006 110.015 66.6025C109.616 66.0986 109.312 65.4951 109.101 64.792C108.89 64.0889 108.784 63.3154 108.784 62.4717V60.749C108.784 59.8994 108.896 59.123 109.118 58.4199C109.341 57.7168 109.657 57.1133 110.067 56.6094C110.478 56.1055 110.973 55.7158 111.553 55.4404C112.139 55.1592 112.795 55.0186 113.521 55.0186C114.225 55.0186 114.849 55.1182 115.394 55.3174C115.944 55.5166 116.413 55.8008 116.8 56.1699C117.187 56.5391 117.491 56.9902 117.714 57.5234C117.937 58.0566 118.077 58.6572 118.136 59.3252H115.675C115.651 58.9443 115.593 58.6104 115.499 58.3232C115.411 58.0361 115.279 57.7988 115.104 57.6113C114.934 57.418 114.717 57.2744 114.453 57.1807C114.195 57.0811 113.885 57.0312 113.521 57.0312C113.141 57.0312 112.81 57.1133 112.528 57.2773C112.247 57.4414 112.013 57.6816 111.825 57.998C111.644 58.3145 111.509 58.7041 111.421 59.167C111.333 59.624 111.289 60.1455 111.289 60.7314V62.4717C111.289 63.7314 111.465 64.6631 111.816 65.2666C112.174 65.8701 112.736 66.1719 113.504 66.1719C114.148 66.1719 114.658 66.002 115.033 65.6621C115.408 65.3164 115.616 64.7598 115.657 63.9922H118.127ZM128.981 62.542C128.981 63.3623 128.873 64.1182 128.656 64.8096C128.439 65.501 128.126 66.0957 127.716 66.5938C127.306 67.0918 126.805 67.4814 126.213 67.7627C125.627 68.0381 124.965 68.1758 124.227 68.1758C123.488 68.1758 122.832 68.0381 122.258 67.7627C121.684 67.4814 121.2 67.0918 120.808 66.5938C120.415 66.0898 120.116 65.4951 119.911 64.8096C119.706 64.1182 119.604 63.3623 119.604 62.542V60.6787C119.604 59.8584 119.706 59.1025 119.911 58.4111C120.116 57.7197 120.415 57.125 120.808 56.627C121.2 56.123 121.681 55.7305 122.249 55.4492C122.823 55.168 123.479 55.0273 124.218 55.0273C124.962 55.0273 125.627 55.168 126.213 55.4492C126.805 55.7305 127.306 56.123 127.716 56.627C128.126 57.125 128.439 57.7197 128.656 58.4111C128.873 59.1025 128.981 59.8584 128.981 60.6787V62.542ZM126.477 60.6611C126.477 60.1396 126.433 59.6592 126.345 59.2197C126.263 58.7803 126.131 58.4023 125.949 58.0859C125.768 57.7695 125.533 57.5234 125.246 57.3477C124.965 57.166 124.622 57.0752 124.218 57.0752C123.819 57.0752 123.485 57.166 123.216 57.3477C122.946 57.5234 122.729 57.7695 122.565 58.0859C122.401 58.4023 122.284 58.7803 122.214 59.2197C122.144 59.6592 122.108 60.1396 122.108 60.6611V62.542C122.108 63.0576 122.144 63.5352 122.214 63.9746C122.284 64.4141 122.401 64.7949 122.565 65.1172C122.729 65.4395 122.946 65.6914 123.216 65.873C123.485 66.0547 123.822 66.1455 124.227 66.1455C124.625 66.1455 124.965 66.0547 125.246 65.873C125.533 65.6914 125.765 65.4424 125.94 65.126C126.122 64.8037 126.257 64.4229 126.345 63.9834C126.433 63.5439 126.477 63.0635 126.477 62.542V60.6611ZM135.885 70.34H130.197V68.864L132.159 66.938C132.699 66.41 133.065 66.008 133.257 65.732C133.461 65.444 133.563 65.144 133.563 64.832C133.563 64.616 133.491 64.448 133.347 64.328C133.215 64.208 133.029 64.148 132.789 64.148C132.321 64.148 131.793 64.406 131.205 64.922L130.125 63.59C130.509 63.254 130.935 62.984 131.403 62.78C131.883 62.564 132.441 62.456 133.077 62.456C133.857 62.456 134.481 62.648 134.949 63.032C135.429 63.404 135.669 63.944 135.669 64.652C135.669 65.192 135.519 65.684 135.219 66.128C134.919 66.572 134.415 67.112 133.707 67.748L132.789 68.576H135.885V70.34ZM142.385 68.1758C141.652 68.1758 140.987 68.0557 140.39 67.8154C139.792 67.5752 139.279 67.25 138.852 66.8398C138.424 66.4238 138.093 65.9375 137.858 65.3809C137.63 64.8184 137.516 64.2178 137.516 63.5791V63.2275C137.516 62.501 137.63 61.8389 137.858 61.2412C138.087 60.6377 138.406 60.1191 138.816 59.6855C139.227 59.252 139.713 58.915 140.275 58.6748C140.838 58.4346 141.45 58.3145 142.112 58.3145C142.798 58.3145 143.407 58.4287 143.94 58.6572C144.479 58.8799 144.934 59.1963 145.303 59.6064C145.678 60.0166 145.962 60.5117 146.155 61.0918C146.349 61.666 146.445 62.3018 146.445 62.999V64.0361H139.994C140.041 64.3584 140.135 64.6543 140.275 64.9238C140.422 65.1875 140.606 65.416 140.829 65.6094C141.052 65.8027 141.307 65.9521 141.594 66.0576C141.881 66.1631 142.194 66.2158 142.534 66.2158C142.774 66.2158 143.012 66.1924 143.246 66.1455C143.486 66.0986 143.715 66.0312 143.932 65.9434C144.148 65.8496 144.351 65.7354 144.538 65.6006C144.726 65.4658 144.89 65.3076 145.03 65.126L146.252 66.4443C146.1 66.6611 145.9 66.875 145.654 67.0859C145.414 67.291 145.127 67.4756 144.793 67.6396C144.465 67.7979 144.099 67.9268 143.694 68.0264C143.29 68.126 142.854 68.1758 142.385 68.1758ZM142.095 60.292C141.819 60.292 141.567 60.3418 141.339 60.4414C141.11 60.5352 140.908 60.6729 140.732 60.8545C140.562 61.0361 140.419 61.2529 140.302 61.5049C140.185 61.7568 140.097 62.0381 140.038 62.3486H144.046V62.1553C144.034 61.8975 143.984 61.6543 143.896 61.4258C143.809 61.1973 143.683 61.001 143.519 60.8369C143.354 60.667 143.152 60.5352 142.912 60.4414C142.678 60.3418 142.405 60.292 142.095 60.292ZM148.335 63.166C148.335 62.4453 148.417 61.7861 148.581 61.1885C148.745 60.5908 148.985 60.0811 149.302 59.6592C149.624 59.2314 150.017 58.9004 150.479 58.666C150.948 58.4316 151.484 58.3145 152.088 58.3145C152.627 58.3145 153.096 58.4141 153.494 58.6133C153.898 58.8125 154.247 59.0938 154.54 59.457L154.689 58.4902H156.843V71.6562H154.391V67.1914C154.104 67.5078 153.77 67.751 153.389 67.9209C153.008 68.0908 152.568 68.1758 152.07 68.1758C151.473 68.1758 150.942 68.0557 150.479 67.8154C150.017 67.5693 149.627 67.2324 149.311 66.8047C148.994 66.3711 148.751 65.8613 148.581 65.2754C148.417 64.6836 148.335 64.042 148.335 63.3506V63.166ZM150.778 63.3506C150.778 63.7432 150.813 64.1123 150.884 64.458C150.954 64.8037 151.065 65.1084 151.218 65.3721C151.37 65.6299 151.566 65.835 151.807 65.9873C152.053 66.1396 152.349 66.2158 152.694 66.2158C153.122 66.2158 153.471 66.1309 153.74 65.9609C154.016 65.791 154.232 65.5566 154.391 65.2578V61.2148C154.232 60.9219 154.016 60.6963 153.74 60.5381C153.471 60.374 153.128 60.292 152.712 60.292C152.366 60.292 152.07 60.3682 151.824 60.5205C151.584 60.667 151.385 60.8691 151.227 61.127C151.074 61.3848 150.96 61.6895 150.884 62.041C150.813 62.3867 150.778 62.7617 150.778 63.166V63.3506Z" fill="#00C7A5"/>
</svg>
