<svg width="222" height="536" viewBox="0 0 222 536" fill="none" xmlns="http://www.w3.org/2000/svg">
<rect y="41" width="222" height="375" fill="white" fill-opacity="0.3"/>
<circle cx="151.486" cy="198.486" r="7.48585" fill="#FBC800" fill-opacity="0.2"/>
<circle cx="119.486" cy="198.486" r="7.48585" fill="#FBC800" fill-opacity="0.2"/>
<circle cx="15.4859" cy="123.486" r="7.48585" fill="#FBC800" fill-opacity="0.2"/>
<circle cx="39.4859" cy="198.486" r="7.48585" fill="#FBC800" fill-opacity="0.2"/>
<circle cx="79.4859" cy="273.486" r="7.48585" fill="#FBC800" fill-opacity="0.2"/>
<circle cx="167.486" cy="288.486" r="7.48585" fill="#FBC800" fill-opacity="0.2"/>
<circle cx="183.486" cy="228.486" r="7.48585" fill="#FBC800" fill-opacity="0.2"/>
<circle cx="39.4859" cy="138.486" r="7.48585" fill="#FBC800" fill-opacity="0.2"/>
<circle cx="23.4859" cy="78.4859" r="7.48585" fill="#FBC800" fill-opacity="0.2"/>
<circle cx="95.4859" cy="213.486" r="7.48585" fill="#FBC800" fill-opacity="0.2"/>
<circle cx="199.486" cy="198.486" r="7.48585" fill="#FBC800" fill-opacity="0.2"/>
<circle cx="199.486" cy="258.486" r="7.48585" fill="#FBC800" fill-opacity="0.2"/>
<circle cx="111.486" cy="303.486" r="7.48585" fill="#FBC800" fill-opacity="0.2"/>
<circle cx="143.486" cy="303.486" r="7.48585" fill="#FBC800" fill-opacity="0.2"/>
<circle cx="127.486" cy="213.486" r="7.48585" fill="#FBC800" fill-opacity="0.2"/>
<circle cx="183.486" cy="198.486" r="7.48585" fill="#FBC800" fill-opacity="0.2"/>
<circle cx="63.4859" cy="273.486" r="7.48585" fill="#FBC800" fill-opacity="0.2"/>
<circle cx="79.4859" cy="213.486" r="7.48585" fill="#FBC800" fill-opacity="0.2"/>
<circle cx="159.486" cy="273.486" r="7.48585" fill="#FBC800" fill-opacity="0.2"/>
<circle cx="31.4859" cy="153.486" r="7.48585" fill="#FBC800" fill-opacity="0.2"/>
<circle cx="143.486" cy="213.486" r="7.48585" fill="#FBC800" fill-opacity="0.2"/>
<circle cx="15.4859" cy="213.486" r="7.48585" fill="#FBC800" fill-opacity="0.2"/>
<circle cx="95.4859" cy="303.486" r="7.48585" fill="#FBC800" fill-opacity="0.2"/>
<circle cx="127.486" cy="303.486" r="7.48585" fill="#FBC800" fill-opacity="0.2"/>
<circle cx="151.486" cy="288.486" r="7.48585" fill="#FBC800" fill-opacity="0.2"/>
<circle cx="111.486" cy="183.486" r="7.48585" fill="#FBC800" fill-opacity="0.2"/>
<circle cx="135.486" cy="198.486" r="7.48585" fill="#FBC800" fill-opacity="0.2"/>
<circle cx="127.486" cy="243.486" r="7.48585" fill="#FBC800" fill-opacity="0.2"/>
<circle cx="207.486" cy="183.486" r="7.48585" fill="#FBC800" fill-opacity="0.2"/>
<circle cx="31.4859" cy="243.486" r="7.48585" fill="#FBC800" fill-opacity="0.2"/>
<circle cx="183.486" cy="258.486" r="7.48585" fill="#FBC800" fill-opacity="0.2"/>
<circle cx="207.486" cy="273.486" r="7.48585" fill="#FBC800" fill-opacity="0.2"/>
<circle cx="151.486" cy="258.486" r="7.48585" fill="#FBC800" fill-opacity="0.2"/>
<circle cx="31.4859" cy="123.486" r="7.48585" fill="#FBC800" fill-opacity="0.2"/>
<circle cx="199.486" cy="108.486" r="7.48585" fill="#FBC800" fill-opacity="0.2"/>
<circle cx="31.4859" cy="213.486" r="7.48585" fill="#FBC800" fill-opacity="0.2"/>
<circle cx="7.48585" cy="228.486" r="7.48585" fill="#FBC800" fill-opacity="0.2"/>
<circle cx="103.486" cy="78.4859" r="7.48585" fill="#FBC800" fill-opacity="0.2"/>
<circle cx="87.4859" cy="108.486" r="7.48585" fill="#FBC800" fill-opacity="0.2"/>
<circle cx="95.4859" cy="93.4859" r="7.48585" fill="#FBC800" fill-opacity="0.2"/>
<circle cx="95.4859" cy="123.486" r="7.48585" fill="#FBC800" fill-opacity="0.2"/>
<circle cx="103.486" cy="138.486" r="7.48585" fill="#FBC800" fill-opacity="0.2"/>
<circle cx="95.4859" cy="153.486" r="7.48585" fill="#FBC800" fill-opacity="0.2"/>
<circle cx="103.486" cy="168.486" r="7.48585" fill="#FBC800" fill-opacity="0.2"/>
<circle cx="191.486" cy="183.486" r="7.48585" fill="#FBC800" fill-opacity="0.2"/>
<circle cx="39.4859" cy="78.4859" r="7.48585" fill="#FBC800" fill-opacity="0.2"/>
<circle cx="183.486" cy="108.486" r="7.48585" fill="#FBC800" fill-opacity="0.2"/>
<circle cx="87.4859" cy="228.486" r="7.48585" fill="#FBC800" fill-opacity="0.2"/>
<circle cx="71.4859" cy="258.486" r="7.48585" fill="#FBC800" fill-opacity="0.2"/>
<circle cx="23.4859" cy="228.486" r="7.48585" fill="#FBC800" fill-opacity="0.2"/>
<circle cx="175.486" cy="273.486" r="7.48585" fill="#FBC800" fill-opacity="0.2"/>
<circle cx="191.486" cy="303.486" r="7.48585" fill="#FBC800" fill-opacity="0.2"/>
<circle cx="39.4859" cy="168.486" r="7.48585" fill="#FBC800" fill-opacity="0.2"/>
<circle cx="159.486" cy="213.486" r="7.48585" fill="#FBC800" fill-opacity="0.2"/>
<circle cx="23.4859" cy="198.486" r="7.48585" fill="#FBC800" fill-opacity="0.2"/>
<circle cx="95.4859" cy="183.486" r="7.48585" fill="#FBC800" fill-opacity="0.2"/>
<circle cx="23.4859" cy="108.486" r="7.48585" fill="#FBC800" fill-opacity="0.2"/>
<circle cx="111.486" cy="243.486" r="7.48585" fill="#FBC800" fill-opacity="0.2"/>
<circle cx="191.486" cy="213.486" r="7.48585" fill="#FBC800" fill-opacity="0.2"/>
<circle cx="167.486" cy="258.486" r="7.48585" fill="#FBC800" fill-opacity="0.2"/>
<circle cx="191.486" cy="273.486" r="7.48585" fill="#FBC800" fill-opacity="0.2"/>
<circle cx="199.486" cy="228.486" r="7.48585" fill="#FBC800" fill-opacity="0.2"/>
<circle cx="191.486" cy="93.4859" r="7.48585" fill="#FBC800" fill-opacity="0.2"/>
<circle cx="23.4859" cy="168.486" r="7.48585" fill="#FBC800" fill-opacity="0.2"/>
<circle cx="167.486" cy="228.486" r="7.48585" fill="#FBC800" fill-opacity="0.2"/>
<circle cx="111.486" cy="273.486" r="7.48585" fill="#FBC800" fill-opacity="0.2"/>
<circle cx="199.486" cy="288.486" r="7.48585" fill="#FBC800" fill-opacity="0.2"/>
<circle cx="207.486" cy="243.486" r="7.48585" fill="#FBC800" fill-opacity="0.2"/>
<circle cx="207.486" cy="303.486" r="7.48585" fill="#FBC800" fill-opacity="0.2"/>
<circle cx="47.4859" cy="183.486" r="7.48585" fill="#FBC800" fill-opacity="0.2"/>
<circle cx="199.486" cy="78.4859" r="7.48585" fill="#FBC800" fill-opacity="0.2"/>
<circle cx="47.4859" cy="213.486" r="7.48585" fill="#FBC800" fill-opacity="0.2"/>
<circle cx="15.4859" cy="243.486" r="7.48585" fill="#FBC800" fill-opacity="0.2"/>
<circle cx="15.4859" cy="92.4859" r="7.48585" fill="#FBC800" fill-opacity="0.2"/>
<circle cx="79.4859" cy="183.486" r="7.48585" fill="#FBC800" fill-opacity="0.2"/>
<circle cx="135.486" cy="288.486" r="7.48585" fill="#FBC800" fill-opacity="0.2"/>
<circle cx="175.486" cy="303.486" r="7.48585" fill="#FBC800" fill-opacity="0.2"/>
<circle cx="95.4859" cy="243.486" r="7.48585" fill="#FBC800" fill-opacity="0.2"/>
<circle cx="15.4859" cy="303.486" r="7.48585" fill="#FBC800" fill-opacity="0.2"/>
<circle cx="127.486" cy="273.486" r="7.48585" fill="#FBC800" fill-opacity="0.2"/>
<circle cx="7.48585" cy="258.486" r="7.48585" fill="#FBC800" fill-opacity="0.2"/>
<circle cx="39.4859" cy="288.486" r="7.48585" fill="#FBC800" fill-opacity="0.2"/>
<circle cx="31.4859" cy="183.486" r="7.48585" fill="#FBC800" fill-opacity="0.2"/>
<circle cx="55.4859" cy="288.486" r="7.48585" fill="#FBC800" fill-opacity="0.2"/>
<circle cx="31.4859" cy="303.486" r="7.48585" fill="#FBC800" fill-opacity="0.2"/>
<circle cx="63.4859" cy="243.486" r="7.48585" fill="#FBC800" fill-opacity="0.2"/>
<circle cx="39.4859" cy="258.486" r="7.48585" fill="#FBC800" fill-opacity="0.2"/>
<circle cx="23.4859" cy="288.486" r="7.48585" fill="#FBC800" fill-opacity="0.2"/>
<circle cx="31.4859" cy="273.486" r="7.48585" fill="#FBC800" fill-opacity="0.2"/>
<circle cx="47.4859" cy="273.486" r="7.48585" fill="#FBC800" fill-opacity="0.2"/>
<circle cx="135.486" cy="78.4859" r="7.48585" fill="#FBC800" fill-opacity="0.2"/>
<circle cx="119.486" cy="108.486" r="7.48585" fill="#FBC800" fill-opacity="0.2"/>
<circle cx="127.486" cy="93.4859" r="7.48585" fill="#FBC800" fill-opacity="0.2"/>
<circle cx="127.486" cy="123.486" r="7.48585" fill="#FBC800" fill-opacity="0.2"/>
<circle cx="135.486" cy="138.486" r="7.48585" fill="#FBC800" fill-opacity="0.2"/>
<circle cx="127.486" cy="153.486" r="7.48585" fill="#FBC800" fill-opacity="0.2"/>
<circle cx="135.486" cy="168.486" r="7.48585" fill="#FBC800" fill-opacity="0.2"/>
<circle cx="63.4859" cy="183.486" r="7.48585" fill="#FBC800" fill-opacity="0.2"/>
<circle cx="143.486" cy="183.486" r="7.48585" fill="#FBC800" fill-opacity="0.2"/>
<circle cx="79.4859" cy="243.486" r="7.48585" fill="#FBC800" fill-opacity="0.2"/>
<circle cx="119.486" cy="228.486" r="7.48585" fill="#FBC800" fill-opacity="0.2"/>
<circle cx="143.486" cy="273.486" r="7.48585" fill="#FBC800" fill-opacity="0.2"/>
<circle cx="7.48585" cy="288.486" r="7.48585" fill="#FBC800" fill-opacity="0.2"/>
<circle cx="103.486" cy="258.486" r="7.48585" fill="#FBC800" fill-opacity="0.2"/>
<circle cx="103.486" cy="48.4859" r="7.48585" fill="#FBC800" fill-opacity="0.2"/>
<circle cx="135.486" cy="48.4859" r="7.48585" fill="#FBC800" fill-opacity="0.2"/>
<circle cx="103.486" cy="198.486" r="7.48585" fill="#FBC800" fill-opacity="0.2"/>
<circle cx="55.4859" cy="228.486" r="7.48585" fill="#FBC800" fill-opacity="0.2"/>
<circle cx="47.4859" cy="243.486" r="7.48585" fill="#FBC800" fill-opacity="0.2"/>
<circle cx="119.486" cy="78.4859" r="7.48585" fill="#FBC800" fill-opacity="0.2"/>
<circle cx="103.486" cy="108.486" r="7.48585" fill="#FBC800" fill-opacity="0.2"/>
<circle cx="111.486" cy="93.4859" r="7.48585" fill="#FBC800"/>
<circle cx="111.486" cy="123.486" r="7.48585" fill="#FBC800" fill-opacity="0.2"/>
<circle cx="119.486" cy="138.486" r="7.48585" fill="#FBC800" fill-opacity="0.2"/>
<circle cx="111.486" cy="153.486" r="7.48585" fill="#FBC800" fill-opacity="0.2"/>
<circle cx="119.486" cy="168.486" r="7.48585" fill="#FBC800" fill-opacity="0.2"/>
<circle cx="47.4859" cy="63.4859" r="7.48585" fill="#FBC800" fill-opacity="0.2"/>
<circle cx="95.4859" cy="63.4859" r="7.48585" fill="#FBC800" fill-opacity="0.2"/>
<circle cx="167.486" cy="198.486" r="7.48585" fill="#FBC800" fill-opacity="0.2"/>
<circle cx="127.486" cy="63.4859" r="7.48585" fill="#FBC800" fill-opacity="0.2"/>
<circle cx="103.486" cy="228.486" r="7.48585" fill="#FBC800" fill-opacity="0.2"/>
<circle cx="159.486" cy="63.4859" r="7.48585" fill="#FBC800" fill-opacity="0.2"/>
<circle cx="39.4859" cy="228.486" r="7.48585" fill="#FBC800" fill-opacity="0.2"/>
<circle cx="119.486" cy="48.4859" r="7.48585" fill="#FBC800" fill-opacity="0.2"/>
<circle cx="111.486" cy="213.486" r="7.48585" fill="#FBC800" fill-opacity="0.2"/>
<circle cx="143.486" cy="243.486" r="7.48585" fill="#FBC800" fill-opacity="0.2"/>
<circle cx="31.4859" cy="63.4859" r="7.48585" fill="#FBC800" fill-opacity="0.2"/>
<circle cx="191.486" cy="243.486" r="7.48585" fill="#FBC800" fill-opacity="0.2"/>
<circle cx="79.4859" cy="63.4859" r="7.48585" fill="#FBC800" fill-opacity="0.2"/>
<circle cx="63.4859" cy="63.4859" r="7.48585" fill="#FBC800" fill-opacity="0.2"/>
<circle cx="111.486" cy="63.4859" r="7.48585" fill="#FBC800" fill-opacity="0.2"/>
<circle cx="87.4859" cy="198.486" r="7.48585" fill="#FBC800" fill-opacity="0.2"/>
<circle cx="143.486" cy="63.4859" r="7.48585" fill="#FBC800" fill-opacity="0.2"/>
<circle cx="175.486" cy="63.4859" r="7.48585" fill="#FBC800" fill-opacity="0.2"/>
<circle cx="71.4859" cy="288.486" r="7.48585" fill="#FBC800" fill-opacity="0.2"/>
<circle cx="47.4859" cy="303.486" r="7.48585" fill="#FBC800" fill-opacity="0.2"/>
<circle cx="87.4859" cy="48.4859" r="7.48585" fill="#FBC800" fill-opacity="0.2"/>
<circle cx="191.486" cy="153.486" r="7.48585" fill="#FBC800" fill-opacity="0.2"/>
<circle cx="55.4859" cy="198.486" r="7.48585" fill="#FBC800" fill-opacity="0.2"/>
<circle cx="71.4859" cy="198.486" r="7.48585" fill="#FBC800" fill-opacity="0.2"/>
<circle cx="159.486" cy="243.486" r="7.48585" fill="#FBC800" fill-opacity="0.2"/>
<circle cx="7.48585" cy="107.486" r="7.48585" fill="#FBC800" fill-opacity="0.2"/>
<circle cx="95.4859" cy="273.486" r="7.48585" fill="#FBC800" fill-opacity="0.2"/>
<circle cx="183.486" cy="288.486" r="7.48585" fill="#FBC800" fill-opacity="0.2"/>
<circle cx="103.486" cy="288.486" r="7.48585" fill="#FBC800" fill-opacity="0.2"/>
<circle cx="79.4859" cy="303.486" r="7.48585" fill="#FBC800" fill-opacity="0.2"/>
<circle cx="87.4859" cy="288.486" r="7.48585" fill="#FBC800" fill-opacity="0.2"/>
<circle cx="63.4859" cy="303.486" r="7.48585" fill="#FBC800" fill-opacity="0.2"/>
<circle cx="55.4859" cy="78.4859" r="7.48585" fill="#FBC800" fill-opacity="0.2"/>
<circle cx="39.4859" cy="108.486" r="7.48585" fill="#FBC800" fill-opacity="0.2"/>
<circle cx="47.4859" cy="93.4859" r="7.48585" fill="#FBC800" fill-opacity="0.2"/>
<circle cx="47.4859" cy="123.486" r="7.48585" fill="#FBC800" fill-opacity="0.2"/>
<circle cx="55.4859" cy="138.486" r="7.48585" fill="#FBC800" fill-opacity="0.2"/>
<circle cx="47.4859" cy="153.486" r="7.48585" fill="#FBC800" fill-opacity="0.2"/>
<circle cx="55.4859" cy="168.486" r="7.48585" fill="#FBC800" fill-opacity="0.2"/>
<circle cx="151.486" cy="78.4859" r="7.48585" fill="#FBC800" fill-opacity="0.2"/>
<circle cx="135.486" cy="108.486" r="7.48585" fill="#FBC800" fill-opacity="0.2"/>
<circle cx="143.486" cy="93.4859" r="7.48585" fill="#FBC800" fill-opacity="0.2"/>
<circle cx="143.486" cy="123.486" r="7.48585" fill="#FBC800" fill-opacity="0.2"/>
<circle cx="151.486" cy="138.486" r="7.48585" fill="#FBC800" fill-opacity="0.2"/>
<circle cx="143.486" cy="153.486" r="7.48585" fill="#FBC800" fill-opacity="0.2"/>
<circle cx="151.486" cy="168.486" r="7.48585" fill="#FBC800" fill-opacity="0.2"/>
<circle cx="31.4859" cy="93.4859" r="7.48585" fill="#FBC800" fill-opacity="0.2"/>
<circle cx="23.4859" cy="258.486" r="7.48585" fill="#FBC800" fill-opacity="0.2"/>
<circle cx="15.4859" cy="273.486" r="7.48585" fill="#FBC800" fill-opacity="0.2"/>
<circle cx="159.486" cy="183.486" r="7.48585" fill="#FBC800" fill-opacity="0.2"/>
<circle cx="127.486" cy="183.486" r="7.48585" fill="#FBC800" fill-opacity="0.2"/>
<circle cx="135.486" cy="228.486" r="7.48585" fill="#FBC800" fill-opacity="0.2"/>
<circle cx="175.486" cy="243.486" r="7.48585" fill="#FBC800" fill-opacity="0.2"/>
<circle cx="119.486" cy="288.486" r="7.48585" fill="#FBC800" fill-opacity="0.2"/>
<circle cx="159.486" cy="303.486" r="7.48585" fill="#FBC800" fill-opacity="0.2"/>
<circle cx="119.486" cy="258.486" r="7.48585" fill="#FBC800" fill-opacity="0.2"/>
<circle cx="71.4859" cy="78.4859" r="7.48585" fill="#FBC800" fill-opacity="0.2"/>
<circle cx="55.4859" cy="108.486" r="7.48585" fill="#FBC800" fill-opacity="0.2"/>
<circle cx="63.4859" cy="93.4859" r="7.48585" fill="#FBC800" fill-opacity="0.2"/>
<circle cx="63.4859" cy="123.486" r="7.48585" fill="#FBC800" fill-opacity="0.2"/>
<circle cx="71.4859" cy="138.486" r="7.48585" fill="#FBC800" fill-opacity="0.2"/>
<circle cx="63.4859" cy="153.486" r="7.48585" fill="#FBC800" fill-opacity="0.2"/>
<circle cx="71.4859" cy="168.486" r="7.48585" fill="#FBC800" fill-opacity="0.2"/>
<circle cx="167.486" cy="78.4859" r="7.48585" fill="#FBC800" fill-opacity="0.2"/>
<circle cx="151.486" cy="108.486" r="7.48585" fill="#FBC800" fill-opacity="0.2"/>
<circle cx="159.486" cy="93.4859" r="7.48585" fill="#FBC800" fill-opacity="0.2"/>
<circle cx="159.486" cy="123.486" r="7.48585" fill="#FBC800" fill-opacity="0.2"/>
<circle cx="167.486" cy="138.486" r="7.48585" fill="#FBC800" fill-opacity="0.2"/>
<circle cx="159.486" cy="153.486" r="7.48585" fill="#FBC800" fill-opacity="0.2"/>
<circle cx="167.486" cy="168.486" r="7.48585" fill="#FBC800" fill-opacity="0.2"/>
<circle cx="207.486" cy="153.486" r="7.48585" fill="#FBC800" fill-opacity="0.2"/>
<circle cx="175.486" cy="183.486" r="7.48585" fill="#FBC800" fill-opacity="0.2"/>
<circle cx="63.4859" cy="213.486" r="7.48585" fill="#FBC800" fill-opacity="0.2"/>
<circle cx="151.486" cy="228.486" r="7.48585" fill="#FBC800" fill-opacity="0.2"/>
<circle cx="87.4859" cy="258.486" r="7.48585" fill="#FBC800" fill-opacity="0.2"/>
<circle cx="55.4859" cy="258.486" r="7.48585" fill="#FBC800" fill-opacity="0.2"/>
<circle cx="87.4859" cy="78.4859" r="7.48585" fill="#FBC800" fill-opacity="0.2"/>
<circle cx="71.4859" cy="108.486" r="7.48585" fill="#FBC800" fill-opacity="0.2"/>
<circle cx="79.4859" cy="93.4859" r="7.48585" fill="#FBC800" fill-opacity="0.2"/>
<circle cx="79.4859" cy="123.486" r="7.48585" fill="#FBC800" fill-opacity="0.2"/>
<circle cx="87.4859" cy="138.486" r="7.48585" fill="#FBC800" fill-opacity="0.2"/>
<circle cx="79.4859" cy="153.486" r="7.48585" fill="#FBC800" fill-opacity="0.2"/>
<circle cx="87.4859" cy="168.486" r="7.48585" fill="#FBC800" fill-opacity="0.2"/>
<circle cx="183.486" cy="78.4859" r="7.48585" fill="#FBC800" fill-opacity="0.2"/>
<circle cx="167.486" cy="108.486" r="7.48585" fill="#FBC800" fill-opacity="0.2"/>
<circle cx="175.486" cy="93.4859" r="7.48585" fill="#FBC800" fill-opacity="0.2"/>
<circle cx="175.486" cy="123.486" r="7.48585" fill="#FBC800" fill-opacity="0.2"/>
<circle cx="183.486" cy="138.486" r="7.48585" fill="#FBC800" fill-opacity="0.2"/>
<circle cx="175.486" cy="153.486" r="7.48585" fill="#FBC800" fill-opacity="0.2"/>
<circle cx="183.486" cy="168.486" r="7.48585" fill="#FBC800" fill-opacity="0.2"/>
<circle cx="199.486" cy="168.486" r="7.48585" fill="#FBC800" fill-opacity="0.2"/>
<circle cx="207.486" cy="93.4859" r="7.48585" fill="#FBC800" fill-opacity="0.2"/>
<circle cx="71.4859" cy="228.486" r="7.48585" fill="#FBC800" fill-opacity="0.2"/>
<circle cx="175.486" cy="213.486" r="7.48585" fill="#FBC800" fill-opacity="0.2"/>
<circle cx="207.486" cy="213.486" r="7.48585" fill="#FBC800" fill-opacity="0.2"/>
<circle cx="135.486" cy="258.486" r="7.48585" fill="#FBC800" fill-opacity="0.2"/>
<circle cx="152.259" cy="318.486" r="7.48585" transform="rotate(90 152.259 318.486)" fill="#FBC800" fill-opacity="0.2"/>
<circle cx="184.203" cy="318.486" r="7.48585" transform="rotate(90 184.203 318.486)" fill="#FBC800" fill-opacity="0.2"/>
<circle cx="40.4575" cy="318.486" r="7.48585" transform="rotate(90 40.4575 318.486)" fill="#FBC800" fill-opacity="0.2"/>
<circle cx="56.4292" cy="318.486" r="7.48585" transform="rotate(90 56.4292 318.486)" fill="#FBC800" fill-opacity="0.2"/>
<circle cx="72.4009" cy="318.486" r="7.48585" transform="rotate(90 72.4009 318.486)" fill="#FBC800" fill-opacity="0.2"/>
<circle cx="24.4858" cy="318.486" r="7.48585" transform="rotate(90 24.4858 318.486)" fill="#FBC800" fill-opacity="0.2"/>
<circle cx="120.316" cy="318.486" r="7.48585" transform="rotate(90 120.316 318.486)" fill="#FBC800" fill-opacity="0.2"/>
<circle cx="104.344" cy="318.486" r="7.48585" transform="rotate(90 104.344 318.486)" fill="#FBC800" fill-opacity="0.2"/>
<circle cx="88.3725" cy="318.486" r="7.48585" transform="rotate(90 88.3725 318.486)" fill="#FBC800" fill-opacity="0.2"/>
<circle cx="136.288" cy="318.486" r="7.48585" transform="rotate(90 136.288 318.486)" fill="#FBC800" fill-opacity="0.2"/>
<circle cx="168.231" cy="318.486" r="7.48585" transform="rotate(90 168.231 318.486)" fill="#FBC800" fill-opacity="0.2"/>
<circle cx="88.3725" cy="348.486" r="7.48585" transform="rotate(90 88.3725 348.486)" fill="#FBC800" fill-opacity="0.2"/>
<circle cx="24.4858" cy="348.486" r="7.48585" transform="rotate(90 24.4858 348.486)" fill="#FBC800" fill-opacity="0.2"/>
<circle cx="136.288" cy="348.486" r="7.48585" transform="rotate(90 136.288 348.486)" fill="#FBC800" fill-opacity="0.2"/>
<circle cx="152.259" cy="348.486" r="7.48585" transform="rotate(90 152.259 348.486)" fill="#FBC800" fill-opacity="0.2"/>
<circle cx="104.344" cy="348.486" r="7.48585" transform="rotate(90 104.344 348.486)" fill="#FBC800" fill-opacity="0.2"/>
<circle cx="72.4009" cy="348.486" r="7.48585" transform="rotate(90 72.4009 348.486)" fill="#FBC800" fill-opacity="0.2"/>
<circle cx="168.231" cy="348.486" r="7.48585" transform="rotate(90 168.231 348.486)" fill="#FBC800" fill-opacity="0.2"/>
<circle cx="40.4575" cy="348.486" r="7.48585" transform="rotate(90 40.4575 348.486)" fill="#FBC800" fill-opacity="0.2"/>
<circle cx="184.203" cy="348.486" r="7.48585" transform="rotate(90 184.203 348.486)" fill="#FBC800" fill-opacity="0.2"/>
<circle cx="120.316" cy="348.486" r="7.48585" transform="rotate(90 120.316 348.486)" fill="#FBC800" fill-opacity="0.2"/>
<circle cx="200.174" cy="348.486" r="7.48585" transform="rotate(90 200.174 348.486)" fill="#FBC800" fill-opacity="0.2"/>
<circle cx="56.4292" cy="348.486" r="7.48585" transform="rotate(90 56.4292 348.486)" fill="#FBC800" fill-opacity="0.2"/>
<circle cx="200.486" cy="318.486" r="7.48585" transform="rotate(90 200.486 318.486)" fill="#FBC800" fill-opacity="0.2"/>
<circle cx="62.4009" cy="363.486" r="7.48585" transform="rotate(90 62.4009 363.486)" fill="#FBC800" fill-opacity="0.2"/>
<circle cx="174.203" cy="363.486" r="7.48585" transform="rotate(90 174.203 363.486)" fill="#FBC800" fill-opacity="0.2"/>
<circle cx="206.146" cy="363.486" r="7.48585" transform="rotate(90 206.146 363.486)" fill="#FBC800" fill-opacity="0.2"/>
<circle cx="86.7407" cy="378.486" r="7.48585" transform="rotate(90 86.7407 378.486)" fill="#FBC800" fill-opacity="0.2"/>
<circle cx="94.3442" cy="363.486" r="7.48585" transform="rotate(90 94.3442 363.486)" fill="#FBC800" fill-opacity="0.2"/>
<circle cx="78.3725" cy="363.486" r="7.48585" transform="rotate(90 78.3725 363.486)" fill="#FBC800" fill-opacity="0.2"/>
<circle cx="190.174" cy="363.486" r="7.48585" transform="rotate(90 190.174 363.486)" fill="#FBC800" fill-opacity="0.2"/>
<circle cx="102.712" cy="378.486" r="7.48585" transform="rotate(90 102.712 378.486)" fill="#FBC800" fill-opacity="0.2"/>
<circle cx="150.627" cy="408.486" r="7.48585" transform="rotate(90 150.627 408.486)" fill="#FBC800" fill-opacity="0.2"/>
<circle cx="94.7124" cy="393.486" r="7.48585" transform="rotate(90 94.7124 393.486)" fill="#FBC800" fill-opacity="0.2"/>
<circle cx="30.4575" cy="363.486" r="7.48585" transform="rotate(90 30.4575 363.486)" fill="#FBC800" fill-opacity="0.2"/>
<circle cx="150.627" cy="378.486" r="7.48585" transform="rotate(90 150.627 378.486)" fill="#FBC800" fill-opacity="0.2"/>
<circle cx="134.656" cy="408.486" r="7.48585" transform="rotate(90 134.656 408.486)" fill="#FBC800" fill-opacity="0.2"/>
<circle cx="14.854" cy="393.486" r="7.48585" transform="rotate(90 14.854 393.486)" fill="#FBC800" fill-opacity="0.2"/>
<circle cx="110.316" cy="363.486" r="7.48585" transform="rotate(90 110.316 363.486)" fill="#FBC800" fill-opacity="0.2"/>
<circle cx="182.571" cy="378.486" r="7.48585" transform="rotate(90 182.571 378.486)" fill="#FBC800" fill-opacity="0.2"/>
<circle cx="38.8257" cy="408.486" r="7.48585" transform="rotate(90 38.8257 408.486)" fill="#FBC800" fill-opacity="0.2"/>
<circle cx="166.599" cy="378.486" r="7.48585" transform="rotate(90 166.599 378.486)" fill="#FBC800" fill-opacity="0.2"/>
<circle cx="126.288" cy="363.486" r="7.48585" transform="rotate(90 126.288 363.486)" fill="#FBC800" fill-opacity="0.2"/>
<circle cx="46.4292" cy="363.486" r="7.48585" transform="rotate(90 46.4292 363.486)" fill="#FBC800" fill-opacity="0.2"/>
<circle cx="142.627" cy="393.486" r="7.48585" transform="rotate(90 142.627 393.486)" fill="#FBC800" fill-opacity="0.2"/>
<circle cx="214.514" cy="378.486" r="7.48585" transform="rotate(90 214.514 378.486)" fill="#FBC800" fill-opacity="0.2"/>
<circle cx="166.599" cy="408.486" r="7.48585" transform="rotate(90 166.599 408.486)" fill="#FBC800" fill-opacity="0.2"/>
<circle cx="110.684" cy="393.486" r="7.48585" transform="rotate(90 110.684 393.486)" fill="#FBC800" fill-opacity="0.2"/>
<circle cx="198.542" cy="408.486" r="7.48585" transform="rotate(90 198.542 408.486)" fill="#FBC800" fill-opacity="0.2"/>
<circle cx="70.769" cy="378.486" r="7.48585" transform="rotate(90 70.769 378.486)" fill="#FBC800" fill-opacity="0.2"/>
<circle cx="182.571" cy="408.486" r="7.48585" transform="rotate(90 182.571 408.486)" fill="#FBC800" fill-opacity="0.2"/>
<circle cx="86.7407" cy="408.486" r="7.48585" transform="rotate(90 86.7407 408.486)" fill="#FBC800" fill-opacity="0.2"/>
<circle cx="142.259" cy="363.486" r="7.48585" transform="rotate(90 142.259 363.486)" fill="#FBC800" fill-opacity="0.2"/>
<circle cx="134.656" cy="378.486" r="7.48585" transform="rotate(90 134.656 378.486)" fill="#FBC800" fill-opacity="0.2"/>
<circle cx="38.8257" cy="378.486" r="7.48585" transform="rotate(90 38.8257 378.486)" fill="#FBC800" fill-opacity="0.2"/>
<circle cx="158.599" cy="393.486" r="7.48585" transform="rotate(90 158.599 393.486)" fill="#FBC800" fill-opacity="0.2"/>
<circle cx="190.542" cy="393.486" r="7.48585" transform="rotate(90 190.542 393.486)" fill="#FBC800" fill-opacity="0.2"/>
<circle cx="54.7973" cy="408.486" r="7.48585" transform="rotate(90 54.7973 408.486)" fill="#FBC800" fill-opacity="0.2"/>
<circle cx="118.684" cy="408.486" r="7.48585" transform="rotate(90 118.684 408.486)" fill="#FBC800" fill-opacity="0.2"/>
<circle cx="158.231" cy="363.486" r="7.48585" transform="rotate(90 158.231 363.486)" fill="#FBC800" fill-opacity="0.2"/>
<circle cx="126.656" cy="393.486" r="7.48585" transform="rotate(90 126.656 393.486)" fill="#FBC800" fill-opacity="0.2"/>
<circle cx="62.769" cy="393.486" r="7.48585" transform="rotate(90 62.769 393.486)" fill="#FBC800" fill-opacity="0.2"/>
<circle cx="78.7407" cy="393.486" r="7.48585" transform="rotate(90 78.7407 393.486)" fill="#FBC800" fill-opacity="0.2"/>
<circle cx="198.542" cy="378.486" r="7.48585" transform="rotate(90 198.542 378.486)" fill="#FBC800" fill-opacity="0.2"/>
<circle cx="70.769" cy="408.486" r="7.48585" transform="rotate(90 70.769 408.486)" fill="#FBC800" fill-opacity="0.2"/>
<circle cx="174.571" cy="393.486" r="7.48585" transform="rotate(90 174.571 393.486)" fill="#FBC800" fill-opacity="0.2"/>
<circle cx="102.712" cy="408.486" r="7.48585" transform="rotate(90 102.712 408.486)" fill="#FBC800" fill-opacity="0.2"/>
<circle cx="22.854" cy="408.486" r="7.48585" transform="rotate(90 22.854 408.486)" fill="#FBC800" fill-opacity="0.2"/>
<circle cx="54.7973" cy="378.486" r="7.48585" transform="rotate(90 54.7973 378.486)" fill="#FBC800" fill-opacity="0.2"/>
<circle cx="46.7973" cy="393.486" r="7.48585" transform="rotate(90 46.7973 393.486)" fill="#FBC800" fill-opacity="0.2"/>
<circle cx="118.684" cy="378.486" r="7.48585" transform="rotate(90 118.684 378.486)" fill="#FBC800" fill-opacity="0.2"/>
<circle cx="14.4858" cy="363.486" r="7.48585" transform="rotate(90 14.4858 363.486)" fill="#FBC800" fill-opacity="0.2"/>
<circle cx="22.854" cy="378.486" r="7.48585" transform="rotate(90 22.854 378.486)" fill="#FBC800" fill-opacity="0.2"/>
<circle cx="30.8257" cy="393.486" r="7.48585" transform="rotate(90 30.8257 393.486)" fill="#FBC800" fill-opacity="0.2"/>
<circle cx="192.203" cy="333.486" r="7.48585" transform="rotate(90 192.203 333.486)" fill="#FBC800" fill-opacity="0.2"/>
<circle cx="144.288" cy="333.486" r="7.48585" transform="rotate(90 144.288 333.486)" fill="#FBC800" fill-opacity="0.2"/>
<circle cx="176.231" cy="333.486" r="7.48585" transform="rotate(90 176.231 333.486)" fill="#FBC800" fill-opacity="0.2"/>
<circle cx="64.4292" cy="333.486" r="7.48585" transform="rotate(90 64.4292 333.486)" fill="#FBC800" fill-opacity="0.2"/>
<circle cx="80.4009" cy="333.486" r="7.48585" transform="rotate(90 80.4009 333.486)" fill="#FBC800" fill-opacity="0.2"/>
<circle cx="112.344" cy="333.486" r="7.48585" transform="rotate(90 112.344 333.486)" fill="#FBC800" fill-opacity="0.2"/>
<circle cx="48.4575" cy="333.486" r="7.48585" transform="rotate(90 48.4575 333.486)" fill="#FBC800" fill-opacity="0.2"/>
<circle cx="32.4858" cy="333.486" r="7.48585" transform="rotate(90 32.4858 333.486)" fill="#FBC800" fill-opacity="0.2"/>
<circle cx="96.3725" cy="333.486" r="7.48585" transform="rotate(90 96.3725 333.486)" fill="#FBC800" fill-opacity="0.2"/>
<circle cx="160.259" cy="333.486" r="7.48585" transform="rotate(90 160.259 333.486)" fill="#FBC800" fill-opacity="0.2"/>
<circle cx="128.316" cy="333.486" r="7.48585" transform="rotate(90 128.316 333.486)" fill="#FBC800" fill-opacity="0.2"/>
<path d="M23.1006 17H20.5605V7.20898L17.5283 8.14941V6.08398L22.8281 4.18555H23.1006V17ZM36.0381 17H27.2666V15.2598L31.4062 10.8477C31.9746 10.2266 32.3936 9.68457 32.6631 9.22168C32.9385 8.75879 33.0762 8.31934 33.0762 7.90332C33.0762 7.33496 32.9326 6.88965 32.6455 6.56738C32.3584 6.23926 31.9482 6.0752 31.415 6.0752C30.8408 6.0752 30.3867 6.27441 30.0527 6.67285C29.7246 7.06543 29.5605 7.58398 29.5605 8.22852H27.0117C27.0117 7.44922 27.1963 6.7373 27.5654 6.09277C27.9404 5.44824 28.4678 4.94434 29.1475 4.58105C29.8271 4.21191 30.5977 4.02734 31.459 4.02734C32.7773 4.02734 33.7998 4.34375 34.5264 4.97656C35.2588 5.60938 35.625 6.50293 35.625 7.65723C35.625 8.29004 35.4609 8.93457 35.1328 9.59082C34.8047 10.2471 34.2422 11.0117 33.4453 11.8848L30.5361 14.9521H36.0381V17ZM45.1172 12.1836H46.5674V14.2314H45.1172V17H42.5771V14.2314H37.3301L37.2158 12.6318L42.5508 4.20312H45.1172V12.1836ZM39.7471 12.1836H42.5771V7.66602L42.4102 7.95605L39.7471 12.1836ZM56.5518 11.709C56.5518 13.4785 56.1855 14.832 55.4531 15.7695C54.7207 16.707 53.6484 17.1758 52.2363 17.1758C50.8418 17.1758 49.7754 16.7158 49.0371 15.7959C48.2988 14.876 47.9209 13.5576 47.9033 11.8408V9.48535C47.9033 7.69824 48.2725 6.3418 49.0107 5.41602C49.7549 4.49023 50.8242 4.02734 52.2188 4.02734C53.6133 4.02734 54.6797 4.4873 55.418 5.40723C56.1562 6.32129 56.5342 7.63672 56.5518 9.35352V11.709ZM54.0117 9.125C54.0117 8.06445 53.8652 7.29395 53.5723 6.81348C53.2852 6.32715 52.834 6.08398 52.2188 6.08398C51.6211 6.08398 51.1787 6.31543 50.8916 6.77832C50.6104 7.23535 50.4609 7.95313 50.4434 8.93164V12.043C50.4434 13.0859 50.584 13.8623 50.8652 14.3721C51.1523 14.876 51.6094 15.1279 52.2363 15.1279C52.8574 15.1279 53.3057 14.8848 53.5811 14.3984C53.8564 13.9121 54 13.168 54.0117 12.166V9.125ZM66.8877 11.709C66.8877 13.4785 66.5215 14.832 65.7891 15.7695C65.0566 16.707 63.9844 17.1758 62.5723 17.1758C61.1777 17.1758 60.1113 16.7158 59.373 15.7959C58.6348 14.876 58.2568 13.5576 58.2393 11.8408V9.48535C58.2393 7.69824 58.6084 6.3418 59.3467 5.41602C60.0908 4.49023 61.1602 4.02734 62.5547 4.02734C63.9492 4.02734 65.0156 4.4873 65.7539 5.40723C66.4922 6.32129 66.8701 7.63672 66.8877 9.35352V11.709ZM64.3477 9.125C64.3477 8.06445 64.2012 7.29395 63.9082 6.81348C63.6211 6.32715 63.1699 6.08398 62.5547 6.08398C61.957 6.08398 61.5146 6.31543 61.2275 6.77832C60.9463 7.23535 60.7969 7.95313 60.7793 8.93164V12.043C60.7793 13.0859 60.9199 13.8623 61.2012 14.3721C61.4883 14.876 61.9453 15.1279 62.5723 15.1279C63.1934 15.1279 63.6416 14.8848 63.917 14.3984C64.1924 13.9121 64.3359 13.168 64.3477 12.166V9.125ZM78.1816 11.7617H69.0762V9.6875H78.1816V11.7617ZM88.7549 17H79.9834V15.2598L84.123 10.8477C84.6914 10.2266 85.1104 9.68457 85.3799 9.22168C85.6553 8.75879 85.793 8.31934 85.793 7.90332C85.793 7.33496 85.6494 6.88965 85.3623 6.56738C85.0752 6.23926 84.665 6.0752 84.1318 6.0752C83.5576 6.0752 83.1035 6.27441 82.7695 6.67285C82.4414 7.06543 82.2773 7.58398 82.2773 8.22852H79.7285C79.7285 7.44922 79.9131 6.7373 80.2822 6.09277C80.6572 5.44824 81.1846 4.94434 81.8643 4.58105C82.5439 4.21191 83.3145 4.02734 84.1758 4.02734C85.4941 4.02734 86.5166 4.34375 87.2432 4.97656C87.9756 5.60938 88.3418 6.50293 88.3418 7.65723C88.3418 8.29004 88.1777 8.93457 87.8496 9.59082C87.5215 10.2471 86.959 11.0117 86.1621 11.8848L83.2529 14.9521H88.7549V17ZM92.9033 9.47656H94.2568C94.9014 9.47656 95.3789 9.31543 95.6895 8.99316C96 8.6709 96.1553 8.24316 96.1553 7.70996C96.1553 7.19434 96 6.79297 95.6895 6.50586C95.3848 6.21875 94.9629 6.0752 94.4238 6.0752C93.9375 6.0752 93.5303 6.20996 93.2021 6.47949C92.874 6.74316 92.71 7.08887 92.71 7.5166H90.1699C90.1699 6.84863 90.3486 6.25098 90.7061 5.72363C91.0693 5.19043 91.5732 4.77441 92.2178 4.47559C92.8682 4.17676 93.583 4.02734 94.3623 4.02734C95.7158 4.02734 96.7764 4.35254 97.5439 5.00293C98.3115 5.64746 98.6953 6.53809 98.6953 7.6748C98.6953 8.26074 98.5166 8.7998 98.1592 9.29199C97.8018 9.78418 97.333 10.1621 96.7529 10.4258C97.4736 10.6836 98.0098 11.0703 98.3613 11.5859C98.7188 12.1016 98.8975 12.7109 98.8975 13.4141C98.8975 14.5508 98.4814 15.4619 97.6494 16.1475C96.8232 16.833 95.7275 17.1758 94.3623 17.1758C93.085 17.1758 92.0391 16.8389 91.2246 16.165C90.416 15.4912 90.0117 14.6006 90.0117 13.4932H92.5518C92.5518 13.9736 92.7305 14.3662 93.0879 14.6709C93.4512 14.9756 93.8965 15.1279 94.4238 15.1279C95.0273 15.1279 95.499 14.9697 95.8389 14.6533C96.1846 14.3311 96.3574 13.9062 96.3574 13.3789C96.3574 12.1016 95.6543 11.4629 94.248 11.4629H92.9033V9.47656ZM101.033 10.707L101.771 4.20312H108.943V6.32129H103.854L103.538 9.07227C104.142 8.75 104.783 8.58887 105.463 8.58887C106.682 8.58887 107.637 8.9668 108.328 9.72266C109.02 10.4785 109.365 11.5361 109.365 12.8955C109.365 13.7217 109.189 14.4629 108.838 15.1191C108.492 15.7695 107.994 16.2764 107.344 16.6396C106.693 16.9971 105.926 17.1758 105.041 17.1758C104.268 17.1758 103.55 17.0205 102.888 16.71C102.226 16.3936 101.701 15.9512 101.314 15.3828C100.934 14.8145 100.731 14.167 100.708 13.4404H103.222C103.274 13.9736 103.459 14.3896 103.775 14.6885C104.098 14.9814 104.517 15.1279 105.032 15.1279C105.606 15.1279 106.049 14.9229 106.359 14.5127C106.67 14.0967 106.825 13.5107 106.825 12.7549C106.825 12.0283 106.646 11.4717 106.289 11.085C105.932 10.6982 105.425 10.5049 104.769 10.5049C104.165 10.5049 103.676 10.6631 103.301 10.9795L103.055 11.208L101.033 10.707ZM119.604 11.709C119.604 13.4785 119.238 14.832 118.506 15.7695C117.773 16.707 116.701 17.1758 115.289 17.1758C113.895 17.1758 112.828 16.7158 112.09 15.7959C111.352 14.876 110.974 13.5576 110.956 11.8408V9.48535C110.956 7.69824 111.325 6.3418 112.063 5.41602C112.808 4.49023 113.877 4.02734 115.271 4.02734C116.666 4.02734 117.732 4.4873 118.471 5.40723C119.209 6.32129 119.587 7.63672 119.604 9.35352V11.709ZM117.064 9.125C117.064 8.06445 116.918 7.29395 116.625 6.81348C116.338 6.32715 115.887 6.08398 115.271 6.08398C114.674 6.08398 114.231 6.31543 113.944 6.77832C113.663 7.23535 113.514 7.95313 113.496 8.93164V12.043C113.496 13.0859 113.637 13.8623 113.918 14.3721C114.205 14.876 114.662 15.1279 115.289 15.1279C115.91 15.1279 116.358 14.8848 116.634 14.3984C116.909 13.9121 117.053 13.168 117.064 12.166V9.125ZM129.94 11.709C129.94 13.4785 129.574 14.832 128.842 15.7695C128.109 16.707 127.037 17.1758 125.625 17.1758C124.23 17.1758 123.164 16.7158 122.426 15.7959C121.688 14.876 121.31 13.5576 121.292 11.8408V9.48535C121.292 7.69824 121.661 6.3418 122.399 5.41602C123.144 4.49023 124.213 4.02734 125.607 4.02734C127.002 4.02734 128.068 4.4873 128.807 5.40723C129.545 6.32129 129.923 7.63672 129.94 9.35352V11.709ZM127.4 9.125C127.4 8.06445 127.254 7.29395 126.961 6.81348C126.674 6.32715 126.223 6.08398 125.607 6.08398C125.01 6.08398 124.567 6.31543 124.28 6.77832C123.999 7.23535 123.85 7.95313 123.832 8.93164V12.043C123.832 13.0859 123.973 13.8623 124.254 14.3721C124.541 14.876 124.998 15.1279 125.625 15.1279C126.246 15.1279 126.694 14.8848 126.97 14.3984C127.245 13.9121 127.389 13.168 127.4 12.166V9.125ZM135.223 13.1855L134.309 14.0996V17H131.769V3.5H134.309V10.9795L134.801 10.3467L137.235 7.49023H140.285L136.849 11.4541L140.584 17H137.666L135.223 13.1855ZM140.839 12.1748C140.839 10.7158 141.185 9.54102 141.876 8.65039C142.573 7.75977 143.511 7.31445 144.688 7.31445C145.731 7.31445 146.543 7.67188 147.123 8.38672L147.229 7.49023H149.531V16.6836C149.531 17.5156 149.341 18.2393 148.96 18.8545C148.585 19.4697 148.055 19.9385 147.369 20.2607C146.684 20.583 145.881 20.7441 144.961 20.7441C144.264 20.7441 143.584 20.6035 142.922 20.3223C142.26 20.0469 141.759 19.6895 141.419 19.25L142.544 17.7031C143.177 18.4121 143.944 18.7666 144.847 18.7666C145.521 18.7666 146.045 18.585 146.42 18.2217C146.795 17.8643 146.982 17.3545 146.982 16.6924V16.1826C146.396 16.8447 145.626 17.1758 144.671 17.1758C143.528 17.1758 142.603 16.7305 141.894 15.8398C141.19 14.9434 140.839 13.7568 140.839 12.2803V12.1748ZM143.379 12.3594C143.379 13.2207 143.552 13.8975 143.897 14.3896C144.243 14.876 144.718 15.1191 145.321 15.1191C146.095 15.1191 146.648 14.8291 146.982 14.249V10.25C146.643 9.66992 146.095 9.37988 145.339 9.37988C144.729 9.37988 144.249 9.62891 143.897 10.127C143.552 10.625 143.379 11.3691 143.379 12.3594ZM166.187 12.7373C166.087 14.1143 165.577 15.1982 164.657 15.9893C163.743 16.7803 162.536 17.1758 161.036 17.1758C159.396 17.1758 158.104 16.625 157.16 15.5234C156.223 14.416 155.754 12.8984 155.754 10.9707V10.1885C155.754 8.95801 155.971 7.87402 156.404 6.93652C156.838 5.99902 157.456 5.28125 158.259 4.7832C159.067 4.2793 160.005 4.02734 161.071 4.02734C162.548 4.02734 163.737 4.42285 164.64 5.21387C165.542 6.00488 166.063 7.11523 166.204 8.54492H163.567C163.503 7.71875 163.271 7.12109 162.873 6.75195C162.48 6.37695 161.88 6.18945 161.071 6.18945C160.192 6.18945 159.533 6.50586 159.094 7.13867C158.66 7.76562 158.438 8.74121 158.426 10.0654V11.0322C158.426 12.415 158.634 13.4258 159.05 14.0645C159.472 14.7031 160.134 15.0225 161.036 15.0225C161.851 15.0225 162.457 14.8379 162.855 14.4688C163.26 14.0938 163.491 13.5166 163.55 12.7373H166.187ZM178.43 10.8916C178.43 12.1514 178.207 13.2559 177.762 14.2051C177.316 15.1543 176.678 15.8867 175.846 16.4023C175.02 16.918 174.07 17.1758 172.998 17.1758C171.938 17.1758 170.991 16.9209 170.159 16.4111C169.327 15.9014 168.683 15.1748 168.226 14.2314C167.769 13.2822 167.537 12.1924 167.531 10.9619V10.3291C167.531 9.06934 167.757 7.96191 168.208 7.00684C168.665 6.0459 169.307 5.31055 170.133 4.80078C170.965 4.28516 171.914 4.02734 172.98 4.02734C174.047 4.02734 174.993 4.28516 175.819 4.80078C176.651 5.31055 177.293 6.0459 177.744 7.00684C178.201 7.96191 178.43 9.06641 178.43 10.3203V10.8916ZM175.758 10.3115C175.758 8.96973 175.518 7.9502 175.037 7.25293C174.557 6.55566 173.871 6.20703 172.98 6.20703C172.096 6.20703 171.413 6.55273 170.933 7.24414C170.452 7.92969 170.209 8.9375 170.203 10.2676V10.8916C170.203 12.1982 170.443 13.2119 170.924 13.9326C171.404 14.6533 172.096 15.0137 172.998 15.0137C173.883 15.0137 174.562 14.668 175.037 13.9766C175.512 13.2793 175.752 12.2656 175.758 10.9355V10.3115ZM185.377 19.34H179.689V17.864L181.651 15.938C182.191 15.41 182.557 15.008 182.749 14.732C182.953 14.444 183.055 14.144 183.055 13.832C183.055 13.616 182.983 13.448 182.839 13.328C182.707 13.208 182.521 13.148 182.281 13.148C181.813 13.148 181.285 13.406 180.697 13.922L179.617 12.59C180.001 12.254 180.427 11.984 180.895 11.78C181.375 11.564 181.933 11.456 182.569 11.456C183.349 11.456 183.973 11.648 184.441 12.032C184.921 12.404 185.161 12.944 185.161 13.652C185.161 14.192 185.011 14.684 184.711 15.128C184.411 15.572 183.907 16.112 183.199 16.748L182.281 17.576H185.377V19.34ZM191.376 17.1758C189.981 17.1758 188.845 16.748 187.966 15.8926C187.093 15.0371 186.656 13.8975 186.656 12.4736V12.2275C186.656 11.2725 186.841 10.4199 187.21 9.66992C187.579 8.91406 188.101 8.33398 188.774 7.92969C189.454 7.51953 190.228 7.31445 191.095 7.31445C192.396 7.31445 193.418 7.72461 194.162 8.54492C194.912 9.36523 195.287 10.5283 195.287 12.0342V13.0713H189.231C189.313 13.6924 189.56 14.1904 189.97 14.5654C190.386 14.9404 190.91 15.1279 191.543 15.1279C192.521 15.1279 193.286 14.7734 193.837 14.0645L195.085 15.4619C194.704 16.001 194.188 16.4229 193.538 16.7275C192.888 17.0264 192.167 17.1758 191.376 17.1758ZM191.086 9.37109C190.582 9.37109 190.172 9.54102 189.855 9.88086C189.545 10.2207 189.346 10.707 189.258 11.3398H192.791V11.1377C192.779 10.5752 192.627 10.1416 192.334 9.83691C192.041 9.52637 191.625 9.37109 191.086 9.37109ZM196.342 12.1572C196.342 10.6631 196.673 9.48242 197.335 8.61523C198.003 7.74805 198.917 7.31445 200.077 7.31445C201.097 7.31445 201.908 7.7041 202.512 8.4834L202.679 7.49023H204.911V20.6562H202.362V16.1826C201.776 16.8447 201.009 17.1758 200.06 17.1758C198.929 17.1758 198.026 16.7363 197.353 15.8574C196.679 14.9785 196.342 13.7451 196.342 12.1572ZM198.882 12.3418C198.882 13.25 199.04 13.9414 199.356 14.416C199.679 14.8906 200.13 15.1279 200.71 15.1279C201.489 15.1279 202.04 14.8174 202.362 14.1963V10.2676C202.046 9.66992 201.501 9.37109 200.728 9.37109C200.142 9.37109 199.688 9.6084 199.365 10.083C199.043 10.5576 198.882 11.3105 198.882 12.3418Z" fill="#00C7A5"/>
<circle cx="200.486" cy="468.486" r="7.48585" fill="#FBC800" fill-opacity="0.2"/>
<circle cx="32.4859" cy="483.486" r="7.48585" fill="#FBC800" fill-opacity="0.2"/>
<circle cx="24.4859" cy="468.486" r="7.48585" fill="#FBC800" fill-opacity="0.2"/>
<circle cx="64.4859" cy="423.486" r="7.48585" fill="#FBC800" fill-opacity="0.2"/>
<circle cx="208.486" cy="423.486" r="7.48585" fill="#FBC800" fill-opacity="0.2"/>
<circle cx="80.4859" cy="423.486" r="7.48585" fill="#FBC800" fill-opacity="0.2"/>
<circle cx="23.4859" cy="438.486" r="7.48585" fill="#FBC800" fill-opacity="0.2"/>
<circle cx="112.486" cy="483.486" r="7.48585" fill="#FBC800" fill-opacity="0.2"/>
<circle cx="160.486" cy="423.486" r="7.48585" fill="#FBC800" fill-opacity="0.2"/>
<circle cx="48.4859" cy="483.486" r="7.48585" fill="#FBC800" fill-opacity="0.2"/>
<circle cx="32.4859" cy="453.486" r="7.48585" fill="#FBC800" fill-opacity="0.2"/>
<circle cx="39.4859" cy="438.486" r="7.48585" fill="#FBC800" fill-opacity="0.2"/>
<circle cx="16.4859" cy="483.486" r="7.48585" fill="#FBC800" fill-opacity="0.2"/>
<circle cx="200.486" cy="438.486" r="7.48585" fill="#FBC800" fill-opacity="0.2"/>
<circle cx="16.4859" cy="423.486" r="7.48585" fill="#FBC800" fill-opacity="0.2"/>
<circle cx="176.486" cy="453.486" r="7.48585" fill="#FBC800" fill-opacity="0.2"/>
<circle cx="208.486" cy="483.486" r="7.48585" fill="#FBC800" fill-opacity="0.2"/>
<circle cx="96.4859" cy="423.486" r="7.48585" fill="#FBC800" fill-opacity="0.2"/>
<circle cx="128.486" cy="423.486" r="7.48585" fill="#FBC800" fill-opacity="0.2"/>
<circle cx="16.4859" cy="453.486" r="7.48585" fill="#FBC800" fill-opacity="0.2"/>
<circle cx="176.486" cy="423.486" r="7.48585" fill="#FBC800" fill-opacity="0.2"/>
<circle cx="192.486" cy="453.486" r="7.48585" fill="#FBC800" fill-opacity="0.2"/>
<circle cx="112.486" cy="423.486" r="7.48585" fill="#FBC800" fill-opacity="0.2"/>
<circle cx="144.486" cy="423.486" r="7.48585" fill="#FBC800" fill-opacity="0.2"/>
<circle cx="55.4859" cy="438.486" r="7.48585" fill="#FBC800" fill-opacity="0.2"/>
<circle cx="8.48586" cy="468.486" r="7.48585" fill="#FBC800" fill-opacity="0.2"/>
<circle cx="32.4859" cy="423.486" r="7.48585" fill="#FBC800" fill-opacity="0.2"/>
<circle cx="48.4859" cy="423.486" r="7.48585" fill="#FBC800" fill-opacity="0.2"/>
<circle cx="144.486" cy="483.486" r="7.48585" fill="#FBC800" fill-opacity="0.2"/>
<circle cx="192.486" cy="423.486" r="7.48585" fill="#FBC800" fill-opacity="0.2"/>
<circle cx="112.486" cy="453.486" r="7.48585" fill="#FBC800" fill-opacity="0.2"/>
<circle cx="144.486" cy="453.486" r="7.48585" fill="#FBC800" fill-opacity="0.2"/>
<circle cx="72.4859" cy="438.486" r="7.48585" fill="#FBC800" fill-opacity="0.2"/>
<circle cx="104.486" cy="438.486" r="7.48585" fill="#FBC800" fill-opacity="0.2"/>
<circle cx="136.486" cy="438.486" r="7.48585" fill="#FBC800" fill-opacity="0.2"/>
<circle cx="152.486" cy="438.486" r="7.48585" fill="#FBC800" fill-opacity="0.2"/>
<circle cx="128.486" cy="483.486" r="7.48585" fill="#FBC800" fill-opacity="0.2"/>
<circle cx="56.4859" cy="468.486" r="7.48585" fill="#FBC800" fill-opacity="0.2"/>
<circle cx="104.486" cy="468.486" r="7.48585" fill="#FBC800" fill-opacity="0.2"/>
<circle cx="136.486" cy="468.486" r="7.48585" fill="#FBC800" fill-opacity="0.2"/>
<circle cx="168.486" cy="468.486" r="7.48585" fill="#FBC800" fill-opacity="0.2"/>
<circle cx="80.4859" cy="453.486" r="7.48585" fill="#FBC800" fill-opacity="0.2"/>
<circle cx="48.4859" cy="453.486" r="7.48585" fill="#FBC800" fill-opacity="0.2"/>
<circle cx="128.486" cy="453.486" r="7.48585" fill="#FBC800" fill-opacity="0.2"/>
<circle cx="160.486" cy="453.486" r="7.48585" fill="#FBC800" fill-opacity="0.2"/>
<circle cx="88.4859" cy="438.486" r="7.48585" fill="#FBC800" fill-opacity="0.2"/>
<circle cx="120.486" cy="438.486" r="7.48585" fill="#FBC800" fill-opacity="0.2"/>
<circle cx="40.4859" cy="468.486" r="7.48585" fill="#FBC800" fill-opacity="0.2"/>
<circle cx="168.486" cy="438.486" r="7.48585" fill="#FBC800" fill-opacity="0.2"/>
<circle cx="184.486" cy="438.486" r="7.48585" fill="#FBC800" fill-opacity="0.2"/>
<circle cx="88.4859" cy="468.486" r="7.48585" fill="#FBC800" fill-opacity="0.2"/>
<circle cx="72.4859" cy="468.486" r="7.48585" fill="#FBC800" fill-opacity="0.2"/>
<circle cx="120.486" cy="468.486" r="7.48585" fill="#FBC800" fill-opacity="0.2"/>
<circle cx="152.486" cy="468.486" r="7.48585" fill="#FBC800" fill-opacity="0.2"/>
<circle cx="184.486" cy="468.486" r="7.48585" fill="#FBC800" fill-opacity="0.2"/>
<circle cx="96.4859" cy="453.486" r="7.48585" fill="#FBC800" fill-opacity="0.2"/>
<circle cx="64.4859" cy="453.486" r="7.48585" fill="#FBC800" fill-opacity="0.2"/>
<circle cx="64.4859" cy="483.486" r="7.48585" fill="#FBC800" fill-opacity="0.2"/>
<circle cx="160.486" cy="483.486" r="7.48585" fill="#FBC800" fill-opacity="0.2"/>
<circle cx="80.4859" cy="483.486" r="7.48585" fill="#FBC800" fill-opacity="0.2"/>
<circle cx="176.486" cy="483.486" r="7.48585" fill="#FBC800" fill-opacity="0.2"/>
<circle cx="96.4859" cy="483.486" r="7.48585" fill="#FBC800" fill-opacity="0.2"/>
<circle cx="192.486" cy="483.486" r="7.48585" fill="#FBC800" fill-opacity="0.2"/>
<circle cx="208.486" cy="453.486" r="7.48585" fill="#FBC800" fill-opacity="0.2"/>
<circle cx="208.486" cy="513.486" r="7.48585" fill="#FBC800" fill-opacity="0.2"/>
<circle cx="40.4859" cy="528.486" r="7.48585" fill="#FBC800" fill-opacity="0.2"/>
<circle cx="32.4859" cy="513.486" r="7.48585" fill="#FBC800" fill-opacity="0.2"/>
<circle cx="120.486" cy="528.486" r="7.48585" fill="#FBC800" fill-opacity="0.2"/>
<circle cx="56.4859" cy="528.486" r="7.48585" fill="#FBC800" fill-opacity="0.2"/>
<circle cx="40.4859" cy="498.486" r="7.48585" fill="#FBC800" fill-opacity="0.2"/>
<circle cx="24.4859" cy="528.486" r="7.48585" fill="#FBC800" fill-opacity="0.2"/>
<circle cx="184.486" cy="498.486" r="7.48585" fill="#FBC800" fill-opacity="0.2"/>
<circle cx="24.4859" cy="498.486" r="7.48585" fill="#FBC800" fill-opacity="0.2"/>
<circle cx="200.486" cy="498.486" r="7.48585" fill="#FBC800" fill-opacity="0.2"/>
<circle cx="16.4859" cy="513.486" r="7.48585" fill="#FBC800" fill-opacity="0.2"/>
<circle cx="152.486" cy="528.486" r="7.48585" fill="#FBC800" fill-opacity="0.2"/>
<circle cx="120.486" cy="498.486" r="7.48585" fill="#FBC800" fill-opacity="0.2"/>
<circle cx="152.486" cy="498.486" r="7.48585" fill="#FBC800" fill-opacity="0.2"/>
<circle cx="136.486" cy="528.486" r="7.48585" fill="#FBC800" fill-opacity="0.2"/>
<circle cx="64.4859" cy="513.486" r="7.48585" fill="#FBC800" fill-opacity="0.2"/>
<circle cx="112.486" cy="513.486" r="7.48585" fill="#FBC800" fill-opacity="0.2"/>
<circle cx="144.486" cy="513.486" r="7.48585" fill="#FBC800" fill-opacity="0.2"/>
<circle cx="176.486" cy="513.486" r="7.48585" fill="#FBC800" fill-opacity="0.2"/>
<circle cx="88.4859" cy="498.486" r="7.48585" fill="#FBC800" fill-opacity="0.2"/>
<circle cx="56.4859" cy="498.486" r="7.48585" fill="#FBC800" fill-opacity="0.2"/>
<circle cx="136.486" cy="498.486" r="7.48585" fill="#FBC800" fill-opacity="0.2"/>
<circle cx="168.486" cy="498.486" r="7.48585" fill="#FBC800" fill-opacity="0.2"/>
<circle cx="48.4859" cy="513.486" r="7.48585" fill="#FBC800" fill-opacity="0.2"/>
<circle cx="96.4859" cy="513.486" r="7.48585" fill="#FBC800" fill-opacity="0.2"/>
<circle cx="80.4859" cy="513.486" r="7.48585" fill="#FBC800" fill-opacity="0.2"/>
<circle cx="128.486" cy="513.486" r="7.48585" fill="#FBC800" fill-opacity="0.2"/>
<circle cx="160.486" cy="513.486" r="7.48585" fill="#FBC800" fill-opacity="0.2"/>
<circle cx="192.486" cy="513.486" r="7.48585" fill="#FBC800" fill-opacity="0.2"/>
<circle cx="104.486" cy="498.486" r="7.48585" fill="#FBC800" fill-opacity="0.2"/>
<circle cx="72.4859" cy="498.486" r="7.48585" fill="#FBC800" fill-opacity="0.2"/>
<circle cx="72.4859" cy="528.486" r="7.48585" fill="#FBC800" fill-opacity="0.2"/>
<circle cx="168.486" cy="528.486" r="7.48585" fill="#FBC800" fill-opacity="0.2"/>
<circle cx="88.4859" cy="528.486" r="7.48585" fill="#FBC800" fill-opacity="0.2"/>
<circle cx="184.486" cy="528.486" r="7.48585" fill="#FBC800" fill-opacity="0.2"/>
<circle cx="104.486" cy="528.486" r="7.48585" fill="#FBC800" fill-opacity="0.2"/>
<circle cx="200.486" cy="528.486" r="7.48585" fill="#FBC800" fill-opacity="0.2"/>
</svg>
