<svg width="222" height="589" viewBox="0 0 222 589" fill="none" xmlns="http://www.w3.org/2000/svg">
<rect y="94" width="222" height="375" fill="white" fill-opacity="0.3"/>
<circle cx="151.486" cy="251.486" r="7.48585" fill="#00C7A5" fill-opacity="0.2"/>
<circle cx="119.486" cy="251.486" r="7.48585" fill="#00C7A5" fill-opacity="0.2"/>
<circle cx="15.4859" cy="176.486" r="7.48585" fill="#00C7A5" fill-opacity="0.2"/>
<circle cx="39.4859" cy="251.486" r="7.48585" fill="#00C7A5" fill-opacity="0.2"/>
<circle cx="79.4859" cy="326.486" r="7.48585" fill="#00C7A5" fill-opacity="0.2"/>
<circle cx="167.486" cy="341.486" r="7.48585" fill="#00C7A5" fill-opacity="0.2"/>
<circle cx="183.486" cy="281.486" r="7.48585" fill="#00C7A5" fill-opacity="0.2"/>
<circle cx="39.4859" cy="191.486" r="7.48585" fill="#00C7A5" fill-opacity="0.2"/>
<circle cx="23.4859" cy="131.486" r="7.48585" fill="#00C7A5" fill-opacity="0.2"/>
<circle cx="95.4859" cy="266.486" r="7.48585" fill="#00C7A5" fill-opacity="0.2"/>
<circle cx="199.486" cy="251.486" r="7.48585" fill="#00C7A5" fill-opacity="0.2"/>
<circle cx="199.486" cy="311.486" r="7.48585" fill="#00C7A5" fill-opacity="0.2"/>
<circle cx="111.486" cy="356.486" r="7.48585" fill="#00C7A5" fill-opacity="0.2"/>
<circle cx="143.486" cy="356.486" r="7.48585" fill="#00C7A5" fill-opacity="0.2"/>
<circle cx="127.486" cy="266.486" r="7.48585" fill="#00C7A5" fill-opacity="0.2"/>
<circle cx="183.486" cy="251.486" r="7.48585" fill="#00C7A5" fill-opacity="0.2"/>
<circle cx="63.4859" cy="326.486" r="7.48585" fill="#00C7A5" fill-opacity="0.2"/>
<circle cx="79.4859" cy="266.486" r="7.48585" fill="#00C7A5" fill-opacity="0.2"/>
<circle cx="159.486" cy="326.486" r="7.48585" fill="#00C7A5" fill-opacity="0.2"/>
<circle cx="31.4859" cy="206.486" r="7.48585" fill="#00C7A5" fill-opacity="0.2"/>
<circle cx="143.486" cy="266.486" r="7.48585" fill="#00C7A5" fill-opacity="0.2"/>
<circle cx="15.4859" cy="266.486" r="7.48585" fill="#00C7A5" fill-opacity="0.2"/>
<circle cx="95.4859" cy="356.486" r="7.48585" fill="#00C7A5" fill-opacity="0.2"/>
<circle cx="127.486" cy="356.486" r="7.48585" fill="#00C7A5" fill-opacity="0.2"/>
<circle cx="151.486" cy="341.486" r="7.48585" fill="#00C7A5" fill-opacity="0.2"/>
<circle cx="111.486" cy="236.486" r="7.48585" fill="#00C7A5" fill-opacity="0.2"/>
<circle cx="135.486" cy="251.486" r="7.48585" fill="#00C7A5" fill-opacity="0.2"/>
<circle cx="127.486" cy="296.486" r="7.48585" fill="#00C7A5" fill-opacity="0.2"/>
<circle cx="207.486" cy="236.486" r="7.48585" fill="#00C7A5" fill-opacity="0.2"/>
<circle cx="31.4859" cy="296.486" r="7.48585" fill="#00C7A5" fill-opacity="0.2"/>
<circle cx="183.486" cy="311.486" r="7.48585" fill="#00C7A5" fill-opacity="0.2"/>
<circle cx="207.486" cy="326.486" r="7.48585" fill="#00C7A5" fill-opacity="0.2"/>
<circle cx="151.486" cy="311.486" r="7.48585" fill="#00C7A5" fill-opacity="0.2"/>
<circle cx="31.4859" cy="176.486" r="7.48585" fill="#00C7A5" fill-opacity="0.2"/>
<circle cx="199.486" cy="161.486" r="7.48585" fill="#00C7A5" fill-opacity="0.2"/>
<circle cx="31.4859" cy="266.486" r="7.48585" fill="#00C7A5" fill-opacity="0.2"/>
<circle cx="7.48585" cy="281.486" r="7.48585" fill="#00C7A5" fill-opacity="0.2"/>
<circle cx="103.486" cy="131.486" r="7.48585" fill="#00C7A5" fill-opacity="0.2"/>
<circle cx="87.4859" cy="161.486" r="7.48585" fill="#00C7A5" fill-opacity="0.2"/>
<circle cx="95.4859" cy="146.486" r="7.48585" fill="#00C7A5" fill-opacity="0.2"/>
<circle cx="95.4859" cy="176.486" r="7.48585" fill="#00C7A5" fill-opacity="0.2"/>
<circle cx="103.486" cy="191.486" r="7.48585" fill="#00C7A5" fill-opacity="0.2"/>
<circle cx="95.4859" cy="206.486" r="7.48585" fill="#00C7A5" fill-opacity="0.2"/>
<circle cx="103.486" cy="221.486" r="7.48585" fill="#00C7A5" fill-opacity="0.2"/>
<circle cx="191.486" cy="236.486" r="7.48585" fill="#00C7A5" fill-opacity="0.2"/>
<circle cx="39.4859" cy="131.486" r="7.48585" fill="#00C7A5" fill-opacity="0.2"/>
<circle cx="183.486" cy="161.486" r="7.48585" fill="#00C7A5" fill-opacity="0.2"/>
<circle cx="87.4859" cy="281.486" r="7.48585" fill="#00C7A5" fill-opacity="0.2"/>
<circle cx="71.4859" cy="311.486" r="7.48585" fill="#00C7A5" fill-opacity="0.2"/>
<circle cx="23.4859" cy="281.486" r="7.48585" fill="#00C7A5" fill-opacity="0.2"/>
<circle cx="175.486" cy="326.486" r="7.48585" fill="#00C7A5" fill-opacity="0.2"/>
<circle cx="191.486" cy="356.486" r="7.48585" fill="#00C7A5" fill-opacity="0.2"/>
<circle cx="39.4859" cy="221.486" r="7.48585" fill="#00C7A5" fill-opacity="0.2"/>
<circle cx="159.486" cy="266.486" r="7.48585" fill="#00C7A5" fill-opacity="0.2"/>
<circle cx="23.4859" cy="251.486" r="7.48585" fill="#00C7A5" fill-opacity="0.2"/>
<circle cx="95.4859" cy="236.486" r="7.48585" fill="#00C7A5" fill-opacity="0.2"/>
<circle cx="23.4859" cy="161.486" r="7.48585" fill="#00C7A5" fill-opacity="0.2"/>
<circle cx="111.486" cy="296.486" r="7.48585" fill="#00C7A5" fill-opacity="0.2"/>
<circle cx="191.486" cy="266.486" r="7.48585" fill="#00C7A5" fill-opacity="0.2"/>
<circle cx="167.486" cy="311.486" r="7.48585" fill="#00C7A5" fill-opacity="0.2"/>
<circle cx="191.486" cy="326.486" r="7.48585" fill="#00C7A5" fill-opacity="0.2"/>
<circle cx="199.486" cy="281.486" r="7.48585" fill="#00C7A5" fill-opacity="0.2"/>
<circle cx="191.486" cy="146.486" r="7.48585" fill="#00C7A5" fill-opacity="0.2"/>
<circle cx="23.4859" cy="221.486" r="7.48585" fill="#00C7A5" fill-opacity="0.2"/>
<circle cx="167.486" cy="281.486" r="7.48585" fill="#00C7A5" fill-opacity="0.2"/>
<circle cx="111.486" cy="326.486" r="7.48585" fill="#00C7A5" fill-opacity="0.2"/>
<circle cx="199.486" cy="341.486" r="7.48585" fill="#00C7A5" fill-opacity="0.2"/>
<circle cx="207.486" cy="296.486" r="7.48585" fill="#00C7A5" fill-opacity="0.2"/>
<circle cx="207.486" cy="356.486" r="7.48585" fill="#00C7A5" fill-opacity="0.2"/>
<circle cx="47.4859" cy="236.486" r="7.48585" fill="#00C7A5" fill-opacity="0.2"/>
<circle cx="199.486" cy="131.486" r="7.48585" fill="#00C7A5" fill-opacity="0.2"/>
<circle cx="47.4859" cy="266.486" r="7.48585" fill="#00C7A5" fill-opacity="0.2"/>
<circle cx="15.4859" cy="296.486" r="7.48585" fill="#00C7A5" fill-opacity="0.2"/>
<circle cx="15.4859" cy="145.486" r="7.48585" fill="#00C7A5" fill-opacity="0.2"/>
<circle cx="79.4859" cy="236.486" r="7.48585" fill="#00C7A5" fill-opacity="0.2"/>
<circle cx="135.486" cy="341.486" r="7.48585" fill="#00C7A5" fill-opacity="0.2"/>
<circle cx="175.486" cy="356.486" r="7.48585" fill="#00C7A5" fill-opacity="0.2"/>
<circle cx="95.4859" cy="296.486" r="7.48585" fill="#00C7A5" fill-opacity="0.2"/>
<circle cx="15.4859" cy="356.486" r="7.48585" fill="#00C7A5" fill-opacity="0.2"/>
<circle cx="127.486" cy="326.486" r="7.48585" fill="#00C7A5" fill-opacity="0.2"/>
<circle cx="7.48585" cy="311.486" r="7.48585" fill="#00C7A5" fill-opacity="0.2"/>
<circle cx="39.4859" cy="341.486" r="7.48585" fill="#00C7A5" fill-opacity="0.2"/>
<circle cx="31.4859" cy="236.486" r="7.48585" fill="#00C7A5" fill-opacity="0.2"/>
<circle cx="55.4859" cy="341.486" r="7.48585" fill="#00C7A5" fill-opacity="0.2"/>
<circle cx="31.4859" cy="356.486" r="7.48585" fill="#00C7A5" fill-opacity="0.2"/>
<circle cx="63.4859" cy="296.486" r="7.48585" fill="#00C7A5" fill-opacity="0.2"/>
<circle cx="39.4859" cy="311.486" r="7.48585" fill="#00C7A5" fill-opacity="0.2"/>
<circle cx="23.4859" cy="341.486" r="7.48585" fill="#00C7A5" fill-opacity="0.2"/>
<circle cx="31.4859" cy="326.486" r="7.48585" fill="#00C7A5" fill-opacity="0.2"/>
<circle cx="47.4859" cy="326.486" r="7.48585" fill="#00C7A5" fill-opacity="0.2"/>
<circle cx="135.486" cy="131.486" r="7.48585" fill="#00C7A5" fill-opacity="0.2"/>
<circle cx="119.486" cy="161.486" r="7.48585" fill="#00C7A5" fill-opacity="0.2"/>
<circle cx="127.486" cy="146.486" r="7.48585" fill="#00C7A5" fill-opacity="0.2"/>
<circle cx="127.486" cy="176.486" r="7.48585" fill="#00C7A5" fill-opacity="0.2"/>
<circle cx="135.486" cy="191.486" r="7.48585" fill="#00C7A5" fill-opacity="0.2"/>
<circle cx="127.486" cy="206.486" r="7.48585" fill="#00C7A5" fill-opacity="0.2"/>
<circle cx="135.486" cy="221.486" r="7.48585" fill="#00C7A5" fill-opacity="0.2"/>
<circle cx="63.4859" cy="236.486" r="7.48585" fill="#00C7A5" fill-opacity="0.2"/>
<circle cx="143.486" cy="236.486" r="7.48585" fill="#00C7A5" fill-opacity="0.2"/>
<circle cx="79.4859" cy="296.486" r="7.48585" fill="#00C7A5" fill-opacity="0.2"/>
<circle cx="119.486" cy="281.486" r="7.48585" fill="#00C7A5" fill-opacity="0.2"/>
<circle cx="143.486" cy="326.486" r="7.48585" fill="#00C7A5" fill-opacity="0.2"/>
<circle cx="7.48585" cy="341.486" r="7.48585" fill="#00C7A5" fill-opacity="0.2"/>
<circle cx="103.486" cy="311.486" r="7.48585" fill="#00C7A5" fill-opacity="0.2"/>
<circle cx="103.486" cy="101.486" r="7.48585" fill="#00C7A5" fill-opacity="0.2"/>
<circle cx="135.486" cy="101.486" r="7.48585" fill="#00C7A5" fill-opacity="0.2"/>
<circle cx="103.486" cy="251.486" r="7.48585" fill="#00C7A5" fill-opacity="0.2"/>
<circle cx="55.4859" cy="281.486" r="7.48585" fill="#00C7A5" fill-opacity="0.2"/>
<circle cx="47.4859" cy="296.486" r="7.48585" fill="#00C7A5" fill-opacity="0.2"/>
<circle cx="119.486" cy="131.486" r="7.48585" fill="#00C7A5" fill-opacity="0.2"/>
<circle cx="103.486" cy="161.486" r="7.48585" fill="#00C7A5" fill-opacity="0.2"/>
<circle cx="111.486" cy="146.486" r="7.48585" fill="#FBC800"/>
<circle cx="111.486" cy="176.486" r="7.48585" fill="#00C7A5" fill-opacity="0.2"/>
<circle cx="119.486" cy="191.486" r="7.48585" fill="#00C7A5" fill-opacity="0.2"/>
<circle cx="111.486" cy="206.486" r="7.48585" fill="#00C7A5" fill-opacity="0.2"/>
<circle cx="119.486" cy="221.486" r="7.48585" fill="#00C7A5" fill-opacity="0.2"/>
<circle cx="47.4859" cy="116.486" r="7.48585" fill="#00C7A5" fill-opacity="0.2"/>
<circle cx="95.4859" cy="116.486" r="7.48585" fill="#00C7A5" fill-opacity="0.2"/>
<circle cx="167.486" cy="251.486" r="7.48585" fill="#00C7A5" fill-opacity="0.2"/>
<circle cx="127.486" cy="116.486" r="7.48585" fill="#00C7A5" fill-opacity="0.2"/>
<circle cx="103.486" cy="281.486" r="7.48585" fill="#00C7A5" fill-opacity="0.2"/>
<circle cx="159.486" cy="116.486" r="7.48585" fill="#00C7A5" fill-opacity="0.2"/>
<circle cx="39.4859" cy="281.486" r="7.48585" fill="#00C7A5" fill-opacity="0.2"/>
<circle cx="119.486" cy="101.486" r="7.48585" fill="#00C7A5" fill-opacity="0.2"/>
<circle cx="111.486" cy="266.486" r="7.48585" fill="#00C7A5" fill-opacity="0.2"/>
<circle cx="143.486" cy="296.486" r="7.48585" fill="#00C7A5" fill-opacity="0.2"/>
<circle cx="31.4859" cy="116.486" r="7.48585" fill="#00C7A5" fill-opacity="0.2"/>
<circle cx="191.486" cy="296.486" r="7.48585" fill="#00C7A5" fill-opacity="0.2"/>
<circle cx="79.4859" cy="116.486" r="7.48585" fill="#00C7A5" fill-opacity="0.2"/>
<circle cx="63.4859" cy="116.486" r="7.48585" fill="#00C7A5" fill-opacity="0.2"/>
<circle cx="111.486" cy="116.486" r="7.48585" fill="#00C7A5" fill-opacity="0.2"/>
<circle cx="87.4859" cy="251.486" r="7.48585" fill="#00C7A5" fill-opacity="0.2"/>
<circle cx="143.486" cy="116.486" r="7.48585" fill="#00C7A5" fill-opacity="0.2"/>
<circle cx="175.486" cy="116.486" r="7.48585" fill="#00C7A5" fill-opacity="0.2"/>
<circle cx="71.4859" cy="341.486" r="7.48585" fill="#00C7A5" fill-opacity="0.2"/>
<circle cx="47.4859" cy="356.486" r="7.48585" fill="#00C7A5" fill-opacity="0.2"/>
<circle cx="87.4859" cy="101.486" r="7.48585" fill="#00C7A5" fill-opacity="0.2"/>
<circle cx="191.486" cy="206.486" r="7.48585" fill="#00C7A5" fill-opacity="0.2"/>
<circle cx="55.4859" cy="251.486" r="7.48585" fill="#00C7A5" fill-opacity="0.2"/>
<circle cx="71.4859" cy="251.486" r="7.48585" fill="#00C7A5" fill-opacity="0.2"/>
<circle cx="159.486" cy="296.486" r="7.48585" fill="#00C7A5" fill-opacity="0.2"/>
<circle cx="7.48585" cy="160.486" r="7.48585" fill="#00C7A5" fill-opacity="0.2"/>
<circle cx="95.4859" cy="326.486" r="7.48585" fill="#00C7A5" fill-opacity="0.2"/>
<circle cx="183.486" cy="341.486" r="7.48585" fill="#00C7A5" fill-opacity="0.2"/>
<circle cx="103.486" cy="341.486" r="7.48585" fill="#00C7A5" fill-opacity="0.2"/>
<circle cx="79.4859" cy="356.486" r="7.48585" fill="#00C7A5" fill-opacity="0.2"/>
<circle cx="87.4859" cy="341.486" r="7.48585" fill="#00C7A5" fill-opacity="0.2"/>
<circle cx="63.4859" cy="356.486" r="7.48585" fill="#00C7A5" fill-opacity="0.2"/>
<circle cx="55.4859" cy="131.486" r="7.48585" fill="#00C7A5" fill-opacity="0.2"/>
<circle cx="39.4859" cy="161.486" r="7.48585" fill="#00C7A5" fill-opacity="0.2"/>
<circle cx="47.4859" cy="146.486" r="7.48585" fill="#00C7A5" fill-opacity="0.2"/>
<circle cx="47.4859" cy="176.486" r="7.48585" fill="#00C7A5" fill-opacity="0.2"/>
<circle cx="55.4859" cy="191.486" r="7.48585" fill="#00C7A5" fill-opacity="0.2"/>
<circle cx="47.4859" cy="206.486" r="7.48585" fill="#00C7A5" fill-opacity="0.2"/>
<circle cx="55.4859" cy="221.486" r="7.48585" fill="#00C7A5" fill-opacity="0.2"/>
<circle cx="151.486" cy="131.486" r="7.48585" fill="#00C7A5" fill-opacity="0.2"/>
<circle cx="135.486" cy="161.486" r="7.48585" fill="#00C7A5" fill-opacity="0.2"/>
<circle cx="143.486" cy="146.486" r="7.48585" fill="#00C7A5" fill-opacity="0.2"/>
<circle cx="143.486" cy="176.486" r="7.48585" fill="#00C7A5" fill-opacity="0.2"/>
<circle cx="151.486" cy="191.486" r="7.48585" fill="#00C7A5" fill-opacity="0.2"/>
<circle cx="143.486" cy="206.486" r="7.48585" fill="#00C7A5" fill-opacity="0.2"/>
<circle cx="151.486" cy="221.486" r="7.48585" fill="#00C7A5" fill-opacity="0.2"/>
<circle cx="31.4859" cy="146.486" r="7.48585" fill="#00C7A5" fill-opacity="0.2"/>
<circle cx="23.4859" cy="311.486" r="7.48585" fill="#00C7A5" fill-opacity="0.2"/>
<circle cx="15.4859" cy="326.486" r="7.48585" fill="#00C7A5" fill-opacity="0.2"/>
<circle cx="159.486" cy="236.486" r="7.48585" fill="#00C7A5" fill-opacity="0.2"/>
<circle cx="127.486" cy="236.486" r="7.48585" fill="#00C7A5" fill-opacity="0.2"/>
<circle cx="135.486" cy="281.486" r="7.48585" fill="#00C7A5" fill-opacity="0.2"/>
<circle cx="175.486" cy="296.486" r="7.48585" fill="#00C7A5" fill-opacity="0.2"/>
<circle cx="119.486" cy="341.486" r="7.48585" fill="#00C7A5" fill-opacity="0.2"/>
<circle cx="159.486" cy="356.486" r="7.48585" fill="#00C7A5" fill-opacity="0.2"/>
<circle cx="119.486" cy="311.486" r="7.48585" fill="#00C7A5" fill-opacity="0.2"/>
<circle cx="71.4859" cy="131.486" r="7.48585" fill="#00C7A5" fill-opacity="0.2"/>
<circle cx="55.4859" cy="161.486" r="7.48585" fill="#00C7A5" fill-opacity="0.2"/>
<circle cx="63.4859" cy="146.486" r="7.48585" fill="#00C7A5" fill-opacity="0.2"/>
<circle cx="63.4859" cy="176.486" r="7.48585" fill="#00C7A5" fill-opacity="0.2"/>
<circle cx="71.4859" cy="191.486" r="7.48585" fill="#00C7A5" fill-opacity="0.2"/>
<circle cx="63.4859" cy="206.486" r="7.48585" fill="#00C7A5" fill-opacity="0.2"/>
<circle cx="71.4859" cy="221.486" r="7.48585" fill="#00C7A5" fill-opacity="0.2"/>
<circle cx="167.486" cy="131.486" r="7.48585" fill="#00C7A5" fill-opacity="0.2"/>
<circle cx="151.486" cy="161.486" r="7.48585" fill="#00C7A5" fill-opacity="0.2"/>
<circle cx="159.486" cy="146.486" r="7.48585" fill="#00C7A5" fill-opacity="0.2"/>
<circle cx="159.486" cy="176.486" r="7.48585" fill="#00C7A5" fill-opacity="0.2"/>
<circle cx="167.486" cy="191.486" r="7.48585" fill="#00C7A5" fill-opacity="0.2"/>
<circle cx="159.486" cy="206.486" r="7.48585" fill="#00C7A5" fill-opacity="0.2"/>
<circle cx="167.486" cy="221.486" r="7.48585" fill="#00C7A5" fill-opacity="0.2"/>
<circle cx="207.486" cy="206.486" r="7.48585" fill="#00C7A5" fill-opacity="0.2"/>
<circle cx="175.486" cy="236.486" r="7.48585" fill="#00C7A5" fill-opacity="0.2"/>
<circle cx="63.4859" cy="266.486" r="7.48585" fill="#00C7A5" fill-opacity="0.2"/>
<circle cx="151.486" cy="281.486" r="7.48585" fill="#00C7A5" fill-opacity="0.2"/>
<circle cx="87.4859" cy="311.486" r="7.48585" fill="#00C7A5" fill-opacity="0.2"/>
<circle cx="55.4859" cy="311.486" r="7.48585" fill="#00C7A5" fill-opacity="0.2"/>
<circle cx="87.4859" cy="131.486" r="7.48585" fill="#00C7A5" fill-opacity="0.2"/>
<circle cx="71.4859" cy="161.486" r="7.48585" fill="#00C7A5" fill-opacity="0.2"/>
<circle cx="79.4859" cy="146.486" r="7.48585" fill="#00C7A5" fill-opacity="0.2"/>
<circle cx="79.4859" cy="176.486" r="7.48585" fill="#00C7A5" fill-opacity="0.2"/>
<circle cx="87.4859" cy="191.486" r="7.48585" fill="#00C7A5" fill-opacity="0.2"/>
<circle cx="79.4859" cy="206.486" r="7.48585" fill="#00C7A5" fill-opacity="0.2"/>
<circle cx="87.4859" cy="221.486" r="7.48585" fill="#00C7A5" fill-opacity="0.2"/>
<circle cx="183.486" cy="131.486" r="7.48585" fill="#00C7A5" fill-opacity="0.2"/>
<circle cx="167.486" cy="161.486" r="7.48585" fill="#00C7A5" fill-opacity="0.2"/>
<circle cx="175.486" cy="146.486" r="7.48585" fill="#00C7A5" fill-opacity="0.2"/>
<circle cx="175.486" cy="176.486" r="7.48585" fill="#00C7A5" fill-opacity="0.2"/>
<circle cx="183.486" cy="191.486" r="7.48585" fill="#00C7A5" fill-opacity="0.2"/>
<circle cx="175.486" cy="206.486" r="7.48585" fill="#00C7A5" fill-opacity="0.2"/>
<circle cx="183.486" cy="221.486" r="7.48585" fill="#00C7A5" fill-opacity="0.2"/>
<circle cx="199.486" cy="221.486" r="7.48585" fill="#00C7A5" fill-opacity="0.2"/>
<circle cx="207.486" cy="146.486" r="7.48585" fill="#00C7A5" fill-opacity="0.2"/>
<circle cx="71.4859" cy="281.486" r="7.48585" fill="#00C7A5" fill-opacity="0.2"/>
<circle cx="175.486" cy="266.486" r="7.48585" fill="#00C7A5" fill-opacity="0.2"/>
<circle cx="207.486" cy="266.486" r="7.48585" fill="#00C7A5" fill-opacity="0.2"/>
<circle cx="135.486" cy="311.486" r="7.48585" fill="#00C7A5" fill-opacity="0.2"/>
<circle cx="152.259" cy="371.486" r="7.48585" transform="rotate(90 152.259 371.486)" fill="#00C7A5" fill-opacity="0.2"/>
<circle cx="184.203" cy="371.486" r="7.48585" transform="rotate(90 184.203 371.486)" fill="#00C7A5" fill-opacity="0.2"/>
<circle cx="40.4575" cy="371.486" r="7.48585" transform="rotate(90 40.4575 371.486)" fill="#00C7A5" fill-opacity="0.2"/>
<circle cx="56.4292" cy="371.486" r="7.48585" transform="rotate(90 56.4292 371.486)" fill="#00C7A5" fill-opacity="0.2"/>
<circle cx="72.4009" cy="371.486" r="7.48585" transform="rotate(90 72.4009 371.486)" fill="#00C7A5" fill-opacity="0.2"/>
<circle cx="24.4858" cy="371.486" r="7.48585" transform="rotate(90 24.4858 371.486)" fill="#00C7A5" fill-opacity="0.2"/>
<circle cx="120.316" cy="371.486" r="7.48585" transform="rotate(90 120.316 371.486)" fill="#00C7A5" fill-opacity="0.2"/>
<circle cx="104.344" cy="371.486" r="7.48585" transform="rotate(90 104.344 371.486)" fill="#00C7A5" fill-opacity="0.2"/>
<circle cx="88.3725" cy="371.486" r="7.48585" transform="rotate(90 88.3725 371.486)" fill="#00C7A5" fill-opacity="0.2"/>
<circle cx="136.288" cy="371.486" r="7.48585" transform="rotate(90 136.288 371.486)" fill="#00C7A5" fill-opacity="0.2"/>
<circle cx="168.231" cy="371.486" r="7.48585" transform="rotate(90 168.231 371.486)" fill="#00C7A5" fill-opacity="0.2"/>
<circle cx="88.3725" cy="401.486" r="7.48585" transform="rotate(90 88.3725 401.486)" fill="#00C7A5" fill-opacity="0.2"/>
<circle cx="24.4858" cy="401.486" r="7.48585" transform="rotate(90 24.4858 401.486)" fill="#00C7A5" fill-opacity="0.2"/>
<circle cx="136.288" cy="401.486" r="7.48585" transform="rotate(90 136.288 401.486)" fill="#00C7A5" fill-opacity="0.2"/>
<circle cx="152.259" cy="401.486" r="7.48585" transform="rotate(90 152.259 401.486)" fill="#00C7A5" fill-opacity="0.2"/>
<circle cx="104.344" cy="401.486" r="7.48585" transform="rotate(90 104.344 401.486)" fill="#00C7A5" fill-opacity="0.2"/>
<circle cx="72.4009" cy="401.486" r="7.48585" transform="rotate(90 72.4009 401.486)" fill="#00C7A5" fill-opacity="0.2"/>
<circle cx="168.231" cy="401.486" r="7.48585" transform="rotate(90 168.231 401.486)" fill="#00C7A5" fill-opacity="0.2"/>
<circle cx="40.4575" cy="401.486" r="7.48585" transform="rotate(90 40.4575 401.486)" fill="#00C7A5" fill-opacity="0.2"/>
<circle cx="184.203" cy="401.486" r="7.48585" transform="rotate(90 184.203 401.486)" fill="#00C7A5" fill-opacity="0.2"/>
<circle cx="120.316" cy="401.486" r="7.48585" transform="rotate(90 120.316 401.486)" fill="#00C7A5" fill-opacity="0.2"/>
<circle cx="200.174" cy="401.486" r="7.48585" transform="rotate(90 200.174 401.486)" fill="#00C7A5" fill-opacity="0.2"/>
<circle cx="56.4292" cy="401.486" r="7.48585" transform="rotate(90 56.4292 401.486)" fill="#00C7A5" fill-opacity="0.2"/>
<circle cx="200.486" cy="371.486" r="7.48585" transform="rotate(90 200.486 371.486)" fill="#00C7A5" fill-opacity="0.2"/>
<circle cx="62.4009" cy="416.486" r="7.48585" transform="rotate(90 62.4009 416.486)" fill="#00C7A5" fill-opacity="0.2"/>
<circle cx="174.203" cy="416.486" r="7.48585" transform="rotate(90 174.203 416.486)" fill="#00C7A5" fill-opacity="0.2"/>
<circle cx="206.146" cy="416.486" r="7.48585" transform="rotate(90 206.146 416.486)" fill="#00C7A5" fill-opacity="0.2"/>
<circle cx="86.7407" cy="431.486" r="7.48585" transform="rotate(90 86.7407 431.486)" fill="#00C7A5" fill-opacity="0.2"/>
<circle cx="94.3442" cy="416.486" r="7.48585" transform="rotate(90 94.3442 416.486)" fill="#00C7A5" fill-opacity="0.2"/>
<circle cx="78.3725" cy="416.486" r="7.48585" transform="rotate(90 78.3725 416.486)" fill="#00C7A5" fill-opacity="0.2"/>
<circle cx="190.174" cy="416.486" r="7.48585" transform="rotate(90 190.174 416.486)" fill="#00C7A5" fill-opacity="0.2"/>
<circle cx="102.712" cy="431.486" r="7.48585" transform="rotate(90 102.712 431.486)" fill="#00C7A5" fill-opacity="0.2"/>
<circle cx="150.627" cy="461.486" r="7.48585" transform="rotate(90 150.627 461.486)" fill="#00C7A5" fill-opacity="0.2"/>
<circle cx="94.7124" cy="446.486" r="7.48585" transform="rotate(90 94.7124 446.486)" fill="#00C7A5" fill-opacity="0.2"/>
<circle cx="30.4575" cy="416.486" r="7.48585" transform="rotate(90 30.4575 416.486)" fill="#00C7A5" fill-opacity="0.2"/>
<circle cx="150.627" cy="431.486" r="7.48585" transform="rotate(90 150.627 431.486)" fill="#00C7A5" fill-opacity="0.2"/>
<circle cx="134.656" cy="461.486" r="7.48585" transform="rotate(90 134.656 461.486)" fill="#00C7A5" fill-opacity="0.2"/>
<circle cx="14.854" cy="446.486" r="7.48585" transform="rotate(90 14.854 446.486)" fill="#00C7A5" fill-opacity="0.2"/>
<circle cx="110.316" cy="416.486" r="7.48585" transform="rotate(90 110.316 416.486)" fill="#00C7A5" fill-opacity="0.2"/>
<circle cx="182.571" cy="431.486" r="7.48585" transform="rotate(90 182.571 431.486)" fill="#00C7A5" fill-opacity="0.2"/>
<circle cx="38.8257" cy="461.486" r="7.48585" transform="rotate(90 38.8257 461.486)" fill="#00C7A5" fill-opacity="0.2"/>
<circle cx="166.599" cy="431.486" r="7.48585" transform="rotate(90 166.599 431.486)" fill="#00C7A5" fill-opacity="0.2"/>
<circle cx="126.288" cy="416.486" r="7.48585" transform="rotate(90 126.288 416.486)" fill="#00C7A5" fill-opacity="0.2"/>
<circle cx="46.4292" cy="416.486" r="7.48585" transform="rotate(90 46.4292 416.486)" fill="#00C7A5" fill-opacity="0.2"/>
<circle cx="142.627" cy="446.486" r="7.48585" transform="rotate(90 142.627 446.486)" fill="#00C7A5" fill-opacity="0.2"/>
<circle cx="214.514" cy="431.486" r="7.48585" transform="rotate(90 214.514 431.486)" fill="#00C7A5" fill-opacity="0.2"/>
<circle cx="166.599" cy="461.486" r="7.48585" transform="rotate(90 166.599 461.486)" fill="#00C7A5" fill-opacity="0.2"/>
<circle cx="110.684" cy="446.486" r="7.48585" transform="rotate(90 110.684 446.486)" fill="#00C7A5" fill-opacity="0.2"/>
<circle cx="198.542" cy="461.486" r="7.48585" transform="rotate(90 198.542 461.486)" fill="#00C7A5" fill-opacity="0.2"/>
<circle cx="70.769" cy="431.486" r="7.48585" transform="rotate(90 70.769 431.486)" fill="#00C7A5" fill-opacity="0.2"/>
<circle cx="182.571" cy="461.486" r="7.48585" transform="rotate(90 182.571 461.486)" fill="#00C7A5" fill-opacity="0.2"/>
<circle cx="86.7407" cy="461.486" r="7.48585" transform="rotate(90 86.7407 461.486)" fill="#00C7A5" fill-opacity="0.2"/>
<circle cx="142.259" cy="416.486" r="7.48585" transform="rotate(90 142.259 416.486)" fill="#00C7A5" fill-opacity="0.2"/>
<circle cx="134.656" cy="431.486" r="7.48585" transform="rotate(90 134.656 431.486)" fill="#00C7A5" fill-opacity="0.2"/>
<circle cx="38.8257" cy="431.486" r="7.48585" transform="rotate(90 38.8257 431.486)" fill="#00C7A5" fill-opacity="0.2"/>
<circle cx="158.599" cy="446.486" r="7.48585" transform="rotate(90 158.599 446.486)" fill="#00C7A5" fill-opacity="0.2"/>
<circle cx="190.542" cy="446.486" r="7.48585" transform="rotate(90 190.542 446.486)" fill="#00C7A5" fill-opacity="0.2"/>
<circle cx="54.7973" cy="461.486" r="7.48585" transform="rotate(90 54.7973 461.486)" fill="#00C7A5" fill-opacity="0.2"/>
<circle cx="118.684" cy="461.486" r="7.48585" transform="rotate(90 118.684 461.486)" fill="#00C7A5" fill-opacity="0.2"/>
<circle cx="158.231" cy="416.486" r="7.48585" transform="rotate(90 158.231 416.486)" fill="#00C7A5" fill-opacity="0.2"/>
<circle cx="126.656" cy="446.486" r="7.48585" transform="rotate(90 126.656 446.486)" fill="#00C7A5" fill-opacity="0.2"/>
<circle cx="62.769" cy="446.486" r="7.48585" transform="rotate(90 62.769 446.486)" fill="#00C7A5" fill-opacity="0.2"/>
<circle cx="78.7407" cy="446.486" r="7.48585" transform="rotate(90 78.7407 446.486)" fill="#00C7A5" fill-opacity="0.2"/>
<circle cx="198.542" cy="431.486" r="7.48585" transform="rotate(90 198.542 431.486)" fill="#00C7A5" fill-opacity="0.2"/>
<circle cx="70.769" cy="461.486" r="7.48585" transform="rotate(90 70.769 461.486)" fill="#00C7A5" fill-opacity="0.2"/>
<circle cx="174.571" cy="446.486" r="7.48585" transform="rotate(90 174.571 446.486)" fill="#00C7A5" fill-opacity="0.2"/>
<circle cx="102.712" cy="461.486" r="7.48585" transform="rotate(90 102.712 461.486)" fill="#00C7A5" fill-opacity="0.2"/>
<circle cx="22.854" cy="461.486" r="7.48585" transform="rotate(90 22.854 461.486)" fill="#00C7A5" fill-opacity="0.2"/>
<circle cx="54.7973" cy="431.486" r="7.48585" transform="rotate(90 54.7973 431.486)" fill="#00C7A5" fill-opacity="0.2"/>
<circle cx="46.7973" cy="446.486" r="7.48585" transform="rotate(90 46.7973 446.486)" fill="#00C7A5" fill-opacity="0.2"/>
<circle cx="118.684" cy="431.486" r="7.48585" transform="rotate(90 118.684 431.486)" fill="#00C7A5" fill-opacity="0.2"/>
<circle cx="14.4858" cy="416.486" r="7.48585" transform="rotate(90 14.4858 416.486)" fill="#00C7A5" fill-opacity="0.2"/>
<circle cx="22.854" cy="431.486" r="7.48585" transform="rotate(90 22.854 431.486)" fill="#00C7A5" fill-opacity="0.2"/>
<circle cx="30.8257" cy="446.486" r="7.48585" transform="rotate(90 30.8257 446.486)" fill="#00C7A5" fill-opacity="0.2"/>
<circle cx="192.203" cy="386.486" r="7.48585" transform="rotate(90 192.203 386.486)" fill="#00C7A5" fill-opacity="0.2"/>
<circle cx="144.288" cy="386.486" r="7.48585" transform="rotate(90 144.288 386.486)" fill="#00C7A5" fill-opacity="0.2"/>
<circle cx="176.231" cy="386.486" r="7.48585" transform="rotate(90 176.231 386.486)" fill="#00C7A5" fill-opacity="0.2"/>
<circle cx="64.4292" cy="386.486" r="7.48585" transform="rotate(90 64.4292 386.486)" fill="#00C7A5" fill-opacity="0.2"/>
<circle cx="80.4009" cy="386.486" r="7.48585" transform="rotate(90 80.4009 386.486)" fill="#00C7A5" fill-opacity="0.2"/>
<circle cx="112.344" cy="386.486" r="7.48585" transform="rotate(90 112.344 386.486)" fill="#00C7A5" fill-opacity="0.2"/>
<circle cx="48.4575" cy="386.486" r="7.48585" transform="rotate(90 48.4575 386.486)" fill="#00C7A5" fill-opacity="0.2"/>
<circle cx="32.4858" cy="386.486" r="7.48585" transform="rotate(90 32.4858 386.486)" fill="#00C7A5" fill-opacity="0.2"/>
<circle cx="96.3725" cy="386.486" r="7.48585" transform="rotate(90 96.3725 386.486)" fill="#00C7A5" fill-opacity="0.2"/>
<circle cx="160.259" cy="386.486" r="7.48585" transform="rotate(90 160.259 386.486)" fill="#00C7A5" fill-opacity="0.2"/>
<circle cx="128.316" cy="386.486" r="7.48585" transform="rotate(90 128.316 386.486)" fill="#00C7A5" fill-opacity="0.2"/>
<circle cx="200.486" cy="521.486" r="7.48585" fill="#00C7A5" fill-opacity="0.2"/>
<circle cx="32.4859" cy="536.486" r="7.48585" fill="#00C7A5" fill-opacity="0.2"/>
<circle cx="24.4859" cy="521.486" r="7.48585" fill="#00C7A5" fill-opacity="0.2"/>
<circle cx="64.4859" cy="476.486" r="7.48585" fill="#00C7A5" fill-opacity="0.2"/>
<circle cx="208.486" cy="476.486" r="7.48585" fill="#00C7A5" fill-opacity="0.2"/>
<circle cx="80.4859" cy="476.486" r="7.48585" fill="#00C7A5" fill-opacity="0.2"/>
<circle cx="23.4859" cy="491.486" r="7.48585" fill="#00C7A5" fill-opacity="0.2"/>
<circle cx="112.486" cy="536.486" r="7.48585" fill="#00C7A5" fill-opacity="0.2"/>
<circle cx="160.486" cy="476.486" r="7.48585" fill="#00C7A5" fill-opacity="0.2"/>
<circle cx="48.4859" cy="536.486" r="7.48585" fill="#00C7A5" fill-opacity="0.2"/>
<circle cx="32.4859" cy="506.486" r="7.48585" fill="#00C7A5" fill-opacity="0.2"/>
<circle cx="39.4859" cy="491.486" r="7.48585" fill="#00C7A5" fill-opacity="0.2"/>
<circle cx="16.4859" cy="536.486" r="7.48585" fill="#00C7A5" fill-opacity="0.2"/>
<circle cx="200.486" cy="491.486" r="7.48585" fill="#00C7A5" fill-opacity="0.2"/>
<circle cx="16.4859" cy="476.486" r="7.48585" fill="#00C7A5" fill-opacity="0.2"/>
<circle cx="176.486" cy="506.486" r="7.48585" fill="#00C7A5" fill-opacity="0.2"/>
<circle cx="208.486" cy="536.486" r="7.48585" fill="#00C7A5" fill-opacity="0.2"/>
<circle cx="96.4859" cy="476.486" r="7.48585" fill="#00C7A5" fill-opacity="0.2"/>
<circle cx="128.486" cy="476.486" r="7.48585" fill="#00C7A5" fill-opacity="0.2"/>
<circle cx="16.4859" cy="506.486" r="7.48585" fill="#00C7A5" fill-opacity="0.2"/>
<circle cx="176.486" cy="476.486" r="7.48585" fill="#00C7A5" fill-opacity="0.2"/>
<circle cx="192.486" cy="506.486" r="7.48585" fill="#00C7A5" fill-opacity="0.2"/>
<circle cx="112.486" cy="476.486" r="7.48585" fill="#00C7A5" fill-opacity="0.2"/>
<circle cx="144.486" cy="476.486" r="7.48585" fill="#00C7A5" fill-opacity="0.2"/>
<circle cx="55.4859" cy="491.486" r="7.48585" fill="#00C7A5" fill-opacity="0.2"/>
<circle cx="8.48586" cy="521.486" r="7.48585" fill="#00C7A5" fill-opacity="0.2"/>
<circle cx="32.4859" cy="476.486" r="7.48585" fill="#00C7A5" fill-opacity="0.2"/>
<circle cx="48.4859" cy="476.486" r="7.48585" fill="#00C7A5" fill-opacity="0.2"/>
<circle cx="144.486" cy="536.486" r="7.48585" fill="#00C7A5" fill-opacity="0.2"/>
<circle cx="192.486" cy="476.486" r="7.48585" fill="#00C7A5" fill-opacity="0.2"/>
<circle cx="112.486" cy="506.486" r="7.48585" fill="#00C7A5" fill-opacity="0.2"/>
<circle cx="144.486" cy="506.486" r="7.48585" fill="#00C7A5" fill-opacity="0.2"/>
<circle cx="72.4859" cy="491.486" r="7.48585" fill="#00C7A5" fill-opacity="0.2"/>
<circle cx="104.486" cy="491.486" r="7.48585" fill="#00C7A5" fill-opacity="0.2"/>
<circle cx="136.486" cy="491.486" r="7.48585" fill="#00C7A5" fill-opacity="0.2"/>
<circle cx="152.486" cy="491.486" r="7.48585" fill="#00C7A5" fill-opacity="0.2"/>
<circle cx="128.486" cy="536.486" r="7.48585" fill="#00C7A5" fill-opacity="0.2"/>
<circle cx="56.4859" cy="521.486" r="7.48585" fill="#00C7A5" fill-opacity="0.2"/>
<circle cx="104.486" cy="521.486" r="7.48585" fill="#00C7A5" fill-opacity="0.2"/>
<circle cx="136.486" cy="521.486" r="7.48585" fill="#00C7A5" fill-opacity="0.2"/>
<circle cx="168.486" cy="521.486" r="7.48585" fill="#00C7A5" fill-opacity="0.2"/>
<circle cx="80.4859" cy="506.486" r="7.48585" fill="#00C7A5" fill-opacity="0.2"/>
<circle cx="48.4859" cy="506.486" r="7.48585" fill="#00C7A5" fill-opacity="0.2"/>
<circle cx="128.486" cy="506.486" r="7.48585" fill="#00C7A5" fill-opacity="0.2"/>
<circle cx="160.486" cy="506.486" r="7.48585" fill="#00C7A5" fill-opacity="0.2"/>
<circle cx="88.4859" cy="491.486" r="7.48585" fill="#00C7A5" fill-opacity="0.2"/>
<circle cx="120.486" cy="491.486" r="7.48585" fill="#00C7A5" fill-opacity="0.2"/>
<circle cx="40.4859" cy="521.486" r="7.48585" fill="#00C7A5" fill-opacity="0.2"/>
<circle cx="168.486" cy="491.486" r="7.48585" fill="#00C7A5" fill-opacity="0.2"/>
<circle cx="184.486" cy="491.486" r="7.48585" fill="#00C7A5" fill-opacity="0.2"/>
<circle cx="88.4859" cy="521.486" r="7.48585" fill="#00C7A5" fill-opacity="0.2"/>
<circle cx="72.4859" cy="521.486" r="7.48585" fill="#00C7A5" fill-opacity="0.2"/>
<circle cx="120.486" cy="521.486" r="7.48585" fill="#00C7A5" fill-opacity="0.2"/>
<circle cx="152.486" cy="521.486" r="7.48585" fill="#00C7A5" fill-opacity="0.2"/>
<circle cx="184.486" cy="521.486" r="7.48585" fill="#00C7A5" fill-opacity="0.2"/>
<circle cx="96.4859" cy="506.486" r="7.48585" fill="#00C7A5" fill-opacity="0.2"/>
<circle cx="64.4859" cy="506.486" r="7.48585" fill="#00C7A5" fill-opacity="0.2"/>
<circle cx="64.4859" cy="536.486" r="7.48585" fill="#00C7A5" fill-opacity="0.2"/>
<circle cx="160.486" cy="536.486" r="7.48585" fill="#00C7A5" fill-opacity="0.2"/>
<circle cx="80.4859" cy="536.486" r="7.48585" fill="#00C7A5" fill-opacity="0.2"/>
<circle cx="176.486" cy="536.486" r="7.48585" fill="#00C7A5" fill-opacity="0.2"/>
<circle cx="96.4859" cy="536.486" r="7.48585" fill="#00C7A5" fill-opacity="0.2"/>
<circle cx="192.486" cy="536.486" r="7.48585" fill="#00C7A5" fill-opacity="0.2"/>
<circle cx="208.486" cy="506.486" r="7.48585" fill="#00C7A5" fill-opacity="0.2"/>
<circle cx="208.486" cy="566.486" r="7.48585" fill="#00C7A5" fill-opacity="0.2"/>
<circle cx="40.4859" cy="581.486" r="7.48585" fill="#00C7A5" fill-opacity="0.2"/>
<circle cx="32.4859" cy="566.486" r="7.48585" fill="#00C7A5" fill-opacity="0.2"/>
<circle cx="120.486" cy="581.486" r="7.48585" fill="#00C7A5" fill-opacity="0.2"/>
<circle cx="56.4859" cy="581.486" r="7.48585" fill="#00C7A5" fill-opacity="0.2"/>
<circle cx="40.4859" cy="551.486" r="7.48585" fill="#00C7A5" fill-opacity="0.2"/>
<circle cx="24.4859" cy="581.486" r="7.48585" fill="#00C7A5" fill-opacity="0.2"/>
<circle cx="184.486" cy="551.486" r="7.48585" fill="#00C7A5" fill-opacity="0.2"/>
<circle cx="24.4859" cy="551.486" r="7.48585" fill="#00C7A5" fill-opacity="0.2"/>
<circle cx="200.486" cy="551.486" r="7.48585" fill="#00C7A5" fill-opacity="0.2"/>
<circle cx="16.4859" cy="566.486" r="7.48585" fill="#00C7A5" fill-opacity="0.2"/>
<circle cx="152.486" cy="581.486" r="7.48585" fill="#00C7A5" fill-opacity="0.2"/>
<circle cx="120.486" cy="551.486" r="7.48585" fill="#00C7A5" fill-opacity="0.2"/>
<circle cx="152.486" cy="551.486" r="7.48585" fill="#00C7A5" fill-opacity="0.2"/>
<circle cx="136.486" cy="581.486" r="7.48585" fill="#00C7A5" fill-opacity="0.2"/>
<circle cx="64.4859" cy="566.486" r="7.48585" fill="#00C7A5" fill-opacity="0.2"/>
<circle cx="112.486" cy="566.486" r="7.48585" fill="#00C7A5" fill-opacity="0.2"/>
<circle cx="144.486" cy="566.486" r="7.48585" fill="#00C7A5" fill-opacity="0.2"/>
<circle cx="176.486" cy="566.486" r="7.48585" fill="#00C7A5" fill-opacity="0.2"/>
<circle cx="88.4859" cy="551.486" r="7.48585" fill="#00C7A5" fill-opacity="0.2"/>
<circle cx="56.4859" cy="551.486" r="7.48585" fill="#00C7A5" fill-opacity="0.2"/>
<circle cx="136.486" cy="551.486" r="7.48585" fill="#00C7A5" fill-opacity="0.2"/>
<circle cx="168.486" cy="551.486" r="7.48585" fill="#00C7A5" fill-opacity="0.2"/>
<circle cx="48.4859" cy="566.486" r="7.48585" fill="#00C7A5" fill-opacity="0.2"/>
<circle cx="96.4859" cy="566.486" r="7.48585" fill="#00C7A5" fill-opacity="0.2"/>
<circle cx="80.4859" cy="566.486" r="7.48585" fill="#00C7A5" fill-opacity="0.2"/>
<circle cx="128.486" cy="566.486" r="7.48585" fill="#00C7A5" fill-opacity="0.2"/>
<circle cx="160.486" cy="566.486" r="7.48585" fill="#00C7A5" fill-opacity="0.2"/>
<circle cx="192.486" cy="566.486" r="7.48585" fill="#00C7A5" fill-opacity="0.2"/>
<circle cx="104.486" cy="551.486" r="7.48585" fill="#00C7A5" fill-opacity="0.2"/>
<circle cx="72.4859" cy="551.486" r="7.48585" fill="#00C7A5" fill-opacity="0.2"/>
<circle cx="72.4859" cy="581.486" r="7.48585" fill="#00C7A5" fill-opacity="0.2"/>
<circle cx="168.486" cy="581.486" r="7.48585" fill="#00C7A5" fill-opacity="0.2"/>
<circle cx="88.4859" cy="581.486" r="7.48585" fill="#00C7A5" fill-opacity="0.2"/>
<circle cx="184.486" cy="581.486" r="7.48585" fill="#00C7A5" fill-opacity="0.2"/>
<circle cx="104.486" cy="581.486" r="7.48585" fill="#00C7A5" fill-opacity="0.2"/>
<circle cx="200.486" cy="581.486" r="7.48585" fill="#00C7A5" fill-opacity="0.2"/>
<path d="M59.2666 19H56.7969V9.18262L53.5625 10.3428V8.21582L59.1348 6.20312H59.2666V19ZM67.6689 15.0713L66.5615 16.0996V19H64.1182V5.5H66.5615V13.2168L67.2998 12.373L69.9277 9.49023H72.8633L69.2773 13.4541L73.3643 19H70.3672L67.6689 15.0713ZM74.6562 14.1748C74.6562 13.4541 74.7441 12.7949 74.9199 12.1973C75.1016 11.5996 75.3594 11.0869 75.6934 10.6592C76.0273 10.2314 76.4316 9.90039 76.9062 9.66602C77.3809 9.43164 77.917 9.31445 78.5146 9.31445C79.0713 9.31445 79.5488 9.4082 79.9473 9.5957C80.3457 9.7832 80.6855 10.0498 80.9668 10.3955L81.0635 9.49023H83.2871V18.6924C83.2871 19.3369 83.1758 19.9111 82.9531 20.415C82.7363 20.9189 82.4287 21.3438 82.0303 21.6895C81.6377 22.0352 81.1631 22.2959 80.6064 22.4717C80.0557 22.6533 79.4463 22.7441 78.7783 22.7441C78.4912 22.7441 78.1836 22.7148 77.8555 22.6562C77.5273 22.5977 77.2021 22.5068 76.8799 22.3838C76.5576 22.2607 76.2529 22.1025 75.9658 21.9092C75.6787 21.7217 75.4326 21.4961 75.2275 21.2324L76.3262 19.7471C76.6367 20.0986 76.9883 20.3652 77.3809 20.5469C77.7734 20.7344 78.1982 20.8281 78.6553 20.8281C79.3408 20.8281 79.874 20.6436 80.2549 20.2744C80.6416 19.9111 80.835 19.3926 80.835 18.7188V18.1738C80.5479 18.4902 80.2109 18.7363 79.8242 18.9121C79.4434 19.0879 79.001 19.1758 78.4971 19.1758C77.9053 19.1758 77.3721 19.0557 76.8975 18.8154C76.4287 18.5693 76.0273 18.2324 75.6934 17.8047C75.3594 17.377 75.1016 16.8701 74.9199 16.2842C74.7441 15.6924 74.6562 15.0508 74.6562 14.3594V14.1748ZM77.1084 14.3594C77.1084 14.7578 77.1465 15.1299 77.2227 15.4756C77.3047 15.8154 77.4277 16.1143 77.5918 16.3721C77.7559 16.624 77.9639 16.8232 78.2158 16.9697C78.4678 17.1162 78.7666 17.1895 79.1123 17.1895C79.54 17.1895 79.8916 17.1074 80.167 16.9434C80.4482 16.7793 80.6709 16.5508 80.835 16.2578V12.2324C80.6709 11.9336 80.4482 11.7051 80.167 11.5469C79.8916 11.3828 79.5459 11.3008 79.1299 11.3008C78.7842 11.3008 78.4854 11.377 78.2334 11.5293C77.9814 11.6758 77.7705 11.8809 77.6006 12.1445C77.4365 12.4023 77.3135 12.707 77.2314 13.0586C77.1494 13.4043 77.1084 13.7764 77.1084 14.1748V14.3594ZM104.557 13.7002H99.0723V19H96.5938V6.20312H105.242V8.21582H99.0723V11.6963H104.557V13.7002ZM115.895 14.3418H108.573V12.3643H115.895V14.3418ZM126.854 17.5059C126.696 17.6992 126.479 17.8955 126.204 18.0947C125.929 18.2939 125.601 18.4756 125.22 18.6396C124.845 18.7979 124.423 18.9268 123.954 19.0264C123.485 19.126 122.981 19.1758 122.442 19.1758C121.716 19.1758 121.06 19.0469 120.474 18.7891C119.888 18.5312 119.387 18.1592 118.971 17.6729C118.555 17.1865 118.232 16.5918 118.004 15.8887C117.781 15.1797 117.67 14.377 117.67 13.4805V11.7402C117.67 10.8438 117.787 10.0439 118.021 9.34082C118.262 8.63184 118.59 8.03125 119.006 7.53906C119.428 7.04688 119.92 6.67187 120.482 6.41406C121.051 6.15625 121.666 6.02734 122.328 6.02734C123.049 6.02734 123.676 6.11816 124.209 6.2998C124.748 6.48145 125.202 6.74512 125.571 7.09082C125.94 7.43066 126.228 7.84668 126.433 8.33887C126.644 8.83105 126.781 9.38477 126.846 10H124.438C124.355 9.34375 124.156 8.85156 123.84 8.52344C123.529 8.18945 123.046 8.02246 122.39 8.02246C122.073 8.02246 121.78 8.10449 121.511 8.26855C121.241 8.42676 121.007 8.66113 120.808 8.97168C120.608 9.28223 120.45 9.66895 120.333 10.1318C120.216 10.5889 120.157 11.1191 120.157 11.7227V13.4805C120.163 14.6758 120.362 15.5928 120.755 16.2314C121.147 16.8643 121.748 17.1836 122.557 17.1895C122.75 17.1895 122.94 17.1748 123.128 17.1455C123.315 17.1162 123.491 17.0752 123.655 17.0225C123.819 16.9697 123.963 16.9111 124.086 16.8467C124.215 16.7764 124.312 16.7031 124.376 16.627L124.385 14.3066H122.267V12.4609H126.846L126.854 17.5059ZM134.896 19C134.838 18.8828 134.788 18.748 134.747 18.5957C134.706 18.4434 134.671 18.2822 134.642 18.1123C134.507 18.2588 134.352 18.3965 134.176 18.5254C134 18.6543 133.804 18.7686 133.587 18.8682C133.376 18.9619 133.142 19.0352 132.884 19.0879C132.626 19.1465 132.348 19.1758 132.049 19.1758C131.562 19.1758 131.114 19.1055 130.704 18.9648C130.3 18.8242 129.951 18.6279 129.658 18.376C129.365 18.124 129.137 17.8252 128.973 17.4795C128.809 17.1279 128.727 16.7471 128.727 16.3369C128.727 15.335 129.099 14.5615 129.843 14.0166C130.593 13.4658 131.709 13.1904 133.191 13.1904H134.554V12.6279C134.554 12.1709 134.404 11.8105 134.105 11.5469C133.807 11.2773 133.376 11.1426 132.813 11.1426C132.315 11.1426 131.952 11.251 131.724 11.4678C131.495 11.6787 131.381 11.9629 131.381 12.3203H128.938C128.938 11.916 129.025 11.5322 129.201 11.1689C129.383 10.8057 129.644 10.4863 129.983 10.2109C130.329 9.93555 130.748 9.71875 131.24 9.56055C131.738 9.39648 132.307 9.31445 132.945 9.31445C133.52 9.31445 134.053 9.38477 134.545 9.52539C135.043 9.66602 135.474 9.87402 135.837 10.1494C136.2 10.4248 136.484 10.7734 136.689 11.1953C136.895 11.6113 136.997 12.0947 136.997 12.6455V16.7236C136.997 17.2334 137.029 17.6553 137.094 17.9893C137.158 18.3232 137.252 18.6104 137.375 18.8506V19H134.896ZM132.567 17.2861C132.813 17.2861 133.042 17.2568 133.253 17.1982C133.464 17.1396 133.654 17.0635 133.824 16.9697C133.994 16.876 134.141 16.7705 134.264 16.6533C134.387 16.5303 134.483 16.4072 134.554 16.2842V14.6494H133.306C132.925 14.6494 132.6 14.6875 132.33 14.7637C132.061 14.834 131.841 14.9365 131.671 15.0713C131.501 15.2002 131.375 15.3584 131.293 15.5459C131.211 15.7275 131.17 15.9268 131.17 16.1436C131.17 16.4717 131.284 16.7441 131.513 16.9609C131.747 17.1777 132.099 17.2861 132.567 17.2861ZM145.9 16.3896C145.9 16.2432 145.865 16.1143 145.795 16.0029C145.73 15.8916 145.61 15.7891 145.435 15.6953C145.265 15.5957 145.036 15.5049 144.749 15.4229C144.462 15.3408 144.099 15.2588 143.659 15.1768C143.103 15.0654 142.593 14.9277 142.13 14.7637C141.673 14.5938 141.28 14.3916 140.952 14.1572C140.624 13.917 140.366 13.6416 140.179 13.3311C139.997 13.0205 139.906 12.6631 139.906 12.2588C139.906 11.8662 140 11.4912 140.188 11.1338C140.375 10.7764 140.645 10.4629 140.996 10.1934C141.348 9.92383 141.775 9.70996 142.279 9.55176C142.783 9.39355 143.352 9.31445 143.984 9.31445C144.646 9.31445 145.241 9.39355 145.769 9.55176C146.296 9.7041 146.741 9.91797 147.104 10.1934C147.474 10.4629 147.755 10.7852 147.948 11.1602C148.142 11.5352 148.238 11.9424 148.238 12.3818H145.795C145.795 12.0127 145.646 11.7051 145.347 11.459C145.048 11.207 144.594 11.0811 143.984 11.0811C143.416 11.0811 142.985 11.1836 142.692 11.3887C142.405 11.5938 142.262 11.8457 142.262 12.1445C142.262 12.2852 142.291 12.417 142.35 12.54C142.408 12.6572 142.511 12.7656 142.657 12.8652C142.81 12.959 143.015 13.0469 143.272 13.1289C143.53 13.2051 143.858 13.2725 144.257 13.3311C144.831 13.4248 145.364 13.5449 145.856 13.6914C146.349 13.8379 146.773 14.0283 147.131 14.2627C147.488 14.4912 147.767 14.7725 147.966 15.1064C148.171 15.4346 148.273 15.8271 148.273 16.2842C148.273 16.7061 148.171 17.0957 147.966 17.4531C147.767 17.8047 147.479 18.1094 147.104 18.3672C146.735 18.625 146.287 18.8271 145.76 18.9736C145.232 19.1143 144.644 19.1846 143.993 19.1846C143.278 19.1846 142.646 19.0908 142.095 18.9033C141.55 18.7158 141.093 18.4727 140.724 18.1738C140.354 17.8691 140.073 17.5264 139.88 17.1455C139.692 16.7588 139.599 16.3721 139.599 15.9854H141.928C141.945 16.2432 142.016 16.4658 142.139 16.6533C142.262 16.835 142.42 16.9844 142.613 17.1016C142.807 17.2129 143.026 17.2949 143.272 17.3477C143.524 17.4004 143.782 17.4268 144.046 17.4268C144.649 17.4268 145.109 17.3301 145.426 17.1367C145.742 16.9434 145.9 16.6943 145.9 16.3896ZM155.19 19.1758C154.458 19.1758 153.793 19.0557 153.195 18.8154C152.598 18.5752 152.085 18.25 151.657 17.8398C151.229 17.4238 150.898 16.9375 150.664 16.3809C150.436 15.8184 150.321 15.2178 150.321 14.5791V14.2275C150.321 13.501 150.436 12.8389 150.664 12.2412C150.893 11.6377 151.212 11.1191 151.622 10.6855C152.032 10.252 152.519 9.91504 153.081 9.6748C153.644 9.43457 154.256 9.31445 154.918 9.31445C155.604 9.31445 156.213 9.42871 156.746 9.65723C157.285 9.87988 157.739 10.1963 158.108 10.6064C158.483 11.0166 158.768 11.5117 158.961 12.0918C159.154 12.666 159.251 13.3018 159.251 13.999V15.0361H152.8C152.847 15.3584 152.94 15.6543 153.081 15.9238C153.228 16.1875 153.412 16.416 153.635 16.6094C153.857 16.8027 154.112 16.9521 154.399 17.0576C154.687 17.1631 155 17.2158 155.34 17.2158C155.58 17.2158 155.817 17.1924 156.052 17.1455C156.292 17.0986 156.521 17.0312 156.737 16.9434C156.954 16.8496 157.156 16.7354 157.344 16.6006C157.531 16.4658 157.695 16.3076 157.836 16.126L159.058 17.4443C158.905 17.6611 158.706 17.875 158.46 18.0859C158.22 18.291 157.933 18.4756 157.599 18.6396C157.271 18.7979 156.904 18.9268 156.5 19.0264C156.096 19.126 155.659 19.1758 155.19 19.1758ZM154.9 11.292C154.625 11.292 154.373 11.3418 154.145 11.4414C153.916 11.5352 153.714 11.6729 153.538 11.8545C153.368 12.0361 153.225 12.2529 153.107 12.5049C152.99 12.7568 152.902 13.0381 152.844 13.3486H156.852V13.1553C156.84 12.8975 156.79 12.6543 156.702 12.4258C156.614 12.1973 156.488 12.001 156.324 11.8369C156.16 11.667 155.958 11.5352 155.718 11.4414C155.483 11.3418 155.211 11.292 154.9 11.292ZM167.521 16.3896C167.521 16.2432 167.486 16.1143 167.416 16.0029C167.352 15.8916 167.231 15.7891 167.056 15.6953C166.886 15.5957 166.657 15.5049 166.37 15.4229C166.083 15.3408 165.72 15.2588 165.28 15.1768C164.724 15.0654 164.214 14.9277 163.751 14.7637C163.294 14.5938 162.901 14.3916 162.573 14.1572C162.245 13.917 161.987 13.6416 161.8 13.3311C161.618 13.0205 161.527 12.6631 161.527 12.2588C161.527 11.8662 161.621 11.4912 161.809 11.1338C161.996 10.7764 162.266 10.4629 162.617 10.1934C162.969 9.92383 163.396 9.70996 163.9 9.55176C164.404 9.39355 164.973 9.31445 165.605 9.31445C166.268 9.31445 166.862 9.39355 167.39 9.55176C167.917 9.7041 168.362 9.91797 168.726 10.1934C169.095 10.4629 169.376 10.7852 169.569 11.1602C169.763 11.5352 169.859 11.9424 169.859 12.3818H167.416C167.416 12.0127 167.267 11.7051 166.968 11.459C166.669 11.207 166.215 11.0811 165.605 11.0811C165.037 11.0811 164.606 11.1836 164.313 11.3887C164.026 11.5938 163.883 11.8457 163.883 12.1445C163.883 12.2852 163.912 12.417 163.971 12.54C164.029 12.6572 164.132 12.7656 164.278 12.8652C164.431 12.959 164.636 13.0469 164.894 13.1289C165.151 13.2051 165.479 13.2725 165.878 13.3311C166.452 13.4248 166.985 13.5449 167.478 13.6914C167.97 13.8379 168.395 14.0283 168.752 14.2627C169.109 14.4912 169.388 14.7725 169.587 15.1064C169.792 15.4346 169.895 15.8271 169.895 16.2842C169.895 16.7061 169.792 17.0957 169.587 17.4531C169.388 17.8047 169.101 18.1094 168.726 18.3672C168.356 18.625 167.908 18.8271 167.381 18.9736C166.854 19.1143 166.265 19.1846 165.614 19.1846C164.899 19.1846 164.267 19.0908 163.716 18.9033C163.171 18.7158 162.714 18.4727 162.345 18.1738C161.976 17.8691 161.694 17.5264 161.501 17.1455C161.313 16.7588 161.22 16.3721 161.22 15.9854H163.549C163.566 16.2432 163.637 16.4658 163.76 16.6533C163.883 16.835 164.041 16.9844 164.234 17.1016C164.428 17.2129 164.647 17.2949 164.894 17.3477C165.146 17.4004 165.403 17.4268 165.667 17.4268C166.271 17.4268 166.73 17.3301 167.047 17.1367C167.363 16.9434 167.521 16.6943 167.521 16.3896Z" fill="#FBC800"/>
<path d="M106.851 39.3242H116.141V41.4072H106.851V39.3242ZM106.851 35.3252H116.141V37.3906H106.851V35.3252ZM108.731 34.4639L110.788 29.1641H112.212L114.26 34.4639H112.555L111.509 31.8447L110.489 34.4639H108.731ZM18.0195 68H15.5498V58.1826L12.3154 59.3428V57.2158L17.8877 55.2031H18.0195V68ZM31.2119 68H22.4844V66.3301L26.624 61.8828C26.9463 61.5312 27.2188 61.2119 27.4414 60.9248C27.6641 60.6377 27.8428 60.377 27.9775 60.1426C28.1182 59.9023 28.2178 59.6797 28.2764 59.4746C28.3408 59.2695 28.373 59.0703 28.373 58.877C28.373 58.5898 28.332 58.335 28.25 58.1123C28.168 57.8896 28.0508 57.7021 27.8984 57.5498C27.752 57.3916 27.5732 57.2715 27.3623 57.1895C27.1572 57.1074 26.9287 57.0664 26.6768 57.0664C26.0029 57.0664 25.499 57.2539 25.165 57.6289C24.8369 58.0039 24.6729 58.5283 24.6729 59.2021H22.2207C22.2207 58.6338 22.3291 58.0977 22.5459 57.5938C22.7627 57.084 23.0674 56.6387 23.46 56.2578C23.8584 55.877 24.3359 55.5781 24.8926 55.3613C25.4551 55.1387 26.0762 55.0273 26.7559 55.0273C27.4062 55.0273 27.9805 55.1182 28.4785 55.2998C28.9824 55.4814 29.4014 55.7363 29.7354 56.0645C30.0752 56.3926 30.333 56.7881 30.5088 57.251C30.6846 57.708 30.7725 58.2148 30.7725 58.7715C30.7725 59.1934 30.7051 59.5977 30.5703 59.9844C30.4414 60.3652 30.2539 60.7432 30.0078 61.1182C29.7676 61.4932 29.4775 61.877 29.1377 62.2695C28.7979 62.6562 28.4199 63.0635 28.0039 63.4912L25.5957 66.04H31.2119V68ZM40.792 63.2451H42.2773V65.2227H40.792V68H38.3486V65.2227H33.0312L32.9346 63.6934L38.3135 55.2031H40.792V63.2451ZM35.334 63.2451H38.3486V58.4902L38.1113 58.9121L35.334 63.2451ZM52.7979 63.1309C52.7979 63.957 52.7012 64.6865 52.5078 65.3193C52.3203 65.9463 52.0479 66.4736 51.6904 66.9014C51.333 67.3232 50.8965 67.6426 50.3809 67.8594C49.8652 68.0762 49.2852 68.1846 48.6406 68.1846C48.002 68.1846 47.4248 68.0762 46.9092 67.8594C46.3936 67.6426 45.9541 67.3232 45.5908 66.9014C45.2334 66.4736 44.9551 65.9463 44.7559 65.3193C44.5625 64.6865 44.4658 63.957 44.4658 63.1309V60.0723C44.4658 59.2461 44.5625 58.5195 44.7559 57.8926C44.9492 57.2598 45.2246 56.7324 45.582 56.3105C45.9453 55.8828 46.3818 55.5605 46.8916 55.3438C47.4072 55.127 47.9844 55.0186 48.623 55.0186C49.2676 55.0186 49.8477 55.127 50.3633 55.3438C50.8789 55.5605 51.3154 55.8828 51.6729 56.3105C52.0361 56.7324 52.3145 57.2598 52.5078 57.8926C52.7012 58.5195 52.7979 59.2461 52.7979 60.0723V63.1309ZM46.9268 62.0762L50.3369 59.5361C50.3193 58.6748 50.1699 58.0361 49.8887 57.6201C49.6074 57.2041 49.1855 56.9961 48.623 56.9961C48.0547 56.9961 47.6299 57.2158 47.3486 57.6553C47.0674 58.0947 46.9268 58.7715 46.9268 59.6855V62.0762ZM50.3369 61.1973L46.9268 63.7285C46.9561 64.5723 47.1113 65.1992 47.3926 65.6094C47.6738 66.0137 48.0898 66.2158 48.6406 66.2158C49.2148 66.2158 49.6396 65.9932 49.915 65.5479C50.1963 65.1025 50.3369 64.4199 50.3369 63.5V61.1973ZM63.6084 63.1309C63.6084 63.957 63.5117 64.6865 63.3184 65.3193C63.1309 65.9463 62.8584 66.4736 62.501 66.9014C62.1436 67.3232 61.707 67.6426 61.1914 67.8594C60.6758 68.0762 60.0957 68.1846 59.4512 68.1846C58.8125 68.1846 58.2354 68.0762 57.7197 67.8594C57.2041 67.6426 56.7646 67.3232 56.4014 66.9014C56.0439 66.4736 55.7656 65.9463 55.5664 65.3193C55.373 64.6865 55.2764 63.957 55.2764 63.1309V60.0723C55.2764 59.2461 55.373 58.5195 55.5664 57.8926C55.7598 57.2598 56.0352 56.7324 56.3926 56.3105C56.7559 55.8828 57.1924 55.5605 57.7021 55.3438C58.2178 55.127 58.7949 55.0186 59.4336 55.0186C60.0781 55.0186 60.6582 55.127 61.1738 55.3438C61.6895 55.5605 62.126 55.8828 62.4834 56.3105C62.8467 56.7324 63.125 57.2598 63.3184 57.8926C63.5117 58.5195 63.6084 59.2461 63.6084 60.0723V63.1309ZM57.7373 62.0762L61.1475 59.5361C61.1299 58.6748 60.9805 58.0361 60.6992 57.6201C60.418 57.2041 59.9961 56.9961 59.4336 56.9961C58.8652 56.9961 58.4404 57.2158 58.1592 57.6553C57.8779 58.0947 57.7373 58.7715 57.7373 59.6855V62.0762ZM61.1475 61.1973L57.7373 63.7285C57.7666 64.5723 57.9219 65.1992 58.2031 65.6094C58.4844 66.0137 58.9004 66.2158 59.4512 66.2158C60.0254 66.2158 60.4502 65.9932 60.7256 65.5479C61.0068 65.1025 61.1475 64.4199 61.1475 63.5V61.1973ZM75.21 62.7178H65.3838V60.7227H75.21V62.7178ZM85.2646 68H76.5371V66.3301L80.6768 61.8828C80.999 61.5312 81.2715 61.2119 81.4941 60.9248C81.7168 60.6377 81.8955 60.377 82.0303 60.1426C82.1709 59.9023 82.2705 59.6797 82.3291 59.4746C82.3936 59.2695 82.4258 59.0703 82.4258 58.877C82.4258 58.5898 82.3848 58.335 82.3027 58.1123C82.2207 57.8896 82.1035 57.7021 81.9512 57.5498C81.8047 57.3916 81.626 57.2715 81.415 57.1895C81.21 57.1074 80.9814 57.0664 80.7295 57.0664C80.0557 57.0664 79.5518 57.2539 79.2178 57.6289C78.8896 58.0039 78.7256 58.5283 78.7256 59.2021H76.2734C76.2734 58.6338 76.3818 58.0977 76.5986 57.5938C76.8154 57.084 77.1201 56.6387 77.5127 56.2578C77.9111 55.877 78.3887 55.5781 78.9453 55.3613C79.5078 55.1387 80.1289 55.0273 80.8086 55.0273C81.459 55.0273 82.0332 55.1182 82.5312 55.2998C83.0352 55.4814 83.4541 55.7363 83.7881 56.0645C84.1279 56.3926 84.3857 56.7881 84.5615 57.251C84.7373 57.708 84.8252 58.2148 84.8252 58.7715C84.8252 59.1934 84.7578 59.5977 84.623 59.9844C84.4941 60.3652 84.3066 60.7432 84.0605 61.1182C83.8203 61.4932 83.5303 61.877 83.1904 62.2695C82.8506 62.6562 82.4727 63.0635 82.0566 63.4912L79.6484 66.04H85.2646V68ZM90.1689 60.5293H91.4961C92.1641 60.5293 92.6592 60.3623 92.9814 60.0283C93.3037 59.6885 93.4648 59.2461 93.4648 58.7012C93.4648 58.4492 93.4268 58.2207 93.3506 58.0156C93.2803 57.8047 93.1719 57.626 93.0254 57.4795C92.8789 57.3271 92.6914 57.21 92.4629 57.1279C92.2402 57.0459 91.9795 57.0049 91.6807 57.0049C91.4346 57.0049 91.2031 57.04 90.9863 57.1104C90.7754 57.1807 90.5879 57.2832 90.4238 57.418C90.2656 57.5469 90.1396 57.7051 90.0459 57.8926C89.9521 58.0801 89.9053 58.291 89.9053 58.5254H87.4619C87.4619 58.0039 87.5674 57.5293 87.7783 57.1016C87.9951 56.6738 88.291 56.3076 88.666 56.0029C89.041 55.6924 89.4805 55.4521 89.9844 55.2822C90.4941 55.1123 91.042 55.0273 91.6279 55.0273C92.2607 55.0273 92.8408 55.1064 93.3682 55.2646C93.8955 55.417 94.3467 55.6484 94.7217 55.959C95.0967 56.2637 95.3867 56.6445 95.5918 57.1016C95.8027 57.5527 95.9082 58.0771 95.9082 58.6748C95.9082 58.9502 95.8672 59.2227 95.7852 59.4922C95.7031 59.7559 95.583 60.0078 95.4248 60.248C95.2666 60.4883 95.0703 60.7109 94.8359 60.916C94.6016 61.1152 94.332 61.2881 94.0273 61.4346C94.3848 61.5635 94.6924 61.7275 94.9502 61.9268C95.2139 62.126 95.4307 62.3545 95.6006 62.6123C95.7705 62.8643 95.8965 63.1426 95.9785 63.4473C96.0605 63.752 96.1016 64.0742 96.1016 64.4141C96.1016 65.0117 95.9873 65.5449 95.7588 66.0137C95.5303 66.4824 95.2168 66.8779 94.8184 67.2002C94.4199 67.5166 93.9453 67.7598 93.3945 67.9297C92.8496 68.0938 92.2607 68.1758 91.6279 68.1758C91.083 68.1758 90.5498 68.1025 90.0283 67.9561C89.5127 67.8037 89.0527 67.5781 88.6484 67.2793C88.2441 66.9746 87.9189 66.5938 87.6729 66.1367C87.4326 65.6797 87.3125 65.1406 87.3125 64.5195H89.7559C89.7559 64.7656 89.8027 64.9941 89.8965 65.2051C89.9902 65.4102 90.1221 65.5889 90.292 65.7412C90.4678 65.8877 90.6729 66.0049 90.9072 66.0928C91.1416 66.1748 91.3994 66.2158 91.6807 66.2158C92.3018 66.2158 92.7881 66.0518 93.1396 65.7236C93.4912 65.3955 93.667 64.9502 93.667 64.3877C93.667 64.042 93.6172 63.7461 93.5176 63.5C93.418 63.2539 93.2715 63.0518 93.0781 62.8936C92.8906 62.7354 92.6621 62.6182 92.3926 62.542C92.1289 62.4658 91.8301 62.4277 91.4961 62.4277H90.1689V60.5293ZM98.6416 61.6982L99.3711 55.2031H106.473V57.2773H101.384L101.076 60.0898C101.258 59.9844 101.516 59.876 101.85 59.7646C102.184 59.6533 102.567 59.5977 103.001 59.5977C103.616 59.5977 104.164 59.6973 104.645 59.8965C105.131 60.0898 105.538 60.3711 105.866 60.7402C106.2 61.1094 106.455 61.5605 106.631 62.0938C106.807 62.627 106.895 63.2305 106.895 63.9043C106.895 64.4785 106.81 65.0234 106.64 65.5391C106.47 66.0547 106.209 66.5088 105.857 66.9014C105.506 67.2939 105.063 67.6045 104.53 67.833C103.997 68.0615 103.367 68.1758 102.641 68.1758C102.09 68.1758 101.557 68.0938 101.041 67.9297C100.531 67.7656 100.077 67.5254 99.6787 67.209C99.2803 66.8926 98.9551 66.5059 98.7031 66.0488C98.457 65.5859 98.3252 65.0586 98.3076 64.4668H100.716C100.774 65.0234 100.974 65.4541 101.313 65.7588C101.659 66.0635 102.099 66.2158 102.632 66.2158C102.96 66.2158 103.238 66.1543 103.467 66.0312C103.701 65.9082 103.889 65.7383 104.029 65.5215C104.176 65.3047 104.281 65.0469 104.346 64.748C104.416 64.4492 104.451 64.127 104.451 63.7812C104.451 63.4414 104.407 63.1309 104.319 62.8496C104.237 62.5625 104.108 62.3164 103.933 62.1113C103.757 61.9062 103.537 61.748 103.273 61.6367C103.01 61.5254 102.699 61.4697 102.342 61.4697C102.102 61.4697 101.894 61.4902 101.718 61.5312C101.542 61.5723 101.387 61.625 101.252 61.6895C101.117 61.7539 100.997 61.8301 100.892 61.918C100.786 62 100.687 62.0879 100.593 62.1816L98.6416 61.6982ZM117.661 63.1309C117.661 63.957 117.564 64.6865 117.371 65.3193C117.184 65.9463 116.911 66.4736 116.554 66.9014C116.196 67.3232 115.76 67.6426 115.244 67.8594C114.729 68.0762 114.148 68.1846 113.504 68.1846C112.865 68.1846 112.288 68.0762 111.772 67.8594C111.257 67.6426 110.817 67.3232 110.454 66.9014C110.097 66.4736 109.818 65.9463 109.619 65.3193C109.426 64.6865 109.329 63.957 109.329 63.1309V60.0723C109.329 59.2461 109.426 58.5195 109.619 57.8926C109.812 57.2598 110.088 56.7324 110.445 56.3105C110.809 55.8828 111.245 55.5605 111.755 55.3438C112.271 55.127 112.848 55.0186 113.486 55.0186C114.131 55.0186 114.711 55.127 115.227 55.3438C115.742 55.5605 116.179 55.8828 116.536 56.3105C116.899 56.7324 117.178 57.2598 117.371 57.8926C117.564 58.5195 117.661 59.2461 117.661 60.0723V63.1309ZM111.79 62.0762L115.2 59.5361C115.183 58.6748 115.033 58.0361 114.752 57.6201C114.471 57.2041 114.049 56.9961 113.486 56.9961C112.918 56.9961 112.493 57.2158 112.212 57.6553C111.931 58.0947 111.79 58.7715 111.79 59.6855V62.0762ZM115.2 61.1973L111.79 63.7285C111.819 64.5723 111.975 65.1992 112.256 65.6094C112.537 66.0137 112.953 66.2158 113.504 66.2158C114.078 66.2158 114.503 65.9932 114.778 65.5479C115.06 65.1025 115.2 64.4199 115.2 63.5V61.1973ZM128.472 63.1309C128.472 63.957 128.375 64.6865 128.182 65.3193C127.994 65.9463 127.722 66.4736 127.364 66.9014C127.007 67.3232 126.57 67.6426 126.055 67.8594C125.539 68.0762 124.959 68.1846 124.314 68.1846C123.676 68.1846 123.099 68.0762 122.583 67.8594C122.067 67.6426 121.628 67.3232 121.265 66.9014C120.907 66.4736 120.629 65.9463 120.43 65.3193C120.236 64.6865 120.14 63.957 120.14 63.1309V60.0723C120.14 59.2461 120.236 58.5195 120.43 57.8926C120.623 57.2598 120.898 56.7324 121.256 56.3105C121.619 55.8828 122.056 55.5605 122.565 55.3438C123.081 55.127 123.658 55.0186 124.297 55.0186C124.941 55.0186 125.521 55.127 126.037 55.3438C126.553 55.5605 126.989 55.8828 127.347 56.3105C127.71 56.7324 127.988 57.2598 128.182 57.8926C128.375 58.5195 128.472 59.2461 128.472 60.0723V63.1309ZM122.601 62.0762L126.011 59.5361C125.993 58.6748 125.844 58.0361 125.562 57.6201C125.281 57.2041 124.859 56.9961 124.297 56.9961C123.729 56.9961 123.304 57.2158 123.022 57.6553C122.741 58.0947 122.601 58.7715 122.601 59.6855V62.0762ZM126.011 61.1973L122.601 63.7285C122.63 64.5723 122.785 65.1992 123.066 65.6094C123.348 66.0137 123.764 66.2158 124.314 66.2158C124.889 66.2158 125.313 65.9932 125.589 65.5479C125.87 65.1025 126.011 64.4199 126.011 63.5V61.1973ZM134.527 64.0713L133.42 65.0996V68H130.977V54.5H133.42V62.2168L134.158 61.373L136.786 58.4902H139.722L136.136 62.4541L140.223 68H137.226L134.527 64.0713ZM141.515 63.1748C141.515 62.4541 141.603 61.7949 141.778 61.1973C141.96 60.5996 142.218 60.0869 142.552 59.6592C142.886 59.2314 143.29 58.9004 143.765 58.666C144.239 58.4316 144.775 58.3145 145.373 58.3145C145.93 58.3145 146.407 58.4082 146.806 58.5957C147.204 58.7832 147.544 59.0498 147.825 59.3955L147.922 58.4902H150.146V67.6924C150.146 68.3369 150.034 68.9111 149.812 69.415C149.595 69.9189 149.287 70.3438 148.889 70.6895C148.496 71.0352 148.021 71.2959 147.465 71.4717C146.914 71.6533 146.305 71.7441 145.637 71.7441C145.35 71.7441 145.042 71.7148 144.714 71.6562C144.386 71.5977 144.061 71.5068 143.738 71.3838C143.416 71.2607 143.111 71.1025 142.824 70.9092C142.537 70.7217 142.291 70.4961 142.086 70.2324L143.185 68.7471C143.495 69.0986 143.847 69.3652 144.239 69.5469C144.632 69.7344 145.057 69.8281 145.514 69.8281C146.199 69.8281 146.732 69.6436 147.113 69.2744C147.5 68.9111 147.693 68.3926 147.693 67.7188V67.1738C147.406 67.4902 147.069 67.7363 146.683 67.9121C146.302 68.0879 145.859 68.1758 145.355 68.1758C144.764 68.1758 144.23 68.0557 143.756 67.8154C143.287 67.5693 142.886 67.2324 142.552 66.8047C142.218 66.377 141.96 65.8701 141.778 65.2842C141.603 64.6924 141.515 64.0508 141.515 63.3594V63.1748ZM143.967 63.3594C143.967 63.7578 144.005 64.1299 144.081 64.4756C144.163 64.8154 144.286 65.1143 144.45 65.3721C144.614 65.624 144.822 65.8232 145.074 65.9697C145.326 66.1162 145.625 66.1895 145.971 66.1895C146.398 66.1895 146.75 66.1074 147.025 65.9434C147.307 65.7793 147.529 65.5508 147.693 65.2578V61.2324C147.529 60.9336 147.307 60.7051 147.025 60.5469C146.75 60.3828 146.404 60.3008 145.988 60.3008C145.643 60.3008 145.344 60.377 145.092 60.5293C144.84 60.6758 144.629 60.8809 144.459 61.1445C144.295 61.4023 144.172 61.707 144.09 62.0586C144.008 62.4043 143.967 62.7764 143.967 63.1748V63.3594ZM172.18 63.9922C172.139 64.6367 171.998 65.2168 171.758 65.7324C171.523 66.248 171.207 66.6875 170.809 67.0508C170.41 67.4141 169.936 67.6953 169.385 67.8945C168.834 68.0879 168.225 68.1846 167.557 68.1846C166.801 68.1846 166.13 68.0469 165.544 67.7715C164.958 67.4902 164.466 67.1006 164.067 66.6025C163.669 66.0986 163.364 65.4951 163.153 64.792C162.942 64.0889 162.837 63.3154 162.837 62.4717V60.749C162.837 59.8994 162.948 59.123 163.171 58.4199C163.394 57.7168 163.71 57.1133 164.12 56.6094C164.53 56.1055 165.025 55.7158 165.605 55.4404C166.191 55.1592 166.848 55.0186 167.574 55.0186C168.277 55.0186 168.901 55.1182 169.446 55.3174C169.997 55.5166 170.466 55.8008 170.853 56.1699C171.239 56.5391 171.544 56.9902 171.767 57.5234C171.989 58.0566 172.13 58.6572 172.188 59.3252H169.728C169.704 58.9443 169.646 58.6104 169.552 58.3232C169.464 58.0361 169.332 57.7988 169.156 57.6113C168.986 57.418 168.77 57.2744 168.506 57.1807C168.248 57.0811 167.938 57.0312 167.574 57.0312C167.193 57.0312 166.862 57.1133 166.581 57.2773C166.3 57.4414 166.065 57.6816 165.878 57.998C165.696 58.3145 165.562 58.7041 165.474 59.167C165.386 59.624 165.342 60.1455 165.342 60.7314V62.4717C165.342 63.7314 165.518 64.6631 165.869 65.2666C166.227 65.8701 166.789 66.1719 167.557 66.1719C168.201 66.1719 168.711 66.002 169.086 65.6621C169.461 65.3164 169.669 64.7598 169.71 63.9922H172.18ZM183.034 62.542C183.034 63.3623 182.926 64.1182 182.709 64.8096C182.492 65.501 182.179 66.0957 181.769 66.5938C181.358 67.0918 180.857 67.4814 180.266 67.7627C179.68 68.0381 179.018 68.1758 178.279 68.1758C177.541 68.1758 176.885 68.0381 176.311 67.7627C175.736 67.4814 175.253 67.0918 174.86 66.5938C174.468 66.0898 174.169 65.4951 173.964 64.8096C173.759 64.1182 173.656 63.3623 173.656 62.542V60.6787C173.656 59.8584 173.759 59.1025 173.964 58.4111C174.169 57.7197 174.468 57.125 174.86 56.627C175.253 56.123 175.733 55.7305 176.302 55.4492C176.876 55.168 177.532 55.0273 178.271 55.0273C179.015 55.0273 179.68 55.168 180.266 55.4492C180.857 55.7305 181.358 56.123 181.769 56.627C182.179 57.125 182.492 57.7197 182.709 58.4111C182.926 59.1025 183.034 59.8584 183.034 60.6787V62.542ZM180.529 60.6611C180.529 60.1396 180.485 59.6592 180.397 59.2197C180.315 58.7803 180.184 58.4023 180.002 58.0859C179.82 57.7695 179.586 57.5234 179.299 57.3477C179.018 57.166 178.675 57.0752 178.271 57.0752C177.872 57.0752 177.538 57.166 177.269 57.3477C176.999 57.5234 176.782 57.7695 176.618 58.0859C176.454 58.4023 176.337 58.7803 176.267 59.2197C176.196 59.6592 176.161 60.1396 176.161 60.6611V62.542C176.161 63.0576 176.196 63.5352 176.267 63.9746C176.337 64.4141 176.454 64.7949 176.618 65.1172C176.782 65.4395 176.999 65.6914 177.269 65.873C177.538 66.0547 177.875 66.1455 178.279 66.1455C178.678 66.1455 179.018 66.0547 179.299 65.873C179.586 65.6914 179.817 65.4424 179.993 65.126C180.175 64.8037 180.31 64.4229 180.397 63.9834C180.485 63.5439 180.529 63.0635 180.529 62.542V60.6611ZM189.938 70.34H184.25V68.864L186.212 66.938C186.752 66.41 187.118 66.008 187.31 65.732C187.514 65.444 187.616 65.144 187.616 64.832C187.616 64.616 187.544 64.448 187.4 64.328C187.268 64.208 187.082 64.148 186.842 64.148C186.374 64.148 185.846 64.406 185.258 64.922L184.178 63.59C184.562 63.254 184.988 62.984 185.456 62.78C185.936 62.564 186.494 62.456 187.13 62.456C187.91 62.456 188.534 62.648 189.002 63.032C189.482 63.404 189.722 63.944 189.722 64.652C189.722 65.192 189.572 65.684 189.272 66.128C188.972 66.572 188.468 67.112 187.76 67.748L186.842 68.576H189.938V70.34ZM196.438 68.1758C195.705 68.1758 195.04 68.0557 194.442 67.8154C193.845 67.5752 193.332 67.25 192.904 66.8398C192.477 66.4238 192.146 65.9375 191.911 65.3809C191.683 64.8184 191.568 64.2178 191.568 63.5791V63.2275C191.568 62.501 191.683 61.8389 191.911 61.2412C192.14 60.6377 192.459 60.1191 192.869 59.6855C193.279 59.252 193.766 58.915 194.328 58.6748C194.891 58.4346 195.503 58.3145 196.165 58.3145C196.851 58.3145 197.46 58.4287 197.993 58.6572C198.532 58.8799 198.986 59.1963 199.355 59.6064C199.73 60.0166 200.015 60.5117 200.208 61.0918C200.401 61.666 200.498 62.3018 200.498 62.999V64.0361H194.047C194.094 64.3584 194.188 64.6543 194.328 64.9238C194.475 65.1875 194.659 65.416 194.882 65.6094C195.104 65.8027 195.359 65.9521 195.646 66.0576C195.934 66.1631 196.247 66.2158 196.587 66.2158C196.827 66.2158 197.064 66.1924 197.299 66.1455C197.539 66.0986 197.768 66.0312 197.984 65.9434C198.201 65.8496 198.403 65.7354 198.591 65.6006C198.778 65.4658 198.942 65.3076 199.083 65.126L200.305 66.4443C200.152 66.6611 199.953 66.875 199.707 67.0859C199.467 67.291 199.18 67.4756 198.846 67.6396C198.518 67.7979 198.151 67.9268 197.747 68.0264C197.343 68.126 196.906 68.1758 196.438 68.1758ZM196.147 60.292C195.872 60.292 195.62 60.3418 195.392 60.4414C195.163 60.5352 194.961 60.6729 194.785 60.8545C194.615 61.0361 194.472 61.2529 194.354 61.5049C194.237 61.7568 194.149 62.0381 194.091 62.3486H198.099V62.1553C198.087 61.8975 198.037 61.6543 197.949 61.4258C197.861 61.1973 197.735 61.001 197.571 60.8369C197.407 60.667 197.205 60.5352 196.965 60.4414C196.73 60.3418 196.458 60.292 196.147 60.292ZM202.388 63.166C202.388 62.4453 202.47 61.7861 202.634 61.1885C202.798 60.5908 203.038 60.0811 203.354 59.6592C203.677 59.2314 204.069 58.9004 204.532 58.666C205.001 58.4316 205.537 58.3145 206.141 58.3145C206.68 58.3145 207.148 58.4141 207.547 58.6133C207.951 58.8125 208.3 59.0938 208.593 59.457L208.742 58.4902H210.896V71.6562H208.443V67.1914C208.156 67.5078 207.822 67.751 207.441 67.9209C207.061 68.0908 206.621 68.1758 206.123 68.1758C205.525 68.1758 204.995 68.0557 204.532 67.8154C204.069 67.5693 203.68 67.2324 203.363 66.8047C203.047 66.3711 202.804 65.8613 202.634 65.2754C202.47 64.6836 202.388 64.042 202.388 63.3506V63.166ZM204.831 63.3506C204.831 63.7432 204.866 64.1123 204.937 64.458C205.007 64.8037 205.118 65.1084 205.271 65.3721C205.423 65.6299 205.619 65.835 205.859 65.9873C206.105 66.1396 206.401 66.2158 206.747 66.2158C207.175 66.2158 207.523 66.1309 207.793 65.9609C208.068 65.791 208.285 65.5566 208.443 65.2578V61.2148C208.285 60.9219 208.068 60.6963 207.793 60.5381C207.523 60.374 207.181 60.292 206.765 60.292C206.419 60.292 206.123 60.3682 205.877 60.5205C205.637 60.667 205.438 60.8691 205.279 61.127C205.127 61.3848 205.013 61.6895 204.937 62.041C204.866 62.3867 204.831 62.7617 204.831 63.166V63.3506Z" fill="#00C7A5"/>
</svg>
