<svg width="222" height="495" viewBox="0 0 222 495" fill="none" xmlns="http://www.w3.org/2000/svg">
<rect width="222" height="375" fill="white" fill-opacity="0.3"/>
<circle cx="151.486" cy="157.486" r="7.48585" fill="#00C7A5" fill-opacity="0.2"/>
<circle cx="119.486" cy="157.486" r="7.48585" fill="#00C7A5" fill-opacity="0.2"/>
<circle cx="15.4859" cy="82.4859" r="7.48585" fill="#00C7A5" fill-opacity="0.2"/>
<circle cx="39.4859" cy="157.486" r="7.48585" fill="#00C7A5" fill-opacity="0.2"/>
<circle cx="79.4859" cy="232.486" r="7.48585" fill="#00C7A5" fill-opacity="0.2"/>
<circle cx="167.486" cy="247.486" r="7.48585" fill="#00C7A5" fill-opacity="0.2"/>
<circle cx="183.486" cy="187.486" r="7.48585" fill="#00C7A5" fill-opacity="0.2"/>
<circle cx="39.4859" cy="97.4859" r="7.48585" fill="#00C7A5" fill-opacity="0.2"/>
<circle cx="23.4859" cy="37.4859" r="7.48585" fill="#00C7A5" fill-opacity="0.2"/>
<circle cx="95.4859" cy="172.486" r="7.48585" fill="#00C7A5" fill-opacity="0.2"/>
<circle cx="199.486" cy="157.486" r="7.48585" fill="#00C7A5" fill-opacity="0.2"/>
<circle cx="199.486" cy="217.486" r="7.48585" fill="#00C7A5" fill-opacity="0.2"/>
<circle cx="111.486" cy="262.486" r="7.48585" fill="#00C7A5" fill-opacity="0.2"/>
<circle cx="143.486" cy="262.486" r="7.48585" fill="#00C7A5" fill-opacity="0.2"/>
<circle cx="127.486" cy="172.486" r="7.48585" fill="#00C7A5" fill-opacity="0.2"/>
<circle cx="183.486" cy="157.486" r="7.48585" fill="#00C7A5" fill-opacity="0.2"/>
<circle cx="63.4859" cy="232.486" r="7.48585" fill="#00C7A5" fill-opacity="0.2"/>
<circle cx="79.4859" cy="172.486" r="7.48585" fill="#00C7A5" fill-opacity="0.2"/>
<circle cx="159.486" cy="232.486" r="7.48585" fill="#00C7A5" fill-opacity="0.2"/>
<circle cx="31.4859" cy="112.486" r="7.48585" fill="#00C7A5" fill-opacity="0.2"/>
<circle cx="143.486" cy="172.486" r="7.48585" fill="#00C7A5" fill-opacity="0.2"/>
<circle cx="15.4859" cy="172.486" r="7.48585" fill="#00C7A5" fill-opacity="0.2"/>
<circle cx="95.4859" cy="262.486" r="7.48585" fill="#00C7A5" fill-opacity="0.2"/>
<circle cx="127.486" cy="262.486" r="7.48585" fill="#00C7A5" fill-opacity="0.2"/>
<circle cx="151.486" cy="247.486" r="7.48585" fill="#00C7A5" fill-opacity="0.2"/>
<circle cx="111.486" cy="142.486" r="7.48585" fill="#00C7A5" fill-opacity="0.2"/>
<circle cx="135.486" cy="157.486" r="7.48585" fill="#00C7A5" fill-opacity="0.2"/>
<circle cx="127.486" cy="202.486" r="7.48585" fill="#00C7A5" fill-opacity="0.2"/>
<circle cx="207.486" cy="142.486" r="7.48585" fill="#00C7A5" fill-opacity="0.2"/>
<circle cx="31.4859" cy="202.486" r="7.48585" fill="#00C7A5" fill-opacity="0.2"/>
<circle cx="183.486" cy="217.486" r="7.48585" fill="#00C7A5" fill-opacity="0.2"/>
<circle cx="207.486" cy="232.486" r="7.48585" fill="#00C7A5" fill-opacity="0.2"/>
<circle cx="151.486" cy="217.486" r="7.48585" fill="#00C7A5" fill-opacity="0.2"/>
<circle cx="31.4859" cy="82.4859" r="7.48585" fill="#00C7A5" fill-opacity="0.2"/>
<circle cx="199.486" cy="67.4859" r="7.48585" fill="#00C7A5" fill-opacity="0.2"/>
<circle cx="31.4859" cy="172.486" r="7.48585" fill="#00C7A5" fill-opacity="0.2"/>
<circle cx="7.48585" cy="187.486" r="7.48585" fill="#00C7A5" fill-opacity="0.2"/>
<circle cx="103.486" cy="37.4859" r="7.48585" fill="#00C7A5" fill-opacity="0.2"/>
<circle cx="87.4859" cy="67.4859" r="7.48585" fill="#00C7A5" fill-opacity="0.2"/>
<circle cx="95.4859" cy="52.4859" r="7.48585" fill="#00C7A5" fill-opacity="0.2"/>
<circle cx="95.4859" cy="82.4859" r="7.48585" fill="#00C7A5" fill-opacity="0.2"/>
<circle cx="103.486" cy="97.4859" r="7.48585" fill="#00C7A5" fill-opacity="0.2"/>
<circle cx="95.4859" cy="112.486" r="7.48585" fill="#00C7A5" fill-opacity="0.2"/>
<circle cx="103.486" cy="127.486" r="7.48585" fill="#00C7A5" fill-opacity="0.2"/>
<circle cx="191.486" cy="142.486" r="7.48585" fill="#00C7A5" fill-opacity="0.2"/>
<circle cx="39.4859" cy="37.4859" r="7.48585" fill="#00C7A5" fill-opacity="0.2"/>
<circle cx="183.486" cy="67.4859" r="7.48585" fill="#00C7A5" fill-opacity="0.2"/>
<circle cx="87.4859" cy="187.486" r="7.48585" fill="#00C7A5" fill-opacity="0.2"/>
<circle cx="71.4859" cy="217.486" r="7.48585" fill="#00C7A5" fill-opacity="0.2"/>
<circle cx="23.4859" cy="187.486" r="7.48585" fill="#00C7A5" fill-opacity="0.2"/>
<circle cx="175.486" cy="232.486" r="7.48585" fill="#00C7A5" fill-opacity="0.2"/>
<circle cx="191.486" cy="262.486" r="7.48585" fill="#00C7A5" fill-opacity="0.2"/>
<circle cx="39.4859" cy="127.486" r="7.48585" fill="#00C7A5" fill-opacity="0.2"/>
<circle cx="159.486" cy="172.486" r="7.48585" fill="#00C7A5" fill-opacity="0.2"/>
<circle cx="23.4859" cy="157.486" r="7.48585" fill="#00C7A5" fill-opacity="0.2"/>
<circle cx="95.4859" cy="142.486" r="7.48585" fill="#00C7A5" fill-opacity="0.2"/>
<circle cx="23.4859" cy="67.4859" r="7.48585" fill="#00C7A5" fill-opacity="0.2"/>
<circle cx="111.486" cy="202.486" r="7.48585" fill="#00C7A5" fill-opacity="0.2"/>
<circle cx="191.486" cy="172.486" r="7.48585" fill="#00C7A5" fill-opacity="0.2"/>
<circle cx="167.486" cy="217.486" r="7.48585" fill="#00C7A5" fill-opacity="0.2"/>
<circle cx="191.486" cy="232.486" r="7.48585" fill="#00C7A5" fill-opacity="0.2"/>
<circle cx="199.486" cy="187.486" r="7.48585" fill="#00C7A5" fill-opacity="0.2"/>
<circle cx="191.486" cy="52.4859" r="7.48585" fill="#00C7A5" fill-opacity="0.2"/>
<circle cx="23.4859" cy="127.486" r="7.48585" fill="#00C7A5" fill-opacity="0.2"/>
<circle cx="167.486" cy="187.486" r="7.48585" fill="#00C7A5" fill-opacity="0.2"/>
<circle cx="111.486" cy="232.486" r="7.48585" fill="#00C7A5" fill-opacity="0.2"/>
<circle cx="199.486" cy="247.486" r="7.48585" fill="#00C7A5" fill-opacity="0.2"/>
<circle cx="207.486" cy="202.486" r="7.48585" fill="#00C7A5" fill-opacity="0.2"/>
<circle cx="207.486" cy="262.486" r="7.48585" fill="#00C7A5" fill-opacity="0.2"/>
<circle cx="47.4859" cy="142.486" r="7.48585" fill="#00C7A5" fill-opacity="0.2"/>
<circle cx="199.486" cy="37.4859" r="7.48585" fill="#00C7A5" fill-opacity="0.2"/>
<circle cx="47.4859" cy="172.486" r="7.48585" fill="#00C7A5" fill-opacity="0.2"/>
<circle cx="15.4859" cy="202.486" r="7.48585" fill="#00C7A5" fill-opacity="0.2"/>
<circle cx="15.4859" cy="51.4859" r="7.48585" fill="#00C7A5" fill-opacity="0.2"/>
<circle cx="79.4859" cy="142.486" r="7.48585" fill="#00C7A5" fill-opacity="0.2"/>
<circle cx="135.486" cy="247.486" r="7.48585" fill="#00C7A5" fill-opacity="0.2"/>
<circle cx="175.486" cy="262.486" r="7.48585" fill="#00C7A5" fill-opacity="0.2"/>
<circle cx="95.4859" cy="202.486" r="7.48585" fill="#00C7A5" fill-opacity="0.2"/>
<circle cx="15.4859" cy="262.486" r="7.48585" fill="#00C7A5" fill-opacity="0.2"/>
<circle cx="127.486" cy="232.486" r="7.48585" fill="#00C7A5" fill-opacity="0.2"/>
<circle cx="7.48585" cy="217.486" r="7.48585" fill="#00C7A5" fill-opacity="0.2"/>
<circle cx="39.4859" cy="247.486" r="7.48585" fill="#00C7A5" fill-opacity="0.2"/>
<circle cx="31.4859" cy="142.486" r="7.48585" fill="#00C7A5" fill-opacity="0.2"/>
<circle cx="55.4859" cy="247.486" r="7.48585" fill="#00C7A5" fill-opacity="0.2"/>
<circle cx="31.4859" cy="262.486" r="7.48585" fill="#00C7A5" fill-opacity="0.2"/>
<circle cx="63.4859" cy="202.486" r="7.48585" fill="#00C7A5" fill-opacity="0.2"/>
<circle cx="39.4859" cy="217.486" r="7.48585" fill="#00C7A5" fill-opacity="0.2"/>
<circle cx="23.4859" cy="247.486" r="7.48585" fill="#00C7A5" fill-opacity="0.2"/>
<circle cx="31.4859" cy="232.486" r="7.48585" fill="#00C7A5" fill-opacity="0.2"/>
<circle cx="47.4859" cy="232.486" r="7.48585" fill="#00C7A5" fill-opacity="0.2"/>
<circle cx="135.486" cy="37.4859" r="7.48585" fill="#00C7A5" fill-opacity="0.2"/>
<circle cx="119.486" cy="67.4859" r="7.48585" fill="#00C7A5" fill-opacity="0.2"/>
<circle cx="127.486" cy="52.4859" r="7.48585" fill="#00C7A5" fill-opacity="0.2"/>
<circle cx="127.486" cy="82.4859" r="7.48585" fill="#00C7A5" fill-opacity="0.2"/>
<circle cx="135.486" cy="97.4859" r="7.48585" fill="#00C7A5" fill-opacity="0.2"/>
<circle cx="127.486" cy="112.486" r="7.48585" fill="#00C7A5" fill-opacity="0.2"/>
<circle cx="135.486" cy="127.486" r="7.48585" fill="#00C7A5" fill-opacity="0.2"/>
<circle cx="63.4859" cy="142.486" r="7.48585" fill="#00C7A5" fill-opacity="0.2"/>
<circle cx="143.486" cy="142.486" r="7.48585" fill="#00C7A5" fill-opacity="0.2"/>
<circle cx="79.4859" cy="202.486" r="7.48585" fill="#00C7A5" fill-opacity="0.2"/>
<circle cx="119.486" cy="187.486" r="7.48585" fill="#00C7A5" fill-opacity="0.2"/>
<circle cx="143.486" cy="232.486" r="7.48585" fill="#00C7A5" fill-opacity="0.2"/>
<circle cx="7.48585" cy="247.486" r="7.48585" fill="#00C7A5" fill-opacity="0.2"/>
<circle cx="103.486" cy="217.486" r="7.48585" fill="#00C7A5" fill-opacity="0.2"/>
<circle cx="103.486" cy="7.48585" r="7.48585" fill="#00C7A5" fill-opacity="0.2"/>
<circle cx="135.486" cy="7.48585" r="7.48585" fill="#00C7A5" fill-opacity="0.2"/>
<circle cx="103.486" cy="157.486" r="7.48585" fill="#00C7A5" fill-opacity="0.2"/>
<circle cx="55.4859" cy="187.486" r="7.48585" fill="#00C7A5" fill-opacity="0.2"/>
<circle cx="47.4859" cy="202.486" r="7.48585" fill="#00C7A5" fill-opacity="0.2"/>
<circle cx="119.486" cy="37.4859" r="7.48585" fill="#00C7A5" fill-opacity="0.2"/>
<circle cx="103.486" cy="67.4859" r="7.48585" fill="#00C7A5" fill-opacity="0.2"/>
<circle cx="111.486" cy="82.4859" r="7.48585" fill="#00C7A5" fill-opacity="0.2"/>
<circle cx="119.486" cy="97.4859" r="7.48585" fill="#00C7A5" fill-opacity="0.2"/>
<circle cx="111.486" cy="112.486" r="7.48585" fill="#00C7A5" fill-opacity="0.2"/>
<circle cx="119.486" cy="127.486" r="7.48585" fill="#00C7A5" fill-opacity="0.2"/>
<circle cx="47.4859" cy="22.4859" r="7.48585" fill="#00C7A5" fill-opacity="0.2"/>
<circle cx="95.4859" cy="22.4859" r="7.48585" fill="#00C7A5" fill-opacity="0.2"/>
<circle cx="167.486" cy="157.486" r="7.48585" fill="#00C7A5" fill-opacity="0.2"/>
<circle cx="127.486" cy="22.4859" r="7.48585" fill="#00C7A5" fill-opacity="0.2"/>
<circle cx="103.486" cy="187.486" r="7.48585" fill="#00C7A5" fill-opacity="0.2"/>
<circle cx="159.486" cy="22.4859" r="7.48585" fill="#00C7A5" fill-opacity="0.2"/>
<circle cx="39.4859" cy="187.486" r="7.48585" fill="#00C7A5" fill-opacity="0.2"/>
<circle cx="119.486" cy="7.48585" r="7.48585" fill="#00C7A5" fill-opacity="0.2"/>
<circle cx="111.486" cy="172.486" r="7.48585" fill="#00C7A5" fill-opacity="0.2"/>
<circle cx="143.486" cy="202.486" r="7.48585" fill="#00C7A5" fill-opacity="0.2"/>
<circle cx="31.4859" cy="22.4859" r="7.48585" fill="#00C7A5" fill-opacity="0.2"/>
<circle cx="191.486" cy="202.486" r="7.48585" fill="#00C7A5" fill-opacity="0.2"/>
<circle cx="79.4859" cy="22.4859" r="7.48585" fill="#00C7A5" fill-opacity="0.2"/>
<circle cx="63.4859" cy="22.4859" r="7.48585" fill="#00C7A5" fill-opacity="0.2"/>
<circle cx="111.486" cy="22.4859" r="7.48585" fill="#00C7A5" fill-opacity="0.2"/>
<circle cx="87.4859" cy="157.486" r="7.48585" fill="#00C7A5" fill-opacity="0.2"/>
<circle cx="143.486" cy="22.4859" r="7.48585" fill="#00C7A5" fill-opacity="0.2"/>
<circle cx="175.486" cy="22.4859" r="7.48585" fill="#00C7A5" fill-opacity="0.2"/>
<circle cx="71.4859" cy="247.486" r="7.48585" fill="#00C7A5" fill-opacity="0.2"/>
<circle cx="47.4859" cy="262.486" r="7.48585" fill="#00C7A5" fill-opacity="0.2"/>
<circle cx="87.4859" cy="7.48585" r="7.48585" fill="#00C7A5" fill-opacity="0.2"/>
<circle cx="191.486" cy="112.486" r="7.48585" fill="#00C7A5" fill-opacity="0.2"/>
<circle cx="55.4859" cy="157.486" r="7.48585" fill="#00C7A5" fill-opacity="0.2"/>
<circle cx="71.4859" cy="157.486" r="7.48585" fill="#00C7A5" fill-opacity="0.2"/>
<circle cx="159.486" cy="202.486" r="7.48585" fill="#00C7A5" fill-opacity="0.2"/>
<circle cx="7.48585" cy="66.4859" r="7.48585" fill="#00C7A5" fill-opacity="0.2"/>
<circle cx="95.4859" cy="232.486" r="7.48585" fill="#00C7A5" fill-opacity="0.2"/>
<circle cx="183.486" cy="247.486" r="7.48585" fill="#00C7A5" fill-opacity="0.2"/>
<circle cx="103.486" cy="247.486" r="7.48585" fill="#00C7A5" fill-opacity="0.2"/>
<circle cx="79.4859" cy="262.486" r="7.48585" fill="#00C7A5" fill-opacity="0.2"/>
<circle cx="87.4859" cy="247.486" r="7.48585" fill="#00C7A5" fill-opacity="0.2"/>
<circle cx="63.4859" cy="262.486" r="7.48585" fill="#00C7A5" fill-opacity="0.2"/>
<circle cx="55.4859" cy="37.4859" r="7.48585" fill="#00C7A5" fill-opacity="0.2"/>
<circle cx="39.4859" cy="67.4859" r="7.48585" fill="#00C7A5" fill-opacity="0.2"/>
<circle cx="47.4859" cy="52.4859" r="7.48585" fill="#00C7A5" fill-opacity="0.2"/>
<circle cx="47.4859" cy="82.4859" r="7.48585" fill="#00C7A5" fill-opacity="0.2"/>
<circle cx="55.4859" cy="97.4859" r="7.48585" fill="#00C7A5" fill-opacity="0.2"/>
<circle cx="47.4859" cy="112.486" r="7.48585" fill="#00C7A5" fill-opacity="0.2"/>
<circle cx="55.4859" cy="127.486" r="7.48585" fill="#00C7A5" fill-opacity="0.2"/>
<circle cx="151.486" cy="37.4859" r="7.48585" fill="#00C7A5" fill-opacity="0.2"/>
<circle cx="135.486" cy="67.4859" r="7.48585" fill="#00C7A5" fill-opacity="0.2"/>
<circle cx="143.486" cy="52.4859" r="7.48585" fill="#00C7A5" fill-opacity="0.2"/>
<circle cx="143.486" cy="82.4859" r="7.48585" fill="#00C7A5" fill-opacity="0.2"/>
<circle cx="151.486" cy="97.4859" r="7.48585" fill="#00C7A5" fill-opacity="0.2"/>
<circle cx="143.486" cy="112.486" r="7.48585" fill="#00C7A5" fill-opacity="0.2"/>
<circle cx="151.486" cy="127.486" r="7.48585" fill="#00C7A5" fill-opacity="0.2"/>
<circle cx="31.4859" cy="52.4859" r="7.48585" fill="#00C7A5" fill-opacity="0.2"/>
<circle cx="23.4859" cy="217.486" r="7.48585" fill="#00C7A5" fill-opacity="0.2"/>
<circle cx="15.4859" cy="232.486" r="7.48585" fill="#00C7A5" fill-opacity="0.2"/>
<circle cx="159.486" cy="142.486" r="7.48585" fill="#00C7A5" fill-opacity="0.2"/>
<circle cx="127.486" cy="142.486" r="7.48585" fill="#00C7A5" fill-opacity="0.2"/>
<circle cx="135.486" cy="187.486" r="7.48585" fill="#00C7A5" fill-opacity="0.2"/>
<circle cx="175.486" cy="202.486" r="7.48585" fill="#00C7A5" fill-opacity="0.2"/>
<circle cx="119.486" cy="247.486" r="7.48585" fill="#00C7A5" fill-opacity="0.2"/>
<circle cx="159.486" cy="262.486" r="7.48585" fill="#00C7A5" fill-opacity="0.2"/>
<circle cx="119.486" cy="217.486" r="7.48585" fill="#00C7A5" fill-opacity="0.2"/>
<circle cx="71.4859" cy="37.4859" r="7.48585" fill="#00C7A5" fill-opacity="0.2"/>
<circle cx="55.4859" cy="67.4859" r="7.48585" fill="#00C7A5" fill-opacity="0.2"/>
<circle cx="63.4859" cy="52.4859" r="7.48585" fill="#00C7A5" fill-opacity="0.2"/>
<circle cx="63.4859" cy="82.4859" r="7.48585" fill="#00C7A5" fill-opacity="0.2"/>
<circle cx="71.4859" cy="97.4859" r="7.48585" fill="#00C7A5" fill-opacity="0.2"/>
<circle cx="63.4859" cy="112.486" r="7.48585" fill="#00C7A5" fill-opacity="0.2"/>
<circle cx="71.4859" cy="127.486" r="7.48585" fill="#00C7A5" fill-opacity="0.2"/>
<circle cx="167.486" cy="37.4859" r="7.48585" fill="#00C7A5" fill-opacity="0.2"/>
<circle cx="151.486" cy="67.4859" r="7.48585" fill="#00C7A5" fill-opacity="0.2"/>
<circle cx="159.486" cy="52.4859" r="7.48585" fill="#00C7A5" fill-opacity="0.2"/>
<circle cx="159.486" cy="82.4859" r="7.48585" fill="#00C7A5" fill-opacity="0.2"/>
<circle cx="167.486" cy="97.4859" r="7.48585" fill="#00C7A5" fill-opacity="0.2"/>
<circle cx="159.486" cy="112.486" r="7.48585" fill="#00C7A5" fill-opacity="0.2"/>
<circle cx="167.486" cy="127.486" r="7.48585" fill="#00C7A5" fill-opacity="0.2"/>
<circle cx="207.486" cy="112.486" r="7.48585" fill="#00C7A5" fill-opacity="0.2"/>
<circle cx="175.486" cy="142.486" r="7.48585" fill="#00C7A5" fill-opacity="0.2"/>
<circle cx="63.4859" cy="172.486" r="7.48585" fill="#00C7A5" fill-opacity="0.2"/>
<circle cx="151.486" cy="187.486" r="7.48585" fill="#00C7A5" fill-opacity="0.2"/>
<circle cx="87.4859" cy="217.486" r="7.48585" fill="#00C7A5" fill-opacity="0.2"/>
<circle cx="55.4859" cy="217.486" r="7.48585" fill="#00C7A5" fill-opacity="0.2"/>
<circle cx="87.4859" cy="37.4859" r="7.48585" fill="#00C7A5" fill-opacity="0.2"/>
<circle cx="71.4859" cy="67.4859" r="7.48585" fill="#00C7A5" fill-opacity="0.2"/>
<circle cx="79.4859" cy="52.4859" r="7.48585" fill="#00C7A5" fill-opacity="0.2"/>
<circle cx="79.4859" cy="82.4859" r="7.48585" fill="#00C7A5" fill-opacity="0.2"/>
<circle cx="87.4859" cy="97.4859" r="7.48585" fill="#00C7A5" fill-opacity="0.2"/>
<circle cx="79.4859" cy="112.486" r="7.48585" fill="#00C7A5" fill-opacity="0.2"/>
<circle cx="87.4859" cy="127.486" r="7.48585" fill="#00C7A5" fill-opacity="0.2"/>
<circle cx="183.486" cy="37.4859" r="7.48585" fill="#00C7A5" fill-opacity="0.2"/>
<circle cx="167.486" cy="67.4859" r="7.48585" fill="#00C7A5" fill-opacity="0.2"/>
<circle cx="175.486" cy="52.4859" r="7.48585" fill="#00C7A5" fill-opacity="0.2"/>
<circle cx="175.486" cy="82.4859" r="7.48585" fill="#00C7A5" fill-opacity="0.2"/>
<circle cx="183.486" cy="97.4859" r="7.48585" fill="#00C7A5" fill-opacity="0.2"/>
<circle cx="175.486" cy="112.486" r="7.48585" fill="#00C7A5" fill-opacity="0.2"/>
<circle cx="183.486" cy="127.486" r="7.48585" fill="#00C7A5" fill-opacity="0.2"/>
<circle cx="199.486" cy="127.486" r="7.48585" fill="#00C7A5" fill-opacity="0.2"/>
<circle cx="207.486" cy="52.4859" r="7.48585" fill="#00C7A5" fill-opacity="0.2"/>
<circle cx="71.4859" cy="187.486" r="7.48585" fill="#00C7A5" fill-opacity="0.2"/>
<circle cx="175.486" cy="172.486" r="7.48585" fill="#00C7A5" fill-opacity="0.2"/>
<circle cx="207.486" cy="172.486" r="7.48585" fill="#00C7A5" fill-opacity="0.2"/>
<circle cx="135.486" cy="217.486" r="7.48585" fill="#00C7A5" fill-opacity="0.2"/>
<circle cx="152.259" cy="277.486" r="7.48585" fill="#00C7A5" fill-opacity="0.2"/>
<circle cx="184.203" cy="277.486" r="7.48585" fill="#00C7A5" fill-opacity="0.2"/>
<circle cx="40.4575" cy="277.486" r="7.48585" fill="#00C7A5" fill-opacity="0.2"/>
<circle cx="56.4292" cy="277.486" r="7.48585" fill="#00C7A5" fill-opacity="0.2"/>
<circle cx="72.4009" cy="277.486" r="7.48585" fill="#00C7A5" fill-opacity="0.2"/>
<circle cx="24.4859" cy="277.486" r="7.48585" fill="#00C7A5" fill-opacity="0.2"/>
<circle cx="120.316" cy="277.486" r="7.48585" fill="#00C7A5" fill-opacity="0.2"/>
<circle cx="104.344" cy="277.486" r="7.48585" fill="#00C7A5" fill-opacity="0.2"/>
<circle cx="88.3726" cy="277.486" r="7.48585" fill="#00C7A5" fill-opacity="0.2"/>
<circle cx="136.288" cy="277.486" r="7.48585" fill="#00C7A5" fill-opacity="0.2"/>
<circle cx="168.231" cy="277.486" r="7.48585" fill="#00C7A5" fill-opacity="0.2"/>
<circle cx="88.3726" cy="307.486" r="7.48585" fill="#00C7A5" fill-opacity="0.2"/>
<circle cx="24.4859" cy="307.486" r="7.48585" fill="#00C7A5" fill-opacity="0.2"/>
<circle cx="136.288" cy="307.486" r="7.48585" fill="#00C7A5" fill-opacity="0.2"/>
<circle cx="152.259" cy="307.486" r="7.48585" fill="#00C7A5" fill-opacity="0.2"/>
<circle cx="104.344" cy="307.486" r="7.48585" fill="#00C7A5" fill-opacity="0.2"/>
<circle cx="72.4009" cy="307.486" r="7.48585" fill="#00C7A5" fill-opacity="0.2"/>
<circle cx="168.231" cy="307.486" r="7.48585" fill="#00C7A5" fill-opacity="0.2"/>
<circle cx="40.4575" cy="307.486" r="7.48585" fill="#00C7A5" fill-opacity="0.2"/>
<circle cx="184.203" cy="307.486" r="7.48585" fill="#00C7A5" fill-opacity="0.2"/>
<circle cx="120.316" cy="307.486" r="7.48585" fill="#00C7A5" fill-opacity="0.2"/>
<circle cx="200.174" cy="307.486" r="7.48585" fill="#00C7A5" fill-opacity="0.2"/>
<circle cx="56.4292" cy="307.486" r="7.48585" fill="#00C7A5" fill-opacity="0.2"/>
<circle cx="200.486" cy="277.486" r="7.48585" fill="#00C7A5" fill-opacity="0.2"/>
<circle cx="62.4009" cy="322.486" r="7.48585" fill="#00C7A5" fill-opacity="0.2"/>
<circle cx="174.203" cy="322.486" r="7.48585" fill="#00C7A5" fill-opacity="0.2"/>
<circle cx="206.146" cy="322.486" r="7.48585" fill="#00C7A5" fill-opacity="0.2"/>
<circle cx="86.7407" cy="337.486" r="7.48585" fill="#00C7A5" fill-opacity="0.2"/>
<circle cx="94.3443" cy="322.486" r="7.48585" fill="#00C7A5" fill-opacity="0.2"/>
<circle cx="78.3726" cy="322.486" r="7.48585" fill="#00C7A5" fill-opacity="0.2"/>
<circle cx="190.174" cy="322.486" r="7.48585" fill="#00C7A5" fill-opacity="0.2"/>
<circle cx="102.712" cy="337.486" r="7.48585" fill="#00C7A5" fill-opacity="0.2"/>
<circle cx="150.627" cy="367.486" r="7.48585" fill="#00C7A5" fill-opacity="0.2"/>
<circle cx="94.7124" cy="352.486" r="7.48585" fill="#00C7A5" fill-opacity="0.2"/>
<circle cx="30.4575" cy="322.486" r="7.48585" fill="#00C7A5" fill-opacity="0.2"/>
<circle cx="150.627" cy="337.486" r="7.48585" fill="#00C7A5" fill-opacity="0.2"/>
<circle cx="134.656" cy="367.486" r="7.48585" fill="#00C7A5" fill-opacity="0.2"/>
<circle cx="14.854" cy="352.486" r="7.48585" fill="#00C7A5" fill-opacity="0.2"/>
<circle cx="110.316" cy="322.486" r="7.48585" fill="#00C7A5" fill-opacity="0.2"/>
<circle cx="182.571" cy="337.486" r="7.48585" fill="#00C7A5" fill-opacity="0.2"/>
<circle cx="38.8257" cy="367.486" r="7.48585" fill="#00C7A5" fill-opacity="0.2"/>
<circle cx="166.599" cy="337.486" r="7.48585" fill="#00C7A5" fill-opacity="0.2"/>
<circle cx="126.288" cy="322.486" r="7.48585" fill="#00C7A5" fill-opacity="0.2"/>
<circle cx="46.4292" cy="322.486" r="7.48585" fill="#00C7A5" fill-opacity="0.2"/>
<circle cx="142.627" cy="352.486" r="7.48585" fill="#00C7A5" fill-opacity="0.2"/>
<circle cx="192.486" cy="82.4859" r="7.48585" fill="#00C7A5" fill-opacity="0.2"/>
<circle cx="166.599" cy="367.486" r="7.48585" fill="#00C7A5" fill-opacity="0.2"/>
<circle cx="110.684" cy="352.486" r="7.48585" fill="#00C7A5" fill-opacity="0.2"/>
<circle cx="198.542" cy="367.486" r="7.48585" fill="#00C7A5" fill-opacity="0.2"/>
<circle cx="70.7691" cy="337.486" r="7.48585" fill="#00C7A5" fill-opacity="0.2"/>
<circle cx="182.571" cy="367.486" r="7.48585" fill="#00C7A5" fill-opacity="0.2"/>
<circle cx="86.7407" cy="367.486" r="7.48585" fill="#00C7A5" fill-opacity="0.2"/>
<circle cx="142.259" cy="322.486" r="7.48585" fill="#00C7A5" fill-opacity="0.2"/>
<circle cx="134.656" cy="337.486" r="7.48585" fill="#00C7A5" fill-opacity="0.2"/>
<circle cx="38.8257" cy="337.486" r="7.48585" fill="#00C7A5" fill-opacity="0.2"/>
<circle cx="158.599" cy="352.486" r="7.48585" fill="#00C7A5" fill-opacity="0.2"/>
<circle cx="190.542" cy="352.486" r="7.48585" fill="#00C7A5" fill-opacity="0.2"/>
<circle cx="54.7974" cy="367.486" r="7.48585" fill="#00C7A5" fill-opacity="0.2"/>
<circle cx="118.684" cy="367.486" r="7.48585" fill="#00C7A5" fill-opacity="0.2"/>
<circle cx="158.231" cy="322.486" r="7.48585" fill="#00C7A5" fill-opacity="0.2"/>
<circle cx="126.656" cy="352.486" r="7.48585" fill="#00C7A5" fill-opacity="0.2"/>
<circle cx="62.7691" cy="352.486" r="7.48585" fill="#00C7A5" fill-opacity="0.2"/>
<circle cx="78.7407" cy="352.486" r="7.48585" fill="#00C7A5" fill-opacity="0.2"/>
<circle cx="198.542" cy="337.486" r="7.48585" fill="#00C7A5" fill-opacity="0.2"/>
<circle cx="70.7691" cy="367.486" r="7.48585" fill="#00C7A5" fill-opacity="0.2"/>
<circle cx="174.571" cy="352.486" r="7.48585" fill="#00C7A5" fill-opacity="0.2"/>
<circle cx="102.712" cy="367.486" r="7.48585" fill="#00C7A5" fill-opacity="0.2"/>
<circle cx="22.854" cy="367.486" r="7.48585" fill="#00C7A5" fill-opacity="0.2"/>
<circle cx="54.7974" cy="337.486" r="7.48585" fill="#00C7A5" fill-opacity="0.2"/>
<circle cx="46.7974" cy="352.486" r="7.48585" fill="#00C7A5" fill-opacity="0.2"/>
<circle cx="118.684" cy="337.486" r="7.48585" fill="#00C7A5" fill-opacity="0.2"/>
<circle cx="14.4859" cy="322.486" r="7.48585" fill="#00C7A5" fill-opacity="0.2"/>
<circle cx="22.854" cy="337.486" r="7.48585" fill="#00C7A5" fill-opacity="0.2"/>
<circle cx="30.8257" cy="352.486" r="7.48585" fill="#00C7A5" fill-opacity="0.2"/>
<circle cx="192.203" cy="292.486" r="7.48585" fill="#00C7A5" fill-opacity="0.2"/>
<circle cx="144.288" cy="292.486" r="7.48585" fill="#00C7A5" fill-opacity="0.2"/>
<circle cx="176.231" cy="292.486" r="7.48585" fill="#00C7A5" fill-opacity="0.2"/>
<circle cx="64.4292" cy="292.486" r="7.48585" fill="#00C7A5" fill-opacity="0.2"/>
<circle cx="80.4009" cy="292.486" r="7.48585" fill="#00C7A5" fill-opacity="0.2"/>
<circle cx="112.344" cy="292.486" r="7.48585" fill="#00C7A5" fill-opacity="0.2"/>
<circle cx="48.4575" cy="292.486" r="7.48585" fill="#00C7A5" fill-opacity="0.2"/>
<circle cx="32.4859" cy="292.486" r="7.48585" fill="#00C7A5" fill-opacity="0.2"/>
<circle cx="96.3726" cy="292.486" r="7.48585" fill="#00C7A5" fill-opacity="0.2"/>
<circle cx="160.259" cy="292.486" r="7.48585" fill="#00C7A5" fill-opacity="0.2"/>
<circle cx="128.316" cy="292.486" r="7.48585" fill="#00C7A5" fill-opacity="0.2"/>
<circle cx="200.486" cy="427.486" r="7.48585" fill="#00C7A5" fill-opacity="0.2"/>
<circle cx="32.4859" cy="442.486" r="7.48585" fill="#00C7A5" fill-opacity="0.2"/>
<circle cx="24.4859" cy="427.486" r="7.48585" fill="#00C7A5" fill-opacity="0.2"/>
<circle cx="64.4859" cy="382.486" r="7.48585" fill="#00C7A5" fill-opacity="0.2"/>
<circle cx="208.486" cy="382.486" r="7.48585" fill="#00C7A5" fill-opacity="0.2"/>
<circle cx="80.4859" cy="382.486" r="7.48585" fill="#00C7A5" fill-opacity="0.2"/>
<circle cx="23.4859" cy="397.486" r="7.48585" fill="#00C7A5" fill-opacity="0.2"/>
<circle cx="112.486" cy="442.486" r="7.48585" fill="#00C7A5" fill-opacity="0.2"/>
<circle cx="160.486" cy="382.486" r="7.48585" fill="#00C7A5" fill-opacity="0.2"/>
<circle cx="48.4859" cy="442.486" r="7.48585" fill="#00C7A5" fill-opacity="0.2"/>
<circle cx="32.4859" cy="412.486" r="7.48585" fill="#00C7A5" fill-opacity="0.2"/>
<circle cx="39.4859" cy="397.486" r="7.48585" fill="#00C7A5" fill-opacity="0.2"/>
<circle cx="16.4859" cy="442.486" r="7.48585" fill="#00C7A5" fill-opacity="0.2"/>
<circle cx="200.486" cy="397.486" r="7.48585" fill="#00C7A5" fill-opacity="0.2"/>
<circle cx="16.4859" cy="382.486" r="7.48585" fill="#00C7A5" fill-opacity="0.2"/>
<circle cx="176.486" cy="412.486" r="7.48585" fill="#00C7A5" fill-opacity="0.2"/>
<circle cx="208.486" cy="442.486" r="7.48585" fill="#00C7A5" fill-opacity="0.2"/>
<circle cx="96.4859" cy="382.486" r="7.48585" fill="#00C7A5" fill-opacity="0.2"/>
<circle cx="128.486" cy="382.486" r="7.48585" fill="#00C7A5" fill-opacity="0.2"/>
<circle cx="16.4859" cy="412.486" r="7.48585" fill="#00C7A5" fill-opacity="0.2"/>
<circle cx="176.486" cy="382.486" r="7.48585" fill="#00C7A5" fill-opacity="0.2"/>
<circle cx="192.486" cy="412.486" r="7.48585" fill="#00C7A5" fill-opacity="0.2"/>
<circle cx="112.486" cy="382.486" r="7.48585" fill="#00C7A5" fill-opacity="0.2"/>
<circle cx="144.486" cy="382.486" r="7.48585" fill="#00C7A5" fill-opacity="0.2"/>
<circle cx="55.4859" cy="397.486" r="7.48585" fill="#00C7A5" fill-opacity="0.2"/>
<circle cx="8.48586" cy="427.486" r="7.48585" fill="#00C7A5" fill-opacity="0.2"/>
<circle cx="32.4859" cy="382.486" r="7.48585" fill="#00C7A5" fill-opacity="0.2"/>
<circle cx="48.4859" cy="382.486" r="7.48585" fill="#00C7A5" fill-opacity="0.2"/>
<circle cx="144.486" cy="442.486" r="7.48585" fill="#00C7A5" fill-opacity="0.2"/>
<circle cx="192.486" cy="382.486" r="7.48585" fill="#00C7A5" fill-opacity="0.2"/>
<circle cx="112.486" cy="412.486" r="7.48585" fill="#00C7A5" fill-opacity="0.2"/>
<circle cx="144.486" cy="412.486" r="7.48585" fill="#00C7A5" fill-opacity="0.2"/>
<circle cx="72.4859" cy="397.486" r="7.48585" fill="#00C7A5" fill-opacity="0.2"/>
<circle cx="104.486" cy="397.486" r="7.48585" fill="#00C7A5" fill-opacity="0.2"/>
<circle cx="136.486" cy="397.486" r="7.48585" fill="#00C7A5" fill-opacity="0.2"/>
<circle cx="152.486" cy="397.486" r="7.48585" fill="#00C7A5" fill-opacity="0.2"/>
<circle cx="128.486" cy="442.486" r="7.48585" fill="#00C7A5" fill-opacity="0.2"/>
<circle cx="56.4859" cy="427.486" r="7.48585" fill="#00C7A5" fill-opacity="0.2"/>
<circle cx="104.486" cy="427.486" r="7.48585" fill="#00C7A5" fill-opacity="0.2"/>
<circle cx="136.486" cy="427.486" r="7.48585" fill="#00C7A5" fill-opacity="0.2"/>
<circle cx="168.486" cy="427.486" r="7.48585" fill="#00C7A5" fill-opacity="0.2"/>
<circle cx="80.4859" cy="412.486" r="7.48585" fill="#00C7A5" fill-opacity="0.2"/>
<circle cx="48.4859" cy="412.486" r="7.48585" fill="#00C7A5" fill-opacity="0.2"/>
<circle cx="128.486" cy="412.486" r="7.48585" fill="#00C7A5" fill-opacity="0.2"/>
<circle cx="160.486" cy="412.486" r="7.48585" fill="#00C7A5" fill-opacity="0.2"/>
<circle cx="88.4859" cy="397.486" r="7.48585" fill="#00C7A5" fill-opacity="0.2"/>
<circle cx="120.486" cy="397.486" r="7.48585" fill="#00C7A5" fill-opacity="0.2"/>
<circle cx="40.4859" cy="427.486" r="7.48585" fill="#00C7A5" fill-opacity="0.2"/>
<circle cx="168.486" cy="397.486" r="7.48585" fill="#00C7A5" fill-opacity="0.2"/>
<circle cx="184.486" cy="397.486" r="7.48585" fill="#00C7A5" fill-opacity="0.2"/>
<circle cx="88.4859" cy="427.486" r="7.48585" fill="#00C7A5" fill-opacity="0.2"/>
<circle cx="72.4859" cy="427.486" r="7.48585" fill="#00C7A5" fill-opacity="0.2"/>
<circle cx="120.486" cy="427.486" r="7.48585" fill="#00C7A5" fill-opacity="0.2"/>
<circle cx="152.486" cy="427.486" r="7.48585" fill="#00C7A5" fill-opacity="0.2"/>
<circle cx="184.486" cy="427.486" r="7.48585" fill="#00C7A5" fill-opacity="0.2"/>
<circle cx="96.4859" cy="412.486" r="7.48585" fill="#00C7A5" fill-opacity="0.2"/>
<circle cx="64.4859" cy="412.486" r="7.48585" fill="#00C7A5" fill-opacity="0.2"/>
<circle cx="64.4859" cy="442.486" r="7.48585" fill="#00C7A5" fill-opacity="0.2"/>
<circle cx="160.486" cy="442.486" r="7.48585" fill="#00C7A5" fill-opacity="0.2"/>
<circle cx="80.4859" cy="442.486" r="7.48585" fill="#00C7A5" fill-opacity="0.2"/>
<circle cx="176.486" cy="442.486" r="7.48585" fill="#00C7A5" fill-opacity="0.2"/>
<circle cx="96.4859" cy="442.486" r="7.48585" fill="#00C7A5" fill-opacity="0.2"/>
<circle cx="192.486" cy="442.486" r="7.48585" fill="#00C7A5" fill-opacity="0.2"/>
<circle cx="208.486" cy="412.486" r="7.48585" fill="#00C7A5" fill-opacity="0.2"/>
<circle cx="208.486" cy="472.486" r="7.48585" fill="#00C7A5" fill-opacity="0.2"/>
<circle cx="40.4859" cy="487.486" r="7.48585" fill="#00C7A5" fill-opacity="0.2"/>
<circle cx="32.4859" cy="472.486" r="7.48585" fill="#00C7A5" fill-opacity="0.2"/>
<circle cx="120.486" cy="487.486" r="7.48585" fill="#00C7A5" fill-opacity="0.2"/>
<circle cx="56.4859" cy="487.486" r="7.48585" fill="#00C7A5" fill-opacity="0.2"/>
<circle cx="40.4859" cy="457.486" r="7.48585" fill="#00C7A5" fill-opacity="0.2"/>
<circle cx="24.4859" cy="487.486" r="7.48585" fill="#00C7A5" fill-opacity="0.2"/>
<circle cx="184.486" cy="457.486" r="7.48585" fill="#00C7A5" fill-opacity="0.2"/>
<circle cx="24.4859" cy="457.486" r="7.48585" fill="#00C7A5" fill-opacity="0.2"/>
<circle cx="200.486" cy="457.486" r="7.48585" fill="#00C7A5" fill-opacity="0.2"/>
<circle cx="16.4859" cy="472.486" r="7.48585" fill="#00C7A5" fill-opacity="0.2"/>
<circle cx="152.486" cy="487.486" r="7.48585" fill="#00C7A5" fill-opacity="0.2"/>
<circle cx="120.486" cy="457.486" r="7.48585" fill="#00C7A5" fill-opacity="0.2"/>
<circle cx="152.486" cy="457.486" r="7.48585" fill="#00C7A5" fill-opacity="0.2"/>
<circle cx="136.486" cy="487.486" r="7.48585" fill="#00C7A5" fill-opacity="0.2"/>
<circle cx="64.4859" cy="472.486" r="7.48585" fill="#00C7A5" fill-opacity="0.2"/>
<circle cx="112.486" cy="472.486" r="7.48585" fill="#00C7A5" fill-opacity="0.2"/>
<circle cx="144.486" cy="472.486" r="7.48585" fill="#00C7A5" fill-opacity="0.2"/>
<circle cx="176.486" cy="472.486" r="7.48585" fill="#00C7A5" fill-opacity="0.2"/>
<circle cx="88.4859" cy="457.486" r="7.48585" fill="#00C7A5" fill-opacity="0.2"/>
<circle cx="56.4859" cy="457.486" r="7.48585" fill="#00C7A5" fill-opacity="0.2"/>
<circle cx="136.486" cy="457.486" r="7.48585" fill="#00C7A5" fill-opacity="0.2"/>
<circle cx="168.486" cy="457.486" r="7.48585" fill="#00C7A5" fill-opacity="0.2"/>
<circle cx="48.4859" cy="472.486" r="7.48585" fill="#00C7A5" fill-opacity="0.2"/>
<circle cx="96.4859" cy="472.486" r="7.48585" fill="#00C7A5" fill-opacity="0.2"/>
<circle cx="80.4859" cy="472.486" r="7.48585" fill="#00C7A5" fill-opacity="0.2"/>
<circle cx="128.486" cy="472.486" r="7.48585" fill="#00C7A5" fill-opacity="0.2"/>
<circle cx="160.486" cy="472.486" r="7.48585" fill="#00C7A5" fill-opacity="0.2"/>
<circle cx="192.486" cy="472.486" r="7.48585" fill="#00C7A5" fill-opacity="0.2"/>
<circle cx="104.486" cy="457.486" r="7.48585" fill="#00C7A5" fill-opacity="0.2"/>
<circle cx="72.4859" cy="457.486" r="7.48585" fill="#00C7A5" fill-opacity="0.2"/>
<circle cx="72.4859" cy="487.486" r="7.48585" fill="#00C7A5" fill-opacity="0.2"/>
<circle cx="168.486" cy="487.486" r="7.48585" fill="#00C7A5" fill-opacity="0.2"/>
<circle cx="88.4859" cy="487.486" r="7.48585" fill="#00C7A5" fill-opacity="0.2"/>
<circle cx="184.486" cy="487.486" r="7.48585" fill="#00C7A5" fill-opacity="0.2"/>
<circle cx="104.486" cy="487.486" r="7.48585" fill="#00C7A5" fill-opacity="0.2"/>
<circle cx="200.486" cy="487.486" r="7.48585" fill="#00C7A5" fill-opacity="0.2"/>
<circle cx="111.486" cy="52.4859" r="7.48585" fill="#FBC800"/>
</svg>
