<svg width="222" height="148" viewBox="0 0 222 148" fill="none" xmlns="http://www.w3.org/2000/svg">
<rect y="44" width="222" height="104" fill="white" fill-opacity="0.3"/>
<circle cx="111" cy="96" r="23.5" stroke="#FBC800" stroke-opacity="0.3" stroke-width="3"/>
<circle cx="111" cy="96" r="30.5" stroke="#FBC800" stroke-opacity="0.2" stroke-width="3"/>
<circle cx="111" cy="96" r="37.5" stroke="#FBC800" stroke-opacity="0.1" stroke-width="3"/>
<circle cx="111.5" cy="96.5" r="7.5" fill="#FBC800"/>
<path d="M59.2666 19H56.7969V9.18262L53.5625 10.3428V8.21582L59.1348 6.20312H59.2666V19ZM67.6689 15.0713L66.5615 16.0996V19H64.1182V5.5H66.5615V13.2168L67.2998 12.373L69.9277 9.49023H72.8633L69.2773 13.4541L73.3643 19H70.3672L67.6689 15.0713ZM74.6562 14.1748C74.6562 13.4541 74.7441 12.7949 74.9199 12.1973C75.1016 11.5996 75.3594 11.0869 75.6934 10.6592C76.0273 10.2314 76.4316 9.90039 76.9062 9.66602C77.3809 9.43164 77.917 9.31445 78.5146 9.31445C79.0713 9.31445 79.5488 9.4082 79.9473 9.5957C80.3457 9.7832 80.6855 10.0498 80.9668 10.3955L81.0635 9.49023H83.2871V18.6924C83.2871 19.3369 83.1758 19.9111 82.9531 20.415C82.7363 20.9189 82.4287 21.3438 82.0303 21.6895C81.6377 22.0352 81.1631 22.2959 80.6064 22.4717C80.0557 22.6533 79.4463 22.7441 78.7783 22.7441C78.4912 22.7441 78.1836 22.7148 77.8555 22.6562C77.5273 22.5977 77.2021 22.5068 76.8799 22.3838C76.5576 22.2607 76.2529 22.1025 75.9658 21.9092C75.6787 21.7217 75.4326 21.4961 75.2275 21.2324L76.3262 19.7471C76.6367 20.0986 76.9883 20.3652 77.3809 20.5469C77.7734 20.7344 78.1982 20.8281 78.6553 20.8281C79.3408 20.8281 79.874 20.6436 80.2549 20.2744C80.6416 19.9111 80.835 19.3926 80.835 18.7188V18.1738C80.5479 18.4902 80.2109 18.7363 79.8242 18.9121C79.4434 19.0879 79.001 19.1758 78.4971 19.1758C77.9053 19.1758 77.3721 19.0557 76.8975 18.8154C76.4287 18.5693 76.0273 18.2324 75.6934 17.8047C75.3594 17.377 75.1016 16.8701 74.9199 16.2842C74.7441 15.6924 74.6562 15.0508 74.6562 14.3594V14.1748ZM77.1084 14.3594C77.1084 14.7578 77.1465 15.1299 77.2227 15.4756C77.3047 15.8154 77.4277 16.1143 77.5918 16.3721C77.7559 16.624 77.9639 16.8232 78.2158 16.9697C78.4678 17.1162 78.7666 17.1895 79.1123 17.1895C79.54 17.1895 79.8916 17.1074 80.167 16.9434C80.4482 16.7793 80.6709 16.5508 80.835 16.2578V12.2324C80.6709 11.9336 80.4482 11.7051 80.167 11.5469C79.8916 11.3828 79.5459 11.3008 79.1299 11.3008C78.7842 11.3008 78.4854 11.377 78.2334 11.5293C77.9814 11.6758 77.7705 11.8809 77.6006 12.1445C77.4365 12.4023 77.3135 12.707 77.2314 13.0586C77.1494 13.4043 77.1084 13.7764 77.1084 14.1748V14.3594ZM104.557 13.7002H99.0723V19H96.5938V6.20312H105.242V8.21582H99.0723V11.6963H104.557V13.7002ZM115.895 14.3418H108.573V12.3643H115.895V14.3418ZM126.854 17.5059C126.696 17.6992 126.479 17.8955 126.204 18.0947C125.929 18.2939 125.601 18.4756 125.22 18.6396C124.845 18.7979 124.423 18.9268 123.954 19.0264C123.485 19.126 122.981 19.1758 122.442 19.1758C121.716 19.1758 121.06 19.0469 120.474 18.7891C119.888 18.5312 119.387 18.1592 118.971 17.6729C118.555 17.1865 118.232 16.5918 118.004 15.8887C117.781 15.1797 117.67 14.377 117.67 13.4805V11.7402C117.67 10.8438 117.787 10.0439 118.021 9.34082C118.262 8.63184 118.59 8.03125 119.006 7.53906C119.428 7.04688 119.92 6.67187 120.482 6.41406C121.051 6.15625 121.666 6.02734 122.328 6.02734C123.049 6.02734 123.676 6.11816 124.209 6.2998C124.748 6.48145 125.202 6.74512 125.571 7.09082C125.94 7.43066 126.228 7.84668 126.433 8.33887C126.644 8.83105 126.781 9.38477 126.846 10H124.438C124.355 9.34375 124.156 8.85156 123.84 8.52344C123.529 8.18945 123.046 8.02246 122.39 8.02246C122.073 8.02246 121.78 8.10449 121.511 8.26855C121.241 8.42676 121.007 8.66113 120.808 8.97168C120.608 9.28223 120.45 9.66895 120.333 10.1318C120.216 10.5889 120.157 11.1191 120.157 11.7227V13.4805C120.163 14.6758 120.362 15.5928 120.755 16.2314C121.147 16.8643 121.748 17.1836 122.557 17.1895C122.75 17.1895 122.94 17.1748 123.128 17.1455C123.315 17.1162 123.491 17.0752 123.655 17.0225C123.819 16.9697 123.963 16.9111 124.086 16.8467C124.215 16.7764 124.312 16.7031 124.376 16.627L124.385 14.3066H122.267V12.4609H126.846L126.854 17.5059ZM134.896 19C134.838 18.8828 134.788 18.748 134.747 18.5957C134.706 18.4434 134.671 18.2822 134.642 18.1123C134.507 18.2588 134.352 18.3965 134.176 18.5254C134 18.6543 133.804 18.7686 133.587 18.8682C133.376 18.9619 133.142 19.0352 132.884 19.0879C132.626 19.1465 132.348 19.1758 132.049 19.1758C131.562 19.1758 131.114 19.1055 130.704 18.9648C130.3 18.8242 129.951 18.6279 129.658 18.376C129.365 18.124 129.137 17.8252 128.973 17.4795C128.809 17.1279 128.727 16.7471 128.727 16.3369C128.727 15.335 129.099 14.5615 129.843 14.0166C130.593 13.4658 131.709 13.1904 133.191 13.1904H134.554V12.6279C134.554 12.1709 134.404 11.8105 134.105 11.5469C133.807 11.2773 133.376 11.1426 132.813 11.1426C132.315 11.1426 131.952 11.251 131.724 11.4678C131.495 11.6787 131.381 11.9629 131.381 12.3203H128.938C128.938 11.916 129.025 11.5322 129.201 11.1689C129.383 10.8057 129.644 10.4863 129.983 10.2109C130.329 9.93555 130.748 9.71875 131.24 9.56055C131.738 9.39648 132.307 9.31445 132.945 9.31445C133.52 9.31445 134.053 9.38477 134.545 9.52539C135.043 9.66602 135.474 9.87402 135.837 10.1494C136.2 10.4248 136.484 10.7734 136.689 11.1953C136.895 11.6113 136.997 12.0947 136.997 12.6455V16.7236C136.997 17.2334 137.029 17.6553 137.094 17.9893C137.158 18.3232 137.252 18.6104 137.375 18.8506V19H134.896ZM132.567 17.2861C132.813 17.2861 133.042 17.2568 133.253 17.1982C133.464 17.1396 133.654 17.0635 133.824 16.9697C133.994 16.876 134.141 16.7705 134.264 16.6533C134.387 16.5303 134.483 16.4072 134.554 16.2842V14.6494H133.306C132.925 14.6494 132.6 14.6875 132.33 14.7637C132.061 14.834 131.841 14.9365 131.671 15.0713C131.501 15.2002 131.375 15.3584 131.293 15.5459C131.211 15.7275 131.17 15.9268 131.17 16.1436C131.17 16.4717 131.284 16.7441 131.513 16.9609C131.747 17.1777 132.099 17.2861 132.567 17.2861ZM145.9 16.3896C145.9 16.2432 145.865 16.1143 145.795 16.0029C145.73 15.8916 145.61 15.7891 145.435 15.6953C145.265 15.5957 145.036 15.5049 144.749 15.4229C144.462 15.3408 144.099 15.2588 143.659 15.1768C143.103 15.0654 142.593 14.9277 142.13 14.7637C141.673 14.5938 141.28 14.3916 140.952 14.1572C140.624 13.917 140.366 13.6416 140.179 13.3311C139.997 13.0205 139.906 12.6631 139.906 12.2588C139.906 11.8662 140 11.4912 140.188 11.1338C140.375 10.7764 140.645 10.4629 140.996 10.1934C141.348 9.92383 141.775 9.70996 142.279 9.55176C142.783 9.39355 143.352 9.31445 143.984 9.31445C144.646 9.31445 145.241 9.39355 145.769 9.55176C146.296 9.7041 146.741 9.91797 147.104 10.1934C147.474 10.4629 147.755 10.7852 147.948 11.1602C148.142 11.5352 148.238 11.9424 148.238 12.3818H145.795C145.795 12.0127 145.646 11.7051 145.347 11.459C145.048 11.207 144.594 11.0811 143.984 11.0811C143.416 11.0811 142.985 11.1836 142.692 11.3887C142.405 11.5938 142.262 11.8457 142.262 12.1445C142.262 12.2852 142.291 12.417 142.35 12.54C142.408 12.6572 142.511 12.7656 142.657 12.8652C142.81 12.959 143.015 13.0469 143.272 13.1289C143.53 13.2051 143.858 13.2725 144.257 13.3311C144.831 13.4248 145.364 13.5449 145.856 13.6914C146.349 13.8379 146.773 14.0283 147.131 14.2627C147.488 14.4912 147.767 14.7725 147.966 15.1064C148.171 15.4346 148.273 15.8271 148.273 16.2842C148.273 16.7061 148.171 17.0957 147.966 17.4531C147.767 17.8047 147.479 18.1094 147.104 18.3672C146.735 18.625 146.287 18.8271 145.76 18.9736C145.232 19.1143 144.644 19.1846 143.993 19.1846C143.278 19.1846 142.646 19.0908 142.095 18.9033C141.55 18.7158 141.093 18.4727 140.724 18.1738C140.354 17.8691 140.073 17.5264 139.88 17.1455C139.692 16.7588 139.599 16.3721 139.599 15.9854H141.928C141.945 16.2432 142.016 16.4658 142.139 16.6533C142.262 16.835 142.42 16.9844 142.613 17.1016C142.807 17.2129 143.026 17.2949 143.272 17.3477C143.524 17.4004 143.782 17.4268 144.046 17.4268C144.649 17.4268 145.109 17.3301 145.426 17.1367C145.742 16.9434 145.9 16.6943 145.9 16.3896ZM155.19 19.1758C154.458 19.1758 153.793 19.0557 153.195 18.8154C152.598 18.5752 152.085 18.25 151.657 17.8398C151.229 17.4238 150.898 16.9375 150.664 16.3809C150.436 15.8184 150.321 15.2178 150.321 14.5791V14.2275C150.321 13.501 150.436 12.8389 150.664 12.2412C150.893 11.6377 151.212 11.1191 151.622 10.6855C152.032 10.252 152.519 9.91504 153.081 9.6748C153.644 9.43457 154.256 9.31445 154.918 9.31445C155.604 9.31445 156.213 9.42871 156.746 9.65723C157.285 9.87988 157.739 10.1963 158.108 10.6064C158.483 11.0166 158.768 11.5117 158.961 12.0918C159.154 12.666 159.251 13.3018 159.251 13.999V15.0361H152.8C152.847 15.3584 152.94 15.6543 153.081 15.9238C153.228 16.1875 153.412 16.416 153.635 16.6094C153.857 16.8027 154.112 16.9521 154.399 17.0576C154.687 17.1631 155 17.2158 155.34 17.2158C155.58 17.2158 155.817 17.1924 156.052 17.1455C156.292 17.0986 156.521 17.0312 156.737 16.9434C156.954 16.8496 157.156 16.7354 157.344 16.6006C157.531 16.4658 157.695 16.3076 157.836 16.126L159.058 17.4443C158.905 17.6611 158.706 17.875 158.46 18.0859C158.22 18.291 157.933 18.4756 157.599 18.6396C157.271 18.7979 156.904 18.9268 156.5 19.0264C156.096 19.126 155.659 19.1758 155.19 19.1758ZM154.9 11.292C154.625 11.292 154.373 11.3418 154.145 11.4414C153.916 11.5352 153.714 11.6729 153.538 11.8545C153.368 12.0361 153.225 12.2529 153.107 12.5049C152.99 12.7568 152.902 13.0381 152.844 13.3486H156.852V13.1553C156.84 12.8975 156.79 12.6543 156.702 12.4258C156.614 12.1973 156.488 12.001 156.324 11.8369C156.16 11.667 155.958 11.5352 155.718 11.4414C155.483 11.3418 155.211 11.292 154.9 11.292ZM167.521 16.3896C167.521 16.2432 167.486 16.1143 167.416 16.0029C167.352 15.8916 167.231 15.7891 167.056 15.6953C166.886 15.5957 166.657 15.5049 166.37 15.4229C166.083 15.3408 165.72 15.2588 165.28 15.1768C164.724 15.0654 164.214 14.9277 163.751 14.7637C163.294 14.5938 162.901 14.3916 162.573 14.1572C162.245 13.917 161.987 13.6416 161.8 13.3311C161.618 13.0205 161.527 12.6631 161.527 12.2588C161.527 11.8662 161.621 11.4912 161.809 11.1338C161.996 10.7764 162.266 10.4629 162.617 10.1934C162.969 9.92383 163.396 9.70996 163.9 9.55176C164.404 9.39355 164.973 9.31445 165.605 9.31445C166.268 9.31445 166.862 9.39355 167.39 9.55176C167.917 9.7041 168.362 9.91797 168.726 10.1934C169.095 10.4629 169.376 10.7852 169.569 11.1602C169.763 11.5352 169.859 11.9424 169.859 12.3818H167.416C167.416 12.0127 167.267 11.7051 166.968 11.459C166.669 11.207 166.215 11.0811 165.605 11.0811C165.037 11.0811 164.606 11.1836 164.313 11.3887C164.026 11.5938 163.883 11.8457 163.883 12.1445C163.883 12.2852 163.912 12.417 163.971 12.54C164.029 12.6572 164.132 12.7656 164.278 12.8652C164.431 12.959 164.636 13.0469 164.894 13.1289C165.151 13.2051 165.479 13.2725 165.878 13.3311C166.452 13.4248 166.985 13.5449 167.478 13.6914C167.97 13.8379 168.395 14.0283 168.752 14.2627C169.109 14.4912 169.388 14.7725 169.587 15.1064C169.792 15.4346 169.895 15.8271 169.895 16.2842C169.895 16.7061 169.792 17.0957 169.587 17.4531C169.388 17.8047 169.101 18.1094 168.726 18.3672C168.356 18.625 167.908 18.8271 167.381 18.9736C166.854 19.1143 166.265 19.1846 165.614 19.1846C164.899 19.1846 164.267 19.0908 163.716 18.9033C163.171 18.7158 162.714 18.4727 162.345 18.1738C161.976 17.8691 161.694 17.5264 161.501 17.1455C161.313 16.7588 161.22 16.3721 161.22 15.9854H163.549C163.566 16.2432 163.637 16.4658 163.76 16.6533C163.883 16.835 164.041 16.9844 164.234 17.1016C164.428 17.2129 164.647 17.2949 164.894 17.3477C165.146 17.4004 165.403 17.4268 165.667 17.4268C166.271 17.4268 166.73 17.3301 167.047 17.1367C167.363 16.9434 167.521 16.6943 167.521 16.3896Z" fill="#FBC800"/>
</svg>
