<svg width="222" height="389" viewBox="0 0 222 389" fill="none" xmlns="http://www.w3.org/2000/svg">
<rect y="44" width="222" height="345" fill="white" fill-opacity="0.3"/>
<circle cx="151.486" cy="231.486" r="7.48585" fill="#6CBAFA" fill-opacity="0.2"/>
<circle cx="119.486" cy="231.486" r="7.48585" fill="#6CBAFA" fill-opacity="0.2"/>
<circle cx="15.4859" cy="156.486" r="7.48585" fill="#6CBAFA" fill-opacity="0.2"/>
<circle cx="39.4859" cy="231.486" r="7.48585" fill="#6CBAFA" fill-opacity="0.2"/>
<circle cx="14.4859" cy="216.486" r="7.48585" fill="#6CBAFA" fill-opacity="0.2"/>
<circle cx="79.4859" cy="306.486" r="7.48585" fill="#6CBAFA" fill-opacity="0.2"/>
<circle cx="183.486" cy="261.486" r="7.48585" fill="#6CBAFA" fill-opacity="0.2"/>
<circle cx="73.4858" cy="381.486" r="7.48585" transform="rotate(90 73.4858 381.486)" fill="#6CBAFA" fill-opacity="0.2"/>
<circle cx="39.4859" cy="171.486" r="7.48585" fill="#6CBAFA" fill-opacity="0.2"/>
<circle cx="191.486" cy="96.4859" r="7.48585" fill="#6CBAFA" fill-opacity="0.2"/>
<circle cx="23.4859" cy="111.486" r="7.48585" fill="#6CBAFA" fill-opacity="0.2"/>
<circle cx="95.4859" cy="246.486" r="7.48585" fill="#6CBAFA" fill-opacity="0.2"/>
<circle cx="15.4859" cy="96.4859" r="7.48585" fill="#6CBAFA" fill-opacity="0.2"/>
<circle cx="199.486" cy="231.486" r="7.48585" fill="#6CBAFA" fill-opacity="0.2"/>
<circle cx="176.486" cy="336.486" r="7.48585" transform="rotate(-90 176.486 336.486)" fill="#6CBAFA" fill-opacity="0.2"/>
<circle cx="199.486" cy="291.486" r="7.48585" fill="#6CBAFA" fill-opacity="0.2"/>
<circle cx="145.344" cy="366.486" r="7.48585" transform="rotate(90 145.344 366.486)" fill="#6CBAFA" fill-opacity="0.2"/>
<circle cx="96.4859" cy="336.486" r="7.48585" fill="#6CBAFA" fill-opacity="0.2"/>
<circle cx="23.4859" cy="171.486" r="7.48585" fill="#6CBAFA" fill-opacity="0.2"/>
<circle cx="127.486" cy="246.486" r="7.48585" fill="#6CBAFA" fill-opacity="0.2"/>
<circle cx="183.486" cy="231.486" r="7.48585" fill="#6CBAFA" fill-opacity="0.2"/>
<circle cx="152.344" cy="351.486" r="7.48585" transform="rotate(90 152.344 351.486)" fill="#6CBAFA" fill-opacity="0.2"/>
<circle cx="63.4859" cy="306.486" r="7.48585" fill="#6CBAFA" fill-opacity="0.2"/>
<circle cx="79.4859" cy="246.486" r="7.48585" fill="#6CBAFA" fill-opacity="0.2"/>
<circle cx="120.401" cy="351.486" r="7.48585" transform="rotate(90 120.401 351.486)" fill="#6CBAFA" fill-opacity="0.2"/>
<circle cx="159.486" cy="306.486" r="7.48585" fill="#6CBAFA" fill-opacity="0.2"/>
<circle cx="31.4859" cy="186.486" r="7.48585" fill="#6CBAFA" fill-opacity="0.2"/>
<circle cx="143.486" cy="246.486" r="7.48585" fill="#6CBAFA" fill-opacity="0.2"/>
<circle cx="7.48585" cy="201.486" r="7.48585" fill="#6CBAFA" fill-opacity="0.2"/>
<circle cx="81.4575" cy="366.486" r="7.48585" transform="rotate(90 81.4575 366.486)" fill="#6CBAFA" fill-opacity="0.2"/>
<circle cx="15.4859" cy="246.486" r="7.48585" fill="#6CBAFA" fill-opacity="0.2"/>
<circle cx="80.4859" cy="336.486" r="7.48585" fill="#6CBAFA" fill-opacity="0.2"/>
<circle cx="136.373" cy="351.486" r="7.48585" transform="rotate(90 136.373 351.486)" fill="#6CBAFA" fill-opacity="0.2"/>
<circle cx="151.486" cy="321.486" r="7.48585" fill="#6CBAFA" fill-opacity="0.2"/>
<circle cx="111.486" cy="216.486" r="7.48585" fill="#6CBAFA" fill-opacity="0.2"/>
<circle cx="135.486" cy="231.486" r="7.48585" fill="#6CBAFA" fill-opacity="0.2"/>
<circle cx="127.486" cy="276.486" r="7.48585" fill="#6CBAFA" fill-opacity="0.2"/>
<circle cx="207.486" cy="216.486" r="7.48585" fill="#6CBAFA" fill-opacity="0.2"/>
<circle cx="31.4859" cy="276.486" r="7.48585" fill="#6CBAFA" fill-opacity="0.2"/>
<circle cx="183.486" cy="291.486" r="7.48585" fill="#6CBAFA" fill-opacity="0.2"/>
<circle cx="151.486" cy="291.486" r="7.48585" fill="#6CBAFA" fill-opacity="0.2"/>
<circle cx="64.4859" cy="336.486" r="7.48585" transform="rotate(-90 64.4859 336.486)" fill="#6CBAFA" fill-opacity="0.2"/>
<circle cx="31.4859" cy="156.486" r="7.48585" fill="#6CBAFA" fill-opacity="0.2"/>
<circle cx="199.486" cy="141.486" r="7.48585" fill="#6CBAFA" fill-opacity="0.2"/>
<circle cx="15.4859" cy="186.486" r="7.48585" fill="#6CBAFA" fill-opacity="0.2"/>
<circle cx="207.486" cy="96.4859" r="7.48585" fill="#6CBAFA" fill-opacity="0.2"/>
<circle cx="7.48585" cy="171.486" r="7.48585" fill="#6CBAFA" fill-opacity="0.2"/>
<circle cx="31.4859" cy="246.486" r="7.48585" fill="#6CBAFA" fill-opacity="0.2"/>
<circle cx="7.48585" cy="261.486" r="7.48585" fill="#6CBAFA" fill-opacity="0.2"/>
<circle cx="160.486" cy="336.486" r="7.48585" transform="rotate(-90 160.486 336.486)" fill="#6CBAFA" fill-opacity="0.2"/>
<circle cx="129.486" cy="366.486" r="7.48585" transform="rotate(90 129.486 366.486)" fill="#6CBAFA" fill-opacity="0.2"/>
<circle cx="192.486" cy="336.486" r="7.48585" transform="rotate(-90 192.486 336.486)" fill="#6CBAFA" fill-opacity="0.2"/>
<circle cx="103.486" cy="111.486" r="7.48585" fill="#6CBAFA" fill-opacity="0.2"/>
<circle cx="87.4859" cy="141.486" r="7.48585" fill="#6CBAFA" fill-opacity="0.2"/>
<circle cx="95.4859" cy="126.486" r="7.48585" fill="#6CBAFA" fill-opacity="0.2"/>
<circle cx="95.4859" cy="156.486" r="7.48585" fill="#6CBAFA" fill-opacity="0.2"/>
<circle cx="103.486" cy="171.486" r="7.48585" fill="#6CBAFA" fill-opacity="0.2"/>
<circle cx="95.4859" cy="186.486" r="7.48585" fill="#6CBAFA" fill-opacity="0.2"/>
<circle cx="103.486" cy="201.486" r="7.48585" fill="#6CBAFA" fill-opacity="0.2"/>
<circle cx="151.486" cy="51.4859" r="7.48585" fill="#6CBAFA" fill-opacity="0.2"/>
<circle cx="191.486" cy="216.486" r="7.48585" fill="#6CBAFA" fill-opacity="0.2"/>
<circle cx="39.4859" cy="111.486" r="7.48585" fill="#6CBAFA" fill-opacity="0.2"/>
<circle cx="183.486" cy="141.486" r="7.48585" fill="#6CBAFA" fill-opacity="0.2"/>
<circle cx="87.4859" cy="261.486" r="7.48585" fill="#6CBAFA" fill-opacity="0.2"/>
<circle cx="23.4859" cy="81.4859" r="7.48585" fill="#6CBAFA" fill-opacity="0.2"/>
<circle cx="71.4859" cy="291.486" r="7.48585" fill="#6CBAFA" fill-opacity="0.2"/>
<circle cx="161.486" cy="366.486" r="7.48585" transform="rotate(90 161.486 366.486)" fill="#6CBAFA" fill-opacity="0.2"/>
<circle cx="23.4859" cy="261.486" r="7.48585" fill="#6CBAFA" fill-opacity="0.2"/>
<circle cx="175.486" cy="306.486" r="7.48585" fill="#6CBAFA" fill-opacity="0.2"/>
<circle cx="39.4859" cy="201.486" r="7.48585" fill="#6CBAFA" fill-opacity="0.2"/>
<circle cx="159.486" cy="246.486" r="7.48585" fill="#6CBAFA" fill-opacity="0.2"/>
<circle cx="23.4859" cy="231.486" r="7.48585" fill="#6CBAFA" fill-opacity="0.2"/>
<circle cx="200.259" cy="351.486" r="7.48585" transform="rotate(90 200.259 351.486)" fill="#6CBAFA" fill-opacity="0.2"/>
<circle cx="48.4859" cy="366.486" r="7.48585" fill="#6CBAFA" fill-opacity="0.2"/>
<circle cx="30.4859" cy="66.4859" r="7.48585" fill="#6CBAFA" fill-opacity="0.2"/>
<circle cx="168.316" cy="351.486" r="7.48585" transform="rotate(90 168.316 351.486)" fill="#6CBAFA" fill-opacity="0.2"/>
<circle cx="72.4858" cy="351.486" r="7.48585" transform="rotate(90 72.4858 351.486)" fill="#6CBAFA" fill-opacity="0.2"/>
<circle cx="95.4859" cy="216.486" r="7.48585" fill="#6CBAFA" fill-opacity="0.2"/>
<circle cx="23.4859" cy="141.486" r="7.48585" fill="#6CBAFA" fill-opacity="0.2"/>
<circle cx="111.486" cy="276.486" r="7.48585" fill="#6CBAFA" fill-opacity="0.2"/>
<circle cx="191.486" cy="246.486" r="7.48585" fill="#6CBAFA" fill-opacity="0.2"/>
<circle cx="167.486" cy="291.486" r="7.48585" fill="#6CBAFA" fill-opacity="0.2"/>
<circle cx="113.401" cy="366.486" r="7.48585" transform="rotate(90 113.401 366.486)" fill="#6CBAFA" fill-opacity="0.2"/>
<circle cx="199.486" cy="261.486" r="7.48585" fill="#6CBAFA" fill-opacity="0.2"/>
<circle cx="7.48585" cy="111.486" r="7.48585" fill="#6CBAFA" fill-opacity="0.2"/>
<circle cx="191.486" cy="156.486" r="7.48585" fill="#6CBAFA" fill-opacity="0.2"/>
<circle cx="191.486" cy="126.486" r="7.48585" fill="#6CBAFA" fill-opacity="0.2"/>
<circle cx="23.4859" cy="201.486" r="7.48585" fill="#6CBAFA" fill-opacity="0.2"/>
<circle cx="192.486" cy="66.4859" r="7.48585" fill="#6CBAFA" fill-opacity="0.2"/>
<circle cx="167.486" cy="261.486" r="7.48585" fill="#6CBAFA" fill-opacity="0.2"/>
<circle cx="112.486" cy="336.486" r="7.48585" transform="rotate(-90 112.486 336.486)" fill="#6CBAFA" fill-opacity="0.2"/>
<circle cx="111.486" cy="306.486" r="7.48585" fill="#6CBAFA" fill-opacity="0.2"/>
<circle cx="47.4859" cy="336.486" r="7.48585" transform="rotate(-90 47.4859 336.486)" fill="#6CBAFA" fill-opacity="0.2"/>
<circle cx="207.486" cy="276.486" r="7.48585" fill="#6CBAFA" fill-opacity="0.2"/>
<circle cx="31.4859" cy="336.486" r="7.48585" transform="rotate(-90 31.4859 336.486)" fill="#6CBAFA" fill-opacity="0.2"/>
<circle cx="167.486" cy="81.4859" r="7.48585" fill="#6CBAFA" fill-opacity="0.2"/>
<circle cx="46.4859" cy="216.486" r="7.48585" fill="#6CBAFA" fill-opacity="0.2"/>
<circle cx="199.486" cy="111.486" r="7.48585" fill="#6CBAFA" fill-opacity="0.2"/>
<circle cx="47.4859" cy="246.486" r="7.48585" fill="#6CBAFA" fill-opacity="0.2"/>
<circle cx="65.4858" cy="366.486" r="7.48585" transform="rotate(90 65.4858 366.486)" fill="#6CBAFA" fill-opacity="0.2"/>
<circle cx="167.486" cy="321.486" r="7.48585" transform="rotate(-90 167.486 321.486)" fill="#6CBAFA" fill-opacity="0.2"/>
<circle cx="15.4859" cy="276.486" r="7.48585" fill="#6CBAFA" fill-opacity="0.2"/>
<circle cx="89.4575" cy="381.486" r="7.48585" transform="rotate(90 89.4575 381.486)" fill="#6CBAFA" fill-opacity="0.2"/>
<circle cx="15.4859" cy="125.486" r="7.48585" fill="#6CBAFA" fill-opacity="0.2"/>
<circle cx="87.4859" cy="51.4859" r="7.48585" fill="#6CBAFA" fill-opacity="0.2"/>
<circle cx="119.486" cy="51.4859" r="7.48585" fill="#6CBAFA" fill-opacity="0.2"/>
<circle cx="79.4859" cy="216.486" r="7.48585" fill="#6CBAFA" fill-opacity="0.2"/>
<circle cx="135.486" cy="321.486" r="7.48585" fill="#6CBAFA" fill-opacity="0.2"/>
<circle cx="95.4859" cy="276.486" r="7.48585" fill="#6CBAFA" fill-opacity="0.2"/>
<circle cx="15.4859" cy="306.486" r="7.48585" fill="#6CBAFA" fill-opacity="0.2"/>
<circle cx="127.486" cy="306.486" r="7.48585" fill="#6CBAFA" fill-opacity="0.2"/>
<circle cx="192.486" cy="306.486" r="7.48585" fill="#6CBAFA" fill-opacity="0.2"/>
<circle cx="183.486" cy="81.4859" r="7.48585" fill="#6CBAFA" fill-opacity="0.2"/>
<circle cx="7.48585" cy="290.486" r="7.48585" fill="#6CBAFA" fill-opacity="0.2"/>
<circle cx="103.486" cy="51.4859" r="7.48585" fill="#6CBAFA" fill-opacity="0.2"/>
<circle cx="199.486" cy="171.486" r="7.48585" fill="#6CBAFA" fill-opacity="0.2"/>
<circle cx="135.486" cy="51.4859" r="7.48585" fill="#6CBAFA" fill-opacity="0.2"/>
<circle cx="30.4859" cy="216.486" r="7.48585" fill="#6CBAFA" fill-opacity="0.2"/>
<circle cx="55.4859" cy="321.486" r="7.48585" fill="#6CBAFA" fill-opacity="0.2"/>
<circle cx="63.4859" cy="276.486" r="7.48585" fill="#6CBAFA" fill-opacity="0.2"/>
<circle cx="46.4859" cy="66.4859" r="7.48585" fill="#6CBAFA" fill-opacity="0.2"/>
<circle cx="39.4859" cy="291.486" r="7.48585" fill="#6CBAFA" fill-opacity="0.2"/>
<circle cx="39.4859" cy="321.486" r="7.48585" transform="rotate(-90 39.4859 321.486)" fill="#6CBAFA" fill-opacity="0.2"/>
<circle cx="31.4859" cy="306.486" r="7.48585" fill="#6CBAFA" fill-opacity="0.2"/>
<circle cx="47.4859" cy="306.486" r="7.48585" fill="#6CBAFA" fill-opacity="0.2"/>
<circle cx="135.486" cy="111.486" r="7.48585" fill="#6CBAFA" fill-opacity="0.2"/>
<circle cx="119.486" cy="141.486" r="7.48585" fill="#6CBAFA" fill-opacity="0.2"/>
<circle cx="127.486" cy="126.486" r="7.48585" fill="#6CBAFA" fill-opacity="0.2"/>
<circle cx="127.486" cy="156.486" r="7.48585" fill="#6CBAFA" fill-opacity="0.2"/>
<circle cx="135.486" cy="171.486" r="7.48585" fill="#6CBAFA" fill-opacity="0.2"/>
<circle cx="127.486" cy="186.486" r="7.48585" fill="#6CBAFA" fill-opacity="0.2"/>
<circle cx="135.486" cy="201.486" r="7.48585" fill="#6CBAFA" fill-opacity="0.2"/>
<circle cx="63.4859" cy="216.486" r="7.48585" fill="#6CBAFA" fill-opacity="0.2"/>
<circle cx="143.486" cy="216.486" r="7.48585" fill="#6CBAFA" fill-opacity="0.2"/>
<circle cx="79.4859" cy="276.486" r="7.48585" fill="#6CBAFA" fill-opacity="0.2"/>
<circle cx="119.486" cy="261.486" r="7.48585" fill="#6CBAFA" fill-opacity="0.2"/>
<circle cx="143.486" cy="306.486" r="7.48585" fill="#6CBAFA" fill-opacity="0.2"/>
<circle cx="56.4859" cy="351.486" r="7.48585" transform="rotate(-90 56.4859 351.486)" fill="#6CBAFA" fill-opacity="0.2"/>
<circle cx="103.486" cy="291.486" r="7.48585" fill="#6CBAFA" fill-opacity="0.2"/>
<circle cx="137.458" cy="381.486" r="7.48585" transform="rotate(90 137.458 381.486)" fill="#6CBAFA" fill-opacity="0.2"/>
<circle cx="103.486" cy="81.4859" r="7.48585" fill="#6CBAFA" fill-opacity="0.2"/>
<circle cx="135.486" cy="81.4859" r="7.48585" fill="#6CBAFA" fill-opacity="0.2"/>
<circle cx="63.4859" cy="66.4859" r="7.48585" fill="#6CBAFA" fill-opacity="0.2"/>
<circle cx="103.486" cy="231.486" r="7.48585" fill="#6CBAFA" fill-opacity="0.2"/>
<circle cx="95.4859" cy="66.4859" r="7.48585" fill="#6CBAFA" fill-opacity="0.2"/>
<circle cx="55.4859" cy="261.486" r="7.48585" fill="#6CBAFA" fill-opacity="0.2"/>
<circle cx="127.486" cy="66.4859" r="7.48585" fill="#6CBAFA" fill-opacity="0.2"/>
<circle cx="143.486" cy="66.4859" r="7.48585" fill="#6CBAFA" fill-opacity="0.2"/>
<circle cx="47.4859" cy="276.486" r="7.48585" fill="#6CBAFA" fill-opacity="0.2"/>
<circle cx="104.429" cy="351.486" r="7.48585" transform="rotate(90 104.429 351.486)" fill="#6CBAFA" fill-opacity="0.2"/>
<circle cx="119.486" cy="111.486" r="7.48585" fill="#6CBAFA" fill-opacity="0.2"/>
<circle cx="103.486" cy="141.486" r="7.48585" fill="#6CBAFA" fill-opacity="0.2"/>
<circle cx="111.486" cy="126.486" r="7.48585" fill="#6CBAFA" fill-opacity="0.2"/>
<circle cx="111.486" cy="156.486" r="7.48585" fill="#6CBAFA" fill-opacity="0.2"/>
<circle cx="119.486" cy="171.486" r="7.48585" fill="#6CBAFA" fill-opacity="0.2"/>
<circle cx="111.486" cy="186.486" r="7.48585" fill="#6CBAFA" fill-opacity="0.2"/>
<circle cx="119.486" cy="201.486" r="7.48585" fill="#6CBAFA" fill-opacity="0.2"/>
<circle cx="47.4859" cy="96.4859" r="7.48585" fill="#6CBAFA" fill-opacity="0.2"/>
<circle cx="95.4859" cy="96.4859" r="7.48585" fill="#6CBAFA" fill-opacity="0.2"/>
<circle cx="167.486" cy="231.486" r="7.48585" fill="#6CBAFA" fill-opacity="0.2"/>
<circle cx="127.486" cy="96.4859" r="7.48585" fill="#6CBAFA" fill-opacity="0.2"/>
<circle cx="103.486" cy="261.486" r="7.48585" fill="#6CBAFA" fill-opacity="0.2"/>
<circle cx="159.486" cy="96.4859" r="7.48585" fill="#6CBAFA" fill-opacity="0.2"/>
<circle cx="39.4859" cy="261.486" r="7.48585" fill="#6CBAFA" fill-opacity="0.2"/>
<circle cx="97.4292" cy="366.486" r="7.48585" transform="rotate(90 97.4292 366.486)" fill="#6CBAFA" fill-opacity="0.2"/>
<circle cx="71.4859" cy="81.4859" r="7.48585" fill="#6CBAFA" fill-opacity="0.2"/>
<circle cx="39.4859" cy="81.4859" r="7.48585" fill="#6CBAFA" fill-opacity="0.2"/>
<circle cx="119.486" cy="81.4859" r="7.48585" fill="#6CBAFA" fill-opacity="0.2"/>
<circle cx="151.486" cy="81.4859" r="7.48585" fill="#6CBAFA" fill-opacity="0.2"/>
<circle cx="207.486" cy="156.486" r="7.48585" fill="#6CBAFA" fill-opacity="0.2"/>
<circle cx="79.4859" cy="66.4859" r="7.48585" fill="#6CBAFA" fill-opacity="0.2"/>
<circle cx="111.486" cy="246.486" r="7.48585" fill="#6CBAFA" fill-opacity="0.2"/>
<circle cx="111.486" cy="66.4859" r="7.48585" fill="#6CBAFA" fill-opacity="0.2"/>
<circle cx="143.486" cy="276.486" r="7.48585" fill="#6CBAFA" fill-opacity="0.2"/>
<circle cx="31.4859" cy="96.4859" r="7.48585" fill="#6CBAFA" fill-opacity="0.2"/>
<circle cx="159.486" cy="66.4859" r="7.48585" fill="#6CBAFA" fill-opacity="0.2"/>
<circle cx="175.486" cy="66.4859" r="7.48585" fill="#6CBAFA" fill-opacity="0.2"/>
<circle cx="191.486" cy="276.486" r="7.48585" fill="#6CBAFA" fill-opacity="0.2"/>
<circle cx="121.486" cy="381.486" r="7.48585" transform="rotate(90 121.486 381.486)" fill="#6CBAFA" fill-opacity="0.2"/>
<circle cx="79.4859" cy="96.4859" r="7.48585" fill="#6CBAFA" fill-opacity="0.2"/>
<circle cx="63.4859" cy="96.4859" r="7.48585" fill="#6CBAFA" fill-opacity="0.2"/>
<circle cx="111.486" cy="96.4859" r="7.48585" fill="#6CBAFA"/>
<circle cx="87.4859" cy="231.486" r="7.48585" fill="#6CBAFA" fill-opacity="0.2"/>
<circle cx="143.486" cy="96.4859" r="7.48585" fill="#6CBAFA" fill-opacity="0.2"/>
<circle cx="184.288" cy="351.486" r="7.48585" transform="rotate(90 184.288 351.486)" fill="#6CBAFA" fill-opacity="0.2"/>
<circle cx="175.486" cy="96.4859" r="7.48585" fill="#6CBAFA" fill-opacity="0.2"/>
<circle cx="183.486" cy="321.486" r="7.48585" transform="rotate(-90 183.486 321.486)" fill="#6CBAFA" fill-opacity="0.2"/>
<circle cx="71.4859" cy="321.486" r="7.48585" fill="#6CBAFA" fill-opacity="0.2"/>
<circle cx="87.4859" cy="81.4859" r="7.48585" fill="#6CBAFA" fill-opacity="0.2"/>
<circle cx="55.4859" cy="81.4859" r="7.48585" fill="#6CBAFA" fill-opacity="0.2"/>
<circle cx="191.486" cy="186.486" r="7.48585" fill="#6CBAFA" fill-opacity="0.2"/>
<circle cx="55.4859" cy="231.486" r="7.48585" fill="#6CBAFA" fill-opacity="0.2"/>
<circle cx="71.4859" cy="231.486" r="7.48585" fill="#6CBAFA" fill-opacity="0.2"/>
<circle cx="159.486" cy="276.486" r="7.48585" fill="#6CBAFA" fill-opacity="0.2"/>
<circle cx="7.48585" cy="140.486" r="7.48585" fill="#6CBAFA" fill-opacity="0.2"/>
<circle cx="95.4859" cy="306.486" r="7.48585" fill="#6CBAFA" fill-opacity="0.2"/>
<circle cx="103.486" cy="321.486" r="7.48585" fill="#6CBAFA" fill-opacity="0.2"/>
<circle cx="144.486" cy="336.486" r="7.48585" transform="rotate(-90 144.486 336.486)" fill="#6CBAFA" fill-opacity="0.2"/>
<circle cx="87.4859" cy="321.486" r="7.48585" fill="#6CBAFA" fill-opacity="0.2"/>
<circle cx="55.4859" cy="111.486" r="7.48585" fill="#6CBAFA" fill-opacity="0.2"/>
<circle cx="39.4859" cy="141.486" r="7.48585" fill="#6CBAFA" fill-opacity="0.2"/>
<circle cx="47.4859" cy="126.486" r="7.48585" fill="#6CBAFA" fill-opacity="0.2"/>
<circle cx="47.4859" cy="156.486" r="7.48585" fill="#6CBAFA" fill-opacity="0.2"/>
<circle cx="55.4859" cy="171.486" r="7.48585" fill="#6CBAFA" fill-opacity="0.2"/>
<circle cx="47.4859" cy="186.486" r="7.48585" fill="#6CBAFA" fill-opacity="0.2"/>
<circle cx="55.4859" cy="201.486" r="7.48585" fill="#6CBAFA" fill-opacity="0.2"/>
<circle cx="151.486" cy="111.486" r="7.48585" fill="#6CBAFA" fill-opacity="0.2"/>
<circle cx="135.486" cy="141.486" r="7.48585" fill="#6CBAFA" fill-opacity="0.2"/>
<circle cx="143.486" cy="126.486" r="7.48585" fill="#6CBAFA" fill-opacity="0.2"/>
<circle cx="143.486" cy="156.486" r="7.48585" fill="#6CBAFA" fill-opacity="0.2"/>
<circle cx="151.486" cy="171.486" r="7.48585" fill="#6CBAFA" fill-opacity="0.2"/>
<circle cx="143.486" cy="186.486" r="7.48585" fill="#6CBAFA" fill-opacity="0.2"/>
<circle cx="151.486" cy="201.486" r="7.48585" fill="#6CBAFA" fill-opacity="0.2"/>
<circle cx="31.4859" cy="126.486" r="7.48585" fill="#6CBAFA" fill-opacity="0.2"/>
<circle cx="23.4859" cy="290.486" r="7.48585" fill="#6CBAFA" fill-opacity="0.2"/>
<circle cx="159.486" cy="216.486" r="7.48585" fill="#6CBAFA" fill-opacity="0.2"/>
<circle cx="127.486" cy="216.486" r="7.48585" fill="#6CBAFA" fill-opacity="0.2"/>
<circle cx="135.486" cy="261.486" r="7.48585" fill="#6CBAFA" fill-opacity="0.2"/>
<circle cx="175.486" cy="276.486" r="7.48585" fill="#6CBAFA" fill-opacity="0.2"/>
<circle cx="119.486" cy="321.486" r="7.48585" fill="#6CBAFA" fill-opacity="0.2"/>
<circle cx="119.486" cy="291.486" r="7.48585" fill="#6CBAFA" fill-opacity="0.2"/>
<circle cx="128.486" cy="336.486" r="7.48585" transform="rotate(-90 128.486 336.486)" fill="#6CBAFA" fill-opacity="0.2"/>
<circle cx="71.4859" cy="111.486" r="7.48585" fill="#6CBAFA" fill-opacity="0.2"/>
<circle cx="55.4859" cy="141.486" r="7.48585" fill="#6CBAFA" fill-opacity="0.2"/>
<circle cx="63.4859" cy="126.486" r="7.48585" fill="#6CBAFA" fill-opacity="0.2"/>
<circle cx="63.4859" cy="156.486" r="7.48585" fill="#6CBAFA" fill-opacity="0.2"/>
<circle cx="71.4859" cy="171.486" r="7.48585" fill="#6CBAFA" fill-opacity="0.2"/>
<circle cx="63.4859" cy="186.486" r="7.48585" fill="#6CBAFA" fill-opacity="0.2"/>
<circle cx="71.4859" cy="201.486" r="7.48585" fill="#6CBAFA" fill-opacity="0.2"/>
<circle cx="167.486" cy="111.486" r="7.48585" fill="#6CBAFA" fill-opacity="0.2"/>
<circle cx="151.486" cy="141.486" r="7.48585" fill="#6CBAFA" fill-opacity="0.2"/>
<circle cx="159.486" cy="126.486" r="7.48585" fill="#6CBAFA" fill-opacity="0.2"/>
<circle cx="159.486" cy="156.486" r="7.48585" fill="#6CBAFA" fill-opacity="0.2"/>
<circle cx="167.486" cy="171.486" r="7.48585" fill="#6CBAFA" fill-opacity="0.2"/>
<circle cx="159.486" cy="186.486" r="7.48585" fill="#6CBAFA" fill-opacity="0.2"/>
<circle cx="167.486" cy="201.486" r="7.48585" fill="#6CBAFA" fill-opacity="0.2"/>
<circle cx="207.486" cy="186.486" r="7.48585" fill="#6CBAFA" fill-opacity="0.2"/>
<circle cx="175.486" cy="216.486" r="7.48585" fill="#6CBAFA" fill-opacity="0.2"/>
<circle cx="63.4859" cy="246.486" r="7.48585" fill="#6CBAFA" fill-opacity="0.2"/>
<circle cx="151.486" cy="261.486" r="7.48585" fill="#6CBAFA" fill-opacity="0.2"/>
<circle cx="87.4859" cy="291.486" r="7.48585" fill="#6CBAFA" fill-opacity="0.2"/>
<circle cx="40.4859" cy="351.486" r="7.48585" transform="rotate(-90 40.4859 351.486)" fill="#6CBAFA" fill-opacity="0.2"/>
<circle cx="55.4859" cy="291.486" r="7.48585" fill="#6CBAFA" fill-opacity="0.2"/>
<circle cx="88.4575" cy="351.486" r="7.48585" transform="rotate(90 88.4575 351.486)" fill="#6CBAFA" fill-opacity="0.2"/>
<circle cx="87.4859" cy="111.486" r="7.48585" fill="#6CBAFA" fill-opacity="0.2"/>
<circle cx="71.4859" cy="141.486" r="7.48585" fill="#6CBAFA" fill-opacity="0.2"/>
<circle cx="79.4859" cy="126.486" r="7.48585" fill="#6CBAFA" fill-opacity="0.2"/>
<circle cx="79.4859" cy="156.486" r="7.48585" fill="#6CBAFA" fill-opacity="0.2"/>
<circle cx="87.4859" cy="171.486" r="7.48585" fill="#6CBAFA" fill-opacity="0.2"/>
<circle cx="79.4859" cy="186.486" r="7.48585" fill="#6CBAFA" fill-opacity="0.2"/>
<circle cx="87.4859" cy="201.486" r="7.48585" fill="#6CBAFA" fill-opacity="0.2"/>
<circle cx="183.486" cy="111.486" r="7.48585" fill="#6CBAFA" fill-opacity="0.2"/>
<circle cx="167.486" cy="141.486" r="7.48585" fill="#6CBAFA" fill-opacity="0.2"/>
<circle cx="175.486" cy="126.486" r="7.48585" fill="#6CBAFA" fill-opacity="0.2"/>
<circle cx="175.486" cy="156.486" r="7.48585" fill="#6CBAFA" fill-opacity="0.2"/>
<circle cx="183.486" cy="171.486" r="7.48585" fill="#6CBAFA" fill-opacity="0.2"/>
<circle cx="175.486" cy="186.486" r="7.48585" fill="#6CBAFA" fill-opacity="0.2"/>
<circle cx="183.486" cy="201.486" r="7.48585" fill="#6CBAFA" fill-opacity="0.2"/>
<circle cx="199.486" cy="201.486" r="7.48585" fill="#6CBAFA" fill-opacity="0.2"/>
<circle cx="207.486" cy="126.486" r="7.48585" fill="#6CBAFA" fill-opacity="0.2"/>
<circle cx="71.4859" cy="261.486" r="7.48585" fill="#6CBAFA" fill-opacity="0.2"/>
<circle cx="175.486" cy="246.486" r="7.48585" fill="#6CBAFA" fill-opacity="0.2"/>
<circle cx="207.486" cy="246.486" r="7.48585" fill="#6CBAFA" fill-opacity="0.2"/>
<circle cx="199.486" cy="321.486" r="7.48585" transform="rotate(-90 199.486 321.486)" fill="#6CBAFA" fill-opacity="0.2"/>
<circle cx="135.486" cy="291.486" r="7.48585" fill="#6CBAFA" fill-opacity="0.2"/>
<circle cx="199.486" cy="81.4859" r="7.48585" fill="#6CBAFA" fill-opacity="0.2"/>
<path d="M63.6436 19H54.916V17.3301L59.0557 12.8828C59.3779 12.5312 59.6504 12.2119 59.873 11.9248C60.0957 11.6377 60.2744 11.377 60.4092 11.1426C60.5498 10.9023 60.6494 10.6797 60.708 10.4746C60.7725 10.2695 60.8047 10.0703 60.8047 9.87695C60.8047 9.58984 60.7637 9.33496 60.6816 9.1123C60.5996 8.88965 60.4824 8.70215 60.3301 8.5498C60.1836 8.3916 60.0049 8.27148 59.7939 8.18945C59.5889 8.10742 59.3604 8.06641 59.1084 8.06641C58.4346 8.06641 57.9307 8.25391 57.5967 8.62891C57.2686 9.00391 57.1045 9.52832 57.1045 10.2021H54.6523C54.6523 9.63379 54.7607 9.09766 54.9775 8.59375C55.1943 8.08398 55.499 7.63867 55.8916 7.25781C56.29 6.87695 56.7676 6.57813 57.3242 6.36133C57.8867 6.13867 58.5078 6.02734 59.1875 6.02734C59.8379 6.02734 60.4121 6.11816 60.9102 6.2998C61.4141 6.48145 61.833 6.73633 62.167 7.06445C62.5068 7.39258 62.7646 7.78809 62.9404 8.25098C63.1162 8.70801 63.2041 9.21484 63.2041 9.77148C63.2041 10.1934 63.1367 10.5977 63.002 10.9844C62.873 11.3652 62.6855 11.7432 62.4395 12.1182C62.1992 12.4932 61.9092 12.877 61.5693 13.2695C61.2295 13.6562 60.8516 14.0635 60.4355 14.4912L58.0273 17.04H63.6436V19ZM74.1201 9.60449C74.1201 10.2256 73.9619 10.7793 73.6455 11.2656C73.335 11.7461 72.9072 12.1299 72.3623 12.417C72.9834 12.71 73.4756 13.1201 73.8389 13.6475C74.208 14.1748 74.3926 14.793 74.3926 15.502C74.3926 16.1055 74.2812 16.6357 74.0586 17.0928C73.8418 17.5498 73.54 17.9336 73.1533 18.2441C72.7725 18.5488 72.3213 18.7803 71.7998 18.9385C71.2783 19.0967 70.7158 19.1758 70.1123 19.1758C69.5029 19.1758 68.9346 19.0967 68.4072 18.9385C67.8857 18.7803 67.4316 18.5488 67.0449 18.2441C66.6582 17.9336 66.3535 17.5498 66.1309 17.0928C65.9141 16.6357 65.8057 16.1055 65.8057 15.502C65.8057 15.1504 65.8525 14.8193 65.9463 14.5088C66.0459 14.1924 66.1836 13.9053 66.3594 13.6475C66.5352 13.3838 66.7461 13.1494 66.9922 12.9443C67.2441 12.7334 67.5254 12.5547 67.8359 12.4082C67.291 12.127 66.8633 11.7461 66.5527 11.2656C66.2422 10.7793 66.0869 10.2256 66.0869 9.60449C66.0869 9.02441 66.1865 8.51465 66.3857 8.0752C66.585 7.62988 66.8604 7.25488 67.2119 6.9502C67.5693 6.64551 67.9912 6.41699 68.4775 6.26465C68.9697 6.10645 69.5059 6.02734 70.0859 6.02734C70.666 6.02734 71.2021 6.10645 71.6943 6.26465C72.1865 6.41699 72.6113 6.64551 72.9688 6.9502C73.332 7.25488 73.6133 7.62988 73.8125 8.0752C74.0176 8.51465 74.1201 9.02441 74.1201 9.60449ZM71.9404 15.335C71.9404 15.042 71.8965 14.7783 71.8086 14.5439C71.7207 14.3096 71.5947 14.1104 71.4307 13.9463C71.2725 13.7764 71.0791 13.6475 70.8506 13.5596C70.6279 13.4717 70.376 13.4277 70.0947 13.4277C69.8135 13.4277 69.5586 13.4717 69.3301 13.5596C69.1074 13.6475 68.917 13.7764 68.7588 13.9463C68.6006 14.1104 68.4775 14.3096 68.3896 14.5439C68.3018 14.7783 68.2578 15.042 68.2578 15.335C68.2578 15.9209 68.4248 16.3809 68.7588 16.7148C69.0928 17.0488 69.5439 17.2158 70.1123 17.2158C70.3818 17.2158 70.6279 17.1748 70.8506 17.0928C71.0732 17.0049 71.2637 16.8789 71.4219 16.7148C71.5859 16.5508 71.7119 16.3545 71.7998 16.126C71.8936 15.8916 71.9404 15.6279 71.9404 15.335ZM71.6855 9.71875C71.6855 9.46094 71.6475 9.22656 71.5713 9.01562C71.4951 8.80469 71.3867 8.62598 71.2461 8.47949C71.1113 8.32715 70.9443 8.20996 70.7451 8.12793C70.5518 8.0459 70.332 8.00488 70.0859 8.00488C69.5879 8.00488 69.2041 8.15723 68.9346 8.46191C68.665 8.7666 68.5303 9.18555 68.5303 9.71875C68.5303 9.97656 68.5654 10.2139 68.6357 10.4307C68.7061 10.6416 68.8086 10.8232 68.9434 10.9756C69.084 11.1279 69.251 11.248 69.4443 11.3359C69.6436 11.418 69.8662 11.459 70.1123 11.459C70.3584 11.459 70.5781 11.418 70.7715 11.3359C70.9648 11.248 71.1289 11.1279 71.2637 10.9756C71.3984 10.8232 71.501 10.6416 71.5713 10.4307C71.6475 10.2139 71.6855 9.97656 71.6855 9.71875ZM78.5762 17.0576C79.2324 17.0576 79.8008 16.9873 80.2812 16.8467C80.7617 16.7061 81.1631 16.5039 81.4854 16.2402C81.8135 15.9707 82.0654 15.6455 82.2412 15.2646C82.4229 14.8779 82.54 14.4414 82.5928 13.9551C82.3467 14.2012 82.0303 14.4121 81.6436 14.5879C81.2568 14.7637 80.7881 14.8516 80.2373 14.8516C79.6279 14.8516 79.0918 14.7402 78.6289 14.5176C78.166 14.2949 77.7764 13.9902 77.46 13.6035C77.1494 13.2168 76.9121 12.7627 76.748 12.2412C76.5898 11.7139 76.5107 11.1484 76.5107 10.5449C76.5107 9.92383 76.6074 9.34082 76.8008 8.7959C77 8.24512 77.2842 7.76465 77.6533 7.35449C78.0225 6.94434 78.4678 6.62207 78.9893 6.3877C79.5166 6.14746 80.1084 6.02734 80.7646 6.02734C81.4326 6.02734 82.0332 6.15625 82.5664 6.41406C83.0996 6.67187 83.5508 7.03223 83.9199 7.49512C84.2949 7.95801 84.5791 8.50879 84.7725 9.14746C84.9717 9.78613 85.0713 10.4863 85.0713 11.248V12.0918C85.0713 13.1113 84.9453 14.0488 84.6934 14.9043C84.4414 15.7598 84.0518 16.501 83.5244 17.1279C82.9971 17.749 82.3262 18.2354 81.5117 18.5869C80.6973 18.9326 79.7246 19.1055 78.5938 19.1055H78.4092V17.0576H78.5762ZM80.8174 12.9619C81.04 12.9619 81.2451 12.9297 81.4326 12.8652C81.626 12.8008 81.7988 12.7129 81.9512 12.6016C82.1094 12.4844 82.2441 12.3496 82.3555 12.1973C82.4727 12.0391 82.5664 11.8691 82.6367 11.6875V10.8174C82.6367 10.3486 82.5869 9.93848 82.4873 9.58691C82.3936 9.23535 82.2617 8.94238 82.0918 8.70801C81.9219 8.47363 81.7227 8.29785 81.4941 8.18066C81.2656 8.06348 81.0195 8.00488 80.7559 8.00488C80.4688 8.00488 80.2109 8.0752 79.9824 8.21582C79.7598 8.35059 79.5723 8.53516 79.4199 8.76953C79.2676 8.99805 79.1504 9.26465 79.0684 9.56934C78.9863 9.86816 78.9453 10.1816 78.9453 10.5098C78.9453 10.8379 78.9834 11.1514 79.0596 11.4502C79.1357 11.749 79.25 12.0098 79.4023 12.2324C79.5605 12.4551 79.7568 12.6338 79.9912 12.7686C80.2256 12.8975 80.501 12.9619 80.8174 12.9619ZM91.2852 15.0713L90.1777 16.0996V19H87.7344V5.5H90.1777V13.2168L90.916 12.373L93.5439 9.49023H96.4795L92.8936 13.4541L96.9805 19H93.9834L91.2852 15.0713ZM98.2725 14.1748C98.2725 13.4541 98.3604 12.7949 98.5361 12.1973C98.7178 11.5996 98.9756 11.0869 99.3096 10.6592C99.6436 10.2314 100.048 9.90039 100.522 9.66602C100.997 9.43164 101.533 9.31445 102.131 9.31445C102.688 9.31445 103.165 9.4082 103.563 9.5957C103.962 9.7832 104.302 10.0498 104.583 10.3955L104.68 9.49023H106.903V18.6924C106.903 19.3369 106.792 19.9111 106.569 20.415C106.353 20.9189 106.045 21.3438 105.646 21.6895C105.254 22.0352 104.779 22.2959 104.223 22.4717C103.672 22.6533 103.062 22.7441 102.395 22.7441C102.107 22.7441 101.8 22.7148 101.472 22.6562C101.144 22.5977 100.818 22.5068 100.496 22.3838C100.174 22.2607 99.8691 22.1025 99.582 21.9092C99.2949 21.7217 99.0488 21.4961 98.8438 21.2324L99.9424 19.7471C100.253 20.0986 100.604 20.3652 100.997 20.5469C101.39 20.7344 101.814 20.8281 102.271 20.8281C102.957 20.8281 103.49 20.6436 103.871 20.2744C104.258 19.9111 104.451 19.3926 104.451 18.7188V18.1738C104.164 18.4902 103.827 18.7363 103.44 18.9121C103.06 19.0879 102.617 19.1758 102.113 19.1758C101.521 19.1758 100.988 19.0557 100.514 18.8154C100.045 18.5693 99.6436 18.2324 99.3096 17.8047C98.9756 17.377 98.7178 16.8701 98.5361 16.2842C98.3604 15.6924 98.2725 15.0508 98.2725 14.3594V14.1748ZM100.725 14.3594C100.725 14.7578 100.763 15.1299 100.839 15.4756C100.921 15.8154 101.044 16.1143 101.208 16.3721C101.372 16.624 101.58 16.8232 101.832 16.9697C102.084 17.1162 102.383 17.1895 102.729 17.1895C103.156 17.1895 103.508 17.1074 103.783 16.9434C104.064 16.7793 104.287 16.5508 104.451 16.2578V12.2324C104.287 11.9336 104.064 11.7051 103.783 11.5469C103.508 11.3828 103.162 11.3008 102.746 11.3008C102.4 11.3008 102.102 11.377 101.85 11.5293C101.598 11.6758 101.387 11.8809 101.217 12.1445C101.053 12.4023 100.93 12.707 100.848 13.0586C100.766 13.4043 100.725 13.7764 100.725 14.1748V14.3594ZM128.938 14.9922C128.896 15.6367 128.756 16.2168 128.516 16.7324C128.281 17.248 127.965 17.6875 127.566 18.0508C127.168 18.4141 126.693 18.6953 126.143 18.8945C125.592 19.0879 124.982 19.1846 124.314 19.1846C123.559 19.1846 122.888 19.0469 122.302 18.7715C121.716 18.4902 121.224 18.1006 120.825 17.6025C120.427 17.0986 120.122 16.4951 119.911 15.792C119.7 15.0889 119.595 14.3154 119.595 13.4717V11.749C119.595 10.8994 119.706 10.123 119.929 9.41992C120.151 8.7168 120.468 8.11328 120.878 7.60938C121.288 7.10547 121.783 6.71582 122.363 6.44043C122.949 6.15918 123.605 6.01855 124.332 6.01855C125.035 6.01855 125.659 6.11816 126.204 6.31738C126.755 6.5166 127.224 6.80078 127.61 7.16992C127.997 7.53906 128.302 7.99023 128.524 8.52344C128.747 9.05664 128.888 9.65723 128.946 10.3252H126.485C126.462 9.94434 126.403 9.61035 126.31 9.32324C126.222 9.03613 126.09 8.79883 125.914 8.61133C125.744 8.41797 125.527 8.27441 125.264 8.18066C125.006 8.08105 124.695 8.03125 124.332 8.03125C123.951 8.03125 123.62 8.11328 123.339 8.27734C123.058 8.44141 122.823 8.68164 122.636 8.99805C122.454 9.31445 122.319 9.7041 122.231 10.167C122.144 10.624 122.1 11.1455 122.1 11.7314V13.4717C122.1 14.7314 122.275 15.6631 122.627 16.2666C122.984 16.8701 123.547 17.1719 124.314 17.1719C124.959 17.1719 125.469 17.002 125.844 16.6621C126.219 16.3164 126.427 15.7598 126.468 14.9922H128.938ZM139.792 13.542C139.792 14.3623 139.684 15.1182 139.467 15.8096C139.25 16.501 138.937 17.0957 138.526 17.5938C138.116 18.0918 137.615 18.4814 137.023 18.7627C136.438 19.0381 135.775 19.1758 135.037 19.1758C134.299 19.1758 133.643 19.0381 133.068 18.7627C132.494 18.4814 132.011 18.0918 131.618 17.5938C131.226 17.0898 130.927 16.4951 130.722 15.8096C130.517 15.1182 130.414 14.3623 130.414 13.542V11.6787C130.414 10.8584 130.517 10.1025 130.722 9.41113C130.927 8.71973 131.226 8.125 131.618 7.62695C132.011 7.12305 132.491 6.73047 133.06 6.44922C133.634 6.16797 134.29 6.02734 135.028 6.02734C135.772 6.02734 136.438 6.16797 137.023 6.44922C137.615 6.73047 138.116 7.12305 138.526 7.62695C138.937 8.125 139.25 8.71973 139.467 9.41113C139.684 10.1025 139.792 10.8584 139.792 11.6787V13.542ZM137.287 11.6611C137.287 11.1396 137.243 10.6592 137.155 10.2197C137.073 9.78027 136.941 9.40234 136.76 9.08594C136.578 8.76953 136.344 8.52344 136.057 8.34766C135.775 8.16602 135.433 8.0752 135.028 8.0752C134.63 8.0752 134.296 8.16602 134.026 8.34766C133.757 8.52344 133.54 8.76953 133.376 9.08594C133.212 9.40234 133.095 9.78027 133.024 10.2197C132.954 10.6592 132.919 11.1396 132.919 11.6611V13.542C132.919 14.0576 132.954 14.5352 133.024 14.9746C133.095 15.4141 133.212 15.7949 133.376 16.1172C133.54 16.4395 133.757 16.6914 134.026 16.873C134.296 17.0547 134.633 17.1455 135.037 17.1455C135.436 17.1455 135.775 17.0547 136.057 16.873C136.344 16.6914 136.575 16.4424 136.751 16.126C136.933 15.8037 137.067 15.4229 137.155 14.9834C137.243 14.5439 137.287 14.0635 137.287 13.542V11.6611ZM146.695 21.34H141.007V19.864L142.969 17.938C143.509 17.41 143.875 17.008 144.067 16.732C144.271 16.444 144.373 16.144 144.373 15.832C144.373 15.616 144.301 15.448 144.157 15.328C144.025 15.208 143.839 15.148 143.599 15.148C143.131 15.148 142.603 15.406 142.015 15.922L140.935 14.59C141.319 14.254 141.745 13.984 142.213 13.78C142.693 13.564 143.251 13.456 143.887 13.456C144.667 13.456 145.291 13.648 145.759 14.032C146.239 14.404 146.479 14.944 146.479 15.652C146.479 16.192 146.329 16.684 146.029 17.128C145.729 17.572 145.225 18.112 144.517 18.748L143.599 19.576H146.695V21.34ZM153.195 19.1758C152.463 19.1758 151.798 19.0557 151.2 18.8154C150.603 18.5752 150.09 18.25 149.662 17.8398C149.234 17.4238 148.903 16.9375 148.669 16.3809C148.44 15.8184 148.326 15.2178 148.326 14.5791V14.2275C148.326 13.501 148.44 12.8389 148.669 12.2412C148.897 11.6377 149.217 11.1191 149.627 10.6855C150.037 10.252 150.523 9.91504 151.086 9.6748C151.648 9.43457 152.261 9.31445 152.923 9.31445C153.608 9.31445 154.218 9.42871 154.751 9.65723C155.29 9.87988 155.744 10.1963 156.113 10.6064C156.488 11.0166 156.772 11.5117 156.966 12.0918C157.159 12.666 157.256 13.3018 157.256 13.999V15.0361H150.805C150.852 15.3584 150.945 15.6543 151.086 15.9238C151.232 16.1875 151.417 16.416 151.64 16.6094C151.862 16.8027 152.117 16.9521 152.404 17.0576C152.691 17.1631 153.005 17.2158 153.345 17.2158C153.585 17.2158 153.822 17.1924 154.057 17.1455C154.297 17.0986 154.525 17.0312 154.742 16.9434C154.959 16.8496 155.161 16.7354 155.349 16.6006C155.536 16.4658 155.7 16.3076 155.841 16.126L157.062 17.4443C156.91 17.6611 156.711 17.875 156.465 18.0859C156.225 18.291 155.938 18.4756 155.604 18.6396C155.275 18.7979 154.909 18.9268 154.505 19.0264C154.101 19.126 153.664 19.1758 153.195 19.1758ZM152.905 11.292C152.63 11.292 152.378 11.3418 152.149 11.4414C151.921 11.5352 151.719 11.6729 151.543 11.8545C151.373 12.0361 151.229 12.2529 151.112 12.5049C150.995 12.7568 150.907 13.0381 150.849 13.3486H154.856V13.1553C154.845 12.8975 154.795 12.6543 154.707 12.4258C154.619 12.1973 154.493 12.001 154.329 11.8369C154.165 11.667 153.963 11.5352 153.723 11.4414C153.488 11.3418 153.216 11.292 152.905 11.292ZM159.146 14.166C159.146 13.4453 159.228 12.7861 159.392 12.1885C159.556 11.5908 159.796 11.0811 160.112 10.6592C160.435 10.2314 160.827 9.90039 161.29 9.66602C161.759 9.43164 162.295 9.31445 162.898 9.31445C163.438 9.31445 163.906 9.41406 164.305 9.61328C164.709 9.8125 165.058 10.0938 165.351 10.457L165.5 9.49023H167.653V22.6562H165.201V18.1914C164.914 18.5078 164.58 18.751 164.199 18.9209C163.818 19.0908 163.379 19.1758 162.881 19.1758C162.283 19.1758 161.753 19.0557 161.29 18.8154C160.827 18.5693 160.438 18.2324 160.121 17.8047C159.805 17.3711 159.562 16.8613 159.392 16.2754C159.228 15.6836 159.146 15.042 159.146 14.3506V14.166ZM161.589 14.3506C161.589 14.7432 161.624 15.1123 161.694 15.458C161.765 15.8037 161.876 16.1084 162.028 16.3721C162.181 16.6299 162.377 16.835 162.617 16.9873C162.863 17.1396 163.159 17.2158 163.505 17.2158C163.933 17.2158 164.281 17.1309 164.551 16.9609C164.826 16.791 165.043 16.5566 165.201 16.2578V12.2148C165.043 11.9219 164.826 11.6963 164.551 11.5381C164.281 11.374 163.938 11.292 163.522 11.292C163.177 11.292 162.881 11.3682 162.635 11.5205C162.395 11.667 162.195 11.8691 162.037 12.127C161.885 12.3848 161.771 12.6895 161.694 13.041C161.624 13.3867 161.589 13.7617 161.589 14.166V14.3506Z" fill="#00C7A5"/>
</svg>
