<svg width="222" height="495" viewBox="0 0 222 495" fill="none" xmlns="http://www.w3.org/2000/svg">
<rect width="222" height="495" fill="white" fill-opacity="0.3"/>
<circle cx="151.486" cy="187.486" r="7.48585" fill="#00C7A5" fill-opacity="0.2"/>
<circle cx="119.486" cy="187.486" r="7.48585" fill="#00C7A5" fill-opacity="0.2"/>
<circle cx="15.4859" cy="112.486" r="7.48585" fill="#00C7A5" fill-opacity="0.2"/>
<circle cx="39.4859" cy="187.486" r="7.48585" fill="#00C7A5" fill-opacity="0.2"/>
<circle cx="14.4859" cy="172.486" r="7.48585" fill="#00C7A5" fill-opacity="0.2"/>
<circle cx="79.4859" cy="262.486" r="7.48585" fill="#00C7A5" fill-opacity="0.2"/>
<circle cx="183.486" cy="217.486" r="7.48585" fill="#00C7A5" fill-opacity="0.2"/>
<circle cx="73.4858" cy="337.486" r="7.48585" transform="rotate(90 73.4858 337.486)" fill="#00C7A5" fill-opacity="0.2"/>
<circle cx="39.4859" cy="127.486" r="7.48585" fill="#00C7A5" fill-opacity="0.2"/>
<circle cx="191.486" cy="52.4859" r="7.48585" fill="#00C7A5" fill-opacity="0.2"/>
<circle cx="23.4859" cy="67.4859" r="7.48585" fill="#00C7A5" fill-opacity="0.2"/>
<circle cx="95.4859" cy="202.486" r="7.48585" fill="#00C7A5" fill-opacity="0.2"/>
<circle cx="15.4859" cy="52.4859" r="7.48585" fill="#00C7A5" fill-opacity="0.2"/>
<circle cx="199.486" cy="187.486" r="7.48585" fill="#00C7A5" fill-opacity="0.2"/>
<circle cx="176.486" cy="292.486" r="7.48585" transform="rotate(-90 176.486 292.486)" fill="#00C7A5" fill-opacity="0.2"/>
<circle cx="199.486" cy="247.486" r="7.48585" fill="#00C7A5" fill-opacity="0.2"/>
<circle cx="145.344" cy="322.486" r="7.48585" transform="rotate(90 145.344 322.486)" fill="#00C7A5" fill-opacity="0.2"/>
<circle cx="96.4859" cy="292.486" r="7.48585" fill="#00C7A5" fill-opacity="0.2"/>
<circle cx="23.4859" cy="127.486" r="7.48585" fill="#00C7A5" fill-opacity="0.2"/>
<circle cx="127.486" cy="202.486" r="7.48585" fill="#00C7A5" fill-opacity="0.2"/>
<circle cx="183.486" cy="187.486" r="7.48585" fill="#00C7A5" fill-opacity="0.2"/>
<circle cx="152.344" cy="307.486" r="7.48585" transform="rotate(90 152.344 307.486)" fill="#00C7A5" fill-opacity="0.2"/>
<circle cx="63.4859" cy="262.486" r="7.48585" fill="#00C7A5" fill-opacity="0.2"/>
<circle cx="79.4859" cy="202.486" r="7.48585" fill="#00C7A5" fill-opacity="0.2"/>
<circle cx="120.401" cy="307.486" r="7.48585" transform="rotate(90 120.401 307.486)" fill="#00C7A5" fill-opacity="0.2"/>
<circle cx="159.486" cy="262.486" r="7.48585" fill="#00C7A5" fill-opacity="0.2"/>
<circle cx="31.4859" cy="142.486" r="7.48585" fill="#00C7A5" fill-opacity="0.2"/>
<circle cx="143.486" cy="202.486" r="7.48585" fill="#00C7A5" fill-opacity="0.2"/>
<circle cx="7.48585" cy="157.486" r="7.48585" fill="#00C7A5" fill-opacity="0.2"/>
<circle cx="81.4575" cy="322.486" r="7.48585" transform="rotate(90 81.4575 322.486)" fill="#00C7A5" fill-opacity="0.2"/>
<circle cx="15.4859" cy="202.486" r="7.48585" fill="#00C7A5" fill-opacity="0.2"/>
<circle cx="80.4859" cy="292.486" r="7.48585" fill="#00C7A5" fill-opacity="0.2"/>
<circle cx="136.373" cy="307.486" r="7.48585" transform="rotate(90 136.373 307.486)" fill="#00C7A5" fill-opacity="0.2"/>
<circle cx="151.486" cy="277.486" r="7.48585" fill="#00C7A5" fill-opacity="0.2"/>
<circle cx="111.486" cy="172.486" r="7.48585" fill="#00C7A5" fill-opacity="0.2"/>
<circle cx="135.486" cy="187.486" r="7.48585" fill="#00C7A5" fill-opacity="0.2"/>
<circle cx="127.486" cy="232.486" r="7.48585" fill="#00C7A5" fill-opacity="0.2"/>
<circle cx="207.486" cy="172.486" r="7.48585" fill="#00C7A5" fill-opacity="0.2"/>
<circle cx="31.4859" cy="232.486" r="7.48585" fill="#00C7A5" fill-opacity="0.2"/>
<circle cx="183.486" cy="247.486" r="7.48585" fill="#00C7A5" fill-opacity="0.2"/>
<circle cx="151.486" cy="247.486" r="7.48585" fill="#00C7A5" fill-opacity="0.2"/>
<circle cx="64.4859" cy="292.486" r="7.48585" transform="rotate(-90 64.4859 292.486)" fill="#00C7A5" fill-opacity="0.2"/>
<circle cx="31.4859" cy="112.486" r="7.48585" fill="#00C7A5" fill-opacity="0.2"/>
<circle cx="199.486" cy="97.4859" r="7.48585" fill="#00C7A5" fill-opacity="0.2"/>
<circle cx="15.4859" cy="142.486" r="7.48585" fill="#00C7A5" fill-opacity="0.2"/>
<circle cx="207.486" cy="52.4859" r="7.48585" fill="#00C7A5" fill-opacity="0.2"/>
<circle cx="7.48585" cy="127.486" r="7.48585" fill="#00C7A5" fill-opacity="0.2"/>
<circle cx="31.4859" cy="202.486" r="7.48585" fill="#00C7A5" fill-opacity="0.2"/>
<circle cx="7.48585" cy="217.486" r="7.48585" fill="#00C7A5" fill-opacity="0.2"/>
<circle cx="160.486" cy="292.486" r="7.48585" transform="rotate(-90 160.486 292.486)" fill="#00C7A5" fill-opacity="0.2"/>
<circle cx="129.486" cy="322.486" r="7.48585" transform="rotate(90 129.486 322.486)" fill="#00C7A5" fill-opacity="0.2"/>
<circle cx="192.486" cy="292.486" r="7.48585" transform="rotate(-90 192.486 292.486)" fill="#00C7A5" fill-opacity="0.2"/>
<circle cx="103.486" cy="67.4859" r="7.48585" fill="#00C7A5" fill-opacity="0.2"/>
<circle cx="87.4859" cy="97.4859" r="7.48585" fill="#00C7A5" fill-opacity="0.2"/>
<circle cx="95.4859" cy="82.4859" r="7.48585" fill="#00C7A5" fill-opacity="0.2"/>
<circle cx="95.4859" cy="112.486" r="7.48585" fill="#00C7A5" fill-opacity="0.2"/>
<circle cx="103.486" cy="127.486" r="7.48585" fill="#00C7A5" fill-opacity="0.2"/>
<circle cx="95.4859" cy="142.486" r="7.48585" fill="#00C7A5" fill-opacity="0.2"/>
<circle cx="103.486" cy="157.486" r="7.48585" fill="#00C7A5" fill-opacity="0.2"/>
<circle cx="151.486" cy="7.48585" r="7.48585" fill="#00C7A5" fill-opacity="0.2"/>
<circle cx="191.486" cy="172.486" r="7.48585" fill="#00C7A5" fill-opacity="0.2"/>
<circle cx="39.4859" cy="67.4859" r="7.48585" fill="#00C7A5" fill-opacity="0.2"/>
<circle cx="183.486" cy="97.4859" r="7.48585" fill="#00C7A5" fill-opacity="0.2"/>
<circle cx="87.4859" cy="217.486" r="7.48585" fill="#00C7A5" fill-opacity="0.2"/>
<circle cx="23.4859" cy="37.4859" r="7.48585" fill="#00C7A5" fill-opacity="0.2"/>
<circle cx="71.4859" cy="247.486" r="7.48585" fill="#00C7A5" fill-opacity="0.2"/>
<circle cx="161.486" cy="322.486" r="7.48585" transform="rotate(90 161.486 322.486)" fill="#00C7A5" fill-opacity="0.2"/>
<circle cx="23.4859" cy="217.486" r="7.48585" fill="#00C7A5" fill-opacity="0.2"/>
<circle cx="175.486" cy="262.486" r="7.48585" fill="#00C7A5" fill-opacity="0.2"/>
<circle cx="39.4859" cy="157.486" r="7.48585" fill="#00C7A5" fill-opacity="0.2"/>
<circle cx="159.486" cy="202.486" r="7.48585" fill="#00C7A5" fill-opacity="0.2"/>
<circle cx="23.4859" cy="187.486" r="7.48585" fill="#00C7A5" fill-opacity="0.2"/>
<circle cx="200.259" cy="307.486" r="7.48585" transform="rotate(90 200.259 307.486)" fill="#00C7A5" fill-opacity="0.2"/>
<circle cx="48.4859" cy="322.486" r="7.48585" fill="#00C7A5" fill-opacity="0.2"/>
<circle cx="30.4859" cy="22.4859" r="7.48585" fill="#00C7A5" fill-opacity="0.2"/>
<circle cx="168.316" cy="307.486" r="7.48585" transform="rotate(90 168.316 307.486)" fill="#00C7A5" fill-opacity="0.2"/>
<circle cx="72.4858" cy="307.486" r="7.48585" transform="rotate(90 72.4858 307.486)" fill="#00C7A5" fill-opacity="0.2"/>
<circle cx="95.4859" cy="172.486" r="7.48585" fill="#00C7A5" fill-opacity="0.2"/>
<circle cx="23.4859" cy="97.4859" r="7.48585" fill="#00C7A5" fill-opacity="0.2"/>
<circle cx="111.486" cy="232.486" r="7.48585" fill="#00C7A5" fill-opacity="0.2"/>
<circle cx="191.486" cy="202.486" r="7.48585" fill="#00C7A5" fill-opacity="0.2"/>
<circle cx="167.486" cy="247.486" r="7.48585" fill="#00C7A5" fill-opacity="0.2"/>
<circle cx="113.401" cy="322.486" r="7.48585" transform="rotate(90 113.401 322.486)" fill="#00C7A5" fill-opacity="0.2"/>
<circle cx="199.486" cy="217.486" r="7.48585" fill="#00C7A5" fill-opacity="0.2"/>
<circle cx="7.48585" cy="67.4859" r="7.48585" fill="#00C7A5" fill-opacity="0.2"/>
<circle cx="191.486" cy="112.486" r="7.48585" fill="#00C7A5" fill-opacity="0.2"/>
<circle cx="191.486" cy="82.4859" r="7.48585" fill="#00C7A5" fill-opacity="0.2"/>
<circle cx="23.4859" cy="157.486" r="7.48585" fill="#00C7A5" fill-opacity="0.2"/>
<circle cx="192.486" cy="22.4859" r="7.48585" fill="#00C7A5" fill-opacity="0.2"/>
<circle cx="167.486" cy="217.486" r="7.48585" fill="#00C7A5" fill-opacity="0.2"/>
<circle cx="112.486" cy="292.486" r="7.48585" transform="rotate(-90 112.486 292.486)" fill="#00C7A5" fill-opacity="0.2"/>
<circle cx="111.486" cy="262.486" r="7.48585" fill="#00C7A5" fill-opacity="0.2"/>
<circle cx="47.4859" cy="292.486" r="7.48585" transform="rotate(-90 47.4859 292.486)" fill="#00C7A5" fill-opacity="0.2"/>
<circle cx="207.486" cy="232.486" r="7.48585" fill="#00C7A5" fill-opacity="0.2"/>
<circle cx="31.4859" cy="292.486" r="7.48585" transform="rotate(-90 31.4859 292.486)" fill="#00C7A5" fill-opacity="0.2"/>
<circle cx="167.486" cy="37.4859" r="7.48585" fill="#00C7A5" fill-opacity="0.2"/>
<circle cx="46.4859" cy="172.486" r="7.48585" fill="#00C7A5" fill-opacity="0.2"/>
<circle cx="199.486" cy="67.4859" r="7.48585" fill="#00C7A5" fill-opacity="0.2"/>
<circle cx="47.4859" cy="202.486" r="7.48585" fill="#00C7A5" fill-opacity="0.2"/>
<circle cx="65.4858" cy="322.486" r="7.48585" transform="rotate(90 65.4858 322.486)" fill="#00C7A5" fill-opacity="0.2"/>
<circle cx="167.486" cy="277.486" r="7.48585" transform="rotate(-90 167.486 277.486)" fill="#00C7A5" fill-opacity="0.2"/>
<circle cx="15.4859" cy="232.486" r="7.48585" fill="#00C7A5" fill-opacity="0.2"/>
<circle cx="89.4575" cy="337.486" r="7.48585" transform="rotate(90 89.4575 337.486)" fill="#00C7A5" fill-opacity="0.2"/>
<circle cx="15.4859" cy="81.4859" r="7.48585" fill="#00C7A5" fill-opacity="0.2"/>
<circle cx="87.4859" cy="7.48585" r="7.48585" fill="#00C7A5" fill-opacity="0.2"/>
<circle cx="119.486" cy="7.48585" r="7.48585" fill="#00C7A5" fill-opacity="0.2"/>
<circle cx="79.4859" cy="172.486" r="7.48585" fill="#00C7A5" fill-opacity="0.2"/>
<circle cx="135.486" cy="277.486" r="7.48585" fill="#00C7A5" fill-opacity="0.2"/>
<circle cx="95.4859" cy="232.486" r="7.48585" fill="#00C7A5" fill-opacity="0.2"/>
<circle cx="15.4859" cy="262.486" r="7.48585" fill="#00C7A5" fill-opacity="0.2"/>
<circle cx="127.486" cy="262.486" r="7.48585" fill="#00C7A5" fill-opacity="0.2"/>
<circle cx="192.486" cy="262.486" r="7.48585" fill="#00C7A5" fill-opacity="0.2"/>
<circle cx="183.486" cy="37.4859" r="7.48585" fill="#00C7A5" fill-opacity="0.2"/>
<circle cx="7.48585" cy="246.486" r="7.48585" fill="#00C7A5" fill-opacity="0.2"/>
<circle cx="103.486" cy="7.48585" r="7.48585" fill="#00C7A5" fill-opacity="0.2"/>
<circle cx="199.486" cy="127.486" r="7.48585" fill="#00C7A5" fill-opacity="0.2"/>
<circle cx="135.486" cy="7.48585" r="7.48585" fill="#00C7A5" fill-opacity="0.2"/>
<circle cx="30.4859" cy="172.486" r="7.48585" fill="#00C7A5" fill-opacity="0.2"/>
<circle cx="55.4859" cy="277.486" r="7.48585" fill="#00C7A5" fill-opacity="0.2"/>
<circle cx="63.4859" cy="232.486" r="7.48585" fill="#00C7A5" fill-opacity="0.2"/>
<circle cx="46.4859" cy="22.4859" r="7.48585" fill="#00C7A5" fill-opacity="0.2"/>
<circle cx="39.4859" cy="247.486" r="7.48585" fill="#00C7A5" fill-opacity="0.2"/>
<circle cx="39.4859" cy="277.486" r="7.48585" transform="rotate(-90 39.4859 277.486)" fill="#00C7A5" fill-opacity="0.2"/>
<circle cx="31.4859" cy="262.486" r="7.48585" fill="#00C7A5" fill-opacity="0.2"/>
<circle cx="47.4859" cy="262.486" r="7.48585" fill="#00C7A5" fill-opacity="0.2"/>
<circle cx="135.486" cy="67.4859" r="7.48585" fill="#00C7A5" fill-opacity="0.2"/>
<circle cx="119.486" cy="97.4859" r="7.48585" fill="#00C7A5" fill-opacity="0.2"/>
<circle cx="127.486" cy="82.4859" r="7.48585" fill="#00C7A5" fill-opacity="0.2"/>
<circle cx="127.486" cy="112.486" r="7.48585" fill="#00C7A5" fill-opacity="0.2"/>
<circle cx="135.486" cy="127.486" r="7.48585" fill="#00C7A5" fill-opacity="0.2"/>
<circle cx="127.486" cy="142.486" r="7.48585" fill="#00C7A5" fill-opacity="0.2"/>
<circle cx="135.486" cy="157.486" r="7.48585" fill="#00C7A5" fill-opacity="0.2"/>
<circle cx="63.4859" cy="172.486" r="7.48585" fill="#00C7A5" fill-opacity="0.2"/>
<circle cx="143.486" cy="172.486" r="7.48585" fill="#00C7A5" fill-opacity="0.2"/>
<circle cx="79.4859" cy="232.486" r="7.48585" fill="#00C7A5" fill-opacity="0.2"/>
<circle cx="119.486" cy="217.486" r="7.48585" fill="#00C7A5" fill-opacity="0.2"/>
<circle cx="143.486" cy="262.486" r="7.48585" fill="#00C7A5" fill-opacity="0.2"/>
<circle cx="56.4859" cy="307.486" r="7.48585" transform="rotate(-90 56.4859 307.486)" fill="#00C7A5" fill-opacity="0.2"/>
<circle cx="103.486" cy="247.486" r="7.48585" fill="#00C7A5" fill-opacity="0.2"/>
<circle cx="137.458" cy="337.486" r="7.48585" transform="rotate(90 137.458 337.486)" fill="#00C7A5" fill-opacity="0.2"/>
<circle cx="103.486" cy="37.4859" r="7.48585" fill="#00C7A5" fill-opacity="0.2"/>
<circle cx="135.486" cy="37.4859" r="7.48585" fill="#00C7A5" fill-opacity="0.2"/>
<circle cx="63.4859" cy="22.4859" r="7.48585" fill="#00C7A5" fill-opacity="0.2"/>
<circle cx="103.486" cy="187.486" r="7.48585" fill="#00C7A5" fill-opacity="0.2"/>
<circle cx="95.4859" cy="22.4859" r="7.48585" fill="#00C7A5" fill-opacity="0.2"/>
<circle cx="55.4859" cy="217.486" r="7.48585" fill="#00C7A5" fill-opacity="0.2"/>
<circle cx="127.486" cy="22.4859" r="7.48585" fill="#00C7A5" fill-opacity="0.2"/>
<circle cx="143.486" cy="22.4859" r="7.48585" fill="#00C7A5" fill-opacity="0.2"/>
<circle cx="47.4859" cy="232.486" r="7.48585" fill="#00C7A5" fill-opacity="0.2"/>
<circle cx="104.429" cy="307.486" r="7.48585" transform="rotate(90 104.429 307.486)" fill="#00C7A5" fill-opacity="0.2"/>
<circle cx="119.486" cy="67.4859" r="7.48585" fill="#00C7A5" fill-opacity="0.2"/>
<circle cx="103.486" cy="97.4859" r="7.48585" fill="#00C7A5" fill-opacity="0.2"/>
<circle cx="111.486" cy="82.4859" r="7.48585" fill="#00C7A5" fill-opacity="0.2"/>
<circle cx="111.486" cy="112.486" r="7.48585" fill="#00C7A5" fill-opacity="0.2"/>
<circle cx="119.486" cy="127.486" r="7.48585" fill="#00C7A5" fill-opacity="0.2"/>
<circle cx="111.486" cy="142.486" r="7.48585" fill="#00C7A5" fill-opacity="0.2"/>
<circle cx="119.486" cy="157.486" r="7.48585" fill="#00C7A5" fill-opacity="0.2"/>
<circle cx="47.4859" cy="52.4859" r="7.48585" fill="#00C7A5" fill-opacity="0.2"/>
<circle cx="95.4859" cy="52.4859" r="7.48585" fill="#00C7A5" fill-opacity="0.2"/>
<circle cx="167.486" cy="187.486" r="7.48585" fill="#00C7A5" fill-opacity="0.2"/>
<circle cx="127.486" cy="52.4859" r="7.48585" fill="#00C7A5" fill-opacity="0.2"/>
<circle cx="103.486" cy="217.486" r="7.48585" fill="#00C7A5" fill-opacity="0.2"/>
<circle cx="159.486" cy="52.4859" r="7.48585" fill="#00C7A5" fill-opacity="0.2"/>
<circle cx="39.4859" cy="217.486" r="7.48585" fill="#00C7A5" fill-opacity="0.2"/>
<circle cx="97.4292" cy="322.486" r="7.48585" transform="rotate(90 97.4292 322.486)" fill="#00C7A5" fill-opacity="0.2"/>
<circle cx="71.4859" cy="37.4859" r="7.48585" fill="#00C7A5" fill-opacity="0.2"/>
<circle cx="39.4859" cy="37.4859" r="7.48585" fill="#00C7A5" fill-opacity="0.2"/>
<circle cx="119.486" cy="37.4859" r="7.48585" fill="#00C7A5" fill-opacity="0.2"/>
<circle cx="151.486" cy="37.4859" r="7.48585" fill="#00C7A5" fill-opacity="0.2"/>
<circle cx="207.486" cy="112.486" r="7.48585" fill="#00C7A5" fill-opacity="0.2"/>
<circle cx="79.4859" cy="22.4859" r="7.48585" fill="#00C7A5" fill-opacity="0.2"/>
<circle cx="111.486" cy="202.486" r="7.48585" fill="#00C7A5" fill-opacity="0.2"/>
<circle cx="111.486" cy="22.4859" r="7.48585" fill="#00C7A5" fill-opacity="0.2"/>
<circle cx="143.486" cy="232.486" r="7.48585" fill="#00C7A5" fill-opacity="0.2"/>
<circle cx="31.4859" cy="52.4859" r="7.48585" fill="#00C7A5" fill-opacity="0.2"/>
<circle cx="159.486" cy="22.4859" r="7.48585" fill="#00C7A5" fill-opacity="0.2"/>
<circle cx="175.486" cy="22.4859" r="7.48585" fill="#00C7A5" fill-opacity="0.2"/>
<circle cx="191.486" cy="232.486" r="7.48585" fill="#00C7A5" fill-opacity="0.2"/>
<circle cx="121.486" cy="337.486" r="7.48585" transform="rotate(90 121.486 337.486)" fill="#00C7A5" fill-opacity="0.2"/>
<circle cx="79.4859" cy="52.4859" r="7.48585" fill="#00C7A5" fill-opacity="0.2"/>
<circle cx="63.4859" cy="52.4859" r="7.48585" fill="#00C7A5" fill-opacity="0.2"/>
<circle cx="111.486" cy="52.4859" r="7.48585" fill="#6CBAFA"/>
<circle cx="87.4859" cy="187.486" r="7.48585" fill="#00C7A5" fill-opacity="0.2"/>
<circle cx="143.486" cy="52.4859" r="7.48585" fill="#00C7A5" fill-opacity="0.2"/>
<circle cx="184.288" cy="307.486" r="7.48585" transform="rotate(90 184.288 307.486)" fill="#00C7A5" fill-opacity="0.2"/>
<circle cx="175.486" cy="52.4859" r="7.48585" fill="#00C7A5" fill-opacity="0.2"/>
<circle cx="183.486" cy="277.486" r="7.48585" transform="rotate(-90 183.486 277.486)" fill="#00C7A5" fill-opacity="0.2"/>
<circle cx="71.4859" cy="277.486" r="7.48585" fill="#00C7A5" fill-opacity="0.2"/>
<circle cx="87.4859" cy="37.4859" r="7.48585" fill="#00C7A5" fill-opacity="0.2"/>
<circle cx="55.4859" cy="37.4859" r="7.48585" fill="#00C7A5" fill-opacity="0.2"/>
<circle cx="191.486" cy="142.486" r="7.48585" fill="#00C7A5" fill-opacity="0.2"/>
<circle cx="55.4859" cy="187.486" r="7.48585" fill="#00C7A5" fill-opacity="0.2"/>
<circle cx="71.4859" cy="187.486" r="7.48585" fill="#00C7A5" fill-opacity="0.2"/>
<circle cx="159.486" cy="232.486" r="7.48585" fill="#00C7A5" fill-opacity="0.2"/>
<circle cx="7.48585" cy="96.4859" r="7.48585" fill="#00C7A5" fill-opacity="0.2"/>
<circle cx="95.4859" cy="262.486" r="7.48585" fill="#00C7A5" fill-opacity="0.2"/>
<circle cx="103.486" cy="277.486" r="7.48585" fill="#00C7A5" fill-opacity="0.2"/>
<circle cx="144.486" cy="292.486" r="7.48585" transform="rotate(-90 144.486 292.486)" fill="#00C7A5" fill-opacity="0.2"/>
<circle cx="87.4859" cy="277.486" r="7.48585" fill="#00C7A5" fill-opacity="0.2"/>
<circle cx="55.4859" cy="67.4859" r="7.48585" fill="#00C7A5" fill-opacity="0.2"/>
<circle cx="39.4859" cy="97.4859" r="7.48585" fill="#00C7A5" fill-opacity="0.2"/>
<circle cx="47.4859" cy="82.4859" r="7.48585" fill="#00C7A5" fill-opacity="0.2"/>
<circle cx="47.4859" cy="112.486" r="7.48585" fill="#00C7A5" fill-opacity="0.2"/>
<circle cx="55.4859" cy="127.486" r="7.48585" fill="#00C7A5" fill-opacity="0.2"/>
<circle cx="47.4859" cy="142.486" r="7.48585" fill="#00C7A5" fill-opacity="0.2"/>
<circle cx="55.4859" cy="157.486" r="7.48585" fill="#00C7A5" fill-opacity="0.2"/>
<circle cx="151.486" cy="67.4859" r="7.48585" fill="#00C7A5" fill-opacity="0.2"/>
<circle cx="135.486" cy="97.4859" r="7.48585" fill="#00C7A5" fill-opacity="0.2"/>
<circle cx="143.486" cy="82.4859" r="7.48585" fill="#00C7A5" fill-opacity="0.2"/>
<circle cx="143.486" cy="112.486" r="7.48585" fill="#00C7A5" fill-opacity="0.2"/>
<circle cx="151.486" cy="127.486" r="7.48585" fill="#00C7A5" fill-opacity="0.2"/>
<circle cx="143.486" cy="142.486" r="7.48585" fill="#00C7A5" fill-opacity="0.2"/>
<circle cx="151.486" cy="157.486" r="7.48585" fill="#00C7A5" fill-opacity="0.2"/>
<circle cx="31.4859" cy="82.4859" r="7.48585" fill="#00C7A5" fill-opacity="0.2"/>
<circle cx="23.4859" cy="246.486" r="7.48585" fill="#00C7A5" fill-opacity="0.2"/>
<circle cx="159.486" cy="172.486" r="7.48585" fill="#00C7A5" fill-opacity="0.2"/>
<circle cx="127.486" cy="172.486" r="7.48585" fill="#00C7A5" fill-opacity="0.2"/>
<circle cx="135.486" cy="217.486" r="7.48585" fill="#00C7A5" fill-opacity="0.2"/>
<circle cx="175.486" cy="232.486" r="7.48585" fill="#00C7A5" fill-opacity="0.2"/>
<circle cx="119.486" cy="277.486" r="7.48585" fill="#00C7A5" fill-opacity="0.2"/>
<circle cx="119.486" cy="247.486" r="7.48585" fill="#00C7A5" fill-opacity="0.2"/>
<circle cx="128.486" cy="292.486" r="7.48585" transform="rotate(-90 128.486 292.486)" fill="#00C7A5" fill-opacity="0.2"/>
<circle cx="71.4859" cy="67.4859" r="7.48585" fill="#00C7A5" fill-opacity="0.2"/>
<circle cx="55.4859" cy="97.4859" r="7.48585" fill="#00C7A5" fill-opacity="0.2"/>
<circle cx="63.4859" cy="82.4859" r="7.48585" fill="#00C7A5" fill-opacity="0.2"/>
<circle cx="63.4859" cy="112.486" r="7.48585" fill="#00C7A5" fill-opacity="0.2"/>
<circle cx="71.4859" cy="127.486" r="7.48585" fill="#00C7A5" fill-opacity="0.2"/>
<circle cx="63.4859" cy="142.486" r="7.48585" fill="#00C7A5" fill-opacity="0.2"/>
<circle cx="71.4859" cy="157.486" r="7.48585" fill="#00C7A5" fill-opacity="0.2"/>
<circle cx="167.486" cy="67.4859" r="7.48585" fill="#00C7A5" fill-opacity="0.2"/>
<circle cx="151.486" cy="97.4859" r="7.48585" fill="#00C7A5" fill-opacity="0.2"/>
<circle cx="159.486" cy="82.4859" r="7.48585" fill="#00C7A5" fill-opacity="0.2"/>
<circle cx="159.486" cy="112.486" r="7.48585" fill="#00C7A5" fill-opacity="0.2"/>
<circle cx="167.486" cy="127.486" r="7.48585" fill="#00C7A5" fill-opacity="0.2"/>
<circle cx="159.486" cy="142.486" r="7.48585" fill="#00C7A5" fill-opacity="0.2"/>
<circle cx="167.486" cy="157.486" r="7.48585" fill="#00C7A5" fill-opacity="0.2"/>
<circle cx="207.486" cy="142.486" r="7.48585" fill="#00C7A5" fill-opacity="0.2"/>
<circle cx="175.486" cy="172.486" r="7.48585" fill="#00C7A5" fill-opacity="0.2"/>
<circle cx="63.4859" cy="202.486" r="7.48585" fill="#00C7A5" fill-opacity="0.2"/>
<circle cx="151.486" cy="217.486" r="7.48585" fill="#00C7A5" fill-opacity="0.2"/>
<circle cx="87.4859" cy="247.486" r="7.48585" fill="#00C7A5" fill-opacity="0.2"/>
<circle cx="40.4859" cy="307.486" r="7.48585" transform="rotate(-90 40.4859 307.486)" fill="#00C7A5" fill-opacity="0.2"/>
<circle cx="55.4859" cy="247.486" r="7.48585" fill="#00C7A5" fill-opacity="0.2"/>
<circle cx="88.4575" cy="307.486" r="7.48585" transform="rotate(90 88.4575 307.486)" fill="#00C7A5" fill-opacity="0.2"/>
<circle cx="87.4859" cy="67.4859" r="7.48585" fill="#00C7A5" fill-opacity="0.2"/>
<circle cx="71.4859" cy="97.4859" r="7.48585" fill="#00C7A5" fill-opacity="0.2"/>
<circle cx="79.4859" cy="82.4859" r="7.48585" fill="#00C7A5" fill-opacity="0.2"/>
<circle cx="79.4859" cy="112.486" r="7.48585" fill="#00C7A5" fill-opacity="0.2"/>
<circle cx="87.4859" cy="127.486" r="7.48585" fill="#00C7A5" fill-opacity="0.2"/>
<circle cx="79.4859" cy="142.486" r="7.48585" fill="#00C7A5" fill-opacity="0.2"/>
<circle cx="87.4859" cy="157.486" r="7.48585" fill="#00C7A5" fill-opacity="0.2"/>
<circle cx="183.486" cy="67.4859" r="7.48585" fill="#00C7A5" fill-opacity="0.2"/>
<circle cx="167.486" cy="97.4859" r="7.48585" fill="#00C7A5" fill-opacity="0.2"/>
<circle cx="175.486" cy="82.4859" r="7.48585" fill="#00C7A5" fill-opacity="0.2"/>
<circle cx="175.486" cy="112.486" r="7.48585" fill="#00C7A5" fill-opacity="0.2"/>
<circle cx="183.486" cy="127.486" r="7.48585" fill="#00C7A5" fill-opacity="0.2"/>
<circle cx="175.486" cy="142.486" r="7.48585" fill="#00C7A5" fill-opacity="0.2"/>
<circle cx="183.486" cy="157.486" r="7.48585" fill="#00C7A5" fill-opacity="0.2"/>
<circle cx="199.486" cy="157.486" r="7.48585" fill="#00C7A5" fill-opacity="0.2"/>
<circle cx="207.486" cy="82.4859" r="7.48585" fill="#00C7A5" fill-opacity="0.2"/>
<circle cx="71.4859" cy="217.486" r="7.48585" fill="#00C7A5" fill-opacity="0.2"/>
<circle cx="175.486" cy="202.486" r="7.48585" fill="#00C7A5" fill-opacity="0.2"/>
<circle cx="207.486" cy="202.486" r="7.48585" fill="#00C7A5" fill-opacity="0.2"/>
<circle cx="199.486" cy="277.486" r="7.48585" transform="rotate(-90 199.486 277.486)" fill="#00C7A5" fill-opacity="0.2"/>
<circle cx="135.486" cy="247.486" r="7.48585" fill="#00C7A5" fill-opacity="0.2"/>
<circle cx="199.486" cy="37.4859" r="7.48585" fill="#00C7A5" fill-opacity="0.2"/>
</svg>
