<svg width="222" height="198" viewBox="0 0 222 198" fill="none" xmlns="http://www.w3.org/2000/svg">
<rect y="94" width="222" height="104" fill="white" fill-opacity="0.3"/>
<path d="M26.835 19H24.3652V9.18262L21.1309 10.3428V8.21582L26.7031 6.20312H26.835V19ZM35.2373 15.0713L34.1299 16.0996V19H31.6865V5.5H34.1299V13.2168L34.8682 12.373L37.4961 9.49023H40.4316L36.8457 13.4541L40.9326 19H37.9355L35.2373 15.0713ZM42.2246 14.1748C42.2246 13.4541 42.3125 12.7949 42.4883 12.1973C42.6699 11.5996 42.9277 11.0869 43.2617 10.6592C43.5957 10.2314 44 9.90039 44.4746 9.66602C44.9492 9.43164 45.4854 9.31445 46.083 9.31445C46.6396 9.31445 47.1172 9.4082 47.5156 9.5957C47.9141 9.7832 48.2539 10.0498 48.5352 10.3955L48.6318 9.49023H50.8555V18.6924C50.8555 19.3369 50.7441 19.9111 50.5215 20.415C50.3047 20.9189 49.9971 21.3438 49.5986 21.6895C49.2061 22.0352 48.7314 22.2959 48.1748 22.4717C47.624 22.6533 47.0146 22.7441 46.3467 22.7441C46.0596 22.7441 45.752 22.7148 45.4238 22.6562C45.0957 22.5977 44.7705 22.5068 44.4482 22.3838C44.126 22.2607 43.8213 22.1025 43.5342 21.9092C43.2471 21.7217 43.001 21.4961 42.7959 21.2324L43.8945 19.7471C44.2051 20.0986 44.5566 20.3652 44.9492 20.5469C45.3418 20.7344 45.7666 20.8281 46.2236 20.8281C46.9092 20.8281 47.4424 20.6436 47.8232 20.2744C48.21 19.9111 48.4033 19.3926 48.4033 18.7188V18.1738C48.1162 18.4902 47.7793 18.7363 47.3926 18.9121C47.0117 19.0879 46.5693 19.1758 46.0654 19.1758C45.4736 19.1758 44.9404 19.0557 44.4658 18.8154C43.9971 18.5693 43.5957 18.2324 43.2617 17.8047C42.9277 17.377 42.6699 16.8701 42.4883 16.2842C42.3125 15.6924 42.2246 15.0508 42.2246 14.3594V14.1748ZM44.6768 14.3594C44.6768 14.7578 44.7148 15.1299 44.791 15.4756C44.873 15.8154 44.9961 16.1143 45.1602 16.3721C45.3242 16.624 45.5322 16.8232 45.7842 16.9697C46.0361 17.1162 46.335 17.1895 46.6807 17.1895C47.1084 17.1895 47.46 17.1074 47.7354 16.9434C48.0166 16.7793 48.2393 16.5508 48.4033 16.2578V12.2324C48.2393 11.9336 48.0166 11.7051 47.7354 11.5469C47.46 11.3828 47.1143 11.3008 46.6982 11.3008C46.3525 11.3008 46.0537 11.377 45.8018 11.5293C45.5498 11.6758 45.3389 11.8809 45.1689 12.1445C45.0049 12.4023 44.8818 12.707 44.7998 13.0586C44.7178 13.4043 44.6768 13.7764 44.6768 14.1748V14.3594ZM72.4414 19H69.9805L66.4209 10.7471V19H63.9336V6.20312H66.4209L69.9541 14.4209L69.9629 6.20312H72.4414V19ZM75.5527 9.49023H80.7295V17.0137H83.3047V19H75.5527V17.0137H78.2598V11.4854H75.5527V9.49023ZM78.084 7.05566C78.084 6.86816 78.1162 6.69531 78.1807 6.53711C78.251 6.37305 78.3477 6.23535 78.4707 6.12402C78.5938 6.00684 78.7402 5.91602 78.9102 5.85156C79.0859 5.78711 79.2793 5.75488 79.4902 5.75488C79.9238 5.75488 80.2666 5.87793 80.5186 6.12402C80.7764 6.36426 80.9053 6.6748 80.9053 7.05566C80.9053 7.43652 80.7764 7.75 80.5186 7.99609C80.2666 8.23633 79.9238 8.35645 79.4902 8.35645C79.2793 8.35645 79.0859 8.32422 78.9102 8.25977C78.7402 8.19531 78.5938 8.10742 78.4707 7.99609C78.3477 7.87891 78.251 7.74121 78.1807 7.58301C78.1162 7.41895 78.084 7.24316 78.084 7.05566ZM90.1953 7.16113V9.49023H93.7461V11.292H90.1953V15.3789C90.1953 15.7246 90.2334 16.0146 90.3096 16.249C90.3916 16.4775 90.5059 16.6621 90.6523 16.8027C90.7988 16.9375 90.9746 17.0342 91.1797 17.0928C91.3906 17.1514 91.625 17.1807 91.8828 17.1807C92.0703 17.1807 92.2607 17.1719 92.4541 17.1543C92.6533 17.1367 92.8408 17.1162 93.0166 17.0928C93.1982 17.0635 93.3652 17.0342 93.5176 17.0049C93.6758 16.9756 93.8105 16.9463 93.9219 16.917L94.1592 18.5957C93.9893 18.6953 93.79 18.7832 93.5615 18.8594C93.333 18.9297 93.0898 18.9883 92.832 19.0352C92.5742 19.082 92.3047 19.1172 92.0234 19.1406C91.748 19.1699 91.4756 19.1846 91.2061 19.1846C90.6846 19.1846 90.21 19.1172 89.7822 18.9824C89.3604 18.8418 88.9971 18.6279 88.6924 18.3408C88.3936 18.0479 88.1621 17.6787 87.998 17.2334C87.834 16.7822 87.752 16.2432 87.752 15.6162V11.292H85.5811V9.49023H87.752V7.16113H90.1953ZM103.353 9.31445C103.722 9.31445 104.062 9.34082 104.372 9.39355C104.688 9.44043 104.943 9.49316 105.137 9.55176L104.776 11.9863C104.454 11.9102 104.123 11.8545 103.783 11.8193C103.449 11.7783 103.13 11.7578 102.825 11.7578C102.14 11.7578 101.589 11.8896 101.173 12.1533C100.763 12.417 100.455 12.7949 100.25 13.2871V19H97.8066V9.49023H100.083L100.197 11.0459C100.584 10.5068 101.047 10.085 101.586 9.78027C102.125 9.46973 102.714 9.31445 103.353 9.31445ZM107 14.1572C107 13.4658 107.1 12.8271 107.299 12.2412C107.498 11.6494 107.788 11.1367 108.169 10.7031C108.556 10.2695 109.024 9.92969 109.575 9.68359C110.132 9.4375 110.768 9.31445 111.482 9.31445C112.197 9.31445 112.833 9.4375 113.39 9.68359C113.946 9.92969 114.415 10.2695 114.796 10.7031C115.183 11.1367 115.476 11.6494 115.675 12.2412C115.874 12.8271 115.974 13.4658 115.974 14.1572V14.3418C115.974 15.0391 115.874 15.6836 115.675 16.2754C115.476 16.8613 115.186 17.3711 114.805 17.8047C114.424 18.2383 113.955 18.5781 113.398 18.8242C112.842 19.0645 112.209 19.1846 111.5 19.1846C110.785 19.1846 110.146 19.0645 109.584 18.8242C109.027 18.5781 108.556 18.2383 108.169 17.8047C107.788 17.3711 107.498 16.8613 107.299 16.2754C107.1 15.6836 107 15.0391 107 14.3418V14.1572ZM109.443 14.3418C109.443 14.7402 109.481 15.1152 109.558 15.4668C109.634 15.8125 109.754 16.1172 109.918 16.3809C110.082 16.6387 110.293 16.8438 110.551 16.9961C110.814 17.1484 111.131 17.2246 111.5 17.2246C111.857 17.2246 112.165 17.1484 112.423 16.9961C112.681 16.8438 112.889 16.6387 113.047 16.3809C113.211 16.1172 113.331 15.8125 113.407 15.4668C113.483 15.1152 113.521 14.7402 113.521 14.3418V14.1572C113.521 13.7705 113.483 13.4043 113.407 13.0586C113.331 12.7129 113.211 12.4082 113.047 12.1445C112.889 11.8809 112.681 11.6729 112.423 11.5205C112.165 11.3682 111.852 11.292 111.482 11.292C111.119 11.292 110.809 11.3682 110.551 11.5205C110.293 11.6729 110.082 11.8809 109.918 12.1445C109.754 12.4082 109.634 12.7129 109.558 13.0586C109.481 13.4043 109.443 13.7705 109.443 14.1572V14.3418ZM124.209 17.6641C123.887 18.1387 123.497 18.5107 123.04 18.7803C122.589 19.0498 122.094 19.1846 121.555 19.1846C121.062 19.1846 120.611 19.1084 120.201 18.9561C119.791 18.8037 119.439 18.5635 119.146 18.2354C118.854 17.9014 118.625 17.4795 118.461 16.9697C118.303 16.4541 118.224 15.8359 118.224 15.1152V9.49023H120.667V15.1328C120.667 15.5195 120.693 15.8447 120.746 16.1084C120.805 16.3721 120.896 16.5859 121.019 16.75C121.142 16.9082 121.303 17.0225 121.502 17.0928C121.701 17.1631 121.944 17.1982 122.231 17.1982C122.718 17.1982 123.113 17.1074 123.418 16.9258C123.723 16.7383 123.954 16.4834 124.112 16.1611V9.49023H126.564V19H124.35L124.209 17.6641ZM135.09 16.3896C135.09 16.2432 135.055 16.1143 134.984 16.0029C134.92 15.8916 134.8 15.7891 134.624 15.6953C134.454 15.5957 134.226 15.5049 133.938 15.4229C133.651 15.3408 133.288 15.2588 132.849 15.1768C132.292 15.0654 131.782 14.9277 131.319 14.7637C130.862 14.5938 130.47 14.3916 130.142 14.1572C129.813 13.917 129.556 13.6416 129.368 13.3311C129.187 13.0205 129.096 12.6631 129.096 12.2588C129.096 11.8662 129.189 11.4912 129.377 11.1338C129.564 10.7764 129.834 10.4629 130.186 10.1934C130.537 9.92383 130.965 9.70996 131.469 9.55176C131.973 9.39355 132.541 9.31445 133.174 9.31445C133.836 9.31445 134.431 9.39355 134.958 9.55176C135.485 9.7041 135.931 9.91797 136.294 10.1934C136.663 10.4629 136.944 10.7852 137.138 11.1602C137.331 11.5352 137.428 11.9424 137.428 12.3818H134.984C134.984 12.0127 134.835 11.7051 134.536 11.459C134.237 11.207 133.783 11.0811 133.174 11.0811C132.605 11.0811 132.175 11.1836 131.882 11.3887C131.595 11.5938 131.451 11.8457 131.451 12.1445C131.451 12.2852 131.48 12.417 131.539 12.54C131.598 12.6572 131.7 12.7656 131.847 12.8652C131.999 12.959 132.204 13.0469 132.462 13.1289C132.72 13.2051 133.048 13.2725 133.446 13.3311C134.021 13.4248 134.554 13.5449 135.046 13.6914C135.538 13.8379 135.963 14.0283 136.32 14.2627C136.678 14.4912 136.956 14.7725 137.155 15.1064C137.36 15.4346 137.463 15.8271 137.463 16.2842C137.463 16.7061 137.36 17.0957 137.155 17.4531C136.956 17.8047 136.669 18.1094 136.294 18.3672C135.925 18.625 135.477 18.8271 134.949 18.9736C134.422 19.1143 133.833 19.1846 133.183 19.1846C132.468 19.1846 131.835 19.0908 131.284 18.9033C130.739 18.7158 130.282 18.4727 129.913 18.1738C129.544 17.8691 129.263 17.5264 129.069 17.1455C128.882 16.7588 128.788 16.3721 128.788 15.9854H131.117C131.135 16.2432 131.205 16.4658 131.328 16.6533C131.451 16.835 131.609 16.9844 131.803 17.1016C131.996 17.2129 132.216 17.2949 132.462 17.3477C132.714 17.4004 132.972 17.4268 133.235 17.4268C133.839 17.4268 134.299 17.3301 134.615 17.1367C134.932 16.9434 135.09 16.6943 135.09 16.3896ZM159.418 13.542C159.418 14.3623 159.31 15.1182 159.093 15.8096C158.876 16.501 158.562 17.0957 158.152 17.5938C157.742 18.0918 157.241 18.4814 156.649 18.7627C156.063 19.0381 155.401 19.1758 154.663 19.1758C153.925 19.1758 153.269 19.0381 152.694 18.7627C152.12 18.4814 151.637 18.0918 151.244 17.5938C150.852 17.0898 150.553 16.4951 150.348 15.8096C150.143 15.1182 150.04 14.3623 150.04 13.542V11.6787C150.04 10.8584 150.143 10.1025 150.348 9.41113C150.553 8.71973 150.852 8.125 151.244 7.62695C151.637 7.12305 152.117 6.73047 152.686 6.44922C153.26 6.16797 153.916 6.02734 154.654 6.02734C155.398 6.02734 156.063 6.16797 156.649 6.44922C157.241 6.73047 157.742 7.12305 158.152 7.62695C158.562 8.125 158.876 8.71973 159.093 9.41113C159.31 10.1025 159.418 10.8584 159.418 11.6787V13.542ZM156.913 11.6611C156.913 11.1396 156.869 10.6592 156.781 10.2197C156.699 9.78027 156.567 9.40234 156.386 9.08594C156.204 8.76953 155.97 8.52344 155.683 8.34766C155.401 8.16602 155.059 8.0752 154.654 8.0752C154.256 8.0752 153.922 8.16602 153.652 8.34766C153.383 8.52344 153.166 8.76953 153.002 9.08594C152.838 9.40234 152.721 9.78027 152.65 10.2197C152.58 10.6592 152.545 11.1396 152.545 11.6611V13.542C152.545 14.0576 152.58 14.5352 152.65 14.9746C152.721 15.4141 152.838 15.7949 153.002 16.1172C153.166 16.4395 153.383 16.6914 153.652 16.873C153.922 17.0547 154.259 17.1455 154.663 17.1455C155.062 17.1455 155.401 17.0547 155.683 16.873C155.97 16.6914 156.201 16.4424 156.377 16.126C156.559 15.8037 156.693 15.4229 156.781 14.9834C156.869 14.5439 156.913 14.0635 156.913 13.542V11.6611ZM165.737 12.4609L167.829 9.49023H170.457L167.267 14.1572L170.571 19H167.935L165.746 15.8887L163.575 19H160.93L164.234 14.1572L161.053 9.49023H163.681L165.737 12.4609ZM172.848 9.49023H178.024V17.0137H180.6V19H172.848V17.0137H175.555V11.4854H172.848V9.49023ZM175.379 7.05566C175.379 6.86816 175.411 6.69531 175.476 6.53711C175.546 6.37305 175.643 6.23535 175.766 6.12402C175.889 6.00684 176.035 5.91602 176.205 5.85156C176.381 5.78711 176.574 5.75488 176.785 5.75488C177.219 5.75488 177.562 5.87793 177.813 6.12402C178.071 6.36426 178.2 6.6748 178.2 7.05566C178.2 7.43652 178.071 7.75 177.813 7.99609C177.562 8.23633 177.219 8.35645 176.785 8.35645C176.574 8.35645 176.381 8.32422 176.205 8.25977C176.035 8.19531 175.889 8.10742 175.766 7.99609C175.643 7.87891 175.546 7.74121 175.476 7.58301C175.411 7.41895 175.379 7.24316 175.379 7.05566ZM182.753 14.1748C182.753 13.4541 182.835 12.7949 182.999 12.1973C183.169 11.5996 183.415 11.0869 183.737 10.6592C184.06 10.2314 184.449 9.90039 184.906 9.66602C185.369 9.43164 185.896 9.31445 186.488 9.31445C186.986 9.31445 187.423 9.40527 187.798 9.58691C188.179 9.7627 188.516 10.0146 188.809 10.3428V5.5H191.261V19H189.055L188.932 18.0068C188.633 18.376 188.281 18.6631 187.877 18.8682C187.473 19.0732 187.004 19.1758 186.471 19.1758C185.891 19.1758 185.369 19.0557 184.906 18.8154C184.449 18.5693 184.06 18.2324 183.737 17.8047C183.421 17.377 183.178 16.8701 183.008 16.2842C182.838 15.6924 182.753 15.0508 182.753 14.3594V14.1748ZM185.196 14.3594C185.196 14.7578 185.229 15.1299 185.293 15.4756C185.363 15.8154 185.475 16.1143 185.627 16.3721C185.779 16.624 185.976 16.8232 186.216 16.9697C186.456 17.1162 186.749 17.1895 187.095 17.1895C187.517 17.1895 187.865 17.0986 188.141 16.917C188.422 16.7354 188.645 16.4863 188.809 16.1699V12.3203C188.645 11.998 188.425 11.749 188.149 11.5732C187.874 11.3916 187.528 11.3008 187.112 11.3008C186.767 11.3008 186.471 11.377 186.225 11.5293C185.984 11.6758 185.788 11.8809 185.636 12.1445C185.483 12.4023 185.372 12.707 185.302 13.0586C185.231 13.4043 185.196 13.7764 185.196 14.1748V14.3594ZM198.433 19.1758C197.7 19.1758 197.035 19.0557 196.438 18.8154C195.84 18.5752 195.327 18.25 194.899 17.8398C194.472 17.4238 194.141 16.9375 193.906 16.3809C193.678 15.8184 193.563 15.2178 193.563 14.5791V14.2275C193.563 13.501 193.678 12.8389 193.906 12.2412C194.135 11.6377 194.454 11.1191 194.864 10.6855C195.274 10.252 195.761 9.91504 196.323 9.6748C196.886 9.43457 197.498 9.31445 198.16 9.31445C198.846 9.31445 199.455 9.42871 199.988 9.65723C200.527 9.87988 200.981 10.1963 201.351 10.6064C201.726 11.0166 202.01 11.5117 202.203 12.0918C202.396 12.666 202.493 13.3018 202.493 13.999V15.0361H196.042C196.089 15.3584 196.183 15.6543 196.323 15.9238C196.47 16.1875 196.654 16.416 196.877 16.6094C197.1 16.8027 197.354 16.9521 197.642 17.0576C197.929 17.1631 198.242 17.2158 198.582 17.2158C198.822 17.2158 199.06 17.1924 199.294 17.1455C199.534 17.0986 199.763 17.0312 199.979 16.9434C200.196 16.8496 200.398 16.7354 200.586 16.6006C200.773 16.4658 200.938 16.3076 201.078 16.126L202.3 17.4443C202.147 17.6611 201.948 17.875 201.702 18.0859C201.462 18.291 201.175 18.4756 200.841 18.6396C200.513 18.7979 200.146 18.9268 199.742 19.0264C199.338 19.126 198.901 19.1758 198.433 19.1758ZM198.143 11.292C197.867 11.292 197.615 11.3418 197.387 11.4414C197.158 11.5352 196.956 11.6729 196.78 11.8545C196.61 12.0361 196.467 12.2529 196.35 12.5049C196.232 12.7568 196.145 13.0381 196.086 13.3486H200.094V13.1553C200.082 12.8975 200.032 12.6543 199.944 12.4258C199.856 12.1973 199.73 12.001 199.566 11.8369C199.402 11.667 199.2 11.5352 198.96 11.4414C198.726 11.3418 198.453 11.292 198.143 11.292Z" fill="#6CBAFA"/>
<circle cx="111.485" cy="146.485" r="7.485" fill="#6CBAFA"/>
<circle cx="112" cy="146" r="23.5" stroke="#6CBAFA" stroke-opacity="0.3" stroke-width="3"/>
<circle cx="112" cy="146" r="30.5" stroke="#6CBAFA" stroke-opacity="0.2" stroke-width="3"/>
<circle cx="112" cy="146" r="37.5" stroke="#6CBAFA" stroke-opacity="0.1" stroke-width="3"/>
</svg>
