<svg width="222" height="149" viewBox="0 0 222 149" fill="none" xmlns="http://www.w3.org/2000/svg">
<rect y="44" width="222" height="105" fill="white" fill-opacity="0.3"/>
<circle cx="111.486" cy="96.4859" r="7.48585" fill="#6CBAFA"/>
<circle cx="111" cy="96" r="23.5" stroke="#6CBAFA" stroke-opacity="0.3" stroke-width="3"/>
<circle cx="111" cy="96" r="30.5" stroke="#6CBAFA" stroke-opacity="0.2" stroke-width="3"/>
<circle cx="111" cy="96" r="37.5" stroke="#6CBAFA" stroke-opacity="0.1" stroke-width="3"/>
<path d="M26.335 19H23.8652V9.18262L20.6309 10.3428V8.21582L26.2031 6.20312H26.335V19ZM34.7373 15.0713L33.6299 16.0996V19H31.1865V5.5H33.6299V13.2168L34.3682 12.373L36.9961 9.49023H39.9316L36.3457 13.4541L40.4326 19H37.4355L34.7373 15.0713ZM41.7246 14.1748C41.7246 13.4541 41.8125 12.7949 41.9883 12.1973C42.1699 11.5996 42.4277 11.0869 42.7617 10.6592C43.0957 10.2314 43.5 9.90039 43.9746 9.66602C44.4492 9.43164 44.9854 9.31445 45.583 9.31445C46.1396 9.31445 46.6172 9.4082 47.0156 9.5957C47.4141 9.7832 47.7539 10.0498 48.0352 10.3955L48.1318 9.49023H50.3555V18.6924C50.3555 19.3369 50.2441 19.9111 50.0215 20.415C49.8047 20.9189 49.4971 21.3438 49.0986 21.6895C48.7061 22.0352 48.2314 22.2959 47.6748 22.4717C47.124 22.6533 46.5146 22.7441 45.8467 22.7441C45.5596 22.7441 45.252 22.7148 44.9238 22.6562C44.5957 22.5977 44.2705 22.5068 43.9482 22.3838C43.626 22.2607 43.3213 22.1025 43.0342 21.9092C42.7471 21.7217 42.501 21.4961 42.2959 21.2324L43.3945 19.7471C43.7051 20.0986 44.0566 20.3652 44.4492 20.5469C44.8418 20.7344 45.2666 20.8281 45.7236 20.8281C46.4092 20.8281 46.9424 20.6436 47.3232 20.2744C47.71 19.9111 47.9033 19.3926 47.9033 18.7188V18.1738C47.6162 18.4902 47.2793 18.7363 46.8926 18.9121C46.5117 19.0879 46.0693 19.1758 45.5654 19.1758C44.9736 19.1758 44.4404 19.0557 43.9658 18.8154C43.4971 18.5693 43.0957 18.2324 42.7617 17.8047C42.4277 17.377 42.1699 16.8701 41.9883 16.2842C41.8125 15.6924 41.7246 15.0508 41.7246 14.3594V14.1748ZM44.1768 14.3594C44.1768 14.7578 44.2148 15.1299 44.291 15.4756C44.373 15.8154 44.4961 16.1143 44.6602 16.3721C44.8242 16.624 45.0322 16.8232 45.2842 16.9697C45.5361 17.1162 45.835 17.1895 46.1807 17.1895C46.6084 17.1895 46.96 17.1074 47.2354 16.9434C47.5166 16.7793 47.7393 16.5508 47.9033 16.2578V12.2324C47.7393 11.9336 47.5166 11.7051 47.2354 11.5469C46.96 11.3828 46.6143 11.3008 46.1982 11.3008C45.8525 11.3008 45.5537 11.377 45.3018 11.5293C45.0498 11.6758 44.8389 11.8809 44.6689 12.1445C44.5049 12.4023 44.3818 12.707 44.2998 13.0586C44.2178 13.4043 44.1768 13.7764 44.1768 14.1748V14.3594ZM71.9414 19H69.4805L65.9209 10.7471V19H63.4336V6.20312H65.9209L69.4541 14.4209L69.4629 6.20312H71.9414V19ZM75.0527 9.49023H80.2295V17.0137H82.8047V19H75.0527V17.0137H77.7598V11.4854H75.0527V9.49023ZM77.584 7.05566C77.584 6.86816 77.6162 6.69531 77.6807 6.53711C77.751 6.37305 77.8477 6.23535 77.9707 6.12402C78.0938 6.00684 78.2402 5.91602 78.4102 5.85156C78.5859 5.78711 78.7793 5.75488 78.9902 5.75488C79.4238 5.75488 79.7666 5.87793 80.0186 6.12402C80.2764 6.36426 80.4053 6.6748 80.4053 7.05566C80.4053 7.43652 80.2764 7.75 80.0186 7.99609C79.7666 8.23633 79.4238 8.35645 78.9902 8.35645C78.7793 8.35645 78.5859 8.32422 78.4102 8.25977C78.2402 8.19531 78.0938 8.10742 77.9707 7.99609C77.8477 7.87891 77.751 7.74121 77.6807 7.58301C77.6162 7.41895 77.584 7.24316 77.584 7.05566ZM89.6953 7.16113V9.49023H93.2461V11.292H89.6953V15.3789C89.6953 15.7246 89.7334 16.0146 89.8096 16.249C89.8916 16.4775 90.0059 16.6621 90.1523 16.8027C90.2988 16.9375 90.4746 17.0342 90.6797 17.0928C90.8906 17.1514 91.125 17.1807 91.3828 17.1807C91.5703 17.1807 91.7607 17.1719 91.9541 17.1543C92.1533 17.1367 92.3408 17.1162 92.5166 17.0928C92.6982 17.0635 92.8652 17.0342 93.0176 17.0049C93.1758 16.9756 93.3105 16.9463 93.4219 16.917L93.6592 18.5957C93.4893 18.6953 93.29 18.7832 93.0615 18.8594C92.833 18.9297 92.5898 18.9883 92.332 19.0352C92.0742 19.082 91.8047 19.1172 91.5234 19.1406C91.248 19.1699 90.9756 19.1846 90.7061 19.1846C90.1846 19.1846 89.71 19.1172 89.2822 18.9824C88.8604 18.8418 88.4971 18.6279 88.1924 18.3408C87.8936 18.0479 87.6621 17.6787 87.498 17.2334C87.334 16.7822 87.252 16.2432 87.252 15.6162V11.292H85.0811V9.49023H87.252V7.16113H89.6953ZM102.853 9.31445C103.222 9.31445 103.562 9.34082 103.872 9.39355C104.188 9.44043 104.443 9.49316 104.637 9.55176L104.276 11.9863C103.954 11.9102 103.623 11.8545 103.283 11.8193C102.949 11.7783 102.63 11.7578 102.325 11.7578C101.64 11.7578 101.089 11.8896 100.673 12.1533C100.263 12.417 99.9551 12.7949 99.75 13.2871V19H97.3066V9.49023H99.583L99.6973 11.0459C100.084 10.5068 100.547 10.085 101.086 9.78027C101.625 9.46973 102.214 9.31445 102.853 9.31445ZM106.5 14.1572C106.5 13.4658 106.6 12.8271 106.799 12.2412C106.998 11.6494 107.288 11.1367 107.669 10.7031C108.056 10.2695 108.524 9.92969 109.075 9.68359C109.632 9.4375 110.268 9.31445 110.982 9.31445C111.697 9.31445 112.333 9.4375 112.89 9.68359C113.446 9.92969 113.915 10.2695 114.296 10.7031C114.683 11.1367 114.976 11.6494 115.175 12.2412C115.374 12.8271 115.474 13.4658 115.474 14.1572V14.3418C115.474 15.0391 115.374 15.6836 115.175 16.2754C114.976 16.8613 114.686 17.3711 114.305 17.8047C113.924 18.2383 113.455 18.5781 112.898 18.8242C112.342 19.0645 111.709 19.1846 111 19.1846C110.285 19.1846 109.646 19.0645 109.084 18.8242C108.527 18.5781 108.056 18.2383 107.669 17.8047C107.288 17.3711 106.998 16.8613 106.799 16.2754C106.6 15.6836 106.5 15.0391 106.5 14.3418V14.1572ZM108.943 14.3418C108.943 14.7402 108.981 15.1152 109.058 15.4668C109.134 15.8125 109.254 16.1172 109.418 16.3809C109.582 16.6387 109.793 16.8438 110.051 16.9961C110.314 17.1484 110.631 17.2246 111 17.2246C111.357 17.2246 111.665 17.1484 111.923 16.9961C112.181 16.8438 112.389 16.6387 112.547 16.3809C112.711 16.1172 112.831 15.8125 112.907 15.4668C112.983 15.1152 113.021 14.7402 113.021 14.3418V14.1572C113.021 13.7705 112.983 13.4043 112.907 13.0586C112.831 12.7129 112.711 12.4082 112.547 12.1445C112.389 11.8809 112.181 11.6729 111.923 11.5205C111.665 11.3682 111.352 11.292 110.982 11.292C110.619 11.292 110.309 11.3682 110.051 11.5205C109.793 11.6729 109.582 11.8809 109.418 12.1445C109.254 12.4082 109.134 12.7129 109.058 13.0586C108.981 13.4043 108.943 13.7705 108.943 14.1572V14.3418ZM123.709 17.6641C123.387 18.1387 122.997 18.5107 122.54 18.7803C122.089 19.0498 121.594 19.1846 121.055 19.1846C120.562 19.1846 120.111 19.1084 119.701 18.9561C119.291 18.8037 118.939 18.5635 118.646 18.2354C118.354 17.9014 118.125 17.4795 117.961 16.9697C117.803 16.4541 117.724 15.8359 117.724 15.1152V9.49023H120.167V15.1328C120.167 15.5195 120.193 15.8447 120.246 16.1084C120.305 16.3721 120.396 16.5859 120.519 16.75C120.642 16.9082 120.803 17.0225 121.002 17.0928C121.201 17.1631 121.444 17.1982 121.731 17.1982C122.218 17.1982 122.613 17.1074 122.918 16.9258C123.223 16.7383 123.454 16.4834 123.612 16.1611V9.49023H126.064V19H123.85L123.709 17.6641ZM134.59 16.3896C134.59 16.2432 134.555 16.1143 134.484 16.0029C134.42 15.8916 134.3 15.7891 134.124 15.6953C133.954 15.5957 133.726 15.5049 133.438 15.4229C133.151 15.3408 132.788 15.2588 132.349 15.1768C131.792 15.0654 131.282 14.9277 130.819 14.7637C130.362 14.5938 129.97 14.3916 129.642 14.1572C129.313 13.917 129.056 13.6416 128.868 13.3311C128.687 13.0205 128.596 12.6631 128.596 12.2588C128.596 11.8662 128.689 11.4912 128.877 11.1338C129.064 10.7764 129.334 10.4629 129.686 10.1934C130.037 9.92383 130.465 9.70996 130.969 9.55176C131.473 9.39355 132.041 9.31445 132.674 9.31445C133.336 9.31445 133.931 9.39355 134.458 9.55176C134.985 9.7041 135.431 9.91797 135.794 10.1934C136.163 10.4629 136.444 10.7852 136.638 11.1602C136.831 11.5352 136.928 11.9424 136.928 12.3818H134.484C134.484 12.0127 134.335 11.7051 134.036 11.459C133.737 11.207 133.283 11.0811 132.674 11.0811C132.105 11.0811 131.675 11.1836 131.382 11.3887C131.095 11.5938 130.951 11.8457 130.951 12.1445C130.951 12.2852 130.98 12.417 131.039 12.54C131.098 12.6572 131.2 12.7656 131.347 12.8652C131.499 12.959 131.704 13.0469 131.962 13.1289C132.22 13.2051 132.548 13.2725 132.946 13.3311C133.521 13.4248 134.054 13.5449 134.546 13.6914C135.038 13.8379 135.463 14.0283 135.82 14.2627C136.178 14.4912 136.456 14.7725 136.655 15.1064C136.86 15.4346 136.963 15.8271 136.963 16.2842C136.963 16.7061 136.86 17.0957 136.655 17.4531C136.456 17.8047 136.169 18.1094 135.794 18.3672C135.425 18.625 134.977 18.8271 134.449 18.9736C133.922 19.1143 133.333 19.1846 132.683 19.1846C131.968 19.1846 131.335 19.0908 130.784 18.9033C130.239 18.7158 129.782 18.4727 129.413 18.1738C129.044 17.8691 128.763 17.5264 128.569 17.1455C128.382 16.7588 128.288 16.3721 128.288 15.9854H130.617C130.635 16.2432 130.705 16.4658 130.828 16.6533C130.951 16.835 131.109 16.9844 131.303 17.1016C131.496 17.2129 131.716 17.2949 131.962 17.3477C132.214 17.4004 132.472 17.4268 132.735 17.4268C133.339 17.4268 133.799 17.3301 134.115 17.1367C134.432 16.9434 134.59 16.6943 134.59 16.3896ZM158.918 13.542C158.918 14.3623 158.81 15.1182 158.593 15.8096C158.376 16.501 158.062 17.0957 157.652 17.5938C157.242 18.0918 156.741 18.4814 156.149 18.7627C155.563 19.0381 154.901 19.1758 154.163 19.1758C153.425 19.1758 152.769 19.0381 152.194 18.7627C151.62 18.4814 151.137 18.0918 150.744 17.5938C150.352 17.0898 150.053 16.4951 149.848 15.8096C149.643 15.1182 149.54 14.3623 149.54 13.542V11.6787C149.54 10.8584 149.643 10.1025 149.848 9.41113C150.053 8.71973 150.352 8.125 150.744 7.62695C151.137 7.12305 151.617 6.73047 152.186 6.44922C152.76 6.16797 153.416 6.02734 154.154 6.02734C154.898 6.02734 155.563 6.16797 156.149 6.44922C156.741 6.73047 157.242 7.12305 157.652 7.62695C158.062 8.125 158.376 8.71973 158.593 9.41113C158.81 10.1025 158.918 10.8584 158.918 11.6787V13.542ZM156.413 11.6611C156.413 11.1396 156.369 10.6592 156.281 10.2197C156.199 9.78027 156.067 9.40234 155.886 9.08594C155.704 8.76953 155.47 8.52344 155.183 8.34766C154.901 8.16602 154.559 8.0752 154.154 8.0752C153.756 8.0752 153.422 8.16602 153.152 8.34766C152.883 8.52344 152.666 8.76953 152.502 9.08594C152.338 9.40234 152.221 9.78027 152.15 10.2197C152.08 10.6592 152.045 11.1396 152.045 11.6611V13.542C152.045 14.0576 152.08 14.5352 152.15 14.9746C152.221 15.4141 152.338 15.7949 152.502 16.1172C152.666 16.4395 152.883 16.6914 153.152 16.873C153.422 17.0547 153.759 17.1455 154.163 17.1455C154.562 17.1455 154.901 17.0547 155.183 16.873C155.47 16.6914 155.701 16.4424 155.877 16.126C156.059 15.8037 156.193 15.4229 156.281 14.9834C156.369 14.5439 156.413 14.0635 156.413 13.542V11.6611ZM165.237 12.4609L167.329 9.49023H169.957L166.767 14.1572L170.071 19H167.435L165.246 15.8887L163.075 19H160.43L163.734 14.1572L160.553 9.49023H163.181L165.237 12.4609ZM172.348 9.49023H177.524V17.0137H180.1V19H172.348V17.0137H175.055V11.4854H172.348V9.49023ZM174.879 7.05566C174.879 6.86816 174.911 6.69531 174.976 6.53711C175.046 6.37305 175.143 6.23535 175.266 6.12402C175.389 6.00684 175.535 5.91602 175.705 5.85156C175.881 5.78711 176.074 5.75488 176.285 5.75488C176.719 5.75488 177.062 5.87793 177.313 6.12402C177.571 6.36426 177.7 6.6748 177.7 7.05566C177.7 7.43652 177.571 7.75 177.313 7.99609C177.062 8.23633 176.719 8.35645 176.285 8.35645C176.074 8.35645 175.881 8.32422 175.705 8.25977C175.535 8.19531 175.389 8.10742 175.266 7.99609C175.143 7.87891 175.046 7.74121 174.976 7.58301C174.911 7.41895 174.879 7.24316 174.879 7.05566ZM182.253 14.1748C182.253 13.4541 182.335 12.7949 182.499 12.1973C182.669 11.5996 182.915 11.0869 183.237 10.6592C183.56 10.2314 183.949 9.90039 184.406 9.66602C184.869 9.43164 185.396 9.31445 185.988 9.31445C186.486 9.31445 186.923 9.40527 187.298 9.58691C187.679 9.7627 188.016 10.0146 188.309 10.3428V5.5H190.761V19H188.555L188.432 18.0068C188.133 18.376 187.781 18.6631 187.377 18.8682C186.973 19.0732 186.504 19.1758 185.971 19.1758C185.391 19.1758 184.869 19.0557 184.406 18.8154C183.949 18.5693 183.56 18.2324 183.237 17.8047C182.921 17.377 182.678 16.8701 182.508 16.2842C182.338 15.6924 182.253 15.0508 182.253 14.3594V14.1748ZM184.696 14.3594C184.696 14.7578 184.729 15.1299 184.793 15.4756C184.863 15.8154 184.975 16.1143 185.127 16.3721C185.279 16.624 185.476 16.8232 185.716 16.9697C185.956 17.1162 186.249 17.1895 186.595 17.1895C187.017 17.1895 187.365 17.0986 187.641 16.917C187.922 16.7354 188.145 16.4863 188.309 16.1699V12.3203C188.145 11.998 187.925 11.749 187.649 11.5732C187.374 11.3916 187.028 11.3008 186.612 11.3008C186.267 11.3008 185.971 11.377 185.725 11.5293C185.484 11.6758 185.288 11.8809 185.136 12.1445C184.983 12.4023 184.872 12.707 184.802 13.0586C184.731 13.4043 184.696 13.7764 184.696 14.1748V14.3594ZM197.933 19.1758C197.2 19.1758 196.535 19.0557 195.938 18.8154C195.34 18.5752 194.827 18.25 194.399 17.8398C193.972 17.4238 193.641 16.9375 193.406 16.3809C193.178 15.8184 193.063 15.2178 193.063 14.5791V14.2275C193.063 13.501 193.178 12.8389 193.406 12.2412C193.635 11.6377 193.954 11.1191 194.364 10.6855C194.774 10.252 195.261 9.91504 195.823 9.6748C196.386 9.43457 196.998 9.31445 197.66 9.31445C198.346 9.31445 198.955 9.42871 199.488 9.65723C200.027 9.87988 200.481 10.1963 200.851 10.6064C201.226 11.0166 201.51 11.5117 201.703 12.0918C201.896 12.666 201.993 13.3018 201.993 13.999V15.0361H195.542C195.589 15.3584 195.683 15.6543 195.823 15.9238C195.97 16.1875 196.154 16.416 196.377 16.6094C196.6 16.8027 196.854 16.9521 197.142 17.0576C197.429 17.1631 197.742 17.2158 198.082 17.2158C198.322 17.2158 198.56 17.1924 198.794 17.1455C199.034 17.0986 199.263 17.0312 199.479 16.9434C199.696 16.8496 199.898 16.7354 200.086 16.6006C200.273 16.4658 200.438 16.3076 200.578 16.126L201.8 17.4443C201.647 17.6611 201.448 17.875 201.202 18.0859C200.962 18.291 200.675 18.4756 200.341 18.6396C200.013 18.7979 199.646 18.9268 199.242 19.0264C198.838 19.126 198.401 19.1758 197.933 19.1758ZM197.643 11.292C197.367 11.292 197.115 11.3418 196.887 11.4414C196.658 11.5352 196.456 11.6729 196.28 11.8545C196.11 12.0361 195.967 12.2529 195.85 12.5049C195.732 12.7568 195.645 13.0381 195.586 13.3486H199.594V13.1553C199.582 12.8975 199.532 12.6543 199.444 12.4258C199.356 12.1973 199.23 12.001 199.066 11.8369C198.902 11.667 198.7 11.5352 198.46 11.4414C198.226 11.3418 197.953 11.292 197.643 11.292Z" fill="#6CBAFA"/>
</svg>
