<svg width="222" height="439" viewBox="0 0 222 439" fill="none" xmlns="http://www.w3.org/2000/svg">
<rect y="93" width="222" height="345" fill="white" fill-opacity="0.3"/>
<circle cx="151.486" cy="281.486" r="7.48585" fill="#00C7A5" fill-opacity="0.2"/>
<circle cx="119.486" cy="281.486" r="7.48585" fill="#00C7A5" fill-opacity="0.2"/>
<circle cx="15.4859" cy="206.486" r="7.48585" fill="#00C7A5" fill-opacity="0.2"/>
<circle cx="39.4859" cy="281.486" r="7.48585" fill="#00C7A5" fill-opacity="0.2"/>
<circle cx="14.4859" cy="266.486" r="7.48585" fill="#00C7A5" fill-opacity="0.2"/>
<circle cx="79.4859" cy="356.486" r="7.48585" fill="#00C7A5" fill-opacity="0.2"/>
<circle cx="183.486" cy="311.486" r="7.48585" fill="#00C7A5" fill-opacity="0.2"/>
<circle cx="73.4858" cy="431.486" r="7.48585" transform="rotate(90 73.4858 431.486)" fill="#00C7A5" fill-opacity="0.2"/>
<circle cx="39.4859" cy="221.486" r="7.48585" fill="#00C7A5" fill-opacity="0.2"/>
<circle cx="191.486" cy="146.486" r="7.48585" fill="#00C7A5" fill-opacity="0.2"/>
<circle cx="23.4859" cy="161.486" r="7.48585" fill="#00C7A5" fill-opacity="0.2"/>
<circle cx="95.4859" cy="296.486" r="7.48585" fill="#00C7A5" fill-opacity="0.2"/>
<circle cx="15.4859" cy="146.486" r="7.48585" fill="#00C7A5" fill-opacity="0.2"/>
<circle cx="199.486" cy="281.486" r="7.48585" fill="#00C7A5" fill-opacity="0.2"/>
<circle cx="176.486" cy="386.486" r="7.48585" transform="rotate(-90 176.486 386.486)" fill="#00C7A5" fill-opacity="0.2"/>
<circle cx="199.486" cy="341.486" r="7.48585" fill="#00C7A5" fill-opacity="0.2"/>
<circle cx="145.344" cy="416.486" r="7.48585" transform="rotate(90 145.344 416.486)" fill="#00C7A5" fill-opacity="0.2"/>
<circle cx="96.4859" cy="386.486" r="7.48585" fill="#00C7A5" fill-opacity="0.2"/>
<circle cx="23.4859" cy="221.486" r="7.48585" fill="#00C7A5" fill-opacity="0.2"/>
<circle cx="127.486" cy="296.486" r="7.48585" fill="#00C7A5" fill-opacity="0.2"/>
<circle cx="183.486" cy="281.486" r="7.48585" fill="#00C7A5" fill-opacity="0.2"/>
<circle cx="152.344" cy="401.486" r="7.48585" transform="rotate(90 152.344 401.486)" fill="#00C7A5" fill-opacity="0.2"/>
<circle cx="63.4859" cy="356.486" r="7.48585" fill="#00C7A5" fill-opacity="0.2"/>
<circle cx="79.4859" cy="296.486" r="7.48585" fill="#00C7A5" fill-opacity="0.2"/>
<circle cx="120.401" cy="401.486" r="7.48585" transform="rotate(90 120.401 401.486)" fill="#00C7A5" fill-opacity="0.2"/>
<circle cx="159.486" cy="356.486" r="7.48585" fill="#00C7A5" fill-opacity="0.2"/>
<circle cx="31.4859" cy="236.486" r="7.48585" fill="#00C7A5" fill-opacity="0.2"/>
<circle cx="143.486" cy="296.486" r="7.48585" fill="#00C7A5" fill-opacity="0.2"/>
<circle cx="7.48585" cy="251.486" r="7.48585" fill="#00C7A5" fill-opacity="0.2"/>
<circle cx="81.4575" cy="416.486" r="7.48585" transform="rotate(90 81.4575 416.486)" fill="#00C7A5" fill-opacity="0.2"/>
<circle cx="15.4859" cy="296.486" r="7.48585" fill="#00C7A5" fill-opacity="0.2"/>
<circle cx="80.4859" cy="386.486" r="7.48585" fill="#00C7A5" fill-opacity="0.2"/>
<circle cx="136.373" cy="401.486" r="7.48585" transform="rotate(90 136.373 401.486)" fill="#00C7A5" fill-opacity="0.2"/>
<circle cx="151.486" cy="371.486" r="7.48585" fill="#00C7A5" fill-opacity="0.2"/>
<circle cx="111.486" cy="266.486" r="7.48585" fill="#00C7A5" fill-opacity="0.2"/>
<circle cx="135.486" cy="281.486" r="7.48585" fill="#00C7A5" fill-opacity="0.2"/>
<circle cx="127.486" cy="326.486" r="7.48585" fill="#00C7A5" fill-opacity="0.2"/>
<circle cx="207.486" cy="266.486" r="7.48585" fill="#00C7A5" fill-opacity="0.2"/>
<circle cx="31.4859" cy="326.486" r="7.48585" fill="#00C7A5" fill-opacity="0.2"/>
<circle cx="183.486" cy="341.486" r="7.48585" fill="#00C7A5" fill-opacity="0.2"/>
<circle cx="151.486" cy="341.486" r="7.48585" fill="#00C7A5" fill-opacity="0.2"/>
<circle cx="64.4859" cy="386.486" r="7.48585" transform="rotate(-90 64.4859 386.486)" fill="#00C7A5" fill-opacity="0.2"/>
<circle cx="31.4859" cy="206.486" r="7.48585" fill="#00C7A5" fill-opacity="0.2"/>
<circle cx="199.486" cy="191.486" r="7.48585" fill="#00C7A5" fill-opacity="0.2"/>
<circle cx="15.4859" cy="236.486" r="7.48585" fill="#00C7A5" fill-opacity="0.2"/>
<circle cx="207.486" cy="146.486" r="7.48585" fill="#00C7A5" fill-opacity="0.2"/>
<circle cx="7.48585" cy="221.486" r="7.48585" fill="#00C7A5" fill-opacity="0.2"/>
<circle cx="31.4859" cy="296.486" r="7.48585" fill="#00C7A5" fill-opacity="0.2"/>
<circle cx="7.48585" cy="311.486" r="7.48585" fill="#00C7A5" fill-opacity="0.2"/>
<circle cx="160.486" cy="386.486" r="7.48585" transform="rotate(-90 160.486 386.486)" fill="#00C7A5" fill-opacity="0.2"/>
<circle cx="129.486" cy="416.486" r="7.48585" transform="rotate(90 129.486 416.486)" fill="#00C7A5" fill-opacity="0.2"/>
<circle cx="192.486" cy="386.486" r="7.48585" transform="rotate(-90 192.486 386.486)" fill="#00C7A5" fill-opacity="0.2"/>
<circle cx="103.486" cy="161.486" r="7.48585" fill="#00C7A5" fill-opacity="0.2"/>
<circle cx="87.4859" cy="191.486" r="7.48585" fill="#00C7A5" fill-opacity="0.2"/>
<circle cx="95.4859" cy="176.486" r="7.48585" fill="#00C7A5" fill-opacity="0.2"/>
<circle cx="95.4859" cy="206.486" r="7.48585" fill="#00C7A5" fill-opacity="0.2"/>
<circle cx="103.486" cy="221.486" r="7.48585" fill="#00C7A5" fill-opacity="0.2"/>
<circle cx="95.4859" cy="236.486" r="7.48585" fill="#00C7A5" fill-opacity="0.2"/>
<circle cx="103.486" cy="251.486" r="7.48585" fill="#00C7A5" fill-opacity="0.2"/>
<circle cx="151.486" cy="101.486" r="7.48585" fill="#00C7A5" fill-opacity="0.2"/>
<circle cx="191.486" cy="266.486" r="7.48585" fill="#00C7A5" fill-opacity="0.2"/>
<circle cx="39.4859" cy="161.486" r="7.48585" fill="#00C7A5" fill-opacity="0.2"/>
<circle cx="183.486" cy="191.486" r="7.48585" fill="#00C7A5" fill-opacity="0.2"/>
<circle cx="87.4859" cy="311.486" r="7.48585" fill="#00C7A5" fill-opacity="0.2"/>
<circle cx="23.4859" cy="131.486" r="7.48585" fill="#00C7A5" fill-opacity="0.2"/>
<circle cx="71.4859" cy="341.486" r="7.48585" fill="#00C7A5" fill-opacity="0.2"/>
<circle cx="161.486" cy="416.486" r="7.48585" transform="rotate(90 161.486 416.486)" fill="#00C7A5" fill-opacity="0.2"/>
<circle cx="23.4859" cy="311.486" r="7.48585" fill="#00C7A5" fill-opacity="0.2"/>
<circle cx="175.486" cy="356.486" r="7.48585" fill="#00C7A5" fill-opacity="0.2"/>
<circle cx="39.4859" cy="251.486" r="7.48585" fill="#00C7A5" fill-opacity="0.2"/>
<circle cx="159.486" cy="296.486" r="7.48585" fill="#00C7A5" fill-opacity="0.2"/>
<circle cx="23.4859" cy="281.486" r="7.48585" fill="#00C7A5" fill-opacity="0.2"/>
<circle cx="200.259" cy="401.486" r="7.48585" transform="rotate(90 200.259 401.486)" fill="#00C7A5" fill-opacity="0.2"/>
<circle cx="48.4859" cy="416.486" r="7.48585" fill="#00C7A5" fill-opacity="0.2"/>
<circle cx="30.4859" cy="116.486" r="7.48585" fill="#00C7A5" fill-opacity="0.2"/>
<circle cx="168.316" cy="401.486" r="7.48585" transform="rotate(90 168.316 401.486)" fill="#00C7A5" fill-opacity="0.2"/>
<circle cx="72.4858" cy="401.486" r="7.48585" transform="rotate(90 72.4858 401.486)" fill="#00C7A5" fill-opacity="0.2"/>
<circle cx="95.4859" cy="266.486" r="7.48585" fill="#00C7A5" fill-opacity="0.2"/>
<circle cx="23.4859" cy="191.486" r="7.48585" fill="#00C7A5" fill-opacity="0.2"/>
<circle cx="111.486" cy="326.486" r="7.48585" fill="#00C7A5" fill-opacity="0.2"/>
<circle cx="191.486" cy="296.486" r="7.48585" fill="#00C7A5" fill-opacity="0.2"/>
<circle cx="167.486" cy="341.486" r="7.48585" fill="#00C7A5" fill-opacity="0.2"/>
<circle cx="113.401" cy="416.486" r="7.48585" transform="rotate(90 113.401 416.486)" fill="#00C7A5" fill-opacity="0.2"/>
<circle cx="199.486" cy="311.486" r="7.48585" fill="#00C7A5" fill-opacity="0.2"/>
<circle cx="7.48585" cy="161.486" r="7.48585" fill="#00C7A5" fill-opacity="0.2"/>
<circle cx="191.486" cy="206.486" r="7.48585" fill="#00C7A5" fill-opacity="0.2"/>
<circle cx="191.486" cy="176.486" r="7.48585" fill="#00C7A5" fill-opacity="0.2"/>
<circle cx="23.4859" cy="251.486" r="7.48585" fill="#00C7A5" fill-opacity="0.2"/>
<circle cx="192.486" cy="116.486" r="7.48585" fill="#00C7A5" fill-opacity="0.2"/>
<circle cx="167.486" cy="311.486" r="7.48585" fill="#00C7A5" fill-opacity="0.2"/>
<circle cx="112.486" cy="386.486" r="7.48585" transform="rotate(-90 112.486 386.486)" fill="#00C7A5" fill-opacity="0.2"/>
<circle cx="111.486" cy="356.486" r="7.48585" fill="#00C7A5" fill-opacity="0.2"/>
<circle cx="47.4859" cy="386.486" r="7.48585" transform="rotate(-90 47.4859 386.486)" fill="#00C7A5" fill-opacity="0.2"/>
<circle cx="207.486" cy="326.486" r="7.48585" fill="#00C7A5" fill-opacity="0.2"/>
<circle cx="31.4859" cy="386.486" r="7.48585" transform="rotate(-90 31.4859 386.486)" fill="#00C7A5" fill-opacity="0.2"/>
<circle cx="167.486" cy="131.486" r="7.48585" fill="#00C7A5" fill-opacity="0.2"/>
<circle cx="46.4859" cy="266.486" r="7.48585" fill="#00C7A5" fill-opacity="0.2"/>
<circle cx="199.486" cy="161.486" r="7.48585" fill="#00C7A5" fill-opacity="0.2"/>
<circle cx="47.4859" cy="296.486" r="7.48585" fill="#00C7A5" fill-opacity="0.2"/>
<circle cx="65.4858" cy="416.486" r="7.48585" transform="rotate(90 65.4858 416.486)" fill="#00C7A5" fill-opacity="0.2"/>
<circle cx="167.486" cy="371.486" r="7.48585" transform="rotate(-90 167.486 371.486)" fill="#00C7A5" fill-opacity="0.2"/>
<circle cx="15.4859" cy="326.486" r="7.48585" fill="#00C7A5" fill-opacity="0.2"/>
<circle cx="89.4575" cy="431.486" r="7.48585" transform="rotate(90 89.4575 431.486)" fill="#00C7A5" fill-opacity="0.2"/>
<circle cx="15.4859" cy="175.486" r="7.48585" fill="#00C7A5" fill-opacity="0.2"/>
<circle cx="87.4859" cy="101.486" r="7.48585" fill="#00C7A5" fill-opacity="0.2"/>
<circle cx="119.486" cy="101.486" r="7.48585" fill="#00C7A5" fill-opacity="0.2"/>
<circle cx="79.4859" cy="266.486" r="7.48585" fill="#00C7A5" fill-opacity="0.2"/>
<circle cx="135.486" cy="371.486" r="7.48585" fill="#00C7A5" fill-opacity="0.2"/>
<circle cx="95.4859" cy="326.486" r="7.48585" fill="#00C7A5" fill-opacity="0.2"/>
<circle cx="15.4859" cy="356.486" r="7.48585" fill="#00C7A5" fill-opacity="0.2"/>
<circle cx="127.486" cy="356.486" r="7.48585" fill="#00C7A5" fill-opacity="0.2"/>
<circle cx="192.486" cy="356.486" r="7.48585" fill="#00C7A5" fill-opacity="0.2"/>
<circle cx="183.486" cy="131.486" r="7.48585" fill="#00C7A5" fill-opacity="0.2"/>
<circle cx="7.48585" cy="340.486" r="7.48585" fill="#00C7A5" fill-opacity="0.2"/>
<circle cx="103.486" cy="101.486" r="7.48585" fill="#00C7A5" fill-opacity="0.2"/>
<circle cx="199.486" cy="221.486" r="7.48585" fill="#00C7A5" fill-opacity="0.2"/>
<circle cx="135.486" cy="101.486" r="7.48585" fill="#00C7A5" fill-opacity="0.2"/>
<circle cx="30.4859" cy="266.486" r="7.48585" fill="#00C7A5" fill-opacity="0.2"/>
<circle cx="55.4859" cy="371.486" r="7.48585" fill="#00C7A5" fill-opacity="0.2"/>
<circle cx="63.4859" cy="326.486" r="7.48585" fill="#00C7A5" fill-opacity="0.2"/>
<circle cx="46.4859" cy="116.486" r="7.48585" fill="#00C7A5" fill-opacity="0.2"/>
<circle cx="39.4859" cy="341.486" r="7.48585" fill="#00C7A5" fill-opacity="0.2"/>
<circle cx="39.4859" cy="371.486" r="7.48585" transform="rotate(-90 39.4859 371.486)" fill="#00C7A5" fill-opacity="0.2"/>
<circle cx="31.4859" cy="356.486" r="7.48585" fill="#00C7A5" fill-opacity="0.2"/>
<circle cx="47.4859" cy="356.486" r="7.48585" fill="#00C7A5" fill-opacity="0.2"/>
<circle cx="135.486" cy="161.486" r="7.48585" fill="#00C7A5" fill-opacity="0.2"/>
<circle cx="119.486" cy="191.486" r="7.48585" fill="#00C7A5" fill-opacity="0.2"/>
<circle cx="127.486" cy="176.486" r="7.48585" fill="#00C7A5" fill-opacity="0.2"/>
<circle cx="127.486" cy="206.486" r="7.48585" fill="#00C7A5" fill-opacity="0.2"/>
<circle cx="135.486" cy="221.486" r="7.48585" fill="#00C7A5" fill-opacity="0.2"/>
<circle cx="127.486" cy="236.486" r="7.48585" fill="#00C7A5" fill-opacity="0.2"/>
<circle cx="135.486" cy="251.486" r="7.48585" fill="#00C7A5" fill-opacity="0.2"/>
<circle cx="63.4859" cy="266.486" r="7.48585" fill="#00C7A5" fill-opacity="0.2"/>
<circle cx="143.486" cy="266.486" r="7.48585" fill="#00C7A5" fill-opacity="0.2"/>
<circle cx="79.4859" cy="326.486" r="7.48585" fill="#00C7A5" fill-opacity="0.2"/>
<circle cx="119.486" cy="311.486" r="7.48585" fill="#00C7A5" fill-opacity="0.2"/>
<circle cx="143.486" cy="356.486" r="7.48585" fill="#00C7A5" fill-opacity="0.2"/>
<circle cx="56.4859" cy="401.486" r="7.48585" transform="rotate(-90 56.4859 401.486)" fill="#00C7A5" fill-opacity="0.2"/>
<circle cx="103.486" cy="341.486" r="7.48585" fill="#00C7A5" fill-opacity="0.2"/>
<circle cx="137.458" cy="431.486" r="7.48585" transform="rotate(90 137.458 431.486)" fill="#00C7A5" fill-opacity="0.2"/>
<circle cx="103.486" cy="131.486" r="7.48585" fill="#00C7A5" fill-opacity="0.2"/>
<circle cx="135.486" cy="131.486" r="7.48585" fill="#00C7A5" fill-opacity="0.2"/>
<circle cx="63.4859" cy="116.486" r="7.48585" fill="#00C7A5" fill-opacity="0.2"/>
<circle cx="103.486" cy="281.486" r="7.48585" fill="#00C7A5" fill-opacity="0.2"/>
<circle cx="95.4859" cy="116.486" r="7.48585" fill="#00C7A5" fill-opacity="0.2"/>
<circle cx="55.4859" cy="311.486" r="7.48585" fill="#00C7A5" fill-opacity="0.2"/>
<circle cx="127.486" cy="116.486" r="7.48585" fill="#00C7A5" fill-opacity="0.2"/>
<circle cx="143.486" cy="116.486" r="7.48585" fill="#00C7A5" fill-opacity="0.2"/>
<circle cx="47.4859" cy="326.486" r="7.48585" fill="#00C7A5" fill-opacity="0.2"/>
<circle cx="104.429" cy="401.486" r="7.48585" transform="rotate(90 104.429 401.486)" fill="#00C7A5" fill-opacity="0.2"/>
<circle cx="119.486" cy="161.486" r="7.48585" fill="#00C7A5" fill-opacity="0.2"/>
<circle cx="103.486" cy="191.486" r="7.48585" fill="#00C7A5" fill-opacity="0.2"/>
<circle cx="111.486" cy="176.486" r="7.48585" fill="#00C7A5" fill-opacity="0.2"/>
<circle cx="111.486" cy="206.486" r="7.48585" fill="#00C7A5" fill-opacity="0.2"/>
<circle cx="119.486" cy="221.486" r="7.48585" fill="#00C7A5" fill-opacity="0.2"/>
<circle cx="111.486" cy="236.486" r="7.48585" fill="#00C7A5" fill-opacity="0.2"/>
<circle cx="119.486" cy="251.486" r="7.48585" fill="#00C7A5" fill-opacity="0.2"/>
<circle cx="47.4859" cy="146.486" r="7.48585" fill="#00C7A5" fill-opacity="0.2"/>
<circle cx="95.4859" cy="146.486" r="7.48585" fill="#00C7A5" fill-opacity="0.2"/>
<circle cx="167.486" cy="281.486" r="7.48585" fill="#00C7A5" fill-opacity="0.2"/>
<circle cx="127.486" cy="146.486" r="7.48585" fill="#00C7A5" fill-opacity="0.2"/>
<circle cx="103.486" cy="311.486" r="7.48585" fill="#00C7A5" fill-opacity="0.2"/>
<circle cx="159.486" cy="146.486" r="7.48585" fill="#00C7A5" fill-opacity="0.2"/>
<circle cx="39.4859" cy="311.486" r="7.48585" fill="#00C7A5" fill-opacity="0.2"/>
<circle cx="97.4292" cy="416.486" r="7.48585" transform="rotate(90 97.4292 416.486)" fill="#00C7A5" fill-opacity="0.2"/>
<circle cx="71.4859" cy="131.486" r="7.48585" fill="#00C7A5" fill-opacity="0.2"/>
<circle cx="39.4859" cy="131.486" r="7.48585" fill="#00C7A5" fill-opacity="0.2"/>
<circle cx="119.486" cy="131.486" r="7.48585" fill="#00C7A5" fill-opacity="0.2"/>
<circle cx="151.486" cy="131.486" r="7.48585" fill="#00C7A5" fill-opacity="0.2"/>
<circle cx="207.486" cy="206.486" r="7.48585" fill="#00C7A5" fill-opacity="0.2"/>
<circle cx="79.4859" cy="116.486" r="7.48585" fill="#00C7A5" fill-opacity="0.2"/>
<circle cx="111.486" cy="296.486" r="7.48585" fill="#00C7A5" fill-opacity="0.2"/>
<circle cx="111.486" cy="116.486" r="7.48585" fill="#00C7A5" fill-opacity="0.2"/>
<circle cx="143.486" cy="326.486" r="7.48585" fill="#00C7A5" fill-opacity="0.2"/>
<circle cx="31.4859" cy="146.486" r="7.48585" fill="#00C7A5" fill-opacity="0.2"/>
<circle cx="159.486" cy="116.486" r="7.48585" fill="#00C7A5" fill-opacity="0.2"/>
<circle cx="175.486" cy="116.486" r="7.48585" fill="#00C7A5" fill-opacity="0.2"/>
<circle cx="191.486" cy="326.486" r="7.48585" fill="#00C7A5" fill-opacity="0.2"/>
<circle cx="121.486" cy="431.486" r="7.48585" transform="rotate(90 121.486 431.486)" fill="#00C7A5" fill-opacity="0.2"/>
<circle cx="79.4859" cy="146.486" r="7.48585" fill="#00C7A5" fill-opacity="0.2"/>
<circle cx="63.4859" cy="146.486" r="7.48585" fill="#00C7A5" fill-opacity="0.2"/>
<circle cx="111.486" cy="146.486" r="7.48585" fill="#6CBAFA"/>
<circle cx="87.4859" cy="281.486" r="7.48585" fill="#00C7A5" fill-opacity="0.2"/>
<circle cx="143.486" cy="146.486" r="7.48585" fill="#00C7A5" fill-opacity="0.2"/>
<circle cx="184.288" cy="401.486" r="7.48585" transform="rotate(90 184.288 401.486)" fill="#00C7A5" fill-opacity="0.2"/>
<circle cx="175.486" cy="146.486" r="7.48585" fill="#00C7A5" fill-opacity="0.2"/>
<circle cx="183.486" cy="371.486" r="7.48585" transform="rotate(-90 183.486 371.486)" fill="#00C7A5" fill-opacity="0.2"/>
<circle cx="71.4859" cy="371.486" r="7.48585" fill="#00C7A5" fill-opacity="0.2"/>
<circle cx="87.4859" cy="131.486" r="7.48585" fill="#00C7A5" fill-opacity="0.2"/>
<circle cx="55.4859" cy="131.486" r="7.48585" fill="#00C7A5" fill-opacity="0.2"/>
<circle cx="191.486" cy="236.486" r="7.48585" fill="#00C7A5" fill-opacity="0.2"/>
<circle cx="55.4859" cy="281.486" r="7.48585" fill="#00C7A5" fill-opacity="0.2"/>
<circle cx="71.4859" cy="281.486" r="7.48585" fill="#00C7A5" fill-opacity="0.2"/>
<circle cx="159.486" cy="326.486" r="7.48585" fill="#00C7A5" fill-opacity="0.2"/>
<circle cx="7.48585" cy="190.486" r="7.48585" fill="#00C7A5" fill-opacity="0.2"/>
<circle cx="95.4859" cy="356.486" r="7.48585" fill="#00C7A5" fill-opacity="0.2"/>
<circle cx="103.486" cy="371.486" r="7.48585" fill="#00C7A5" fill-opacity="0.2"/>
<circle cx="144.486" cy="386.486" r="7.48585" transform="rotate(-90 144.486 386.486)" fill="#00C7A5" fill-opacity="0.2"/>
<circle cx="87.4859" cy="371.486" r="7.48585" fill="#00C7A5" fill-opacity="0.2"/>
<circle cx="55.4859" cy="161.486" r="7.48585" fill="#00C7A5" fill-opacity="0.2"/>
<circle cx="39.4859" cy="191.486" r="7.48585" fill="#00C7A5" fill-opacity="0.2"/>
<circle cx="47.4859" cy="176.486" r="7.48585" fill="#00C7A5" fill-opacity="0.2"/>
<circle cx="47.4859" cy="206.486" r="7.48585" fill="#00C7A5" fill-opacity="0.2"/>
<circle cx="55.4859" cy="221.486" r="7.48585" fill="#00C7A5" fill-opacity="0.2"/>
<circle cx="47.4859" cy="236.486" r="7.48585" fill="#00C7A5" fill-opacity="0.2"/>
<circle cx="55.4859" cy="251.486" r="7.48585" fill="#00C7A5" fill-opacity="0.2"/>
<circle cx="151.486" cy="161.486" r="7.48585" fill="#00C7A5" fill-opacity="0.2"/>
<circle cx="135.486" cy="191.486" r="7.48585" fill="#00C7A5" fill-opacity="0.2"/>
<circle cx="143.486" cy="176.486" r="7.48585" fill="#00C7A5" fill-opacity="0.2"/>
<circle cx="143.486" cy="206.486" r="7.48585" fill="#00C7A5" fill-opacity="0.2"/>
<circle cx="151.486" cy="221.486" r="7.48585" fill="#00C7A5" fill-opacity="0.2"/>
<circle cx="143.486" cy="236.486" r="7.48585" fill="#00C7A5" fill-opacity="0.2"/>
<circle cx="151.486" cy="251.486" r="7.48585" fill="#00C7A5" fill-opacity="0.2"/>
<circle cx="31.4859" cy="176.486" r="7.48585" fill="#00C7A5" fill-opacity="0.2"/>
<circle cx="23.4859" cy="340.486" r="7.48585" fill="#00C7A5" fill-opacity="0.2"/>
<circle cx="159.486" cy="266.486" r="7.48585" fill="#00C7A5" fill-opacity="0.2"/>
<circle cx="127.486" cy="266.486" r="7.48585" fill="#00C7A5" fill-opacity="0.2"/>
<circle cx="135.486" cy="311.486" r="7.48585" fill="#00C7A5" fill-opacity="0.2"/>
<circle cx="175.486" cy="326.486" r="7.48585" fill="#00C7A5" fill-opacity="0.2"/>
<circle cx="119.486" cy="371.486" r="7.48585" fill="#00C7A5" fill-opacity="0.2"/>
<circle cx="119.486" cy="341.486" r="7.48585" fill="#00C7A5" fill-opacity="0.2"/>
<circle cx="128.486" cy="386.486" r="7.48585" transform="rotate(-90 128.486 386.486)" fill="#00C7A5" fill-opacity="0.2"/>
<circle cx="71.4859" cy="161.486" r="7.48585" fill="#00C7A5" fill-opacity="0.2"/>
<circle cx="55.4859" cy="191.486" r="7.48585" fill="#00C7A5" fill-opacity="0.2"/>
<circle cx="63.4859" cy="176.486" r="7.48585" fill="#00C7A5" fill-opacity="0.2"/>
<circle cx="63.4859" cy="206.486" r="7.48585" fill="#00C7A5" fill-opacity="0.2"/>
<circle cx="71.4859" cy="221.486" r="7.48585" fill="#00C7A5" fill-opacity="0.2"/>
<circle cx="63.4859" cy="236.486" r="7.48585" fill="#00C7A5" fill-opacity="0.2"/>
<circle cx="71.4859" cy="251.486" r="7.48585" fill="#00C7A5" fill-opacity="0.2"/>
<circle cx="167.486" cy="161.486" r="7.48585" fill="#00C7A5" fill-opacity="0.2"/>
<circle cx="151.486" cy="191.486" r="7.48585" fill="#00C7A5" fill-opacity="0.2"/>
<circle cx="159.486" cy="176.486" r="7.48585" fill="#00C7A5" fill-opacity="0.2"/>
<circle cx="159.486" cy="206.486" r="7.48585" fill="#00C7A5" fill-opacity="0.2"/>
<circle cx="167.486" cy="221.486" r="7.48585" fill="#00C7A5" fill-opacity="0.2"/>
<circle cx="159.486" cy="236.486" r="7.48585" fill="#00C7A5" fill-opacity="0.2"/>
<circle cx="167.486" cy="251.486" r="7.48585" fill="#00C7A5" fill-opacity="0.2"/>
<circle cx="207.486" cy="236.486" r="7.48585" fill="#00C7A5" fill-opacity="0.2"/>
<circle cx="175.486" cy="266.486" r="7.48585" fill="#00C7A5" fill-opacity="0.2"/>
<circle cx="63.4859" cy="296.486" r="7.48585" fill="#00C7A5" fill-opacity="0.2"/>
<circle cx="151.486" cy="311.486" r="7.48585" fill="#00C7A5" fill-opacity="0.2"/>
<circle cx="87.4859" cy="341.486" r="7.48585" fill="#00C7A5" fill-opacity="0.2"/>
<circle cx="40.4859" cy="401.486" r="7.48585" transform="rotate(-90 40.4859 401.486)" fill="#00C7A5" fill-opacity="0.2"/>
<circle cx="55.4859" cy="341.486" r="7.48585" fill="#00C7A5" fill-opacity="0.2"/>
<circle cx="88.4575" cy="401.486" r="7.48585" transform="rotate(90 88.4575 401.486)" fill="#00C7A5" fill-opacity="0.2"/>
<circle cx="87.4859" cy="161.486" r="7.48585" fill="#00C7A5" fill-opacity="0.2"/>
<circle cx="71.4859" cy="191.486" r="7.48585" fill="#00C7A5" fill-opacity="0.2"/>
<circle cx="79.4859" cy="176.486" r="7.48585" fill="#00C7A5" fill-opacity="0.2"/>
<circle cx="79.4859" cy="206.486" r="7.48585" fill="#00C7A5" fill-opacity="0.2"/>
<circle cx="87.4859" cy="221.486" r="7.48585" fill="#00C7A5" fill-opacity="0.2"/>
<circle cx="79.4859" cy="236.486" r="7.48585" fill="#00C7A5" fill-opacity="0.2"/>
<circle cx="87.4859" cy="251.486" r="7.48585" fill="#00C7A5" fill-opacity="0.2"/>
<circle cx="183.486" cy="161.486" r="7.48585" fill="#00C7A5" fill-opacity="0.2"/>
<circle cx="167.486" cy="191.486" r="7.48585" fill="#00C7A5" fill-opacity="0.2"/>
<circle cx="175.486" cy="176.486" r="7.48585" fill="#00C7A5" fill-opacity="0.2"/>
<circle cx="175.486" cy="206.486" r="7.48585" fill="#00C7A5" fill-opacity="0.2"/>
<circle cx="183.486" cy="221.486" r="7.48585" fill="#00C7A5" fill-opacity="0.2"/>
<circle cx="175.486" cy="236.486" r="7.48585" fill="#00C7A5" fill-opacity="0.2"/>
<circle cx="183.486" cy="251.486" r="7.48585" fill="#00C7A5" fill-opacity="0.2"/>
<circle cx="199.486" cy="251.486" r="7.48585" fill="#00C7A5" fill-opacity="0.2"/>
<circle cx="207.486" cy="176.486" r="7.48585" fill="#00C7A5" fill-opacity="0.2"/>
<circle cx="71.4859" cy="311.486" r="7.48585" fill="#00C7A5" fill-opacity="0.2"/>
<circle cx="175.486" cy="296.486" r="7.48585" fill="#00C7A5" fill-opacity="0.2"/>
<circle cx="207.486" cy="296.486" r="7.48585" fill="#00C7A5" fill-opacity="0.2"/>
<circle cx="199.486" cy="371.486" r="7.48585" transform="rotate(-90 199.486 371.486)" fill="#00C7A5" fill-opacity="0.2"/>
<circle cx="135.486" cy="341.486" r="7.48585" fill="#00C7A5" fill-opacity="0.2"/>
<circle cx="199.486" cy="131.486" r="7.48585" fill="#00C7A5" fill-opacity="0.2"/>
<path d="M26.835 19H24.3652V9.18262L21.1309 10.3428V8.21582L26.7031 6.20312H26.835V19ZM35.2373 15.0713L34.1299 16.0996V19H31.6865V5.5H34.1299V13.2168L34.8682 12.373L37.4961 9.49023H40.4316L36.8457 13.4541L40.9326 19H37.9355L35.2373 15.0713ZM42.2246 14.1748C42.2246 13.4541 42.3125 12.7949 42.4883 12.1973C42.6699 11.5996 42.9277 11.0869 43.2617 10.6592C43.5957 10.2314 44 9.90039 44.4746 9.66602C44.9492 9.43164 45.4854 9.31445 46.083 9.31445C46.6396 9.31445 47.1172 9.4082 47.5156 9.5957C47.9141 9.7832 48.2539 10.0498 48.5352 10.3955L48.6318 9.49023H50.8555V18.6924C50.8555 19.3369 50.7441 19.9111 50.5215 20.415C50.3047 20.9189 49.9971 21.3438 49.5986 21.6895C49.2061 22.0352 48.7314 22.2959 48.1748 22.4717C47.624 22.6533 47.0146 22.7441 46.3467 22.7441C46.0596 22.7441 45.752 22.7148 45.4238 22.6562C45.0957 22.5977 44.7705 22.5068 44.4482 22.3838C44.126 22.2607 43.8213 22.1025 43.5342 21.9092C43.2471 21.7217 43.001 21.4961 42.7959 21.2324L43.8945 19.7471C44.2051 20.0986 44.5566 20.3652 44.9492 20.5469C45.3418 20.7344 45.7666 20.8281 46.2236 20.8281C46.9092 20.8281 47.4424 20.6436 47.8232 20.2744C48.21 19.9111 48.4033 19.3926 48.4033 18.7188V18.1738C48.1162 18.4902 47.7793 18.7363 47.3926 18.9121C47.0117 19.0879 46.5693 19.1758 46.0654 19.1758C45.4736 19.1758 44.9404 19.0557 44.4658 18.8154C43.9971 18.5693 43.5957 18.2324 43.2617 17.8047C42.9277 17.377 42.6699 16.8701 42.4883 16.2842C42.3125 15.6924 42.2246 15.0508 42.2246 14.3594V14.1748ZM44.6768 14.3594C44.6768 14.7578 44.7148 15.1299 44.791 15.4756C44.873 15.8154 44.9961 16.1143 45.1602 16.3721C45.3242 16.624 45.5322 16.8232 45.7842 16.9697C46.0361 17.1162 46.335 17.1895 46.6807 17.1895C47.1084 17.1895 47.46 17.1074 47.7354 16.9434C48.0166 16.7793 48.2393 16.5508 48.4033 16.2578V12.2324C48.2393 11.9336 48.0166 11.7051 47.7354 11.5469C47.46 11.3828 47.1143 11.3008 46.6982 11.3008C46.3525 11.3008 46.0537 11.377 45.8018 11.5293C45.5498 11.6758 45.3389 11.8809 45.1689 12.1445C45.0049 12.4023 44.8818 12.707 44.7998 13.0586C44.7178 13.4043 44.6768 13.7764 44.6768 14.1748V14.3594ZM72.4414 19H69.9805L66.4209 10.7471V19H63.9336V6.20312H66.4209L69.9541 14.4209L69.9629 6.20312H72.4414V19ZM75.5527 9.49023H80.7295V17.0137H83.3047V19H75.5527V17.0137H78.2598V11.4854H75.5527V9.49023ZM78.084 7.05566C78.084 6.86816 78.1162 6.69531 78.1807 6.53711C78.251 6.37305 78.3477 6.23535 78.4707 6.12402C78.5938 6.00684 78.7402 5.91602 78.9102 5.85156C79.0859 5.78711 79.2793 5.75488 79.4902 5.75488C79.9238 5.75488 80.2666 5.87793 80.5186 6.12402C80.7764 6.36426 80.9053 6.6748 80.9053 7.05566C80.9053 7.43652 80.7764 7.75 80.5186 7.99609C80.2666 8.23633 79.9238 8.35645 79.4902 8.35645C79.2793 8.35645 79.0859 8.32422 78.9102 8.25977C78.7402 8.19531 78.5938 8.10742 78.4707 7.99609C78.3477 7.87891 78.251 7.74121 78.1807 7.58301C78.1162 7.41895 78.084 7.24316 78.084 7.05566ZM90.1953 7.16113V9.49023H93.7461V11.292H90.1953V15.3789C90.1953 15.7246 90.2334 16.0146 90.3096 16.249C90.3916 16.4775 90.5059 16.6621 90.6523 16.8027C90.7988 16.9375 90.9746 17.0342 91.1797 17.0928C91.3906 17.1514 91.625 17.1807 91.8828 17.1807C92.0703 17.1807 92.2607 17.1719 92.4541 17.1543C92.6533 17.1367 92.8408 17.1162 93.0166 17.0928C93.1982 17.0635 93.3652 17.0342 93.5176 17.0049C93.6758 16.9756 93.8105 16.9463 93.9219 16.917L94.1592 18.5957C93.9893 18.6953 93.79 18.7832 93.5615 18.8594C93.333 18.9297 93.0898 18.9883 92.832 19.0352C92.5742 19.082 92.3047 19.1172 92.0234 19.1406C91.748 19.1699 91.4756 19.1846 91.2061 19.1846C90.6846 19.1846 90.21 19.1172 89.7822 18.9824C89.3604 18.8418 88.9971 18.6279 88.6924 18.3408C88.3936 18.0479 88.1621 17.6787 87.998 17.2334C87.834 16.7822 87.752 16.2432 87.752 15.6162V11.292H85.5811V9.49023H87.752V7.16113H90.1953ZM103.353 9.31445C103.722 9.31445 104.062 9.34082 104.372 9.39355C104.688 9.44043 104.943 9.49316 105.137 9.55176L104.776 11.9863C104.454 11.9102 104.123 11.8545 103.783 11.8193C103.449 11.7783 103.13 11.7578 102.825 11.7578C102.14 11.7578 101.589 11.8896 101.173 12.1533C100.763 12.417 100.455 12.7949 100.25 13.2871V19H97.8066V9.49023H100.083L100.197 11.0459C100.584 10.5068 101.047 10.085 101.586 9.78027C102.125 9.46973 102.714 9.31445 103.353 9.31445ZM107 14.1572C107 13.4658 107.1 12.8271 107.299 12.2412C107.498 11.6494 107.788 11.1367 108.169 10.7031C108.556 10.2695 109.024 9.92969 109.575 9.68359C110.132 9.4375 110.768 9.31445 111.482 9.31445C112.197 9.31445 112.833 9.4375 113.39 9.68359C113.946 9.92969 114.415 10.2695 114.796 10.7031C115.183 11.1367 115.476 11.6494 115.675 12.2412C115.874 12.8271 115.974 13.4658 115.974 14.1572V14.3418C115.974 15.0391 115.874 15.6836 115.675 16.2754C115.476 16.8613 115.186 17.3711 114.805 17.8047C114.424 18.2383 113.955 18.5781 113.398 18.8242C112.842 19.0645 112.209 19.1846 111.5 19.1846C110.785 19.1846 110.146 19.0645 109.584 18.8242C109.027 18.5781 108.556 18.2383 108.169 17.8047C107.788 17.3711 107.498 16.8613 107.299 16.2754C107.1 15.6836 107 15.0391 107 14.3418V14.1572ZM109.443 14.3418C109.443 14.7402 109.481 15.1152 109.558 15.4668C109.634 15.8125 109.754 16.1172 109.918 16.3809C110.082 16.6387 110.293 16.8438 110.551 16.9961C110.814 17.1484 111.131 17.2246 111.5 17.2246C111.857 17.2246 112.165 17.1484 112.423 16.9961C112.681 16.8438 112.889 16.6387 113.047 16.3809C113.211 16.1172 113.331 15.8125 113.407 15.4668C113.483 15.1152 113.521 14.7402 113.521 14.3418V14.1572C113.521 13.7705 113.483 13.4043 113.407 13.0586C113.331 12.7129 113.211 12.4082 113.047 12.1445C112.889 11.8809 112.681 11.6729 112.423 11.5205C112.165 11.3682 111.852 11.292 111.482 11.292C111.119 11.292 110.809 11.3682 110.551 11.5205C110.293 11.6729 110.082 11.8809 109.918 12.1445C109.754 12.4082 109.634 12.7129 109.558 13.0586C109.481 13.4043 109.443 13.7705 109.443 14.1572V14.3418ZM124.209 17.6641C123.887 18.1387 123.497 18.5107 123.04 18.7803C122.589 19.0498 122.094 19.1846 121.555 19.1846C121.062 19.1846 120.611 19.1084 120.201 18.9561C119.791 18.8037 119.439 18.5635 119.146 18.2354C118.854 17.9014 118.625 17.4795 118.461 16.9697C118.303 16.4541 118.224 15.8359 118.224 15.1152V9.49023H120.667V15.1328C120.667 15.5195 120.693 15.8447 120.746 16.1084C120.805 16.3721 120.896 16.5859 121.019 16.75C121.142 16.9082 121.303 17.0225 121.502 17.0928C121.701 17.1631 121.944 17.1982 122.231 17.1982C122.718 17.1982 123.113 17.1074 123.418 16.9258C123.723 16.7383 123.954 16.4834 124.112 16.1611V9.49023H126.564V19H124.35L124.209 17.6641ZM135.09 16.3896C135.09 16.2432 135.055 16.1143 134.984 16.0029C134.92 15.8916 134.8 15.7891 134.624 15.6953C134.454 15.5957 134.226 15.5049 133.938 15.4229C133.651 15.3408 133.288 15.2588 132.849 15.1768C132.292 15.0654 131.782 14.9277 131.319 14.7637C130.862 14.5938 130.47 14.3916 130.142 14.1572C129.813 13.917 129.556 13.6416 129.368 13.3311C129.187 13.0205 129.096 12.6631 129.096 12.2588C129.096 11.8662 129.189 11.4912 129.377 11.1338C129.564 10.7764 129.834 10.4629 130.186 10.1934C130.537 9.92383 130.965 9.70996 131.469 9.55176C131.973 9.39355 132.541 9.31445 133.174 9.31445C133.836 9.31445 134.431 9.39355 134.958 9.55176C135.485 9.7041 135.931 9.91797 136.294 10.1934C136.663 10.4629 136.944 10.7852 137.138 11.1602C137.331 11.5352 137.428 11.9424 137.428 12.3818H134.984C134.984 12.0127 134.835 11.7051 134.536 11.459C134.237 11.207 133.783 11.0811 133.174 11.0811C132.605 11.0811 132.175 11.1836 131.882 11.3887C131.595 11.5938 131.451 11.8457 131.451 12.1445C131.451 12.2852 131.48 12.417 131.539 12.54C131.598 12.6572 131.7 12.7656 131.847 12.8652C131.999 12.959 132.204 13.0469 132.462 13.1289C132.72 13.2051 133.048 13.2725 133.446 13.3311C134.021 13.4248 134.554 13.5449 135.046 13.6914C135.538 13.8379 135.963 14.0283 136.32 14.2627C136.678 14.4912 136.956 14.7725 137.155 15.1064C137.36 15.4346 137.463 15.8271 137.463 16.2842C137.463 16.7061 137.36 17.0957 137.155 17.4531C136.956 17.8047 136.669 18.1094 136.294 18.3672C135.925 18.625 135.477 18.8271 134.949 18.9736C134.422 19.1143 133.833 19.1846 133.183 19.1846C132.468 19.1846 131.835 19.0908 131.284 18.9033C130.739 18.7158 130.282 18.4727 129.913 18.1738C129.544 17.8691 129.263 17.5264 129.069 17.1455C128.882 16.7588 128.788 16.3721 128.788 15.9854H131.117C131.135 16.2432 131.205 16.4658 131.328 16.6533C131.451 16.835 131.609 16.9844 131.803 17.1016C131.996 17.2129 132.216 17.2949 132.462 17.3477C132.714 17.4004 132.972 17.4268 133.235 17.4268C133.839 17.4268 134.299 17.3301 134.615 17.1367C134.932 16.9434 135.09 16.6943 135.09 16.3896ZM159.418 13.542C159.418 14.3623 159.31 15.1182 159.093 15.8096C158.876 16.501 158.562 17.0957 158.152 17.5938C157.742 18.0918 157.241 18.4814 156.649 18.7627C156.063 19.0381 155.401 19.1758 154.663 19.1758C153.925 19.1758 153.269 19.0381 152.694 18.7627C152.12 18.4814 151.637 18.0918 151.244 17.5938C150.852 17.0898 150.553 16.4951 150.348 15.8096C150.143 15.1182 150.04 14.3623 150.04 13.542V11.6787C150.04 10.8584 150.143 10.1025 150.348 9.41113C150.553 8.71973 150.852 8.125 151.244 7.62695C151.637 7.12305 152.117 6.73047 152.686 6.44922C153.26 6.16797 153.916 6.02734 154.654 6.02734C155.398 6.02734 156.063 6.16797 156.649 6.44922C157.241 6.73047 157.742 7.12305 158.152 7.62695C158.562 8.125 158.876 8.71973 159.093 9.41113C159.31 10.1025 159.418 10.8584 159.418 11.6787V13.542ZM156.913 11.6611C156.913 11.1396 156.869 10.6592 156.781 10.2197C156.699 9.78027 156.567 9.40234 156.386 9.08594C156.204 8.76953 155.97 8.52344 155.683 8.34766C155.401 8.16602 155.059 8.0752 154.654 8.0752C154.256 8.0752 153.922 8.16602 153.652 8.34766C153.383 8.52344 153.166 8.76953 153.002 9.08594C152.838 9.40234 152.721 9.78027 152.65 10.2197C152.58 10.6592 152.545 11.1396 152.545 11.6611V13.542C152.545 14.0576 152.58 14.5352 152.65 14.9746C152.721 15.4141 152.838 15.7949 153.002 16.1172C153.166 16.4395 153.383 16.6914 153.652 16.873C153.922 17.0547 154.259 17.1455 154.663 17.1455C155.062 17.1455 155.401 17.0547 155.683 16.873C155.97 16.6914 156.201 16.4424 156.377 16.126C156.559 15.8037 156.693 15.4229 156.781 14.9834C156.869 14.5439 156.913 14.0635 156.913 13.542V11.6611ZM165.737 12.4609L167.829 9.49023H170.457L167.267 14.1572L170.571 19H167.935L165.746 15.8887L163.575 19H160.93L164.234 14.1572L161.053 9.49023H163.681L165.737 12.4609ZM172.848 9.49023H178.024V17.0137H180.6V19H172.848V17.0137H175.555V11.4854H172.848V9.49023ZM175.379 7.05566C175.379 6.86816 175.411 6.69531 175.476 6.53711C175.546 6.37305 175.643 6.23535 175.766 6.12402C175.889 6.00684 176.035 5.91602 176.205 5.85156C176.381 5.78711 176.574 5.75488 176.785 5.75488C177.219 5.75488 177.562 5.87793 177.813 6.12402C178.071 6.36426 178.2 6.6748 178.2 7.05566C178.2 7.43652 178.071 7.75 177.813 7.99609C177.562 8.23633 177.219 8.35645 176.785 8.35645C176.574 8.35645 176.381 8.32422 176.205 8.25977C176.035 8.19531 175.889 8.10742 175.766 7.99609C175.643 7.87891 175.546 7.74121 175.476 7.58301C175.411 7.41895 175.379 7.24316 175.379 7.05566ZM182.753 14.1748C182.753 13.4541 182.835 12.7949 182.999 12.1973C183.169 11.5996 183.415 11.0869 183.737 10.6592C184.06 10.2314 184.449 9.90039 184.906 9.66602C185.369 9.43164 185.896 9.31445 186.488 9.31445C186.986 9.31445 187.423 9.40527 187.798 9.58691C188.179 9.7627 188.516 10.0146 188.809 10.3428V5.5H191.261V19H189.055L188.932 18.0068C188.633 18.376 188.281 18.6631 187.877 18.8682C187.473 19.0732 187.004 19.1758 186.471 19.1758C185.891 19.1758 185.369 19.0557 184.906 18.8154C184.449 18.5693 184.06 18.2324 183.737 17.8047C183.421 17.377 183.178 16.8701 183.008 16.2842C182.838 15.6924 182.753 15.0508 182.753 14.3594V14.1748ZM185.196 14.3594C185.196 14.7578 185.229 15.1299 185.293 15.4756C185.363 15.8154 185.475 16.1143 185.627 16.3721C185.779 16.624 185.976 16.8232 186.216 16.9697C186.456 17.1162 186.749 17.1895 187.095 17.1895C187.517 17.1895 187.865 17.0986 188.141 16.917C188.422 16.7354 188.645 16.4863 188.809 16.1699V12.3203C188.645 11.998 188.425 11.749 188.149 11.5732C187.874 11.3916 187.528 11.3008 187.112 11.3008C186.767 11.3008 186.471 11.377 186.225 11.5293C185.984 11.6758 185.788 11.8809 185.636 12.1445C185.483 12.4023 185.372 12.707 185.302 13.0586C185.231 13.4043 185.196 13.7764 185.196 14.1748V14.3594ZM198.433 19.1758C197.7 19.1758 197.035 19.0557 196.438 18.8154C195.84 18.5752 195.327 18.25 194.899 17.8398C194.472 17.4238 194.141 16.9375 193.906 16.3809C193.678 15.8184 193.563 15.2178 193.563 14.5791V14.2275C193.563 13.501 193.678 12.8389 193.906 12.2412C194.135 11.6377 194.454 11.1191 194.864 10.6855C195.274 10.252 195.761 9.91504 196.323 9.6748C196.886 9.43457 197.498 9.31445 198.16 9.31445C198.846 9.31445 199.455 9.42871 199.988 9.65723C200.527 9.87988 200.981 10.1963 201.351 10.6064C201.726 11.0166 202.01 11.5117 202.203 12.0918C202.396 12.666 202.493 13.3018 202.493 13.999V15.0361H196.042C196.089 15.3584 196.183 15.6543 196.323 15.9238C196.47 16.1875 196.654 16.416 196.877 16.6094C197.1 16.8027 197.354 16.9521 197.642 17.0576C197.929 17.1631 198.242 17.2158 198.582 17.2158C198.822 17.2158 199.06 17.1924 199.294 17.1455C199.534 17.0986 199.763 17.0312 199.979 16.9434C200.196 16.8496 200.398 16.7354 200.586 16.6006C200.773 16.4658 200.938 16.3076 201.078 16.126L202.3 17.4443C202.147 17.6611 201.948 17.875 201.702 18.0859C201.462 18.291 201.175 18.4756 200.841 18.6396C200.513 18.7979 200.146 18.9268 199.742 19.0264C199.338 19.126 198.901 19.1758 198.433 19.1758ZM198.143 11.292C197.867 11.292 197.615 11.3418 197.387 11.4414C197.158 11.5352 196.956 11.6729 196.78 11.8545C196.61 12.0361 196.467 12.2529 196.35 12.5049C196.232 12.7568 196.145 13.0381 196.086 13.3486H200.094V13.1553C200.082 12.8975 200.032 12.6543 199.944 12.4258C199.856 12.1973 199.73 12.001 199.566 11.8369C199.402 11.667 199.2 11.5352 198.96 11.4414C198.726 11.3418 198.453 11.292 198.143 11.292Z" fill="#6CBAFA"/>
<path d="M106.851 39.3242H116.141V41.4072H106.851V39.3242ZM106.851 35.3252H116.141V37.3906H106.851V35.3252ZM108.731 34.4639L110.788 29.1641H112.212L114.26 34.4639H112.555L111.509 31.8447L110.489 34.4639H108.731ZM63.6436 68H54.916V66.3301L59.0557 61.8828C59.3779 61.5312 59.6504 61.2119 59.873 60.9248C60.0957 60.6377 60.2744 60.377 60.4092 60.1426C60.5498 59.9023 60.6494 59.6797 60.708 59.4746C60.7725 59.2695 60.8047 59.0703 60.8047 58.877C60.8047 58.5898 60.7637 58.335 60.6816 58.1123C60.5996 57.8896 60.4824 57.7021 60.3301 57.5498C60.1836 57.3916 60.0049 57.2715 59.7939 57.1895C59.5889 57.1074 59.3604 57.0664 59.1084 57.0664C58.4346 57.0664 57.9307 57.2539 57.5967 57.6289C57.2686 58.0039 57.1045 58.5283 57.1045 59.2021H54.6523C54.6523 58.6338 54.7607 58.0977 54.9775 57.5938C55.1943 57.084 55.499 56.6387 55.8916 56.2578C56.29 55.877 56.7676 55.5781 57.3242 55.3613C57.8867 55.1387 58.5078 55.0273 59.1875 55.0273C59.8379 55.0273 60.4121 55.1182 60.9102 55.2998C61.4141 55.4814 61.833 55.7363 62.167 56.0645C62.5068 56.3926 62.7646 56.7881 62.9404 57.251C63.1162 57.708 63.2041 58.2148 63.2041 58.7715C63.2041 59.1934 63.1367 59.5977 63.002 59.9844C62.873 60.3652 62.6855 60.7432 62.4395 61.1182C62.1992 61.4932 61.9092 61.877 61.5693 62.2695C61.2295 62.6562 60.8516 63.0635 60.4355 63.4912L58.0273 66.04H63.6436V68ZM74.1201 58.6045C74.1201 59.2256 73.9619 59.7793 73.6455 60.2656C73.335 60.7461 72.9072 61.1299 72.3623 61.417C72.9834 61.71 73.4756 62.1201 73.8389 62.6475C74.208 63.1748 74.3926 63.793 74.3926 64.502C74.3926 65.1055 74.2812 65.6357 74.0586 66.0928C73.8418 66.5498 73.54 66.9336 73.1533 67.2441C72.7725 67.5488 72.3213 67.7803 71.7998 67.9385C71.2783 68.0967 70.7158 68.1758 70.1123 68.1758C69.5029 68.1758 68.9346 68.0967 68.4072 67.9385C67.8857 67.7803 67.4316 67.5488 67.0449 67.2441C66.6582 66.9336 66.3535 66.5498 66.1309 66.0928C65.9141 65.6357 65.8057 65.1055 65.8057 64.502C65.8057 64.1504 65.8525 63.8193 65.9463 63.5088C66.0459 63.1924 66.1836 62.9053 66.3594 62.6475C66.5352 62.3838 66.7461 62.1494 66.9922 61.9443C67.2441 61.7334 67.5254 61.5547 67.8359 61.4082C67.291 61.127 66.8633 60.7461 66.5527 60.2656C66.2422 59.7793 66.0869 59.2256 66.0869 58.6045C66.0869 58.0244 66.1865 57.5146 66.3857 57.0752C66.585 56.6299 66.8604 56.2549 67.2119 55.9502C67.5693 55.6455 67.9912 55.417 68.4775 55.2646C68.9697 55.1064 69.5059 55.0273 70.0859 55.0273C70.666 55.0273 71.2021 55.1064 71.6943 55.2646C72.1865 55.417 72.6113 55.6455 72.9688 55.9502C73.332 56.2549 73.6133 56.6299 73.8125 57.0752C74.0176 57.5146 74.1201 58.0244 74.1201 58.6045ZM71.9404 64.335C71.9404 64.042 71.8965 63.7783 71.8086 63.5439C71.7207 63.3096 71.5947 63.1104 71.4307 62.9463C71.2725 62.7764 71.0791 62.6475 70.8506 62.5596C70.6279 62.4717 70.376 62.4277 70.0947 62.4277C69.8135 62.4277 69.5586 62.4717 69.3301 62.5596C69.1074 62.6475 68.917 62.7764 68.7588 62.9463C68.6006 63.1104 68.4775 63.3096 68.3896 63.5439C68.3018 63.7783 68.2578 64.042 68.2578 64.335C68.2578 64.9209 68.4248 65.3809 68.7588 65.7148C69.0928 66.0488 69.5439 66.2158 70.1123 66.2158C70.3818 66.2158 70.6279 66.1748 70.8506 66.0928C71.0732 66.0049 71.2637 65.8789 71.4219 65.7148C71.5859 65.5508 71.7119 65.3545 71.7998 65.126C71.8936 64.8916 71.9404 64.6279 71.9404 64.335ZM71.6855 58.7188C71.6855 58.4609 71.6475 58.2266 71.5713 58.0156C71.4951 57.8047 71.3867 57.626 71.2461 57.4795C71.1113 57.3271 70.9443 57.21 70.7451 57.1279C70.5518 57.0459 70.332 57.0049 70.0859 57.0049C69.5879 57.0049 69.2041 57.1572 68.9346 57.4619C68.665 57.7666 68.5303 58.1855 68.5303 58.7188C68.5303 58.9766 68.5654 59.2139 68.6357 59.4307C68.7061 59.6416 68.8086 59.8232 68.9434 59.9756C69.084 60.1279 69.251 60.248 69.4443 60.3359C69.6436 60.418 69.8662 60.459 70.1123 60.459C70.3584 60.459 70.5781 60.418 70.7715 60.3359C70.9648 60.248 71.1289 60.1279 71.2637 59.9756C71.3984 59.8232 71.501 59.6416 71.5713 59.4307C71.6475 59.2139 71.6855 58.9766 71.6855 58.7188ZM78.5762 66.0576C79.2324 66.0576 79.8008 65.9873 80.2812 65.8467C80.7617 65.7061 81.1631 65.5039 81.4854 65.2402C81.8135 64.9707 82.0654 64.6455 82.2412 64.2646C82.4229 63.8779 82.54 63.4414 82.5928 62.9551C82.3467 63.2012 82.0303 63.4121 81.6436 63.5879C81.2568 63.7637 80.7881 63.8516 80.2373 63.8516C79.6279 63.8516 79.0918 63.7402 78.6289 63.5176C78.166 63.2949 77.7764 62.9902 77.46 62.6035C77.1494 62.2168 76.9121 61.7627 76.748 61.2412C76.5898 60.7139 76.5107 60.1484 76.5107 59.5449C76.5107 58.9238 76.6074 58.3408 76.8008 57.7959C77 57.2451 77.2842 56.7646 77.6533 56.3545C78.0225 55.9443 78.4678 55.6221 78.9893 55.3877C79.5166 55.1475 80.1084 55.0273 80.7646 55.0273C81.4326 55.0273 82.0332 55.1562 82.5664 55.4141C83.0996 55.6719 83.5508 56.0322 83.9199 56.4951C84.2949 56.958 84.5791 57.5088 84.7725 58.1475C84.9717 58.7861 85.0713 59.4863 85.0713 60.248V61.0918C85.0713 62.1113 84.9453 63.0488 84.6934 63.9043C84.4414 64.7598 84.0518 65.501 83.5244 66.1279C82.9971 66.749 82.3262 67.2354 81.5117 67.5869C80.6973 67.9326 79.7246 68.1055 78.5938 68.1055H78.4092V66.0576H78.5762ZM80.8174 61.9619C81.04 61.9619 81.2451 61.9297 81.4326 61.8652C81.626 61.8008 81.7988 61.7129 81.9512 61.6016C82.1094 61.4844 82.2441 61.3496 82.3555 61.1973C82.4727 61.0391 82.5664 60.8691 82.6367 60.6875V59.8174C82.6367 59.3486 82.5869 58.9385 82.4873 58.5869C82.3936 58.2354 82.2617 57.9424 82.0918 57.708C81.9219 57.4736 81.7227 57.2979 81.4941 57.1807C81.2656 57.0635 81.0195 57.0049 80.7559 57.0049C80.4688 57.0049 80.2109 57.0752 79.9824 57.2158C79.7598 57.3506 79.5723 57.5352 79.4199 57.7695C79.2676 57.998 79.1504 58.2646 79.0684 58.5693C78.9863 58.8682 78.9453 59.1816 78.9453 59.5098C78.9453 59.8379 78.9834 60.1514 79.0596 60.4502C79.1357 60.749 79.25 61.0098 79.4023 61.2324C79.5605 61.4551 79.7568 61.6338 79.9912 61.7686C80.2256 61.8975 80.501 61.9619 80.8174 61.9619ZM91.2852 64.0713L90.1777 65.0996V68H87.7344V54.5H90.1777V62.2168L90.916 61.373L93.5439 58.4902H96.4795L92.8936 62.4541L96.9805 68H93.9834L91.2852 64.0713ZM98.2725 63.1748C98.2725 62.4541 98.3604 61.7949 98.5361 61.1973C98.7178 60.5996 98.9756 60.0869 99.3096 59.6592C99.6436 59.2314 100.048 58.9004 100.522 58.666C100.997 58.4316 101.533 58.3145 102.131 58.3145C102.688 58.3145 103.165 58.4082 103.563 58.5957C103.962 58.7832 104.302 59.0498 104.583 59.3955L104.68 58.4902H106.903V67.6924C106.903 68.3369 106.792 68.9111 106.569 69.415C106.353 69.9189 106.045 70.3438 105.646 70.6895C105.254 71.0352 104.779 71.2959 104.223 71.4717C103.672 71.6533 103.062 71.7441 102.395 71.7441C102.107 71.7441 101.8 71.7148 101.472 71.6562C101.144 71.5977 100.818 71.5068 100.496 71.3838C100.174 71.2607 99.8691 71.1025 99.582 70.9092C99.2949 70.7217 99.0488 70.4961 98.8438 70.2324L99.9424 68.7471C100.253 69.0986 100.604 69.3652 100.997 69.5469C101.39 69.7344 101.814 69.8281 102.271 69.8281C102.957 69.8281 103.49 69.6436 103.871 69.2744C104.258 68.9111 104.451 68.3926 104.451 67.7188V67.1738C104.164 67.4902 103.827 67.7363 103.44 67.9121C103.06 68.0879 102.617 68.1758 102.113 68.1758C101.521 68.1758 100.988 68.0557 100.514 67.8154C100.045 67.5693 99.6436 67.2324 99.3096 66.8047C98.9756 66.377 98.7178 65.8701 98.5361 65.2842C98.3604 64.6924 98.2725 64.0508 98.2725 63.3594V63.1748ZM100.725 63.3594C100.725 63.7578 100.763 64.1299 100.839 64.4756C100.921 64.8154 101.044 65.1143 101.208 65.3721C101.372 65.624 101.58 65.8232 101.832 65.9697C102.084 66.1162 102.383 66.1895 102.729 66.1895C103.156 66.1895 103.508 66.1074 103.783 65.9434C104.064 65.7793 104.287 65.5508 104.451 65.2578V61.2324C104.287 60.9336 104.064 60.7051 103.783 60.5469C103.508 60.3828 103.162 60.3008 102.746 60.3008C102.4 60.3008 102.102 60.377 101.85 60.5293C101.598 60.6758 101.387 60.8809 101.217 61.1445C101.053 61.4023 100.93 61.707 100.848 62.0586C100.766 62.4043 100.725 62.7764 100.725 63.1748V63.3594ZM128.938 63.9922C128.896 64.6367 128.756 65.2168 128.516 65.7324C128.281 66.248 127.965 66.6875 127.566 67.0508C127.168 67.4141 126.693 67.6953 126.143 67.8945C125.592 68.0879 124.982 68.1846 124.314 68.1846C123.559 68.1846 122.888 68.0469 122.302 67.7715C121.716 67.4902 121.224 67.1006 120.825 66.6025C120.427 66.0986 120.122 65.4951 119.911 64.792C119.7 64.0889 119.595 63.3154 119.595 62.4717V60.749C119.595 59.8994 119.706 59.123 119.929 58.4199C120.151 57.7168 120.468 57.1133 120.878 56.6094C121.288 56.1055 121.783 55.7158 122.363 55.4404C122.949 55.1592 123.605 55.0186 124.332 55.0186C125.035 55.0186 125.659 55.1182 126.204 55.3174C126.755 55.5166 127.224 55.8008 127.61 56.1699C127.997 56.5391 128.302 56.9902 128.524 57.5234C128.747 58.0566 128.888 58.6572 128.946 59.3252H126.485C126.462 58.9443 126.403 58.6104 126.31 58.3232C126.222 58.0361 126.09 57.7988 125.914 57.6113C125.744 57.418 125.527 57.2744 125.264 57.1807C125.006 57.0811 124.695 57.0312 124.332 57.0312C123.951 57.0312 123.62 57.1133 123.339 57.2773C123.058 57.4414 122.823 57.6816 122.636 57.998C122.454 58.3145 122.319 58.7041 122.231 59.167C122.144 59.624 122.1 60.1455 122.1 60.7314V62.4717C122.1 63.7314 122.275 64.6631 122.627 65.2666C122.984 65.8701 123.547 66.1719 124.314 66.1719C124.959 66.1719 125.469 66.002 125.844 65.6621C126.219 65.3164 126.427 64.7598 126.468 63.9922H128.938ZM139.792 62.542C139.792 63.3623 139.684 64.1182 139.467 64.8096C139.25 65.501 138.937 66.0957 138.526 66.5938C138.116 67.0918 137.615 67.4814 137.023 67.7627C136.438 68.0381 135.775 68.1758 135.037 68.1758C134.299 68.1758 133.643 68.0381 133.068 67.7627C132.494 67.4814 132.011 67.0918 131.618 66.5938C131.226 66.0898 130.927 65.4951 130.722 64.8096C130.517 64.1182 130.414 63.3623 130.414 62.542V60.6787C130.414 59.8584 130.517 59.1025 130.722 58.4111C130.927 57.7197 131.226 57.125 131.618 56.627C132.011 56.123 132.491 55.7305 133.06 55.4492C133.634 55.168 134.29 55.0273 135.028 55.0273C135.772 55.0273 136.438 55.168 137.023 55.4492C137.615 55.7305 138.116 56.123 138.526 56.627C138.937 57.125 139.25 57.7197 139.467 58.4111C139.684 59.1025 139.792 59.8584 139.792 60.6787V62.542ZM137.287 60.6611C137.287 60.1396 137.243 59.6592 137.155 59.2197C137.073 58.7803 136.941 58.4023 136.76 58.0859C136.578 57.7695 136.344 57.5234 136.057 57.3477C135.775 57.166 135.433 57.0752 135.028 57.0752C134.63 57.0752 134.296 57.166 134.026 57.3477C133.757 57.5234 133.54 57.7695 133.376 58.0859C133.212 58.4023 133.095 58.7803 133.024 59.2197C132.954 59.6592 132.919 60.1396 132.919 60.6611V62.542C132.919 63.0576 132.954 63.5352 133.024 63.9746C133.095 64.4141 133.212 64.7949 133.376 65.1172C133.54 65.4395 133.757 65.6914 134.026 65.873C134.296 66.0547 134.633 66.1455 135.037 66.1455C135.436 66.1455 135.775 66.0547 136.057 65.873C136.344 65.6914 136.575 65.4424 136.751 65.126C136.933 64.8037 137.067 64.4229 137.155 63.9834C137.243 63.5439 137.287 63.0635 137.287 62.542V60.6611ZM146.695 70.34H141.007V68.864L142.969 66.938C143.509 66.41 143.875 66.008 144.067 65.732C144.271 65.444 144.373 65.144 144.373 64.832C144.373 64.616 144.301 64.448 144.157 64.328C144.025 64.208 143.839 64.148 143.599 64.148C143.131 64.148 142.603 64.406 142.015 64.922L140.935 63.59C141.319 63.254 141.745 62.984 142.213 62.78C142.693 62.564 143.251 62.456 143.887 62.456C144.667 62.456 145.291 62.648 145.759 63.032C146.239 63.404 146.479 63.944 146.479 64.652C146.479 65.192 146.329 65.684 146.029 66.128C145.729 66.572 145.225 67.112 144.517 67.748L143.599 68.576H146.695V70.34ZM153.195 68.1758C152.463 68.1758 151.798 68.0557 151.2 67.8154C150.603 67.5752 150.09 67.25 149.662 66.8398C149.234 66.4238 148.903 65.9375 148.669 65.3809C148.44 64.8184 148.326 64.2178 148.326 63.5791V63.2275C148.326 62.501 148.44 61.8389 148.669 61.2412C148.897 60.6377 149.217 60.1191 149.627 59.6855C150.037 59.252 150.523 58.915 151.086 58.6748C151.648 58.4346 152.261 58.3145 152.923 58.3145C153.608 58.3145 154.218 58.4287 154.751 58.6572C155.29 58.8799 155.744 59.1963 156.113 59.6064C156.488 60.0166 156.772 60.5117 156.966 61.0918C157.159 61.666 157.256 62.3018 157.256 62.999V64.0361H150.805C150.852 64.3584 150.945 64.6543 151.086 64.9238C151.232 65.1875 151.417 65.416 151.64 65.6094C151.862 65.8027 152.117 65.9521 152.404 66.0576C152.691 66.1631 153.005 66.2158 153.345 66.2158C153.585 66.2158 153.822 66.1924 154.057 66.1455C154.297 66.0986 154.525 66.0312 154.742 65.9434C154.959 65.8496 155.161 65.7354 155.349 65.6006C155.536 65.4658 155.7 65.3076 155.841 65.126L157.062 66.4443C156.91 66.6611 156.711 66.875 156.465 67.0859C156.225 67.291 155.938 67.4756 155.604 67.6396C155.275 67.7979 154.909 67.9268 154.505 68.0264C154.101 68.126 153.664 68.1758 153.195 68.1758ZM152.905 60.292C152.63 60.292 152.378 60.3418 152.149 60.4414C151.921 60.5352 151.719 60.6729 151.543 60.8545C151.373 61.0361 151.229 61.2529 151.112 61.5049C150.995 61.7568 150.907 62.0381 150.849 62.3486H154.856V62.1553C154.845 61.8975 154.795 61.6543 154.707 61.4258C154.619 61.1973 154.493 61.001 154.329 60.8369C154.165 60.667 153.963 60.5352 153.723 60.4414C153.488 60.3418 153.216 60.292 152.905 60.292ZM159.146 63.166C159.146 62.4453 159.228 61.7861 159.392 61.1885C159.556 60.5908 159.796 60.0811 160.112 59.6592C160.435 59.2314 160.827 58.9004 161.29 58.666C161.759 58.4316 162.295 58.3145 162.898 58.3145C163.438 58.3145 163.906 58.4141 164.305 58.6133C164.709 58.8125 165.058 59.0938 165.351 59.457L165.5 58.4902H167.653V71.6562H165.201V67.1914C164.914 67.5078 164.58 67.751 164.199 67.9209C163.818 68.0908 163.379 68.1758 162.881 68.1758C162.283 68.1758 161.753 68.0557 161.29 67.8154C160.827 67.5693 160.438 67.2324 160.121 66.8047C159.805 66.3711 159.562 65.8613 159.392 65.2754C159.228 64.6836 159.146 64.042 159.146 63.3506V63.166ZM161.589 63.3506C161.589 63.7432 161.624 64.1123 161.694 64.458C161.765 64.8037 161.876 65.1084 162.028 65.3721C162.181 65.6299 162.377 65.835 162.617 65.9873C162.863 66.1396 163.159 66.2158 163.505 66.2158C163.933 66.2158 164.281 66.1309 164.551 65.9609C164.826 65.791 165.043 65.5566 165.201 65.2578V61.2148C165.043 60.9219 164.826 60.6963 164.551 60.5381C164.281 60.374 163.938 60.292 163.522 60.292C163.177 60.292 162.881 60.3682 162.635 60.5205C162.395 60.667 162.195 60.8691 162.037 61.127C161.885 61.3848 161.771 61.6895 161.694 62.041C161.624 62.3867 161.589 62.7617 161.589 63.166V63.3506Z" fill="#00C7A5"/>
</svg>
