<svg width="222" height="226" viewBox="0 0 222 226" fill="none" xmlns="http://www.w3.org/2000/svg">
<path d="M89.0889 115.969L91.752 110.203H94.6348L90.4336 118.359V123H87.7529V118.359L83.5518 110.203H86.4434L89.0889 115.969ZM103.503 117.454H98.4404V120.882H104.382V123H95.8037V110.203H104.364V112.339H98.4404V115.389H103.503V117.454ZM113.153 120.363H108.53L107.651 123H104.848L109.611 110.203H112.055L116.845 123H114.041L113.153 120.363ZM109.242 118.228H112.441L110.833 113.438L109.242 118.228ZM122.777 118.315H120.677V123H118.04V110.203H122.795C124.307 110.203 125.473 110.54 126.293 111.214C127.113 111.888 127.523 112.84 127.523 114.07C127.523 114.943 127.333 115.673 126.952 116.259C126.577 116.839 126.006 117.302 125.238 117.647L128.007 122.877V123H125.177L122.777 118.315ZM120.677 116.18H122.804C123.466 116.18 123.979 116.013 124.342 115.679C124.705 115.339 124.887 114.873 124.887 114.281C124.887 113.678 124.714 113.203 124.368 112.857C124.028 112.512 123.504 112.339 122.795 112.339H120.677V116.18ZM136.172 119.643C136.172 119.145 135.996 118.764 135.645 118.5C135.293 118.23 134.66 117.949 133.746 117.656C132.832 117.357 132.108 117.064 131.575 116.777C130.122 115.992 129.396 114.935 129.396 113.604C129.396 112.913 129.589 112.298 129.976 111.759C130.368 111.214 130.928 110.789 131.654 110.484C132.387 110.18 133.207 110.027 134.115 110.027C135.029 110.027 135.844 110.194 136.559 110.528C137.273 110.856 137.827 111.322 138.22 111.926C138.618 112.529 138.817 113.215 138.817 113.982H136.181C136.181 113.396 135.996 112.942 135.627 112.62C135.258 112.292 134.739 112.128 134.071 112.128C133.427 112.128 132.926 112.266 132.568 112.541C132.211 112.811 132.032 113.168 132.032 113.613C132.032 114.029 132.24 114.378 132.656 114.659C133.078 114.94 133.696 115.204 134.511 115.45C136.011 115.901 137.104 116.461 137.789 117.129C138.475 117.797 138.817 118.629 138.817 119.625C138.817 120.732 138.398 121.603 137.561 122.235C136.723 122.862 135.595 123.176 134.177 123.176C133.192 123.176 132.296 122.997 131.487 122.64C130.679 122.276 130.061 121.781 129.633 121.154C129.211 120.527 129 119.801 129 118.975H131.646C131.646 120.387 132.489 121.093 134.177 121.093C134.804 121.093 135.293 120.967 135.645 120.715C135.996 120.457 136.172 120.1 136.172 119.643Z" fill="#202020"/>
<path d="M101.281 35.2686C100.789 35.8473 100.067 36.1367 99.1143 36.1367C98.3258 36.1367 97.7243 35.9089 97.3096 35.4531C96.8994 34.9928 96.6921 34.3138 96.6875 33.416V28.6035H97.9521V33.3818C97.9521 34.5029 98.4079 35.0635 99.3193 35.0635C100.285 35.0635 100.928 34.7035 101.247 33.9834V28.6035H102.512V36H101.309L101.281 35.2686ZM110.688 32.3838C110.688 33.5094 110.43 34.4163 109.915 35.1045C109.4 35.7926 108.703 36.1367 107.823 36.1367C106.925 36.1367 106.219 35.8519 105.704 35.2822V38.8438H104.439V28.6035H105.595L105.656 29.4238C106.171 28.7858 106.887 28.4668 107.803 28.4668C108.691 28.4668 109.393 28.8018 109.908 29.4717C110.428 30.1416 110.688 31.0736 110.688 32.2676V32.3838ZM109.423 32.2402C109.423 31.4062 109.245 30.7477 108.89 30.2646C108.534 29.7816 108.047 29.54 107.427 29.54C106.661 29.54 106.087 29.8796 105.704 30.5586V34.0928C106.082 34.7673 106.661 35.1045 107.44 35.1045C108.047 35.1045 108.527 34.8652 108.883 34.3867C109.243 33.9036 109.423 33.1882 109.423 32.2402ZM117.489 26.8125V28.6035H118.87V29.5811H117.489V34.168C117.489 34.4642 117.551 34.6875 117.674 34.8379C117.797 34.9837 118.007 35.0566 118.303 35.0566C118.449 35.0566 118.649 35.0293 118.904 34.9746V36C118.572 36.0911 118.248 36.1367 117.934 36.1367C117.368 36.1367 116.942 35.9658 116.655 35.624C116.368 35.2822 116.225 34.7969 116.225 34.168V29.5811H114.878V28.6035H116.225V26.8125H117.489ZM119.882 32.2334C119.882 31.5088 120.023 30.8571 120.306 30.2783C120.593 29.6995 120.989 29.2529 121.495 28.9385C122.006 28.624 122.587 28.4668 123.238 28.4668C124.245 28.4668 125.059 28.8154 125.679 29.5127C126.303 30.21 126.615 31.1374 126.615 32.2949V32.3838C126.615 33.1038 126.476 33.751 126.198 34.3252C125.925 34.8949 125.531 35.3392 125.016 35.6582C124.505 35.9772 123.917 36.1367 123.252 36.1367C122.249 36.1367 121.436 35.7881 120.812 35.0908C120.192 34.3936 119.882 33.4707 119.882 32.3223V32.2334ZM121.153 32.3838C121.153 33.2041 121.342 33.8626 121.721 34.3594C122.104 34.8561 122.614 35.1045 123.252 35.1045C123.895 35.1045 124.405 34.8538 124.783 34.3525C125.161 33.8467 125.351 33.1403 125.351 32.2334C125.351 31.4222 125.157 30.766 124.77 30.2646C124.387 29.7588 123.876 29.5059 123.238 29.5059C122.614 29.5059 122.11 29.7542 121.728 30.251C121.345 30.7477 121.153 31.4587 121.153 32.3838Z" fill="black"/>
<path d="M80.0127 92H75.2861V69.168L68.3135 71.5508V67.5469L79.4072 63.4648H80.0127V92ZM108.431 80.0273C108.431 84.1159 107.662 87.2018 106.126 89.2852C104.603 91.3555 102.278 92.3906 99.1533 92.3906C96.0804 92.3906 93.7627 91.3815 92.2002 89.3633C90.6507 87.332 89.8564 84.3307 89.8174 80.3594V75.4375C89.8174 71.349 90.5791 68.2826 92.1025 66.2383C93.639 64.194 95.9762 63.1719 99.1143 63.1719C102.226 63.1719 104.544 64.168 106.067 66.1602C107.604 68.1523 108.392 71.1341 108.431 75.1055V80.0273ZM103.685 74.7148C103.685 72.0456 103.32 70.0924 102.591 68.8555C101.862 67.6055 100.703 66.9805 99.1143 66.9805C97.5648 66.9805 96.4255 67.5729 95.6963 68.7578C94.9671 69.9297 94.583 71.7656 94.5439 74.2656V80.7109C94.5439 83.3672 94.915 85.3464 95.6572 86.6484C96.3994 87.9505 97.5648 88.6016 99.1533 88.6016C100.677 88.6016 101.803 88.0026 102.532 86.8047C103.261 85.5938 103.646 83.7057 103.685 81.1406V74.7148ZM131.165 80.0273C131.165 84.1159 130.397 87.2018 128.86 89.2852C127.337 91.3555 125.013 92.3906 121.888 92.3906C118.815 92.3906 116.497 91.3815 114.935 89.3633C113.385 87.332 112.591 84.3307 112.552 80.3594V75.4375C112.552 71.349 113.313 68.2826 114.837 66.2383C116.373 64.194 118.711 63.1719 121.849 63.1719C124.961 63.1719 127.278 64.168 128.802 66.1602C130.338 68.1523 131.126 71.1341 131.165 75.1055V80.0273ZM126.419 74.7148C126.419 72.0456 126.054 70.0924 125.325 68.8555C124.596 67.6055 123.437 66.9805 121.849 66.9805C120.299 66.9805 119.16 67.5729 118.431 68.7578C117.701 69.9297 117.317 71.7656 117.278 74.2656V80.7109C117.278 83.3672 117.649 85.3464 118.392 86.6484C119.134 87.9505 120.299 88.6016 121.888 88.6016C123.411 88.6016 124.537 88.0026 125.267 86.8047C125.996 85.5938 126.38 83.7057 126.419 81.1406V74.7148ZM153.899 80.0273C153.899 84.1159 153.131 87.2018 151.595 89.2852C150.071 91.3555 147.747 92.3906 144.622 92.3906C141.549 92.3906 139.231 91.3815 137.669 89.3633C136.119 87.332 135.325 84.3307 135.286 80.3594V75.4375C135.286 71.349 136.048 68.2826 137.571 66.2383C139.108 64.194 141.445 63.1719 144.583 63.1719C147.695 63.1719 150.013 64.168 151.536 66.1602C153.073 68.1523 153.86 71.1341 153.899 75.1055V80.0273ZM149.153 74.7148C149.153 72.0456 148.789 70.0924 148.06 68.8555C147.33 67.6055 146.172 66.9805 144.583 66.9805C143.034 66.9805 141.894 67.5729 141.165 68.7578C140.436 69.9297 140.052 71.7656 140.013 74.2656V80.7109C140.013 83.3672 140.384 85.3464 141.126 86.6484C141.868 87.9505 143.034 88.6016 144.622 88.6016C146.146 88.6016 147.272 88.0026 148.001 86.8047C148.73 85.5938 149.114 83.7057 149.153 81.1406V74.7148Z" fill="#00C7A5"/>
<path d="M44.1816 147.391C44.041 148.594 43.5957 149.523 42.8457 150.18C42.1009 150.831 41.1087 151.156 39.8691 151.156C38.5254 151.156 37.4473 150.674 36.6348 149.711C35.8275 148.747 35.4238 147.458 35.4238 145.844V144.75C35.4238 143.693 35.6113 142.763 35.9863 141.961C36.3665 141.159 36.903 140.544 37.5957 140.117C38.2884 139.685 39.0905 139.469 40.002 139.469C41.2103 139.469 42.179 139.807 42.9082 140.484C43.6374 141.156 44.0618 142.089 44.1816 143.281H42.6738C42.5436 142.375 42.2598 141.719 41.8223 141.312C41.39 140.906 40.7832 140.703 40.002 140.703C39.0436 140.703 38.291 141.057 37.7441 141.766C37.2025 142.474 36.9316 143.482 36.9316 144.789V145.891C36.9316 147.125 37.1895 148.107 37.7051 148.836C38.2207 149.565 38.9421 149.93 39.8691 149.93C40.7025 149.93 41.3405 149.742 41.7832 149.367C42.2311 148.987 42.528 148.328 42.6738 147.391H44.1816ZM54.9863 145.68C54.9863 146.794 54.7988 147.768 54.4238 148.602C54.0488 149.43 53.5176 150.062 52.8301 150.5C52.1426 150.938 51.3405 151.156 50.4238 151.156C49.528 151.156 48.7337 150.938 48.041 150.5C47.3483 150.057 46.8092 149.43 46.4238 148.617C46.0436 147.799 45.8483 146.854 45.8379 145.781V144.961C45.8379 143.867 46.028 142.901 46.4082 142.062C46.7884 141.224 47.3249 140.583 48.0176 140.141C48.7155 139.693 49.5124 139.469 50.4082 139.469C51.3197 139.469 52.1217 139.69 52.8145 140.133C53.5124 140.57 54.0488 141.208 54.4238 142.047C54.7988 142.88 54.9863 143.852 54.9863 144.961V145.68ZM53.4941 144.945C53.4941 143.596 53.2233 142.562 52.6816 141.844C52.14 141.12 51.3822 140.758 50.4082 140.758C49.4603 140.758 48.7129 141.12 48.166 141.844C47.6243 142.562 47.3457 143.562 47.3301 144.844V145.68C47.3301 146.987 47.6035 148.016 48.1504 148.766C48.7025 149.51 49.4603 149.883 50.4238 149.883C51.3926 149.883 52.1426 149.531 52.6738 148.828C53.2051 148.12 53.4785 147.107 53.4941 145.789V144.945ZM60.812 153.08H56.3V152.216L58.14 150.424C58.5773 150.008 58.9027 149.672 59.116 149.416C59.34 149.149 59.4893 148.915 59.564 148.712C59.6493 148.499 59.692 148.275 59.692 148.04C59.692 147.699 59.5907 147.443 59.388 147.272C59.196 147.101 58.94 147.016 58.62 147.016C58.3 147.016 58.0067 147.08 57.74 147.208C57.484 147.325 57.2173 147.491 56.94 147.704L56.38 146.968C56.6893 146.701 57.0253 146.488 57.388 146.328C57.7613 146.168 58.1773 146.088 58.636 146.088C59.3187 146.088 59.852 146.259 60.236 146.6C60.6307 146.931 60.828 147.389 60.828 147.976C60.828 148.499 60.668 148.968 60.348 149.384C60.0387 149.8 59.5853 150.291 58.988 150.856L57.692 152.088H60.812V153.08ZM68.1426 151H66.6973V142.547H68.1426V151ZM66.5801 140.305C66.5801 140.07 66.6504 139.872 66.791 139.711C66.9368 139.549 67.1504 139.469 67.4316 139.469C67.7129 139.469 67.9264 139.549 68.0723 139.711C68.2181 139.872 68.291 140.07 68.291 140.305C68.291 140.539 68.2181 140.734 68.0723 140.891C67.9264 141.047 67.7129 141.125 67.4316 141.125C67.1504 141.125 66.9368 141.047 66.791 140.891C66.6504 140.734 66.5801 140.539 66.5801 140.305ZM75.3848 148.758C75.3848 148.367 75.2363 148.065 74.9395 147.852C74.6478 147.633 74.1348 147.445 73.4004 147.289C72.6712 147.133 72.0905 146.945 71.6582 146.727C71.2311 146.508 70.9134 146.247 70.7051 145.945C70.502 145.643 70.4004 145.284 70.4004 144.867C70.4004 144.174 70.6921 143.589 71.2754 143.109C71.8639 142.63 72.6139 142.391 73.5254 142.391C74.4837 142.391 75.2598 142.638 75.8535 143.133C76.4525 143.628 76.752 144.26 76.752 145.031H75.2988C75.2988 144.635 75.1296 144.294 74.791 144.008C74.4577 143.721 74.0358 143.578 73.5254 143.578C72.9993 143.578 72.5879 143.693 72.291 143.922C71.9941 144.151 71.8457 144.451 71.8457 144.82C71.8457 145.169 71.9837 145.432 72.2598 145.609C72.5358 145.786 73.0332 145.956 73.752 146.117C74.4759 146.279 75.0618 146.471 75.5098 146.695C75.9577 146.919 76.2884 147.19 76.502 147.508C76.7207 147.82 76.8301 148.203 76.8301 148.656C76.8301 149.411 76.528 150.018 75.9238 150.477C75.3197 150.93 74.5358 151.156 73.5723 151.156C72.8952 151.156 72.2962 151.036 71.7754 150.797C71.2546 150.557 70.8457 150.224 70.5488 149.797C70.2572 149.365 70.1113 148.898 70.1113 148.398H71.5566C71.5827 148.883 71.7754 149.268 72.1348 149.555C72.4993 149.836 72.9785 149.977 73.5723 149.977C74.1191 149.977 74.5566 149.867 74.8848 149.648C75.2181 149.424 75.3848 149.128 75.3848 148.758ZM84.6426 140.5V142.547H86.2207V143.664H84.6426V148.906C84.6426 149.245 84.7129 149.5 84.8535 149.672C84.9941 149.839 85.2337 149.922 85.5723 149.922C85.7389 149.922 85.9681 149.891 86.2598 149.828V151C85.8796 151.104 85.5098 151.156 85.1504 151.156C84.5046 151.156 84.0176 150.961 83.6895 150.57C83.3613 150.18 83.1973 149.625 83.1973 148.906V143.664H81.6582V142.547H83.1973V140.5H84.6426ZM93.1348 151C93.0514 150.833 92.9837 150.536 92.9316 150.109C92.2598 150.807 91.4577 151.156 90.5254 151.156C89.6921 151.156 89.0072 150.922 88.4707 150.453C87.9395 149.979 87.6738 149.38 87.6738 148.656C87.6738 147.776 88.0072 147.094 88.6738 146.609C89.3457 146.12 90.2884 145.875 91.502 145.875H92.9082V145.211C92.9082 144.706 92.7572 144.305 92.4551 144.008C92.153 143.706 91.7077 143.555 91.1191 143.555C90.6035 143.555 90.1712 143.685 89.8223 143.945C89.4733 144.206 89.2988 144.521 89.2988 144.891H87.8457C87.8457 144.469 87.9941 144.062 88.291 143.672C88.5931 143.276 88.9993 142.964 89.5098 142.734C90.0254 142.505 90.5905 142.391 91.2051 142.391C92.179 142.391 92.9421 142.635 93.4941 143.125C94.0462 143.609 94.3327 144.279 94.3535 145.133V149.023C94.3535 149.799 94.4525 150.417 94.6504 150.875V151H93.1348ZM90.7363 149.898C91.1895 149.898 91.6191 149.781 92.0254 149.547C92.4316 149.312 92.7259 149.008 92.9082 148.633V146.898H91.7754C90.0046 146.898 89.1191 147.417 89.1191 148.453C89.1191 148.906 89.2702 149.26 89.5723 149.516C89.8743 149.771 90.2624 149.898 90.7363 149.898ZM98.9785 147.086L98.0723 148.031V151H96.627V139H98.0723V146.258L98.8457 145.328L101.479 142.547H103.236L99.9473 146.078L103.619 151H101.924L98.9785 147.086ZM108.08 151.156C106.934 151.156 106.002 150.781 105.283 150.031C104.564 149.276 104.205 148.268 104.205 147.008V146.742C104.205 145.904 104.364 145.156 104.682 144.5C105.005 143.839 105.452 143.323 106.025 142.953C106.604 142.578 107.229 142.391 107.9 142.391C108.999 142.391 109.854 142.753 110.463 143.477C111.072 144.201 111.377 145.237 111.377 146.586V147.188H105.65C105.671 148.021 105.913 148.695 106.377 149.211C106.846 149.721 107.439 149.977 108.158 149.977C108.669 149.977 109.101 149.872 109.455 149.664C109.809 149.456 110.119 149.18 110.385 148.836L111.268 149.523C110.559 150.612 109.497 151.156 108.08 151.156ZM107.9 143.578C107.317 143.578 106.827 143.792 106.432 144.219C106.036 144.641 105.791 145.234 105.697 146H109.932V145.891C109.89 145.156 109.692 144.589 109.338 144.188C108.984 143.781 108.505 143.578 107.9 143.578ZM114.424 142.547L114.471 143.609C115.117 142.797 115.96 142.391 117.002 142.391C118.788 142.391 119.689 143.398 119.705 145.414V151H118.26V145.406C118.255 144.797 118.114 144.346 117.838 144.055C117.567 143.763 117.143 143.617 116.564 143.617C116.096 143.617 115.684 143.742 115.33 143.992C114.976 144.242 114.7 144.57 114.502 144.977V151H113.057V142.547H114.424ZM131.072 150.164C130.51 150.826 129.684 151.156 128.596 151.156C127.695 151.156 127.007 150.896 126.533 150.375C126.064 149.849 125.827 149.073 125.822 148.047V142.547H127.268V148.008C127.268 149.289 127.788 149.93 128.83 149.93C129.934 149.93 130.669 149.518 131.033 148.695V142.547H132.479V151H131.104L131.072 150.164ZM141.822 146.867C141.822 148.154 141.528 149.19 140.939 149.977C140.351 150.763 139.554 151.156 138.549 151.156C137.523 151.156 136.715 150.831 136.127 150.18V154.25H134.682V142.547H136.002L136.072 143.484C136.661 142.755 137.479 142.391 138.525 142.391C139.541 142.391 140.343 142.773 140.932 143.539C141.525 144.305 141.822 145.37 141.822 146.734V146.867ZM140.377 146.703C140.377 145.75 140.174 144.997 139.768 144.445C139.361 143.893 138.804 143.617 138.096 143.617C137.221 143.617 136.564 144.005 136.127 144.781V148.82C136.559 149.591 137.221 149.977 138.111 149.977C138.804 149.977 139.354 149.703 139.76 149.156C140.171 148.604 140.377 147.786 140.377 146.703ZM154.791 146.867C154.791 148.159 154.494 149.198 153.9 149.984C153.307 150.766 152.51 151.156 151.51 151.156C150.442 151.156 149.617 150.779 149.033 150.023L148.963 151H147.635V139H149.08V143.477C149.663 142.753 150.468 142.391 151.494 142.391C152.52 142.391 153.325 142.779 153.908 143.555C154.497 144.331 154.791 145.393 154.791 146.742V146.867ZM153.346 146.703C153.346 145.719 153.156 144.958 152.775 144.422C152.395 143.885 151.848 143.617 151.135 143.617C150.182 143.617 149.497 144.06 149.08 144.945V148.602C149.523 149.487 150.213 149.93 151.15 149.93C151.843 149.93 152.382 149.661 152.768 149.125C153.153 148.589 153.346 147.781 153.346 146.703ZM159.291 148.883L161.26 142.547H162.807L159.408 152.305C158.882 153.711 158.046 154.414 156.9 154.414L156.627 154.391L156.088 154.289V153.117L156.479 153.148C156.968 153.148 157.348 153.049 157.619 152.852C157.895 152.654 158.122 152.292 158.299 151.766L158.619 150.906L155.604 142.547H157.182L159.291 148.883ZM170.033 140.5V142.547H171.611V143.664H170.033V148.906C170.033 149.245 170.104 149.5 170.244 149.672C170.385 149.839 170.624 149.922 170.963 149.922C171.13 149.922 171.359 149.891 171.65 149.828V151C171.27 151.104 170.9 151.156 170.541 151.156C169.895 151.156 169.408 150.961 169.08 150.57C168.752 150.18 168.588 149.625 168.588 148.906V143.664H167.049V142.547H168.588V140.5H170.033ZM174.752 143.57C175.393 142.784 176.226 142.391 177.252 142.391C179.038 142.391 179.939 143.398 179.955 145.414V151H178.51V145.406C178.505 144.797 178.364 144.346 178.088 144.055C177.817 143.763 177.393 143.617 176.814 143.617C176.346 143.617 175.934 143.742 175.58 143.992C175.226 144.242 174.95 144.57 174.752 144.977V151H173.307V139H174.752V143.57ZM185.627 151.156C184.481 151.156 183.549 150.781 182.83 150.031C182.111 149.276 181.752 148.268 181.752 147.008V146.742C181.752 145.904 181.911 145.156 182.229 144.5C182.551 143.839 182.999 143.323 183.572 142.953C184.15 142.578 184.775 142.391 185.447 142.391C186.546 142.391 187.4 142.753 188.01 143.477C188.619 144.201 188.924 145.237 188.924 146.586V147.188H183.197C183.218 148.021 183.46 148.695 183.924 149.211C184.393 149.721 184.986 149.977 185.705 149.977C186.215 149.977 186.648 149.872 187.002 149.664C187.356 149.456 187.666 149.18 187.932 148.836L188.814 149.523C188.106 150.612 187.044 151.156 185.627 151.156ZM185.447 143.578C184.864 143.578 184.374 143.792 183.979 144.219C183.583 144.641 183.338 145.234 183.244 146H187.479V145.891C187.437 145.156 187.239 144.589 186.885 144.188C186.531 143.781 186.051 143.578 185.447 143.578ZM26.0645 165.695C26.0645 164.867 26.2259 164.122 26.5488 163.461C26.877 162.799 27.3301 162.289 27.9082 161.93C28.4915 161.57 29.1556 161.391 29.9004 161.391C31.0514 161.391 31.9811 161.789 32.6895 162.586C33.403 163.383 33.7598 164.443 33.7598 165.766V165.867C33.7598 166.69 33.6009 167.43 33.2832 168.086C32.9707 168.737 32.5202 169.245 31.9316 169.609C31.3483 169.974 30.6764 170.156 29.916 170.156C28.7702 170.156 27.8405 169.758 27.127 168.961C26.4186 168.164 26.0645 167.109 26.0645 165.797V165.695ZM27.5176 165.867C27.5176 166.805 27.7337 167.557 28.166 168.125C28.6035 168.693 29.1868 168.977 29.916 168.977C30.6504 168.977 31.2337 168.69 31.666 168.117C32.0983 167.539 32.3145 166.732 32.3145 165.695C32.3145 164.768 32.0931 164.018 31.6504 163.445C31.2129 162.867 30.6296 162.578 29.9004 162.578C29.1868 162.578 28.6113 162.862 28.1738 163.43C27.7363 163.997 27.5176 164.81 27.5176 165.867ZM38.9629 168.977C39.4785 168.977 39.929 168.82 40.3145 168.508C40.6999 168.195 40.9134 167.805 40.9551 167.336H42.3223C42.2962 167.82 42.1296 168.281 41.8223 168.719C41.515 169.156 41.1035 169.505 40.5879 169.766C40.0775 170.026 39.5358 170.156 38.9629 170.156C37.8118 170.156 36.8952 169.773 36.2129 169.008C35.5358 168.237 35.1973 167.185 35.1973 165.852V165.609C35.1973 164.786 35.3483 164.055 35.6504 163.414C35.9525 162.773 36.3848 162.276 36.9473 161.922C37.515 161.568 38.1842 161.391 38.9551 161.391C39.903 161.391 40.6895 161.674 41.3145 162.242C41.9447 162.81 42.2806 163.547 42.3223 164.453H40.9551C40.9134 163.906 40.7051 163.458 40.3301 163.109C39.9603 162.755 39.502 162.578 38.9551 162.578C38.2207 162.578 37.6504 162.844 37.2441 163.375C36.8431 163.901 36.6426 164.664 36.6426 165.664V165.938C36.6426 166.911 36.8431 167.661 37.2441 168.188C37.6452 168.714 38.2181 168.977 38.9629 168.977ZM47.4551 170.156C46.3092 170.156 45.377 169.781 44.6582 169.031C43.9395 168.276 43.5801 167.268 43.5801 166.008V165.742C43.5801 164.904 43.7389 164.156 44.0566 163.5C44.3796 162.839 44.8275 162.323 45.4004 161.953C45.9785 161.578 46.6035 161.391 47.2754 161.391C48.3743 161.391 49.2285 161.753 49.8379 162.477C50.4473 163.201 50.752 164.237 50.752 165.586V166.188H45.0254C45.0462 167.021 45.2884 167.695 45.752 168.211C46.2207 168.721 46.8145 168.977 47.5332 168.977C48.0436 168.977 48.4759 168.872 48.8301 168.664C49.1842 168.456 49.4941 168.18 49.7598 167.836L50.6426 168.523C49.9342 169.612 48.8717 170.156 47.4551 170.156ZM47.2754 162.578C46.6921 162.578 46.2025 162.792 45.8066 163.219C45.4108 163.641 45.166 164.234 45.0723 165H49.3066V164.891C49.265 164.156 49.0671 163.589 48.7129 163.188C48.3587 162.781 47.8796 162.578 47.2754 162.578ZM57.6504 170C57.5671 169.833 57.4993 169.536 57.4473 169.109C56.7754 169.807 55.9733 170.156 55.041 170.156C54.2077 170.156 53.5228 169.922 52.9863 169.453C52.4551 168.979 52.1895 168.38 52.1895 167.656C52.1895 166.776 52.5228 166.094 53.1895 165.609C53.8613 165.12 54.804 164.875 56.0176 164.875H57.4238V164.211C57.4238 163.706 57.2728 163.305 56.9707 163.008C56.6686 162.706 56.2233 162.555 55.6348 162.555C55.1191 162.555 54.6868 162.685 54.3379 162.945C53.9889 163.206 53.8145 163.521 53.8145 163.891H52.3613C52.3613 163.469 52.5098 163.062 52.8066 162.672C53.1087 162.276 53.515 161.964 54.0254 161.734C54.541 161.505 55.1061 161.391 55.7207 161.391C56.6947 161.391 57.4577 161.635 58.0098 162.125C58.5618 162.609 58.8483 163.279 58.8691 164.133V168.023C58.8691 168.799 58.9681 169.417 59.166 169.875V170H57.6504ZM55.252 168.898C55.7051 168.898 56.1348 168.781 56.541 168.547C56.9473 168.312 57.2415 168.008 57.4238 167.633V165.898H56.291C54.5202 165.898 53.6348 166.417 53.6348 167.453C53.6348 167.906 53.7858 168.26 54.0879 168.516C54.39 168.771 54.778 168.898 55.252 168.898ZM62.502 161.547L62.5488 162.609C63.1947 161.797 64.0384 161.391 65.0801 161.391C66.8665 161.391 67.7676 162.398 67.7832 164.414V170H66.3379V164.406C66.3327 163.797 66.1921 163.346 65.916 163.055C65.6452 162.763 65.2207 162.617 64.6426 162.617C64.1738 162.617 63.7624 162.742 63.4082 162.992C63.054 163.242 62.778 163.57 62.5801 163.977V170H61.1348V161.547H62.502ZM74.8848 167.758C74.8848 167.367 74.7363 167.065 74.4395 166.852C74.1478 166.633 73.6348 166.445 72.9004 166.289C72.1712 166.133 71.5905 165.945 71.1582 165.727C70.7311 165.508 70.4134 165.247 70.2051 164.945C70.002 164.643 69.9004 164.284 69.9004 163.867C69.9004 163.174 70.1921 162.589 70.7754 162.109C71.3639 161.63 72.1139 161.391 73.0254 161.391C73.9837 161.391 74.7598 161.638 75.3535 162.133C75.9525 162.628 76.252 163.26 76.252 164.031H74.7988C74.7988 163.635 74.6296 163.294 74.291 163.008C73.9577 162.721 73.5358 162.578 73.0254 162.578C72.4993 162.578 72.0879 162.693 71.791 162.922C71.4941 163.151 71.3457 163.451 71.3457 163.82C71.3457 164.169 71.4837 164.432 71.7598 164.609C72.0358 164.786 72.5332 164.956 73.252 165.117C73.9759 165.279 74.5618 165.471 75.0098 165.695C75.4577 165.919 75.7884 166.19 76.002 166.508C76.2207 166.82 76.3301 167.203 76.3301 167.656C76.3301 168.411 76.028 169.018 75.4238 169.477C74.8197 169.93 74.0358 170.156 73.0723 170.156C72.3952 170.156 71.7962 170.036 71.2754 169.797C70.7546 169.557 70.3457 169.224 70.0488 168.797C69.7572 168.365 69.6113 167.898 69.6113 167.398H71.0566C71.0827 167.883 71.2754 168.268 71.6348 168.555C71.9993 168.836 72.4785 168.977 73.0723 168.977C73.6191 168.977 74.0566 168.867 74.3848 168.648C74.7181 168.424 74.8848 168.128 74.8848 167.758ZM87.4004 170C87.3171 169.833 87.2493 169.536 87.1973 169.109C86.5254 169.807 85.7233 170.156 84.791 170.156C83.9577 170.156 83.2728 169.922 82.7363 169.453C82.2051 168.979 81.9395 168.38 81.9395 167.656C81.9395 166.776 82.2728 166.094 82.9395 165.609C83.6113 165.12 84.554 164.875 85.7676 164.875H87.1738V164.211C87.1738 163.706 87.0228 163.305 86.7207 163.008C86.4186 162.706 85.9733 162.555 85.3848 162.555C84.8691 162.555 84.4368 162.685 84.0879 162.945C83.7389 163.206 83.5645 163.521 83.5645 163.891H82.1113C82.1113 163.469 82.2598 163.062 82.5566 162.672C82.8587 162.276 83.265 161.964 83.7754 161.734C84.291 161.505 84.8561 161.391 85.4707 161.391C86.4447 161.391 87.2077 161.635 87.7598 162.125C88.3118 162.609 88.5983 163.279 88.6191 164.133V168.023C88.6191 168.799 88.7181 169.417 88.916 169.875V170H87.4004ZM85.002 168.898C85.4551 168.898 85.8848 168.781 86.291 168.547C86.6973 168.312 86.9915 168.008 87.1738 167.633V165.898H86.041C84.2702 165.898 83.3848 166.417 83.3848 167.453C83.3848 167.906 83.5358 168.26 83.8379 168.516C84.14 168.771 84.528 168.898 85.002 168.898ZM92.252 161.547L92.2988 162.609C92.9447 161.797 93.7884 161.391 94.8301 161.391C96.6165 161.391 97.5176 162.398 97.5332 164.414V170H96.0879V164.406C96.0827 163.797 95.9421 163.346 95.666 163.055C95.3952 162.763 94.9707 162.617 94.3926 162.617C93.9238 162.617 93.5124 162.742 93.1582 162.992C92.804 163.242 92.528 163.57 92.3301 163.977V170H90.8848V161.547H92.252ZM99.3613 165.703C99.3613 164.406 99.6686 163.365 100.283 162.578C100.898 161.786 101.702 161.391 102.697 161.391C103.687 161.391 104.471 161.729 105.049 162.406V158H106.494V170H105.166L105.096 169.094C104.518 169.802 103.713 170.156 102.682 170.156C101.702 170.156 100.903 169.755 100.283 168.953C99.6686 168.151 99.3613 167.104 99.3613 165.812V165.703ZM100.807 165.867C100.807 166.826 101.005 167.576 101.4 168.117C101.796 168.659 102.343 168.93 103.041 168.93C103.958 168.93 104.627 168.518 105.049 167.695V163.812C104.617 163.016 103.952 162.617 103.057 162.617C102.348 162.617 101.796 162.891 101.4 163.438C101.005 163.984 100.807 164.794 100.807 165.867ZM116.221 170.156C115.075 170.156 114.143 169.781 113.424 169.031C112.705 168.276 112.346 167.268 112.346 166.008V165.742C112.346 164.904 112.505 164.156 112.822 163.5C113.145 162.839 113.593 162.323 114.166 161.953C114.744 161.578 115.369 161.391 116.041 161.391C117.14 161.391 117.994 161.753 118.604 162.477C119.213 163.201 119.518 164.237 119.518 165.586V166.188H113.791C113.812 167.021 114.054 167.695 114.518 168.211C114.986 168.721 115.58 168.977 116.299 168.977C116.809 168.977 117.242 168.872 117.596 168.664C117.95 168.456 118.26 168.18 118.525 167.836L119.408 168.523C118.7 169.612 117.637 170.156 116.221 170.156ZM116.041 162.578C115.458 162.578 114.968 162.792 114.572 163.219C114.176 163.641 113.932 164.234 113.838 165H118.072V164.891C118.031 164.156 117.833 163.589 117.479 163.188C117.124 162.781 116.645 162.578 116.041 162.578ZM124.033 164.633L125.908 161.547H127.596L124.83 165.727L127.682 170H126.01L124.057 166.836L122.104 170H120.424L123.275 165.727L120.51 161.547H122.182L124.033 164.633ZM131.096 159.5V161.547H132.674V162.664H131.096V167.906C131.096 168.245 131.166 168.5 131.307 168.672C131.447 168.839 131.687 168.922 132.025 168.922C132.192 168.922 132.421 168.891 132.713 168.828V170C132.333 170.104 131.963 170.156 131.604 170.156C130.958 170.156 130.471 169.961 130.143 169.57C129.814 169.18 129.65 168.625 129.65 167.906V162.664H128.111V161.547H129.65V159.5H131.096ZM138.455 162.844C138.236 162.807 137.999 162.789 137.744 162.789C136.796 162.789 136.153 163.193 135.814 164V170H134.369V161.547H135.775L135.799 162.523C136.273 161.768 136.945 161.391 137.814 161.391C138.096 161.391 138.309 161.427 138.455 161.5V162.844ZM144.697 170C144.614 169.833 144.546 169.536 144.494 169.109C143.822 169.807 143.02 170.156 142.088 170.156C141.255 170.156 140.57 169.922 140.033 169.453C139.502 168.979 139.236 168.38 139.236 167.656C139.236 166.776 139.57 166.094 140.236 165.609C140.908 165.12 141.851 164.875 143.064 164.875H144.471V164.211C144.471 163.706 144.32 163.305 144.018 163.008C143.715 162.706 143.27 162.555 142.682 162.555C142.166 162.555 141.734 162.685 141.385 162.945C141.036 163.206 140.861 163.521 140.861 163.891H139.408C139.408 163.469 139.557 163.062 139.854 162.672C140.156 162.276 140.562 161.964 141.072 161.734C141.588 161.505 142.153 161.391 142.768 161.391C143.742 161.391 144.505 161.635 145.057 162.125C145.609 162.609 145.895 163.279 145.916 164.133V168.023C145.916 168.799 146.015 169.417 146.213 169.875V170H144.697ZM142.299 168.898C142.752 168.898 143.182 168.781 143.588 168.547C143.994 168.312 144.288 168.008 144.471 167.633V165.898H143.338C141.567 165.898 140.682 166.417 140.682 167.453C140.682 167.906 140.833 168.26 141.135 168.516C141.437 168.771 141.825 168.898 142.299 168.898ZM151.572 168.977C152.088 168.977 152.538 168.82 152.924 168.508C153.309 168.195 153.523 167.805 153.564 167.336H154.932C154.906 167.82 154.739 168.281 154.432 168.719C154.124 169.156 153.713 169.505 153.197 169.766C152.687 170.026 152.145 170.156 151.572 170.156C150.421 170.156 149.505 169.773 148.822 169.008C148.145 168.237 147.807 167.185 147.807 165.852V165.609C147.807 164.786 147.958 164.055 148.26 163.414C148.562 162.773 148.994 162.276 149.557 161.922C150.124 161.568 150.794 161.391 151.564 161.391C152.512 161.391 153.299 161.674 153.924 162.242C154.554 162.81 154.89 163.547 154.932 164.453H153.564C153.523 163.906 153.314 163.458 152.939 163.109C152.57 162.755 152.111 162.578 151.564 162.578C150.83 162.578 150.26 162.844 149.854 163.375C149.452 163.901 149.252 164.664 149.252 165.664V165.938C149.252 166.911 149.452 167.661 149.854 168.188C150.255 168.714 150.827 168.977 151.572 168.977ZM158.518 159.5V161.547H160.096V162.664H158.518V167.906C158.518 168.245 158.588 168.5 158.729 168.672C158.869 168.839 159.109 168.922 159.447 168.922C159.614 168.922 159.843 168.891 160.135 168.828V170C159.755 170.104 159.385 170.156 159.025 170.156C158.38 170.156 157.893 169.961 157.564 169.57C157.236 169.18 157.072 168.625 157.072 167.906V162.664H155.533V161.547H157.072V159.5H158.518ZM165.299 170.156C164.153 170.156 163.221 169.781 162.502 169.031C161.783 168.276 161.424 167.268 161.424 166.008V165.742C161.424 164.904 161.583 164.156 161.9 163.5C162.223 162.839 162.671 162.323 163.244 161.953C163.822 161.578 164.447 161.391 165.119 161.391C166.218 161.391 167.072 161.753 167.682 162.477C168.291 163.201 168.596 164.237 168.596 165.586V166.188H162.869C162.89 167.021 163.132 167.695 163.596 168.211C164.064 168.721 164.658 168.977 165.377 168.977C165.887 168.977 166.32 168.872 166.674 168.664C167.028 168.456 167.338 168.18 167.604 167.836L168.486 168.523C167.778 169.612 166.715 170.156 165.299 170.156ZM165.119 162.578C164.536 162.578 164.046 162.792 163.65 163.219C163.255 163.641 163.01 164.234 162.916 165H167.15V164.891C167.109 164.156 166.911 163.589 166.557 163.188C166.202 162.781 165.723 162.578 165.119 162.578ZM169.924 165.703C169.924 164.406 170.231 163.365 170.846 162.578C171.46 161.786 172.265 161.391 173.26 161.391C174.249 161.391 175.033 161.729 175.611 162.406V158H177.057V170H175.729L175.658 169.094C175.08 169.802 174.275 170.156 173.244 170.156C172.265 170.156 171.465 169.755 170.846 168.953C170.231 168.151 169.924 167.104 169.924 165.812V165.703ZM171.369 165.867C171.369 166.826 171.567 167.576 171.963 168.117C172.359 168.659 172.906 168.93 173.604 168.93C174.52 168.93 175.189 168.518 175.611 167.695V163.812C175.179 163.016 174.515 162.617 173.619 162.617C172.911 162.617 172.359 162.891 171.963 163.438C171.567 163.984 171.369 164.794 171.369 165.867ZM190.432 165.867C190.432 167.159 190.135 168.198 189.541 168.984C188.947 169.766 188.15 170.156 187.15 170.156C186.083 170.156 185.257 169.779 184.674 169.023L184.604 170H183.275V158H184.721V162.477C185.304 161.753 186.109 161.391 187.135 161.391C188.161 161.391 188.965 161.779 189.549 162.555C190.137 163.331 190.432 164.393 190.432 165.742V165.867ZM188.986 165.703C188.986 164.719 188.796 163.958 188.416 163.422C188.036 162.885 187.489 162.617 186.775 162.617C185.822 162.617 185.137 163.06 184.721 163.945V167.602C185.163 168.487 185.854 168.93 186.791 168.93C187.484 168.93 188.023 168.661 188.408 168.125C188.794 167.589 188.986 166.781 188.986 165.703ZM194.932 167.883L196.9 161.547H198.447L195.049 171.305C194.523 172.711 193.687 173.414 192.541 173.414L192.268 173.391L191.729 173.289V172.117L192.119 172.148C192.609 172.148 192.989 172.049 193.26 171.852C193.536 171.654 193.762 171.292 193.939 170.766L194.26 169.906L191.244 161.547H192.822L194.932 167.883ZM41.3926 184.867C41.3926 186.154 41.0983 187.19 40.5098 187.977C39.9212 188.763 39.1243 189.156 38.1191 189.156C37.0931 189.156 36.2858 188.831 35.6973 188.18V192.25H34.252V180.547H35.5723L35.6426 181.484C36.2311 180.755 37.0488 180.391 38.0957 180.391C39.1113 180.391 39.9134 180.773 40.502 181.539C41.0957 182.305 41.3926 183.37 41.3926 184.734V184.867ZM39.9473 184.703C39.9473 183.75 39.7441 182.997 39.3379 182.445C38.9316 181.893 38.3743 181.617 37.666 181.617C36.791 181.617 36.1348 182.005 35.6973 182.781V186.82C36.1296 187.591 36.791 187.977 37.6816 187.977C38.3743 187.977 38.9238 187.703 39.3301 187.156C39.7415 186.604 39.9473 185.786 39.9473 184.703ZM44.8066 189H43.3613V177H44.8066V189ZM52.3457 189C52.2624 188.833 52.1947 188.536 52.1426 188.109C51.4707 188.807 50.6686 189.156 49.7363 189.156C48.903 189.156 48.2181 188.922 47.6816 188.453C47.1504 187.979 46.8848 187.38 46.8848 186.656C46.8848 185.776 47.2181 185.094 47.8848 184.609C48.5566 184.12 49.4993 183.875 50.7129 183.875H52.1191V183.211C52.1191 182.706 51.9681 182.305 51.666 182.008C51.3639 181.706 50.9186 181.555 50.3301 181.555C49.8145 181.555 49.3822 181.685 49.0332 181.945C48.6842 182.206 48.5098 182.521 48.5098 182.891H47.0566C47.0566 182.469 47.2051 182.062 47.502 181.672C47.804 181.276 48.2103 180.964 48.7207 180.734C49.2363 180.505 49.8014 180.391 50.416 180.391C51.39 180.391 52.153 180.635 52.7051 181.125C53.2572 181.609 53.5436 182.279 53.5645 183.133V187.023C53.5645 187.799 53.6634 188.417 53.8613 188.875V189H52.3457ZM49.9473 187.898C50.4004 187.898 50.8301 187.781 51.2363 187.547C51.6426 187.312 51.9368 187.008 52.1191 186.633V184.898H50.9863C49.2155 184.898 48.3301 185.417 48.3301 186.453C48.3301 186.906 48.4811 187.26 48.7832 187.516C49.0853 187.771 49.4733 187.898 49.9473 187.898ZM57.1973 180.547L57.2441 181.609C57.89 180.797 58.7337 180.391 59.7754 180.391C61.5618 180.391 62.4629 181.398 62.4785 183.414V189H61.0332V183.406C61.028 182.797 60.8874 182.346 60.6113 182.055C60.3405 181.763 59.916 181.617 59.3379 181.617C58.8691 181.617 58.4577 181.742 58.1035 181.992C57.7493 182.242 57.4733 182.57 57.2754 182.977V189H55.8301V180.547H57.1973ZM66.6191 178.5V180.547H68.1973V181.664H66.6191V186.906C66.6191 187.245 66.6895 187.5 66.8301 187.672C66.9707 187.839 67.2103 187.922 67.5488 187.922C67.7155 187.922 67.9447 187.891 68.2363 187.828V189C67.8561 189.104 67.4863 189.156 67.127 189.156C66.4811 189.156 65.9941 188.961 65.666 188.57C65.3379 188.18 65.1738 187.625 65.1738 186.906V181.664H63.6348V180.547H65.1738V178.5H66.6191ZM74.8145 186.758C74.8145 186.367 74.666 186.065 74.3691 185.852C74.0775 185.633 73.5645 185.445 72.8301 185.289C72.1009 185.133 71.5202 184.945 71.0879 184.727C70.6608 184.508 70.3431 184.247 70.1348 183.945C69.9316 183.643 69.8301 183.284 69.8301 182.867C69.8301 182.174 70.1217 181.589 70.7051 181.109C71.2936 180.63 72.0436 180.391 72.9551 180.391C73.9134 180.391 74.6895 180.638 75.2832 181.133C75.8822 181.628 76.1816 182.26 76.1816 183.031H74.7285C74.7285 182.635 74.5592 182.294 74.2207 182.008C73.8874 181.721 73.4655 181.578 72.9551 181.578C72.429 181.578 72.0176 181.693 71.7207 181.922C71.4238 182.151 71.2754 182.451 71.2754 182.82C71.2754 183.169 71.4134 183.432 71.6895 183.609C71.9655 183.786 72.4629 183.956 73.1816 184.117C73.9056 184.279 74.4915 184.471 74.9395 184.695C75.3874 184.919 75.7181 185.19 75.9316 185.508C76.1504 185.82 76.2598 186.203 76.2598 186.656C76.2598 187.411 75.9577 188.018 75.3535 188.477C74.7493 188.93 73.9655 189.156 73.002 189.156C72.3249 189.156 71.7259 189.036 71.2051 188.797C70.6842 188.557 70.2754 188.224 69.9785 187.797C69.6868 187.365 69.541 186.898 69.541 186.398H70.9863C71.0124 186.883 71.2051 187.268 71.5645 187.555C71.929 187.836 72.4082 187.977 73.002 187.977C73.5488 187.977 73.9863 187.867 74.3145 187.648C74.6478 187.424 74.8145 187.128 74.8145 186.758ZM87.3301 189C87.2467 188.833 87.179 188.536 87.127 188.109C86.4551 188.807 85.653 189.156 84.7207 189.156C83.8874 189.156 83.2025 188.922 82.666 188.453C82.1348 187.979 81.8691 187.38 81.8691 186.656C81.8691 185.776 82.2025 185.094 82.8691 184.609C83.541 184.12 84.4837 183.875 85.6973 183.875H87.1035V183.211C87.1035 182.706 86.9525 182.305 86.6504 182.008C86.3483 181.706 85.903 181.555 85.3145 181.555C84.7988 181.555 84.3665 181.685 84.0176 181.945C83.6686 182.206 83.4941 182.521 83.4941 182.891H82.041C82.041 182.469 82.1895 182.062 82.4863 181.672C82.7884 181.276 83.1947 180.964 83.7051 180.734C84.2207 180.505 84.7858 180.391 85.4004 180.391C86.3743 180.391 87.1374 180.635 87.6895 181.125C88.2415 181.609 88.528 182.279 88.5488 183.133V187.023C88.5488 187.799 88.6478 188.417 88.8457 188.875V189H87.3301ZM84.9316 187.898C85.3848 187.898 85.8145 187.781 86.2207 187.547C86.627 187.312 86.9212 187.008 87.1035 186.633V184.898H85.9707C84.1999 184.898 83.3145 185.417 83.3145 186.453C83.3145 186.906 83.4655 187.26 83.7676 187.516C84.0697 187.771 84.4577 187.898 84.9316 187.898ZM95.7363 186.758C95.7363 186.367 95.5879 186.065 95.291 185.852C94.9993 185.633 94.4863 185.445 93.752 185.289C93.0228 185.133 92.4421 184.945 92.0098 184.727C91.5827 184.508 91.265 184.247 91.0566 183.945C90.8535 183.643 90.752 183.284 90.752 182.867C90.752 182.174 91.0436 181.589 91.627 181.109C92.2155 180.63 92.9655 180.391 93.877 180.391C94.8353 180.391 95.6113 180.638 96.2051 181.133C96.804 181.628 97.1035 182.26 97.1035 183.031H95.6504C95.6504 182.635 95.4811 182.294 95.1426 182.008C94.8092 181.721 94.3874 181.578 93.877 181.578C93.3509 181.578 92.9395 181.693 92.6426 181.922C92.3457 182.151 92.1973 182.451 92.1973 182.82C92.1973 183.169 92.3353 183.432 92.6113 183.609C92.8874 183.786 93.3848 183.956 94.1035 184.117C94.8275 184.279 95.4134 184.471 95.8613 184.695C96.3092 184.919 96.64 185.19 96.8535 185.508C97.0723 185.82 97.1816 186.203 97.1816 186.656C97.1816 187.411 96.8796 188.018 96.2754 188.477C95.6712 188.93 94.8874 189.156 93.9238 189.156C93.2467 189.156 92.6478 189.036 92.127 188.797C91.6061 188.557 91.1973 188.224 90.9004 187.797C90.6087 187.365 90.4629 186.898 90.4629 186.398H91.9082C91.9342 186.883 92.127 187.268 92.4863 187.555C92.8509 187.836 93.3301 187.977 93.9238 187.977C94.4707 187.977 94.9082 187.867 95.2363 187.648C95.5697 187.424 95.7363 187.128 95.7363 186.758ZM110.518 187.008L112.143 180.547H113.588L111.127 189H109.955L107.9 182.594L105.9 189H104.729L102.275 180.547H103.713L105.377 186.875L107.346 180.547H108.51L110.518 187.008ZM118.572 189.156C117.426 189.156 116.494 188.781 115.775 188.031C115.057 187.276 114.697 186.268 114.697 185.008V184.742C114.697 183.904 114.856 183.156 115.174 182.5C115.497 181.839 115.945 181.323 116.518 180.953C117.096 180.578 117.721 180.391 118.393 180.391C119.492 180.391 120.346 180.753 120.955 181.477C121.564 182.201 121.869 183.237 121.869 184.586V185.188H116.143C116.163 186.021 116.406 186.695 116.869 187.211C117.338 187.721 117.932 187.977 118.65 187.977C119.161 187.977 119.593 187.872 119.947 187.664C120.301 187.456 120.611 187.18 120.877 186.836L121.76 187.523C121.051 188.612 119.989 189.156 118.572 189.156ZM118.393 181.578C117.809 181.578 117.32 181.792 116.924 182.219C116.528 182.641 116.283 183.234 116.189 184H120.424V183.891C120.382 183.156 120.184 182.589 119.83 182.188C119.476 181.781 118.997 181.578 118.393 181.578ZM125.119 189H123.674V177H125.119V189ZM129.01 189H127.564V177H129.01V189ZM140.518 189C140.434 188.833 140.367 188.536 140.314 188.109C139.643 188.807 138.84 189.156 137.908 189.156C137.075 189.156 136.39 188.922 135.854 188.453C135.322 187.979 135.057 187.38 135.057 186.656C135.057 185.776 135.39 185.094 136.057 184.609C136.729 184.12 137.671 183.875 138.885 183.875H140.291V183.211C140.291 182.706 140.14 182.305 139.838 182.008C139.536 181.706 139.09 181.555 138.502 181.555C137.986 181.555 137.554 181.685 137.205 181.945C136.856 182.206 136.682 182.521 136.682 182.891H135.229C135.229 182.469 135.377 182.062 135.674 181.672C135.976 181.276 136.382 180.964 136.893 180.734C137.408 180.505 137.973 180.391 138.588 180.391C139.562 180.391 140.325 180.635 140.877 181.125C141.429 181.609 141.715 182.279 141.736 183.133V187.023C141.736 187.799 141.835 188.417 142.033 188.875V189H140.518ZM138.119 187.898C138.572 187.898 139.002 187.781 139.408 187.547C139.814 187.312 140.109 187.008 140.291 186.633V184.898H139.158C137.387 184.898 136.502 185.417 136.502 186.453C136.502 186.906 136.653 187.26 136.955 187.516C137.257 187.771 137.645 187.898 138.119 187.898ZM148.924 186.758C148.924 186.367 148.775 186.065 148.479 185.852C148.187 185.633 147.674 185.445 146.939 185.289C146.21 185.133 145.63 184.945 145.197 184.727C144.77 184.508 144.452 184.247 144.244 183.945C144.041 183.643 143.939 183.284 143.939 182.867C143.939 182.174 144.231 181.589 144.814 181.109C145.403 180.63 146.153 180.391 147.064 180.391C148.023 180.391 148.799 180.638 149.393 181.133C149.992 181.628 150.291 182.26 150.291 183.031H148.838C148.838 182.635 148.669 182.294 148.33 182.008C147.997 181.721 147.575 181.578 147.064 181.578C146.538 181.578 146.127 181.693 145.83 181.922C145.533 182.151 145.385 182.451 145.385 182.82C145.385 183.169 145.523 183.432 145.799 183.609C146.075 183.786 146.572 183.956 147.291 184.117C148.015 184.279 148.601 184.471 149.049 184.695C149.497 184.919 149.827 185.19 150.041 185.508C150.26 185.82 150.369 186.203 150.369 186.656C150.369 187.411 150.067 188.018 149.463 188.477C148.859 188.93 148.075 189.156 147.111 189.156C146.434 189.156 145.835 189.036 145.314 188.797C144.794 188.557 144.385 188.224 144.088 187.797C143.796 187.365 143.65 186.898 143.65 186.398H145.096C145.122 186.883 145.314 187.268 145.674 187.555C146.038 187.836 146.518 187.977 147.111 187.977C147.658 187.977 148.096 187.867 148.424 187.648C148.757 187.424 148.924 187.128 148.924 186.758ZM158.182 178.5V180.547H159.76V181.664H158.182V186.906C158.182 187.245 158.252 187.5 158.393 187.672C158.533 187.839 158.773 187.922 159.111 187.922C159.278 187.922 159.507 187.891 159.799 187.828V189C159.419 189.104 159.049 189.156 158.689 189.156C158.044 189.156 157.557 188.961 157.229 188.57C156.9 188.18 156.736 187.625 156.736 186.906V181.664H155.197V180.547H156.736V178.5H158.182ZM165.541 181.844C165.322 181.807 165.085 181.789 164.83 181.789C163.882 181.789 163.239 182.193 162.9 183V189H161.455V180.547H162.861L162.885 181.523C163.359 180.768 164.031 180.391 164.9 180.391C165.182 180.391 165.395 180.427 165.541 180.5V181.844ZM170.229 189.156C169.083 189.156 168.15 188.781 167.432 188.031C166.713 187.276 166.354 186.268 166.354 185.008V184.742C166.354 183.904 166.512 183.156 166.83 182.5C167.153 181.839 167.601 181.323 168.174 180.953C168.752 180.578 169.377 180.391 170.049 180.391C171.148 180.391 172.002 180.753 172.611 181.477C173.221 182.201 173.525 183.237 173.525 184.586V185.188H167.799C167.82 186.021 168.062 186.695 168.525 187.211C168.994 187.721 169.588 187.977 170.307 187.977C170.817 187.977 171.249 187.872 171.604 187.664C171.958 187.456 172.268 187.18 172.533 186.836L173.416 187.523C172.708 188.612 171.645 189.156 170.229 189.156ZM170.049 181.578C169.465 181.578 168.976 181.792 168.58 182.219C168.184 182.641 167.939 183.234 167.846 184H172.08V183.891C172.038 183.156 171.84 182.589 171.486 182.188C171.132 181.781 170.653 181.578 170.049 181.578ZM178.713 189.156C177.567 189.156 176.635 188.781 175.916 188.031C175.197 187.276 174.838 186.268 174.838 185.008V184.742C174.838 183.904 174.997 183.156 175.314 182.5C175.637 181.839 176.085 181.323 176.658 180.953C177.236 180.578 177.861 180.391 178.533 180.391C179.632 180.391 180.486 180.753 181.096 181.477C181.705 182.201 182.01 183.237 182.01 184.586V185.188H176.283C176.304 186.021 176.546 186.695 177.01 187.211C177.479 187.721 178.072 187.977 178.791 187.977C179.301 187.977 179.734 187.872 180.088 187.664C180.442 187.456 180.752 187.18 181.018 186.836L181.9 187.523C181.192 188.612 180.13 189.156 178.713 189.156ZM178.533 181.578C177.95 181.578 177.46 181.792 177.064 182.219C176.669 182.641 176.424 183.234 176.33 184H180.564V183.891C180.523 183.156 180.325 182.589 179.971 182.188C179.617 181.781 179.137 181.578 178.533 181.578ZM188.611 186.758C188.611 186.367 188.463 186.065 188.166 185.852C187.874 185.633 187.361 185.445 186.627 185.289C185.898 185.133 185.317 184.945 184.885 184.727C184.458 184.508 184.14 184.247 183.932 183.945C183.729 183.643 183.627 183.284 183.627 182.867C183.627 182.174 183.919 181.589 184.502 181.109C185.09 180.63 185.84 180.391 186.752 180.391C187.71 180.391 188.486 180.638 189.08 181.133C189.679 181.628 189.979 182.26 189.979 183.031H188.525C188.525 182.635 188.356 182.294 188.018 182.008C187.684 181.721 187.262 181.578 186.752 181.578C186.226 181.578 185.814 181.693 185.518 181.922C185.221 182.151 185.072 182.451 185.072 182.82C185.072 183.169 185.21 183.432 185.486 183.609C185.762 183.786 186.26 183.956 186.979 184.117C187.702 184.279 188.288 184.471 188.736 184.695C189.184 184.919 189.515 185.19 189.729 185.508C189.947 185.82 190.057 186.203 190.057 186.656C190.057 187.411 189.755 188.018 189.15 188.477C188.546 188.93 187.762 189.156 186.799 189.156C186.122 189.156 185.523 189.036 185.002 188.797C184.481 188.557 184.072 188.224 183.775 187.797C183.484 187.365 183.338 186.898 183.338 186.398H184.783C184.809 186.883 185.002 187.268 185.361 187.555C185.726 187.836 186.205 187.977 186.799 187.977C187.346 187.977 187.783 187.867 188.111 187.648C188.445 187.424 188.611 187.128 188.611 186.758ZM29.0801 197.5V199.547H30.6582V200.664H29.0801V205.906C29.0801 206.245 29.1504 206.5 29.291 206.672C29.4316 206.839 29.6712 206.922 30.0098 206.922C30.1764 206.922 30.4056 206.891 30.6973 206.828V208C30.3171 208.104 29.9473 208.156 29.5879 208.156C28.9421 208.156 28.4551 207.961 28.127 207.57C27.7988 207.18 27.6348 206.625 27.6348 205.906V200.664H26.0957V199.547H27.6348V197.5H29.0801ZM33.7988 200.57C34.4395 199.784 35.2728 199.391 36.2988 199.391C38.0853 199.391 38.9863 200.398 39.002 202.414V208H37.5566V202.406C37.5514 201.797 37.4108 201.346 37.1348 201.055C36.8639 200.763 36.4395 200.617 35.8613 200.617C35.3926 200.617 34.9811 200.742 34.627 200.992C34.2728 201.242 33.9967 201.57 33.7988 201.977V208H32.3535V196H33.7988V200.57ZM45.252 200.844C45.0332 200.807 44.7962 200.789 44.541 200.789C43.5931 200.789 42.9499 201.193 42.6113 202V208H41.166V199.547H42.5723L42.5957 200.523C43.0697 199.768 43.7415 199.391 44.6113 199.391C44.8926 199.391 45.1061 199.427 45.252 199.5V200.844ZM46.0488 203.695C46.0488 202.867 46.2103 202.122 46.5332 201.461C46.8613 200.799 47.3145 200.289 47.8926 199.93C48.4759 199.57 49.14 199.391 49.8848 199.391C51.0358 199.391 51.9655 199.789 52.6738 200.586C53.3874 201.383 53.7441 202.443 53.7441 203.766V203.867C53.7441 204.69 53.5853 205.43 53.2676 206.086C52.9551 206.737 52.5046 207.245 51.916 207.609C51.3327 207.974 50.6608 208.156 49.9004 208.156C48.7546 208.156 47.8249 207.758 47.1113 206.961C46.403 206.164 46.0488 205.109 46.0488 203.797V203.695ZM47.502 203.867C47.502 204.805 47.7181 205.557 48.1504 206.125C48.5879 206.693 49.1712 206.977 49.9004 206.977C50.6348 206.977 51.2181 206.69 51.6504 206.117C52.0827 205.539 52.2988 204.732 52.2988 203.695C52.2988 202.768 52.0775 202.018 51.6348 201.445C51.1973 200.867 50.6139 200.578 49.8848 200.578C49.1712 200.578 48.5957 200.862 48.1582 201.43C47.7207 201.997 47.502 202.81 47.502 203.867ZM60.7754 207.164C60.2129 207.826 59.3874 208.156 58.2988 208.156C57.3978 208.156 56.7103 207.896 56.2363 207.375C55.7676 206.849 55.5306 206.073 55.5254 205.047V199.547H56.9707V205.008C56.9707 206.289 57.4915 206.93 58.5332 206.93C59.6374 206.93 60.3717 206.518 60.7363 205.695V199.547H62.1816V208H60.8066L60.7754 207.164ZM64.041 203.703C64.041 202.385 64.3457 201.339 64.9551 200.562C65.5645 199.781 66.3717 199.391 67.377 199.391C68.4082 199.391 69.2129 199.755 69.791 200.484L69.8613 199.547H71.1816V207.797C71.1816 208.891 70.8561 209.753 70.2051 210.383C69.5592 211.013 68.6895 211.328 67.5957 211.328C66.9863 211.328 66.39 211.198 65.8066 210.938C65.2233 210.677 64.778 210.32 64.4707 209.867L65.2207 209C65.8405 209.766 66.5983 210.148 67.4941 210.148C68.1973 210.148 68.7441 209.951 69.1348 209.555C69.5306 209.159 69.7285 208.602 69.7285 207.883V207.156C69.1504 207.823 68.3613 208.156 67.3613 208.156C66.3717 208.156 65.5697 207.758 64.9551 206.961C64.3457 206.164 64.041 205.078 64.041 203.703ZM65.4941 203.867C65.4941 204.82 65.6895 205.57 66.0801 206.117C66.4707 206.659 67.0176 206.93 67.7207 206.93C68.6322 206.93 69.3014 206.516 69.7285 205.688V201.828C69.2858 201.021 68.6217 200.617 67.7363 200.617C67.0332 200.617 66.4837 200.891 66.0879 201.438C65.6921 201.984 65.4941 202.794 65.4941 203.867ZM74.8145 200.57C75.4551 199.784 76.2884 199.391 77.3145 199.391C79.1009 199.391 80.002 200.398 80.0176 202.414V208H78.5723V202.406C78.5671 201.797 78.4264 201.346 78.1504 201.055C77.8796 200.763 77.4551 200.617 76.877 200.617C76.4082 200.617 75.9967 200.742 75.6426 200.992C75.2884 201.242 75.0124 201.57 74.8145 201.977V208H73.3691V196H74.8145V200.57ZM93.291 203.867C93.291 205.154 92.9967 206.19 92.4082 206.977C91.8197 207.763 91.0228 208.156 90.0176 208.156C88.9915 208.156 88.1842 207.831 87.5957 207.18V211.25H86.1504V199.547H87.4707L87.541 200.484C88.1296 199.755 88.9473 199.391 89.9941 199.391C91.0098 199.391 91.8118 199.773 92.4004 200.539C92.9941 201.305 93.291 202.37 93.291 203.734V203.867ZM91.8457 203.703C91.8457 202.75 91.6426 201.997 91.2363 201.445C90.8301 200.893 90.2728 200.617 89.5645 200.617C88.6895 200.617 88.0332 201.005 87.5957 201.781V205.82C88.028 206.591 88.6895 206.977 89.5801 206.977C90.2728 206.977 90.8223 206.703 91.2285 206.156C91.64 205.604 91.8457 204.786 91.8457 203.703ZM96.5801 200.57C97.2207 199.784 98.054 199.391 99.0801 199.391C100.867 199.391 101.768 200.398 101.783 202.414V208H100.338V202.406C100.333 201.797 100.192 201.346 99.916 201.055C99.6452 200.763 99.2207 200.617 98.6426 200.617C98.1738 200.617 97.7624 200.742 97.4082 200.992C97.054 201.242 96.778 201.57 96.5801 201.977V208H95.1348V196H96.5801V200.57ZM103.564 203.695C103.564 202.867 103.726 202.122 104.049 201.461C104.377 200.799 104.83 200.289 105.408 199.93C105.992 199.57 106.656 199.391 107.4 199.391C108.551 199.391 109.481 199.789 110.189 200.586C110.903 201.383 111.26 202.443 111.26 203.766V203.867C111.26 204.69 111.101 205.43 110.783 206.086C110.471 206.737 110.02 207.245 109.432 207.609C108.848 207.974 108.176 208.156 107.416 208.156C106.27 208.156 105.34 207.758 104.627 206.961C103.919 206.164 103.564 205.109 103.564 203.797V203.695ZM105.018 203.867C105.018 204.805 105.234 205.557 105.666 206.125C106.104 206.693 106.687 206.977 107.416 206.977C108.15 206.977 108.734 206.69 109.166 206.117C109.598 205.539 109.814 204.732 109.814 203.695C109.814 202.768 109.593 202.018 109.15 201.445C108.713 200.867 108.13 200.578 107.4 200.578C106.687 200.578 106.111 200.862 105.674 201.43C105.236 201.997 105.018 202.81 105.018 203.867ZM115.033 197.5V199.547H116.611V200.664H115.033V205.906C115.033 206.245 115.104 206.5 115.244 206.672C115.385 206.839 115.624 206.922 115.963 206.922C116.13 206.922 116.359 206.891 116.65 206.828V208C116.27 208.104 115.9 208.156 115.541 208.156C114.895 208.156 114.408 207.961 114.08 207.57C113.752 207.18 113.588 206.625 113.588 205.906V200.664H112.049V199.547H113.588V197.5H115.033ZM117.768 203.695C117.768 202.867 117.929 202.122 118.252 201.461C118.58 200.799 119.033 200.289 119.611 199.93C120.195 199.57 120.859 199.391 121.604 199.391C122.755 199.391 123.684 199.789 124.393 200.586C125.106 201.383 125.463 202.443 125.463 203.766V203.867C125.463 204.69 125.304 205.43 124.986 206.086C124.674 206.737 124.223 207.245 123.635 207.609C123.051 207.974 122.38 208.156 121.619 208.156C120.473 208.156 119.544 207.758 118.83 206.961C118.122 206.164 117.768 205.109 117.768 203.797V203.695ZM119.221 203.867C119.221 204.805 119.437 205.557 119.869 206.125C120.307 206.693 120.89 206.977 121.619 206.977C122.354 206.977 122.937 206.69 123.369 206.117C123.801 205.539 124.018 204.732 124.018 203.695C124.018 202.768 123.796 202.018 123.354 201.445C122.916 200.867 122.333 200.578 121.604 200.578C120.89 200.578 120.314 200.862 119.877 201.43C119.439 201.997 119.221 202.81 119.221 203.867ZM132.197 205.758C132.197 205.367 132.049 205.065 131.752 204.852C131.46 204.633 130.947 204.445 130.213 204.289C129.484 204.133 128.903 203.945 128.471 203.727C128.044 203.508 127.726 203.247 127.518 202.945C127.314 202.643 127.213 202.284 127.213 201.867C127.213 201.174 127.505 200.589 128.088 200.109C128.676 199.63 129.426 199.391 130.338 199.391C131.296 199.391 132.072 199.638 132.666 200.133C133.265 200.628 133.564 201.26 133.564 202.031H132.111C132.111 201.635 131.942 201.294 131.604 201.008C131.27 200.721 130.848 200.578 130.338 200.578C129.812 200.578 129.4 200.693 129.104 200.922C128.807 201.151 128.658 201.451 128.658 201.82C128.658 202.169 128.796 202.432 129.072 202.609C129.348 202.786 129.846 202.956 130.564 203.117C131.288 203.279 131.874 203.471 132.322 203.695C132.77 203.919 133.101 204.19 133.314 204.508C133.533 204.82 133.643 205.203 133.643 205.656C133.643 206.411 133.34 207.018 132.736 207.477C132.132 207.93 131.348 208.156 130.385 208.156C129.708 208.156 129.109 208.036 128.588 207.797C128.067 207.557 127.658 207.224 127.361 206.797C127.07 206.365 126.924 205.898 126.924 205.398H128.369C128.395 205.883 128.588 206.268 128.947 206.555C129.312 206.836 129.791 206.977 130.385 206.977C130.932 206.977 131.369 206.867 131.697 206.648C132.031 206.424 132.197 206.128 132.197 205.758ZM138.291 205.883L140.26 199.547H141.807L138.408 209.305C137.882 210.711 137.046 211.414 135.9 211.414L135.627 211.391L135.088 211.289V210.117L135.479 210.148C135.968 210.148 136.348 210.049 136.619 209.852C136.895 209.654 137.122 209.292 137.299 208.766L137.619 207.906L134.604 199.547H136.182L138.291 205.883ZM144.471 199.547L144.518 200.609C145.163 199.797 146.007 199.391 147.049 199.391C148.835 199.391 149.736 200.398 149.752 202.414V208H148.307V202.406C148.301 201.797 148.161 201.346 147.885 201.055C147.614 200.763 147.189 200.617 146.611 200.617C146.143 200.617 145.731 200.742 145.377 200.992C145.023 201.242 144.747 201.57 144.549 201.977V208H143.104V199.547H144.471ZM153.893 197.5V199.547H155.471V200.664H153.893V205.906C153.893 206.245 153.963 206.5 154.104 206.672C154.244 206.839 154.484 206.922 154.822 206.922C154.989 206.922 155.218 206.891 155.51 206.828V208C155.13 208.104 154.76 208.156 154.4 208.156C153.755 208.156 153.268 207.961 152.939 207.57C152.611 207.18 152.447 206.625 152.447 205.906V200.664H150.908V199.547H152.447V197.5H153.893ZM158.611 200.57C159.252 199.784 160.085 199.391 161.111 199.391C162.898 199.391 163.799 200.398 163.814 202.414V208H162.369V202.406C162.364 201.797 162.223 201.346 161.947 201.055C161.676 200.763 161.252 200.617 160.674 200.617C160.205 200.617 159.794 200.742 159.439 200.992C159.085 201.242 158.809 201.57 158.611 201.977V208H157.166V196H158.611V200.57ZM169.486 208.156C168.34 208.156 167.408 207.781 166.689 207.031C165.971 206.276 165.611 205.268 165.611 204.008V203.742C165.611 202.904 165.77 202.156 166.088 201.5C166.411 200.839 166.859 200.323 167.432 199.953C168.01 199.578 168.635 199.391 169.307 199.391C170.406 199.391 171.26 199.753 171.869 200.477C172.479 201.201 172.783 202.237 172.783 203.586V204.188H167.057C167.077 205.021 167.32 205.695 167.783 206.211C168.252 206.721 168.846 206.977 169.564 206.977C170.075 206.977 170.507 206.872 170.861 206.664C171.215 206.456 171.525 206.18 171.791 205.836L172.674 206.523C171.965 207.612 170.903 208.156 169.486 208.156ZM169.307 200.578C168.723 200.578 168.234 200.792 167.838 201.219C167.442 201.641 167.197 202.234 167.104 203H171.338V202.891C171.296 202.156 171.098 201.589 170.744 201.188C170.39 200.781 169.911 200.578 169.307 200.578ZM179.385 205.758C179.385 205.367 179.236 205.065 178.939 204.852C178.648 204.633 178.135 204.445 177.4 204.289C176.671 204.133 176.09 203.945 175.658 203.727C175.231 203.508 174.913 203.247 174.705 202.945C174.502 202.643 174.4 202.284 174.4 201.867C174.4 201.174 174.692 200.589 175.275 200.109C175.864 199.63 176.614 199.391 177.525 199.391C178.484 199.391 179.26 199.638 179.854 200.133C180.452 200.628 180.752 201.26 180.752 202.031H179.299C179.299 201.635 179.13 201.294 178.791 201.008C178.458 200.721 178.036 200.578 177.525 200.578C176.999 200.578 176.588 200.693 176.291 200.922C175.994 201.151 175.846 201.451 175.846 201.82C175.846 202.169 175.984 202.432 176.26 202.609C176.536 202.786 177.033 202.956 177.752 203.117C178.476 203.279 179.062 203.471 179.51 203.695C179.958 203.919 180.288 204.19 180.502 204.508C180.721 204.82 180.83 205.203 180.83 205.656C180.83 206.411 180.528 207.018 179.924 207.477C179.32 207.93 178.536 208.156 177.572 208.156C176.895 208.156 176.296 208.036 175.775 207.797C175.255 207.557 174.846 207.224 174.549 206.797C174.257 206.365 174.111 205.898 174.111 205.398H175.557C175.583 205.883 175.775 206.268 176.135 206.555C176.499 206.836 176.979 206.977 177.572 206.977C178.119 206.977 178.557 206.867 178.885 206.648C179.218 206.424 179.385 206.128 179.385 205.758ZM184.283 208H182.838V199.547H184.283V208ZM182.721 197.305C182.721 197.07 182.791 196.872 182.932 196.711C183.077 196.549 183.291 196.469 183.572 196.469C183.854 196.469 184.067 196.549 184.213 196.711C184.359 196.872 184.432 197.07 184.432 197.305C184.432 197.539 184.359 197.734 184.213 197.891C184.067 198.047 183.854 198.125 183.572 198.125C183.291 198.125 183.077 198.047 182.932 197.891C182.791 197.734 182.721 197.539 182.721 197.305ZM191.525 205.758C191.525 205.367 191.377 205.065 191.08 204.852C190.788 204.633 190.275 204.445 189.541 204.289C188.812 204.133 188.231 203.945 187.799 203.727C187.372 203.508 187.054 203.247 186.846 202.945C186.643 202.643 186.541 202.284 186.541 201.867C186.541 201.174 186.833 200.589 187.416 200.109C188.005 199.63 188.755 199.391 189.666 199.391C190.624 199.391 191.4 199.638 191.994 200.133C192.593 200.628 192.893 201.26 192.893 202.031H191.439C191.439 201.635 191.27 201.294 190.932 201.008C190.598 200.721 190.176 200.578 189.666 200.578C189.14 200.578 188.729 200.693 188.432 200.922C188.135 201.151 187.986 201.451 187.986 201.82C187.986 202.169 188.124 202.432 188.4 202.609C188.676 202.786 189.174 202.956 189.893 203.117C190.617 203.279 191.202 203.471 191.65 203.695C192.098 203.919 192.429 204.19 192.643 204.508C192.861 204.82 192.971 205.203 192.971 205.656C192.971 206.411 192.669 207.018 192.064 207.477C191.46 207.93 190.676 208.156 189.713 208.156C189.036 208.156 188.437 208.036 187.916 207.797C187.395 207.557 186.986 207.224 186.689 206.797C186.398 206.365 186.252 205.898 186.252 205.398H187.697C187.723 205.883 187.916 206.268 188.275 206.555C188.64 206.836 189.119 206.977 189.713 206.977C190.26 206.977 190.697 206.867 191.025 206.648C191.359 206.424 191.525 206.128 191.525 205.758ZM194.885 207.242C194.885 206.992 194.958 206.784 195.104 206.617C195.255 206.451 195.479 206.367 195.775 206.367C196.072 206.367 196.296 206.451 196.447 206.617C196.604 206.784 196.682 206.992 196.682 207.242C196.682 207.482 196.604 207.682 196.447 207.844C196.296 208.005 196.072 208.086 195.775 208.086C195.479 208.086 195.255 208.005 195.104 207.844C194.958 207.682 194.885 207.482 194.885 207.242Z" fill="black"/>
</svg>
