<svg width="222" height="226" viewBox="0 0 222 226" fill="none" xmlns="http://www.w3.org/2000/svg">
<path d="M89.0879 115.969L91.751 110.203H94.6338L90.4326 118.359V123H87.752V118.359L83.5508 110.203H86.4424L89.0879 115.969ZM103.502 117.454H98.4395V120.882H104.381V123H95.8027V110.203H104.363V112.339H98.4395V115.389H103.502V117.454ZM113.152 120.363H108.529L107.65 123H104.847L109.61 110.203H112.054L116.844 123H114.04L113.152 120.363ZM109.241 118.228H112.44L110.832 113.438L109.241 118.228ZM122.776 118.315H120.676V123H118.039V110.203H122.794C124.306 110.203 125.472 110.54 126.292 111.214C127.112 111.888 127.522 112.84 127.522 114.07C127.522 114.943 127.332 115.673 126.951 116.259C126.576 116.839 126.005 117.302 125.237 117.647L128.006 122.877V123H125.176L122.776 118.315ZM120.676 116.18H122.803C123.465 116.18 123.978 116.013 124.341 115.679C124.704 115.339 124.886 114.873 124.886 114.281C124.886 113.678 124.713 113.203 124.367 112.857C124.027 112.512 123.503 112.339 122.794 112.339H120.676V116.18ZM136.171 119.643C136.171 119.145 135.995 118.764 135.644 118.5C135.292 118.23 134.659 117.949 133.745 117.656C132.831 117.357 132.107 117.064 131.574 116.777C130.121 115.992 129.395 114.935 129.395 113.604C129.395 112.913 129.588 112.298 129.975 111.759C130.367 111.214 130.927 110.789 131.653 110.484C132.386 110.18 133.206 110.027 134.114 110.027C135.028 110.027 135.843 110.194 136.558 110.528C137.272 110.856 137.826 111.322 138.219 111.926C138.617 112.529 138.816 113.215 138.816 113.982H136.18C136.18 113.396 135.995 112.942 135.626 112.62C135.257 112.292 134.738 112.128 134.07 112.128C133.426 112.128 132.925 112.266 132.567 112.541C132.21 112.811 132.031 113.168 132.031 113.613C132.031 114.029 132.239 114.378 132.655 114.659C133.077 114.94 133.695 115.204 134.51 115.45C136.01 115.901 137.103 116.461 137.788 117.129C138.474 117.797 138.816 118.629 138.816 119.625C138.816 120.732 138.397 121.603 137.56 122.235C136.722 122.862 135.594 123.176 134.176 123.176C133.191 123.176 132.295 122.997 131.486 122.64C130.678 122.276 130.06 121.781 129.632 121.154C129.21 120.527 128.999 119.801 128.999 118.975H131.645C131.645 120.387 132.488 121.093 134.176 121.093C134.803 121.093 135.292 120.967 135.644 120.715C135.995 120.457 136.171 120.1 136.171 119.643Z" fill="#202020"/>
<path d="M101.28 35.2686C100.788 35.8473 100.066 36.1367 99.1133 36.1367C98.3249 36.1367 97.7233 35.9089 97.3086 35.4531C96.8984 34.9928 96.6911 34.3138 96.6865 33.416V28.6035H97.9512V33.3818C97.9512 34.5029 98.4069 35.0635 99.3184 35.0635C100.285 35.0635 100.927 34.7035 101.246 33.9834V28.6035H102.511V36H101.308L101.28 35.2686ZM110.687 32.3838C110.687 33.5094 110.429 34.4163 109.914 35.1045C109.399 35.7926 108.702 36.1367 107.822 36.1367C106.924 36.1367 106.218 35.8519 105.703 35.2822V38.8438H104.438V28.6035H105.594L105.655 29.4238C106.17 28.7858 106.886 28.4668 107.802 28.4668C108.69 28.4668 109.392 28.8018 109.907 29.4717C110.427 30.1416 110.687 31.0736 110.687 32.2676V32.3838ZM109.422 32.2402C109.422 31.4062 109.244 30.7477 108.889 30.2646C108.533 29.7816 108.046 29.54 107.426 29.54C106.66 29.54 106.086 29.8796 105.703 30.5586V34.0928C106.081 34.7673 106.66 35.1045 107.439 35.1045C108.046 35.1045 108.526 34.8652 108.882 34.3867C109.242 33.9036 109.422 33.1882 109.422 32.2402ZM117.488 26.8125V28.6035H118.869V29.5811H117.488V34.168C117.488 34.4642 117.55 34.6875 117.673 34.8379C117.796 34.9837 118.006 35.0566 118.302 35.0566C118.448 35.0566 118.648 35.0293 118.903 34.9746V36C118.571 36.0911 118.247 36.1367 117.933 36.1367C117.368 36.1367 116.941 35.9658 116.654 35.624C116.367 35.2822 116.224 34.7969 116.224 34.168V29.5811H114.877V28.6035H116.224V26.8125H117.488ZM119.881 32.2334C119.881 31.5088 120.022 30.8571 120.305 30.2783C120.592 29.6995 120.988 29.2529 121.494 28.9385C122.005 28.624 122.586 28.4668 123.237 28.4668C124.244 28.4668 125.058 28.8154 125.678 29.5127C126.302 30.21 126.614 31.1374 126.614 32.2949V32.3838C126.614 33.1038 126.475 33.751 126.197 34.3252C125.924 34.8949 125.53 35.3392 125.015 35.6582C124.504 35.9772 123.916 36.1367 123.251 36.1367C122.248 36.1367 121.435 35.7881 120.811 35.0908C120.191 34.3936 119.881 33.4707 119.881 32.3223V32.2334ZM121.152 32.3838C121.152 33.2041 121.341 33.8626 121.72 34.3594C122.103 34.8561 122.613 35.1045 123.251 35.1045C123.894 35.1045 124.404 34.8538 124.782 34.3525C125.16 33.8467 125.35 33.1403 125.35 32.2334C125.35 31.4222 125.156 30.766 124.769 30.2646C124.386 29.7588 123.875 29.5059 123.237 29.5059C122.613 29.5059 122.109 29.7542 121.727 30.251C121.344 30.7477 121.152 31.4587 121.152 32.3838Z" fill="black"/>
<path d="M80.0117 92H75.2852V69.168L68.3125 71.5508V67.5469L79.4062 63.4648H80.0117V92ZM108.43 80.0273C108.43 84.1159 107.661 87.2018 106.125 89.2852C104.602 91.3555 102.277 92.3906 99.1523 92.3906C96.0794 92.3906 93.7617 91.3815 92.1992 89.3633C90.6497 87.332 89.8555 84.3307 89.8164 80.3594V75.4375C89.8164 71.349 90.5781 68.2826 92.1016 66.2383C93.638 64.194 95.9753 63.1719 99.1133 63.1719C102.225 63.1719 104.543 64.168 106.066 66.1602C107.603 68.1523 108.391 71.1341 108.43 75.1055V80.0273ZM103.684 74.7148C103.684 72.0456 103.319 70.0924 102.59 68.8555C101.861 67.6055 100.702 66.9805 99.1133 66.9805C97.5638 66.9805 96.4245 67.5729 95.6953 68.7578C94.9661 69.9297 94.582 71.7656 94.543 74.2656V80.7109C94.543 83.3672 94.9141 85.3464 95.6562 86.6484C96.3984 87.9505 97.5638 88.6016 99.1523 88.6016C100.676 88.6016 101.802 88.0026 102.531 86.8047C103.26 85.5938 103.645 83.7057 103.684 81.1406V74.7148ZM131.164 80.0273C131.164 84.1159 130.396 87.2018 128.859 89.2852C127.336 91.3555 125.012 92.3906 121.887 92.3906C118.814 92.3906 116.496 91.3815 114.934 89.3633C113.384 87.332 112.59 84.3307 112.551 80.3594V75.4375C112.551 71.349 113.312 68.2826 114.836 66.2383C116.372 64.194 118.71 63.1719 121.848 63.1719C124.96 63.1719 127.277 64.168 128.801 66.1602C130.337 68.1523 131.125 71.1341 131.164 75.1055V80.0273ZM126.418 74.7148C126.418 72.0456 126.053 70.0924 125.324 68.8555C124.595 67.6055 123.436 66.9805 121.848 66.9805C120.298 66.9805 119.159 67.5729 118.43 68.7578C117.701 69.9297 117.316 71.7656 117.277 74.2656V80.7109C117.277 83.3672 117.648 85.3464 118.391 86.6484C119.133 87.9505 120.298 88.6016 121.887 88.6016C123.41 88.6016 124.536 88.0026 125.266 86.8047C125.995 85.5938 126.379 83.7057 126.418 81.1406V74.7148ZM153.898 80.0273C153.898 84.1159 153.13 87.2018 151.594 89.2852C150.07 91.3555 147.746 92.3906 144.621 92.3906C141.548 92.3906 139.23 91.3815 137.668 89.3633C136.118 87.332 135.324 84.3307 135.285 80.3594V75.4375C135.285 71.349 136.047 68.2826 137.57 66.2383C139.107 64.194 141.444 63.1719 144.582 63.1719C147.694 63.1719 150.012 64.168 151.535 66.1602C153.072 68.1523 153.859 71.1341 153.898 75.1055V80.0273ZM149.152 74.7148C149.152 72.0456 148.788 70.0924 148.059 68.8555C147.329 67.6055 146.171 66.9805 144.582 66.9805C143.033 66.9805 141.893 67.5729 141.164 68.7578C140.435 69.9297 140.051 71.7656 140.012 74.2656V80.7109C140.012 83.3672 140.383 85.3464 141.125 86.6484C141.867 87.9505 143.033 88.6016 144.621 88.6016C146.145 88.6016 147.271 88.0026 148 86.8047C148.729 85.5938 149.113 83.7057 149.152 81.1406V74.7148Z" fill="#00C7A5"/>
<path d="M44.1807 147.391C44.04 148.594 43.5947 149.523 42.8447 150.18C42.0999 150.831 41.1077 151.156 39.8682 151.156C38.5244 151.156 37.4463 150.674 36.6338 149.711C35.8265 148.747 35.4229 147.458 35.4229 145.844V144.75C35.4229 143.693 35.6104 142.763 35.9854 141.961C36.3656 141.159 36.902 140.544 37.5947 140.117C38.2874 139.685 39.0895 139.469 40.001 139.469C41.2093 139.469 42.1781 139.807 42.9072 140.484C43.6364 141.156 44.0609 142.089 44.1807 143.281H42.6729C42.5426 142.375 42.2588 141.719 41.8213 141.312C41.389 140.906 40.7822 140.703 40.001 140.703C39.0426 140.703 38.29 141.057 37.7432 141.766C37.2015 142.474 36.9307 143.482 36.9307 144.789V145.891C36.9307 147.125 37.1885 148.107 37.7041 148.836C38.2197 149.565 38.9411 149.93 39.8682 149.93C40.7015 149.93 41.3395 149.742 41.7822 149.367C42.2301 148.987 42.527 148.328 42.6729 147.391H44.1807ZM54.9854 145.68C54.9854 146.794 54.7979 147.768 54.4229 148.602C54.0479 149.43 53.5166 150.062 52.8291 150.5C52.1416 150.938 51.3395 151.156 50.4229 151.156C49.527 151.156 48.7327 150.938 48.04 150.5C47.3473 150.057 46.8083 149.43 46.4229 148.617C46.0426 147.799 45.8473 146.854 45.8369 145.781V144.961C45.8369 143.867 46.027 142.901 46.4072 142.062C46.7874 141.224 47.3239 140.583 48.0166 140.141C48.7145 139.693 49.5114 139.469 50.4072 139.469C51.3187 139.469 52.1208 139.69 52.8135 140.133C53.5114 140.57 54.0479 141.208 54.4229 142.047C54.7979 142.88 54.9854 143.852 54.9854 144.961V145.68ZM53.4932 144.945C53.4932 143.596 53.2223 142.562 52.6807 141.844C52.139 141.12 51.3812 140.758 50.4072 140.758C49.4593 140.758 48.7119 141.12 48.165 141.844C47.6234 142.562 47.3447 143.562 47.3291 144.844V145.68C47.3291 146.987 47.6025 148.016 48.1494 148.766C48.7015 149.51 49.4593 149.883 50.4229 149.883C51.3916 149.883 52.1416 149.531 52.6729 148.828C53.2041 148.12 53.4775 147.107 53.4932 145.789V144.945ZM60.811 153.08H56.299V152.216L58.139 150.424C58.5764 150.008 58.9017 149.672 59.115 149.416C59.339 149.149 59.4884 148.915 59.563 148.712C59.6484 148.499 59.691 148.275 59.691 148.04C59.691 147.699 59.5897 147.443 59.387 147.272C59.195 147.101 58.939 147.016 58.619 147.016C58.299 147.016 58.0057 147.08 57.739 147.208C57.483 147.325 57.2164 147.491 56.939 147.704L56.379 146.968C56.6884 146.701 57.0244 146.488 57.387 146.328C57.7604 146.168 58.1764 146.088 58.635 146.088C59.3177 146.088 59.851 146.259 60.235 146.6C60.6297 146.931 60.827 147.389 60.827 147.976C60.827 148.499 60.667 148.968 60.347 149.384C60.0377 149.8 59.5844 150.291 58.987 150.856L57.691 152.088H60.811V153.08ZM68.1416 151H66.6963V142.547H68.1416V151ZM66.5791 140.305C66.5791 140.07 66.6494 139.872 66.79 139.711C66.9359 139.549 67.1494 139.469 67.4307 139.469C67.7119 139.469 67.9255 139.549 68.0713 139.711C68.2171 139.872 68.29 140.07 68.29 140.305C68.29 140.539 68.2171 140.734 68.0713 140.891C67.9255 141.047 67.7119 141.125 67.4307 141.125C67.1494 141.125 66.9359 141.047 66.79 140.891C66.6494 140.734 66.5791 140.539 66.5791 140.305ZM75.3838 148.758C75.3838 148.367 75.2354 148.065 74.9385 147.852C74.6468 147.633 74.1338 147.445 73.3994 147.289C72.6702 147.133 72.0895 146.945 71.6572 146.727C71.2301 146.508 70.9124 146.247 70.7041 145.945C70.501 145.643 70.3994 145.284 70.3994 144.867C70.3994 144.174 70.6911 143.589 71.2744 143.109C71.863 142.63 72.613 142.391 73.5244 142.391C74.4827 142.391 75.2588 142.638 75.8525 143.133C76.4515 143.628 76.751 144.26 76.751 145.031H75.2979C75.2979 144.635 75.1286 144.294 74.79 144.008C74.4567 143.721 74.0348 143.578 73.5244 143.578C72.9984 143.578 72.5869 143.693 72.29 143.922C71.9932 144.151 71.8447 144.451 71.8447 144.82C71.8447 145.169 71.9827 145.432 72.2588 145.609C72.5348 145.786 73.0322 145.956 73.751 146.117C74.4749 146.279 75.0609 146.471 75.5088 146.695C75.9567 146.919 76.2874 147.19 76.501 147.508C76.7197 147.82 76.8291 148.203 76.8291 148.656C76.8291 149.411 76.527 150.018 75.9229 150.477C75.3187 150.93 74.5348 151.156 73.5713 151.156C72.8942 151.156 72.2952 151.036 71.7744 150.797C71.2536 150.557 70.8447 150.224 70.5479 149.797C70.2562 149.365 70.1104 148.898 70.1104 148.398H71.5557C71.5817 148.883 71.7744 149.268 72.1338 149.555C72.4984 149.836 72.9775 149.977 73.5713 149.977C74.1182 149.977 74.5557 149.867 74.8838 149.648C75.2171 149.424 75.3838 149.128 75.3838 148.758ZM84.6416 140.5V142.547H86.2197V143.664H84.6416V148.906C84.6416 149.245 84.7119 149.5 84.8525 149.672C84.9932 149.839 85.2327 149.922 85.5713 149.922C85.738 149.922 85.9671 149.891 86.2588 149.828V151C85.8786 151.104 85.5088 151.156 85.1494 151.156C84.5036 151.156 84.0166 150.961 83.6885 150.57C83.3604 150.18 83.1963 149.625 83.1963 148.906V143.664H81.6572V142.547H83.1963V140.5H84.6416ZM93.1338 151C93.0505 150.833 92.9827 150.536 92.9307 150.109C92.2588 150.807 91.4567 151.156 90.5244 151.156C89.6911 151.156 89.0062 150.922 88.4697 150.453C87.9385 149.979 87.6729 149.38 87.6729 148.656C87.6729 147.776 88.0062 147.094 88.6729 146.609C89.3447 146.12 90.2874 145.875 91.501 145.875H92.9072V145.211C92.9072 144.706 92.7562 144.305 92.4541 144.008C92.152 143.706 91.7067 143.555 91.1182 143.555C90.6025 143.555 90.1702 143.685 89.8213 143.945C89.4723 144.206 89.2979 144.521 89.2979 144.891H87.8447C87.8447 144.469 87.9932 144.062 88.29 143.672C88.5921 143.276 88.9984 142.964 89.5088 142.734C90.0244 142.505 90.5895 142.391 91.2041 142.391C92.1781 142.391 92.9411 142.635 93.4932 143.125C94.0452 143.609 94.3317 144.279 94.3525 145.133V149.023C94.3525 149.799 94.4515 150.417 94.6494 150.875V151H93.1338ZM90.7354 149.898C91.1885 149.898 91.6182 149.781 92.0244 149.547C92.4307 149.312 92.7249 149.008 92.9072 148.633V146.898H91.7744C90.0036 146.898 89.1182 147.417 89.1182 148.453C89.1182 148.906 89.2692 149.26 89.5713 149.516C89.8734 149.771 90.2614 149.898 90.7354 149.898ZM98.9775 147.086L98.0713 148.031V151H96.626V139H98.0713V146.258L98.8447 145.328L101.478 142.547H103.235L99.9463 146.078L103.618 151H101.923L98.9775 147.086ZM108.079 151.156C106.933 151.156 106.001 150.781 105.282 150.031C104.563 149.276 104.204 148.268 104.204 147.008V146.742C104.204 145.904 104.363 145.156 104.681 144.5C105.004 143.839 105.451 143.323 106.024 142.953C106.603 142.578 107.228 142.391 107.899 142.391C108.998 142.391 109.853 142.753 110.462 143.477C111.071 144.201 111.376 145.237 111.376 146.586V147.188H105.649C105.67 148.021 105.912 148.695 106.376 149.211C106.845 149.721 107.438 149.977 108.157 149.977C108.668 149.977 109.1 149.872 109.454 149.664C109.808 149.456 110.118 149.18 110.384 148.836L111.267 149.523C110.558 150.612 109.496 151.156 108.079 151.156ZM107.899 143.578C107.316 143.578 106.826 143.792 106.431 144.219C106.035 144.641 105.79 145.234 105.696 146H109.931V145.891C109.889 145.156 109.691 144.589 109.337 144.188C108.983 143.781 108.504 143.578 107.899 143.578ZM114.423 142.547L114.47 143.609C115.116 142.797 115.959 142.391 117.001 142.391C118.787 142.391 119.688 143.398 119.704 145.414V151H118.259V145.406C118.254 144.797 118.113 144.346 117.837 144.055C117.566 143.763 117.142 143.617 116.563 143.617C116.095 143.617 115.683 143.742 115.329 143.992C114.975 144.242 114.699 144.57 114.501 144.977V151H113.056V142.547H114.423ZM131.071 150.164C130.509 150.826 129.683 151.156 128.595 151.156C127.694 151.156 127.006 150.896 126.532 150.375C126.063 149.849 125.826 149.073 125.821 148.047V142.547H127.267V148.008C127.267 149.289 127.787 149.93 128.829 149.93C129.933 149.93 130.668 149.518 131.032 148.695V142.547H132.478V151H131.103L131.071 150.164ZM141.821 146.867C141.821 148.154 141.527 149.19 140.938 149.977C140.35 150.763 139.553 151.156 138.548 151.156C137.522 151.156 136.715 150.831 136.126 150.18V154.25H134.681V142.547H136.001L136.071 143.484C136.66 142.755 137.478 142.391 138.524 142.391C139.54 142.391 140.342 142.773 140.931 143.539C141.524 144.305 141.821 145.37 141.821 146.734V146.867ZM140.376 146.703C140.376 145.75 140.173 144.997 139.767 144.445C139.36 143.893 138.803 143.617 138.095 143.617C137.22 143.617 136.563 144.005 136.126 144.781V148.82C136.558 149.591 137.22 149.977 138.11 149.977C138.803 149.977 139.353 149.703 139.759 149.156C140.17 148.604 140.376 147.786 140.376 146.703ZM154.79 146.867C154.79 148.159 154.493 149.198 153.899 149.984C153.306 150.766 152.509 151.156 151.509 151.156C150.441 151.156 149.616 150.779 149.032 150.023L148.962 151H147.634V139H149.079V143.477C149.662 142.753 150.467 142.391 151.493 142.391C152.519 142.391 153.324 142.779 153.907 143.555C154.496 144.331 154.79 145.393 154.79 146.742V146.867ZM153.345 146.703C153.345 145.719 153.155 144.958 152.774 144.422C152.394 143.885 151.847 143.617 151.134 143.617C150.181 143.617 149.496 144.06 149.079 144.945V148.602C149.522 149.487 150.212 149.93 151.149 149.93C151.842 149.93 152.381 149.661 152.767 149.125C153.152 148.589 153.345 147.781 153.345 146.703ZM159.29 148.883L161.259 142.547H162.806L159.407 152.305C158.881 153.711 158.045 154.414 156.899 154.414L156.626 154.391L156.087 154.289V153.117L156.478 153.148C156.967 153.148 157.347 153.049 157.618 152.852C157.894 152.654 158.121 152.292 158.298 151.766L158.618 150.906L155.603 142.547H157.181L159.29 148.883ZM170.032 140.5V142.547H171.61V143.664H170.032V148.906C170.032 149.245 170.103 149.5 170.243 149.672C170.384 149.839 170.623 149.922 170.962 149.922C171.129 149.922 171.358 149.891 171.649 149.828V151C171.269 151.104 170.899 151.156 170.54 151.156C169.894 151.156 169.407 150.961 169.079 150.57C168.751 150.18 168.587 149.625 168.587 148.906V143.664H167.048V142.547H168.587V140.5H170.032ZM174.751 143.57C175.392 142.784 176.225 142.391 177.251 142.391C179.037 142.391 179.938 143.398 179.954 145.414V151H178.509V145.406C178.504 144.797 178.363 144.346 178.087 144.055C177.816 143.763 177.392 143.617 176.813 143.617C176.345 143.617 175.933 143.742 175.579 143.992C175.225 144.242 174.949 144.57 174.751 144.977V151H173.306V139H174.751V143.57ZM185.626 151.156C184.48 151.156 183.548 150.781 182.829 150.031C182.11 149.276 181.751 148.268 181.751 147.008V146.742C181.751 145.904 181.91 145.156 182.228 144.5C182.55 143.839 182.998 143.323 183.571 142.953C184.149 142.578 184.774 142.391 185.446 142.391C186.545 142.391 187.399 142.753 188.009 143.477C188.618 144.201 188.923 145.237 188.923 146.586V147.188H183.196C183.217 148.021 183.459 148.695 183.923 149.211C184.392 149.721 184.985 149.977 185.704 149.977C186.215 149.977 186.647 149.872 187.001 149.664C187.355 149.456 187.665 149.18 187.931 148.836L188.813 149.523C188.105 150.612 187.043 151.156 185.626 151.156ZM185.446 143.578C184.863 143.578 184.373 143.792 183.978 144.219C183.582 144.641 183.337 145.234 183.243 146H187.478V145.891C187.436 145.156 187.238 144.589 186.884 144.188C186.53 143.781 186.05 143.578 185.446 143.578ZM26.0635 165.695C26.0635 164.867 26.2249 164.122 26.5479 163.461C26.876 162.799 27.3291 162.289 27.9072 161.93C28.4906 161.57 29.1546 161.391 29.8994 161.391C31.0505 161.391 31.9801 161.789 32.6885 162.586C33.402 163.383 33.7588 164.443 33.7588 165.766V165.867C33.7588 166.69 33.5999 167.43 33.2822 168.086C32.9697 168.737 32.5192 169.245 31.9307 169.609C31.3473 169.974 30.6755 170.156 29.915 170.156C28.7692 170.156 27.8395 169.758 27.126 168.961C26.4176 168.164 26.0635 167.109 26.0635 165.797V165.695ZM27.5166 165.867C27.5166 166.805 27.7327 167.557 28.165 168.125C28.6025 168.693 29.1859 168.977 29.915 168.977C30.6494 168.977 31.2327 168.69 31.665 168.117C32.0973 167.539 32.3135 166.732 32.3135 165.695C32.3135 164.768 32.0921 164.018 31.6494 163.445C31.2119 162.867 30.6286 162.578 29.8994 162.578C29.1859 162.578 28.6104 162.862 28.1729 163.43C27.7354 163.997 27.5166 164.81 27.5166 165.867ZM38.9619 168.977C39.4775 168.977 39.9281 168.82 40.3135 168.508C40.6989 168.195 40.9124 167.805 40.9541 167.336H42.3213C42.2952 167.82 42.1286 168.281 41.8213 168.719C41.514 169.156 41.1025 169.505 40.5869 169.766C40.0765 170.026 39.5348 170.156 38.9619 170.156C37.8109 170.156 36.8942 169.773 36.2119 169.008C35.5348 168.237 35.1963 167.185 35.1963 165.852V165.609C35.1963 164.786 35.3473 164.055 35.6494 163.414C35.9515 162.773 36.3838 162.276 36.9463 161.922C37.514 161.568 38.1833 161.391 38.9541 161.391C39.902 161.391 40.6885 161.674 41.3135 162.242C41.9437 162.81 42.2796 163.547 42.3213 164.453H40.9541C40.9124 163.906 40.7041 163.458 40.3291 163.109C39.9593 162.755 39.501 162.578 38.9541 162.578C38.2197 162.578 37.6494 162.844 37.2432 163.375C36.8421 163.901 36.6416 164.664 36.6416 165.664V165.938C36.6416 166.911 36.8421 167.661 37.2432 168.188C37.6442 168.714 38.2171 168.977 38.9619 168.977ZM47.4541 170.156C46.3083 170.156 45.376 169.781 44.6572 169.031C43.9385 168.276 43.5791 167.268 43.5791 166.008V165.742C43.5791 164.904 43.738 164.156 44.0557 163.5C44.3786 162.839 44.8265 162.323 45.3994 161.953C45.9775 161.578 46.6025 161.391 47.2744 161.391C48.3734 161.391 49.2275 161.753 49.8369 162.477C50.4463 163.201 50.751 164.237 50.751 165.586V166.188H45.0244C45.0452 167.021 45.2874 167.695 45.751 168.211C46.2197 168.721 46.8135 168.977 47.5322 168.977C48.0426 168.977 48.4749 168.872 48.8291 168.664C49.1833 168.456 49.4932 168.18 49.7588 167.836L50.6416 168.523C49.9333 169.612 48.8708 170.156 47.4541 170.156ZM47.2744 162.578C46.6911 162.578 46.2015 162.792 45.8057 163.219C45.4098 163.641 45.165 164.234 45.0713 165H49.3057V164.891C49.264 164.156 49.0661 163.589 48.7119 163.188C48.3577 162.781 47.8786 162.578 47.2744 162.578ZM57.6494 170C57.5661 169.833 57.4984 169.536 57.4463 169.109C56.7744 169.807 55.9723 170.156 55.04 170.156C54.2067 170.156 53.5218 169.922 52.9854 169.453C52.4541 168.979 52.1885 168.38 52.1885 167.656C52.1885 166.776 52.5218 166.094 53.1885 165.609C53.8604 165.12 54.8031 164.875 56.0166 164.875H57.4229V164.211C57.4229 163.706 57.2718 163.305 56.9697 163.008C56.6676 162.706 56.2223 162.555 55.6338 162.555C55.1182 162.555 54.6859 162.685 54.3369 162.945C53.988 163.206 53.8135 163.521 53.8135 163.891H52.3604C52.3604 163.469 52.5088 163.062 52.8057 162.672C53.1077 162.276 53.514 161.964 54.0244 161.734C54.54 161.505 55.1051 161.391 55.7197 161.391C56.6937 161.391 57.4567 161.635 58.0088 162.125C58.5609 162.609 58.8473 163.279 58.8682 164.133V168.023C58.8682 168.799 58.9671 169.417 59.165 169.875V170H57.6494ZM55.251 168.898C55.7041 168.898 56.1338 168.781 56.54 168.547C56.9463 168.312 57.2406 168.008 57.4229 167.633V165.898H56.29C54.5192 165.898 53.6338 166.417 53.6338 167.453C53.6338 167.906 53.7848 168.26 54.0869 168.516C54.389 168.771 54.777 168.898 55.251 168.898ZM62.501 161.547L62.5479 162.609C63.1937 161.797 64.0374 161.391 65.0791 161.391C66.8656 161.391 67.7666 162.398 67.7822 164.414V170H66.3369V164.406C66.3317 163.797 66.1911 163.346 65.915 163.055C65.6442 162.763 65.2197 162.617 64.6416 162.617C64.1729 162.617 63.7614 162.742 63.4072 162.992C63.0531 163.242 62.777 163.57 62.5791 163.977V170H61.1338V161.547H62.501ZM74.8838 167.758C74.8838 167.367 74.7354 167.065 74.4385 166.852C74.1468 166.633 73.6338 166.445 72.8994 166.289C72.1702 166.133 71.5895 165.945 71.1572 165.727C70.7301 165.508 70.4124 165.247 70.2041 164.945C70.001 164.643 69.8994 164.284 69.8994 163.867C69.8994 163.174 70.1911 162.589 70.7744 162.109C71.363 161.63 72.113 161.391 73.0244 161.391C73.9827 161.391 74.7588 161.638 75.3525 162.133C75.9515 162.628 76.251 163.26 76.251 164.031H74.7979C74.7979 163.635 74.6286 163.294 74.29 163.008C73.9567 162.721 73.5348 162.578 73.0244 162.578C72.4984 162.578 72.0869 162.693 71.79 162.922C71.4932 163.151 71.3447 163.451 71.3447 163.82C71.3447 164.169 71.4827 164.432 71.7588 164.609C72.0348 164.786 72.5322 164.956 73.251 165.117C73.9749 165.279 74.5609 165.471 75.0088 165.695C75.4567 165.919 75.7874 166.19 76.001 166.508C76.2197 166.82 76.3291 167.203 76.3291 167.656C76.3291 168.411 76.027 169.018 75.4229 169.477C74.8187 169.93 74.0348 170.156 73.0713 170.156C72.3942 170.156 71.7952 170.036 71.2744 169.797C70.7536 169.557 70.3447 169.224 70.0479 168.797C69.7562 168.365 69.6104 167.898 69.6104 167.398H71.0557C71.0817 167.883 71.2744 168.268 71.6338 168.555C71.9984 168.836 72.4775 168.977 73.0713 168.977C73.6182 168.977 74.0557 168.867 74.3838 168.648C74.7171 168.424 74.8838 168.128 74.8838 167.758ZM87.3994 170C87.3161 169.833 87.2484 169.536 87.1963 169.109C86.5244 169.807 85.7223 170.156 84.79 170.156C83.9567 170.156 83.2718 169.922 82.7354 169.453C82.2041 168.979 81.9385 168.38 81.9385 167.656C81.9385 166.776 82.2718 166.094 82.9385 165.609C83.6104 165.12 84.5531 164.875 85.7666 164.875H87.1729V164.211C87.1729 163.706 87.0218 163.305 86.7197 163.008C86.4176 162.706 85.9723 162.555 85.3838 162.555C84.8682 162.555 84.4359 162.685 84.0869 162.945C83.738 163.206 83.5635 163.521 83.5635 163.891H82.1104C82.1104 163.469 82.2588 163.062 82.5557 162.672C82.8577 162.276 83.264 161.964 83.7744 161.734C84.29 161.505 84.8551 161.391 85.4697 161.391C86.4437 161.391 87.2067 161.635 87.7588 162.125C88.3109 162.609 88.5973 163.279 88.6182 164.133V168.023C88.6182 168.799 88.7171 169.417 88.915 169.875V170H87.3994ZM85.001 168.898C85.4541 168.898 85.8838 168.781 86.29 168.547C86.6963 168.312 86.9906 168.008 87.1729 167.633V165.898H86.04C84.2692 165.898 83.3838 166.417 83.3838 167.453C83.3838 167.906 83.5348 168.26 83.8369 168.516C84.139 168.771 84.527 168.898 85.001 168.898ZM92.251 161.547L92.2979 162.609C92.9437 161.797 93.7874 161.391 94.8291 161.391C96.6156 161.391 97.5166 162.398 97.5322 164.414V170H96.0869V164.406C96.0817 163.797 95.9411 163.346 95.665 163.055C95.3942 162.763 94.9697 162.617 94.3916 162.617C93.9229 162.617 93.5114 162.742 93.1572 162.992C92.8031 163.242 92.527 163.57 92.3291 163.977V170H90.8838V161.547H92.251ZM99.3604 165.703C99.3604 164.406 99.6676 163.365 100.282 162.578C100.897 161.786 101.701 161.391 102.696 161.391C103.686 161.391 104.47 161.729 105.048 162.406V158H106.493V170H105.165L105.095 169.094C104.517 169.802 103.712 170.156 102.681 170.156C101.701 170.156 100.902 169.755 100.282 168.953C99.6676 168.151 99.3604 167.104 99.3604 165.812V165.703ZM100.806 165.867C100.806 166.826 101.004 167.576 101.399 168.117C101.795 168.659 102.342 168.93 103.04 168.93C103.957 168.93 104.626 168.518 105.048 167.695V163.812C104.616 163.016 103.951 162.617 103.056 162.617C102.347 162.617 101.795 162.891 101.399 163.438C101.004 163.984 100.806 164.794 100.806 165.867ZM116.22 170.156C115.074 170.156 114.142 169.781 113.423 169.031C112.704 168.276 112.345 167.268 112.345 166.008V165.742C112.345 164.904 112.504 164.156 112.821 163.5C113.144 162.839 113.592 162.323 114.165 161.953C114.743 161.578 115.368 161.391 116.04 161.391C117.139 161.391 117.993 161.753 118.603 162.477C119.212 163.201 119.517 164.237 119.517 165.586V166.188H113.79C113.811 167.021 114.053 167.695 114.517 168.211C114.985 168.721 115.579 168.977 116.298 168.977C116.808 168.977 117.241 168.872 117.595 168.664C117.949 168.456 118.259 168.18 118.524 167.836L119.407 168.523C118.699 169.612 117.636 170.156 116.22 170.156ZM116.04 162.578C115.457 162.578 114.967 162.792 114.571 163.219C114.175 163.641 113.931 164.234 113.837 165H118.071V164.891C118.03 164.156 117.832 163.589 117.478 163.188C117.123 162.781 116.644 162.578 116.04 162.578ZM124.032 164.633L125.907 161.547H127.595L124.829 165.727L127.681 170H126.009L124.056 166.836L122.103 170H120.423L123.274 165.727L120.509 161.547H122.181L124.032 164.633ZM131.095 159.5V161.547H132.673V162.664H131.095V167.906C131.095 168.245 131.165 168.5 131.306 168.672C131.446 168.839 131.686 168.922 132.024 168.922C132.191 168.922 132.42 168.891 132.712 168.828V170C132.332 170.104 131.962 170.156 131.603 170.156C130.957 170.156 130.47 169.961 130.142 169.57C129.813 169.18 129.649 168.625 129.649 167.906V162.664H128.11V161.547H129.649V159.5H131.095ZM138.454 162.844C138.235 162.807 137.998 162.789 137.743 162.789C136.795 162.789 136.152 163.193 135.813 164V170H134.368V161.547H135.774L135.798 162.523C136.272 161.768 136.944 161.391 137.813 161.391C138.095 161.391 138.308 161.427 138.454 161.5V162.844ZM144.696 170C144.613 169.833 144.545 169.536 144.493 169.109C143.821 169.807 143.019 170.156 142.087 170.156C141.254 170.156 140.569 169.922 140.032 169.453C139.501 168.979 139.235 168.38 139.235 167.656C139.235 166.776 139.569 166.094 140.235 165.609C140.907 165.12 141.85 164.875 143.063 164.875H144.47V164.211C144.47 163.706 144.319 163.305 144.017 163.008C143.715 162.706 143.269 162.555 142.681 162.555C142.165 162.555 141.733 162.685 141.384 162.945C141.035 163.206 140.86 163.521 140.86 163.891H139.407C139.407 163.469 139.556 163.062 139.853 162.672C140.155 162.276 140.561 161.964 141.071 161.734C141.587 161.505 142.152 161.391 142.767 161.391C143.741 161.391 144.504 161.635 145.056 162.125C145.608 162.609 145.894 163.279 145.915 164.133V168.023C145.915 168.799 146.014 169.417 146.212 169.875V170H144.696ZM142.298 168.898C142.751 168.898 143.181 168.781 143.587 168.547C143.993 168.312 144.287 168.008 144.47 167.633V165.898H143.337C141.566 165.898 140.681 166.417 140.681 167.453C140.681 167.906 140.832 168.26 141.134 168.516C141.436 168.771 141.824 168.898 142.298 168.898ZM151.571 168.977C152.087 168.977 152.537 168.82 152.923 168.508C153.308 168.195 153.522 167.805 153.563 167.336H154.931C154.905 167.82 154.738 168.281 154.431 168.719C154.123 169.156 153.712 169.505 153.196 169.766C152.686 170.026 152.144 170.156 151.571 170.156C150.42 170.156 149.504 169.773 148.821 169.008C148.144 168.237 147.806 167.185 147.806 165.852V165.609C147.806 164.786 147.957 164.055 148.259 163.414C148.561 162.773 148.993 162.276 149.556 161.922C150.123 161.568 150.793 161.391 151.563 161.391C152.511 161.391 153.298 161.674 153.923 162.242C154.553 162.81 154.889 163.547 154.931 164.453H153.563C153.522 163.906 153.313 163.458 152.938 163.109C152.569 162.755 152.11 162.578 151.563 162.578C150.829 162.578 150.259 162.844 149.853 163.375C149.451 163.901 149.251 164.664 149.251 165.664V165.938C149.251 166.911 149.451 167.661 149.853 168.188C150.254 168.714 150.826 168.977 151.571 168.977ZM158.517 159.5V161.547H160.095V162.664H158.517V167.906C158.517 168.245 158.587 168.5 158.728 168.672C158.868 168.839 159.108 168.922 159.446 168.922C159.613 168.922 159.842 168.891 160.134 168.828V170C159.754 170.104 159.384 170.156 159.024 170.156C158.379 170.156 157.892 169.961 157.563 169.57C157.235 169.18 157.071 168.625 157.071 167.906V162.664H155.532V161.547H157.071V159.5H158.517ZM165.298 170.156C164.152 170.156 163.22 169.781 162.501 169.031C161.782 168.276 161.423 167.268 161.423 166.008V165.742C161.423 164.904 161.582 164.156 161.899 163.5C162.222 162.839 162.67 162.323 163.243 161.953C163.821 161.578 164.446 161.391 165.118 161.391C166.217 161.391 167.071 161.753 167.681 162.477C168.29 163.201 168.595 164.237 168.595 165.586V166.188H162.868C162.889 167.021 163.131 167.695 163.595 168.211C164.063 168.721 164.657 168.977 165.376 168.977C165.886 168.977 166.319 168.872 166.673 168.664C167.027 168.456 167.337 168.18 167.603 167.836L168.485 168.523C167.777 169.612 166.715 170.156 165.298 170.156ZM165.118 162.578C164.535 162.578 164.045 162.792 163.649 163.219C163.254 163.641 163.009 164.234 162.915 165H167.149V164.891C167.108 164.156 166.91 163.589 166.556 163.188C166.201 162.781 165.722 162.578 165.118 162.578ZM169.923 165.703C169.923 164.406 170.23 163.365 170.845 162.578C171.459 161.786 172.264 161.391 173.259 161.391C174.248 161.391 175.032 161.729 175.61 162.406V158H177.056V170H175.728L175.657 169.094C175.079 169.802 174.274 170.156 173.243 170.156C172.264 170.156 171.465 169.755 170.845 168.953C170.23 168.151 169.923 167.104 169.923 165.812V165.703ZM171.368 165.867C171.368 166.826 171.566 167.576 171.962 168.117C172.358 168.659 172.905 168.93 173.603 168.93C174.519 168.93 175.188 168.518 175.61 167.695V163.812C175.178 163.016 174.514 162.617 173.618 162.617C172.91 162.617 172.358 162.891 171.962 163.438C171.566 163.984 171.368 164.794 171.368 165.867ZM190.431 165.867C190.431 167.159 190.134 168.198 189.54 168.984C188.946 169.766 188.149 170.156 187.149 170.156C186.082 170.156 185.256 169.779 184.673 169.023L184.603 170H183.274V158H184.72V162.477C185.303 161.753 186.108 161.391 187.134 161.391C188.16 161.391 188.965 161.779 189.548 162.555C190.136 163.331 190.431 164.393 190.431 165.742V165.867ZM188.985 165.703C188.985 164.719 188.795 163.958 188.415 163.422C188.035 162.885 187.488 162.617 186.774 162.617C185.821 162.617 185.136 163.06 184.72 163.945V167.602C185.162 168.487 185.853 168.93 186.79 168.93C187.483 168.93 188.022 168.661 188.407 168.125C188.793 167.589 188.985 166.781 188.985 165.703ZM194.931 167.883L196.899 161.547H198.446L195.048 171.305C194.522 172.711 193.686 173.414 192.54 173.414L192.267 173.391L191.728 173.289V172.117L192.118 172.148C192.608 172.148 192.988 172.049 193.259 171.852C193.535 171.654 193.761 171.292 193.938 170.766L194.259 169.906L191.243 161.547H192.821L194.931 167.883ZM41.9697 184.867C41.9697 186.154 41.6755 187.19 41.0869 187.977C40.4984 188.763 39.7015 189.156 38.6963 189.156C37.6702 189.156 36.863 188.831 36.2744 188.18V192.25H34.8291V180.547H36.1494L36.2197 181.484C36.8083 180.755 37.626 180.391 38.6729 180.391C39.6885 180.391 40.4906 180.773 41.0791 181.539C41.6729 182.305 41.9697 183.37 41.9697 184.734V184.867ZM40.5244 184.703C40.5244 183.75 40.3213 182.997 39.915 182.445C39.5088 181.893 38.9515 181.617 38.2432 181.617C37.3682 181.617 36.7119 182.005 36.2744 182.781V186.82C36.7067 187.591 37.3682 187.977 38.2588 187.977C38.9515 187.977 39.501 187.703 39.9072 187.156C40.3187 186.604 40.5244 185.786 40.5244 184.703ZM45.3838 189H43.9385V177H45.3838V189ZM52.9229 189C52.8395 188.833 52.7718 188.536 52.7197 188.109C52.0479 188.807 51.2458 189.156 50.3135 189.156C49.4801 189.156 48.7952 188.922 48.2588 188.453C47.7275 187.979 47.4619 187.38 47.4619 186.656C47.4619 185.776 47.7952 185.094 48.4619 184.609C49.1338 184.12 50.0765 183.875 51.29 183.875H52.6963V183.211C52.6963 182.706 52.5452 182.305 52.2432 182.008C51.9411 181.706 51.4958 181.555 50.9072 181.555C50.3916 181.555 49.9593 181.685 49.6104 181.945C49.2614 182.206 49.0869 182.521 49.0869 182.891H47.6338C47.6338 182.469 47.7822 182.062 48.0791 181.672C48.3812 181.276 48.7874 180.964 49.2979 180.734C49.8135 180.505 50.3786 180.391 50.9932 180.391C51.9671 180.391 52.7301 180.635 53.2822 181.125C53.8343 181.609 54.1208 182.279 54.1416 183.133V187.023C54.1416 187.799 54.2406 188.417 54.4385 188.875V189H52.9229ZM50.5244 187.898C50.9775 187.898 51.4072 187.781 51.8135 187.547C52.2197 187.312 52.514 187.008 52.6963 186.633V184.898H51.5635C49.7926 184.898 48.9072 185.417 48.9072 186.453C48.9072 186.906 49.0583 187.26 49.3604 187.516C49.6624 187.771 50.0505 187.898 50.5244 187.898ZM57.7744 180.547L57.8213 181.609C58.4671 180.797 59.3109 180.391 60.3525 180.391C62.139 180.391 63.04 181.398 63.0557 183.414V189H61.6104V183.406C61.6051 182.797 61.4645 182.346 61.1885 182.055C60.9176 181.763 60.4932 181.617 59.915 181.617C59.4463 181.617 59.0348 181.742 58.6807 181.992C58.3265 182.242 58.0505 182.57 57.8525 182.977V189H56.4072V180.547H57.7744ZM67.1963 178.5V180.547H68.7744V181.664H67.1963V186.906C67.1963 187.245 67.2666 187.5 67.4072 187.672C67.5479 187.839 67.7874 187.922 68.126 187.922C68.2926 187.922 68.5218 187.891 68.8135 187.828V189C68.4333 189.104 68.0635 189.156 67.7041 189.156C67.0583 189.156 66.5713 188.961 66.2432 188.57C65.915 188.18 65.751 187.625 65.751 186.906V181.664H64.2119V180.547H65.751V178.5H67.1963ZM75.3916 186.758C75.3916 186.367 75.2432 186.065 74.9463 185.852C74.6546 185.633 74.1416 185.445 73.4072 185.289C72.6781 185.133 72.0973 184.945 71.665 184.727C71.238 184.508 70.9202 184.247 70.7119 183.945C70.5088 183.643 70.4072 183.284 70.4072 182.867C70.4072 182.174 70.6989 181.589 71.2822 181.109C71.8708 180.63 72.6208 180.391 73.5322 180.391C74.4906 180.391 75.2666 180.638 75.8604 181.133C76.4593 181.628 76.7588 182.26 76.7588 183.031H75.3057C75.3057 182.635 75.1364 182.294 74.7979 182.008C74.4645 181.721 74.0426 181.578 73.5322 181.578C73.0062 181.578 72.5947 181.693 72.2979 181.922C72.001 182.151 71.8525 182.451 71.8525 182.82C71.8525 183.169 71.9906 183.432 72.2666 183.609C72.5426 183.786 73.04 183.956 73.7588 184.117C74.4827 184.279 75.0687 184.471 75.5166 184.695C75.9645 184.919 76.2952 185.19 76.5088 185.508C76.7275 185.82 76.8369 186.203 76.8369 186.656C76.8369 187.411 76.5348 188.018 75.9307 188.477C75.3265 188.93 74.5426 189.156 73.5791 189.156C72.902 189.156 72.3031 189.036 71.7822 188.797C71.2614 188.557 70.8525 188.224 70.5557 187.797C70.264 187.365 70.1182 186.898 70.1182 186.398H71.5635C71.5895 186.883 71.7822 187.268 72.1416 187.555C72.5062 187.836 72.9854 187.977 73.5791 187.977C74.126 187.977 74.5635 187.867 74.8916 187.648C75.2249 187.424 75.3916 187.128 75.3916 186.758ZM82.3838 185.945C82.3838 185.398 82.5348 184.896 82.8369 184.438C83.1442 183.979 83.7275 183.445 84.5869 182.836C84.0817 182.221 83.7432 181.727 83.5713 181.352C83.3994 180.977 83.3135 180.604 83.3135 180.234C83.3135 179.37 83.5687 178.693 84.0791 178.203C84.5895 177.714 85.2822 177.469 86.1572 177.469C86.9385 177.469 87.5843 177.698 88.0947 178.156C88.6051 178.609 88.8604 179.182 88.8604 179.875C88.8604 180.333 88.7432 180.758 88.5088 181.148C88.2796 181.534 87.876 181.94 87.2979 182.367L86.4619 182.984L88.9932 186.008C89.3473 185.331 89.5244 184.578 89.5244 183.75H90.8291C90.8291 185.078 90.5088 186.18 89.8682 187.055L91.4932 189H89.7588L89.001 188.102C88.6156 188.445 88.1624 188.708 87.6416 188.891C87.126 189.068 86.5999 189.156 86.0635 189.156C84.9541 189.156 84.0635 188.862 83.3916 188.273C82.7197 187.685 82.3838 186.909 82.3838 185.945ZM86.0635 187.977C86.8291 187.977 87.5296 187.685 88.165 187.102L85.3916 183.781L85.1338 183.969C84.264 184.609 83.8291 185.268 83.8291 185.945C83.8291 186.56 84.027 187.052 84.4229 187.422C84.8239 187.792 85.3708 187.977 86.0635 187.977ZM84.7588 180.188C84.7588 180.688 85.0661 181.312 85.6807 182.062L86.6025 181.414C86.9567 181.164 87.1989 180.927 87.3291 180.703C87.4593 180.474 87.5244 180.198 87.5244 179.875C87.5244 179.526 87.3942 179.237 87.1338 179.008C86.8734 178.773 86.5452 178.656 86.1494 178.656C85.7223 178.656 85.3838 178.802 85.1338 179.094C84.8838 179.38 84.7588 179.745 84.7588 180.188ZM98.5713 178.5V180.547H100.149V181.664H98.5713V186.906C98.5713 187.245 98.6416 187.5 98.7822 187.672C98.9229 187.839 99.1624 187.922 99.501 187.922C99.6676 187.922 99.8968 187.891 100.188 187.828V189C99.8083 189.104 99.4385 189.156 99.0791 189.156C98.4333 189.156 97.9463 188.961 97.6182 188.57C97.29 188.18 97.126 187.625 97.126 186.906V181.664H95.5869V180.547H97.126V178.5H98.5713ZM105.931 181.844C105.712 181.807 105.475 181.789 105.22 181.789C104.272 181.789 103.629 182.193 103.29 183V189H101.845V180.547H103.251L103.274 181.523C103.748 180.768 104.42 180.391 105.29 180.391C105.571 180.391 105.785 180.427 105.931 180.5V181.844ZM110.618 189.156C109.472 189.156 108.54 188.781 107.821 188.031C107.103 187.276 106.743 186.268 106.743 185.008V184.742C106.743 183.904 106.902 183.156 107.22 182.5C107.543 181.839 107.991 181.323 108.563 180.953C109.142 180.578 109.767 180.391 110.438 180.391C111.537 180.391 112.392 180.753 113.001 181.477C113.61 182.201 113.915 183.237 113.915 184.586V185.188H108.188C108.209 186.021 108.451 186.695 108.915 187.211C109.384 187.721 109.978 187.977 110.696 187.977C111.207 187.977 111.639 187.872 111.993 187.664C112.347 187.456 112.657 187.18 112.923 186.836L113.806 187.523C113.097 188.612 112.035 189.156 110.618 189.156ZM110.438 181.578C109.855 181.578 109.366 181.792 108.97 182.219C108.574 182.641 108.329 183.234 108.235 184H112.47V183.891C112.428 183.156 112.23 182.589 111.876 182.188C111.522 181.781 111.043 181.578 110.438 181.578ZM119.103 189.156C117.957 189.156 117.024 188.781 116.306 188.031C115.587 187.276 115.228 186.268 115.228 185.008V184.742C115.228 183.904 115.386 183.156 115.704 182.5C116.027 181.839 116.475 181.323 117.048 180.953C117.626 180.578 118.251 180.391 118.923 180.391C120.022 180.391 120.876 180.753 121.485 181.477C122.095 182.201 122.399 183.237 122.399 184.586V185.188H116.673C116.694 186.021 116.936 186.695 117.399 187.211C117.868 187.721 118.462 187.977 119.181 187.977C119.691 187.977 120.123 187.872 120.478 187.664C120.832 187.456 121.142 187.18 121.407 186.836L122.29 187.523C121.582 188.612 120.519 189.156 119.103 189.156ZM118.923 181.578C118.34 181.578 117.85 181.792 117.454 182.219C117.058 182.641 116.813 183.234 116.72 184H120.954V183.891C120.912 183.156 120.715 182.589 120.36 182.188C120.006 181.781 119.527 181.578 118.923 181.578ZM129.001 186.758C129.001 186.367 128.853 186.065 128.556 185.852C128.264 185.633 127.751 185.445 127.017 185.289C126.287 185.133 125.707 184.945 125.274 184.727C124.847 184.508 124.53 184.247 124.321 183.945C124.118 183.643 124.017 183.284 124.017 182.867C124.017 182.174 124.308 181.589 124.892 181.109C125.48 180.63 126.23 180.391 127.142 180.391C128.1 180.391 128.876 180.638 129.47 181.133C130.069 181.628 130.368 182.26 130.368 183.031H128.915C128.915 182.635 128.746 182.294 128.407 182.008C128.074 181.721 127.652 181.578 127.142 181.578C126.616 181.578 126.204 181.693 125.907 181.922C125.61 182.151 125.462 182.451 125.462 182.82C125.462 183.169 125.6 183.432 125.876 183.609C126.152 183.786 126.649 183.956 127.368 184.117C128.092 184.279 128.678 184.471 129.126 184.695C129.574 184.919 129.905 185.19 130.118 185.508C130.337 185.82 130.446 186.203 130.446 186.656C130.446 187.411 130.144 188.018 129.54 188.477C128.936 188.93 128.152 189.156 127.188 189.156C126.511 189.156 125.912 189.036 125.392 188.797C124.871 188.557 124.462 188.224 124.165 187.797C123.873 187.365 123.728 186.898 123.728 186.398H125.173C125.199 186.883 125.392 187.268 125.751 187.555C126.116 187.836 126.595 187.977 127.188 187.977C127.735 187.977 128.173 187.867 128.501 187.648C128.834 187.424 129.001 187.128 129.001 186.758ZM138.259 178.5V180.547H139.837V181.664H138.259V186.906C138.259 187.245 138.329 187.5 138.47 187.672C138.61 187.839 138.85 187.922 139.188 187.922C139.355 187.922 139.584 187.891 139.876 187.828V189C139.496 189.104 139.126 189.156 138.767 189.156C138.121 189.156 137.634 188.961 137.306 188.57C136.978 188.18 136.813 187.625 136.813 186.906V181.664H135.274V180.547H136.813V178.5H138.259ZM142.978 181.57C143.618 180.784 144.451 180.391 145.478 180.391C147.264 180.391 148.165 181.398 148.181 183.414V189H146.735V183.406C146.73 182.797 146.59 182.346 146.313 182.055C146.043 181.763 145.618 181.617 145.04 181.617C144.571 181.617 144.16 181.742 143.806 181.992C143.451 182.242 143.175 182.57 142.978 182.977V189H141.532V177H142.978V181.57ZM154.431 181.844C154.212 181.807 153.975 181.789 153.72 181.789C152.772 181.789 152.129 182.193 151.79 183V189H150.345V180.547H151.751L151.774 181.523C152.248 180.768 152.92 180.391 153.79 180.391C154.071 180.391 154.285 180.427 154.431 180.5V181.844ZM155.228 184.695C155.228 183.867 155.389 183.122 155.712 182.461C156.04 181.799 156.493 181.289 157.071 180.93C157.655 180.57 158.319 180.391 159.063 180.391C160.215 180.391 161.144 180.789 161.853 181.586C162.566 182.383 162.923 183.443 162.923 184.766V184.867C162.923 185.69 162.764 186.43 162.446 187.086C162.134 187.737 161.683 188.245 161.095 188.609C160.511 188.974 159.84 189.156 159.079 189.156C157.933 189.156 157.004 188.758 156.29 187.961C155.582 187.164 155.228 186.109 155.228 184.797V184.695ZM156.681 184.867C156.681 185.805 156.897 186.557 157.329 187.125C157.767 187.693 158.35 187.977 159.079 187.977C159.813 187.977 160.397 187.69 160.829 187.117C161.261 186.539 161.478 185.732 161.478 184.695C161.478 183.768 161.256 183.018 160.813 182.445C160.376 181.867 159.793 181.578 159.063 181.578C158.35 181.578 157.774 181.862 157.337 182.43C156.899 182.997 156.681 183.81 156.681 184.867ZM169.954 188.164C169.392 188.826 168.566 189.156 167.478 189.156C166.576 189.156 165.889 188.896 165.415 188.375C164.946 187.849 164.709 187.073 164.704 186.047V180.547H166.149V186.008C166.149 187.289 166.67 187.93 167.712 187.93C168.816 187.93 169.55 187.518 169.915 186.695V180.547H171.36V189H169.985L169.954 188.164ZM173.22 184.703C173.22 183.385 173.524 182.339 174.134 181.562C174.743 180.781 175.55 180.391 176.556 180.391C177.587 180.391 178.392 180.755 178.97 181.484L179.04 180.547H180.36V188.797C180.36 189.891 180.035 190.753 179.384 191.383C178.738 192.013 177.868 192.328 176.774 192.328C176.165 192.328 175.569 192.198 174.985 191.938C174.402 191.677 173.957 191.32 173.649 190.867L174.399 190C175.019 190.766 175.777 191.148 176.673 191.148C177.376 191.148 177.923 190.951 178.313 190.555C178.709 190.159 178.907 189.602 178.907 188.883V188.156C178.329 188.823 177.54 189.156 176.54 189.156C175.55 189.156 174.748 188.758 174.134 187.961C173.524 187.164 173.22 186.078 173.22 184.703ZM174.673 184.867C174.673 185.82 174.868 186.57 175.259 187.117C175.649 187.659 176.196 187.93 176.899 187.93C177.811 187.93 178.48 187.516 178.907 186.688V182.828C178.465 182.021 177.8 181.617 176.915 181.617C176.212 181.617 175.662 181.891 175.267 182.438C174.871 182.984 174.673 183.794 174.673 184.867ZM183.993 181.57C184.634 180.784 185.467 180.391 186.493 180.391C188.28 180.391 189.181 181.398 189.196 183.414V189H187.751V183.406C187.746 182.797 187.605 182.346 187.329 182.055C187.058 181.763 186.634 181.617 186.056 181.617C185.587 181.617 185.175 181.742 184.821 181.992C184.467 182.242 184.191 182.57 183.993 182.977V189H182.548V177H183.993V181.57ZM63.7744 203.867C63.7744 205.154 63.4801 206.19 62.8916 206.977C62.3031 207.763 61.5062 208.156 60.501 208.156C59.4749 208.156 58.6676 207.831 58.0791 207.18V211.25H56.6338V199.547H57.9541L58.0244 200.484C58.613 199.755 59.4307 199.391 60.4775 199.391C61.4932 199.391 62.2952 199.773 62.8838 200.539C63.4775 201.305 63.7744 202.37 63.7744 203.734V203.867ZM62.3291 203.703C62.3291 202.75 62.126 201.997 61.7197 201.445C61.3135 200.893 60.7562 200.617 60.0479 200.617C59.1729 200.617 58.5166 201.005 58.0791 201.781V205.82C58.5114 206.591 59.1729 206.977 60.0635 206.977C60.7562 206.977 61.3057 206.703 61.7119 206.156C62.1234 205.604 62.3291 204.786 62.3291 203.703ZM67.0635 200.57C67.7041 199.784 68.5374 199.391 69.5635 199.391C71.3499 199.391 72.251 200.398 72.2666 202.414V208H70.8213V202.406C70.8161 201.797 70.6755 201.346 70.3994 201.055C70.1286 200.763 69.7041 200.617 69.126 200.617C68.6572 200.617 68.2458 200.742 67.8916 200.992C67.5374 201.242 67.2614 201.57 67.0635 201.977V208H65.6182V196H67.0635V200.57ZM74.0479 203.695C74.0479 202.867 74.2093 202.122 74.5322 201.461C74.8604 200.799 75.3135 200.289 75.8916 199.93C76.4749 199.57 77.139 199.391 77.8838 199.391C79.0348 199.391 79.9645 199.789 80.6729 200.586C81.3864 201.383 81.7432 202.443 81.7432 203.766V203.867C81.7432 204.69 81.5843 205.43 81.2666 206.086C80.9541 206.737 80.5036 207.245 79.915 207.609C79.3317 207.974 78.6598 208.156 77.8994 208.156C76.7536 208.156 75.8239 207.758 75.1104 206.961C74.402 206.164 74.0479 205.109 74.0479 203.797V203.695ZM75.501 203.867C75.501 204.805 75.7171 205.557 76.1494 206.125C76.5869 206.693 77.1702 206.977 77.8994 206.977C78.6338 206.977 79.2171 206.69 79.6494 206.117C80.0817 205.539 80.2979 204.732 80.2979 203.695C80.2979 202.768 80.0765 202.018 79.6338 201.445C79.1963 200.867 78.613 200.578 77.8838 200.578C77.1702 200.578 76.5947 200.862 76.1572 201.43C75.7197 201.997 75.501 202.81 75.501 203.867ZM85.5166 197.5V199.547H87.0947V200.664H85.5166V205.906C85.5166 206.245 85.5869 206.5 85.7275 206.672C85.8682 206.839 86.1077 206.922 86.4463 206.922C86.613 206.922 86.8421 206.891 87.1338 206.828V208C86.7536 208.104 86.3838 208.156 86.0244 208.156C85.3786 208.156 84.8916 207.961 84.5635 207.57C84.2354 207.18 84.0713 206.625 84.0713 205.906V200.664H82.5322V199.547H84.0713V197.5H85.5166ZM88.251 203.695C88.251 202.867 88.4124 202.122 88.7354 201.461C89.0635 200.799 89.5166 200.289 90.0947 199.93C90.6781 199.57 91.3421 199.391 92.0869 199.391C93.238 199.391 94.1676 199.789 94.876 200.586C95.5895 201.383 95.9463 202.443 95.9463 203.766V203.867C95.9463 204.69 95.7874 205.43 95.4697 206.086C95.1572 206.737 94.7067 207.245 94.1182 207.609C93.5348 207.974 92.863 208.156 92.1025 208.156C90.9567 208.156 90.027 207.758 89.3135 206.961C88.6051 206.164 88.251 205.109 88.251 203.797V203.695ZM89.7041 203.867C89.7041 204.805 89.9202 205.557 90.3525 206.125C90.79 206.693 91.3734 206.977 92.1025 206.977C92.8369 206.977 93.4202 206.69 93.8525 206.117C94.2848 205.539 94.501 204.732 94.501 203.695C94.501 202.768 94.2796 202.018 93.8369 201.445C93.3994 200.867 92.8161 200.578 92.0869 200.578C91.3734 200.578 90.7979 200.862 90.3604 201.43C89.9229 201.997 89.7041 202.81 89.7041 203.867ZM102.681 205.758C102.681 205.367 102.532 205.065 102.235 204.852C101.944 204.633 101.431 204.445 100.696 204.289C99.9671 204.133 99.3864 203.945 98.9541 203.727C98.527 203.508 98.2093 203.247 98.001 202.945C97.7979 202.643 97.6963 202.284 97.6963 201.867C97.6963 201.174 97.988 200.589 98.5713 200.109C99.1598 199.63 99.9098 199.391 100.821 199.391C101.78 199.391 102.556 199.638 103.149 200.133C103.748 200.628 104.048 201.26 104.048 202.031H102.595C102.595 201.635 102.425 201.294 102.087 201.008C101.754 200.721 101.332 200.578 100.821 200.578C100.295 200.578 99.8838 200.693 99.5869 200.922C99.29 201.151 99.1416 201.451 99.1416 201.82C99.1416 202.169 99.2796 202.432 99.5557 202.609C99.8317 202.786 100.329 202.956 101.048 203.117C101.772 203.279 102.358 203.471 102.806 203.695C103.254 203.919 103.584 204.19 103.798 204.508C104.017 204.82 104.126 205.203 104.126 205.656C104.126 206.411 103.824 207.018 103.22 207.477C102.616 207.93 101.832 208.156 100.868 208.156C100.191 208.156 99.5921 208.036 99.0713 207.797C98.5505 207.557 98.1416 207.224 97.8447 206.797C97.5531 206.365 97.4072 205.898 97.4072 205.398H98.8525C98.8786 205.883 99.0713 206.268 99.4307 206.555C99.7952 206.836 100.274 206.977 100.868 206.977C101.415 206.977 101.853 206.867 102.181 206.648C102.514 206.424 102.681 206.128 102.681 205.758ZM108.774 205.883L110.743 199.547H112.29L108.892 209.305C108.366 210.711 107.53 211.414 106.384 211.414L106.11 211.391L105.571 211.289V210.117L105.962 210.148C106.451 210.148 106.832 210.049 107.103 209.852C107.379 209.654 107.605 209.292 107.782 208.766L108.103 207.906L105.087 199.547H106.665L108.774 205.883ZM114.954 199.547L115.001 200.609C115.647 199.797 116.491 199.391 117.532 199.391C119.319 199.391 120.22 200.398 120.235 202.414V208H118.79V202.406C118.785 201.797 118.644 201.346 118.368 201.055C118.097 200.763 117.673 200.617 117.095 200.617C116.626 200.617 116.215 200.742 115.86 200.992C115.506 201.242 115.23 201.57 115.032 201.977V208H113.587V199.547H114.954ZM124.376 197.5V199.547H125.954V200.664H124.376V205.906C124.376 206.245 124.446 206.5 124.587 206.672C124.728 206.839 124.967 206.922 125.306 206.922C125.472 206.922 125.701 206.891 125.993 206.828V208C125.613 208.104 125.243 208.156 124.884 208.156C124.238 208.156 123.751 207.961 123.423 207.57C123.095 207.18 122.931 206.625 122.931 205.906V200.664H121.392V199.547H122.931V197.5H124.376ZM129.095 200.57C129.735 199.784 130.569 199.391 131.595 199.391C133.381 199.391 134.282 200.398 134.298 202.414V208H132.853V202.406C132.847 201.797 132.707 201.346 132.431 201.055C132.16 200.763 131.735 200.617 131.157 200.617C130.688 200.617 130.277 200.742 129.923 200.992C129.569 201.242 129.293 201.57 129.095 201.977V208H127.649V196H129.095V200.57ZM139.97 208.156C138.824 208.156 137.892 207.781 137.173 207.031C136.454 206.276 136.095 205.268 136.095 204.008V203.742C136.095 202.904 136.254 202.156 136.571 201.5C136.894 200.839 137.342 200.323 137.915 199.953C138.493 199.578 139.118 199.391 139.79 199.391C140.889 199.391 141.743 199.753 142.353 200.477C142.962 201.201 143.267 202.237 143.267 203.586V204.188H137.54C137.561 205.021 137.803 205.695 138.267 206.211C138.735 206.721 139.329 206.977 140.048 206.977C140.558 206.977 140.991 206.872 141.345 206.664C141.699 206.456 142.009 206.18 142.274 205.836L143.157 206.523C142.449 207.612 141.386 208.156 139.97 208.156ZM139.79 200.578C139.207 200.578 138.717 200.792 138.321 201.219C137.925 201.641 137.681 202.234 137.587 203H141.821V202.891C141.78 202.156 141.582 201.589 141.228 201.188C140.873 200.781 140.394 200.578 139.79 200.578ZM149.868 205.758C149.868 205.367 149.72 205.065 149.423 204.852C149.131 204.633 148.618 204.445 147.884 204.289C147.155 204.133 146.574 203.945 146.142 203.727C145.715 203.508 145.397 203.247 145.188 202.945C144.985 202.643 144.884 202.284 144.884 201.867C144.884 201.174 145.175 200.589 145.759 200.109C146.347 199.63 147.097 199.391 148.009 199.391C148.967 199.391 149.743 199.638 150.337 200.133C150.936 200.628 151.235 201.26 151.235 202.031H149.782C149.782 201.635 149.613 201.294 149.274 201.008C148.941 200.721 148.519 200.578 148.009 200.578C147.483 200.578 147.071 200.693 146.774 200.922C146.478 201.151 146.329 201.451 146.329 201.82C146.329 202.169 146.467 202.432 146.743 202.609C147.019 202.786 147.517 202.956 148.235 203.117C148.959 203.279 149.545 203.471 149.993 203.695C150.441 203.919 150.772 204.19 150.985 204.508C151.204 204.82 151.313 205.203 151.313 205.656C151.313 206.411 151.011 207.018 150.407 207.477C149.803 207.93 149.019 208.156 148.056 208.156C147.379 208.156 146.78 208.036 146.259 207.797C145.738 207.557 145.329 207.224 145.032 206.797C144.741 206.365 144.595 205.898 144.595 205.398H146.04C146.066 205.883 146.259 206.268 146.618 206.555C146.983 206.836 147.462 206.977 148.056 206.977C148.603 206.977 149.04 206.867 149.368 206.648C149.701 206.424 149.868 206.128 149.868 205.758ZM154.767 208H153.321V199.547H154.767V208ZM153.204 197.305C153.204 197.07 153.274 196.872 153.415 196.711C153.561 196.549 153.774 196.469 154.056 196.469C154.337 196.469 154.55 196.549 154.696 196.711C154.842 196.872 154.915 197.07 154.915 197.305C154.915 197.539 154.842 197.734 154.696 197.891C154.55 198.047 154.337 198.125 154.056 198.125C153.774 198.125 153.561 198.047 153.415 197.891C153.274 197.734 153.204 197.539 153.204 197.305ZM162.009 205.758C162.009 205.367 161.86 205.065 161.563 204.852C161.272 204.633 160.759 204.445 160.024 204.289C159.295 204.133 158.715 203.945 158.282 203.727C157.855 203.508 157.537 203.247 157.329 202.945C157.126 202.643 157.024 202.284 157.024 201.867C157.024 201.174 157.316 200.589 157.899 200.109C158.488 199.63 159.238 199.391 160.149 199.391C161.108 199.391 161.884 199.638 162.478 200.133C163.076 200.628 163.376 201.26 163.376 202.031H161.923C161.923 201.635 161.754 201.294 161.415 201.008C161.082 200.721 160.66 200.578 160.149 200.578C159.623 200.578 159.212 200.693 158.915 200.922C158.618 201.151 158.47 201.451 158.47 201.82C158.47 202.169 158.608 202.432 158.884 202.609C159.16 202.786 159.657 202.956 160.376 203.117C161.1 203.279 161.686 203.471 162.134 203.695C162.582 203.919 162.912 204.19 163.126 204.508C163.345 204.82 163.454 205.203 163.454 205.656C163.454 206.411 163.152 207.018 162.548 207.477C161.944 207.93 161.16 208.156 160.196 208.156C159.519 208.156 158.92 208.036 158.399 207.797C157.879 207.557 157.47 207.224 157.173 206.797C156.881 206.365 156.735 205.898 156.735 205.398H158.181C158.207 205.883 158.399 206.268 158.759 206.555C159.123 206.836 159.603 206.977 160.196 206.977C160.743 206.977 161.181 206.867 161.509 206.648C161.842 206.424 162.009 206.128 162.009 205.758ZM165.368 207.242C165.368 206.992 165.441 206.784 165.587 206.617C165.738 206.451 165.962 206.367 166.259 206.367C166.556 206.367 166.78 206.451 166.931 206.617C167.087 206.784 167.165 206.992 167.165 207.242C167.165 207.482 167.087 207.682 166.931 207.844C166.78 208.005 166.556 208.086 166.259 208.086C165.962 208.086 165.738 208.005 165.587 207.844C165.441 207.682 165.368 207.482 165.368 207.242Z" fill="black"/>
</svg>
