<svg width="222" height="194" viewBox="0 0 222 194" fill="none" xmlns="http://www.w3.org/2000/svg">
<path d="M89.0879 115.969L91.751 110.203H94.6338L90.4326 118.359V123H87.752V118.359L83.5508 110.203H86.4424L89.0879 115.969ZM103.502 117.454H98.4395V120.882H104.381V123H95.8027V110.203H104.363V112.339H98.4395V115.389H103.502V117.454ZM113.152 120.363H108.529L107.65 123H104.847L109.61 110.203H112.054L116.844 123H114.04L113.152 120.363ZM109.241 118.228H112.44L110.832 113.438L109.241 118.228ZM122.776 118.315H120.676V123H118.039V110.203H122.794C124.306 110.203 125.472 110.54 126.292 111.214C127.112 111.888 127.522 112.84 127.522 114.07C127.522 114.943 127.332 115.673 126.951 116.259C126.576 116.839 126.005 117.302 125.237 117.647L128.006 122.877V123H125.176L122.776 118.315ZM120.676 116.18H122.803C123.465 116.18 123.978 116.013 124.341 115.679C124.704 115.339 124.886 114.873 124.886 114.281C124.886 113.678 124.713 113.203 124.367 112.857C124.027 112.512 123.503 112.339 122.794 112.339H120.676V116.18ZM136.171 119.643C136.171 119.145 135.995 118.764 135.644 118.5C135.292 118.23 134.659 117.949 133.745 117.656C132.831 117.357 132.107 117.064 131.574 116.777C130.121 115.992 129.395 114.935 129.395 113.604C129.395 112.913 129.588 112.298 129.975 111.759C130.367 111.214 130.927 110.789 131.653 110.484C132.386 110.18 133.206 110.027 134.114 110.027C135.028 110.027 135.843 110.194 136.558 110.528C137.272 110.856 137.826 111.322 138.219 111.926C138.617 112.529 138.816 113.215 138.816 113.982H136.18C136.18 113.396 135.995 112.942 135.626 112.62C135.257 112.292 134.738 112.128 134.07 112.128C133.426 112.128 132.925 112.266 132.567 112.541C132.21 112.811 132.031 113.168 132.031 113.613C132.031 114.029 132.239 114.378 132.655 114.659C133.077 114.94 133.695 115.204 134.51 115.45C136.01 115.901 137.103 116.461 137.788 117.129C138.474 117.797 138.816 118.629 138.816 119.625C138.816 120.732 138.397 121.603 137.56 122.235C136.722 122.862 135.594 123.176 134.176 123.176C133.191 123.176 132.295 122.997 131.486 122.64C130.678 122.276 130.06 121.781 129.632 121.154C129.21 120.527 128.999 119.801 128.999 118.975H131.645C131.645 120.387 132.488 121.093 134.176 121.093C134.803 121.093 135.292 120.967 135.644 120.715C135.995 120.457 136.171 120.1 136.171 119.643Z" fill="#202020"/>
<path d="M102.746 92H98.0195V69.168L91.0469 71.5508V67.5469L102.141 63.4648H102.746V92ZM131.75 92H112.629V88.7383L122.102 78.4062C123.469 76.8828 124.439 75.6133 125.012 74.5977C125.598 73.569 125.891 72.5404 125.891 71.5117C125.891 70.1576 125.507 69.0638 124.738 68.2305C123.983 67.3971 122.961 66.9805 121.672 66.9805C120.135 66.9805 118.944 67.4492 118.098 68.3867C117.251 69.3242 116.828 70.6068 116.828 72.2344H112.082C112.082 70.5026 112.473 68.9466 113.254 67.5664C114.048 66.1732 115.174 65.0924 116.633 64.3242C118.104 63.556 119.797 63.1719 121.711 63.1719C124.471 63.1719 126.646 63.8685 128.234 65.2617C129.836 66.6419 130.637 68.556 130.637 71.0039C130.637 72.4232 130.233 73.9141 129.426 75.4766C128.632 77.026 127.323 78.7904 125.5 80.7695L118.547 88.2109H131.75V92Z" fill="#8D75F3"/>
<path d="M30.4453 139.625L34.1641 148.906L37.8828 139.625H39.8281V151H38.3281V146.57L38.4688 141.789L34.7344 151H33.5859L29.8594 141.812L30.0078 146.57V151H28.5078V139.625H30.4453ZM45.7578 151.156C44.612 151.156 43.6797 150.781 42.9609 150.031C42.2422 149.276 41.8828 148.268 41.8828 147.008V146.742C41.8828 145.904 42.0417 145.156 42.3594 144.5C42.6823 143.839 43.1302 143.323 43.7031 142.953C44.2812 142.578 44.9062 142.391 45.5781 142.391C46.6771 142.391 47.5312 142.753 48.1406 143.477C48.75 144.201 49.0547 145.237 49.0547 146.586V147.188H43.3281C43.349 148.021 43.5911 148.695 44.0547 149.211C44.5234 149.721 45.1172 149.977 45.8359 149.977C46.3464 149.977 46.7786 149.872 47.1328 149.664C47.487 149.456 47.7969 149.18 48.0625 148.836L48.9453 149.523C48.237 150.612 47.1745 151.156 45.7578 151.156ZM45.5781 143.578C44.9948 143.578 44.5052 143.792 44.1094 144.219C43.7135 144.641 43.4688 145.234 43.375 146H47.6094V145.891C47.5677 145.156 47.3698 144.589 47.0156 144.188C46.6615 143.781 46.1823 143.578 45.5781 143.578ZM52.6953 140.5V142.547H54.2734V143.664H52.6953V148.906C52.6953 149.245 52.7656 149.5 52.9062 149.672C53.0469 149.839 53.2865 149.922 53.625 149.922C53.7917 149.922 54.0208 149.891 54.3125 149.828V151C53.9323 151.104 53.5625 151.156 53.2031 151.156C52.5573 151.156 52.0703 150.961 51.7422 150.57C51.4141 150.18 51.25 149.625 51.25 148.906V143.664H49.7109V142.547H51.25V140.5H52.6953ZM57.4141 143.57C58.0547 142.784 58.888 142.391 59.9141 142.391C61.7005 142.391 62.6016 143.398 62.6172 145.414V151H61.1719V145.406C61.1667 144.797 61.026 144.346 60.75 144.055C60.4792 143.763 60.0547 143.617 59.4766 143.617C59.0078 143.617 58.5964 143.742 58.2422 143.992C57.888 144.242 57.612 144.57 57.4141 144.977V151H55.9688V139H57.4141V143.57ZM70 151C69.9167 150.833 69.849 150.536 69.7969 150.109C69.125 150.807 68.3229 151.156 67.3906 151.156C66.5573 151.156 65.8724 150.922 65.3359 150.453C64.8047 149.979 64.5391 149.38 64.5391 148.656C64.5391 147.776 64.8724 147.094 65.5391 146.609C66.2109 146.12 67.1536 145.875 68.3672 145.875H69.7734V145.211C69.7734 144.706 69.6224 144.305 69.3203 144.008C69.0182 143.706 68.5729 143.555 67.9844 143.555C67.4688 143.555 67.0365 143.685 66.6875 143.945C66.3385 144.206 66.1641 144.521 66.1641 144.891H64.7109C64.7109 144.469 64.8594 144.062 65.1562 143.672C65.4583 143.276 65.8646 142.964 66.375 142.734C66.8906 142.505 67.4557 142.391 68.0703 142.391C69.0443 142.391 69.8073 142.635 70.3594 143.125C70.9115 143.609 71.1979 144.279 71.2188 145.133V149.023C71.2188 149.799 71.3177 150.417 71.5156 150.875V151H70ZM67.6016 149.898C68.0547 149.898 68.4844 149.781 68.8906 149.547C69.2969 149.312 69.5911 149.008 69.7734 148.633V146.898H68.6406C66.8698 146.898 65.9844 147.417 65.9844 148.453C65.9844 148.906 66.1354 149.26 66.4375 149.516C66.7396 149.771 67.1276 149.898 67.6016 149.898ZM74.8516 142.547L74.8984 143.609C75.5443 142.797 76.388 142.391 77.4297 142.391C79.2161 142.391 80.1172 143.398 80.1328 145.414V151H78.6875V145.406C78.6823 144.797 78.5417 144.346 78.2656 144.055C77.9948 143.763 77.5703 143.617 76.9922 143.617C76.5234 143.617 76.112 143.742 75.7578 143.992C75.4036 144.242 75.1276 144.57 74.9297 144.977V151H73.4844V142.547H74.8516ZM85.8203 151.156C84.6745 151.156 83.7422 150.781 83.0234 150.031C82.3047 149.276 81.9453 148.268 81.9453 147.008V146.742C81.9453 145.904 82.1042 145.156 82.4219 144.5C82.7448 143.839 83.1927 143.323 83.7656 142.953C84.3438 142.578 84.9688 142.391 85.6406 142.391C86.7396 142.391 87.5938 142.753 88.2031 143.477C88.8125 144.201 89.1172 145.237 89.1172 146.586V147.188H83.3906C83.4115 148.021 83.6536 148.695 84.1172 149.211C84.5859 149.721 85.1797 149.977 85.8984 149.977C86.4089 149.977 86.8411 149.872 87.1953 149.664C87.5495 149.456 87.8594 149.18 88.125 148.836L89.0078 149.523C88.2995 150.612 87.237 151.156 85.8203 151.156ZM85.6406 143.578C85.0573 143.578 84.5677 143.792 84.1719 144.219C83.776 144.641 83.5312 145.234 83.4375 146H87.6719V145.891C87.6302 145.156 87.4323 144.589 87.0781 144.188C86.724 143.781 86.2448 143.578 85.6406 143.578ZM96.3359 151H94.8906V142.547H96.3359V151ZM94.7734 140.305C94.7734 140.07 94.8438 139.872 94.9844 139.711C95.1302 139.549 95.3438 139.469 95.625 139.469C95.9062 139.469 96.1198 139.549 96.2656 139.711C96.4115 139.872 96.4844 140.07 96.4844 140.305C96.4844 140.539 96.4115 140.734 96.2656 140.891C96.1198 141.047 95.9062 141.125 95.625 141.125C95.3438 141.125 95.1302 141.047 94.9844 140.891C94.8438 140.734 94.7734 140.539 94.7734 140.305ZM103.578 148.758C103.578 148.367 103.43 148.065 103.133 147.852C102.841 147.633 102.328 147.445 101.594 147.289C100.865 147.133 100.284 146.945 99.8516 146.727C99.4245 146.508 99.1068 146.247 98.8984 145.945C98.6953 145.643 98.5938 145.284 98.5938 144.867C98.5938 144.174 98.8854 143.589 99.4688 143.109C100.057 142.63 100.807 142.391 101.719 142.391C102.677 142.391 103.453 142.638 104.047 143.133C104.646 143.628 104.945 144.26 104.945 145.031H103.492C103.492 144.635 103.323 144.294 102.984 144.008C102.651 143.721 102.229 143.578 101.719 143.578C101.193 143.578 100.781 143.693 100.484 143.922C100.188 144.151 100.039 144.451 100.039 144.82C100.039 145.169 100.177 145.432 100.453 145.609C100.729 145.786 101.227 145.956 101.945 146.117C102.669 146.279 103.255 146.471 103.703 146.695C104.151 146.919 104.482 147.19 104.695 147.508C104.914 147.82 105.023 148.203 105.023 148.656C105.023 149.411 104.721 150.018 104.117 150.477C103.513 150.93 102.729 151.156 101.766 151.156C101.089 151.156 100.49 151.036 99.9688 150.797C99.4479 150.557 99.0391 150.224 98.7422 149.797C98.4505 149.365 98.3047 148.898 98.3047 148.398H99.75C99.776 148.883 99.9688 149.268 100.328 149.555C100.693 149.836 101.172 149.977 101.766 149.977C102.312 149.977 102.75 149.867 103.078 149.648C103.411 149.424 103.578 149.128 103.578 148.758ZM110.523 146.703C110.523 145.406 110.831 144.365 111.445 143.578C112.06 142.786 112.865 142.391 113.859 142.391C114.849 142.391 115.633 142.729 116.211 143.406V139H117.656V151H116.328L116.258 150.094C115.68 150.802 114.875 151.156 113.844 151.156C112.865 151.156 112.065 150.755 111.445 149.953C110.831 149.151 110.523 148.104 110.523 146.812V146.703ZM111.969 146.867C111.969 147.826 112.167 148.576 112.562 149.117C112.958 149.659 113.505 149.93 114.203 149.93C115.12 149.93 115.789 149.518 116.211 148.695V144.812C115.779 144.016 115.115 143.617 114.219 143.617C113.51 143.617 112.958 143.891 112.562 144.438C112.167 144.984 111.969 145.794 111.969 146.867ZM123.414 151.156C122.268 151.156 121.336 150.781 120.617 150.031C119.898 149.276 119.539 148.268 119.539 147.008V146.742C119.539 145.904 119.698 145.156 120.016 144.5C120.339 143.839 120.786 143.323 121.359 142.953C121.938 142.578 122.562 142.391 123.234 142.391C124.333 142.391 125.188 142.753 125.797 143.477C126.406 144.201 126.711 145.237 126.711 146.586V147.188H120.984C121.005 148.021 121.247 148.695 121.711 149.211C122.18 149.721 122.773 149.977 123.492 149.977C124.003 149.977 124.435 149.872 124.789 149.664C125.143 149.456 125.453 149.18 125.719 148.836L126.602 149.523C125.893 150.612 124.831 151.156 123.414 151.156ZM123.234 143.578C122.651 143.578 122.161 143.792 121.766 144.219C121.37 144.641 121.125 145.234 121.031 146H125.266V145.891C125.224 145.156 125.026 144.589 124.672 144.188C124.318 143.781 123.839 143.578 123.234 143.578ZM128.047 146.703C128.047 145.385 128.352 144.339 128.961 143.562C129.57 142.781 130.378 142.391 131.383 142.391C132.414 142.391 133.219 142.755 133.797 143.484L133.867 142.547H135.188V150.797C135.188 151.891 134.862 152.753 134.211 153.383C133.565 154.013 132.695 154.328 131.602 154.328C130.992 154.328 130.396 154.198 129.812 153.938C129.229 153.677 128.784 153.32 128.477 152.867L129.227 152C129.846 152.766 130.604 153.148 131.5 153.148C132.203 153.148 132.75 152.951 133.141 152.555C133.536 152.159 133.734 151.602 133.734 150.883V150.156C133.156 150.823 132.367 151.156 131.367 151.156C130.378 151.156 129.576 150.758 128.961 149.961C128.352 149.164 128.047 148.078 128.047 146.703ZM129.5 146.867C129.5 147.82 129.695 148.57 130.086 149.117C130.477 149.659 131.023 149.93 131.727 149.93C132.638 149.93 133.307 149.516 133.734 148.688V144.828C133.292 144.021 132.628 143.617 131.742 143.617C131.039 143.617 130.49 143.891 130.094 144.438C129.698 144.984 129.5 145.794 129.5 146.867ZM141.461 143.844C141.242 143.807 141.005 143.789 140.75 143.789C139.802 143.789 139.159 144.193 138.82 145V151H137.375V142.547H138.781L138.805 143.523C139.279 142.768 139.951 142.391 140.82 142.391C141.102 142.391 141.315 142.427 141.461 142.5V143.844ZM147.703 151C147.62 150.833 147.552 150.536 147.5 150.109C146.828 150.807 146.026 151.156 145.094 151.156C144.26 151.156 143.576 150.922 143.039 150.453C142.508 149.979 142.242 149.38 142.242 148.656C142.242 147.776 142.576 147.094 143.242 146.609C143.914 146.12 144.857 145.875 146.07 145.875H147.477V145.211C147.477 144.706 147.326 144.305 147.023 144.008C146.721 143.706 146.276 143.555 145.688 143.555C145.172 143.555 144.74 143.685 144.391 143.945C144.042 144.206 143.867 144.521 143.867 144.891H142.414C142.414 144.469 142.562 144.062 142.859 143.672C143.161 143.276 143.568 142.964 144.078 142.734C144.594 142.505 145.159 142.391 145.773 142.391C146.747 142.391 147.51 142.635 148.062 143.125C148.615 143.609 148.901 144.279 148.922 145.133V149.023C148.922 149.799 149.021 150.417 149.219 150.875V151H147.703ZM145.305 149.898C145.758 149.898 146.188 149.781 146.594 149.547C147 149.312 147.294 149.008 147.477 148.633V146.898H146.344C144.573 146.898 143.688 147.417 143.688 148.453C143.688 148.906 143.839 149.26 144.141 149.516C144.443 149.771 144.831 149.898 145.305 149.898ZM150.836 146.703C150.836 145.406 151.143 144.365 151.758 143.578C152.372 142.786 153.177 142.391 154.172 142.391C155.161 142.391 155.945 142.729 156.523 143.406V139H157.969V151H156.641L156.57 150.094C155.992 150.802 155.188 151.156 154.156 151.156C153.177 151.156 152.378 150.755 151.758 149.953C151.143 149.151 150.836 148.104 150.836 146.812V146.703ZM152.281 146.867C152.281 147.826 152.479 148.576 152.875 149.117C153.271 149.659 153.818 149.93 154.516 149.93C155.432 149.93 156.102 149.518 156.523 148.695V144.812C156.091 144.016 155.427 143.617 154.531 143.617C153.823 143.617 153.271 143.891 152.875 144.438C152.479 144.984 152.281 145.794 152.281 146.867ZM163.727 151.156C162.581 151.156 161.648 150.781 160.93 150.031C160.211 149.276 159.852 148.268 159.852 147.008V146.742C159.852 145.904 160.01 145.156 160.328 144.5C160.651 143.839 161.099 143.323 161.672 142.953C162.25 142.578 162.875 142.391 163.547 142.391C164.646 142.391 165.5 142.753 166.109 143.477C166.719 144.201 167.023 145.237 167.023 146.586V147.188H161.297C161.318 148.021 161.56 148.695 162.023 149.211C162.492 149.721 163.086 149.977 163.805 149.977C164.315 149.977 164.747 149.872 165.102 149.664C165.456 149.456 165.766 149.18 166.031 148.836L166.914 149.523C166.206 150.612 165.143 151.156 163.727 151.156ZM163.547 143.578C162.964 143.578 162.474 143.792 162.078 144.219C161.682 144.641 161.438 145.234 161.344 146H165.578V145.891C165.536 145.156 165.339 144.589 164.984 144.188C164.63 143.781 164.151 143.578 163.547 143.578ZM168.352 146.703C168.352 145.406 168.659 144.365 169.273 143.578C169.888 142.786 170.693 142.391 171.688 142.391C172.677 142.391 173.461 142.729 174.039 143.406V139H175.484V151H174.156L174.086 150.094C173.508 150.802 172.703 151.156 171.672 151.156C170.693 151.156 169.893 150.755 169.273 149.953C168.659 149.151 168.352 148.104 168.352 146.812V146.703ZM169.797 146.867C169.797 147.826 169.995 148.576 170.391 149.117C170.786 149.659 171.333 149.93 172.031 149.93C172.948 149.93 173.617 149.518 174.039 148.695V144.812C173.607 144.016 172.943 143.617 172.047 143.617C171.339 143.617 170.786 143.891 170.391 144.438C169.995 144.984 169.797 145.794 169.797 146.867ZM183.664 140.5V142.547H185.242V143.664H183.664V148.906C183.664 149.245 183.734 149.5 183.875 149.672C184.016 149.839 184.255 149.922 184.594 149.922C184.76 149.922 184.99 149.891 185.281 149.828V151C184.901 151.104 184.531 151.156 184.172 151.156C183.526 151.156 183.039 150.961 182.711 150.57C182.383 150.18 182.219 149.625 182.219 148.906V143.664H180.68V142.547H182.219V140.5H183.664ZM186.398 146.695C186.398 145.867 186.56 145.122 186.883 144.461C187.211 143.799 187.664 143.289 188.242 142.93C188.826 142.57 189.49 142.391 190.234 142.391C191.385 142.391 192.315 142.789 193.023 143.586C193.737 144.383 194.094 145.443 194.094 146.766V146.867C194.094 147.69 193.935 148.43 193.617 149.086C193.305 149.737 192.854 150.245 192.266 150.609C191.682 150.974 191.01 151.156 190.25 151.156C189.104 151.156 188.174 150.758 187.461 149.961C186.753 149.164 186.398 148.109 186.398 146.797V146.695ZM187.852 146.867C187.852 147.805 188.068 148.557 188.5 149.125C188.938 149.693 189.521 149.977 190.25 149.977C190.984 149.977 191.568 149.69 192 149.117C192.432 148.539 192.648 147.732 192.648 146.695C192.648 145.768 192.427 145.018 191.984 144.445C191.547 143.867 190.964 143.578 190.234 143.578C189.521 143.578 188.945 143.862 188.508 144.43C188.07 144.997 187.852 145.81 187.852 146.867ZM66.7734 168.008L68.3984 161.547H69.8438L67.3828 170H66.2109L64.1562 163.594L62.1562 170H60.9844L58.5312 161.547H59.9688L61.6328 167.875L63.6016 161.547H64.7656L66.7734 168.008ZM76.5391 170C76.4557 169.833 76.388 169.536 76.3359 169.109C75.6641 169.807 74.862 170.156 73.9297 170.156C73.0964 170.156 72.4115 169.922 71.875 169.453C71.3438 168.979 71.0781 168.38 71.0781 167.656C71.0781 166.776 71.4115 166.094 72.0781 165.609C72.75 165.12 73.6927 164.875 74.9062 164.875H76.3125V164.211C76.3125 163.706 76.1615 163.305 75.8594 163.008C75.5573 162.706 75.112 162.555 74.5234 162.555C74.0078 162.555 73.5755 162.685 73.2266 162.945C72.8776 163.206 72.7031 163.521 72.7031 163.891H71.25C71.25 163.469 71.3984 163.062 71.6953 162.672C71.9974 162.276 72.4036 161.964 72.9141 161.734C73.4297 161.505 73.9948 161.391 74.6094 161.391C75.5833 161.391 76.3464 161.635 76.8984 162.125C77.4505 162.609 77.737 163.279 77.7578 164.133V168.023C77.7578 168.799 77.8568 169.417 78.0547 169.875V170H76.5391ZM74.1406 168.898C74.5938 168.898 75.0234 168.781 75.4297 168.547C75.8359 168.312 76.1302 168.008 76.3125 167.633V165.898H75.1797C73.4089 165.898 72.5234 166.417 72.5234 167.453C72.5234 167.906 72.6745 168.26 72.9766 168.516C73.2786 168.771 73.6667 168.898 74.1406 168.898ZM81.9844 159.5V161.547H83.5625V162.664H81.9844V167.906C81.9844 168.245 82.0547 168.5 82.1953 168.672C82.3359 168.839 82.5755 168.922 82.9141 168.922C83.0807 168.922 83.3099 168.891 83.6016 168.828V170C83.2214 170.104 82.8516 170.156 82.4922 170.156C81.8464 170.156 81.3594 169.961 81.0312 169.57C80.7031 169.18 80.5391 168.625 80.5391 167.906V162.664H79V161.547H80.5391V159.5H81.9844ZM88.7656 170.156C87.6198 170.156 86.6875 169.781 85.9688 169.031C85.25 168.276 84.8906 167.268 84.8906 166.008V165.742C84.8906 164.904 85.0495 164.156 85.3672 163.5C85.6901 162.839 86.138 162.323 86.7109 161.953C87.2891 161.578 87.9141 161.391 88.5859 161.391C89.6849 161.391 90.5391 161.753 91.1484 162.477C91.7578 163.201 92.0625 164.237 92.0625 165.586V166.188H86.3359C86.3568 167.021 86.599 167.695 87.0625 168.211C87.5312 168.721 88.125 168.977 88.8438 168.977C89.3542 168.977 89.7865 168.872 90.1406 168.664C90.4948 168.456 90.8047 168.18 91.0703 167.836L91.9531 168.523C91.2448 169.612 90.1823 170.156 88.7656 170.156ZM88.5859 162.578C88.0026 162.578 87.513 162.792 87.1172 163.219C86.7214 163.641 86.4766 164.234 86.3828 165H90.6172V164.891C90.5755 164.156 90.3776 163.589 90.0234 163.188C89.6693 162.781 89.1901 162.578 88.5859 162.578ZM97.8281 162.844C97.6094 162.807 97.3724 162.789 97.1172 162.789C96.1693 162.789 95.526 163.193 95.1875 164V170H93.7422V161.547H95.1484L95.1719 162.523C95.6458 161.768 96.3177 161.391 97.1875 161.391C97.4688 161.391 97.6823 161.427 97.8281 161.5V162.844ZM108.352 170C108.268 169.833 108.201 169.536 108.148 169.109C107.477 169.807 106.674 170.156 105.742 170.156C104.909 170.156 104.224 169.922 103.688 169.453C103.156 168.979 102.891 168.38 102.891 167.656C102.891 166.776 103.224 166.094 103.891 165.609C104.562 165.12 105.505 164.875 106.719 164.875H108.125V164.211C108.125 163.706 107.974 163.305 107.672 163.008C107.37 162.706 106.924 162.555 106.336 162.555C105.82 162.555 105.388 162.685 105.039 162.945C104.69 163.206 104.516 163.521 104.516 163.891H103.062C103.062 163.469 103.211 163.062 103.508 162.672C103.81 162.276 104.216 161.964 104.727 161.734C105.242 161.505 105.807 161.391 106.422 161.391C107.396 161.391 108.159 161.635 108.711 162.125C109.263 162.609 109.549 163.279 109.57 164.133V168.023C109.57 168.799 109.669 169.417 109.867 169.875V170H108.352ZM105.953 168.898C106.406 168.898 106.836 168.781 107.242 168.547C107.648 168.312 107.943 168.008 108.125 167.633V165.898H106.992C105.221 165.898 104.336 166.417 104.336 167.453C104.336 167.906 104.487 168.26 104.789 168.516C105.091 168.771 105.479 168.898 105.953 168.898ZM113.203 161.547L113.25 162.609C113.896 161.797 114.74 161.391 115.781 161.391C117.568 161.391 118.469 162.398 118.484 164.414V170H117.039V164.406C117.034 163.797 116.893 163.346 116.617 163.055C116.346 162.763 115.922 162.617 115.344 162.617C114.875 162.617 114.464 162.742 114.109 162.992C113.755 163.242 113.479 163.57 113.281 163.977V170H111.836V161.547H113.203ZM120.312 165.703C120.312 164.406 120.62 163.365 121.234 162.578C121.849 161.786 122.654 161.391 123.648 161.391C124.638 161.391 125.422 161.729 126 162.406V158H127.445V170H126.117L126.047 169.094C125.469 169.802 124.664 170.156 123.633 170.156C122.654 170.156 121.854 169.755 121.234 168.953C120.62 168.151 120.312 167.104 120.312 165.812V165.703ZM121.758 165.867C121.758 166.826 121.956 167.576 122.352 168.117C122.747 168.659 123.294 168.93 123.992 168.93C124.909 168.93 125.578 168.518 126 167.695V163.812C125.568 163.016 124.904 162.617 124.008 162.617C123.299 162.617 122.747 162.891 122.352 163.438C121.956 163.984 121.758 164.794 121.758 165.867ZM142.258 166.391C142.117 167.594 141.672 168.523 140.922 169.18C140.177 169.831 139.185 170.156 137.945 170.156C136.602 170.156 135.523 169.674 134.711 168.711C133.904 167.747 133.5 166.458 133.5 164.844V163.75C133.5 162.693 133.688 161.763 134.062 160.961C134.443 160.159 134.979 159.544 135.672 159.117C136.365 158.685 137.167 158.469 138.078 158.469C139.286 158.469 140.255 158.807 140.984 159.484C141.714 160.156 142.138 161.089 142.258 162.281H140.75C140.62 161.375 140.336 160.719 139.898 160.312C139.466 159.906 138.859 159.703 138.078 159.703C137.12 159.703 136.367 160.057 135.82 160.766C135.279 161.474 135.008 162.482 135.008 163.789V164.891C135.008 166.125 135.266 167.107 135.781 167.836C136.297 168.565 137.018 168.93 137.945 168.93C138.779 168.93 139.417 168.742 139.859 168.367C140.307 167.987 140.604 167.328 140.75 166.391H142.258ZM153.062 164.68C153.062 165.794 152.875 166.768 152.5 167.602C152.125 168.43 151.594 169.062 150.906 169.5C150.219 169.938 149.417 170.156 148.5 170.156C147.604 170.156 146.81 169.938 146.117 169.5C145.424 169.057 144.885 168.43 144.5 167.617C144.12 166.799 143.924 165.854 143.914 164.781V163.961C143.914 162.867 144.104 161.901 144.484 161.062C144.865 160.224 145.401 159.583 146.094 159.141C146.792 158.693 147.589 158.469 148.484 158.469C149.396 158.469 150.198 158.69 150.891 159.133C151.589 159.57 152.125 160.208 152.5 161.047C152.875 161.88 153.062 162.852 153.062 163.961V164.68ZM151.57 163.945C151.57 162.596 151.299 161.562 150.758 160.844C150.216 160.12 149.458 159.758 148.484 159.758C147.536 159.758 146.789 160.12 146.242 160.844C145.701 161.562 145.422 162.562 145.406 163.844V164.68C145.406 165.987 145.68 167.016 146.227 167.766C146.779 168.51 147.536 168.883 148.5 168.883C149.469 168.883 150.219 168.531 150.75 167.828C151.281 167.12 151.555 166.107 151.57 164.789V163.945ZM158.888 172.08H154.376V171.216L156.216 169.424C156.654 169.008 156.979 168.672 157.192 168.416C157.416 168.149 157.566 167.915 157.64 167.712C157.726 167.499 157.768 167.275 157.768 167.04C157.768 166.699 157.667 166.443 157.464 166.272C157.272 166.101 157.016 166.016 156.696 166.016C156.376 166.016 156.083 166.08 155.816 166.208C155.56 166.325 155.294 166.491 155.016 166.704L154.456 165.968C154.766 165.701 155.102 165.488 155.464 165.328C155.838 165.168 156.254 165.088 156.712 165.088C157.395 165.088 157.928 165.259 158.312 165.6C158.707 165.931 158.904 166.389 158.904 166.976C158.904 167.499 158.744 167.968 158.424 168.384C158.115 168.8 157.662 169.291 157.064 169.856L155.768 171.088H158.888V172.08ZM160.711 169.242C160.711 168.992 160.784 168.784 160.93 168.617C161.081 168.451 161.305 168.367 161.602 168.367C161.898 168.367 162.122 168.451 162.273 168.617C162.43 168.784 162.508 168.992 162.508 169.242C162.508 169.482 162.43 169.682 162.273 169.844C162.122 170.005 161.898 170.086 161.602 170.086C161.305 170.086 161.081 170.005 160.93 169.844C160.784 169.682 160.711 169.482 160.711 169.242Z" fill="black"/>
</svg>
