<svg width="222" height="190" viewBox="0 0 222 190" fill="none" xmlns="http://www.w3.org/2000/svg">
<path d="M89.0879 115.969L91.751 110.203H94.6338L90.4326 118.359V123H87.752V118.359L83.5508 110.203H86.4424L89.0879 115.969ZM103.502 117.454H98.4395V120.882H104.381V123H95.8027V110.203H104.363V112.339H98.4395V115.389H103.502V117.454ZM113.152 120.363H108.529L107.65 123H104.847L109.61 110.203H112.054L116.844 123H114.04L113.152 120.363ZM109.241 118.228H112.44L110.832 113.438L109.241 118.228ZM122.776 118.315H120.676V123H118.039V110.203H122.794C124.306 110.203 125.472 110.54 126.292 111.214C127.112 111.888 127.522 112.84 127.522 114.07C127.522 114.943 127.332 115.673 126.951 116.259C126.576 116.839 126.005 117.302 125.237 117.647L128.006 122.877V123H125.176L122.776 118.315ZM120.676 116.18H122.803C123.465 116.18 123.978 116.013 124.341 115.679C124.704 115.339 124.886 114.873 124.886 114.281C124.886 113.678 124.713 113.203 124.367 112.857C124.027 112.512 123.503 112.339 122.794 112.339H120.676V116.18ZM136.171 119.643C136.171 119.145 135.995 118.764 135.644 118.5C135.292 118.23 134.659 117.949 133.745 117.656C132.831 117.357 132.107 117.064 131.574 116.777C130.121 115.992 129.395 114.935 129.395 113.604C129.395 112.913 129.588 112.298 129.975 111.759C130.367 111.214 130.927 110.789 131.653 110.484C132.386 110.18 133.206 110.027 134.114 110.027C135.028 110.027 135.843 110.194 136.558 110.528C137.272 110.856 137.826 111.322 138.219 111.926C138.617 112.529 138.816 113.215 138.816 113.982H136.18C136.18 113.396 135.995 112.942 135.626 112.62C135.257 112.292 134.738 112.128 134.07 112.128C133.426 112.128 132.925 112.266 132.567 112.541C132.21 112.811 132.031 113.168 132.031 113.613C132.031 114.029 132.239 114.378 132.655 114.659C133.077 114.94 133.695 115.204 134.51 115.45C136.01 115.901 137.103 116.461 137.788 117.129C138.474 117.797 138.816 118.629 138.816 119.625C138.816 120.732 138.397 121.603 137.56 122.235C136.722 122.862 135.594 123.176 134.176 123.176C133.191 123.176 132.295 122.997 131.486 122.64C130.678 122.276 130.06 121.781 129.632 121.154C129.21 120.527 128.999 119.801 128.999 118.975H131.645C131.645 120.387 132.488 121.093 134.176 121.093C134.803 121.093 135.292 120.967 135.644 120.715C135.995 120.457 136.171 120.1 136.171 119.643Z" fill="#202020"/>
<path d="M91.3789 92H86.6523V69.168L79.6797 71.5508V67.5469L90.7734 63.4648H91.3789V92ZM120.383 92H101.262V88.7383L110.734 78.4062C112.102 76.8828 113.072 75.6133 113.645 74.5977C114.23 73.569 114.523 72.5404 114.523 71.5117C114.523 70.1576 114.139 69.0638 113.371 68.2305C112.616 67.3971 111.594 66.9805 110.305 66.9805C108.768 66.9805 107.577 67.4492 106.73 68.3867C105.884 69.3242 105.461 70.6068 105.461 72.2344H100.715C100.715 70.5026 101.105 68.9466 101.887 67.5664C102.681 66.1732 103.807 65.0924 105.266 64.3242C106.737 63.556 108.43 63.1719 110.344 63.1719C113.104 63.1719 115.279 63.8685 116.867 65.2617C118.469 66.6419 119.27 68.556 119.27 71.0039C119.27 72.4232 118.866 73.9141 118.059 75.4766C117.264 77.026 115.956 78.7904 114.133 80.7695L107.18 88.2109H120.383V92ZM136.848 92H132.121V69.168L125.148 71.5508V67.5469L136.242 63.4648H136.848V92Z" fill="#6CBAFA"/>
<path d="M64.3516 151H62.8438L57.1172 142.234V151H55.6094V139.625H57.1172L62.8594 148.43V139.625H64.3516V151ZM68.3594 151H66.9141V142.547H68.3594V151ZM66.7969 140.305C66.7969 140.07 66.8672 139.872 67.0078 139.711C67.1536 139.549 67.3672 139.469 67.6484 139.469C67.9297 139.469 68.1432 139.549 68.2891 139.711C68.4349 139.872 68.5078 140.07 68.5078 140.305C68.5078 140.539 68.4349 140.734 68.2891 140.891C68.1432 141.047 67.9297 141.125 67.6484 141.125C67.3672 141.125 67.1536 141.047 67.0078 140.891C66.8672 140.734 66.7969 140.539 66.7969 140.305ZM72.6406 140.5V142.547H74.2188V143.664H72.6406V148.906C72.6406 149.245 72.7109 149.5 72.8516 149.672C72.9922 149.839 73.2318 149.922 73.5703 149.922C73.737 149.922 73.9661 149.891 74.2578 149.828V151C73.8776 151.104 73.5078 151.156 73.1484 151.156C72.5026 151.156 72.0156 150.961 71.6875 150.57C71.3594 150.18 71.1953 149.625 71.1953 148.906V143.664H69.6562V142.547H71.1953V140.5H72.6406ZM80 143.844C79.7812 143.807 79.5443 143.789 79.2891 143.789C78.3411 143.789 77.6979 144.193 77.3594 145V151H75.9141V142.547H77.3203L77.3438 143.523C77.8177 142.768 78.4896 142.391 79.3594 142.391C79.6406 142.391 79.8542 142.427 80 142.5V143.844ZM80.7969 146.695C80.7969 145.867 80.9583 145.122 81.2812 144.461C81.6094 143.799 82.0625 143.289 82.6406 142.93C83.224 142.57 83.888 142.391 84.6328 142.391C85.7839 142.391 86.7135 142.789 87.4219 143.586C88.1354 144.383 88.4922 145.443 88.4922 146.766V146.867C88.4922 147.69 88.3333 148.43 88.0156 149.086C87.7031 149.737 87.2526 150.245 86.6641 150.609C86.0807 150.974 85.4089 151.156 84.6484 151.156C83.5026 151.156 82.5729 150.758 81.8594 149.961C81.151 149.164 80.7969 148.109 80.7969 146.797V146.695ZM82.25 146.867C82.25 147.805 82.4661 148.557 82.8984 149.125C83.3359 149.693 83.9193 149.977 84.6484 149.977C85.3828 149.977 85.9661 149.69 86.3984 149.117C86.8307 148.539 87.0469 147.732 87.0469 146.695C87.0469 145.768 86.8255 145.018 86.3828 144.445C85.9453 143.867 85.362 143.578 84.6328 143.578C83.9193 143.578 83.3438 143.862 82.9062 144.43C82.4688 144.997 82.25 145.81 82.25 146.867ZM95.5234 150.164C94.9609 150.826 94.1354 151.156 93.0469 151.156C92.1458 151.156 91.4583 150.896 90.9844 150.375C90.5156 149.849 90.2786 149.073 90.2734 148.047V142.547H91.7188V148.008C91.7188 149.289 92.2396 149.93 93.2812 149.93C94.3854 149.93 95.1198 149.518 95.4844 148.695V142.547H96.9297V151H95.5547L95.5234 150.164ZM104.055 148.758C104.055 148.367 103.906 148.065 103.609 147.852C103.318 147.633 102.805 147.445 102.07 147.289C101.341 147.133 100.76 146.945 100.328 146.727C99.901 146.508 99.5833 146.247 99.375 145.945C99.1719 145.643 99.0703 145.284 99.0703 144.867C99.0703 144.174 99.362 143.589 99.9453 143.109C100.534 142.63 101.284 142.391 102.195 142.391C103.154 142.391 103.93 142.638 104.523 143.133C105.122 143.628 105.422 144.26 105.422 145.031H103.969C103.969 144.635 103.799 144.294 103.461 144.008C103.128 143.721 102.706 143.578 102.195 143.578C101.669 143.578 101.258 143.693 100.961 143.922C100.664 144.151 100.516 144.451 100.516 144.82C100.516 145.169 100.654 145.432 100.93 145.609C101.206 145.786 101.703 145.956 102.422 146.117C103.146 146.279 103.732 146.471 104.18 146.695C104.628 146.919 104.958 147.19 105.172 147.508C105.391 147.82 105.5 148.203 105.5 148.656C105.5 149.411 105.198 150.018 104.594 150.477C103.99 150.93 103.206 151.156 102.242 151.156C101.565 151.156 100.966 151.036 100.445 150.797C99.9245 150.557 99.5156 150.224 99.2188 149.797C98.9271 149.365 98.7812 148.898 98.7812 148.398H100.227C100.253 148.883 100.445 149.268 100.805 149.555C101.169 149.836 101.648 149.977 102.242 149.977C102.789 149.977 103.227 149.867 103.555 149.648C103.888 149.424 104.055 149.128 104.055 148.758ZM120.328 145.68C120.328 146.794 120.141 147.768 119.766 148.602C119.391 149.43 118.859 150.062 118.172 150.5C117.484 150.938 116.682 151.156 115.766 151.156C114.87 151.156 114.076 150.938 113.383 150.5C112.69 150.057 112.151 149.43 111.766 148.617C111.385 147.799 111.19 146.854 111.18 145.781V144.961C111.18 143.867 111.37 142.901 111.75 142.062C112.13 141.224 112.667 140.583 113.359 140.141C114.057 139.693 114.854 139.469 115.75 139.469C116.661 139.469 117.464 139.69 118.156 140.133C118.854 140.57 119.391 141.208 119.766 142.047C120.141 142.88 120.328 143.852 120.328 144.961V145.68ZM118.836 144.945C118.836 143.596 118.565 142.562 118.023 141.844C117.482 141.12 116.724 140.758 115.75 140.758C114.802 140.758 114.055 141.12 113.508 141.844C112.966 142.562 112.688 143.562 112.672 144.844V145.68C112.672 146.987 112.945 148.016 113.492 148.766C114.044 149.51 114.802 149.883 115.766 149.883C116.734 149.883 117.484 149.531 118.016 148.828C118.547 148.12 118.82 147.107 118.836 145.789V144.945ZM125.188 145.633L127.062 142.547H128.75L125.984 146.727L128.836 151H127.164L125.211 147.836L123.258 151H121.578L124.43 146.727L121.664 142.547H123.336L125.188 145.633ZM131.859 151H130.414V142.547H131.859V151ZM130.297 140.305C130.297 140.07 130.367 139.872 130.508 139.711C130.654 139.549 130.867 139.469 131.148 139.469C131.43 139.469 131.643 139.549 131.789 139.711C131.935 139.872 132.008 140.07 132.008 140.305C132.008 140.539 131.935 140.734 131.789 140.891C131.643 141.047 131.43 141.125 131.148 141.125C130.867 141.125 130.654 141.047 130.508 140.891C130.367 140.734 130.297 140.539 130.297 140.305ZM133.828 146.703C133.828 145.406 134.135 144.365 134.75 143.578C135.365 142.786 136.169 142.391 137.164 142.391C138.154 142.391 138.938 142.729 139.516 143.406V139H140.961V151H139.633L139.562 150.094C138.984 150.802 138.18 151.156 137.148 151.156C136.169 151.156 135.37 150.755 134.75 149.953C134.135 149.151 133.828 148.104 133.828 146.812V146.703ZM135.273 146.867C135.273 147.826 135.471 148.576 135.867 149.117C136.263 149.659 136.81 149.93 137.508 149.93C138.424 149.93 139.094 149.518 139.516 148.695V144.812C139.083 144.016 138.419 143.617 137.523 143.617C136.815 143.617 136.263 143.891 135.867 144.438C135.471 144.984 135.273 145.794 135.273 146.867ZM146.719 151.156C145.573 151.156 144.641 150.781 143.922 150.031C143.203 149.276 142.844 148.268 142.844 147.008V146.742C142.844 145.904 143.003 145.156 143.32 144.5C143.643 143.839 144.091 143.323 144.664 142.953C145.242 142.578 145.867 142.391 146.539 142.391C147.638 142.391 148.492 142.753 149.102 143.477C149.711 144.201 150.016 145.237 150.016 146.586V147.188H144.289C144.31 148.021 144.552 148.695 145.016 149.211C145.484 149.721 146.078 149.977 146.797 149.977C147.307 149.977 147.74 149.872 148.094 149.664C148.448 149.456 148.758 149.18 149.023 148.836L149.906 149.523C149.198 150.612 148.135 151.156 146.719 151.156ZM146.539 143.578C145.956 143.578 145.466 143.792 145.07 144.219C144.674 144.641 144.43 145.234 144.336 146H148.57V145.891C148.529 145.156 148.331 144.589 147.977 144.188C147.622 143.781 147.143 143.578 146.539 143.578ZM157.234 151H155.789V142.547H157.234V151ZM155.672 140.305C155.672 140.07 155.742 139.872 155.883 139.711C156.029 139.549 156.242 139.469 156.523 139.469C156.805 139.469 157.018 139.549 157.164 139.711C157.31 139.872 157.383 140.07 157.383 140.305C157.383 140.539 157.31 140.734 157.164 140.891C157.018 141.047 156.805 141.125 156.523 141.125C156.242 141.125 156.029 141.047 155.883 140.891C155.742 140.734 155.672 140.539 155.672 140.305ZM164.477 148.758C164.477 148.367 164.328 148.065 164.031 147.852C163.74 147.633 163.227 147.445 162.492 147.289C161.763 147.133 161.182 146.945 160.75 146.727C160.323 146.508 160.005 146.247 159.797 145.945C159.594 145.643 159.492 145.284 159.492 144.867C159.492 144.174 159.784 143.589 160.367 143.109C160.956 142.63 161.706 142.391 162.617 142.391C163.576 142.391 164.352 142.638 164.945 143.133C165.544 143.628 165.844 144.26 165.844 145.031H164.391C164.391 144.635 164.221 144.294 163.883 144.008C163.549 143.721 163.128 143.578 162.617 143.578C162.091 143.578 161.68 143.693 161.383 143.922C161.086 144.151 160.938 144.451 160.938 144.82C160.938 145.169 161.076 145.432 161.352 145.609C161.628 145.786 162.125 145.956 162.844 146.117C163.568 146.279 164.154 146.471 164.602 146.695C165.049 146.919 165.38 147.19 165.594 147.508C165.812 147.82 165.922 148.203 165.922 148.656C165.922 149.411 165.62 150.018 165.016 150.477C164.411 150.93 163.628 151.156 162.664 151.156C161.987 151.156 161.388 151.036 160.867 150.797C160.346 150.557 159.938 150.224 159.641 149.797C159.349 149.365 159.203 148.898 159.203 148.398H160.648C160.674 148.883 160.867 149.268 161.227 149.555C161.591 149.836 162.07 149.977 162.664 149.977C163.211 149.977 163.648 149.867 163.977 149.648C164.31 149.424 164.477 149.128 164.477 148.758ZM46.6016 165.703C46.6016 164.406 46.9089 163.365 47.5234 162.578C48.138 161.786 48.9427 161.391 49.9375 161.391C50.9271 161.391 51.7109 161.729 52.2891 162.406V158H53.7344V170H52.4062L52.3359 169.094C51.7578 169.802 50.9531 170.156 49.9219 170.156C48.9427 170.156 48.1432 169.755 47.5234 168.953C46.9089 168.151 46.6016 167.104 46.6016 165.812V165.703ZM48.0469 165.867C48.0469 166.826 48.2448 167.576 48.6406 168.117C49.0365 168.659 49.5833 168.93 50.2812 168.93C51.1979 168.93 51.8672 168.518 52.2891 167.695V163.812C51.8568 163.016 51.1927 162.617 50.2969 162.617C49.5885 162.617 49.0365 162.891 48.6406 163.438C48.2448 163.984 48.0469 164.794 48.0469 165.867ZM59.4922 170.156C58.3464 170.156 57.4141 169.781 56.6953 169.031C55.9766 168.276 55.6172 167.268 55.6172 166.008V165.742C55.6172 164.904 55.776 164.156 56.0938 163.5C56.4167 162.839 56.8646 162.323 57.4375 161.953C58.0156 161.578 58.6406 161.391 59.3125 161.391C60.4115 161.391 61.2656 161.753 61.875 162.477C62.4844 163.201 62.7891 164.237 62.7891 165.586V166.188H57.0625C57.0833 167.021 57.3255 167.695 57.7891 168.211C58.2578 168.721 58.8516 168.977 59.5703 168.977C60.0807 168.977 60.513 168.872 60.8672 168.664C61.2214 168.456 61.5312 168.18 61.7969 167.836L62.6797 168.523C61.9714 169.612 60.9089 170.156 59.4922 170.156ZM59.3125 162.578C58.7292 162.578 58.2396 162.792 57.8438 163.219C57.4479 163.641 57.2031 164.234 57.1094 165H61.3438V164.891C61.3021 164.156 61.1042 163.589 60.75 163.188C60.3958 162.781 59.9167 162.578 59.3125 162.578ZM69.3906 167.758C69.3906 167.367 69.2422 167.065 68.9453 166.852C68.6536 166.633 68.1406 166.445 67.4062 166.289C66.6771 166.133 66.0964 165.945 65.6641 165.727C65.237 165.508 64.9193 165.247 64.7109 164.945C64.5078 164.643 64.4062 164.284 64.4062 163.867C64.4062 163.174 64.6979 162.589 65.2812 162.109C65.8698 161.63 66.6198 161.391 67.5312 161.391C68.4896 161.391 69.2656 161.638 69.8594 162.133C70.4583 162.628 70.7578 163.26 70.7578 164.031H69.3047C69.3047 163.635 69.1354 163.294 68.7969 163.008C68.4635 162.721 68.0417 162.578 67.5312 162.578C67.0052 162.578 66.5938 162.693 66.2969 162.922C66 163.151 65.8516 163.451 65.8516 163.82C65.8516 164.169 65.9896 164.432 66.2656 164.609C66.5417 164.786 67.0391 164.956 67.7578 165.117C68.4818 165.279 69.0677 165.471 69.5156 165.695C69.9635 165.919 70.2943 166.19 70.5078 166.508C70.7266 166.82 70.8359 167.203 70.8359 167.656C70.8359 168.411 70.5339 169.018 69.9297 169.477C69.3255 169.93 68.5417 170.156 67.5781 170.156C66.901 170.156 66.3021 170.036 65.7812 169.797C65.2604 169.557 64.8516 169.224 64.5547 168.797C64.263 168.365 64.1172 167.898 64.1172 167.398H65.5625C65.5885 167.883 65.7812 168.268 66.1406 168.555C66.5052 168.836 66.9844 168.977 67.5781 168.977C68.125 168.977 68.5625 168.867 68.8906 168.648C69.224 168.424 69.3906 168.128 69.3906 167.758ZM74.6797 159.5V161.547H76.2578V162.664H74.6797V167.906C74.6797 168.245 74.75 168.5 74.8906 168.672C75.0312 168.839 75.2708 168.922 75.6094 168.922C75.776 168.922 76.0052 168.891 76.2969 168.828V170C75.9167 170.104 75.5469 170.156 75.1875 170.156C74.5417 170.156 74.0547 169.961 73.7266 169.57C73.3984 169.18 73.2344 168.625 73.2344 167.906V162.664H71.6953V161.547H73.2344V159.5H74.6797ZM82.0391 162.844C81.8203 162.807 81.5833 162.789 81.3281 162.789C80.3802 162.789 79.737 163.193 79.3984 164V170H77.9531V161.547H79.3594L79.3828 162.523C79.8568 161.768 80.5286 161.391 81.3984 161.391C81.6797 161.391 81.8932 161.427 82.0391 161.5V162.844ZM82.8359 165.695C82.8359 164.867 82.9974 164.122 83.3203 163.461C83.6484 162.799 84.1016 162.289 84.6797 161.93C85.263 161.57 85.9271 161.391 86.6719 161.391C87.8229 161.391 88.7526 161.789 89.4609 162.586C90.1745 163.383 90.5312 164.443 90.5312 165.766V165.867C90.5312 166.69 90.3724 167.43 90.0547 168.086C89.7422 168.737 89.2917 169.245 88.7031 169.609C88.1198 169.974 87.4479 170.156 86.6875 170.156C85.5417 170.156 84.612 169.758 83.8984 168.961C83.1901 168.164 82.8359 167.109 82.8359 165.797V165.695ZM84.2891 165.867C84.2891 166.805 84.5052 167.557 84.9375 168.125C85.375 168.693 85.9583 168.977 86.6875 168.977C87.4219 168.977 88.0052 168.69 88.4375 168.117C88.8698 167.539 89.0859 166.732 89.0859 165.695C89.0859 164.768 88.8646 164.018 88.4219 163.445C87.9844 162.867 87.401 162.578 86.6719 162.578C85.9583 162.578 85.3828 162.862 84.9453 163.43C84.5078 163.997 84.2891 164.81 84.2891 165.867ZM94.9844 167.883L96.9531 161.547H98.5L95.1016 171.305C94.5755 172.711 93.7396 173.414 92.5938 173.414L92.3203 173.391L91.7812 173.289V172.117L92.1719 172.148C92.6615 172.148 93.0417 172.049 93.3125 171.852C93.5885 171.654 93.8151 171.292 93.9922 170.766L94.3125 169.906L91.2969 161.547H92.875L94.9844 167.883ZM103.195 170.156C102.049 170.156 101.117 169.781 100.398 169.031C99.6797 168.276 99.3203 167.268 99.3203 166.008V165.742C99.3203 164.904 99.4792 164.156 99.7969 163.5C100.12 162.839 100.568 162.323 101.141 161.953C101.719 161.578 102.344 161.391 103.016 161.391C104.115 161.391 104.969 161.753 105.578 162.477C106.188 163.201 106.492 164.237 106.492 165.586V166.188H100.766C100.786 167.021 101.029 167.695 101.492 168.211C101.961 168.721 102.555 168.977 103.273 168.977C103.784 168.977 104.216 168.872 104.57 168.664C104.924 168.456 105.234 168.18 105.5 167.836L106.383 168.523C105.674 169.612 104.612 170.156 103.195 170.156ZM103.016 162.578C102.432 162.578 101.943 162.792 101.547 163.219C101.151 163.641 100.906 164.234 100.812 165H105.047V164.891C105.005 164.156 104.807 163.589 104.453 163.188C104.099 162.781 103.62 162.578 103.016 162.578ZM107.82 165.703C107.82 164.406 108.128 163.365 108.742 162.578C109.357 161.786 110.161 161.391 111.156 161.391C112.146 161.391 112.93 161.729 113.508 162.406V158H114.953V170H113.625L113.555 169.094C112.977 169.802 112.172 170.156 111.141 170.156C110.161 170.156 109.362 169.755 108.742 168.953C108.128 168.151 107.82 167.104 107.82 165.812V165.703ZM109.266 165.867C109.266 166.826 109.464 167.576 109.859 168.117C110.255 168.659 110.802 168.93 111.5 168.93C112.417 168.93 113.086 168.518 113.508 167.695V163.812C113.076 163.016 112.411 162.617 111.516 162.617C110.807 162.617 110.255 162.891 109.859 163.438C109.464 163.984 109.266 164.794 109.266 165.867ZM123.133 159.5V161.547H124.711V162.664H123.133V167.906C123.133 168.245 123.203 168.5 123.344 168.672C123.484 168.839 123.724 168.922 124.062 168.922C124.229 168.922 124.458 168.891 124.75 168.828V170C124.37 170.104 124 170.156 123.641 170.156C122.995 170.156 122.508 169.961 122.18 169.57C121.852 169.18 121.688 168.625 121.688 167.906V162.664H120.148V161.547H121.688V159.5H123.133ZM127.852 162.57C128.492 161.784 129.326 161.391 130.352 161.391C132.138 161.391 133.039 162.398 133.055 164.414V170H131.609V164.406C131.604 163.797 131.464 163.346 131.188 163.055C130.917 162.763 130.492 162.617 129.914 162.617C129.445 162.617 129.034 162.742 128.68 162.992C128.326 163.242 128.049 163.57 127.852 163.977V170H126.406V158H127.852V162.57ZM139.305 162.844C139.086 162.807 138.849 162.789 138.594 162.789C137.646 162.789 137.003 163.193 136.664 164V170H135.219V161.547H136.625L136.648 162.523C137.122 161.768 137.794 161.391 138.664 161.391C138.945 161.391 139.159 161.427 139.305 161.5V162.844ZM140.102 165.695C140.102 164.867 140.263 164.122 140.586 163.461C140.914 162.799 141.367 162.289 141.945 161.93C142.529 161.57 143.193 161.391 143.938 161.391C145.089 161.391 146.018 161.789 146.727 162.586C147.44 163.383 147.797 164.443 147.797 165.766V165.867C147.797 166.69 147.638 167.43 147.32 168.086C147.008 168.737 146.557 169.245 145.969 169.609C145.385 169.974 144.714 170.156 143.953 170.156C142.807 170.156 141.878 169.758 141.164 168.961C140.456 168.164 140.102 167.109 140.102 165.797V165.695ZM141.555 165.867C141.555 166.805 141.771 167.557 142.203 168.125C142.641 168.693 143.224 168.977 143.953 168.977C144.688 168.977 145.271 168.69 145.703 168.117C146.135 167.539 146.352 166.732 146.352 165.695C146.352 164.768 146.13 164.018 145.688 163.445C145.25 162.867 144.667 162.578 143.938 162.578C143.224 162.578 142.648 162.862 142.211 163.43C141.773 163.997 141.555 164.81 141.555 165.867ZM154.828 169.164C154.266 169.826 153.44 170.156 152.352 170.156C151.451 170.156 150.763 169.896 150.289 169.375C149.82 168.849 149.583 168.073 149.578 167.047V161.547H151.023V167.008C151.023 168.289 151.544 168.93 152.586 168.93C153.69 168.93 154.424 168.518 154.789 167.695V161.547H156.234V170H154.859L154.828 169.164ZM158.094 165.703C158.094 164.385 158.398 163.339 159.008 162.562C159.617 161.781 160.424 161.391 161.43 161.391C162.461 161.391 163.266 161.755 163.844 162.484L163.914 161.547H165.234V169.797C165.234 170.891 164.909 171.753 164.258 172.383C163.612 173.013 162.742 173.328 161.648 173.328C161.039 173.328 160.443 173.198 159.859 172.938C159.276 172.677 158.831 172.32 158.523 171.867L159.273 171C159.893 171.766 160.651 172.148 161.547 172.148C162.25 172.148 162.797 171.951 163.188 171.555C163.583 171.159 163.781 170.602 163.781 169.883V169.156C163.203 169.823 162.414 170.156 161.414 170.156C160.424 170.156 159.622 169.758 159.008 168.961C158.398 168.164 158.094 167.078 158.094 165.703ZM159.547 165.867C159.547 166.82 159.742 167.57 160.133 168.117C160.523 168.659 161.07 168.93 161.773 168.93C162.685 168.93 163.354 168.516 163.781 167.688V163.828C163.339 163.021 162.674 162.617 161.789 162.617C161.086 162.617 160.536 162.891 160.141 163.438C159.745 163.984 159.547 164.794 159.547 165.867ZM168.867 162.57C169.508 161.784 170.341 161.391 171.367 161.391C173.154 161.391 174.055 162.398 174.07 164.414V170H172.625V164.406C172.62 163.797 172.479 163.346 172.203 163.055C171.932 162.763 171.508 162.617 170.93 162.617C170.461 162.617 170.049 162.742 169.695 162.992C169.341 163.242 169.065 163.57 168.867 163.977V170H167.422V158H168.867V162.57ZM45.5312 187.977C46.0469 187.977 46.4974 187.82 46.8828 187.508C47.2682 187.195 47.4818 186.805 47.5234 186.336H48.8906C48.8646 186.82 48.6979 187.281 48.3906 187.719C48.0833 188.156 47.6719 188.505 47.1562 188.766C46.6458 189.026 46.1042 189.156 45.5312 189.156C44.3802 189.156 43.4635 188.773 42.7812 188.008C42.1042 187.237 41.7656 186.185 41.7656 184.852V184.609C41.7656 183.786 41.9167 183.055 42.2188 182.414C42.5208 181.773 42.9531 181.276 43.5156 180.922C44.0833 180.568 44.7526 180.391 45.5234 180.391C46.4714 180.391 47.2578 180.674 47.8828 181.242C48.513 181.81 48.849 182.547 48.8906 183.453H47.5234C47.4818 182.906 47.2734 182.458 46.8984 182.109C46.5286 181.755 46.0703 181.578 45.5234 181.578C44.7891 181.578 44.2188 181.844 43.8125 182.375C43.4115 182.901 43.2109 183.664 43.2109 184.664V184.938C43.2109 185.911 43.4115 186.661 43.8125 187.188C44.2135 187.714 44.7865 187.977 45.5312 187.977ZM51.9609 181.57C52.6016 180.784 53.4349 180.391 54.4609 180.391C56.2474 180.391 57.1484 181.398 57.1641 183.414V189H55.7188V183.406C55.7135 182.797 55.5729 182.346 55.2969 182.055C55.026 181.763 54.6016 181.617 54.0234 181.617C53.5547 181.617 53.1432 181.742 52.7891 181.992C52.4349 182.242 52.1589 182.57 51.9609 182.977V189H50.5156V177H51.9609V181.57ZM62.8359 189.156C61.6901 189.156 60.7578 188.781 60.0391 188.031C59.3203 187.276 58.9609 186.268 58.9609 185.008V184.742C58.9609 183.904 59.1198 183.156 59.4375 182.5C59.7604 181.839 60.2083 181.323 60.7812 180.953C61.3594 180.578 61.9844 180.391 62.6562 180.391C63.7552 180.391 64.6094 180.753 65.2188 181.477C65.8281 182.201 66.1328 183.237 66.1328 184.586V185.188H60.4062C60.4271 186.021 60.6693 186.695 61.1328 187.211C61.6016 187.721 62.1953 187.977 62.9141 187.977C63.4245 187.977 63.8568 187.872 64.2109 187.664C64.5651 187.456 64.875 187.18 65.1406 186.836L66.0234 187.523C65.3151 188.612 64.2526 189.156 62.8359 189.156ZM62.6562 181.578C62.0729 181.578 61.5833 181.792 61.1875 182.219C60.7917 182.641 60.5469 183.234 60.4531 184H64.6875V183.891C64.6458 183.156 64.4479 182.589 64.0938 182.188C63.7396 181.781 63.2604 181.578 62.6562 181.578ZM69.1719 180.547L69.2109 181.484C69.8307 180.755 70.6667 180.391 71.7188 180.391C72.901 180.391 73.7057 180.844 74.1328 181.75C74.4141 181.344 74.7786 181.016 75.2266 180.766C75.6797 180.516 76.2135 180.391 76.8281 180.391C78.6823 180.391 79.625 181.372 79.6562 183.336V189H78.2109V183.422C78.2109 182.818 78.0729 182.367 77.7969 182.07C77.5208 181.768 77.0573 181.617 76.4062 181.617C75.8698 181.617 75.4245 181.779 75.0703 182.102C74.7161 182.419 74.5104 182.849 74.4531 183.391V189H73V183.461C73 182.232 72.3984 181.617 71.1953 181.617C70.2474 181.617 69.599 182.021 69.25 182.828V189H67.8047V180.547H69.1719ZM83.4141 189H81.9688V180.547H83.4141V189ZM81.8516 178.305C81.8516 178.07 81.9219 177.872 82.0625 177.711C82.2083 177.549 82.4219 177.469 82.7031 177.469C82.9844 177.469 83.1979 177.549 83.3438 177.711C83.4896 177.872 83.5625 178.07 83.5625 178.305C83.5625 178.539 83.4896 178.734 83.3438 178.891C83.1979 179.047 82.9844 179.125 82.7031 179.125C82.4219 179.125 82.2083 179.047 82.0625 178.891C81.9219 178.734 81.8516 178.539 81.8516 178.305ZM89.125 187.977C89.6406 187.977 90.0911 187.82 90.4766 187.508C90.862 187.195 91.0755 186.805 91.1172 186.336H92.4844C92.4583 186.82 92.2917 187.281 91.9844 187.719C91.6771 188.156 91.2656 188.505 90.75 188.766C90.2396 189.026 89.6979 189.156 89.125 189.156C87.974 189.156 87.0573 188.773 86.375 188.008C85.6979 187.237 85.3594 186.185 85.3594 184.852V184.609C85.3594 183.786 85.5104 183.055 85.8125 182.414C86.1146 181.773 86.5469 181.276 87.1094 180.922C87.6771 180.568 88.3464 180.391 89.1172 180.391C90.0651 180.391 90.8516 180.674 91.4766 181.242C92.1068 181.81 92.4427 182.547 92.4844 183.453H91.1172C91.0755 182.906 90.8672 182.458 90.4922 182.109C90.1224 181.755 89.6641 181.578 89.1172 181.578C88.3828 181.578 87.8125 181.844 87.4062 182.375C87.0052 182.901 86.8047 183.664 86.8047 184.664V184.938C86.8047 185.911 87.0052 186.661 87.4062 187.188C87.8073 187.714 88.3802 187.977 89.125 187.977ZM99.3281 189C99.2448 188.833 99.1771 188.536 99.125 188.109C98.4531 188.807 97.651 189.156 96.7188 189.156C95.8854 189.156 95.2005 188.922 94.6641 188.453C94.1328 187.979 93.8672 187.38 93.8672 186.656C93.8672 185.776 94.2005 185.094 94.8672 184.609C95.5391 184.12 96.4818 183.875 97.6953 183.875H99.1016V183.211C99.1016 182.706 98.9505 182.305 98.6484 182.008C98.3464 181.706 97.901 181.555 97.3125 181.555C96.7969 181.555 96.3646 181.685 96.0156 181.945C95.6667 182.206 95.4922 182.521 95.4922 182.891H94.0391C94.0391 182.469 94.1875 182.062 94.4844 181.672C94.7865 181.276 95.1927 180.964 95.7031 180.734C96.2188 180.505 96.7839 180.391 97.3984 180.391C98.3724 180.391 99.1354 180.635 99.6875 181.125C100.24 181.609 100.526 182.279 100.547 183.133V187.023C100.547 187.799 100.646 188.417 100.844 188.875V189H99.3281ZM96.9297 187.898C97.3828 187.898 97.8125 187.781 98.2188 187.547C98.625 187.312 98.9193 187.008 99.1016 186.633V184.898H97.9688C96.1979 184.898 95.3125 185.417 95.3125 186.453C95.3125 186.906 95.4635 187.26 95.7656 187.516C96.0677 187.771 96.4557 187.898 96.9297 187.898ZM104.383 189H102.938V177H104.383V189ZM114.758 181.844C114.539 181.807 114.302 181.789 114.047 181.789C113.099 181.789 112.456 182.193 112.117 183V189H110.672V180.547H112.078L112.102 181.523C112.576 180.768 113.247 180.391 114.117 180.391C114.398 180.391 114.612 180.427 114.758 180.5V181.844ZM119.445 189.156C118.299 189.156 117.367 188.781 116.648 188.031C115.93 187.276 115.57 186.268 115.57 185.008V184.742C115.57 183.904 115.729 183.156 116.047 182.5C116.37 181.839 116.818 181.323 117.391 180.953C117.969 180.578 118.594 180.391 119.266 180.391C120.365 180.391 121.219 180.753 121.828 181.477C122.438 182.201 122.742 183.237 122.742 184.586V185.188H117.016C117.036 186.021 117.279 186.695 117.742 187.211C118.211 187.721 118.805 187.977 119.523 187.977C120.034 187.977 120.466 187.872 120.82 187.664C121.174 187.456 121.484 187.18 121.75 186.836L122.633 187.523C121.924 188.612 120.862 189.156 119.445 189.156ZM119.266 181.578C118.682 181.578 118.193 181.792 117.797 182.219C117.401 182.641 117.156 183.234 117.062 184H121.297V183.891C121.255 183.156 121.057 182.589 120.703 182.188C120.349 181.781 119.87 181.578 119.266 181.578ZM129.641 189C129.557 188.833 129.49 188.536 129.438 188.109C128.766 188.807 127.964 189.156 127.031 189.156C126.198 189.156 125.513 188.922 124.977 188.453C124.445 187.979 124.18 187.38 124.18 186.656C124.18 185.776 124.513 185.094 125.18 184.609C125.852 184.12 126.794 183.875 128.008 183.875H129.414V183.211C129.414 182.706 129.263 182.305 128.961 182.008C128.659 181.706 128.214 181.555 127.625 181.555C127.109 181.555 126.677 181.685 126.328 181.945C125.979 182.206 125.805 182.521 125.805 182.891H124.352C124.352 182.469 124.5 182.062 124.797 181.672C125.099 181.276 125.505 180.964 126.016 180.734C126.531 180.505 127.096 180.391 127.711 180.391C128.685 180.391 129.448 180.635 130 181.125C130.552 181.609 130.839 182.279 130.859 183.133V187.023C130.859 187.799 130.958 188.417 131.156 188.875V189H129.641ZM127.242 187.898C127.695 187.898 128.125 187.781 128.531 187.547C128.938 187.312 129.232 187.008 129.414 186.633V184.898H128.281C126.51 184.898 125.625 185.417 125.625 186.453C125.625 186.906 125.776 187.26 126.078 187.516C126.38 187.771 126.768 187.898 127.242 187.898ZM136.516 187.977C137.031 187.977 137.482 187.82 137.867 187.508C138.253 187.195 138.466 186.805 138.508 186.336H139.875C139.849 186.82 139.682 187.281 139.375 187.719C139.068 188.156 138.656 188.505 138.141 188.766C137.63 189.026 137.089 189.156 136.516 189.156C135.365 189.156 134.448 188.773 133.766 188.008C133.089 187.237 132.75 186.185 132.75 184.852V184.609C132.75 183.786 132.901 183.055 133.203 182.414C133.505 181.773 133.938 181.276 134.5 180.922C135.068 180.568 135.737 180.391 136.508 180.391C137.456 180.391 138.242 180.674 138.867 181.242C139.497 181.81 139.833 182.547 139.875 183.453H138.508C138.466 182.906 138.258 182.458 137.883 182.109C137.513 181.755 137.055 181.578 136.508 181.578C135.773 181.578 135.203 181.844 134.797 182.375C134.396 182.901 134.195 183.664 134.195 184.664V184.938C134.195 185.911 134.396 186.661 134.797 187.188C135.198 187.714 135.771 187.977 136.516 187.977ZM143.461 178.5V180.547H145.039V181.664H143.461V186.906C143.461 187.245 143.531 187.5 143.672 187.672C143.812 187.839 144.052 187.922 144.391 187.922C144.557 187.922 144.786 187.891 145.078 187.828V189C144.698 189.104 144.328 189.156 143.969 189.156C143.323 189.156 142.836 188.961 142.508 188.57C142.18 188.18 142.016 187.625 142.016 186.906V181.664H140.477V180.547H142.016V178.5H143.461ZM148.305 189H146.859V180.547H148.305V189ZM146.742 178.305C146.742 178.07 146.812 177.872 146.953 177.711C147.099 177.549 147.312 177.469 147.594 177.469C147.875 177.469 148.089 177.549 148.234 177.711C148.38 177.872 148.453 178.07 148.453 178.305C148.453 178.539 148.38 178.734 148.234 178.891C148.089 179.047 147.875 179.125 147.594 179.125C147.312 179.125 147.099 179.047 146.953 178.891C146.812 178.734 146.742 178.539 146.742 178.305ZM150.242 184.695C150.242 183.867 150.404 183.122 150.727 182.461C151.055 181.799 151.508 181.289 152.086 180.93C152.669 180.57 153.333 180.391 154.078 180.391C155.229 180.391 156.159 180.789 156.867 181.586C157.581 182.383 157.938 183.443 157.938 184.766V184.867C157.938 185.69 157.779 186.43 157.461 187.086C157.148 187.737 156.698 188.245 156.109 188.609C155.526 188.974 154.854 189.156 154.094 189.156C152.948 189.156 152.018 188.758 151.305 187.961C150.596 187.164 150.242 186.109 150.242 184.797V184.695ZM151.695 184.867C151.695 185.805 151.911 186.557 152.344 187.125C152.781 187.693 153.365 187.977 154.094 187.977C154.828 187.977 155.411 187.69 155.844 187.117C156.276 186.539 156.492 185.732 156.492 184.695C156.492 183.768 156.271 183.018 155.828 182.445C155.391 181.867 154.807 181.578 154.078 181.578C153.365 181.578 152.789 181.862 152.352 182.43C151.914 182.997 151.695 183.81 151.695 184.867ZM161.117 180.547L161.164 181.609C161.81 180.797 162.654 180.391 163.695 180.391C165.482 180.391 166.383 181.398 166.398 183.414V189H164.953V183.406C164.948 182.797 164.807 182.346 164.531 182.055C164.26 181.763 163.836 181.617 163.258 181.617C162.789 181.617 162.378 181.742 162.023 181.992C161.669 182.242 161.393 182.57 161.195 182.977V189H159.75V180.547H161.117ZM173.5 186.758C173.5 186.367 173.352 186.065 173.055 185.852C172.763 185.633 172.25 185.445 171.516 185.289C170.786 185.133 170.206 184.945 169.773 184.727C169.346 184.508 169.029 184.247 168.82 183.945C168.617 183.643 168.516 183.284 168.516 182.867C168.516 182.174 168.807 181.589 169.391 181.109C169.979 180.63 170.729 180.391 171.641 180.391C172.599 180.391 173.375 180.638 173.969 181.133C174.568 181.628 174.867 182.26 174.867 183.031H173.414C173.414 182.635 173.245 182.294 172.906 182.008C172.573 181.721 172.151 181.578 171.641 181.578C171.115 181.578 170.703 181.693 170.406 181.922C170.109 182.151 169.961 182.451 169.961 182.82C169.961 183.169 170.099 183.432 170.375 183.609C170.651 183.786 171.148 183.956 171.867 184.117C172.591 184.279 173.177 184.471 173.625 184.695C174.073 184.919 174.404 185.19 174.617 185.508C174.836 185.82 174.945 186.203 174.945 186.656C174.945 187.411 174.643 188.018 174.039 188.477C173.435 188.93 172.651 189.156 171.688 189.156C171.01 189.156 170.411 189.036 169.891 188.797C169.37 188.557 168.961 188.224 168.664 187.797C168.372 187.365 168.227 186.898 168.227 186.398H169.672C169.698 186.883 169.891 187.268 170.25 187.555C170.615 187.836 171.094 187.977 171.688 187.977C172.234 187.977 172.672 187.867 173 187.648C173.333 187.424 173.5 187.128 173.5 186.758ZM176.859 188.242C176.859 187.992 176.932 187.784 177.078 187.617C177.229 187.451 177.453 187.367 177.75 187.367C178.047 187.367 178.271 187.451 178.422 187.617C178.578 187.784 178.656 187.992 178.656 188.242C178.656 188.482 178.578 188.682 178.422 188.844C178.271 189.005 178.047 189.086 177.75 189.086C177.453 189.086 177.229 189.005 177.078 188.844C176.932 188.682 176.859 188.482 176.859 188.242Z" fill="black"/>
</svg>
