<svg width="222" height="227" viewBox="0 0 222 227" fill="none" xmlns="http://www.w3.org/2000/svg">
<path d="M89.0879 115.969L91.751 110.203H94.6338L90.4326 118.359V123H87.752V118.359L83.5508 110.203H86.4424L89.0879 115.969ZM103.502 117.454H98.4395V120.882H104.381V123H95.8027V110.203H104.363V112.339H98.4395V115.389H103.502V117.454ZM113.152 120.363H108.529L107.65 123H104.847L109.61 110.203H112.054L116.844 123H114.04L113.152 120.363ZM109.241 118.228H112.44L110.832 113.438L109.241 118.228ZM122.776 118.315H120.676V123H118.039V110.203H122.794C124.306 110.203 125.472 110.54 126.292 111.214C127.112 111.888 127.522 112.84 127.522 114.07C127.522 114.943 127.332 115.673 126.951 116.259C126.576 116.839 126.005 117.302 125.237 117.647L128.006 122.877V123H125.176L122.776 118.315ZM120.676 116.18H122.803C123.465 116.18 123.978 116.013 124.341 115.679C124.704 115.339 124.886 114.873 124.886 114.281C124.886 113.678 124.713 113.203 124.367 112.857C124.027 112.512 123.503 112.339 122.794 112.339H120.676V116.18ZM136.171 119.643C136.171 119.145 135.995 118.764 135.644 118.5C135.292 118.23 134.659 117.949 133.745 117.656C132.831 117.357 132.107 117.064 131.574 116.777C130.121 115.992 129.395 114.935 129.395 113.604C129.395 112.913 129.588 112.298 129.975 111.759C130.367 111.214 130.927 110.789 131.653 110.484C132.386 110.18 133.206 110.027 134.114 110.027C135.028 110.027 135.843 110.194 136.558 110.528C137.272 110.856 137.826 111.322 138.219 111.926C138.617 112.529 138.816 113.215 138.816 113.982H136.18C136.18 113.396 135.995 112.942 135.626 112.62C135.257 112.292 134.738 112.128 134.07 112.128C133.426 112.128 132.925 112.266 132.567 112.541C132.21 112.811 132.031 113.168 132.031 113.613C132.031 114.029 132.239 114.378 132.655 114.659C133.077 114.94 133.695 115.204 134.51 115.45C136.01 115.901 137.103 116.461 137.788 117.129C138.474 117.797 138.816 118.629 138.816 119.625C138.816 120.732 138.397 121.603 137.56 122.235C136.722 122.862 135.594 123.176 134.176 123.176C133.191 123.176 132.295 122.997 131.486 122.64C130.678 122.276 130.06 121.781 129.632 121.154C129.21 120.527 128.999 119.801 128.999 118.975H131.645C131.645 120.387 132.488 121.093 134.176 121.093C134.803 121.093 135.292 120.967 135.644 120.715C135.995 120.457 136.171 120.1 136.171 119.643Z" fill="#202020"/>
<path d="M61.9189 34.2842L63.751 28.6035H65.043L62.3906 36H61.4268L58.7471 28.6035H60.0391L61.9189 34.2842ZM70.7168 36C70.6439 35.8542 70.5846 35.5944 70.5391 35.2207C69.9512 35.8314 69.2493 36.1367 68.4336 36.1367C67.7044 36.1367 67.1051 35.9316 66.6357 35.5215C66.1709 35.1068 65.9385 34.5827 65.9385 33.9492C65.9385 33.179 66.2301 32.582 66.8135 32.1582C67.4014 31.7298 68.2262 31.5156 69.2881 31.5156H70.5186V30.9346C70.5186 30.4925 70.3864 30.1416 70.1221 29.8818C69.8577 29.6175 69.4681 29.4854 68.9531 29.4854C68.502 29.4854 68.1237 29.5993 67.8184 29.8271C67.513 30.055 67.3604 30.3307 67.3604 30.6543H66.0889C66.0889 30.2852 66.2188 29.9297 66.4785 29.5879C66.7428 29.2415 67.0983 28.9681 67.5449 28.7676C67.9961 28.5671 68.4906 28.4668 69.0283 28.4668C69.8805 28.4668 70.5482 28.681 71.0312 29.1094C71.5143 29.5332 71.765 30.1188 71.7832 30.8662V34.2705C71.7832 34.9495 71.8698 35.4896 72.043 35.8906V36H70.7168ZM68.6182 35.0361C69.0146 35.0361 69.3906 34.9336 69.7461 34.7285C70.1016 34.5234 70.359 34.2568 70.5186 33.9287V32.4111H69.5273C67.9779 32.4111 67.2031 32.8646 67.2031 33.7715C67.2031 34.168 67.3353 34.4779 67.5996 34.7012C67.8639 34.9245 68.2035 35.0361 68.6182 35.0361ZM77.3408 29.7383C77.1494 29.7064 76.9421 29.6904 76.7188 29.6904C75.8893 29.6904 75.3265 30.0436 75.0303 30.75V36H73.7656V28.6035H74.9961L75.0166 29.458C75.4313 28.7972 76.0192 28.4668 76.7803 28.4668C77.0264 28.4668 77.2132 28.4987 77.3408 28.5625V29.7383ZM82.085 29.7383C81.8936 29.7064 81.6862 29.6904 81.4629 29.6904C80.6335 29.6904 80.0706 30.0436 79.7744 30.75V36H78.5098V28.6035H79.7402L79.7607 29.458C80.1755 28.7972 80.7633 28.4668 81.5244 28.4668C81.7705 28.4668 81.9574 28.4987 82.085 28.5625V29.7383ZM85.7969 34.1475L87.5195 28.6035H88.873L85.8994 37.1416C85.4391 38.3721 84.7077 38.9873 83.7051 38.9873L83.4658 38.9668L82.9941 38.8779V37.8525L83.3359 37.8799C83.7643 37.8799 84.097 37.7933 84.334 37.6201C84.5755 37.4469 84.7738 37.1302 84.9287 36.6699L85.209 35.918L82.5703 28.6035H83.9512L85.7969 34.1475ZM91.3818 36H90.1172V28.6035H91.3818V36ZM90.0146 26.6416C90.0146 26.4365 90.0762 26.2633 90.1992 26.1221C90.3268 25.9808 90.5137 25.9102 90.7598 25.9102C91.0059 25.9102 91.1927 25.9808 91.3203 26.1221C91.4479 26.2633 91.5117 26.4365 91.5117 26.6416C91.5117 26.8467 91.4479 27.0176 91.3203 27.1543C91.1927 27.291 91.0059 27.3594 90.7598 27.3594C90.5137 27.3594 90.3268 27.291 90.1992 27.1543C90.0762 27.0176 90.0146 26.8467 90.0146 26.6416ZM94.6084 28.6035L94.6494 29.5332C95.2145 28.8223 95.9528 28.4668 96.8643 28.4668C98.4274 28.4668 99.2158 29.3486 99.2295 31.1123V36H97.9648V31.1055C97.9603 30.5723 97.8372 30.1781 97.5957 29.9229C97.3587 29.6676 96.9873 29.54 96.4814 29.54C96.0713 29.54 95.7113 29.6494 95.4014 29.8682C95.0915 30.0869 94.8499 30.374 94.6768 30.7295V36H93.4121V28.6035H94.6084ZM100.836 32.2402C100.836 31.0872 101.103 30.1712 101.636 29.4922C102.169 28.8086 102.875 28.4668 103.755 28.4668C104.657 28.4668 105.361 28.7858 105.867 29.4238L105.929 28.6035H107.084V35.8223C107.084 36.7793 106.799 37.5335 106.229 38.085C105.664 38.6364 104.903 38.9121 103.946 38.9121C103.413 38.9121 102.891 38.7982 102.381 38.5703C101.87 38.3424 101.481 38.0303 101.212 37.6338L101.868 36.875C102.41 37.5449 103.074 37.8799 103.857 37.8799C104.473 37.8799 104.951 37.7067 105.293 37.3604C105.639 37.014 105.812 36.5264 105.812 35.8975V35.2617C105.307 35.8451 104.616 36.1367 103.741 36.1367C102.875 36.1367 102.174 35.7881 101.636 35.0908C101.103 34.3936 100.836 33.4434 100.836 32.2402ZM102.107 32.3838C102.107 33.2178 102.278 33.874 102.62 34.3525C102.962 34.8265 103.44 35.0635 104.056 35.0635C104.853 35.0635 105.439 34.7012 105.812 33.9766V30.5996C105.425 29.8932 104.844 29.54 104.069 29.54C103.454 29.54 102.973 29.7793 102.627 30.2578C102.281 30.7363 102.107 31.445 102.107 32.3838ZM118.732 32.3838C118.732 33.514 118.473 34.4232 117.953 35.1113C117.434 35.7949 116.736 36.1367 115.861 36.1367C114.927 36.1367 114.205 35.8063 113.694 35.1455L113.633 36H112.471V25.5H113.735V29.417C114.246 28.7835 114.95 28.4668 115.848 28.4668C116.745 28.4668 117.45 28.8063 117.96 29.4854C118.475 30.1644 118.732 31.0941 118.732 32.2744V32.3838ZM117.468 32.2402C117.468 31.3789 117.301 30.7135 116.969 30.2441C116.636 29.7747 116.158 29.54 115.533 29.54C114.699 29.54 114.1 29.9274 113.735 30.7021V33.9014C114.123 34.6761 114.727 35.0635 115.547 35.0635C116.153 35.0635 116.625 34.8288 116.962 34.3594C117.299 33.89 117.468 33.1836 117.468 32.2402ZM123.401 36.1367C122.399 36.1367 121.583 35.8086 120.954 35.1523C120.325 34.4915 120.011 33.6097 120.011 32.5068V32.2744C120.011 31.5407 120.15 30.8867 120.428 30.3125C120.71 29.7337 121.102 29.2826 121.604 28.959C122.109 28.6309 122.656 28.4668 123.244 28.4668C124.206 28.4668 124.953 28.7835 125.486 29.417C126.02 30.0505 126.286 30.9574 126.286 32.1377V32.6641H121.275C121.294 33.3932 121.506 33.9834 121.911 34.4346C122.321 34.8812 122.841 35.1045 123.47 35.1045C123.916 35.1045 124.295 35.0133 124.604 34.8311C124.914 34.6488 125.186 34.4072 125.418 34.1064L126.19 34.708C125.571 35.6605 124.641 36.1367 123.401 36.1367ZM123.244 29.5059C122.734 29.5059 122.305 29.6927 121.959 30.0664C121.613 30.4355 121.398 30.9551 121.316 31.625H125.021V31.5293C124.985 30.8867 124.812 30.39 124.502 30.0391C124.192 29.6836 123.773 29.5059 123.244 29.5059ZM129.472 26.8125V28.6035H130.853V29.5811H129.472V34.168C129.472 34.4642 129.533 34.6875 129.656 34.8379C129.779 34.9837 129.989 35.0566 130.285 35.0566C130.431 35.0566 130.632 35.0293 130.887 34.9746V36C130.554 36.0911 130.23 36.1367 129.916 36.1367C129.351 36.1367 128.925 35.9658 128.638 35.624C128.351 35.2822 128.207 34.7969 128.207 34.168V29.5811H126.86V28.6035H128.207V26.8125H129.472ZM138.885 34.2568L140.307 28.6035H141.571L139.418 36H138.393L136.595 30.3945L134.845 36H133.819L131.673 28.6035H132.931L134.387 34.1406L136.109 28.6035H137.128L138.885 34.2568ZM145.933 36.1367C144.93 36.1367 144.114 35.8086 143.485 35.1523C142.856 34.4915 142.542 33.6097 142.542 32.5068V32.2744C142.542 31.5407 142.681 30.8867 142.959 30.3125C143.242 29.7337 143.633 29.2826 144.135 28.959C144.641 28.6309 145.188 28.4668 145.775 28.4668C146.737 28.4668 147.484 28.7835 148.018 29.417C148.551 30.0505 148.817 30.9574 148.817 32.1377V32.6641H143.807C143.825 33.3932 144.037 33.9834 144.442 34.4346C144.853 34.8812 145.372 35.1045 146.001 35.1045C146.448 35.1045 146.826 35.0133 147.136 34.8311C147.446 34.6488 147.717 34.4072 147.949 34.1064L148.722 34.708C148.102 35.6605 147.172 36.1367 145.933 36.1367ZM145.775 29.5059C145.265 29.5059 144.837 29.6927 144.49 30.0664C144.144 30.4355 143.93 30.9551 143.848 31.625H147.553V31.5293C147.516 30.8867 147.343 30.39 147.033 30.0391C146.723 29.6836 146.304 29.5059 145.775 29.5059ZM153.356 36.1367C152.354 36.1367 151.538 35.8086 150.909 35.1523C150.28 34.4915 149.966 33.6097 149.966 32.5068V32.2744C149.966 31.5407 150.105 30.8867 150.383 30.3125C150.665 29.7337 151.057 29.2826 151.559 28.959C152.064 28.6309 152.611 28.4668 153.199 28.4668C154.161 28.4668 154.908 28.7835 155.441 29.417C155.975 30.0505 156.241 30.9574 156.241 32.1377V32.6641H151.23C151.249 33.3932 151.461 33.9834 151.866 34.4346C152.276 34.8812 152.796 35.1045 153.425 35.1045C153.871 35.1045 154.25 35.0133 154.56 34.8311C154.869 34.6488 155.141 34.4072 155.373 34.1064L156.146 34.708C155.526 35.6605 154.596 36.1367 153.356 36.1367ZM153.199 29.5059C152.689 29.5059 152.26 29.6927 151.914 30.0664C151.568 30.4355 151.354 30.9551 151.271 31.625H154.977V31.5293C154.94 30.8867 154.767 30.39 154.457 30.0391C154.147 29.6836 153.728 29.5059 153.199 29.5059ZM158.907 28.6035L158.948 29.5332C159.513 28.8223 160.252 28.4668 161.163 28.4668C162.726 28.4668 163.515 29.3486 163.528 31.1123V36H162.264V31.1055C162.259 30.5723 162.136 30.1781 161.895 29.9229C161.658 29.6676 161.286 29.54 160.78 29.54C160.37 29.54 160.01 29.6494 159.7 29.8682C159.39 30.0869 159.149 30.374 158.976 30.7295V36H157.711V28.6035H158.907Z" fill="black"/>
<path d="M11.457 77.8984L13 63.5625H28.2734V67.6641H16.9453L16.1641 74.4609C17.4792 73.7057 18.9635 73.3281 20.6172 73.3281C23.3255 73.3281 25.4284 74.194 26.9258 75.9258C28.4362 77.6576 29.1914 79.9883 29.1914 82.918C29.1914 85.8086 28.3581 88.1133 26.6914 89.832C25.0247 91.5378 22.7396 92.3906 19.8359 92.3906C17.2318 92.3906 15.0703 91.6549 13.3516 90.1836C11.6458 88.6992 10.7214 86.7461 10.5781 84.3242H15.168C15.3503 85.7044 15.8451 86.7656 16.6523 87.5078C17.4596 88.237 18.5143 88.6016 19.8164 88.6016C21.2747 88.6016 22.4076 88.0807 23.2148 87.0391C24.0352 85.9974 24.4453 84.5781 24.4453 82.7812C24.4453 81.0495 23.9961 79.6823 23.0977 78.6797C22.1992 77.6641 20.9622 77.1562 19.3867 77.1562C18.5273 77.1562 17.7982 77.2734 17.1992 77.5078C16.6003 77.7292 15.9492 78.1719 15.2461 78.8359L11.457 77.8984ZM34.1914 77.8984L35.7344 63.5625H51.0078V67.6641H39.6797L38.8984 74.4609C40.2135 73.7057 41.6979 73.3281 43.3516 73.3281C46.0599 73.3281 48.1628 74.194 49.6602 75.9258C51.1706 77.6576 51.9258 79.9883 51.9258 82.918C51.9258 85.8086 51.0924 88.1133 49.4258 89.832C47.7591 91.5378 45.474 92.3906 42.5703 92.3906C39.9661 92.3906 37.8047 91.6549 36.0859 90.1836C34.3802 88.6992 33.4557 86.7461 33.3125 84.3242H37.9023C38.0846 85.7044 38.5794 86.7656 39.3867 87.5078C40.194 88.237 41.2487 88.6016 42.5508 88.6016C44.0091 88.6016 45.1419 88.0807 45.9492 87.0391C46.7695 85.9974 47.1797 84.5781 47.1797 82.7812C47.1797 81.0495 46.7305 79.6823 45.832 78.6797C44.9336 77.6641 43.6966 77.1562 42.1211 77.1562C41.2617 77.1562 40.5326 77.2734 39.9336 77.5078C39.3346 77.7292 38.6836 78.1719 37.9805 78.8359L34.1914 77.8984ZM74.1914 80.0273C74.1914 84.1159 73.4232 87.2018 71.8867 89.2852C70.3633 91.3555 68.0391 92.3906 64.9141 92.3906C61.8411 92.3906 59.5234 91.3815 57.9609 89.3633C56.4115 87.332 55.6172 84.3307 55.5781 80.3594V75.4375C55.5781 71.349 56.3398 68.2826 57.8633 66.2383C59.3997 64.194 61.737 63.1719 64.875 63.1719C67.987 63.1719 70.3047 64.168 71.8281 66.1602C73.3646 68.1523 74.1523 71.1341 74.1914 75.1055V80.0273ZM69.4453 74.7148C69.4453 72.0456 69.0807 70.0924 68.3516 68.8555C67.6224 67.6055 66.4635 66.9805 64.875 66.9805C63.3255 66.9805 62.1862 67.5729 61.457 68.7578C60.7279 69.9297 60.3438 71.7656 60.3047 74.2656V80.7109C60.3047 83.3672 60.6758 85.3464 61.418 86.6484C62.1602 87.9505 63.3255 88.6016 64.9141 88.6016C66.4375 88.6016 67.5638 88.0026 68.293 86.8047C69.0221 85.5938 69.4062 83.7057 69.4453 81.1406V74.7148ZM109.172 79.8711H89.2891V76.043H109.172V79.8711ZM129.621 75.6133H132.512C133.97 75.6003 135.122 75.2227 135.969 74.4805C136.828 73.7383 137.258 72.6641 137.258 71.2578C137.258 69.9036 136.9 68.8555 136.184 68.1133C135.48 67.3581 134.4 66.9805 132.941 66.9805C131.665 66.9805 130.617 67.3516 129.797 68.0938C128.977 68.8229 128.566 69.7799 128.566 70.9648H123.82C123.82 69.5065 124.204 68.1784 124.973 66.9805C125.754 65.7826 126.835 64.8516 128.215 64.1875C129.608 63.5104 131.164 63.1719 132.883 63.1719C135.721 63.1719 137.948 63.888 139.562 65.3203C141.19 66.7396 142.004 68.7188 142.004 71.2578C142.004 72.5339 141.594 73.7383 140.773 74.8711C139.966 75.9909 138.918 76.8372 137.629 77.4102C139.191 77.944 140.376 78.7839 141.184 79.9297C142.004 81.0755 142.414 82.4427 142.414 84.0312C142.414 86.5833 141.535 88.6146 139.777 90.125C138.033 91.6354 135.734 92.3906 132.883 92.3906C130.148 92.3906 127.909 91.6615 126.164 90.2031C124.419 88.7448 123.547 86.8047 123.547 84.3828H128.293C128.293 85.6328 128.71 86.6484 129.543 87.4297C130.389 88.2109 131.522 88.6016 132.941 88.6016C134.413 88.6016 135.572 88.2109 136.418 87.4297C137.264 86.6484 137.688 85.5156 137.688 84.0312C137.688 82.5339 137.245 81.3815 136.359 80.5742C135.474 79.7669 134.159 79.3633 132.414 79.3633H129.621V75.6133ZM165.988 92H146.867V88.7383L156.34 78.4062C157.707 76.8828 158.677 75.6133 159.25 74.5977C159.836 73.569 160.129 72.5404 160.129 71.5117C160.129 70.1576 159.745 69.0638 158.977 68.2305C158.221 67.3971 157.199 66.9805 155.91 66.9805C154.374 66.9805 153.182 67.4492 152.336 68.3867C151.49 69.3242 151.066 70.6068 151.066 72.2344H146.32C146.32 70.5026 146.711 68.9466 147.492 67.5664C148.286 66.1732 149.413 65.0924 150.871 64.3242C152.342 63.556 154.035 63.1719 155.949 63.1719C158.71 63.1719 160.884 63.8685 162.473 65.2617C164.074 66.6419 164.875 68.556 164.875 71.0039C164.875 72.4232 164.471 73.9141 163.664 75.4766C162.87 77.026 161.561 78.7904 159.738 80.7695L152.785 88.2109H165.988V92ZM188.137 80.0273C188.137 84.1159 187.368 87.2018 185.832 89.2852C184.309 91.3555 181.984 92.3906 178.859 92.3906C175.786 92.3906 173.469 91.3815 171.906 89.3633C170.357 87.332 169.562 84.3307 169.523 80.3594V75.4375C169.523 71.349 170.285 68.2826 171.809 66.2383C173.345 64.194 175.682 63.1719 178.82 63.1719C181.932 63.1719 184.25 64.168 185.773 66.1602C187.31 68.1523 188.098 71.1341 188.137 75.1055V80.0273ZM183.391 74.7148C183.391 72.0456 183.026 70.0924 182.297 68.8555C181.568 67.6055 180.409 66.9805 178.82 66.9805C177.271 66.9805 176.132 67.5729 175.402 68.7578C174.673 69.9297 174.289 71.7656 174.25 74.2656V80.7109C174.25 83.3672 174.621 85.3464 175.363 86.6484C176.105 87.9505 177.271 88.6016 178.859 88.6016C180.383 88.6016 181.509 88.0026 182.238 86.8047C182.967 85.5938 183.352 83.7057 183.391 81.1406V74.7148ZM210.871 80.0273C210.871 84.1159 210.103 87.2018 208.566 89.2852C207.043 91.3555 204.719 92.3906 201.594 92.3906C198.521 92.3906 196.203 91.3815 194.641 89.3633C193.091 87.332 192.297 84.3307 192.258 80.3594V75.4375C192.258 71.349 193.02 68.2826 194.543 66.2383C196.079 64.194 198.417 63.1719 201.555 63.1719C204.667 63.1719 206.984 64.168 208.508 66.1602C210.044 68.1523 210.832 71.1341 210.871 75.1055V80.0273ZM206.125 74.7148C206.125 72.0456 205.76 70.0924 205.031 68.8555C204.302 67.6055 203.143 66.9805 201.555 66.9805C200.005 66.9805 198.866 67.5729 198.137 68.7578C197.408 69.9297 197.023 71.7656 196.984 74.2656V80.7109C196.984 83.3672 197.355 85.3464 198.098 86.6484C198.84 87.9505 200.005 88.6016 201.594 88.6016C203.117 88.6016 204.243 88.0026 204.973 86.8047C205.702 85.5938 206.086 83.7057 206.125 81.1406V74.7148Z" fill="#FBC800"/>
<path d="M32.6719 139.625L36.3906 148.906L40.1094 139.625H42.0547V151H40.5547V146.57L40.6953 141.789L36.9609 151H35.8125L32.0859 141.812L32.2344 146.57V151H30.7344V139.625H32.6719ZM49.6953 151C49.612 150.833 49.5443 150.536 49.4922 150.109C48.8203 150.807 48.0182 151.156 47.0859 151.156C46.2526 151.156 45.5677 150.922 45.0312 150.453C44.5 149.979 44.2344 149.38 44.2344 148.656C44.2344 147.776 44.5677 147.094 45.2344 146.609C45.9062 146.12 46.849 145.875 48.0625 145.875H49.4688V145.211C49.4688 144.706 49.3177 144.305 49.0156 144.008C48.7135 143.706 48.2682 143.555 47.6797 143.555C47.1641 143.555 46.7318 143.685 46.3828 143.945C46.0339 144.206 45.8594 144.521 45.8594 144.891H44.4062C44.4062 144.469 44.5547 144.062 44.8516 143.672C45.1536 143.276 45.5599 142.964 46.0703 142.734C46.5859 142.505 47.151 142.391 47.7656 142.391C48.7396 142.391 49.5026 142.635 50.0547 143.125C50.6068 143.609 50.8932 144.279 50.9141 145.133V149.023C50.9141 149.799 51.013 150.417 51.2109 150.875V151H49.6953ZM47.2969 149.898C47.75 149.898 48.1797 149.781 48.5859 149.547C48.9922 149.312 49.2865 149.008 49.4688 148.633V146.898H48.3359C46.5651 146.898 45.6797 147.417 45.6797 148.453C45.6797 148.906 45.8307 149.26 46.1328 149.516C46.4349 149.771 46.8229 149.898 47.2969 149.898ZM54.5469 142.547L54.5938 143.609C55.2396 142.797 56.0833 142.391 57.125 142.391C58.9115 142.391 59.8125 143.398 59.8281 145.414V151H58.3828V145.406C58.3776 144.797 58.237 144.346 57.9609 144.055C57.6901 143.763 57.2656 143.617 56.6875 143.617C56.2188 143.617 55.8073 143.742 55.4531 143.992C55.099 144.242 54.8229 144.57 54.625 144.977V151H53.1797V142.547H54.5469ZM64.7734 148.883L66.7422 142.547H68.2891L64.8906 152.305C64.3646 153.711 63.5286 154.414 62.3828 154.414L62.1094 154.391L61.5703 154.289V153.117L61.9609 153.148C62.4505 153.148 62.8307 153.049 63.1016 152.852C63.3776 152.654 63.6042 152.292 63.7812 151.766L64.1016 150.906L61.0859 142.547H62.6641L64.7734 148.883ZM80.0547 145.977H75.2812V151H73.7812V139.625H80.8281V140.859H75.2812V144.75H80.0547V145.977ZM85.4062 146.758H81.5938V145.578H85.4062V146.758ZM95.4453 149.508C95.0599 150.06 94.5208 150.474 93.8281 150.75C93.1406 151.021 92.3385 151.156 91.4219 151.156C90.4948 151.156 89.6719 150.94 88.9531 150.508C88.2344 150.07 87.6771 149.451 87.2812 148.648C86.8906 147.846 86.6901 146.917 86.6797 145.859V144.867C86.6797 143.154 87.0781 141.826 87.875 140.883C88.6771 139.94 89.8021 139.469 91.25 139.469C92.4375 139.469 93.3932 139.773 94.1172 140.383C94.8411 140.987 95.2839 141.846 95.4453 142.961H93.9453C93.6641 141.456 92.7682 140.703 91.2578 140.703C90.2526 140.703 89.4896 141.057 88.9688 141.766C88.4531 142.469 88.1927 143.49 88.1875 144.828V145.758C88.1875 147.034 88.4792 148.049 89.0625 148.805C89.6458 149.555 90.4349 149.93 91.4297 149.93C91.9922 149.93 92.4844 149.867 92.9062 149.742C93.3281 149.617 93.6771 149.406 93.9531 149.109V146.555H91.3203V145.336H95.4453V149.508ZM102.945 151C102.862 150.833 102.794 150.536 102.742 150.109C102.07 150.807 101.268 151.156 100.336 151.156C99.5026 151.156 98.8177 150.922 98.2812 150.453C97.75 149.979 97.4844 149.38 97.4844 148.656C97.4844 147.776 97.8177 147.094 98.4844 146.609C99.1562 146.12 100.099 145.875 101.312 145.875H102.719V145.211C102.719 144.706 102.568 144.305 102.266 144.008C101.964 143.706 101.518 143.555 100.93 143.555C100.414 143.555 99.9818 143.685 99.6328 143.945C99.2839 144.206 99.1094 144.521 99.1094 144.891H97.6562C97.6562 144.469 97.8047 144.062 98.1016 143.672C98.4036 143.276 98.8099 142.964 99.3203 142.734C99.8359 142.505 100.401 142.391 101.016 142.391C101.99 142.391 102.753 142.635 103.305 143.125C103.857 143.609 104.143 144.279 104.164 145.133V149.023C104.164 149.799 104.263 150.417 104.461 150.875V151H102.945ZM100.547 149.898C101 149.898 101.43 149.781 101.836 149.547C102.242 149.312 102.536 149.008 102.719 148.633V146.898H101.586C99.8151 146.898 98.9297 147.417 98.9297 148.453C98.9297 148.906 99.0807 149.26 99.3828 149.516C99.6849 149.771 100.073 149.898 100.547 149.898ZM111.352 148.758C111.352 148.367 111.203 148.065 110.906 147.852C110.615 147.633 110.102 147.445 109.367 147.289C108.638 147.133 108.057 146.945 107.625 146.727C107.198 146.508 106.88 146.247 106.672 145.945C106.469 145.643 106.367 145.284 106.367 144.867C106.367 144.174 106.659 143.589 107.242 143.109C107.831 142.63 108.581 142.391 109.492 142.391C110.451 142.391 111.227 142.638 111.82 143.133C112.419 143.628 112.719 144.26 112.719 145.031H111.266C111.266 144.635 111.096 144.294 110.758 144.008C110.424 143.721 110.003 143.578 109.492 143.578C108.966 143.578 108.555 143.693 108.258 143.922C107.961 144.151 107.812 144.451 107.812 144.82C107.812 145.169 107.951 145.432 108.227 145.609C108.503 145.786 109 145.956 109.719 146.117C110.443 146.279 111.029 146.471 111.477 146.695C111.924 146.919 112.255 147.19 112.469 147.508C112.688 147.82 112.797 148.203 112.797 148.656C112.797 149.411 112.495 150.018 111.891 150.477C111.286 150.93 110.503 151.156 109.539 151.156C108.862 151.156 108.263 151.036 107.742 150.797C107.221 150.557 106.812 150.224 106.516 149.797C106.224 149.365 106.078 148.898 106.078 148.398H107.523C107.549 148.883 107.742 149.268 108.102 149.555C108.466 149.836 108.945 149.977 109.539 149.977C110.086 149.977 110.523 149.867 110.852 149.648C111.185 149.424 111.352 149.128 111.352 148.758ZM118.188 151.156C117.042 151.156 116.109 150.781 115.391 150.031C114.672 149.276 114.312 148.268 114.312 147.008V146.742C114.312 145.904 114.471 145.156 114.789 144.5C115.112 143.839 115.56 143.323 116.133 142.953C116.711 142.578 117.336 142.391 118.008 142.391C119.107 142.391 119.961 142.753 120.57 143.477C121.18 144.201 121.484 145.237 121.484 146.586V147.188H115.758C115.779 148.021 116.021 148.695 116.484 149.211C116.953 149.721 117.547 149.977 118.266 149.977C118.776 149.977 119.208 149.872 119.562 149.664C119.917 149.456 120.227 149.18 120.492 148.836L121.375 149.523C120.667 150.612 119.604 151.156 118.188 151.156ZM118.008 143.578C117.424 143.578 116.935 143.792 116.539 144.219C116.143 144.641 115.898 145.234 115.805 146H120.039V145.891C119.997 145.156 119.799 144.589 119.445 144.188C119.091 143.781 118.612 143.578 118.008 143.578ZM128.086 148.758C128.086 148.367 127.938 148.065 127.641 147.852C127.349 147.633 126.836 147.445 126.102 147.289C125.372 147.133 124.792 146.945 124.359 146.727C123.932 146.508 123.615 146.247 123.406 145.945C123.203 145.643 123.102 145.284 123.102 144.867C123.102 144.174 123.393 143.589 123.977 143.109C124.565 142.63 125.315 142.391 126.227 142.391C127.185 142.391 127.961 142.638 128.555 143.133C129.154 143.628 129.453 144.26 129.453 145.031H128C128 144.635 127.831 144.294 127.492 144.008C127.159 143.721 126.737 143.578 126.227 143.578C125.701 143.578 125.289 143.693 124.992 143.922C124.695 144.151 124.547 144.451 124.547 144.82C124.547 145.169 124.685 145.432 124.961 145.609C125.237 145.786 125.734 145.956 126.453 146.117C127.177 146.279 127.763 146.471 128.211 146.695C128.659 146.919 128.99 147.19 129.203 147.508C129.422 147.82 129.531 148.203 129.531 148.656C129.531 149.411 129.229 150.018 128.625 150.477C128.021 150.93 127.237 151.156 126.273 151.156C125.596 151.156 124.997 151.036 124.477 150.797C123.956 150.557 123.547 150.224 123.25 149.797C122.958 149.365 122.812 148.898 122.812 148.398H124.258C124.284 148.883 124.477 149.268 124.836 149.555C125.201 149.836 125.68 149.977 126.273 149.977C126.82 149.977 127.258 149.867 127.586 149.648C127.919 149.424 128.086 149.128 128.086 148.758ZM138.773 149.977C139.289 149.977 139.74 149.82 140.125 149.508C140.51 149.195 140.724 148.805 140.766 148.336H142.133C142.107 148.82 141.94 149.281 141.633 149.719C141.326 150.156 140.914 150.505 140.398 150.766C139.888 151.026 139.346 151.156 138.773 151.156C137.622 151.156 136.706 150.773 136.023 150.008C135.346 149.237 135.008 148.185 135.008 146.852V146.609C135.008 145.786 135.159 145.055 135.461 144.414C135.763 143.773 136.195 143.276 136.758 142.922C137.326 142.568 137.995 142.391 138.766 142.391C139.714 142.391 140.5 142.674 141.125 143.242C141.755 143.81 142.091 144.547 142.133 145.453H140.766C140.724 144.906 140.516 144.458 140.141 144.109C139.771 143.755 139.312 143.578 138.766 143.578C138.031 143.578 137.461 143.844 137.055 144.375C136.654 144.901 136.453 145.664 136.453 146.664V146.938C136.453 147.911 136.654 148.661 137.055 149.188C137.456 149.714 138.029 149.977 138.773 149.977ZM148.977 151C148.893 150.833 148.826 150.536 148.773 150.109C148.102 150.807 147.299 151.156 146.367 151.156C145.534 151.156 144.849 150.922 144.312 150.453C143.781 149.979 143.516 149.38 143.516 148.656C143.516 147.776 143.849 147.094 144.516 146.609C145.188 146.12 146.13 145.875 147.344 145.875H148.75V145.211C148.75 144.706 148.599 144.305 148.297 144.008C147.995 143.706 147.549 143.555 146.961 143.555C146.445 143.555 146.013 143.685 145.664 143.945C145.315 144.206 145.141 144.521 145.141 144.891H143.688C143.688 144.469 143.836 144.062 144.133 143.672C144.435 143.276 144.841 142.964 145.352 142.734C145.867 142.505 146.432 142.391 147.047 142.391C148.021 142.391 148.784 142.635 149.336 143.125C149.888 143.609 150.174 144.279 150.195 145.133V149.023C150.195 149.799 150.294 150.417 150.492 150.875V151H148.977ZM146.578 149.898C147.031 149.898 147.461 149.781 147.867 149.547C148.273 149.312 148.568 149.008 148.75 148.633V146.898H147.617C145.846 146.898 144.961 147.417 144.961 148.453C144.961 148.906 145.112 149.26 145.414 149.516C145.716 149.771 146.104 149.898 146.578 149.898ZM153.828 142.547L153.875 143.609C154.521 142.797 155.365 142.391 156.406 142.391C158.193 142.391 159.094 143.398 159.109 145.414V151H157.664V145.406C157.659 144.797 157.518 144.346 157.242 144.055C156.971 143.763 156.547 143.617 155.969 143.617C155.5 143.617 155.089 143.742 154.734 143.992C154.38 144.242 154.104 144.57 153.906 144.977V151H152.461V142.547H153.828ZM164.875 146.695C164.875 145.867 165.036 145.122 165.359 144.461C165.688 143.799 166.141 143.289 166.719 142.93C167.302 142.57 167.966 142.391 168.711 142.391C169.862 142.391 170.792 142.789 171.5 143.586C172.214 144.383 172.57 145.443 172.57 146.766V146.867C172.57 147.69 172.411 148.43 172.094 149.086C171.781 149.737 171.331 150.245 170.742 150.609C170.159 150.974 169.487 151.156 168.727 151.156C167.581 151.156 166.651 150.758 165.938 149.961C165.229 149.164 164.875 148.109 164.875 146.797V146.695ZM166.328 146.867C166.328 147.805 166.544 148.557 166.977 149.125C167.414 149.693 167.997 149.977 168.727 149.977C169.461 149.977 170.044 149.69 170.477 149.117C170.909 148.539 171.125 147.732 171.125 146.695C171.125 145.768 170.904 145.018 170.461 144.445C170.023 143.867 169.44 143.578 168.711 143.578C167.997 143.578 167.422 143.862 166.984 144.43C166.547 144.997 166.328 145.81 166.328 146.867ZM175.75 142.547L175.797 143.609C176.443 142.797 177.286 142.391 178.328 142.391C180.115 142.391 181.016 143.398 181.031 145.414V151H179.586V145.406C179.581 144.797 179.44 144.346 179.164 144.055C178.893 143.763 178.469 143.617 177.891 143.617C177.422 143.617 177.01 143.742 176.656 143.992C176.302 144.242 176.026 144.57 175.828 144.977V151H174.383V142.547H175.75ZM184.781 151H183.336V139H184.781V151ZM189.867 148.883L191.836 142.547H193.383L189.984 152.305C189.458 153.711 188.622 154.414 187.477 154.414L187.203 154.391L186.664 154.289V153.117L187.055 153.148C187.544 153.148 187.924 153.049 188.195 152.852C188.471 152.654 188.698 152.292 188.875 151.766L189.195 150.906L186.18 142.547H187.758L189.867 148.883ZM29.1562 165.867C29.1562 167.159 28.8594 168.198 28.2656 168.984C27.6719 169.766 26.875 170.156 25.875 170.156C24.8073 170.156 23.9818 169.779 23.3984 169.023L23.3281 170H22V158H23.4453V162.477C24.0286 161.753 24.8333 161.391 25.8594 161.391C26.8854 161.391 27.6901 161.779 28.2734 162.555C28.862 163.331 29.1562 164.393 29.1562 165.742V165.867ZM27.7109 165.703C27.7109 164.719 27.5208 163.958 27.1406 163.422C26.7604 162.885 26.2135 162.617 25.5 162.617C24.5469 162.617 23.862 163.06 23.4453 163.945V167.602C23.888 168.487 24.5781 168.93 25.5156 168.93C26.2083 168.93 26.7474 168.661 27.1328 168.125C27.5182 167.589 27.7109 166.781 27.7109 165.703ZM34.4922 170.156C33.3464 170.156 32.4141 169.781 31.6953 169.031C30.9766 168.276 30.6172 167.268 30.6172 166.008V165.742C30.6172 164.904 30.776 164.156 31.0938 163.5C31.4167 162.839 31.8646 162.323 32.4375 161.953C33.0156 161.578 33.6406 161.391 34.3125 161.391C35.4115 161.391 36.2656 161.753 36.875 162.477C37.4844 163.201 37.7891 164.237 37.7891 165.586V166.188H32.0625C32.0833 167.021 32.3255 167.695 32.7891 168.211C33.2578 168.721 33.8516 168.977 34.5703 168.977C35.0807 168.977 35.513 168.872 35.8672 168.664C36.2214 168.456 36.5312 168.18 36.7969 167.836L37.6797 168.523C36.9714 169.612 35.9089 170.156 34.4922 170.156ZM34.3125 162.578C33.7292 162.578 33.2396 162.792 32.8438 163.219C32.4479 163.641 32.2031 164.234 32.1094 165H36.3438V164.891C36.3021 164.156 36.1042 163.589 35.75 163.188C35.3958 162.781 34.9167 162.578 34.3125 162.578ZM47.5234 162.844C47.3047 162.807 47.0677 162.789 46.8125 162.789C45.8646 162.789 45.2214 163.193 44.8828 164V170H43.4375V161.547H44.8438L44.8672 162.523C45.3411 161.768 46.013 161.391 46.8828 161.391C47.1641 161.391 47.3776 161.427 47.5234 161.5V162.844ZM52.2109 170.156C51.0651 170.156 50.1328 169.781 49.4141 169.031C48.6953 168.276 48.3359 167.268 48.3359 166.008V165.742C48.3359 164.904 48.4948 164.156 48.8125 163.5C49.1354 162.839 49.5833 162.323 50.1562 161.953C50.7344 161.578 51.3594 161.391 52.0312 161.391C53.1302 161.391 53.9844 161.753 54.5938 162.477C55.2031 163.201 55.5078 164.237 55.5078 165.586V166.188H49.7812C49.8021 167.021 50.0443 167.695 50.5078 168.211C50.9766 168.721 51.5703 168.977 52.2891 168.977C52.7995 168.977 53.2318 168.872 53.5859 168.664C53.9401 168.456 54.25 168.18 54.5156 167.836L55.3984 168.523C54.6901 169.612 53.6276 170.156 52.2109 170.156ZM52.0312 162.578C51.4479 162.578 50.9583 162.792 50.5625 163.219C50.1667 163.641 49.9219 164.234 49.8281 165H54.0625V164.891C54.0208 164.156 53.8229 163.589 53.4688 163.188C53.1146 162.781 52.6354 162.578 52.0312 162.578ZM58.5469 161.547L58.5859 162.484C59.2057 161.755 60.0417 161.391 61.0938 161.391C62.276 161.391 63.0807 161.844 63.5078 162.75C63.7891 162.344 64.1536 162.016 64.6016 161.766C65.0547 161.516 65.5885 161.391 66.2031 161.391C68.0573 161.391 69 162.372 69.0312 164.336V170H67.5859V164.422C67.5859 163.818 67.4479 163.367 67.1719 163.07C66.8958 162.768 66.4323 162.617 65.7812 162.617C65.2448 162.617 64.7995 162.779 64.4453 163.102C64.0911 163.419 63.8854 163.849 63.8281 164.391V170H62.375V164.461C62.375 163.232 61.7734 162.617 60.5703 162.617C59.6224 162.617 58.974 163.021 58.625 163.828V170H57.1797V161.547H58.5469ZM70.8359 165.695C70.8359 164.867 70.9974 164.122 71.3203 163.461C71.6484 162.799 72.1016 162.289 72.6797 161.93C73.263 161.57 73.9271 161.391 74.6719 161.391C75.8229 161.391 76.7526 161.789 77.4609 162.586C78.1745 163.383 78.5312 164.443 78.5312 165.766V165.867C78.5312 166.69 78.3724 167.43 78.0547 168.086C77.7422 168.737 77.2917 169.245 76.7031 169.609C76.1198 169.974 75.4479 170.156 74.6875 170.156C73.5417 170.156 72.612 169.758 71.8984 168.961C71.1901 168.164 70.8359 167.109 70.8359 165.797V165.695ZM72.2891 165.867C72.2891 166.805 72.5052 167.557 72.9375 168.125C73.375 168.693 73.9583 168.977 74.6875 168.977C75.4219 168.977 76.0052 168.69 76.4375 168.117C76.8698 167.539 77.0859 166.732 77.0859 165.695C77.0859 164.768 76.8646 164.018 76.4219 163.445C75.9844 162.867 75.401 162.578 74.6719 162.578C73.9583 162.578 73.3828 162.862 72.9453 163.43C72.5078 163.997 72.2891 164.81 72.2891 165.867ZM83.0078 168.039L85.1016 161.547H86.5781L83.5469 170H82.4453L79.3828 161.547H80.8594L83.0078 168.039ZM91.3672 170.156C90.2214 170.156 89.2891 169.781 88.5703 169.031C87.8516 168.276 87.4922 167.268 87.4922 166.008V165.742C87.4922 164.904 87.651 164.156 87.9688 163.5C88.2917 162.839 88.7396 162.323 89.3125 161.953C89.8906 161.578 90.5156 161.391 91.1875 161.391C92.2865 161.391 93.1406 161.753 93.75 162.477C94.3594 163.201 94.6641 164.237 94.6641 165.586V166.188H88.9375C88.9583 167.021 89.2005 167.695 89.6641 168.211C90.1328 168.721 90.7266 168.977 91.4453 168.977C91.9557 168.977 92.388 168.872 92.7422 168.664C93.0964 168.456 93.4062 168.18 93.6719 167.836L94.5547 168.523C93.8464 169.612 92.7839 170.156 91.3672 170.156ZM91.1875 162.578C90.6042 162.578 90.1146 162.792 89.7188 163.219C89.3229 163.641 89.0781 164.234 88.9844 165H93.2188V164.891C93.1771 164.156 92.9792 163.589 92.625 163.188C92.2708 162.781 91.7917 162.578 91.1875 162.578ZM95.9922 165.703C95.9922 164.406 96.2995 163.365 96.9141 162.578C97.5286 161.786 98.3333 161.391 99.3281 161.391C100.318 161.391 101.102 161.729 101.68 162.406V158H103.125V170H101.797L101.727 169.094C101.148 169.802 100.344 170.156 99.3125 170.156C98.3333 170.156 97.5339 169.755 96.9141 168.953C96.2995 168.151 95.9922 167.104 95.9922 165.812V165.703ZM97.4375 165.867C97.4375 166.826 97.6354 167.576 98.0312 168.117C98.4271 168.659 98.974 168.93 99.6719 168.93C100.589 168.93 101.258 168.518 101.68 167.695V163.812C101.247 163.016 100.583 162.617 99.6875 162.617C98.9792 162.617 98.4271 162.891 98.0312 163.438C97.6354 163.984 97.4375 164.794 97.4375 165.867ZM116.5 165.867C116.5 167.159 116.203 168.198 115.609 168.984C115.016 169.766 114.219 170.156 113.219 170.156C112.151 170.156 111.326 169.779 110.742 169.023L110.672 170H109.344V158H110.789V162.477C111.372 161.753 112.177 161.391 113.203 161.391C114.229 161.391 115.034 161.779 115.617 162.555C116.206 163.331 116.5 164.393 116.5 165.742V165.867ZM115.055 165.703C115.055 164.719 114.865 163.958 114.484 163.422C114.104 162.885 113.557 162.617 112.844 162.617C111.891 162.617 111.206 163.06 110.789 163.945V167.602C111.232 168.487 111.922 168.93 112.859 168.93C113.552 168.93 114.091 168.661 114.477 168.125C114.862 167.589 115.055 166.781 115.055 165.703ZM121 167.883L122.969 161.547H124.516L121.117 171.305C120.591 172.711 119.755 173.414 118.609 173.414L118.336 173.391L117.797 173.289V172.117L118.188 172.148C118.677 172.148 119.057 172.049 119.328 171.852C119.604 171.654 119.831 171.292 120.008 170.766L120.328 169.906L117.312 161.547H118.891L121 167.883ZM134.703 167.758C134.703 167.367 134.555 167.065 134.258 166.852C133.966 166.633 133.453 166.445 132.719 166.289C131.99 166.133 131.409 165.945 130.977 165.727C130.549 165.508 130.232 165.247 130.023 164.945C129.82 164.643 129.719 164.284 129.719 163.867C129.719 163.174 130.01 162.589 130.594 162.109C131.182 161.63 131.932 161.391 132.844 161.391C133.802 161.391 134.578 161.638 135.172 162.133C135.771 162.628 136.07 163.26 136.07 164.031H134.617C134.617 163.635 134.448 163.294 134.109 163.008C133.776 162.721 133.354 162.578 132.844 162.578C132.318 162.578 131.906 162.693 131.609 162.922C131.312 163.151 131.164 163.451 131.164 163.82C131.164 164.169 131.302 164.432 131.578 164.609C131.854 164.786 132.352 164.956 133.07 165.117C133.794 165.279 134.38 165.471 134.828 165.695C135.276 165.919 135.607 166.19 135.82 166.508C136.039 166.82 136.148 167.203 136.148 167.656C136.148 168.411 135.846 169.018 135.242 169.477C134.638 169.93 133.854 170.156 132.891 170.156C132.214 170.156 131.615 170.036 131.094 169.797C130.573 169.557 130.164 169.224 129.867 168.797C129.576 168.365 129.43 167.898 129.43 167.398H130.875C130.901 167.883 131.094 168.268 131.453 168.555C131.818 168.836 132.297 168.977 132.891 168.977C133.438 168.977 133.875 168.867 134.203 168.648C134.536 168.424 134.703 168.128 134.703 167.758ZM143.25 169.164C142.688 169.826 141.862 170.156 140.773 170.156C139.872 170.156 139.185 169.896 138.711 169.375C138.242 168.849 138.005 168.073 138 167.047V161.547H139.445V167.008C139.445 168.289 139.966 168.93 141.008 168.93C142.112 168.93 142.846 168.518 143.211 167.695V161.547H144.656V170H143.281L143.25 169.164ZM148.227 161.547L148.273 162.609C148.919 161.797 149.763 161.391 150.805 161.391C152.591 161.391 153.492 162.398 153.508 164.414V170H152.062V164.406C152.057 163.797 151.917 163.346 151.641 163.055C151.37 162.763 150.945 162.617 150.367 162.617C149.898 162.617 149.487 162.742 149.133 162.992C148.779 163.242 148.503 163.57 148.305 163.977V170H146.859V161.547H148.227ZM157.258 170H155.812V158H157.258V170ZM161.148 170H159.703V161.547H161.148V170ZM159.586 159.305C159.586 159.07 159.656 158.872 159.797 158.711C159.943 158.549 160.156 158.469 160.438 158.469C160.719 158.469 160.932 158.549 161.078 158.711C161.224 158.872 161.297 159.07 161.297 159.305C161.297 159.539 161.224 159.734 161.078 159.891C160.932 160.047 160.719 160.125 160.438 160.125C160.156 160.125 159.943 160.047 159.797 159.891C159.656 159.734 159.586 159.539 159.586 159.305ZM163.125 165.703C163.125 164.385 163.43 163.339 164.039 162.562C164.648 161.781 165.456 161.391 166.461 161.391C167.492 161.391 168.297 161.755 168.875 162.484L168.945 161.547H170.266V169.797C170.266 170.891 169.94 171.753 169.289 172.383C168.643 173.013 167.773 173.328 166.68 173.328C166.07 173.328 165.474 173.198 164.891 172.938C164.307 172.677 163.862 172.32 163.555 171.867L164.305 171C164.924 171.766 165.682 172.148 166.578 172.148C167.281 172.148 167.828 171.951 168.219 171.555C168.615 171.159 168.812 170.602 168.812 169.883V169.156C168.234 169.823 167.445 170.156 166.445 170.156C165.456 170.156 164.654 169.758 164.039 168.961C163.43 168.164 163.125 167.078 163.125 165.703ZM164.578 165.867C164.578 166.82 164.773 167.57 165.164 168.117C165.555 168.659 166.102 168.93 166.805 168.93C167.716 168.93 168.385 168.516 168.812 167.688V163.828C168.37 163.021 167.706 162.617 166.82 162.617C166.117 162.617 165.568 162.891 165.172 163.438C164.776 163.984 164.578 164.794 164.578 165.867ZM173.898 162.57C174.539 161.784 175.372 161.391 176.398 161.391C178.185 161.391 179.086 162.398 179.102 164.414V170H177.656V164.406C177.651 163.797 177.51 163.346 177.234 163.055C176.964 162.763 176.539 162.617 175.961 162.617C175.492 162.617 175.081 162.742 174.727 162.992C174.372 163.242 174.096 163.57 173.898 163.977V170H172.453V158H173.898V162.57ZM183.227 159.5V161.547H184.805V162.664H183.227V167.906C183.227 168.245 183.297 168.5 183.438 168.672C183.578 168.839 183.818 168.922 184.156 168.922C184.323 168.922 184.552 168.891 184.844 168.828V170C184.464 170.104 184.094 170.156 183.734 170.156C183.089 170.156 182.602 169.961 182.273 169.57C181.945 169.18 181.781 168.625 181.781 167.906V162.664H180.242V161.547H181.781V159.5H183.227ZM192.039 170H190.594V161.547H192.039V170ZM190.477 159.305C190.477 159.07 190.547 158.872 190.688 158.711C190.833 158.549 191.047 158.469 191.328 158.469C191.609 158.469 191.823 158.549 191.969 158.711C192.115 158.872 192.188 159.07 192.188 159.305C192.188 159.539 192.115 159.734 191.969 159.891C191.823 160.047 191.609 160.125 191.328 160.125C191.047 160.125 190.833 160.047 190.688 159.891C190.547 159.734 190.477 159.539 190.477 159.305ZM195.727 161.547L195.773 162.609C196.419 161.797 197.263 161.391 198.305 161.391C200.091 161.391 200.992 162.398 201.008 164.414V170H199.562V164.406C199.557 163.797 199.417 163.346 199.141 163.055C198.87 162.763 198.445 162.617 197.867 162.617C197.398 162.617 196.987 162.742 196.633 162.992C196.279 163.242 196.003 163.57 195.805 163.977V170H194.359V161.547H195.727ZM29.7656 178.5V180.547H31.3438V181.664H29.7656V186.906C29.7656 187.245 29.8359 187.5 29.9766 187.672C30.1172 187.839 30.3568 187.922 30.6953 187.922C30.862 187.922 31.0911 187.891 31.3828 187.828V189C31.0026 189.104 30.6328 189.156 30.2734 189.156C29.6276 189.156 29.1406 188.961 28.8125 188.57C28.4844 188.18 28.3203 187.625 28.3203 186.906V181.664H26.7812V180.547H28.3203V178.5H29.7656ZM34.4844 181.57C35.125 180.784 35.9583 180.391 36.9844 180.391C38.7708 180.391 39.6719 181.398 39.6875 183.414V189H38.2422V183.406C38.237 182.797 38.0964 182.346 37.8203 182.055C37.5495 181.763 37.125 181.617 36.5469 181.617C36.0781 181.617 35.6667 181.742 35.3125 181.992C34.9583 182.242 34.6823 182.57 34.4844 182.977V189H33.0391V177H34.4844V181.57ZM45.3594 189.156C44.2135 189.156 43.2812 188.781 42.5625 188.031C41.8438 187.276 41.4844 186.268 41.4844 185.008V184.742C41.4844 183.904 41.6432 183.156 41.9609 182.5C42.2839 181.839 42.7318 181.323 43.3047 180.953C43.8828 180.578 44.5078 180.391 45.1797 180.391C46.2786 180.391 47.1328 180.753 47.7422 181.477C48.3516 182.201 48.6562 183.237 48.6562 184.586V185.188H42.9297C42.9505 186.021 43.1927 186.695 43.6562 187.211C44.125 187.721 44.7188 187.977 45.4375 187.977C45.9479 187.977 46.3802 187.872 46.7344 187.664C47.0885 187.456 47.3984 187.18 47.6641 186.836L48.5469 187.523C47.8385 188.612 46.776 189.156 45.3594 189.156ZM45.1797 181.578C44.5964 181.578 44.1068 181.792 43.7109 182.219C43.3151 182.641 43.0703 183.234 42.9766 184H47.2109V183.891C47.1693 183.156 46.9714 182.589 46.6172 182.188C46.263 181.781 45.7839 181.578 45.1797 181.578ZM59.5234 188.164C58.9609 188.826 58.1354 189.156 57.0469 189.156C56.1458 189.156 55.4583 188.896 54.9844 188.375C54.5156 187.849 54.2786 187.073 54.2734 186.047V180.547H55.7188V186.008C55.7188 187.289 56.2396 187.93 57.2812 187.93C58.3854 187.93 59.1198 187.518 59.4844 186.695V180.547H60.9297V189H59.5547L59.5234 188.164ZM70.2734 184.867C70.2734 186.154 69.9792 187.19 69.3906 187.977C68.8021 188.763 68.0052 189.156 67 189.156C65.974 189.156 65.1667 188.831 64.5781 188.18V192.25H63.1328V180.547H64.4531L64.5234 181.484C65.112 180.755 65.9297 180.391 66.9766 180.391C67.9922 180.391 68.7943 180.773 69.3828 181.539C69.9766 182.305 70.2734 183.37 70.2734 184.734V184.867ZM68.8281 184.703C68.8281 183.75 68.625 182.997 68.2188 182.445C67.8125 181.893 67.2552 181.617 66.5469 181.617C65.6719 181.617 65.0156 182.005 64.5781 182.781V186.82C65.0104 187.591 65.6719 187.977 66.5625 187.977C67.2552 187.977 67.8047 187.703 68.2109 187.156C68.6224 186.604 68.8281 185.786 68.8281 184.703ZM79.2578 184.867C79.2578 186.154 78.9635 187.19 78.375 187.977C77.7865 188.763 76.9896 189.156 75.9844 189.156C74.9583 189.156 74.151 188.831 73.5625 188.18V192.25H72.1172V180.547H73.4375L73.5078 181.484C74.0964 180.755 74.9141 180.391 75.9609 180.391C76.9766 180.391 77.7786 180.773 78.3672 181.539C78.9609 182.305 79.2578 183.37 79.2578 184.734V184.867ZM77.8125 184.703C77.8125 183.75 77.6094 182.997 77.2031 182.445C76.7969 181.893 76.2396 181.617 75.5312 181.617C74.6562 181.617 74 182.005 73.5625 182.781V186.82C73.9948 187.591 74.6562 187.977 75.5469 187.977C76.2396 187.977 76.7891 187.703 77.1953 187.156C77.6068 186.604 77.8125 185.786 77.8125 184.703ZM84.6094 189.156C83.4635 189.156 82.5312 188.781 81.8125 188.031C81.0938 187.276 80.7344 186.268 80.7344 185.008V184.742C80.7344 183.904 80.8932 183.156 81.2109 182.5C81.5339 181.839 81.9818 181.323 82.5547 180.953C83.1328 180.578 83.7578 180.391 84.4297 180.391C85.5286 180.391 86.3828 180.753 86.9922 181.477C87.6016 182.201 87.9062 183.237 87.9062 184.586V185.188H82.1797C82.2005 186.021 82.4427 186.695 82.9062 187.211C83.375 187.721 83.9688 187.977 84.6875 187.977C85.1979 187.977 85.6302 187.872 85.9844 187.664C86.3385 187.456 86.6484 187.18 86.9141 186.836L87.7969 187.523C87.0885 188.612 86.026 189.156 84.6094 189.156ZM84.4297 181.578C83.8464 181.578 83.3568 181.792 82.9609 182.219C82.5651 182.641 82.3203 183.234 82.2266 184H86.4609V183.891C86.4193 183.156 86.2214 182.589 85.8672 182.188C85.513 181.781 85.0339 181.578 84.4297 181.578ZM93.6719 181.844C93.4531 181.807 93.2161 181.789 92.9609 181.789C92.013 181.789 91.3698 182.193 91.0312 183V189H89.5859V180.547H90.9922L91.0156 181.523C91.4896 180.768 92.1615 180.391 93.0312 180.391C93.3125 180.391 93.526 180.427 93.6719 180.5V181.844ZM104.195 189C104.112 188.833 104.044 188.536 103.992 188.109C103.32 188.807 102.518 189.156 101.586 189.156C100.753 189.156 100.068 188.922 99.5312 188.453C99 187.979 98.7344 187.38 98.7344 186.656C98.7344 185.776 99.0677 185.094 99.7344 184.609C100.406 184.12 101.349 183.875 102.562 183.875H103.969V183.211C103.969 182.706 103.818 182.305 103.516 182.008C103.214 181.706 102.768 181.555 102.18 181.555C101.664 181.555 101.232 181.685 100.883 181.945C100.534 182.206 100.359 182.521 100.359 182.891H98.9062C98.9062 182.469 99.0547 182.062 99.3516 181.672C99.6536 181.276 100.06 180.964 100.57 180.734C101.086 180.505 101.651 180.391 102.266 180.391C103.24 180.391 104.003 180.635 104.555 181.125C105.107 181.609 105.393 182.279 105.414 183.133V187.023C105.414 187.799 105.513 188.417 105.711 188.875V189H104.195ZM101.797 187.898C102.25 187.898 102.68 187.781 103.086 187.547C103.492 187.312 103.786 187.008 103.969 186.633V184.898H102.836C101.065 184.898 100.18 185.417 100.18 186.453C100.18 186.906 100.331 187.26 100.633 187.516C100.935 187.771 101.323 187.898 101.797 187.898ZM109.641 178.5V180.547H111.219V181.664H109.641V186.906C109.641 187.245 109.711 187.5 109.852 187.672C109.992 187.839 110.232 187.922 110.57 187.922C110.737 187.922 110.966 187.891 111.258 187.828V189C110.878 189.104 110.508 189.156 110.148 189.156C109.503 189.156 109.016 188.961 108.688 188.57C108.359 188.18 108.195 187.625 108.195 186.906V181.664H106.656V180.547H108.195V178.5H109.641ZM114.359 181.57C115 180.784 115.833 180.391 116.859 180.391C118.646 180.391 119.547 181.398 119.562 183.414V189H118.117V183.406C118.112 182.797 117.971 182.346 117.695 182.055C117.424 181.763 117 181.617 116.422 181.617C115.953 181.617 115.542 181.742 115.188 181.992C114.833 182.242 114.557 182.57 114.359 182.977V189H112.914V177H114.359V181.57ZM123.086 180.547L123.125 181.484C123.745 180.755 124.581 180.391 125.633 180.391C126.815 180.391 127.62 180.844 128.047 181.75C128.328 181.344 128.693 181.016 129.141 180.766C129.594 180.516 130.128 180.391 130.742 180.391C132.596 180.391 133.539 181.372 133.57 183.336V189H132.125V183.422C132.125 182.818 131.987 182.367 131.711 182.07C131.435 181.768 130.971 181.617 130.32 181.617C129.784 181.617 129.339 181.779 128.984 182.102C128.63 182.419 128.424 182.849 128.367 183.391V189H126.914V183.461C126.914 182.232 126.312 181.617 125.109 181.617C124.161 181.617 123.513 182.021 123.164 182.828V189H121.719V180.547H123.086ZM135.375 184.695C135.375 183.867 135.536 183.122 135.859 182.461C136.188 181.799 136.641 181.289 137.219 180.93C137.802 180.57 138.466 180.391 139.211 180.391C140.362 180.391 141.292 180.789 142 181.586C142.714 182.383 143.07 183.443 143.07 184.766V184.867C143.07 185.69 142.911 186.43 142.594 187.086C142.281 187.737 141.831 188.245 141.242 188.609C140.659 188.974 139.987 189.156 139.227 189.156C138.081 189.156 137.151 188.758 136.438 187.961C135.729 187.164 135.375 186.109 135.375 184.797V184.695ZM136.828 184.867C136.828 185.805 137.044 186.557 137.477 187.125C137.914 187.693 138.497 187.977 139.227 187.977C139.961 187.977 140.544 187.69 140.977 187.117C141.409 186.539 141.625 185.732 141.625 184.695C141.625 183.768 141.404 183.018 140.961 182.445C140.523 181.867 139.94 181.578 139.211 181.578C138.497 181.578 137.922 181.862 137.484 182.43C137.047 182.997 136.828 183.81 136.828 184.867ZM149.805 186.758C149.805 186.367 149.656 186.065 149.359 185.852C149.068 185.633 148.555 185.445 147.82 185.289C147.091 185.133 146.51 184.945 146.078 184.727C145.651 184.508 145.333 184.247 145.125 183.945C144.922 183.643 144.82 183.284 144.82 182.867C144.82 182.174 145.112 181.589 145.695 181.109C146.284 180.63 147.034 180.391 147.945 180.391C148.904 180.391 149.68 180.638 150.273 181.133C150.872 181.628 151.172 182.26 151.172 183.031H149.719C149.719 182.635 149.549 182.294 149.211 182.008C148.878 181.721 148.456 181.578 147.945 181.578C147.419 181.578 147.008 181.693 146.711 181.922C146.414 182.151 146.266 182.451 146.266 182.82C146.266 183.169 146.404 183.432 146.68 183.609C146.956 183.786 147.453 183.956 148.172 184.117C148.896 184.279 149.482 184.471 149.93 184.695C150.378 184.919 150.708 185.19 150.922 185.508C151.141 185.82 151.25 186.203 151.25 186.656C151.25 187.411 150.948 188.018 150.344 188.477C149.74 188.93 148.956 189.156 147.992 189.156C147.315 189.156 146.716 189.036 146.195 188.797C145.674 188.557 145.266 188.224 144.969 187.797C144.677 187.365 144.531 186.898 144.531 186.398H145.977C146.003 186.883 146.195 187.268 146.555 187.555C146.919 187.836 147.398 187.977 147.992 187.977C148.539 187.977 148.977 187.867 149.305 187.648C149.638 187.424 149.805 187.128 149.805 186.758ZM160.273 184.867C160.273 186.154 159.979 187.19 159.391 187.977C158.802 188.763 158.005 189.156 157 189.156C155.974 189.156 155.167 188.831 154.578 188.18V192.25H153.133V180.547H154.453L154.523 181.484C155.112 180.755 155.93 180.391 156.977 180.391C157.992 180.391 158.794 180.773 159.383 181.539C159.977 182.305 160.273 183.37 160.273 184.734V184.867ZM158.828 184.703C158.828 183.75 158.625 182.997 158.219 182.445C157.812 181.893 157.255 181.617 156.547 181.617C155.672 181.617 155.016 182.005 154.578 182.781V186.82C155.01 187.591 155.672 187.977 156.562 187.977C157.255 187.977 157.805 187.703 158.211 187.156C158.622 186.604 158.828 185.786 158.828 184.703ZM163.562 181.57C164.203 180.784 165.036 180.391 166.062 180.391C167.849 180.391 168.75 181.398 168.766 183.414V189H167.32V183.406C167.315 182.797 167.174 182.346 166.898 182.055C166.628 181.763 166.203 181.617 165.625 181.617C165.156 181.617 164.745 181.742 164.391 181.992C164.036 182.242 163.76 182.57 163.562 182.977V189H162.117V177H163.562V181.57ZM174.438 189.156C173.292 189.156 172.359 188.781 171.641 188.031C170.922 187.276 170.562 186.268 170.562 185.008V184.742C170.562 183.904 170.721 183.156 171.039 182.5C171.362 181.839 171.81 181.323 172.383 180.953C172.961 180.578 173.586 180.391 174.258 180.391C175.357 180.391 176.211 180.753 176.82 181.477C177.43 182.201 177.734 183.237 177.734 184.586V185.188H172.008C172.029 186.021 172.271 186.695 172.734 187.211C173.203 187.721 173.797 187.977 174.516 187.977C175.026 187.977 175.458 187.872 175.812 187.664C176.167 187.456 176.477 187.18 176.742 186.836L177.625 187.523C176.917 188.612 175.854 189.156 174.438 189.156ZM174.258 181.578C173.674 181.578 173.185 181.792 172.789 182.219C172.393 182.641 172.148 183.234 172.055 184H176.289V183.891C176.247 183.156 176.049 182.589 175.695 182.188C175.341 181.781 174.862 181.578 174.258 181.578ZM183.5 181.844C183.281 181.807 183.044 181.789 182.789 181.789C181.841 181.789 181.198 182.193 180.859 183V189H179.414V180.547H180.82L180.844 181.523C181.318 180.768 181.99 180.391 182.859 180.391C183.141 180.391 183.354 180.427 183.5 180.5V181.844ZM188.188 189.156C187.042 189.156 186.109 188.781 185.391 188.031C184.672 187.276 184.312 186.268 184.312 185.008V184.742C184.312 183.904 184.471 183.156 184.789 182.5C185.112 181.839 185.56 181.323 186.133 180.953C186.711 180.578 187.336 180.391 188.008 180.391C189.107 180.391 189.961 180.753 190.57 181.477C191.18 182.201 191.484 183.237 191.484 184.586V185.188H185.758C185.779 186.021 186.021 186.695 186.484 187.211C186.953 187.721 187.547 187.977 188.266 187.977C188.776 187.977 189.208 187.872 189.562 187.664C189.917 187.456 190.227 187.18 190.492 186.836L191.375 187.523C190.667 188.612 189.604 189.156 188.188 189.156ZM188.008 181.578C187.424 181.578 186.935 181.792 186.539 182.219C186.143 182.641 185.898 183.234 185.805 184H190.039V183.891C189.997 183.156 189.799 182.589 189.445 182.188C189.091 181.781 188.612 181.578 188.008 181.578ZM193.195 188.242C193.195 187.992 193.268 187.784 193.414 187.617C193.565 187.451 193.789 187.367 194.086 187.367C194.383 187.367 194.607 187.451 194.758 187.617C194.914 187.784 194.992 187.992 194.992 188.242C194.992 188.482 194.914 188.682 194.758 188.844C194.607 189.005 194.383 189.086 194.086 189.086C193.789 189.086 193.565 189.005 193.414 188.844C193.268 188.682 193.195 188.482 193.195 188.242Z" fill="black"/>
</svg>
