<svg width="222" height="127" viewBox="0 0 222 127" fill="none" xmlns="http://www.w3.org/2000/svg">
<path d="M94.2822 120.618L96.4971 113.49H98.2373L94.4141 124.468C93.8223 126.05 92.8818 126.841 91.5928 126.841L91.2852 126.814L90.6787 126.7V125.382L91.1182 125.417C91.6689 125.417 92.0967 125.306 92.4014 125.083C92.7119 124.86 92.9668 124.453 93.166 123.861L93.5264 122.895L90.1338 113.49H91.9092L94.2822 120.618ZM103.52 123.176C102.23 123.176 101.182 122.754 100.373 121.91C99.5645 121.061 99.1602 119.927 99.1602 118.509V118.21C99.1602 117.267 99.3389 116.426 99.6963 115.688C100.06 114.943 100.563 114.363 101.208 113.947C101.858 113.525 102.562 113.314 103.317 113.314C104.554 113.314 105.515 113.722 106.2 114.536C106.886 115.351 107.229 116.517 107.229 118.034V118.711H100.786C100.81 119.648 101.082 120.407 101.604 120.987C102.131 121.562 102.799 121.849 103.607 121.849C104.182 121.849 104.668 121.731 105.066 121.497C105.465 121.263 105.813 120.952 106.112 120.565L107.105 121.339C106.309 122.563 105.113 123.176 103.52 123.176ZM103.317 114.65C102.661 114.65 102.11 114.891 101.665 115.371C101.22 115.846 100.944 116.514 100.839 117.375H105.603V117.252C105.556 116.426 105.333 115.787 104.935 115.336C104.536 114.879 103.997 114.65 103.317 114.65ZM114.989 123C114.896 122.812 114.819 122.479 114.761 121.998C114.005 122.783 113.103 123.176 112.054 123.176C111.116 123.176 110.346 122.912 109.742 122.385C109.145 121.852 108.846 121.178 108.846 120.363C108.846 119.373 109.221 118.605 109.971 118.061C110.727 117.51 111.787 117.234 113.152 117.234H114.734V116.487C114.734 115.919 114.564 115.468 114.225 115.134C113.885 114.794 113.384 114.624 112.722 114.624C112.142 114.624 111.655 114.771 111.263 115.063C110.87 115.356 110.674 115.711 110.674 116.127H109.039C109.039 115.652 109.206 115.195 109.54 114.756C109.88 114.311 110.337 113.959 110.911 113.701C111.491 113.443 112.127 113.314 112.818 113.314C113.914 113.314 114.772 113.59 115.394 114.141C116.015 114.686 116.337 115.438 116.36 116.399V120.776C116.36 121.649 116.472 122.344 116.694 122.859V123H114.989ZM112.291 121.761C112.801 121.761 113.284 121.629 113.741 121.365C114.198 121.102 114.529 120.759 114.734 120.337V118.386H113.46C111.468 118.386 110.472 118.969 110.472 120.135C110.472 120.645 110.642 121.043 110.981 121.33C111.321 121.617 111.758 121.761 112.291 121.761ZM123.506 114.949C123.26 114.908 122.993 114.888 122.706 114.888C121.64 114.888 120.916 115.342 120.535 116.25V123H118.909V113.49H120.491L120.518 114.589C121.051 113.739 121.807 113.314 122.785 113.314C123.102 113.314 123.342 113.355 123.506 113.438V114.949ZM130.546 120.478C130.546 120.038 130.379 119.698 130.045 119.458C129.717 119.212 129.14 119.001 128.313 118.825C127.493 118.649 126.84 118.438 126.354 118.192C125.873 117.946 125.516 117.653 125.281 117.313C125.053 116.974 124.938 116.569 124.938 116.101C124.938 115.321 125.267 114.662 125.923 114.123C126.585 113.584 127.429 113.314 128.454 113.314C129.532 113.314 130.405 113.593 131.073 114.149C131.747 114.706 132.084 115.418 132.084 116.285H130.449C130.449 115.84 130.259 115.456 129.878 115.134C129.503 114.812 129.028 114.65 128.454 114.65C127.862 114.65 127.399 114.779 127.065 115.037C126.731 115.295 126.564 115.632 126.564 116.048C126.564 116.44 126.72 116.736 127.03 116.936C127.341 117.135 127.9 117.325 128.709 117.507C129.523 117.688 130.183 117.905 130.687 118.157C131.19 118.409 131.562 118.714 131.803 119.071C132.049 119.423 132.172 119.854 132.172 120.363C132.172 121.213 131.832 121.896 131.152 122.411C130.473 122.921 129.591 123.176 128.507 123.176C127.745 123.176 127.071 123.041 126.485 122.771C125.899 122.502 125.439 122.127 125.105 121.646C124.777 121.16 124.613 120.636 124.613 120.073H126.239C126.269 120.618 126.485 121.052 126.89 121.374C127.3 121.69 127.839 121.849 128.507 121.849C129.122 121.849 129.614 121.726 129.983 121.479C130.358 121.228 130.546 120.894 130.546 120.478Z" fill="black"/>
<path d="M91.3789 92H86.6523V69.168L79.6797 71.5508V67.5469L90.7734 63.4648H91.3789V92ZM120.383 92H101.262V88.7383L110.734 78.4062C112.102 76.8828 113.072 75.6133 113.645 74.5977C114.23 73.569 114.523 72.5404 114.523 71.5117C114.523 70.1576 114.139 69.0638 113.371 68.2305C112.616 67.3971 111.594 66.9805 110.305 66.9805C108.768 66.9805 107.577 67.4492 106.73 68.3867C105.884 69.3242 105.461 70.6068 105.461 72.2344H100.715C100.715 70.5026 101.105 68.9466 101.887 67.5664C102.681 66.1732 103.807 65.0924 105.266 64.3242C106.737 63.556 108.43 63.1719 110.344 63.1719C113.104 63.1719 115.279 63.8685 116.867 65.2617C118.469 66.6419 119.27 68.556 119.27 71.0039C119.27 72.4232 118.866 73.9141 118.059 75.4766C117.264 77.026 115.956 78.7904 114.133 80.7695L107.18 88.2109H120.383V92ZM136.848 92H132.121V69.168L125.148 71.5508V67.5469L136.242 63.4648H136.848V92Z" fill="#6CBAFA"/>
</svg>
