<svg width="222" height="127" viewBox="0 0 222 127" fill="none" xmlns="http://www.w3.org/2000/svg">
<path d="M94.2822 120.618L96.4971 113.49H98.2373L94.4141 124.468C93.8223 126.05 92.8818 126.841 91.5928 126.841L91.2852 126.814L90.6787 126.7V125.382L91.1182 125.417C91.6689 125.417 92.0967 125.306 92.4014 125.083C92.7119 124.86 92.9668 124.453 93.166 123.861L93.5264 122.895L90.1338 113.49H91.9092L94.2822 120.618ZM103.52 123.176C102.23 123.176 101.182 122.754 100.373 121.91C99.5645 121.061 99.1602 119.927 99.1602 118.509V118.21C99.1602 117.267 99.3389 116.426 99.6963 115.688C100.06 114.943 100.563 114.363 101.208 113.947C101.858 113.525 102.562 113.314 103.317 113.314C104.554 113.314 105.515 113.722 106.2 114.536C106.886 115.351 107.229 116.517 107.229 118.034V118.711H100.786C100.81 119.648 101.082 120.407 101.604 120.987C102.131 121.562 102.799 121.849 103.607 121.849C104.182 121.849 104.668 121.731 105.066 121.497C105.465 121.263 105.813 120.952 106.112 120.565L107.105 121.339C106.309 122.563 105.113 123.176 103.52 123.176ZM103.317 114.65C102.661 114.65 102.11 114.891 101.665 115.371C101.22 115.846 100.944 116.514 100.839 117.375H105.603V117.252C105.556 116.426 105.333 115.787 104.935 115.336C104.536 114.879 103.997 114.65 103.317 114.65ZM114.989 123C114.896 122.812 114.819 122.479 114.761 121.998C114.005 122.783 113.103 123.176 112.054 123.176C111.116 123.176 110.346 122.912 109.742 122.385C109.145 121.852 108.846 121.178 108.846 120.363C108.846 119.373 109.221 118.605 109.971 118.061C110.727 117.51 111.787 117.234 113.152 117.234H114.734V116.487C114.734 115.919 114.564 115.468 114.225 115.134C113.885 114.794 113.384 114.624 112.722 114.624C112.142 114.624 111.655 114.771 111.263 115.063C110.87 115.356 110.674 115.711 110.674 116.127H109.039C109.039 115.652 109.206 115.195 109.54 114.756C109.88 114.311 110.337 113.959 110.911 113.701C111.491 113.443 112.127 113.314 112.818 113.314C113.914 113.314 114.772 113.59 115.394 114.141C116.015 114.686 116.337 115.438 116.36 116.399V120.776C116.36 121.649 116.472 122.344 116.694 122.859V123H114.989ZM112.291 121.761C112.801 121.761 113.284 121.629 113.741 121.365C114.198 121.102 114.529 120.759 114.734 120.337V118.386H113.46C111.468 118.386 110.472 118.969 110.472 120.135C110.472 120.645 110.642 121.043 110.981 121.33C111.321 121.617 111.758 121.761 112.291 121.761ZM123.506 114.949C123.26 114.908 122.993 114.888 122.706 114.888C121.64 114.888 120.916 115.342 120.535 116.25V123H118.909V113.49H120.491L120.518 114.589C121.051 113.739 121.807 113.314 122.785 113.314C123.102 113.314 123.342 113.355 123.506 113.438V114.949ZM130.546 120.478C130.546 120.038 130.379 119.698 130.045 119.458C129.717 119.212 129.14 119.001 128.313 118.825C127.493 118.649 126.84 118.438 126.354 118.192C125.873 117.946 125.516 117.653 125.281 117.313C125.053 116.974 124.938 116.569 124.938 116.101C124.938 115.321 125.267 114.662 125.923 114.123C126.585 113.584 127.429 113.314 128.454 113.314C129.532 113.314 130.405 113.593 131.073 114.149C131.747 114.706 132.084 115.418 132.084 116.285H130.449C130.449 115.84 130.259 115.456 129.878 115.134C129.503 114.812 129.028 114.65 128.454 114.65C127.862 114.65 127.399 114.779 127.065 115.037C126.731 115.295 126.564 115.632 126.564 116.048C126.564 116.44 126.72 116.736 127.03 116.936C127.341 117.135 127.9 117.325 128.709 117.507C129.523 117.688 130.183 117.905 130.687 118.157C131.19 118.409 131.562 118.714 131.803 119.071C132.049 119.423 132.172 119.854 132.172 120.363C132.172 121.213 131.832 121.896 131.152 122.411C130.473 122.921 129.591 123.176 128.507 123.176C127.745 123.176 127.071 123.041 126.485 122.771C125.899 122.502 125.439 122.127 125.105 121.646C124.777 121.16 124.613 120.636 124.613 120.073H126.239C126.269 120.618 126.485 121.052 126.89 121.374C127.3 121.69 127.839 121.849 128.507 121.849C129.122 121.849 129.614 121.726 129.983 121.479C130.358 121.228 130.546 120.894 130.546 120.478Z" fill="black"/>
<path d="M101.28 35.2686C100.788 35.8473 100.066 36.1367 99.1133 36.1367C98.3249 36.1367 97.7233 35.9089 97.3086 35.4531C96.8984 34.9928 96.6911 34.3138 96.6865 33.416V28.6035H97.9512V33.3818C97.9512 34.5029 98.4069 35.0635 99.3184 35.0635C100.285 35.0635 100.927 34.7035 101.246 33.9834V28.6035H102.511V36H101.308L101.28 35.2686ZM110.687 32.3838C110.687 33.5094 110.429 34.4163 109.914 35.1045C109.399 35.7926 108.702 36.1367 107.822 36.1367C106.924 36.1367 106.218 35.8519 105.703 35.2822V38.8438H104.438V28.6035H105.594L105.655 29.4238C106.17 28.7858 106.886 28.4668 107.802 28.4668C108.69 28.4668 109.392 28.8018 109.907 29.4717C110.427 30.1416 110.687 31.0736 110.687 32.2676V32.3838ZM109.422 32.2402C109.422 31.4062 109.244 30.7477 108.889 30.2646C108.533 29.7816 108.046 29.54 107.426 29.54C106.66 29.54 106.086 29.8796 105.703 30.5586V34.0928C106.081 34.7673 106.66 35.1045 107.439 35.1045C108.046 35.1045 108.526 34.8652 108.882 34.3867C109.242 33.9036 109.422 33.1882 109.422 32.2402ZM117.488 26.8125V28.6035H118.869V29.5811H117.488V34.168C117.488 34.4642 117.55 34.6875 117.673 34.8379C117.796 34.9837 118.006 35.0566 118.302 35.0566C118.448 35.0566 118.648 35.0293 118.903 34.9746V36C118.571 36.0911 118.247 36.1367 117.933 36.1367C117.368 36.1367 116.941 35.9658 116.654 35.624C116.367 35.2822 116.224 34.7969 116.224 34.168V29.5811H114.877V28.6035H116.224V26.8125H117.488ZM119.881 32.2334C119.881 31.5088 120.022 30.8571 120.305 30.2783C120.592 29.6995 120.988 29.2529 121.494 28.9385C122.005 28.624 122.586 28.4668 123.237 28.4668C124.244 28.4668 125.058 28.8154 125.678 29.5127C126.302 30.21 126.614 31.1374 126.614 32.2949V32.3838C126.614 33.1038 126.475 33.751 126.197 34.3252C125.924 34.8949 125.53 35.3392 125.015 35.6582C124.504 35.9772 123.916 36.1367 123.251 36.1367C122.248 36.1367 121.435 35.7881 120.811 35.0908C120.191 34.3936 119.881 33.4707 119.881 32.3223V32.2334ZM121.152 32.3838C121.152 33.2041 121.341 33.8626 121.72 34.3594C122.103 34.8561 122.613 35.1045 123.251 35.1045C123.894 35.1045 124.404 34.8538 124.782 34.3525C125.16 33.8467 125.35 33.1403 125.35 32.2334C125.35 31.4222 125.156 30.766 124.769 30.2646C124.386 29.7588 123.875 29.5059 123.237 29.5059C122.613 29.5059 122.109 29.7542 121.727 30.251C121.344 30.7477 121.152 31.4587 121.152 32.3838Z" fill="black"/>
<path d="M80.0117 92H75.2852V69.168L68.3125 71.5508V67.5469L79.4062 63.4648H80.0117V92ZM108.43 80.0273C108.43 84.1159 107.661 87.2018 106.125 89.2852C104.602 91.3555 102.277 92.3906 99.1523 92.3906C96.0794 92.3906 93.7617 91.3815 92.1992 89.3633C90.6497 87.332 89.8555 84.3307 89.8164 80.3594V75.4375C89.8164 71.349 90.5781 68.2826 92.1016 66.2383C93.638 64.194 95.9753 63.1719 99.1133 63.1719C102.225 63.1719 104.543 64.168 106.066 66.1602C107.603 68.1523 108.391 71.1341 108.43 75.1055V80.0273ZM103.684 74.7148C103.684 72.0456 103.319 70.0924 102.59 68.8555C101.861 67.6055 100.702 66.9805 99.1133 66.9805C97.5638 66.9805 96.4245 67.5729 95.6953 68.7578C94.9661 69.9297 94.582 71.7656 94.543 74.2656V80.7109C94.543 83.3672 94.9141 85.3464 95.6562 86.6484C96.3984 87.9505 97.5638 88.6016 99.1523 88.6016C100.676 88.6016 101.802 88.0026 102.531 86.8047C103.26 85.5938 103.645 83.7057 103.684 81.1406V74.7148ZM131.164 80.0273C131.164 84.1159 130.396 87.2018 128.859 89.2852C127.336 91.3555 125.012 92.3906 121.887 92.3906C118.814 92.3906 116.496 91.3815 114.934 89.3633C113.384 87.332 112.59 84.3307 112.551 80.3594V75.4375C112.551 71.349 113.312 68.2826 114.836 66.2383C116.372 64.194 118.71 63.1719 121.848 63.1719C124.96 63.1719 127.277 64.168 128.801 66.1602C130.337 68.1523 131.125 71.1341 131.164 75.1055V80.0273ZM126.418 74.7148C126.418 72.0456 126.053 70.0924 125.324 68.8555C124.595 67.6055 123.436 66.9805 121.848 66.9805C120.298 66.9805 119.159 67.5729 118.43 68.7578C117.701 69.9297 117.316 71.7656 117.277 74.2656V80.7109C117.277 83.3672 117.648 85.3464 118.391 86.6484C119.133 87.9505 120.298 88.6016 121.887 88.6016C123.41 88.6016 124.536 88.0026 125.266 86.8047C125.995 85.5938 126.379 83.7057 126.418 81.1406V74.7148ZM153.898 80.0273C153.898 84.1159 153.13 87.2018 151.594 89.2852C150.07 91.3555 147.746 92.3906 144.621 92.3906C141.548 92.3906 139.23 91.3815 137.668 89.3633C136.118 87.332 135.324 84.3307 135.285 80.3594V75.4375C135.285 71.349 136.047 68.2826 137.57 66.2383C139.107 64.194 141.444 63.1719 144.582 63.1719C147.694 63.1719 150.012 64.168 151.535 66.1602C153.072 68.1523 153.859 71.1341 153.898 75.1055V80.0273ZM149.152 74.7148C149.152 72.0456 148.788 70.0924 148.059 68.8555C147.329 67.6055 146.171 66.9805 144.582 66.9805C143.033 66.9805 141.893 67.5729 141.164 68.7578C140.435 69.9297 140.051 71.7656 140.012 74.2656V80.7109C140.012 83.3672 140.383 85.3464 141.125 86.6484C141.867 87.9505 143.033 88.6016 144.621 88.6016C146.145 88.6016 147.271 88.0026 148 86.8047C148.729 85.5938 149.113 83.7057 149.152 81.1406V74.7148Z" fill="#00C7A5"/>
</svg>
