<svg width="222" height="226" viewBox="0 0 222 226" fill="none" xmlns="http://www.w3.org/2000/svg">
<path d="M89.0879 115.969L91.751 110.203H94.6338L90.4326 118.359V123H87.752V118.359L83.5508 110.203H86.4424L89.0879 115.969ZM103.502 117.454H98.4395V120.882H104.381V123H95.8027V110.203H104.363V112.339H98.4395V115.389H103.502V117.454ZM113.152 120.363H108.529L107.65 123H104.847L109.61 110.203H112.054L116.844 123H114.04L113.152 120.363ZM109.241 118.228H112.44L110.832 113.438L109.241 118.228ZM122.776 118.315H120.676V123H118.039V110.203H122.794C124.306 110.203 125.472 110.54 126.292 111.214C127.112 111.888 127.522 112.84 127.522 114.07C127.522 114.943 127.332 115.673 126.951 116.259C126.576 116.839 126.005 117.302 125.237 117.647L128.006 122.877V123H125.176L122.776 118.315ZM120.676 116.18H122.803C123.465 116.18 123.978 116.013 124.341 115.679C124.704 115.339 124.886 114.873 124.886 114.281C124.886 113.678 124.713 113.203 124.367 112.857C124.027 112.512 123.503 112.339 122.794 112.339H120.676V116.18ZM136.171 119.643C136.171 119.145 135.995 118.764 135.644 118.5C135.292 118.23 134.659 117.949 133.745 117.656C132.831 117.357 132.107 117.064 131.574 116.777C130.121 115.992 129.395 114.935 129.395 113.604C129.395 112.913 129.588 112.298 129.975 111.759C130.367 111.214 130.927 110.789 131.653 110.484C132.386 110.18 133.206 110.027 134.114 110.027C135.028 110.027 135.843 110.194 136.558 110.528C137.272 110.856 137.826 111.322 138.219 111.926C138.617 112.529 138.816 113.215 138.816 113.982H136.18C136.18 113.396 135.995 112.942 135.626 112.62C135.257 112.292 134.738 112.128 134.07 112.128C133.426 112.128 132.925 112.266 132.567 112.541C132.21 112.811 132.031 113.168 132.031 113.613C132.031 114.029 132.239 114.378 132.655 114.659C133.077 114.94 133.695 115.204 134.51 115.45C136.01 115.901 137.103 116.461 137.788 117.129C138.474 117.797 138.816 118.629 138.816 119.625C138.816 120.732 138.397 121.603 137.56 122.235C136.722 122.862 135.594 123.176 134.176 123.176C133.191 123.176 132.295 122.997 131.486 122.64C130.678 122.276 130.06 121.781 129.632 121.154C129.21 120.527 128.999 119.801 128.999 118.975H131.645C131.645 120.387 132.488 121.093 134.176 121.093C134.803 121.093 135.292 120.967 135.644 120.715C135.995 120.457 136.171 120.1 136.171 119.643Z" fill="#202020"/>
<path d="M101.28 35.2686C100.788 35.8473 100.066 36.1367 99.1133 36.1367C98.3249 36.1367 97.7233 35.9089 97.3086 35.4531C96.8984 34.9928 96.6911 34.3138 96.6865 33.416V28.6035H97.9512V33.3818C97.9512 34.5029 98.4069 35.0635 99.3184 35.0635C100.285 35.0635 100.927 34.7035 101.246 33.9834V28.6035H102.511V36H101.308L101.28 35.2686ZM110.687 32.3838C110.687 33.5094 110.429 34.4163 109.914 35.1045C109.399 35.7926 108.702 36.1367 107.822 36.1367C106.924 36.1367 106.218 35.8519 105.703 35.2822V38.8438H104.438V28.6035H105.594L105.655 29.4238C106.17 28.7858 106.886 28.4668 107.802 28.4668C108.69 28.4668 109.392 28.8018 109.907 29.4717C110.427 30.1416 110.687 31.0736 110.687 32.2676V32.3838ZM109.422 32.2402C109.422 31.4062 109.244 30.7477 108.889 30.2646C108.533 29.7816 108.046 29.54 107.426 29.54C106.66 29.54 106.086 29.8796 105.703 30.5586V34.0928C106.081 34.7673 106.66 35.1045 107.439 35.1045C108.046 35.1045 108.526 34.8652 108.882 34.3867C109.242 33.9036 109.422 33.1882 109.422 32.2402ZM117.488 26.8125V28.6035H118.869V29.5811H117.488V34.168C117.488 34.4642 117.55 34.6875 117.673 34.8379C117.796 34.9837 118.006 35.0566 118.302 35.0566C118.448 35.0566 118.648 35.0293 118.903 34.9746V36C118.571 36.0911 118.247 36.1367 117.933 36.1367C117.368 36.1367 116.941 35.9658 116.654 35.624C116.367 35.2822 116.224 34.7969 116.224 34.168V29.5811H114.877V28.6035H116.224V26.8125H117.488ZM119.881 32.2334C119.881 31.5088 120.022 30.8571 120.305 30.2783C120.592 29.6995 120.988 29.2529 121.494 28.9385C122.005 28.624 122.586 28.4668 123.237 28.4668C124.244 28.4668 125.058 28.8154 125.678 29.5127C126.302 30.21 126.614 31.1374 126.614 32.2949V32.3838C126.614 33.1038 126.475 33.751 126.197 34.3252C125.924 34.8949 125.53 35.3392 125.015 35.6582C124.504 35.9772 123.916 36.1367 123.251 36.1367C122.248 36.1367 121.435 35.7881 120.811 35.0908C120.191 34.3936 119.881 33.4707 119.881 32.3223V32.2334ZM121.152 32.3838C121.152 33.2041 121.341 33.8626 121.72 34.3594C122.103 34.8561 122.613 35.1045 123.251 35.1045C123.894 35.1045 124.404 34.8538 124.782 34.3525C125.16 33.8467 125.35 33.1403 125.35 32.2334C125.35 31.4222 125.156 30.766 124.769 30.2646C124.386 29.7588 123.875 29.5059 123.237 29.5059C122.613 29.5059 122.109 29.7542 121.727 30.251C121.344 30.7477 121.152 31.4587 121.152 32.3838Z" fill="black"/>
<path d="M80.0117 92H75.2852V69.168L68.3125 71.5508V67.5469L79.4062 63.4648H80.0117V92ZM108.43 80.0273C108.43 84.1159 107.661 87.2018 106.125 89.2852C104.602 91.3555 102.277 92.3906 99.1523 92.3906C96.0794 92.3906 93.7617 91.3815 92.1992 89.3633C90.6497 87.332 89.8555 84.3307 89.8164 80.3594V75.4375C89.8164 71.349 90.5781 68.2826 92.1016 66.2383C93.638 64.194 95.9753 63.1719 99.1133 63.1719C102.225 63.1719 104.543 64.168 106.066 66.1602C107.603 68.1523 108.391 71.1341 108.43 75.1055V80.0273ZM103.684 74.7148C103.684 72.0456 103.319 70.0924 102.59 68.8555C101.861 67.6055 100.702 66.9805 99.1133 66.9805C97.5638 66.9805 96.4245 67.5729 95.6953 68.7578C94.9661 69.9297 94.582 71.7656 94.543 74.2656V80.7109C94.543 83.3672 94.9141 85.3464 95.6562 86.6484C96.3984 87.9505 97.5638 88.6016 99.1523 88.6016C100.676 88.6016 101.802 88.0026 102.531 86.8047C103.26 85.5938 103.645 83.7057 103.684 81.1406V74.7148ZM131.164 80.0273C131.164 84.1159 130.396 87.2018 128.859 89.2852C127.336 91.3555 125.012 92.3906 121.887 92.3906C118.814 92.3906 116.496 91.3815 114.934 89.3633C113.384 87.332 112.59 84.3307 112.551 80.3594V75.4375C112.551 71.349 113.312 68.2826 114.836 66.2383C116.372 64.194 118.71 63.1719 121.848 63.1719C124.96 63.1719 127.277 64.168 128.801 66.1602C130.337 68.1523 131.125 71.1341 131.164 75.1055V80.0273ZM126.418 74.7148C126.418 72.0456 126.053 70.0924 125.324 68.8555C124.595 67.6055 123.436 66.9805 121.848 66.9805C120.298 66.9805 119.159 67.5729 118.43 68.7578C117.701 69.9297 117.316 71.7656 117.277 74.2656V80.7109C117.277 83.3672 117.648 85.3464 118.391 86.6484C119.133 87.9505 120.298 88.6016 121.887 88.6016C123.41 88.6016 124.536 88.0026 125.266 86.8047C125.995 85.5938 126.379 83.7057 126.418 81.1406V74.7148ZM153.898 80.0273C153.898 84.1159 153.13 87.2018 151.594 89.2852C150.07 91.3555 147.746 92.3906 144.621 92.3906C141.548 92.3906 139.23 91.3815 137.668 89.3633C136.118 87.332 135.324 84.3307 135.285 80.3594V75.4375C135.285 71.349 136.047 68.2826 137.57 66.2383C139.107 64.194 141.444 63.1719 144.582 63.1719C147.694 63.1719 150.012 64.168 151.535 66.1602C153.072 68.1523 153.859 71.1341 153.898 75.1055V80.0273ZM149.152 74.7148C149.152 72.0456 148.788 70.0924 148.059 68.8555C147.329 67.6055 146.171 66.9805 144.582 66.9805C143.033 66.9805 141.893 67.5729 141.164 68.7578C140.435 69.9297 140.051 71.7656 140.012 74.2656V80.7109C140.012 83.3672 140.383 85.3464 141.125 86.6484C141.867 87.9505 143.033 88.6016 144.621 88.6016C146.145 88.6016 147.271 88.0026 148 86.8047C148.729 85.5938 149.113 83.7057 149.152 81.1406V74.7148Z" fill="#00C7A5"/>
<path d="M44.1807 147.391C44.04 148.594 43.5947 149.523 42.8447 150.18C42.0999 150.831 41.1077 151.156 39.8682 151.156C38.5244 151.156 37.4463 150.674 36.6338 149.711C35.8265 148.747 35.4229 147.458 35.4229 145.844V144.75C35.4229 143.693 35.6104 142.763 35.9854 141.961C36.3656 141.159 36.902 140.544 37.5947 140.117C38.2874 139.685 39.0895 139.469 40.001 139.469C41.2093 139.469 42.1781 139.807 42.9072 140.484C43.6364 141.156 44.0609 142.089 44.1807 143.281H42.6729C42.5426 142.375 42.2588 141.719 41.8213 141.312C41.389 140.906 40.7822 140.703 40.001 140.703C39.0426 140.703 38.29 141.057 37.7432 141.766C37.2015 142.474 36.9307 143.482 36.9307 144.789V145.891C36.9307 147.125 37.1885 148.107 37.7041 148.836C38.2197 149.565 38.9411 149.93 39.8682 149.93C40.7015 149.93 41.3395 149.742 41.7822 149.367C42.2301 148.987 42.527 148.328 42.6729 147.391H44.1807ZM54.9854 145.68C54.9854 146.794 54.7979 147.768 54.4229 148.602C54.0479 149.43 53.5166 150.062 52.8291 150.5C52.1416 150.938 51.3395 151.156 50.4229 151.156C49.527 151.156 48.7327 150.938 48.04 150.5C47.3473 150.057 46.8083 149.43 46.4229 148.617C46.0426 147.799 45.8473 146.854 45.8369 145.781V144.961C45.8369 143.867 46.027 142.901 46.4072 142.062C46.7874 141.224 47.3239 140.583 48.0166 140.141C48.7145 139.693 49.5114 139.469 50.4072 139.469C51.3187 139.469 52.1208 139.69 52.8135 140.133C53.5114 140.57 54.0479 141.208 54.4229 142.047C54.7979 142.88 54.9854 143.852 54.9854 144.961V145.68ZM53.4932 144.945C53.4932 143.596 53.2223 142.562 52.6807 141.844C52.139 141.12 51.3812 140.758 50.4072 140.758C49.4593 140.758 48.7119 141.12 48.165 141.844C47.6234 142.562 47.3447 143.562 47.3291 144.844V145.68C47.3291 146.987 47.6025 148.016 48.1494 148.766C48.7015 149.51 49.4593 149.883 50.4229 149.883C51.3916 149.883 52.1416 149.531 52.6729 148.828C53.2041 148.12 53.4775 147.107 53.4932 145.789V144.945ZM60.811 153.08H56.299V152.216L58.139 150.424C58.5764 150.008 58.9017 149.672 59.115 149.416C59.339 149.149 59.4884 148.915 59.563 148.712C59.6484 148.499 59.691 148.275 59.691 148.04C59.691 147.699 59.5897 147.443 59.387 147.272C59.195 147.101 58.939 147.016 58.619 147.016C58.299 147.016 58.0057 147.08 57.739 147.208C57.483 147.325 57.2164 147.491 56.939 147.704L56.379 146.968C56.6884 146.701 57.0244 146.488 57.387 146.328C57.7604 146.168 58.1764 146.088 58.635 146.088C59.3177 146.088 59.851 146.259 60.235 146.6C60.6297 146.931 60.827 147.389 60.827 147.976C60.827 148.499 60.667 148.968 60.347 149.384C60.0377 149.8 59.5844 150.291 58.987 150.856L57.691 152.088H60.811V153.08ZM68.1416 151H66.6963V142.547H68.1416V151ZM66.5791 140.305C66.5791 140.07 66.6494 139.872 66.79 139.711C66.9359 139.549 67.1494 139.469 67.4307 139.469C67.7119 139.469 67.9255 139.549 68.0713 139.711C68.2171 139.872 68.29 140.07 68.29 140.305C68.29 140.539 68.2171 140.734 68.0713 140.891C67.9255 141.047 67.7119 141.125 67.4307 141.125C67.1494 141.125 66.9359 141.047 66.79 140.891C66.6494 140.734 66.5791 140.539 66.5791 140.305ZM75.3838 148.758C75.3838 148.367 75.2354 148.065 74.9385 147.852C74.6468 147.633 74.1338 147.445 73.3994 147.289C72.6702 147.133 72.0895 146.945 71.6572 146.727C71.2301 146.508 70.9124 146.247 70.7041 145.945C70.501 145.643 70.3994 145.284 70.3994 144.867C70.3994 144.174 70.6911 143.589 71.2744 143.109C71.863 142.63 72.613 142.391 73.5244 142.391C74.4827 142.391 75.2588 142.638 75.8525 143.133C76.4515 143.628 76.751 144.26 76.751 145.031H75.2979C75.2979 144.635 75.1286 144.294 74.79 144.008C74.4567 143.721 74.0348 143.578 73.5244 143.578C72.9984 143.578 72.5869 143.693 72.29 143.922C71.9932 144.151 71.8447 144.451 71.8447 144.82C71.8447 145.169 71.9827 145.432 72.2588 145.609C72.5348 145.786 73.0322 145.956 73.751 146.117C74.4749 146.279 75.0609 146.471 75.5088 146.695C75.9567 146.919 76.2874 147.19 76.501 147.508C76.7197 147.82 76.8291 148.203 76.8291 148.656C76.8291 149.411 76.527 150.018 75.9229 150.477C75.3187 150.93 74.5348 151.156 73.5713 151.156C72.8942 151.156 72.2952 151.036 71.7744 150.797C71.2536 150.557 70.8447 150.224 70.5479 149.797C70.2562 149.365 70.1104 148.898 70.1104 148.398H71.5557C71.5817 148.883 71.7744 149.268 72.1338 149.555C72.4984 149.836 72.9775 149.977 73.5713 149.977C74.1182 149.977 74.5557 149.867 74.8838 149.648C75.2171 149.424 75.3838 149.128 75.3838 148.758ZM84.6416 140.5V142.547H86.2197V143.664H84.6416V148.906C84.6416 149.245 84.7119 149.5 84.8525 149.672C84.9932 149.839 85.2327 149.922 85.5713 149.922C85.738 149.922 85.9671 149.891 86.2588 149.828V151C85.8786 151.104 85.5088 151.156 85.1494 151.156C84.5036 151.156 84.0166 150.961 83.6885 150.57C83.3604 150.18 83.1963 149.625 83.1963 148.906V143.664H81.6572V142.547H83.1963V140.5H84.6416ZM93.1338 151C93.0505 150.833 92.9827 150.536 92.9307 150.109C92.2588 150.807 91.4567 151.156 90.5244 151.156C89.6911 151.156 89.0062 150.922 88.4697 150.453C87.9385 149.979 87.6729 149.38 87.6729 148.656C87.6729 147.776 88.0062 147.094 88.6729 146.609C89.3447 146.12 90.2874 145.875 91.501 145.875H92.9072V145.211C92.9072 144.706 92.7562 144.305 92.4541 144.008C92.152 143.706 91.7067 143.555 91.1182 143.555C90.6025 143.555 90.1702 143.685 89.8213 143.945C89.4723 144.206 89.2979 144.521 89.2979 144.891H87.8447C87.8447 144.469 87.9932 144.062 88.29 143.672C88.5921 143.276 88.9984 142.964 89.5088 142.734C90.0244 142.505 90.5895 142.391 91.2041 142.391C92.1781 142.391 92.9411 142.635 93.4932 143.125C94.0452 143.609 94.3317 144.279 94.3525 145.133V149.023C94.3525 149.799 94.4515 150.417 94.6494 150.875V151H93.1338ZM90.7354 149.898C91.1885 149.898 91.6182 149.781 92.0244 149.547C92.4307 149.312 92.7249 149.008 92.9072 148.633V146.898H91.7744C90.0036 146.898 89.1182 147.417 89.1182 148.453C89.1182 148.906 89.2692 149.26 89.5713 149.516C89.8734 149.771 90.2614 149.898 90.7354 149.898ZM98.9775 147.086L98.0713 148.031V151H96.626V139H98.0713V146.258L98.8447 145.328L101.478 142.547H103.235L99.9463 146.078L103.618 151H101.923L98.9775 147.086ZM108.079 151.156C106.933 151.156 106.001 150.781 105.282 150.031C104.563 149.276 104.204 148.268 104.204 147.008V146.742C104.204 145.904 104.363 145.156 104.681 144.5C105.004 143.839 105.451 143.323 106.024 142.953C106.603 142.578 107.228 142.391 107.899 142.391C108.998 142.391 109.853 142.753 110.462 143.477C111.071 144.201 111.376 145.237 111.376 146.586V147.188H105.649C105.67 148.021 105.912 148.695 106.376 149.211C106.845 149.721 107.438 149.977 108.157 149.977C108.668 149.977 109.1 149.872 109.454 149.664C109.808 149.456 110.118 149.18 110.384 148.836L111.267 149.523C110.558 150.612 109.496 151.156 108.079 151.156ZM107.899 143.578C107.316 143.578 106.826 143.792 106.431 144.219C106.035 144.641 105.79 145.234 105.696 146H109.931V145.891C109.889 145.156 109.691 144.589 109.337 144.188C108.983 143.781 108.504 143.578 107.899 143.578ZM114.423 142.547L114.47 143.609C115.116 142.797 115.959 142.391 117.001 142.391C118.787 142.391 119.688 143.398 119.704 145.414V151H118.259V145.406C118.254 144.797 118.113 144.346 117.837 144.055C117.566 143.763 117.142 143.617 116.563 143.617C116.095 143.617 115.683 143.742 115.329 143.992C114.975 144.242 114.699 144.57 114.501 144.977V151H113.056V142.547H114.423ZM131.071 150.164C130.509 150.826 129.683 151.156 128.595 151.156C127.694 151.156 127.006 150.896 126.532 150.375C126.063 149.849 125.826 149.073 125.821 148.047V142.547H127.267V148.008C127.267 149.289 127.787 149.93 128.829 149.93C129.933 149.93 130.668 149.518 131.032 148.695V142.547H132.478V151H131.103L131.071 150.164ZM141.821 146.867C141.821 148.154 141.527 149.19 140.938 149.977C140.35 150.763 139.553 151.156 138.548 151.156C137.522 151.156 136.715 150.831 136.126 150.18V154.25H134.681V142.547H136.001L136.071 143.484C136.66 142.755 137.478 142.391 138.524 142.391C139.54 142.391 140.342 142.773 140.931 143.539C141.524 144.305 141.821 145.37 141.821 146.734V146.867ZM140.376 146.703C140.376 145.75 140.173 144.997 139.767 144.445C139.36 143.893 138.803 143.617 138.095 143.617C137.22 143.617 136.563 144.005 136.126 144.781V148.82C136.558 149.591 137.22 149.977 138.11 149.977C138.803 149.977 139.353 149.703 139.759 149.156C140.17 148.604 140.376 147.786 140.376 146.703ZM154.79 146.867C154.79 148.159 154.493 149.198 153.899 149.984C153.306 150.766 152.509 151.156 151.509 151.156C150.441 151.156 149.616 150.779 149.032 150.023L148.962 151H147.634V139H149.079V143.477C149.662 142.753 150.467 142.391 151.493 142.391C152.519 142.391 153.324 142.779 153.907 143.555C154.496 144.331 154.79 145.393 154.79 146.742V146.867ZM153.345 146.703C153.345 145.719 153.155 144.958 152.774 144.422C152.394 143.885 151.847 143.617 151.134 143.617C150.181 143.617 149.496 144.06 149.079 144.945V148.602C149.522 149.487 150.212 149.93 151.149 149.93C151.842 149.93 152.381 149.661 152.767 149.125C153.152 148.589 153.345 147.781 153.345 146.703ZM159.29 148.883L161.259 142.547H162.806L159.407 152.305C158.881 153.711 158.045 154.414 156.899 154.414L156.626 154.391L156.087 154.289V153.117L156.478 153.148C156.967 153.148 157.347 153.049 157.618 152.852C157.894 152.654 158.121 152.292 158.298 151.766L158.618 150.906L155.603 142.547H157.181L159.29 148.883ZM170.032 140.5V142.547H171.61V143.664H170.032V148.906C170.032 149.245 170.103 149.5 170.243 149.672C170.384 149.839 170.623 149.922 170.962 149.922C171.129 149.922 171.358 149.891 171.649 149.828V151C171.269 151.104 170.899 151.156 170.54 151.156C169.894 151.156 169.407 150.961 169.079 150.57C168.751 150.18 168.587 149.625 168.587 148.906V143.664H167.048V142.547H168.587V140.5H170.032ZM174.751 143.57C175.392 142.784 176.225 142.391 177.251 142.391C179.037 142.391 179.938 143.398 179.954 145.414V151H178.509V145.406C178.504 144.797 178.363 144.346 178.087 144.055C177.816 143.763 177.392 143.617 176.813 143.617C176.345 143.617 175.933 143.742 175.579 143.992C175.225 144.242 174.949 144.57 174.751 144.977V151H173.306V139H174.751V143.57ZM185.626 151.156C184.48 151.156 183.548 150.781 182.829 150.031C182.11 149.276 181.751 148.268 181.751 147.008V146.742C181.751 145.904 181.91 145.156 182.228 144.5C182.55 143.839 182.998 143.323 183.571 142.953C184.149 142.578 184.774 142.391 185.446 142.391C186.545 142.391 187.399 142.753 188.009 143.477C188.618 144.201 188.923 145.237 188.923 146.586V147.188H183.196C183.217 148.021 183.459 148.695 183.923 149.211C184.392 149.721 184.985 149.977 185.704 149.977C186.215 149.977 186.647 149.872 187.001 149.664C187.355 149.456 187.665 149.18 187.931 148.836L188.813 149.523C188.105 150.612 187.043 151.156 185.626 151.156ZM185.446 143.578C184.863 143.578 184.373 143.792 183.978 144.219C183.582 144.641 183.337 145.234 183.243 146H187.478V145.891C187.436 145.156 187.238 144.589 186.884 144.188C186.53 143.781 186.05 143.578 185.446 143.578ZM26.0635 165.695C26.0635 164.867 26.2249 164.122 26.5479 163.461C26.876 162.799 27.3291 162.289 27.9072 161.93C28.4906 161.57 29.1546 161.391 29.8994 161.391C31.0505 161.391 31.9801 161.789 32.6885 162.586C33.402 163.383 33.7588 164.443 33.7588 165.766V165.867C33.7588 166.69 33.5999 167.43 33.2822 168.086C32.9697 168.737 32.5192 169.245 31.9307 169.609C31.3473 169.974 30.6755 170.156 29.915 170.156C28.7692 170.156 27.8395 169.758 27.126 168.961C26.4176 168.164 26.0635 167.109 26.0635 165.797V165.695ZM27.5166 165.867C27.5166 166.805 27.7327 167.557 28.165 168.125C28.6025 168.693 29.1859 168.977 29.915 168.977C30.6494 168.977 31.2327 168.69 31.665 168.117C32.0973 167.539 32.3135 166.732 32.3135 165.695C32.3135 164.768 32.0921 164.018 31.6494 163.445C31.2119 162.867 30.6286 162.578 29.8994 162.578C29.1859 162.578 28.6104 162.862 28.1729 163.43C27.7354 163.997 27.5166 164.81 27.5166 165.867ZM38.9619 168.977C39.4775 168.977 39.9281 168.82 40.3135 168.508C40.6989 168.195 40.9124 167.805 40.9541 167.336H42.3213C42.2952 167.82 42.1286 168.281 41.8213 168.719C41.514 169.156 41.1025 169.505 40.5869 169.766C40.0765 170.026 39.5348 170.156 38.9619 170.156C37.8109 170.156 36.8942 169.773 36.2119 169.008C35.5348 168.237 35.1963 167.185 35.1963 165.852V165.609C35.1963 164.786 35.3473 164.055 35.6494 163.414C35.9515 162.773 36.3838 162.276 36.9463 161.922C37.514 161.568 38.1833 161.391 38.9541 161.391C39.902 161.391 40.6885 161.674 41.3135 162.242C41.9437 162.81 42.2796 163.547 42.3213 164.453H40.9541C40.9124 163.906 40.7041 163.458 40.3291 163.109C39.9593 162.755 39.501 162.578 38.9541 162.578C38.2197 162.578 37.6494 162.844 37.2432 163.375C36.8421 163.901 36.6416 164.664 36.6416 165.664V165.938C36.6416 166.911 36.8421 167.661 37.2432 168.188C37.6442 168.714 38.2171 168.977 38.9619 168.977ZM47.4541 170.156C46.3083 170.156 45.376 169.781 44.6572 169.031C43.9385 168.276 43.5791 167.268 43.5791 166.008V165.742C43.5791 164.904 43.738 164.156 44.0557 163.5C44.3786 162.839 44.8265 162.323 45.3994 161.953C45.9775 161.578 46.6025 161.391 47.2744 161.391C48.3734 161.391 49.2275 161.753 49.8369 162.477C50.4463 163.201 50.751 164.237 50.751 165.586V166.188H45.0244C45.0452 167.021 45.2874 167.695 45.751 168.211C46.2197 168.721 46.8135 168.977 47.5322 168.977C48.0426 168.977 48.4749 168.872 48.8291 168.664C49.1833 168.456 49.4932 168.18 49.7588 167.836L50.6416 168.523C49.9333 169.612 48.8708 170.156 47.4541 170.156ZM47.2744 162.578C46.6911 162.578 46.2015 162.792 45.8057 163.219C45.4098 163.641 45.165 164.234 45.0713 165H49.3057V164.891C49.264 164.156 49.0661 163.589 48.7119 163.188C48.3577 162.781 47.8786 162.578 47.2744 162.578ZM57.6494 170C57.5661 169.833 57.4984 169.536 57.4463 169.109C56.7744 169.807 55.9723 170.156 55.04 170.156C54.2067 170.156 53.5218 169.922 52.9854 169.453C52.4541 168.979 52.1885 168.38 52.1885 167.656C52.1885 166.776 52.5218 166.094 53.1885 165.609C53.8604 165.12 54.8031 164.875 56.0166 164.875H57.4229V164.211C57.4229 163.706 57.2718 163.305 56.9697 163.008C56.6676 162.706 56.2223 162.555 55.6338 162.555C55.1182 162.555 54.6859 162.685 54.3369 162.945C53.988 163.206 53.8135 163.521 53.8135 163.891H52.3604C52.3604 163.469 52.5088 163.062 52.8057 162.672C53.1077 162.276 53.514 161.964 54.0244 161.734C54.54 161.505 55.1051 161.391 55.7197 161.391C56.6937 161.391 57.4567 161.635 58.0088 162.125C58.5609 162.609 58.8473 163.279 58.8682 164.133V168.023C58.8682 168.799 58.9671 169.417 59.165 169.875V170H57.6494ZM55.251 168.898C55.7041 168.898 56.1338 168.781 56.54 168.547C56.9463 168.312 57.2406 168.008 57.4229 167.633V165.898H56.29C54.5192 165.898 53.6338 166.417 53.6338 167.453C53.6338 167.906 53.7848 168.26 54.0869 168.516C54.389 168.771 54.777 168.898 55.251 168.898ZM62.501 161.547L62.5479 162.609C63.1937 161.797 64.0374 161.391 65.0791 161.391C66.8656 161.391 67.7666 162.398 67.7822 164.414V170H66.3369V164.406C66.3317 163.797 66.1911 163.346 65.915 163.055C65.6442 162.763 65.2197 162.617 64.6416 162.617C64.1729 162.617 63.7614 162.742 63.4072 162.992C63.0531 163.242 62.777 163.57 62.5791 163.977V170H61.1338V161.547H62.501ZM74.8838 167.758C74.8838 167.367 74.7354 167.065 74.4385 166.852C74.1468 166.633 73.6338 166.445 72.8994 166.289C72.1702 166.133 71.5895 165.945 71.1572 165.727C70.7301 165.508 70.4124 165.247 70.2041 164.945C70.001 164.643 69.8994 164.284 69.8994 163.867C69.8994 163.174 70.1911 162.589 70.7744 162.109C71.363 161.63 72.113 161.391 73.0244 161.391C73.9827 161.391 74.7588 161.638 75.3525 162.133C75.9515 162.628 76.251 163.26 76.251 164.031H74.7979C74.7979 163.635 74.6286 163.294 74.29 163.008C73.9567 162.721 73.5348 162.578 73.0244 162.578C72.4984 162.578 72.0869 162.693 71.79 162.922C71.4932 163.151 71.3447 163.451 71.3447 163.82C71.3447 164.169 71.4827 164.432 71.7588 164.609C72.0348 164.786 72.5322 164.956 73.251 165.117C73.9749 165.279 74.5609 165.471 75.0088 165.695C75.4567 165.919 75.7874 166.19 76.001 166.508C76.2197 166.82 76.3291 167.203 76.3291 167.656C76.3291 168.411 76.027 169.018 75.4229 169.477C74.8187 169.93 74.0348 170.156 73.0713 170.156C72.3942 170.156 71.7952 170.036 71.2744 169.797C70.7536 169.557 70.3447 169.224 70.0479 168.797C69.7562 168.365 69.6104 167.898 69.6104 167.398H71.0557C71.0817 167.883 71.2744 168.268 71.6338 168.555C71.9984 168.836 72.4775 168.977 73.0713 168.977C73.6182 168.977 74.0557 168.867 74.3838 168.648C74.7171 168.424 74.8838 168.128 74.8838 167.758ZM87.3994 170C87.3161 169.833 87.2484 169.536 87.1963 169.109C86.5244 169.807 85.7223 170.156 84.79 170.156C83.9567 170.156 83.2718 169.922 82.7354 169.453C82.2041 168.979 81.9385 168.38 81.9385 167.656C81.9385 166.776 82.2718 166.094 82.9385 165.609C83.6104 165.12 84.5531 164.875 85.7666 164.875H87.1729V164.211C87.1729 163.706 87.0218 163.305 86.7197 163.008C86.4176 162.706 85.9723 162.555 85.3838 162.555C84.8682 162.555 84.4359 162.685 84.0869 162.945C83.738 163.206 83.5635 163.521 83.5635 163.891H82.1104C82.1104 163.469 82.2588 163.062 82.5557 162.672C82.8577 162.276 83.264 161.964 83.7744 161.734C84.29 161.505 84.8551 161.391 85.4697 161.391C86.4437 161.391 87.2067 161.635 87.7588 162.125C88.3109 162.609 88.5973 163.279 88.6182 164.133V168.023C88.6182 168.799 88.7171 169.417 88.915 169.875V170H87.3994ZM85.001 168.898C85.4541 168.898 85.8838 168.781 86.29 168.547C86.6963 168.312 86.9906 168.008 87.1729 167.633V165.898H86.04C84.2692 165.898 83.3838 166.417 83.3838 167.453C83.3838 167.906 83.5348 168.26 83.8369 168.516C84.139 168.771 84.527 168.898 85.001 168.898ZM92.251 161.547L92.2979 162.609C92.9437 161.797 93.7874 161.391 94.8291 161.391C96.6156 161.391 97.5166 162.398 97.5322 164.414V170H96.0869V164.406C96.0817 163.797 95.9411 163.346 95.665 163.055C95.3942 162.763 94.9697 162.617 94.3916 162.617C93.9229 162.617 93.5114 162.742 93.1572 162.992C92.8031 163.242 92.527 163.57 92.3291 163.977V170H90.8838V161.547H92.251ZM99.3604 165.703C99.3604 164.406 99.6676 163.365 100.282 162.578C100.897 161.786 101.701 161.391 102.696 161.391C103.686 161.391 104.47 161.729 105.048 162.406V158H106.493V170H105.165L105.095 169.094C104.517 169.802 103.712 170.156 102.681 170.156C101.701 170.156 100.902 169.755 100.282 168.953C99.6676 168.151 99.3604 167.104 99.3604 165.812V165.703ZM100.806 165.867C100.806 166.826 101.004 167.576 101.399 168.117C101.795 168.659 102.342 168.93 103.04 168.93C103.957 168.93 104.626 168.518 105.048 167.695V163.812C104.616 163.016 103.951 162.617 103.056 162.617C102.347 162.617 101.795 162.891 101.399 163.438C101.004 163.984 100.806 164.794 100.806 165.867ZM116.22 170.156C115.074 170.156 114.142 169.781 113.423 169.031C112.704 168.276 112.345 167.268 112.345 166.008V165.742C112.345 164.904 112.504 164.156 112.821 163.5C113.144 162.839 113.592 162.323 114.165 161.953C114.743 161.578 115.368 161.391 116.04 161.391C117.139 161.391 117.993 161.753 118.603 162.477C119.212 163.201 119.517 164.237 119.517 165.586V166.188H113.79C113.811 167.021 114.053 167.695 114.517 168.211C114.985 168.721 115.579 168.977 116.298 168.977C116.808 168.977 117.241 168.872 117.595 168.664C117.949 168.456 118.259 168.18 118.524 167.836L119.407 168.523C118.699 169.612 117.636 170.156 116.22 170.156ZM116.04 162.578C115.457 162.578 114.967 162.792 114.571 163.219C114.175 163.641 113.931 164.234 113.837 165H118.071V164.891C118.03 164.156 117.832 163.589 117.478 163.188C117.123 162.781 116.644 162.578 116.04 162.578ZM124.032 164.633L125.907 161.547H127.595L124.829 165.727L127.681 170H126.009L124.056 166.836L122.103 170H120.423L123.274 165.727L120.509 161.547H122.181L124.032 164.633ZM131.095 159.5V161.547H132.673V162.664H131.095V167.906C131.095 168.245 131.165 168.5 131.306 168.672C131.446 168.839 131.686 168.922 132.024 168.922C132.191 168.922 132.42 168.891 132.712 168.828V170C132.332 170.104 131.962 170.156 131.603 170.156C130.957 170.156 130.47 169.961 130.142 169.57C129.813 169.18 129.649 168.625 129.649 167.906V162.664H128.11V161.547H129.649V159.5H131.095ZM138.454 162.844C138.235 162.807 137.998 162.789 137.743 162.789C136.795 162.789 136.152 163.193 135.813 164V170H134.368V161.547H135.774L135.798 162.523C136.272 161.768 136.944 161.391 137.813 161.391C138.095 161.391 138.308 161.427 138.454 161.5V162.844ZM144.696 170C144.613 169.833 144.545 169.536 144.493 169.109C143.821 169.807 143.019 170.156 142.087 170.156C141.254 170.156 140.569 169.922 140.032 169.453C139.501 168.979 139.235 168.38 139.235 167.656C139.235 166.776 139.569 166.094 140.235 165.609C140.907 165.12 141.85 164.875 143.063 164.875H144.47V164.211C144.47 163.706 144.319 163.305 144.017 163.008C143.715 162.706 143.269 162.555 142.681 162.555C142.165 162.555 141.733 162.685 141.384 162.945C141.035 163.206 140.86 163.521 140.86 163.891H139.407C139.407 163.469 139.556 163.062 139.853 162.672C140.155 162.276 140.561 161.964 141.071 161.734C141.587 161.505 142.152 161.391 142.767 161.391C143.741 161.391 144.504 161.635 145.056 162.125C145.608 162.609 145.894 163.279 145.915 164.133V168.023C145.915 168.799 146.014 169.417 146.212 169.875V170H144.696ZM142.298 168.898C142.751 168.898 143.181 168.781 143.587 168.547C143.993 168.312 144.287 168.008 144.47 167.633V165.898H143.337C141.566 165.898 140.681 166.417 140.681 167.453C140.681 167.906 140.832 168.26 141.134 168.516C141.436 168.771 141.824 168.898 142.298 168.898ZM151.571 168.977C152.087 168.977 152.537 168.82 152.923 168.508C153.308 168.195 153.522 167.805 153.563 167.336H154.931C154.905 167.82 154.738 168.281 154.431 168.719C154.123 169.156 153.712 169.505 153.196 169.766C152.686 170.026 152.144 170.156 151.571 170.156C150.42 170.156 149.504 169.773 148.821 169.008C148.144 168.237 147.806 167.185 147.806 165.852V165.609C147.806 164.786 147.957 164.055 148.259 163.414C148.561 162.773 148.993 162.276 149.556 161.922C150.123 161.568 150.793 161.391 151.563 161.391C152.511 161.391 153.298 161.674 153.923 162.242C154.553 162.81 154.889 163.547 154.931 164.453H153.563C153.522 163.906 153.313 163.458 152.938 163.109C152.569 162.755 152.11 162.578 151.563 162.578C150.829 162.578 150.259 162.844 149.853 163.375C149.451 163.901 149.251 164.664 149.251 165.664V165.938C149.251 166.911 149.451 167.661 149.853 168.188C150.254 168.714 150.826 168.977 151.571 168.977ZM158.517 159.5V161.547H160.095V162.664H158.517V167.906C158.517 168.245 158.587 168.5 158.728 168.672C158.868 168.839 159.108 168.922 159.446 168.922C159.613 168.922 159.842 168.891 160.134 168.828V170C159.754 170.104 159.384 170.156 159.024 170.156C158.379 170.156 157.892 169.961 157.563 169.57C157.235 169.18 157.071 168.625 157.071 167.906V162.664H155.532V161.547H157.071V159.5H158.517ZM165.298 170.156C164.152 170.156 163.22 169.781 162.501 169.031C161.782 168.276 161.423 167.268 161.423 166.008V165.742C161.423 164.904 161.582 164.156 161.899 163.5C162.222 162.839 162.67 162.323 163.243 161.953C163.821 161.578 164.446 161.391 165.118 161.391C166.217 161.391 167.071 161.753 167.681 162.477C168.29 163.201 168.595 164.237 168.595 165.586V166.188H162.868C162.889 167.021 163.131 167.695 163.595 168.211C164.063 168.721 164.657 168.977 165.376 168.977C165.886 168.977 166.319 168.872 166.673 168.664C167.027 168.456 167.337 168.18 167.603 167.836L168.485 168.523C167.777 169.612 166.715 170.156 165.298 170.156ZM165.118 162.578C164.535 162.578 164.045 162.792 163.649 163.219C163.254 163.641 163.009 164.234 162.915 165H167.149V164.891C167.108 164.156 166.91 163.589 166.556 163.188C166.201 162.781 165.722 162.578 165.118 162.578ZM169.923 165.703C169.923 164.406 170.23 163.365 170.845 162.578C171.459 161.786 172.264 161.391 173.259 161.391C174.248 161.391 175.032 161.729 175.61 162.406V158H177.056V170H175.728L175.657 169.094C175.079 169.802 174.274 170.156 173.243 170.156C172.264 170.156 171.465 169.755 170.845 168.953C170.23 168.151 169.923 167.104 169.923 165.812V165.703ZM171.368 165.867C171.368 166.826 171.566 167.576 171.962 168.117C172.358 168.659 172.905 168.93 173.603 168.93C174.519 168.93 175.188 168.518 175.61 167.695V163.812C175.178 163.016 174.514 162.617 173.618 162.617C172.91 162.617 172.358 162.891 171.962 163.438C171.566 163.984 171.368 164.794 171.368 165.867ZM190.431 165.867C190.431 167.159 190.134 168.198 189.54 168.984C188.946 169.766 188.149 170.156 187.149 170.156C186.082 170.156 185.256 169.779 184.673 169.023L184.603 170H183.274V158H184.72V162.477C185.303 161.753 186.108 161.391 187.134 161.391C188.16 161.391 188.965 161.779 189.548 162.555C190.136 163.331 190.431 164.393 190.431 165.742V165.867ZM188.985 165.703C188.985 164.719 188.795 163.958 188.415 163.422C188.035 162.885 187.488 162.617 186.774 162.617C185.821 162.617 185.136 163.06 184.72 163.945V167.602C185.162 168.487 185.853 168.93 186.79 168.93C187.483 168.93 188.022 168.661 188.407 168.125C188.793 167.589 188.985 166.781 188.985 165.703ZM194.931 167.883L196.899 161.547H198.446L195.048 171.305C194.522 172.711 193.686 173.414 192.54 173.414L192.267 173.391L191.728 173.289V172.117L192.118 172.148C192.608 172.148 192.988 172.049 193.259 171.852C193.535 171.654 193.761 171.292 193.938 170.766L194.259 169.906L191.243 161.547H192.821L194.931 167.883ZM41.3916 184.867C41.3916 186.154 41.0973 187.19 40.5088 187.977C39.9202 188.763 39.1234 189.156 38.1182 189.156C37.0921 189.156 36.2848 188.831 35.6963 188.18V192.25H34.251V180.547H35.5713L35.6416 181.484C36.2301 180.755 37.0479 180.391 38.0947 180.391C39.1104 180.391 39.9124 180.773 40.501 181.539C41.0947 182.305 41.3916 183.37 41.3916 184.734V184.867ZM39.9463 184.703C39.9463 183.75 39.7432 182.997 39.3369 182.445C38.9307 181.893 38.3734 181.617 37.665 181.617C36.79 181.617 36.1338 182.005 35.6963 182.781V186.82C36.1286 187.591 36.79 187.977 37.6807 187.977C38.3734 187.977 38.9229 187.703 39.3291 187.156C39.7406 186.604 39.9463 185.786 39.9463 184.703ZM44.8057 189H43.3604V177H44.8057V189ZM52.3447 189C52.2614 188.833 52.1937 188.536 52.1416 188.109C51.4697 188.807 50.6676 189.156 49.7354 189.156C48.902 189.156 48.2171 188.922 47.6807 188.453C47.1494 187.979 46.8838 187.38 46.8838 186.656C46.8838 185.776 47.2171 185.094 47.8838 184.609C48.5557 184.12 49.4984 183.875 50.7119 183.875H52.1182V183.211C52.1182 182.706 51.9671 182.305 51.665 182.008C51.363 181.706 50.9176 181.555 50.3291 181.555C49.8135 181.555 49.3812 181.685 49.0322 181.945C48.6833 182.206 48.5088 182.521 48.5088 182.891H47.0557C47.0557 182.469 47.2041 182.062 47.501 181.672C47.8031 181.276 48.2093 180.964 48.7197 180.734C49.2354 180.505 49.8005 180.391 50.415 180.391C51.389 180.391 52.152 180.635 52.7041 181.125C53.2562 181.609 53.5426 182.279 53.5635 183.133V187.023C53.5635 187.799 53.6624 188.417 53.8604 188.875V189H52.3447ZM49.9463 187.898C50.3994 187.898 50.8291 187.781 51.2354 187.547C51.6416 187.312 51.9359 187.008 52.1182 186.633V184.898H50.9854C49.2145 184.898 48.3291 185.417 48.3291 186.453C48.3291 186.906 48.4801 187.26 48.7822 187.516C49.0843 187.771 49.4723 187.898 49.9463 187.898ZM57.1963 180.547L57.2432 181.609C57.889 180.797 58.7327 180.391 59.7744 180.391C61.5609 180.391 62.4619 181.398 62.4775 183.414V189H61.0322V183.406C61.027 182.797 60.8864 182.346 60.6104 182.055C60.3395 181.763 59.915 181.617 59.3369 181.617C58.8682 181.617 58.4567 181.742 58.1025 181.992C57.7484 182.242 57.4723 182.57 57.2744 182.977V189H55.8291V180.547H57.1963ZM66.6182 178.5V180.547H68.1963V181.664H66.6182V186.906C66.6182 187.245 66.6885 187.5 66.8291 187.672C66.9697 187.839 67.2093 187.922 67.5479 187.922C67.7145 187.922 67.9437 187.891 68.2354 187.828V189C67.8551 189.104 67.4854 189.156 67.126 189.156C66.4801 189.156 65.9932 188.961 65.665 188.57C65.3369 188.18 65.1729 187.625 65.1729 186.906V181.664H63.6338V180.547H65.1729V178.5H66.6182ZM74.8135 186.758C74.8135 186.367 74.665 186.065 74.3682 185.852C74.0765 185.633 73.5635 185.445 72.8291 185.289C72.0999 185.133 71.5192 184.945 71.0869 184.727C70.6598 184.508 70.3421 184.247 70.1338 183.945C69.9307 183.643 69.8291 183.284 69.8291 182.867C69.8291 182.174 70.1208 181.589 70.7041 181.109C71.2926 180.63 72.0426 180.391 72.9541 180.391C73.9124 180.391 74.6885 180.638 75.2822 181.133C75.8812 181.628 76.1807 182.26 76.1807 183.031H74.7275C74.7275 182.635 74.5583 182.294 74.2197 182.008C73.8864 181.721 73.4645 181.578 72.9541 181.578C72.4281 181.578 72.0166 181.693 71.7197 181.922C71.4229 182.151 71.2744 182.451 71.2744 182.82C71.2744 183.169 71.4124 183.432 71.6885 183.609C71.9645 183.786 72.4619 183.956 73.1807 184.117C73.9046 184.279 74.4906 184.471 74.9385 184.695C75.3864 184.919 75.7171 185.19 75.9307 185.508C76.1494 185.82 76.2588 186.203 76.2588 186.656C76.2588 187.411 75.9567 188.018 75.3525 188.477C74.7484 188.93 73.9645 189.156 73.001 189.156C72.3239 189.156 71.7249 189.036 71.2041 188.797C70.6833 188.557 70.2744 188.224 69.9775 187.797C69.6859 187.365 69.54 186.898 69.54 186.398H70.9854C71.0114 186.883 71.2041 187.268 71.5635 187.555C71.9281 187.836 72.4072 187.977 73.001 187.977C73.5479 187.977 73.9854 187.867 74.3135 187.648C74.6468 187.424 74.8135 187.128 74.8135 186.758ZM87.3291 189C87.2458 188.833 87.1781 188.536 87.126 188.109C86.4541 188.807 85.652 189.156 84.7197 189.156C83.8864 189.156 83.2015 188.922 82.665 188.453C82.1338 187.979 81.8682 187.38 81.8682 186.656C81.8682 185.776 82.2015 185.094 82.8682 184.609C83.54 184.12 84.4827 183.875 85.6963 183.875H87.1025V183.211C87.1025 182.706 86.9515 182.305 86.6494 182.008C86.3473 181.706 85.902 181.555 85.3135 181.555C84.7979 181.555 84.3656 181.685 84.0166 181.945C83.6676 182.206 83.4932 182.521 83.4932 182.891H82.04C82.04 182.469 82.1885 182.062 82.4854 181.672C82.7874 181.276 83.1937 180.964 83.7041 180.734C84.2197 180.505 84.7848 180.391 85.3994 180.391C86.3734 180.391 87.1364 180.635 87.6885 181.125C88.2406 181.609 88.527 182.279 88.5479 183.133V187.023C88.5479 187.799 88.6468 188.417 88.8447 188.875V189H87.3291ZM84.9307 187.898C85.3838 187.898 85.8135 187.781 86.2197 187.547C86.626 187.312 86.9202 187.008 87.1025 186.633V184.898H85.9697C84.1989 184.898 83.3135 185.417 83.3135 186.453C83.3135 186.906 83.4645 187.26 83.7666 187.516C84.0687 187.771 84.4567 187.898 84.9307 187.898ZM95.7354 186.758C95.7354 186.367 95.5869 186.065 95.29 185.852C94.9984 185.633 94.4854 185.445 93.751 185.289C93.0218 185.133 92.4411 184.945 92.0088 184.727C91.5817 184.508 91.264 184.247 91.0557 183.945C90.8525 183.643 90.751 183.284 90.751 182.867C90.751 182.174 91.0426 181.589 91.626 181.109C92.2145 180.63 92.9645 180.391 93.876 180.391C94.8343 180.391 95.6104 180.638 96.2041 181.133C96.8031 181.628 97.1025 182.26 97.1025 183.031H95.6494C95.6494 182.635 95.4801 182.294 95.1416 182.008C94.8083 181.721 94.3864 181.578 93.876 181.578C93.3499 181.578 92.9385 181.693 92.6416 181.922C92.3447 182.151 92.1963 182.451 92.1963 182.82C92.1963 183.169 92.3343 183.432 92.6104 183.609C92.8864 183.786 93.3838 183.956 94.1025 184.117C94.8265 184.279 95.4124 184.471 95.8604 184.695C96.3083 184.919 96.639 185.19 96.8525 185.508C97.0713 185.82 97.1807 186.203 97.1807 186.656C97.1807 187.411 96.8786 188.018 96.2744 188.477C95.6702 188.93 94.8864 189.156 93.9229 189.156C93.2458 189.156 92.6468 189.036 92.126 188.797C91.6051 188.557 91.1963 188.224 90.8994 187.797C90.6077 187.365 90.4619 186.898 90.4619 186.398H91.9072C91.9333 186.883 92.126 187.268 92.4854 187.555C92.8499 187.836 93.3291 187.977 93.9229 187.977C94.4697 187.977 94.9072 187.867 95.2354 187.648C95.5687 187.424 95.7354 187.128 95.7354 186.758ZM110.517 187.008L112.142 180.547H113.587L111.126 189H109.954L107.899 182.594L105.899 189H104.728L102.274 180.547H103.712L105.376 186.875L107.345 180.547H108.509L110.517 187.008ZM118.571 189.156C117.425 189.156 116.493 188.781 115.774 188.031C115.056 187.276 114.696 186.268 114.696 185.008V184.742C114.696 183.904 114.855 183.156 115.173 182.5C115.496 181.839 115.944 181.323 116.517 180.953C117.095 180.578 117.72 180.391 118.392 180.391C119.491 180.391 120.345 180.753 120.954 181.477C121.563 182.201 121.868 183.237 121.868 184.586V185.188H116.142C116.162 186.021 116.405 186.695 116.868 187.211C117.337 187.721 117.931 187.977 118.649 187.977C119.16 187.977 119.592 187.872 119.946 187.664C120.3 187.456 120.61 187.18 120.876 186.836L121.759 187.523C121.05 188.612 119.988 189.156 118.571 189.156ZM118.392 181.578C117.808 181.578 117.319 181.792 116.923 182.219C116.527 182.641 116.282 183.234 116.188 184H120.423V183.891C120.381 183.156 120.183 182.589 119.829 182.188C119.475 181.781 118.996 181.578 118.392 181.578ZM125.118 189H123.673V177H125.118V189ZM129.009 189H127.563V177H129.009V189ZM140.517 189C140.433 188.833 140.366 188.536 140.313 188.109C139.642 188.807 138.84 189.156 137.907 189.156C137.074 189.156 136.389 188.922 135.853 188.453C135.321 187.979 135.056 187.38 135.056 186.656C135.056 185.776 135.389 185.094 136.056 184.609C136.728 184.12 137.67 183.875 138.884 183.875H140.29V183.211C140.29 182.706 140.139 182.305 139.837 182.008C139.535 181.706 139.09 181.555 138.501 181.555C137.985 181.555 137.553 181.685 137.204 181.945C136.855 182.206 136.681 182.521 136.681 182.891H135.228C135.228 182.469 135.376 182.062 135.673 181.672C135.975 181.276 136.381 180.964 136.892 180.734C137.407 180.505 137.972 180.391 138.587 180.391C139.561 180.391 140.324 180.635 140.876 181.125C141.428 181.609 141.715 182.279 141.735 183.133V187.023C141.735 187.799 141.834 188.417 142.032 188.875V189H140.517ZM138.118 187.898C138.571 187.898 139.001 187.781 139.407 187.547C139.813 187.312 140.108 187.008 140.29 186.633V184.898H139.157C137.386 184.898 136.501 185.417 136.501 186.453C136.501 186.906 136.652 187.26 136.954 187.516C137.256 187.771 137.644 187.898 138.118 187.898ZM148.923 186.758C148.923 186.367 148.774 186.065 148.478 185.852C148.186 185.633 147.673 185.445 146.938 185.289C146.209 185.133 145.629 184.945 145.196 184.727C144.769 184.508 144.451 184.247 144.243 183.945C144.04 183.643 143.938 183.284 143.938 182.867C143.938 182.174 144.23 181.589 144.813 181.109C145.402 180.63 146.152 180.391 147.063 180.391C148.022 180.391 148.798 180.638 149.392 181.133C149.991 181.628 150.29 182.26 150.29 183.031H148.837C148.837 182.635 148.668 182.294 148.329 182.008C147.996 181.721 147.574 181.578 147.063 181.578C146.537 181.578 146.126 181.693 145.829 181.922C145.532 182.151 145.384 182.451 145.384 182.82C145.384 183.169 145.522 183.432 145.798 183.609C146.074 183.786 146.571 183.956 147.29 184.117C148.014 184.279 148.6 184.471 149.048 184.695C149.496 184.919 149.826 185.19 150.04 185.508C150.259 185.82 150.368 186.203 150.368 186.656C150.368 187.411 150.066 188.018 149.462 188.477C148.858 188.93 148.074 189.156 147.11 189.156C146.433 189.156 145.834 189.036 145.313 188.797C144.793 188.557 144.384 188.224 144.087 187.797C143.795 187.365 143.649 186.898 143.649 186.398H145.095C145.121 186.883 145.313 187.268 145.673 187.555C146.037 187.836 146.517 187.977 147.11 187.977C147.657 187.977 148.095 187.867 148.423 187.648C148.756 187.424 148.923 187.128 148.923 186.758ZM158.181 178.5V180.547H159.759V181.664H158.181V186.906C158.181 187.245 158.251 187.5 158.392 187.672C158.532 187.839 158.772 187.922 159.11 187.922C159.277 187.922 159.506 187.891 159.798 187.828V189C159.418 189.104 159.048 189.156 158.688 189.156C158.043 189.156 157.556 188.961 157.228 188.57C156.899 188.18 156.735 187.625 156.735 186.906V181.664H155.196V180.547H156.735V178.5H158.181ZM165.54 181.844C165.321 181.807 165.084 181.789 164.829 181.789C163.881 181.789 163.238 182.193 162.899 183V189H161.454V180.547H162.86L162.884 181.523C163.358 180.768 164.03 180.391 164.899 180.391C165.181 180.391 165.394 180.427 165.54 180.5V181.844ZM170.228 189.156C169.082 189.156 168.149 188.781 167.431 188.031C166.712 187.276 166.353 186.268 166.353 185.008V184.742C166.353 183.904 166.511 183.156 166.829 182.5C167.152 181.839 167.6 181.323 168.173 180.953C168.751 180.578 169.376 180.391 170.048 180.391C171.147 180.391 172.001 180.753 172.61 181.477C173.22 182.201 173.524 183.237 173.524 184.586V185.188H167.798C167.819 186.021 168.061 186.695 168.524 187.211C168.993 187.721 169.587 187.977 170.306 187.977C170.816 187.977 171.248 187.872 171.603 187.664C171.957 187.456 172.267 187.18 172.532 186.836L173.415 187.523C172.707 188.612 171.644 189.156 170.228 189.156ZM170.048 181.578C169.465 181.578 168.975 181.792 168.579 182.219C168.183 182.641 167.938 183.234 167.845 184H172.079V183.891C172.037 183.156 171.84 182.589 171.485 182.188C171.131 181.781 170.652 181.578 170.048 181.578ZM178.712 189.156C177.566 189.156 176.634 188.781 175.915 188.031C175.196 187.276 174.837 186.268 174.837 185.008V184.742C174.837 183.904 174.996 183.156 175.313 182.5C175.636 181.839 176.084 181.323 176.657 180.953C177.235 180.578 177.86 180.391 178.532 180.391C179.631 180.391 180.485 180.753 181.095 181.477C181.704 182.201 182.009 183.237 182.009 184.586V185.188H176.282C176.303 186.021 176.545 186.695 177.009 187.211C177.478 187.721 178.071 187.977 178.79 187.977C179.3 187.977 179.733 187.872 180.087 187.664C180.441 187.456 180.751 187.18 181.017 186.836L181.899 187.523C181.191 188.612 180.129 189.156 178.712 189.156ZM178.532 181.578C177.949 181.578 177.459 181.792 177.063 182.219C176.668 182.641 176.423 183.234 176.329 184H180.563V183.891C180.522 183.156 180.324 182.589 179.97 182.188C179.616 181.781 179.136 181.578 178.532 181.578ZM188.61 186.758C188.61 186.367 188.462 186.065 188.165 185.852C187.873 185.633 187.36 185.445 186.626 185.289C185.897 185.133 185.316 184.945 184.884 184.727C184.457 184.508 184.139 184.247 183.931 183.945C183.728 183.643 183.626 183.284 183.626 182.867C183.626 182.174 183.918 181.589 184.501 181.109C185.09 180.63 185.84 180.391 186.751 180.391C187.709 180.391 188.485 180.638 189.079 181.133C189.678 181.628 189.978 182.26 189.978 183.031H188.524C188.524 182.635 188.355 182.294 188.017 182.008C187.683 181.721 187.261 181.578 186.751 181.578C186.225 181.578 185.813 181.693 185.517 181.922C185.22 182.151 185.071 182.451 185.071 182.82C185.071 183.169 185.209 183.432 185.485 183.609C185.761 183.786 186.259 183.956 186.978 184.117C187.701 184.279 188.287 184.471 188.735 184.695C189.183 184.919 189.514 185.19 189.728 185.508C189.946 185.82 190.056 186.203 190.056 186.656C190.056 187.411 189.754 188.018 189.149 188.477C188.545 188.93 187.761 189.156 186.798 189.156C186.121 189.156 185.522 189.036 185.001 188.797C184.48 188.557 184.071 188.224 183.774 187.797C183.483 187.365 183.337 186.898 183.337 186.398H184.782C184.808 186.883 185.001 187.268 185.36 187.555C185.725 187.836 186.204 187.977 186.798 187.977C187.345 187.977 187.782 187.867 188.11 187.648C188.444 187.424 188.61 187.128 188.61 186.758ZM29.0791 197.5V199.547H30.6572V200.664H29.0791V205.906C29.0791 206.245 29.1494 206.5 29.29 206.672C29.4307 206.839 29.6702 206.922 30.0088 206.922C30.1755 206.922 30.4046 206.891 30.6963 206.828V208C30.3161 208.104 29.9463 208.156 29.5869 208.156C28.9411 208.156 28.4541 207.961 28.126 207.57C27.7979 207.18 27.6338 206.625 27.6338 205.906V200.664H26.0947V199.547H27.6338V197.5H29.0791ZM33.7979 200.57C34.4385 199.784 35.2718 199.391 36.2979 199.391C38.0843 199.391 38.9854 200.398 39.001 202.414V208H37.5557V202.406C37.5505 201.797 37.4098 201.346 37.1338 201.055C36.863 200.763 36.4385 200.617 35.8604 200.617C35.3916 200.617 34.9801 200.742 34.626 200.992C34.2718 201.242 33.9958 201.57 33.7979 201.977V208H32.3525V196H33.7979V200.57ZM45.251 200.844C45.0322 200.807 44.7952 200.789 44.54 200.789C43.5921 200.789 42.9489 201.193 42.6104 202V208H41.165V199.547H42.5713L42.5947 200.523C43.0687 199.768 43.7406 199.391 44.6104 199.391C44.8916 199.391 45.1051 199.427 45.251 199.5V200.844ZM46.0479 203.695C46.0479 202.867 46.2093 202.122 46.5322 201.461C46.8604 200.799 47.3135 200.289 47.8916 199.93C48.4749 199.57 49.139 199.391 49.8838 199.391C51.0348 199.391 51.9645 199.789 52.6729 200.586C53.3864 201.383 53.7432 202.443 53.7432 203.766V203.867C53.7432 204.69 53.5843 205.43 53.2666 206.086C52.9541 206.737 52.5036 207.245 51.915 207.609C51.3317 207.974 50.6598 208.156 49.8994 208.156C48.7536 208.156 47.8239 207.758 47.1104 206.961C46.402 206.164 46.0479 205.109 46.0479 203.797V203.695ZM47.501 203.867C47.501 204.805 47.7171 205.557 48.1494 206.125C48.5869 206.693 49.1702 206.977 49.8994 206.977C50.6338 206.977 51.2171 206.69 51.6494 206.117C52.0817 205.539 52.2979 204.732 52.2979 203.695C52.2979 202.768 52.0765 202.018 51.6338 201.445C51.1963 200.867 50.613 200.578 49.8838 200.578C49.1702 200.578 48.5947 200.862 48.1572 201.43C47.7197 201.997 47.501 202.81 47.501 203.867ZM60.7744 207.164C60.2119 207.826 59.3864 208.156 58.2979 208.156C57.3968 208.156 56.7093 207.896 56.2354 207.375C55.7666 206.849 55.5296 206.073 55.5244 205.047V199.547H56.9697V205.008C56.9697 206.289 57.4906 206.93 58.5322 206.93C59.6364 206.93 60.3708 206.518 60.7354 205.695V199.547H62.1807V208H60.8057L60.7744 207.164ZM64.04 203.703C64.04 202.385 64.3447 201.339 64.9541 200.562C65.5635 199.781 66.3708 199.391 67.376 199.391C68.4072 199.391 69.2119 199.755 69.79 200.484L69.8604 199.547H71.1807V207.797C71.1807 208.891 70.8551 209.753 70.2041 210.383C69.5583 211.013 68.6885 211.328 67.5947 211.328C66.9854 211.328 66.389 211.198 65.8057 210.938C65.2223 210.677 64.777 210.32 64.4697 209.867L65.2197 209C65.8395 209.766 66.5973 210.148 67.4932 210.148C68.1963 210.148 68.7432 209.951 69.1338 209.555C69.5296 209.159 69.7275 208.602 69.7275 207.883V207.156C69.1494 207.823 68.3604 208.156 67.3604 208.156C66.3708 208.156 65.5687 207.758 64.9541 206.961C64.3447 206.164 64.04 205.078 64.04 203.703ZM65.4932 203.867C65.4932 204.82 65.6885 205.57 66.0791 206.117C66.4697 206.659 67.0166 206.93 67.7197 206.93C68.6312 206.93 69.3005 206.516 69.7275 205.688V201.828C69.2848 201.021 68.6208 200.617 67.7354 200.617C67.0322 200.617 66.4827 200.891 66.0869 201.438C65.6911 201.984 65.4932 202.794 65.4932 203.867ZM74.8135 200.57C75.4541 199.784 76.2874 199.391 77.3135 199.391C79.0999 199.391 80.001 200.398 80.0166 202.414V208H78.5713V202.406C78.5661 201.797 78.4255 201.346 78.1494 201.055C77.8786 200.763 77.4541 200.617 76.876 200.617C76.4072 200.617 75.9958 200.742 75.6416 200.992C75.2874 201.242 75.0114 201.57 74.8135 201.977V208H73.3682V196H74.8135V200.57ZM93.29 203.867C93.29 205.154 92.9958 206.19 92.4072 206.977C91.8187 207.763 91.0218 208.156 90.0166 208.156C88.9906 208.156 88.1833 207.831 87.5947 207.18V211.25H86.1494V199.547H87.4697L87.54 200.484C88.1286 199.755 88.9463 199.391 89.9932 199.391C91.0088 199.391 91.8109 199.773 92.3994 200.539C92.9932 201.305 93.29 202.37 93.29 203.734V203.867ZM91.8447 203.703C91.8447 202.75 91.6416 201.997 91.2354 201.445C90.8291 200.893 90.2718 200.617 89.5635 200.617C88.6885 200.617 88.0322 201.005 87.5947 201.781V205.82C88.027 206.591 88.6885 206.977 89.5791 206.977C90.2718 206.977 90.8213 206.703 91.2275 206.156C91.639 205.604 91.8447 204.786 91.8447 203.703ZM96.5791 200.57C97.2197 199.784 98.0531 199.391 99.0791 199.391C100.866 199.391 101.767 200.398 101.782 202.414V208H100.337V202.406C100.332 201.797 100.191 201.346 99.915 201.055C99.6442 200.763 99.2197 200.617 98.6416 200.617C98.1729 200.617 97.7614 200.742 97.4072 200.992C97.0531 201.242 96.777 201.57 96.5791 201.977V208H95.1338V196H96.5791V200.57ZM103.563 203.695C103.563 202.867 103.725 202.122 104.048 201.461C104.376 200.799 104.829 200.289 105.407 199.93C105.991 199.57 106.655 199.391 107.399 199.391C108.55 199.391 109.48 199.789 110.188 200.586C110.902 201.383 111.259 202.443 111.259 203.766V203.867C111.259 204.69 111.1 205.43 110.782 206.086C110.47 206.737 110.019 207.245 109.431 207.609C108.847 207.974 108.175 208.156 107.415 208.156C106.269 208.156 105.34 207.758 104.626 206.961C103.918 206.164 103.563 205.109 103.563 203.797V203.695ZM105.017 203.867C105.017 204.805 105.233 205.557 105.665 206.125C106.103 206.693 106.686 206.977 107.415 206.977C108.149 206.977 108.733 206.69 109.165 206.117C109.597 205.539 109.813 204.732 109.813 203.695C109.813 202.768 109.592 202.018 109.149 201.445C108.712 200.867 108.129 200.578 107.399 200.578C106.686 200.578 106.11 200.862 105.673 201.43C105.235 201.997 105.017 202.81 105.017 203.867ZM115.032 197.5V199.547H116.61V200.664H115.032V205.906C115.032 206.245 115.103 206.5 115.243 206.672C115.384 206.839 115.623 206.922 115.962 206.922C116.129 206.922 116.358 206.891 116.649 206.828V208C116.269 208.104 115.899 208.156 115.54 208.156C114.894 208.156 114.407 207.961 114.079 207.57C113.751 207.18 113.587 206.625 113.587 205.906V200.664H112.048V199.547H113.587V197.5H115.032ZM117.767 203.695C117.767 202.867 117.928 202.122 118.251 201.461C118.579 200.799 119.032 200.289 119.61 199.93C120.194 199.57 120.858 199.391 121.603 199.391C122.754 199.391 123.683 199.789 124.392 200.586C125.105 201.383 125.462 202.443 125.462 203.766V203.867C125.462 204.69 125.303 205.43 124.985 206.086C124.673 206.737 124.222 207.245 123.634 207.609C123.05 207.974 122.379 208.156 121.618 208.156C120.472 208.156 119.543 207.758 118.829 206.961C118.121 206.164 117.767 205.109 117.767 203.797V203.695ZM119.22 203.867C119.22 204.805 119.436 205.557 119.868 206.125C120.306 206.693 120.889 206.977 121.618 206.977C122.353 206.977 122.936 206.69 123.368 206.117C123.8 205.539 124.017 204.732 124.017 203.695C124.017 202.768 123.795 202.018 123.353 201.445C122.915 200.867 122.332 200.578 121.603 200.578C120.889 200.578 120.313 200.862 119.876 201.43C119.438 201.997 119.22 202.81 119.22 203.867ZM132.196 205.758C132.196 205.367 132.048 205.065 131.751 204.852C131.459 204.633 130.946 204.445 130.212 204.289C129.483 204.133 128.902 203.945 128.47 203.727C128.043 203.508 127.725 203.247 127.517 202.945C127.313 202.643 127.212 202.284 127.212 201.867C127.212 201.174 127.504 200.589 128.087 200.109C128.675 199.63 129.425 199.391 130.337 199.391C131.295 199.391 132.071 199.638 132.665 200.133C133.264 200.628 133.563 201.26 133.563 202.031H132.11C132.11 201.635 131.941 201.294 131.603 201.008C131.269 200.721 130.847 200.578 130.337 200.578C129.811 200.578 129.399 200.693 129.103 200.922C128.806 201.151 128.657 201.451 128.657 201.82C128.657 202.169 128.795 202.432 129.071 202.609C129.347 202.786 129.845 202.956 130.563 203.117C131.287 203.279 131.873 203.471 132.321 203.695C132.769 203.919 133.1 204.19 133.313 204.508C133.532 204.82 133.642 205.203 133.642 205.656C133.642 206.411 133.34 207.018 132.735 207.477C132.131 207.93 131.347 208.156 130.384 208.156C129.707 208.156 129.108 208.036 128.587 207.797C128.066 207.557 127.657 207.224 127.36 206.797C127.069 206.365 126.923 205.898 126.923 205.398H128.368C128.394 205.883 128.587 206.268 128.946 206.555C129.311 206.836 129.79 206.977 130.384 206.977C130.931 206.977 131.368 206.867 131.696 206.648C132.03 206.424 132.196 206.128 132.196 205.758ZM138.29 205.883L140.259 199.547H141.806L138.407 209.305C137.881 210.711 137.045 211.414 135.899 211.414L135.626 211.391L135.087 211.289V210.117L135.478 210.148C135.967 210.148 136.347 210.049 136.618 209.852C136.894 209.654 137.121 209.292 137.298 208.766L137.618 207.906L134.603 199.547H136.181L138.29 205.883ZM144.47 199.547L144.517 200.609C145.162 199.797 146.006 199.391 147.048 199.391C148.834 199.391 149.735 200.398 149.751 202.414V208H148.306V202.406C148.3 201.797 148.16 201.346 147.884 201.055C147.613 200.763 147.188 200.617 146.61 200.617C146.142 200.617 145.73 200.742 145.376 200.992C145.022 201.242 144.746 201.57 144.548 201.977V208H143.103V199.547H144.47ZM153.892 197.5V199.547H155.47V200.664H153.892V205.906C153.892 206.245 153.962 206.5 154.103 206.672C154.243 206.839 154.483 206.922 154.821 206.922C154.988 206.922 155.217 206.891 155.509 206.828V208C155.129 208.104 154.759 208.156 154.399 208.156C153.754 208.156 153.267 207.961 152.938 207.57C152.61 207.18 152.446 206.625 152.446 205.906V200.664H150.907V199.547H152.446V197.5H153.892ZM158.61 200.57C159.251 199.784 160.084 199.391 161.11 199.391C162.897 199.391 163.798 200.398 163.813 202.414V208H162.368V202.406C162.363 201.797 162.222 201.346 161.946 201.055C161.675 200.763 161.251 200.617 160.673 200.617C160.204 200.617 159.793 200.742 159.438 200.992C159.084 201.242 158.808 201.57 158.61 201.977V208H157.165V196H158.61V200.57ZM169.485 208.156C168.34 208.156 167.407 207.781 166.688 207.031C165.97 206.276 165.61 205.268 165.61 204.008V203.742C165.61 202.904 165.769 202.156 166.087 201.5C166.41 200.839 166.858 200.323 167.431 199.953C168.009 199.578 168.634 199.391 169.306 199.391C170.405 199.391 171.259 199.753 171.868 200.477C172.478 201.201 172.782 202.237 172.782 203.586V204.188H167.056C167.076 205.021 167.319 205.695 167.782 206.211C168.251 206.721 168.845 206.977 169.563 206.977C170.074 206.977 170.506 206.872 170.86 206.664C171.215 206.456 171.524 206.18 171.79 205.836L172.673 206.523C171.965 207.612 170.902 208.156 169.485 208.156ZM169.306 200.578C168.722 200.578 168.233 200.792 167.837 201.219C167.441 201.641 167.196 202.234 167.103 203H171.337V202.891C171.295 202.156 171.097 201.589 170.743 201.188C170.389 200.781 169.91 200.578 169.306 200.578ZM179.384 205.758C179.384 205.367 179.235 205.065 178.938 204.852C178.647 204.633 178.134 204.445 177.399 204.289C176.67 204.133 176.09 203.945 175.657 203.727C175.23 203.508 174.912 203.247 174.704 202.945C174.501 202.643 174.399 202.284 174.399 201.867C174.399 201.174 174.691 200.589 175.274 200.109C175.863 199.63 176.613 199.391 177.524 199.391C178.483 199.391 179.259 199.638 179.853 200.133C180.451 200.628 180.751 201.26 180.751 202.031H179.298C179.298 201.635 179.129 201.294 178.79 201.008C178.457 200.721 178.035 200.578 177.524 200.578C176.998 200.578 176.587 200.693 176.29 200.922C175.993 201.151 175.845 201.451 175.845 201.82C175.845 202.169 175.983 202.432 176.259 202.609C176.535 202.786 177.032 202.956 177.751 203.117C178.475 203.279 179.061 203.471 179.509 203.695C179.957 203.919 180.287 204.19 180.501 204.508C180.72 204.82 180.829 205.203 180.829 205.656C180.829 206.411 180.527 207.018 179.923 207.477C179.319 207.93 178.535 208.156 177.571 208.156C176.894 208.156 176.295 208.036 175.774 207.797C175.254 207.557 174.845 207.224 174.548 206.797C174.256 206.365 174.11 205.898 174.11 205.398H175.556C175.582 205.883 175.774 206.268 176.134 206.555C176.498 206.836 176.978 206.977 177.571 206.977C178.118 206.977 178.556 206.867 178.884 206.648C179.217 206.424 179.384 206.128 179.384 205.758ZM184.282 208H182.837V199.547H184.282V208ZM182.72 197.305C182.72 197.07 182.79 196.872 182.931 196.711C183.076 196.549 183.29 196.469 183.571 196.469C183.853 196.469 184.066 196.549 184.212 196.711C184.358 196.872 184.431 197.07 184.431 197.305C184.431 197.539 184.358 197.734 184.212 197.891C184.066 198.047 183.853 198.125 183.571 198.125C183.29 198.125 183.076 198.047 182.931 197.891C182.79 197.734 182.72 197.539 182.72 197.305ZM191.524 205.758C191.524 205.367 191.376 205.065 191.079 204.852C190.787 204.633 190.274 204.445 189.54 204.289C188.811 204.133 188.23 203.945 187.798 203.727C187.371 203.508 187.053 203.247 186.845 202.945C186.642 202.643 186.54 202.284 186.54 201.867C186.54 201.174 186.832 200.589 187.415 200.109C188.004 199.63 188.754 199.391 189.665 199.391C190.623 199.391 191.399 199.638 191.993 200.133C192.592 200.628 192.892 201.26 192.892 202.031H191.438C191.438 201.635 191.269 201.294 190.931 201.008C190.597 200.721 190.175 200.578 189.665 200.578C189.139 200.578 188.728 200.693 188.431 200.922C188.134 201.151 187.985 201.451 187.985 201.82C187.985 202.169 188.123 202.432 188.399 202.609C188.675 202.786 189.173 202.956 189.892 203.117C190.616 203.279 191.201 203.471 191.649 203.695C192.097 203.919 192.428 204.19 192.642 204.508C192.86 204.82 192.97 205.203 192.97 205.656C192.97 206.411 192.668 207.018 192.063 207.477C191.459 207.93 190.675 208.156 189.712 208.156C189.035 208.156 188.436 208.036 187.915 207.797C187.394 207.557 186.985 207.224 186.688 206.797C186.397 206.365 186.251 205.898 186.251 205.398H187.696C187.722 205.883 187.915 206.268 188.274 206.555C188.639 206.836 189.118 206.977 189.712 206.977C190.259 206.977 190.696 206.867 191.024 206.648C191.358 206.424 191.524 206.128 191.524 205.758ZM194.884 207.242C194.884 206.992 194.957 206.784 195.103 206.617C195.254 206.451 195.478 206.367 195.774 206.367C196.071 206.367 196.295 206.451 196.446 206.617C196.603 206.784 196.681 206.992 196.681 207.242C196.681 207.482 196.603 207.682 196.446 207.844C196.295 208.005 196.071 208.086 195.774 208.086C195.478 208.086 195.254 208.005 195.103 207.844C194.957 207.682 194.884 207.482 194.884 207.242Z" fill="black"/>
</svg>
