<svg width="222" height="38" viewBox="0 0 222 38" fill="none" xmlns="http://www.w3.org/2000/svg">
<circle r="7.5" transform="matrix(-1 -8.74228e-08 -8.74228e-08 1 30.5 7.5)" fill="#8D75F3"/>
<circle r="7.5" transform="matrix(-1 -8.74228e-08 -8.74228e-08 1 53.5 7.5)" fill="#8D75F3"/>
<circle r="7.5" transform="matrix(-1 -8.74228e-08 -8.74228e-08 1 122.5 30.5)" fill="#8D75F3"/>
<circle r="7.5" transform="matrix(-1 -8.74228e-08 -8.74228e-08 1 99.5 7.5)" fill="#8D75F3"/>
<circle r="7.5" transform="matrix(-1 -8.74228e-08 -8.74228e-08 1 99.5 30.5)" fill="#8D75F3"/>
<circle r="7.5" transform="matrix(-1 -8.74228e-08 -8.74228e-08 1 145.5 30.5)" fill="#8D75F3"/>
<circle r="7.5" transform="matrix(-1 -8.74228e-08 -8.74228e-08 1 122.5 7.5)" fill="#8D75F3"/>
<circle r="7.5" transform="matrix(-1 -8.74228e-08 -8.74228e-08 1 145.5 7.5)" fill="#8D75F3"/>
<circle r="7.5" transform="matrix(-1 -8.74228e-08 -8.74228e-08 1 168.5 30.5)" fill="#8D75F3"/>
<circle r="7.5" transform="matrix(-1 -8.74228e-08 -8.74228e-08 1 191.5 7.5)" fill="#8D75F3"/>
<circle r="7.5" transform="matrix(-1 -8.74228e-08 -8.74228e-08 1 214.5 7.5)" fill="#8D75F3"/>
<circle r="7.5" transform="matrix(-1 -8.74228e-08 -8.74228e-08 1 30.5 30.5)" fill="#8D75F3"/>
<circle r="7.5" transform="matrix(-1 -8.74228e-08 -8.74228e-08 1 53.5 30.5)" fill="#8D75F3"/>
<circle r="7.5" transform="matrix(-1 -8.74228e-08 -8.74228e-08 1 76.5 30.5)" fill="#8D75F3"/>
<circle cx="168.5" cy="7.5" r="7.5" fill="#8D75F3"/>
<circle cx="191.5" cy="30.5" r="7.5" fill="#8D75F3"/>
<circle cx="76.5" cy="7.5" r="7.5" fill="#8D75F3"/>
<circle r="7.5" transform="matrix(-1 -8.74228e-08 -8.74228e-08 1 214.5 30.5)" fill="#8D75F3"/>
<circle r="7.5" transform="matrix(-1 -8.74228e-08 -8.74228e-08 1 7.5 30.5)" fill="#8D75F3"/>
<circle r="7.5" transform="matrix(-1 -8.74228e-08 -8.74228e-08 1 7.5 7.5)" fill="#8D75F3"/>
</svg>
