<svg width="222" height="226" viewBox="0 0 222 226" fill="none" xmlns="http://www.w3.org/2000/svg">
<path d="M89.0889 115.969L91.752 110.203H94.6348L90.4336 118.359V123H87.7529V118.359L83.5518 110.203H86.4434L89.0889 115.969ZM103.503 117.454H98.4404V120.882H104.382V123H95.8037V110.203H104.364V112.339H98.4404V115.389H103.503V117.454ZM113.153 120.363H108.53L107.651 123H104.848L109.611 110.203H112.055L116.845 123H114.041L113.153 120.363ZM109.242 118.228H112.441L110.833 113.438L109.242 118.228ZM122.777 118.315H120.677V123H118.04V110.203H122.795C124.307 110.203 125.473 110.54 126.293 111.214C127.113 111.888 127.523 112.84 127.523 114.07C127.523 114.943 127.333 115.673 126.952 116.259C126.577 116.839 126.006 117.302 125.238 117.647L128.007 122.877V123H125.177L122.777 118.315ZM120.677 116.18H122.804C123.466 116.18 123.979 116.013 124.342 115.679C124.705 115.339 124.887 114.873 124.887 114.281C124.887 113.678 124.714 113.203 124.368 112.857C124.028 112.512 123.504 112.339 122.795 112.339H120.677V116.18ZM136.172 119.643C136.172 119.145 135.996 118.764 135.645 118.5C135.293 118.23 134.66 117.949 133.746 117.656C132.832 117.357 132.108 117.064 131.575 116.777C130.122 115.992 129.396 114.935 129.396 113.604C129.396 112.913 129.589 112.298 129.976 111.759C130.368 111.214 130.928 110.789 131.654 110.484C132.387 110.18 133.207 110.027 134.115 110.027C135.029 110.027 135.844 110.194 136.559 110.528C137.273 110.856 137.827 111.322 138.22 111.926C138.618 112.529 138.817 113.215 138.817 113.982H136.181C136.181 113.396 135.996 112.942 135.627 112.62C135.258 112.292 134.739 112.128 134.071 112.128C133.427 112.128 132.926 112.266 132.568 112.541C132.211 112.811 132.032 113.168 132.032 113.613C132.032 114.029 132.24 114.378 132.656 114.659C133.078 114.94 133.696 115.204 134.511 115.45C136.011 115.901 137.104 116.461 137.789 117.129C138.475 117.797 138.817 118.629 138.817 119.625C138.817 120.732 138.398 121.603 137.561 122.235C136.723 122.862 135.595 123.176 134.177 123.176C133.192 123.176 132.296 122.997 131.487 122.64C130.679 122.276 130.061 121.781 129.633 121.154C129.211 120.527 129 119.801 129 118.975H131.646C131.646 120.387 132.489 121.093 134.177 121.093C134.804 121.093 135.293 120.967 135.645 120.715C135.996 120.457 136.172 120.1 136.172 119.643Z" fill="#202020"/>
<path d="M101.281 35.2686C100.789 35.8473 100.067 36.1367 99.1143 36.1367C98.3258 36.1367 97.7243 35.9089 97.3096 35.4531C96.8994 34.9928 96.6921 34.3138 96.6875 33.416V28.6035H97.9521V33.3818C97.9521 34.5029 98.4079 35.0635 99.3193 35.0635C100.285 35.0635 100.928 34.7035 101.247 33.9834V28.6035H102.512V36H101.309L101.281 35.2686ZM110.688 32.3838C110.688 33.5094 110.43 34.4163 109.915 35.1045C109.4 35.7926 108.703 36.1367 107.823 36.1367C106.925 36.1367 106.219 35.8519 105.704 35.2822V38.8438H104.439V28.6035H105.595L105.656 29.4238C106.171 28.7858 106.887 28.4668 107.803 28.4668C108.691 28.4668 109.393 28.8018 109.908 29.4717C110.428 30.1416 110.688 31.0736 110.688 32.2676V32.3838ZM109.423 32.2402C109.423 31.4062 109.245 30.7477 108.89 30.2646C108.534 29.7816 108.047 29.54 107.427 29.54C106.661 29.54 106.087 29.8796 105.704 30.5586V34.0928C106.082 34.7673 106.661 35.1045 107.44 35.1045C108.047 35.1045 108.527 34.8652 108.883 34.3867C109.243 33.9036 109.423 33.1882 109.423 32.2402ZM117.489 26.8125V28.6035H118.87V29.5811H117.489V34.168C117.489 34.4642 117.551 34.6875 117.674 34.8379C117.797 34.9837 118.007 35.0566 118.303 35.0566C118.449 35.0566 118.649 35.0293 118.904 34.9746V36C118.572 36.0911 118.248 36.1367 117.934 36.1367C117.368 36.1367 116.942 35.9658 116.655 35.624C116.368 35.2822 116.225 34.7969 116.225 34.168V29.5811H114.878V28.6035H116.225V26.8125H117.489ZM119.882 32.2334C119.882 31.5088 120.023 30.8571 120.306 30.2783C120.593 29.6995 120.989 29.2529 121.495 28.9385C122.006 28.624 122.587 28.4668 123.238 28.4668C124.245 28.4668 125.059 28.8154 125.679 29.5127C126.303 30.21 126.615 31.1374 126.615 32.2949V32.3838C126.615 33.1038 126.476 33.751 126.198 34.3252C125.925 34.8949 125.531 35.3392 125.016 35.6582C124.505 35.9772 123.917 36.1367 123.252 36.1367C122.249 36.1367 121.436 35.7881 120.812 35.0908C120.192 34.3936 119.882 33.4707 119.882 32.3223V32.2334ZM121.153 32.3838C121.153 33.2041 121.342 33.8626 121.721 34.3594C122.104 34.8561 122.614 35.1045 123.252 35.1045C123.895 35.1045 124.405 34.8538 124.783 34.3525C125.161 33.8467 125.351 33.1403 125.351 32.2334C125.351 31.4222 125.157 30.766 124.77 30.2646C124.387 29.7588 123.876 29.5059 123.238 29.5059C122.614 29.5059 122.11 29.7542 121.728 30.251C121.345 30.7477 121.153 31.4587 121.153 32.3838Z" fill="black"/>
<path d="M80.0127 92H75.2861V69.168L68.3135 71.5508V67.5469L79.4072 63.4648H80.0127V92ZM108.431 80.0273C108.431 84.1159 107.662 87.2018 106.126 89.2852C104.603 91.3555 102.278 92.3906 99.1533 92.3906C96.0804 92.3906 93.7627 91.3815 92.2002 89.3633C90.6507 87.332 89.8564 84.3307 89.8174 80.3594V75.4375C89.8174 71.349 90.5791 68.2826 92.1025 66.2383C93.639 64.194 95.9762 63.1719 99.1143 63.1719C102.226 63.1719 104.544 64.168 106.067 66.1602C107.604 68.1523 108.392 71.1341 108.431 75.1055V80.0273ZM103.685 74.7148C103.685 72.0456 103.32 70.0924 102.591 68.8555C101.862 67.6055 100.703 66.9805 99.1143 66.9805C97.5648 66.9805 96.4255 67.5729 95.6963 68.7578C94.9671 69.9297 94.583 71.7656 94.5439 74.2656V80.7109C94.5439 83.3672 94.915 85.3464 95.6572 86.6484C96.3994 87.9505 97.5648 88.6016 99.1533 88.6016C100.677 88.6016 101.803 88.0026 102.532 86.8047C103.261 85.5938 103.646 83.7057 103.685 81.1406V74.7148ZM131.165 80.0273C131.165 84.1159 130.397 87.2018 128.86 89.2852C127.337 91.3555 125.013 92.3906 121.888 92.3906C118.815 92.3906 116.497 91.3815 114.935 89.3633C113.385 87.332 112.591 84.3307 112.552 80.3594V75.4375C112.552 71.349 113.313 68.2826 114.837 66.2383C116.373 64.194 118.711 63.1719 121.849 63.1719C124.961 63.1719 127.278 64.168 128.802 66.1602C130.338 68.1523 131.126 71.1341 131.165 75.1055V80.0273ZM126.419 74.7148C126.419 72.0456 126.054 70.0924 125.325 68.8555C124.596 67.6055 123.437 66.9805 121.849 66.9805C120.299 66.9805 119.16 67.5729 118.431 68.7578C117.701 69.9297 117.317 71.7656 117.278 74.2656V80.7109C117.278 83.3672 117.649 85.3464 118.392 86.6484C119.134 87.9505 120.299 88.6016 121.888 88.6016C123.411 88.6016 124.537 88.0026 125.267 86.8047C125.996 85.5938 126.38 83.7057 126.419 81.1406V74.7148ZM153.899 80.0273C153.899 84.1159 153.131 87.2018 151.595 89.2852C150.071 91.3555 147.747 92.3906 144.622 92.3906C141.549 92.3906 139.231 91.3815 137.669 89.3633C136.119 87.332 135.325 84.3307 135.286 80.3594V75.4375C135.286 71.349 136.048 68.2826 137.571 66.2383C139.108 64.194 141.445 63.1719 144.583 63.1719C147.695 63.1719 150.013 64.168 151.536 66.1602C153.073 68.1523 153.86 71.1341 153.899 75.1055V80.0273ZM149.153 74.7148C149.153 72.0456 148.789 70.0924 148.06 68.8555C147.33 67.6055 146.172 66.9805 144.583 66.9805C143.034 66.9805 141.894 67.5729 141.165 68.7578C140.436 69.9297 140.052 71.7656 140.013 74.2656V80.7109C140.013 83.3672 140.384 85.3464 141.126 86.6484C141.868 87.9505 143.034 88.6016 144.622 88.6016C146.146 88.6016 147.272 88.0026 148.001 86.8047C148.73 85.5938 149.114 83.7057 149.153 81.1406V74.7148Z" fill="#00C7A5"/>
<path d="M44.1816 147.391C44.041 148.594 43.5957 149.523 42.8457 150.18C42.1009 150.831 41.1087 151.156 39.8691 151.156C38.5254 151.156 37.4473 150.674 36.6348 149.711C35.8275 148.747 35.4238 147.458 35.4238 145.844V144.75C35.4238 143.693 35.6113 142.763 35.9863 141.961C36.3665 141.159 36.903 140.544 37.5957 140.117C38.2884 139.685 39.0905 139.469 40.002 139.469C41.2103 139.469 42.179 139.807 42.9082 140.484C43.6374 141.156 44.0618 142.089 44.1816 143.281H42.6738C42.5436 142.375 42.2598 141.719 41.8223 141.312C41.39 140.906 40.7832 140.703 40.002 140.703C39.0436 140.703 38.291 141.057 37.7441 141.766C37.2025 142.474 36.9316 143.482 36.9316 144.789V145.891C36.9316 147.125 37.1895 148.107 37.7051 148.836C38.2207 149.565 38.9421 149.93 39.8691 149.93C40.7025 149.93 41.3405 149.742 41.7832 149.367C42.2311 148.987 42.528 148.328 42.6738 147.391H44.1816ZM54.9863 145.68C54.9863 146.794 54.7988 147.768 54.4238 148.602C54.0488 149.43 53.5176 150.062 52.8301 150.5C52.1426 150.938 51.3405 151.156 50.4238 151.156C49.528 151.156 48.7337 150.938 48.041 150.5C47.3483 150.057 46.8092 149.43 46.4238 148.617C46.0436 147.799 45.8483 146.854 45.8379 145.781V144.961C45.8379 143.867 46.028 142.901 46.4082 142.062C46.7884 141.224 47.3249 140.583 48.0176 140.141C48.7155 139.693 49.5124 139.469 50.4082 139.469C51.3197 139.469 52.1217 139.69 52.8145 140.133C53.5124 140.57 54.0488 141.208 54.4238 142.047C54.7988 142.88 54.9863 143.852 54.9863 144.961V145.68ZM53.4941 144.945C53.4941 143.596 53.2233 142.562 52.6816 141.844C52.14 141.12 51.3822 140.758 50.4082 140.758C49.4603 140.758 48.7129 141.12 48.166 141.844C47.6243 142.562 47.3457 143.562 47.3301 144.844V145.68C47.3301 146.987 47.6035 148.016 48.1504 148.766C48.7025 149.51 49.4603 149.883 50.4238 149.883C51.3926 149.883 52.1426 149.531 52.6738 148.828C53.2051 148.12 53.4785 147.107 53.4941 145.789V144.945ZM60.812 153.08H56.3V152.216L58.14 150.424C58.5773 150.008 58.9027 149.672 59.116 149.416C59.34 149.149 59.4893 148.915 59.564 148.712C59.6493 148.499 59.692 148.275 59.692 148.04C59.692 147.699 59.5907 147.443 59.388 147.272C59.196 147.101 58.94 147.016 58.62 147.016C58.3 147.016 58.0067 147.08 57.74 147.208C57.484 147.325 57.2173 147.491 56.94 147.704L56.38 146.968C56.6893 146.701 57.0253 146.488 57.388 146.328C57.7613 146.168 58.1773 146.088 58.636 146.088C59.3187 146.088 59.852 146.259 60.236 146.6C60.6307 146.931 60.828 147.389 60.828 147.976C60.828 148.499 60.668 148.968 60.348 149.384C60.0387 149.8 59.5853 150.291 58.988 150.856L57.692 152.088H60.812V153.08ZM68.1426 151H66.6973V142.547H68.1426V151ZM66.5801 140.305C66.5801 140.07 66.6504 139.872 66.791 139.711C66.9368 139.549 67.1504 139.469 67.4316 139.469C67.7129 139.469 67.9264 139.549 68.0723 139.711C68.2181 139.872 68.291 140.07 68.291 140.305C68.291 140.539 68.2181 140.734 68.0723 140.891C67.9264 141.047 67.7129 141.125 67.4316 141.125C67.1504 141.125 66.9368 141.047 66.791 140.891C66.6504 140.734 66.5801 140.539 66.5801 140.305ZM75.3848 148.758C75.3848 148.367 75.2363 148.065 74.9395 147.852C74.6478 147.633 74.1348 147.445 73.4004 147.289C72.6712 147.133 72.0905 146.945 71.6582 146.727C71.2311 146.508 70.9134 146.247 70.7051 145.945C70.502 145.643 70.4004 145.284 70.4004 144.867C70.4004 144.174 70.6921 143.589 71.2754 143.109C71.8639 142.63 72.6139 142.391 73.5254 142.391C74.4837 142.391 75.2598 142.638 75.8535 143.133C76.4525 143.628 76.752 144.26 76.752 145.031H75.2988C75.2988 144.635 75.1296 144.294 74.791 144.008C74.4577 143.721 74.0358 143.578 73.5254 143.578C72.9993 143.578 72.5879 143.693 72.291 143.922C71.9941 144.151 71.8457 144.451 71.8457 144.82C71.8457 145.169 71.9837 145.432 72.2598 145.609C72.5358 145.786 73.0332 145.956 73.752 146.117C74.4759 146.279 75.0618 146.471 75.5098 146.695C75.9577 146.919 76.2884 147.19 76.502 147.508C76.7207 147.82 76.8301 148.203 76.8301 148.656C76.8301 149.411 76.528 150.018 75.9238 150.477C75.3197 150.93 74.5358 151.156 73.5723 151.156C72.8952 151.156 72.2962 151.036 71.7754 150.797C71.2546 150.557 70.8457 150.224 70.5488 149.797C70.2572 149.365 70.1113 148.898 70.1113 148.398H71.5566C71.5827 148.883 71.7754 149.268 72.1348 149.555C72.4993 149.836 72.9785 149.977 73.5723 149.977C74.1191 149.977 74.5566 149.867 74.8848 149.648C75.2181 149.424 75.3848 149.128 75.3848 148.758ZM84.6426 140.5V142.547H86.2207V143.664H84.6426V148.906C84.6426 149.245 84.7129 149.5 84.8535 149.672C84.9941 149.839 85.2337 149.922 85.5723 149.922C85.7389 149.922 85.9681 149.891 86.2598 149.828V151C85.8796 151.104 85.5098 151.156 85.1504 151.156C84.5046 151.156 84.0176 150.961 83.6895 150.57C83.3613 150.18 83.1973 149.625 83.1973 148.906V143.664H81.6582V142.547H83.1973V140.5H84.6426ZM93.1348 151C93.0514 150.833 92.9837 150.536 92.9316 150.109C92.2598 150.807 91.4577 151.156 90.5254 151.156C89.6921 151.156 89.0072 150.922 88.4707 150.453C87.9395 149.979 87.6738 149.38 87.6738 148.656C87.6738 147.776 88.0072 147.094 88.6738 146.609C89.3457 146.12 90.2884 145.875 91.502 145.875H92.9082V145.211C92.9082 144.706 92.7572 144.305 92.4551 144.008C92.153 143.706 91.7077 143.555 91.1191 143.555C90.6035 143.555 90.1712 143.685 89.8223 143.945C89.4733 144.206 89.2988 144.521 89.2988 144.891H87.8457C87.8457 144.469 87.9941 144.062 88.291 143.672C88.5931 143.276 88.9993 142.964 89.5098 142.734C90.0254 142.505 90.5905 142.391 91.2051 142.391C92.179 142.391 92.9421 142.635 93.4941 143.125C94.0462 143.609 94.3327 144.279 94.3535 145.133V149.023C94.3535 149.799 94.4525 150.417 94.6504 150.875V151H93.1348ZM90.7363 149.898C91.1895 149.898 91.6191 149.781 92.0254 149.547C92.4316 149.312 92.7259 149.008 92.9082 148.633V146.898H91.7754C90.0046 146.898 89.1191 147.417 89.1191 148.453C89.1191 148.906 89.2702 149.26 89.5723 149.516C89.8743 149.771 90.2624 149.898 90.7363 149.898ZM98.9785 147.086L98.0723 148.031V151H96.627V139H98.0723V146.258L98.8457 145.328L101.479 142.547H103.236L99.9473 146.078L103.619 151H101.924L98.9785 147.086ZM108.08 151.156C106.934 151.156 106.002 150.781 105.283 150.031C104.564 149.276 104.205 148.268 104.205 147.008V146.742C104.205 145.904 104.364 145.156 104.682 144.5C105.005 143.839 105.452 143.323 106.025 142.953C106.604 142.578 107.229 142.391 107.9 142.391C108.999 142.391 109.854 142.753 110.463 143.477C111.072 144.201 111.377 145.237 111.377 146.586V147.188H105.65C105.671 148.021 105.913 148.695 106.377 149.211C106.846 149.721 107.439 149.977 108.158 149.977C108.669 149.977 109.101 149.872 109.455 149.664C109.809 149.456 110.119 149.18 110.385 148.836L111.268 149.523C110.559 150.612 109.497 151.156 108.08 151.156ZM107.9 143.578C107.317 143.578 106.827 143.792 106.432 144.219C106.036 144.641 105.791 145.234 105.697 146H109.932V145.891C109.89 145.156 109.692 144.589 109.338 144.188C108.984 143.781 108.505 143.578 107.9 143.578ZM114.424 142.547L114.471 143.609C115.117 142.797 115.96 142.391 117.002 142.391C118.788 142.391 119.689 143.398 119.705 145.414V151H118.26V145.406C118.255 144.797 118.114 144.346 117.838 144.055C117.567 143.763 117.143 143.617 116.564 143.617C116.096 143.617 115.684 143.742 115.33 143.992C114.976 144.242 114.7 144.57 114.502 144.977V151H113.057V142.547H114.424ZM131.072 150.164C130.51 150.826 129.684 151.156 128.596 151.156C127.695 151.156 127.007 150.896 126.533 150.375C126.064 149.849 125.827 149.073 125.822 148.047V142.547H127.268V148.008C127.268 149.289 127.788 149.93 128.83 149.93C129.934 149.93 130.669 149.518 131.033 148.695V142.547H132.479V151H131.104L131.072 150.164ZM141.822 146.867C141.822 148.154 141.528 149.19 140.939 149.977C140.351 150.763 139.554 151.156 138.549 151.156C137.523 151.156 136.715 150.831 136.127 150.18V154.25H134.682V142.547H136.002L136.072 143.484C136.661 142.755 137.479 142.391 138.525 142.391C139.541 142.391 140.343 142.773 140.932 143.539C141.525 144.305 141.822 145.37 141.822 146.734V146.867ZM140.377 146.703C140.377 145.75 140.174 144.997 139.768 144.445C139.361 143.893 138.804 143.617 138.096 143.617C137.221 143.617 136.564 144.005 136.127 144.781V148.82C136.559 149.591 137.221 149.977 138.111 149.977C138.804 149.977 139.354 149.703 139.76 149.156C140.171 148.604 140.377 147.786 140.377 146.703ZM154.791 146.867C154.791 148.159 154.494 149.198 153.9 149.984C153.307 150.766 152.51 151.156 151.51 151.156C150.442 151.156 149.617 150.779 149.033 150.023L148.963 151H147.635V139H149.08V143.477C149.663 142.753 150.468 142.391 151.494 142.391C152.52 142.391 153.325 142.779 153.908 143.555C154.497 144.331 154.791 145.393 154.791 146.742V146.867ZM153.346 146.703C153.346 145.719 153.156 144.958 152.775 144.422C152.395 143.885 151.848 143.617 151.135 143.617C150.182 143.617 149.497 144.06 149.08 144.945V148.602C149.523 149.487 150.213 149.93 151.15 149.93C151.843 149.93 152.382 149.661 152.768 149.125C153.153 148.589 153.346 147.781 153.346 146.703ZM159.291 148.883L161.26 142.547H162.807L159.408 152.305C158.882 153.711 158.046 154.414 156.9 154.414L156.627 154.391L156.088 154.289V153.117L156.479 153.148C156.968 153.148 157.348 153.049 157.619 152.852C157.895 152.654 158.122 152.292 158.299 151.766L158.619 150.906L155.604 142.547H157.182L159.291 148.883ZM170.033 140.5V142.547H171.611V143.664H170.033V148.906C170.033 149.245 170.104 149.5 170.244 149.672C170.385 149.839 170.624 149.922 170.963 149.922C171.13 149.922 171.359 149.891 171.65 149.828V151C171.27 151.104 170.9 151.156 170.541 151.156C169.895 151.156 169.408 150.961 169.08 150.57C168.752 150.18 168.588 149.625 168.588 148.906V143.664H167.049V142.547H168.588V140.5H170.033ZM174.752 143.57C175.393 142.784 176.226 142.391 177.252 142.391C179.038 142.391 179.939 143.398 179.955 145.414V151H178.51V145.406C178.505 144.797 178.364 144.346 178.088 144.055C177.817 143.763 177.393 143.617 176.814 143.617C176.346 143.617 175.934 143.742 175.58 143.992C175.226 144.242 174.95 144.57 174.752 144.977V151H173.307V139H174.752V143.57ZM185.627 151.156C184.481 151.156 183.549 150.781 182.83 150.031C182.111 149.276 181.752 148.268 181.752 147.008V146.742C181.752 145.904 181.911 145.156 182.229 144.5C182.551 143.839 182.999 143.323 183.572 142.953C184.15 142.578 184.775 142.391 185.447 142.391C186.546 142.391 187.4 142.753 188.01 143.477C188.619 144.201 188.924 145.237 188.924 146.586V147.188H183.197C183.218 148.021 183.46 148.695 183.924 149.211C184.393 149.721 184.986 149.977 185.705 149.977C186.215 149.977 186.648 149.872 187.002 149.664C187.356 149.456 187.666 149.18 187.932 148.836L188.814 149.523C188.106 150.612 187.044 151.156 185.627 151.156ZM185.447 143.578C184.864 143.578 184.374 143.792 183.979 144.219C183.583 144.641 183.338 145.234 183.244 146H187.479V145.891C187.437 145.156 187.239 144.589 186.885 144.188C186.531 143.781 186.051 143.578 185.447 143.578ZM26.0645 165.695C26.0645 164.867 26.2259 164.122 26.5488 163.461C26.877 162.799 27.3301 162.289 27.9082 161.93C28.4915 161.57 29.1556 161.391 29.9004 161.391C31.0514 161.391 31.9811 161.789 32.6895 162.586C33.403 163.383 33.7598 164.443 33.7598 165.766V165.867C33.7598 166.69 33.6009 167.43 33.2832 168.086C32.9707 168.737 32.5202 169.245 31.9316 169.609C31.3483 169.974 30.6764 170.156 29.916 170.156C28.7702 170.156 27.8405 169.758 27.127 168.961C26.4186 168.164 26.0645 167.109 26.0645 165.797V165.695ZM27.5176 165.867C27.5176 166.805 27.7337 167.557 28.166 168.125C28.6035 168.693 29.1868 168.977 29.916 168.977C30.6504 168.977 31.2337 168.69 31.666 168.117C32.0983 167.539 32.3145 166.732 32.3145 165.695C32.3145 164.768 32.0931 164.018 31.6504 163.445C31.2129 162.867 30.6296 162.578 29.9004 162.578C29.1868 162.578 28.6113 162.862 28.1738 163.43C27.7363 163.997 27.5176 164.81 27.5176 165.867ZM38.9629 168.977C39.4785 168.977 39.929 168.82 40.3145 168.508C40.6999 168.195 40.9134 167.805 40.9551 167.336H42.3223C42.2962 167.82 42.1296 168.281 41.8223 168.719C41.515 169.156 41.1035 169.505 40.5879 169.766C40.0775 170.026 39.5358 170.156 38.9629 170.156C37.8118 170.156 36.8952 169.773 36.2129 169.008C35.5358 168.237 35.1973 167.185 35.1973 165.852V165.609C35.1973 164.786 35.3483 164.055 35.6504 163.414C35.9525 162.773 36.3848 162.276 36.9473 161.922C37.515 161.568 38.1842 161.391 38.9551 161.391C39.903 161.391 40.6895 161.674 41.3145 162.242C41.9447 162.81 42.2806 163.547 42.3223 164.453H40.9551C40.9134 163.906 40.7051 163.458 40.3301 163.109C39.9603 162.755 39.502 162.578 38.9551 162.578C38.2207 162.578 37.6504 162.844 37.2441 163.375C36.8431 163.901 36.6426 164.664 36.6426 165.664V165.938C36.6426 166.911 36.8431 167.661 37.2441 168.188C37.6452 168.714 38.2181 168.977 38.9629 168.977ZM47.4551 170.156C46.3092 170.156 45.377 169.781 44.6582 169.031C43.9395 168.276 43.5801 167.268 43.5801 166.008V165.742C43.5801 164.904 43.7389 164.156 44.0566 163.5C44.3796 162.839 44.8275 162.323 45.4004 161.953C45.9785 161.578 46.6035 161.391 47.2754 161.391C48.3743 161.391 49.2285 161.753 49.8379 162.477C50.4473 163.201 50.752 164.237 50.752 165.586V166.188H45.0254C45.0462 167.021 45.2884 167.695 45.752 168.211C46.2207 168.721 46.8145 168.977 47.5332 168.977C48.0436 168.977 48.4759 168.872 48.8301 168.664C49.1842 168.456 49.4941 168.18 49.7598 167.836L50.6426 168.523C49.9342 169.612 48.8717 170.156 47.4551 170.156ZM47.2754 162.578C46.6921 162.578 46.2025 162.792 45.8066 163.219C45.4108 163.641 45.166 164.234 45.0723 165H49.3066V164.891C49.265 164.156 49.0671 163.589 48.7129 163.188C48.3587 162.781 47.8796 162.578 47.2754 162.578ZM57.6504 170C57.5671 169.833 57.4993 169.536 57.4473 169.109C56.7754 169.807 55.9733 170.156 55.041 170.156C54.2077 170.156 53.5228 169.922 52.9863 169.453C52.4551 168.979 52.1895 168.38 52.1895 167.656C52.1895 166.776 52.5228 166.094 53.1895 165.609C53.8613 165.12 54.804 164.875 56.0176 164.875H57.4238V164.211C57.4238 163.706 57.2728 163.305 56.9707 163.008C56.6686 162.706 56.2233 162.555 55.6348 162.555C55.1191 162.555 54.6868 162.685 54.3379 162.945C53.9889 163.206 53.8145 163.521 53.8145 163.891H52.3613C52.3613 163.469 52.5098 163.062 52.8066 162.672C53.1087 162.276 53.515 161.964 54.0254 161.734C54.541 161.505 55.1061 161.391 55.7207 161.391C56.6947 161.391 57.4577 161.635 58.0098 162.125C58.5618 162.609 58.8483 163.279 58.8691 164.133V168.023C58.8691 168.799 58.9681 169.417 59.166 169.875V170H57.6504ZM55.252 168.898C55.7051 168.898 56.1348 168.781 56.541 168.547C56.9473 168.312 57.2415 168.008 57.4238 167.633V165.898H56.291C54.5202 165.898 53.6348 166.417 53.6348 167.453C53.6348 167.906 53.7858 168.26 54.0879 168.516C54.39 168.771 54.778 168.898 55.252 168.898ZM62.502 161.547L62.5488 162.609C63.1947 161.797 64.0384 161.391 65.0801 161.391C66.8665 161.391 67.7676 162.398 67.7832 164.414V170H66.3379V164.406C66.3327 163.797 66.1921 163.346 65.916 163.055C65.6452 162.763 65.2207 162.617 64.6426 162.617C64.1738 162.617 63.7624 162.742 63.4082 162.992C63.054 163.242 62.778 163.57 62.5801 163.977V170H61.1348V161.547H62.502ZM74.8848 167.758C74.8848 167.367 74.7363 167.065 74.4395 166.852C74.1478 166.633 73.6348 166.445 72.9004 166.289C72.1712 166.133 71.5905 165.945 71.1582 165.727C70.7311 165.508 70.4134 165.247 70.2051 164.945C70.002 164.643 69.9004 164.284 69.9004 163.867C69.9004 163.174 70.1921 162.589 70.7754 162.109C71.3639 161.63 72.1139 161.391 73.0254 161.391C73.9837 161.391 74.7598 161.638 75.3535 162.133C75.9525 162.628 76.252 163.26 76.252 164.031H74.7988C74.7988 163.635 74.6296 163.294 74.291 163.008C73.9577 162.721 73.5358 162.578 73.0254 162.578C72.4993 162.578 72.0879 162.693 71.791 162.922C71.4941 163.151 71.3457 163.451 71.3457 163.82C71.3457 164.169 71.4837 164.432 71.7598 164.609C72.0358 164.786 72.5332 164.956 73.252 165.117C73.9759 165.279 74.5618 165.471 75.0098 165.695C75.4577 165.919 75.7884 166.19 76.002 166.508C76.2207 166.82 76.3301 167.203 76.3301 167.656C76.3301 168.411 76.028 169.018 75.4238 169.477C74.8197 169.93 74.0358 170.156 73.0723 170.156C72.3952 170.156 71.7962 170.036 71.2754 169.797C70.7546 169.557 70.3457 169.224 70.0488 168.797C69.7572 168.365 69.6113 167.898 69.6113 167.398H71.0566C71.0827 167.883 71.2754 168.268 71.6348 168.555C71.9993 168.836 72.4785 168.977 73.0723 168.977C73.6191 168.977 74.0566 168.867 74.3848 168.648C74.7181 168.424 74.8848 168.128 74.8848 167.758ZM87.4004 170C87.3171 169.833 87.2493 169.536 87.1973 169.109C86.5254 169.807 85.7233 170.156 84.791 170.156C83.9577 170.156 83.2728 169.922 82.7363 169.453C82.2051 168.979 81.9395 168.38 81.9395 167.656C81.9395 166.776 82.2728 166.094 82.9395 165.609C83.6113 165.12 84.554 164.875 85.7676 164.875H87.1738V164.211C87.1738 163.706 87.0228 163.305 86.7207 163.008C86.4186 162.706 85.9733 162.555 85.3848 162.555C84.8691 162.555 84.4368 162.685 84.0879 162.945C83.7389 163.206 83.5645 163.521 83.5645 163.891H82.1113C82.1113 163.469 82.2598 163.062 82.5566 162.672C82.8587 162.276 83.265 161.964 83.7754 161.734C84.291 161.505 84.8561 161.391 85.4707 161.391C86.4447 161.391 87.2077 161.635 87.7598 162.125C88.3118 162.609 88.5983 163.279 88.6191 164.133V168.023C88.6191 168.799 88.7181 169.417 88.916 169.875V170H87.4004ZM85.002 168.898C85.4551 168.898 85.8848 168.781 86.291 168.547C86.6973 168.312 86.9915 168.008 87.1738 167.633V165.898H86.041C84.2702 165.898 83.3848 166.417 83.3848 167.453C83.3848 167.906 83.5358 168.26 83.8379 168.516C84.14 168.771 84.528 168.898 85.002 168.898ZM92.252 161.547L92.2988 162.609C92.9447 161.797 93.7884 161.391 94.8301 161.391C96.6165 161.391 97.5176 162.398 97.5332 164.414V170H96.0879V164.406C96.0827 163.797 95.9421 163.346 95.666 163.055C95.3952 162.763 94.9707 162.617 94.3926 162.617C93.9238 162.617 93.5124 162.742 93.1582 162.992C92.804 163.242 92.528 163.57 92.3301 163.977V170H90.8848V161.547H92.252ZM99.3613 165.703C99.3613 164.406 99.6686 163.365 100.283 162.578C100.898 161.786 101.702 161.391 102.697 161.391C103.687 161.391 104.471 161.729 105.049 162.406V158H106.494V170H105.166L105.096 169.094C104.518 169.802 103.713 170.156 102.682 170.156C101.702 170.156 100.903 169.755 100.283 168.953C99.6686 168.151 99.3613 167.104 99.3613 165.812V165.703ZM100.807 165.867C100.807 166.826 101.005 167.576 101.4 168.117C101.796 168.659 102.343 168.93 103.041 168.93C103.958 168.93 104.627 168.518 105.049 167.695V163.812C104.617 163.016 103.952 162.617 103.057 162.617C102.348 162.617 101.796 162.891 101.4 163.438C101.005 163.984 100.807 164.794 100.807 165.867ZM116.221 170.156C115.075 170.156 114.143 169.781 113.424 169.031C112.705 168.276 112.346 167.268 112.346 166.008V165.742C112.346 164.904 112.505 164.156 112.822 163.5C113.145 162.839 113.593 162.323 114.166 161.953C114.744 161.578 115.369 161.391 116.041 161.391C117.14 161.391 117.994 161.753 118.604 162.477C119.213 163.201 119.518 164.237 119.518 165.586V166.188H113.791C113.812 167.021 114.054 167.695 114.518 168.211C114.986 168.721 115.58 168.977 116.299 168.977C116.809 168.977 117.242 168.872 117.596 168.664C117.95 168.456 118.26 168.18 118.525 167.836L119.408 168.523C118.7 169.612 117.637 170.156 116.221 170.156ZM116.041 162.578C115.458 162.578 114.968 162.792 114.572 163.219C114.176 163.641 113.932 164.234 113.838 165H118.072V164.891C118.031 164.156 117.833 163.589 117.479 163.188C117.124 162.781 116.645 162.578 116.041 162.578ZM124.033 164.633L125.908 161.547H127.596L124.83 165.727L127.682 170H126.01L124.057 166.836L122.104 170H120.424L123.275 165.727L120.51 161.547H122.182L124.033 164.633ZM131.096 159.5V161.547H132.674V162.664H131.096V167.906C131.096 168.245 131.166 168.5 131.307 168.672C131.447 168.839 131.687 168.922 132.025 168.922C132.192 168.922 132.421 168.891 132.713 168.828V170C132.333 170.104 131.963 170.156 131.604 170.156C130.958 170.156 130.471 169.961 130.143 169.57C129.814 169.18 129.65 168.625 129.65 167.906V162.664H128.111V161.547H129.65V159.5H131.096ZM138.455 162.844C138.236 162.807 137.999 162.789 137.744 162.789C136.796 162.789 136.153 163.193 135.814 164V170H134.369V161.547H135.775L135.799 162.523C136.273 161.768 136.945 161.391 137.814 161.391C138.096 161.391 138.309 161.427 138.455 161.5V162.844ZM144.697 170C144.614 169.833 144.546 169.536 144.494 169.109C143.822 169.807 143.02 170.156 142.088 170.156C141.255 170.156 140.57 169.922 140.033 169.453C139.502 168.979 139.236 168.38 139.236 167.656C139.236 166.776 139.57 166.094 140.236 165.609C140.908 165.12 141.851 164.875 143.064 164.875H144.471V164.211C144.471 163.706 144.32 163.305 144.018 163.008C143.715 162.706 143.27 162.555 142.682 162.555C142.166 162.555 141.734 162.685 141.385 162.945C141.036 163.206 140.861 163.521 140.861 163.891H139.408C139.408 163.469 139.557 163.062 139.854 162.672C140.156 162.276 140.562 161.964 141.072 161.734C141.588 161.505 142.153 161.391 142.768 161.391C143.742 161.391 144.505 161.635 145.057 162.125C145.609 162.609 145.895 163.279 145.916 164.133V168.023C145.916 168.799 146.015 169.417 146.213 169.875V170H144.697ZM142.299 168.898C142.752 168.898 143.182 168.781 143.588 168.547C143.994 168.312 144.288 168.008 144.471 167.633V165.898H143.338C141.567 165.898 140.682 166.417 140.682 167.453C140.682 167.906 140.833 168.26 141.135 168.516C141.437 168.771 141.825 168.898 142.299 168.898ZM151.572 168.977C152.088 168.977 152.538 168.82 152.924 168.508C153.309 168.195 153.523 167.805 153.564 167.336H154.932C154.906 167.82 154.739 168.281 154.432 168.719C154.124 169.156 153.713 169.505 153.197 169.766C152.687 170.026 152.145 170.156 151.572 170.156C150.421 170.156 149.505 169.773 148.822 169.008C148.145 168.237 147.807 167.185 147.807 165.852V165.609C147.807 164.786 147.958 164.055 148.26 163.414C148.562 162.773 148.994 162.276 149.557 161.922C150.124 161.568 150.794 161.391 151.564 161.391C152.512 161.391 153.299 161.674 153.924 162.242C154.554 162.81 154.89 163.547 154.932 164.453H153.564C153.523 163.906 153.314 163.458 152.939 163.109C152.57 162.755 152.111 162.578 151.564 162.578C150.83 162.578 150.26 162.844 149.854 163.375C149.452 163.901 149.252 164.664 149.252 165.664V165.938C149.252 166.911 149.452 167.661 149.854 168.188C150.255 168.714 150.827 168.977 151.572 168.977ZM158.518 159.5V161.547H160.096V162.664H158.518V167.906C158.518 168.245 158.588 168.5 158.729 168.672C158.869 168.839 159.109 168.922 159.447 168.922C159.614 168.922 159.843 168.891 160.135 168.828V170C159.755 170.104 159.385 170.156 159.025 170.156C158.38 170.156 157.893 169.961 157.564 169.57C157.236 169.18 157.072 168.625 157.072 167.906V162.664H155.533V161.547H157.072V159.5H158.518ZM165.299 170.156C164.153 170.156 163.221 169.781 162.502 169.031C161.783 168.276 161.424 167.268 161.424 166.008V165.742C161.424 164.904 161.583 164.156 161.9 163.5C162.223 162.839 162.671 162.323 163.244 161.953C163.822 161.578 164.447 161.391 165.119 161.391C166.218 161.391 167.072 161.753 167.682 162.477C168.291 163.201 168.596 164.237 168.596 165.586V166.188H162.869C162.89 167.021 163.132 167.695 163.596 168.211C164.064 168.721 164.658 168.977 165.377 168.977C165.887 168.977 166.32 168.872 166.674 168.664C167.028 168.456 167.338 168.18 167.604 167.836L168.486 168.523C167.778 169.612 166.715 170.156 165.299 170.156ZM165.119 162.578C164.536 162.578 164.046 162.792 163.65 163.219C163.255 163.641 163.01 164.234 162.916 165H167.15V164.891C167.109 164.156 166.911 163.589 166.557 163.188C166.202 162.781 165.723 162.578 165.119 162.578ZM169.924 165.703C169.924 164.406 170.231 163.365 170.846 162.578C171.46 161.786 172.265 161.391 173.26 161.391C174.249 161.391 175.033 161.729 175.611 162.406V158H177.057V170H175.729L175.658 169.094C175.08 169.802 174.275 170.156 173.244 170.156C172.265 170.156 171.465 169.755 170.846 168.953C170.231 168.151 169.924 167.104 169.924 165.812V165.703ZM171.369 165.867C171.369 166.826 171.567 167.576 171.963 168.117C172.359 168.659 172.906 168.93 173.604 168.93C174.52 168.93 175.189 168.518 175.611 167.695V163.812C175.179 163.016 174.515 162.617 173.619 162.617C172.911 162.617 172.359 162.891 171.963 163.438C171.567 163.984 171.369 164.794 171.369 165.867ZM190.432 165.867C190.432 167.159 190.135 168.198 189.541 168.984C188.947 169.766 188.15 170.156 187.15 170.156C186.083 170.156 185.257 169.779 184.674 169.023L184.604 170H183.275V158H184.721V162.477C185.304 161.753 186.109 161.391 187.135 161.391C188.161 161.391 188.965 161.779 189.549 162.555C190.137 163.331 190.432 164.393 190.432 165.742V165.867ZM188.986 165.703C188.986 164.719 188.796 163.958 188.416 163.422C188.036 162.885 187.489 162.617 186.775 162.617C185.822 162.617 185.137 163.06 184.721 163.945V167.602C185.163 168.487 185.854 168.93 186.791 168.93C187.484 168.93 188.023 168.661 188.408 168.125C188.794 167.589 188.986 166.781 188.986 165.703ZM194.932 167.883L196.9 161.547H198.447L195.049 171.305C194.523 172.711 193.687 173.414 192.541 173.414L192.268 173.391L191.729 173.289V172.117L192.119 172.148C192.609 172.148 192.989 172.049 193.26 171.852C193.536 171.654 193.762 171.292 193.939 170.766L194.26 169.906L191.244 161.547H192.822L194.932 167.883ZM41.9707 184.867C41.9707 186.154 41.6764 187.19 41.0879 187.977C40.4993 188.763 39.7025 189.156 38.6973 189.156C37.6712 189.156 36.8639 188.831 36.2754 188.18V192.25H34.8301V180.547H36.1504L36.2207 181.484C36.8092 180.755 37.627 180.391 38.6738 180.391C39.6895 180.391 40.4915 180.773 41.0801 181.539C41.6738 182.305 41.9707 183.37 41.9707 184.734V184.867ZM40.5254 184.703C40.5254 183.75 40.3223 182.997 39.916 182.445C39.5098 181.893 38.9525 181.617 38.2441 181.617C37.3691 181.617 36.7129 182.005 36.2754 182.781V186.82C36.7077 187.591 37.3691 187.977 38.2598 187.977C38.9525 187.977 39.502 187.703 39.9082 187.156C40.3197 186.604 40.5254 185.786 40.5254 184.703ZM45.3848 189H43.9395V177H45.3848V189ZM52.9238 189C52.8405 188.833 52.7728 188.536 52.7207 188.109C52.0488 188.807 51.2467 189.156 50.3145 189.156C49.4811 189.156 48.7962 188.922 48.2598 188.453C47.7285 187.979 47.4629 187.38 47.4629 186.656C47.4629 185.776 47.7962 185.094 48.4629 184.609C49.1348 184.12 50.0775 183.875 51.291 183.875H52.6973V183.211C52.6973 182.706 52.5462 182.305 52.2441 182.008C51.9421 181.706 51.4967 181.555 50.9082 181.555C50.3926 181.555 49.9603 181.685 49.6113 181.945C49.2624 182.206 49.0879 182.521 49.0879 182.891H47.6348C47.6348 182.469 47.7832 182.062 48.0801 181.672C48.3822 181.276 48.7884 180.964 49.2988 180.734C49.8145 180.505 50.3796 180.391 50.9941 180.391C51.9681 180.391 52.7311 180.635 53.2832 181.125C53.8353 181.609 54.1217 182.279 54.1426 183.133V187.023C54.1426 187.799 54.2415 188.417 54.4395 188.875V189H52.9238ZM50.5254 187.898C50.9785 187.898 51.4082 187.781 51.8145 187.547C52.2207 187.312 52.515 187.008 52.6973 186.633V184.898H51.5645C49.7936 184.898 48.9082 185.417 48.9082 186.453C48.9082 186.906 49.0592 187.26 49.3613 187.516C49.6634 187.771 50.0514 187.898 50.5254 187.898ZM57.7754 180.547L57.8223 181.609C58.4681 180.797 59.3118 180.391 60.3535 180.391C62.14 180.391 63.041 181.398 63.0566 183.414V189H61.6113V183.406C61.6061 182.797 61.4655 182.346 61.1895 182.055C60.9186 181.763 60.4941 181.617 59.916 181.617C59.4473 181.617 59.0358 181.742 58.6816 181.992C58.3275 182.242 58.0514 182.57 57.8535 182.977V189H56.4082V180.547H57.7754ZM67.1973 178.5V180.547H68.7754V181.664H67.1973V186.906C67.1973 187.245 67.2676 187.5 67.4082 187.672C67.5488 187.839 67.7884 187.922 68.127 187.922C68.2936 187.922 68.5228 187.891 68.8145 187.828V189C68.4342 189.104 68.0645 189.156 67.7051 189.156C67.0592 189.156 66.5723 188.961 66.2441 188.57C65.916 188.18 65.752 187.625 65.752 186.906V181.664H64.2129V180.547H65.752V178.5H67.1973ZM75.3926 186.758C75.3926 186.367 75.2441 186.065 74.9473 185.852C74.6556 185.633 74.1426 185.445 73.4082 185.289C72.679 185.133 72.0983 184.945 71.666 184.727C71.2389 184.508 70.9212 184.247 70.7129 183.945C70.5098 183.643 70.4082 183.284 70.4082 182.867C70.4082 182.174 70.6999 181.589 71.2832 181.109C71.8717 180.63 72.6217 180.391 73.5332 180.391C74.4915 180.391 75.2676 180.638 75.8613 181.133C76.4603 181.628 76.7598 182.26 76.7598 183.031H75.3066C75.3066 182.635 75.1374 182.294 74.7988 182.008C74.4655 181.721 74.0436 181.578 73.5332 181.578C73.0072 181.578 72.5957 181.693 72.2988 181.922C72.002 182.151 71.8535 182.451 71.8535 182.82C71.8535 183.169 71.9915 183.432 72.2676 183.609C72.5436 183.786 73.041 183.956 73.7598 184.117C74.4837 184.279 75.0697 184.471 75.5176 184.695C75.9655 184.919 76.2962 185.19 76.5098 185.508C76.7285 185.82 76.8379 186.203 76.8379 186.656C76.8379 187.411 76.5358 188.018 75.9316 188.477C75.3275 188.93 74.5436 189.156 73.5801 189.156C72.903 189.156 72.304 189.036 71.7832 188.797C71.2624 188.557 70.8535 188.224 70.5566 187.797C70.265 187.365 70.1191 186.898 70.1191 186.398H71.5645C71.5905 186.883 71.7832 187.268 72.1426 187.555C72.5072 187.836 72.9863 187.977 73.5801 187.977C74.127 187.977 74.5645 187.867 74.8926 187.648C75.2259 187.424 75.3926 187.128 75.3926 186.758ZM82.3848 185.945C82.3848 185.398 82.5358 184.896 82.8379 184.438C83.1452 183.979 83.7285 183.445 84.5879 182.836C84.0827 182.221 83.7441 181.727 83.5723 181.352C83.4004 180.977 83.3145 180.604 83.3145 180.234C83.3145 179.37 83.5697 178.693 84.0801 178.203C84.5905 177.714 85.2832 177.469 86.1582 177.469C86.9395 177.469 87.5853 177.698 88.0957 178.156C88.6061 178.609 88.8613 179.182 88.8613 179.875C88.8613 180.333 88.7441 180.758 88.5098 181.148C88.2806 181.534 87.877 181.94 87.2988 182.367L86.4629 182.984L88.9941 186.008C89.3483 185.331 89.5254 184.578 89.5254 183.75H90.8301C90.8301 185.078 90.5098 186.18 89.8691 187.055L91.4941 189H89.7598L89.002 188.102C88.6165 188.445 88.1634 188.708 87.6426 188.891C87.127 189.068 86.6009 189.156 86.0645 189.156C84.9551 189.156 84.0645 188.862 83.3926 188.273C82.7207 187.685 82.3848 186.909 82.3848 185.945ZM86.0645 187.977C86.8301 187.977 87.5306 187.685 88.166 187.102L85.3926 183.781L85.1348 183.969C84.265 184.609 83.8301 185.268 83.8301 185.945C83.8301 186.56 84.028 187.052 84.4238 187.422C84.8249 187.792 85.3717 187.977 86.0645 187.977ZM84.7598 180.188C84.7598 180.688 85.0671 181.312 85.6816 182.062L86.6035 181.414C86.9577 181.164 87.1999 180.927 87.3301 180.703C87.4603 180.474 87.5254 180.198 87.5254 179.875C87.5254 179.526 87.3952 179.237 87.1348 179.008C86.8743 178.773 86.5462 178.656 86.1504 178.656C85.7233 178.656 85.3848 178.802 85.1348 179.094C84.8848 179.38 84.7598 179.745 84.7598 180.188ZM98.5723 178.5V180.547H100.15V181.664H98.5723V186.906C98.5723 187.245 98.6426 187.5 98.7832 187.672C98.9238 187.839 99.1634 187.922 99.502 187.922C99.6686 187.922 99.8978 187.891 100.189 187.828V189C99.8092 189.104 99.4395 189.156 99.0801 189.156C98.4342 189.156 97.9473 188.961 97.6191 188.57C97.291 188.18 97.127 187.625 97.127 186.906V181.664H95.5879V180.547H97.127V178.5H98.5723ZM105.932 181.844C105.713 181.807 105.476 181.789 105.221 181.789C104.273 181.789 103.63 182.193 103.291 183V189H101.846V180.547H103.252L103.275 181.523C103.749 180.768 104.421 180.391 105.291 180.391C105.572 180.391 105.786 180.427 105.932 180.5V181.844ZM110.619 189.156C109.473 189.156 108.541 188.781 107.822 188.031C107.104 187.276 106.744 186.268 106.744 185.008V184.742C106.744 183.904 106.903 183.156 107.221 182.5C107.544 181.839 107.992 181.323 108.564 180.953C109.143 180.578 109.768 180.391 110.439 180.391C111.538 180.391 112.393 180.753 113.002 181.477C113.611 182.201 113.916 183.237 113.916 184.586V185.188H108.189C108.21 186.021 108.452 186.695 108.916 187.211C109.385 187.721 109.979 187.977 110.697 187.977C111.208 187.977 111.64 187.872 111.994 187.664C112.348 187.456 112.658 187.18 112.924 186.836L113.807 187.523C113.098 188.612 112.036 189.156 110.619 189.156ZM110.439 181.578C109.856 181.578 109.367 181.792 108.971 182.219C108.575 182.641 108.33 183.234 108.236 184H112.471V183.891C112.429 183.156 112.231 182.589 111.877 182.188C111.523 181.781 111.044 181.578 110.439 181.578ZM119.104 189.156C117.958 189.156 117.025 188.781 116.307 188.031C115.588 187.276 115.229 186.268 115.229 185.008V184.742C115.229 183.904 115.387 183.156 115.705 182.5C116.028 181.839 116.476 181.323 117.049 180.953C117.627 180.578 118.252 180.391 118.924 180.391C120.023 180.391 120.877 180.753 121.486 181.477C122.096 182.201 122.4 183.237 122.4 184.586V185.188H116.674C116.695 186.021 116.937 186.695 117.4 187.211C117.869 187.721 118.463 187.977 119.182 187.977C119.692 187.977 120.124 187.872 120.479 187.664C120.833 187.456 121.143 187.18 121.408 186.836L122.291 187.523C121.583 188.612 120.52 189.156 119.104 189.156ZM118.924 181.578C118.34 181.578 117.851 181.792 117.455 182.219C117.059 182.641 116.814 183.234 116.721 184H120.955V183.891C120.913 183.156 120.715 182.589 120.361 182.188C120.007 181.781 119.528 181.578 118.924 181.578ZM129.002 186.758C129.002 186.367 128.854 186.065 128.557 185.852C128.265 185.633 127.752 185.445 127.018 185.289C126.288 185.133 125.708 184.945 125.275 184.727C124.848 184.508 124.531 184.247 124.322 183.945C124.119 183.643 124.018 183.284 124.018 182.867C124.018 182.174 124.309 181.589 124.893 181.109C125.481 180.63 126.231 180.391 127.143 180.391C128.101 180.391 128.877 180.638 129.471 181.133C130.07 181.628 130.369 182.26 130.369 183.031H128.916C128.916 182.635 128.747 182.294 128.408 182.008C128.075 181.721 127.653 181.578 127.143 181.578C126.617 181.578 126.205 181.693 125.908 181.922C125.611 182.151 125.463 182.451 125.463 182.82C125.463 183.169 125.601 183.432 125.877 183.609C126.153 183.786 126.65 183.956 127.369 184.117C128.093 184.279 128.679 184.471 129.127 184.695C129.575 184.919 129.906 185.19 130.119 185.508C130.338 185.82 130.447 186.203 130.447 186.656C130.447 187.411 130.145 188.018 129.541 188.477C128.937 188.93 128.153 189.156 127.189 189.156C126.512 189.156 125.913 189.036 125.393 188.797C124.872 188.557 124.463 188.224 124.166 187.797C123.874 187.365 123.729 186.898 123.729 186.398H125.174C125.2 186.883 125.393 187.268 125.752 187.555C126.117 187.836 126.596 187.977 127.189 187.977C127.736 187.977 128.174 187.867 128.502 187.648C128.835 187.424 129.002 187.128 129.002 186.758ZM138.26 178.5V180.547H139.838V181.664H138.26V186.906C138.26 187.245 138.33 187.5 138.471 187.672C138.611 187.839 138.851 187.922 139.189 187.922C139.356 187.922 139.585 187.891 139.877 187.828V189C139.497 189.104 139.127 189.156 138.768 189.156C138.122 189.156 137.635 188.961 137.307 188.57C136.979 188.18 136.814 187.625 136.814 186.906V181.664H135.275V180.547H136.814V178.5H138.26ZM142.979 181.57C143.619 180.784 144.452 180.391 145.479 180.391C147.265 180.391 148.166 181.398 148.182 183.414V189H146.736V183.406C146.731 182.797 146.59 182.346 146.314 182.055C146.044 181.763 145.619 181.617 145.041 181.617C144.572 181.617 144.161 181.742 143.807 181.992C143.452 182.242 143.176 182.57 142.979 182.977V189H141.533V177H142.979V181.57ZM154.432 181.844C154.213 181.807 153.976 181.789 153.721 181.789C152.773 181.789 152.13 182.193 151.791 183V189H150.346V180.547H151.752L151.775 181.523C152.249 180.768 152.921 180.391 153.791 180.391C154.072 180.391 154.286 180.427 154.432 180.5V181.844ZM155.229 184.695C155.229 183.867 155.39 183.122 155.713 182.461C156.041 181.799 156.494 181.289 157.072 180.93C157.656 180.57 158.32 180.391 159.064 180.391C160.215 180.391 161.145 180.789 161.854 181.586C162.567 182.383 162.924 183.443 162.924 184.766V184.867C162.924 185.69 162.765 186.43 162.447 187.086C162.135 187.737 161.684 188.245 161.096 188.609C160.512 188.974 159.84 189.156 159.08 189.156C157.934 189.156 157.005 188.758 156.291 187.961C155.583 187.164 155.229 186.109 155.229 184.797V184.695ZM156.682 184.867C156.682 185.805 156.898 186.557 157.33 187.125C157.768 187.693 158.351 187.977 159.08 187.977C159.814 187.977 160.398 187.69 160.83 187.117C161.262 186.539 161.479 185.732 161.479 184.695C161.479 183.768 161.257 183.018 160.814 182.445C160.377 181.867 159.794 181.578 159.064 181.578C158.351 181.578 157.775 181.862 157.338 182.43C156.9 182.997 156.682 183.81 156.682 184.867ZM169.955 188.164C169.393 188.826 168.567 189.156 167.479 189.156C166.577 189.156 165.89 188.896 165.416 188.375C164.947 187.849 164.71 187.073 164.705 186.047V180.547H166.15V186.008C166.15 187.289 166.671 187.93 167.713 187.93C168.817 187.93 169.551 187.518 169.916 186.695V180.547H171.361V189H169.986L169.955 188.164ZM173.221 184.703C173.221 183.385 173.525 182.339 174.135 181.562C174.744 180.781 175.551 180.391 176.557 180.391C177.588 180.391 178.393 180.755 178.971 181.484L179.041 180.547H180.361V188.797C180.361 189.891 180.036 190.753 179.385 191.383C178.739 192.013 177.869 192.328 176.775 192.328C176.166 192.328 175.57 192.198 174.986 191.938C174.403 191.677 173.958 191.32 173.65 190.867L174.4 190C175.02 190.766 175.778 191.148 176.674 191.148C177.377 191.148 177.924 190.951 178.314 190.555C178.71 190.159 178.908 189.602 178.908 188.883V188.156C178.33 188.823 177.541 189.156 176.541 189.156C175.551 189.156 174.749 188.758 174.135 187.961C173.525 187.164 173.221 186.078 173.221 184.703ZM174.674 184.867C174.674 185.82 174.869 186.57 175.26 187.117C175.65 187.659 176.197 187.93 176.9 187.93C177.812 187.93 178.481 187.516 178.908 186.688V182.828C178.465 182.021 177.801 181.617 176.916 181.617C176.213 181.617 175.663 181.891 175.268 182.438C174.872 182.984 174.674 183.794 174.674 184.867ZM183.994 181.57C184.635 180.784 185.468 180.391 186.494 180.391C188.281 180.391 189.182 181.398 189.197 183.414V189H187.752V183.406C187.747 182.797 187.606 182.346 187.33 182.055C187.059 181.763 186.635 181.617 186.057 181.617C185.588 181.617 185.176 181.742 184.822 181.992C184.468 182.242 184.192 182.57 183.994 182.977V189H182.549V177H183.994V181.57ZM63.7754 203.867C63.7754 205.154 63.4811 206.19 62.8926 206.977C62.304 207.763 61.5072 208.156 60.502 208.156C59.4759 208.156 58.6686 207.831 58.0801 207.18V211.25H56.6348V199.547H57.9551L58.0254 200.484C58.6139 199.755 59.4316 199.391 60.4785 199.391C61.4941 199.391 62.2962 199.773 62.8848 200.539C63.4785 201.305 63.7754 202.37 63.7754 203.734V203.867ZM62.3301 203.703C62.3301 202.75 62.127 201.997 61.7207 201.445C61.3145 200.893 60.7572 200.617 60.0488 200.617C59.1738 200.617 58.5176 201.005 58.0801 201.781V205.82C58.5124 206.591 59.1738 206.977 60.0645 206.977C60.7572 206.977 61.3066 206.703 61.7129 206.156C62.1243 205.604 62.3301 204.786 62.3301 203.703ZM67.0645 200.57C67.7051 199.784 68.5384 199.391 69.5645 199.391C71.3509 199.391 72.252 200.398 72.2676 202.414V208H70.8223V202.406C70.8171 201.797 70.6764 201.346 70.4004 201.055C70.1296 200.763 69.7051 200.617 69.127 200.617C68.6582 200.617 68.2467 200.742 67.8926 200.992C67.5384 201.242 67.2624 201.57 67.0645 201.977V208H65.6191V196H67.0645V200.57ZM74.0488 203.695C74.0488 202.867 74.2103 202.122 74.5332 201.461C74.8613 200.799 75.3145 200.289 75.8926 199.93C76.4759 199.57 77.14 199.391 77.8848 199.391C79.0358 199.391 79.9655 199.789 80.6738 200.586C81.3874 201.383 81.7441 202.443 81.7441 203.766V203.867C81.7441 204.69 81.5853 205.43 81.2676 206.086C80.9551 206.737 80.5046 207.245 79.916 207.609C79.3327 207.974 78.6608 208.156 77.9004 208.156C76.7546 208.156 75.8249 207.758 75.1113 206.961C74.403 206.164 74.0488 205.109 74.0488 203.797V203.695ZM75.502 203.867C75.502 204.805 75.7181 205.557 76.1504 206.125C76.5879 206.693 77.1712 206.977 77.9004 206.977C78.6348 206.977 79.2181 206.69 79.6504 206.117C80.0827 205.539 80.2988 204.732 80.2988 203.695C80.2988 202.768 80.0775 202.018 79.6348 201.445C79.1973 200.867 78.6139 200.578 77.8848 200.578C77.1712 200.578 76.5957 200.862 76.1582 201.43C75.7207 201.997 75.502 202.81 75.502 203.867ZM85.5176 197.5V199.547H87.0957V200.664H85.5176V205.906C85.5176 206.245 85.5879 206.5 85.7285 206.672C85.8691 206.839 86.1087 206.922 86.4473 206.922C86.6139 206.922 86.8431 206.891 87.1348 206.828V208C86.7546 208.104 86.3848 208.156 86.0254 208.156C85.3796 208.156 84.8926 207.961 84.5645 207.57C84.2363 207.18 84.0723 206.625 84.0723 205.906V200.664H82.5332V199.547H84.0723V197.5H85.5176ZM88.252 203.695C88.252 202.867 88.4134 202.122 88.7363 201.461C89.0645 200.799 89.5176 200.289 90.0957 199.93C90.679 199.57 91.3431 199.391 92.0879 199.391C93.2389 199.391 94.1686 199.789 94.877 200.586C95.5905 201.383 95.9473 202.443 95.9473 203.766V203.867C95.9473 204.69 95.7884 205.43 95.4707 206.086C95.1582 206.737 94.7077 207.245 94.1191 207.609C93.5358 207.974 92.8639 208.156 92.1035 208.156C90.9577 208.156 90.028 207.758 89.3145 206.961C88.6061 206.164 88.252 205.109 88.252 203.797V203.695ZM89.7051 203.867C89.7051 204.805 89.9212 205.557 90.3535 206.125C90.791 206.693 91.3743 206.977 92.1035 206.977C92.8379 206.977 93.4212 206.69 93.8535 206.117C94.2858 205.539 94.502 204.732 94.502 203.695C94.502 202.768 94.2806 202.018 93.8379 201.445C93.4004 200.867 92.8171 200.578 92.0879 200.578C91.3743 200.578 90.7988 200.862 90.3613 201.43C89.9238 201.997 89.7051 202.81 89.7051 203.867ZM102.682 205.758C102.682 205.367 102.533 205.065 102.236 204.852C101.945 204.633 101.432 204.445 100.697 204.289C99.9681 204.133 99.3874 203.945 98.9551 203.727C98.528 203.508 98.2103 203.247 98.002 202.945C97.7988 202.643 97.6973 202.284 97.6973 201.867C97.6973 201.174 97.9889 200.589 98.5723 200.109C99.1608 199.63 99.9108 199.391 100.822 199.391C101.781 199.391 102.557 199.638 103.15 200.133C103.749 200.628 104.049 201.26 104.049 202.031H102.596C102.596 201.635 102.426 201.294 102.088 201.008C101.755 200.721 101.333 200.578 100.822 200.578C100.296 200.578 99.8848 200.693 99.5879 200.922C99.291 201.151 99.1426 201.451 99.1426 201.82C99.1426 202.169 99.2806 202.432 99.5566 202.609C99.8327 202.786 100.33 202.956 101.049 203.117C101.773 203.279 102.359 203.471 102.807 203.695C103.255 203.919 103.585 204.19 103.799 204.508C104.018 204.82 104.127 205.203 104.127 205.656C104.127 206.411 103.825 207.018 103.221 207.477C102.617 207.93 101.833 208.156 100.869 208.156C100.192 208.156 99.5931 208.036 99.0723 207.797C98.5514 207.557 98.1426 207.224 97.8457 206.797C97.554 206.365 97.4082 205.898 97.4082 205.398H98.8535C98.8796 205.883 99.0723 206.268 99.4316 206.555C99.7962 206.836 100.275 206.977 100.869 206.977C101.416 206.977 101.854 206.867 102.182 206.648C102.515 206.424 102.682 206.128 102.682 205.758ZM108.775 205.883L110.744 199.547H112.291L108.893 209.305C108.367 210.711 107.531 211.414 106.385 211.414L106.111 211.391L105.572 211.289V210.117L105.963 210.148C106.452 210.148 106.833 210.049 107.104 209.852C107.38 209.654 107.606 209.292 107.783 208.766L108.104 207.906L105.088 199.547H106.666L108.775 205.883ZM114.955 199.547L115.002 200.609C115.648 199.797 116.492 199.391 117.533 199.391C119.32 199.391 120.221 200.398 120.236 202.414V208H118.791V202.406C118.786 201.797 118.645 201.346 118.369 201.055C118.098 200.763 117.674 200.617 117.096 200.617C116.627 200.617 116.215 200.742 115.861 200.992C115.507 201.242 115.231 201.57 115.033 201.977V208H113.588V199.547H114.955ZM124.377 197.5V199.547H125.955V200.664H124.377V205.906C124.377 206.245 124.447 206.5 124.588 206.672C124.729 206.839 124.968 206.922 125.307 206.922C125.473 206.922 125.702 206.891 125.994 206.828V208C125.614 208.104 125.244 208.156 124.885 208.156C124.239 208.156 123.752 207.961 123.424 207.57C123.096 207.18 122.932 206.625 122.932 205.906V200.664H121.393V199.547H122.932V197.5H124.377ZM129.096 200.57C129.736 199.784 130.57 199.391 131.596 199.391C133.382 199.391 134.283 200.398 134.299 202.414V208H132.854V202.406C132.848 201.797 132.708 201.346 132.432 201.055C132.161 200.763 131.736 200.617 131.158 200.617C130.689 200.617 130.278 200.742 129.924 200.992C129.57 201.242 129.294 201.57 129.096 201.977V208H127.65V196H129.096V200.57ZM139.971 208.156C138.825 208.156 137.893 207.781 137.174 207.031C136.455 206.276 136.096 205.268 136.096 204.008V203.742C136.096 202.904 136.255 202.156 136.572 201.5C136.895 200.839 137.343 200.323 137.916 199.953C138.494 199.578 139.119 199.391 139.791 199.391C140.89 199.391 141.744 199.753 142.354 200.477C142.963 201.201 143.268 202.237 143.268 203.586V204.188H137.541C137.562 205.021 137.804 205.695 138.268 206.211C138.736 206.721 139.33 206.977 140.049 206.977C140.559 206.977 140.992 206.872 141.346 206.664C141.7 206.456 142.01 206.18 142.275 205.836L143.158 206.523C142.45 207.612 141.387 208.156 139.971 208.156ZM139.791 200.578C139.208 200.578 138.718 200.792 138.322 201.219C137.926 201.641 137.682 202.234 137.588 203H141.822V202.891C141.781 202.156 141.583 201.589 141.229 201.188C140.874 200.781 140.395 200.578 139.791 200.578ZM149.869 205.758C149.869 205.367 149.721 205.065 149.424 204.852C149.132 204.633 148.619 204.445 147.885 204.289C147.156 204.133 146.575 203.945 146.143 203.727C145.715 203.508 145.398 203.247 145.189 202.945C144.986 202.643 144.885 202.284 144.885 201.867C144.885 201.174 145.176 200.589 145.76 200.109C146.348 199.63 147.098 199.391 148.01 199.391C148.968 199.391 149.744 199.638 150.338 200.133C150.937 200.628 151.236 201.26 151.236 202.031H149.783C149.783 201.635 149.614 201.294 149.275 201.008C148.942 200.721 148.52 200.578 148.01 200.578C147.484 200.578 147.072 200.693 146.775 200.922C146.479 201.151 146.33 201.451 146.33 201.82C146.33 202.169 146.468 202.432 146.744 202.609C147.02 202.786 147.518 202.956 148.236 203.117C148.96 203.279 149.546 203.471 149.994 203.695C150.442 203.919 150.773 204.19 150.986 204.508C151.205 204.82 151.314 205.203 151.314 205.656C151.314 206.411 151.012 207.018 150.408 207.477C149.804 207.93 149.02 208.156 148.057 208.156C147.38 208.156 146.781 208.036 146.26 207.797C145.739 207.557 145.33 207.224 145.033 206.797C144.742 206.365 144.596 205.898 144.596 205.398H146.041C146.067 205.883 146.26 206.268 146.619 206.555C146.984 206.836 147.463 206.977 148.057 206.977C148.604 206.977 149.041 206.867 149.369 206.648C149.702 206.424 149.869 206.128 149.869 205.758ZM154.768 208H153.322V199.547H154.768V208ZM153.205 197.305C153.205 197.07 153.275 196.872 153.416 196.711C153.562 196.549 153.775 196.469 154.057 196.469C154.338 196.469 154.551 196.549 154.697 196.711C154.843 196.872 154.916 197.07 154.916 197.305C154.916 197.539 154.843 197.734 154.697 197.891C154.551 198.047 154.338 198.125 154.057 198.125C153.775 198.125 153.562 198.047 153.416 197.891C153.275 197.734 153.205 197.539 153.205 197.305ZM162.01 205.758C162.01 205.367 161.861 205.065 161.564 204.852C161.273 204.633 160.76 204.445 160.025 204.289C159.296 204.133 158.715 203.945 158.283 203.727C157.856 203.508 157.538 203.247 157.33 202.945C157.127 202.643 157.025 202.284 157.025 201.867C157.025 201.174 157.317 200.589 157.9 200.109C158.489 199.63 159.239 199.391 160.15 199.391C161.109 199.391 161.885 199.638 162.479 200.133C163.077 200.628 163.377 201.26 163.377 202.031H161.924C161.924 201.635 161.755 201.294 161.416 201.008C161.083 200.721 160.661 200.578 160.15 200.578C159.624 200.578 159.213 200.693 158.916 200.922C158.619 201.151 158.471 201.451 158.471 201.82C158.471 202.169 158.609 202.432 158.885 202.609C159.161 202.786 159.658 202.956 160.377 203.117C161.101 203.279 161.687 203.471 162.135 203.695C162.583 203.919 162.913 204.19 163.127 204.508C163.346 204.82 163.455 205.203 163.455 205.656C163.455 206.411 163.153 207.018 162.549 207.477C161.945 207.93 161.161 208.156 160.197 208.156C159.52 208.156 158.921 208.036 158.4 207.797C157.88 207.557 157.471 207.224 157.174 206.797C156.882 206.365 156.736 205.898 156.736 205.398H158.182C158.208 205.883 158.4 206.268 158.76 206.555C159.124 206.836 159.604 206.977 160.197 206.977C160.744 206.977 161.182 206.867 161.51 206.648C161.843 206.424 162.01 206.128 162.01 205.758ZM165.369 207.242C165.369 206.992 165.442 206.784 165.588 206.617C165.739 206.451 165.963 206.367 166.26 206.367C166.557 206.367 166.781 206.451 166.932 206.617C167.088 206.784 167.166 206.992 167.166 207.242C167.166 207.482 167.088 207.682 166.932 207.844C166.781 208.005 166.557 208.086 166.26 208.086C165.963 208.086 165.739 208.005 165.588 207.844C165.442 207.682 165.369 207.482 165.369 207.242Z" fill="black"/>
</svg>
