<svg width="125" height="129" viewBox="0 0 125 129" fill="none" xmlns="http://www.w3.org/2000/svg">
<path d="M71.8003 32.5H28C26.067 32.5 24.5 34.067 24.5 36V75C24.5 76.933 26.067 78.5 28 78.5H29.557C30.4888 78.5 31.3822 78.1284 32.0392 77.4675L35.2551 74.2323C35.349 74.1379 35.4766 74.0848 35.6097 74.0848H47.1125C47.2456 74.0848 47.3733 74.1379 47.4671 74.2323L50.683 77.4675C51.34 78.1284 52.2334 78.5 53.1653 78.5H75.6403C76.5722 78.5 77.4656 78.1284 78.1225 77.4675L81.3384 74.2323C81.4323 74.1379 81.5599 74.0848 81.693 74.0848H93.1958C93.329 74.0848 93.4566 74.1379 93.5505 74.2323L96.7663 77.4675C97.4233 78.1284 98.3167 78.5 99.2486 78.5H103C104.933 78.5 106.5 76.933 106.5 75V62.1762C106.5 60.4355 105.221 58.9594 103.498 58.7118L83.3388 55.8147C83.1588 55.7888 83.007 55.6672 82.9424 55.4972L75.0727 34.7583C74.5568 33.3989 73.2543 32.5 71.8003 32.5Z" fill="white" stroke="#00C7A5" stroke-width="3"/>
<path d="M52 83C52 89.0751 47.0751 94 41 94C34.9249 94 30 89.0751 30 83" stroke="#00C7A5" stroke-width="3"/>
<path d="M99 83C99 89.0751 93.8513 94 87.5 94C81.1487 94 76 89.0751 76 83" stroke="#00C7A5" stroke-width="3"/>
<path d="M78.6757 44H59L59 56H83" stroke="#00C7A5" stroke-width="3"/>
<rect x="35" y="44" width="12" height="12" fill="white" stroke="#00C7A5" stroke-width="3"/>
<rect x="17.5" y="52.5" width="5" height="15" rx="2.5" stroke="#00C7A5" stroke-width="3"/>
</svg>
