<svg width="300" height="783" viewBox="0 0 300 783" fill="none" xmlns="http://www.w3.org/2000/svg">
<circle cx="77.4136" cy="62.9497" r="6.43119" fill="#00C7A5"/>
<circle cx="89.6329" cy="86.1021" r="6.43119" fill="#00C7A5"/>
<circle cx="96.064" cy="69.3809" r="6.43119" fill="#00C7A5"/>
<circle cx="83.8448" cy="149.127" r="6.43119" fill="#00C7A5"/>
<circle cx="108.926" cy="92.5332" r="6.43119" fill="#00C7A5"/>
<circle cx="118.573" cy="75.812" r="6.43119" fill="#00C7A5"/>
<circle cx="138.51" cy="86.1021" r="6.43119" fill="#00C7A5"/>
<circle cx="128.22" cy="105.396" r="6.43119" fill="#00C7A5"/>
<circle cx="102.495" cy="115.686" r="6.43119" fill="#00C7A5"/>
<circle cx="79.9859" cy="105.396" r="6.43119" fill="#00C7A5"/>
<circle cx="69.6958" cy="86.1021" r="6.43119" fill="#00C7A5"/>
<circle cx="51.6885" cy="73.2398" r="6.43119" fill="#00C7A5"/>
<circle cx="58.1197" cy="105.396" r="6.43119" fill="#00C7A5"/>
<circle cx="54.2613" cy="122.117" r="6.43119" fill="#00C7A5"/>
<circle cx="73.5547" cy="124.689" r="6.43119" fill="#00C7A5"/>
<circle cx="92.8482" cy="132.407" r="6.43119" fill="#00C7A5"/>
<circle cx="38.8262" cy="98.9644" r="6.43119" fill="#00C7A5"/>
<circle cx="60.6924" cy="145.269" r="6.43119" fill="#00C7A5"/>
<circle cx="112.142" cy="138.838" r="6.43119" fill="#00C7A5"/>
<circle cx="121.789" cy="124.689" r="6.43119" fill="#00C7A5"/>
<circle cx="67.1236" cy="167.135" r="6.43119" fill="#00C7A5"/>
<circle cx="143.012" cy="120.831" r="6.43119" fill="#00C7A5"/>
<circle cx="132.722" cy="140.124" r="6.43119" fill="#00C7A5"/>
<circle cx="102.495" cy="160.704" r="6.43119" fill="#00C7A5"/>
<circle cx="126.291" cy="159.418" r="6.43119" fill="#00C7A5"/>
<circle cx="187.387" cy="66.1656" r="6.43119" fill="#00C7A5"/>
<circle cx="199.606" cy="89.3179" r="6.43119" fill="#00C7A5"/>
<circle cx="206.038" cy="72.5967" r="6.43119" fill="#00C7A5"/>
<circle cx="193.818" cy="152.343" r="6.43119" fill="#00C7A5"/>
<circle cx="218.9" cy="95.7491" r="6.43119" fill="#00C7A5"/>
<circle cx="228.546" cy="79.0279" r="6.43119" fill="#00C7A5"/>
<circle cx="248.483" cy="89.3179" r="6.43119" fill="#00C7A5"/>
<circle cx="238.193" cy="108.611" r="6.43119" fill="#00C7A5"/>
<circle cx="212.469" cy="118.901" r="6.43119" fill="#00C7A5"/>
<circle cx="189.96" cy="108.611" r="6.43119" fill="#00C7A5"/>
<circle cx="179.669" cy="89.3179" r="6.43119" fill="#00C7A5"/>
<circle cx="161.662" cy="76.4556" r="6.43119" fill="#00C7A5"/>
<circle cx="168.093" cy="108.611" r="6.43119" fill="#00C7A5"/>
<circle cx="164.235" cy="125.333" r="6.43119" fill="#00C7A5"/>
<circle cx="183.528" cy="127.905" r="6.43119" fill="#00C7A5"/>
<circle cx="202.822" cy="135.623" r="6.43119" fill="#00C7A5"/>
<circle cx="148.8" cy="102.18" r="6.43119" fill="#00C7A5"/>
<circle cx="170.666" cy="148.485" r="6.43119" fill="#00C7A5"/>
<circle cx="222.115" cy="142.054" r="6.43119" fill="#00C7A5"/>
<circle cx="231.762" cy="127.905" r="6.43119" fill="#00C7A5"/>
<circle cx="177.097" cy="170.351" r="6.43119" fill="#00C7A5"/>
<circle cx="150.729" cy="167.135" r="6.43119" fill="#00C7A5"/>
<circle cx="152.659" cy="143.34" r="6.43119" fill="#00C7A5"/>
<circle cx="212.469" cy="163.919" r="6.43119" fill="#00C7A5"/>
<circle cx="236.264" cy="162.633" r="6.43119" fill="#00C7A5"/>
<circle cx="200.249" cy="180.641" r="6.43119" fill="#00C7A5"/>
<circle cx="212.468" cy="203.793" r="6.43119" fill="#00C7A5"/>
<circle cx="218.899" cy="187.072" r="6.43119" fill="#00C7A5"/>
<circle cx="206.68" cy="266.819" r="6.43119" fill="#00C7A5"/>
<circle cx="231.762" cy="210.224" r="6.43119" fill="#00C7A5"/>
<circle cx="241.409" cy="193.503" r="6.43119" fill="#00C7A5"/>
<circle cx="157.803" cy="184.5" r="6.43119" fill="#00C7A5"/>
<circle cx="251.056" cy="223.086" r="6.43119" fill="#00C7A5"/>
<circle cx="225.331" cy="233.377" r="6.43119" fill="#00C7A5"/>
<circle cx="202.822" cy="223.086" r="6.43119" fill="#00C7A5"/>
<circle cx="192.532" cy="203.793" r="6.43119" fill="#00C7A5"/>
<circle cx="174.524" cy="190.931" r="6.43119" fill="#00C7A5"/>
<circle cx="180.956" cy="223.086" r="6.43119" fill="#00C7A5"/>
<circle cx="177.097" cy="239.808" r="6.43119" fill="#00C7A5"/>
<circle cx="196.39" cy="242.38" r="6.43119" fill="#00C7A5"/>
<circle cx="215.684" cy="250.098" r="6.43119" fill="#00C7A5"/>
<circle cx="161.662" cy="216.655" r="6.43119" fill="#00C7A5"/>
<circle cx="183.528" cy="262.96" r="6.43119" fill="#00C7A5"/>
<circle cx="234.978" cy="256.529" r="6.43119" fill="#00C7A5"/>
<circle cx="244.625" cy="242.38" r="6.43119" fill="#00C7A5"/>
<circle cx="189.959" cy="284.826" r="6.43119" fill="#00C7A5"/>
<circle cx="163.591" cy="256.529" r="6.43119" fill="#00C7A5"/>
<circle cx="255.557" cy="257.815" r="6.43119" fill="#00C7A5"/>
<circle cx="225.331" cy="278.395" r="6.43119" fill="#00C7A5"/>
<circle cx="168.093" cy="278.395" r="6.43119" fill="#00C7A5"/>
<circle cx="215.684" cy="291.257" r="6.43119" fill="#00C7A5"/>
<circle cx="227.903" cy="314.409" r="6.43119" fill="#00C7A5"/>
<circle cx="234.335" cy="297.688" r="6.43119" fill="#00C7A5"/>
<circle cx="222.115" cy="377.435" r="6.43119" fill="#00C7A5"/>
<circle cx="247.197" cy="320.84" r="6.43119" fill="#00C7A5"/>
<circle cx="256.844" cy="304.119" r="6.43119" fill="#00C7A5"/>
<circle cx="179.669" cy="363.929" r="6.43119" fill="#00C7A5"/>
<circle cx="249.431" cy="280.431" r="6.43119" fill="#00C7A5"/>
<circle cx="240.766" cy="343.993" r="6.43119" fill="#00C7A5"/>
<circle cx="218.256" cy="333.703" r="6.43119" fill="#00C7A5"/>
<circle cx="207.966" cy="314.409" r="6.43119" fill="#00C7A5"/>
<circle cx="189.959" cy="301.547" r="6.43119" fill="#00C7A5"/>
<circle cx="196.39" cy="333.703" r="6.43119" fill="#00C7A5"/>
<circle cx="192.532" cy="350.424" r="6.43119" fill="#00C7A5"/>
<circle cx="211.825" cy="352.996" r="6.43119" fill="#00C7A5"/>
<circle cx="231.119" cy="360.714" r="6.43119" fill="#00C7A5"/>
<circle cx="177.097" cy="327.272" r="6.43119" fill="#00C7A5"/>
<circle cx="198.963" cy="373.576" r="6.43119" fill="#00C7A5"/>
<circle cx="250.413" cy="367.145" r="6.43119" fill="#00C7A5"/>
<circle cx="260.059" cy="352.996" r="6.43119" fill="#00C7A5"/>
<circle cx="205.394" cy="395.442" r="6.43119" fill="#00C7A5"/>
<circle cx="170.023" cy="297.688" r="6.43119" fill="#00C7A5"/>
<circle cx="177.097" cy="387.725" r="6.43119" fill="#00C7A5"/>
<circle cx="240.766" cy="389.011" r="6.43119" fill="#00C7A5"/>
<circle cx="239.431" cy="410.431" r="6.43119" fill="#00C7A5"/>
<circle cx="61.3355" cy="408.305" r="6.43119" fill="#00C7A5"/>
<circle cx="73.5547" cy="431.457" r="6.43119" fill="#00C7A5"/>
<circle cx="79.9859" cy="414.736" r="6.43119" fill="#00C7A5"/>
<circle cx="67.7666" cy="494.483" r="6.43119" fill="#00C7A5"/>
<circle cx="92.8487" cy="437.888" r="6.43119" fill="#00C7A5"/>
<circle cx="102.495" cy="421.167" r="6.43119" fill="#00C7A5"/>
<circle cx="122.432" cy="431.457" r="6.43119" fill="#00C7A5"/>
<circle cx="112.142" cy="450.751" r="6.43119" fill="#00C7A5"/>
<circle cx="86.417" cy="461.041" r="6.43119" fill="#00C7A5"/>
<circle cx="63.9082" cy="450.751" r="6.43119" fill="#00C7A5"/>
<circle cx="53.6182" cy="431.457" r="6.43119" fill="#00C7A5"/>
<circle cx="132.749" cy="412.95" r="6.43119" fill="#00C7A5"/>
<circle cx="42.042" cy="450.751" r="6.43119" fill="#00C7A5"/>
<circle cx="107.749" cy="401.95" r="6.43119" fill="#00C7A5"/>
<circle cx="57.4771" cy="470.044" r="6.43119" fill="#00C7A5"/>
<circle cx="76.7705" cy="477.762" r="6.43119" fill="#00C7A5"/>
<circle cx="126.749" cy="521.95" r="6.43119" fill="#00C7A5"/>
<circle cx="44.6143" cy="490.624" r="6.43119" fill="#00C7A5"/>
<circle cx="96.064" cy="484.193" r="6.43119" fill="#00C7A5"/>
<circle cx="114.749" cy="481.95" r="6.43119" fill="#00C7A5"/>
<circle cx="51.0459" cy="512.49" r="6.43119" fill="#00C7A5"/>
<circle cx="126.934" cy="466.186" r="6.43119" fill="#00C7A5"/>
<circle cx="138.749" cy="488.95" r="6.43119" fill="#00C7A5"/>
<circle cx="86.417" cy="506.059" r="6.43119" fill="#00C7A5"/>
<circle cx="110.212" cy="504.772" r="6.43119" fill="#00C7A5"/>
<circle cx="177.74" cy="408.948" r="6.43119" fill="#00C7A5"/>
<circle cx="189.96" cy="432.1" r="6.43119" fill="#00C7A5"/>
<circle cx="196.391" cy="415.379" r="6.43119" fill="#00C7A5"/>
<circle cx="184.171" cy="495.126" r="6.43119" fill="#00C7A5"/>
<circle cx="209.253" cy="438.531" r="6.43119" fill="#00C7A5"/>
<circle cx="218.899" cy="421.81" r="6.43119" fill="#00C7A5"/>
<circle cx="238.836" cy="432.1" r="6.43119" fill="#00C7A5"/>
<circle cx="228.546" cy="451.394" r="6.43119" fill="#00C7A5"/>
<circle cx="202.822" cy="461.684" r="6.43119" fill="#00C7A5"/>
<circle cx="180.313" cy="451.394" r="6.43119" fill="#00C7A5"/>
<circle cx="170.023" cy="432.1" r="6.43119" fill="#00C7A5"/>
<circle cx="152.015" cy="419.238" r="6.43119" fill="#00C7A5"/>
<circle cx="158.446" cy="451.394" r="6.43119" fill="#00C7A5"/>
<circle cx="154.588" cy="468.115" r="6.43119" fill="#00C7A5"/>
<circle cx="173.881" cy="470.687" r="6.43119" fill="#00C7A5"/>
<circle cx="193.175" cy="478.405" r="6.43119" fill="#00C7A5"/>
<circle cx="139.153" cy="444.962" r="6.43119" fill="#00C7A5"/>
<circle cx="161.019" cy="491.267" r="6.43119" fill="#00C7A5"/>
<circle cx="212.468" cy="484.836" r="6.43119" fill="#00C7A5"/>
<circle cx="222.115" cy="470.687" r="6.43119" fill="#00C7A5"/>
<circle cx="167.45" cy="513.133" r="6.43119" fill="#00C7A5"/>
<circle cx="243.338" cy="466.829" r="6.43119" fill="#00C7A5"/>
<circle cx="233.048" cy="486.122" r="6.43119" fill="#00C7A5"/>
<circle cx="202.822" cy="506.702" r="6.43119" fill="#00C7A5"/>
<circle cx="226.617" cy="505.416" r="6.43119" fill="#00C7A5"/>
<circle cx="87.0601" cy="176.782" r="6.43119" fill="#00C7A5"/>
<circle cx="99.2793" cy="199.934" r="6.43119" fill="#00C7A5"/>
<circle cx="105.71" cy="183.213" r="6.43119" fill="#00C7A5"/>
<circle cx="93.4912" cy="262.96" r="6.43119" fill="#00C7A5"/>
<circle cx="118.573" cy="206.365" r="6.43119" fill="#00C7A5"/>
<circle cx="128.219" cy="189.644" r="6.43119" fill="#00C7A5"/>
<circle cx="148.156" cy="199.934" r="6.43119" fill="#00C7A5"/>
<circle cx="137.866" cy="219.228" r="6.43119" fill="#00C7A5"/>
<circle cx="112.142" cy="229.518" r="6.43119" fill="#00C7A5"/>
<circle cx="89.6324" cy="219.228" r="6.43119" fill="#00C7A5"/>
<circle cx="79.3423" cy="199.934" r="6.43119" fill="#00C7A5"/>
<circle cx="61.335" cy="187.072" r="6.43119" fill="#00C7A5"/>
<circle cx="67.7662" cy="219.228" r="6.43119" fill="#00C7A5"/>
<circle cx="63.9078" cy="235.949" r="6.43119" fill="#00C7A5"/>
<circle cx="83.2012" cy="238.521" r="6.43119" fill="#00C7A5"/>
<circle cx="102.495" cy="246.239" r="6.43119" fill="#00C7A5"/>
<circle cx="48.4727" cy="212.796" r="6.43119" fill="#00C7A5"/>
<circle cx="70.3389" cy="259.101" r="6.43119" fill="#00C7A5"/>
<circle cx="121.788" cy="252.67" r="6.43119" fill="#00C7A5"/>
<circle cx="131.435" cy="238.521" r="6.43119" fill="#00C7A5"/>
<circle cx="76.7701" cy="280.967" r="6.43119" fill="#00C7A5"/>
<circle cx="152.658" cy="234.663" r="6.43119" fill="#00C7A5"/>
<circle cx="142.368" cy="253.956" r="6.43119" fill="#00C7A5"/>
<circle cx="112.142" cy="274.536" r="6.43119" fill="#00C7A5"/>
<circle cx="135.937" cy="273.25" r="6.43119" fill="#00C7A5"/>
<circle cx="189.316" cy="531.784" r="6.43119" fill="#00C7A5"/>
<circle cx="201.535" cy="554.936" r="6.43119" fill="#00C7A5"/>
<circle cx="207.966" cy="538.215" r="6.43119" fill="#00C7A5"/>
<circle cx="195.747" cy="617.961" r="6.43119" fill="#00C7A5"/>
<circle cx="220.829" cy="561.367" r="6.43119" fill="#00C7A5"/>
<circle cx="230.476" cy="544.646" r="6.43119" fill="#00C7A5"/>
<circle cx="146.87" cy="535.643" r="6.43119" fill="#00C7A5"/>
<circle cx="218.748" cy="524.95" r="6.43119" fill="#00C7A5"/>
<circle cx="214.398" cy="584.52" r="6.43119" fill="#00C7A5"/>
<circle cx="191.888" cy="574.23" r="6.43119" fill="#00C7A5"/>
<circle cx="181.599" cy="554.936" r="6.43119" fill="#00C7A5"/>
<circle cx="163.591" cy="542.074" r="6.43119" fill="#00C7A5"/>
<circle cx="170.023" cy="574.23" r="6.43119" fill="#00C7A5"/>
<circle cx="166.164" cy="590.951" r="6.43119" fill="#00C7A5"/>
<circle cx="185.457" cy="593.523" r="6.43119" fill="#00C7A5"/>
<circle cx="204.751" cy="601.241" r="6.43119" fill="#00C7A5"/>
<circle cx="150.729" cy="567.798" r="6.43119" fill="#00C7A5"/>
<circle cx="172.595" cy="614.103" r="6.43119" fill="#00C7A5"/>
<circle cx="224.044" cy="607.672" r="6.43119" fill="#00C7A5"/>
<circle cx="233.691" cy="593.523" r="6.43119" fill="#00C7A5"/>
<circle cx="179.026" cy="635.969" r="6.43119" fill="#00C7A5"/>
<circle cx="152.658" cy="607.672" r="6.43119" fill="#00C7A5"/>
<circle cx="146.748" cy="507.95" r="6.43119" fill="#00C7A5"/>
<circle cx="194.748" cy="665.95" r="6.43119" fill="#00C7A5"/>
<circle cx="157.16" cy="629.538" r="6.43119" fill="#00C7A5"/>
<circle cx="136.581" cy="646.902" r="6.43119" fill="#00C7A5"/>
<circle cx="148.8" cy="670.054" r="6.43119" fill="#00C7A5"/>
<circle cx="155.231" cy="653.333" r="6.43119" fill="#00C7A5"/>
<circle cx="143.012" cy="733.08" r="6.43119" fill="#00C7A5"/>
<circle cx="168.093" cy="676.485" r="6.43119" fill="#00C7A5"/>
<circle cx="177.74" cy="659.764" r="6.43119" fill="#00C7A5"/>
<circle cx="100.566" cy="719.574" r="6.43119" fill="#00C7A5"/>
<circle cx="187.387" cy="689.348" r="6.43119" fill="#00C7A5"/>
<circle cx="161.662" cy="699.638" r="6.43119" fill="#00C7A5"/>
<circle cx="139.153" cy="689.348" r="6.43119" fill="#00C7A5"/>
<circle cx="128.863" cy="670.054" r="6.43119" fill="#00C7A5"/>
<circle cx="110.856" cy="657.192" r="6.43119" fill="#00C7A5"/>
<circle cx="117.287" cy="689.348" r="6.43119" fill="#00C7A5"/>
<circle cx="113.428" cy="706.069" r="6.43119" fill="#00C7A5"/>
<circle cx="132.722" cy="708.641" r="6.43119" fill="#00C7A5"/>
<circle cx="152.015" cy="716.359" r="6.43119" fill="#00C7A5"/>
<circle cx="97.9932" cy="682.917" r="6.43119" fill="#00C7A5"/>
<circle cx="119.859" cy="729.221" r="6.43119" fill="#00C7A5"/>
<circle cx="171.309" cy="722.79" r="6.43119" fill="#00C7A5"/>
<circle cx="180.956" cy="708.641" r="6.43119" fill="#00C7A5"/>
<circle cx="126.291" cy="751.087" r="6.43119" fill="#00C7A5"/>
<circle cx="90.919" cy="653.333" r="6.43119" fill="#00C7A5"/>
<circle cx="97.9932" cy="743.37" r="6.43119" fill="#00C7A5"/>
<circle cx="76.127" cy="527.924" r="6.43119" fill="#00C7A5"/>
<circle cx="88.3467" cy="551.077" r="6.43119" fill="#00C7A5"/>
<circle cx="94.7779" cy="534.356" r="6.43119" fill="#00C7A5"/>
<circle cx="82.5586" cy="614.103" r="6.43119" fill="#00C7A5"/>
<circle cx="107.64" cy="557.508" r="6.43119" fill="#00C7A5"/>
<circle cx="117.287" cy="540.787" r="6.43119" fill="#00C7A5"/>
<circle cx="137.224" cy="551.077" r="6.43119" fill="#00C7A5"/>
<circle cx="126.934" cy="570.37" r="6.43119" fill="#00C7A5"/>
<circle cx="101.209" cy="580.66" r="6.43119" fill="#00C7A5"/>
<circle cx="78.6997" cy="570.37" r="6.43119" fill="#00C7A5"/>
<circle cx="68.4097" cy="551.077" r="6.43119" fill="#00C7A5"/>
<circle cx="50.4024" cy="538.214" r="6.43119" fill="#00C7A5"/>
<circle cx="56.8335" cy="570.37" r="6.43119" fill="#00C7A5"/>
<circle cx="52.9751" cy="587.091" r="6.43119" fill="#00C7A5"/>
<circle cx="72.2686" cy="589.664" r="6.43119" fill="#00C7A5"/>
<circle cx="91.562" cy="597.381" r="6.43119" fill="#00C7A5"/>
<circle cx="37.5401" cy="563.939" r="6.43119" fill="#00C7A5"/>
<circle cx="59.4063" cy="610.244" r="6.43119" fill="#00C7A5"/>
<circle cx="110.856" cy="603.813" r="6.43119" fill="#00C7A5"/>
<circle cx="120.502" cy="589.664" r="6.43119" fill="#00C7A5"/>
<circle cx="65.8374" cy="632.11" r="6.43119" fill="#00C7A5"/>
<circle cx="141.726" cy="585.805" r="6.43119" fill="#00C7A5"/>
<circle cx="131.436" cy="605.099" r="6.43119" fill="#00C7A5"/>
<circle cx="101.209" cy="625.678" r="6.43119" fill="#00C7A5"/>
<circle cx="125.004" cy="624.392" r="6.43119" fill="#00C7A5"/>
<circle cx="97.9932" cy="289.328" r="6.43119" fill="#00C7A5"/>
<circle cx="110.213" cy="312.48" r="6.43119" fill="#00C7A5"/>
<circle cx="116.644" cy="295.759" r="6.43119" fill="#00C7A5"/>
<circle cx="104.425" cy="375.505" r="6.43119" fill="#00C7A5"/>
<circle cx="129.506" cy="318.911" r="6.43119" fill="#00C7A5"/>
<circle cx="139.153" cy="302.19" r="6.43119" fill="#00C7A5"/>
<circle cx="159.09" cy="312.48" r="6.43119" fill="#00C7A5"/>
<circle cx="148.8" cy="331.773" r="6.43119" fill="#00C7A5"/>
<circle cx="123.075" cy="342.064" r="6.43119" fill="#00C7A5"/>
<circle cx="100.566" cy="331.773" r="6.43119" fill="#00C7A5"/>
<circle cx="90.2759" cy="312.48" r="6.43119" fill="#00C7A5"/>
<circle cx="72.2686" cy="299.618" r="6.43119" fill="#00C7A5"/>
<circle cx="78.6997" cy="331.773" r="6.43119" fill="#00C7A5"/>
<circle cx="74.8413" cy="348.495" r="6.43119" fill="#00C7A5"/>
<circle cx="94.1348" cy="351.067" r="6.43119" fill="#00C7A5"/>
<circle cx="113.428" cy="358.785" r="6.43119" fill="#00C7A5"/>
<circle cx="59.4063" cy="325.342" r="6.43119" fill="#00C7A5"/>
<circle cx="81.2725" cy="371.647" r="6.43119" fill="#00C7A5"/>
<circle cx="132.722" cy="365.216" r="6.43119" fill="#00C7A5"/>
<circle cx="142.369" cy="351.067" r="6.43119" fill="#00C7A5"/>
<circle cx="87.7037" cy="393.513" r="6.43119" fill="#00C7A5"/>
<circle cx="163.592" cy="347.209" r="6.43119" fill="#00C7A5"/>
<circle cx="153.302" cy="366.502" r="6.43119" fill="#00C7A5"/>
<circle cx="123.075" cy="387.082" r="6.43119" fill="#00C7A5"/>
<circle cx="146.871" cy="385.795" r="6.43119" fill="#00C7A5"/>
<path d="M130.109 69.5186C101.954 64.5088 106.634 55.7719 86.6089 55.0187C74.5143 54.5638 50.5601 62.4811 43.1089 72.0186C18.1089 104.019 68.8714 125.336 50.1092 213.519C45.1092 237.019 46.6092 297.019 54.6092 327.019C62.6092 357.019 63.865 382.519 40.109 444.519C9.3356 524.833 40.7459 673.965 94.609 741.019C119.109 771.519 165.676 721.206 195.853 694.519C292.885 608.708 209.409 499.776 251.853 384.019C279.353 309.019 232.609 173.019 249.109 109.019C265.609 45.0184 170.672 76.7365 130.109 69.5186Z" fill="#1090F9" fill-opacity="0.15"/>
</svg>
