<svg width="287" height="300" viewBox="0 0 287 300" fill="none" xmlns="http://www.w3.org/2000/svg">
<circle cx="191.486" cy="187.486" r="7.48585" fill="#00C7A5" fill-opacity="0.25"/>
<circle cx="159.486" cy="187.486" r="7.48585" fill="#00C7A5" fill-opacity="0.25"/>
<circle cx="55.4859" cy="112.486" r="7.48585" fill="#00C7A5" fill-opacity="0.25"/>
<circle cx="79.4859" cy="187.486" r="7.48585" fill="#00C7A5" fill-opacity="0.25"/>
<circle cx="55.4859" cy="172.486" r="7.48585" fill="#00C7A5" fill-opacity="0.25"/>
<circle cx="119.486" cy="262.486" r="7.48585" fill="#00C7A5" fill-opacity="0.25"/>
<circle cx="207.486" cy="277.486" r="7.48585" fill="#00C7A5" fill-opacity="0.25"/>
<circle cx="223.486" cy="217.486" r="7.48585" fill="#00C7A5" fill-opacity="0.25"/>
<circle cx="263.486" cy="81.4859" r="7.48585" fill="#00C7A5" fill-opacity="0.25"/>
<circle cx="79.4859" cy="127.486" r="7.48585" fill="#00C7A5" fill-opacity="0.25"/>
<circle cx="231.486" cy="52.4859" r="7.48585" fill="#00C7A5" fill-opacity="0.25"/>
<circle cx="63.4859" cy="67.4859" r="7.48585" fill="#00C7A5" fill-opacity="0.25"/>
<circle cx="135.486" cy="202.486" r="7.48585" fill="#00C7A5" fill-opacity="0.25"/>
<circle cx="55.4859" cy="52.4859" r="7.48585" fill="#00C7A5" fill-opacity="0.25"/>
<circle cx="239.486" cy="187.486" r="7.48585" fill="#00C7A5" fill-opacity="0.25"/>
<circle cx="31.4859" cy="186.486" r="7.48585" fill="#00C7A5" fill-opacity="0.25"/>
<circle cx="239.486" cy="247.486" r="7.48585" fill="#00C7A5" fill-opacity="0.25"/>
<circle cx="263.486" cy="262.486" r="7.48585" fill="#00C7A5" fill-opacity="0.25"/>
<circle cx="271.486" cy="157.486" r="7.48585" fill="#00C7A5" fill-opacity="0.25"/>
<circle cx="151.486" cy="292.486" r="7.48585" fill="#00C7A5" fill-opacity="0.25"/>
<circle cx="183.486" cy="292.486" r="7.48585" fill="#00C7A5" fill-opacity="0.25"/>
<circle cx="63.4859" cy="127.486" r="7.48585" fill="#00C7A5" fill-opacity="0.25"/>
<circle cx="167.486" cy="202.486" r="7.48585" fill="#00C7A5" fill-opacity="0.25"/>
<circle cx="223.486" cy="187.486" r="7.48585" fill="#00C7A5" fill-opacity="0.25"/>
<circle cx="255.486" cy="157.486" r="7.48585" fill="#00C7A5" fill-opacity="0.25"/>
<circle cx="103.486" cy="262.486" r="7.48585" fill="#00C7A5" fill-opacity="0.25"/>
<circle cx="119.486" cy="202.486" r="7.48585" fill="#00C7A5" fill-opacity="0.25"/>
<circle cx="255.486" cy="187.486" r="7.48585" fill="#00C7A5" fill-opacity="0.25"/>
<circle cx="199.486" cy="262.486" r="7.48585" fill="#00C7A5" fill-opacity="0.25"/>
<circle cx="71.4859" cy="142.486" r="7.48585" fill="#00C7A5" fill-opacity="0.25"/>
<circle cx="183.486" cy="202.486" r="7.48585" fill="#00C7A5" fill-opacity="0.25"/>
<circle cx="47.4859" cy="157.486" r="7.48585" fill="#00C7A5" fill-opacity="0.25"/>
<circle cx="255.486" cy="67.4859" r="7.48585" fill="#00C7A5" fill-opacity="0.25"/>
<circle cx="55.4859" cy="202.486" r="7.48585" fill="#00C7A5" fill-opacity="0.25"/>
<circle cx="135.486" cy="292.486" r="7.48585" fill="#00C7A5" fill-opacity="0.25"/>
<circle cx="167.486" cy="292.486" r="7.48585" fill="#00C7A5" fill-opacity="0.25"/>
<circle cx="263.486" cy="172.486" r="7.48585" fill="#00C7A5" fill-opacity="0.25"/>
<circle cx="191.486" cy="277.486" r="7.48585" fill="#00C7A5" fill-opacity="0.25"/>
<circle cx="151.486" cy="172.486" r="7.48585" fill="#00C7A5" fill-opacity="0.25"/>
<circle cx="175.486" cy="187.486" r="7.48585" fill="#00C7A5" fill-opacity="0.25"/>
<circle cx="167.486" cy="232.486" r="7.48585" fill="#00C7A5" fill-opacity="0.25"/>
<circle cx="247.486" cy="172.486" r="7.48585" fill="#00C7A5" fill-opacity="0.25"/>
<circle cx="71.4859" cy="232.486" r="7.48585" fill="#00C7A5" fill-opacity="0.25"/>
<circle cx="223.486" cy="247.486" r="7.48585" fill="#00C7A5" fill-opacity="0.25"/>
<circle cx="247.486" cy="262.486" r="7.48585" fill="#00C7A5" fill-opacity="0.25"/>
<circle cx="191.486" cy="247.486" r="7.48585" fill="#00C7A5" fill-opacity="0.25"/>
<circle cx="39.4859" cy="81.4859" r="7.48585" fill="#00C7A5" fill-opacity="0.25"/>
<circle cx="71.4859" cy="112.486" r="7.48585" fill="#00C7A5" fill-opacity="0.25"/>
<circle cx="239.486" cy="97.4859" r="7.48585" fill="#00C7A5" fill-opacity="0.25"/>
<circle cx="55.4859" cy="142.486" r="7.48585" fill="#00C7A5" fill-opacity="0.25"/>
<circle cx="247.486" cy="52.4859" r="7.48585" fill="#00C7A5" fill-opacity="0.25"/>
<circle cx="47.4859" cy="127.486" r="7.48585" fill="#00C7A5" fill-opacity="0.25"/>
<circle cx="71.4859" cy="202.486" r="7.48585" fill="#00C7A5" fill-opacity="0.25"/>
<circle cx="47.4859" cy="217.486" r="7.48585" fill="#00C7A5" fill-opacity="0.25"/>
<circle cx="39.4859" cy="202.486" r="7.48585" fill="#00C7A5" fill-opacity="0.25"/>
<circle cx="271.486" cy="187.486" r="7.48585" fill="#00C7A5" fill-opacity="0.25"/>
<circle cx="39.4859" cy="232.486" r="7.48585" fill="#00C7A5" fill-opacity="0.25"/>
<circle cx="143.486" cy="67.4859" r="7.48585" fill="#00C7A5" fill-opacity="0.25"/>
<circle cx="127.486" cy="97.4859" r="7.48585" fill="#00C7A5" fill-opacity="0.25"/>
<circle cx="135.486" cy="82.4859" r="7.48585" fill="#00C7A5" fill-opacity="0.25"/>
<circle cx="135.486" cy="112.486" r="7.48585" fill="#00C7A5" fill-opacity="0.25"/>
<circle cx="143.486" cy="127.486" r="7.48585" fill="#00C7A5" fill-opacity="0.25"/>
<circle cx="135.486" cy="142.486" r="7.48585" fill="#00C7A5" fill-opacity="0.25"/>
<circle cx="143.486" cy="157.486" r="7.48585" fill="#00C7A5" fill-opacity="0.25"/>
<circle cx="191.486" cy="7.48585" r="7.48585" fill="#00C7A5" fill-opacity="0.25"/>
<circle cx="231.486" cy="172.486" r="7.48585" fill="#00C7A5" fill-opacity="0.25"/>
<circle cx="79.4859" cy="67.4859" r="7.48585" fill="#00C7A5" fill-opacity="0.25"/>
<circle cx="223.486" cy="97.4859" r="7.48585" fill="#00C7A5" fill-opacity="0.25"/>
<circle cx="127.486" cy="217.486" r="7.48585" fill="#00C7A5" fill-opacity="0.25"/>
<circle cx="63.4859" cy="37.4859" r="7.48585" fill="#00C7A5" fill-opacity="0.25"/>
<circle cx="111.486" cy="247.486" r="7.48585" fill="#00C7A5" fill-opacity="0.25"/>
<circle cx="271.486" cy="96.4859" r="7.48585" fill="#00C7A5" fill-opacity="0.25"/>
<circle cx="63.4859" cy="217.486" r="7.48585" fill="#00C7A5" fill-opacity="0.25"/>
<circle cx="215.486" cy="262.486" r="7.48585" fill="#00C7A5" fill-opacity="0.25"/>
<circle cx="231.486" cy="292.486" r="7.48585" fill="#00C7A5" fill-opacity="0.25"/>
<circle cx="79.4859" cy="157.486" r="7.48585" fill="#00C7A5" fill-opacity="0.25"/>
<circle cx="199.486" cy="202.486" r="7.48585" fill="#00C7A5" fill-opacity="0.25"/>
<circle cx="63.4859" cy="187.486" r="7.48585" fill="#00C7A5" fill-opacity="0.25"/>
<circle cx="263.486" cy="112.486" r="7.48585" fill="#00C7A5" fill-opacity="0.25"/>
<circle cx="47.4859" cy="186.486" r="7.48585" fill="#00C7A5" fill-opacity="0.25"/>
<circle cx="70.4859" cy="22.4859" r="7.48585" fill="#00C7A5" fill-opacity="0.25"/>
<circle cx="263.486" cy="142.486" r="7.48585" fill="#00C7A5" fill-opacity="0.25"/>
<circle cx="263.486" cy="232.486" r="7.48585" fill="#00C7A5" fill-opacity="0.25"/>
<circle cx="135.486" cy="172.486" r="7.48585" fill="#00C7A5" fill-opacity="0.25"/>
<circle cx="63.4859" cy="97.4859" r="7.48585" fill="#00C7A5" fill-opacity="0.25"/>
<circle cx="151.486" cy="232.486" r="7.48585" fill="#00C7A5" fill-opacity="0.25"/>
<circle cx="231.486" cy="202.486" r="7.48585" fill="#00C7A5" fill-opacity="0.25"/>
<circle cx="207.486" cy="247.486" r="7.48585" fill="#00C7A5" fill-opacity="0.25"/>
<circle cx="231.486" cy="262.486" r="7.48585" fill="#00C7A5" fill-opacity="0.25"/>
<circle cx="255.486" cy="37.4859" r="7.48585" fill="#00C7A5" fill-opacity="0.25"/>
<circle cx="239.486" cy="217.486" r="7.48585" fill="#00C7A5" fill-opacity="0.25"/>
<circle cx="47.4859" cy="67.4859" r="7.48585" fill="#00C7A5" fill-opacity="0.25"/>
<circle cx="231.486" cy="112.486" r="7.48585" fill="#00C7A5" fill-opacity="0.25"/>
<circle cx="231.486" cy="82.4859" r="7.48585" fill="#00C7A5" fill-opacity="0.25"/>
<circle cx="63.4859" cy="157.486" r="7.48585" fill="#00C7A5" fill-opacity="0.25"/>
<circle cx="232.486" cy="22.4859" r="7.48585" fill="#00C7A5" fill-opacity="0.25"/>
<circle cx="207.486" cy="217.486" r="7.48585" fill="#00C7A5" fill-opacity="0.25"/>
<circle cx="39.4859" cy="112.486" r="7.48585" fill="#00C7A5" fill-opacity="0.25"/>
<circle cx="151.486" cy="262.486" r="7.48585" fill="#00C7A5" fill-opacity="0.25"/>
<circle cx="239.486" cy="277.486" r="7.48585" fill="#00C7A5" fill-opacity="0.25"/>
<circle cx="31.4859" cy="67.4859" r="7.48585" fill="#00C7A5" fill-opacity="0.25"/>
<circle cx="247.486" cy="232.486" r="7.48585" fill="#00C7A5" fill-opacity="0.25"/>
<circle cx="247.486" cy="292.486" r="7.48585" fill="#00C7A5" fill-opacity="0.25"/>
<circle cx="23.4859" cy="81.4859" r="7.48585" fill="#00C7A5" fill-opacity="0.25"/>
<circle cx="207.486" cy="37.4859" r="7.48585" fill="#00C7A5" fill-opacity="0.25"/>
<circle cx="87.4859" cy="172.486" r="7.48585" fill="#00C7A5" fill-opacity="0.25"/>
<circle cx="239.486" cy="67.4859" r="7.48585" fill="#00C7A5" fill-opacity="0.25"/>
<circle cx="87.4859" cy="202.486" r="7.48585" fill="#00C7A5" fill-opacity="0.25"/>
<circle cx="255.486" cy="97.4859" r="7.48585" fill="#00C7A5" fill-opacity="0.25"/>
<circle cx="31.4859" cy="157.486" r="7.48585" fill="#00C7A5" fill-opacity="0.25"/>
<circle cx="55.4859" cy="232.486" r="7.48585" fill="#00C7A5" fill-opacity="0.25"/>
<circle cx="271.486" cy="217.486" r="7.48585" fill="#00C7A5" fill-opacity="0.25"/>
<circle cx="255.486" cy="247.486" r="7.48585" fill="#00C7A5" fill-opacity="0.25"/>
<circle cx="271.486" cy="247.486" r="7.48585" fill="#00C7A5" fill-opacity="0.25"/>
<circle cx="55.4859" cy="81.4859" r="7.48585" fill="#00C7A5" fill-opacity="0.25"/>
<circle cx="127.486" cy="7.48585" r="7.48585" fill="#00C7A5" fill-opacity="0.25"/>
<circle cx="159.486" cy="7.48585" r="7.48585" fill="#00C7A5" fill-opacity="0.25"/>
<circle cx="119.486" cy="172.486" r="7.48585" fill="#00C7A5" fill-opacity="0.25"/>
<circle cx="175.486" cy="277.486" r="7.48585" fill="#00C7A5" fill-opacity="0.25"/>
<circle cx="215.486" cy="292.486" r="7.48585" fill="#00C7A5" fill-opacity="0.25"/>
<circle cx="135.486" cy="232.486" r="7.48585" fill="#00C7A5" fill-opacity="0.25"/>
<circle cx="39.4859" cy="292.486" r="7.48585" fill="#00C7A5" fill-opacity="0.25"/>
<circle cx="55.4859" cy="292.486" r="7.48585" fill="#00C7A5" fill-opacity="0.25"/>
<circle cx="167.486" cy="262.486" r="7.48585" fill="#00C7A5" fill-opacity="0.25"/>
<circle cx="279.486" cy="142.486" r="7.48585" fill="#00C7A5" fill-opacity="0.25"/>
<circle cx="263.486" cy="292.486" r="7.48585" fill="#00C7A5" fill-opacity="0.25"/>
<circle cx="279.486" cy="292.486" r="7.48585" fill="#00C7A5" fill-opacity="0.25"/>
<circle cx="223.486" cy="37.4859" r="7.48585" fill="#00C7A5" fill-opacity="0.25"/>
<circle cx="47.4859" cy="247.486" r="7.48585" fill="#00C7A5" fill-opacity="0.25"/>
<circle cx="79.4859" cy="277.486" r="7.48585" fill="#00C7A5" fill-opacity="0.25"/>
<circle cx="143.486" cy="7.48585" r="7.48585" fill="#00C7A5" fill-opacity="0.25"/>
<circle cx="239.486" cy="127.486" r="7.48585" fill="#00C7A5" fill-opacity="0.25"/>
<circle cx="175.486" cy="7.48585" r="7.48585" fill="#00C7A5" fill-opacity="0.25"/>
<circle cx="71.4859" cy="172.486" r="7.48585" fill="#00C7A5" fill-opacity="0.25"/>
<circle cx="95.4859" cy="277.486" r="7.48585" fill="#00C7A5" fill-opacity="0.25"/>
<circle cx="71.4859" cy="292.486" r="7.48585" fill="#00C7A5" fill-opacity="0.25"/>
<circle cx="103.486" cy="232.486" r="7.48585" fill="#00C7A5" fill-opacity="0.25"/>
<circle cx="7.48585" cy="292.486" r="7.48585" fill="#00C7A5" fill-opacity="0.25"/>
<circle cx="15.4859" cy="277.486" r="7.48585" fill="#00C7A5" fill-opacity="0.25"/>
<circle cx="31.4859" cy="247.486" r="7.48585" fill="#00C7A5" fill-opacity="0.25"/>
<circle cx="30.4859" cy="217.486" r="7.48585" fill="#00C7A5" fill-opacity="0.25"/>
<circle cx="86.4859" cy="22.4859" r="7.48585" fill="#00C7A5" fill-opacity="0.25"/>
<circle cx="79.4859" cy="247.486" r="7.48585" fill="#00C7A5" fill-opacity="0.25"/>
<circle cx="63.4859" cy="277.486" r="7.48585" fill="#00C7A5" fill-opacity="0.25"/>
<circle cx="39.4859" cy="52.4859" r="7.48585" fill="#00C7A5" fill-opacity="0.25"/>
<circle cx="71.4859" cy="262.486" r="7.48585" fill="#00C7A5" fill-opacity="0.25"/>
<circle cx="87.4859" cy="262.486" r="7.48585" fill="#00C7A5" fill-opacity="0.25"/>
<circle cx="175.486" cy="67.4859" r="7.48585" fill="#00C7A5" fill-opacity="0.25"/>
<circle cx="159.486" cy="97.4859" r="7.48585" fill="#00C7A5" fill-opacity="0.25"/>
<circle cx="167.486" cy="82.4859" r="7.48585" fill="#00C7A5" fill-opacity="0.25"/>
<circle cx="167.486" cy="112.486" r="7.48585" fill="#00C7A5" fill-opacity="0.25"/>
<circle cx="175.486" cy="127.486" r="7.48585" fill="#00C7A5" fill-opacity="0.25"/>
<circle cx="167.486" cy="142.486" r="7.48585" fill="#00C7A5" fill-opacity="0.25"/>
<circle cx="175.486" cy="157.486" r="7.48585" fill="#00C7A5" fill-opacity="0.25"/>
<circle cx="103.486" cy="172.486" r="7.48585" fill="#00C7A5" fill-opacity="0.25"/>
<circle cx="183.486" cy="172.486" r="7.48585" fill="#00C7A5" fill-opacity="0.25"/>
<circle cx="119.486" cy="232.486" r="7.48585" fill="#00C7A5" fill-opacity="0.25"/>
<circle cx="23.4859" cy="292.486" r="7.48585" fill="#00C7A5" fill-opacity="0.25"/>
<circle cx="31.4859" cy="277.486" r="7.48585" fill="#00C7A5" fill-opacity="0.25"/>
<circle cx="159.486" cy="217.486" r="7.48585" fill="#00C7A5" fill-opacity="0.25"/>
<circle cx="183.486" cy="262.486" r="7.48585" fill="#00C7A5" fill-opacity="0.25"/>
<circle cx="23.4859" cy="112.486" r="7.48585" fill="#00C7A5" fill-opacity="0.25"/>
<circle cx="47.4859" cy="277.486" r="7.48585" fill="#00C7A5" fill-opacity="0.25"/>
<circle cx="143.486" cy="247.486" r="7.48585" fill="#00C7A5" fill-opacity="0.25"/>
<circle cx="271.486" cy="127.486" r="7.48585" fill="#00C7A5" fill-opacity="0.25"/>
<circle cx="143.486" cy="37.4859" r="7.48585" fill="#00C7A5" fill-opacity="0.25"/>
<circle cx="175.486" cy="37.4859" r="7.48585" fill="#00C7A5" fill-opacity="0.25"/>
<circle cx="103.486" cy="22.4859" r="7.48585" fill="#00C7A5" fill-opacity="0.25"/>
<circle cx="143.486" cy="187.486" r="7.48585" fill="#00C7A5" fill-opacity="0.25"/>
<circle cx="135.486" cy="22.4859" r="7.48585" fill="#00C7A5" fill-opacity="0.25"/>
<circle cx="95.4859" cy="217.486" r="7.48585" fill="#00C7A5" fill-opacity="0.25"/>
<circle cx="167.486" cy="22.4859" r="7.48585" fill="#00C7A5" fill-opacity="0.25"/>
<circle cx="183.486" cy="22.4859" r="7.48585" fill="#00C7A5" fill-opacity="0.25"/>
<circle cx="87.4859" cy="232.486" r="7.48585" fill="#00C7A5" fill-opacity="0.25"/>
<circle cx="263.486" cy="202.486" r="7.48585" fill="#00C7A5" fill-opacity="0.25"/>
<circle cx="159.486" cy="67.4859" r="7.48585" fill="#00C7A5" fill-opacity="0.25"/>
<circle cx="143.486" cy="97.4859" r="7.48585" fill="#00C7A5" fill-opacity="0.25"/>
<circle cx="151.486" cy="82.4859" r="7.48585" fill="#00C7A5" fill-opacity="0.25"/>
<circle cx="151.486" cy="112.486" r="7.48585" fill="#00C7A5" fill-opacity="0.25"/>
<circle cx="159.486" cy="127.486" r="7.48585" fill="#00C7A5" fill-opacity="0.25"/>
<circle cx="151.486" cy="142.486" r="7.48585" fill="#00C7A5" fill-opacity="0.25"/>
<circle cx="159.486" cy="157.486" r="7.48585" fill="#00C7A5" fill-opacity="0.25"/>
<circle cx="87.4859" cy="52.4859" r="7.48585" fill="#00C7A5" fill-opacity="0.25"/>
<circle cx="135.486" cy="52.4859" r="7.48585" fill="#00C7A5" fill-opacity="0.25"/>
<circle cx="207.486" cy="187.486" r="7.48585" fill="#00C7A5" fill-opacity="0.25"/>
<circle cx="167.486" cy="52.4859" r="7.48585" fill="#00C7A5" fill-opacity="0.25"/>
<circle cx="143.486" cy="217.486" r="7.48585" fill="#00C7A5" fill-opacity="0.25"/>
<circle cx="199.486" cy="52.4859" r="7.48585" fill="#00C7A5" fill-opacity="0.25"/>
<circle cx="79.4859" cy="217.486" r="7.48585" fill="#00C7A5" fill-opacity="0.25"/>
<circle cx="263.486" cy="52.4859" r="7.48585" fill="#00C7A5" fill-opacity="0.25"/>
<circle cx="111.486" cy="37.4859" r="7.48585" fill="#00C7A5" fill-opacity="0.25"/>
<circle cx="79.4859" cy="37.4859" r="7.48585" fill="#00C7A5" fill-opacity="0.25"/>
<circle cx="159.486" cy="37.4859" r="7.48585" fill="#00C7A5" fill-opacity="0.25"/>
<circle cx="191.486" cy="37.4859" r="7.48585" fill="#00C7A5" fill-opacity="0.25"/>
<circle cx="247.486" cy="112.486" r="7.48585" fill="#00C7A5" fill-opacity="0.25"/>
<circle cx="119.486" cy="22.4859" r="7.48585" fill="#00C7A5" fill-opacity="0.25"/>
<circle cx="151.486" cy="202.486" r="7.48585" fill="#00C7A5" fill-opacity="0.25"/>
<circle cx="151.486" cy="22.4859" r="7.48585" fill="#00C7A5" fill-opacity="0.25"/>
<circle cx="183.486" cy="232.486" r="7.48585" fill="#00C7A5" fill-opacity="0.25"/>
<circle cx="71.4859" cy="52.4859" r="7.48585" fill="#00C7A5" fill-opacity="0.25"/>
<circle cx="199.486" cy="22.4859" r="7.48585" fill="#00C7A5" fill-opacity="0.25"/>
<circle cx="215.486" cy="22.4859" r="7.48585" fill="#00C7A5" fill-opacity="0.25"/>
<circle cx="231.486" cy="232.486" r="7.48585" fill="#00C7A5" fill-opacity="0.25"/>
<circle cx="279.486" cy="112.486" r="7.48585" fill="#00C7A5" fill-opacity="0.25"/>
<circle cx="119.486" cy="52.4859" r="7.48585" fill="#00C7A5" fill-opacity="0.25"/>
<circle cx="103.486" cy="52.4859" r="7.48585" fill="#00C7A5" fill-opacity="0.25"/>
<circle cx="151.486" cy="52.4859" r="7.48585" fill="#FBC800"/>
<circle cx="127.486" cy="187.486" r="7.48585" fill="#00C7A5" fill-opacity="0.25"/>
<circle cx="183.486" cy="52.4859" r="7.48585" fill="#00C7A5" fill-opacity="0.25"/>
<circle cx="255.486" cy="127.486" r="7.48585" fill="#00C7A5" fill-opacity="0.25"/>
<circle cx="215.486" cy="52.4859" r="7.48585" fill="#00C7A5" fill-opacity="0.25"/>
<circle cx="39.4859" cy="172.486" r="7.48585" fill="#00C7A5" fill-opacity="0.25"/>
<circle cx="111.486" cy="277.486" r="7.48585" fill="#00C7A5" fill-opacity="0.25"/>
<circle cx="87.4859" cy="292.486" r="7.48585" fill="#00C7A5" fill-opacity="0.25"/>
<circle cx="127.486" cy="37.4859" r="7.48585" fill="#00C7A5" fill-opacity="0.25"/>
<circle cx="95.4859" cy="37.4859" r="7.48585" fill="#00C7A5" fill-opacity="0.25"/>
<circle cx="231.486" cy="142.486" r="7.48585" fill="#00C7A5" fill-opacity="0.25"/>
<circle cx="95.4859" cy="187.486" r="7.48585" fill="#00C7A5" fill-opacity="0.25"/>
<circle cx="111.486" cy="187.486" r="7.48585" fill="#00C7A5" fill-opacity="0.25"/>
<circle cx="199.486" cy="232.486" r="7.48585" fill="#00C7A5" fill-opacity="0.25"/>
<circle cx="47.4859" cy="96.4859" r="7.48585" fill="#00C7A5" fill-opacity="0.25"/>
<circle cx="135.486" cy="262.486" r="7.48585" fill="#00C7A5" fill-opacity="0.25"/>
<circle cx="223.486" cy="277.486" r="7.48585" fill="#00C7A5" fill-opacity="0.25"/>
<circle cx="143.486" cy="277.486" r="7.48585" fill="#00C7A5" fill-opacity="0.25"/>
<circle cx="119.486" cy="292.486" r="7.48585" fill="#00C7A5" fill-opacity="0.25"/>
<circle cx="39.4859" cy="142.486" r="7.48585" fill="#00C7A5" fill-opacity="0.25"/>
<circle cx="127.486" cy="277.486" r="7.48585" fill="#00C7A5" fill-opacity="0.25"/>
<circle cx="103.486" cy="292.486" r="7.48585" fill="#00C7A5" fill-opacity="0.25"/>
<circle cx="95.4859" cy="67.4859" r="7.48585" fill="#00C7A5" fill-opacity="0.25"/>
<circle cx="79.4859" cy="97.4859" r="7.48585" fill="#00C7A5" fill-opacity="0.25"/>
<circle cx="87.4859" cy="82.4859" r="7.48585" fill="#00C7A5" fill-opacity="0.25"/>
<circle cx="87.4859" cy="112.486" r="7.48585" fill="#00C7A5" fill-opacity="0.25"/>
<circle cx="95.4859" cy="127.486" r="7.48585" fill="#00C7A5" fill-opacity="0.25"/>
<circle cx="87.4859" cy="142.486" r="7.48585" fill="#00C7A5" fill-opacity="0.25"/>
<circle cx="95.4859" cy="157.486" r="7.48585" fill="#00C7A5" fill-opacity="0.25"/>
<circle cx="191.486" cy="67.4859" r="7.48585" fill="#00C7A5" fill-opacity="0.25"/>
<circle cx="175.486" cy="97.4859" r="7.48585" fill="#00C7A5" fill-opacity="0.25"/>
<circle cx="183.486" cy="82.4859" r="7.48585" fill="#00C7A5" fill-opacity="0.25"/>
<circle cx="183.486" cy="112.486" r="7.48585" fill="#00C7A5" fill-opacity="0.25"/>
<circle cx="191.486" cy="127.486" r="7.48585" fill="#00C7A5" fill-opacity="0.25"/>
<circle cx="183.486" cy="142.486" r="7.48585" fill="#00C7A5" fill-opacity="0.25"/>
<circle cx="191.486" cy="157.486" r="7.48585" fill="#00C7A5" fill-opacity="0.25"/>
<circle cx="71.4859" cy="82.4859" r="7.48585" fill="#00C7A5" fill-opacity="0.25"/>
<circle cx="63.4859" cy="247.486" r="7.48585" fill="#00C7A5" fill-opacity="0.25"/>
<circle cx="55.4859" cy="262.486" r="7.48585" fill="#00C7A5" fill-opacity="0.25"/>
<circle cx="199.486" cy="172.486" r="7.48585" fill="#00C7A5" fill-opacity="0.25"/>
<circle cx="167.486" cy="172.486" r="7.48585" fill="#00C7A5" fill-opacity="0.25"/>
<circle cx="175.486" cy="217.486" r="7.48585" fill="#00C7A5" fill-opacity="0.25"/>
<circle cx="215.486" cy="232.486" r="7.48585" fill="#00C7A5" fill-opacity="0.25"/>
<circle cx="159.486" cy="277.486" r="7.48585" fill="#00C7A5" fill-opacity="0.25"/>
<circle cx="199.486" cy="292.486" r="7.48585" fill="#00C7A5" fill-opacity="0.25"/>
<circle cx="159.486" cy="247.486" r="7.48585" fill="#00C7A5" fill-opacity="0.25"/>
<circle cx="31.4859" cy="127.486" r="7.48585" fill="#00C7A5" fill-opacity="0.25"/>
<circle cx="111.486" cy="67.4859" r="7.48585" fill="#00C7A5" fill-opacity="0.25"/>
<circle cx="95.4859" cy="97.4859" r="7.48585" fill="#00C7A5" fill-opacity="0.25"/>
<circle cx="103.486" cy="82.4859" r="7.48585" fill="#00C7A5" fill-opacity="0.25"/>
<circle cx="103.486" cy="112.486" r="7.48585" fill="#00C7A5" fill-opacity="0.25"/>
<circle cx="111.486" cy="127.486" r="7.48585" fill="#00C7A5" fill-opacity="0.25"/>
<circle cx="103.486" cy="142.486" r="7.48585" fill="#00C7A5" fill-opacity="0.25"/>
<circle cx="111.486" cy="157.486" r="7.48585" fill="#00C7A5" fill-opacity="0.25"/>
<circle cx="207.486" cy="67.4859" r="7.48585" fill="#00C7A5" fill-opacity="0.25"/>
<circle cx="191.486" cy="97.4859" r="7.48585" fill="#00C7A5" fill-opacity="0.25"/>
<circle cx="199.486" cy="82.4859" r="7.48585" fill="#00C7A5" fill-opacity="0.25"/>
<circle cx="199.486" cy="112.486" r="7.48585" fill="#00C7A5" fill-opacity="0.25"/>
<circle cx="207.486" cy="127.486" r="7.48585" fill="#00C7A5" fill-opacity="0.25"/>
<circle cx="199.486" cy="142.486" r="7.48585" fill="#00C7A5" fill-opacity="0.25"/>
<circle cx="207.486" cy="157.486" r="7.48585" fill="#00C7A5" fill-opacity="0.25"/>
<circle cx="247.486" cy="142.486" r="7.48585" fill="#00C7A5" fill-opacity="0.25"/>
<circle cx="215.486" cy="172.486" r="7.48585" fill="#00C7A5" fill-opacity="0.25"/>
<circle cx="103.486" cy="202.486" r="7.48585" fill="#00C7A5" fill-opacity="0.25"/>
<circle cx="191.486" cy="217.486" r="7.48585" fill="#00C7A5" fill-opacity="0.25"/>
<circle cx="127.486" cy="247.486" r="7.48585" fill="#00C7A5" fill-opacity="0.25"/>
<circle cx="31.4859" cy="96.4859" r="7.48585" fill="#00C7A5" fill-opacity="0.25"/>
<circle cx="95.4859" cy="247.486" r="7.48585" fill="#00C7A5" fill-opacity="0.25"/>
<circle cx="255.486" cy="217.486" r="7.48585" fill="#00C7A5" fill-opacity="0.25"/>
<circle cx="255.486" cy="277.486" r="7.48585" fill="#00C7A5" fill-opacity="0.25"/>
<circle cx="270.486" cy="277.486" r="7.48585" fill="#00C7A5" fill-opacity="0.25"/>
<circle cx="127.486" cy="67.4859" r="7.48585" fill="#00C7A5" fill-opacity="0.25"/>
<circle cx="111.486" cy="97.4859" r="7.48585" fill="#00C7A5" fill-opacity="0.25"/>
<circle cx="119.486" cy="82.4859" r="7.48585" fill="#00C7A5" fill-opacity="0.25"/>
<circle cx="119.486" cy="112.486" r="7.48585" fill="#00C7A5" fill-opacity="0.25"/>
<circle cx="127.486" cy="127.486" r="7.48585" fill="#00C7A5" fill-opacity="0.25"/>
<circle cx="119.486" cy="142.486" r="7.48585" fill="#00C7A5" fill-opacity="0.25"/>
<circle cx="127.486" cy="157.486" r="7.48585" fill="#00C7A5" fill-opacity="0.25"/>
<circle cx="223.486" cy="67.4859" r="7.48585" fill="#00C7A5" fill-opacity="0.25"/>
<circle cx="207.486" cy="97.4859" r="7.48585" fill="#00C7A5" fill-opacity="0.25"/>
<circle cx="215.486" cy="82.4859" r="7.48585" fill="#00C7A5" fill-opacity="0.25"/>
<circle cx="215.486" cy="112.486" r="7.48585" fill="#00C7A5" fill-opacity="0.25"/>
<circle cx="223.486" cy="127.486" r="7.48585" fill="#00C7A5" fill-opacity="0.25"/>
<circle cx="215.486" cy="142.486" r="7.48585" fill="#00C7A5" fill-opacity="0.25"/>
<circle cx="223.486" cy="157.486" r="7.48585" fill="#00C7A5" fill-opacity="0.25"/>
<circle cx="239.486" cy="157.486" r="7.48585" fill="#00C7A5" fill-opacity="0.25"/>
<circle cx="247.486" cy="82.4859" r="7.48585" fill="#00C7A5" fill-opacity="0.25"/>
<circle cx="111.486" cy="217.486" r="7.48585" fill="#00C7A5" fill-opacity="0.25"/>
<circle cx="215.486" cy="202.486" r="7.48585" fill="#00C7A5" fill-opacity="0.25"/>
<circle cx="247.486" cy="202.486" r="7.48585" fill="#00C7A5" fill-opacity="0.25"/>
<circle cx="23.4859" cy="142.486" r="7.48585" fill="#00C7A5" fill-opacity="0.25"/>
<circle cx="39.4859" cy="262.486" r="7.48585" fill="#00C7A5" fill-opacity="0.25"/>
<circle cx="23.4859" cy="262.486" r="7.48585" fill="#00C7A5" fill-opacity="0.25"/>
<circle cx="175.486" cy="247.486" r="7.48585" fill="#00C7A5" fill-opacity="0.25"/>
<circle cx="239.486" cy="37.4859" r="7.48585" fill="#00C7A5" fill-opacity="0.25"/>
</svg>
