<svg width="300" height="783" viewBox="0 0 300 783" fill="none" xmlns="http://www.w3.org/2000/svg">
<g clip-path="url(#clip0)">
<circle cx="44.6978" cy="80" r="6.43119" fill="#00C7A5"/>
<circle cx="88.7906" cy="83.1524" r="6.43119" fill="#00C7A5"/>
<circle cx="95.2217" cy="66.4312" r="6.43119" fill="#00C7A5"/>
<circle cx="83.0025" cy="146.178" r="6.43119" fill="#00C7A5"/>
<circle cx="108.084" cy="89.5835" r="6.43119" fill="#00C7A5"/>
<circle cx="117.731" cy="72.8623" r="6.43119" fill="#00C7A5"/>
<circle cx="137.668" cy="83.1524" r="6.43119" fill="#00C7A5"/>
<circle cx="127.377" cy="102.446" r="6.43119" fill="#00C7A5"/>
<circle cx="101.653" cy="112.736" r="6.43119" fill="#00C7A5"/>
<circle cx="79.1436" cy="102.446" r="6.43119" fill="#00C7A5"/>
<circle cx="68.8536" cy="83.1524" r="6.43119" fill="#00C7A5"/>
<circle cx="43.6978" cy="163" r="6.43119" fill="#00C7A5"/>
<circle cx="57.2774" cy="102.446" r="6.43119" fill="#00C7A5"/>
<circle cx="53.419" cy="119.167" r="6.43119" fill="#00C7A5"/>
<circle cx="72.7124" cy="121.739" r="6.43119" fill="#00C7A5"/>
<circle cx="92.0059" cy="129.457" r="6.43119" fill="#00C7A5"/>
<circle cx="37.6978" cy="140" r="6.43119" fill="#00C7A5"/>
<circle cx="59.8501" cy="142.319" r="6.43119" fill="#00C7A5"/>
<circle cx="111.299" cy="135.888" r="6.43119" fill="#00C7A5"/>
<circle cx="120.946" cy="121.739" r="6.43119" fill="#00C7A5"/>
<circle cx="66.2813" cy="164.185" r="6.43119" fill="#00C7A5"/>
<circle cx="142.169" cy="117.881" r="6.43119" fill="#00C7A5"/>
<circle cx="131.879" cy="137.174" r="6.43119" fill="#00C7A5"/>
<circle cx="101.653" cy="157.754" r="6.43119" fill="#00C7A5"/>
<circle cx="125.448" cy="156.468" r="6.43119" fill="#00C7A5"/>
<circle cx="158.698" cy="80" r="6.43119" fill="#00C7A5"/>
<circle cx="198.764" cy="86.3682" r="6.43119" fill="#00C7A5"/>
<circle cx="258.698" cy="115" r="6.43119" fill="#00C7A5"/>
<circle cx="192.976" cy="149.394" r="6.43119" fill="#00C7A5"/>
<circle cx="218.058" cy="92.7994" r="6.43119" fill="#00C7A5"/>
<circle cx="227.704" cy="76.0782" r="6.43119" fill="#00C7A5"/>
<circle cx="245.698" cy="140" r="6.43119" fill="#00C7A5"/>
<circle cx="237.351" cy="105.662" r="6.43119" fill="#00C7A5"/>
<circle cx="211.627" cy="115.952" r="6.43119" fill="#00C7A5"/>
<circle cx="189.117" cy="105.662" r="6.43119" fill="#00C7A5"/>
<circle cx="178.827" cy="86.3682" r="6.43119" fill="#00C7A5"/>
<circle cx="248.698" cy="84" r="6.43119" fill="#00C7A5"/>
<circle cx="167.251" cy="105.662" r="6.43119" fill="#00C7A5"/>
<circle cx="163.393" cy="122.383" r="6.43119" fill="#00C7A5"/>
<circle cx="182.686" cy="124.955" r="6.43119" fill="#00C7A5"/>
<circle cx="201.98" cy="132.673" r="6.43119" fill="#00C7A5"/>
<circle cx="147.958" cy="99.2305" r="6.43119" fill="#00C7A5"/>
<circle cx="169.824" cy="145.535" r="6.43119" fill="#00C7A5"/>
<circle cx="221.273" cy="139.104" r="6.43119" fill="#00C7A5"/>
<circle cx="230.92" cy="124.955" r="6.43119" fill="#00C7A5"/>
<circle cx="176.255" cy="167.401" r="6.43119" fill="#00C7A5"/>
<circle cx="149.887" cy="164.186" r="6.43119" fill="#00C7A5"/>
<circle cx="151.816" cy="140.39" r="6.43119" fill="#00C7A5"/>
<circle cx="211.627" cy="160.97" r="6.43119" fill="#00C7A5"/>
<circle cx="235.422" cy="159.684" r="6.43119" fill="#00C7A5"/>
<circle cx="199.407" cy="177.691" r="6.43119" fill="#00C7A5"/>
<circle cx="211.627" cy="200.843" r="6.43119" fill="#00C7A5"/>
<circle cx="218.058" cy="184.122" r="6.43119" fill="#00C7A5"/>
<circle cx="205.838" cy="263.869" r="6.43119" fill="#00C7A5"/>
<circle cx="230.92" cy="207.274" r="6.43119" fill="#00C7A5"/>
<circle cx="240.567" cy="190.553" r="6.43119" fill="#00C7A5"/>
<circle cx="156.961" cy="181.55" r="6.43119" fill="#00C7A5"/>
<circle cx="250.214" cy="220.137" r="6.43119" fill="#00C7A5"/>
<circle cx="224.489" cy="230.427" r="6.43119" fill="#00C7A5"/>
<circle cx="201.98" cy="220.137" r="6.43119" fill="#00C7A5"/>
<circle cx="191.69" cy="200.843" r="6.43119" fill="#00C7A5"/>
<circle cx="173.683" cy="187.981" r="6.43119" fill="#00C7A5"/>
<circle cx="180.114" cy="220.137" r="6.43119" fill="#00C7A5"/>
<circle cx="176.255" cy="236.858" r="6.43119" fill="#00C7A5"/>
<circle cx="195.548" cy="239.43" r="6.43119" fill="#00C7A5"/>
<circle cx="214.842" cy="247.148" r="6.43119" fill="#00C7A5"/>
<circle cx="160.82" cy="213.706" r="6.43119" fill="#00C7A5"/>
<circle cx="182.686" cy="260.01" r="6.43119" fill="#00C7A5"/>
<circle cx="234.136" cy="253.579" r="6.43119" fill="#00C7A5"/>
<circle cx="243.783" cy="239.43" r="6.43119" fill="#00C7A5"/>
<circle cx="189.117" cy="281.876" r="6.43119" fill="#00C7A5"/>
<circle cx="162.75" cy="253.579" r="6.43119" fill="#00C7A5"/>
<circle cx="254.715" cy="254.865" r="6.43119" fill="#00C7A5"/>
<circle cx="224.489" cy="275.445" r="6.43119" fill="#00C7A5"/>
<circle cx="167.252" cy="275.445" r="6.43119" fill="#00C7A5"/>
<circle cx="214.842" cy="288.307" r="6.43119" fill="#00C7A5"/>
<circle cx="227.061" cy="311.46" r="6.43119" fill="#00C7A5"/>
<circle cx="233.492" cy="294.738" r="6.43119" fill="#00C7A5"/>
<circle cx="221.273" cy="374.485" r="6.43119" fill="#00C7A5"/>
<circle cx="246.355" cy="317.891" r="6.43119" fill="#00C7A5"/>
<circle cx="256.001" cy="301.169" r="6.43119" fill="#00C7A5"/>
<circle cx="178.827" cy="360.98" r="6.43119" fill="#00C7A5"/>
<circle cx="265.648" cy="330.753" r="6.43119" fill="#00C7A5"/>
<circle cx="239.923" cy="341.043" r="6.43119" fill="#00C7A5"/>
<circle cx="217.414" cy="330.753" r="6.43119" fill="#00C7A5"/>
<circle cx="207.124" cy="311.46" r="6.43119" fill="#00C7A5"/>
<circle cx="189.117" cy="298.597" r="6.43119" fill="#00C7A5"/>
<circle cx="195.548" cy="330.753" r="6.43119" fill="#00C7A5"/>
<circle cx="191.689" cy="347.474" r="6.43119" fill="#00C7A5"/>
<circle cx="210.983" cy="350.046" r="6.43119" fill="#00C7A5"/>
<circle cx="230.276" cy="357.764" r="6.43119" fill="#00C7A5"/>
<circle cx="176.254" cy="324.322" r="6.43119" fill="#00C7A5"/>
<circle cx="198.121" cy="370.626" r="6.43119" fill="#00C7A5"/>
<circle cx="249.57" cy="364.195" r="6.43119" fill="#00C7A5"/>
<circle cx="259.217" cy="350.046" r="6.43119" fill="#00C7A5"/>
<circle cx="204.552" cy="392.493" r="6.43119" fill="#00C7A5"/>
<circle cx="169.18" cy="294.738" r="6.43119" fill="#00C7A5"/>
<circle cx="176.254" cy="384.775" r="6.43119" fill="#00C7A5"/>
<circle cx="248.698" cy="404" r="6.43119" fill="#00C7A5"/>
<circle cx="225.698" cy="400" r="6.43119" fill="#00C7A5"/>
<circle cx="60.4932" cy="405.355" r="6.43119" fill="#00C7A5"/>
<circle cx="72.7124" cy="428.507" r="6.43119" fill="#00C7A5"/>
<circle cx="79.1436" cy="411.786" r="6.43119" fill="#00C7A5"/>
<circle cx="66.9244" cy="491.533" r="6.43119" fill="#00C7A5"/>
<circle cx="92.0064" cy="434.939" r="6.43119" fill="#00C7A5"/>
<circle cx="101.653" cy="418.217" r="6.43119" fill="#00C7A5"/>
<circle cx="121.59" cy="428.507" r="6.43119" fill="#00C7A5"/>
<circle cx="111.3" cy="447.801" r="6.43119" fill="#00C7A5"/>
<circle cx="85.5747" cy="458.091" r="6.43119" fill="#00C7A5"/>
<circle cx="63.066" cy="447.801" r="6.43119" fill="#00C7A5"/>
<circle cx="52.7759" cy="428.507" r="6.43119" fill="#00C7A5"/>
<circle cx="131.906" cy="410" r="6.43119" fill="#00C7A5"/>
<circle cx="41.1997" cy="447.801" r="6.43119" fill="#00C7A5"/>
<circle cx="106.906" cy="399" r="6.43119" fill="#00C7A5"/>
<circle cx="56.6348" cy="467.094" r="6.43119" fill="#00C7A5"/>
<circle cx="75.9283" cy="474.812" r="6.43119" fill="#00C7A5"/>
<circle cx="125.906" cy="519" r="6.43119" fill="#00C7A5"/>
<circle cx="43.772" cy="487.674" r="6.43119" fill="#00C7A5"/>
<circle cx="95.2217" cy="481.243" r="6.43119" fill="#00C7A5"/>
<circle cx="113.906" cy="479" r="6.43119" fill="#00C7A5"/>
<circle cx="50.2037" cy="509.541" r="6.43119" fill="#00C7A5"/>
<circle cx="126.091" cy="463.236" r="6.43119" fill="#00C7A5"/>
<circle cx="137.906" cy="486" r="6.43119" fill="#00C7A5"/>
<circle cx="85.5747" cy="503.109" r="6.43119" fill="#00C7A5"/>
<circle cx="109.37" cy="501.823" r="6.43119" fill="#00C7A5"/>
<circle cx="176.898" cy="405.998" r="6.43119" fill="#00C7A5"/>
<circle cx="189.118" cy="429.15" r="6.43119" fill="#00C7A5"/>
<circle cx="195.549" cy="412.429" r="6.43119" fill="#00C7A5"/>
<circle cx="183.33" cy="492.176" r="6.43119" fill="#00C7A5"/>
<circle cx="208.411" cy="435.582" r="6.43119" fill="#00C7A5"/>
<circle cx="218.058" cy="418.86" r="6.43119" fill="#00C7A5"/>
<circle cx="237.995" cy="429.15" r="6.43119" fill="#00C7A5"/>
<circle cx="227.705" cy="448.444" r="6.43119" fill="#00C7A5"/>
<circle cx="201.98" cy="458.734" r="6.43119" fill="#00C7A5"/>
<circle cx="179.471" cy="448.444" r="6.43119" fill="#00C7A5"/>
<circle cx="169.181" cy="429.15" r="6.43119" fill="#00C7A5"/>
<circle cx="151.173" cy="416.288" r="6.43119" fill="#00C7A5"/>
<circle cx="157.605" cy="448.444" r="6.43119" fill="#00C7A5"/>
<circle cx="153.746" cy="465.165" r="6.43119" fill="#00C7A5"/>
<circle cx="173.04" cy="467.737" r="6.43119" fill="#00C7A5"/>
<circle cx="192.333" cy="475.455" r="6.43119" fill="#00C7A5"/>
<circle cx="138.311" cy="442.013" r="6.43119" fill="#00C7A5"/>
<circle cx="160.177" cy="488.317" r="6.43119" fill="#00C7A5"/>
<circle cx="211.627" cy="481.886" r="6.43119" fill="#00C7A5"/>
<circle cx="221.273" cy="467.737" r="6.43119" fill="#00C7A5"/>
<circle cx="166.608" cy="510.184" r="6.43119" fill="#00C7A5"/>
<circle cx="242.497" cy="463.879" r="6.43119" fill="#00C7A5"/>
<circle cx="232.207" cy="483.172" r="6.43119" fill="#00C7A5"/>
<circle cx="201.98" cy="503.752" r="6.43119" fill="#00C7A5"/>
<circle cx="225.775" cy="502.466" r="6.43119" fill="#00C7A5"/>
<circle cx="86.2183" cy="173.832" r="6.43119" fill="#00C7A5"/>
<circle cx="98.438" cy="196.984" r="6.43119" fill="#00C7A5"/>
<circle cx="104.869" cy="180.263" r="6.43119" fill="#00C7A5"/>
<circle cx="92.6499" cy="260.01" r="6.43119" fill="#00C7A5"/>
<circle cx="117.731" cy="203.416" r="6.43119" fill="#00C7A5"/>
<circle cx="127.378" cy="186.694" r="6.43119" fill="#00C7A5"/>
<circle cx="147.315" cy="196.984" r="6.43119" fill="#00C7A5"/>
<circle cx="137.025" cy="216.278" r="6.43119" fill="#00C7A5"/>
<circle cx="111.3" cy="226.568" r="6.43119" fill="#00C7A5"/>
<circle cx="88.7911" cy="216.278" r="6.43119" fill="#00C7A5"/>
<circle cx="78.501" cy="196.984" r="6.43119" fill="#00C7A5"/>
<circle cx="60.4937" cy="184.122" r="6.43119" fill="#00C7A5"/>
<circle cx="66.9248" cy="216.278" r="6.43119" fill="#00C7A5"/>
<circle cx="63.0664" cy="232.999" r="6.43119" fill="#00C7A5"/>
<circle cx="82.3599" cy="235.571" r="6.43119" fill="#00C7A5"/>
<circle cx="101.653" cy="243.289" r="6.43119" fill="#00C7A5"/>
<circle cx="47.6314" cy="209.847" r="6.43119" fill="#00C7A5"/>
<circle cx="69.4976" cy="256.151" r="6.43119" fill="#00C7A5"/>
<circle cx="120.947" cy="249.72" r="6.43119" fill="#00C7A5"/>
<circle cx="130.594" cy="235.571" r="6.43119" fill="#00C7A5"/>
<circle cx="75.9287" cy="278.018" r="6.43119" fill="#00C7A5"/>
<circle cx="151.817" cy="231.713" r="6.43119" fill="#00C7A5"/>
<circle cx="141.527" cy="251.006" r="6.43119" fill="#00C7A5"/>
<circle cx="111.3" cy="271.586" r="6.43119" fill="#00C7A5"/>
<circle cx="135.096" cy="270.3" r="6.43119" fill="#00C7A5"/>
<circle cx="188.474" cy="528.834" r="6.43119" fill="#00C7A5"/>
<circle cx="200.693" cy="551.986" r="6.43119" fill="#00C7A5"/>
<circle cx="207.124" cy="535.265" r="6.43119" fill="#00C7A5"/>
<circle cx="194.905" cy="615.012" r="6.43119" fill="#00C7A5"/>
<circle cx="219.986" cy="558.418" r="6.43119" fill="#00C7A5"/>
<circle cx="229.633" cy="541.696" r="6.43119" fill="#00C7A5"/>
<circle cx="146.028" cy="532.693" r="6.43119" fill="#00C7A5"/>
<circle cx="217.906" cy="522" r="6.43119" fill="#00C7A5"/>
<circle cx="213.555" cy="581.57" r="6.43119" fill="#00C7A5"/>
<circle cx="191.046" cy="571.28" r="6.43119" fill="#00C7A5"/>
<circle cx="180.756" cy="551.986" r="6.43119" fill="#00C7A5"/>
<circle cx="162.749" cy="539.124" r="6.43119" fill="#00C7A5"/>
<circle cx="169.18" cy="571.28" r="6.43119" fill="#00C7A5"/>
<circle cx="165.321" cy="588.001" r="6.43119" fill="#00C7A5"/>
<circle cx="184.615" cy="590.573" r="6.43119" fill="#00C7A5"/>
<circle cx="203.909" cy="598.291" r="6.43119" fill="#00C7A5"/>
<circle cx="149.887" cy="564.849" r="6.43119" fill="#00C7A5"/>
<circle cx="171.752" cy="611.153" r="6.43119" fill="#00C7A5"/>
<circle cx="223.202" cy="604.722" r="6.43119" fill="#00C7A5"/>
<circle cx="232.849" cy="590.573" r="6.43119" fill="#00C7A5"/>
<circle cx="178.184" cy="633.02" r="6.43119" fill="#00C7A5"/>
<circle cx="151.816" cy="604.722" r="6.43119" fill="#00C7A5"/>
<circle cx="145.906" cy="505" r="6.43119" fill="#00C7A5"/>
<circle cx="193.906" cy="663" r="6.43119" fill="#00C7A5"/>
<circle cx="156.318" cy="626.588" r="6.43119" fill="#00C7A5"/>
<circle cx="135.738" cy="643.952" r="6.43119" fill="#00C7A5"/>
<circle cx="147.958" cy="667.105" r="6.43119" fill="#00C7A5"/>
<circle cx="154.389" cy="650.383" r="6.43119" fill="#00C7A5"/>
<circle cx="142.169" cy="730.13" r="6.43119" fill="#00C7A5"/>
<circle cx="167.251" cy="673.536" r="6.43119" fill="#00C7A5"/>
<circle cx="176.898" cy="656.815" r="6.43119" fill="#00C7A5"/>
<circle cx="99.7237" cy="716.625" r="6.43119" fill="#00C7A5"/>
<circle cx="186.544" cy="686.398" r="6.43119" fill="#00C7A5"/>
<circle cx="160.82" cy="696.688" r="6.43119" fill="#00C7A5"/>
<circle cx="138.311" cy="686.398" r="6.43119" fill="#00C7A5"/>
<circle cx="128.021" cy="667.105" r="6.43119" fill="#00C7A5"/>
<circle cx="110.013" cy="654.242" r="6.43119" fill="#00C7A5"/>
<circle cx="116.444" cy="686.398" r="6.43119" fill="#00C7A5"/>
<circle cx="112.586" cy="703.119" r="6.43119" fill="#00C7A5"/>
<circle cx="131.879" cy="705.691" r="6.43119" fill="#00C7A5"/>
<circle cx="151.173" cy="713.409" r="6.43119" fill="#00C7A5"/>
<circle cx="97.1509" cy="679.967" r="6.43119" fill="#00C7A5"/>
<circle cx="119.017" cy="726.272" r="6.43119" fill="#00C7A5"/>
<circle cx="170.467" cy="719.84" r="6.43119" fill="#00C7A5"/>
<circle cx="180.113" cy="705.691" r="6.43119" fill="#00C7A5"/>
<circle cx="125.448" cy="748.138" r="6.43119" fill="#00C7A5"/>
<circle cx="199.698" cy="643" r="6.43119" fill="#00C7A5"/>
<circle cx="113.698" cy="638" r="6.43119" fill="#00C7A5"/>
<circle cx="90.0767" cy="650.383" r="6.43119" fill="#00C7A5"/>
<circle cx="97.1509" cy="740.42" r="6.43119" fill="#00C7A5"/>
<circle cx="75.2847" cy="524.975" r="6.43119" fill="#00C7A5"/>
<circle cx="87.5044" cy="548.127" r="6.43119" fill="#00C7A5"/>
<circle cx="93.9356" cy="531.406" r="6.43119" fill="#00C7A5"/>
<circle cx="81.7163" cy="611.153" r="6.43119" fill="#00C7A5"/>
<circle cx="106.798" cy="554.558" r="6.43119" fill="#00C7A5"/>
<circle cx="116.444" cy="537.837" r="6.43119" fill="#00C7A5"/>
<circle cx="136.381" cy="548.127" r="6.43119" fill="#00C7A5"/>
<circle cx="126.091" cy="567.42" r="6.43119" fill="#00C7A5"/>
<circle cx="100.367" cy="577.711" r="6.43119" fill="#00C7A5"/>
<circle cx="77.8575" cy="567.42" r="6.43119" fill="#00C7A5"/>
<circle cx="67.5674" cy="548.127" r="6.43119" fill="#00C7A5"/>
<circle cx="49.5601" cy="535.265" r="6.43119" fill="#00C7A5"/>
<circle cx="55.9913" cy="567.42" r="6.43119" fill="#00C7A5"/>
<circle cx="52.1329" cy="584.142" r="6.43119" fill="#00C7A5"/>
<circle cx="71.4263" cy="586.714" r="6.43119" fill="#00C7A5"/>
<circle cx="90.7198" cy="594.432" r="6.43119" fill="#00C7A5"/>
<circle cx="36.6978" cy="560.989" r="6.43119" fill="#00C7A5"/>
<circle cx="58.564" cy="607.294" r="6.43119" fill="#00C7A5"/>
<circle cx="110.013" cy="600.863" r="6.43119" fill="#00C7A5"/>
<circle cx="119.66" cy="586.714" r="6.43119" fill="#00C7A5"/>
<circle cx="64.9952" cy="629.16" r="6.43119" fill="#00C7A5"/>
<circle cx="140.883" cy="582.856" r="6.43119" fill="#00C7A5"/>
<circle cx="130.593" cy="602.149" r="6.43119" fill="#00C7A5"/>
<circle cx="100.367" cy="622.729" r="6.43119" fill="#00C7A5"/>
<circle cx="124.162" cy="621.442" r="6.43119" fill="#00C7A5"/>
<circle cx="97.2847" cy="285" r="6.43119" fill="#00C7A5"/>
<circle cx="109.504" cy="308.152" r="6.43119" fill="#00C7A5"/>
<circle cx="115.936" cy="291.431" r="6.43119" fill="#00C7A5"/>
<circle cx="103.716" cy="371.178" r="6.43119" fill="#00C7A5"/>
<circle cx="128.798" cy="314.584" r="6.43119" fill="#00C7A5"/>
<circle cx="138.444" cy="297.862" r="6.43119" fill="#00C7A5"/>
<circle cx="158.381" cy="308.152" r="6.43119" fill="#00C7A5"/>
<circle cx="148.091" cy="327.446" r="6.43119" fill="#00C7A5"/>
<circle cx="122.367" cy="337.736" r="6.43119" fill="#00C7A5"/>
<circle cx="99.8575" cy="327.446" r="6.43119" fill="#00C7A5"/>
<circle cx="89.5674" cy="308.152" r="6.43119" fill="#00C7A5"/>
<circle cx="71.5601" cy="295.29" r="6.43119" fill="#00C7A5"/>
<circle cx="77.9912" cy="327.446" r="6.43119" fill="#00C7A5"/>
<circle cx="74.1329" cy="344.167" r="6.43119" fill="#00C7A5"/>
<circle cx="93.4263" cy="346.739" r="6.43119" fill="#00C7A5"/>
<circle cx="112.72" cy="354.457" r="6.43119" fill="#00C7A5"/>
<circle cx="61.6978" cy="381" r="6.43119" fill="#00C7A5"/>
<circle cx="80.564" cy="367.319" r="6.43119" fill="#00C7A5"/>
<circle cx="132.013" cy="360.888" r="6.43119" fill="#00C7A5"/>
<circle cx="141.66" cy="346.739" r="6.43119" fill="#00C7A5"/>
<circle cx="86.9952" cy="389.186" r="6.43119" fill="#00C7A5"/>
<circle cx="162.883" cy="342.881" r="6.43119" fill="#00C7A5"/>
<circle cx="152.593" cy="362.174" r="6.43119" fill="#00C7A5"/>
<circle cx="122.367" cy="382.754" r="6.43119" fill="#00C7A5"/>
<circle cx="146.162" cy="381.468" r="6.43119" fill="#00C7A5"/>
<circle cx="64.5713" cy="752" r="6.43119" fill="#00C7A5"/>
<circle cx="163.698" cy="737" r="6.43119" fill="#00C7A5"/>
<circle cx="83.2217" cy="758.431" r="6.43119" fill="#00C7A5"/>
<circle cx="145.698" cy="755" r="6.43119" fill="#00C7A5"/>
<circle cx="105.731" cy="764.862" r="6.43119" fill="#00C7A5"/>
<circle cx="125.668" cy="775.152" r="6.43119" fill="#00C7A5"/>
<circle cx="193.698" cy="719" r="6.43119" fill="#00C7A5"/>
<circle cx="219.698" cy="725" r="6.43119" fill="#00C7A5"/>
<circle cx="182.698" cy="737" r="6.43119" fill="#00C7A5"/>
<circle cx="168.698" cy="753" r="6.43119" fill="#00C7A5"/>
<circle cx="76.6978" cy="694" r="6.43119" fill="#00C7A5"/>
<circle cx="49.6978" cy="703" r="6.43119" fill="#00C7A5"/>
<circle cx="54.6978" cy="735" r="6.43119" fill="#00C7A5"/>
<circle cx="212.698" cy="684" r="6.43119" fill="#00C7A5"/>
<circle cx="68.6978" cy="723" r="6.43119" fill="#00C7A5"/>
<circle cx="63.6978" cy="662" r="6.43119" fill="#00C7A5"/>
<circle cx="202.698" cy="744" r="6.43119" fill="#00C7A5"/>
<circle cx="206.698" cy="700" r="6.43119" fill="#00C7A5"/>
<circle cx="78.6978" cy="671" r="6.43119" fill="#00C7A5"/>
<circle cx="45.6978" cy="755" r="6.43119" fill="#00C7A5"/>
<circle cx="210.698" cy="762" r="6.43119" fill="#00C7A5"/>
<circle cx="67.6978" cy="772" r="6.43119" fill="#00C7A5"/>
<circle cx="187.698" cy="762" r="6.43119" fill="#00C7A5"/>
<circle cx="157.698" cy="772" r="6.43119" fill="#00C7A5"/>
<circle cx="80.6978" cy="737" r="6.43119" fill="#00C7A5"/>
<path d="M58.3779 800.461C67.8777 781.461 66.3777 734.461 66.3777 734.461C66.3777 734.461 -1.23355 475.569 69.7668 321.069C93.0378 274.069 -25.2338 62.0689 58.2664 69.0688C141.767 76.0688 206.548 61.9911 250.878 82.5688C284.163 98.0198 233.938 161.025 250.878 227.069C290.377 381.069 222.146 545.853 187.378 676.961C179.82 705.461 185.878 709.961 209.878 800.461H58.3779Z" fill="#FBC800" fill-opacity="0.15"/>
</g>
<defs>
<clipPath id="clip0">
<rect width="300" height="783" fill="white"/>
</clipPath>
</defs>
</svg>
