<svg width="250" height="783" viewBox="0 0 250 783" fill="none" xmlns="http://www.w3.org/2000/svg">
<path d="M106.027 71.3488C81.0267 78.8488 78.627 93.9281 78.0267 133.349C77.5894 162.065 82.3421 171.107 106.027 187.349C130.504 204.135 135.524 200.341 160.527 184.349C185.251 168.535 188.476 162.694 188.027 133.349C187.334 88.0531 131.027 63.8487 106.027 71.3488Z" fill="#8D75F3" fill-opacity="0.2"/>
<circle cx="116.018" cy="78.4312" r="6.43119" fill="#00C7A5"/>
<circle cx="128.238" cy="101.584" r="6.43119" fill="#00C7A5"/>
<circle cx="134.669" cy="84.8623" r="6.43119" fill="#00C7A5"/>
<circle cx="122.45" cy="164.609" r="6.43119" fill="#00C7A5"/>
<circle cx="147.531" cy="108.015" r="6.43119" fill="#00C7A5"/>
<circle cx="157.178" cy="91.2935" r="6.43119" fill="#00C7A5"/>
<circle cx="177.115" cy="101.584" r="6.43119" fill="#00C7A5"/>
<circle cx="166.825" cy="120.877" r="6.43119" fill="#00C7A5"/>
<circle cx="141.1" cy="131.167" r="6.43119" fill="#00C7A5"/>
<circle cx="118.591" cy="120.877" r="6.43119" fill="#00C7A5"/>
<circle cx="108.301" cy="101.584" r="6.43119" fill="#00C7A5"/>
<circle cx="90.2935" cy="88.7212" r="6.43119" fill="#00C7A5"/>
<circle cx="96.7246" cy="120.877" r="6.43119" fill="#00C7A5"/>
<circle cx="92.8662" cy="137.598" r="6.43119" fill="#00C7A5"/>
<circle cx="112.16" cy="140.17" r="6.43119" fill="#00C7A5"/>
<circle cx="131.453" cy="147.888" r="6.43119" fill="#00C7A5"/>
<circle cx="77.4312" cy="114.446" r="6.43119" fill="#00C7A5"/>
<circle cx="99.2974" cy="160.751" r="6.43119" fill="#00C7A5"/>
<circle cx="150.747" cy="154.319" r="6.43119" fill="#00C7A5"/>
<circle cx="160.394" cy="140.17" r="6.43119" fill="#00C7A5"/>
<circle cx="105.729" cy="182.617" r="6.43119" fill="#00C7A5"/>
<circle cx="181.617" cy="136.312" r="6.43119" fill="#00C7A5"/>
<circle cx="171.327" cy="155.606" r="6.43119" fill="#00C7A5"/>
<circle cx="141.1" cy="176.185" r="6.43119" fill="#00C7A5"/>
<circle cx="164.896" cy="174.899" r="6.43119" fill="#00C7A5"/>
</svg>
