<svg width="287" height="300" viewBox="0 0 287 300" fill="none" xmlns="http://www.w3.org/2000/svg">
<circle cx="188.486" cy="187.486" r="7.48585" fill="#00C7A5" fill-opacity="0.25"/>
<circle cx="156.486" cy="187.486" r="7.48585" fill="#00C7A5" fill-opacity="0.25"/>
<circle cx="52.4859" cy="112.486" r="7.48585" fill="#00C7A5" fill-opacity="0.25"/>
<circle cx="76.4859" cy="187.486" r="7.48585" fill="#00C7A5" fill-opacity="0.25"/>
<circle cx="51.4859" cy="172.486" r="7.48585" fill="#00C7A5" fill-opacity="0.25"/>
<circle cx="116.486" cy="262.486" r="7.48585" fill="#00C7A5" fill-opacity="0.25"/>
<circle cx="220.486" cy="217.486" r="7.48585" fill="#00C7A5" fill-opacity="0.25"/>
<circle cx="260.486" cy="81.4859" r="7.48585" fill="#00C7A5" fill-opacity="0.25"/>
<circle cx="76.4859" cy="127.486" r="7.48585" fill="#00C7A5" fill-opacity="0.25"/>
<circle cx="228.486" cy="52.4859" r="7.48585" fill="#00C7A5" fill-opacity="0.25"/>
<circle cx="60.4859" cy="67.4859" r="7.48585" fill="#00C7A5" fill-opacity="0.25"/>
<circle cx="132.486" cy="202.486" r="7.48585" fill="#00C7A5" fill-opacity="0.25"/>
<circle cx="52.4859" cy="52.4859" r="7.48585" fill="#00C7A5" fill-opacity="0.25"/>
<circle cx="236.486" cy="187.486" r="7.48585" fill="#00C7A5" fill-opacity="0.25"/>
<circle cx="28.4859" cy="186.486" r="7.48585" fill="#00C7A5" fill-opacity="0.25"/>
<circle cx="236.486" cy="247.486" r="7.48585" fill="#00C7A5" fill-opacity="0.25"/>
<circle cx="268.486" cy="157.486" r="7.48585" fill="#00C7A5" fill-opacity="0.25"/>
<circle cx="148.486" cy="292.486" r="7.48585" fill="#00C7A5" fill-opacity="0.25"/>
<circle cx="60.4859" cy="127.486" r="7.48585" fill="#00C7A5" fill-opacity="0.25"/>
<circle cx="164.486" cy="202.486" r="7.48585" fill="#00C7A5" fill-opacity="0.25"/>
<circle cx="220.486" cy="187.486" r="7.48585" fill="#00C7A5" fill-opacity="0.25"/>
<circle cx="252.486" cy="157.486" r="7.48585" fill="#00C7A5" fill-opacity="0.25"/>
<circle cx="100.486" cy="262.486" r="7.48585" fill="#00C7A5" fill-opacity="0.25"/>
<circle cx="116.486" cy="202.486" r="7.48585" fill="#00C7A5" fill-opacity="0.25"/>
<circle cx="252.486" cy="187.486" r="7.48585" fill="#00C7A5" fill-opacity="0.25"/>
<circle cx="196.486" cy="262.486" r="7.48585" fill="#00C7A5" fill-opacity="0.25"/>
<circle cx="68.4859" cy="142.486" r="7.48585" fill="#00C7A5" fill-opacity="0.25"/>
<circle cx="180.486" cy="202.486" r="7.48585" fill="#00C7A5" fill-opacity="0.25"/>
<circle cx="44.4859" cy="157.486" r="7.48585" fill="#00C7A5" fill-opacity="0.25"/>
<circle cx="252.486" cy="67.4859" r="7.48585" fill="#00C7A5" fill-opacity="0.25"/>
<circle cx="52.4859" cy="202.486" r="7.48585" fill="#00C7A5" fill-opacity="0.25"/>
<circle cx="132.486" cy="292.486" r="7.48585" fill="#00C7A5" fill-opacity="0.25"/>
<circle cx="260.486" cy="172.486" r="7.48585" fill="#00C7A5" fill-opacity="0.25"/>
<circle cx="188.486" cy="277.486" r="7.48585" fill="#00C7A5" fill-opacity="0.25"/>
<circle cx="148.486" cy="172.486" r="7.48585" fill="#00C7A5" fill-opacity="0.25"/>
<circle cx="172.486" cy="187.486" r="7.48585" fill="#00C7A5" fill-opacity="0.25"/>
<circle cx="164.486" cy="232.486" r="7.48585" fill="#00C7A5" fill-opacity="0.25"/>
<circle cx="244.486" cy="172.486" r="7.48585" fill="#00C7A5" fill-opacity="0.25"/>
<circle cx="68.4859" cy="232.486" r="7.48585" fill="#00C7A5" fill-opacity="0.25"/>
<circle cx="220.486" cy="247.486" r="7.48585" fill="#00C7A5" fill-opacity="0.25"/>
<circle cx="188.486" cy="247.486" r="7.48585" fill="#00C7A5" fill-opacity="0.25"/>
<circle cx="36.4859" cy="81.4859" r="7.48585" fill="#00C7A5" fill-opacity="0.25"/>
<circle cx="68.4859" cy="112.486" r="7.48585" fill="#00C7A5" fill-opacity="0.25"/>
<circle cx="236.486" cy="97.4859" r="7.48585" fill="#00C7A5" fill-opacity="0.25"/>
<circle cx="52.4859" cy="142.486" r="7.48585" fill="#00C7A5" fill-opacity="0.25"/>
<circle cx="244.486" cy="52.4859" r="7.48585" fill="#00C7A5" fill-opacity="0.25"/>
<circle cx="44.4859" cy="127.486" r="7.48585" fill="#00C7A5" fill-opacity="0.25"/>
<circle cx="68.4859" cy="202.486" r="7.48585" fill="#00C7A5" fill-opacity="0.25"/>
<circle cx="44.4859" cy="217.486" r="7.48585" fill="#00C7A5" fill-opacity="0.25"/>
<circle cx="36.4859" cy="202.486" r="7.48585" fill="#00C7A5" fill-opacity="0.25"/>
<circle cx="268.486" cy="187.486" r="7.48585" fill="#00C7A5" fill-opacity="0.25"/>
<circle cx="20.4859" cy="202.486" r="7.48585" fill="#00C7A5" fill-opacity="0.25"/>
<circle cx="140.486" cy="67.4859" r="7.48585" fill="#00C7A5" fill-opacity="0.25"/>
<circle cx="124.486" cy="97.4859" r="7.48585" fill="#00C7A5" fill-opacity="0.25"/>
<circle cx="132.486" cy="82.4859" r="7.48585" fill="#00C7A5" fill-opacity="0.25"/>
<circle cx="132.486" cy="112.486" r="7.48585" fill="#00C7A5" fill-opacity="0.25"/>
<circle cx="140.486" cy="127.486" r="7.48585" fill="#00C7A5" fill-opacity="0.25"/>
<circle cx="132.486" cy="142.486" r="7.48585" fill="#00C7A5" fill-opacity="0.25"/>
<circle cx="140.486" cy="157.486" r="7.48585" fill="#00C7A5" fill-opacity="0.25"/>
<circle cx="188.486" cy="7.48585" r="7.48585" fill="#00C7A5" fill-opacity="0.25"/>
<circle cx="228.486" cy="172.486" r="7.48585" fill="#00C7A5" fill-opacity="0.25"/>
<circle cx="76.4859" cy="67.4859" r="7.48585" fill="#00C7A5" fill-opacity="0.25"/>
<circle cx="220.486" cy="97.4859" r="7.48585" fill="#00C7A5" fill-opacity="0.25"/>
<circle cx="124.486" cy="217.486" r="7.48585" fill="#00C7A5" fill-opacity="0.25"/>
<circle cx="60.4859" cy="37.4859" r="7.48585" fill="#00C7A5" fill-opacity="0.25"/>
<circle cx="108.486" cy="247.486" r="7.48585" fill="#00C7A5" fill-opacity="0.25"/>
<circle cx="268.486" cy="96.4859" r="7.48585" fill="#00C7A5" fill-opacity="0.25"/>
<circle cx="60.4859" cy="217.486" r="7.48585" fill="#00C7A5" fill-opacity="0.25"/>
<circle cx="212.486" cy="262.486" r="7.48585" fill="#00C7A5" fill-opacity="0.25"/>
<circle cx="76.4859" cy="157.486" r="7.48585" fill="#00C7A5" fill-opacity="0.25"/>
<circle cx="196.486" cy="202.486" r="7.48585" fill="#00C7A5" fill-opacity="0.25"/>
<circle cx="60.4859" cy="187.486" r="7.48585" fill="#00C7A5" fill-opacity="0.25"/>
<circle cx="260.486" cy="112.486" r="7.48585" fill="#00C7A5" fill-opacity="0.25"/>
<circle cx="44.4859" cy="186.486" r="7.48585" fill="#00C7A5" fill-opacity="0.25"/>
<circle cx="67.4859" cy="22.4859" r="7.48585" fill="#00C7A5" fill-opacity="0.25"/>
<circle cx="260.486" cy="142.486" r="7.48585" fill="#00C7A5" fill-opacity="0.25"/>
<circle cx="260.486" cy="232.486" r="7.48585" fill="#00C7A5" fill-opacity="0.25"/>
<circle cx="132.486" cy="172.486" r="7.48585" fill="#00C7A5" fill-opacity="0.25"/>
<circle cx="60.4859" cy="97.4859" r="7.48585" fill="#00C7A5" fill-opacity="0.25"/>
<circle cx="148.486" cy="232.486" r="7.48585" fill="#00C7A5" fill-opacity="0.25"/>
<circle cx="228.486" cy="202.486" r="7.48585" fill="#00C7A5" fill-opacity="0.25"/>
<circle cx="204.486" cy="247.486" r="7.48585" fill="#00C7A5" fill-opacity="0.25"/>
<circle cx="252.486" cy="37.4859" r="7.48585" fill="#00C7A5" fill-opacity="0.25"/>
<circle cx="236.486" cy="217.486" r="7.48585" fill="#00C7A5" fill-opacity="0.25"/>
<circle cx="44.4859" cy="67.4859" r="7.48585" fill="#00C7A5" fill-opacity="0.25"/>
<circle cx="228.486" cy="112.486" r="7.48585" fill="#00C7A5" fill-opacity="0.25"/>
<circle cx="228.486" cy="82.4859" r="7.48585" fill="#00C7A5" fill-opacity="0.25"/>
<circle cx="60.4859" cy="157.486" r="7.48585" fill="#00C7A5" fill-opacity="0.25"/>
<circle cx="229.486" cy="22.4859" r="7.48585" fill="#00C7A5" fill-opacity="0.25"/>
<circle cx="204.486" cy="217.486" r="7.48585" fill="#00C7A5" fill-opacity="0.25"/>
<circle cx="36.4859" cy="112.486" r="7.48585" fill="#00C7A5" fill-opacity="0.25"/>
<circle cx="148.486" cy="262.486" r="7.48585" fill="#00C7A5" fill-opacity="0.25"/>
<circle cx="28.4859" cy="67.4859" r="7.48585" fill="#00C7A5" fill-opacity="0.25"/>
<circle cx="244.486" cy="232.486" r="7.48585" fill="#00C7A5" fill-opacity="0.25"/>
<circle cx="20.4859" cy="81.4859" r="7.48585" fill="#00C7A5" fill-opacity="0.25"/>
<circle cx="204.486" cy="37.4859" r="7.48585" fill="#00C7A5" fill-opacity="0.25"/>
<circle cx="83.4859" cy="172.486" r="7.48585" fill="#00C7A5" fill-opacity="0.25"/>
<circle cx="236.486" cy="67.4859" r="7.48585" fill="#00C7A5" fill-opacity="0.25"/>
<circle cx="84.4859" cy="202.486" r="7.48585" fill="#00C7A5" fill-opacity="0.25"/>
<circle cx="252.486" cy="97.4859" r="7.48585" fill="#00C7A5" fill-opacity="0.25"/>
<circle cx="28.4859" cy="157.486" r="7.48585" fill="#00C7A5" fill-opacity="0.25"/>
<circle cx="52.4859" cy="232.486" r="7.48585" fill="#00C7A5" fill-opacity="0.25"/>
<circle cx="268.486" cy="217.486" r="7.48585" fill="#00C7A5" fill-opacity="0.25"/>
<circle cx="52.4859" cy="81.4859" r="7.48585" fill="#00C7A5" fill-opacity="0.25"/>
<circle cx="124.486" cy="7.48585" r="7.48585" fill="#00C7A5" fill-opacity="0.25"/>
<circle cx="156.486" cy="7.48585" r="7.48585" fill="#00C7A5" fill-opacity="0.25"/>
<circle cx="116.486" cy="172.486" r="7.48585" fill="#00C7A5" fill-opacity="0.25"/>
<circle cx="172.486" cy="277.486" r="7.48585" fill="#00C7A5" fill-opacity="0.25"/>
<circle cx="132.486" cy="232.486" r="7.48585" fill="#00C7A5" fill-opacity="0.25"/>
<circle cx="12.4859" cy="96.4859" r="7.48585" fill="#00C7A5" fill-opacity="0.25"/>
<circle cx="164.486" cy="262.486" r="7.48585" fill="#00C7A5" fill-opacity="0.25"/>
<circle cx="276.486" cy="142.486" r="7.48585" fill="#00C7A5" fill-opacity="0.25"/>
<circle cx="220.486" cy="37.4859" r="7.48585" fill="#00C7A5" fill-opacity="0.25"/>
<circle cx="44.4859" cy="246.486" r="7.48585" fill="#00C7A5" fill-opacity="0.25"/>
<circle cx="140.486" cy="7.48585" r="7.48585" fill="#00C7A5" fill-opacity="0.25"/>
<circle cx="236.486" cy="127.486" r="7.48585" fill="#00C7A5" fill-opacity="0.25"/>
<circle cx="172.486" cy="7.48585" r="7.48585" fill="#00C7A5" fill-opacity="0.25"/>
<circle cx="67.4859" cy="172.486" r="7.48585" fill="#00C7A5" fill-opacity="0.25"/>
<circle cx="92.4859" cy="277.486" r="7.48585" fill="#00C7A5" fill-opacity="0.25"/>
<circle cx="100.486" cy="232.486" r="7.48585" fill="#00C7A5" fill-opacity="0.25"/>
<circle cx="83.4859" cy="22.4859" r="7.48585" fill="#00C7A5" fill-opacity="0.25"/>
<circle cx="76.4859" cy="247.486" r="7.48585" fill="#00C7A5" fill-opacity="0.25"/>
<circle cx="36.4859" cy="52.4859" r="7.48585" fill="#00C7A5" fill-opacity="0.25"/>
<circle cx="68.4859" cy="262.486" r="7.48585" fill="#00C7A5" fill-opacity="0.25"/>
<circle cx="84.4859" cy="262.486" r="7.48585" fill="#00C7A5" fill-opacity="0.25"/>
<circle cx="172.486" cy="67.4859" r="7.48585" fill="#00C7A5" fill-opacity="0.25"/>
<circle cx="156.486" cy="97.4859" r="7.48585" fill="#00C7A5" fill-opacity="0.25"/>
<circle cx="164.486" cy="82.4859" r="7.48585" fill="#00C7A5" fill-opacity="0.25"/>
<circle cx="164.486" cy="112.486" r="7.48585" fill="#00C7A5" fill-opacity="0.25"/>
<circle cx="172.486" cy="127.486" r="7.48585" fill="#00C7A5" fill-opacity="0.25"/>
<circle cx="164.486" cy="142.486" r="7.48585" fill="#00C7A5" fill-opacity="0.25"/>
<circle cx="172.486" cy="157.486" r="7.48585" fill="#00C7A5" fill-opacity="0.25"/>
<circle cx="100.486" cy="172.486" r="7.48585" fill="#00C7A5" fill-opacity="0.25"/>
<circle cx="180.486" cy="172.486" r="7.48585" fill="#00C7A5" fill-opacity="0.25"/>
<circle cx="116.486" cy="232.486" r="7.48585" fill="#00C7A5" fill-opacity="0.25"/>
<circle cx="156.486" cy="217.486" r="7.48585" fill="#00C7A5" fill-opacity="0.25"/>
<circle cx="180.486" cy="262.486" r="7.48585" fill="#00C7A5" fill-opacity="0.25"/>
<circle cx="20.4859" cy="112.486" r="7.48585" fill="#00C7A5" fill-opacity="0.25"/>
<circle cx="140.486" cy="247.486" r="7.48585" fill="#00C7A5" fill-opacity="0.25"/>
<circle cx="268.486" cy="127.486" r="7.48585" fill="#00C7A5" fill-opacity="0.25"/>
<circle cx="140.486" cy="37.4859" r="7.48585" fill="#00C7A5" fill-opacity="0.25"/>
<circle cx="172.486" cy="37.4859" r="7.48585" fill="#00C7A5" fill-opacity="0.25"/>
<circle cx="100.486" cy="22.4859" r="7.48585" fill="#00C7A5" fill-opacity="0.25"/>
<circle cx="140.486" cy="187.486" r="7.48585" fill="#00C7A5" fill-opacity="0.25"/>
<circle cx="132.486" cy="22.4859" r="7.48585" fill="#00C7A5" fill-opacity="0.25"/>
<circle cx="92.4859" cy="217.486" r="7.48585" fill="#00C7A5" fill-opacity="0.25"/>
<circle cx="164.486" cy="22.4859" r="7.48585" fill="#00C7A5" fill-opacity="0.25"/>
<circle cx="180.486" cy="22.4859" r="7.48585" fill="#00C7A5" fill-opacity="0.25"/>
<circle cx="84.4859" cy="232.486" r="7.48585" fill="#00C7A5" fill-opacity="0.25"/>
<circle cx="260.486" cy="202.486" r="7.48585" fill="#00C7A5" fill-opacity="0.25"/>
<circle cx="156.486" cy="67.4859" r="7.48585" fill="#00C7A5" fill-opacity="0.25"/>
<circle cx="140.486" cy="97.4859" r="7.48585" fill="#00C7A5" fill-opacity="0.25"/>
<circle cx="148.486" cy="82.4859" r="7.48585" fill="#00C7A5" fill-opacity="0.25"/>
<circle cx="148.486" cy="112.486" r="7.48585" fill="#00C7A5" fill-opacity="0.25"/>
<circle cx="156.486" cy="127.486" r="7.48585" fill="#00C7A5" fill-opacity="0.25"/>
<circle cx="148.486" cy="142.486" r="7.48585" fill="#00C7A5" fill-opacity="0.25"/>
<circle cx="156.486" cy="157.486" r="7.48585" fill="#00C7A5" fill-opacity="0.25"/>
<circle cx="84.4859" cy="52.4859" r="7.48585" fill="#00C7A5" fill-opacity="0.25"/>
<circle cx="132.486" cy="52.4859" r="7.48585" fill="#00C7A5" fill-opacity="0.25"/>
<circle cx="204.486" cy="187.486" r="7.48585" fill="#00C7A5" fill-opacity="0.25"/>
<circle cx="164.486" cy="52.4859" r="7.48585" fill="#00C7A5" fill-opacity="0.25"/>
<circle cx="140.486" cy="217.486" r="7.48585" fill="#00C7A5" fill-opacity="0.25"/>
<circle cx="196.486" cy="52.4859" r="7.48585" fill="#00C7A5" fill-opacity="0.25"/>
<circle cx="76.4859" cy="217.486" r="7.48585" fill="#00C7A5" fill-opacity="0.25"/>
<circle cx="260.486" cy="52.4859" r="7.48585" fill="#00C7A5" fill-opacity="0.25"/>
<circle cx="108.486" cy="37.4859" r="7.48585" fill="#00C7A5" fill-opacity="0.25"/>
<circle cx="76.4859" cy="37.4859" r="7.48585" fill="#00C7A5" fill-opacity="0.25"/>
<circle cx="156.486" cy="37.4859" r="7.48585" fill="#00C7A5" fill-opacity="0.25"/>
<circle cx="188.486" cy="37.4859" r="7.48585" fill="#00C7A5" fill-opacity="0.25"/>
<circle cx="244.486" cy="112.486" r="7.48585" fill="#00C7A5" fill-opacity="0.25"/>
<circle cx="116.486" cy="22.4859" r="7.48585" fill="#00C7A5" fill-opacity="0.25"/>
<circle cx="148.486" cy="202.486" r="7.48585" fill="#00C7A5" fill-opacity="0.25"/>
<circle cx="148.486" cy="22.4859" r="7.48585" fill="#00C7A5" fill-opacity="0.25"/>
<circle cx="180.486" cy="232.486" r="7.48585" fill="#00C7A5" fill-opacity="0.25"/>
<circle cx="68.4859" cy="52.4859" r="7.48585" fill="#00C7A5" fill-opacity="0.25"/>
<circle cx="196.486" cy="22.4859" r="7.48585" fill="#00C7A5" fill-opacity="0.25"/>
<circle cx="212.486" cy="22.4859" r="7.48585" fill="#00C7A5" fill-opacity="0.25"/>
<circle cx="228.486" cy="232.486" r="7.48585" fill="#00C7A5" fill-opacity="0.25"/>
<circle cx="276.486" cy="112.486" r="7.48585" fill="#00C7A5" fill-opacity="0.25"/>
<circle cx="116.486" cy="52.4859" r="7.48585" fill="#00C7A5" fill-opacity="0.25"/>
<circle cx="100.486" cy="52.4859" r="7.48585" fill="#00C7A5" fill-opacity="0.25"/>
<circle cx="148.486" cy="52.4859" r="7.48585" fill="#6CBAFA"/>
<circle cx="124.486" cy="187.486" r="7.48585" fill="#00C7A5" fill-opacity="0.25"/>
<circle cx="180.486" cy="52.4859" r="7.48585" fill="#00C7A5" fill-opacity="0.25"/>
<circle cx="252.486" cy="127.486" r="7.48585" fill="#00C7A5" fill-opacity="0.25"/>
<circle cx="212.486" cy="52.4859" r="7.48585" fill="#00C7A5" fill-opacity="0.25"/>
<circle cx="35.4859" cy="172.486" r="7.48585" fill="#00C7A5" fill-opacity="0.25"/>
<circle cx="108.486" cy="277.486" r="7.48585" fill="#00C7A5" fill-opacity="0.25"/>
<circle cx="124.486" cy="37.4859" r="7.48585" fill="#00C7A5" fill-opacity="0.25"/>
<circle cx="92.4859" cy="37.4859" r="7.48585" fill="#00C7A5" fill-opacity="0.25"/>
<circle cx="228.486" cy="142.486" r="7.48585" fill="#00C7A5" fill-opacity="0.25"/>
<circle cx="92.4859" cy="187.486" r="7.48585" fill="#00C7A5" fill-opacity="0.25"/>
<circle cx="108.486" cy="187.486" r="7.48585" fill="#00C7A5" fill-opacity="0.25"/>
<circle cx="196.486" cy="232.486" r="7.48585" fill="#00C7A5" fill-opacity="0.25"/>
<circle cx="44.4859" cy="96.4859" r="7.48585" fill="#00C7A5" fill-opacity="0.25"/>
<circle cx="132.486" cy="262.486" r="7.48585" fill="#00C7A5" fill-opacity="0.25"/>
<circle cx="140.486" cy="277.486" r="7.48585" fill="#00C7A5" fill-opacity="0.25"/>
<circle cx="36.4859" cy="142.486" r="7.48585" fill="#00C7A5" fill-opacity="0.25"/>
<circle cx="124.486" cy="277.486" r="7.48585" fill="#00C7A5" fill-opacity="0.25"/>
<circle cx="92.4859" cy="67.4859" r="7.48585" fill="#00C7A5" fill-opacity="0.25"/>
<circle cx="76.4859" cy="97.4859" r="7.48585" fill="#00C7A5" fill-opacity="0.25"/>
<circle cx="84.4859" cy="82.4859" r="7.48585" fill="#00C7A5" fill-opacity="0.25"/>
<circle cx="84.4859" cy="112.486" r="7.48585" fill="#00C7A5" fill-opacity="0.25"/>
<circle cx="92.4859" cy="127.486" r="7.48585" fill="#00C7A5" fill-opacity="0.25"/>
<circle cx="84.4859" cy="142.486" r="7.48585" fill="#00C7A5" fill-opacity="0.25"/>
<circle cx="92.4859" cy="157.486" r="7.48585" fill="#00C7A5" fill-opacity="0.25"/>
<circle cx="188.486" cy="67.4859" r="7.48585" fill="#00C7A5" fill-opacity="0.25"/>
<circle cx="172.486" cy="97.4859" r="7.48585" fill="#00C7A5" fill-opacity="0.25"/>
<circle cx="180.486" cy="82.4859" r="7.48585" fill="#00C7A5" fill-opacity="0.25"/>
<circle cx="180.486" cy="112.486" r="7.48585" fill="#00C7A5" fill-opacity="0.25"/>
<circle cx="188.486" cy="127.486" r="7.48585" fill="#00C7A5" fill-opacity="0.25"/>
<circle cx="180.486" cy="142.486" r="7.48585" fill="#00C7A5" fill-opacity="0.25"/>
<circle cx="188.486" cy="157.486" r="7.48585" fill="#00C7A5" fill-opacity="0.25"/>
<circle cx="68.4859" cy="82.4859" r="7.48585" fill="#00C7A5" fill-opacity="0.25"/>
<circle cx="60.4859" cy="246.486" r="7.48585" fill="#00C7A5" fill-opacity="0.25"/>
<circle cx="196.486" cy="172.486" r="7.48585" fill="#00C7A5" fill-opacity="0.25"/>
<circle cx="164.486" cy="172.486" r="7.48585" fill="#00C7A5" fill-opacity="0.25"/>
<circle cx="172.486" cy="217.486" r="7.48585" fill="#00C7A5" fill-opacity="0.25"/>
<circle cx="212.486" cy="232.486" r="7.48585" fill="#00C7A5" fill-opacity="0.25"/>
<circle cx="156.486" cy="277.486" r="7.48585" fill="#00C7A5" fill-opacity="0.25"/>
<circle cx="156.486" cy="247.486" r="7.48585" fill="#00C7A5" fill-opacity="0.25"/>
<circle cx="28.4859" cy="127.486" r="7.48585" fill="#00C7A5" fill-opacity="0.25"/>
<circle cx="108.486" cy="67.4859" r="7.48585" fill="#00C7A5" fill-opacity="0.25"/>
<circle cx="92.4859" cy="97.4859" r="7.48585" fill="#00C7A5" fill-opacity="0.25"/>
<circle cx="100.486" cy="82.4859" r="7.48585" fill="#00C7A5" fill-opacity="0.25"/>
<circle cx="100.486" cy="112.486" r="7.48585" fill="#00C7A5" fill-opacity="0.25"/>
<circle cx="108.486" cy="127.486" r="7.48585" fill="#00C7A5" fill-opacity="0.25"/>
<circle cx="100.486" cy="142.486" r="7.48585" fill="#00C7A5" fill-opacity="0.25"/>
<circle cx="108.486" cy="157.486" r="7.48585" fill="#00C7A5" fill-opacity="0.25"/>
<circle cx="204.486" cy="67.4859" r="7.48585" fill="#00C7A5" fill-opacity="0.25"/>
<circle cx="188.486" cy="97.4859" r="7.48585" fill="#00C7A5" fill-opacity="0.25"/>
<circle cx="196.486" cy="82.4859" r="7.48585" fill="#00C7A5" fill-opacity="0.25"/>
<circle cx="196.486" cy="112.486" r="7.48585" fill="#00C7A5" fill-opacity="0.25"/>
<circle cx="204.486" cy="127.486" r="7.48585" fill="#00C7A5" fill-opacity="0.25"/>
<circle cx="196.486" cy="142.486" r="7.48585" fill="#00C7A5" fill-opacity="0.25"/>
<circle cx="204.486" cy="157.486" r="7.48585" fill="#00C7A5" fill-opacity="0.25"/>
<circle cx="244.486" cy="142.486" r="7.48585" fill="#00C7A5" fill-opacity="0.25"/>
<circle cx="212.486" cy="172.486" r="7.48585" fill="#00C7A5" fill-opacity="0.25"/>
<circle cx="100.486" cy="202.486" r="7.48585" fill="#00C7A5" fill-opacity="0.25"/>
<circle cx="188.486" cy="217.486" r="7.48585" fill="#00C7A5" fill-opacity="0.25"/>
<circle cx="124.486" cy="247.486" r="7.48585" fill="#00C7A5" fill-opacity="0.25"/>
<circle cx="28.4859" cy="96.4859" r="7.48585" fill="#00C7A5" fill-opacity="0.25"/>
<circle cx="92.4859" cy="247.486" r="7.48585" fill="#00C7A5" fill-opacity="0.25"/>
<circle cx="252.486" cy="217.486" r="7.48585" fill="#00C7A5" fill-opacity="0.25"/>
<circle cx="124.486" cy="67.4859" r="7.48585" fill="#00C7A5" fill-opacity="0.25"/>
<circle cx="108.486" cy="97.4859" r="7.48585" fill="#00C7A5" fill-opacity="0.25"/>
<circle cx="116.486" cy="82.4859" r="7.48585" fill="#00C7A5" fill-opacity="0.25"/>
<circle cx="116.486" cy="112.486" r="7.48585" fill="#00C7A5" fill-opacity="0.25"/>
<circle cx="124.486" cy="127.486" r="7.48585" fill="#00C7A5" fill-opacity="0.25"/>
<circle cx="116.486" cy="142.486" r="7.48585" fill="#00C7A5" fill-opacity="0.25"/>
<circle cx="124.486" cy="157.486" r="7.48585" fill="#00C7A5" fill-opacity="0.25"/>
<circle cx="220.486" cy="67.4859" r="7.48585" fill="#00C7A5" fill-opacity="0.25"/>
<circle cx="204.486" cy="97.4859" r="7.48585" fill="#00C7A5" fill-opacity="0.25"/>
<circle cx="212.486" cy="82.4859" r="7.48585" fill="#00C7A5" fill-opacity="0.25"/>
<circle cx="212.486" cy="112.486" r="7.48585" fill="#00C7A5" fill-opacity="0.25"/>
<circle cx="220.486" cy="127.486" r="7.48585" fill="#00C7A5" fill-opacity="0.25"/>
<circle cx="212.486" cy="142.486" r="7.48585" fill="#00C7A5" fill-opacity="0.25"/>
<circle cx="220.486" cy="157.486" r="7.48585" fill="#00C7A5" fill-opacity="0.25"/>
<circle cx="236.486" cy="157.486" r="7.48585" fill="#00C7A5" fill-opacity="0.25"/>
<circle cx="244.486" cy="82.4859" r="7.48585" fill="#00C7A5" fill-opacity="0.25"/>
<circle cx="108.486" cy="217.486" r="7.48585" fill="#00C7A5" fill-opacity="0.25"/>
<circle cx="212.486" cy="202.486" r="7.48585" fill="#00C7A5" fill-opacity="0.25"/>
<circle cx="244.486" cy="202.486" r="7.48585" fill="#00C7A5" fill-opacity="0.25"/>
<circle cx="20.4859" cy="142.486" r="7.48585" fill="#00C7A5" fill-opacity="0.25"/>
<circle cx="172.486" cy="247.486" r="7.48585" fill="#00C7A5" fill-opacity="0.25"/>
<circle cx="236.486" cy="37.4859" r="7.48585" fill="#00C7A5" fill-opacity="0.25"/>
</svg>
