<svg width="287" height="300" viewBox="0 0 287 300" fill="none" xmlns="http://www.w3.org/2000/svg">
<circle cx="111.486" cy="22.4859" r="7.48585" fill="#00C7A5" fill-opacity="0.25"/>
<circle cx="111.486" cy="52.4859" r="7.48585" fill="#00C7A5" fill-opacity="0.25"/>
<circle cx="119.486" cy="37.4859" r="7.48585" fill="#00C7A5" fill-opacity="0.25"/>
<circle cx="175.486" cy="82.4859" r="7.48585" fill="#00C7A5" fill-opacity="0.25"/>
<circle cx="135.486" cy="37.4859" r="7.48585" fill="#00C7A5" fill-opacity="0.25"/>
<circle cx="119.486" cy="67.4859" r="7.48585" fill="#00C7A5" fill-opacity="0.25"/>
<circle cx="127.486" cy="22.4859" r="7.48585" fill="#00C7A5" fill-opacity="0.25"/>
<circle cx="127.486" cy="52.4859" r="7.48585" fill="#00C7A5" fill-opacity="0.25"/>
<circle cx="127.486" cy="82.4859" r="7.48585" fill="#00C7A5" fill-opacity="0.25"/>
<circle cx="151.486" cy="7.48585" r="7.48585" fill="#00C7A5" fill-opacity="0.25"/>
<circle cx="151.486" cy="37.4859" r="7.48585" fill="#00C7A5" fill-opacity="0.25"/>
<circle cx="135.486" cy="67.4859" r="7.48585" fill="#00C7A5" fill-opacity="0.25"/>
<circle cx="143.486" cy="22.4859" r="7.48585" fill="#00C7A5" fill-opacity="0.25"/>
<circle cx="143.486" cy="52.4859" r="7.48585" fill="#8D75F3"/>
<circle cx="143.486" cy="82.4859" r="7.48585" fill="#00C7A5" fill-opacity="0.25"/>
<circle cx="167.486" cy="37.4859" r="7.48585" fill="#00C7A5" fill-opacity="0.25"/>
<circle cx="151.486" cy="67.4859" r="7.48585" fill="#00C7A5" fill-opacity="0.25"/>
<circle cx="159.486" cy="22.4859" r="7.48585" fill="#00C7A5" fill-opacity="0.25"/>
<circle cx="159.486" cy="52.4859" r="7.48585" fill="#00C7A5" fill-opacity="0.25"/>
<circle cx="159.486" cy="82.4859" r="7.48585" fill="#00C7A5" fill-opacity="0.25"/>
<circle cx="175.486" cy="22.4859" r="7.48585" fill="#00C7A5" fill-opacity="0.25"/>
<circle cx="135.486" cy="97.4859" r="7.48585" fill="#00C7A5" fill-opacity="0.25"/>
<circle cx="183.486" cy="37.4859" r="7.48585" fill="#00C7A5" fill-opacity="0.25"/>
<circle cx="167.486" cy="67.4859" r="7.48585" fill="#00C7A5" fill-opacity="0.25"/>
<circle cx="111.486" cy="82.4859" r="7.48585" fill="#00C7A5" fill-opacity="0.25"/>
<circle cx="175.486" cy="52.4859" r="7.48585" fill="#00C7A5" fill-opacity="0.25"/>
<circle cx="151.486" cy="97.4859" r="7.48585" fill="#00C7A5" fill-opacity="0.25"/>
<circle cx="135.486" cy="7.48585" r="7.48585" fill="#00C7A5" fill-opacity="0.25"/>
<circle cx="103.486" cy="67.4859" r="7.48585" fill="#00C7A5" fill-opacity="0.25"/>
</svg>
