<svg width="220" height="212" viewBox="0 0 220 212" fill="none" xmlns="http://www.w3.org/2000/svg">
<rect y="212" width="5" height="220" transform="rotate(-90 0 212)" fill="#8D75F3"/>
<rect width="220" height="207" fill="white"/>
<path d="M71.7695 113H66.3398V100.676H58.293V113H52.8438V84.5625H58.293V96.2227H66.3398V84.5625H71.7695V113ZM97.4922 101.262H75.6562V96.8281H97.4922V101.262ZM120.793 104.094C120.702 105.526 120.389 106.815 119.855 107.961C119.335 109.107 118.632 110.083 117.746 110.891C116.861 111.698 115.806 112.323 114.582 112.766C113.358 113.195 112.004 113.41 110.52 113.41C108.84 113.41 107.349 113.104 106.047 112.492C104.745 111.867 103.651 111.001 102.766 109.895C101.88 108.775 101.203 107.434 100.734 105.871C100.266 104.309 100.031 102.59 100.031 100.715V96.8867C100.031 94.9987 100.279 93.2734 100.773 91.7109C101.268 90.1484 101.971 88.8073 102.883 87.6875C103.794 86.5677 104.895 85.7018 106.184 85.0898C107.486 84.4648 108.944 84.1523 110.559 84.1523C112.121 84.1523 113.508 84.3737 114.719 84.8164C115.943 85.2591 116.984 85.8906 117.844 86.7109C118.703 87.5312 119.38 88.5339 119.875 89.7188C120.37 90.9036 120.682 92.2383 120.812 93.7227H115.344C115.292 92.8763 115.161 92.1341 114.953 91.4961C114.758 90.8581 114.465 90.3307 114.074 89.9141C113.697 89.4844 113.215 89.1654 112.629 88.957C112.056 88.7357 111.366 88.625 110.559 88.625C109.712 88.625 108.977 88.8073 108.352 89.1719C107.727 89.5365 107.206 90.0703 106.789 90.7734C106.385 91.4766 106.086 92.3424 105.891 93.3711C105.695 94.3867 105.598 95.5456 105.598 96.8477V100.715C105.598 103.514 105.988 105.585 106.77 106.926C107.564 108.267 108.814 108.938 110.52 108.938C111.952 108.938 113.085 108.56 113.918 107.805C114.751 107.036 115.214 105.799 115.305 104.094H120.793ZM145.539 101.262H123.703V96.8281H145.539V101.262ZM167.863 113H162.434V100.676H154.387V113H148.938V84.5625H154.387V96.2227H162.434V84.5625H167.863V113Z" fill="#8D75F3"/>
<path d="M117.816 53H112.387V40.6758H104.34V53H98.8906V24.5625H104.34V36.2227H112.387V24.5625H117.816V53Z" fill="#8D75F3"/>
<path d="M119.816 175H114.387V162.676H106.34V175H100.891V146.562H106.34V158.223H114.387V146.562H119.816V175Z" fill="#8D75F3"/>
<line x1="110.25" y1="120" x2="110.25" y2="142.24" stroke="#8D75F3" stroke-width="4.5"/>
<line x1="108.25" y1="57" x2="108.25" y2="79.24" stroke="#8D75F3" stroke-width="4.5"/>
</svg>
