<svg width="223" height="337" viewBox="0 0 223 337" fill="none" xmlns="http://www.w3.org/2000/svg">
<circle r="7.5" transform="matrix(-1 -8.74228e-08 -8.74228e-08 1 8.49768 30.5)" fill="#8D75F3"/>
<circle r="7.5" transform="matrix(-1 -8.74228e-08 -8.74228e-08 1 8.4978 53.5)" fill="#8D75F3"/>
<circle r="7.5" transform="matrix(-1 -8.74228e-08 -8.74228e-08 1 8.4978 145.5)" fill="#8D75F3"/>
<circle r="7.5" transform="matrix(-1 -8.74228e-08 -8.74228e-08 1 8.4978 168.5)" fill="#8D75F3"/>
<circle r="7.5" transform="matrix(-1 -8.74228e-08 -8.74228e-08 1 8.4978 122.5)" fill="#8D75F3"/>
<circle r="7.5" transform="matrix(-1 -8.74228e-08 -8.74228e-08 1 8.4978 99.5)" fill="#8D75F3"/>
<circle r="7.5" transform="matrix(-1 -8.74228e-08 -8.74228e-08 1 8.4978 7.5)" fill="#8D75F3"/>
<circle r="7.5" transform="matrix(-1 -8.74228e-08 -8.74228e-08 1 8.4978 76.5)" fill="#8D75F3"/>
<circle r="7.5" transform="matrix(-1 -8.74228e-08 -8.74228e-08 1 8.4978 237.5)" fill="#8D75F3"/>
<circle r="7.5" transform="matrix(-1 -8.74228e-08 -8.74228e-08 1 8.49768 260.5)" fill="#8D75F3"/>
<circle r="7.5" transform="matrix(-1 -8.74228e-08 -8.74228e-08 1 8.4978 329.5)" fill="#8D75F3"/>
<circle r="7.5" transform="matrix(-1 -8.74228e-08 -8.74228e-08 1 8.4978 306.5)" fill="#8D75F3"/>
<circle r="7.5" transform="matrix(-1 -8.74228e-08 -8.74228e-08 1 8.4978 283.5)" fill="#8D75F3"/>
<circle r="7.5" transform="matrix(-1 -8.74228e-08 -8.74228e-08 1 8.4978 214.5)" fill="#8D75F3"/>
<circle r="7.5" transform="matrix(-1 -8.74228e-08 -8.74228e-08 1 8.4978 191.5)" fill="#8D75F3"/>
<circle r="7.5" transform="matrix(-1 -8.74228e-08 -8.74228e-08 1 8.4978 260.5)" fill="#8D75F3"/>
<circle r="7.5" transform="matrix(-1 -8.74228e-08 -8.74228e-08 1 31.4979 30.5)" fill="#8D75F3"/>
<circle r="7.5" transform="matrix(-1 -8.74228e-08 -8.74228e-08 1 31.498 53.5)" fill="#8D75F3"/>
<circle r="7.5" transform="matrix(-1 -8.74228e-08 -8.74228e-08 1 31.498 145.5)" fill="#8D75F3"/>
<circle r="7.5" transform="matrix(-1 -8.74228e-08 -8.74228e-08 1 31.498 168.5)" fill="#8D75F3"/>
<circle r="7.5" transform="matrix(-1 -8.74228e-08 -8.74228e-08 1 31.498 122.5)" fill="#8D75F3"/>
<circle r="7.5" transform="matrix(-1 -8.74228e-08 -8.74228e-08 1 31.498 99.5)" fill="#8D75F3"/>
<circle r="7.5" transform="matrix(-1 -8.74228e-08 -8.74228e-08 1 31.498 7.5)" fill="#8D75F3"/>
<circle r="7.5" transform="matrix(-1 -8.74228e-08 -8.74228e-08 1 31.498 76.5)" fill="#8D75F3"/>
<circle r="7.5" transform="matrix(-1 -8.74228e-08 -8.74228e-08 1 31.498 237.5)" fill="#8D75F3"/>
<circle r="7.5" transform="matrix(-1 -8.74228e-08 -8.74228e-08 1 31.4979 260.5)" fill="#8D75F3"/>
<circle r="7.5" transform="matrix(-1 -8.74228e-08 -8.74228e-08 1 31.498 329.5)" fill="#8D75F3"/>
<circle r="7.5" transform="matrix(-1 -8.74228e-08 -8.74228e-08 1 31.498 306.5)" fill="#8D75F3"/>
<circle r="7.5" transform="matrix(-1 -8.74228e-08 -8.74228e-08 1 31.498 283.5)" fill="#8D75F3"/>
<circle r="7.5" transform="matrix(-1 -8.74228e-08 -8.74228e-08 1 31.498 214.5)" fill="#8D75F3"/>
<circle r="7.5" transform="matrix(-1 -8.74228e-08 -8.74228e-08 1 31.498 191.5)" fill="#8D75F3"/>
<circle r="7.5" transform="matrix(-1 -8.74228e-08 -8.74228e-08 1 31.498 260.5)" fill="#8D75F3"/>
<circle r="7.5" transform="matrix(-1 -8.74228e-08 -8.74228e-08 1 54.4982 30.5)" fill="#8D75F3"/>
<circle r="7.5" transform="matrix(-1 -8.74228e-08 -8.74228e-08 1 54.4983 53.5)" fill="#8D75F3"/>
<circle r="7.5" transform="matrix(-1 -8.74228e-08 -8.74228e-08 1 54.4983 145.5)" fill="#8D75F3"/>
<circle r="7.5" transform="matrix(-1 -8.74228e-08 -8.74228e-08 1 54.4983 168.5)" fill="#8D75F3"/>
<circle r="7.5" transform="matrix(-1 -8.74228e-08 -8.74228e-08 1 54.4983 122.5)" fill="#8D75F3"/>
<circle r="7.5" transform="matrix(-1 -8.74228e-08 -8.74228e-08 1 54.4983 99.5)" fill="#8D75F3"/>
<circle r="7.5" transform="matrix(-1 -8.74228e-08 -8.74228e-08 1 54.4983 7.5)" fill="#8D75F3"/>
<circle r="7.5" transform="matrix(-1 -8.74228e-08 -8.74228e-08 1 54.4983 76.5)" fill="#8D75F3"/>
<circle r="7.5" transform="matrix(-1 -8.74228e-08 -8.74228e-08 1 54.4983 237.5)" fill="#8D75F3"/>
<circle r="7.5" transform="matrix(-1 -8.74228e-08 -8.74228e-08 1 54.4982 260.5)" fill="#8D75F3"/>
<circle r="7.5" transform="matrix(-1 -8.74228e-08 -8.74228e-08 1 54.4983 306.5)" fill="#8D75F3"/>
<circle r="7.5" transform="matrix(-1 -8.74228e-08 -8.74228e-08 1 54.4983 283.5)" fill="#8D75F3"/>
<circle r="7.5" transform="matrix(-1 -8.74228e-08 -8.74228e-08 1 54.4983 214.5)" fill="#8D75F3"/>
<circle r="7.5" transform="matrix(-1 -8.74228e-08 -8.74228e-08 1 54.4983 191.5)" fill="#8D75F3"/>
<circle r="7.5" transform="matrix(-1 -8.74228e-08 -8.74228e-08 1 54.4983 260.5)" fill="#8D75F3"/>
<circle r="7.5" transform="matrix(-1 -8.74228e-08 -8.74228e-08 1 77.4984 30.5)" fill="#8D75F3"/>
<circle r="7.5" transform="matrix(-1 -8.74228e-08 -8.74228e-08 1 77.4985 53.5)" fill="#8D75F3"/>
<circle r="7.5" transform="matrix(-1 -8.74228e-08 -8.74228e-08 1 77.4985 145.5)" fill="#8D75F3"/>
<circle r="7.5" transform="matrix(-1 -8.74228e-08 -8.74228e-08 1 77.4985 168.5)" fill="#8D75F3"/>
<circle r="7.5" transform="matrix(-1 -8.74228e-08 -8.74228e-08 1 77.4985 122.5)" fill="#8D75F3"/>
<circle r="7.5" transform="matrix(-1 -8.74228e-08 -8.74228e-08 1 77.4985 99.5)" fill="#8D75F3"/>
<circle r="7.5" transform="matrix(-1 -8.74228e-08 -8.74228e-08 1 77.4985 7.5)" fill="#8D75F3"/>
<circle r="7.5" transform="matrix(-1 -8.74228e-08 -8.74228e-08 1 77.4985 76.5)" fill="#8D75F3"/>
<circle r="7.5" transform="matrix(-1 -8.74228e-08 -8.74228e-08 1 77.4985 237.5)" fill="#8D75F3"/>
<circle r="7.5" transform="matrix(-1 -8.74228e-08 -8.74228e-08 1 77.4984 260.5)" fill="#8D75F3"/>
<circle r="7.5" transform="matrix(-1 -8.74228e-08 -8.74228e-08 1 77.4985 306.5)" fill="#8D75F3"/>
<circle r="7.5" transform="matrix(-1 -8.74228e-08 -8.74228e-08 1 77.4985 283.5)" fill="#8D75F3"/>
<circle r="7.5" transform="matrix(-1 -8.74228e-08 -8.74228e-08 1 77.4985 214.5)" fill="#8D75F3"/>
<circle r="7.5" transform="matrix(-1 -8.74228e-08 -8.74228e-08 1 77.4985 191.5)" fill="#8D75F3"/>
<circle r="7.5" transform="matrix(-1 -8.74228e-08 -8.74228e-08 1 77.4985 260.5)" fill="#8D75F3"/>
<circle r="7.5" transform="matrix(-1 -8.74228e-08 -8.74228e-08 1 100.498 30.5)" fill="#8D75F3"/>
<circle r="7.5" transform="matrix(-1 -8.74228e-08 -8.74228e-08 1 100.499 53.5)" fill="#8D75F3"/>
<circle r="7.5" transform="matrix(-1 -8.74228e-08 -8.74228e-08 1 100.499 145.5)" fill="#8D75F3"/>
<circle r="7.5" transform="matrix(-1 -8.74228e-08 -8.74228e-08 1 100.497 168.5)" fill="#8D75F3"/>
<circle r="7.5" transform="matrix(-1 -8.74228e-08 -8.74228e-08 1 100.499 122.5)" fill="#8D75F3"/>
<circle r="7.5" transform="matrix(-1 -8.74228e-08 -8.74228e-08 1 100.498 99.5)" fill="#8D75F3"/>
<circle r="7.5" transform="matrix(-1 -8.74228e-08 -8.74228e-08 1 100.498 7.5)" fill="#8D75F3"/>
<circle r="7.5" transform="matrix(-1 -8.74228e-08 -8.74228e-08 1 100.497 76.5)" fill="#8D75F3"/>
<circle r="7.5" transform="matrix(-1 -8.74228e-08 -8.74228e-08 1 100.499 237.5)" fill="#8D75F3"/>
<circle r="7.5" transform="matrix(-1 -8.74228e-08 -8.74228e-08 1 100.497 260.5)" fill="#8D75F3"/>
<circle r="7.5" transform="matrix(-1 -8.74228e-08 -8.74228e-08 1 100.499 306.5)" fill="#8D75F3"/>
<circle r="7.5" transform="matrix(-1 -8.74228e-08 -8.74228e-08 1 100.498 283.5)" fill="#8D75F3"/>
<circle r="7.5" transform="matrix(-1 -8.74228e-08 -8.74228e-08 1 100.499 214.5)" fill="#8D75F3"/>
<circle r="7.5" transform="matrix(-1 -8.74228e-08 -8.74228e-08 1 100.498 191.5)" fill="#8D75F3"/>
<circle r="7.5" transform="matrix(-1 -8.74228e-08 -8.74228e-08 1 100.497 260.5)" fill="#8D75F3"/>
<circle r="7.5" transform="matrix(-1 -8.74228e-08 -8.74228e-08 1 123.499 30.5)" fill="#8D75F3"/>
<circle r="7.5" transform="matrix(-1 -8.74228e-08 -8.74228e-08 1 123.499 53.5)" fill="#8D75F3"/>
<circle r="7.5" transform="matrix(-1 -8.74228e-08 -8.74228e-08 1 123.499 145.5)" fill="#8D75F3"/>
<circle r="7.5" transform="matrix(-1 -8.74228e-08 -8.74228e-08 1 123.499 168.5)" fill="#8D75F3"/>
<circle r="7.5" transform="matrix(-1 -8.74228e-08 -8.74228e-08 1 123.499 122.5)" fill="#8D75F3"/>
<circle r="7.5" transform="matrix(-1 -8.74228e-08 -8.74228e-08 1 123.499 99.5)" fill="#8D75F3"/>
<circle r="7.5" transform="matrix(-1 -8.74228e-08 -8.74228e-08 1 123.499 7.5)" fill="#8D75F3"/>
<circle r="7.5" transform="matrix(-1 -8.74228e-08 -8.74228e-08 1 123.499 76.5)" fill="#8D75F3"/>
<circle r="7.5" transform="matrix(-1 -8.74228e-08 -8.74228e-08 1 123.499 237.5)" fill="#8D75F3"/>
<circle r="7.5" transform="matrix(-1 -8.74228e-08 -8.74228e-08 1 123.499 260.5)" fill="#8D75F3"/>
<circle r="7.5" transform="matrix(-1 -8.74228e-08 -8.74228e-08 1 123.499 306.5)" fill="#8D75F3"/>
<circle r="7.5" transform="matrix(-1 -8.74228e-08 -8.74228e-08 1 123.499 283.5)" fill="#8D75F3"/>
<circle r="7.5" transform="matrix(-1 -8.74228e-08 -8.74228e-08 1 123.499 214.5)" fill="#8D75F3"/>
<circle r="7.5" transform="matrix(-1 -8.74228e-08 -8.74228e-08 1 123.499 191.5)" fill="#8D75F3"/>
<circle r="7.5" transform="matrix(-1 -8.74228e-08 -8.74228e-08 1 123.499 260.5)" fill="#8D75F3"/>
<circle r="7.5" transform="matrix(-1 -8.74228e-08 -8.74228e-08 1 146.499 30.5)" fill="#8D75F3"/>
<circle r="7.5" transform="matrix(-1 -8.74228e-08 -8.74228e-08 1 146.499 53.5)" fill="#8D75F3"/>
<circle r="7.5" transform="matrix(-1 -8.74228e-08 -8.74228e-08 1 146.499 145.5)" fill="#8D75F3"/>
<circle r="7.5" transform="matrix(-1 -8.74228e-08 -8.74228e-08 1 146.499 168.5)" fill="#8D75F3"/>
<circle r="7.5" transform="matrix(-1 -8.74228e-08 -8.74228e-08 1 146.499 122.5)" fill="#8D75F3"/>
<circle r="7.5" transform="matrix(-1 -8.74228e-08 -8.74228e-08 1 146.499 99.5)" fill="#8D75F3"/>
<circle r="7.5" transform="matrix(-1 -8.74228e-08 -8.74228e-08 1 146.499 7.5)" fill="#8D75F3"/>
<circle r="7.5" transform="matrix(-1 -8.74228e-08 -8.74228e-08 1 146.499 76.5)" fill="#8D75F3"/>
<circle r="7.5" transform="matrix(-1 -8.74228e-08 -8.74228e-08 1 146.499 237.5)" fill="#8D75F3"/>
<circle r="7.5" transform="matrix(-1 -8.74228e-08 -8.74228e-08 1 146.499 260.5)" fill="#8D75F3"/>
<circle r="7.5" transform="matrix(-1 -8.74228e-08 -8.74228e-08 1 146.499 306.5)" fill="#8D75F3"/>
<circle r="7.5" transform="matrix(-1 -8.74228e-08 -8.74228e-08 1 146.499 283.5)" fill="#8D75F3"/>
<circle r="7.5" transform="matrix(-1 -8.74228e-08 -8.74228e-08 1 146.499 214.5)" fill="#8D75F3"/>
<circle r="7.5" transform="matrix(-1 -8.74228e-08 -8.74228e-08 1 146.499 191.5)" fill="#8D75F3"/>
<circle r="7.5" transform="matrix(-1 -8.74228e-08 -8.74228e-08 1 146.499 260.5)" fill="#8D75F3"/>
<circle r="7.5" transform="matrix(-1 -8.74228e-08 -8.74228e-08 1 169.499 30.5)" fill="#8D75F3"/>
<circle r="7.5" transform="matrix(-1 -8.74228e-08 -8.74228e-08 1 169.499 53.5)" fill="#8D75F3"/>
<circle r="7.5" transform="matrix(-1 -8.74228e-08 -8.74228e-08 1 169.499 145.5)" fill="#8D75F3"/>
<circle r="7.5" transform="matrix(-1 -8.74228e-08 -8.74228e-08 1 169.499 168.5)" fill="#8D75F3"/>
<circle r="7.5" transform="matrix(-1 -8.74228e-08 -8.74228e-08 1 169.499 122.5)" fill="#8D75F3"/>
<circle r="7.5" transform="matrix(-1 -8.74228e-08 -8.74228e-08 1 169.499 99.5)" fill="#8D75F3"/>
<circle r="7.5" transform="matrix(-1 -8.74228e-08 -8.74228e-08 1 169.499 7.5)" fill="#8D75F3"/>
<circle r="7.5" transform="matrix(-1 -8.74228e-08 -8.74228e-08 1 169.499 76.5)" fill="#8D75F3"/>
<circle r="7.5" transform="matrix(-1 -8.74228e-08 -8.74228e-08 1 169.499 237.5)" fill="#8D75F3"/>
<circle r="7.5" transform="matrix(-1 -8.74228e-08 -8.74228e-08 1 169.499 260.5)" fill="#8D75F3"/>
<circle r="7.5" transform="matrix(-1 -8.74228e-08 -8.74228e-08 1 169.499 306.5)" fill="#8D75F3"/>
<circle r="7.5" transform="matrix(-1 -8.74228e-08 -8.74228e-08 1 169.499 283.5)" fill="#8D75F3"/>
<circle r="7.5" transform="matrix(-1 -8.74228e-08 -8.74228e-08 1 169.499 214.5)" fill="#8D75F3"/>
<circle r="7.5" transform="matrix(-1 -8.74228e-08 -8.74228e-08 1 169.499 191.5)" fill="#8D75F3"/>
<circle r="7.5" transform="matrix(-1 -8.74228e-08 -8.74228e-08 1 169.499 260.5)" fill="#8D75F3"/>
<circle r="7.5" transform="matrix(-1 -8.74228e-08 -8.74228e-08 1 192.5 30.5)" fill="#8D75F3"/>
<circle r="7.5" transform="matrix(-1 -8.74228e-08 -8.74228e-08 1 192.5 53.5)" fill="#8D75F3"/>
<circle r="7.5" transform="matrix(-1 -8.74228e-08 -8.74228e-08 1 192.5 145.5)" fill="#8D75F3"/>
<circle r="7.5" transform="matrix(-1 -8.74228e-08 -8.74228e-08 1 192.5 168.5)" fill="#8D75F3"/>
<circle r="7.5" transform="matrix(-1 -8.74228e-08 -8.74228e-08 1 192.5 122.5)" fill="#8D75F3"/>
<circle r="7.5" transform="matrix(-1 -8.74228e-08 -8.74228e-08 1 192.5 99.5)" fill="#8D75F3"/>
<circle r="7.5" transform="matrix(-1 -8.74228e-08 -8.74228e-08 1 192.5 7.5)" fill="#8D75F3"/>
<circle r="7.5" transform="matrix(-1 -8.74228e-08 -8.74228e-08 1 192.5 76.5)" fill="#8D75F3"/>
<circle r="7.5" transform="matrix(-1 -8.74228e-08 -8.74228e-08 1 192.5 237.5)" fill="#8D75F3"/>
<circle r="7.5" transform="matrix(-1 -8.74228e-08 -8.74228e-08 1 192.5 260.5)" fill="#8D75F3"/>
<circle r="7.5" transform="matrix(-1 -8.74228e-08 -8.74228e-08 1 192.5 306.5)" fill="#8D75F3"/>
<circle r="7.5" transform="matrix(-1 -8.74228e-08 -8.74228e-08 1 192.5 283.5)" fill="#8D75F3"/>
<circle r="7.5" transform="matrix(-1 -8.74228e-08 -8.74228e-08 1 192.5 214.5)" fill="#8D75F3"/>
<circle r="7.5" transform="matrix(-1 -8.74228e-08 -8.74228e-08 1 192.5 191.5)" fill="#8D75F3"/>
<circle r="7.5" transform="matrix(-1 -8.74228e-08 -8.74228e-08 1 192.5 260.5)" fill="#8D75F3"/>
<circle r="7.5" transform="matrix(-1 -8.74228e-08 -8.74228e-08 1 215.5 30.5)" fill="#8D75F3"/>
<circle r="7.5" transform="matrix(-1 -8.74228e-08 -8.74228e-08 1 215.5 53.5)" fill="#8D75F3"/>
<circle r="7.5" transform="matrix(-1 -8.74228e-08 -8.74228e-08 1 215.5 145.5)" fill="#8D75F3"/>
<circle r="7.5" transform="matrix(-1 -8.74228e-08 -8.74228e-08 1 215.5 168.5)" fill="#8D75F3"/>
<circle r="7.5" transform="matrix(-1 -8.74228e-08 -8.74228e-08 1 215.5 122.5)" fill="#8D75F3"/>
<circle r="7.5" transform="matrix(-1 -8.74228e-08 -8.74228e-08 1 215.5 99.5)" fill="#8D75F3"/>
<circle r="7.5" transform="matrix(-1 -8.74228e-08 -8.74228e-08 1 215.5 7.5)" fill="#8D75F3"/>
<circle r="7.5" transform="matrix(-1 -8.74228e-08 -8.74228e-08 1 215.5 76.5)" fill="#8D75F3"/>
<circle r="7.5" transform="matrix(-1 -8.74228e-08 -8.74228e-08 1 215.5 237.5)" fill="#8D75F3"/>
<circle r="7.5" transform="matrix(-1 -8.74228e-08 -8.74228e-08 1 215.5 260.5)" fill="#8D75F3"/>
<circle r="7.5" transform="matrix(-1 -8.74228e-08 -8.74228e-08 1 215.5 306.5)" fill="#8D75F3"/>
<circle r="7.5" transform="matrix(-1 -8.74228e-08 -8.74228e-08 1 215.5 283.5)" fill="#8D75F3"/>
<circle r="7.5" transform="matrix(-1 -8.74228e-08 -8.74228e-08 1 215.5 214.5)" fill="#8D75F3"/>
<circle r="7.5" transform="matrix(-1 -8.74228e-08 -8.74228e-08 1 215.5 191.5)" fill="#8D75F3"/>
<circle r="7.5" transform="matrix(-1 -8.74228e-08 -8.74228e-08 1 215.5 260.5)" fill="#8D75F3"/>
</svg>
