<svg width="223" height="682" viewBox="0 0 223 682" fill="none" xmlns="http://www.w3.org/2000/svg">
<circle r="7.5" transform="matrix(-1 -8.74228e-08 -8.74228e-08 1 7.49988 30.5)" fill="#8D75F3"/>
<circle r="7.5" transform="matrix(-1 -8.74228e-08 -8.74228e-08 1 7.5 53.5)" fill="#8D75F3"/>
<circle r="7.5" transform="matrix(-1 -8.74228e-08 -8.74228e-08 1 7.5 145.5)" fill="#8D75F3"/>
<circle r="7.5" transform="matrix(-1 -8.74228e-08 -8.74228e-08 1 7.5 168.5)" fill="#8D75F3"/>
<circle r="7.5" transform="matrix(-1 -8.74228e-08 -8.74228e-08 1 7.5 122.5)" fill="#8D75F3"/>
<circle r="7.5" transform="matrix(-1 -8.74228e-08 -8.74228e-08 1 7.5 99.5)" fill="#8D75F3"/>
<circle r="7.5" transform="matrix(-1 -8.74228e-08 -8.74228e-08 1 7.5 7.5)" fill="#8D75F3"/>
<circle r="7.5" transform="matrix(-1 -8.74228e-08 -8.74228e-08 1 7.5 76.5)" fill="#8D75F3"/>
<circle r="7.5" transform="matrix(-1 -8.74228e-08 -8.74228e-08 1 7.5 237.5)" fill="#8D75F3"/>
<circle r="7.5" transform="matrix(-1 -8.74228e-08 -8.74228e-08 1 7.49988 260.5)" fill="#8D75F3"/>
<circle r="7.5" transform="matrix(-1 -8.74228e-08 -8.74228e-08 1 7.5 329.5)" fill="#8D75F3"/>
<circle r="7.5" transform="matrix(-1 -8.74228e-08 -8.74228e-08 1 7.5 352.5)" fill="#8D75F3"/>
<circle r="7.5" transform="matrix(-1 -8.74228e-08 -8.74228e-08 1 7.5 306.5)" fill="#8D75F3"/>
<circle r="7.5" transform="matrix(-1 -8.74228e-08 -8.74228e-08 1 7.5 283.5)" fill="#8D75F3"/>
<circle r="7.5" transform="matrix(-1 -8.74228e-08 -8.74228e-08 1 7.5 375.5)" fill="#8D75F3"/>
<circle r="7.5" transform="matrix(-1 -8.74228e-08 -8.74228e-08 1 7.5 398.5)" fill="#8D75F3"/>
<circle r="7.5" transform="matrix(-1 -8.74228e-08 -8.74228e-08 1 7.5 214.5)" fill="#8D75F3"/>
<circle r="7.5" transform="matrix(-1 -8.74228e-08 -8.74228e-08 1 7.5 191.5)" fill="#8D75F3"/>
<circle r="7.5" transform="matrix(-1 -8.74228e-08 -8.74228e-08 1 7.5 260.5)" fill="#8D75F3"/>
<circle r="7.5" transform="matrix(-1 -8.74228e-08 -8.74228e-08 1 7.5 444.5)" fill="#8D75F3"/>
<circle r="7.5" transform="matrix(-1 -8.74228e-08 -8.74228e-08 1 7.5 467.5)" fill="#8D75F3"/>
<circle r="7.5" transform="matrix(-1 -8.74228e-08 -8.74228e-08 1 7.5 559.5)" fill="#8D75F3"/>
<circle r="7.5" transform="matrix(-1 -8.74228e-08 -8.74228e-08 1 7.5 582.5)" fill="#8D75F3"/>
<circle r="7.5" transform="matrix(-1 -8.74228e-08 -8.74228e-08 1 7.5 536.5)" fill="#8D75F3"/>
<circle r="7.5" transform="matrix(-1 -8.74228e-08 -8.74228e-08 1 7.5 513.5)" fill="#8D75F3"/>
<circle r="7.5" transform="matrix(-1 -8.74228e-08 -8.74228e-08 1 7.5 605.5)" fill="#8D75F3"/>
<circle r="7.5" transform="matrix(-1 -8.74228e-08 -8.74228e-08 1 7.5 628.5)" fill="#8D75F3"/>
<circle r="7.5" transform="matrix(-1 -8.74228e-08 -8.74228e-08 1 7.5 651.5)" fill="#8D75F3"/>
<circle r="7.5" transform="matrix(-1 -8.74228e-08 -8.74228e-08 1 7.5 421.5)" fill="#8D75F3"/>
<circle r="7.5" transform="matrix(-1 -8.74228e-08 -8.74228e-08 1 7.5 490.5)" fill="#8D75F3"/>
<circle r="7.5" transform="matrix(-1 -8.74228e-08 -8.74228e-08 1 30.5001 30.5)" fill="#8D75F3"/>
<circle r="7.5" transform="matrix(-1 -8.74228e-08 -8.74228e-08 1 30.5002 53.5)" fill="#8D75F3"/>
<circle r="7.5" transform="matrix(-1 -8.74228e-08 -8.74228e-08 1 30.5002 145.5)" fill="#8D75F3"/>
<circle r="7.5" transform="matrix(-1 -8.74228e-08 -8.74228e-08 1 30.5002 168.5)" fill="#8D75F3"/>
<circle r="7.5" transform="matrix(-1 -8.74228e-08 -8.74228e-08 1 30.5002 122.5)" fill="#8D75F3"/>
<circle r="7.5" transform="matrix(-1 -8.74228e-08 -8.74228e-08 1 30.5002 99.5)" fill="#8D75F3"/>
<circle r="7.5" transform="matrix(-1 -8.74228e-08 -8.74228e-08 1 30.5002 7.5)" fill="#8D75F3"/>
<circle r="7.5" transform="matrix(-1 -8.74228e-08 -8.74228e-08 1 30.5002 76.5)" fill="#8D75F3"/>
<circle r="7.5" transform="matrix(-1 -8.74228e-08 -8.74228e-08 1 30.5002 237.5)" fill="#8D75F3"/>
<circle r="7.5" transform="matrix(-1 -8.74228e-08 -8.74228e-08 1 30.5001 260.5)" fill="#8D75F3"/>
<circle r="7.5" transform="matrix(-1 -8.74228e-08 -8.74228e-08 1 30.5002 329.5)" fill="#8D75F3"/>
<circle r="7.5" transform="matrix(-1 -8.74228e-08 -8.74228e-08 1 30.5002 352.5)" fill="#8D75F3"/>
<circle r="7.5" transform="matrix(-1 -8.74228e-08 -8.74228e-08 1 30.5002 306.5)" fill="#8D75F3"/>
<circle r="7.5" transform="matrix(-1 -8.74228e-08 -8.74228e-08 1 30.5002 283.5)" fill="#8D75F3"/>
<circle r="7.5" transform="matrix(-1 -8.74228e-08 -8.74228e-08 1 30.5002 375.5)" fill="#8D75F3"/>
<circle r="7.5" transform="matrix(-1 -8.74228e-08 -8.74228e-08 1 30.5002 398.5)" fill="#8D75F3"/>
<circle r="7.5" transform="matrix(-1 -8.74228e-08 -8.74228e-08 1 30.5002 214.5)" fill="#8D75F3"/>
<circle r="7.5" transform="matrix(-1 -8.74228e-08 -8.74228e-08 1 30.5002 191.5)" fill="#8D75F3"/>
<circle r="7.5" transform="matrix(-1 -8.74228e-08 -8.74228e-08 1 30.5002 260.5)" fill="#8D75F3"/>
<circle r="7.5" transform="matrix(-1 -8.74228e-08 -8.74228e-08 1 30.5002 444.5)" fill="#8D75F3"/>
<circle r="7.5" transform="matrix(-1 -8.74228e-08 -8.74228e-08 1 30.5002 467.5)" fill="#8D75F3"/>
<circle r="7.5" transform="matrix(-1 -8.74228e-08 -8.74228e-08 1 30.5002 559.5)" fill="#8D75F3"/>
<circle r="7.5" transform="matrix(-1 -8.74228e-08 -8.74228e-08 1 30.5002 582.5)" fill="#8D75F3"/>
<circle r="7.5" transform="matrix(-1 -8.74228e-08 -8.74228e-08 1 30.5002 536.5)" fill="#8D75F3"/>
<circle r="7.5" transform="matrix(-1 -8.74228e-08 -8.74228e-08 1 30.5002 513.5)" fill="#8D75F3"/>
<circle r="7.5" transform="matrix(-1 -8.74228e-08 -8.74228e-08 1 30.5002 605.5)" fill="#8D75F3"/>
<circle r="7.5" transform="matrix(-1 -8.74228e-08 -8.74228e-08 1 30.5002 628.5)" fill="#8D75F3"/>
<circle r="7.5" transform="matrix(-1 -8.74228e-08 -8.74228e-08 1 30.5002 651.5)" fill="#8D75F3"/>
<circle r="7.5" transform="matrix(-1 -8.74228e-08 -8.74228e-08 1 30.5002 421.5)" fill="#8D75F3"/>
<circle r="7.5" transform="matrix(-1 -8.74228e-08 -8.74228e-08 1 30.5002 490.5)" fill="#8D75F3"/>
<circle r="7.5" transform="matrix(-1 -8.74228e-08 -8.74228e-08 1 53.5004 30.5)" fill="#8D75F3"/>
<circle r="7.5" transform="matrix(-1 -8.74228e-08 -8.74228e-08 1 53.5005 53.5)" fill="#8D75F3"/>
<circle r="7.5" transform="matrix(-1 -8.74228e-08 -8.74228e-08 1 53.5005 145.5)" fill="#8D75F3"/>
<circle r="7.5" transform="matrix(-1 -8.74228e-08 -8.74228e-08 1 53.5005 168.5)" fill="#8D75F3"/>
<circle r="7.5" transform="matrix(-1 -8.74228e-08 -8.74228e-08 1 53.5005 122.5)" fill="#8D75F3"/>
<circle r="7.5" transform="matrix(-1 -8.74228e-08 -8.74228e-08 1 53.5005 99.5)" fill="#8D75F3"/>
<circle r="7.5" transform="matrix(-1 -8.74228e-08 -8.74228e-08 1 53.5005 7.5)" fill="#8D75F3"/>
<circle r="7.5" transform="matrix(-1 -8.74228e-08 -8.74228e-08 1 53.5005 76.5)" fill="#8D75F3"/>
<circle r="7.5" transform="matrix(-1 -8.74228e-08 -8.74228e-08 1 53.5005 237.5)" fill="#8D75F3"/>
<circle r="7.5" transform="matrix(-1 -8.74228e-08 -8.74228e-08 1 53.5004 260.5)" fill="#8D75F3"/>
<circle r="7.5" transform="matrix(-1 -8.74228e-08 -8.74228e-08 1 53.5005 329.5)" fill="#8D75F3"/>
<circle r="7.5" transform="matrix(-1 -8.74228e-08 -8.74228e-08 1 53.5005 352.5)" fill="#8D75F3"/>
<circle r="7.5" transform="matrix(-1 -8.74228e-08 -8.74228e-08 1 53.5005 306.5)" fill="#8D75F3"/>
<circle r="7.5" transform="matrix(-1 -8.74228e-08 -8.74228e-08 1 53.5005 283.5)" fill="#8D75F3"/>
<circle r="7.5" transform="matrix(-1 -8.74228e-08 -8.74228e-08 1 53.5005 375.5)" fill="#8D75F3"/>
<circle r="7.5" transform="matrix(-1 -8.74228e-08 -8.74228e-08 1 53.5005 398.5)" fill="#8D75F3"/>
<circle r="7.5" transform="matrix(-1 -8.74228e-08 -8.74228e-08 1 53.5005 214.5)" fill="#8D75F3"/>
<circle r="7.5" transform="matrix(-1 -8.74228e-08 -8.74228e-08 1 53.5005 191.5)" fill="#8D75F3"/>
<circle r="7.5" transform="matrix(-1 -8.74228e-08 -8.74228e-08 1 53.5005 260.5)" fill="#8D75F3"/>
<circle r="7.5" transform="matrix(-1 -8.74228e-08 -8.74228e-08 1 53.5005 444.5)" fill="#8D75F3"/>
<circle r="7.5" transform="matrix(-1 -8.74228e-08 -8.74228e-08 1 53.5005 467.5)" fill="#8D75F3"/>
<circle r="7.5" transform="matrix(-1 -8.74228e-08 -8.74228e-08 1 53.5005 559.5)" fill="#8D75F3"/>
<circle r="7.5" transform="matrix(-1 -8.74228e-08 -8.74228e-08 1 53.5005 582.5)" fill="#8D75F3"/>
<circle r="7.5" transform="matrix(-1 -8.74228e-08 -8.74228e-08 1 53.5005 536.5)" fill="#8D75F3"/>
<circle r="7.5" transform="matrix(-1 -8.74228e-08 -8.74228e-08 1 53.5005 513.5)" fill="#8D75F3"/>
<circle r="7.5" transform="matrix(-1 -8.74228e-08 -8.74228e-08 1 53.5005 605.5)" fill="#8D75F3"/>
<circle r="7.5" transform="matrix(-1 -8.74228e-08 -8.74228e-08 1 53.5005 628.5)" fill="#8D75F3"/>
<circle r="7.5" transform="matrix(-1 -8.74228e-08 -8.74228e-08 1 53.5005 651.5)" fill="#8D75F3"/>
<circle r="7.5" transform="matrix(-1 -8.74228e-08 -8.74228e-08 1 53.5005 421.5)" fill="#8D75F3"/>
<circle r="7.5" transform="matrix(-1 -8.74228e-08 -8.74228e-08 1 53.5005 490.5)" fill="#8D75F3"/>
<circle r="7.5" transform="matrix(-1 -8.74228e-08 -8.74228e-08 1 76.5006 30.5)" fill="#8D75F3"/>
<circle r="7.5" transform="matrix(-1 -8.74228e-08 -8.74228e-08 1 76.5007 53.5)" fill="#8D75F3"/>
<circle r="7.5" transform="matrix(-1 -8.74228e-08 -8.74228e-08 1 76.5007 145.5)" fill="#8D75F3"/>
<circle r="7.5" transform="matrix(-1 -8.74228e-08 -8.74228e-08 1 76.5007 168.5)" fill="#8D75F3"/>
<circle r="7.5" transform="matrix(-1 -8.74228e-08 -8.74228e-08 1 76.5007 122.5)" fill="#8D75F3"/>
<circle r="7.5" transform="matrix(-1 -8.74228e-08 -8.74228e-08 1 76.5007 99.5)" fill="#8D75F3"/>
<circle r="7.5" transform="matrix(-1 -8.74228e-08 -8.74228e-08 1 76.5007 7.5)" fill="#8D75F3"/>
<circle r="7.5" transform="matrix(-1 -8.74228e-08 -8.74228e-08 1 76.5007 76.5)" fill="#8D75F3"/>
<circle r="7.5" transform="matrix(-1 -8.74228e-08 -8.74228e-08 1 76.5007 237.5)" fill="#8D75F3"/>
<circle r="7.5" transform="matrix(-1 -8.74228e-08 -8.74228e-08 1 76.5006 260.5)" fill="#8D75F3"/>
<circle r="7.5" transform="matrix(-1 -8.74228e-08 -8.74228e-08 1 76.5007 329.5)" fill="#8D75F3"/>
<circle r="7.5" transform="matrix(-1 -8.74228e-08 -8.74228e-08 1 76.5007 352.5)" fill="#8D75F3"/>
<circle r="7.5" transform="matrix(-1 -8.74228e-08 -8.74228e-08 1 76.5007 306.5)" fill="#8D75F3"/>
<circle r="7.5" transform="matrix(-1 -8.74228e-08 -8.74228e-08 1 76.5007 283.5)" fill="#8D75F3"/>
<circle r="7.5" transform="matrix(-1 -8.74228e-08 -8.74228e-08 1 76.5007 375.5)" fill="#8D75F3"/>
<circle r="7.5" transform="matrix(-1 -8.74228e-08 -8.74228e-08 1 76.5007 398.5)" fill="#8D75F3"/>
<circle r="7.5" transform="matrix(-1 -8.74228e-08 -8.74228e-08 1 76.5007 214.5)" fill="#8D75F3"/>
<circle r="7.5" transform="matrix(-1 -8.74228e-08 -8.74228e-08 1 76.5007 191.5)" fill="#8D75F3"/>
<circle r="7.5" transform="matrix(-1 -8.74228e-08 -8.74228e-08 1 76.5007 260.5)" fill="#8D75F3"/>
<circle r="7.5" transform="matrix(-1 -8.74228e-08 -8.74228e-08 1 76.5007 444.5)" fill="#8D75F3"/>
<circle r="7.5" transform="matrix(-1 -8.74228e-08 -8.74228e-08 1 76.5007 467.5)" fill="#8D75F3"/>
<circle r="7.5" transform="matrix(-1 -8.74228e-08 -8.74228e-08 1 76.5007 559.5)" fill="#8D75F3"/>
<circle r="7.5" transform="matrix(-1 -8.74228e-08 -8.74228e-08 1 76.5007 582.5)" fill="#8D75F3"/>
<circle r="7.5" transform="matrix(-1 -8.74228e-08 -8.74228e-08 1 76.5007 536.5)" fill="#8D75F3"/>
<circle r="7.5" transform="matrix(-1 -8.74228e-08 -8.74228e-08 1 76.5007 513.5)" fill="#8D75F3"/>
<circle r="7.5" transform="matrix(-1 -8.74228e-08 -8.74228e-08 1 76.5007 605.5)" fill="#8D75F3"/>
<circle r="7.5" transform="matrix(-1 -8.74228e-08 -8.74228e-08 1 76.5007 628.5)" fill="#8D75F3"/>
<circle r="7.5" transform="matrix(-1 -8.74228e-08 -8.74228e-08 1 76.5007 651.5)" fill="#8D75F3"/>
<circle r="7.5" transform="matrix(-1 -8.74228e-08 -8.74228e-08 1 76.5007 421.5)" fill="#8D75F3"/>
<circle r="7.5" transform="matrix(-1 -8.74228e-08 -8.74228e-08 1 76.5007 490.5)" fill="#8D75F3"/>
<circle r="7.5" transform="matrix(-1 -8.74228e-08 -8.74228e-08 1 99.5005 30.5)" fill="#8D75F3"/>
<circle r="7.5" transform="matrix(-1 -8.74228e-08 -8.74228e-08 1 99.5006 53.5)" fill="#8D75F3"/>
<circle r="7.5" transform="matrix(-1 -8.74228e-08 -8.74228e-08 1 99.5006 145.5)" fill="#8D75F3"/>
<circle r="7.5" transform="matrix(-1 -8.74228e-08 -8.74228e-08 1 99.4994 168.5)" fill="#8D75F3"/>
<circle r="7.5" transform="matrix(-1 -8.74228e-08 -8.74228e-08 1 99.5006 122.5)" fill="#8D75F3"/>
<circle r="7.5" transform="matrix(-1 -8.74228e-08 -8.74228e-08 1 99.5005 99.5)" fill="#8D75F3"/>
<circle r="7.5" transform="matrix(-1 -8.74228e-08 -8.74228e-08 1 99.5005 7.5)" fill="#8D75F3"/>
<circle r="7.5" transform="matrix(-1 -8.74228e-08 -8.74228e-08 1 99.4994 76.5)" fill="#8D75F3"/>
<circle r="7.5" transform="matrix(-1 -8.74228e-08 -8.74228e-08 1 99.5006 237.5)" fill="#8D75F3"/>
<circle r="7.5" transform="matrix(-1 -8.74228e-08 -8.74228e-08 1 99.4991 260.5)" fill="#8D75F3"/>
<circle r="7.5" transform="matrix(-1 -8.74228e-08 -8.74228e-08 1 99.5006 329.5)" fill="#8D75F3"/>
<circle r="7.5" transform="matrix(-1 -8.74228e-08 -8.74228e-08 1 99.4994 352.5)" fill="#8D75F3"/>
<circle r="7.5" transform="matrix(-1 -8.74228e-08 -8.74228e-08 1 99.5006 306.5)" fill="#8D75F3"/>
<circle r="7.5" transform="matrix(-1 -8.74228e-08 -8.74228e-08 1 99.5005 283.5)" fill="#8D75F3"/>
<circle r="7.5" transform="matrix(-1 -8.74228e-08 -8.74228e-08 1 99.5005 375.5)" fill="#8D75F3"/>
<circle r="7.5" transform="matrix(-1 -8.74228e-08 -8.74228e-08 1 99.5006 398.5)" fill="#8D75F3"/>
<circle r="7.5" transform="matrix(-1 -8.74228e-08 -8.74228e-08 1 99.5006 214.5)" fill="#8D75F3"/>
<circle r="7.5" transform="matrix(-1 -8.74228e-08 -8.74228e-08 1 99.5005 191.5)" fill="#8D75F3"/>
<circle r="7.5" transform="matrix(-1 -8.74228e-08 -8.74228e-08 1 99.4994 260.5)" fill="#8D75F3"/>
<circle r="7.5" transform="matrix(-1 -8.74228e-08 -8.74228e-08 1 99.5005 444.5)" fill="#8D75F3"/>
<circle r="7.5" transform="matrix(-1 -8.74228e-08 -8.74228e-08 1 99.5006 467.5)" fill="#8D75F3"/>
<circle r="7.5" transform="matrix(-1 -8.74228e-08 -8.74228e-08 1 99.5006 559.5)" fill="#8D75F3"/>
<circle r="7.5" transform="matrix(-1 -8.74228e-08 -8.74228e-08 1 99.5006 582.5)" fill="#8D75F3"/>
<circle r="7.5" transform="matrix(-1 -8.74228e-08 -8.74228e-08 1 99.5005 536.5)" fill="#8D75F3"/>
<circle r="7.5" transform="matrix(-1 -8.74228e-08 -8.74228e-08 1 99.4994 513.5)" fill="#8D75F3"/>
<circle r="7.5" transform="matrix(-1 -8.74228e-08 -8.74228e-08 1 99.4994 605.5)" fill="#8D75F3"/>
<circle r="7.5" transform="matrix(-1 -8.74228e-08 -8.74228e-08 1 99.5005 628.5)" fill="#8D75F3"/>
<circle r="7.5" transform="matrix(-1 -8.74228e-08 -8.74228e-08 1 99.5006 651.5)" fill="#8D75F3"/>
<circle r="7.5" transform="matrix(-1 -8.74228e-08 -8.74228e-08 1 7.5 674.5)" fill="#8D75F3"/>
<circle r="7.5" transform="matrix(-1 -8.74228e-08 -8.74228e-08 1 30.5002 674.5)" fill="#8D75F3"/>
<circle r="7.5" transform="matrix(-1 -8.74228e-08 -8.74228e-08 1 53.5005 674.5)" fill="#8D75F3"/>
<circle r="7.5" transform="matrix(-1 -8.74228e-08 -8.74228e-08 1 76.5007 674.5)" fill="#8D75F3"/>
<circle r="7.5" transform="matrix(-1 -8.74228e-08 -8.74228e-08 1 99.5006 674.5)" fill="#8D75F3"/>
<circle r="7.5" transform="matrix(-1 -8.74228e-08 -8.74228e-08 1 99.4994 421.5)" fill="#8D75F3"/>
<circle r="7.5" transform="matrix(-1 -8.74228e-08 -8.74228e-08 1 99.5006 490.5)" fill="#8D75F3"/>
<circle r="7.5" transform="matrix(-1 -8.74228e-08 -8.74228e-08 1 122.501 30.5)" fill="#8D75F3"/>
<circle r="7.5" transform="matrix(-1 -8.74228e-08 -8.74228e-08 1 122.501 53.5)" fill="#8D75F3"/>
<circle r="7.5" transform="matrix(-1 -8.74228e-08 -8.74228e-08 1 122.501 145.5)" fill="#8D75F3"/>
<circle r="7.5" transform="matrix(-1 -8.74228e-08 -8.74228e-08 1 122.501 168.5)" fill="#8D75F3"/>
<circle r="7.5" transform="matrix(-1 -8.74228e-08 -8.74228e-08 1 122.501 122.5)" fill="#8D75F3"/>
<circle r="7.5" transform="matrix(-1 -8.74228e-08 -8.74228e-08 1 122.501 99.5)" fill="#8D75F3"/>
<circle r="7.5" transform="matrix(-1 -8.74228e-08 -8.74228e-08 1 122.501 7.5)" fill="#8D75F3"/>
<circle r="7.5" transform="matrix(-1 -8.74228e-08 -8.74228e-08 1 122.501 76.5)" fill="#8D75F3"/>
<circle r="7.5" transform="matrix(-1 -8.74228e-08 -8.74228e-08 1 122.501 237.5)" fill="#8D75F3"/>
<circle r="7.5" transform="matrix(-1 -8.74228e-08 -8.74228e-08 1 122.501 260.5)" fill="#8D75F3"/>
<circle r="7.5" transform="matrix(-1 -8.74228e-08 -8.74228e-08 1 122.501 329.5)" fill="#8D75F3"/>
<circle r="7.5" transform="matrix(-1 -8.74228e-08 -8.74228e-08 1 122.501 352.5)" fill="#8D75F3"/>
<circle r="7.5" transform="matrix(-1 -8.74228e-08 -8.74228e-08 1 122.501 306.5)" fill="#8D75F3"/>
<circle r="7.5" transform="matrix(-1 -8.74228e-08 -8.74228e-08 1 122.501 283.5)" fill="#8D75F3"/>
<circle r="7.5" transform="matrix(-1 -8.74228e-08 -8.74228e-08 1 122.501 375.5)" fill="#8D75F3"/>
<circle r="7.5" transform="matrix(-1 -8.74228e-08 -8.74228e-08 1 122.501 398.5)" fill="#8D75F3"/>
<circle r="7.5" transform="matrix(-1 -8.74228e-08 -8.74228e-08 1 122.501 214.5)" fill="#8D75F3"/>
<circle r="7.5" transform="matrix(-1 -8.74228e-08 -8.74228e-08 1 122.501 191.5)" fill="#8D75F3"/>
<circle r="7.5" transform="matrix(-1 -8.74228e-08 -8.74228e-08 1 122.501 260.5)" fill="#8D75F3"/>
<circle r="7.5" transform="matrix(-1 -8.74228e-08 -8.74228e-08 1 122.501 444.5)" fill="#8D75F3"/>
<circle r="7.5" transform="matrix(-1 -8.74228e-08 -8.74228e-08 1 122.501 467.5)" fill="#8D75F3"/>
<circle r="7.5" transform="matrix(-1 -8.74228e-08 -8.74228e-08 1 122.501 559.5)" fill="#8D75F3"/>
<circle r="7.5" transform="matrix(-1 -8.74228e-08 -8.74228e-08 1 122.501 582.5)" fill="#8D75F3"/>
<circle r="7.5" transform="matrix(-1 -8.74228e-08 -8.74228e-08 1 122.501 536.5)" fill="#8D75F3"/>
<circle r="7.5" transform="matrix(-1 -8.74228e-08 -8.74228e-08 1 122.501 513.5)" fill="#8D75F3"/>
<circle r="7.5" transform="matrix(-1 -8.74228e-08 -8.74228e-08 1 122.501 605.5)" fill="#8D75F3"/>
<circle r="7.5" transform="matrix(-1 -8.74228e-08 -8.74228e-08 1 122.501 628.5)" fill="#8D75F3"/>
<circle r="7.5" transform="matrix(-1 -8.74228e-08 -8.74228e-08 1 122.501 651.5)" fill="#8D75F3"/>
<circle r="7.5" transform="matrix(-1 -8.74228e-08 -8.74228e-08 1 122.501 421.5)" fill="#8D75F3"/>
<circle r="7.5" transform="matrix(-1 -8.74228e-08 -8.74228e-08 1 122.501 490.5)" fill="#8D75F3"/>
<circle r="7.5" transform="matrix(-1 -8.74228e-08 -8.74228e-08 1 145.501 30.5)" fill="#8D75F3"/>
<circle r="7.5" transform="matrix(-1 -8.74228e-08 -8.74228e-08 1 145.501 53.5)" fill="#8D75F3"/>
<circle r="7.5" transform="matrix(-1 -8.74228e-08 -8.74228e-08 1 145.501 145.5)" fill="#8D75F3"/>
<circle r="7.5" transform="matrix(-1 -8.74228e-08 -8.74228e-08 1 145.501 168.5)" fill="#8D75F3"/>
<circle r="7.5" transform="matrix(-1 -8.74228e-08 -8.74228e-08 1 145.501 122.5)" fill="#8D75F3"/>
<circle r="7.5" transform="matrix(-1 -8.74228e-08 -8.74228e-08 1 145.501 99.5)" fill="#8D75F3"/>
<circle r="7.5" transform="matrix(-1 -8.74228e-08 -8.74228e-08 1 145.501 7.5)" fill="#8D75F3"/>
<circle r="7.5" transform="matrix(-1 -8.74228e-08 -8.74228e-08 1 145.501 76.5)" fill="#8D75F3"/>
<circle r="7.5" transform="matrix(-1 -8.74228e-08 -8.74228e-08 1 145.501 237.5)" fill="#8D75F3"/>
<circle r="7.5" transform="matrix(-1 -8.74228e-08 -8.74228e-08 1 145.501 260.5)" fill="#8D75F3"/>
<circle r="7.5" transform="matrix(-1 -8.74228e-08 -8.74228e-08 1 145.501 329.5)" fill="#8D75F3"/>
<circle r="7.5" transform="matrix(-1 -8.74228e-08 -8.74228e-08 1 145.501 352.5)" fill="#8D75F3"/>
<circle r="7.5" transform="matrix(-1 -8.74228e-08 -8.74228e-08 1 145.501 306.5)" fill="#8D75F3"/>
<circle r="7.5" transform="matrix(-1 -8.74228e-08 -8.74228e-08 1 145.501 283.5)" fill="#8D75F3"/>
<circle r="7.5" transform="matrix(-1 -8.74228e-08 -8.74228e-08 1 145.501 375.5)" fill="#8D75F3"/>
<circle r="7.5" transform="matrix(-1 -8.74228e-08 -8.74228e-08 1 145.501 398.5)" fill="#8D75F3"/>
<circle r="7.5" transform="matrix(-1 -8.74228e-08 -8.74228e-08 1 145.501 214.5)" fill="#8D75F3"/>
<circle r="7.5" transform="matrix(-1 -8.74228e-08 -8.74228e-08 1 145.501 191.5)" fill="#8D75F3"/>
<circle r="7.5" transform="matrix(-1 -8.74228e-08 -8.74228e-08 1 145.501 260.5)" fill="#8D75F3"/>
<circle r="7.5" transform="matrix(-1 -8.74228e-08 -8.74228e-08 1 145.501 444.5)" fill="#8D75F3"/>
<circle r="7.5" transform="matrix(-1 -8.74228e-08 -8.74228e-08 1 145.501 467.5)" fill="#8D75F3"/>
<circle r="7.5" transform="matrix(-1 -8.74228e-08 -8.74228e-08 1 145.501 559.5)" fill="#8D75F3"/>
<circle r="7.5" transform="matrix(-1 -8.74228e-08 -8.74228e-08 1 145.501 582.5)" fill="#8D75F3"/>
<circle r="7.5" transform="matrix(-1 -8.74228e-08 -8.74228e-08 1 145.501 536.5)" fill="#8D75F3"/>
<circle r="7.5" transform="matrix(-1 -8.74228e-08 -8.74228e-08 1 145.501 513.5)" fill="#8D75F3"/>
<circle r="7.5" transform="matrix(-1 -8.74228e-08 -8.74228e-08 1 145.501 605.5)" fill="#8D75F3"/>
<circle r="7.5" transform="matrix(-1 -8.74228e-08 -8.74228e-08 1 145.501 628.5)" fill="#8D75F3"/>
<circle r="7.5" transform="matrix(-1 -8.74228e-08 -8.74228e-08 1 145.501 651.5)" fill="#8D75F3"/>
<circle r="7.5" transform="matrix(-1 -8.74228e-08 -8.74228e-08 1 145.501 421.5)" fill="#8D75F3"/>
<circle r="7.5" transform="matrix(-1 -8.74228e-08 -8.74228e-08 1 145.501 490.5)" fill="#8D75F3"/>
<circle r="7.5" transform="matrix(-1 -8.74228e-08 -8.74228e-08 1 168.501 30.5)" fill="#8D75F3"/>
<circle r="7.5" transform="matrix(-1 -8.74228e-08 -8.74228e-08 1 168.501 53.5)" fill="#8D75F3"/>
<circle r="7.5" transform="matrix(-1 -8.74228e-08 -8.74228e-08 1 168.501 145.5)" fill="#8D75F3"/>
<circle r="7.5" transform="matrix(-1 -8.74228e-08 -8.74228e-08 1 168.501 168.5)" fill="#8D75F3"/>
<circle r="7.5" transform="matrix(-1 -8.74228e-08 -8.74228e-08 1 168.501 122.5)" fill="#8D75F3"/>
<circle r="7.5" transform="matrix(-1 -8.74228e-08 -8.74228e-08 1 168.501 99.5)" fill="#8D75F3"/>
<circle r="7.5" transform="matrix(-1 -8.74228e-08 -8.74228e-08 1 168.501 7.5)" fill="#8D75F3"/>
<circle r="7.5" transform="matrix(-1 -8.74228e-08 -8.74228e-08 1 168.501 76.5)" fill="#8D75F3"/>
<circle r="7.5" transform="matrix(-1 -8.74228e-08 -8.74228e-08 1 168.501 237.5)" fill="#8D75F3"/>
<circle r="7.5" transform="matrix(-1 -8.74228e-08 -8.74228e-08 1 168.501 260.5)" fill="#8D75F3"/>
<circle r="7.5" transform="matrix(-1 -8.74228e-08 -8.74228e-08 1 168.501 329.5)" fill="#8D75F3"/>
<circle r="7.5" transform="matrix(-1 -8.74228e-08 -8.74228e-08 1 168.501 352.5)" fill="#8D75F3"/>
<circle r="7.5" transform="matrix(-1 -8.74228e-08 -8.74228e-08 1 168.501 306.5)" fill="#8D75F3"/>
<circle r="7.5" transform="matrix(-1 -8.74228e-08 -8.74228e-08 1 168.501 283.5)" fill="#8D75F3"/>
<circle r="7.5" transform="matrix(-1 -8.74228e-08 -8.74228e-08 1 168.501 375.5)" fill="#8D75F3"/>
<circle r="7.5" transform="matrix(-1 -8.74228e-08 -8.74228e-08 1 168.501 398.5)" fill="#8D75F3"/>
<circle r="7.5" transform="matrix(-1 -8.74228e-08 -8.74228e-08 1 168.501 214.5)" fill="#8D75F3"/>
<circle r="7.5" transform="matrix(-1 -8.74228e-08 -8.74228e-08 1 168.501 191.5)" fill="#8D75F3"/>
<circle r="7.5" transform="matrix(-1 -8.74228e-08 -8.74228e-08 1 168.501 260.5)" fill="#8D75F3"/>
<circle r="7.5" transform="matrix(-1 -8.74228e-08 -8.74228e-08 1 168.501 444.5)" fill="#8D75F3"/>
<circle r="7.5" transform="matrix(-1 -8.74228e-08 -8.74228e-08 1 168.501 467.5)" fill="#8D75F3"/>
<circle r="7.5" transform="matrix(-1 -8.74228e-08 -8.74228e-08 1 168.501 559.5)" fill="#8D75F3"/>
<circle r="7.5" transform="matrix(-1 -8.74228e-08 -8.74228e-08 1 168.501 582.5)" fill="#8D75F3"/>
<circle r="7.5" transform="matrix(-1 -8.74228e-08 -8.74228e-08 1 168.501 536.5)" fill="#8D75F3"/>
<circle r="7.5" transform="matrix(-1 -8.74228e-08 -8.74228e-08 1 168.501 513.5)" fill="#8D75F3"/>
<circle r="7.5" transform="matrix(-1 -8.74228e-08 -8.74228e-08 1 168.501 605.5)" fill="#8D75F3"/>
<circle r="7.5" transform="matrix(-1 -8.74228e-08 -8.74228e-08 1 168.501 628.5)" fill="#8D75F3"/>
<circle r="7.5" transform="matrix(-1 -8.74228e-08 -8.74228e-08 1 168.501 651.5)" fill="#8D75F3"/>
<circle r="7.5" transform="matrix(-1 -8.74228e-08 -8.74228e-08 1 168.501 421.5)" fill="#8D75F3"/>
<circle r="7.5" transform="matrix(-1 -8.74228e-08 -8.74228e-08 1 168.501 490.5)" fill="#8D75F3"/>
<circle r="7.5" transform="matrix(-1 -8.74228e-08 -8.74228e-08 1 191.502 30.5)" fill="#8D75F3"/>
<circle r="7.5" transform="matrix(-1 -8.74228e-08 -8.74228e-08 1 191.502 53.5)" fill="#8D75F3"/>
<circle r="7.5" transform="matrix(-1 -8.74228e-08 -8.74228e-08 1 191.502 145.5)" fill="#8D75F3"/>
<circle r="7.5" transform="matrix(-1 -8.74228e-08 -8.74228e-08 1 191.502 168.5)" fill="#8D75F3"/>
<circle r="7.5" transform="matrix(-1 -8.74228e-08 -8.74228e-08 1 191.502 122.5)" fill="#8D75F3"/>
<circle r="7.5" transform="matrix(-1 -8.74228e-08 -8.74228e-08 1 191.502 99.5)" fill="#8D75F3"/>
<circle r="7.5" transform="matrix(-1 -8.74228e-08 -8.74228e-08 1 191.502 7.5)" fill="#8D75F3"/>
<circle r="7.5" transform="matrix(-1 -8.74228e-08 -8.74228e-08 1 191.502 76.5)" fill="#8D75F3"/>
<circle r="7.5" transform="matrix(-1 -8.74228e-08 -8.74228e-08 1 191.502 237.5)" fill="#8D75F3"/>
<circle r="7.5" transform="matrix(-1 -8.74228e-08 -8.74228e-08 1 191.502 260.5)" fill="#8D75F3"/>
<circle r="7.5" transform="matrix(-1 -8.74228e-08 -8.74228e-08 1 191.502 329.5)" fill="#8D75F3"/>
<circle r="7.5" transform="matrix(-1 -8.74228e-08 -8.74228e-08 1 191.502 352.5)" fill="#8D75F3"/>
<circle r="7.5" transform="matrix(-1 -8.74228e-08 -8.74228e-08 1 191.502 306.5)" fill="#8D75F3"/>
<circle r="7.5" transform="matrix(-1 -8.74228e-08 -8.74228e-08 1 191.502 283.5)" fill="#8D75F3"/>
<circle r="7.5" transform="matrix(-1 -8.74228e-08 -8.74228e-08 1 191.502 375.5)" fill="#8D75F3"/>
<circle r="7.5" transform="matrix(-1 -8.74228e-08 -8.74228e-08 1 191.502 398.5)" fill="#8D75F3"/>
<circle r="7.5" transform="matrix(-1 -8.74228e-08 -8.74228e-08 1 191.502 214.5)" fill="#8D75F3"/>
<circle r="7.5" transform="matrix(-1 -8.74228e-08 -8.74228e-08 1 191.502 191.5)" fill="#8D75F3"/>
<circle r="7.5" transform="matrix(-1 -8.74228e-08 -8.74228e-08 1 191.502 260.5)" fill="#8D75F3"/>
<circle r="7.5" transform="matrix(-1 -8.74228e-08 -8.74228e-08 1 191.502 444.5)" fill="#8D75F3"/>
<circle r="7.5" transform="matrix(-1 -8.74228e-08 -8.74228e-08 1 191.502 467.5)" fill="#8D75F3"/>
<circle r="7.5" transform="matrix(-1 -8.74228e-08 -8.74228e-08 1 191.502 559.5)" fill="#8D75F3"/>
<circle r="7.5" transform="matrix(-1 -8.74228e-08 -8.74228e-08 1 191.502 582.5)" fill="#8D75F3"/>
<circle r="7.5" transform="matrix(-1 -8.74228e-08 -8.74228e-08 1 191.502 536.5)" fill="#8D75F3"/>
<circle r="7.5" transform="matrix(-1 -8.74228e-08 -8.74228e-08 1 191.502 513.5)" fill="#8D75F3"/>
<circle r="7.5" transform="matrix(-1 -8.74228e-08 -8.74228e-08 1 191.502 605.5)" fill="#8D75F3"/>
<circle r="7.5" transform="matrix(-1 -8.74228e-08 -8.74228e-08 1 191.502 628.5)" fill="#8D75F3"/>
<circle r="7.5" transform="matrix(-1 -8.74228e-08 -8.74228e-08 1 191.502 651.5)" fill="#8D75F3"/>
<circle r="7.5" transform="matrix(-1 -8.74228e-08 -8.74228e-08 1 191.502 421.5)" fill="#8D75F3"/>
<circle r="7.5" transform="matrix(-1 -8.74228e-08 -8.74228e-08 1 191.502 490.5)" fill="#8D75F3"/>
<circle r="7.5" transform="matrix(-1 -8.74228e-08 -8.74228e-08 1 214.502 30.5)" fill="#8D75F3"/>
<circle r="7.5" transform="matrix(-1 -8.74228e-08 -8.74228e-08 1 214.502 53.5)" fill="#8D75F3"/>
<circle r="7.5" transform="matrix(-1 -8.74228e-08 -8.74228e-08 1 214.502 145.5)" fill="#8D75F3"/>
<circle r="7.5" transform="matrix(-1 -8.74228e-08 -8.74228e-08 1 214.502 168.5)" fill="#8D75F3"/>
<circle r="7.5" transform="matrix(-1 -8.74228e-08 -8.74228e-08 1 214.502 122.5)" fill="#8D75F3"/>
<circle r="7.5" transform="matrix(-1 -8.74228e-08 -8.74228e-08 1 214.502 99.5)" fill="#8D75F3"/>
<circle r="7.5" transform="matrix(-1 -8.74228e-08 -8.74228e-08 1 214.502 7.5)" fill="#8D75F3"/>
<circle r="7.5" transform="matrix(-1 -8.74228e-08 -8.74228e-08 1 214.502 76.5)" fill="#8D75F3"/>
<circle r="7.5" transform="matrix(-1 -8.74228e-08 -8.74228e-08 1 214.502 237.5)" fill="#8D75F3"/>
<circle r="7.5" transform="matrix(-1 -8.74228e-08 -8.74228e-08 1 214.502 260.5)" fill="#8D75F3"/>
<circle r="7.5" transform="matrix(-1 -8.74228e-08 -8.74228e-08 1 214.502 329.5)" fill="#8D75F3"/>
<circle r="7.5" transform="matrix(-1 -8.74228e-08 -8.74228e-08 1 214.502 352.5)" fill="#8D75F3"/>
<circle r="7.5" transform="matrix(-1 -8.74228e-08 -8.74228e-08 1 214.502 306.5)" fill="#8D75F3"/>
<circle r="7.5" transform="matrix(-1 -8.74228e-08 -8.74228e-08 1 214.502 283.5)" fill="#8D75F3"/>
<circle r="7.5" transform="matrix(-1 -8.74228e-08 -8.74228e-08 1 214.502 375.5)" fill="#8D75F3"/>
<circle r="7.5" transform="matrix(-1 -8.74228e-08 -8.74228e-08 1 214.502 398.5)" fill="#8D75F3"/>
<circle r="7.5" transform="matrix(-1 -8.74228e-08 -8.74228e-08 1 214.502 214.5)" fill="#8D75F3"/>
<circle r="7.5" transform="matrix(-1 -8.74228e-08 -8.74228e-08 1 214.502 191.5)" fill="#8D75F3"/>
<circle r="7.5" transform="matrix(-1 -8.74228e-08 -8.74228e-08 1 214.502 260.5)" fill="#8D75F3"/>
<circle r="7.5" transform="matrix(-1 -8.74228e-08 -8.74228e-08 1 214.502 444.5)" fill="#8D75F3"/>
<circle r="7.5" transform="matrix(-1 -8.74228e-08 -8.74228e-08 1 214.502 467.5)" fill="#8D75F3"/>
<circle r="7.5" transform="matrix(-1 -8.74228e-08 -8.74228e-08 1 214.502 559.5)" fill="#8D75F3"/>
<circle r="7.5" transform="matrix(-1 -8.74228e-08 -8.74228e-08 1 214.502 582.5)" fill="#8D75F3"/>
<circle r="7.5" transform="matrix(-1 -8.74228e-08 -8.74228e-08 1 214.502 536.5)" fill="#8D75F3"/>
<circle r="7.5" transform="matrix(-1 -8.74228e-08 -8.74228e-08 1 214.502 513.5)" fill="#8D75F3"/>
<circle r="7.5" transform="matrix(-1 -8.74228e-08 -8.74228e-08 1 214.502 605.5)" fill="#8D75F3"/>
<circle r="7.5" transform="matrix(-1 -8.74228e-08 -8.74228e-08 1 214.502 628.5)" fill="#8D75F3"/>
<circle r="7.5" transform="matrix(-1 -8.74228e-08 -8.74228e-08 1 214.502 651.5)" fill="#8D75F3"/>
<circle r="7.5" transform="matrix(-1 -8.74228e-08 -8.74228e-08 1 214.502 421.5)" fill="#8D75F3"/>
<circle r="7.5" transform="matrix(-1 -8.74228e-08 -8.74228e-08 1 214.502 490.5)" fill="#8D75F3"/>
</svg>
