<svg width="250" height="212" viewBox="0 0 250 212" fill="none" xmlns="http://www.w3.org/2000/svg">
<rect y="212" width="5" height="250" transform="rotate(-90 0 212)" fill="#8D75F3"/>
<rect width="250" height="207" fill="white"/>
<path d="M86.7695 113H81.3398V100.676H73.293V113H67.8438V84.5625H73.293V96.2227H81.3398V84.5625H86.7695V113ZM112.492 101.262H90.6562V96.8281H112.492V101.262ZM135.793 104.094C135.702 105.526 135.389 106.815 134.855 107.961C134.335 109.107 133.632 110.083 132.746 110.891C131.861 111.698 130.806 112.323 129.582 112.766C128.358 113.195 127.004 113.41 125.52 113.41C123.84 113.41 122.349 113.104 121.047 112.492C119.745 111.867 118.651 111.001 117.766 109.895C116.88 108.775 116.203 107.434 115.734 105.871C115.266 104.309 115.031 102.59 115.031 100.715V96.8867C115.031 94.9987 115.279 93.2734 115.773 91.7109C116.268 90.1484 116.971 88.8073 117.883 87.6875C118.794 86.5677 119.895 85.7018 121.184 85.0898C122.486 84.4648 123.944 84.1523 125.559 84.1523C127.121 84.1523 128.508 84.3737 129.719 84.8164C130.943 85.2591 131.984 85.8906 132.844 86.7109C133.703 87.5312 134.38 88.5339 134.875 89.7188C135.37 90.9036 135.682 92.2383 135.812 93.7227H130.344C130.292 92.8763 130.161 92.1341 129.953 91.4961C129.758 90.8581 129.465 90.3307 129.074 89.9141C128.697 89.4844 128.215 89.1654 127.629 88.957C127.056 88.7357 126.366 88.625 125.559 88.625C124.712 88.625 123.977 88.8073 123.352 89.1719C122.727 89.5365 122.206 90.0703 121.789 90.7734C121.385 91.4766 121.086 92.3424 120.891 93.3711C120.695 94.3867 120.598 95.5456 120.598 96.8477V100.715C120.598 103.514 120.988 105.585 121.77 106.926C122.564 108.267 123.814 108.938 125.52 108.938C126.952 108.938 128.085 108.56 128.918 107.805C129.751 107.036 130.214 105.799 130.305 104.094H135.793ZM160.539 101.262H138.703V96.8281H160.539V101.262ZM182.863 113H177.434V100.676H169.387V113H163.938V84.5625H169.387V96.2227H177.434V84.5625H182.863V113Z" fill="#8D75F3"/>
<path d="M132.816 53H127.387V40.6758H119.34V53H113.891V24.5625H119.34V36.2227H127.387V24.5625H132.816V53Z" fill="#8D75F3"/>
<path d="M134.816 175H129.387V162.676H121.34V175H115.891V146.562H121.34V158.223H129.387V146.562H134.816V175Z" fill="#8D75F3"/>
<line x1="125.25" y1="120" x2="125.25" y2="142.24" stroke="#8D75F3" stroke-width="4.5"/>
<line x1="123.25" y1="57" x2="123.25" y2="79.24" stroke="#8D75F3" stroke-width="4.5"/>
</svg>
