<svg width="250" height="212" viewBox="0 0 250 212" fill="none" xmlns="http://www.w3.org/2000/svg">
<rect y="212" width="5" height="250" transform="rotate(-90 0 212)" fill="#00C7A5"/>
<rect width="250" height="207" fill="white"/>
<path d="M87.8438 164.871C87.8438 166.694 87.6029 168.374 87.1211 169.91C86.6393 171.447 85.9427 172.768 85.0312 173.875C84.1198 174.982 83.0065 175.848 81.6914 176.473C80.3893 177.085 78.918 177.391 77.2773 177.391C75.6367 177.391 74.1784 177.085 72.9023 176.473C71.6263 175.848 70.5521 174.982 69.6797 173.875C68.8073 172.755 68.1432 171.434 67.6875 169.91C67.2318 168.374 67.0039 166.694 67.0039 164.871V160.73C67.0039 158.908 67.2318 157.228 67.6875 155.691C68.1432 154.155 68.8073 152.833 69.6797 151.727C70.5521 150.607 71.6198 149.734 72.8828 149.109C74.1589 148.484 75.6172 148.172 77.2578 148.172C78.9115 148.172 80.3893 148.484 81.6914 149.109C83.0065 149.734 84.1198 150.607 85.0312 151.727C85.9427 152.833 86.6393 154.155 87.1211 155.691C87.6029 157.228 87.8438 158.908 87.8438 160.73V164.871ZM82.2773 160.691C82.2773 159.533 82.1797 158.465 81.9844 157.488C81.8021 156.512 81.5091 155.672 81.1055 154.969C80.7018 154.266 80.181 153.719 79.543 153.328C78.918 152.924 78.1562 152.723 77.2578 152.723C76.3724 152.723 75.6302 152.924 75.0312 153.328C74.4323 153.719 73.9505 154.266 73.5859 154.969C73.2214 155.672 72.9609 156.512 72.8047 157.488C72.6484 158.465 72.5703 159.533 72.5703 160.691V164.871C72.5703 166.017 72.6484 167.078 72.8047 168.055C72.9609 169.031 73.2214 169.878 73.5859 170.594C73.9505 171.31 74.4323 171.87 75.0312 172.273C75.6302 172.677 76.3789 172.879 77.2773 172.879C78.1628 172.879 78.918 172.677 79.543 172.273C80.181 171.87 80.6953 171.316 81.0859 170.613C81.4896 169.897 81.7891 169.051 81.9844 168.074C82.1797 167.098 82.2773 166.03 82.2773 164.871V160.691ZM111.027 162.996H92.5508V158.543H111.027V162.996ZM111.027 171.414H92.5508V166.98H111.027V171.414ZM135.793 168.094C135.702 169.526 135.389 170.815 134.855 171.961C134.335 173.107 133.632 174.083 132.746 174.891C131.861 175.698 130.806 176.323 129.582 176.766C128.358 177.195 127.004 177.41 125.52 177.41C123.84 177.41 122.349 177.104 121.047 176.492C119.745 175.867 118.651 175.001 117.766 173.895C116.88 172.775 116.203 171.434 115.734 169.871C115.266 168.309 115.031 166.59 115.031 164.715V160.887C115.031 158.999 115.279 157.273 115.773 155.711C116.268 154.148 116.971 152.807 117.883 151.688C118.794 150.568 119.895 149.702 121.184 149.09C122.486 148.465 123.944 148.152 125.559 148.152C127.121 148.152 128.508 148.374 129.719 148.816C130.943 149.259 131.984 149.891 132.844 150.711C133.703 151.531 134.38 152.534 134.875 153.719C135.37 154.904 135.682 156.238 135.812 157.723H130.344C130.292 156.876 130.161 156.134 129.953 155.496C129.758 154.858 129.465 154.331 129.074 153.914C128.697 153.484 128.215 153.165 127.629 152.957C127.056 152.736 126.366 152.625 125.559 152.625C124.712 152.625 123.977 152.807 123.352 153.172C122.727 153.536 122.206 154.07 121.789 154.773C121.385 155.477 121.086 156.342 120.891 157.371C120.695 158.387 120.598 159.546 120.598 160.848V164.715C120.598 167.514 120.988 169.585 121.77 170.926C122.564 172.267 123.814 172.938 125.52 172.938C126.952 172.938 128.085 172.56 128.918 171.805C129.751 171.036 130.214 169.799 130.305 168.094H135.793ZM159.074 162.996H140.598V158.543H159.074V162.996ZM159.074 171.414H140.598V166.98H159.074V171.414ZM183.938 164.871C183.938 166.694 183.697 168.374 183.215 169.91C182.733 171.447 182.036 172.768 181.125 173.875C180.214 174.982 179.1 175.848 177.785 176.473C176.483 177.085 175.012 177.391 173.371 177.391C171.73 177.391 170.272 177.085 168.996 176.473C167.72 175.848 166.646 174.982 165.773 173.875C164.901 172.755 164.237 171.434 163.781 169.91C163.326 168.374 163.098 166.694 163.098 164.871V160.73C163.098 158.908 163.326 157.228 163.781 155.691C164.237 154.155 164.901 152.833 165.773 151.727C166.646 150.607 167.714 149.734 168.977 149.109C170.253 148.484 171.711 148.172 173.352 148.172C175.005 148.172 176.483 148.484 177.785 149.109C179.1 149.734 180.214 150.607 181.125 151.727C182.036 152.833 182.733 154.155 183.215 155.691C183.697 157.228 183.938 158.908 183.938 160.73V164.871ZM178.371 160.691C178.371 159.533 178.273 158.465 178.078 157.488C177.896 156.512 177.603 155.672 177.199 154.969C176.796 154.266 176.275 153.719 175.637 153.328C175.012 152.924 174.25 152.723 173.352 152.723C172.466 152.723 171.724 152.924 171.125 153.328C170.526 153.719 170.044 154.266 169.68 154.969C169.315 155.672 169.055 156.512 168.898 157.488C168.742 158.465 168.664 159.533 168.664 160.691V164.871C168.664 166.017 168.742 167.078 168.898 168.055C169.055 169.031 169.315 169.878 169.68 170.594C170.044 171.31 170.526 171.87 171.125 172.273C171.724 172.677 172.473 172.879 173.371 172.879C174.257 172.879 175.012 172.677 175.637 172.273C176.275 171.87 176.789 171.316 177.18 170.613C177.583 169.897 177.883 169.051 178.078 168.074C178.273 167.098 178.371 166.03 178.371 164.871V160.691Z" fill="#00C7A5"/>
</svg>
