<svg width="220" height="212" viewBox="0 0 220 212" fill="none" xmlns="http://www.w3.org/2000/svg">
<rect y="212" width="5" height="220" transform="rotate(-90 0 212)" fill="#00C7A5"/>
<rect width="220" height="207" fill="white"/>
<path d="M71.8438 164.871C71.8438 166.694 71.6029 168.374 71.1211 169.91C70.6393 171.447 69.9427 172.768 69.0312 173.875C68.1198 174.982 67.0065 175.848 65.6914 176.473C64.3893 177.085 62.918 177.391 61.2773 177.391C59.6367 177.391 58.1784 177.085 56.9023 176.473C55.6263 175.848 54.5521 174.982 53.6797 173.875C52.8073 172.755 52.1432 171.434 51.6875 169.91C51.2318 168.374 51.0039 166.694 51.0039 164.871V160.73C51.0039 158.908 51.2318 157.228 51.6875 155.691C52.1432 154.155 52.8073 152.833 53.6797 151.727C54.5521 150.607 55.6198 149.734 56.8828 149.109C58.1589 148.484 59.6172 148.172 61.2578 148.172C62.9115 148.172 64.3893 148.484 65.6914 149.109C67.0065 149.734 68.1198 150.607 69.0312 151.727C69.9427 152.833 70.6393 154.155 71.1211 155.691C71.6029 157.228 71.8438 158.908 71.8438 160.73V164.871ZM66.2773 160.691C66.2773 159.533 66.1797 158.465 65.9844 157.488C65.8021 156.512 65.5091 155.672 65.1055 154.969C64.7018 154.266 64.181 153.719 63.543 153.328C62.918 152.924 62.1562 152.723 61.2578 152.723C60.3724 152.723 59.6302 152.924 59.0312 153.328C58.4323 153.719 57.9505 154.266 57.5859 154.969C57.2214 155.672 56.9609 156.512 56.8047 157.488C56.6484 158.465 56.5703 159.533 56.5703 160.691V164.871C56.5703 166.017 56.6484 167.078 56.8047 168.055C56.9609 169.031 57.2214 169.878 57.5859 170.594C57.9505 171.31 58.4323 171.87 59.0312 172.273C59.6302 172.677 60.3789 172.879 61.2773 172.879C62.1628 172.879 62.918 172.677 63.543 172.273C64.181 171.87 64.6953 171.316 65.0859 170.613C65.4896 169.897 65.7891 169.051 65.9844 168.074C66.1797 167.098 66.2773 166.03 66.2773 164.871V160.691ZM95.0273 162.996H76.5508V158.543H95.0273V162.996ZM95.0273 171.414H76.5508V166.98H95.0273V171.414ZM119.793 168.094C119.702 169.526 119.389 170.815 118.855 171.961C118.335 173.107 117.632 174.083 116.746 174.891C115.861 175.698 114.806 176.323 113.582 176.766C112.358 177.195 111.004 177.41 109.52 177.41C107.84 177.41 106.349 177.104 105.047 176.492C103.745 175.867 102.651 175.001 101.766 173.895C100.88 172.775 100.203 171.434 99.7344 169.871C99.2656 168.309 99.0312 166.59 99.0312 164.715V160.887C99.0312 158.999 99.2786 157.273 99.7734 155.711C100.268 154.148 100.971 152.807 101.883 151.688C102.794 150.568 103.895 149.702 105.184 149.09C106.486 148.465 107.944 148.152 109.559 148.152C111.121 148.152 112.508 148.374 113.719 148.816C114.943 149.259 115.984 149.891 116.844 150.711C117.703 151.531 118.38 152.534 118.875 153.719C119.37 154.904 119.682 156.238 119.812 157.723H114.344C114.292 156.876 114.161 156.134 113.953 155.496C113.758 154.858 113.465 154.331 113.074 153.914C112.697 153.484 112.215 153.165 111.629 152.957C111.056 152.736 110.366 152.625 109.559 152.625C108.712 152.625 107.977 152.807 107.352 153.172C106.727 153.536 106.206 154.07 105.789 154.773C105.385 155.477 105.086 156.342 104.891 157.371C104.695 158.387 104.598 159.546 104.598 160.848V164.715C104.598 167.514 104.988 169.585 105.77 170.926C106.564 172.267 107.814 172.938 109.52 172.938C110.952 172.938 112.085 172.56 112.918 171.805C113.751 171.036 114.214 169.799 114.305 168.094H119.793ZM143.074 162.996H124.598V158.543H143.074V162.996ZM143.074 171.414H124.598V166.98H143.074V171.414ZM167.938 164.871C167.938 166.694 167.697 168.374 167.215 169.91C166.733 171.447 166.036 172.768 165.125 173.875C164.214 174.982 163.1 175.848 161.785 176.473C160.483 177.085 159.012 177.391 157.371 177.391C155.73 177.391 154.272 177.085 152.996 176.473C151.72 175.848 150.646 174.982 149.773 173.875C148.901 172.755 148.237 171.434 147.781 169.91C147.326 168.374 147.098 166.694 147.098 164.871V160.73C147.098 158.908 147.326 157.228 147.781 155.691C148.237 154.155 148.901 152.833 149.773 151.727C150.646 150.607 151.714 149.734 152.977 149.109C154.253 148.484 155.711 148.172 157.352 148.172C159.005 148.172 160.483 148.484 161.785 149.109C163.1 149.734 164.214 150.607 165.125 151.727C166.036 152.833 166.733 154.155 167.215 155.691C167.697 157.228 167.938 158.908 167.938 160.73V164.871ZM162.371 160.691C162.371 159.533 162.273 158.465 162.078 157.488C161.896 156.512 161.603 155.672 161.199 154.969C160.796 154.266 160.275 153.719 159.637 153.328C159.012 152.924 158.25 152.723 157.352 152.723C156.466 152.723 155.724 152.924 155.125 153.328C154.526 153.719 154.044 154.266 153.68 154.969C153.315 155.672 153.055 156.512 152.898 157.488C152.742 158.465 152.664 159.533 152.664 160.691V164.871C152.664 166.017 152.742 167.078 152.898 168.055C153.055 169.031 153.315 169.878 153.68 170.594C154.044 171.31 154.526 171.87 155.125 172.273C155.724 172.677 156.473 172.879 157.371 172.879C158.257 172.879 159.012 172.677 159.637 172.273C160.275 171.87 160.789 171.316 161.18 170.613C161.583 169.897 161.883 169.051 162.078 168.074C162.273 167.098 162.371 166.03 162.371 164.871V160.691Z" fill="#00C7A5"/>
</svg>
