<svg width="174" height="219" viewBox="0 0 174 219" fill="none" xmlns="http://www.w3.org/2000/svg">
<path d="M159.5 137.955V201.473C159.5 201.749 159.276 201.973 159 201.973H44C43.7239 201.973 43.5 201.749 43.5 201.473V137.955C43.5 137.679 43.7239 137.455 44 137.455H70.5128C72.4458 137.455 74.0128 135.888 74.0128 133.955V118.726C74.0128 118.303 74.5058 118.071 74.8318 118.341L94.2161 134.397C96.4976 136.287 99.9487 134.664 99.9487 131.702V118.809C99.9487 118.382 100.449 118.151 100.773 118.428L122.087 136.618C122.721 137.158 123.526 137.455 124.359 137.455H159C159.276 137.455 159.5 137.679 159.5 137.955Z" fill="white" stroke="#00C7A5" stroke-width="3"/>
<rect x="124.5" y="166.973" width="20" height="35" stroke="#00C7A5" stroke-width="3"/>
<path d="M48.4534 68.9727H60.0324C60.2986 68.9727 60.5182 69.1813 60.5317 69.4473L63.5 127.87V201.473C63.5 201.749 63.2761 201.973 63 201.973H44C43.7239 201.973 43.5 201.749 43.5 201.473V127.889L47.9548 69.4347C47.9747 69.174 48.192 68.9727 48.4534 68.9727Z" fill="white" stroke="#00C7A5" stroke-width="3"/>
<line x1="45" y1="123.973" x2="62" y2="123.973" stroke="#00C7A5" stroke-width="3"/>
<line x1="44" y1="152.973" x2="63" y2="152.973" stroke="#00C7A5" stroke-width="3"/>
<line x1="44" y1="162.973" x2="63" y2="162.973" stroke="#00C7A5" stroke-width="3"/>
<line x1="44" y1="171.973" x2="63" y2="171.973" stroke="#00C7A5" stroke-width="3"/>
<mask id="path-8-inside-1" fill="white">
<path fill-rule="evenodd" clip-rule="evenodd" d="M29.7828 19C29.7828 16.2386 32.0214 14 34.7828 14H63.5929C66.3543 14 68.5929 16.2386 68.5929 19V21.2222C68.5929 23.9836 70.8315 26.2222 73.5929 26.2222H78.2778C81.0392 26.2222 83.2778 28.4607 83.2778 31.2222V36.4999C83.2778 39.2614 81.0392 41.4999 78.2778 41.4999H68.4167C65.6553 41.4999 63.4167 43.7385 63.4167 46.4999V53.3054C63.4167 56.0669 61.1781 58.3054 58.4167 58.3054H48.5119C46.6184 58.3054 45.0833 56.7704 45.0833 54.8769V54.8769C45.0833 52.9834 43.5483 51.4484 41.6548 51.4484H29.5381C26.7767 51.4484 24.5381 49.2098 24.5381 46.4484V43.4443C24.5381 40.6829 22.2996 38.4443 19.5381 38.4443H18C15.2386 38.4443 13 36.2058 13 33.4443V29.6943C13 26.9329 15.2386 24.6943 18 24.6943H24.7828C27.5442 24.6943 29.7828 22.4558 29.7828 19.6943V19Z"/>
</mask>
<path fill-rule="evenodd" clip-rule="evenodd" d="M29.7828 19C29.7828 16.2386 32.0214 14 34.7828 14H63.5929C66.3543 14 68.5929 16.2386 68.5929 19V21.2222C68.5929 23.9836 70.8315 26.2222 73.5929 26.2222H78.2778C81.0392 26.2222 83.2778 28.4607 83.2778 31.2222V36.4999C83.2778 39.2614 81.0392 41.4999 78.2778 41.4999H68.4167C65.6553 41.4999 63.4167 43.7385 63.4167 46.4999V53.3054C63.4167 56.0669 61.1781 58.3054 58.4167 58.3054H48.5119C46.6184 58.3054 45.0833 56.7704 45.0833 54.8769V54.8769C45.0833 52.9834 43.5483 51.4484 41.6548 51.4484H29.5381C26.7767 51.4484 24.5381 49.2098 24.5381 46.4484V43.4443C24.5381 40.6829 22.2996 38.4443 19.5381 38.4443H18C15.2386 38.4443 13 36.2058 13 33.4443V29.6943C13 26.9329 15.2386 24.6943 18 24.6943H24.7828C27.5442 24.6943 29.7828 22.4558 29.7828 19.6943V19Z" fill="white"/>
<path d="M63.5929 11H34.7828V17H63.5929V11ZM71.5929 21.2222V19H65.5929V21.2222H71.5929ZM78.2778 23.2222H73.5929V29.2222H78.2778V23.2222ZM86.2778 36.4999V31.2222H80.2778V36.4999H86.2778ZM68.4167 44.4999H78.2778V38.4999H68.4167V44.4999ZM60.4167 46.4999V53.3054H66.4167V46.4999H60.4167ZM58.4167 55.3054H48.5119V61.3054H58.4167V55.3054ZM29.5381 54.4484H41.6548V48.4484H29.5381V54.4484ZM21.5381 43.4443V46.4484H27.5381V43.4443H21.5381ZM18 41.4443H19.5381V35.4443H18V41.4443ZM10 29.6943V33.4443H16V29.6943H10ZM24.7828 21.6943H18V27.6943H24.7828V21.6943ZM26.7828 19V19.6943H32.7828V19H26.7828ZM24.7828 27.6943C29.2011 27.6943 32.7828 24.1126 32.7828 19.6943H26.7828C26.7828 20.7989 25.8874 21.6943 24.7828 21.6943V27.6943ZM16 29.6943C16 28.5898 16.8954 27.6943 18 27.6943V21.6943C13.5817 21.6943 10 25.2761 10 29.6943H16ZM18 35.4443C16.8954 35.4443 16 34.5489 16 33.4443H10C10 37.8626 13.5817 41.4443 18 41.4443V35.4443ZM27.5381 43.4443C27.5381 39.0261 23.9564 35.4443 19.5381 35.4443V41.4443C20.6427 41.4443 21.5381 42.3398 21.5381 43.4443H27.5381ZM29.5381 48.4484C28.4336 48.4484 27.5381 47.5529 27.5381 46.4484H21.5381C21.5381 50.8666 25.1199 54.4484 29.5381 54.4484V48.4484ZM48.0833 54.8769C48.0833 51.3265 45.2052 48.4484 41.6548 48.4484V54.4484C41.8915 54.4484 42.0833 54.6402 42.0833 54.8769H48.0833ZM48.5119 55.3054C48.2752 55.3054 48.0833 55.1136 48.0833 54.8769H42.0833C42.0833 58.4273 44.9615 61.3054 48.5119 61.3054V55.3054ZM60.4167 53.3054C60.4167 54.41 59.5213 55.3054 58.4167 55.3054V61.3054C62.835 61.3054 66.4167 57.7237 66.4167 53.3054H60.4167ZM68.4167 38.4999C63.9984 38.4999 60.4167 42.0817 60.4167 46.4999H66.4167C66.4167 45.3954 67.3121 44.4999 68.4167 44.4999V38.4999ZM80.2778 36.4999C80.2778 37.6045 79.3823 38.4999 78.2778 38.4999V44.4999C82.696 44.4999 86.2778 40.9182 86.2778 36.4999H80.2778ZM78.2778 29.2222C79.3823 29.2222 80.2778 30.1176 80.2778 31.2222H86.2778C86.2778 26.8039 82.6961 23.2222 78.2778 23.2222V29.2222ZM65.5929 21.2222C65.5929 25.6404 69.1747 29.2222 73.5929 29.2222V23.2222C72.4884 23.2222 71.5929 22.3267 71.5929 21.2222H65.5929ZM34.7828 11C30.3645 11 26.7828 14.5817 26.7828 19H32.7828C32.7828 17.8954 33.6782 17 34.7828 17V11ZM63.5929 17C64.6975 17 65.5929 17.8954 65.5929 19H71.5929C71.5929 14.5817 68.0112 11 63.5929 11V17Z" fill="#00C7A5" mask="url(#path-8-inside-1)"/>
</svg>
