<svg width="220" height="212" viewBox="0 0 220 212" fill="none" xmlns="http://www.w3.org/2000/svg">
<rect width="220" height="207" fill="white"/>
<rect y="212" width="5" height="220" transform="rotate(-90 0 212)" fill="#FBC800"/>
<path d="M88.3711 99.6392H80.7539V107H77.3115V89.2266H89.3232V92.022H80.7539V96.856H88.3711V99.6392Z" fill="#FBC800"/>
<path d="M54.3711 99.6392H46.7539V107H43.3115V89.2266H55.3232V92.022H46.7539V96.856H54.3711V99.6392Z" fill="#FBC800"/>
<path d="M88.3711 170.639H80.7539V178H77.3115V160.227H89.3232V163.022H80.7539V167.856H88.3711V170.639Z" fill="#FBC800"/>
<path d="M53.3711 171.639H45.7539V179H42.3115V161.227H54.3232V164.022H45.7539V168.856H53.3711V171.639Z" fill="#FBC800"/>
<line x1="77.2131" y1="109.882" x2="69.2131" y2="120.882" stroke="#FBC800" stroke-width="3"/>
<path d="M165.371 128.639H157.754V136H154.312V118.227H166.323V121.022H157.754V125.856H165.371V128.639Z" fill="#FBC800"/>
<line x1="156.5" y1="142" x2="156.5" y2="156" stroke="#FBC800" stroke-width="3"/>
<line x1="50.2131" y1="110.118" x2="58.2131" y2="121.118" stroke="#FBC800" stroke-width="3"/>
<line x1="49.7869" y1="157.118" x2="57.7869" y2="146.118" stroke="#FBC800" stroke-width="3"/>
<line x1="76.7869" y1="156.882" x2="68.7869" y2="145.882" stroke="#FBC800" stroke-width="3"/>
<path d="M38.3418 136.639H30.7246V144H27.2822V126.227H39.2939V129.022H30.7246V133.856H38.3418V136.639ZM54.8701 136.664H41.2227V133.893H54.8701V136.664ZM66.3203 139.361C66.3203 139.044 66.2633 138.747 66.1494 138.47C66.0436 138.194 65.8564 137.937 65.5879 137.701C65.3275 137.457 64.9816 137.237 64.5503 137.042C64.1271 136.839 63.5981 136.651 62.9634 136.48C62.1903 136.269 61.4497 136.004 60.7417 135.687C60.0418 135.37 59.4233 134.987 58.8862 134.54C58.3491 134.092 57.9178 133.571 57.5923 132.977C57.2749 132.383 57.1162 131.699 57.1162 130.926C57.1162 130.178 57.2749 129.498 57.5923 128.888C57.9097 128.277 58.3491 127.757 58.9106 127.325C59.4722 126.894 60.1354 126.564 60.9004 126.336C61.6654 126.1 62.4954 125.982 63.3906 125.982C64.3184 125.982 65.1647 126.117 65.9297 126.385C66.7028 126.654 67.366 127.032 67.9194 127.521C68.4728 128.001 68.9041 128.574 69.2134 129.242C69.5226 129.909 69.6772 130.641 69.6772 131.439H66.3325C66.3162 131.04 66.243 130.674 66.1128 130.34C65.9907 130.007 65.8035 129.722 65.5513 129.486C65.3071 129.242 64.9979 129.055 64.6235 128.924C64.2573 128.786 63.826 128.717 63.3296 128.717C62.8739 128.717 62.467 128.774 62.1089 128.888C61.759 128.993 61.4619 129.148 61.2178 129.352C60.9736 129.547 60.7865 129.783 60.6562 130.06C60.5342 130.328 60.4731 130.621 60.4731 130.938C60.4731 131.272 60.5545 131.573 60.7173 131.842C60.8882 132.11 61.1323 132.354 61.4497 132.574C61.7671 132.786 62.1496 132.981 62.5972 133.16C63.0529 133.339 63.5656 133.506 64.1353 133.661C64.9491 133.897 65.6978 134.186 66.3813 134.527C67.0649 134.869 67.6509 135.276 68.1392 135.748C68.6356 136.212 69.0181 136.745 69.2866 137.347C69.5633 137.941 69.7017 138.604 69.7017 139.337C69.7017 140.118 69.543 140.814 69.2256 141.424C68.9163 142.027 68.485 142.539 67.9316 142.962C67.3783 143.377 66.7191 143.695 65.9541 143.915C65.1891 144.126 64.355 144.232 63.4517 144.232C62.8901 144.232 62.3286 144.179 61.7671 144.073C61.2137 143.976 60.6807 143.821 60.168 143.609C59.6634 143.398 59.1914 143.133 58.752 142.816C58.3125 142.499 57.93 142.128 57.6045 141.705C57.2871 141.282 57.0348 140.802 56.8477 140.265C56.6686 139.728 56.5791 139.133 56.5791 138.482H59.9482C59.9645 139.02 60.0581 139.479 60.229 139.862C60.3999 140.244 60.6359 140.558 60.937 140.802C61.2463 141.046 61.6125 141.225 62.0356 141.339C62.467 141.453 62.939 141.51 63.4517 141.51C63.9074 141.51 64.3102 141.457 64.6602 141.351C65.0182 141.245 65.3193 141.099 65.5635 140.912C65.8076 140.724 65.9948 140.501 66.125 140.24C66.2552 139.972 66.3203 139.679 66.3203 139.361ZM84.8994 136.664H71.252V133.893H84.8994V136.664ZM98.4004 136.639H90.7832V144H87.3408V126.227H99.3525V129.022H90.7832V133.856H98.4004V136.639Z" fill="#FBC800"/>
<path d="M132.342 171.639H124.725V179H121.282V161.227H133.294V164.022H124.725V168.856H132.342V171.639ZM148.87 171.664H135.223V168.893H148.87V171.664ZM162.811 179H159.393L154.449 167.538V179H150.994V161.227H154.449L159.356 172.64L159.368 161.227H162.811V179ZM178.899 171.664H165.252V168.893H178.899V171.664ZM192.4 171.639H184.783V179H181.341V161.227H193.353V164.022H184.783V168.856H192.4V171.639Z" fill="#FBC800"/>
</svg>
