<svg width="250" height="212" viewBox="0 0 250 212" fill="none" xmlns="http://www.w3.org/2000/svg">
<rect width="250" height="207" fill="white"/>
<rect y="212" width="5" height="250" transform="rotate(-90 0 212)" fill="#FBC800"/>
<path d="M92.3711 99.6392H84.7539V107H81.3115V89.2266H93.3232V92.022H84.7539V96.856H92.3711V99.6392Z" fill="#FBC800"/>
<path d="M58.3711 99.6392H50.7539V107H47.3115V89.2266H59.3232V92.022H50.7539V96.856H58.3711V99.6392Z" fill="#FBC800"/>
<path d="M92.3711 170.639H84.7539V178H81.3115V160.227H93.3232V163.022H84.7539V167.856H92.3711V170.639Z" fill="#FBC800"/>
<path d="M57.3711 171.639H49.7539V179H46.3115V161.227H58.3232V164.022H49.7539V168.856H57.3711V171.639Z" fill="#FBC800"/>
<line x1="81.2131" y1="109.882" x2="73.2131" y2="120.882" stroke="#FBC800" stroke-width="3"/>
<path d="M189.371 128.639H181.754V136H178.312V118.227H190.323V121.022H181.754V125.856H189.371V128.639Z" fill="#FBC800"/>
<line x1="180.5" y1="142" x2="180.5" y2="156" stroke="#FBC800" stroke-width="3"/>
<line x1="54.2131" y1="110.118" x2="62.2131" y2="121.118" stroke="#FBC800" stroke-width="3"/>
<line x1="53.7869" y1="157.118" x2="61.7869" y2="146.118" stroke="#FBC800" stroke-width="3"/>
<line x1="80.7869" y1="156.882" x2="72.7869" y2="145.882" stroke="#FBC800" stroke-width="3"/>
<path d="M42.3418 136.639H34.7246V144H31.2822V126.227H43.2939V129.022H34.7246V133.856H42.3418V136.639ZM58.8701 136.664H45.2227V133.893H58.8701V136.664ZM70.3203 139.361C70.3203 139.044 70.2633 138.747 70.1494 138.47C70.0436 138.194 69.8564 137.937 69.5879 137.701C69.3275 137.457 68.9816 137.237 68.5503 137.042C68.1271 136.839 67.5981 136.651 66.9634 136.48C66.1903 136.269 65.4497 136.004 64.7417 135.687C64.0418 135.37 63.4233 134.987 62.8862 134.54C62.3491 134.092 61.9178 133.571 61.5923 132.977C61.2749 132.383 61.1162 131.699 61.1162 130.926C61.1162 130.178 61.2749 129.498 61.5923 128.888C61.9097 128.277 62.3491 127.757 62.9106 127.325C63.4722 126.894 64.1354 126.564 64.9004 126.336C65.6654 126.1 66.4954 125.982 67.3906 125.982C68.3184 125.982 69.1647 126.117 69.9297 126.385C70.7028 126.654 71.366 127.032 71.9194 127.521C72.4728 128.001 72.9041 128.574 73.2134 129.242C73.5226 129.909 73.6772 130.641 73.6772 131.439H70.3325C70.3162 131.04 70.243 130.674 70.1128 130.34C69.9907 130.007 69.8035 129.722 69.5513 129.486C69.3071 129.242 68.9979 129.055 68.6235 128.924C68.2573 128.786 67.826 128.717 67.3296 128.717C66.8739 128.717 66.467 128.774 66.1089 128.888C65.759 128.993 65.4619 129.148 65.2178 129.352C64.9736 129.547 64.7865 129.783 64.6562 130.06C64.5342 130.328 64.4731 130.621 64.4731 130.938C64.4731 131.272 64.5545 131.573 64.7173 131.842C64.8882 132.11 65.1323 132.354 65.4497 132.574C65.7671 132.786 66.1496 132.981 66.5972 133.16C67.0529 133.339 67.5656 133.506 68.1353 133.661C68.9491 133.897 69.6978 134.186 70.3813 134.527C71.0649 134.869 71.6509 135.276 72.1392 135.748C72.6356 136.212 73.0181 136.745 73.2866 137.347C73.5633 137.941 73.7017 138.604 73.7017 139.337C73.7017 140.118 73.543 140.814 73.2256 141.424C72.9163 142.027 72.485 142.539 71.9316 142.962C71.3783 143.377 70.7191 143.695 69.9541 143.915C69.1891 144.126 68.355 144.232 67.4517 144.232C66.8901 144.232 66.3286 144.179 65.7671 144.073C65.2137 143.976 64.6807 143.821 64.168 143.609C63.6634 143.398 63.1914 143.133 62.752 142.816C62.3125 142.499 61.93 142.128 61.6045 141.705C61.2871 141.282 61.0348 140.802 60.8477 140.265C60.6686 139.728 60.5791 139.133 60.5791 138.482H63.9482C63.9645 139.02 64.0581 139.479 64.229 139.862C64.3999 140.244 64.6359 140.558 64.937 140.802C65.2463 141.046 65.6125 141.225 66.0356 141.339C66.467 141.453 66.939 141.51 67.4517 141.51C67.9074 141.51 68.3102 141.457 68.6602 141.351C69.0182 141.245 69.3193 141.099 69.5635 140.912C69.8076 140.724 69.9948 140.501 70.125 140.24C70.2552 139.972 70.3203 139.679 70.3203 139.361ZM88.8994 136.664H75.252V133.893H88.8994V136.664ZM102.4 136.639H94.7832V144H91.3408V126.227H103.353V129.022H94.7832V133.856H102.4V136.639Z" fill="#FBC800"/>
<path d="M156.342 171.639H148.725V179H145.282V161.227H157.294V164.022H148.725V168.856H156.342V171.639ZM172.87 171.664H159.223V168.893H172.87V171.664ZM186.811 179H183.393L178.449 167.538V179H174.994V161.227H178.449L183.356 172.64L183.368 161.227H186.811V179ZM202.899 171.664H189.252V168.893H202.899V171.664ZM216.4 171.639H208.783V179H205.341V161.227H217.353V164.022H208.783V168.856H216.4V171.639Z" fill="#FBC800"/>
</svg>
