<svg width="142" height="120" viewBox="0 0 142 120" fill="none" xmlns="http://www.w3.org/2000/svg">
<path d="M39.1328 66.2597C38.401 66.6036 38.0782 67.4692 38.4043 68.209L41.7467 75.3946C41.9109 75.7524 42.2105 76.031 42.5789 76.1684C42.7404 76.2271 42.9115 76.2574 43.0837 76.2574C43.299 76.2593 43.5116 76.2132 43.7075 76.1242L68.9609 64.3115L66.6735 88.2625C66.6293 88.734 66.8108 89.1975 67.1629 89.5125C68.2701 90.4302 69.6498 90.9529 71.0854 91C71.4813 90.9995 71.8748 90.9497 72.2586 90.8519C74.3087 90.3161 75.8983 88.4866 76.9826 85.362L86.9205 55.8917L106.603 46.6972C112.396 43.99 115.382 38.5006 113.377 34.216C112.239 31.9765 110.06 30.4531 107.569 30.1545C104.801 29.7361 101.972 30.1722 99.4579 31.4049L76.7445 42.0711L52.3238 32.5053C49.2484 31.3453 46.8126 31.3751 45.1045 32.6101C43.6712 33.7878 42.8557 35.5582 42.8906 37.4147C42.9055 37.8857 43.1423 38.3213 43.5293 38.5905L59.9734 49.9113L50.556 54.3744L34.7646 50.3571C34.1176 50.1978 33.444 50.4899 33.116 51.0713L29.18 58.167C28.9758 58.543 28.9437 58.9893 29.0921 59.3909C29.2396 59.7929 29.5531 60.1111 29.9527 60.2649L41.6434 65.1002L39.1328 66.2597Z" fill="white"/>
<path d="M39.1328 66.2597C38.401 66.6036 38.0782 67.4692 38.4043 68.209L41.7467 75.3946C41.9109 75.7524 42.2105 76.031 42.5789 76.1684C42.7404 76.2271 42.9115 76.2574 43.0837 76.2574C43.299 76.2593 43.5116 76.2132 43.7075 76.1242L68.9609 64.3115L66.6735 88.2625C66.6293 88.734 66.8108 89.1975 67.1629 89.5125C68.2701 90.4302 69.6498 90.9529 71.0854 91C71.4813 90.9995 71.8748 90.9497 72.2586 90.8519C74.3087 90.3161 75.8983 88.4866 76.9826 85.362L86.9205 55.8917L106.603 46.6972C112.396 43.99 115.382 38.5006 113.377 34.216C112.239 31.9765 110.06 30.4531 107.569 30.1545C104.801 29.7361 101.972 30.1722 99.4579 31.4049L76.7445 42.0711L52.3238 32.5053C49.2484 31.3453 46.8126 31.3751 45.1045 32.6101C43.6712 33.7878 42.8557 35.5582 42.8906 37.4147C42.9055 37.8857 43.1423 38.3213 43.5293 38.5905L59.9734 49.9113L50.556 54.3744L34.7646 50.3571C34.1176 50.1978 33.444 50.4899 33.116 51.0713L29.18 58.167C28.9758 58.543 28.9437 58.9893 29.0921 59.3909C29.2396 59.7929 29.5531 60.1111 29.9527 60.2649L41.6434 65.1002L39.1328 66.2597ZM45.9353 36.6711C46.0227 36.0422 46.3405 35.4697 46.8271 35.0643C47.6742 34.454 49.2191 34.5435 51.2836 35.3168L73.0313 43.8116L63.1078 48.4531L45.9353 36.6711ZM32.5666 58.1526L35.1512 53.5558L50.3476 57.3341C50.6751 57.417 51.0208 57.3858 51.3287 57.2455L100.721 34.1419C102.684 33.172 104.896 32.8188 107.064 33.13C108.584 33.2703 109.938 34.1489 110.689 35.4804C111.935 38.1587 109.485 42.0711 105.34 44.0049L88.2272 52.0389L89.2674 48.9586C89.5302 48.1661 89.1009 47.3098 88.3096 47.0471C87.5174 46.7843 86.6628 47.2143 86.4004 48.0068L74.1747 84.4391C73.4467 86.5076 72.5405 87.7426 71.5306 88.0096C70.9049 88.1302 70.2574 88.0072 69.7182 87.6681L72.6894 56.4265C72.7671 55.6052 72.1656 54.8761 71.3445 54.7983C70.5244 54.7196 69.7964 55.3229 69.7182 56.1442L69.2581 60.9194L43.7666 72.8207L41.6732 68.3576L45.8613 66.3944C46.4005 66.1563 46.748 65.6224 46.748 65.0331C46.748 64.4433 46.4005 63.9094 45.8613 63.6718L32.5666 58.1526Z" fill="#00C7A5"/>
</svg>
