<svg width="1440" height="1024" viewBox="0 0 1440 1024" fill="none" xmlns="http://www.w3.org/2000/svg">
<g clip-path="url(#clip0)">
<rect width="1440" height="1024" fill="white"/>
<path d="M191 704V570H237V660H383V570H431V704H191Z" stroke="black" stroke-width="3"/>
<path d="M-1 570H159H201H211H367H383H431V550H533V590H654.5C669 590 666.5 599.5 678.5 599.5C685.542 599.5 685.5 588.5 685.5 588.5C694.5 588.5 694.5 599.5 700 599.5C710.5 599.5 709 588.5 709 588.5C720.5 588.5 718 599.5 724 599.5C734.5 599.5 733 588.5 733 588.5C744 587.5 741 598 748 598C755 598 756.5 588.5 756.5 588.5C766.5 588.5 767.09 597.566 771 598C784.5 599.5 783 590 797.5 590V570H1385V590H1437" stroke="black" stroke-width="3"/>
<rect x="568" y="468" width="151" height="241" rx="8" transform="rotate(-90 568 468)" fill="#8D75F3" fill-opacity="0.16"/>
<g filter="url(#filter0_d)">
<circle cx="938" cy="427" r="23" fill="#6CBAFA"/>
</g>
<line x1="938.29" y1="416.105" x2="938.29" y2="439.105" stroke="white" stroke-width="3"/>
<path d="M950.105 428.21L926.5 428.21" stroke="white" stroke-width="3"/>
<g filter="url(#filter1_d)">
<circle cx="568" cy="466" r="23" fill="#8D75F3"/>
</g>
<line x1="568.29" y1="455.105" x2="568.29" y2="478.105" stroke="white" stroke-width="3"/>
<path d="M580.105 467.21L556.5 467.21" stroke="white" stroke-width="3"/>
<g filter="url(#filter2_d)">
<circle cx="338" cy="435" r="23" fill="#00C7A5"/>
</g>
<line x1="338.29" y1="424.105" x2="338.29" y2="447.105" stroke="white" stroke-width="3"/>
<path d="M350.105 436.21L326.5 436.21" stroke="white" stroke-width="3"/>
<path d="M605.404 362.689H599.896L598.744 366H596.176L601.547 351.781H603.764L609.145 366H606.566L605.404 362.689ZM600.59 360.697H604.711L602.65 354.799L600.59 360.697ZM610.121 360.639C610.121 358.998 610.505 357.689 611.273 356.713C612.048 355.73 613.074 355.238 614.35 355.238C615.554 355.238 616.501 355.658 617.191 356.498L617.299 355.434H619.438V365.678C619.438 367.064 619.005 368.158 618.139 368.959C617.279 369.76 616.117 370.16 614.652 370.16C613.878 370.16 613.119 369.997 612.377 369.672C611.641 369.353 611.081 368.933 610.697 368.412L611.82 366.986C612.549 367.852 613.448 368.285 614.516 368.285C615.303 368.285 615.925 368.07 616.381 367.641C616.837 367.217 617.064 366.592 617.064 365.766V365.053C616.381 365.814 615.469 366.195 614.33 366.195C613.093 366.195 612.081 365.704 611.293 364.721C610.512 363.738 610.121 362.377 610.121 360.639ZM612.484 360.844C612.484 361.905 612.699 362.742 613.129 363.354C613.565 363.959 614.167 364.262 614.936 364.262C615.893 364.262 616.602 363.852 617.064 363.031V358.383C616.615 357.582 615.912 357.182 614.955 357.182C614.174 357.182 613.565 357.491 613.129 358.109C612.699 358.728 612.484 359.639 612.484 360.844ZM627.416 357.602C627.104 357.549 626.781 357.523 626.449 357.523C625.362 357.523 624.63 357.94 624.252 358.773V366H621.879V355.434H624.145L624.203 356.615C624.776 355.697 625.57 355.238 626.586 355.238C626.924 355.238 627.204 355.284 627.426 355.375L627.416 357.602ZM631.439 366H629.066V355.434H631.439V366ZM628.92 352.689C628.92 352.325 629.034 352.022 629.262 351.781C629.496 351.54 629.828 351.42 630.258 351.42C630.688 351.42 631.02 351.54 631.254 351.781C631.488 352.022 631.605 352.325 631.605 352.689C631.605 353.048 631.488 353.347 631.254 353.588C631.02 353.822 630.688 353.939 630.258 353.939C629.828 353.939 629.496 353.822 629.262 353.588C629.034 353.347 628.92 353.048 628.92 352.689ZM638.373 364.301C638.965 364.301 639.457 364.128 639.848 363.783C640.238 363.438 640.447 363.012 640.473 362.504H642.709C642.683 363.161 642.478 363.777 642.094 364.35C641.71 364.916 641.189 365.365 640.531 365.697C639.874 366.029 639.164 366.195 638.402 366.195C636.924 366.195 635.753 365.717 634.887 364.76C634.021 363.803 633.588 362.481 633.588 360.795V360.551C633.588 358.943 634.018 357.657 634.877 356.693C635.736 355.723 636.908 355.238 638.393 355.238C639.649 355.238 640.671 355.606 641.459 356.342C642.253 357.071 642.67 358.031 642.709 359.223H640.473C640.447 358.617 640.238 358.119 639.848 357.729C639.464 357.338 638.972 357.143 638.373 357.143C637.605 357.143 637.012 357.423 636.596 357.982C636.179 358.536 635.967 359.379 635.961 360.512V360.893C635.961 362.038 636.166 362.895 636.576 363.461C636.993 364.021 637.592 364.301 638.373 364.301ZM650.902 364.965C650.206 365.785 649.216 366.195 647.934 366.195C646.788 366.195 645.919 365.86 645.326 365.189C644.74 364.519 644.447 363.549 644.447 362.279V355.434H646.82V362.25C646.82 363.591 647.377 364.262 648.49 364.262C649.643 364.262 650.421 363.848 650.824 363.021V355.434H653.197V366H650.961L650.902 364.965ZM658.139 366H655.766V351H658.139V366ZM663.705 352.865V355.434H665.57V357.191H663.705V363.09C663.705 363.493 663.783 363.786 663.939 363.969C664.102 364.145 664.389 364.232 664.799 364.232C665.072 364.232 665.349 364.2 665.629 364.135V365.971C665.089 366.12 664.568 366.195 664.066 366.195C662.243 366.195 661.332 365.189 661.332 363.178V357.191H659.594V355.434H661.332V352.865H663.705ZM673.793 364.965C673.096 365.785 672.107 366.195 670.824 366.195C669.678 366.195 668.809 365.86 668.217 365.189C667.631 364.519 667.338 363.549 667.338 362.279V355.434H669.711V362.25C669.711 363.591 670.268 364.262 671.381 364.262C672.533 364.262 673.311 363.848 673.715 363.021V355.434H676.088V366H673.852L673.793 364.965ZM684.037 357.602C683.725 357.549 683.402 357.523 683.07 357.523C681.983 357.523 681.251 357.94 680.873 358.773V366H678.5V355.434H680.766L680.824 356.615C681.397 355.697 682.191 355.238 683.207 355.238C683.546 355.238 683.826 355.284 684.047 355.375L684.037 357.602ZM689.994 366.195C688.49 366.195 687.27 365.723 686.332 364.779C685.401 363.829 684.936 362.566 684.936 360.99V360.697C684.936 359.643 685.137 358.702 685.541 357.875C685.951 357.042 686.524 356.394 687.26 355.932C687.995 355.469 688.816 355.238 689.721 355.238C691.16 355.238 692.27 355.697 693.051 356.615C693.839 357.533 694.232 358.832 694.232 360.512V361.469H687.328C687.4 362.341 687.689 363.031 688.197 363.539C688.712 364.047 689.356 364.301 690.131 364.301C691.218 364.301 692.104 363.861 692.787 362.982L694.066 364.203C693.643 364.835 693.077 365.326 692.367 365.678C691.664 366.023 690.873 366.195 689.994 366.195ZM689.711 357.143C689.06 357.143 688.533 357.37 688.129 357.826C687.732 358.282 687.478 358.917 687.367 359.73H691.889V359.555C691.837 358.76 691.625 358.161 691.254 357.758C690.883 357.348 690.368 357.143 689.711 357.143ZM700.688 362.162C700.688 361.505 700.867 360.902 701.225 360.355C701.583 359.802 702.289 359.148 703.344 358.393C702.79 357.696 702.403 357.104 702.182 356.615C701.967 356.127 701.859 355.655 701.859 355.199C701.859 354.086 702.198 353.207 702.875 352.562C703.552 351.911 704.464 351.586 705.609 351.586C706.645 351.586 707.491 351.892 708.148 352.504C708.812 353.109 709.145 353.861 709.145 354.76C709.145 355.352 708.995 355.899 708.695 356.4C708.396 356.895 707.904 357.39 707.221 357.885L706.254 358.588L708.998 361.83C709.395 361.049 709.594 360.18 709.594 359.223H711.654C711.654 360.974 711.244 362.41 710.424 363.529L712.514 366H709.76L708.959 365.053C707.943 365.814 706.732 366.195 705.326 366.195C703.92 366.195 702.794 365.824 701.947 365.082C701.107 364.333 700.688 363.36 700.688 362.162ZM705.395 364.301C706.195 364.301 706.944 364.034 707.641 363.5L704.535 359.838L704.232 360.053C703.451 360.645 703.061 361.322 703.061 362.084C703.061 362.742 703.272 363.275 703.695 363.686C704.118 364.096 704.685 364.301 705.395 364.301ZM704.086 355.141C704.086 355.688 704.421 356.374 705.092 357.201L706.176 356.459L706.479 356.215C706.882 355.857 707.084 355.398 707.084 354.838C707.084 354.467 706.944 354.151 706.664 353.891C706.384 353.624 706.029 353.49 705.6 353.49C705.137 353.49 704.77 353.646 704.496 353.959C704.223 354.271 704.086 354.665 704.086 355.141ZM725.15 366C725.046 365.798 724.955 365.469 724.877 365.014C724.122 365.801 723.197 366.195 722.104 366.195C721.042 366.195 720.176 365.893 719.506 365.287C718.835 364.682 718.5 363.933 718.5 363.041C718.5 361.915 718.917 361.052 719.75 360.453C720.59 359.848 721.788 359.545 723.344 359.545H724.799V358.852C724.799 358.305 724.646 357.868 724.34 357.543C724.034 357.211 723.568 357.045 722.943 357.045C722.403 357.045 721.96 357.182 721.615 357.455C721.27 357.722 721.098 358.064 721.098 358.48H718.725C718.725 357.901 718.917 357.361 719.301 356.859C719.685 356.352 720.206 355.954 720.863 355.668C721.527 355.382 722.266 355.238 723.08 355.238C724.317 355.238 725.303 355.551 726.039 356.176C726.775 356.794 727.152 357.667 727.172 358.793V363.559C727.172 364.509 727.305 365.268 727.572 365.834V366H725.15ZM722.543 364.291C723.012 364.291 723.451 364.177 723.861 363.949C724.278 363.721 724.59 363.415 724.799 363.031V361.039H723.52C722.641 361.039 721.98 361.192 721.537 361.498C721.094 361.804 720.873 362.237 720.873 362.797C720.873 363.253 721.023 363.617 721.322 363.891C721.628 364.158 722.035 364.291 722.543 364.291ZM731.859 355.434L731.928 356.654C732.709 355.71 733.734 355.238 735.004 355.238C737.204 355.238 738.324 356.498 738.363 359.018V366H735.99V359.154C735.99 358.484 735.844 357.989 735.551 357.67C735.264 357.344 734.792 357.182 734.135 357.182C733.178 357.182 732.465 357.615 731.996 358.48V366H729.623V355.434H731.859ZM743.314 366H740.941V355.434H743.314V366ZM740.795 352.689C740.795 352.325 740.909 352.022 741.137 351.781C741.371 351.54 741.703 351.42 742.133 351.42C742.562 351.42 742.895 351.54 743.129 351.781C743.363 352.022 743.48 352.325 743.48 352.689C743.48 353.048 743.363 353.347 743.129 353.588C742.895 353.822 742.562 353.939 742.133 353.939C741.703 353.939 741.371 353.822 741.137 353.588C740.909 353.347 740.795 353.048 740.795 352.689ZM748.139 355.434L748.207 356.537C748.949 355.671 749.965 355.238 751.254 355.238C752.667 355.238 753.633 355.779 754.154 356.859C754.923 355.779 756.003 355.238 757.396 355.238C758.562 355.238 759.428 355.561 759.994 356.205C760.567 356.85 760.86 357.8 760.873 359.057V366H758.5V359.125C758.5 358.454 758.354 357.963 758.061 357.65C757.768 357.338 757.283 357.182 756.605 357.182C756.065 357.182 755.622 357.328 755.277 357.621C754.939 357.908 754.701 358.285 754.564 358.754L754.574 366H752.201V359.047C752.169 357.803 751.534 357.182 750.297 357.182C749.346 357.182 748.673 357.569 748.275 358.344V366H745.902V355.434H748.139ZM769.623 366C769.519 365.798 769.428 365.469 769.35 365.014C768.594 365.801 767.67 366.195 766.576 366.195C765.515 366.195 764.649 365.893 763.979 365.287C763.308 364.682 762.973 363.933 762.973 363.041C762.973 361.915 763.389 361.052 764.223 360.453C765.062 359.848 766.26 359.545 767.816 359.545H769.271V358.852C769.271 358.305 769.118 357.868 768.812 357.543C768.507 357.211 768.041 357.045 767.416 357.045C766.876 357.045 766.433 357.182 766.088 357.455C765.743 357.722 765.57 358.064 765.57 358.48H763.197C763.197 357.901 763.389 357.361 763.773 356.859C764.158 356.352 764.678 355.954 765.336 355.668C766 355.382 766.739 355.238 767.553 355.238C768.79 355.238 769.776 355.551 770.512 356.176C771.247 356.794 771.625 357.667 771.645 358.793V363.559C771.645 364.509 771.778 365.268 772.045 365.834V366H769.623ZM767.016 364.291C767.484 364.291 767.924 364.177 768.334 363.949C768.751 363.721 769.063 363.415 769.271 363.031V361.039H767.992C767.113 361.039 766.452 361.192 766.01 361.498C765.567 361.804 765.346 362.237 765.346 362.797C765.346 363.253 765.495 363.617 765.795 363.891C766.101 364.158 766.508 364.291 767.016 364.291ZM776.654 366H774.281V351H776.654V366ZM599.555 381.586C600.329 380.688 601.309 380.238 602.494 380.238C604.747 380.238 605.889 381.524 605.922 384.096V391H603.549V384.184C603.549 383.454 603.389 382.94 603.07 382.641C602.758 382.335 602.296 382.182 601.684 382.182C600.733 382.182 600.023 382.605 599.555 383.451V391H597.182V376H599.555V381.586ZM614.73 389.965C614.034 390.785 613.044 391.195 611.762 391.195C610.616 391.195 609.747 390.86 609.154 390.189C608.568 389.519 608.275 388.549 608.275 387.279V380.434H610.648V387.25C610.648 388.591 611.205 389.262 612.318 389.262C613.471 389.262 614.249 388.848 614.652 388.021V380.434H617.025V391H614.789L614.73 389.965ZM625.365 388.129C625.365 387.706 625.189 387.383 624.838 387.162C624.493 386.941 623.917 386.745 623.109 386.576C622.302 386.407 621.628 386.192 621.088 385.932C619.903 385.359 619.311 384.529 619.311 383.441C619.311 382.53 619.695 381.768 620.463 381.156C621.231 380.544 622.208 380.238 623.393 380.238C624.656 380.238 625.674 380.551 626.449 381.176C627.23 381.801 627.621 382.611 627.621 383.607H625.248C625.248 383.152 625.079 382.774 624.74 382.475C624.402 382.169 623.952 382.016 623.393 382.016C622.872 382.016 622.445 382.136 622.113 382.377C621.788 382.618 621.625 382.94 621.625 383.344C621.625 383.708 621.778 383.992 622.084 384.193C622.39 384.395 623.008 384.6 623.939 384.809C624.87 385.01 625.6 385.255 626.127 385.541C626.661 385.821 627.055 386.16 627.309 386.557C627.569 386.954 627.699 387.436 627.699 388.002C627.699 388.952 627.305 389.724 626.518 390.316C625.73 390.902 624.698 391.195 623.422 391.195C622.556 391.195 621.785 391.039 621.107 390.727C620.43 390.414 619.903 389.984 619.525 389.438C619.148 388.891 618.959 388.301 618.959 387.67H621.264C621.296 388.23 621.508 388.663 621.898 388.969C622.289 389.268 622.807 389.418 623.451 389.418C624.076 389.418 624.551 389.301 624.877 389.066C625.202 388.826 625.365 388.513 625.365 388.129ZM639.047 385.824C639.047 387.465 638.679 388.77 637.943 389.74C637.214 390.71 636.208 391.195 634.926 391.195C633.689 391.195 632.725 390.749 632.035 389.857L631.918 391H629.77V376H632.143V381.449C632.826 380.642 633.747 380.238 634.906 380.238C636.195 380.238 637.208 380.717 637.943 381.674C638.679 382.631 639.047 383.969 639.047 385.688V385.824ZM636.674 385.619C636.674 384.473 636.472 383.614 636.068 383.041C635.665 382.468 635.079 382.182 634.311 382.182C633.282 382.182 632.559 382.631 632.143 383.529V387.885C632.566 388.803 633.295 389.262 634.33 389.262C635.072 389.262 635.645 388.985 636.049 388.432C636.452 387.878 636.661 387.042 636.674 385.922V385.619ZM647.357 391C647.253 390.798 647.162 390.469 647.084 390.014C646.329 390.801 645.404 391.195 644.311 391.195C643.249 391.195 642.383 390.893 641.713 390.287C641.042 389.682 640.707 388.933 640.707 388.041C640.707 386.915 641.124 386.052 641.957 385.453C642.797 384.848 643.995 384.545 645.551 384.545H647.006V383.852C647.006 383.305 646.853 382.868 646.547 382.543C646.241 382.211 645.775 382.045 645.15 382.045C644.61 382.045 644.167 382.182 643.822 382.455C643.477 382.722 643.305 383.064 643.305 383.48H640.932C640.932 382.901 641.124 382.361 641.508 381.859C641.892 381.352 642.413 380.954 643.07 380.668C643.734 380.382 644.473 380.238 645.287 380.238C646.524 380.238 647.51 380.551 648.246 381.176C648.982 381.794 649.359 382.667 649.379 383.793V388.559C649.379 389.509 649.512 390.268 649.779 390.834V391H647.357ZM644.75 389.291C645.219 389.291 645.658 389.177 646.068 388.949C646.485 388.721 646.798 388.415 647.006 388.031V386.039H645.727C644.848 386.039 644.187 386.192 643.744 386.498C643.301 386.804 643.08 387.237 643.08 387.797C643.08 388.253 643.23 388.617 643.529 388.891C643.835 389.158 644.242 389.291 644.75 389.291ZM654.066 380.434L654.135 381.654C654.916 380.71 655.941 380.238 657.211 380.238C659.411 380.238 660.531 381.498 660.57 384.018V391H658.197V384.154C658.197 383.484 658.051 382.989 657.758 382.67C657.471 382.344 656.999 382.182 656.342 382.182C655.385 382.182 654.672 382.615 654.203 383.48V391H651.83V380.434H654.066ZM662.553 385.639C662.553 384.011 662.93 382.706 663.686 381.723C664.441 380.733 665.453 380.238 666.723 380.238C667.842 380.238 668.747 380.629 669.438 381.41V376H671.811V391H669.662L669.545 389.906C668.835 390.766 667.888 391.195 666.703 391.195C665.466 391.195 664.464 390.697 663.695 389.701C662.934 388.705 662.553 387.351 662.553 385.639ZM664.926 385.844C664.926 386.918 665.131 387.758 665.541 388.363C665.958 388.962 666.547 389.262 667.309 389.262C668.279 389.262 668.988 388.829 669.438 387.963V383.451C669.001 382.605 668.298 382.182 667.328 382.182C666.56 382.182 665.967 382.488 665.551 383.1C665.134 383.705 664.926 384.62 664.926 385.844ZM679.818 382.602C679.506 382.549 679.184 382.523 678.852 382.523C677.764 382.523 677.032 382.94 676.654 383.773V391H674.281V380.434H676.547L676.605 381.615C677.178 380.697 677.973 380.238 678.988 380.238C679.327 380.238 679.607 380.284 679.828 380.375L679.818 382.602ZM685.189 387.602L687.338 380.434H689.867L685.668 392.602C685.023 394.379 683.93 395.268 682.387 395.268C682.042 395.268 681.661 395.209 681.244 395.092V393.256L681.693 393.285C682.292 393.285 682.742 393.174 683.041 392.953C683.347 392.738 683.588 392.374 683.764 391.859L684.105 390.951L680.395 380.434H682.953L685.189 387.602ZM689.936 394.203L688.656 393.441C689.034 392.849 689.291 392.331 689.428 391.889C689.571 391.452 689.646 391.007 689.652 390.551V388.705H691.791L691.781 390.414C691.775 391.104 691.599 391.794 691.254 392.484C690.915 393.181 690.476 393.754 689.936 394.203ZM701.498 391H699.125V376H701.498V391ZM710.404 391C710.3 390.798 710.209 390.469 710.131 390.014C709.376 390.801 708.451 391.195 707.357 391.195C706.296 391.195 705.43 390.893 704.76 390.287C704.089 389.682 703.754 388.933 703.754 388.041C703.754 386.915 704.171 386.052 705.004 385.453C705.844 384.848 707.042 384.545 708.598 384.545H710.053V383.852C710.053 383.305 709.9 382.868 709.594 382.543C709.288 382.211 708.822 382.045 708.197 382.045C707.657 382.045 707.214 382.182 706.869 382.455C706.524 382.722 706.352 383.064 706.352 383.48H703.979C703.979 382.901 704.171 382.361 704.555 381.859C704.939 381.352 705.46 380.954 706.117 380.668C706.781 380.382 707.52 380.238 708.334 380.238C709.571 380.238 710.557 380.551 711.293 381.176C712.029 381.794 712.406 382.667 712.426 383.793V388.559C712.426 389.509 712.559 390.268 712.826 390.834V391H710.404ZM707.797 389.291C708.266 389.291 708.705 389.177 709.115 388.949C709.532 388.721 709.844 388.415 710.053 388.031V386.039H708.773C707.895 386.039 707.234 386.192 706.791 386.498C706.348 386.804 706.127 387.237 706.127 387.797C706.127 388.253 706.277 388.617 706.576 388.891C706.882 389.158 707.289 389.291 707.797 389.291ZM717.113 380.434L717.182 381.654C717.963 380.71 718.988 380.238 720.258 380.238C722.458 380.238 723.578 381.498 723.617 384.018V391H721.244V384.154C721.244 383.484 721.098 382.989 720.805 382.67C720.518 382.344 720.046 382.182 719.389 382.182C718.432 382.182 717.719 382.615 717.25 383.48V391H714.877V380.434H717.113ZM725.6 385.639C725.6 384.011 725.977 382.706 726.732 381.723C727.488 380.733 728.5 380.238 729.77 380.238C730.889 380.238 731.794 380.629 732.484 381.41V376H734.857V391H732.709L732.592 389.906C731.882 390.766 730.935 391.195 729.75 391.195C728.513 391.195 727.51 390.697 726.742 389.701C725.98 388.705 725.6 387.351 725.6 385.639ZM727.973 385.844C727.973 386.918 728.178 387.758 728.588 388.363C729.005 388.962 729.594 389.262 730.355 389.262C731.326 389.262 732.035 388.829 732.484 387.963V383.451C732.048 382.605 731.345 382.182 730.375 382.182C729.607 382.182 729.014 382.488 728.598 383.1C728.181 383.705 727.973 384.62 727.973 385.844ZM737.963 391V382.191H736.352V380.434H737.963V379.711C737.969 378.884 738.145 378.174 738.49 377.582C738.835 376.99 739.324 376.544 739.955 376.244C740.587 375.945 741.345 375.795 742.23 375.795C742.751 375.795 743.249 375.85 743.725 375.961C744.206 376.072 744.704 376.212 745.219 376.381L744.857 378.344C743.959 378.031 743.139 377.875 742.396 377.875C741.674 377.875 741.15 378.035 740.824 378.354C740.499 378.666 740.336 379.138 740.336 379.77V380.434H742.416V382.191H740.336V391H737.963ZM746.342 391H743.969V380.434H746.342V391ZM751.498 391H749.125V376H751.498V391ZM756.615 391H754.242V376H756.615V391ZM765.131 388.129C765.131 387.706 764.955 387.383 764.604 387.162C764.258 386.941 763.682 386.745 762.875 386.576C762.068 386.407 761.394 386.192 760.854 385.932C759.669 385.359 759.076 384.529 759.076 383.441C759.076 382.53 759.46 381.768 760.229 381.156C760.997 380.544 761.973 380.238 763.158 380.238C764.421 380.238 765.44 380.551 766.215 381.176C766.996 381.801 767.387 382.611 767.387 383.607H765.014C765.014 383.152 764.844 382.774 764.506 382.475C764.167 382.169 763.718 382.016 763.158 382.016C762.637 382.016 762.211 382.136 761.879 382.377C761.553 382.618 761.391 382.94 761.391 383.344C761.391 383.708 761.544 383.992 761.85 384.193C762.156 384.395 762.774 384.6 763.705 384.809C764.636 385.01 765.365 385.255 765.893 385.541C766.426 385.821 766.82 386.16 767.074 386.557C767.335 386.954 767.465 387.436 767.465 388.002C767.465 388.952 767.071 389.724 766.283 390.316C765.495 390.902 764.464 391.195 763.188 391.195C762.322 391.195 761.55 391.039 760.873 390.727C760.196 390.414 759.669 389.984 759.291 389.438C758.913 388.891 758.725 388.301 758.725 387.67H761.029C761.062 388.23 761.273 388.663 761.664 388.969C762.055 389.268 762.572 389.418 763.217 389.418C763.842 389.418 764.317 389.301 764.643 389.066C764.968 388.826 765.131 388.513 765.131 388.129ZM769.877 394.203L768.598 393.441C768.975 392.849 769.232 392.331 769.369 391.889C769.512 391.452 769.587 391.007 769.594 390.551V388.705H771.732L771.723 390.414C771.716 391.104 771.54 391.794 771.195 392.484C770.857 393.181 770.417 393.754 769.877 394.203ZM603.139 413.129C603.139 412.706 602.963 412.383 602.611 412.162C602.266 411.941 601.69 411.745 600.883 411.576C600.076 411.407 599.402 411.192 598.861 410.932C597.676 410.359 597.084 409.529 597.084 408.441C597.084 407.53 597.468 406.768 598.236 406.156C599.005 405.544 599.981 405.238 601.166 405.238C602.429 405.238 603.448 405.551 604.223 406.176C605.004 406.801 605.395 407.611 605.395 408.607H603.021C603.021 408.152 602.852 407.774 602.514 407.475C602.175 407.169 601.726 407.016 601.166 407.016C600.645 407.016 600.219 407.136 599.887 407.377C599.561 407.618 599.398 407.94 599.398 408.344C599.398 408.708 599.551 408.992 599.857 409.193C600.163 409.395 600.782 409.6 601.713 409.809C602.644 410.01 603.373 410.255 603.9 410.541C604.434 410.821 604.828 411.16 605.082 411.557C605.342 411.954 605.473 412.436 605.473 413.002C605.473 413.952 605.079 414.724 604.291 415.316C603.503 415.902 602.471 416.195 601.195 416.195C600.329 416.195 599.558 416.039 598.881 415.727C598.204 415.414 597.676 414.984 597.299 414.438C596.921 413.891 596.732 413.301 596.732 412.67H599.037C599.07 413.23 599.281 413.663 599.672 413.969C600.062 414.268 600.58 414.418 601.225 414.418C601.85 414.418 602.325 414.301 602.65 414.066C602.976 413.826 603.139 413.513 603.139 413.129ZM612.201 416.195C610.697 416.195 609.477 415.723 608.539 414.779C607.608 413.829 607.143 412.566 607.143 410.99V410.697C607.143 409.643 607.344 408.702 607.748 407.875C608.158 407.042 608.731 406.394 609.467 405.932C610.202 405.469 611.023 405.238 611.928 405.238C613.367 405.238 614.477 405.697 615.258 406.615C616.046 407.533 616.439 408.832 616.439 410.512V411.469H609.535C609.607 412.341 609.896 413.031 610.404 413.539C610.919 414.047 611.563 414.301 612.338 414.301C613.425 414.301 614.311 413.861 614.994 412.982L616.273 414.203C615.85 414.835 615.284 415.326 614.574 415.678C613.871 416.023 613.08 416.195 612.201 416.195ZM611.918 407.143C611.267 407.143 610.74 407.37 610.336 407.826C609.939 408.282 609.685 408.917 609.574 409.73H614.096V409.555C614.044 408.76 613.832 408.161 613.461 407.758C613.09 407.348 612.576 407.143 611.918 407.143ZM627.572 412.729L629.252 405.434H631.566L628.686 416H626.732L624.467 408.744L622.24 416H620.287L617.396 405.434H619.711L621.42 412.65L623.588 405.434H625.375L627.572 412.729ZM639.467 416C639.363 415.798 639.271 415.469 639.193 415.014C638.438 415.801 637.514 416.195 636.42 416.195C635.359 416.195 634.493 415.893 633.822 415.287C633.152 414.682 632.816 413.933 632.816 413.041C632.816 411.915 633.233 411.052 634.066 410.453C634.906 409.848 636.104 409.545 637.66 409.545H639.115V408.852C639.115 408.305 638.962 407.868 638.656 407.543C638.35 407.211 637.885 407.045 637.26 407.045C636.719 407.045 636.277 407.182 635.932 407.455C635.587 407.722 635.414 408.064 635.414 408.48H633.041C633.041 407.901 633.233 407.361 633.617 406.859C634.001 406.352 634.522 405.954 635.18 405.668C635.844 405.382 636.583 405.238 637.396 405.238C638.633 405.238 639.62 405.551 640.355 406.176C641.091 406.794 641.469 407.667 641.488 408.793V413.559C641.488 414.509 641.622 415.268 641.889 415.834V416H639.467ZM636.859 414.291C637.328 414.291 637.768 414.177 638.178 413.949C638.594 413.721 638.907 413.415 639.115 413.031V411.039H637.836C636.957 411.039 636.296 411.192 635.854 411.498C635.411 411.804 635.189 412.237 635.189 412.797C635.189 413.253 635.339 413.617 635.639 413.891C635.945 414.158 636.352 414.291 636.859 414.291ZM643.559 410.639C643.559 408.998 643.943 407.689 644.711 406.713C645.486 405.73 646.511 405.238 647.787 405.238C648.992 405.238 649.939 405.658 650.629 406.498L650.736 405.434H652.875V415.678C652.875 417.064 652.442 418.158 651.576 418.959C650.717 419.76 649.555 420.16 648.09 420.16C647.315 420.16 646.557 419.997 645.814 419.672C645.079 419.353 644.519 418.933 644.135 418.412L645.258 416.986C645.987 417.852 646.885 418.285 647.953 418.285C648.741 418.285 649.363 418.07 649.818 417.641C650.274 417.217 650.502 416.592 650.502 415.766V415.053C649.818 415.814 648.907 416.195 647.768 416.195C646.531 416.195 645.518 415.704 644.73 414.721C643.949 413.738 643.559 412.377 643.559 410.639ZM645.922 410.844C645.922 411.905 646.137 412.742 646.566 413.354C647.003 413.959 647.605 414.262 648.373 414.262C649.33 414.262 650.04 413.852 650.502 413.031V408.383C650.053 407.582 649.35 407.182 648.393 407.182C647.611 407.182 647.003 407.491 646.566 408.109C646.137 408.728 645.922 409.639 645.922 410.844ZM659.975 416.195C658.471 416.195 657.25 415.723 656.312 414.779C655.382 413.829 654.916 412.566 654.916 410.99V410.697C654.916 409.643 655.118 408.702 655.521 407.875C655.932 407.042 656.505 406.394 657.24 405.932C657.976 405.469 658.796 405.238 659.701 405.238C661.14 405.238 662.25 405.697 663.031 406.615C663.819 407.533 664.213 408.832 664.213 410.512V411.469H657.309C657.38 412.341 657.67 413.031 658.178 413.539C658.692 414.047 659.337 414.301 660.111 414.301C661.199 414.301 662.084 413.861 662.768 412.982L664.047 414.203C663.624 414.835 663.057 415.326 662.348 415.678C661.645 416.023 660.854 416.195 659.975 416.195ZM659.691 407.143C659.04 407.143 658.513 407.37 658.109 407.826C657.712 408.282 657.458 408.917 657.348 409.73H661.869V409.555C661.817 408.76 661.605 408.161 661.234 407.758C660.863 407.348 660.349 407.143 659.691 407.143ZM674.018 402.865V405.434H675.883V407.191H674.018V413.09C674.018 413.493 674.096 413.786 674.252 413.969C674.415 414.145 674.701 414.232 675.111 414.232C675.385 414.232 675.661 414.2 675.941 414.135V415.971C675.401 416.12 674.88 416.195 674.379 416.195C672.556 416.195 671.645 415.189 671.645 413.178V407.191H669.906V405.434H671.645V402.865H674.018ZM683.236 407.602C682.924 407.549 682.602 407.523 682.27 407.523C681.182 407.523 680.45 407.94 680.072 408.773V416H677.699V405.434H679.965L680.023 406.615C680.596 405.697 681.391 405.238 682.406 405.238C682.745 405.238 683.025 405.284 683.246 405.375L683.236 407.602ZM689.193 416.195C687.689 416.195 686.469 415.723 685.531 414.779C684.6 413.829 684.135 412.566 684.135 410.99V410.697C684.135 409.643 684.337 408.702 684.74 407.875C685.15 407.042 685.723 406.394 686.459 405.932C687.195 405.469 688.015 405.238 688.92 405.238C690.359 405.238 691.469 405.697 692.25 406.615C693.038 407.533 693.432 408.832 693.432 410.512V411.469H686.527C686.599 412.341 686.889 413.031 687.396 413.539C687.911 414.047 688.555 414.301 689.33 414.301C690.417 414.301 691.303 413.861 691.986 412.982L693.266 414.203C692.842 414.835 692.276 415.326 691.566 415.678C690.863 416.023 690.072 416.195 689.193 416.195ZM688.91 407.143C688.259 407.143 687.732 407.37 687.328 407.826C686.931 408.282 686.677 408.917 686.566 409.73H691.088V409.555C691.036 408.76 690.824 408.161 690.453 407.758C690.082 407.348 689.568 407.143 688.91 407.143ZM701.596 416C701.492 415.798 701.4 415.469 701.322 415.014C700.567 415.801 699.643 416.195 698.549 416.195C697.488 416.195 696.622 415.893 695.951 415.287C695.281 414.682 694.945 413.933 694.945 413.041C694.945 411.915 695.362 411.052 696.195 410.453C697.035 409.848 698.233 409.545 699.789 409.545H701.244V408.852C701.244 408.305 701.091 407.868 700.785 407.543C700.479 407.211 700.014 407.045 699.389 407.045C698.848 407.045 698.406 407.182 698.061 407.455C697.715 407.722 697.543 408.064 697.543 408.48H695.17C695.17 407.901 695.362 407.361 695.746 406.859C696.13 406.352 696.651 405.954 697.309 405.668C697.973 405.382 698.712 405.238 699.525 405.238C700.762 405.238 701.749 405.551 702.484 406.176C703.22 406.794 703.598 407.667 703.617 408.793V413.559C703.617 414.509 703.751 415.268 704.018 415.834V416H701.596ZM698.988 414.291C699.457 414.291 699.896 414.177 700.307 413.949C700.723 413.721 701.036 413.415 701.244 413.031V411.039H699.965C699.086 411.039 698.425 411.192 697.982 411.498C697.54 411.804 697.318 412.237 697.318 412.797C697.318 413.253 697.468 413.617 697.768 413.891C698.074 414.158 698.48 414.291 698.988 414.291ZM709.076 402.865V405.434H710.941V407.191H709.076V413.09C709.076 413.493 709.154 413.786 709.311 413.969C709.473 414.145 709.76 414.232 710.17 414.232C710.443 414.232 710.72 414.2 711 414.135V415.971C710.46 416.12 709.939 416.195 709.438 416.195C707.615 416.195 706.703 415.189 706.703 413.178V407.191H704.965V405.434H706.703V402.865H709.076ZM714.994 405.434L715.062 406.537C715.805 405.671 716.82 405.238 718.109 405.238C719.522 405.238 720.489 405.779 721.01 406.859C721.778 405.779 722.859 405.238 724.252 405.238C725.417 405.238 726.283 405.561 726.85 406.205C727.423 406.85 727.715 407.8 727.729 409.057V416H725.355V409.125C725.355 408.454 725.209 407.963 724.916 407.65C724.623 407.338 724.138 407.182 723.461 407.182C722.921 407.182 722.478 407.328 722.133 407.621C721.794 407.908 721.557 408.285 721.42 408.754L721.43 416H719.057V409.047C719.024 407.803 718.389 407.182 717.152 407.182C716.202 407.182 715.528 407.569 715.131 408.344V416H712.758V405.434H714.994ZM734.818 416.195C733.314 416.195 732.094 415.723 731.156 414.779C730.225 413.829 729.76 412.566 729.76 410.99V410.697C729.76 409.643 729.962 408.702 730.365 407.875C730.775 407.042 731.348 406.394 732.084 405.932C732.82 405.469 733.64 405.238 734.545 405.238C735.984 405.238 737.094 405.697 737.875 406.615C738.663 407.533 739.057 408.832 739.057 410.512V411.469H732.152C732.224 412.341 732.514 413.031 733.021 413.539C733.536 414.047 734.18 414.301 734.955 414.301C736.042 414.301 736.928 413.861 737.611 412.982L738.891 414.203C738.467 414.835 737.901 415.326 737.191 415.678C736.488 416.023 735.697 416.195 734.818 416.195ZM734.535 407.143C733.884 407.143 733.357 407.37 732.953 407.826C732.556 408.282 732.302 408.917 732.191 409.73H736.713V409.555C736.661 408.76 736.449 408.161 736.078 407.758C735.707 407.348 735.193 407.143 734.535 407.143ZM743.109 405.434L743.178 406.654C743.959 405.71 744.984 405.238 746.254 405.238C748.454 405.238 749.574 406.498 749.613 409.018V416H747.24V409.154C747.24 408.484 747.094 407.989 746.801 407.67C746.514 407.344 746.042 407.182 745.385 407.182C744.428 407.182 743.715 407.615 743.246 408.48V416H740.873V405.434H743.109ZM755.014 402.865V405.434H756.879V407.191H755.014V413.09C755.014 413.493 755.092 413.786 755.248 413.969C755.411 414.145 755.697 414.232 756.107 414.232C756.381 414.232 756.658 414.2 756.938 414.135V415.971C756.397 416.12 755.876 416.195 755.375 416.195C753.552 416.195 752.641 415.189 752.641 413.178V407.191H750.902V405.434H752.641V402.865H755.014ZM606.469 435.824C606.469 437.458 606.098 438.764 605.355 439.74C604.613 440.71 603.617 441.195 602.367 441.195C601.208 441.195 600.281 440.814 599.584 440.053V445.062H597.211V430.434H599.398L599.496 431.508C600.193 430.661 601.14 430.238 602.338 430.238C603.627 430.238 604.636 430.72 605.365 431.684C606.101 432.641 606.469 433.972 606.469 435.678V435.824ZM604.105 435.619C604.105 434.564 603.894 433.728 603.471 433.109C603.054 432.491 602.455 432.182 601.674 432.182C600.704 432.182 600.007 432.582 599.584 433.383V438.07C600.014 438.891 600.717 439.301 601.693 439.301C602.449 439.301 603.038 438.998 603.461 438.393C603.891 437.781 604.105 436.856 604.105 435.619ZM611.01 441H608.637V426H611.01V441ZM619.916 441C619.812 440.798 619.721 440.469 619.643 440.014C618.887 440.801 617.963 441.195 616.869 441.195C615.808 441.195 614.942 440.893 614.271 440.287C613.601 439.682 613.266 438.933 613.266 438.041C613.266 436.915 613.682 436.052 614.516 435.453C615.355 434.848 616.553 434.545 618.109 434.545H619.564V433.852C619.564 433.305 619.411 432.868 619.105 432.543C618.799 432.211 618.334 432.045 617.709 432.045C617.169 432.045 616.726 432.182 616.381 432.455C616.036 432.722 615.863 433.064 615.863 433.48H613.49C613.49 432.901 613.682 432.361 614.066 431.859C614.451 431.352 614.971 430.954 615.629 430.668C616.293 430.382 617.032 430.238 617.846 430.238C619.083 430.238 620.069 430.551 620.805 431.176C621.54 431.794 621.918 432.667 621.938 433.793V438.559C621.938 439.509 622.071 440.268 622.338 440.834V441H619.916ZM617.309 439.291C617.777 439.291 618.217 439.177 618.627 438.949C619.044 438.721 619.356 438.415 619.564 438.031V436.039H618.285C617.406 436.039 616.745 436.192 616.303 436.498C615.86 436.804 615.639 437.237 615.639 437.797C615.639 438.253 615.788 438.617 616.088 438.891C616.394 439.158 616.801 439.291 617.309 439.291ZM626.625 430.434L626.693 431.654C627.475 430.71 628.5 430.238 629.77 430.238C631.97 430.238 633.09 431.498 633.129 434.018V441H630.756V434.154C630.756 433.484 630.609 432.989 630.316 432.67C630.03 432.344 629.558 432.182 628.9 432.182C627.943 432.182 627.23 432.615 626.762 433.48V441H624.389V430.434H626.625ZM638.529 427.865V430.434H640.395V432.191H638.529V438.09C638.529 438.493 638.607 438.786 638.764 438.969C638.926 439.145 639.213 439.232 639.623 439.232C639.896 439.232 640.173 439.2 640.453 439.135V440.971C639.913 441.12 639.392 441.195 638.891 441.195C637.068 441.195 636.156 440.189 636.156 438.178V432.191H634.418V430.434H636.156V427.865H638.529ZM648.139 438.129C648.139 437.706 647.963 437.383 647.611 437.162C647.266 436.941 646.69 436.745 645.883 436.576C645.076 436.407 644.402 436.192 643.861 435.932C642.676 435.359 642.084 434.529 642.084 433.441C642.084 432.53 642.468 431.768 643.236 431.156C644.005 430.544 644.981 430.238 646.166 430.238C647.429 430.238 648.448 430.551 649.223 431.176C650.004 431.801 650.395 432.611 650.395 433.607H648.021C648.021 433.152 647.852 432.774 647.514 432.475C647.175 432.169 646.726 432.016 646.166 432.016C645.645 432.016 645.219 432.136 644.887 432.377C644.561 432.618 644.398 432.94 644.398 433.344C644.398 433.708 644.551 433.992 644.857 434.193C645.163 434.395 645.782 434.6 646.713 434.809C647.644 435.01 648.373 435.255 648.9 435.541C649.434 435.821 649.828 436.16 650.082 436.557C650.342 436.954 650.473 437.436 650.473 438.002C650.473 438.952 650.079 439.724 649.291 440.316C648.503 440.902 647.471 441.195 646.195 441.195C645.329 441.195 644.558 441.039 643.881 440.727C643.204 440.414 642.676 439.984 642.299 439.438C641.921 438.891 641.732 438.301 641.732 437.67H644.037C644.07 438.23 644.281 438.663 644.672 438.969C645.062 439.268 645.58 439.418 646.225 439.418C646.85 439.418 647.325 439.301 647.65 439.066C647.976 438.826 648.139 438.513 648.139 438.129Z" fill="#5629B2"/>
<path d="M407 588V620" stroke="black" stroke-width="3"/>
<path d="M214 641V673" stroke="black" stroke-width="3"/>
<path d="M214 588V620" stroke="black" stroke-width="3"/>
<path d="M407 641V673" stroke="black" stroke-width="3"/>
<line x1="159.889" y1="568.583" x2="159.889" y2="531.583" stroke="black" stroke-width="3"/>
<line x1="166.889" y1="568.583" x2="166.889" y2="531.583" stroke="black" stroke-width="3"/>
<path d="M148.917 503.581C151.078 503.564 156.488 504.603 159.233 510.524" stroke="black" stroke-width="3"/>
<path d="M273 626.5H271.5V628V671V672.5H273H277.389H278.013L278.453 672.057L282.402 668.085H294.32L298.27 672.057L298.709 672.5H299.333H323.472H324.096L324.536 672.057L328.485 668.085H340.404L344.353 672.057L344.793 672.5H345.417H352H353.5V671V654.443V653.143L352.213 652.958L330.047 649.773L321.583 627.468L321.216 626.5H320.181H273Z" fill="white" stroke="black" stroke-width="3"/>
<path d="M299 677C299 683.075 294.075 688 288 688C281.925 688 277 683.075 277 677" stroke="black" stroke-width="3"/>
<path d="M346 677C346 683.075 340.851 688 334.5 688C328.149 688 323 683.075 323 677" stroke="black" stroke-width="3"/>
<path d="M325.676 638H306L306 650H334" stroke="black" stroke-width="3"/>
<rect x="282" y="638" width="12" height="12" fill="white" stroke="black" stroke-width="3"/>
<rect x="264.5" y="646.5" width="5" height="15" fill="white" stroke="black" stroke-width="3"/>
<path d="M330.622 502.455H366.5V566.972H250.5V502.455H279.513H281.013V500.955V482.662L304.492 502.11L306.949 504.145V500.955V482.724L329.648 502.096L330.069 502.455H330.622Z" stroke="black" stroke-width="3"/>
<rect x="331.5" y="531.972" width="20" height="35" stroke="black" stroke-width="3"/>
<path d="M250.5 492.889L254.99 433.972H267.508L270.5 492.87V566.972H250.5V492.889Z" fill="white" stroke="black" stroke-width="3"/>
<line x1="252" y1="488.972" x2="269" y2="488.972" stroke="black" stroke-width="3"/>
<line x1="251" y1="517.972" x2="270" y2="517.972" stroke="black" stroke-width="3"/>
<line x1="251" y1="527.972" x2="270" y2="527.972" stroke="black" stroke-width="3"/>
<line x1="251" y1="536.972" x2="270" y2="536.972" stroke="black" stroke-width="3"/>
<mask id="path-35-inside-1" fill="white">
<path fill-rule="evenodd" clip-rule="evenodd" d="M236.783 384C236.783 381.239 239.021 379 241.783 379H270.593C273.354 379 275.593 381.239 275.593 384V386.222C275.593 388.984 277.832 391.222 280.593 391.222H285.278C288.039 391.222 290.278 393.461 290.278 396.222V401.5C290.278 404.261 288.039 406.5 285.278 406.5H275.417C272.655 406.5 270.417 408.739 270.417 411.5V418.305C270.417 421.067 268.178 423.305 265.417 423.305H255.512C253.618 423.305 252.083 421.77 252.083 419.877V419.877C252.083 417.983 250.548 416.448 248.655 416.448H236.538C233.777 416.448 231.538 414.21 231.538 411.448V408.444C231.538 405.683 229.3 403.444 226.538 403.444H225C222.239 403.444 220 401.206 220 398.444V394.694C220 391.933 222.239 389.694 225 389.694H231.783C234.544 389.694 236.783 387.456 236.783 384.694V384Z"/>
</mask>
<path d="M270.593 376H241.783V382H270.593V376ZM278.593 386.222V384H272.593V386.222H278.593ZM285.278 388.222H280.593V394.222H285.278V388.222ZM293.278 401.5V396.222H287.278V401.5H293.278ZM275.417 409.5H285.278V403.5H275.417V409.5ZM267.417 411.5V418.305H273.417V411.5H267.417ZM265.417 420.305H255.512V426.305H265.417V420.305ZM236.538 419.448H248.655V413.448H236.538V419.448ZM228.538 408.444V411.448H234.538V408.444H228.538ZM225 406.444H226.538V400.444H225V406.444ZM217 394.694V398.444H223V394.694H217ZM231.783 386.694H225V392.694H231.783V386.694ZM233.783 384V384.694H239.783V384H233.783ZM231.783 392.694C236.201 392.694 239.783 389.113 239.783 384.694H233.783C233.783 385.799 232.887 386.694 231.783 386.694V392.694ZM223 394.694C223 393.59 223.895 392.694 225 392.694V386.694C220.582 386.694 217 390.276 217 394.694H223ZM225 400.444C223.895 400.444 223 399.549 223 398.444H217C217 402.863 220.582 406.444 225 406.444V400.444ZM234.538 408.444C234.538 404.026 230.956 400.444 226.538 400.444V406.444C227.643 406.444 228.538 407.34 228.538 408.444H234.538ZM236.538 413.448C235.434 413.448 234.538 412.553 234.538 411.448H228.538C228.538 415.867 232.12 419.448 236.538 419.448V413.448ZM255.083 419.877C255.083 416.327 252.205 413.448 248.655 413.448V419.448C248.891 419.448 249.083 419.64 249.083 419.877H255.083ZM255.512 420.305C255.275 420.305 255.083 420.114 255.083 419.877H249.083C249.083 423.427 251.962 426.305 255.512 426.305V420.305ZM267.417 418.305C267.417 419.41 266.521 420.305 265.417 420.305V426.305C269.835 426.305 273.417 422.724 273.417 418.305H267.417ZM275.417 403.5C270.998 403.5 267.417 407.082 267.417 411.5H273.417C273.417 410.395 274.312 409.5 275.417 409.5V403.5ZM287.278 401.5C287.278 402.605 286.382 403.5 285.278 403.5V409.5C289.696 409.5 293.278 405.918 293.278 401.5H287.278ZM285.278 394.222C286.382 394.222 287.278 395.118 287.278 396.222H293.278C293.278 391.804 289.696 388.222 285.278 388.222V394.222ZM272.593 386.222C272.593 390.64 276.175 394.222 280.593 394.222V388.222C279.488 388.222 278.593 387.327 278.593 386.222H272.593ZM241.783 376C237.365 376 233.783 379.582 233.783 384H239.783C239.783 382.895 240.678 382 241.783 382V376ZM270.593 382C271.697 382 272.593 382.895 272.593 384H278.593C278.593 379.582 275.011 376 270.593 376V382Z" fill="black" mask="url(#path-35-inside-1)"/>
<mask id="path-37-inside-2" fill="white">
<path fill-rule="evenodd" clip-rule="evenodd" d="M878.495 434.702C878.495 435.971 877.466 437 876.197 437L841.982 437C840.714 437 839.685 435.971 839.685 434.702V434.702L839.685 429.862C839.685 427.101 837.446 424.862 834.685 424.862L830 424.862C827.239 424.862 825 422.624 825 419.862L825 414.69C825 411.928 827.239 409.69 830 409.69L839.861 409.69C842.623 409.69 844.861 407.451 844.861 404.69L844.861 398C844.861 395.239 847.1 393 849.861 393L859.79 393C861.67 393 863.194 394.524 863.194 396.405V396.405C863.194 398.285 864.719 399.81 866.599 399.81L878.74 399.81C881.501 399.81 883.74 402.048 883.74 404.81L883.74 407.724C883.74 410.486 885.978 412.724 888.74 412.724L890.278 412.724C893.039 412.724 895.278 414.963 895.278 417.724L895.278 421.379C895.278 424.141 893.039 426.379 890.278 426.379L883.495 426.379C880.734 426.379 878.495 428.618 878.495 431.379L878.495 434.702V434.702ZM863.194 418.405C863.194 418.405 863.194 418.405 863.194 418.405L863.194 418.405C863.194 418.405 863.194 418.405 863.194 418.405V418.405C863.194 418.405 863.195 418.405 863.195 418.405L863.195 418.405C863.195 418.405 863.194 418.405 863.194 418.405V418.405Z"/>
</mask>
<path d="M849.861 393L849.861 396L849.861 393ZM844.861 404.69L847.861 404.69L844.861 404.69ZM839.685 429.862L836.685 429.862L839.685 429.862ZM888.74 412.724L888.74 415.724L888.74 412.724ZM841.982 440L876.197 440L876.197 434L841.982 434L841.982 440ZM836.685 429.862L836.685 434.702L842.685 434.702L842.685 429.862L836.685 429.862ZM830 427.862L834.685 427.862L834.685 421.862L830 421.862L830 427.862ZM822 414.69L822 419.862L828 419.862L828 414.69L822 414.69ZM839.861 406.69L830 406.69L830 412.69L839.861 412.69L839.861 406.69ZM847.861 404.69L847.861 398L841.861 398L841.861 404.69L847.861 404.69ZM849.861 396L859.79 396L859.79 390L849.861 390L849.861 396ZM878.74 396.81L866.599 396.81L866.599 402.81L878.74 402.81L878.74 396.81ZM886.74 407.724L886.74 404.81L880.74 404.81L880.74 407.724L886.74 407.724ZM890.278 409.724L888.74 409.724L888.74 415.724L890.278 415.724L890.278 409.724ZM898.278 421.379L898.278 417.724L892.278 417.724L892.278 421.379L898.278 421.379ZM883.495 429.379L890.278 429.379L890.278 423.379L883.495 423.379L883.495 429.379ZM881.495 434.702L881.495 431.379L875.495 431.379L875.495 434.702L881.495 434.702ZM860.194 418.405L860.194 418.405L866.194 418.405L866.194 418.405L860.194 418.405ZM860.195 418.405L860.195 418.405L866.195 418.405L866.195 418.405L860.195 418.405ZM866.195 418.405C866.195 416.748 864.851 415.405 863.194 415.405L863.194 421.405C861.538 421.405 860.195 420.062 860.195 418.405L866.195 418.405ZM863.194 421.405C864.851 421.405 866.195 420.062 866.195 418.405L860.195 418.405C860.195 416.748 861.538 415.405 863.194 415.405L863.194 421.405ZM860.194 418.405C860.194 420.062 861.538 421.405 863.194 421.405L863.194 415.405C864.851 415.405 866.194 416.748 866.194 418.405L860.194 418.405ZM866.194 418.405C866.194 420.062 864.851 421.405 863.194 421.405L863.194 415.405C861.538 415.405 860.194 416.748 860.194 418.405L866.194 418.405ZM883.495 423.379C879.077 423.379 875.495 426.961 875.495 431.379L881.495 431.379C881.495 430.275 882.39 429.379 883.495 429.379L883.495 423.379ZM892.278 421.379C892.278 422.484 891.382 423.379 890.278 423.379L890.278 429.379C894.696 429.379 898.278 425.798 898.278 421.379L892.278 421.379ZM890.278 415.724C891.382 415.724 892.278 416.62 892.278 417.724L898.278 417.724C898.278 413.306 894.696 409.724 890.278 409.724L890.278 415.724ZM878.74 402.81C879.844 402.81 880.74 403.705 880.74 404.81L886.74 404.81C886.74 400.391 883.158 396.81 878.74 396.81L878.74 402.81ZM860.194 396.405C860.194 399.942 863.062 402.81 866.599 402.81L866.599 396.81C866.376 396.81 866.194 396.628 866.194 396.405L860.194 396.405ZM859.79 396C860.013 396 860.194 396.181 860.194 396.405L866.194 396.405C866.194 392.868 863.327 390 859.79 390L859.79 396ZM847.861 398C847.861 396.896 848.757 396 849.861 396L849.861 390C845.443 390 841.861 393.582 841.861 398L847.861 398ZM839.861 412.69C844.279 412.69 847.861 409.108 847.861 404.69L841.861 404.69C841.861 405.794 840.966 406.69 839.861 406.69L839.861 412.69ZM830 421.862C828.895 421.862 828 420.967 828 419.862L822 419.862C822 424.281 825.582 427.862 830 427.862L830 421.862ZM842.685 429.862C842.685 425.444 839.103 421.862 834.685 421.862L834.685 427.862C835.789 427.862 836.685 428.758 836.685 429.862L842.685 429.862ZM876.197 440C879.123 440 881.495 437.628 881.495 434.702L875.495 434.702C875.495 434.314 875.809 434 876.197 434L876.197 440ZM828 414.69C828 413.585 828.895 412.69 830 412.69L830 406.69C825.582 406.69 822 410.272 822 414.69L828 414.69ZM880.74 407.724C880.74 412.142 884.321 415.724 888.74 415.724L888.74 409.724C887.635 409.724 886.74 408.829 886.74 407.724L880.74 407.724ZM841.982 434C842.37 434 842.685 434.314 842.685 434.702L836.685 434.702C836.685 437.628 839.057 440 841.982 440L841.982 434Z" fill="black" mask="url(#path-37-inside-2)"/>
<mask id="path-39-inside-3" fill="white">
<path fill-rule="evenodd" clip-rule="evenodd" d="M152.736 473.861C156.167 473.861 159.368 474.845 162.073 476.545C167.753 478.72 172.016 483.759 173.095 489.895C175.653 488.442 178.611 487.611 181.764 487.611C189.859 487.611 196.676 493.086 198.713 500.536C201.017 503.508 202.389 507.24 202.389 511.292C202.389 520.995 194.523 528.861 184.819 528.861C182.8 528.861 180.86 528.52 179.054 527.893C175.851 532.19 170.73 534.972 164.958 534.972C159.491 534.972 154.607 532.475 151.385 528.559C149.031 529.73 146.377 530.389 143.569 530.389C133.866 530.389 126 522.523 126 512.819C126 505.808 130.107 499.756 136.047 496.937C135.476 495.205 135.167 493.354 135.167 491.431C135.167 481.727 143.033 473.861 152.736 473.861Z"/>
</mask>
<path d="M162.073 476.545L160.476 479.085L160.725 479.241L161 479.346L162.073 476.545ZM173.095 489.895L170.14 490.415L170.877 494.607L174.577 492.504L173.095 489.895ZM198.713 500.536L195.819 501.327L195.976 501.902L196.342 502.374L198.713 500.536ZM179.054 527.893L180.038 525.059L177.962 524.338L176.648 526.1L179.054 527.893ZM151.385 528.559L153.701 526.653L152.185 524.81L150.049 525.873L151.385 528.559ZM136.047 496.937L137.333 499.648L139.725 498.513L138.896 495.998L136.047 496.937ZM163.669 474.005C160.5 472.013 156.748 470.861 152.736 470.861V476.861C155.586 476.861 158.236 477.676 160.476 479.085L163.669 474.005ZM176.05 489.376C174.785 482.183 169.794 476.289 163.145 473.743L161 479.346C165.712 481.151 169.247 485.335 170.14 490.415L176.05 489.376ZM181.764 484.611C178.078 484.611 174.611 485.583 171.613 487.287L174.577 492.504C176.695 491.3 179.145 490.611 181.764 490.611V484.611ZM201.607 499.744C199.222 491.024 191.246 484.611 181.764 484.611V490.611C188.473 490.611 194.13 495.148 195.819 501.327L201.607 499.744ZM205.389 511.292C205.389 506.551 203.781 502.177 201.084 498.697L196.342 502.374C198.253 504.839 199.389 507.928 199.389 511.292H205.389ZM184.819 531.861C196.18 531.861 205.389 522.652 205.389 511.292H199.389C199.389 519.338 192.866 525.861 184.819 525.861V531.861ZM178.07 530.727C180.188 531.463 182.46 531.861 184.819 531.861V525.861C183.139 525.861 181.532 525.578 180.038 525.059L178.07 530.727ZM176.648 526.1C173.987 529.67 169.742 531.972 164.958 531.972V537.972C171.717 537.972 177.714 534.71 181.459 529.686L176.648 526.1ZM164.958 531.972C160.426 531.972 156.378 529.906 153.701 526.653L149.068 530.465C152.836 535.044 158.557 537.972 164.958 537.972V531.972ZM143.569 533.389C146.851 533.389 149.961 532.618 152.721 531.245L150.049 525.873C148.1 526.842 145.903 527.389 143.569 527.389V533.389ZM123 512.819C123 524.18 132.209 533.389 143.569 533.389V527.389C135.523 527.389 129 520.866 129 512.819H123ZM134.761 494.227C127.814 497.523 123 504.606 123 512.819H129C129 507.01 132.4 501.988 137.333 499.648L134.761 494.227ZM132.167 491.431C132.167 493.677 132.528 495.845 133.198 497.877L138.896 495.998C138.424 494.565 138.167 493.031 138.167 491.431H132.167ZM152.736 470.861C141.376 470.861 132.167 480.071 132.167 491.431H138.167C138.167 483.384 144.69 476.861 152.736 476.861V470.861Z" fill="black" mask="url(#path-39-inside-3)"/>
<path d="M193.93 458.098L195.429 458.031C195.403 457.446 195.038 456.929 194.495 456.708C193.952 456.488 193.33 456.604 192.903 457.006L193.93 458.098ZM200.163 473.299L201.434 472.503L200.163 473.299ZM179.336 468.189L180.782 467.79C180.651 467.317 180.297 466.938 179.834 466.774C179.371 466.611 178.858 466.685 178.459 466.972L179.336 468.189ZM183.716 474.829L183.017 476.157C183.433 476.375 183.927 476.387 184.352 476.188C184.777 475.989 185.085 475.602 185.183 475.143L183.716 474.829ZM192.432 458.165C192.448 458.517 192.562 458.97 192.667 459.349C192.788 459.784 192.955 460.319 193.157 460.919C193.56 462.122 194.114 463.637 194.742 465.23C195.985 468.384 197.571 471.985 198.891 474.094L201.434 472.503C200.274 470.649 198.772 467.274 197.533 464.13C196.92 462.575 196.384 461.111 196.001 459.966C195.809 459.393 195.659 458.912 195.558 458.546C195.44 458.124 195.427 457.991 195.429 458.031L192.432 458.165ZM198.891 474.094C201.516 478.29 201.107 482.75 198.72 485.931C196.329 489.117 191.796 491.209 185.812 490.217L185.321 493.177C192.261 494.328 197.971 491.927 201.119 487.732C204.271 483.532 204.699 477.721 201.434 472.503L198.891 474.094ZM185.812 490.217C179.999 489.254 176.806 485.385 175.933 481.102C175.046 476.744 176.567 472.032 180.212 469.407L178.459 466.972C173.729 470.378 171.903 476.348 172.994 481.701C174.1 487.129 178.209 491.998 185.321 493.177L185.812 490.217ZM177.89 468.588C178.073 469.252 178.174 469.778 178.337 470.452C178.489 471.077 178.679 471.754 179.008 472.43C179.701 473.858 180.885 475.035 183.017 476.157L184.414 473.502C182.671 472.584 182.044 471.814 181.706 471.119C181.519 470.733 181.388 470.304 181.253 469.746C181.129 469.236 180.977 468.5 180.782 467.79L177.89 468.588ZM185.183 475.143C185.65 472.957 187.149 469.839 189.076 466.751C190.99 463.684 193.204 460.84 194.958 459.191L192.903 457.006C190.893 458.896 188.522 461.973 186.531 465.163C184.553 468.332 182.827 471.809 182.249 474.516L185.183 475.143Z" fill="black"/>
<path d="M192.459 475.389C192.891 476.871 191.527 481.252 192.459 483.028C194.482 486.885 191.716 492.32 186.283 491.414C180.851 490.508 182.002 491.775 185.537 489.139C185.851 490.331 184.056 486.847 185.537 484.09C185.986 481.962 190.074 476.114 192.459 475.389Z" stroke="black" stroke-width="3" stroke-linejoin="round"/>
<path d="M443.862 516.382C444.453 504.213 446.722 498.055 451.145 496.706C451.837 494.822 453.169 493.242 454.91 492.242C454.924 492.234 454.939 492.228 454.954 492.221L455.003 492.197C457.62 490.751 460.682 490.798 462.715 490.833C462.995 490.838 463.256 490.843 463.495 490.843C465.35 490.843 467.565 491.067 470.132 491.326C473.943 491.769 477.774 492.014 481.61 492.06C482.426 492.06 483.371 492.045 484.421 492.027L485.75 492.007C490.205 491.924 497.481 491.79 503.518 492.676C503.569 492.548 503.614 492.415 503.671 492.293C502.41 490.774 501.461 489.021 500.879 487.135C500.296 485.249 500.091 483.266 500.276 481.301C500.305 481.027 500.418 480.77 500.599 480.562C500.78 480.355 501.02 480.209 501.287 480.143C501.554 480.077 501.835 480.095 502.091 480.194C502.348 480.293 502.567 480.469 502.721 480.697C504.672 483.331 507.041 485.629 509.734 487.498C511.095 487.233 512.482 487.12 513.868 487.164H514.118C515.505 487.12 516.892 487.232 518.253 487.498C520.946 485.629 523.314 483.331 525.266 480.697C525.419 480.469 525.639 480.293 525.895 480.194C526.152 480.095 526.433 480.077 526.699 480.143C526.966 480.209 527.207 480.355 527.387 480.562C527.568 480.77 527.681 481.027 527.711 481.301C527.895 483.265 527.69 485.247 527.107 487.133C526.525 489.018 525.577 490.77 524.317 492.289C524.386 492.442 524.444 492.611 524.507 492.773C526.99 492.457 530.168 493.057 531.81 494.26C532.096 494.469 532.287 494.783 532.342 495.134C532.397 495.484 532.31 495.842 532.102 496.128C531.342 497.281 530.336 498.25 529.157 498.968C527.978 499.687 526.655 500.135 525.282 500.282C525.255 500.597 525.238 500.902 525.2 501.228C523.938 511.959 520.733 514.829 516.941 515.552C515.528 516.913 514.278 518.188 513.231 519.346C512.179 520.606 511.197 521.923 510.289 523.291C509.466 528.941 508.528 540.175 509.41 547.315C509.433 547.503 509.416 547.695 509.36 547.876C509.304 548.057 509.209 548.225 509.084 548.367C508.958 548.509 508.803 548.623 508.63 548.701C508.457 548.779 508.27 548.819 508.08 548.82H503.701C503.392 548.82 503.092 548.713 502.853 548.518C502.613 548.322 502.449 548.05 502.387 547.748C502.306 547.345 500.862 540.199 499.908 535.361C499.542 542.507 499.588 547.407 499.589 547.468C499.591 547.645 499.558 547.821 499.491 547.985C499.425 548.15 499.327 548.299 499.202 548.425C499.077 548.551 498.929 548.651 498.765 548.719C498.602 548.787 498.426 548.823 498.249 548.823H492.829C492.512 548.823 492.206 548.711 491.965 548.507C491.723 548.303 491.561 548.02 491.508 547.708C491.487 547.585 489.416 535.396 488.859 528.053C488.844 527.853 488.874 527.653 488.946 527.466C489.018 527.28 489.131 527.112 489.277 526.975C489.619 526.645 489.928 526.283 490.202 525.894C489.581 525.908 488.935 525.92 488.27 525.93C487.271 525.945 486.297 525.952 485.349 525.952H485.195C484.449 525.952 483.722 525.946 483.008 525.938C482.843 525.938 482.682 525.933 482.518 525.93C481.894 525.921 481.284 525.909 480.686 525.893C480.499 525.888 480.312 525.884 480.128 525.878C479.401 525.855 478.688 525.83 478.005 525.801C477.12 525.76 476.293 525.708 475.492 525.648C474.241 527.39 472.253 529.811 470.117 531.037L471.632 547.358C471.649 547.544 471.628 547.731 471.568 547.907C471.509 548.084 471.414 548.247 471.288 548.384C471.163 548.522 471.01 548.632 470.839 548.708C470.669 548.783 470.484 548.822 470.298 548.822H464.873C464.557 548.822 464.251 548.71 464.009 548.506C463.768 548.302 463.606 548.019 463.553 547.707C463.534 547.598 461.868 537.793 461.123 530.474C460.78 530.686 460.434 530.892 460.057 531.075L461.567 547.358C461.585 547.544 461.563 547.731 461.504 547.907C461.445 548.084 461.349 548.247 461.224 548.384C461.098 548.522 460.945 548.632 460.775 548.708C460.604 548.783 460.42 548.822 460.234 548.822H454.805C454.489 548.822 454.183 548.71 453.941 548.506C453.7 548.302 453.538 548.019 453.485 547.707C453.358 546.957 450.362 529.265 450.735 523.826C450.83 522.413 450.973 521.14 451.112 519.909C451.495 516.508 451.826 513.571 450.882 509.343C450.249 506.412 450.047 503.403 450.284 500.414C448.21 502.717 446.957 508.091 446.544 516.464C447.567 517.009 448.626 518.364 448.626 521.663C448.516 524.005 447.643 526.247 446.142 528.047C446.016 528.191 445.861 528.307 445.687 528.386C445.513 528.465 445.324 528.506 445.133 528.506C444.942 528.506 444.753 528.465 444.579 528.386C444.405 528.307 444.25 528.191 444.124 528.047C442.623 526.247 441.75 524.005 441.64 521.663C441.637 518.204 442.797 516.875 443.862 516.382V516.382ZM469.861 493.989C467.368 493.737 465.214 493.518 463.495 493.518C463.242 493.518 462.965 493.514 462.669 493.508C461.286 493.444 459.9 493.527 458.535 493.754C462.336 496.557 465.84 500.587 468.295 503.414C469.185 504.439 469.953 505.324 470.403 505.751C471.561 506.844 475.001 507.702 477.976 506.611C480.462 505.701 481.891 503.736 482.224 500.771C482.377 498.708 482.798 496.674 483.478 494.72C482.801 494.73 482.177 494.738 481.609 494.738C477.683 494.692 473.762 494.442 469.861 493.989V493.989ZM502.603 497.572C502.623 496.842 502.689 496.114 502.801 495.393C501.561 495.307 500.315 495.442 499.122 495.792C500.061 496.744 501.282 497.368 502.603 497.572V497.572ZM503.173 485.403C503.567 487.025 504.268 488.556 505.24 489.913C505.697 489.433 506.213 489.014 506.776 488.664C505.501 487.662 504.297 486.572 503.173 485.403ZM521.216 488.665C521.777 489.015 522.292 489.434 522.747 489.914C523.719 488.557 524.421 487.025 524.814 485.403C523.692 486.572 522.489 487.662 521.216 488.665V488.665ZM525.19 495.393C525.302 496.115 525.368 496.843 525.388 497.573C526.709 497.369 527.93 496.744 528.87 495.792C527.677 495.442 526.431 495.307 525.19 495.393ZM522.544 500.915C523.043 496.677 522.5 493.638 520.932 491.881C519.215 489.958 516.508 489.84 514.549 489.84H513.86C512.554 489.786 511.246 489.903 509.97 490.186C509.903 490.212 509.835 490.232 509.764 490.247C508.726 490.525 507.788 491.092 507.059 491.883C505.491 493.638 504.949 496.677 505.452 500.917C506.884 513.099 510.505 513.103 513.998 513.107C514.673 513.121 515.348 513.09 516.019 513.017C516.065 513.007 516.112 513 516.16 512.996C518.893 512.579 521.407 510.583 522.544 500.915V500.915ZM501.331 530.251C501.581 530.452 501.75 530.737 501.808 531.052C502.247 533.438 504.154 542.92 504.802 546.14H506.6C506.079 540.065 506.588 531.92 507.224 526.206C505.294 527.668 503.213 528.921 501.018 529.942C501.205 530.143 501.331 530.251 501.331 530.251V530.251ZM480.302 523.202C480.514 523.208 480.735 523.212 480.95 523.218C481.437 523.23 481.933 523.24 482.438 523.248C482.752 523.253 483.07 523.257 483.391 523.26C483.873 523.265 484.365 523.268 484.864 523.268C485.144 523.268 485.419 523.268 485.706 523.268C486.41 523.268 487.13 523.26 487.861 523.25L488.717 522.703C492.481 520.299 494.968 518.711 495.689 516.622C495.783 516.331 495.795 516.019 495.722 515.722C495.65 515.425 495.497 515.153 495.28 514.938C494.07 513.377 491.146 512.213 488.896 512.402C485.872 512.652 484.493 512.766 481.412 520.325C480.999 521.337 480.583 522.297 480.169 523.196L480.302 523.202ZM466.008 546.141H468.832L467.367 530.363C467.34 530.073 467.408 529.782 467.562 529.534C467.715 529.286 467.945 529.095 468.216 528.99C469.365 528.543 470.842 527.229 472.351 525.356C470.325 525.171 468.328 524.75 466.401 524.101C465.779 525.718 464.834 527.191 463.624 528.432C464.12 534.362 465.505 543.074 466.008 546.14V546.141ZM453.772 520.207C453.637 521.408 453.497 522.65 453.406 524.006C453.105 528.383 455.279 542.12 455.939 546.14H458.764L457.3 530.362C457.273 530.073 457.34 529.783 457.492 529.536C457.644 529.288 457.872 529.097 458.142 528.991C462.397 527.324 464.154 523.178 464.122 522.348C464.069 522.079 464.101 521.801 464.211 521.55C464.322 521.299 464.507 521.089 464.741 520.947C464.975 520.804 465.247 520.737 465.521 520.754C465.794 520.771 466.056 520.872 466.271 521.042C467.006 521.628 469.427 522.65 477.257 523.072C477.812 521.934 478.371 520.675 478.93 519.312C482.095 511.544 484.138 510.11 488.674 509.731C491.813 509.475 495.641 511.037 497.395 513.295C497.881 513.867 498.212 514.553 498.357 515.289C498.501 516.025 498.454 516.786 498.219 517.499C497.441 519.755 495.547 521.385 492.891 523.183C493.068 523.218 493.236 523.288 493.384 523.39C493.532 523.492 493.658 523.624 493.754 523.776C493.878 523.974 493.949 524.2 493.958 524.434C493.968 524.667 493.916 524.899 493.809 525.106C493.211 526.309 492.463 527.432 491.585 528.449C492.082 534.379 493.466 543.079 493.969 546.14H496.915C496.928 543.47 497.026 537.105 497.604 529.296C497.604 529.277 497.613 529.26 497.615 529.242C497.626 529.154 497.645 529.067 497.672 528.982C497.68 528.958 497.685 528.934 497.694 528.911C497.733 528.811 497.785 528.716 497.847 528.629C497.863 528.606 497.883 528.586 497.901 528.565C497.95 528.503 498.005 528.446 498.065 528.393C498.095 528.367 498.123 528.343 498.155 528.317C498.228 528.263 498.307 528.217 498.389 528.18C498.405 528.173 498.417 528.161 498.432 528.155C501.93 526.748 505.13 524.694 507.865 522.099C507.877 522.079 507.892 522.062 507.905 522.044C508.933 520.478 510.051 518.973 511.256 517.538C511.768 516.973 512.332 516.375 512.932 515.759C508.346 515.554 504.253 513.704 502.785 501.226C502.747 500.9 502.73 500.594 502.703 500.28C501.33 500.133 500.007 499.685 498.828 498.968C497.648 498.25 496.642 497.28 495.881 496.128C495.734 495.924 495.647 495.682 495.63 495.431C495.614 495.179 495.67 494.928 495.79 494.707C492.367 494.579 489.043 494.623 486.488 494.669C485.858 495.679 485.328 497.144 484.88 501.071C484.437 505.014 482.31 507.875 478.891 509.128C477.641 509.578 476.322 509.805 474.994 509.799C472.315 509.799 469.848 508.919 468.554 507.697C468.007 507.178 467.238 506.293 466.265 505.17C463.755 502.279 459.645 497.55 455.596 494.988C452.84 497.089 452.133 501.734 453.496 508.79C454.537 513.422 454.168 516.718 453.772 520.207V520.207ZM445.127 524.716C445.633 523.773 445.911 522.724 445.94 521.654C445.94 519.563 445.442 518.783 445.127 518.783C444.813 518.783 444.313 519.563 444.313 521.654C444.343 522.724 444.623 523.773 445.13 524.716H445.127Z" fill="#8D75F3"/>
<mask id="path-45-inside-4" fill="white">
<rect x="554" y="522" width="85" height="67" rx="2"/>
</mask>
<rect x="554" y="522" width="85" height="67" rx="2" stroke="#8D75F3" stroke-width="6" mask="url(#path-45-inside-4)"/>
<mask id="path-46-inside-5" fill="white">
<rect x="571" y="546" width="20" height="22" rx="2"/>
</mask>
<rect x="571" y="546" width="20" height="22" rx="2" stroke="#8D75F3" stroke-width="6" mask="url(#path-46-inside-5)"/>
<mask id="path-47-inside-6" fill="white">
<rect x="636" y="544" width="20" height="22" rx="2"/>
</mask>
<rect x="636" y="544" width="20" height="22" rx="2" stroke="#8D75F3" stroke-width="6" mask="url(#path-47-inside-6)"/>
<mask id="path-48-inside-7" fill="white">
<rect x="600" y="546" width="20" height="22" rx="2"/>
</mask>
<rect x="600" y="546" width="20" height="22" rx="2" stroke="#8D75F3" stroke-width="6" mask="url(#path-48-inside-7)"/>
<path d="M659.5 555C659.5 557.836 658.87 560.329 657.926 562.06C656.951 563.847 655.851 564.5 655 564.5C654.149 564.5 653.049 563.847 652.074 562.06C651.13 560.329 650.5 557.836 650.5 555C650.5 552.164 651.13 549.671 652.074 547.94C653.049 546.153 654.149 545.5 655 545.5C655.851 545.5 656.951 546.153 657.926 547.94C658.87 549.671 659.5 552.164 659.5 555Z" fill="white" stroke="#8D75F3" stroke-width="3"/>
<path d="M656 555.312C656 555.312 676.065 560.059 673 585.312" stroke="#8D75F3" stroke-width="3" stroke-linecap="round" stroke-dasharray="4 5"/>
<path d="M939.827 538.947C943.385 538.947 946.28 541.842 946.28 545.4C946.28 548.958 943.385 551.853 939.827 551.853C936.268 551.853 933.373 548.958 933.373 545.4C933.373 541.842 936.268 538.947 939.827 538.947ZM939.827 549.151C941.895 549.151 943.577 547.468 943.577 545.4C943.577 543.332 941.895 541.65 939.827 541.65C937.759 541.65 936.076 543.332 936.076 545.4C936.076 547.468 937.759 549.151 939.827 549.151Z" fill="black"/>
<path d="M925.115 521.792V498.797V493.6C925.115 492.854 925.72 492.249 926.467 492.249H931.461C932.207 492.249 932.812 492.854 932.812 493.6C932.812 494.346 932.207 494.952 931.461 494.952H927.818V497.446H963.972H971.145V494.952H930.768C930.022 494.952 929.416 494.346 929.416 493.6C929.416 492.854 930.022 492.249 930.768 492.249H972.496C973.242 492.249 973.848 492.854 973.848 493.6V498.797C973.848 499.543 973.242 500.149 972.496 500.149H965.738L971.183 520.251H980.351V505.08C980.351 502.935 982.09 501.196 984.235 501.196H984.774V492.408C984.774 490.657 983.354 489.238 981.603 489.238H980.228C979.482 489.238 978.877 488.633 978.877 487.886C978.877 487.14 979.482 486.535 980.228 486.535H981.603C984.847 486.535 987.477 489.164 987.477 492.408V501.196H987.694C989.839 501.196 991.578 502.935 991.578 505.08V520.251H995.562C999.67 520.251 1003 523.581 1003 527.688V553.08C1003 553.088 1003 553.094 1003 553.101C1003 561.573 996.108 568.465 987.636 568.465C979.62 568.465 973.023 562.293 972.335 554.453H970.149L961.04 554.453C957.514 562.684 949.333 568.465 939.827 568.465C927.563 568.465 917.505 558.843 916.803 546.753H913.351C912.605 546.753 912 546.146 912 545.4C912 535.454 917.246 526.713 925.115 521.792ZM988.874 505.08C988.874 504.429 988.344 503.899 987.693 503.899H984.234C983.583 503.899 983.053 504.429 983.053 505.08V520.25H988.874V505.08ZM987.636 565.762C994.617 565.762 1000.3 560.082 1000.3 553.101L1000.3 553.08C1000.29 546.109 994.611 540.44 987.636 540.44C980.655 540.44 974.976 546.12 974.976 553.101C974.976 560.083 980.655 565.762 987.636 565.762ZM967.652 551.75H968.797L968.839 551.75C968.839 551.75 969.445 551.75 970.191 551.75C970.938 551.75 971.542 551.75 971.542 551.75H971.5C971.174 551.75 972.335 551.75 972.335 551.75C973.022 543.909 979.62 537.737 987.636 537.737C992.884 537.737 997.524 540.384 1000.3 544.41V527.69C1000.3 525.074 998.176 522.954 995.56 522.954H971.5V534.306C971.5 535.052 970.895 535.657 970.149 535.657C969.403 535.657 968.797 535.052 968.797 534.306V521.781L962.938 500.149H927.818V520.302C928.602 519.925 929.406 519.584 930.229 519.281V503.912C930.229 503.165 930.834 502.56 931.581 502.56H960.058C960.668 502.56 961.203 502.969 961.362 503.558L966.339 521.929C966.483 522.464 966.289 523.048 965.813 523.388C965.58 523.554 965.295 523.631 965.009 523.634L957.235 523.71C963.582 528.814 967.652 536.641 967.652 545.401V551.75ZM932.932 505.263V518.439C935.138 517.875 937.448 517.574 939.827 517.574C944.7 517.574 949.284 518.835 953.271 521.045L963.272 520.948L959.023 505.263H932.932ZM939.827 565.762C951.054 565.762 960.189 556.628 960.189 545.4C960.189 534.173 951.054 525.038 939.827 525.038C928.599 525.038 919.465 534.173 919.465 545.4C919.465 556.628 928.599 565.762 939.827 565.762ZM916.803 544.049C917.504 531.958 927.562 522.336 939.827 522.336C952.544 522.336 962.891 532.682 962.891 545.4C962.891 547.602 962.581 549.732 962.002 551.75H964.949V545.401C964.949 531.547 953.679 520.277 939.827 520.277C926.427 520.277 915.443 530.822 914.739 544.049H916.803Z" fill="black"/>
<path d="M987.636 544.965C992.123 544.965 995.773 548.615 995.773 553.101C995.773 557.588 992.123 561.238 987.636 561.238C983.15 561.238 979.5 557.588 979.5 553.101C979.5 548.615 983.15 544.965 987.636 544.965ZM987.636 558.535C990.632 558.535 993.07 556.097 993.07 553.101C993.07 550.105 990.632 547.668 987.636 547.668C984.64 547.668 982.203 550.105 982.203 553.101C982.203 556.097 984.64 558.535 987.636 558.535Z" fill="black"/>
<path d="M996.755 525.575C997.501 525.575 998.107 526.18 998.107 526.926V536.303C998.107 537.049 997.501 537.654 996.755 537.654C993.425 537.654 990.715 534.945 990.715 531.614C990.715 528.284 993.425 525.575 996.755 525.575ZM995.404 534.665V528.564C994.235 529.084 993.418 530.256 993.418 531.615C993.418 532.974 994.235 534.146 995.404 534.665Z" fill="black"/>
<mask id="path-56-inside-8" fill="white">
<rect x="827" y="506.5" width="67" height="62" rx="1"/>
</mask>
<rect x="827" y="506.5" width="67" height="62" rx="1" stroke="black" stroke-width="6" stroke-linejoin="round" mask="url(#path-56-inside-8)"/>
<rect x="846.5" y="485" width="27" height="23" stroke="black" stroke-width="3" stroke-linejoin="round"/>
<rect x="842.5" y="539" width="36" height="28" stroke="black" stroke-width="3" stroke-linejoin="round"/>
<rect x="840.5" y="521" width="9" height="10" stroke="black" stroke-width="3" stroke-linejoin="round"/>
<rect x="855.5" y="521" width="9" height="10" stroke="black" stroke-width="3" stroke-linejoin="round"/>
<rect x="870.5" y="521" width="9" height="10" stroke="black" stroke-width="3" stroke-linejoin="round"/>
<path d="M825.072 436H894.928C895.29 436 895.532 436.372 895.386 436.702L874.023 485H845.977L824.614 436.702C824.468 436.372 824.71 436 825.072 436Z" stroke="black" stroke-width="3" stroke-linejoin="round"/>
<path d="M1091.27 494.206H1115.73C1115.99 494.206 1116.2 494.394 1116.23 494.644L1125.21 566.502C1125.27 566.99 1124.67 567.264 1124.34 566.897L1106.12 546.391C1104.72 544.825 1102.28 544.825 1100.88 546.391L1082.66 566.897C1082.33 567.264 1081.73 566.99 1081.79 566.502L1090.77 494.644C1090.8 494.394 1091.01 494.206 1091.27 494.206Z" stroke="black" stroke-width="3" stroke-linejoin="round"/>
<path d="M1104.9 518.394L1117.56 528.84C1118.26 529.414 1118.29 530.47 1117.64 531.089L1104.97 543.016C1104.41 543.548 1103.53 543.561 1102.95 543.044L1089.55 531.121C1088.85 530.498 1088.88 529.393 1089.62 528.817L1103.02 518.368C1103.58 517.936 1104.36 517.947 1104.9 518.394Z" stroke="black" stroke-width="3"/>
<path d="M1135.5 493.706L1078.35 493.706C1075.43 493.706 1074.23 497.448 1076.6 499.146L1101.62 517.042C1102.79 517.882 1104.4 517.767 1105.44 516.768L1117.5 505.206" stroke="black" stroke-width="3" stroke-linecap="round"/>
<path d="M1084.93 472.206H1122.07C1123.13 472.206 1123.86 473.278 1123.46 474.263L1115.86 493.263C1115.63 493.833 1115.08 494.206 1114.47 494.206H1092.53C1091.92 494.206 1091.37 493.833 1091.14 493.263L1083.54 474.263C1083.14 473.278 1083.87 472.206 1084.93 472.206Z" stroke="black" stroke-width="3"/>
<line x1="1076" y1="472.206" x2="1129" y2="472.206" stroke="black" stroke-width="3" stroke-linecap="round"/>
<path d="M1103.9 437L1095.9 448L1111 448L1103.9 460.206" stroke="black" stroke-width="3" stroke-linecap="round" stroke-linejoin="round"/>
<g filter="url(#filter3_d)">
<circle cx="1168" cy="410" r="23" fill="#FBC800"/>
</g>
<line x1="1168.29" y1="399.105" x2="1168.29" y2="422.105" stroke="white" stroke-width="3"/>
<path d="M1180.11 411.21L1156.5 411.21" stroke="white" stroke-width="3"/>
<rect x="1147.5" y="533" width="28" height="5" rx="2.5" stroke="black" stroke-width="3" stroke-linejoin="round"/>
<rect x="1147.5" y="562" width="28" height="5" rx="2.5" stroke="black" stroke-width="3" stroke-linejoin="round"/>
<line x1="1149.5" y1="538.5" x2="1149.5" y2="561.5" stroke="black" stroke-width="3"/>
<line x1="1173.5" y1="538.5" x2="1173.5" y2="561.5" stroke="black" stroke-width="3"/>
<path d="M1173 533.5V531.5C1173 528.739 1170.76 526.5 1168 526.5H1156C1153.24 526.5 1151 528.739 1151 531.5V533.5" stroke="black" stroke-width="3"/>
<path d="M1166 519.5H1167.5C1167.5 518.672 1166.83 518 1166 518V519.5ZM1163 521H1166V518H1163V521ZM1164.5 519.5V526.5H1167.5V519.5H1164.5ZM1159.5 526.5V524.5H1156.5V526.5H1159.5ZM1163 518C1159.41 518 1156.5 520.91 1156.5 524.5H1159.5C1159.5 522.567 1161.07 521 1163 521V518Z" fill="black"/>
<path d="M1173 557.5C1168.03 557.5 1164 554.366 1164 550.5C1164 546.634 1168.03 543.5 1173 543.5" stroke="black" stroke-width="3"/>
<line x1="1175.3" y1="519.826" x2="1188.33" y2="518.198" stroke="black" stroke-width="3" stroke-linecap="round"/>
<line x1="1175.74" y1="524.293" x2="1183.79" y2="525.756" stroke="black" stroke-width="3" stroke-linecap="round"/>
<path d="M1216.5 553.217L1225.72 464.218H1278.3L1287.52 553.217V567.1H1216.5V553.217Z" stroke="black" stroke-width="3" stroke-linejoin="round"/>
<path d="M1222.29 456L1225.4 464.029H1278.53L1280.87 455.969L1278.68 451.1H1225.22L1222.29 456Z" stroke="black" stroke-width="3" stroke-linejoin="round"/>
<line x1="1215.94" y1="553.982" x2="1287.15" y2="553.982" stroke="black" stroke-width="3" stroke-linejoin="round"/>
<line x1="1216.79" y1="566.564" x2="1229.91" y2="554.383" stroke="black" stroke-width="3" stroke-linejoin="round"/>
<line y1="-1.5" x2="19.6772" y2="-1.5" transform="matrix(0.732783 -0.680462 0.68044 0.732804 1235.61 568.6)" stroke="black" stroke-width="3" stroke-linejoin="round"/>
<line y1="-1.5" x2="19.6772" y2="-1.5" transform="matrix(0.73278 -0.680465 0.680437 0.732807 1254.35 568.6)" stroke="black" stroke-width="3" stroke-linejoin="round"/>
<line y1="-1.5" x2="19.6772" y2="-1.5" transform="matrix(0.732783 -0.680462 0.68044 0.732804 1273.09 568.6)" stroke="black" stroke-width="3" stroke-linejoin="round"/>
<path d="M1258.06 492.703V471.151C1252.75 471.308 1243.34 475.836 1248.22 492.703" stroke="black" stroke-width="3" stroke-linejoin="round"/>
<path d="M1244.91 499.262L1226.24 510.037C1229.03 514.557 1237.66 520.435 1249.83 507.782" stroke="black" stroke-width="3" stroke-linejoin="round"/>
<path d="M1256.23 507.084L1274.89 517.86C1277.41 513.183 1278.19 502.777 1261.15 498.563" stroke="black" stroke-width="3" stroke-linejoin="round"/>
<circle cx="1252.95" cy="499.73" r="8.33859" stroke="black" stroke-width="3" stroke-linejoin="round"/>
<circle cx="1252.95" cy="499.73" r="3.65355" stroke="black" stroke-width="3" stroke-linejoin="round"/>
<line y1="-1.5" x2="46.1012" y2="-1.5" transform="matrix(-0.0508473 0.998706 -0.998388 -0.0567561 1249.2 507.695)" stroke="black" stroke-width="3" stroke-linejoin="round"/>
<line y1="-1.5" x2="46.9323" y2="-1.5" transform="matrix(0.0201082 0.999798 -1 0.00040714 1254.22 507.905)" stroke="black" stroke-width="3" stroke-linejoin="round"/>
<path d="M1370.22 558.5L1348.61 525.5H1307.74L1328.85 558.5H1370.22Z" stroke="black" stroke-width="3" stroke-linecap="round" stroke-linejoin="round"/>
<path d="M1358.22 558.5L1336.54 525.5H1322.77L1344.27 558.5H1358.22Z" stroke="black" stroke-width="3" stroke-linecap="round" stroke-linejoin="round"/>
<path d="M1322 548.115L1362.68 548.234L1355.19 536.833L1314.58 536.565L1322 548.115Z" stroke="black" stroke-width="3" stroke-linecap="round" stroke-linejoin="round"/>
<path d="M1370.64 559.364V566C1370.64 566.552 1370.19 567 1369.64 567H1307C1306.45 567 1306 566.552 1306 566V525" stroke="black" stroke-width="3" stroke-linecap="round" stroke-linejoin="round"/>
<line x1="1329.5" y1="559.5" x2="1329.5" y2="565.5" stroke="black" stroke-width="3" stroke-linecap="round" stroke-linejoin="round"/>
<circle r="8.05887" transform="matrix(-1 0 0 1 1359.9 480.752)" stroke="black" stroke-width="3"/>
<line x1="1.5" y1="-1.5" x2="24.7641" y2="-1.5" transform="matrix(-0.707116 0.707097 0.707116 0.707097 1349.24 489.219)" stroke="black" stroke-width="3" stroke-linecap="round"/>
<line x1="1.5" y1="-1.5" x2="18.164" y2="-1.5" transform="matrix(0 1 1 0 1359.62 494.135)" stroke="black" stroke-width="3" stroke-linecap="round"/>
<line x1="1.5" y1="-1.5" x2="18.1716" y2="-1.5" transform="matrix(-0.999615 -0.0277507 -0.0277834 0.999614 1344.87 478.84)" stroke="black" stroke-width="3" stroke-linecap="round"/>
<line x1="1.5" y1="-1.5" x2="11.2984" y2="-1.5" transform="matrix(0.768217 0.640189 0.64018 -0.768225 1370.55 489.765)" stroke="black" stroke-width="3" stroke-linecap="round"/>
<line x1="1.5" y1="-1.5" x2="11.2984" y2="-1.5" transform="matrix(0.768221 0.640184 0.640184 -0.768221 1338.87 463)" stroke="black" stroke-width="3" stroke-linecap="round"/>
<path d="M136.133 371.26C135.401 371.604 135.078 372.469 135.404 373.209L138.747 380.395C138.911 380.752 139.21 381.031 139.579 381.168C139.74 381.227 139.912 381.257 140.084 381.257C140.299 381.259 140.512 381.213 140.707 381.124L165.961 369.311L163.674 393.263C163.629 393.734 163.811 394.198 164.163 394.512C165.27 395.43 166.65 395.953 168.085 396C168.481 396 168.875 395.95 169.259 395.852C171.309 395.316 172.898 393.487 173.983 390.362L183.921 360.892L203.603 351.697C209.396 348.99 212.382 343.501 210.377 339.216C209.239 336.977 207.06 335.453 204.569 335.154C201.801 334.736 198.972 335.172 196.458 336.405L173.744 347.071L149.324 337.505C146.248 336.345 143.813 336.375 142.104 337.61C140.671 338.788 139.856 340.558 139.891 342.415C139.905 342.886 140.142 343.321 140.529 343.591L156.973 354.911L147.556 359.374L131.765 355.357C131.118 355.198 130.444 355.49 130.116 356.071L126.18 363.167C125.976 363.543 125.944 363.989 126.092 364.391C126.24 364.793 126.553 365.111 126.953 365.265L138.643 370.1L136.133 371.26ZM142.935 341.671C143.023 341.042 143.34 340.47 143.827 340.064C144.674 339.454 146.219 339.543 148.284 340.317L170.031 348.812L160.108 353.453L142.935 341.671ZM129.567 363.153L132.151 358.556L147.348 362.334C147.675 362.417 148.021 362.386 148.329 362.246L197.721 339.142C199.684 338.172 201.896 337.819 204.064 338.13C205.584 338.27 206.938 339.149 207.689 340.48C208.935 343.159 206.485 347.071 202.34 349.005L185.227 357.039L186.267 353.959C186.53 353.166 186.101 352.31 185.31 352.047C184.517 351.784 183.663 352.214 183.4 353.007L171.175 389.439C170.447 391.508 169.541 392.743 168.531 393.01C167.905 393.13 167.257 393.007 166.718 392.668L169.689 361.427C169.767 360.605 169.166 359.876 168.345 359.798C167.524 359.72 166.796 360.323 166.718 361.144L166.258 365.919L140.767 377.821L138.673 373.358L142.861 371.394C143.4 371.156 143.748 370.622 143.748 370.033C143.748 369.443 143.4 368.909 142.861 368.672L129.567 363.153Z" fill="black"/>
</g>
<defs>
<filter id="filter0_d" x="895" y="384" width="86" height="86" filterUnits="userSpaceOnUse" color-interpolation-filters="sRGB">
<feFlood flood-opacity="0" result="BackgroundImageFix"/>
<feColorMatrix in="SourceAlpha" type="matrix" values="0 0 0 0 0 0 0 0 0 0 0 0 0 0 0 0 0 0 127 0"/>
<feOffset/>
<feGaussianBlur stdDeviation="10"/>
<feColorMatrix type="matrix" values="0 0 0 0 0 0 0 0 0 0 0 0 0 0 0 0 0 0 0.1 0"/>
<feBlend mode="normal" in2="BackgroundImageFix" result="effect1_dropShadow"/>
<feBlend mode="normal" in="SourceGraphic" in2="effect1_dropShadow" result="shape"/>
</filter>
<filter id="filter1_d" x="525" y="423" width="86" height="86" filterUnits="userSpaceOnUse" color-interpolation-filters="sRGB">
<feFlood flood-opacity="0" result="BackgroundImageFix"/>
<feColorMatrix in="SourceAlpha" type="matrix" values="0 0 0 0 0 0 0 0 0 0 0 0 0 0 0 0 0 0 127 0"/>
<feOffset/>
<feGaussianBlur stdDeviation="10"/>
<feColorMatrix type="matrix" values="0 0 0 0 0 0 0 0 0 0 0 0 0 0 0 0 0 0 0.1 0"/>
<feBlend mode="normal" in2="BackgroundImageFix" result="effect1_dropShadow"/>
<feBlend mode="normal" in="SourceGraphic" in2="effect1_dropShadow" result="shape"/>
</filter>
<filter id="filter2_d" x="295" y="392" width="86" height="86" filterUnits="userSpaceOnUse" color-interpolation-filters="sRGB">
<feFlood flood-opacity="0" result="BackgroundImageFix"/>
<feColorMatrix in="SourceAlpha" type="matrix" values="0 0 0 0 0 0 0 0 0 0 0 0 0 0 0 0 0 0 127 0"/>
<feOffset/>
<feGaussianBlur stdDeviation="10"/>
<feColorMatrix type="matrix" values="0 0 0 0 0 0 0 0 0 0 0 0 0 0 0 0 0 0 0.1 0"/>
<feBlend mode="normal" in2="BackgroundImageFix" result="effect1_dropShadow"/>
<feBlend mode="normal" in="SourceGraphic" in2="effect1_dropShadow" result="shape"/>
</filter>
<filter id="filter3_d" x="1125" y="367" width="86" height="86" filterUnits="userSpaceOnUse" color-interpolation-filters="sRGB">
<feFlood flood-opacity="0" result="BackgroundImageFix"/>
<feColorMatrix in="SourceAlpha" type="matrix" values="0 0 0 0 0 0 0 0 0 0 0 0 0 0 0 0 0 0 127 0"/>
<feOffset/>
<feGaussianBlur stdDeviation="10"/>
<feColorMatrix type="matrix" values="0 0 0 0 0 0 0 0 0 0 0 0 0 0 0 0 0 0 0.1 0"/>
<feBlend mode="normal" in2="BackgroundImageFix" result="effect1_dropShadow"/>
<feBlend mode="normal" in="SourceGraphic" in2="effect1_dropShadow" result="shape"/>
</filter>
<clipPath id="clip0">
<rect width="1440" height="1024" fill="white"/>
</clipPath>
</defs>
</svg>
