<svg width="1440" height="1024" viewBox="0 0 1440 1024" fill="none" xmlns="http://www.w3.org/2000/svg">
<g clip-path="url(#clip0)">
<rect width="1440" height="1024" fill="white"/>
<path d="M191 704V570H237V660H383V570H431V704H191Z" stroke="black" stroke-width="3"/>
<path d="M-1 570H159H201H211H367H383H431V550H533V590H654.5C669 590 666.5 599.5 678.5 599.5C685.542 599.5 685.5 588.5 685.5 588.5C694.5 588.5 694.5 599.5 700 599.5C710.5 599.5 709 588.5 709 588.5C720.5 588.5 718 599.5 724 599.5C734.5 599.5 733 588.5 733 588.5C744 587.5 741 598 748 598C755 598 756.5 588.5 756.5 588.5C766.5 588.5 767.09 597.566 771 598C784.5 599.5 783 590 797.5 590V570H1385V590H1437" stroke="black" stroke-width="3"/>
<rect x="337" y="434" width="131" height="190" rx="8" transform="rotate(-90 337 434)" fill="#00C7A5" fill-opacity="0.12"/>
<g filter="url(#filter0_d)">
<circle cx="938" cy="427" r="23" fill="#6CBAFA"/>
</g>
<line x1="938.29" y1="416.105" x2="938.29" y2="439.105" stroke="white" stroke-width="3"/>
<path d="M950.105 428.21L926.5 428.21" stroke="white" stroke-width="3"/>
<g filter="url(#filter1_d)">
<circle cx="568" cy="466" r="23" fill="#8D75F3"/>
</g>
<line x1="568.29" y1="455.105" x2="568.29" y2="478.105" stroke="white" stroke-width="3"/>
<path d="M580.105 467.21L556.5 467.21" stroke="white" stroke-width="3"/>
<g filter="url(#filter2_d)">
<circle cx="338" cy="435" r="23" fill="#00C7A5"/>
</g>
<line x1="338.29" y1="424.105" x2="338.29" y2="447.105" stroke="white" stroke-width="3"/>
<path d="M350.105 436.21L326.5 436.21" stroke="white" stroke-width="3"/>
<path d="M362.639 332.975H356.916V339H354.445V324.781H363.479V326.773H356.916V331.002H362.639V332.975ZM364.553 333.619C364.553 332.584 364.758 331.653 365.168 330.826C365.578 329.993 366.154 329.355 366.896 328.912C367.639 328.463 368.492 328.238 369.455 328.238C370.881 328.238 372.036 328.697 372.922 329.615C373.814 330.533 374.296 331.751 374.367 333.268L374.377 333.824C374.377 334.866 374.175 335.797 373.771 336.617C373.374 337.438 372.801 338.072 372.053 338.521C371.311 338.971 370.451 339.195 369.475 339.195C367.984 339.195 366.789 338.701 365.891 337.711C364.999 336.715 364.553 335.39 364.553 333.736V333.619ZM366.926 333.824C366.926 334.911 367.15 335.764 367.6 336.383C368.049 336.995 368.674 337.301 369.475 337.301C370.275 337.301 370.897 336.988 371.34 336.363C371.789 335.738 372.014 334.824 372.014 333.619C372.014 332.551 371.783 331.705 371.32 331.08C370.865 330.455 370.243 330.143 369.455 330.143C368.68 330.143 368.065 330.452 367.609 331.07C367.154 331.682 366.926 332.6 366.926 333.824ZM382.307 336.129C382.307 335.706 382.131 335.383 381.779 335.162C381.434 334.941 380.858 334.745 380.051 334.576C379.243 334.407 378.57 334.192 378.029 333.932C376.844 333.359 376.252 332.529 376.252 331.441C376.252 330.53 376.636 329.768 377.404 329.156C378.173 328.544 379.149 328.238 380.334 328.238C381.597 328.238 382.616 328.551 383.391 329.176C384.172 329.801 384.562 330.611 384.562 331.607H382.189C382.189 331.152 382.02 330.774 381.682 330.475C381.343 330.169 380.894 330.016 380.334 330.016C379.813 330.016 379.387 330.136 379.055 330.377C378.729 330.618 378.566 330.94 378.566 331.344C378.566 331.708 378.719 331.992 379.025 332.193C379.331 332.395 379.95 332.6 380.881 332.809C381.812 333.01 382.541 333.255 383.068 333.541C383.602 333.821 383.996 334.16 384.25 334.557C384.51 334.954 384.641 335.436 384.641 336.002C384.641 336.952 384.247 337.724 383.459 338.316C382.671 338.902 381.639 339.195 380.363 339.195C379.497 339.195 378.726 339.039 378.049 338.727C377.372 338.414 376.844 337.984 376.467 337.438C376.089 336.891 375.9 336.301 375.9 335.67H378.205C378.238 336.23 378.449 336.663 378.84 336.969C379.23 337.268 379.748 337.418 380.393 337.418C381.018 337.418 381.493 337.301 381.818 337.066C382.144 336.826 382.307 336.513 382.307 336.129ZM392.639 336.129C392.639 335.706 392.463 335.383 392.111 335.162C391.766 334.941 391.19 334.745 390.383 334.576C389.576 334.407 388.902 334.192 388.361 333.932C387.176 333.359 386.584 332.529 386.584 331.441C386.584 330.53 386.968 329.768 387.736 329.156C388.505 328.544 389.481 328.238 390.666 328.238C391.929 328.238 392.948 328.551 393.723 329.176C394.504 329.801 394.895 330.611 394.895 331.607H392.521C392.521 331.152 392.352 330.774 392.014 330.475C391.675 330.169 391.226 330.016 390.666 330.016C390.145 330.016 389.719 330.136 389.387 330.377C389.061 330.618 388.898 330.94 388.898 331.344C388.898 331.708 389.051 331.992 389.357 332.193C389.663 332.395 390.282 332.6 391.213 332.809C392.144 333.01 392.873 333.255 393.4 333.541C393.934 333.821 394.328 334.16 394.582 334.557C394.842 334.954 394.973 335.436 394.973 336.002C394.973 336.952 394.579 337.724 393.791 338.316C393.003 338.902 391.971 339.195 390.695 339.195C389.829 339.195 389.058 339.039 388.381 338.727C387.704 338.414 387.176 337.984 386.799 337.438C386.421 336.891 386.232 336.301 386.232 335.67H388.537C388.57 336.23 388.781 336.663 389.172 336.969C389.562 337.268 390.08 337.418 390.725 337.418C391.35 337.418 391.825 337.301 392.15 337.066C392.476 336.826 392.639 336.513 392.639 336.129ZM399.572 339H397.199V328.434H399.572V339ZM397.053 325.689C397.053 325.325 397.167 325.022 397.395 324.781C397.629 324.54 397.961 324.42 398.391 324.42C398.82 324.42 399.152 324.54 399.387 324.781C399.621 325.022 399.738 325.325 399.738 325.689C399.738 326.048 399.621 326.347 399.387 326.588C399.152 326.822 398.82 326.939 398.391 326.939C397.961 326.939 397.629 326.822 397.395 326.588C397.167 326.347 397.053 326.048 397.053 325.689ZM404.689 339H402.316V324H404.689V339ZM413.098 339V330.191H411.486V328.434H413.098V327.467C413.098 326.295 413.423 325.39 414.074 324.752C414.725 324.114 415.637 323.795 416.809 323.795C417.225 323.795 417.668 323.854 418.137 323.971L418.078 325.826C417.818 325.774 417.515 325.748 417.17 325.748C416.037 325.748 415.471 326.331 415.471 327.496V328.434H417.619V330.191H415.471V339H413.098ZM425.754 337.965C425.057 338.785 424.068 339.195 422.785 339.195C421.639 339.195 420.77 338.86 420.178 338.189C419.592 337.519 419.299 336.549 419.299 335.279V328.434H421.672V335.25C421.672 336.591 422.229 337.262 423.342 337.262C424.494 337.262 425.272 336.848 425.676 336.021V328.434H428.049V339H425.812L425.754 337.965ZM435.119 339.195C433.615 339.195 432.395 338.723 431.457 337.779C430.526 336.829 430.061 335.566 430.061 333.99V333.697C430.061 332.643 430.262 331.702 430.666 330.875C431.076 330.042 431.649 329.394 432.385 328.932C433.12 328.469 433.941 328.238 434.846 328.238C436.285 328.238 437.395 328.697 438.176 329.615C438.964 330.533 439.357 331.832 439.357 333.512V334.469H432.453C432.525 335.341 432.814 336.031 433.322 336.539C433.837 337.047 434.481 337.301 435.256 337.301C436.343 337.301 437.229 336.861 437.912 335.982L439.191 337.203C438.768 337.835 438.202 338.326 437.492 338.678C436.789 339.023 435.998 339.195 435.119 339.195ZM434.836 330.143C434.185 330.143 433.658 330.37 433.254 330.826C432.857 331.282 432.603 331.917 432.492 332.73H437.014V332.555C436.962 331.76 436.75 331.161 436.379 330.758C436.008 330.348 435.493 330.143 434.836 330.143ZM443.732 339H441.359V324H443.732V339ZM452.248 336.129C452.248 335.706 452.072 335.383 451.721 335.162C451.376 334.941 450.799 334.745 449.992 334.576C449.185 334.407 448.511 334.192 447.971 333.932C446.786 333.359 446.193 332.529 446.193 331.441C446.193 330.53 446.577 329.768 447.346 329.156C448.114 328.544 449.09 328.238 450.275 328.238C451.538 328.238 452.557 328.551 453.332 329.176C454.113 329.801 454.504 330.611 454.504 331.607H452.131C452.131 331.152 451.962 330.774 451.623 330.475C451.285 330.169 450.835 330.016 450.275 330.016C449.755 330.016 449.328 330.136 448.996 330.377C448.671 330.618 448.508 330.94 448.508 331.344C448.508 331.708 448.661 331.992 448.967 332.193C449.273 332.395 449.891 332.6 450.822 332.809C451.753 333.01 452.482 333.255 453.01 333.541C453.544 333.821 453.938 334.16 454.191 334.557C454.452 334.954 454.582 335.436 454.582 336.002C454.582 336.952 454.188 337.724 453.4 338.316C452.613 338.902 451.581 339.195 450.305 339.195C449.439 339.195 448.667 339.039 447.99 338.727C447.313 338.414 446.786 337.984 446.408 337.438C446.031 336.891 445.842 336.301 445.842 335.67H448.146C448.179 336.23 448.391 336.663 448.781 336.969C449.172 337.268 449.689 337.418 450.334 337.418C450.959 337.418 451.434 337.301 451.76 337.066C452.085 336.826 452.248 336.513 452.248 336.129ZM456.994 342.203L455.715 341.441C456.092 340.849 456.35 340.331 456.486 339.889C456.63 339.452 456.704 339.007 456.711 338.551V336.705H458.85L458.84 338.414C458.833 339.104 458.658 339.794 458.312 340.484C457.974 341.181 457.535 341.754 456.994 342.203ZM363.469 356.824C363.469 358.458 363.098 359.764 362.355 360.74C361.613 361.71 360.617 362.195 359.367 362.195C358.208 362.195 357.281 361.814 356.584 361.053V366.062H354.211V351.434H356.398L356.496 352.508C357.193 351.661 358.14 351.238 359.338 351.238C360.627 351.238 361.636 351.72 362.365 352.684C363.101 353.641 363.469 354.972 363.469 356.678V356.824ZM361.105 356.619C361.105 355.564 360.894 354.728 360.471 354.109C360.054 353.491 359.455 353.182 358.674 353.182C357.704 353.182 357.007 353.582 356.584 354.383V359.07C357.014 359.891 357.717 360.301 358.693 360.301C359.449 360.301 360.038 359.998 360.461 359.393C360.891 358.781 361.105 357.856 361.105 356.619ZM365.041 356.619C365.041 355.584 365.246 354.653 365.656 353.826C366.066 352.993 366.643 352.355 367.385 351.912C368.127 351.463 368.98 351.238 369.943 351.238C371.369 351.238 372.525 351.697 373.41 352.615C374.302 353.533 374.784 354.751 374.855 356.268L374.865 356.824C374.865 357.866 374.663 358.797 374.26 359.617C373.863 360.438 373.29 361.072 372.541 361.521C371.799 361.971 370.939 362.195 369.963 362.195C368.472 362.195 367.277 361.701 366.379 360.711C365.487 359.715 365.041 358.39 365.041 356.736V356.619ZM367.414 356.824C367.414 357.911 367.639 358.764 368.088 359.383C368.537 359.995 369.162 360.301 369.963 360.301C370.764 360.301 371.385 359.988 371.828 359.363C372.277 358.738 372.502 357.824 372.502 356.619C372.502 355.551 372.271 354.705 371.809 354.08C371.353 353.455 370.731 353.143 369.943 353.143C369.169 353.143 368.553 353.452 368.098 354.07C367.642 354.682 367.414 355.6 367.414 356.824ZM386.154 358.729L387.834 351.434H390.148L387.268 362H385.314L383.049 354.744L380.822 362H378.869L375.979 351.434H378.293L380.002 358.65L382.17 351.434H383.957L386.154 358.729ZM396.389 362.195C394.885 362.195 393.664 361.723 392.727 360.779C391.796 359.829 391.33 358.566 391.33 356.99V356.697C391.33 355.643 391.532 354.702 391.936 353.875C392.346 353.042 392.919 352.394 393.654 351.932C394.39 351.469 395.21 351.238 396.115 351.238C397.554 351.238 398.664 351.697 399.445 352.615C400.233 353.533 400.627 354.832 400.627 356.512V357.469H393.723C393.794 358.341 394.084 359.031 394.592 359.539C395.106 360.047 395.751 360.301 396.525 360.301C397.613 360.301 398.498 359.861 399.182 358.982L400.461 360.203C400.038 360.835 399.471 361.326 398.762 361.678C398.059 362.023 397.268 362.195 396.389 362.195ZM396.105 353.143C395.454 353.143 394.927 353.37 394.523 353.826C394.126 354.282 393.872 354.917 393.762 355.73H398.283V355.555C398.231 354.76 398.02 354.161 397.648 353.758C397.277 353.348 396.763 353.143 396.105 353.143ZM408.01 353.602C407.697 353.549 407.375 353.523 407.043 353.523C405.956 353.523 405.223 353.94 404.846 354.773V362H402.473V351.434H404.738L404.797 352.615C405.37 351.697 406.164 351.238 407.18 351.238C407.518 351.238 407.798 351.284 408.02 351.375L408.01 353.602ZM414.074 356.639C414.074 354.998 414.458 353.689 415.227 352.713C416.001 351.73 417.027 351.238 418.303 351.238C419.507 351.238 420.454 351.658 421.145 352.498L421.252 351.434H423.391V361.678C423.391 363.064 422.958 364.158 422.092 364.959C421.232 365.76 420.07 366.16 418.605 366.16C417.831 366.16 417.072 365.997 416.33 365.672C415.594 365.353 415.035 364.933 414.65 364.412L415.773 362.986C416.503 363.852 417.401 364.285 418.469 364.285C419.257 364.285 419.878 364.07 420.334 363.641C420.79 363.217 421.018 362.592 421.018 361.766V361.053C420.334 361.814 419.423 362.195 418.283 362.195C417.046 362.195 416.034 361.704 415.246 360.721C414.465 359.738 414.074 358.377 414.074 356.639ZM416.438 356.844C416.438 357.905 416.652 358.742 417.082 359.354C417.518 359.959 418.12 360.262 418.889 360.262C419.846 360.262 420.555 359.852 421.018 359.031V354.383C420.568 353.582 419.865 353.182 418.908 353.182C418.127 353.182 417.518 353.491 417.082 354.109C416.652 354.728 416.438 355.639 416.438 356.844ZM430.49 362.195C428.986 362.195 427.766 361.723 426.828 360.779C425.897 359.829 425.432 358.566 425.432 356.99V356.697C425.432 355.643 425.633 354.702 426.037 353.875C426.447 353.042 427.02 352.394 427.756 351.932C428.492 351.469 429.312 351.238 430.217 351.238C431.656 351.238 432.766 351.697 433.547 352.615C434.335 353.533 434.729 354.832 434.729 356.512V357.469H427.824C427.896 358.341 428.186 359.031 428.693 359.539C429.208 360.047 429.852 360.301 430.627 360.301C431.714 360.301 432.6 359.861 433.283 358.982L434.562 360.203C434.139 360.835 433.573 361.326 432.863 361.678C432.16 362.023 431.369 362.195 430.49 362.195ZM430.207 353.143C429.556 353.143 429.029 353.37 428.625 353.826C428.228 354.282 427.974 354.917 427.863 355.73H432.385V355.555C432.333 354.76 432.121 354.161 431.75 353.758C431.379 353.348 430.865 353.143 430.207 353.143ZM438.781 351.434L438.85 352.654C439.631 351.71 440.656 351.238 441.926 351.238C444.126 351.238 445.246 352.498 445.285 355.018V362H442.912V355.154C442.912 354.484 442.766 353.989 442.473 353.67C442.186 353.344 441.714 353.182 441.057 353.182C440.1 353.182 439.387 353.615 438.918 354.48V362H436.545V351.434H438.781ZM452.365 362.195C450.861 362.195 449.641 361.723 448.703 360.779C447.772 359.829 447.307 358.566 447.307 356.99V356.697C447.307 355.643 447.508 354.702 447.912 353.875C448.322 353.042 448.895 352.394 449.631 351.932C450.367 351.469 451.187 351.238 452.092 351.238C453.531 351.238 454.641 351.697 455.422 352.615C456.21 353.533 456.604 354.832 456.604 356.512V357.469H449.699C449.771 358.341 450.061 359.031 450.568 359.539C451.083 360.047 451.727 360.301 452.502 360.301C453.589 360.301 454.475 359.861 455.158 358.982L456.438 360.203C456.014 360.835 455.448 361.326 454.738 361.678C454.035 362.023 453.244 362.195 452.365 362.195ZM452.082 353.143C451.431 353.143 450.904 353.37 450.5 353.826C450.103 354.282 449.849 354.917 449.738 355.73H454.26V355.555C454.208 354.76 453.996 354.161 453.625 353.758C453.254 353.348 452.74 353.143 452.082 353.143ZM463.986 353.602C463.674 353.549 463.352 353.523 463.02 353.523C461.932 353.523 461.2 353.94 460.822 354.773V362H458.449V351.434H460.715L460.773 352.615C461.346 351.697 462.141 351.238 463.156 351.238C463.495 351.238 463.775 351.284 463.996 351.375L463.986 353.602ZM471.506 362C471.402 361.798 471.311 361.469 471.232 361.014C470.477 361.801 469.553 362.195 468.459 362.195C467.398 362.195 466.532 361.893 465.861 361.287C465.191 360.682 464.855 359.933 464.855 359.041C464.855 357.915 465.272 357.052 466.105 356.453C466.945 355.848 468.143 355.545 469.699 355.545H471.154V354.852C471.154 354.305 471.001 353.868 470.695 353.543C470.389 353.211 469.924 353.045 469.299 353.045C468.758 353.045 468.316 353.182 467.971 353.455C467.626 353.722 467.453 354.064 467.453 354.48H465.08C465.08 353.901 465.272 353.361 465.656 352.859C466.04 352.352 466.561 351.954 467.219 351.668C467.883 351.382 468.622 351.238 469.436 351.238C470.673 351.238 471.659 351.551 472.395 352.176C473.13 352.794 473.508 353.667 473.527 354.793V359.559C473.527 360.509 473.661 361.268 473.928 361.834V362H471.506ZM468.898 360.291C469.367 360.291 469.807 360.177 470.217 359.949C470.633 359.721 470.946 359.415 471.154 359.031V357.039H469.875C468.996 357.039 468.335 357.192 467.893 357.498C467.45 357.804 467.229 358.237 467.229 358.797C467.229 359.253 467.378 359.617 467.678 359.891C467.984 360.158 468.391 360.291 468.898 360.291ZM478.986 348.865V351.434H480.852V353.191H478.986V359.09C478.986 359.493 479.064 359.786 479.221 359.969C479.383 360.145 479.67 360.232 480.08 360.232C480.354 360.232 480.63 360.2 480.91 360.135V361.971C480.37 362.12 479.849 362.195 479.348 362.195C477.525 362.195 476.613 361.189 476.613 359.178V353.191H474.875V351.434H476.613V348.865H478.986ZM485.197 362H482.824V351.434H485.197V362ZM482.678 348.689C482.678 348.325 482.792 348.022 483.02 347.781C483.254 347.54 483.586 347.42 484.016 347.42C484.445 347.42 484.777 347.54 485.012 347.781C485.246 348.022 485.363 348.325 485.363 348.689C485.363 349.048 485.246 349.347 485.012 349.588C484.777 349.822 484.445 349.939 484.016 349.939C483.586 349.939 483.254 349.822 483.02 349.588C482.792 349.347 482.678 349.048 482.678 348.689ZM487.346 356.619C487.346 355.584 487.551 354.653 487.961 353.826C488.371 352.993 488.947 352.355 489.689 351.912C490.432 351.463 491.285 351.238 492.248 351.238C493.674 351.238 494.829 351.697 495.715 352.615C496.607 353.533 497.089 354.751 497.16 356.268L497.17 356.824C497.17 357.866 496.968 358.797 496.564 359.617C496.167 360.438 495.594 361.072 494.846 361.521C494.104 361.971 493.244 362.195 492.268 362.195C490.777 362.195 489.582 361.701 488.684 360.711C487.792 359.715 487.346 358.39 487.346 356.736V356.619ZM489.719 356.824C489.719 357.911 489.943 358.764 490.393 359.383C490.842 359.995 491.467 360.301 492.268 360.301C493.068 360.301 493.69 359.988 494.133 359.363C494.582 358.738 494.807 357.824 494.807 356.619C494.807 355.551 494.576 354.705 494.113 354.08C493.658 353.455 493.036 353.143 492.248 353.143C491.473 353.143 490.858 353.452 490.402 354.07C489.947 354.682 489.719 355.6 489.719 356.824ZM501.379 351.434L501.447 352.654C502.229 351.71 503.254 351.238 504.523 351.238C506.724 351.238 507.844 352.498 507.883 355.018V362H505.51V355.154C505.51 354.484 505.363 353.989 505.07 353.67C504.784 353.344 504.312 353.182 503.654 353.182C502.697 353.182 501.984 353.615 501.516 354.48V362H499.143V351.434H501.379ZM510.646 365.203L509.367 364.441C509.745 363.849 510.002 363.331 510.139 362.889C510.282 362.452 510.357 362.007 510.363 361.551V359.705H512.502L512.492 361.414C512.486 362.104 512.31 362.794 511.965 363.484C511.626 364.181 511.187 364.754 510.646 365.203ZM359.748 376.602C359.436 376.549 359.113 376.523 358.781 376.523C357.694 376.523 356.962 376.94 356.584 377.773V385H354.211V374.434H356.477L356.535 375.615C357.108 374.697 357.902 374.238 358.918 374.238C359.257 374.238 359.536 374.284 359.758 374.375L359.748 376.602ZM360.451 379.619C360.451 378.584 360.656 377.653 361.066 376.826C361.477 375.993 362.053 375.355 362.795 374.912C363.537 374.463 364.39 374.238 365.354 374.238C366.779 374.238 367.935 374.697 368.82 375.615C369.712 376.533 370.194 377.751 370.266 379.268L370.275 379.824C370.275 380.866 370.074 381.797 369.67 382.617C369.273 383.438 368.7 384.072 367.951 384.521C367.209 384.971 366.35 385.195 365.373 385.195C363.882 385.195 362.688 384.701 361.789 383.711C360.897 382.715 360.451 381.39 360.451 379.736V379.619ZM362.824 379.824C362.824 380.911 363.049 381.764 363.498 382.383C363.947 382.995 364.572 383.301 365.373 383.301C366.174 383.301 366.796 382.988 367.238 382.363C367.688 381.738 367.912 380.824 367.912 379.619C367.912 378.551 367.681 377.705 367.219 377.08C366.763 376.455 366.141 376.143 365.354 376.143C364.579 376.143 363.964 376.452 363.508 377.07C363.052 377.682 362.824 378.6 362.824 379.824ZM378.596 385C378.492 384.798 378.4 384.469 378.322 384.014C377.567 384.801 376.643 385.195 375.549 385.195C374.488 385.195 373.622 384.893 372.951 384.287C372.281 383.682 371.945 382.933 371.945 382.041C371.945 380.915 372.362 380.052 373.195 379.453C374.035 378.848 375.233 378.545 376.789 378.545H378.244V377.852C378.244 377.305 378.091 376.868 377.785 376.543C377.479 376.211 377.014 376.045 376.389 376.045C375.848 376.045 375.406 376.182 375.061 376.455C374.715 376.722 374.543 377.064 374.543 377.48H372.17C372.17 376.901 372.362 376.361 372.746 375.859C373.13 375.352 373.651 374.954 374.309 374.668C374.973 374.382 375.712 374.238 376.525 374.238C377.762 374.238 378.749 374.551 379.484 375.176C380.22 375.794 380.598 376.667 380.617 377.793V382.559C380.617 383.509 380.751 384.268 381.018 384.834V385H378.596ZM375.988 383.291C376.457 383.291 376.896 383.177 377.307 382.949C377.723 382.721 378.036 382.415 378.244 382.031V380.039H376.965C376.086 380.039 375.425 380.192 374.982 380.498C374.54 380.804 374.318 381.237 374.318 381.797C374.318 382.253 374.468 382.617 374.768 382.891C375.074 383.158 375.48 383.291 375.988 383.291ZM382.658 379.639C382.658 378.011 383.036 376.706 383.791 375.723C384.546 374.733 385.559 374.238 386.828 374.238C387.948 374.238 388.853 374.629 389.543 375.41V370H391.916V385H389.768L389.65 383.906C388.941 384.766 387.993 385.195 386.809 385.195C385.572 385.195 384.569 384.697 383.801 383.701C383.039 382.705 382.658 381.351 382.658 379.639ZM385.031 379.844C385.031 380.918 385.236 381.758 385.646 382.363C386.063 382.962 386.652 383.262 387.414 383.262C388.384 383.262 389.094 382.829 389.543 381.963V377.451C389.107 376.605 388.404 376.182 387.434 376.182C386.665 376.182 386.073 376.488 385.656 377.1C385.24 377.705 385.031 378.62 385.031 379.844ZM402.346 371.865V374.434H404.211V376.191H402.346V382.09C402.346 382.493 402.424 382.786 402.58 382.969C402.743 383.145 403.029 383.232 403.439 383.232C403.713 383.232 403.99 383.2 404.27 383.135V384.971C403.729 385.12 403.208 385.195 402.707 385.195C400.884 385.195 399.973 384.189 399.973 382.178V376.191H398.234V374.434H399.973V371.865H402.346ZM411.564 376.602C411.252 376.549 410.93 376.523 410.598 376.523C409.51 376.523 408.778 376.94 408.4 377.773V385H406.027V374.434H408.293L408.352 375.615C408.924 374.697 409.719 374.238 410.734 374.238C411.073 374.238 411.353 374.284 411.574 374.375L411.564 376.602ZM419.084 385C418.98 384.798 418.889 384.469 418.811 384.014C418.055 384.801 417.131 385.195 416.037 385.195C414.976 385.195 414.11 384.893 413.439 384.287C412.769 383.682 412.434 382.933 412.434 382.041C412.434 380.915 412.85 380.052 413.684 379.453C414.523 378.848 415.721 378.545 417.277 378.545H418.732V377.852C418.732 377.305 418.579 376.868 418.273 376.543C417.967 376.211 417.502 376.045 416.877 376.045C416.337 376.045 415.894 376.182 415.549 376.455C415.204 376.722 415.031 377.064 415.031 377.48H412.658C412.658 376.901 412.85 376.361 413.234 375.859C413.618 375.352 414.139 374.954 414.797 374.668C415.461 374.382 416.2 374.238 417.014 374.238C418.251 374.238 419.237 374.551 419.973 375.176C420.708 375.794 421.086 376.667 421.105 377.793V382.559C421.105 383.509 421.239 384.268 421.506 384.834V385H419.084ZM416.477 383.291C416.945 383.291 417.385 383.177 417.795 382.949C418.212 382.721 418.524 382.415 418.732 382.031V380.039H417.453C416.574 380.039 415.913 380.192 415.471 380.498C415.028 380.804 414.807 381.237 414.807 381.797C414.807 382.253 414.956 382.617 415.256 382.891C415.562 383.158 415.969 383.291 416.477 383.291ZM425.793 374.434L425.861 375.654C426.643 374.71 427.668 374.238 428.938 374.238C431.138 374.238 432.258 375.498 432.297 378.018V385H429.924V378.154C429.924 377.484 429.777 376.989 429.484 376.67C429.198 376.344 428.726 376.182 428.068 376.182C427.111 376.182 426.398 376.615 425.93 377.48V385H423.557V374.434H425.793ZM440.646 382.129C440.646 381.706 440.471 381.383 440.119 381.162C439.774 380.941 439.198 380.745 438.391 380.576C437.583 380.407 436.91 380.192 436.369 379.932C435.184 379.359 434.592 378.529 434.592 377.441C434.592 376.53 434.976 375.768 435.744 375.156C436.512 374.544 437.489 374.238 438.674 374.238C439.937 374.238 440.956 374.551 441.73 375.176C442.512 375.801 442.902 376.611 442.902 377.607H440.529C440.529 377.152 440.36 376.774 440.021 376.475C439.683 376.169 439.234 376.016 438.674 376.016C438.153 376.016 437.727 376.136 437.395 376.377C437.069 376.618 436.906 376.94 436.906 377.344C436.906 377.708 437.059 377.992 437.365 378.193C437.671 378.395 438.29 378.6 439.221 378.809C440.152 379.01 440.881 379.255 441.408 379.541C441.942 379.821 442.336 380.16 442.59 380.557C442.85 380.954 442.98 381.436 442.98 382.002C442.98 382.952 442.587 383.724 441.799 384.316C441.011 384.902 439.979 385.195 438.703 385.195C437.837 385.195 437.066 385.039 436.389 384.727C435.712 384.414 435.184 383.984 434.807 383.438C434.429 382.891 434.24 382.301 434.24 381.67H436.545C436.577 382.23 436.789 382.663 437.18 382.969C437.57 383.268 438.088 383.418 438.732 383.418C439.357 383.418 439.833 383.301 440.158 383.066C440.484 382.826 440.646 382.513 440.646 382.129ZM454.309 379.824C454.309 381.458 453.938 382.764 453.195 383.74C452.453 384.71 451.457 385.195 450.207 385.195C449.048 385.195 448.12 384.814 447.424 384.053V389.062H445.051V374.434H447.238L447.336 375.508C448.033 374.661 448.98 374.238 450.178 374.238C451.467 374.238 452.476 374.72 453.205 375.684C453.941 376.641 454.309 377.972 454.309 379.678V379.824ZM451.945 379.619C451.945 378.564 451.734 377.728 451.311 377.109C450.894 376.491 450.295 376.182 449.514 376.182C448.544 376.182 447.847 376.582 447.424 377.383V382.07C447.854 382.891 448.557 383.301 449.533 383.301C450.288 383.301 450.878 382.998 451.301 382.393C451.73 381.781 451.945 380.856 451.945 379.619ZM455.881 379.619C455.881 378.584 456.086 377.653 456.496 376.826C456.906 375.993 457.482 375.355 458.225 374.912C458.967 374.463 459.82 374.238 460.783 374.238C462.209 374.238 463.365 374.697 464.25 375.615C465.142 376.533 465.624 377.751 465.695 379.268L465.705 379.824C465.705 380.866 465.503 381.797 465.1 382.617C464.702 383.438 464.13 384.072 463.381 384.521C462.639 384.971 461.779 385.195 460.803 385.195C459.312 385.195 458.117 384.701 457.219 383.711C456.327 382.715 455.881 381.39 455.881 379.736V379.619ZM458.254 379.824C458.254 380.911 458.479 381.764 458.928 382.383C459.377 382.995 460.002 383.301 460.803 383.301C461.604 383.301 462.225 382.988 462.668 382.363C463.117 381.738 463.342 380.824 463.342 379.619C463.342 378.551 463.111 377.705 462.648 377.08C462.193 376.455 461.571 376.143 460.783 376.143C460.008 376.143 459.393 376.452 458.938 377.07C458.482 377.682 458.254 378.6 458.254 379.824ZM473.244 376.602C472.932 376.549 472.609 376.523 472.277 376.523C471.19 376.523 470.458 376.94 470.08 377.773V385H467.707V374.434H469.973L470.031 375.615C470.604 374.697 471.398 374.238 472.414 374.238C472.753 374.238 473.033 374.284 473.254 374.375L473.244 376.602ZM478.205 371.865V374.434H480.07V376.191H478.205V382.09C478.205 382.493 478.283 382.786 478.439 382.969C478.602 383.145 478.889 383.232 479.299 383.232C479.572 383.232 479.849 383.2 480.129 383.135V384.971C479.589 385.12 479.068 385.195 478.566 385.195C476.743 385.195 475.832 384.189 475.832 382.178V376.191H474.094V374.434H475.832V371.865H478.205ZM482.229 388.203L480.949 387.441C481.327 386.849 481.584 386.331 481.721 385.889C481.864 385.452 481.939 385.007 481.945 384.551V382.705H484.084L484.074 384.414C484.068 385.104 483.892 385.794 483.547 386.484C483.208 387.181 482.769 387.754 482.229 388.203ZM353.771 402.639C353.771 401.011 354.149 399.706 354.904 398.723C355.66 397.733 356.672 397.238 357.941 397.238C359.061 397.238 359.966 397.629 360.656 398.41V393H363.029V408H360.881L360.764 406.906C360.054 407.766 359.107 408.195 357.922 408.195C356.685 408.195 355.682 407.697 354.914 406.701C354.152 405.705 353.771 404.351 353.771 402.639ZM356.145 402.844C356.145 403.918 356.35 404.758 356.76 405.363C357.176 405.962 357.766 406.262 358.527 406.262C359.497 406.262 360.207 405.829 360.656 404.963V400.451C360.22 399.605 359.517 399.182 358.547 399.182C357.779 399.182 357.186 399.488 356.77 400.1C356.353 400.705 356.145 401.62 356.145 402.844ZM370.158 408.195C368.654 408.195 367.434 407.723 366.496 406.779C365.565 405.829 365.1 404.566 365.1 402.99V402.697C365.1 401.643 365.301 400.702 365.705 399.875C366.115 399.042 366.688 398.394 367.424 397.932C368.16 397.469 368.98 397.238 369.885 397.238C371.324 397.238 372.434 397.697 373.215 398.615C374.003 399.533 374.396 400.832 374.396 402.512V403.469H367.492C367.564 404.341 367.854 405.031 368.361 405.539C368.876 406.047 369.52 406.301 370.295 406.301C371.382 406.301 372.268 405.861 372.951 404.982L374.23 406.203C373.807 406.835 373.241 407.326 372.531 407.678C371.828 408.023 371.037 408.195 370.158 408.195ZM369.875 399.143C369.224 399.143 368.697 399.37 368.293 399.826C367.896 400.282 367.642 400.917 367.531 401.73H372.053V401.555C372.001 400.76 371.789 400.161 371.418 399.758C371.047 399.348 370.533 399.143 369.875 399.143ZM377.082 408V399.191H375.471V397.434H377.082V396.467C377.082 395.295 377.408 394.39 378.059 393.752C378.71 393.114 379.621 392.795 380.793 392.795C381.21 392.795 381.652 392.854 382.121 392.971L382.062 394.826C381.802 394.774 381.499 394.748 381.154 394.748C380.021 394.748 379.455 395.331 379.455 396.496V397.434H381.604V399.191H379.455V408H377.082ZM382.893 402.619C382.893 401.584 383.098 400.653 383.508 399.826C383.918 398.993 384.494 398.355 385.236 397.912C385.979 397.463 386.831 397.238 387.795 397.238C389.221 397.238 390.376 397.697 391.262 398.615C392.154 399.533 392.635 400.751 392.707 402.268L392.717 402.824C392.717 403.866 392.515 404.797 392.111 405.617C391.714 406.438 391.141 407.072 390.393 407.521C389.65 407.971 388.791 408.195 387.814 408.195C386.324 408.195 385.129 407.701 384.23 406.711C383.339 405.715 382.893 404.39 382.893 402.736V402.619ZM385.266 402.824C385.266 403.911 385.49 404.764 385.939 405.383C386.389 405.995 387.014 406.301 387.814 406.301C388.615 406.301 389.237 405.988 389.68 405.363C390.129 404.738 390.354 403.824 390.354 402.619C390.354 401.551 390.122 400.705 389.66 400.08C389.204 399.455 388.583 399.143 387.795 399.143C387.02 399.143 386.405 399.452 385.949 400.07C385.493 400.682 385.266 401.6 385.266 402.824ZM400.256 399.602C399.943 399.549 399.621 399.523 399.289 399.523C398.202 399.523 397.469 399.94 397.092 400.773V408H394.719V397.434H396.984L397.043 398.615C397.616 397.697 398.41 397.238 399.426 397.238C399.764 397.238 400.044 397.284 400.266 397.375L400.256 399.602ZM406.213 408.195C404.709 408.195 403.488 407.723 402.551 406.779C401.62 405.829 401.154 404.566 401.154 402.99V402.697C401.154 401.643 401.356 400.702 401.76 399.875C402.17 399.042 402.743 398.394 403.479 397.932C404.214 397.469 405.035 397.238 405.939 397.238C407.378 397.238 408.488 397.697 409.27 398.615C410.057 399.533 410.451 400.832 410.451 402.512V403.469H403.547C403.618 404.341 403.908 405.031 404.416 405.539C404.93 406.047 405.575 406.301 406.35 406.301C407.437 406.301 408.322 405.861 409.006 404.982L410.285 406.203C409.862 406.835 409.296 407.326 408.586 407.678C407.883 408.023 407.092 408.195 406.213 408.195ZM405.93 399.143C405.279 399.143 404.751 399.37 404.348 399.826C403.951 400.282 403.697 400.917 403.586 401.73H408.107V401.555C408.055 400.76 407.844 400.161 407.473 399.758C407.102 399.348 406.587 399.143 405.93 399.143ZM418.225 405.129C418.225 404.706 418.049 404.383 417.697 404.162C417.352 403.941 416.776 403.745 415.969 403.576C415.161 403.407 414.488 403.192 413.947 402.932C412.762 402.359 412.17 401.529 412.17 400.441C412.17 399.53 412.554 398.768 413.322 398.156C414.09 397.544 415.067 397.238 416.252 397.238C417.515 397.238 418.534 397.551 419.309 398.176C420.09 398.801 420.48 399.611 420.48 400.607H418.107C418.107 400.152 417.938 399.774 417.6 399.475C417.261 399.169 416.812 399.016 416.252 399.016C415.731 399.016 415.305 399.136 414.973 399.377C414.647 399.618 414.484 399.94 414.484 400.344C414.484 400.708 414.637 400.992 414.943 401.193C415.249 401.395 415.868 401.6 416.799 401.809C417.73 402.01 418.459 402.255 418.986 402.541C419.52 402.821 419.914 403.16 420.168 403.557C420.428 403.954 420.559 404.436 420.559 405.002C420.559 405.952 420.165 406.724 419.377 407.316C418.589 407.902 417.557 408.195 416.281 408.195C415.415 408.195 414.644 408.039 413.967 407.727C413.29 407.414 412.762 406.984 412.385 406.438C412.007 405.891 411.818 405.301 411.818 404.67H414.123C414.156 405.23 414.367 405.663 414.758 405.969C415.148 406.268 415.666 406.418 416.311 406.418C416.936 406.418 417.411 406.301 417.736 406.066C418.062 405.826 418.225 405.513 418.225 405.129ZM425.607 394.865V397.434H427.473V399.191H425.607V405.09C425.607 405.493 425.686 405.786 425.842 405.969C426.005 406.145 426.291 406.232 426.701 406.232C426.975 406.232 427.251 406.2 427.531 406.135V407.971C426.991 408.12 426.47 408.195 425.969 408.195C424.146 408.195 423.234 407.189 423.234 405.178V399.191H421.496V397.434H423.234V394.865H425.607ZM435.607 408C435.503 407.798 435.412 407.469 435.334 407.014C434.579 407.801 433.654 408.195 432.561 408.195C431.499 408.195 430.633 407.893 429.963 407.287C429.292 406.682 428.957 405.933 428.957 405.041C428.957 403.915 429.374 403.052 430.207 402.453C431.047 401.848 432.245 401.545 433.801 401.545H435.256V400.852C435.256 400.305 435.103 399.868 434.797 399.543C434.491 399.211 434.025 399.045 433.4 399.045C432.86 399.045 432.417 399.182 432.072 399.455C431.727 399.722 431.555 400.064 431.555 400.48H429.182C429.182 399.901 429.374 399.361 429.758 398.859C430.142 398.352 430.663 397.954 431.32 397.668C431.984 397.382 432.723 397.238 433.537 397.238C434.774 397.238 435.76 397.551 436.496 398.176C437.232 398.794 437.609 399.667 437.629 400.793V405.559C437.629 406.509 437.762 407.268 438.029 407.834V408H435.607ZM433 406.291C433.469 406.291 433.908 406.177 434.318 405.949C434.735 405.721 435.048 405.415 435.256 405.031V403.039H433.977C433.098 403.039 432.437 403.192 431.994 403.498C431.551 403.804 431.33 404.237 431.33 404.797C431.33 405.253 431.48 405.617 431.779 405.891C432.085 406.158 432.492 406.291 433 406.291ZM443.088 394.865V397.434H444.953V399.191H443.088V405.09C443.088 405.493 443.166 405.786 443.322 405.969C443.485 406.145 443.771 406.232 444.182 406.232C444.455 406.232 444.732 406.2 445.012 406.135V407.971C444.471 408.12 443.951 408.195 443.449 408.195C441.626 408.195 440.715 407.189 440.715 405.178V399.191H438.977V397.434H440.715V394.865H443.088ZM449.299 408H446.926V397.434H449.299V408ZM446.779 394.689C446.779 394.325 446.893 394.022 447.121 393.781C447.355 393.54 447.688 393.42 448.117 393.42C448.547 393.42 448.879 393.54 449.113 393.781C449.348 394.022 449.465 394.325 449.465 394.689C449.465 395.048 449.348 395.347 449.113 395.588C448.879 395.822 448.547 395.939 448.117 395.939C447.688 395.939 447.355 395.822 447.121 395.588C446.893 395.347 446.779 395.048 446.779 394.689ZM451.447 402.619C451.447 401.584 451.652 400.653 452.062 399.826C452.473 398.993 453.049 398.355 453.791 397.912C454.533 397.463 455.386 397.238 456.35 397.238C457.775 397.238 458.931 397.697 459.816 398.615C460.708 399.533 461.19 400.751 461.262 402.268L461.271 402.824C461.271 403.866 461.07 404.797 460.666 405.617C460.269 406.438 459.696 407.072 458.947 407.521C458.205 407.971 457.346 408.195 456.369 408.195C454.878 408.195 453.684 407.701 452.785 406.711C451.893 405.715 451.447 404.39 451.447 402.736V402.619ZM453.82 402.824C453.82 403.911 454.045 404.764 454.494 405.383C454.943 405.995 455.568 406.301 456.369 406.301C457.17 406.301 457.792 405.988 458.234 405.363C458.684 404.738 458.908 403.824 458.908 402.619C458.908 401.551 458.677 400.705 458.215 400.08C457.759 399.455 457.137 399.143 456.35 399.143C455.575 399.143 454.96 399.452 454.504 400.07C454.048 400.682 453.82 401.6 453.82 402.824ZM465.48 397.434L465.549 398.654C466.33 397.71 467.355 397.238 468.625 397.238C470.826 397.238 471.945 398.498 471.984 401.018V408H469.611V401.154C469.611 400.484 469.465 399.989 469.172 399.67C468.885 399.344 468.413 399.182 467.756 399.182C466.799 399.182 466.086 399.615 465.617 400.48V408H463.244V397.434H465.48Z" fill="#00C7A5"/>
<path d="M407 588V620" stroke="black" stroke-width="3"/>
<path d="M214 641V673" stroke="black" stroke-width="3"/>
<path d="M214 588V620" stroke="black" stroke-width="3"/>
<path d="M407 641V673" stroke="black" stroke-width="3"/>
<line x1="159.889" y1="568.583" x2="159.889" y2="531.583" stroke="#00C7A5" stroke-width="3"/>
<line x1="166.889" y1="568.583" x2="166.889" y2="531.583" stroke="#00C7A5" stroke-width="3"/>
<path d="M148.917 503.581C151.078 503.564 156.488 504.603 159.233 510.524" stroke="#00C7A5" stroke-width="3"/>
<path d="M273 626.5H271.5V628V671V672.5H273H277.389H278.013L278.453 672.057L282.402 668.085H294.32L298.27 672.057L298.709 672.5H299.333H323.472H324.096L324.536 672.057L328.485 668.085H340.404L344.353 672.057L344.793 672.5H345.417H352H353.5V671V654.443V653.143L352.213 652.958L330.047 649.773L321.583 627.468L321.216 626.5H320.181H273Z" fill="white" stroke="#00C7A5" stroke-width="3"/>
<path d="M299 677C299 683.075 294.075 688 288 688C281.925 688 277 683.075 277 677" stroke="#00C7A5" stroke-width="3"/>
<path d="M346 677C346 683.075 340.851 688 334.5 688C328.149 688 323 683.075 323 677" stroke="#00C7A5" stroke-width="3"/>
<path d="M325.676 638H306L306 650H334" stroke="#00C7A5" stroke-width="3"/>
<rect x="282" y="638" width="12" height="12" fill="white" stroke="#00C7A5" stroke-width="3"/>
<rect x="264.5" y="646.5" width="5" height="15" fill="white" stroke="#00C7A5" stroke-width="3"/>
<path d="M330.622 502.455H366.5V566.972H250.5V502.455H279.513H281.013V500.955V482.662L304.492 502.11L306.949 504.145V500.955V482.724L329.648 502.096L330.069 502.455H330.622Z" stroke="#00C7A5" stroke-width="3"/>
<rect x="331.5" y="531.972" width="20" height="35" stroke="#00C7A5" stroke-width="3"/>
<path d="M250.5 492.889L254.99 433.972H267.508L270.5 492.87V566.972H250.5V492.889Z" fill="white" stroke="#00C7A5" stroke-width="3"/>
<line x1="252" y1="488.972" x2="269" y2="488.972" stroke="#00C7A5" stroke-width="3"/>
<line x1="251" y1="517.972" x2="270" y2="517.972" stroke="#00C7A5" stroke-width="3"/>
<line x1="251" y1="527.972" x2="270" y2="527.972" stroke="#00C7A5" stroke-width="3"/>
<line x1="251" y1="536.972" x2="270" y2="536.972" stroke="#00C7A5" stroke-width="3"/>
<mask id="path-35-inside-1" fill="white">
<path fill-rule="evenodd" clip-rule="evenodd" d="M236.783 384C236.783 381.239 239.021 379 241.783 379H270.593C273.354 379 275.593 381.239 275.593 384V386.222C275.593 388.984 277.832 391.222 280.593 391.222H285.278C288.039 391.222 290.278 393.461 290.278 396.222V401.5C290.278 404.261 288.039 406.5 285.278 406.5H275.417C272.655 406.5 270.417 408.739 270.417 411.5V418.305C270.417 421.067 268.178 423.305 265.417 423.305H255.512C253.618 423.305 252.083 421.77 252.083 419.877V419.877C252.083 417.983 250.548 416.448 248.655 416.448H236.538C233.777 416.448 231.538 414.21 231.538 411.448V408.444C231.538 405.683 229.3 403.444 226.538 403.444H225C222.239 403.444 220 401.206 220 398.444V394.694C220 391.933 222.239 389.694 225 389.694H231.783C234.544 389.694 236.783 387.456 236.783 384.694V384Z"/>
</mask>
<path d="M270.593 376H241.783V382H270.593V376ZM278.593 386.222V384H272.593V386.222H278.593ZM285.278 388.222H280.593V394.222H285.278V388.222ZM293.278 401.5V396.222H287.278V401.5H293.278ZM275.417 409.5H285.278V403.5H275.417V409.5ZM267.417 411.5V418.305H273.417V411.5H267.417ZM265.417 420.305H255.512V426.305H265.417V420.305ZM236.538 419.448H248.655V413.448H236.538V419.448ZM228.538 408.444V411.448H234.538V408.444H228.538ZM225 406.444H226.538V400.444H225V406.444ZM217 394.694V398.444H223V394.694H217ZM231.783 386.694H225V392.694H231.783V386.694ZM233.783 384V384.694H239.783V384H233.783ZM231.783 392.694C236.201 392.694 239.783 389.113 239.783 384.694H233.783C233.783 385.799 232.887 386.694 231.783 386.694V392.694ZM223 394.694C223 393.59 223.895 392.694 225 392.694V386.694C220.582 386.694 217 390.276 217 394.694H223ZM225 400.444C223.895 400.444 223 399.549 223 398.444H217C217 402.863 220.582 406.444 225 406.444V400.444ZM234.538 408.444C234.538 404.026 230.956 400.444 226.538 400.444V406.444C227.643 406.444 228.538 407.34 228.538 408.444H234.538ZM236.538 413.448C235.434 413.448 234.538 412.553 234.538 411.448H228.538C228.538 415.867 232.12 419.448 236.538 419.448V413.448ZM255.083 419.877C255.083 416.327 252.205 413.448 248.655 413.448V419.448C248.891 419.448 249.083 419.64 249.083 419.877H255.083ZM255.512 420.305C255.275 420.305 255.083 420.114 255.083 419.877H249.083C249.083 423.427 251.962 426.305 255.512 426.305V420.305ZM267.417 418.305C267.417 419.41 266.521 420.305 265.417 420.305V426.305C269.835 426.305 273.417 422.724 273.417 418.305H267.417ZM275.417 403.5C270.998 403.5 267.417 407.082 267.417 411.5H273.417C273.417 410.395 274.312 409.5 275.417 409.5V403.5ZM287.278 401.5C287.278 402.605 286.382 403.5 285.278 403.5V409.5C289.696 409.5 293.278 405.918 293.278 401.5H287.278ZM285.278 394.222C286.382 394.222 287.278 395.118 287.278 396.222H293.278C293.278 391.804 289.696 388.222 285.278 388.222V394.222ZM272.593 386.222C272.593 390.64 276.175 394.222 280.593 394.222V388.222C279.488 388.222 278.593 387.327 278.593 386.222H272.593ZM241.783 376C237.365 376 233.783 379.582 233.783 384H239.783C239.783 382.895 240.678 382 241.783 382V376ZM270.593 382C271.697 382 272.593 382.895 272.593 384H278.593C278.593 379.582 275.011 376 270.593 376V382Z" fill="#00C7A5" mask="url(#path-35-inside-1)"/>
<mask id="path-37-inside-2" fill="white">
<path fill-rule="evenodd" clip-rule="evenodd" d="M878.495 434.702C878.495 435.971 877.466 437 876.197 437L841.982 437C840.714 437 839.685 435.971 839.685 434.702V434.702L839.685 429.862C839.685 427.101 837.446 424.862 834.685 424.862L830 424.862C827.239 424.862 825 422.624 825 419.862L825 414.69C825 411.928 827.239 409.69 830 409.69L839.861 409.69C842.623 409.69 844.861 407.451 844.861 404.69L844.861 398C844.861 395.239 847.1 393 849.861 393L859.79 393C861.67 393 863.194 394.524 863.194 396.405V396.405C863.194 398.285 864.719 399.81 866.599 399.81L878.74 399.81C881.501 399.81 883.74 402.048 883.74 404.81L883.74 407.724C883.74 410.486 885.978 412.724 888.74 412.724L890.278 412.724C893.039 412.724 895.278 414.963 895.278 417.724L895.278 421.379C895.278 424.141 893.039 426.379 890.278 426.379L883.495 426.379C880.734 426.379 878.495 428.618 878.495 431.379L878.495 434.702V434.702ZM863.194 418.405C863.194 418.405 863.194 418.405 863.194 418.405L863.194 418.405C863.194 418.405 863.194 418.405 863.194 418.405V418.405C863.194 418.405 863.195 418.405 863.195 418.405L863.195 418.405C863.195 418.405 863.194 418.405 863.194 418.405V418.405Z"/>
</mask>
<path d="M890.278 426.379L890.278 429.379L890.278 426.379ZM844.861 398L847.861 398L844.861 398ZM839.861 409.69L839.861 406.69L839.861 409.69ZM830 424.862L830 421.862L830 424.862ZM883.74 407.724L886.74 407.724L883.74 407.724ZM841.982 440L876.197 440L876.197 434L841.982 434L841.982 440ZM836.685 429.862L836.685 434.702L842.685 434.702L842.685 429.862L836.685 429.862ZM830 427.862L834.685 427.862L834.685 421.862L830 421.862L830 427.862ZM822 414.69L822 419.862L828 419.862L828 414.69L822 414.69ZM839.861 406.69L830 406.69L830 412.69L839.861 412.69L839.861 406.69ZM847.861 404.69L847.861 398L841.861 398L841.861 404.69L847.861 404.69ZM849.861 396L859.79 396L859.79 390L849.861 390L849.861 396ZM878.74 396.81L866.599 396.81L866.599 402.81L878.74 402.81L878.74 396.81ZM886.74 407.724L886.74 404.81L880.74 404.81L880.74 407.724L886.74 407.724ZM890.278 409.724L888.74 409.724L888.74 415.724L890.278 415.724L890.278 409.724ZM898.278 421.379L898.278 417.724L892.278 417.724L892.278 421.379L898.278 421.379ZM883.495 429.379L890.278 429.379L890.278 423.379L883.495 423.379L883.495 429.379ZM881.495 434.702L881.495 431.379L875.495 431.379L875.495 434.702L881.495 434.702ZM860.194 418.405L860.194 418.405L866.194 418.405L866.194 418.405L860.194 418.405ZM860.195 418.405L860.195 418.405L866.195 418.405L866.195 418.405L860.195 418.405ZM866.195 418.405C866.195 416.748 864.851 415.405 863.194 415.405L863.194 421.405C861.538 421.405 860.195 420.062 860.195 418.405L866.195 418.405ZM863.194 421.405C864.851 421.405 866.195 420.062 866.195 418.405L860.195 418.405C860.195 416.748 861.538 415.405 863.194 415.405L863.194 421.405ZM860.194 418.405C860.194 420.062 861.538 421.405 863.194 421.405L863.194 415.405C864.851 415.405 866.194 416.748 866.194 418.405L860.194 418.405ZM866.194 418.405C866.194 420.062 864.851 421.405 863.194 421.405L863.194 415.405C861.538 415.405 860.194 416.748 860.194 418.405L866.194 418.405ZM883.495 423.379C879.077 423.379 875.495 426.961 875.495 431.379L881.495 431.379C881.495 430.275 882.39 429.379 883.495 429.379L883.495 423.379ZM892.278 421.379C892.278 422.484 891.382 423.379 890.278 423.379L890.278 429.379C894.696 429.379 898.278 425.798 898.278 421.379L892.278 421.379ZM890.278 415.724C891.382 415.724 892.278 416.62 892.278 417.724L898.278 417.724C898.278 413.306 894.696 409.724 890.278 409.724L890.278 415.724ZM878.74 402.81C879.844 402.81 880.74 403.705 880.74 404.81L886.74 404.81C886.74 400.391 883.158 396.81 878.74 396.81L878.74 402.81ZM860.194 396.405C860.194 399.942 863.062 402.81 866.599 402.81L866.599 396.81C866.376 396.81 866.194 396.628 866.194 396.405L860.194 396.405ZM859.79 396C860.013 396 860.194 396.181 860.194 396.405L866.194 396.405C866.194 392.868 863.327 390 859.79 390L859.79 396ZM847.861 398C847.861 396.896 848.757 396 849.861 396L849.861 390C845.443 390 841.861 393.582 841.861 398L847.861 398ZM839.861 412.69C844.279 412.69 847.861 409.108 847.861 404.69L841.861 404.69C841.861 405.794 840.966 406.69 839.861 406.69L839.861 412.69ZM830 421.862C828.895 421.862 828 420.967 828 419.862L822 419.862C822 424.281 825.582 427.862 830 427.862L830 421.862ZM842.685 429.862C842.685 425.444 839.103 421.862 834.685 421.862L834.685 427.862C835.789 427.862 836.685 428.758 836.685 429.862L842.685 429.862ZM876.197 440C879.123 440 881.495 437.628 881.495 434.702L875.495 434.702C875.495 434.314 875.809 434 876.197 434L876.197 440ZM828 414.69C828 413.585 828.895 412.69 830 412.69L830 406.69C825.582 406.69 822 410.272 822 414.69L828 414.69ZM880.74 407.724C880.74 412.142 884.321 415.724 888.74 415.724L888.74 409.724C887.635 409.724 886.74 408.829 886.74 407.724L880.74 407.724ZM841.982 434C842.37 434 842.685 434.314 842.685 434.702L836.685 434.702C836.685 437.628 839.057 440 841.982 440L841.982 434Z" fill="black" mask="url(#path-37-inside-2)"/>
<mask id="path-39-inside-3" fill="white">
<path fill-rule="evenodd" clip-rule="evenodd" d="M152.736 473.861C156.167 473.861 159.368 474.845 162.073 476.545C167.753 478.72 172.016 483.759 173.095 489.895C175.653 488.442 178.611 487.611 181.764 487.611C189.859 487.611 196.676 493.086 198.713 500.536C201.017 503.508 202.389 507.24 202.389 511.292C202.389 520.995 194.523 528.861 184.819 528.861C182.8 528.861 180.86 528.52 179.054 527.893C175.851 532.19 170.73 534.972 164.958 534.972C159.491 534.972 154.607 532.475 151.385 528.559C149.031 529.73 146.377 530.389 143.569 530.389C133.866 530.389 126 522.523 126 512.819C126 505.808 130.107 499.756 136.047 496.937C135.476 495.205 135.167 493.354 135.167 491.431C135.167 481.727 143.033 473.861 152.736 473.861Z"/>
</mask>
<path d="M162.073 476.545L160.476 479.085L160.725 479.241L161 479.346L162.073 476.545ZM173.095 489.895L170.14 490.415L170.877 494.607L174.577 492.504L173.095 489.895ZM198.713 500.536L195.819 501.327L195.976 501.902L196.342 502.374L198.713 500.536ZM179.054 527.893L180.038 525.059L177.962 524.338L176.648 526.1L179.054 527.893ZM151.385 528.559L153.701 526.653L152.185 524.81L150.049 525.873L151.385 528.559ZM136.047 496.937L137.333 499.648L139.725 498.513L138.896 495.998L136.047 496.937ZM163.669 474.005C160.5 472.013 156.748 470.861 152.736 470.861V476.861C155.586 476.861 158.236 477.676 160.476 479.085L163.669 474.005ZM176.05 489.376C174.785 482.183 169.794 476.289 163.145 473.743L161 479.346C165.712 481.151 169.247 485.335 170.14 490.415L176.05 489.376ZM181.764 484.611C178.078 484.611 174.611 485.583 171.613 487.287L174.577 492.504C176.695 491.3 179.145 490.611 181.764 490.611V484.611ZM201.607 499.744C199.222 491.024 191.246 484.611 181.764 484.611V490.611C188.473 490.611 194.13 495.148 195.819 501.327L201.607 499.744ZM205.389 511.292C205.389 506.551 203.781 502.177 201.084 498.697L196.342 502.374C198.253 504.839 199.389 507.928 199.389 511.292H205.389ZM184.819 531.861C196.18 531.861 205.389 522.652 205.389 511.292H199.389C199.389 519.338 192.866 525.861 184.819 525.861V531.861ZM178.07 530.727C180.188 531.463 182.46 531.861 184.819 531.861V525.861C183.139 525.861 181.532 525.578 180.038 525.059L178.07 530.727ZM176.648 526.1C173.987 529.67 169.742 531.972 164.958 531.972V537.972C171.717 537.972 177.714 534.71 181.459 529.686L176.648 526.1ZM164.958 531.972C160.426 531.972 156.378 529.906 153.701 526.653L149.068 530.465C152.836 535.044 158.557 537.972 164.958 537.972V531.972ZM143.569 533.389C146.851 533.389 149.961 532.618 152.721 531.245L150.049 525.873C148.1 526.842 145.903 527.389 143.569 527.389V533.389ZM123 512.819C123 524.18 132.209 533.389 143.569 533.389V527.389C135.523 527.389 129 520.866 129 512.819H123ZM134.761 494.227C127.814 497.523 123 504.606 123 512.819H129C129 507.01 132.4 501.988 137.333 499.648L134.761 494.227ZM132.167 491.431C132.167 493.677 132.528 495.845 133.198 497.877L138.896 495.998C138.424 494.565 138.167 493.031 138.167 491.431H132.167ZM152.736 470.861C141.376 470.861 132.167 480.071 132.167 491.431H138.167C138.167 483.384 144.69 476.861 152.736 476.861V470.861Z" fill="#00C7A5" mask="url(#path-39-inside-3)"/>
<path d="M193.93 458.098L195.429 458.031C195.403 457.446 195.038 456.929 194.495 456.708C193.952 456.488 193.33 456.604 192.903 457.006L193.93 458.098ZM200.163 473.299L201.434 472.503L200.163 473.299ZM179.336 468.189L180.782 467.79C180.651 467.317 180.297 466.938 179.834 466.774C179.371 466.611 178.858 466.685 178.459 466.972L179.336 468.189ZM183.716 474.829L183.017 476.157C183.433 476.375 183.927 476.387 184.352 476.188C184.777 475.989 185.085 475.602 185.183 475.143L183.716 474.829ZM192.432 458.165C192.448 458.517 192.562 458.97 192.667 459.349C192.788 459.784 192.955 460.319 193.157 460.919C193.56 462.122 194.114 463.637 194.742 465.23C195.985 468.384 197.571 471.985 198.891 474.094L201.434 472.503C200.274 470.649 198.772 467.274 197.533 464.13C196.92 462.575 196.384 461.111 196.001 459.966C195.809 459.393 195.659 458.912 195.558 458.546C195.44 458.124 195.427 457.991 195.429 458.031L192.432 458.165ZM198.891 474.094C201.516 478.29 201.107 482.75 198.72 485.931C196.329 489.117 191.796 491.209 185.812 490.217L185.321 493.177C192.261 494.328 197.971 491.927 201.119 487.732C204.271 483.532 204.699 477.721 201.434 472.503L198.891 474.094ZM185.812 490.217C179.999 489.254 176.806 485.385 175.933 481.102C175.046 476.744 176.567 472.032 180.212 469.407L178.459 466.972C173.729 470.378 171.903 476.348 172.994 481.701C174.1 487.129 178.209 491.998 185.321 493.177L185.812 490.217ZM177.89 468.588C178.073 469.252 178.174 469.778 178.337 470.452C178.489 471.077 178.679 471.754 179.008 472.43C179.701 473.858 180.885 475.035 183.017 476.157L184.414 473.502C182.671 472.584 182.044 471.814 181.706 471.119C181.519 470.733 181.388 470.304 181.253 469.746C181.129 469.236 180.977 468.5 180.782 467.79L177.89 468.588ZM185.183 475.143C185.65 472.957 187.149 469.839 189.076 466.751C190.99 463.684 193.204 460.84 194.958 459.191L192.903 457.006C190.893 458.896 188.522 461.973 186.531 465.163C184.553 468.332 182.827 471.809 182.249 474.516L185.183 475.143Z" fill="#00C7A5"/>
<path d="M192.459 475.389C192.891 476.871 191.527 481.252 192.459 483.028C194.482 486.885 191.716 492.32 186.283 491.414C180.851 490.508 182.002 491.775 185.537 489.139C185.851 490.331 184.056 486.847 185.537 484.09C185.986 481.962 190.074 476.114 192.459 475.389Z" stroke="#00C7A5" stroke-width="3" stroke-linejoin="round"/>
<path d="M443.862 516.382C444.453 504.213 446.722 498.055 451.145 496.706C451.837 494.822 453.169 493.242 454.91 492.242C454.924 492.234 454.939 492.228 454.954 492.221L455.003 492.197C457.62 490.751 460.682 490.798 462.715 490.833C462.995 490.838 463.256 490.843 463.495 490.843C465.35 490.843 467.565 491.067 470.132 491.326C473.943 491.769 477.774 492.014 481.61 492.06C482.426 492.06 483.371 492.045 484.421 492.027L485.75 492.007C490.205 491.924 497.481 491.79 503.518 492.676C503.569 492.548 503.614 492.415 503.671 492.293C502.41 490.774 501.461 489.021 500.879 487.135C500.296 485.249 500.091 483.266 500.276 481.301C500.305 481.027 500.418 480.77 500.599 480.562C500.78 480.355 501.02 480.209 501.287 480.143C501.554 480.077 501.835 480.095 502.091 480.194C502.348 480.293 502.567 480.469 502.721 480.697C504.672 483.331 507.041 485.629 509.734 487.498C511.095 487.233 512.482 487.12 513.868 487.164H514.118C515.505 487.12 516.892 487.232 518.253 487.498C520.946 485.629 523.314 483.331 525.266 480.697C525.419 480.469 525.639 480.293 525.895 480.194C526.152 480.095 526.433 480.077 526.699 480.143C526.966 480.209 527.207 480.355 527.387 480.562C527.568 480.77 527.681 481.027 527.711 481.301C527.895 483.265 527.69 485.247 527.107 487.133C526.525 489.018 525.577 490.77 524.317 492.289C524.386 492.442 524.444 492.611 524.507 492.773C526.99 492.457 530.168 493.057 531.81 494.26C532.096 494.469 532.287 494.783 532.342 495.134C532.397 495.484 532.31 495.842 532.102 496.128C531.342 497.281 530.336 498.25 529.157 498.968C527.978 499.687 526.655 500.135 525.282 500.282C525.255 500.597 525.238 500.902 525.2 501.228C523.938 511.959 520.733 514.829 516.941 515.552C515.528 516.913 514.278 518.188 513.231 519.346C512.179 520.606 511.197 521.923 510.289 523.291C509.466 528.941 508.528 540.175 509.41 547.315C509.433 547.503 509.416 547.695 509.36 547.876C509.304 548.057 509.209 548.225 509.084 548.367C508.958 548.509 508.803 548.623 508.63 548.701C508.457 548.779 508.27 548.819 508.08 548.82H503.701C503.392 548.82 503.092 548.713 502.853 548.518C502.613 548.322 502.449 548.05 502.387 547.748C502.306 547.345 500.862 540.199 499.908 535.361C499.542 542.507 499.588 547.407 499.589 547.468C499.591 547.645 499.558 547.821 499.491 547.985C499.425 548.15 499.327 548.299 499.202 548.425C499.077 548.551 498.929 548.651 498.765 548.719C498.602 548.787 498.426 548.823 498.249 548.823H492.829C492.512 548.823 492.206 548.711 491.965 548.507C491.723 548.303 491.561 548.02 491.508 547.708C491.487 547.585 489.416 535.396 488.859 528.053C488.844 527.853 488.874 527.653 488.946 527.466C489.018 527.28 489.131 527.112 489.277 526.975C489.619 526.645 489.928 526.283 490.202 525.894C489.581 525.908 488.935 525.92 488.27 525.93C487.271 525.945 486.297 525.952 485.349 525.952H485.195C484.449 525.952 483.722 525.946 483.008 525.938C482.843 525.938 482.682 525.933 482.518 525.93C481.894 525.921 481.284 525.909 480.686 525.893C480.499 525.888 480.312 525.884 480.128 525.878C479.401 525.855 478.688 525.83 478.005 525.801C477.12 525.76 476.293 525.708 475.492 525.648C474.241 527.39 472.253 529.811 470.117 531.037L471.632 547.358C471.649 547.544 471.628 547.731 471.568 547.907C471.509 548.084 471.414 548.247 471.288 548.384C471.163 548.522 471.01 548.632 470.839 548.708C470.669 548.783 470.484 548.822 470.298 548.822H464.873C464.557 548.822 464.251 548.71 464.009 548.506C463.768 548.302 463.606 548.019 463.553 547.707C463.534 547.598 461.868 537.793 461.123 530.474C460.78 530.686 460.434 530.892 460.057 531.075L461.567 547.358C461.585 547.544 461.563 547.731 461.504 547.907C461.445 548.084 461.349 548.247 461.224 548.384C461.098 548.522 460.945 548.632 460.775 548.708C460.604 548.783 460.42 548.822 460.234 548.822H454.805C454.489 548.822 454.183 548.71 453.941 548.506C453.7 548.302 453.538 548.019 453.485 547.707C453.358 546.957 450.362 529.265 450.735 523.826C450.83 522.413 450.973 521.14 451.112 519.909C451.495 516.508 451.826 513.571 450.882 509.343C450.249 506.412 450.047 503.403 450.284 500.414C448.21 502.717 446.957 508.091 446.544 516.464C447.567 517.009 448.626 518.364 448.626 521.663C448.516 524.005 447.643 526.247 446.142 528.047C446.016 528.191 445.861 528.307 445.687 528.386C445.513 528.465 445.324 528.506 445.133 528.506C444.942 528.506 444.753 528.465 444.579 528.386C444.405 528.307 444.25 528.191 444.124 528.047C442.623 526.247 441.75 524.005 441.64 521.663C441.637 518.204 442.797 516.875 443.862 516.382V516.382ZM469.861 493.989C467.368 493.737 465.214 493.518 463.495 493.518C463.242 493.518 462.965 493.514 462.669 493.508C461.286 493.444 459.9 493.527 458.535 493.754C462.336 496.557 465.84 500.587 468.295 503.414C469.185 504.439 469.953 505.324 470.403 505.751C471.561 506.844 475.001 507.702 477.976 506.611C480.462 505.701 481.891 503.736 482.224 500.771C482.377 498.708 482.798 496.674 483.478 494.72C482.801 494.73 482.177 494.738 481.609 494.738C477.683 494.692 473.762 494.442 469.861 493.989V493.989ZM502.603 497.572C502.623 496.842 502.689 496.114 502.801 495.393C501.561 495.307 500.315 495.442 499.122 495.792C500.061 496.744 501.282 497.368 502.603 497.572V497.572ZM503.173 485.403C503.567 487.025 504.268 488.556 505.24 489.913C505.697 489.433 506.213 489.014 506.776 488.664C505.501 487.662 504.297 486.572 503.173 485.403ZM521.216 488.665C521.777 489.015 522.292 489.434 522.747 489.914C523.719 488.557 524.421 487.025 524.814 485.403C523.692 486.572 522.489 487.662 521.216 488.665V488.665ZM525.19 495.393C525.302 496.115 525.368 496.843 525.388 497.573C526.709 497.369 527.93 496.744 528.87 495.792C527.677 495.442 526.431 495.307 525.19 495.393ZM522.544 500.915C523.043 496.677 522.5 493.638 520.932 491.881C519.215 489.958 516.508 489.84 514.549 489.84H513.86C512.554 489.786 511.246 489.903 509.97 490.186C509.903 490.212 509.835 490.232 509.764 490.247C508.726 490.525 507.788 491.092 507.059 491.883C505.491 493.638 504.949 496.677 505.452 500.917C506.884 513.099 510.505 513.103 513.998 513.107C514.673 513.121 515.348 513.09 516.019 513.017C516.065 513.007 516.112 513 516.16 512.996C518.893 512.579 521.407 510.583 522.544 500.915V500.915ZM501.331 530.251C501.581 530.452 501.75 530.737 501.808 531.052C502.247 533.438 504.154 542.92 504.802 546.14H506.6C506.079 540.065 506.588 531.92 507.224 526.206C505.294 527.668 503.213 528.921 501.018 529.942C501.205 530.143 501.331 530.251 501.331 530.251V530.251ZM480.302 523.202C480.514 523.208 480.735 523.212 480.95 523.218C481.437 523.23 481.933 523.24 482.438 523.248C482.752 523.253 483.07 523.257 483.391 523.26C483.873 523.265 484.365 523.268 484.864 523.268C485.144 523.268 485.419 523.268 485.706 523.268C486.41 523.268 487.13 523.26 487.861 523.25L488.717 522.703C492.481 520.299 494.968 518.711 495.689 516.622C495.783 516.331 495.795 516.019 495.722 515.722C495.65 515.425 495.497 515.153 495.28 514.938C494.07 513.377 491.146 512.213 488.896 512.402C485.872 512.652 484.493 512.766 481.412 520.325C480.999 521.337 480.583 522.297 480.169 523.196L480.302 523.202ZM466.008 546.141H468.832L467.367 530.363C467.34 530.073 467.408 529.782 467.562 529.534C467.715 529.286 467.945 529.095 468.216 528.99C469.365 528.543 470.842 527.229 472.351 525.356C470.325 525.171 468.328 524.75 466.401 524.101C465.779 525.718 464.834 527.191 463.624 528.432C464.12 534.362 465.505 543.074 466.008 546.14V546.141ZM453.772 520.207C453.637 521.408 453.497 522.65 453.406 524.006C453.105 528.383 455.279 542.12 455.939 546.14H458.764L457.3 530.362C457.273 530.073 457.34 529.783 457.492 529.536C457.644 529.288 457.872 529.097 458.142 528.991C462.397 527.324 464.154 523.178 464.122 522.348C464.069 522.079 464.101 521.801 464.211 521.55C464.322 521.299 464.507 521.089 464.741 520.947C464.975 520.804 465.247 520.737 465.521 520.754C465.794 520.771 466.056 520.872 466.271 521.042C467.006 521.628 469.427 522.65 477.257 523.072C477.812 521.934 478.371 520.675 478.93 519.312C482.095 511.544 484.138 510.11 488.674 509.731C491.813 509.475 495.641 511.037 497.395 513.295C497.881 513.867 498.212 514.553 498.357 515.289C498.501 516.025 498.454 516.786 498.219 517.499C497.441 519.755 495.547 521.385 492.891 523.183C493.068 523.218 493.236 523.288 493.384 523.39C493.532 523.492 493.658 523.624 493.754 523.776C493.878 523.974 493.949 524.2 493.958 524.434C493.968 524.667 493.916 524.899 493.809 525.106C493.211 526.309 492.463 527.432 491.585 528.449C492.082 534.379 493.466 543.079 493.969 546.14H496.915C496.928 543.47 497.026 537.105 497.604 529.296C497.604 529.277 497.613 529.26 497.615 529.242C497.626 529.154 497.645 529.067 497.672 528.982C497.68 528.958 497.685 528.934 497.694 528.911C497.733 528.811 497.785 528.716 497.847 528.629C497.863 528.606 497.883 528.586 497.901 528.565C497.95 528.503 498.005 528.446 498.065 528.393C498.095 528.367 498.123 528.343 498.155 528.317C498.228 528.263 498.307 528.217 498.389 528.18C498.405 528.173 498.417 528.161 498.432 528.155C501.93 526.748 505.13 524.694 507.865 522.099C507.877 522.079 507.892 522.062 507.905 522.044C508.933 520.478 510.051 518.973 511.256 517.538C511.768 516.973 512.332 516.375 512.932 515.759C508.346 515.554 504.253 513.704 502.785 501.226C502.747 500.9 502.73 500.594 502.703 500.28C501.33 500.133 500.007 499.685 498.828 498.968C497.648 498.25 496.642 497.28 495.881 496.128C495.734 495.924 495.647 495.682 495.63 495.431C495.614 495.179 495.67 494.928 495.79 494.707C492.367 494.579 489.043 494.623 486.488 494.669C485.858 495.679 485.328 497.144 484.88 501.071C484.437 505.014 482.31 507.875 478.891 509.128C477.641 509.578 476.322 509.805 474.994 509.799C472.315 509.799 469.848 508.919 468.554 507.697C468.007 507.178 467.238 506.293 466.265 505.17C463.755 502.279 459.645 497.55 455.596 494.988C452.84 497.089 452.133 501.734 453.496 508.79C454.537 513.422 454.168 516.718 453.772 520.207V520.207ZM445.127 524.716C445.633 523.773 445.911 522.724 445.94 521.654C445.94 519.563 445.442 518.783 445.127 518.783C444.813 518.783 444.313 519.563 444.313 521.654C444.343 522.724 444.623 523.773 445.13 524.716H445.127Z" fill="black"/>
<mask id="path-45-inside-4" fill="white">
<rect x="554" y="522" width="85" height="67" rx="2"/>
</mask>
<rect x="554" y="522" width="85" height="67" rx="2" stroke="black" stroke-width="6" mask="url(#path-45-inside-4)"/>
<mask id="path-46-inside-5" fill="white">
<rect x="571" y="546" width="20" height="22" rx="2"/>
</mask>
<rect x="571" y="546" width="20" height="22" rx="2" stroke="black" stroke-width="6" mask="url(#path-46-inside-5)"/>
<mask id="path-47-inside-6" fill="white">
<rect x="636" y="544" width="20" height="22" rx="2"/>
</mask>
<rect x="636" y="544" width="20" height="22" rx="2" stroke="black" stroke-width="6" mask="url(#path-47-inside-6)"/>
<mask id="path-48-inside-7" fill="white">
<rect x="600" y="546" width="20" height="22" rx="2"/>
</mask>
<rect x="600" y="546" width="20" height="22" rx="2" stroke="black" stroke-width="6" mask="url(#path-48-inside-7)"/>
<path d="M659.5 555C659.5 557.836 658.87 560.329 657.926 562.06C656.951 563.847 655.851 564.5 655 564.5C654.149 564.5 653.049 563.847 652.074 562.06C651.13 560.329 650.5 557.836 650.5 555C650.5 552.164 651.13 549.671 652.074 547.94C653.049 546.153 654.149 545.5 655 545.5C655.851 545.5 656.951 546.153 657.926 547.94C658.87 549.671 659.5 552.164 659.5 555Z" fill="white" stroke="black" stroke-width="3"/>
<path d="M656 555.312C656 555.312 676.065 560.059 673 585.312" stroke="black" stroke-width="3" stroke-linecap="round" stroke-dasharray="4 5"/>
<path d="M939.827 538.947C943.385 538.947 946.28 541.842 946.28 545.4C946.28 548.958 943.385 551.853 939.827 551.853C936.268 551.853 933.373 548.958 933.373 545.4C933.373 541.842 936.268 538.947 939.827 538.947ZM939.827 549.151C941.895 549.151 943.577 547.468 943.577 545.4C943.577 543.332 941.895 541.65 939.827 541.65C937.759 541.65 936.076 543.332 936.076 545.4C936.076 547.468 937.759 549.151 939.827 549.151Z" fill="black"/>
<path d="M925.115 521.792V498.797V493.6C925.115 492.854 925.72 492.249 926.467 492.249H931.461C932.207 492.249 932.812 492.854 932.812 493.6C932.812 494.346 932.207 494.952 931.461 494.952H927.818V497.446H963.972H971.145V494.952H930.768C930.022 494.952 929.416 494.346 929.416 493.6C929.416 492.854 930.022 492.249 930.768 492.249H972.496C973.242 492.249 973.848 492.854 973.848 493.6V498.797C973.848 499.543 973.242 500.149 972.496 500.149H965.738L971.183 520.251H980.351V505.08C980.351 502.935 982.09 501.196 984.235 501.196H984.774V492.408C984.774 490.657 983.354 489.238 981.603 489.238H980.228C979.482 489.238 978.877 488.633 978.877 487.886C978.877 487.14 979.482 486.535 980.228 486.535H981.603C984.847 486.535 987.477 489.164 987.477 492.408V501.196H987.694C989.839 501.196 991.578 502.935 991.578 505.08V520.251H995.562C999.67 520.251 1003 523.581 1003 527.688V553.081C1003 553.088 1003 553.094 1003 553.101C1003 561.573 996.108 568.465 987.636 568.465C979.62 568.465 973.023 562.293 972.335 554.453H970.149L961.04 554.453C957.514 562.684 949.333 568.465 939.827 568.465C927.563 568.465 917.505 558.843 916.803 546.753H913.351C912.605 546.753 912 546.146 912 545.4C912 535.454 917.246 526.713 925.115 521.792ZM988.874 505.08C988.874 504.429 988.344 503.899 987.693 503.899H984.234C983.583 503.899 983.053 504.429 983.053 505.08V520.25H988.874V505.08ZM987.636 565.762C994.617 565.762 1000.3 560.082 1000.3 553.102L1000.3 553.08C1000.29 546.109 994.611 540.44 987.636 540.44C980.655 540.44 974.976 546.12 974.976 553.101C974.976 560.083 980.655 565.762 987.636 565.762ZM967.652 551.75H968.797L968.839 551.75C968.839 551.75 969.445 551.75 970.191 551.75C970.938 551.75 971.542 551.75 971.542 551.75H971.5C971.174 551.75 972.335 551.75 972.335 551.75C973.022 543.909 979.62 537.737 987.636 537.737C992.884 537.737 997.524 540.384 1000.3 544.41V527.69C1000.3 525.074 998.176 522.954 995.56 522.954H971.5V534.306C971.5 535.052 970.895 535.657 970.149 535.657C969.403 535.657 968.797 535.052 968.797 534.306V521.782L962.938 500.149H927.818V520.302C928.602 519.925 929.406 519.584 930.229 519.281V503.912C930.229 503.165 930.834 502.56 931.581 502.56H960.058C960.668 502.56 961.203 502.969 961.362 503.558L966.339 521.929C966.483 522.464 966.289 523.048 965.813 523.388C965.58 523.554 965.295 523.631 965.009 523.634L957.235 523.71C963.582 528.814 967.652 536.641 967.652 545.401V551.75ZM932.932 505.263V518.439C935.138 517.875 937.448 517.574 939.827 517.574C944.7 517.574 949.284 518.835 953.271 521.045L963.272 520.948L959.023 505.263H932.932ZM939.827 565.762C951.054 565.762 960.189 556.628 960.189 545.4C960.189 534.173 951.054 525.039 939.827 525.039C928.599 525.039 919.465 534.173 919.465 545.4C919.465 556.628 928.599 565.762 939.827 565.762ZM916.803 544.05C917.504 531.958 927.562 522.336 939.827 522.336C952.544 522.336 962.891 532.683 962.891 545.4C962.891 547.602 962.581 549.732 962.002 551.75H964.949V545.401C964.949 531.548 953.679 520.277 939.827 520.277C926.427 520.277 915.443 530.822 914.739 544.05H916.803Z" fill="black"/>
<path d="M987.636 544.965C992.123 544.965 995.773 548.615 995.773 553.101C995.773 557.588 992.123 561.238 987.636 561.238C983.15 561.238 979.5 557.588 979.5 553.101C979.5 548.615 983.15 544.965 987.636 544.965ZM987.636 558.535C990.632 558.535 993.07 556.097 993.07 553.101C993.07 550.105 990.632 547.668 987.636 547.668C984.64 547.668 982.203 550.105 982.203 553.101C982.203 556.097 984.64 558.535 987.636 558.535Z" fill="black"/>
<path d="M996.755 525.575C997.501 525.575 998.107 526.18 998.107 526.926V536.303C998.107 537.049 997.501 537.654 996.755 537.654C993.425 537.654 990.715 534.945 990.715 531.614C990.715 528.284 993.425 525.575 996.755 525.575ZM995.404 534.665V528.564C994.235 529.084 993.418 530.255 993.418 531.615C993.418 532.974 994.235 534.146 995.404 534.665Z" fill="black"/>
<mask id="path-56-inside-8" fill="white">
<rect x="827" y="506.5" width="67" height="62" rx="1"/>
</mask>
<rect x="827" y="506.5" width="67" height="62" rx="1" stroke="black" stroke-width="6" stroke-linejoin="round" mask="url(#path-56-inside-8)"/>
<rect x="846.5" y="485" width="27" height="23" stroke="black" stroke-width="3" stroke-linejoin="round"/>
<rect x="842.5" y="539" width="36" height="28" stroke="black" stroke-width="3" stroke-linejoin="round"/>
<rect x="840.5" y="521" width="9" height="10" stroke="black" stroke-width="3" stroke-linejoin="round"/>
<rect x="855.5" y="521" width="9" height="10" stroke="black" stroke-width="3" stroke-linejoin="round"/>
<rect x="870.5" y="521" width="9" height="10" stroke="black" stroke-width="3" stroke-linejoin="round"/>
<path d="M825.072 436H894.928C895.29 436 895.532 436.372 895.386 436.702L874.023 485H845.977L824.614 436.702C824.468 436.372 824.71 436 825.072 436Z" stroke="black" stroke-width="3" stroke-linejoin="round"/>
<path d="M1091.27 494.206H1115.73C1115.99 494.206 1116.2 494.394 1116.23 494.644L1125.21 566.502C1125.27 566.99 1124.67 567.264 1124.34 566.897L1106.12 546.391C1104.72 544.825 1102.28 544.825 1100.88 546.391L1082.66 566.897C1082.33 567.264 1081.73 566.99 1081.79 566.502L1090.77 494.644C1090.8 494.394 1091.01 494.206 1091.27 494.206Z" stroke="black" stroke-width="3" stroke-linejoin="round"/>
<path d="M1104.9 518.394L1117.56 528.84C1118.26 529.414 1118.29 530.47 1117.64 531.089L1104.97 543.016C1104.41 543.548 1103.53 543.561 1102.95 543.044L1089.55 531.121C1088.85 530.498 1088.88 529.393 1089.62 528.817L1103.02 518.368C1103.58 517.936 1104.36 517.947 1104.9 518.394Z" stroke="black" stroke-width="3"/>
<path d="M1135.5 493.706L1078.35 493.706C1075.43 493.706 1074.23 497.448 1076.6 499.146L1101.62 517.042C1102.79 517.882 1104.4 517.767 1105.44 516.768L1117.5 505.206" stroke="black" stroke-width="3" stroke-linecap="round"/>
<path d="M1084.93 472.206H1122.07C1123.13 472.206 1123.86 473.278 1123.46 474.263L1115.86 493.263C1115.63 493.833 1115.08 494.206 1114.47 494.206H1092.53C1091.92 494.206 1091.37 493.833 1091.14 493.263L1083.54 474.263C1083.14 473.278 1083.87 472.206 1084.93 472.206Z" stroke="black" stroke-width="3"/>
<line x1="1076" y1="472.206" x2="1129" y2="472.206" stroke="black" stroke-width="3" stroke-linecap="round"/>
<path d="M1103.9 437L1095.9 448L1111 448L1103.9 460.206" stroke="black" stroke-width="3" stroke-linecap="round" stroke-linejoin="round"/>
<g filter="url(#filter3_d)">
<circle cx="1168" cy="410" r="23" fill="#FBC800"/>
</g>
<line x1="1168.29" y1="399.105" x2="1168.29" y2="422.105" stroke="white" stroke-width="3"/>
<path d="M1180.11 411.21L1156.5 411.21" stroke="white" stroke-width="3"/>
<rect x="1147.5" y="533" width="28" height="5" rx="2.5" stroke="black" stroke-width="3" stroke-linejoin="round"/>
<rect x="1147.5" y="562" width="28" height="5" rx="2.5" stroke="black" stroke-width="3" stroke-linejoin="round"/>
<line x1="1149.5" y1="538.5" x2="1149.5" y2="561.5" stroke="black" stroke-width="3"/>
<line x1="1173.5" y1="538.5" x2="1173.5" y2="561.5" stroke="black" stroke-width="3"/>
<path d="M1173 533.5V531.5C1173 528.739 1170.76 526.5 1168 526.5H1156C1153.24 526.5 1151 528.739 1151 531.5V533.5" stroke="black" stroke-width="3"/>
<path d="M1166 519.5H1167.5C1167.5 518.672 1166.83 518 1166 518V519.5ZM1163 521H1166V518H1163V521ZM1164.5 519.5V526.5H1167.5V519.5H1164.5ZM1159.5 526.5V524.5H1156.5V526.5H1159.5ZM1163 518C1159.41 518 1156.5 520.91 1156.5 524.5H1159.5C1159.5 522.567 1161.07 521 1163 521V518Z" fill="black"/>
<path d="M1173 557.5C1168.03 557.5 1164 554.366 1164 550.5C1164 546.634 1168.03 543.5 1173 543.5" stroke="black" stroke-width="3"/>
<line x1="1175.3" y1="519.826" x2="1188.33" y2="518.198" stroke="black" stroke-width="3" stroke-linecap="round"/>
<line x1="1175.74" y1="524.293" x2="1183.79" y2="525.756" stroke="black" stroke-width="3" stroke-linecap="round"/>
<path d="M1216.5 553.217L1225.72 464.218H1278.3L1287.52 553.217V567.1H1216.5V553.217Z" stroke="black" stroke-width="3" stroke-linejoin="round"/>
<path d="M1222.29 456L1225.4 464.029H1278.53L1280.87 455.969L1278.68 451.1H1225.22L1222.29 456Z" stroke="black" stroke-width="3" stroke-linejoin="round"/>
<line x1="1215.94" y1="553.982" x2="1287.15" y2="553.982" stroke="black" stroke-width="3" stroke-linejoin="round"/>
<line x1="1216.79" y1="566.564" x2="1229.91" y2="554.383" stroke="black" stroke-width="3" stroke-linejoin="round"/>
<line y1="-1.5" x2="19.6772" y2="-1.5" transform="matrix(0.732783 -0.680462 0.68044 0.732804 1235.61 568.6)" stroke="black" stroke-width="3" stroke-linejoin="round"/>
<line y1="-1.5" x2="19.6772" y2="-1.5" transform="matrix(0.73278 -0.680465 0.680437 0.732807 1254.35 568.6)" stroke="black" stroke-width="3" stroke-linejoin="round"/>
<line y1="-1.5" x2="19.6772" y2="-1.5" transform="matrix(0.732783 -0.680462 0.68044 0.732804 1273.09 568.6)" stroke="black" stroke-width="3" stroke-linejoin="round"/>
<path d="M1258.06 492.702V471.151C1252.75 471.307 1243.34 475.836 1248.22 492.702" stroke="black" stroke-width="3" stroke-linejoin="round"/>
<path d="M1244.91 499.262L1226.24 510.037C1229.03 514.557 1237.66 520.435 1249.83 507.782" stroke="black" stroke-width="3" stroke-linejoin="round"/>
<path d="M1256.23 507.084L1274.89 517.86C1277.41 513.183 1278.19 502.777 1261.15 498.563" stroke="black" stroke-width="3" stroke-linejoin="round"/>
<circle cx="1252.95" cy="499.73" r="8.33859" stroke="black" stroke-width="3" stroke-linejoin="round"/>
<circle cx="1252.95" cy="499.73" r="3.65355" stroke="black" stroke-width="3" stroke-linejoin="round"/>
<line y1="-1.5" x2="46.1012" y2="-1.5" transform="matrix(-0.0508473 0.998706 -0.998388 -0.0567561 1249.2 507.695)" stroke="black" stroke-width="3" stroke-linejoin="round"/>
<line y1="-1.5" x2="46.9323" y2="-1.5" transform="matrix(0.0201082 0.999798 -1 0.00040714 1254.22 507.905)" stroke="black" stroke-width="3" stroke-linejoin="round"/>
<path d="M1370.22 558.5L1348.61 525.5H1307.74L1328.85 558.5H1370.22Z" stroke="black" stroke-width="3" stroke-linecap="round" stroke-linejoin="round"/>
<path d="M1358.22 558.5L1336.54 525.5H1322.77L1344.27 558.5H1358.22Z" stroke="black" stroke-width="3" stroke-linecap="round" stroke-linejoin="round"/>
<path d="M1322 548.115L1362.68 548.234L1355.19 536.833L1314.58 536.565L1322 548.115Z" stroke="black" stroke-width="3" stroke-linecap="round" stroke-linejoin="round"/>
<path d="M1370.64 559.364V566C1370.64 566.552 1370.19 567 1369.64 567H1307C1306.45 567 1306 566.552 1306 566V525" stroke="black" stroke-width="3" stroke-linecap="round" stroke-linejoin="round"/>
<line x1="1329.5" y1="559.5" x2="1329.5" y2="565.5" stroke="black" stroke-width="3" stroke-linecap="round" stroke-linejoin="round"/>
<circle r="8.05887" transform="matrix(-1 0 0 1 1359.9 480.752)" stroke="black" stroke-width="3"/>
<line x1="1.5" y1="-1.5" x2="24.7641" y2="-1.5" transform="matrix(-0.707116 0.707097 0.707116 0.707097 1349.24 489.219)" stroke="black" stroke-width="3" stroke-linecap="round"/>
<line x1="1.5" y1="-1.5" x2="18.164" y2="-1.5" transform="matrix(0 1 1 0 1359.62 494.135)" stroke="black" stroke-width="3" stroke-linecap="round"/>
<line x1="1.5" y1="-1.5" x2="18.1716" y2="-1.5" transform="matrix(-0.999615 -0.0277507 -0.0277834 0.999614 1344.87 478.84)" stroke="black" stroke-width="3" stroke-linecap="round"/>
<line x1="1.5" y1="-1.5" x2="11.2984" y2="-1.5" transform="matrix(0.768217 0.640189 0.64018 -0.768225 1370.55 489.765)" stroke="black" stroke-width="3" stroke-linecap="round"/>
<line x1="1.5" y1="-1.5" x2="11.2984" y2="-1.5" transform="matrix(0.768221 0.640184 0.640184 -0.768221 1338.87 463)" stroke="black" stroke-width="3" stroke-linecap="round"/>
<path d="M136.133 371.26C135.401 371.604 135.078 372.469 135.404 373.209L138.747 380.395C138.911 380.752 139.21 381.031 139.579 381.168C139.74 381.227 139.912 381.257 140.084 381.257C140.299 381.259 140.512 381.213 140.707 381.124L165.961 369.311L163.674 393.263C163.629 393.734 163.811 394.198 164.163 394.512C165.27 395.43 166.65 395.953 168.085 396C168.481 396 168.875 395.95 169.259 395.852C171.309 395.316 172.898 393.487 173.983 390.362L183.921 360.892L203.603 351.697C209.396 348.99 212.382 343.501 210.377 339.216C209.239 336.977 207.06 335.453 204.569 335.154C201.801 334.736 198.972 335.172 196.458 336.405L173.744 347.071L149.324 337.505C146.248 336.345 143.813 336.375 142.104 337.61C140.671 338.788 139.856 340.558 139.891 342.415C139.905 342.886 140.142 343.321 140.529 343.591L156.973 354.911L147.556 359.374L131.765 355.357C131.118 355.198 130.444 355.49 130.116 356.071L126.18 363.167C125.976 363.543 125.944 363.989 126.092 364.391C126.24 364.793 126.553 365.111 126.953 365.265L138.643 370.1L136.133 371.26ZM142.935 341.671C143.023 341.042 143.34 340.47 143.827 340.064C144.674 339.454 146.219 339.543 148.284 340.317L170.031 348.812L160.108 353.453L142.935 341.671ZM129.567 363.153L132.151 358.556L147.348 362.334C147.675 362.417 148.021 362.386 148.329 362.246L197.721 339.142C199.684 338.172 201.896 337.819 204.064 338.13C205.584 338.27 206.938 339.149 207.689 340.48C208.935 343.159 206.485 347.071 202.34 349.005L185.227 357.039L186.267 353.959C186.53 353.166 186.101 352.31 185.31 352.047C184.517 351.784 183.663 352.214 183.4 353.007L171.175 389.439C170.447 391.508 169.541 392.743 168.531 393.01C167.905 393.13 167.257 393.007 166.718 392.668L169.689 361.427C169.767 360.605 169.166 359.876 168.345 359.798C167.524 359.72 166.796 360.323 166.718 361.144L166.258 365.919L140.767 377.821L138.673 373.358L142.861 371.394C143.4 371.156 143.748 370.622 143.748 370.033C143.748 369.443 143.4 368.909 142.861 368.672L129.567 363.153Z" fill="#00C7A5"/>
</g>
<defs>
<filter id="filter0_d" x="895" y="384" width="86" height="86" filterUnits="userSpaceOnUse" color-interpolation-filters="sRGB">
<feFlood flood-opacity="0" result="BackgroundImageFix"/>
<feColorMatrix in="SourceAlpha" type="matrix" values="0 0 0 0 0 0 0 0 0 0 0 0 0 0 0 0 0 0 127 0"/>
<feOffset/>
<feGaussianBlur stdDeviation="10"/>
<feColorMatrix type="matrix" values="0 0 0 0 0 0 0 0 0 0 0 0 0 0 0 0 0 0 0.1 0"/>
<feBlend mode="normal" in2="BackgroundImageFix" result="effect1_dropShadow"/>
<feBlend mode="normal" in="SourceGraphic" in2="effect1_dropShadow" result="shape"/>
</filter>
<filter id="filter1_d" x="525" y="423" width="86" height="86" filterUnits="userSpaceOnUse" color-interpolation-filters="sRGB">
<feFlood flood-opacity="0" result="BackgroundImageFix"/>
<feColorMatrix in="SourceAlpha" type="matrix" values="0 0 0 0 0 0 0 0 0 0 0 0 0 0 0 0 0 0 127 0"/>
<feOffset/>
<feGaussianBlur stdDeviation="10"/>
<feColorMatrix type="matrix" values="0 0 0 0 0 0 0 0 0 0 0 0 0 0 0 0 0 0 0.1 0"/>
<feBlend mode="normal" in2="BackgroundImageFix" result="effect1_dropShadow"/>
<feBlend mode="normal" in="SourceGraphic" in2="effect1_dropShadow" result="shape"/>
</filter>
<filter id="filter2_d" x="295" y="392" width="86" height="86" filterUnits="userSpaceOnUse" color-interpolation-filters="sRGB">
<feFlood flood-opacity="0" result="BackgroundImageFix"/>
<feColorMatrix in="SourceAlpha" type="matrix" values="0 0 0 0 0 0 0 0 0 0 0 0 0 0 0 0 0 0 127 0"/>
<feOffset/>
<feGaussianBlur stdDeviation="10"/>
<feColorMatrix type="matrix" values="0 0 0 0 0 0 0 0 0 0 0 0 0 0 0 0 0 0 0.1 0"/>
<feBlend mode="normal" in2="BackgroundImageFix" result="effect1_dropShadow"/>
<feBlend mode="normal" in="SourceGraphic" in2="effect1_dropShadow" result="shape"/>
</filter>
<filter id="filter3_d" x="1125" y="367" width="86" height="86" filterUnits="userSpaceOnUse" color-interpolation-filters="sRGB">
<feFlood flood-opacity="0" result="BackgroundImageFix"/>
<feColorMatrix in="SourceAlpha" type="matrix" values="0 0 0 0 0 0 0 0 0 0 0 0 0 0 0 0 0 0 127 0"/>
<feOffset/>
<feGaussianBlur stdDeviation="10"/>
<feColorMatrix type="matrix" values="0 0 0 0 0 0 0 0 0 0 0 0 0 0 0 0 0 0 0.1 0"/>
<feBlend mode="normal" in2="BackgroundImageFix" result="effect1_dropShadow"/>
<feBlend mode="normal" in="SourceGraphic" in2="effect1_dropShadow" result="shape"/>
</filter>
<clipPath id="clip0">
<rect width="1440" height="1024" fill="white"/>
</clipPath>
</defs>
</svg>
