<svg width="1440" height="1024" viewBox="0 0 1440 1024" fill="none" xmlns="http://www.w3.org/2000/svg">
<g clip-path="url(#clip0)">
<rect width="1440" height="1024" fill="white"/>
<path d="M191 704V570H237V660H383V570H431V704H191Z" stroke="black" stroke-width="3"/>
<path d="M-1 570H159H201H211H367H383H431V550H533V590H654.5C669 590 666.5 599.5 678.5 599.5C685.542 599.5 685.5 588.5 685.5 588.5C694.5 588.5 694.5 599.5 700 599.5C710.5 599.5 709 588.5 709 588.5C720.5 588.5 718 599.5 724 599.5C734.5 599.5 733 588.5 733 588.5C744 587.5 741 598 748 598C755 598 756.5 588.5 756.5 588.5C766.5 588.5 767.09 597.566 771 598C784.5 599.5 783 590 797.5 590V570H1385V590H1437" stroke="black" stroke-width="3"/>
<rect x="1172" y="410" width="159" height="208" rx="8" transform="rotate(-90 1172 410)" fill="#FBC800" fill-opacity="0.16"/>
<g filter="url(#filter0_d)">
<circle cx="938" cy="427" r="23" fill="#6CBAFA"/>
</g>
<line x1="938.29" y1="416.105" x2="938.29" y2="439.105" stroke="white" stroke-width="3"/>
<path d="M950.105 428.21L926.5 428.21" stroke="white" stroke-width="3"/>
<g filter="url(#filter1_d)">
<circle cx="568" cy="466" r="23" fill="#8D75F3"/>
</g>
<line x1="568.29" y1="455.105" x2="568.29" y2="478.105" stroke="white" stroke-width="3"/>
<path d="M580.105 467.21L556.5 467.21" stroke="white" stroke-width="3"/>
<g filter="url(#filter2_d)">
<circle cx="338" cy="435" r="23" fill="#00C7A5"/>
</g>
<line x1="338.29" y1="424.105" x2="338.29" y2="447.105" stroke="white" stroke-width="3"/>
<path d="M350.105 436.21L326.5 436.21" stroke="white" stroke-width="3"/>
<path d="M1198.67 282.521H1195.92V288H1193.45V273.781H1198.45C1200.09 273.781 1201.35 274.149 1202.24 274.885C1203.14 275.62 1203.58 276.685 1203.58 278.078C1203.58 279.029 1203.35 279.826 1202.89 280.471C1202.43 281.109 1201.79 281.6 1200.97 281.945L1204.17 287.873V288H1201.52L1198.67 282.521ZM1195.92 280.539H1198.46C1199.29 280.539 1199.94 280.331 1200.41 279.914C1200.88 279.491 1201.11 278.915 1201.11 278.186C1201.11 277.424 1200.89 276.835 1200.46 276.418C1200.03 276.001 1199.38 275.786 1198.52 275.773H1195.92V280.539ZM1210.35 288.195C1208.85 288.195 1207.62 287.723 1206.69 286.779C1205.76 285.829 1205.29 284.566 1205.29 282.99V282.697C1205.29 281.643 1205.49 280.702 1205.9 279.875C1206.31 279.042 1206.88 278.394 1207.62 277.932C1208.35 277.469 1209.17 277.238 1210.08 277.238C1211.51 277.238 1212.62 277.697 1213.41 278.615C1214.19 279.533 1214.59 280.832 1214.59 282.512V283.469H1207.68C1207.76 284.341 1208.04 285.031 1208.55 285.539C1209.07 286.047 1209.71 286.301 1210.49 286.301C1211.57 286.301 1212.46 285.861 1213.14 284.982L1214.42 286.203C1214 286.835 1213.43 287.326 1212.72 287.678C1212.02 288.023 1211.23 288.195 1210.35 288.195ZM1210.07 279.143C1209.42 279.143 1208.89 279.37 1208.48 279.826C1208.09 280.282 1207.83 280.917 1207.72 281.73H1212.24V281.555C1212.19 280.76 1211.98 280.161 1211.61 279.758C1211.24 279.348 1210.72 279.143 1210.07 279.143ZM1217.27 288V279.191H1215.66V277.434H1217.27V276.467C1217.27 275.295 1217.6 274.39 1218.25 273.752C1218.9 273.114 1219.81 272.795 1220.98 272.795C1221.4 272.795 1221.84 272.854 1222.31 272.971L1222.25 274.826C1221.99 274.774 1221.69 274.748 1221.35 274.748C1220.21 274.748 1219.65 275.331 1219.65 276.496V277.434H1221.79V279.191H1219.65V288H1217.27ZM1229.06 279.602C1228.75 279.549 1228.43 279.523 1228.09 279.523C1227.01 279.523 1226.27 279.94 1225.9 280.773V288H1223.52V277.434H1225.79L1225.85 278.615C1226.42 277.697 1227.21 277.238 1228.23 277.238C1228.57 277.238 1228.85 277.284 1229.07 277.375L1229.06 279.602ZM1233.08 288H1230.71V277.434H1233.08V288ZM1230.56 274.689C1230.56 274.325 1230.68 274.022 1230.91 273.781C1231.14 273.54 1231.47 273.42 1231.9 273.42C1232.33 273.42 1232.66 273.54 1232.9 273.781C1233.13 274.022 1233.25 274.325 1233.25 274.689C1233.25 275.048 1233.13 275.347 1232.9 275.588C1232.66 275.822 1232.33 275.939 1231.9 275.939C1231.47 275.939 1231.14 275.822 1230.91 275.588C1230.68 275.347 1230.56 275.048 1230.56 274.689ZM1235.26 282.639C1235.26 280.998 1235.65 279.689 1236.41 278.713C1237.19 277.73 1238.21 277.238 1239.49 277.238C1240.69 277.238 1241.64 277.658 1242.33 278.498L1242.44 277.434H1244.58V287.678C1244.58 289.064 1244.15 290.158 1243.28 290.959C1242.42 291.76 1241.26 292.16 1239.79 292.16C1239.02 292.16 1238.26 291.997 1237.52 291.672C1236.78 291.353 1236.22 290.933 1235.84 290.412L1236.96 288.986C1237.69 289.852 1238.59 290.285 1239.66 290.285C1240.44 290.285 1241.07 290.07 1241.52 289.641C1241.98 289.217 1242.21 288.592 1242.21 287.766V287.053C1241.52 287.814 1240.61 288.195 1239.47 288.195C1238.23 288.195 1237.22 287.704 1236.43 286.721C1235.65 285.738 1235.26 284.377 1235.26 282.639ZM1237.62 282.844C1237.62 283.905 1237.84 284.742 1238.27 285.354C1238.71 285.959 1239.31 286.262 1240.08 286.262C1241.03 286.262 1241.74 285.852 1242.21 285.031V280.383C1241.76 279.582 1241.05 279.182 1240.1 279.182C1239.31 279.182 1238.71 279.491 1238.27 280.109C1237.84 280.728 1237.62 281.639 1237.62 282.844ZM1251.68 288.195C1250.17 288.195 1248.95 287.723 1248.02 286.779C1247.08 285.829 1246.62 284.566 1246.62 282.99V282.697C1246.62 281.643 1246.82 280.702 1247.22 279.875C1247.63 279.042 1248.21 278.394 1248.94 277.932C1249.68 277.469 1250.5 277.238 1251.4 277.238C1252.84 277.238 1253.95 277.697 1254.73 278.615C1255.52 279.533 1255.92 280.832 1255.92 282.512V283.469H1249.01C1249.08 284.341 1249.37 285.031 1249.88 285.539C1250.4 286.047 1251.04 286.301 1251.81 286.301C1252.9 286.301 1253.79 285.861 1254.47 284.982L1255.75 286.203C1255.33 286.835 1254.76 287.326 1254.05 287.678C1253.35 288.023 1252.56 288.195 1251.68 288.195ZM1251.39 279.143C1250.74 279.143 1250.22 279.37 1249.81 279.826C1249.42 280.282 1249.16 280.917 1249.05 281.73H1253.57V281.555C1253.52 280.76 1253.31 280.161 1252.94 279.758C1252.57 279.348 1252.05 279.143 1251.39 279.143ZM1263.3 279.602C1262.99 279.549 1262.66 279.523 1262.33 279.523C1261.24 279.523 1260.51 279.94 1260.13 280.773V288H1257.76V277.434H1260.03L1260.09 278.615C1260.66 277.697 1261.45 277.238 1262.47 277.238C1262.81 277.238 1263.09 277.284 1263.31 277.375L1263.3 279.602ZM1270.82 288C1270.71 287.798 1270.62 287.469 1270.54 287.014C1269.79 287.801 1268.87 288.195 1267.77 288.195C1266.71 288.195 1265.84 287.893 1265.17 287.287C1264.5 286.682 1264.17 285.933 1264.17 285.041C1264.17 283.915 1264.58 283.052 1265.42 282.453C1266.26 281.848 1267.46 281.545 1269.01 281.545H1270.47V280.852C1270.47 280.305 1270.31 279.868 1270.01 279.543C1269.7 279.211 1269.24 279.045 1268.61 279.045C1268.07 279.045 1267.63 279.182 1267.28 279.455C1266.94 279.722 1266.77 280.064 1266.77 280.48H1264.39C1264.39 279.901 1264.58 279.361 1264.97 278.859C1265.35 278.352 1265.87 277.954 1266.53 277.668C1267.2 277.382 1267.93 277.238 1268.75 277.238C1269.99 277.238 1270.97 277.551 1271.71 278.176C1272.44 278.794 1272.82 279.667 1272.84 280.793V285.559C1272.84 286.509 1272.97 287.268 1273.24 287.834V288H1270.82ZM1268.21 286.291C1268.68 286.291 1269.12 286.177 1269.53 285.949C1269.95 285.721 1270.26 285.415 1270.47 285.031V283.039H1269.19C1268.31 283.039 1267.65 283.192 1267.21 283.498C1266.76 283.804 1266.54 284.237 1266.54 284.797C1266.54 285.253 1266.69 285.617 1266.99 285.891C1267.3 286.158 1267.7 286.291 1268.21 286.291ZM1277.53 277.434L1277.6 278.654C1278.38 277.71 1279.4 277.238 1280.67 277.238C1282.87 277.238 1283.99 278.498 1284.03 281.018V288H1281.66V281.154C1281.66 280.484 1281.51 279.989 1281.22 279.67C1280.93 279.344 1280.46 279.182 1279.8 279.182C1278.85 279.182 1278.13 279.615 1277.66 280.48V288H1275.29V277.434H1277.53ZM1289.43 274.865V277.434H1291.3V279.191H1289.43V285.09C1289.43 285.493 1289.51 285.786 1289.67 285.969C1289.83 286.145 1290.12 286.232 1290.53 286.232C1290.8 286.232 1291.08 286.2 1291.36 286.135V287.971C1290.82 288.12 1290.29 288.195 1289.79 288.195C1287.97 288.195 1287.06 287.189 1287.06 285.178V279.191H1285.32V277.434H1287.06V274.865H1289.43ZM1299.04 285.129C1299.04 284.706 1298.87 284.383 1298.51 284.162C1298.17 283.941 1297.59 283.745 1296.79 283.576C1295.98 283.407 1295.3 283.192 1294.76 282.932C1293.58 282.359 1292.99 281.529 1292.99 280.441C1292.99 279.53 1293.37 278.768 1294.14 278.156C1294.91 277.544 1295.88 277.238 1297.07 277.238C1298.33 277.238 1299.35 277.551 1300.12 278.176C1300.91 278.801 1301.3 279.611 1301.3 280.607H1298.92C1298.92 280.152 1298.75 279.774 1298.42 279.475C1298.08 279.169 1297.63 279.016 1297.07 279.016C1296.55 279.016 1296.12 279.136 1295.79 279.377C1295.46 279.618 1295.3 279.94 1295.3 280.344C1295.3 280.708 1295.45 280.992 1295.76 281.193C1296.07 281.395 1296.68 281.6 1297.62 281.809C1298.55 282.01 1299.28 282.255 1299.8 282.541C1300.34 282.821 1300.73 283.16 1300.98 283.557C1301.24 283.954 1301.38 284.436 1301.38 285.002C1301.38 285.952 1300.98 286.724 1300.19 287.316C1299.41 287.902 1298.37 288.195 1297.1 288.195C1296.23 288.195 1295.46 288.039 1294.78 287.727C1294.11 287.414 1293.58 286.984 1293.2 286.438C1292.82 285.891 1292.63 285.301 1292.63 284.67H1294.94C1294.97 285.23 1295.18 285.663 1295.57 285.969C1295.96 286.268 1296.48 286.418 1297.13 286.418C1297.75 286.418 1298.23 286.301 1298.55 286.066C1298.88 285.826 1299.04 285.513 1299.04 285.129ZM1310.96 288H1308.58V277.434H1310.96V288ZM1308.44 274.689C1308.44 274.325 1308.55 274.022 1308.78 273.781C1309.01 273.54 1309.34 273.42 1309.77 273.42C1310.2 273.42 1310.54 273.54 1310.77 273.781C1311 274.022 1311.12 274.325 1311.12 274.689C1311.12 275.048 1311 275.347 1310.77 275.588C1310.54 275.822 1310.2 275.939 1309.77 275.939C1309.34 275.939 1309.01 275.822 1308.78 275.588C1308.55 275.347 1308.44 275.048 1308.44 274.689ZM1315.75 277.434L1315.82 278.654C1316.6 277.71 1317.62 277.238 1318.89 277.238C1321.1 277.238 1322.21 278.498 1322.25 281.018V288H1319.88V281.154C1319.88 280.484 1319.73 279.989 1319.44 279.67C1319.15 279.344 1318.68 279.182 1318.03 279.182C1317.07 279.182 1316.36 279.615 1315.89 280.48V288H1313.51V277.434H1315.75ZM1197.56 309.301C1198.15 309.301 1198.64 309.128 1199.03 308.783C1199.42 308.438 1199.63 308.012 1199.66 307.504H1201.89C1201.87 308.161 1201.66 308.777 1201.28 309.35C1200.89 309.916 1200.37 310.365 1199.71 310.697C1199.06 311.029 1198.35 311.195 1197.59 311.195C1196.11 311.195 1194.94 310.717 1194.07 309.76C1193.2 308.803 1192.77 307.481 1192.77 305.795V305.551C1192.77 303.943 1193.2 302.657 1194.06 301.693C1194.92 300.723 1196.09 300.238 1197.58 300.238C1198.83 300.238 1199.85 300.606 1200.64 301.342C1201.44 302.071 1201.85 303.031 1201.89 304.223H1199.66C1199.63 303.617 1199.42 303.119 1199.03 302.729C1198.65 302.338 1198.16 302.143 1197.56 302.143C1196.79 302.143 1196.2 302.423 1195.78 302.982C1195.36 303.536 1195.15 304.379 1195.14 305.512V305.893C1195.14 307.038 1195.35 307.895 1195.76 308.461C1196.18 309.021 1196.78 309.301 1197.56 309.301ZM1203.24 305.619C1203.24 304.584 1203.45 303.653 1203.86 302.826C1204.27 301.993 1204.84 301.355 1205.58 300.912C1206.33 300.463 1207.18 300.238 1208.14 300.238C1209.57 300.238 1210.72 300.697 1211.61 301.615C1212.5 302.533 1212.98 303.751 1213.05 305.268L1213.06 305.824C1213.06 306.866 1212.86 307.797 1212.46 308.617C1212.06 309.438 1211.49 310.072 1210.74 310.521C1210 310.971 1209.14 311.195 1208.16 311.195C1206.67 311.195 1205.48 310.701 1204.58 309.711C1203.69 308.715 1203.24 307.39 1203.24 305.736V305.619ZM1205.61 305.824C1205.61 306.911 1205.84 307.764 1206.29 308.383C1206.74 308.995 1207.36 309.301 1208.16 309.301C1208.96 309.301 1209.58 308.988 1210.03 308.363C1210.48 307.738 1210.7 306.824 1210.7 305.619C1210.7 304.551 1210.47 303.705 1210.01 303.08C1209.55 302.455 1208.93 302.143 1208.14 302.143C1207.37 302.143 1206.75 302.452 1206.3 303.07C1205.84 303.682 1205.61 304.6 1205.61 305.824ZM1214.63 305.619C1214.63 304.584 1214.83 303.653 1215.24 302.826C1215.65 301.993 1216.23 301.355 1216.97 300.912C1217.71 300.463 1218.57 300.238 1219.53 300.238C1220.96 300.238 1222.11 300.697 1223 301.615C1223.89 302.533 1224.37 303.751 1224.44 305.268L1224.45 305.824C1224.45 306.866 1224.25 307.797 1223.85 308.617C1223.45 309.438 1222.88 310.072 1222.13 310.521C1221.38 310.971 1220.53 311.195 1219.55 311.195C1218.06 311.195 1216.86 310.701 1215.96 309.711C1215.07 308.715 1214.63 307.39 1214.63 305.736V305.619ZM1217 305.824C1217 306.911 1217.22 307.764 1217.67 308.383C1218.12 308.995 1218.75 309.301 1219.55 309.301C1220.35 309.301 1220.97 308.988 1221.41 308.363C1221.86 307.738 1222.09 306.824 1222.09 305.619C1222.09 304.551 1221.86 303.705 1221.39 303.08C1220.94 302.455 1220.32 302.143 1219.53 302.143C1218.75 302.143 1218.14 302.452 1217.68 303.07C1217.23 303.682 1217 304.6 1217 305.824ZM1228.98 311H1226.61V296H1228.98V311ZM1234.1 311H1231.73V300.434H1234.1V311ZM1231.58 297.689C1231.58 297.325 1231.69 297.022 1231.92 296.781C1232.16 296.54 1232.49 296.42 1232.92 296.42C1233.35 296.42 1233.68 296.54 1233.91 296.781C1234.15 297.022 1234.27 297.325 1234.27 297.689C1234.27 298.048 1234.15 298.347 1233.91 298.588C1233.68 298.822 1233.35 298.939 1232.92 298.939C1232.49 298.939 1232.16 298.822 1231.92 298.588C1231.69 298.347 1231.58 298.048 1231.58 297.689ZM1238.89 300.434L1238.96 301.654C1239.74 300.71 1240.77 300.238 1242.04 300.238C1244.24 300.238 1245.36 301.498 1245.4 304.018V311H1243.03V304.154C1243.03 303.484 1242.88 302.989 1242.59 302.67C1242.3 302.344 1241.83 302.182 1241.17 302.182C1240.21 302.182 1239.5 302.615 1239.03 303.48V311H1236.66V300.434H1238.89ZM1247.41 305.639C1247.41 303.998 1247.79 302.689 1248.56 301.713C1249.34 300.73 1250.36 300.238 1251.64 300.238C1252.84 300.238 1253.79 300.658 1254.48 301.498L1254.59 300.434H1256.73V310.678C1256.73 312.064 1256.29 313.158 1255.43 313.959C1254.57 314.76 1253.41 315.16 1251.94 315.16C1251.17 315.16 1250.41 314.997 1249.67 314.672C1248.93 314.353 1248.37 313.933 1247.99 313.412L1249.11 311.986C1249.84 312.852 1250.74 313.285 1251.8 313.285C1252.59 313.285 1253.21 313.07 1253.67 312.641C1254.13 312.217 1254.35 311.592 1254.35 310.766V310.053C1253.67 310.814 1252.76 311.195 1251.62 311.195C1250.38 311.195 1249.37 310.704 1248.58 309.721C1247.8 308.738 1247.41 307.377 1247.41 305.639ZM1249.77 305.844C1249.77 306.905 1249.99 307.742 1250.42 308.354C1250.85 308.959 1251.46 309.262 1252.22 309.262C1253.18 309.262 1253.89 308.852 1254.35 308.031V303.383C1253.9 302.582 1253.2 302.182 1252.24 302.182C1251.46 302.182 1250.85 302.491 1250.42 303.109C1249.99 303.728 1249.77 304.639 1249.77 305.844ZM1270.08 308.129C1270.08 307.706 1269.9 307.383 1269.55 307.162C1269.2 306.941 1268.63 306.745 1267.82 306.576C1267.01 306.407 1266.34 306.192 1265.8 305.932C1264.61 305.359 1264.02 304.529 1264.02 303.441C1264.02 302.53 1264.41 301.768 1265.17 301.156C1265.94 300.544 1266.92 300.238 1268.1 300.238C1269.37 300.238 1270.39 300.551 1271.16 301.176C1271.94 301.801 1272.33 302.611 1272.33 303.607H1269.96C1269.96 303.152 1269.79 302.774 1269.45 302.475C1269.11 302.169 1268.66 302.016 1268.1 302.016C1267.58 302.016 1267.16 302.136 1266.82 302.377C1266.5 302.618 1266.34 302.94 1266.34 303.344C1266.34 303.708 1266.49 303.992 1266.79 304.193C1267.1 304.395 1267.72 304.6 1268.65 304.809C1269.58 305.01 1270.31 305.255 1270.84 305.541C1271.37 305.821 1271.77 306.16 1272.02 306.557C1272.28 306.954 1272.41 307.436 1272.41 308.002C1272.41 308.952 1272.02 309.724 1271.23 310.316C1270.44 310.902 1269.41 311.195 1268.13 311.195C1267.27 311.195 1266.5 311.039 1265.82 310.727C1265.14 310.414 1264.61 309.984 1264.24 309.438C1263.86 308.891 1263.67 308.301 1263.67 307.67H1265.97C1266.01 308.23 1266.22 308.663 1266.61 308.969C1267 309.268 1267.52 309.418 1268.16 309.418C1268.79 309.418 1269.26 309.301 1269.59 309.066C1269.91 308.826 1270.08 308.513 1270.08 308.129ZM1278.18 307.602L1280.33 300.434H1282.86L1278.66 312.602C1278.02 314.379 1276.92 315.268 1275.38 315.268C1275.03 315.268 1274.65 315.209 1274.24 315.092V313.256L1274.69 313.285C1275.28 313.285 1275.73 313.174 1276.03 312.953C1276.34 312.738 1276.58 312.374 1276.76 311.859L1277.1 310.951L1273.39 300.434H1275.95L1278.18 307.602ZM1290.15 308.129C1290.15 307.706 1289.98 307.383 1289.63 307.162C1289.28 306.941 1288.71 306.745 1287.9 306.576C1287.09 306.407 1286.42 306.192 1285.88 305.932C1284.69 305.359 1284.1 304.529 1284.1 303.441C1284.1 302.53 1284.48 301.768 1285.25 301.156C1286.02 300.544 1287 300.238 1288.18 300.238C1289.44 300.238 1290.46 300.551 1291.24 301.176C1292.02 301.801 1292.41 302.611 1292.41 303.607H1290.04C1290.04 303.152 1289.87 302.774 1289.53 302.475C1289.19 302.169 1288.74 302.016 1288.18 302.016C1287.66 302.016 1287.23 302.136 1286.9 302.377C1286.58 302.618 1286.41 302.94 1286.41 303.344C1286.41 303.708 1286.57 303.992 1286.87 304.193C1287.18 304.395 1287.8 304.6 1288.73 304.809C1289.66 305.01 1290.39 305.255 1290.92 305.541C1291.45 305.821 1291.84 306.16 1292.1 306.557C1292.36 306.954 1292.49 307.436 1292.49 308.002C1292.49 308.952 1292.09 309.724 1291.31 310.316C1290.52 310.902 1289.49 311.195 1288.21 311.195C1287.35 311.195 1286.57 311.039 1285.9 310.727C1285.22 310.414 1284.69 309.984 1284.31 309.438C1283.94 308.891 1283.75 308.301 1283.75 307.67H1286.05C1286.09 308.23 1286.3 308.663 1286.69 308.969C1287.08 309.268 1287.6 309.418 1288.24 309.418C1288.87 309.418 1289.34 309.301 1289.67 309.066C1289.99 308.826 1290.15 308.513 1290.15 308.129ZM1297.54 297.865V300.434H1299.4V302.191H1297.54V308.09C1297.54 308.493 1297.62 308.786 1297.77 308.969C1297.93 309.145 1298.22 309.232 1298.63 309.232C1298.9 309.232 1299.18 309.2 1299.46 309.135V310.971C1298.92 311.12 1298.4 311.195 1297.9 311.195C1296.08 311.195 1295.16 310.189 1295.16 308.178V302.191H1293.43V300.434H1295.16V297.865H1297.54ZM1305.88 311.195C1304.37 311.195 1303.15 310.723 1302.21 309.779C1301.28 308.829 1300.82 307.566 1300.82 305.99V305.697C1300.82 304.643 1301.02 303.702 1301.42 302.875C1301.83 302.042 1302.41 301.394 1303.14 300.932C1303.88 300.469 1304.7 300.238 1305.6 300.238C1307.04 300.238 1308.15 300.697 1308.93 301.615C1309.72 302.533 1310.12 303.832 1310.12 305.512V306.469H1303.21C1303.28 307.341 1303.57 308.031 1304.08 308.539C1304.59 309.047 1305.24 309.301 1306.01 309.301C1307.1 309.301 1307.99 308.861 1308.67 307.982L1309.95 309.203C1309.53 309.835 1308.96 310.326 1308.25 310.678C1307.55 311.023 1306.76 311.195 1305.88 311.195ZM1305.59 302.143C1304.94 302.143 1304.42 302.37 1304.01 302.826C1303.61 303.282 1303.36 303.917 1303.25 304.73H1307.77V304.555C1307.72 303.76 1307.51 303.161 1307.14 302.758C1306.77 302.348 1306.25 302.143 1305.59 302.143ZM1314.2 300.434L1314.27 301.537C1315.01 300.671 1316.02 300.238 1317.31 300.238C1318.73 300.238 1319.69 300.779 1320.21 301.859C1320.98 300.779 1322.06 300.238 1323.46 300.238C1324.62 300.238 1325.49 300.561 1326.05 301.205C1326.63 301.85 1326.92 302.8 1326.93 304.057V311H1324.56V304.125C1324.56 303.454 1324.41 302.963 1324.12 302.65C1323.83 302.338 1323.34 302.182 1322.66 302.182C1322.12 302.182 1321.68 302.328 1321.34 302.621C1321 302.908 1320.76 303.285 1320.62 303.754L1320.63 311H1318.26V304.047C1318.23 302.803 1317.59 302.182 1316.36 302.182C1315.4 302.182 1314.73 302.569 1314.33 303.344V311H1311.96V300.434H1314.2ZM1335.29 308.129C1335.29 307.706 1335.12 307.383 1334.76 307.162C1334.42 306.941 1333.84 306.745 1333.04 306.576C1332.23 306.407 1331.55 306.192 1331.01 305.932C1329.83 305.359 1329.24 304.529 1329.24 303.441C1329.24 302.53 1329.62 301.768 1330.39 301.156C1331.16 300.544 1332.13 300.238 1333.32 300.238C1334.58 300.238 1335.6 300.551 1336.38 301.176C1337.16 301.801 1337.55 302.611 1337.55 303.607H1335.17C1335.17 303.152 1335 302.774 1334.67 302.475C1334.33 302.169 1333.88 302.016 1333.32 302.016C1332.8 302.016 1332.37 302.136 1332.04 302.377C1331.71 302.618 1331.55 302.94 1331.55 303.344C1331.55 303.708 1331.7 303.992 1332.01 304.193C1332.32 304.395 1332.93 304.6 1333.87 304.809C1334.8 305.01 1335.53 305.255 1336.05 305.541C1336.59 305.821 1336.98 306.16 1337.23 306.557C1337.49 306.954 1337.62 307.436 1337.62 308.002C1337.62 308.952 1337.23 309.724 1336.44 310.316C1335.66 310.902 1334.62 311.195 1333.35 311.195C1332.48 311.195 1331.71 311.039 1331.03 310.727C1330.36 310.414 1329.83 309.984 1329.45 309.438C1329.07 308.891 1328.88 308.301 1328.88 307.67H1331.19C1331.22 308.23 1331.43 308.663 1331.82 308.969C1332.21 309.268 1332.73 309.418 1333.38 309.418C1334 309.418 1334.48 309.301 1334.8 309.066C1335.13 308.826 1335.29 308.513 1335.29 308.129ZM1340.04 314.203L1338.76 313.441C1339.14 312.849 1339.39 312.331 1339.53 311.889C1339.67 311.452 1339.75 311.007 1339.75 310.551V308.705H1341.89L1341.88 310.414C1341.88 311.104 1341.7 311.794 1341.36 312.484C1341.02 313.181 1340.58 313.754 1340.04 314.203ZM1199.14 331.129C1199.14 330.706 1198.96 330.383 1198.61 330.162C1198.27 329.941 1197.69 329.745 1196.88 329.576C1196.08 329.407 1195.4 329.192 1194.86 328.932C1193.68 328.359 1193.08 327.529 1193.08 326.441C1193.08 325.53 1193.47 324.768 1194.24 324.156C1195 323.544 1195.98 323.238 1197.17 323.238C1198.43 323.238 1199.45 323.551 1200.22 324.176C1201 324.801 1201.39 325.611 1201.39 326.607H1199.02C1199.02 326.152 1198.85 325.774 1198.51 325.475C1198.18 325.169 1197.73 325.016 1197.17 325.016C1196.65 325.016 1196.22 325.136 1195.89 325.377C1195.56 325.618 1195.4 325.94 1195.4 326.344C1195.4 326.708 1195.55 326.992 1195.86 327.193C1196.16 327.395 1196.78 327.6 1197.71 327.809C1198.64 328.01 1199.37 328.255 1199.9 328.541C1200.43 328.821 1200.83 329.16 1201.08 329.557C1201.34 329.954 1201.47 330.436 1201.47 331.002C1201.47 331.952 1201.08 332.724 1200.29 333.316C1199.5 333.902 1198.47 334.195 1197.2 334.195C1196.33 334.195 1195.56 334.039 1194.88 333.727C1194.2 333.414 1193.68 332.984 1193.3 332.438C1192.92 331.891 1192.73 331.301 1192.73 330.67H1195.04C1195.07 331.23 1195.28 331.663 1195.67 331.969C1196.06 332.268 1196.58 332.418 1197.22 332.418C1197.85 332.418 1198.32 332.301 1198.65 332.066C1198.98 331.826 1199.14 331.513 1199.14 331.129ZM1203.1 328.619C1203.1 327.584 1203.31 326.653 1203.72 325.826C1204.13 324.993 1204.71 324.355 1205.45 323.912C1206.19 323.463 1207.04 323.238 1208.01 323.238C1209.43 323.238 1210.59 323.697 1211.47 324.615C1212.36 325.533 1212.85 326.751 1212.92 328.268L1212.93 328.824C1212.93 329.866 1212.73 330.797 1212.32 331.617C1211.93 332.438 1211.35 333.072 1210.6 333.521C1209.86 333.971 1209 334.195 1208.03 334.195C1206.53 334.195 1205.34 333.701 1204.44 332.711C1203.55 331.715 1203.1 330.39 1203.1 328.736V328.619ZM1205.48 328.824C1205.48 329.911 1205.7 330.764 1206.15 331.383C1206.6 331.995 1207.22 332.301 1208.03 332.301C1208.83 332.301 1209.45 331.988 1209.89 331.363C1210.34 330.738 1210.56 329.824 1210.56 328.619C1210.56 327.551 1210.33 326.705 1209.87 326.08C1209.42 325.455 1208.79 325.143 1208.01 325.143C1207.23 325.143 1206.62 325.452 1206.16 326.07C1205.7 326.682 1205.48 327.6 1205.48 328.824ZM1217.46 334H1215.09V319H1217.46V334ZM1226.37 334C1226.26 333.798 1226.17 333.469 1226.09 333.014C1225.34 333.801 1224.41 334.195 1223.32 334.195C1222.26 334.195 1221.39 333.893 1220.72 333.287C1220.05 332.682 1219.71 331.933 1219.71 331.041C1219.71 329.915 1220.13 329.052 1220.96 328.453C1221.8 327.848 1223 327.545 1224.56 327.545H1226.01V326.852C1226.01 326.305 1225.86 325.868 1225.55 325.543C1225.25 325.211 1224.78 325.045 1224.16 325.045C1223.62 325.045 1223.18 325.182 1222.83 325.455C1222.49 325.722 1222.31 326.064 1222.31 326.48H1219.94C1219.94 325.901 1220.13 325.361 1220.52 324.859C1220.9 324.352 1221.42 323.954 1222.08 323.668C1222.74 323.382 1223.48 323.238 1224.29 323.238C1225.53 323.238 1226.52 323.551 1227.25 324.176C1227.99 324.794 1228.37 325.667 1228.39 326.793V331.559C1228.39 332.509 1228.52 333.268 1228.79 333.834V334H1226.37ZM1223.76 332.291C1224.23 332.291 1224.67 332.177 1225.08 331.949C1225.49 331.721 1225.81 331.415 1226.01 331.031V329.039H1224.73C1223.86 329.039 1223.19 329.192 1222.75 329.498C1222.31 329.804 1222.09 330.237 1222.09 330.797C1222.09 331.253 1222.24 331.617 1222.54 331.891C1222.84 332.158 1223.25 332.291 1223.76 332.291ZM1236.4 325.602C1236.09 325.549 1235.77 325.523 1235.44 325.523C1234.35 325.523 1233.62 325.94 1233.24 326.773V334H1230.87V323.434H1233.13L1233.19 324.615C1233.76 323.697 1234.56 323.238 1235.57 323.238C1235.91 323.238 1236.19 323.284 1236.41 323.375L1236.4 325.602ZM1247.22 332.301C1247.82 332.301 1248.31 332.128 1248.7 331.783C1249.09 331.438 1249.3 331.012 1249.32 330.504H1251.56C1251.53 331.161 1251.33 331.777 1250.95 332.35C1250.56 332.916 1250.04 333.365 1249.38 333.697C1248.73 334.029 1248.02 334.195 1247.25 334.195C1245.78 334.195 1244.6 333.717 1243.74 332.76C1242.87 331.803 1242.44 330.481 1242.44 328.795V328.551C1242.44 326.943 1242.87 325.657 1243.73 324.693C1244.59 323.723 1245.76 323.238 1247.24 323.238C1248.5 323.238 1249.52 323.606 1250.31 324.342C1251.1 325.071 1251.52 326.031 1251.56 327.223H1249.32C1249.3 326.617 1249.09 326.119 1248.7 325.729C1248.32 325.338 1247.82 325.143 1247.22 325.143C1246.46 325.143 1245.86 325.423 1245.45 325.982C1245.03 326.536 1244.82 327.379 1244.81 328.512V328.893C1244.81 330.038 1245.02 330.895 1245.43 331.461C1245.84 332.021 1246.44 332.301 1247.22 332.301ZM1258.01 334.195C1256.5 334.195 1255.28 333.723 1254.34 332.779C1253.41 331.829 1252.95 330.566 1252.95 328.99V328.697C1252.95 327.643 1253.15 326.702 1253.55 325.875C1253.96 325.042 1254.54 324.394 1255.27 323.932C1256.01 323.469 1256.83 323.238 1257.73 323.238C1259.17 323.238 1260.28 323.697 1261.06 324.615C1261.85 325.533 1262.24 326.832 1262.24 328.512V329.469H1255.34C1255.41 330.341 1255.7 331.031 1256.21 331.539C1256.72 332.047 1257.37 332.301 1258.14 332.301C1259.23 332.301 1260.12 331.861 1260.8 330.982L1262.08 332.203C1261.65 332.835 1261.09 333.326 1260.38 333.678C1259.68 334.023 1258.88 334.195 1258.01 334.195ZM1257.72 325.143C1257.07 325.143 1256.54 325.37 1256.14 325.826C1255.74 326.282 1255.49 326.917 1255.38 327.73H1259.9V327.555C1259.85 326.76 1259.64 326.161 1259.27 325.758C1258.89 325.348 1258.38 325.143 1257.72 325.143ZM1266.62 334H1264.25V319H1266.62V334ZM1271.74 334H1269.36V319H1271.74V334ZM1280.25 331.129C1280.25 330.706 1280.08 330.383 1279.72 330.162C1279.38 329.941 1278.8 329.745 1278 329.576C1277.19 329.407 1276.51 329.192 1275.97 328.932C1274.79 328.359 1274.2 327.529 1274.2 326.441C1274.2 325.53 1274.58 324.768 1275.35 324.156C1276.12 323.544 1277.09 323.238 1278.28 323.238C1279.54 323.238 1280.56 323.551 1281.34 324.176C1282.12 324.801 1282.51 325.611 1282.51 326.607H1280.13C1280.13 326.152 1279.97 325.774 1279.63 325.475C1279.29 325.169 1278.84 325.016 1278.28 325.016C1277.76 325.016 1277.33 325.136 1277 325.377C1276.67 325.618 1276.51 325.94 1276.51 326.344C1276.51 326.708 1276.66 326.992 1276.97 327.193C1277.28 327.395 1277.9 327.6 1278.83 327.809C1279.76 328.01 1280.49 328.255 1281.01 328.541C1281.55 328.821 1281.94 329.16 1282.2 329.557C1282.46 329.954 1282.59 330.436 1282.59 331.002C1282.59 331.952 1282.19 332.724 1281.4 333.316C1280.62 333.902 1279.58 334.195 1278.31 334.195C1277.44 334.195 1276.67 334.039 1275.99 333.727C1275.32 333.414 1274.79 332.984 1274.41 332.438C1274.03 331.891 1273.85 331.301 1273.85 330.67H1276.15C1276.18 331.23 1276.39 331.663 1276.79 331.969C1277.18 332.268 1277.69 332.418 1278.34 332.418C1278.96 332.418 1279.44 332.301 1279.76 332.066C1280.09 331.826 1280.25 331.513 1280.25 331.129ZM1285 337.203L1283.72 336.441C1284.1 335.849 1284.35 335.331 1284.49 334.889C1284.63 334.452 1284.71 334.007 1284.71 333.551V331.705H1286.85L1286.84 333.414C1286.84 334.104 1286.66 334.794 1286.32 335.484C1285.98 336.181 1285.54 336.754 1285 337.203ZM1296.38 324.586C1297.15 323.688 1298.13 323.238 1299.31 323.238C1301.57 323.238 1302.71 324.524 1302.74 327.096V334H1300.37V327.184C1300.37 326.454 1300.21 325.94 1299.89 325.641C1299.58 325.335 1299.12 325.182 1298.5 325.182C1297.55 325.182 1296.84 325.605 1296.38 326.451V334H1294V319H1296.38V324.586ZM1307.67 334H1305.3V323.434H1307.67V334ZM1305.15 320.689C1305.15 320.325 1305.27 320.022 1305.5 319.781C1305.73 319.54 1306.06 319.42 1306.49 319.42C1306.92 319.42 1307.25 319.54 1307.49 319.781C1307.72 320.022 1307.84 320.325 1307.84 320.689C1307.84 321.048 1307.72 321.347 1307.49 321.588C1307.25 321.822 1306.92 321.939 1306.49 321.939C1306.06 321.939 1305.73 321.822 1305.5 321.588C1305.27 321.347 1305.15 321.048 1305.15 320.689ZM1309.85 328.639C1309.85 326.998 1310.24 325.689 1311 324.713C1311.78 323.73 1312.8 323.238 1314.08 323.238C1315.28 323.238 1316.23 323.658 1316.92 324.498L1317.03 323.434H1319.17V333.678C1319.17 335.064 1318.74 336.158 1317.87 336.959C1317.01 337.76 1315.85 338.16 1314.38 338.16C1313.61 338.16 1312.85 337.997 1312.11 337.672C1311.37 337.353 1310.81 336.933 1310.43 336.412L1311.55 334.986C1312.28 335.852 1313.18 336.285 1314.25 336.285C1315.03 336.285 1315.66 336.07 1316.11 335.641C1316.57 335.217 1316.79 334.592 1316.79 333.766V333.053C1316.11 333.814 1315.2 334.195 1314.06 334.195C1312.82 334.195 1311.81 333.704 1311.02 332.721C1310.24 331.738 1309.85 330.377 1309.85 328.639ZM1312.21 328.844C1312.21 329.905 1312.43 330.742 1312.86 331.354C1313.3 331.959 1313.9 332.262 1314.67 332.262C1315.62 332.262 1316.33 331.852 1316.79 331.031V326.383C1316.35 325.582 1315.64 325.182 1314.69 325.182C1313.9 325.182 1313.3 325.491 1312.86 326.109C1312.43 326.728 1312.21 327.639 1312.21 328.844ZM1323.95 324.586C1324.73 323.688 1325.71 323.238 1326.89 323.238C1329.15 323.238 1330.29 324.524 1330.32 327.096V334H1327.95V327.184C1327.95 326.454 1327.79 325.94 1327.47 325.641C1327.16 325.335 1326.69 325.182 1326.08 325.182C1325.13 325.182 1324.42 325.605 1323.95 326.451V334H1321.58V319H1323.95V324.586ZM1196.94 353.992L1199.18 346.434H1201.63L1197.97 357H1195.91L1192.21 346.434H1194.68L1196.94 353.992ZM1202.52 351.619C1202.52 350.584 1202.72 349.653 1203.13 348.826C1203.54 347.993 1204.12 347.355 1204.86 346.912C1205.6 346.463 1206.46 346.238 1207.42 346.238C1208.85 346.238 1210 346.697 1210.89 347.615C1211.78 348.533 1212.26 349.751 1212.33 351.268L1212.34 351.824C1212.34 352.866 1212.14 353.797 1211.74 354.617C1211.34 355.438 1210.77 356.072 1210.02 356.521C1209.28 356.971 1208.42 357.195 1207.44 357.195C1205.95 357.195 1204.75 356.701 1203.86 355.711C1202.96 354.715 1202.52 353.39 1202.52 351.736V351.619ZM1204.89 351.824C1204.89 352.911 1205.12 353.764 1205.56 354.383C1206.01 354.995 1206.64 355.301 1207.44 355.301C1208.24 355.301 1208.86 354.988 1209.3 354.363C1209.75 353.738 1209.98 352.824 1209.98 351.619C1209.98 350.551 1209.75 349.705 1209.29 349.08C1208.83 348.455 1208.21 348.143 1207.42 348.143C1206.65 348.143 1206.03 348.452 1205.57 349.07C1205.12 349.682 1204.89 350.6 1204.89 351.824ZM1216.87 357H1214.5V342H1216.87V357ZM1222.44 343.865V346.434H1224.3V348.191H1222.44V354.09C1222.44 354.493 1222.52 354.786 1222.67 354.969C1222.84 355.145 1223.12 355.232 1223.53 355.232C1223.81 355.232 1224.08 355.2 1224.36 355.135V356.971C1223.82 357.12 1223.3 357.195 1222.8 357.195C1220.98 357.195 1220.07 356.189 1220.07 354.178V348.191H1218.33V346.434H1220.07V343.865H1222.44ZM1232.44 357C1232.34 356.798 1232.24 356.469 1232.17 356.014C1231.41 356.801 1230.49 357.195 1229.39 357.195C1228.33 357.195 1227.47 356.893 1226.79 356.287C1226.12 355.682 1225.79 354.933 1225.79 354.041C1225.79 352.915 1226.21 352.052 1227.04 351.453C1227.88 350.848 1229.08 350.545 1230.63 350.545H1232.09V349.852C1232.09 349.305 1231.93 348.868 1231.63 348.543C1231.32 348.211 1230.86 348.045 1230.23 348.045C1229.69 348.045 1229.25 348.182 1228.9 348.455C1228.56 348.722 1228.39 349.064 1228.39 349.48H1226.01C1226.01 348.901 1226.21 348.361 1226.59 347.859C1226.97 347.352 1227.49 346.954 1228.15 346.668C1228.82 346.382 1229.56 346.238 1230.37 346.238C1231.61 346.238 1232.59 346.551 1233.33 347.176C1234.06 347.794 1234.44 348.667 1234.46 349.793V354.559C1234.46 355.509 1234.59 356.268 1234.86 356.834V357H1232.44ZM1229.83 355.291C1230.3 355.291 1230.74 355.177 1231.15 354.949C1231.57 354.721 1231.88 354.415 1232.09 354.031V352.039H1230.81C1229.93 352.039 1229.27 352.192 1228.83 352.498C1228.38 352.804 1228.16 353.237 1228.16 353.797C1228.16 354.253 1228.31 354.617 1228.61 354.891C1228.92 355.158 1229.32 355.291 1229.83 355.291ZM1236.53 351.639C1236.53 349.998 1236.92 348.689 1237.68 347.713C1238.46 346.73 1239.48 346.238 1240.76 346.238C1241.96 346.238 1242.91 346.658 1243.6 347.498L1243.71 346.434H1245.85V356.678C1245.85 358.064 1245.41 359.158 1244.55 359.959C1243.69 360.76 1242.53 361.16 1241.06 361.16C1240.29 361.16 1239.53 360.997 1238.79 360.672C1238.05 360.353 1237.49 359.933 1237.11 359.412L1238.23 357.986C1238.96 358.852 1239.86 359.285 1240.93 359.285C1241.71 359.285 1242.34 359.07 1242.79 358.641C1243.25 358.217 1243.47 357.592 1243.47 356.766V356.053C1242.79 356.814 1241.88 357.195 1240.74 357.195C1239.5 357.195 1238.49 356.704 1237.7 355.721C1236.92 354.738 1236.53 353.377 1236.53 351.639ZM1238.89 351.844C1238.89 352.905 1239.11 353.742 1239.54 354.354C1239.98 354.959 1240.58 355.262 1241.35 355.262C1242.3 355.262 1243.01 354.852 1243.47 354.031V349.383C1243.03 348.582 1242.32 348.182 1241.37 348.182C1240.58 348.182 1239.98 348.491 1239.54 349.109C1239.11 349.728 1238.89 350.639 1238.89 351.844ZM1252.95 357.195C1251.44 357.195 1250.22 356.723 1249.29 355.779C1248.35 354.829 1247.89 353.566 1247.89 351.99V351.697C1247.89 350.643 1248.09 349.702 1248.49 348.875C1248.9 348.042 1249.48 347.394 1250.21 346.932C1250.95 346.469 1251.77 346.238 1252.67 346.238C1254.11 346.238 1255.22 346.697 1256 347.615C1256.79 348.533 1257.19 349.832 1257.19 351.512V352.469H1250.28C1250.35 353.341 1250.64 354.031 1251.15 354.539C1251.66 355.047 1252.31 355.301 1253.08 355.301C1254.17 355.301 1255.06 354.861 1255.74 353.982L1257.02 355.203C1256.6 355.835 1256.03 356.326 1255.32 356.678C1254.62 357.023 1253.83 357.195 1252.95 357.195ZM1252.66 348.143C1252.01 348.143 1251.49 348.37 1251.08 348.826C1250.68 349.282 1250.43 349.917 1250.32 350.73H1254.84V350.555C1254.79 349.76 1254.58 349.161 1254.21 348.758C1253.84 348.348 1253.32 348.143 1252.66 348.143ZM1269.94 354.129C1269.94 353.706 1269.76 353.383 1269.41 353.162C1269.07 352.941 1268.49 352.745 1267.68 352.576C1266.88 352.407 1266.2 352.192 1265.66 351.932C1264.48 351.359 1263.88 350.529 1263.88 349.441C1263.88 348.53 1264.27 347.768 1265.04 347.156C1265.81 346.544 1266.78 346.238 1267.97 346.238C1269.23 346.238 1270.25 346.551 1271.02 347.176C1271.8 347.801 1272.2 348.611 1272.2 349.607H1269.82C1269.82 349.152 1269.65 348.774 1269.31 348.475C1268.98 348.169 1268.53 348.016 1267.97 348.016C1267.45 348.016 1267.02 348.136 1266.69 348.377C1266.36 348.618 1266.2 348.94 1266.2 349.344C1266.2 349.708 1266.35 349.992 1266.66 350.193C1266.96 350.395 1267.58 350.6 1268.51 350.809C1269.44 351.01 1270.17 351.255 1270.7 351.541C1271.24 351.821 1271.63 352.16 1271.88 352.557C1272.14 352.954 1272.27 353.436 1272.27 354.002C1272.27 354.952 1271.88 355.724 1271.09 356.316C1270.3 356.902 1269.27 357.195 1268 357.195C1267.13 357.195 1266.36 357.039 1265.68 356.727C1265 356.414 1264.48 355.984 1264.1 355.438C1263.72 354.891 1263.53 354.301 1263.53 353.67H1265.84C1265.87 354.23 1266.08 354.663 1266.47 354.969C1266.86 355.268 1267.38 355.418 1268.03 355.418C1268.65 355.418 1269.13 355.301 1269.45 355.066C1269.78 354.826 1269.94 354.513 1269.94 354.129ZM1283.63 353.729L1285.31 346.434H1287.62L1284.74 357H1282.79L1280.53 349.744L1278.3 357H1276.35L1273.46 346.434H1275.77L1277.48 353.65L1279.65 346.434H1281.43L1283.63 353.729ZM1291.74 357H1289.36V346.434H1291.74V357ZM1289.22 343.689C1289.22 343.325 1289.33 343.022 1289.56 342.781C1289.79 342.54 1290.12 342.42 1290.55 342.42C1290.98 342.42 1291.32 342.54 1291.55 342.781C1291.79 343.022 1291.9 343.325 1291.9 343.689C1291.9 344.048 1291.79 344.347 1291.55 344.588C1291.32 344.822 1290.98 344.939 1290.55 344.939C1290.12 344.939 1289.79 344.822 1289.56 344.588C1289.33 344.347 1289.22 344.048 1289.22 343.689ZM1297.3 343.865V346.434H1299.17V348.191H1297.3V354.09C1297.3 354.493 1297.38 354.786 1297.54 354.969C1297.7 355.145 1297.99 355.232 1298.4 355.232C1298.67 355.232 1298.95 355.2 1299.23 355.135V356.971C1298.69 357.12 1298.17 357.195 1297.66 357.195C1295.84 357.195 1294.93 356.189 1294.93 354.178V348.191H1293.19V346.434H1294.93V343.865H1297.3ZM1305.33 355.301C1305.92 355.301 1306.41 355.128 1306.8 354.783C1307.2 354.438 1307.4 354.012 1307.43 353.504H1309.67C1309.64 354.161 1309.43 354.777 1309.05 355.35C1308.67 355.916 1308.15 356.365 1307.49 356.697C1306.83 357.029 1306.12 357.195 1305.36 357.195C1303.88 357.195 1302.71 356.717 1301.84 355.76C1300.98 354.803 1300.54 353.481 1300.54 351.795V351.551C1300.54 349.943 1300.97 348.657 1301.83 347.693C1302.69 346.723 1303.87 346.238 1305.35 346.238C1306.61 346.238 1307.63 346.606 1308.42 347.342C1309.21 348.071 1309.63 349.031 1309.67 350.223H1307.43C1307.4 349.617 1307.2 349.119 1306.8 348.729C1306.42 348.338 1305.93 348.143 1305.33 348.143C1304.56 348.143 1303.97 348.423 1303.55 348.982C1303.14 349.536 1302.92 350.379 1302.92 351.512V351.893C1302.92 353.038 1303.12 353.895 1303.53 354.461C1303.95 355.021 1304.55 355.301 1305.33 355.301ZM1313.8 347.586C1314.57 346.688 1315.55 346.238 1316.74 346.238C1318.99 346.238 1320.13 347.524 1320.16 350.096V357H1317.79V350.184C1317.79 349.454 1317.63 348.94 1317.31 348.641C1317 348.335 1316.54 348.182 1315.93 348.182C1314.98 348.182 1314.27 348.605 1313.8 349.451V357H1311.42V342H1313.8V347.586ZM1322.16 351.639C1322.16 349.998 1322.54 348.689 1323.31 347.713C1324.08 346.73 1325.11 346.238 1326.38 346.238C1327.59 346.238 1328.54 346.658 1329.23 347.498L1329.33 346.434H1331.47V356.678C1331.47 358.064 1331.04 359.158 1330.17 359.959C1329.31 360.76 1328.15 361.16 1326.69 361.16C1325.91 361.16 1325.15 360.997 1324.41 360.672C1323.68 360.353 1323.12 359.933 1322.73 359.412L1323.86 357.986C1324.58 358.852 1325.48 359.285 1326.55 359.285C1327.34 359.285 1327.96 359.07 1328.42 358.641C1328.87 358.217 1329.1 357.592 1329.1 356.766V356.053C1328.42 356.814 1327.5 357.195 1326.37 357.195C1325.13 357.195 1324.12 356.704 1323.33 355.721C1322.55 354.738 1322.16 353.377 1322.16 351.639ZM1324.52 351.844C1324.52 352.905 1324.73 353.742 1325.16 354.354C1325.6 354.959 1326.2 355.262 1326.97 355.262C1327.93 355.262 1328.64 354.852 1329.1 354.031V349.383C1328.65 348.582 1327.95 348.182 1326.99 348.182C1326.21 348.182 1325.6 348.491 1325.16 349.109C1324.73 349.728 1324.52 350.639 1324.52 351.844ZM1338.57 357.195C1337.07 357.195 1335.85 356.723 1334.91 355.779C1333.98 354.829 1333.51 353.566 1333.51 351.99V351.697C1333.51 350.643 1333.72 349.702 1334.12 348.875C1334.53 348.042 1335.1 347.394 1335.84 346.932C1336.57 346.469 1337.39 346.238 1338.3 346.238C1339.74 346.238 1340.85 346.697 1341.63 347.615C1342.42 348.533 1342.81 349.832 1342.81 351.512V352.469H1335.91C1335.98 353.341 1336.27 354.031 1336.78 354.539C1337.29 355.047 1337.93 355.301 1338.71 355.301C1339.8 355.301 1340.68 354.861 1341.37 353.982L1342.64 355.203C1342.22 355.835 1341.65 356.326 1340.95 356.678C1340.24 357.023 1339.45 357.195 1338.57 357.195ZM1338.29 348.143C1337.64 348.143 1337.11 348.37 1336.71 348.826C1336.31 349.282 1336.06 349.917 1335.95 350.73H1340.47V350.555C1340.41 349.76 1340.2 349.161 1339.83 348.758C1339.46 348.348 1338.95 348.143 1338.29 348.143ZM1350.97 357C1350.87 356.798 1350.78 356.469 1350.7 356.014C1349.95 356.801 1349.02 357.195 1347.93 357.195C1346.87 357.195 1346 356.893 1345.33 356.287C1344.66 355.682 1344.32 354.933 1344.32 354.041C1344.32 352.915 1344.74 352.052 1345.57 351.453C1346.41 350.848 1347.61 350.545 1349.17 350.545H1350.62V349.852C1350.62 349.305 1350.47 348.868 1350.16 348.543C1349.86 348.211 1349.39 348.045 1348.77 348.045C1348.23 348.045 1347.78 348.182 1347.44 348.455C1347.09 348.722 1346.92 349.064 1346.92 349.48H1344.55C1344.55 348.901 1344.74 348.361 1345.12 347.859C1345.51 347.352 1346.03 346.954 1346.69 346.668C1347.35 346.382 1348.09 346.238 1348.9 346.238C1350.14 346.238 1351.13 346.551 1351.86 347.176C1352.6 347.794 1352.98 348.667 1353 349.793V354.559C1353 355.509 1353.13 356.268 1353.4 356.834V357H1350.97ZM1348.37 355.291C1348.84 355.291 1349.28 355.177 1349.69 354.949C1350.1 354.721 1350.41 354.415 1350.62 354.031V352.039H1349.34C1348.46 352.039 1347.8 352.192 1347.36 352.498C1346.92 352.804 1346.7 353.237 1346.7 353.797C1346.7 354.253 1346.85 354.617 1347.15 354.891C1347.45 355.158 1347.86 355.291 1348.37 355.291ZM1361.01 348.602C1360.7 348.549 1360.38 348.523 1360.05 348.523C1358.96 348.523 1358.23 348.94 1357.85 349.773V357H1355.48V346.434H1357.74L1357.8 347.615C1358.37 346.697 1359.17 346.238 1360.18 346.238C1360.52 346.238 1360.8 346.284 1361.02 346.375L1361.01 348.602ZM1361.15 360.203L1359.87 359.441C1360.25 358.849 1360.51 358.331 1360.64 357.889C1360.79 357.452 1360.86 357.007 1360.87 356.551V354.705H1363.01L1363 356.414C1362.99 357.104 1362.81 357.794 1362.47 358.484C1362.13 359.181 1361.69 359.754 1361.15 360.203ZM1199.14 377.129C1199.14 376.706 1198.96 376.383 1198.61 376.162C1198.27 375.941 1197.69 375.745 1196.88 375.576C1196.08 375.407 1195.4 375.192 1194.86 374.932C1193.68 374.359 1193.08 373.529 1193.08 372.441C1193.08 371.53 1193.47 370.768 1194.24 370.156C1195 369.544 1195.98 369.238 1197.17 369.238C1198.43 369.238 1199.45 369.551 1200.22 370.176C1201 370.801 1201.39 371.611 1201.39 372.607H1199.02C1199.02 372.152 1198.85 371.774 1198.51 371.475C1198.18 371.169 1197.73 371.016 1197.17 371.016C1196.65 371.016 1196.22 371.136 1195.89 371.377C1195.56 371.618 1195.4 371.94 1195.4 372.344C1195.4 372.708 1195.55 372.992 1195.86 373.193C1196.16 373.395 1196.78 373.6 1197.71 373.809C1198.64 374.01 1199.37 374.255 1199.9 374.541C1200.43 374.821 1200.83 375.16 1201.08 375.557C1201.34 375.954 1201.47 376.436 1201.47 377.002C1201.47 377.952 1201.08 378.724 1200.29 379.316C1199.5 379.902 1198.47 380.195 1197.2 380.195C1196.33 380.195 1195.56 380.039 1194.88 379.727C1194.2 379.414 1193.68 378.984 1193.3 378.438C1192.92 377.891 1192.73 377.301 1192.73 376.67H1195.04C1195.07 377.23 1195.28 377.663 1195.67 377.969C1196.06 378.268 1196.58 378.418 1197.22 378.418C1197.85 378.418 1198.32 378.301 1198.65 378.066C1198.98 377.826 1199.14 377.513 1199.14 377.129ZM1212.8 374.824C1212.8 376.458 1212.43 377.764 1211.69 378.74C1210.95 379.71 1209.95 380.195 1208.7 380.195C1207.54 380.195 1206.61 379.814 1205.92 379.053V384.062H1203.54V369.434H1205.73L1205.83 370.508C1206.52 369.661 1207.47 369.238 1208.67 369.238C1209.96 369.238 1210.97 369.72 1211.7 370.684C1212.43 371.641 1212.8 372.972 1212.8 374.678V374.824ZM1210.44 374.619C1210.44 373.564 1210.23 372.728 1209.8 372.109C1209.39 371.491 1208.79 371.182 1208.01 371.182C1207.04 371.182 1206.34 371.582 1205.92 372.383V377.07C1206.35 377.891 1207.05 378.301 1208.03 378.301C1208.78 378.301 1209.37 377.998 1209.79 377.393C1210.22 376.781 1210.44 375.856 1210.44 374.619ZM1220.35 371.602C1220.04 371.549 1219.71 371.523 1219.38 371.523C1218.3 371.523 1217.56 371.94 1217.19 372.773V380H1214.81V369.434H1217.08L1217.14 370.615C1217.71 369.697 1218.5 369.238 1219.52 369.238C1219.86 369.238 1220.14 369.284 1220.36 369.375L1220.35 371.602ZM1227.87 380C1227.76 379.798 1227.67 379.469 1227.6 379.014C1226.84 379.801 1225.92 380.195 1224.82 380.195C1223.76 380.195 1222.9 379.893 1222.22 379.287C1221.55 378.682 1221.22 377.933 1221.22 377.041C1221.22 375.915 1221.64 375.052 1222.47 374.453C1223.31 373.848 1224.51 373.545 1226.06 373.545H1227.52V372.852C1227.52 372.305 1227.36 371.868 1227.06 371.543C1226.75 371.211 1226.29 371.045 1225.66 371.045C1225.12 371.045 1224.68 371.182 1224.33 371.455C1223.99 371.722 1223.82 372.064 1223.82 372.48H1221.44C1221.44 371.901 1221.64 371.361 1222.02 370.859C1222.4 370.352 1222.92 369.954 1223.58 369.668C1224.25 369.382 1224.99 369.238 1225.8 369.238C1227.04 369.238 1228.02 369.551 1228.76 370.176C1229.49 370.794 1229.87 371.667 1229.89 372.793V377.559C1229.89 378.509 1230.02 379.268 1230.29 379.834V380H1227.87ZM1225.26 378.291C1225.73 378.291 1226.17 378.177 1226.58 377.949C1227 377.721 1227.31 377.415 1227.52 377.031V375.039H1226.24C1225.36 375.039 1224.7 375.192 1224.26 375.498C1223.81 375.804 1223.59 376.237 1223.59 376.797C1223.59 377.253 1223.74 377.617 1224.04 377.891C1224.35 378.158 1224.75 378.291 1225.26 378.291ZM1235.92 376.602L1238.06 369.434H1240.59L1236.39 381.602C1235.75 383.379 1234.66 384.268 1233.11 384.268C1232.77 384.268 1232.39 384.209 1231.97 384.092V382.256L1232.42 382.285C1233.02 382.285 1233.47 382.174 1233.77 381.953C1234.07 381.738 1234.31 381.374 1234.49 380.859L1234.83 379.951L1231.12 369.434H1233.68L1235.92 376.602ZM1251.29 378.301C1251.88 378.301 1252.37 378.128 1252.76 377.783C1253.15 377.438 1253.36 377.012 1253.39 376.504H1255.62C1255.6 377.161 1255.39 377.777 1255.01 378.35C1254.62 378.916 1254.1 379.365 1253.45 379.697C1252.79 380.029 1252.08 380.195 1251.32 380.195C1249.84 380.195 1248.67 379.717 1247.8 378.76C1246.93 377.803 1246.5 376.481 1246.5 374.795V374.551C1246.5 372.943 1246.93 371.657 1247.79 370.693C1248.65 369.723 1249.82 369.238 1251.31 369.238C1252.56 369.238 1253.59 369.606 1254.37 370.342C1255.17 371.071 1255.58 372.031 1255.62 373.223H1253.39C1253.36 372.617 1253.15 372.119 1252.76 371.729C1252.38 371.338 1251.89 371.143 1251.29 371.143C1250.52 371.143 1249.93 371.423 1249.51 371.982C1249.09 372.536 1248.88 373.379 1248.88 374.512V374.893C1248.88 376.038 1249.08 376.895 1249.49 377.461C1249.91 378.021 1250.51 378.301 1251.29 378.301ZM1263.73 380C1263.62 379.798 1263.53 379.469 1263.46 379.014C1262.7 379.801 1261.78 380.195 1260.68 380.195C1259.62 380.195 1258.75 379.893 1258.08 379.287C1257.41 378.682 1257.08 377.933 1257.08 377.041C1257.08 375.915 1257.49 375.052 1258.33 374.453C1259.17 373.848 1260.37 373.545 1261.92 373.545H1263.38V372.852C1263.38 372.305 1263.22 371.868 1262.92 371.543C1262.61 371.211 1262.15 371.045 1261.52 371.045C1260.98 371.045 1260.54 371.182 1260.19 371.455C1259.85 371.722 1259.68 372.064 1259.68 372.48H1257.3C1257.3 371.901 1257.49 371.361 1257.88 370.859C1258.26 370.352 1258.78 369.954 1259.44 369.668C1260.11 369.382 1260.84 369.238 1261.66 369.238C1262.9 369.238 1263.88 369.551 1264.62 370.176C1265.35 370.794 1265.73 371.667 1265.75 372.793V377.559C1265.75 378.509 1265.88 379.268 1266.15 379.834V380H1263.73ZM1261.12 378.291C1261.59 378.291 1262.03 378.177 1262.44 377.949C1262.86 377.721 1263.17 377.415 1263.38 377.031V375.039H1262.1C1261.22 375.039 1260.56 375.192 1260.12 375.498C1259.67 375.804 1259.45 376.237 1259.45 376.797C1259.45 377.253 1259.6 377.617 1259.9 377.891C1260.21 378.158 1260.61 378.291 1261.12 378.291ZM1270.44 369.434L1270.51 370.654C1271.29 369.71 1272.31 369.238 1273.58 369.238C1275.78 369.238 1276.9 370.498 1276.94 373.018V380H1274.57V373.154C1274.57 372.484 1274.42 371.989 1274.13 371.67C1273.84 371.344 1273.37 371.182 1272.71 371.182C1271.76 371.182 1271.04 371.615 1270.57 372.48V380H1268.2V369.434H1270.44ZM1285.29 377.129C1285.29 376.706 1285.12 376.383 1284.76 376.162C1284.42 375.941 1283.84 375.745 1283.04 375.576C1282.23 375.407 1281.55 375.192 1281.01 374.932C1279.83 374.359 1279.24 373.529 1279.24 372.441C1279.24 371.53 1279.62 370.768 1280.39 370.156C1281.16 369.544 1282.13 369.238 1283.32 369.238C1284.58 369.238 1285.6 369.551 1286.38 370.176C1287.16 370.801 1287.55 371.611 1287.55 372.607H1285.17C1285.17 372.152 1285 371.774 1284.67 371.475C1284.33 371.169 1283.88 371.016 1283.32 371.016C1282.8 371.016 1282.37 371.136 1282.04 371.377C1281.71 371.618 1281.55 371.94 1281.55 372.344C1281.55 372.708 1281.7 372.992 1282.01 373.193C1282.32 373.395 1282.93 373.6 1283.87 373.809C1284.8 374.01 1285.53 374.255 1286.05 374.541C1286.59 374.821 1286.98 375.16 1287.23 375.557C1287.49 375.954 1287.62 376.436 1287.62 377.002C1287.62 377.952 1287.23 378.724 1286.44 379.316C1285.66 379.902 1284.62 380.195 1283.35 380.195C1282.48 380.195 1281.71 380.039 1281.03 379.727C1280.36 379.414 1279.83 378.984 1279.45 378.438C1279.07 377.891 1278.88 377.301 1278.88 376.67H1281.19C1281.22 377.23 1281.43 377.663 1281.82 377.969C1282.21 378.268 1282.73 378.418 1283.38 378.418C1284 378.418 1284.48 378.301 1284.8 378.066C1285.13 377.826 1285.29 377.513 1285.29 377.129Z" fill="#FBC800"/>
<path d="M407 588V620" stroke="black" stroke-width="3"/>
<path d="M214 641V673" stroke="black" stroke-width="3"/>
<path d="M214 588V620" stroke="black" stroke-width="3"/>
<path d="M407 641V673" stroke="black" stroke-width="3"/>
<line x1="159.889" y1="568.583" x2="159.889" y2="531.583" stroke="black" stroke-width="3"/>
<line x1="166.889" y1="568.583" x2="166.889" y2="531.583" stroke="black" stroke-width="3"/>
<path d="M148.917 503.581C151.078 503.564 156.488 504.603 159.233 510.524" stroke="black" stroke-width="3"/>
<path d="M273 626.5H271.5V628V671V672.5H273H277.389H278.013L278.453 672.057L282.402 668.085H294.32L298.27 672.057L298.709 672.5H299.333H323.472H324.096L324.536 672.057L328.485 668.085H340.404L344.353 672.057L344.793 672.5H345.417H352H353.5V671V654.443V653.143L352.213 652.958L330.047 649.773L321.583 627.468L321.216 626.5H320.181H273Z" fill="white" stroke="black" stroke-width="3"/>
<path d="M299 677C299 683.075 294.075 688 288 688C281.925 688 277 683.075 277 677" stroke="black" stroke-width="3"/>
<path d="M346 677C346 683.075 340.851 688 334.5 688C328.149 688 323 683.075 323 677" stroke="black" stroke-width="3"/>
<path d="M325.676 638H306L306 650H334" stroke="black" stroke-width="3"/>
<rect x="282" y="638" width="12" height="12" fill="white" stroke="black" stroke-width="3"/>
<rect x="264.5" y="646.5" width="5" height="15" fill="white" stroke="black" stroke-width="3"/>
<path d="M330.622 502.455H366.5V566.972H250.5V502.455H279.513H281.013V500.955V482.662L304.492 502.11L306.949 504.145V500.955V482.724L329.648 502.096L330.069 502.455H330.622Z" stroke="black" stroke-width="3"/>
<rect x="331.5" y="531.972" width="20" height="35" stroke="black" stroke-width="3"/>
<path d="M250.5 492.889L254.99 433.972H267.508L270.5 492.87V566.972H250.5V492.889Z" fill="white" stroke="black" stroke-width="3"/>
<line x1="252" y1="488.972" x2="269" y2="488.972" stroke="black" stroke-width="3"/>
<line x1="251" y1="517.972" x2="270" y2="517.972" stroke="black" stroke-width="3"/>
<line x1="251" y1="527.972" x2="270" y2="527.972" stroke="black" stroke-width="3"/>
<line x1="251" y1="536.972" x2="270" y2="536.972" stroke="black" stroke-width="3"/>
<mask id="path-35-inside-1" fill="white">
<path fill-rule="evenodd" clip-rule="evenodd" d="M236.783 384C236.783 381.239 239.021 379 241.783 379H270.593C273.354 379 275.593 381.239 275.593 384V386.222C275.593 388.984 277.832 391.222 280.593 391.222H285.278C288.039 391.222 290.278 393.461 290.278 396.222V401.5C290.278 404.261 288.039 406.5 285.278 406.5H275.417C272.655 406.5 270.417 408.739 270.417 411.5V418.305C270.417 421.067 268.178 423.305 265.417 423.305H255.512C253.618 423.305 252.083 421.77 252.083 419.877V419.877C252.083 417.983 250.548 416.448 248.655 416.448H236.538C233.777 416.448 231.538 414.21 231.538 411.448V408.444C231.538 405.683 229.3 403.444 226.538 403.444H225C222.239 403.444 220 401.206 220 398.444V394.694C220 391.933 222.239 389.694 225 389.694H231.783C234.544 389.694 236.783 387.456 236.783 384.694V384Z"/>
</mask>
<path d="M270.593 376H241.783V382H270.593V376ZM278.593 386.222V384H272.593V386.222H278.593ZM285.278 388.222H280.593V394.222H285.278V388.222ZM293.278 401.5V396.222H287.278V401.5H293.278ZM275.417 409.5H285.278V403.5H275.417V409.5ZM267.417 411.5V418.305H273.417V411.5H267.417ZM265.417 420.305H255.512V426.305H265.417V420.305ZM236.538 419.448H248.655V413.448H236.538V419.448ZM228.538 408.444V411.448H234.538V408.444H228.538ZM225 406.444H226.538V400.444H225V406.444ZM217 394.694V398.444H223V394.694H217ZM231.783 386.694H225V392.694H231.783V386.694ZM233.783 384V384.694H239.783V384H233.783ZM231.783 392.694C236.201 392.694 239.783 389.113 239.783 384.694H233.783C233.783 385.799 232.887 386.694 231.783 386.694V392.694ZM223 394.694C223 393.59 223.895 392.694 225 392.694V386.694C220.582 386.694 217 390.276 217 394.694H223ZM225 400.444C223.895 400.444 223 399.549 223 398.444H217C217 402.863 220.582 406.444 225 406.444V400.444ZM234.538 408.444C234.538 404.026 230.956 400.444 226.538 400.444V406.444C227.643 406.444 228.538 407.34 228.538 408.444H234.538ZM236.538 413.448C235.434 413.448 234.538 412.553 234.538 411.448H228.538C228.538 415.867 232.12 419.448 236.538 419.448V413.448ZM255.083 419.877C255.083 416.327 252.205 413.448 248.655 413.448V419.448C248.891 419.448 249.083 419.64 249.083 419.877H255.083ZM255.512 420.305C255.275 420.305 255.083 420.114 255.083 419.877H249.083C249.083 423.427 251.962 426.305 255.512 426.305V420.305ZM267.417 418.305C267.417 419.41 266.521 420.305 265.417 420.305V426.305C269.835 426.305 273.417 422.724 273.417 418.305H267.417ZM275.417 403.5C270.998 403.5 267.417 407.082 267.417 411.5H273.417C273.417 410.395 274.312 409.5 275.417 409.5V403.5ZM287.278 401.5C287.278 402.605 286.382 403.5 285.278 403.5V409.5C289.696 409.5 293.278 405.918 293.278 401.5H287.278ZM285.278 394.222C286.382 394.222 287.278 395.118 287.278 396.222H293.278C293.278 391.804 289.696 388.222 285.278 388.222V394.222ZM272.593 386.222C272.593 390.64 276.175 394.222 280.593 394.222V388.222C279.488 388.222 278.593 387.327 278.593 386.222H272.593ZM241.783 376C237.365 376 233.783 379.582 233.783 384H239.783C239.783 382.895 240.678 382 241.783 382V376ZM270.593 382C271.697 382 272.593 382.895 272.593 384H278.593C278.593 379.582 275.011 376 270.593 376V382Z" fill="black" mask="url(#path-35-inside-1)"/>
<mask id="path-37-inside-2" fill="white">
<path fill-rule="evenodd" clip-rule="evenodd" d="M878.495 434.702C878.495 435.971 877.466 437 876.197 437L841.982 437C840.714 437 839.685 435.971 839.685 434.702V434.702L839.685 429.862C839.685 427.101 837.446 424.862 834.685 424.862L830 424.862C827.239 424.862 825 422.624 825 419.862L825 414.69C825 411.928 827.239 409.69 830 409.69L839.861 409.69C842.623 409.69 844.861 407.451 844.861 404.69L844.861 398C844.861 395.239 847.1 393 849.861 393L859.79 393C861.67 393 863.194 394.524 863.194 396.405V396.405C863.194 398.285 864.719 399.81 866.599 399.81L878.74 399.81C881.501 399.81 883.74 402.048 883.74 404.81L883.74 407.724C883.74 410.486 885.978 412.724 888.74 412.724L890.278 412.724C893.039 412.724 895.278 414.963 895.278 417.724L895.278 421.379C895.278 424.141 893.039 426.379 890.278 426.379L883.495 426.379C880.734 426.379 878.495 428.618 878.495 431.379L878.495 434.702V434.702ZM863.194 418.405C863.194 418.405 863.194 418.405 863.194 418.405L863.194 418.405C863.194 418.405 863.194 418.405 863.194 418.405V418.405C863.194 418.405 863.195 418.405 863.195 418.405L863.195 418.405C863.195 418.405 863.194 418.405 863.194 418.405V418.405Z"/>
</mask>
<path d="M878.74 399.81L878.74 402.81L878.74 399.81ZM866.599 399.81L866.599 402.81L866.599 399.81ZM839.861 409.69L839.861 406.69L839.861 409.69ZM844.861 404.69L847.861 404.69L844.861 404.69ZM839.685 429.862L836.685 429.862L839.685 429.862ZM841.982 440L876.197 440L876.197 434L841.982 434L841.982 440ZM836.685 429.862L836.685 434.702L842.685 434.702L842.685 429.862L836.685 429.862ZM830 427.862L834.685 427.862L834.685 421.862L830 421.862L830 427.862ZM822 414.69L822 419.862L828 419.862L828 414.69L822 414.69ZM839.861 406.69L830 406.69L830 412.69L839.861 412.69L839.861 406.69ZM847.861 404.69L847.861 398L841.861 398L841.861 404.69L847.861 404.69ZM849.861 396L859.79 396L859.79 390L849.861 390L849.861 396ZM878.74 396.81L866.599 396.81L866.599 402.81L878.74 402.81L878.74 396.81ZM886.74 407.724L886.74 404.81L880.74 404.81L880.74 407.724L886.74 407.724ZM890.278 409.724L888.74 409.724L888.74 415.724L890.278 415.724L890.278 409.724ZM898.278 421.379L898.278 417.724L892.278 417.724L892.278 421.379L898.278 421.379ZM883.495 429.379L890.278 429.379L890.278 423.379L883.495 423.379L883.495 429.379ZM881.495 434.702L881.495 431.379L875.495 431.379L875.495 434.702L881.495 434.702ZM860.194 418.405L860.194 418.405L866.194 418.405L866.194 418.405L860.194 418.405ZM860.195 418.405L860.195 418.405L866.195 418.405L866.195 418.405L860.195 418.405ZM866.195 418.405C866.195 416.748 864.851 415.405 863.194 415.405L863.194 421.405C861.538 421.405 860.195 420.062 860.195 418.405L866.195 418.405ZM863.194 421.405C864.851 421.405 866.195 420.062 866.195 418.405L860.195 418.405C860.195 416.748 861.538 415.405 863.194 415.405L863.194 421.405ZM860.194 418.405C860.194 420.062 861.538 421.405 863.194 421.405L863.194 415.405C864.851 415.405 866.194 416.748 866.194 418.405L860.194 418.405ZM866.194 418.405C866.194 420.062 864.851 421.405 863.194 421.405L863.194 415.405C861.538 415.405 860.194 416.748 860.194 418.405L866.194 418.405ZM883.495 423.379C879.077 423.379 875.495 426.961 875.495 431.379L881.495 431.379C881.495 430.275 882.39 429.379 883.495 429.379L883.495 423.379ZM892.278 421.379C892.278 422.484 891.382 423.379 890.278 423.379L890.278 429.379C894.696 429.379 898.278 425.798 898.278 421.379L892.278 421.379ZM890.278 415.724C891.382 415.724 892.278 416.62 892.278 417.724L898.278 417.724C898.278 413.306 894.696 409.724 890.278 409.724L890.278 415.724ZM878.74 402.81C879.844 402.81 880.74 403.705 880.74 404.81L886.74 404.81C886.74 400.391 883.158 396.81 878.74 396.81L878.74 402.81ZM860.194 396.405C860.194 399.942 863.062 402.81 866.599 402.81L866.599 396.81C866.376 396.81 866.194 396.628 866.194 396.405L860.194 396.405ZM859.79 396C860.013 396 860.194 396.181 860.194 396.405L866.194 396.405C866.194 392.868 863.327 390 859.79 390L859.79 396ZM847.861 398C847.861 396.896 848.757 396 849.861 396L849.861 390C845.443 390 841.861 393.582 841.861 398L847.861 398ZM839.861 412.69C844.279 412.69 847.861 409.108 847.861 404.69L841.861 404.69C841.861 405.794 840.966 406.69 839.861 406.69L839.861 412.69ZM830 421.862C828.895 421.862 828 420.967 828 419.862L822 419.862C822 424.281 825.582 427.862 830 427.862L830 421.862ZM842.685 429.862C842.685 425.444 839.103 421.862 834.685 421.862L834.685 427.862C835.789 427.862 836.685 428.758 836.685 429.862L842.685 429.862ZM876.197 440C879.123 440 881.495 437.628 881.495 434.702L875.495 434.702C875.495 434.314 875.809 434 876.197 434L876.197 440ZM828 414.69C828 413.585 828.895 412.69 830 412.69L830 406.69C825.582 406.69 822 410.272 822 414.69L828 414.69ZM880.74 407.724C880.74 412.142 884.321 415.724 888.74 415.724L888.74 409.724C887.635 409.724 886.74 408.829 886.74 407.724L880.74 407.724ZM841.982 434C842.37 434 842.685 434.314 842.685 434.702L836.685 434.702C836.685 437.628 839.057 440 841.982 440L841.982 434Z" fill="black" mask="url(#path-37-inside-2)"/>
<mask id="path-39-inside-3" fill="white">
<path fill-rule="evenodd" clip-rule="evenodd" d="M152.736 473.861C156.167 473.861 159.368 474.845 162.073 476.545C167.753 478.72 172.016 483.759 173.095 489.895C175.653 488.442 178.611 487.611 181.764 487.611C189.859 487.611 196.676 493.086 198.713 500.536C201.017 503.508 202.389 507.24 202.389 511.292C202.389 520.995 194.523 528.861 184.819 528.861C182.8 528.861 180.86 528.52 179.054 527.893C175.851 532.19 170.73 534.972 164.958 534.972C159.491 534.972 154.607 532.475 151.385 528.559C149.031 529.73 146.377 530.389 143.569 530.389C133.866 530.389 126 522.523 126 512.819C126 505.808 130.107 499.756 136.047 496.937C135.476 495.205 135.167 493.354 135.167 491.431C135.167 481.727 143.033 473.861 152.736 473.861Z"/>
</mask>
<path d="M162.073 476.545L160.476 479.085L160.725 479.241L161 479.346L162.073 476.545ZM173.095 489.895L170.14 490.415L170.877 494.607L174.577 492.504L173.095 489.895ZM198.713 500.536L195.819 501.327L195.976 501.902L196.342 502.374L198.713 500.536ZM179.054 527.893L180.038 525.059L177.962 524.338L176.648 526.1L179.054 527.893ZM151.385 528.559L153.701 526.653L152.185 524.81L150.049 525.873L151.385 528.559ZM136.047 496.937L137.333 499.648L139.725 498.513L138.896 495.998L136.047 496.937ZM163.669 474.005C160.5 472.013 156.748 470.861 152.736 470.861V476.861C155.586 476.861 158.236 477.676 160.476 479.085L163.669 474.005ZM176.05 489.376C174.785 482.183 169.794 476.289 163.145 473.743L161 479.346C165.712 481.151 169.247 485.335 170.14 490.415L176.05 489.376ZM181.764 484.611C178.078 484.611 174.611 485.583 171.613 487.287L174.577 492.504C176.695 491.3 179.145 490.611 181.764 490.611V484.611ZM201.607 499.744C199.222 491.024 191.246 484.611 181.764 484.611V490.611C188.473 490.611 194.13 495.148 195.819 501.327L201.607 499.744ZM205.389 511.292C205.389 506.551 203.781 502.177 201.084 498.697L196.342 502.374C198.253 504.839 199.389 507.928 199.389 511.292H205.389ZM184.819 531.861C196.18 531.861 205.389 522.652 205.389 511.292H199.389C199.389 519.338 192.866 525.861 184.819 525.861V531.861ZM178.07 530.727C180.188 531.463 182.46 531.861 184.819 531.861V525.861C183.139 525.861 181.532 525.578 180.038 525.059L178.07 530.727ZM176.648 526.1C173.987 529.67 169.742 531.972 164.958 531.972V537.972C171.717 537.972 177.714 534.71 181.459 529.686L176.648 526.1ZM164.958 531.972C160.426 531.972 156.378 529.906 153.701 526.653L149.068 530.465C152.836 535.044 158.557 537.972 164.958 537.972V531.972ZM143.569 533.389C146.851 533.389 149.961 532.618 152.721 531.245L150.049 525.873C148.1 526.842 145.903 527.389 143.569 527.389V533.389ZM123 512.819C123 524.18 132.209 533.389 143.569 533.389V527.389C135.523 527.389 129 520.866 129 512.819H123ZM134.761 494.227C127.814 497.523 123 504.606 123 512.819H129C129 507.01 132.4 501.988 137.333 499.648L134.761 494.227ZM132.167 491.431C132.167 493.677 132.528 495.845 133.198 497.877L138.896 495.998C138.424 494.565 138.167 493.031 138.167 491.431H132.167ZM152.736 470.861C141.376 470.861 132.167 480.071 132.167 491.431H138.167C138.167 483.384 144.69 476.861 152.736 476.861V470.861Z" fill="black" mask="url(#path-39-inside-3)"/>
<path d="M193.93 458.098L195.429 458.031C195.403 457.446 195.038 456.929 194.495 456.708C193.952 456.488 193.33 456.604 192.903 457.006L193.93 458.098ZM200.163 473.299L201.434 472.503L200.163 473.299ZM179.336 468.189L180.782 467.79C180.651 467.317 180.297 466.938 179.834 466.774C179.371 466.611 178.858 466.685 178.459 466.972L179.336 468.189ZM183.716 474.829L183.017 476.157C183.433 476.375 183.927 476.387 184.352 476.188C184.777 475.989 185.085 475.602 185.183 475.143L183.716 474.829ZM192.432 458.165C192.448 458.517 192.562 458.97 192.667 459.349C192.788 459.784 192.955 460.319 193.157 460.919C193.56 462.122 194.114 463.637 194.742 465.23C195.985 468.384 197.571 471.985 198.891 474.094L201.434 472.503C200.274 470.649 198.772 467.274 197.533 464.13C196.92 462.575 196.384 461.111 196.001 459.966C195.809 459.393 195.659 458.912 195.558 458.546C195.44 458.124 195.427 457.991 195.429 458.031L192.432 458.165ZM198.891 474.094C201.516 478.29 201.107 482.75 198.72 485.931C196.329 489.117 191.796 491.209 185.812 490.217L185.321 493.177C192.261 494.328 197.971 491.927 201.119 487.732C204.271 483.532 204.699 477.721 201.434 472.503L198.891 474.094ZM185.812 490.217C179.999 489.254 176.806 485.385 175.933 481.102C175.046 476.744 176.567 472.032 180.212 469.407L178.459 466.972C173.729 470.378 171.903 476.348 172.994 481.701C174.1 487.129 178.209 491.998 185.321 493.177L185.812 490.217ZM177.89 468.588C178.073 469.252 178.174 469.778 178.337 470.452C178.489 471.077 178.679 471.754 179.008 472.43C179.701 473.858 180.885 475.035 183.017 476.157L184.414 473.502C182.671 472.584 182.044 471.814 181.706 471.119C181.519 470.733 181.388 470.304 181.253 469.746C181.129 469.236 180.977 468.5 180.782 467.79L177.89 468.588ZM185.183 475.143C185.65 472.957 187.149 469.839 189.076 466.751C190.99 463.684 193.204 460.84 194.958 459.191L192.903 457.006C190.893 458.896 188.522 461.973 186.531 465.163C184.553 468.332 182.827 471.809 182.249 474.516L185.183 475.143Z" fill="black"/>
<path d="M192.459 475.389C192.891 476.871 191.527 481.252 192.459 483.028C194.482 486.885 191.716 492.32 186.283 491.414C180.851 490.508 182.002 491.775 185.537 489.139C185.851 490.331 184.056 486.847 185.537 484.09C185.986 481.962 190.074 476.114 192.459 475.389Z" stroke="black" stroke-width="3" stroke-linejoin="round"/>
<path d="M443.862 516.382C444.453 504.213 446.722 498.055 451.145 496.706C451.837 494.822 453.169 493.242 454.91 492.242C454.924 492.234 454.939 492.228 454.954 492.221L455.003 492.197C457.62 490.751 460.682 490.798 462.715 490.833C462.995 490.838 463.256 490.842 463.495 490.842C465.35 490.842 467.565 491.067 470.132 491.326C473.943 491.769 477.774 492.014 481.61 492.06C482.426 492.06 483.371 492.044 484.421 492.027L485.75 492.007C490.205 491.924 497.481 491.79 503.518 492.676C503.569 492.548 503.614 492.415 503.671 492.293C502.41 490.774 501.461 489.021 500.879 487.135C500.296 485.249 500.091 483.266 500.276 481.3C500.305 481.027 500.418 480.769 500.599 480.562C500.78 480.355 501.02 480.209 501.287 480.143C501.554 480.077 501.835 480.095 502.091 480.194C502.348 480.293 502.567 480.469 502.721 480.697C504.672 483.331 507.041 485.629 509.734 487.498C511.095 487.232 512.482 487.12 513.868 487.164H514.118C515.505 487.12 516.892 487.232 518.253 487.498C520.946 485.629 523.314 483.331 525.266 480.697C525.419 480.469 525.639 480.293 525.895 480.194C526.152 480.095 526.433 480.077 526.699 480.143C526.966 480.209 527.207 480.355 527.387 480.562C527.568 480.769 527.681 481.027 527.711 481.3C527.895 483.265 527.69 485.247 527.107 487.132C526.525 489.018 525.577 490.77 524.317 492.289C524.386 492.442 524.444 492.611 524.507 492.773C526.99 492.457 530.168 493.057 531.81 494.259C532.096 494.469 532.287 494.783 532.342 495.134C532.397 495.484 532.31 495.841 532.102 496.128C531.342 497.28 530.336 498.25 529.157 498.968C527.978 499.686 526.655 500.135 525.282 500.282C525.255 500.597 525.238 500.902 525.2 501.228C523.938 511.959 520.733 514.829 516.941 515.552C515.528 516.913 514.278 518.188 513.231 519.346C512.179 520.606 511.197 521.923 510.289 523.291C509.466 528.941 508.528 540.175 509.41 547.315C509.433 547.503 509.416 547.695 509.36 547.876C509.304 548.057 509.209 548.224 509.084 548.367C508.958 548.509 508.803 548.623 508.63 548.701C508.457 548.779 508.27 548.819 508.08 548.819H503.701C503.392 548.819 503.092 548.713 502.853 548.518C502.613 548.322 502.449 548.05 502.387 547.748C502.306 547.345 500.862 540.198 499.908 535.36C499.542 542.507 499.588 547.407 499.589 547.468C499.591 547.645 499.558 547.821 499.491 547.985C499.425 548.15 499.327 548.299 499.202 548.425C499.077 548.551 498.929 548.651 498.765 548.719C498.602 548.787 498.426 548.822 498.249 548.822H492.829C492.512 548.822 492.206 548.711 491.965 548.506C491.723 548.302 491.561 548.02 491.508 547.708C491.487 547.585 489.416 535.396 488.859 528.053C488.844 527.853 488.874 527.653 488.946 527.466C489.018 527.28 489.131 527.112 489.277 526.975C489.619 526.645 489.928 526.283 490.202 525.894C489.581 525.908 488.935 525.92 488.27 525.93C487.271 525.945 486.297 525.952 485.349 525.952H485.195C484.449 525.952 483.722 525.946 483.008 525.938C482.843 525.938 482.682 525.933 482.518 525.93C481.894 525.921 481.284 525.909 480.686 525.893C480.499 525.888 480.312 525.884 480.128 525.877C479.401 525.855 478.688 525.83 478.005 525.801C477.12 525.76 476.293 525.708 475.492 525.648C474.241 527.39 472.253 529.81 470.117 531.037L471.632 547.358C471.649 547.543 471.628 547.731 471.568 547.907C471.509 548.084 471.414 548.246 471.288 548.384C471.163 548.522 471.01 548.632 470.839 548.707C470.669 548.783 470.484 548.822 470.298 548.822H464.873C464.557 548.822 464.251 548.71 464.009 548.506C463.768 548.302 463.606 548.019 463.553 547.707C463.534 547.597 461.868 537.793 461.123 530.473C460.78 530.686 460.434 530.892 460.057 531.075L461.567 547.358C461.585 547.543 461.563 547.731 461.504 547.907C461.445 548.084 461.349 548.246 461.224 548.384C461.098 548.522 460.945 548.632 460.775 548.707C460.604 548.783 460.42 548.822 460.234 548.822H454.805C454.489 548.822 454.183 548.71 453.941 548.506C453.7 548.302 453.538 548.019 453.485 547.707C453.358 546.957 450.362 529.265 450.735 523.826C450.83 522.413 450.973 521.14 451.112 519.909C451.495 516.508 451.826 513.571 450.882 509.343C450.249 506.412 450.047 503.403 450.284 500.414C448.21 502.717 446.957 508.09 446.544 516.464C447.567 517.009 448.626 518.364 448.626 521.663C448.516 524.005 447.643 526.247 446.142 528.047C446.016 528.191 445.861 528.307 445.687 528.386C445.513 528.465 445.324 528.506 445.133 528.506C444.942 528.506 444.753 528.465 444.579 528.386C444.405 528.307 444.25 528.191 444.124 528.047C442.623 526.247 441.75 524.005 441.64 521.663C441.637 518.204 442.797 516.874 443.862 516.382V516.382ZM469.861 493.988C467.368 493.737 465.214 493.518 463.495 493.518C463.242 493.518 462.965 493.514 462.669 493.508C461.286 493.444 459.9 493.527 458.535 493.754C462.336 496.557 465.84 500.587 468.295 503.414C469.185 504.439 469.953 505.323 470.403 505.751C471.561 506.844 475.001 507.702 477.976 506.611C480.462 505.701 481.891 503.736 482.224 500.771C482.377 498.708 482.798 496.674 483.478 494.72C482.801 494.73 482.177 494.738 481.609 494.738C477.683 494.692 473.762 494.441 469.861 493.988V493.988ZM502.603 497.572C502.623 496.842 502.689 496.114 502.801 495.393C501.561 495.307 500.315 495.442 499.122 495.792C500.061 496.744 501.282 497.368 502.603 497.572V497.572ZM503.173 485.403C503.567 487.025 504.268 488.556 505.24 489.913C505.697 489.433 506.213 489.014 506.776 488.664C505.501 487.662 504.297 486.572 503.173 485.403ZM521.216 488.665C521.777 489.015 522.292 489.434 522.747 489.914C523.719 488.556 524.421 487.025 524.814 485.403C523.692 486.572 522.489 487.662 521.216 488.665V488.665ZM525.19 495.393C525.302 496.115 525.368 496.843 525.388 497.573C526.709 497.369 527.93 496.744 528.87 495.792C527.677 495.442 526.431 495.307 525.19 495.393ZM522.544 500.915C523.043 496.677 522.5 493.638 520.932 491.881C519.215 489.958 516.508 489.839 514.549 489.839H513.86C512.554 489.786 511.246 489.902 509.97 490.186C509.903 490.212 509.835 490.232 509.764 490.247C508.726 490.524 507.788 491.092 507.059 491.883C505.491 493.638 504.949 496.677 505.452 500.917C506.884 513.099 510.505 513.103 513.998 513.107C514.673 513.12 515.348 513.09 516.019 513.016C516.065 513.007 516.112 513 516.16 512.996C518.893 512.579 521.407 510.583 522.544 500.915V500.915ZM501.331 530.251C501.581 530.452 501.75 530.737 501.808 531.052C502.247 533.438 504.154 542.919 504.802 546.14H506.6C506.079 540.065 506.588 531.92 507.224 526.206C505.294 527.668 503.213 528.92 501.018 529.942C501.205 530.143 501.331 530.251 501.331 530.251V530.251ZM480.302 523.202C480.514 523.208 480.735 523.212 480.95 523.218C481.437 523.23 481.933 523.24 482.438 523.248C482.752 523.253 483.07 523.257 483.391 523.26C483.873 523.265 484.365 523.267 484.864 523.268C485.144 523.268 485.419 523.268 485.706 523.268C486.41 523.268 487.13 523.26 487.861 523.25L488.717 522.702C492.481 520.299 494.968 518.71 495.689 516.622C495.783 516.331 495.795 516.019 495.722 515.722C495.65 515.425 495.497 515.153 495.28 514.937C494.07 513.377 491.146 512.213 488.896 512.402C485.872 512.652 484.493 512.766 481.412 520.325C480.999 521.337 480.583 522.297 480.169 523.195L480.302 523.202ZM466.008 546.14H468.832L467.367 530.362C467.34 530.072 467.408 529.782 467.562 529.534C467.715 529.286 467.945 529.095 468.216 528.99C469.365 528.543 470.842 527.229 472.351 525.356C470.325 525.171 468.328 524.749 466.401 524.1C465.779 525.718 464.834 527.191 463.624 528.432C464.12 534.362 465.505 543.073 466.008 546.14V546.14ZM453.772 520.206C453.637 521.408 453.497 522.65 453.406 524.005C453.105 528.383 455.279 542.119 455.939 546.14H458.764L457.3 530.362C457.273 530.073 457.34 529.783 457.492 529.535C457.644 529.288 457.872 529.097 458.142 528.99C462.397 527.324 464.154 523.178 464.122 522.348C464.069 522.079 464.101 521.8 464.211 521.55C464.322 521.299 464.507 521.089 464.741 520.946C464.975 520.804 465.247 520.737 465.521 520.754C465.794 520.771 466.056 520.871 466.271 521.042C467.006 521.627 469.427 522.65 477.257 523.072C477.812 521.934 478.371 520.675 478.93 519.312C482.095 511.543 484.138 510.109 488.674 509.731C491.813 509.475 495.641 511.037 497.395 513.295C497.881 513.866 498.212 514.553 498.357 515.289C498.501 516.025 498.454 516.786 498.219 517.498C497.441 519.755 495.547 521.385 492.891 523.182C493.068 523.217 493.236 523.288 493.384 523.39C493.532 523.492 493.658 523.623 493.754 523.776C493.878 523.974 493.949 524.2 493.958 524.434C493.968 524.667 493.916 524.899 493.809 525.106C493.211 526.309 492.463 527.432 491.585 528.448C492.082 534.379 493.466 543.079 493.969 546.14H496.915C496.928 543.47 497.026 537.105 497.604 529.296C497.604 529.277 497.613 529.26 497.615 529.242C497.626 529.153 497.645 529.066 497.672 528.982C497.68 528.958 497.685 528.934 497.694 528.911C497.733 528.811 497.785 528.716 497.847 528.629C497.863 528.606 497.883 528.586 497.901 528.565C497.95 528.503 498.005 528.445 498.065 528.393C498.095 528.367 498.123 528.343 498.155 528.317C498.228 528.263 498.307 528.217 498.389 528.18C498.405 528.173 498.417 528.161 498.432 528.154C501.93 526.748 505.13 524.694 507.865 522.099C507.877 522.079 507.892 522.062 507.905 522.044C508.933 520.477 510.051 518.973 511.256 517.538C511.768 516.972 512.332 516.375 512.932 515.759C508.346 515.554 504.253 513.704 502.785 501.226C502.747 500.9 502.73 500.594 502.703 500.28C501.33 500.133 500.007 499.685 498.828 498.967C497.648 498.25 496.642 497.28 495.881 496.128C495.734 495.924 495.647 495.682 495.63 495.431C495.614 495.179 495.67 494.928 495.79 494.707C492.367 494.579 489.043 494.623 486.488 494.669C485.858 495.679 485.328 497.144 484.88 501.071C484.437 505.013 482.31 507.875 478.891 509.128C477.641 509.578 476.322 509.805 474.994 509.799C472.315 509.799 469.848 508.919 468.554 507.697C468.007 507.178 467.238 506.293 466.265 505.17C463.755 502.279 459.645 497.55 455.596 494.988C452.84 497.089 452.133 501.734 453.496 508.789C454.537 513.421 454.168 516.718 453.772 520.206V520.206ZM445.127 524.716C445.633 523.772 445.911 522.724 445.94 521.654C445.94 519.563 445.442 518.782 445.127 518.782C444.813 518.782 444.313 519.563 444.313 521.654C444.343 522.724 444.623 523.773 445.13 524.716H445.127Z" fill="black"/>
<mask id="path-45-inside-4" fill="white">
<rect x="554" y="522" width="85" height="67" rx="2"/>
</mask>
<rect x="554" y="522" width="85" height="67" rx="2" stroke="black" stroke-width="6" mask="url(#path-45-inside-4)"/>
<mask id="path-46-inside-5" fill="white">
<rect x="571" y="546" width="20" height="22" rx="2"/>
</mask>
<rect x="571" y="546" width="20" height="22" rx="2" stroke="black" stroke-width="6" mask="url(#path-46-inside-5)"/>
<mask id="path-47-inside-6" fill="white">
<rect x="636" y="544" width="20" height="22" rx="2"/>
</mask>
<rect x="636" y="544" width="20" height="22" rx="2" stroke="black" stroke-width="6" mask="url(#path-47-inside-6)"/>
<mask id="path-48-inside-7" fill="white">
<rect x="600" y="546" width="20" height="22" rx="2"/>
</mask>
<rect x="600" y="546" width="20" height="22" rx="2" stroke="black" stroke-width="6" mask="url(#path-48-inside-7)"/>
<path d="M659.5 555C659.5 557.836 658.87 560.329 657.926 562.06C656.951 563.847 655.851 564.5 655 564.5C654.149 564.5 653.049 563.847 652.074 562.06C651.13 560.329 650.5 557.836 650.5 555C650.5 552.164 651.13 549.671 652.074 547.94C653.049 546.153 654.149 545.5 655 545.5C655.851 545.5 656.951 546.153 657.926 547.94C658.87 549.671 659.5 552.164 659.5 555Z" fill="white" stroke="black" stroke-width="3"/>
<path d="M656 555.312C656 555.312 676.065 560.059 673 585.312" stroke="black" stroke-width="3" stroke-linecap="round" stroke-dasharray="4 5"/>
<path d="M939.827 538.947C943.385 538.947 946.28 541.842 946.28 545.4C946.28 548.959 943.385 551.853 939.827 551.853C936.268 551.853 933.373 548.959 933.373 545.4C933.373 541.842 936.268 538.947 939.827 538.947ZM939.827 549.151C941.895 549.151 943.577 547.468 943.577 545.4C943.577 543.332 941.895 541.65 939.827 541.65C937.759 541.65 936.076 543.332 936.076 545.4C936.076 547.468 937.759 549.151 939.827 549.151Z" fill="black"/>
<path d="M925.115 521.791V498.797V493.6C925.115 492.854 925.72 492.248 926.467 492.248H931.461C932.207 492.248 932.812 492.854 932.812 493.6C932.812 494.346 932.207 494.951 931.461 494.951H927.818V497.445H963.972H971.145V494.951H930.768C930.022 494.951 929.416 494.346 929.416 493.6C929.416 492.854 930.022 492.248 930.768 492.248H972.496C973.242 492.248 973.848 492.854 973.848 493.6V498.797C973.848 499.543 973.242 500.148 972.496 500.148H965.738L971.183 520.251H980.351V505.08C980.351 502.935 982.09 501.196 984.235 501.196H984.774V492.408C984.774 490.657 983.354 489.238 981.603 489.238H980.228C979.482 489.238 978.877 488.632 978.877 487.886C978.877 487.14 979.482 486.535 980.228 486.535H981.603C984.847 486.535 987.477 489.164 987.477 492.408V501.196H987.694C989.839 501.196 991.578 502.935 991.578 505.08V520.251H995.562C999.67 520.251 1003 523.581 1003 527.688V553.08C1003 553.087 1003 553.094 1003 553.101C1003 561.573 996.108 568.465 987.636 568.465C979.62 568.465 973.023 562.293 972.335 554.453H970.149L961.04 554.453C957.514 562.684 949.333 568.465 939.827 568.465C927.563 568.465 917.505 558.843 916.803 546.752H913.351C912.605 546.752 912 546.146 912 545.4C912 535.454 917.246 526.713 925.115 521.791ZM988.874 505.08C988.874 504.429 988.344 503.899 987.693 503.899H984.234C983.583 503.899 983.053 504.429 983.053 505.08V520.25H988.874V505.08ZM987.636 565.762C994.617 565.762 1000.3 560.082 1000.3 553.101L1000.3 553.08C1000.29 546.109 994.611 540.44 987.636 540.44C980.655 540.44 974.976 546.12 974.976 553.101C974.976 560.082 980.655 565.762 987.636 565.762ZM967.652 551.75H968.797L968.839 551.75C968.839 551.75 969.445 551.75 970.191 551.75C970.938 551.75 971.542 551.75 971.542 551.75H971.5C971.174 551.75 972.335 551.75 972.335 551.75C973.022 543.909 979.62 537.737 987.636 537.737C992.884 537.737 997.524 540.384 1000.3 544.41V527.69C1000.3 525.074 998.176 522.954 995.56 522.954H971.5V534.306C971.5 535.052 970.895 535.657 970.149 535.657C969.403 535.657 968.797 535.052 968.797 534.306V521.781L962.938 500.149H927.818V520.302C928.602 519.925 929.406 519.584 930.229 519.28V503.911C930.229 503.165 930.834 502.56 931.581 502.56H960.058C960.668 502.56 961.203 502.969 961.362 503.558L966.339 521.929C966.483 522.464 966.289 523.048 965.813 523.388C965.58 523.554 965.295 523.631 965.009 523.634L957.235 523.71C963.582 528.814 967.652 536.641 967.652 545.401V551.75ZM932.932 505.263V518.439C935.138 517.875 937.448 517.574 939.827 517.574C944.7 517.574 949.284 518.835 953.271 521.045L963.272 520.948L959.023 505.263H932.932ZM939.827 565.762C951.054 565.762 960.189 556.627 960.189 545.4C960.189 534.172 951.054 525.038 939.827 525.038C928.599 525.038 919.465 534.173 919.465 545.4C919.465 556.628 928.599 565.762 939.827 565.762ZM916.803 544.049C917.504 531.958 927.562 522.336 939.827 522.336C952.544 522.336 962.891 532.682 962.891 545.4C962.891 547.602 962.581 549.732 962.002 551.749H964.949V545.401C964.949 531.547 953.679 520.277 939.827 520.277C926.427 520.277 915.443 530.822 914.739 544.049H916.803Z" fill="black"/>
<path d="M987.636 544.965C992.123 544.965 995.773 548.615 995.773 553.101C995.773 557.588 992.123 561.237 987.636 561.237C983.15 561.237 979.5 557.588 979.5 553.101C979.5 548.615 983.15 544.965 987.636 544.965ZM987.636 558.535C990.632 558.535 993.07 556.097 993.07 553.101C993.07 550.105 990.632 547.668 987.636 547.668C984.64 547.668 982.203 550.105 982.203 553.101C982.203 556.097 984.64 558.535 987.636 558.535Z" fill="black"/>
<path d="M996.755 525.575C997.501 525.575 998.107 526.18 998.107 526.926V536.303C998.107 537.049 997.501 537.654 996.755 537.654C993.425 537.654 990.715 534.945 990.715 531.614C990.715 528.284 993.425 525.575 996.755 525.575ZM995.404 534.665V528.564C994.235 529.084 993.418 530.256 993.418 531.615C993.418 532.974 994.235 534.146 995.404 534.665Z" fill="black"/>
<mask id="path-56-inside-8" fill="white">
<rect x="827" y="506.5" width="67" height="62" rx="1"/>
</mask>
<rect x="827" y="506.5" width="67" height="62" rx="1" stroke="black" stroke-width="6" stroke-linejoin="round" mask="url(#path-56-inside-8)"/>
<rect x="846.5" y="485" width="27" height="23" stroke="black" stroke-width="3" stroke-linejoin="round"/>
<rect x="842.5" y="539" width="36" height="28" stroke="black" stroke-width="3" stroke-linejoin="round"/>
<rect x="840.5" y="521" width="9" height="10" stroke="black" stroke-width="3" stroke-linejoin="round"/>
<rect x="855.5" y="521" width="9" height="10" stroke="black" stroke-width="3" stroke-linejoin="round"/>
<rect x="870.5" y="521" width="9" height="10" stroke="black" stroke-width="3" stroke-linejoin="round"/>
<path d="M825.072 436H894.928C895.29 436 895.532 436.372 895.386 436.702L874.023 485H845.977L824.614 436.702C824.468 436.372 824.71 436 825.072 436Z" stroke="black" stroke-width="3" stroke-linejoin="round"/>
<path d="M1090.77 494.5H1115.23C1115.49 494.5 1115.7 494.688 1115.73 494.938L1124.71 566.796C1124.77 567.284 1124.17 567.558 1123.84 567.191L1105.62 546.685C1104.22 545.119 1101.78 545.119 1100.38 546.685L1082.16 567.191C1081.83 567.558 1081.23 567.284 1081.29 566.796L1090.27 494.938C1090.3 494.688 1090.51 494.5 1090.77 494.5Z" stroke="#FBC800" stroke-width="3" stroke-linejoin="round"/>
<path d="M1104.4 518.688L1117.06 529.134C1117.76 529.708 1117.79 530.764 1117.14 531.383L1104.47 543.31C1103.91 543.842 1103.03 543.855 1102.45 543.338L1089.05 531.415C1088.35 530.792 1088.38 529.687 1089.12 529.111L1102.52 518.662C1103.08 518.23 1103.86 518.241 1104.4 518.688Z" stroke="#FBC800" stroke-width="3"/>
<path d="M1135 494L1077.85 494C1074.93 494 1073.73 497.742 1076.1 499.44L1101.12 517.336C1102.29 518.176 1103.9 518.061 1104.94 517.062L1117 505.5" stroke="#FBC800" stroke-width="3" stroke-linecap="round"/>
<path d="M1084.43 472.5H1121.57C1122.63 472.5 1123.36 473.572 1122.96 474.557L1115.36 493.557C1115.13 494.127 1114.58 494.5 1113.97 494.5H1092.03C1091.42 494.5 1090.87 494.127 1090.64 493.557L1083.04 474.557C1082.64 473.572 1083.37 472.5 1084.43 472.5Z" stroke="#FBC800" stroke-width="3"/>
<line x1="1075.5" y1="472.5" x2="1128.5" y2="472.5" stroke="#FBC800" stroke-width="3" stroke-linecap="round"/>
<path d="M1103.4 437.294L1095.4 448.294L1110.5 448.294L1103.4 460.5" stroke="#FBC800" stroke-width="3" stroke-linecap="round" stroke-linejoin="round"/>
<g filter="url(#filter3_d)">
<circle cx="1168" cy="410" r="23" fill="#FBC800"/>
</g>
<line x1="1168.29" y1="399.105" x2="1168.29" y2="422.105" stroke="white" stroke-width="3"/>
<path d="M1180.11 411.21L1156.5 411.21" stroke="white" stroke-width="3"/>
<rect x="1147.5" y="533" width="28" height="5" rx="2.5" stroke="#FBC800" stroke-width="3" stroke-linejoin="round"/>
<rect x="1147.5" y="562" width="28" height="5" rx="2.5" stroke="#FBC800" stroke-width="3" stroke-linejoin="round"/>
<line x1="1149.5" y1="538.5" x2="1149.5" y2="561.5" stroke="#FBC800" stroke-width="3"/>
<line x1="1173.5" y1="538.5" x2="1173.5" y2="561.5" stroke="#FBC800" stroke-width="3"/>
<path d="M1173 533.5V531.5C1173 528.739 1170.76 526.5 1168 526.5H1156C1153.24 526.5 1151 528.739 1151 531.5V533.5" stroke="#FBC800" stroke-width="3"/>
<path d="M1166 519.5H1167.5C1167.5 518.672 1166.83 518 1166 518V519.5ZM1163 521H1166V518H1163V521ZM1164.5 519.5V526.5H1167.5V519.5H1164.5ZM1159.5 526.5V524.5H1156.5V526.5H1159.5ZM1163 518C1159.41 518 1156.5 520.91 1156.5 524.5H1159.5C1159.5 522.567 1161.07 521 1163 521V518Z" fill="#FBC800"/>
<path d="M1173 557.5C1168.03 557.5 1164 554.366 1164 550.5C1164 546.634 1168.03 543.5 1173 543.5" stroke="#FBC800" stroke-width="3"/>
<line x1="1175.3" y1="519.826" x2="1188.33" y2="518.198" stroke="#FBC800" stroke-width="3" stroke-linecap="round"/>
<line x1="1175.74" y1="524.293" x2="1183.79" y2="525.756" stroke="#FBC800" stroke-width="3" stroke-linecap="round"/>
<path d="M1216.5 553.217L1225.72 464.218H1278.3L1287.52 553.217V567.1H1216.5V553.217Z" stroke="#FBC800" stroke-width="3" stroke-linejoin="round"/>
<path d="M1222.29 456L1225.4 464.029H1278.53L1280.87 455.969L1278.68 451.1H1225.22L1222.29 456Z" stroke="#FBC800" stroke-width="3" stroke-linejoin="round"/>
<line x1="1215.94" y1="553.982" x2="1287.15" y2="553.982" stroke="#FBC800" stroke-width="3" stroke-linejoin="round"/>
<line x1="1216.79" y1="566.564" x2="1229.91" y2="554.383" stroke="#FBC800" stroke-width="3" stroke-linejoin="round"/>
<line y1="-1.5" x2="19.6772" y2="-1.5" transform="matrix(0.732783 -0.680462 0.68044 0.732804 1235.61 568.6)" stroke="#FBC800" stroke-width="3" stroke-linejoin="round"/>
<line y1="-1.5" x2="19.6772" y2="-1.5" transform="matrix(0.73278 -0.680465 0.680437 0.732807 1254.35 568.6)" stroke="#FBC800" stroke-width="3" stroke-linejoin="round"/>
<line y1="-1.5" x2="19.6772" y2="-1.5" transform="matrix(0.732783 -0.680462 0.68044 0.732804 1273.09 568.6)" stroke="#FBC800" stroke-width="3" stroke-linejoin="round"/>
<path d="M1258.06 492.703V471.151C1252.75 471.308 1243.34 475.836 1248.22 492.703" stroke="#FBC800" stroke-width="3" stroke-linejoin="round"/>
<path d="M1244.91 499.262L1226.24 510.037C1229.03 514.557 1237.66 520.435 1249.83 507.782" stroke="#FBC800" stroke-width="3" stroke-linejoin="round"/>
<path d="M1256.23 507.084L1274.89 517.86C1277.41 513.183 1278.19 502.777 1261.15 498.564" stroke="#FBC800" stroke-width="3" stroke-linejoin="round"/>
<circle cx="1252.95" cy="499.73" r="8.33859" stroke="#FBC800" stroke-width="3" stroke-linejoin="round"/>
<circle cx="1252.95" cy="499.73" r="3.65355" stroke="#FBC800" stroke-width="3" stroke-linejoin="round"/>
<line y1="-1.5" x2="46.1012" y2="-1.5" transform="matrix(-0.0508473 0.998706 -0.998388 -0.0567561 1249.2 507.695)" stroke="#FBC800" stroke-width="3" stroke-linejoin="round"/>
<line y1="-1.5" x2="46.9323" y2="-1.5" transform="matrix(0.0201082 0.999798 -1 0.00040714 1254.22 507.905)" stroke="#FBC800" stroke-width="3" stroke-linejoin="round"/>
<path d="M1370.22 558.5L1348.61 525.5H1307.74L1328.85 558.5H1370.22Z" stroke="#FBC800" stroke-width="3" stroke-linecap="round" stroke-linejoin="round"/>
<path d="M1358.22 558.5L1336.54 525.5H1322.77L1344.27 558.5H1358.22Z" stroke="#FBC800" stroke-width="3" stroke-linecap="round" stroke-linejoin="round"/>
<path d="M1322 548.115L1362.68 548.234L1355.19 536.833L1314.58 536.565L1322 548.115Z" stroke="#FBC800" stroke-width="3" stroke-linecap="round" stroke-linejoin="round"/>
<path d="M1370.64 559.364V566C1370.64 566.552 1370.19 567 1369.64 567H1307C1306.45 567 1306 566.552 1306 566V525" stroke="#FBC800" stroke-width="3" stroke-linecap="round" stroke-linejoin="round"/>
<line x1="1329.5" y1="559.5" x2="1329.5" y2="565.5" stroke="#FBC800" stroke-width="3" stroke-linecap="round" stroke-linejoin="round"/>
<circle r="8.05887" transform="matrix(-1 0 0 1 1359.9 480.752)" stroke="#FBC800" stroke-width="3"/>
<line x1="1.5" y1="-1.5" x2="24.7641" y2="-1.5" transform="matrix(-0.707116 0.707097 0.707116 0.707097 1349.24 489.219)" stroke="#FBC800" stroke-width="3" stroke-linecap="round"/>
<line x1="1.5" y1="-1.5" x2="18.164" y2="-1.5" transform="matrix(0 1 1 0 1359.62 494.135)" stroke="#FBC800" stroke-width="3" stroke-linecap="round"/>
<line x1="1.5" y1="-1.5" x2="18.1716" y2="-1.5" transform="matrix(-0.999615 -0.0277507 -0.0277834 0.999614 1344.87 478.84)" stroke="#FBC800" stroke-width="3" stroke-linecap="round"/>
<line x1="1.5" y1="-1.5" x2="11.2984" y2="-1.5" transform="matrix(0.768217 0.640189 0.64018 -0.768225 1370.55 489.765)" stroke="#FBC800" stroke-width="3" stroke-linecap="round"/>
<line x1="1.5" y1="-1.5" x2="11.2984" y2="-1.5" transform="matrix(0.768221 0.640184 0.640184 -0.768221 1338.87 463)" stroke="#FBC800" stroke-width="3" stroke-linecap="round"/>
<path d="M136.133 371.26C135.401 371.604 135.078 372.469 135.404 373.209L138.747 380.395C138.911 380.752 139.21 381.031 139.579 381.168C139.74 381.227 139.912 381.257 140.084 381.257C140.299 381.259 140.512 381.213 140.707 381.124L165.961 369.311L163.674 393.263C163.629 393.734 163.811 394.198 164.163 394.512C165.27 395.43 166.65 395.953 168.085 396C168.481 396 168.875 395.95 169.259 395.852C171.309 395.316 172.898 393.487 173.983 390.362L183.921 360.892L203.603 351.697C209.396 348.99 212.382 343.501 210.377 339.216C209.239 336.977 207.06 335.453 204.569 335.154C201.801 334.736 198.972 335.172 196.458 336.405L173.744 347.071L149.324 337.505C146.248 336.345 143.813 336.375 142.104 337.61C140.671 338.788 139.856 340.558 139.891 342.415C139.905 342.886 140.142 343.321 140.529 343.591L156.973 354.911L147.556 359.374L131.765 355.357C131.118 355.198 130.444 355.49 130.116 356.071L126.18 363.167C125.976 363.543 125.944 363.989 126.092 364.391C126.24 364.793 126.553 365.111 126.953 365.265L138.643 370.1L136.133 371.26ZM142.935 341.671C143.023 341.042 143.34 340.47 143.827 340.064C144.674 339.454 146.219 339.543 148.284 340.317L170.031 348.812L160.108 353.453L142.935 341.671ZM129.567 363.153L132.151 358.556L147.348 362.334C147.675 362.417 148.021 362.386 148.329 362.246L197.721 339.142C199.684 338.172 201.896 337.819 204.064 338.13C205.584 338.27 206.938 339.149 207.689 340.48C208.935 343.159 206.485 347.071 202.34 349.005L185.227 357.039L186.267 353.959C186.53 353.166 186.101 352.31 185.31 352.047C184.517 351.784 183.663 352.214 183.4 353.007L171.175 389.439C170.447 391.508 169.541 392.743 168.531 393.01C167.905 393.13 167.257 393.007 166.718 392.668L169.689 361.427C169.767 360.605 169.166 359.876 168.345 359.798C167.524 359.72 166.796 360.323 166.718 361.144L166.258 365.919L140.767 377.821L138.673 373.358L142.861 371.394C143.4 371.156 143.748 370.622 143.748 370.033C143.748 369.443 143.4 368.909 142.861 368.672L129.567 363.153Z" fill="black"/>
<path d="M136.133 371.26C135.401 371.604 135.078 372.469 135.404 373.209L138.747 380.395C138.911 380.752 139.21 381.031 139.579 381.168C139.74 381.227 139.912 381.257 140.084 381.257C140.299 381.259 140.512 381.213 140.707 381.124L165.961 369.311L163.674 393.263C163.629 393.734 163.811 394.198 164.163 394.512C165.27 395.43 166.65 395.953 168.085 396C168.481 396 168.875 395.95 169.259 395.852C171.309 395.316 172.898 393.487 173.983 390.362L183.921 360.892L203.603 351.697C209.396 348.99 212.382 343.501 210.377 339.216C209.239 336.977 207.06 335.453 204.569 335.154C201.801 334.736 198.972 335.172 196.458 336.405L173.744 347.071L149.324 337.505C146.248 336.345 143.813 336.375 142.104 337.61C140.671 338.788 139.856 340.558 139.891 342.415C139.905 342.886 140.142 343.321 140.529 343.591L156.973 354.911L147.556 359.374L131.765 355.357C131.118 355.198 130.444 355.49 130.116 356.071L126.18 363.167C125.976 363.543 125.944 363.989 126.092 364.391C126.24 364.793 126.553 365.111 126.953 365.265L138.643 370.1L136.133 371.26ZM142.935 341.671C143.023 341.042 143.34 340.47 143.827 340.064C144.674 339.454 146.219 339.543 148.284 340.317L170.031 348.812L160.108 353.453L142.935 341.671ZM129.567 363.153L132.151 358.556L147.348 362.334C147.675 362.417 148.021 362.386 148.329 362.246L197.721 339.142C199.684 338.172 201.896 337.819 204.064 338.13C205.584 338.27 206.938 339.149 207.689 340.48C208.935 343.159 206.485 347.071 202.34 349.005L185.227 357.039L186.267 353.959C186.53 353.166 186.101 352.31 185.31 352.047C184.517 351.784 183.663 352.214 183.4 353.007L171.175 389.439C170.447 391.508 169.541 392.743 168.531 393.01C167.905 393.13 167.257 393.007 166.718 392.668L169.689 361.427C169.767 360.605 169.166 359.876 168.345 359.798C167.524 359.72 166.796 360.323 166.718 361.144L166.258 365.919L140.767 377.821L138.673 373.358L142.861 371.394C143.4 371.156 143.748 370.622 143.748 370.033C143.748 369.443 143.4 368.909 142.861 368.672L129.567 363.153Z" fill="black"/>
</g>
<defs>
<filter id="filter0_d" x="895" y="384" width="86" height="86" filterUnits="userSpaceOnUse" color-interpolation-filters="sRGB">
<feFlood flood-opacity="0" result="BackgroundImageFix"/>
<feColorMatrix in="SourceAlpha" type="matrix" values="0 0 0 0 0 0 0 0 0 0 0 0 0 0 0 0 0 0 127 0"/>
<feOffset/>
<feGaussianBlur stdDeviation="10"/>
<feColorMatrix type="matrix" values="0 0 0 0 0 0 0 0 0 0 0 0 0 0 0 0 0 0 0.1 0"/>
<feBlend mode="normal" in2="BackgroundImageFix" result="effect1_dropShadow"/>
<feBlend mode="normal" in="SourceGraphic" in2="effect1_dropShadow" result="shape"/>
</filter>
<filter id="filter1_d" x="525" y="423" width="86" height="86" filterUnits="userSpaceOnUse" color-interpolation-filters="sRGB">
<feFlood flood-opacity="0" result="BackgroundImageFix"/>
<feColorMatrix in="SourceAlpha" type="matrix" values="0 0 0 0 0 0 0 0 0 0 0 0 0 0 0 0 0 0 127 0"/>
<feOffset/>
<feGaussianBlur stdDeviation="10"/>
<feColorMatrix type="matrix" values="0 0 0 0 0 0 0 0 0 0 0 0 0 0 0 0 0 0 0.1 0"/>
<feBlend mode="normal" in2="BackgroundImageFix" result="effect1_dropShadow"/>
<feBlend mode="normal" in="SourceGraphic" in2="effect1_dropShadow" result="shape"/>
</filter>
<filter id="filter2_d" x="295" y="392" width="86" height="86" filterUnits="userSpaceOnUse" color-interpolation-filters="sRGB">
<feFlood flood-opacity="0" result="BackgroundImageFix"/>
<feColorMatrix in="SourceAlpha" type="matrix" values="0 0 0 0 0 0 0 0 0 0 0 0 0 0 0 0 0 0 127 0"/>
<feOffset/>
<feGaussianBlur stdDeviation="10"/>
<feColorMatrix type="matrix" values="0 0 0 0 0 0 0 0 0 0 0 0 0 0 0 0 0 0 0.1 0"/>
<feBlend mode="normal" in2="BackgroundImageFix" result="effect1_dropShadow"/>
<feBlend mode="normal" in="SourceGraphic" in2="effect1_dropShadow" result="shape"/>
</filter>
<filter id="filter3_d" x="1125" y="367" width="86" height="86" filterUnits="userSpaceOnUse" color-interpolation-filters="sRGB">
<feFlood flood-opacity="0" result="BackgroundImageFix"/>
<feColorMatrix in="SourceAlpha" type="matrix" values="0 0 0 0 0 0 0 0 0 0 0 0 0 0 0 0 0 0 127 0"/>
<feOffset/>
<feGaussianBlur stdDeviation="10"/>
<feColorMatrix type="matrix" values="0 0 0 0 0 0 0 0 0 0 0 0 0 0 0 0 0 0 0.1 0"/>
<feBlend mode="normal" in2="BackgroundImageFix" result="effect1_dropShadow"/>
<feBlend mode="normal" in="SourceGraphic" in2="effect1_dropShadow" result="shape"/>
</filter>
<clipPath id="clip0">
<rect width="1440" height="1024" fill="white"/>
</clipPath>
</defs>
</svg>
