<svg width="1100" height="350" viewBox="0 0 1100 350" fill="none" xmlns="http://www.w3.org/2000/svg">
<rect width="1100" height="350" fill="white"/>
<path d="M201.018 313C201.018 318.523 196.989 323 192.018 323C187.048 323 183.018 318.523 183.018 313" stroke="#00C7A5" stroke-width="3"/>
<path d="M241.018 313C241.018 318.523 236.541 323 231.018 323C225.495 323 221.018 318.523 221.018 313" stroke="#00C7A5" stroke-width="3"/>
<path d="M103.018 335V231H141.543V305.88H263.818V231H304.018V335H203.518H103.018Z" stroke="#202020" stroke-width="3"/>
<path d="M17 230.566H83.9819H119.147H127.52H258.135H271.531H311.72V214H397.122V247.131H498.851C510.992 247.131 508.898 255 518.946 255C524.842 255 524.807 245.889 524.807 245.889C532.342 245.889 532.342 255 536.947 255C545.739 255 544.483 245.889 544.483 245.889C554.111 245.889 550.542 254 560.018 254C569.494 254 568.581 247.131 568.581 247.131V230.566H1060.48V247.131H1082.25" stroke="#202020" stroke-width="3"/>
<rect x="236.018" y="116" width="92" height="138" rx="5" transform="rotate(-90 236.018 116)" fill="#00C7A5" fill-opacity="0.12"/>
<path d="M253.137 44.2905H248.662V49H247.256V38.3359H253.862V39.4932H248.662V43.1406H253.137V44.2905ZM254.814 44.9644C254.814 44.188 254.966 43.4897 255.269 42.8696C255.576 42.2495 256.001 41.771 256.543 41.4341C257.09 41.0972 257.712 40.9287 258.411 40.9287C259.49 40.9287 260.361 41.3022 261.025 42.0493C261.694 42.7964 262.029 43.79 262.029 45.0303V45.1255C262.029 45.897 261.88 46.5903 261.582 47.2056C261.289 47.8159 260.867 48.292 260.315 48.6338C259.768 48.9756 259.138 49.1465 258.425 49.1465C257.351 49.1465 256.479 48.7729 255.811 48.0259C255.146 47.2788 254.814 46.29 254.814 45.0596V44.9644ZM256.177 45.1255C256.177 46.0044 256.379 46.71 256.785 47.2422C257.195 47.7744 257.742 48.0405 258.425 48.0405C259.114 48.0405 259.661 47.772 260.066 47.2349C260.471 46.6929 260.674 45.936 260.674 44.9644C260.674 44.0952 260.466 43.3921 260.051 42.855C259.641 42.313 259.094 42.042 258.411 42.042C257.742 42.042 257.202 42.3081 256.792 42.8403C256.382 43.3726 256.177 44.1343 256.177 45.1255ZM268.342 46.8979C268.342 46.5317 268.203 46.2485 267.925 46.0483C267.651 45.8433 267.17 45.6675 266.482 45.521C265.798 45.3745 265.254 45.1987 264.849 44.9937C264.448 44.7886 264.15 44.5444 263.955 44.2612C263.765 43.978 263.669 43.6411 263.669 43.2505C263.669 42.6011 263.943 42.0518 264.49 41.6025C265.042 41.1533 265.745 40.9287 266.599 40.9287C267.498 40.9287 268.225 41.1606 268.782 41.6245C269.343 42.0884 269.624 42.6816 269.624 43.4043H268.262C268.262 43.0332 268.103 42.7134 267.786 42.4448C267.473 42.1763 267.078 42.042 266.599 42.042C266.106 42.042 265.72 42.1494 265.442 42.3643C265.164 42.5791 265.024 42.8599 265.024 43.2065C265.024 43.5337 265.154 43.7803 265.413 43.9463C265.671 44.1123 266.138 44.271 266.812 44.4224C267.49 44.5737 268.04 44.7544 268.459 44.9644C268.879 45.1743 269.189 45.4282 269.39 45.7261C269.595 46.019 269.697 46.3779 269.697 46.8027C269.697 47.5107 269.414 48.0796 268.848 48.5093C268.281 48.9341 267.546 49.1465 266.643 49.1465C266.008 49.1465 265.447 49.0342 264.958 48.8096C264.47 48.585 264.087 48.2725 263.809 47.8721C263.535 47.4668 263.398 47.0298 263.398 46.561H264.753C264.778 47.0151 264.958 47.3765 265.295 47.645C265.637 47.9087 266.086 48.0405 266.643 48.0405C267.156 48.0405 267.566 47.938 267.874 47.7329C268.186 47.5229 268.342 47.2446 268.342 46.8979ZM276.077 46.8979C276.077 46.5317 275.938 46.2485 275.659 46.0483C275.386 45.8433 274.905 45.6675 274.216 45.521C273.533 45.3745 272.988 45.1987 272.583 44.9937C272.183 44.7886 271.885 44.5444 271.689 44.2612C271.499 43.978 271.404 43.6411 271.404 43.2505C271.404 42.6011 271.677 42.0518 272.224 41.6025C272.776 41.1533 273.479 40.9287 274.333 40.9287C275.232 40.9287 275.959 41.1606 276.516 41.6245C277.078 42.0884 277.358 42.6816 277.358 43.4043H275.996C275.996 43.0332 275.837 42.7134 275.52 42.4448C275.208 42.1763 274.812 42.042 274.333 42.042C273.84 42.042 273.455 42.1494 273.176 42.3643C272.898 42.5791 272.759 42.8599 272.759 43.2065C272.759 43.5337 272.888 43.7803 273.147 43.9463C273.406 44.1123 273.872 44.271 274.546 44.4224C275.225 44.5737 275.774 44.7544 276.194 44.9644C276.614 45.1743 276.924 45.4282 277.124 45.7261C277.329 46.019 277.432 46.3779 277.432 46.8027C277.432 47.5107 277.148 48.0796 276.582 48.5093C276.016 48.9341 275.281 49.1465 274.377 49.1465C273.743 49.1465 273.181 49.0342 272.693 48.8096C272.205 48.585 271.821 48.2725 271.543 47.8721C271.27 47.4668 271.133 47.0298 271.133 46.561H272.488C272.512 47.0151 272.693 47.3765 273.03 47.645C273.372 47.9087 273.821 48.0405 274.377 48.0405C274.89 48.0405 275.3 47.938 275.608 47.7329C275.92 47.5229 276.077 47.2446 276.077 46.8979ZM280.669 49H279.314V41.0752H280.669V49ZM279.204 38.9731C279.204 38.7534 279.27 38.5679 279.402 38.4165C279.539 38.2651 279.739 38.1895 280.002 38.1895C280.266 38.1895 280.466 38.2651 280.603 38.4165C280.74 38.5679 280.808 38.7534 280.808 38.9731C280.808 39.1929 280.74 39.376 280.603 39.5225C280.466 39.6689 280.266 39.7422 280.002 39.7422C279.739 39.7422 279.539 39.6689 279.402 39.5225C279.27 39.376 279.204 39.1929 279.204 38.9731ZM284.316 49H282.961V37.75H284.316V49ZM290.879 49V42.1226H289.626V41.0752H290.879V40.2622C290.879 39.4126 291.106 38.7559 291.56 38.292C292.014 37.8281 292.656 37.5962 293.486 37.5962C293.799 37.5962 294.109 37.6377 294.417 37.7207L294.343 38.8193C294.114 38.7754 293.87 38.7534 293.611 38.7534C293.171 38.7534 292.832 38.8828 292.593 39.1416C292.354 39.3955 292.234 39.7617 292.234 40.2402V41.0752H293.926V42.1226H292.234V49H290.879ZM300.32 48.2163C299.792 48.8364 299.019 49.1465 297.998 49.1465C297.153 49.1465 296.509 48.9023 296.064 48.4141C295.625 47.9209 295.403 47.1934 295.398 46.2314V41.0752H296.753V46.1948C296.753 47.396 297.241 47.9966 298.218 47.9966C299.253 47.9966 299.941 47.6108 300.283 46.8394V41.0752H301.638V49H300.349L300.32 48.2163ZM306.992 49.1465C305.918 49.1465 305.044 48.7949 304.37 48.0918C303.696 47.3838 303.359 46.439 303.359 45.2573V45.0083C303.359 44.2222 303.508 43.5215 303.806 42.9062C304.109 42.2861 304.529 41.8027 305.066 41.4561C305.608 41.1045 306.194 40.9287 306.824 40.9287C307.854 40.9287 308.655 41.2681 309.226 41.9468C309.797 42.6255 310.083 43.5972 310.083 44.8618V45.4258H304.714C304.734 46.207 304.961 46.8394 305.396 47.3228C305.835 47.8013 306.392 48.0405 307.065 48.0405C307.544 48.0405 307.949 47.9429 308.281 47.7476C308.613 47.5522 308.904 47.2935 309.153 46.9712L309.98 47.6157C309.316 48.6362 308.32 49.1465 306.992 49.1465ZM306.824 42.042C306.277 42.042 305.818 42.2422 305.447 42.6426C305.076 43.0381 304.846 43.5947 304.758 44.3125H308.728V44.21C308.689 43.5215 308.503 42.9893 308.171 42.6133C307.839 42.2324 307.39 42.042 306.824 42.042ZM313.13 49H311.775V37.75H313.13V49ZM319.919 46.8979C319.919 46.5317 319.78 46.2485 319.502 46.0483C319.229 45.8433 318.748 45.6675 318.059 45.521C317.375 45.3745 316.831 45.1987 316.426 44.9937C316.025 44.7886 315.728 44.5444 315.532 44.2612C315.342 43.978 315.247 43.6411 315.247 43.2505C315.247 42.6011 315.52 42.0518 316.067 41.6025C316.619 41.1533 317.322 40.9287 318.176 40.9287C319.075 40.9287 319.802 41.1606 320.359 41.6245C320.92 42.0884 321.201 42.6816 321.201 43.4043H319.839C319.839 43.0332 319.68 42.7134 319.363 42.4448C319.05 42.1763 318.655 42.042 318.176 42.042C317.683 42.042 317.297 42.1494 317.019 42.3643C316.741 42.5791 316.602 42.8599 316.602 43.2065C316.602 43.5337 316.731 43.7803 316.99 43.9463C317.249 44.1123 317.715 44.271 318.389 44.4224C319.067 44.5737 319.617 44.7544 320.037 44.9644C320.457 45.1743 320.767 45.4282 320.967 45.7261C321.172 46.019 321.274 46.3779 321.274 46.8027C321.274 47.5107 320.991 48.0796 320.425 48.5093C319.858 48.9341 319.124 49.1465 318.22 49.1465C317.585 49.1465 317.024 49.0342 316.536 48.8096C316.047 48.585 315.664 48.2725 315.386 47.8721C315.112 47.4668 314.976 47.0298 314.976 46.561H316.331C316.355 47.0151 316.536 47.3765 316.873 47.645C317.214 47.9087 317.664 48.0405 318.22 48.0405C318.733 48.0405 319.143 47.938 319.451 47.7329C319.763 47.5229 319.919 47.2446 319.919 46.8979ZM322.996 51.124L322.227 50.5967C322.686 49.957 322.925 49.2979 322.944 48.6191V47.396H324.27V48.458C324.27 48.9512 324.148 49.4443 323.904 49.9375C323.665 50.4307 323.362 50.8262 322.996 51.124ZM253.738 63.1255C253.738 64.3315 253.462 65.3032 252.91 66.0405C252.358 66.7778 251.611 67.1465 250.669 67.1465C249.707 67.1465 248.95 66.8413 248.398 66.231V70.0469H247.043V59.0752H248.281L248.347 59.9541C248.899 59.2705 249.666 58.9287 250.647 58.9287C251.599 58.9287 252.351 59.2876 252.903 60.0054C253.459 60.7231 253.738 61.7217 253.738 63.001V63.1255ZM252.383 62.9717C252.383 62.0781 252.192 61.3726 251.812 60.855C251.431 60.3374 250.908 60.0786 250.244 60.0786C249.424 60.0786 248.809 60.4424 248.398 61.1699V64.9565C248.804 65.6792 249.424 66.0405 250.259 66.0405C250.908 66.0405 251.423 65.7842 251.804 65.2715C252.19 64.7539 252.383 63.9873 252.383 62.9717ZM255.107 62.9644C255.107 62.188 255.259 61.4897 255.562 60.8696C255.869 60.2495 256.294 59.771 256.836 59.4341C257.383 59.0972 258.005 58.9287 258.704 58.9287C259.783 58.9287 260.654 59.3022 261.318 60.0493C261.987 60.7964 262.322 61.79 262.322 63.0303V63.1255C262.322 63.897 262.173 64.5903 261.875 65.2056C261.582 65.8159 261.16 66.292 260.608 66.6338C260.061 66.9756 259.431 67.1465 258.718 67.1465C257.644 67.1465 256.772 66.7729 256.104 66.0259C255.439 65.2788 255.107 64.29 255.107 63.0596V62.9644ZM256.47 63.1255C256.47 64.0044 256.672 64.71 257.078 65.2422C257.488 65.7744 258.035 66.0405 258.718 66.0405C259.407 66.0405 259.954 65.772 260.359 65.2349C260.764 64.6929 260.967 63.936 260.967 62.9644C260.967 62.0952 260.759 61.3921 260.344 60.855C259.934 60.313 259.387 60.042 258.704 60.042C258.035 60.042 257.495 60.3081 257.085 60.8403C256.675 61.3726 256.47 62.1343 256.47 63.1255ZM271.038 65.1323L272.561 59.0752H273.916L271.609 67H270.51L268.584 60.9941L266.709 67H265.61L263.311 59.0752H264.658L266.218 65.0078L268.064 59.0752H269.155L271.038 65.1323ZM278.589 67.1465C277.515 67.1465 276.641 66.7949 275.967 66.0918C275.293 65.3838 274.956 64.439 274.956 63.2573V63.0083C274.956 62.2222 275.105 61.5215 275.403 60.9062C275.706 60.2861 276.125 59.8027 276.663 59.4561C277.205 59.1045 277.791 58.9287 278.42 58.9287C279.451 58.9287 280.251 59.2681 280.823 59.9468C281.394 60.6255 281.68 61.5972 281.68 62.8618V63.4258H276.311C276.331 64.207 276.558 64.8394 276.992 65.3228C277.432 65.8013 277.988 66.0405 278.662 66.0405C279.141 66.0405 279.546 65.9429 279.878 65.7476C280.21 65.5522 280.5 65.2935 280.75 64.9712L281.577 65.6157C280.913 66.6362 279.917 67.1465 278.589 67.1465ZM278.42 60.042C277.874 60.042 277.415 60.2422 277.043 60.6426C276.672 61.0381 276.443 61.5947 276.355 62.3125H280.325V62.21C280.286 61.5215 280.1 60.9893 279.768 60.6133C279.436 60.2324 278.987 60.042 278.42 60.042ZM287.085 60.291C286.88 60.2568 286.658 60.2397 286.418 60.2397C285.53 60.2397 284.927 60.6182 284.609 61.375V67H283.254V59.0752H284.573L284.595 59.9907C285.039 59.2827 285.669 58.9287 286.484 58.9287C286.748 58.9287 286.948 58.9629 287.085 59.0312V60.291ZM291.736 62.9717C291.736 61.7363 292.021 60.7549 292.593 60.0273C293.164 59.2949 293.921 58.9287 294.863 58.9287C295.83 58.9287 296.584 59.2705 297.126 59.9541L297.192 59.0752H298.43V66.8096C298.43 67.835 298.125 68.6431 297.515 69.2339C296.909 69.8247 296.094 70.1201 295.068 70.1201C294.497 70.1201 293.938 69.998 293.391 69.7539C292.844 69.5098 292.427 69.1753 292.139 68.7505L292.842 67.9375C293.423 68.6553 294.133 69.0142 294.973 69.0142C295.632 69.0142 296.145 68.8286 296.511 68.4575C296.882 68.0864 297.068 67.564 297.068 66.8901V66.209C296.526 66.834 295.786 67.1465 294.849 67.1465C293.921 67.1465 293.169 66.7729 292.593 66.0259C292.021 65.2788 291.736 64.2607 291.736 62.9717ZM293.098 63.1255C293.098 64.019 293.281 64.7222 293.647 65.2349C294.014 65.7427 294.526 65.9966 295.186 65.9966C296.04 65.9966 296.667 65.6084 297.068 64.832V61.2139C296.653 60.457 296.03 60.0786 295.2 60.0786C294.541 60.0786 294.026 60.335 293.655 60.8477C293.284 61.3604 293.098 62.1196 293.098 63.1255ZM303.77 67.1465C302.695 67.1465 301.821 66.7949 301.147 66.0918C300.474 65.3838 300.137 64.439 300.137 63.2573V63.0083C300.137 62.2222 300.286 61.5215 300.583 60.9062C300.886 60.2861 301.306 59.8027 301.843 59.4561C302.385 59.1045 302.971 58.9287 303.601 58.9287C304.631 58.9287 305.432 59.2681 306.003 59.9468C306.575 60.6255 306.86 61.5972 306.86 62.8618V63.4258H301.492C301.511 64.207 301.738 64.8394 302.173 65.3228C302.612 65.8013 303.169 66.0405 303.843 66.0405C304.321 66.0405 304.727 65.9429 305.059 65.7476C305.391 65.5522 305.681 65.2935 305.93 64.9712L306.758 65.6157C306.094 66.6362 305.098 67.1465 303.77 67.1465ZM303.601 60.042C303.054 60.042 302.595 60.2422 302.224 60.6426C301.853 61.0381 301.624 61.5947 301.536 62.3125H305.505V62.21C305.466 61.5215 305.281 60.9893 304.949 60.6133C304.617 60.2324 304.167 60.042 303.601 60.042ZM309.717 59.0752L309.761 60.0713C310.366 59.3096 311.157 58.9287 312.134 58.9287C313.809 58.9287 314.653 59.8735 314.668 61.7632V67H313.313V61.7559C313.308 61.1846 313.176 60.7622 312.917 60.4888C312.664 60.2153 312.266 60.0786 311.724 60.0786C311.284 60.0786 310.898 60.1958 310.566 60.4302C310.234 60.6646 309.976 60.9722 309.79 61.353V67H308.435V59.0752H309.717ZM320 67.1465C318.926 67.1465 318.052 66.7949 317.378 66.0918C316.704 65.3838 316.367 64.439 316.367 63.2573V63.0083C316.367 62.2222 316.516 61.5215 316.814 60.9062C317.117 60.2861 317.537 59.8027 318.074 59.4561C318.616 59.1045 319.202 58.9287 319.832 58.9287C320.862 58.9287 321.663 59.2681 322.234 59.9468C322.805 60.6255 323.091 61.5972 323.091 62.8618V63.4258H317.722C317.742 64.207 317.969 64.8394 318.403 65.3228C318.843 65.8013 319.399 66.0405 320.073 66.0405C320.552 66.0405 320.957 65.9429 321.289 65.7476C321.621 65.5522 321.912 65.2935 322.161 64.9712L322.988 65.6157C322.324 66.6362 321.328 67.1465 320 67.1465ZM319.832 60.042C319.285 60.042 318.826 60.2422 318.455 60.6426C318.083 61.0381 317.854 61.5947 317.766 62.3125H321.736V62.21C321.697 61.5215 321.511 60.9893 321.179 60.6133C320.847 60.2324 320.398 60.042 319.832 60.042ZM328.496 60.291C328.291 60.2568 328.069 60.2397 327.83 60.2397C326.941 60.2397 326.338 60.6182 326.021 61.375V67H324.666V59.0752H325.984L326.006 59.9907C326.45 59.2827 327.08 58.9287 327.896 58.9287C328.159 58.9287 328.359 58.9629 328.496 59.0312V60.291ZM334.348 67C334.27 66.8438 334.207 66.5654 334.158 66.165C333.528 66.8193 332.776 67.1465 331.902 67.1465C331.121 67.1465 330.479 66.9268 329.976 66.4873C329.478 66.043 329.229 65.4814 329.229 64.8027C329.229 63.9775 329.541 63.3379 330.166 62.8838C330.796 62.4248 331.68 62.1953 332.817 62.1953H334.136V61.5728C334.136 61.0991 333.994 60.7231 333.711 60.4448C333.428 60.1616 333.01 60.02 332.458 60.02C331.975 60.02 331.57 60.1421 331.243 60.3862C330.916 60.6304 330.752 60.9258 330.752 61.2725H329.39C329.39 60.877 329.529 60.4961 329.807 60.1299C330.09 59.7588 330.471 59.4658 330.95 59.251C331.433 59.0361 331.963 58.9287 332.539 58.9287C333.452 58.9287 334.167 59.1582 334.685 59.6172C335.203 60.0713 335.471 60.6987 335.491 61.4995V65.147C335.491 65.8745 335.583 66.4531 335.769 66.8828V67H334.348ZM332.1 65.9673C332.524 65.9673 332.927 65.8574 333.308 65.6377C333.689 65.418 333.965 65.1323 334.136 64.7808V63.1548H333.074C331.414 63.1548 330.583 63.6406 330.583 64.6123C330.583 65.0371 330.725 65.3691 331.008 65.6084C331.292 65.8477 331.655 65.9673 332.1 65.9673ZM339.453 57.1562V59.0752H340.933V60.1226H339.453V65.0371C339.453 65.3545 339.519 65.5938 339.651 65.7549C339.783 65.9111 340.007 65.9893 340.325 65.9893C340.481 65.9893 340.696 65.96 340.969 65.9014V67C340.613 67.0977 340.266 67.1465 339.929 67.1465C339.324 67.1465 338.867 66.9634 338.56 66.5972C338.252 66.231 338.098 65.7109 338.098 65.0371V60.1226H336.655V59.0752H338.098V57.1562H339.453ZM343.994 67H342.639V59.0752H343.994V67ZM342.529 56.9731C342.529 56.7534 342.595 56.5679 342.727 56.4165C342.864 56.2651 343.064 56.1895 343.328 56.1895C343.591 56.1895 343.792 56.2651 343.928 56.4165C344.065 56.5679 344.133 56.7534 344.133 56.9731C344.133 57.1929 344.065 57.376 343.928 57.5225C343.792 57.6689 343.591 57.7422 343.328 57.7422C343.064 57.7422 342.864 57.6689 342.727 57.5225C342.595 57.376 342.529 57.1929 342.529 56.9731ZM345.811 62.9644C345.811 62.188 345.962 61.4897 346.265 60.8696C346.572 60.2495 346.997 59.771 347.539 59.4341C348.086 59.0972 348.708 58.9287 349.407 58.9287C350.486 58.9287 351.357 59.3022 352.021 60.0493C352.69 60.7964 353.025 61.79 353.025 63.0303V63.1255C353.025 63.897 352.876 64.5903 352.578 65.2056C352.285 65.8159 351.863 66.292 351.311 66.6338C350.764 66.9756 350.134 67.1465 349.421 67.1465C348.347 67.1465 347.476 66.7729 346.807 66.0259C346.143 65.2788 345.811 64.29 345.811 63.0596V62.9644ZM347.173 63.1255C347.173 64.0044 347.375 64.71 347.781 65.2422C348.191 65.7744 348.738 66.0405 349.421 66.0405C350.11 66.0405 350.657 65.772 351.062 65.2349C351.467 64.6929 351.67 63.936 351.67 62.9644C351.67 62.0952 351.462 61.3921 351.047 60.855C350.637 60.313 350.09 60.042 349.407 60.042C348.738 60.042 348.198 60.3081 347.788 60.8403C347.378 61.3726 347.173 62.1343 347.173 63.1255ZM356.006 59.0752L356.05 60.0713C356.655 59.3096 357.446 58.9287 358.423 58.9287C360.098 58.9287 360.942 59.8735 360.957 61.7632V67H359.602V61.7559C359.597 61.1846 359.465 60.7622 359.207 60.4888C358.953 60.2153 358.555 60.0786 358.013 60.0786C357.573 60.0786 357.188 60.1958 356.855 60.4302C356.523 60.6646 356.265 60.9722 356.079 61.353V67H354.724V59.0752H356.006ZM362.957 69.124L362.188 68.5967C362.646 67.957 362.886 67.2979 362.905 66.6191V65.396H364.231V66.458C364.231 66.9512 364.109 67.4443 363.865 67.9375C363.625 68.4307 363.323 68.8262 362.957 69.124ZM248.318 77.0752L248.354 77.9541C248.936 77.2705 249.719 76.9287 250.706 76.9287C251.814 76.9287 252.568 77.3535 252.969 78.2031C253.232 77.8223 253.574 77.5146 253.994 77.2803C254.419 77.0459 254.919 76.9287 255.496 76.9287C257.234 76.9287 258.118 77.8491 258.147 79.6899V85H256.792V79.7705C256.792 79.2041 256.663 78.7817 256.404 78.5034C256.145 78.2202 255.71 78.0786 255.1 78.0786C254.597 78.0786 254.18 78.23 253.848 78.5327C253.516 78.8306 253.323 79.2334 253.269 79.7412V85H251.907V79.8071C251.907 78.6548 251.343 78.0786 250.215 78.0786C249.326 78.0786 248.718 78.457 248.391 79.2139V85H247.036V77.0752H248.318ZM259.839 80.9644C259.839 80.188 259.99 79.4897 260.293 78.8696C260.601 78.2495 261.025 77.771 261.567 77.4341C262.114 77.0972 262.737 76.9287 263.435 76.9287C264.514 76.9287 265.386 77.3022 266.05 78.0493C266.719 78.7964 267.053 79.79 267.053 81.0303V81.1255C267.053 81.897 266.904 82.5903 266.606 83.2056C266.313 83.8159 265.891 84.292 265.339 84.6338C264.792 84.9756 264.163 85.1465 263.45 85.1465C262.375 85.1465 261.504 84.7729 260.835 84.0259C260.171 83.2788 259.839 82.29 259.839 81.0596V80.9644ZM261.201 81.1255C261.201 82.0044 261.404 82.71 261.809 83.2422C262.219 83.7744 262.766 84.0405 263.45 84.0405C264.138 84.0405 264.685 83.772 265.09 83.2349C265.496 82.6929 265.698 81.936 265.698 80.9644C265.698 80.0952 265.491 79.3921 265.076 78.855C264.666 78.313 264.119 78.042 263.435 78.042C262.766 78.042 262.227 78.3081 261.816 78.8403C261.406 79.3726 261.201 80.1343 261.201 81.1255ZM275.461 81.1255C275.461 82.3364 275.183 83.3105 274.626 84.0479C274.07 84.7803 273.323 85.1465 272.385 85.1465C271.384 85.1465 270.61 84.7925 270.063 84.0845L269.998 85H268.752V73.75H270.107V77.9468C270.654 77.2681 271.409 76.9287 272.371 76.9287C273.333 76.9287 274.087 77.2925 274.634 78.02C275.186 78.7476 275.461 79.7437 275.461 81.0083V81.1255ZM274.106 80.9717C274.106 80.0488 273.928 79.3359 273.572 78.833C273.215 78.3301 272.703 78.0786 272.034 78.0786C271.14 78.0786 270.498 78.4937 270.107 79.3237V82.7515C270.522 83.5815 271.169 83.9966 272.048 83.9966C272.698 83.9966 273.203 83.7451 273.564 83.2422C273.926 82.7393 274.106 81.9824 274.106 80.9717ZM278.647 85H277.292V77.0752H278.647V85ZM277.183 74.9731C277.183 74.7534 277.249 74.5679 277.38 74.4165C277.517 74.2651 277.717 74.1895 277.981 74.1895C278.245 74.1895 278.445 74.2651 278.582 74.4165C278.718 74.5679 278.787 74.7534 278.787 74.9731C278.787 75.1929 278.718 75.376 278.582 75.5225C278.445 75.6689 278.245 75.7422 277.981 75.7422C277.717 75.7422 277.517 75.6689 277.38 75.5225C277.249 75.376 277.183 75.1929 277.183 74.9731ZM282.295 85H280.94V73.75H282.295V85ZM285.942 85H284.587V77.0752H285.942V85ZM284.478 74.9731C284.478 74.7534 284.543 74.5679 284.675 74.4165C284.812 74.2651 285.012 74.1895 285.276 74.1895C285.54 74.1895 285.74 74.2651 285.876 74.4165C286.013 74.5679 286.082 74.7534 286.082 74.9731C286.082 75.1929 286.013 75.376 285.876 75.5225C285.74 75.6689 285.54 75.7422 285.276 75.7422C285.012 75.7422 284.812 75.6689 284.675 75.5225C284.543 75.376 284.478 75.1929 284.478 74.9731ZM289.956 75.1562V77.0752H291.436V78.1226H289.956V83.0371C289.956 83.3545 290.022 83.5938 290.154 83.7549C290.286 83.9111 290.51 83.9893 290.828 83.9893C290.984 83.9893 291.199 83.96 291.472 83.9014V85C291.116 85.0977 290.769 85.1465 290.432 85.1465C289.827 85.1465 289.37 84.9634 289.062 84.5972C288.755 84.231 288.601 83.7109 288.601 83.0371V78.1226H287.158V77.0752H288.601V75.1562H289.956ZM295.618 83.0151L297.463 77.0752H298.914L295.728 86.2231C295.234 87.5415 294.451 88.2007 293.376 88.2007L293.12 88.1787L292.615 88.0835V86.9849L292.981 87.0142C293.44 87.0142 293.796 86.9214 294.05 86.7358C294.309 86.5503 294.521 86.2109 294.688 85.7178L294.988 84.9121L292.161 77.0752H293.64L295.618 83.0151ZM299.294 87.124L298.525 86.5967C298.984 85.957 299.224 85.2979 299.243 84.6191V83.396H300.569V84.458C300.569 84.9512 300.447 85.4443 300.203 85.9375C299.963 86.4307 299.661 86.8262 299.294 87.124ZM305.674 80.9717C305.674 79.7559 305.962 78.7793 306.538 78.042C307.114 77.2998 307.869 76.9287 308.801 76.9287C309.729 76.9287 310.464 77.2461 311.006 77.8809V73.75H312.361V85H311.116L311.05 84.1504C310.508 84.8145 309.753 85.1465 308.787 85.1465C307.869 85.1465 307.119 84.7705 306.538 84.0186C305.962 83.2666 305.674 82.2852 305.674 81.0742V80.9717ZM307.029 81.1255C307.029 82.0239 307.214 82.7271 307.585 83.2349C307.957 83.7427 308.469 83.9966 309.124 83.9966C309.983 83.9966 310.61 83.6108 311.006 82.8394V79.1992C310.601 78.4521 309.978 78.0786 309.138 78.0786C308.474 78.0786 307.957 78.335 307.585 78.8477C307.214 79.3604 307.029 80.1196 307.029 81.1255ZM317.759 85.1465C316.685 85.1465 315.811 84.7949 315.137 84.0918C314.463 83.3838 314.126 82.439 314.126 81.2573V81.0083C314.126 80.2222 314.275 79.5215 314.573 78.9062C314.875 78.2861 315.295 77.8027 315.833 77.4561C316.375 77.1045 316.96 76.9287 317.59 76.9287C318.621 76.9287 319.421 77.2681 319.993 77.9468C320.564 78.6255 320.85 79.5972 320.85 80.8618V81.4258H315.481C315.5 82.207 315.728 82.8394 316.162 83.3228C316.602 83.8013 317.158 84.0405 317.832 84.0405C318.311 84.0405 318.716 83.9429 319.048 83.7476C319.38 83.5522 319.67 83.2935 319.919 82.9712L320.747 83.6157C320.083 84.6362 319.087 85.1465 317.759 85.1465ZM317.59 78.042C317.043 78.042 316.584 78.2422 316.213 78.6426C315.842 79.0381 315.613 79.5947 315.525 80.3125H319.495V80.21C319.456 79.5215 319.27 78.9893 318.938 78.6133C318.606 78.2324 318.157 78.042 317.59 78.042ZM323.091 85V78.1226H321.838V77.0752H323.091V76.2622C323.091 75.4126 323.318 74.7559 323.772 74.292C324.226 73.8281 324.868 73.5962 325.698 73.5962C326.011 73.5962 326.321 73.6377 326.628 73.7207L326.555 74.8193C326.326 74.7754 326.082 74.7534 325.823 74.7534C325.383 74.7534 325.044 74.8828 324.805 75.1416C324.565 75.3955 324.446 75.7617 324.446 76.2402V77.0752H326.138V78.1226H324.446V85H323.091ZM327.28 80.9644C327.28 80.188 327.432 79.4897 327.734 78.8696C328.042 78.2495 328.467 77.771 329.009 77.4341C329.556 77.0972 330.178 76.9287 330.876 76.9287C331.956 76.9287 332.827 77.3022 333.491 78.0493C334.16 78.7964 334.495 79.79 334.495 81.0303V81.1255C334.495 81.897 334.346 82.5903 334.048 83.2056C333.755 83.8159 333.333 84.292 332.781 84.6338C332.234 84.9756 331.604 85.1465 330.891 85.1465C329.817 85.1465 328.945 84.7729 328.276 84.0259C327.612 83.2788 327.28 82.29 327.28 81.0596V80.9644ZM328.643 81.1255C328.643 82.0044 328.845 82.71 329.25 83.2422C329.661 83.7744 330.208 84.0405 330.891 84.0405C331.58 84.0405 332.126 83.772 332.532 83.2349C332.937 82.6929 333.14 81.936 333.14 80.9644C333.14 80.0952 332.932 79.3921 332.517 78.855C332.107 78.313 331.56 78.042 330.876 78.042C330.208 78.042 329.668 78.3081 329.258 78.8403C328.848 79.3726 328.643 80.1343 328.643 81.1255ZM340.024 78.291C339.819 78.2568 339.597 78.2397 339.358 78.2397C338.469 78.2397 337.866 78.6182 337.549 79.375V85H336.194V77.0752H337.512L337.534 77.9907C337.979 77.2827 338.608 76.9287 339.424 76.9287C339.688 76.9287 339.888 76.9629 340.024 77.0312V78.291ZM344.419 85.1465C343.345 85.1465 342.471 84.7949 341.797 84.0918C341.123 83.3838 340.786 82.439 340.786 81.2573V81.0083C340.786 80.2222 340.935 79.5215 341.233 78.9062C341.536 78.2861 341.956 77.8027 342.493 77.4561C343.035 77.1045 343.621 76.9287 344.25 76.9287C345.281 76.9287 346.082 77.2681 346.653 77.9468C347.224 78.6255 347.51 79.5972 347.51 80.8618V81.4258H342.141C342.161 82.207 342.388 82.8394 342.822 83.3228C343.262 83.8013 343.818 84.0405 344.492 84.0405C344.971 84.0405 345.376 83.9429 345.708 83.7476C346.04 83.5522 346.331 83.2935 346.58 82.9712L347.407 83.6157C346.743 84.6362 345.747 85.1465 344.419 85.1465ZM344.25 78.042C343.704 78.042 343.245 78.2422 342.874 78.6426C342.502 79.0381 342.273 79.5947 342.185 80.3125H346.155V80.21C346.116 79.5215 345.93 78.9893 345.598 78.6133C345.266 78.2324 344.817 78.042 344.25 78.042ZM353.699 82.8979C353.699 82.5317 353.56 82.2485 353.281 82.0483C353.008 81.8433 352.527 81.6675 351.838 81.521C351.155 81.3745 350.61 81.1987 350.205 80.9937C349.805 80.7886 349.507 80.5444 349.312 80.2612C349.121 79.978 349.026 79.6411 349.026 79.2505C349.026 78.6011 349.299 78.0518 349.846 77.6025C350.398 77.1533 351.101 76.9287 351.956 76.9287C352.854 76.9287 353.582 77.1606 354.138 77.6245C354.7 78.0884 354.98 78.6816 354.98 79.4043H353.618C353.618 79.0332 353.459 78.7134 353.142 78.4448C352.83 78.1763 352.434 78.042 351.956 78.042C351.462 78.042 351.077 78.1494 350.798 78.3643C350.52 78.5791 350.381 78.8599 350.381 79.2065C350.381 79.5337 350.51 79.7803 350.769 79.9463C351.028 80.1123 351.494 80.271 352.168 80.4224C352.847 80.5737 353.396 80.7544 353.816 80.9644C354.236 81.1743 354.546 81.4282 354.746 81.7261C354.951 82.019 355.054 82.3779 355.054 82.8027C355.054 83.5107 354.771 84.0796 354.204 84.5093C353.638 84.9341 352.903 85.1465 352 85.1465C351.365 85.1465 350.803 85.0342 350.315 84.8096C349.827 84.585 349.443 84.2725 349.165 83.8721C348.892 83.4668 348.755 83.0298 348.755 82.561H350.11C350.134 83.0151 350.315 83.3765 350.652 83.645C350.994 83.9087 351.443 84.0405 352 84.0405C352.512 84.0405 352.922 83.938 353.23 83.7329C353.542 83.5229 353.699 83.2446 353.699 82.8979ZM359.639 81.0229H356.064V79.917H359.639V81.0229ZM248.882 93.1562V95.0752H250.361V96.1226H248.882V101.037C248.882 101.354 248.948 101.594 249.08 101.755C249.211 101.911 249.436 101.989 249.753 101.989C249.91 101.989 250.125 101.96 250.398 101.901V103C250.042 103.098 249.695 103.146 249.358 103.146C248.752 103.146 248.296 102.963 247.988 102.597C247.681 102.231 247.527 101.711 247.527 101.037V96.1226H246.084V95.0752H247.527V93.1562H248.882ZM256.843 103C256.765 102.844 256.702 102.565 256.653 102.165C256.023 102.819 255.271 103.146 254.397 103.146C253.616 103.146 252.974 102.927 252.471 102.487C251.973 102.043 251.724 101.481 251.724 100.803C251.724 99.9775 252.036 99.3379 252.661 98.8838C253.291 98.4248 254.175 98.1953 255.312 98.1953H256.631V97.5728C256.631 97.0991 256.489 96.7231 256.206 96.4448C255.923 96.1616 255.505 96.02 254.954 96.02C254.47 96.02 254.065 96.1421 253.738 96.3862C253.411 96.6304 253.247 96.9258 253.247 97.2725H251.885C251.885 96.877 252.024 96.4961 252.302 96.1299C252.585 95.7588 252.966 95.4658 253.445 95.251C253.928 95.0361 254.458 94.9287 255.034 94.9287C255.947 94.9287 256.663 95.1582 257.18 95.6172C257.698 96.0713 257.966 96.6987 257.986 97.4995V101.147C257.986 101.875 258.079 102.453 258.264 102.883V103H256.843ZM254.595 101.967C255.02 101.967 255.422 101.857 255.803 101.638C256.184 101.418 256.46 101.132 256.631 100.781V99.1548H255.569C253.909 99.1548 253.079 99.6406 253.079 100.612C253.079 101.037 253.22 101.369 253.503 101.608C253.787 101.848 254.15 101.967 254.595 101.967ZM261.948 93.1562V95.0752H263.428V96.1226H261.948V101.037C261.948 101.354 262.014 101.594 262.146 101.755C262.278 101.911 262.502 101.989 262.82 101.989C262.976 101.989 263.191 101.96 263.464 101.901V103C263.108 103.098 262.761 103.146 262.424 103.146C261.819 103.146 261.362 102.963 261.055 102.597C260.747 102.231 260.593 101.711 260.593 101.037V96.1226H259.15V95.0752H260.593V93.1562H261.948ZM266.489 103H265.134V95.0752H266.489V103ZM265.024 92.9731C265.024 92.7534 265.09 92.5679 265.222 92.4165C265.359 92.2651 265.559 92.1895 265.823 92.1895C266.086 92.1895 266.287 92.2651 266.423 92.4165C266.56 92.5679 266.628 92.7534 266.628 92.9731C266.628 93.1929 266.56 93.376 266.423 93.5225C266.287 93.6689 266.086 93.7422 265.823 93.7422C265.559 93.7422 265.359 93.6689 265.222 93.5225C265.09 93.376 265.024 93.1929 265.024 92.9731ZM268.306 98.9644C268.306 98.188 268.457 97.4897 268.76 96.8696C269.067 96.2495 269.492 95.771 270.034 95.4341C270.581 95.0972 271.204 94.9287 271.902 94.9287C272.981 94.9287 273.853 95.3022 274.517 96.0493C275.186 96.7964 275.52 97.79 275.52 99.0303V99.1255C275.52 99.897 275.371 100.59 275.073 101.206C274.78 101.816 274.358 102.292 273.806 102.634C273.259 102.976 272.629 103.146 271.917 103.146C270.842 103.146 269.971 102.773 269.302 102.026C268.638 101.279 268.306 100.29 268.306 99.0596V98.9644ZM269.668 99.1255C269.668 100.004 269.871 100.71 270.276 101.242C270.686 101.774 271.233 102.041 271.917 102.041C272.605 102.041 273.152 101.772 273.557 101.235C273.962 100.693 274.165 99.936 274.165 98.9644C274.165 98.0952 273.958 97.3921 273.542 96.855C273.132 96.313 272.585 96.042 271.902 96.042C271.233 96.042 270.693 96.3081 270.283 96.8403C269.873 97.3726 269.668 98.1343 269.668 99.1255ZM278.501 95.0752L278.545 96.0713C279.15 95.3096 279.941 94.9287 280.918 94.9287C282.593 94.9287 283.438 95.8735 283.452 97.7632V103H282.097V97.7559C282.092 97.1846 281.96 96.7622 281.702 96.4888C281.448 96.2153 281.05 96.0786 280.508 96.0786C280.068 96.0786 279.683 96.1958 279.351 96.4302C279.019 96.6646 278.76 96.9722 278.574 97.353V103H277.219V95.0752H278.501Z" fill="#00C7A5"/>
<path d="M285.018 246V272" stroke="#202020" stroke-width="3"/>
<path d="M123.018 290V317" stroke="#202020" stroke-width="3"/>
<path d="M123.018 246V272" stroke="#202020" stroke-width="3"/>
<path d="M285.018 290V317" stroke="#202020" stroke-width="3"/>
<line x1="84.5181" y1="232" x2="84.5181" y2="201" stroke="#00C7A5" stroke-width="3"/>
<line x1="90.5181" y1="232" x2="90.5181" y2="201" stroke="#00C7A5" stroke-width="3"/>
<path d="M75.5401 177.454C77.3493 177.439 81.879 178.309 84.178 183.267" stroke="#00C7A5" stroke-width="3"/>
<path d="M186.935 305.949L185.878 304.884L186.935 305.949C187.028 305.856 187.155 305.804 187.287 305.804H196.805C196.937 305.804 197.063 305.856 197.157 305.949L199.709 308.483C200.365 309.135 201.252 309.5 202.176 309.5H220.999C221.923 309.5 222.81 309.135 223.466 308.483L226.018 305.949C226.112 305.856 226.238 305.804 226.37 305.804H235.888C236.02 305.804 236.147 305.856 236.24 305.949L238.793 308.483C239.448 309.135 240.335 309.5 241.259 309.5H244.018C245.951 309.5 247.518 307.933 247.518 306V295.875C247.518 294.132 246.235 292.654 244.51 292.409L227.851 290.046C227.671 290.021 227.52 289.9 227.455 289.73L220.925 272.744C220.405 271.392 219.107 270.5 217.658 270.5H181.018C179.085 270.5 177.518 272.067 177.518 274V306C177.518 307.933 179.085 309.5 181.018 309.5H181.916C182.84 309.5 183.727 309.135 184.382 308.483L186.935 305.949Z" fill="white" stroke="#00C7A5" stroke-width="3"/>
<path d="M223.18 281H207.018L207.018 291H230.018" stroke="#00C7A5" stroke-width="3"/>
<rect x="187.018" y="281" width="10" height="10" fill="white" stroke="#00C7A5" stroke-width="3"/>
<rect x="172.518" y="287.5" width="4" height="13" rx="2" fill="white" stroke="#00C7A5" stroke-width="3"/>
<path d="M160.518 177.103C160.518 176.827 160.742 176.603 161.018 176.603H182.659C184.592 176.603 186.159 175.036 186.159 173.103V161.261C186.159 160.838 186.653 160.606 186.979 160.877L202.218 173.535C204.498 175.429 207.954 173.807 207.954 170.842V161.344C207.954 160.917 208.455 160.686 208.779 160.964L226.071 175.763C226.705 176.305 227.512 176.603 228.347 176.603H257.018C257.294 176.603 257.518 176.827 257.518 177.103V230C257.518 230.276 257.294 230.5 257.018 230.5H161.018C160.742 230.5 160.518 230.276 160.518 230V177.103Z" stroke="#00C7A5" stroke-width="3"/>
<rect x="228.518" y="201.5" width="16" height="29" stroke="#00C7A5" stroke-width="3"/>
<path d="M164.368 119.961C164.388 119.701 164.605 119.5 164.866 119.5H174.454C174.72 119.5 174.939 119.708 174.953 119.974L177.518 168.635V230C177.518 230.276 177.294 230.5 177.018 230.5H161.018C160.742 230.5 160.518 230.276 160.518 230V168.655L164.368 119.961Z" fill="white" stroke="#00C7A5" stroke-width="3"/>
<line x1="162.018" y1="164.5" x2="176.018" y2="164.5" stroke="#00C7A5" stroke-width="3"/>
<line x1="161.018" y1="189.5" x2="177.018" y2="189.5" stroke="#00C7A5" stroke-width="3"/>
<line x1="161.018" y1="197.5" x2="177.018" y2="197.5" stroke="#00C7A5" stroke-width="3"/>
<line x1="161.018" y1="205.5" x2="177.018" y2="205.5" stroke="#00C7A5" stroke-width="3"/>
<mask id="path-25-inside-1" fill="white">
<path fill-rule="evenodd" clip-rule="evenodd" d="M149.107 77.6216C149.107 75.149 151.112 73.1445 153.584 73.1445H176.602C179.364 73.1445 181.602 75.3831 181.602 78.1445V78.3778C181.602 81.1393 183.841 83.3778 186.602 83.3778H188.897C191.659 83.3778 193.897 85.6164 193.897 88.3778V91.1695C193.897 93.9309 191.659 96.1695 188.897 96.1695H182.268C179.507 96.1695 177.268 98.4081 177.268 101.17V105.24C177.268 108.002 175.03 110.24 172.268 110.24H164.789C163.204 110.24 161.918 108.955 161.918 107.37C161.918 105.784 160.633 104.499 159.048 104.499H149.716C146.955 104.499 144.716 102.26 144.716 99.4991V98.4414C144.716 95.7737 142.554 93.6111 139.886 93.6111C137.218 93.6111 135.056 91.4485 135.056 88.7809V87.0986C135.056 84.3372 137.294 82.0986 140.056 82.0986H144.63C147.103 82.0986 149.107 80.0942 149.107 77.6216Z"/>
</mask>
<path d="M176.602 70.1445H153.584V76.1445H176.602V70.1445ZM184.602 78.3778V78.1445H178.602V78.3778H184.602ZM188.897 80.3778H186.602V86.3778H188.897V80.3778ZM196.897 91.1695V88.3778H190.897V91.1695H196.897ZM182.268 99.1695H188.897V93.1695H182.268V99.1695ZM174.268 101.17V105.24H180.268V101.17H174.268ZM172.268 107.24H164.789V113.24H172.268V107.24ZM149.716 107.499H159.048V101.499H149.716V107.499ZM141.716 98.4414V99.4991H147.716V98.4414H141.716ZM132.056 87.0986V88.7809H138.056V87.0986H132.056ZM144.63 79.0986H140.056V85.0986H144.63V79.0986ZM144.63 85.0986C148.76 85.0986 152.107 81.751 152.107 77.6216H146.107C146.107 78.4373 145.446 79.0986 144.63 79.0986V85.0986ZM138.056 87.0986C138.056 85.9941 138.951 85.0986 140.056 85.0986V79.0986C135.637 79.0986 132.056 82.6803 132.056 87.0986H138.056ZM139.886 90.6111C138.875 90.6111 138.056 89.7917 138.056 88.7809H132.056C132.056 93.1054 135.561 96.6111 139.886 96.6111V90.6111ZM147.716 98.4414C147.716 94.1169 144.21 90.6111 139.886 90.6111V96.6111C140.897 96.6111 141.716 97.4306 141.716 98.4414H147.716ZM149.716 101.499C148.612 101.499 147.716 100.604 147.716 99.4991H141.716C141.716 103.917 145.298 107.499 149.716 107.499V101.499ZM164.918 107.37C164.918 104.127 162.29 101.499 159.048 101.499V107.499C158.976 107.499 158.918 107.441 158.918 107.37H164.918ZM164.789 107.24C164.86 107.24 164.918 107.298 164.918 107.37H158.918C158.918 110.612 161.547 113.24 164.789 113.24V107.24ZM174.268 105.24C174.268 106.345 173.373 107.24 172.268 107.24V113.24C176.687 113.24 180.268 109.659 180.268 105.24H174.268ZM182.268 93.1695C177.85 93.1695 174.268 96.7512 174.268 101.17H180.268C180.268 100.065 181.164 99.1695 182.268 99.1695V93.1695ZM190.897 91.1695C190.897 92.2741 190.002 93.1695 188.897 93.1695V99.1695C193.316 99.1695 196.897 95.5878 196.897 91.1695H190.897ZM188.897 86.3778C190.002 86.3778 190.897 87.2733 190.897 88.3778H196.897C196.897 83.9596 193.316 80.3778 188.897 80.3778V86.3778ZM178.602 78.3778C178.602 82.7961 182.184 86.3778 186.602 86.3778V80.3778C185.498 80.3778 184.602 79.4824 184.602 78.3778H178.602ZM153.584 70.1445C149.455 70.1445 146.107 73.4921 146.107 77.6216H152.107C152.107 76.8058 152.769 76.1445 153.584 76.1445V70.1445ZM176.602 76.1445C177.707 76.1445 178.602 77.04 178.602 78.1445H184.602C184.602 73.7263 181.02 70.1445 176.602 70.1445V76.1445Z" fill="#00C7A5" mask="url(#path-25-inside-1)"/>
<mask id="path-27-inside-2" fill="white">
<path fill-rule="evenodd" clip-rule="evenodd" d="M636.396 119.783C636.396 120.845 635.534 121.707 634.472 121.707L605.825 121.707C604.762 121.707 603.901 120.845 603.901 119.783L603.901 116.544C603.901 113.783 601.662 111.544 598.901 111.544L596.606 111.544C593.845 111.544 591.606 109.305 591.606 106.544L591.606 103.84C591.606 101.079 593.845 98.8405 596.606 98.8405L603.235 98.8405C605.997 98.8405 608.235 96.6019 608.235 93.8405L608.235 89.8666C608.235 87.1051 610.474 84.8666 613.235 84.8666L620.735 84.8666C622.309 84.8666 623.585 86.1429 623.585 87.7173C623.585 89.2917 624.862 90.5681 626.436 90.5681L635.787 90.5681C638.549 90.5681 640.787 92.8066 640.787 95.5681L640.787 96.5508C640.787 99.2185 642.95 101.381 645.617 101.381C648.285 101.381 650.448 103.544 650.448 106.211L650.448 107.814C650.448 110.576 648.209 112.814 645.448 112.814L641.396 112.814C638.634 112.814 636.396 115.053 636.396 117.814L636.396 119.783Z"/>
</mask>
<path d="M640.787 95.5681L637.787 95.5681L640.787 95.5681ZM626.436 90.5681L626.436 87.5681L626.436 90.5681ZM591.606 106.544L594.606 106.544L591.606 106.544ZM598.901 111.544L598.901 114.544L598.901 111.544ZM591.606 103.84L588.606 103.84L591.606 103.84ZM640.787 96.5508L643.787 96.5508L640.787 96.5508ZM605.825 124.707L634.472 124.707L634.472 118.707L605.825 118.707L605.825 124.707ZM600.901 116.544L600.901 119.783L606.901 119.783L606.901 116.544L600.901 116.544ZM596.606 114.544L598.901 114.544L598.901 108.544L596.606 108.544L596.606 114.544ZM588.606 103.84L588.606 106.544L594.606 106.544L594.606 103.84L588.606 103.84ZM603.235 95.8405L596.606 95.8405L596.606 101.84L603.235 101.84L603.235 95.8405ZM611.235 93.8405L611.235 89.8666L605.235 89.8666L605.235 93.8405L611.235 93.8405ZM613.235 87.8666L620.735 87.8666L620.735 81.8666L613.235 81.8666L613.235 87.8666ZM635.787 87.5681L626.436 87.5681L626.436 93.5681L635.787 93.5681L635.787 87.5681ZM643.787 96.5508L643.787 95.5681L637.787 95.5681L637.787 96.5508L643.787 96.5508ZM653.448 107.814L653.448 106.211L647.448 106.211L647.448 107.814L653.448 107.814ZM641.396 115.814L645.448 115.814L645.448 109.814L641.396 109.814L641.396 115.814ZM639.396 119.783L639.396 117.814L633.396 117.814L633.396 119.783L639.396 119.783ZM641.396 109.814C636.977 109.814 633.396 113.396 633.396 117.814L639.396 117.814C639.396 116.71 640.291 115.814 641.396 115.814L641.396 109.814ZM647.448 107.814C647.448 108.919 646.552 109.814 645.448 109.814L645.448 115.814C649.866 115.814 653.448 112.232 653.448 107.814L647.448 107.814ZM645.617 104.381C646.628 104.381 647.448 105.201 647.448 106.211L653.448 106.211C653.448 101.887 649.942 98.3811 645.617 98.3811L645.617 104.381ZM635.787 93.5681C636.892 93.5681 637.787 94.4635 637.787 95.5681L643.787 95.5681C643.787 91.1498 640.205 87.5681 635.787 87.5681L635.787 93.5681ZM620.585 87.7173C620.585 90.9486 623.205 93.5681 626.436 93.5681L626.436 87.5681C626.519 87.5681 626.585 87.6349 626.585 87.7173L620.585 87.7173ZM620.735 87.8666C620.652 87.8666 620.585 87.7997 620.585 87.7173L626.585 87.7173C626.585 84.486 623.966 81.8666 620.735 81.8666L620.735 87.8666ZM611.235 89.8666C611.235 88.762 612.131 87.8666 613.235 87.8666L613.235 81.8666C608.817 81.8666 605.235 85.4483 605.235 89.8666L611.235 89.8666ZM603.235 101.84C607.654 101.84 611.235 98.2588 611.235 93.8405L605.235 93.8405C605.235 94.9451 604.34 95.8405 603.235 95.8405L603.235 101.84ZM596.606 108.544C595.501 108.544 594.606 107.649 594.606 106.544L588.606 106.544C588.606 110.962 592.188 114.544 596.606 114.544L596.606 108.544ZM606.901 116.544C606.901 112.126 603.319 108.544 598.901 108.544L598.901 114.544C600.005 114.544 600.901 115.439 600.901 116.544L606.901 116.544ZM634.472 124.707C637.191 124.707 639.396 122.502 639.396 119.783L633.396 119.783C633.396 119.188 633.878 118.707 634.472 118.707L634.472 124.707ZM594.606 103.84C594.606 102.736 595.501 101.84 596.606 101.84L596.606 95.8405C592.188 95.8405 588.606 99.4222 588.606 103.84L594.606 103.84ZM637.787 96.5508C637.787 100.875 641.293 104.381 645.617 104.381L645.617 98.3811C644.607 98.3811 643.787 97.5616 643.787 96.5508L637.787 96.5508ZM605.825 118.707C606.419 118.707 606.901 119.188 606.901 119.783L600.901 119.783C600.901 122.502 603.105 124.707 605.825 124.707L605.825 118.707Z" fill="#202020" mask="url(#path-27-inside-2)"/>
<mask id="path-29-inside-3" fill="white">
<path fill-rule="evenodd" clip-rule="evenodd" d="M78.7374 152.57C81.6097 152.57 84.2897 153.393 86.5544 154.816C91.3107 156.637 94.8803 160.857 95.7835 165.994C97.9251 164.777 100.402 164.082 103.042 164.082C109.82 164.082 115.527 168.666 117.232 174.903C119.162 177.392 120.31 180.516 120.31 183.909C120.31 192.033 113.724 198.619 105.6 198.619C103.909 198.619 102.285 198.334 100.772 197.809C98.0907 201.406 93.8027 203.736 88.9707 203.736C84.3932 203.736 80.304 201.645 77.606 198.367C75.6351 199.347 73.4132 199.899 71.0625 199.899C62.9381 199.899 56.3521 193.313 56.3521 185.188C56.3521 179.318 59.7908 174.25 64.7639 171.891C64.2857 170.44 64.0269 168.89 64.0269 167.28C64.0269 159.156 70.613 152.57 78.7374 152.57Z"/>
</mask>
<path d="M86.5544 154.816L84.9581 157.356L85.2071 157.513L85.4817 157.618L86.5544 154.816ZM95.7835 165.994L92.8288 166.514L93.5657 170.706L97.2658 168.603L95.7835 165.994ZM117.232 174.903L114.339 175.694L114.496 176.27L114.862 176.741L117.232 174.903ZM100.772 197.809L101.757 194.975L99.6805 194.254L98.3671 196.016L100.772 197.809ZM77.606 198.367L79.9225 196.461L78.4063 194.618L76.2698 195.681L77.606 198.367ZM64.7639 171.891L66.05 174.601L68.4423 173.466L67.613 170.951L64.7639 171.891ZM88.1508 152.276C85.4219 150.561 82.1909 149.57 78.7374 149.57V155.57C81.0285 155.57 83.1575 156.225 84.9581 157.356L88.1508 152.276ZM98.7382 165.475C97.6493 159.281 93.3514 154.206 87.6272 152.015L85.4817 157.618C89.27 159.068 92.1113 162.432 92.8288 166.514L98.7382 165.475ZM103.042 161.082C99.869 161.082 96.8827 161.919 94.3011 163.386L97.2658 168.603C98.9675 167.635 100.935 167.082 103.042 167.082V161.082ZM120.126 174.112C118.073 166.604 111.206 161.082 103.042 161.082V167.082C108.433 167.082 112.981 170.728 114.339 175.694L120.126 174.112ZM123.31 183.909C123.31 179.828 121.926 176.061 119.603 173.065L114.862 176.741C116.398 178.723 117.31 181.205 117.31 183.909H123.31ZM105.6 201.619C115.381 201.619 123.31 193.69 123.31 183.909H117.31C117.31 190.376 112.068 195.619 105.6 195.619V201.619ZM99.7882 200.643C101.613 201.276 103.569 201.619 105.6 201.619V195.619C104.249 195.619 102.957 195.392 101.757 194.975L99.7882 200.643ZM98.3671 196.016C96.2272 198.887 92.8153 200.736 88.9707 200.736V206.736C94.7902 206.736 99.9541 203.926 103.178 199.602L98.3671 196.016ZM88.9707 200.736C85.3278 200.736 82.0751 199.076 79.9225 196.461L75.2895 200.273C78.5329 204.215 83.4585 206.736 88.9707 206.736V200.736ZM71.0625 202.899C73.8872 202.899 76.5655 202.235 78.9422 201.053L76.2698 195.681C74.7047 196.459 72.9392 196.899 71.0625 196.899V202.899ZM53.3521 185.188C53.3521 194.969 61.2813 202.899 71.0625 202.899V196.899C64.595 196.899 59.3521 191.656 59.3521 185.188H53.3521ZM63.4779 169.18C57.4975 172.018 53.3521 178.116 53.3521 185.188H59.3521C59.3521 180.519 62.0841 176.483 66.05 174.601L63.4779 169.18ZM61.0269 167.28C61.0269 169.214 61.3379 171.081 61.9148 172.83L67.613 170.951C67.2335 169.8 67.0269 168.567 67.0269 167.28H61.0269ZM78.7374 149.57C68.9562 149.57 61.0269 157.499 61.0269 167.28H67.0269C67.0269 160.813 72.2699 155.57 78.7374 155.57V149.57Z" fill="#00C7A5" mask="url(#path-29-inside-3)"/>
<path d="M113.228 139.371L114.727 139.305C114.701 138.719 114.336 138.202 113.792 137.982C113.249 137.761 112.627 137.877 112.2 138.279L113.228 139.371ZM118.446 152.098L119.718 151.303L118.446 152.098ZM101.008 147.82L102.454 147.421C102.324 146.948 101.97 146.569 101.507 146.406C101.044 146.243 100.53 146.316 100.132 146.603L101.008 147.82ZM104.676 153.38L103.977 154.707C104.393 154.926 104.886 154.937 105.312 154.738C105.737 154.539 106.044 154.153 106.143 153.693L104.676 153.38ZM111.73 139.438C111.744 139.765 111.848 140.17 111.935 140.484C112.038 140.854 112.18 141.306 112.349 141.811C112.688 142.823 113.153 144.095 113.68 145.433C114.721 148.074 116.057 151.107 117.174 152.894L119.718 151.303C118.759 149.771 117.509 146.964 116.471 144.332C115.959 143.033 115.513 141.811 115.193 140.858C115.033 140.38 114.909 139.982 114.826 139.681C114.727 139.324 114.724 139.239 114.727 139.305L111.73 139.438ZM117.174 152.894C119.32 156.324 118.98 159.948 117.043 162.529C115.103 165.114 111.403 166.841 106.47 166.023L105.98 168.983C111.869 169.959 116.745 167.924 119.442 164.33C122.144 160.73 122.503 155.755 119.718 151.303L117.174 152.894ZM106.47 166.023C101.71 165.234 99.1104 162.076 98.3988 158.583C97.672 155.016 98.9208 151.172 101.885 149.038L100.132 146.603C96.083 149.519 94.5297 154.619 95.4592 159.182C96.404 163.82 99.9197 167.978 105.98 168.983L106.47 166.023ZM99.5624 148.219C99.7148 148.772 99.7951 149.195 99.9349 149.772C100.063 150.302 100.227 150.888 100.514 151.478C101.124 152.733 102.161 153.751 103.977 154.707L105.374 152.053C103.946 151.301 103.466 150.689 103.212 150.167C103.067 149.868 102.963 149.528 102.851 149.066C102.75 148.652 102.619 148.019 102.454 147.421L99.5624 148.219ZM106.143 153.693C106.525 151.906 107.762 149.324 109.371 146.745C110.967 144.187 112.808 141.826 114.256 140.464L112.2 138.279C110.497 139.881 108.499 142.476 106.826 145.157C105.166 147.818 103.702 150.758 103.209 153.066L106.143 153.693Z" fill="#00C7A5"/>
<path d="M111.996 153.849C112.358 155.089 111.216 158.758 111.996 160.245C113.69 163.474 111.374 168.025 106.825 167.266C102.277 166.508 103.241 167.568 106.201 165.361C106.463 166.359 104.96 163.443 106.201 161.134C106.577 159.352 109.999 154.456 111.996 153.849Z" stroke="#00C7A5" stroke-width="3" stroke-linejoin="round"/>
<mask id="path-33-outside-4" maskUnits="userSpaceOnUse" x="319.971" y="156.128" width="78" height="59" fill="black">
<rect fill="white" x="319.971" y="156.128" width="78" height="59"/>
<path d="M322.923 187.483C323.418 177.301 325.316 172.148 329.017 171.019C329.596 169.443 330.711 168.121 332.167 167.284C332.179 167.277 332.192 167.273 332.204 167.266L332.245 167.246C334.435 166.037 336.997 166.076 338.698 166.105C338.932 166.109 339.15 166.113 339.351 166.113C340.903 166.113 342.757 166.301 344.904 166.518C348.093 166.888 351.298 167.093 354.508 167.132C355.191 167.132 355.982 167.119 356.861 167.104L357.973 167.088C361.7 167.018 367.788 166.906 372.839 167.647C372.882 167.54 372.92 167.429 372.967 167.327C371.912 166.056 371.119 164.589 370.631 163.011C370.144 161.433 369.972 159.774 370.127 158.129C370.151 157.9 370.246 157.685 370.397 157.511C370.548 157.338 370.749 157.216 370.973 157.161C371.196 157.105 371.431 157.12 371.645 157.203C371.86 157.286 372.044 157.433 372.172 157.624C373.805 159.828 375.787 161.75 378.04 163.315C379.179 163.093 380.34 162.999 381.5 163.035H381.709C382.869 162.998 384.029 163.092 385.168 163.315C387.422 161.75 389.404 159.828 391.037 157.624C391.165 157.433 391.349 157.286 391.563 157.203C391.778 157.12 392.013 157.105 392.236 157.161C392.459 157.216 392.66 157.338 392.812 157.511C392.963 157.685 393.057 157.9 393.082 158.129C393.236 159.773 393.065 161.431 392.577 163.009C392.09 164.586 391.297 166.053 390.242 167.323C390.301 167.451 390.349 167.593 390.402 167.729C392.479 167.464 395.139 167.966 396.512 168.972C396.751 169.148 396.911 169.411 396.957 169.704C397.003 169.997 396.931 170.296 396.757 170.536C396.12 171.5 395.279 172.312 394.292 172.912C393.306 173.513 392.199 173.889 391.05 174.011C391.028 174.275 391.014 174.53 390.981 174.803C389.925 183.782 387.243 186.183 384.071 186.789C382.888 187.927 381.843 188.994 380.967 189.963C380.086 191.017 379.264 192.12 378.505 193.264C377.816 197.991 377.031 207.391 377.769 213.366C377.789 213.523 377.774 213.683 377.727 213.835C377.68 213.987 377.602 214.127 377.496 214.246C377.391 214.365 377.262 214.46 377.117 214.525C376.972 214.591 376.815 214.624 376.656 214.624H372.992C372.734 214.625 372.483 214.535 372.283 214.372C372.082 214.208 371.945 213.981 371.893 213.728C371.825 213.391 370.617 207.411 369.818 203.363C369.513 209.343 369.551 213.443 369.552 213.494C369.554 213.642 369.526 213.789 369.47 213.927C369.415 214.064 369.332 214.189 369.228 214.294C369.124 214.4 369 214.483 368.863 214.541C368.726 214.598 368.579 214.627 368.431 214.627H363.895C363.631 214.627 363.374 214.533 363.172 214.363C362.97 214.192 362.835 213.955 362.79 213.694C362.773 213.592 361.04 203.392 360.574 197.248C360.561 197.081 360.586 196.914 360.646 196.758C360.707 196.602 360.802 196.461 360.923 196.346C361.209 196.07 361.468 195.767 361.697 195.442C361.178 195.454 360.637 195.464 360.081 195.472C359.245 195.485 358.43 195.491 357.636 195.49H357.508C356.884 195.49 356.276 195.486 355.678 195.479C355.54 195.479 355.405 195.474 355.268 195.472C354.746 195.465 354.235 195.454 353.735 195.441C353.579 195.437 353.422 195.433 353.268 195.428C352.66 195.41 352.064 195.388 351.492 195.364C350.752 195.33 350.059 195.287 349.389 195.236C348.342 196.694 346.678 198.719 344.892 199.745L346.16 213.402C346.174 213.557 346.156 213.713 346.106 213.861C346.056 214.009 345.977 214.145 345.872 214.26C345.766 214.376 345.638 214.468 345.496 214.531C345.353 214.594 345.199 214.626 345.043 214.626H340.504C340.239 214.626 339.983 214.533 339.781 214.362C339.579 214.191 339.443 213.955 339.399 213.694C339.383 213.602 337.99 205.398 337.366 199.274C337.079 199.452 336.789 199.624 336.474 199.777L337.738 213.402C337.752 213.557 337.734 213.713 337.685 213.861C337.635 214.009 337.555 214.145 337.45 214.26C337.345 214.376 337.217 214.468 337.075 214.531C336.932 214.594 336.778 214.626 336.622 214.626H332.08C331.815 214.626 331.559 214.533 331.357 214.362C331.155 214.191 331.019 213.955 330.975 213.694C330.868 213.066 328.362 198.262 328.674 193.712C328.754 192.529 328.874 191.464 328.989 190.434C329.31 187.588 329.587 185.131 328.797 181.593C328.267 179.14 328.099 176.623 328.296 174.122C326.562 176.049 325.513 180.545 325.168 187.552C326.023 188.008 326.909 189.142 326.909 191.902C326.817 193.861 326.087 195.737 324.831 197.244C324.725 197.364 324.596 197.461 324.45 197.527C324.305 197.593 324.146 197.628 323.987 197.628C323.827 197.628 323.669 197.593 323.523 197.527C323.377 197.461 323.248 197.364 323.143 197.244C321.886 195.737 321.156 193.861 321.064 191.902C321.061 189.008 322.032 187.895 322.923 187.483ZM344.678 168.745C342.591 168.535 340.789 168.352 339.351 168.352C339.139 168.352 338.907 168.348 338.66 168.344C337.503 168.29 336.343 168.359 335.2 168.549C338.381 170.895 341.313 174.266 343.367 176.632C344.111 177.49 344.754 178.23 345.131 178.587C346.1 179.502 348.978 180.22 351.468 179.307C353.547 178.546 354.743 176.902 355.022 174.421C355.15 172.695 355.502 170.993 356.071 169.358C355.505 169.366 354.982 169.373 354.508 169.373C351.222 169.334 347.941 169.125 344.678 168.745ZM372.074 171.744C372.09 171.133 372.146 170.524 372.239 169.92C371.202 169.849 370.159 169.962 369.161 170.255C369.947 171.051 370.968 171.573 372.074 171.744ZM372.551 161.562C372.88 162.919 373.467 164.2 374.28 165.335C374.663 164.934 375.095 164.583 375.565 164.291C374.499 163.452 373.491 162.54 372.551 161.562ZM387.648 164.291C388.117 164.584 388.548 164.935 388.929 165.336C389.742 164.2 390.329 162.919 390.659 161.562C389.719 162.54 388.713 163.452 387.648 164.291ZM390.973 169.921C391.067 170.525 391.122 171.134 391.138 171.745C392.244 171.574 393.266 171.051 394.052 170.255C393.054 169.962 392.011 169.849 390.973 169.921ZM388.759 174.541C389.176 170.995 388.723 168.452 387.411 166.982C385.974 165.373 383.708 165.274 382.069 165.274H381.493C380.4 165.229 379.306 165.327 378.238 165.564C378.182 165.586 378.125 165.603 378.066 165.615C377.197 165.847 376.412 166.322 375.803 166.984C374.491 168.452 374.037 170.995 374.457 174.543C375.656 184.736 378.685 184.739 381.609 184.743C382.173 184.754 382.738 184.729 383.299 184.667C383.338 184.659 383.377 184.653 383.417 184.65C385.704 184.301 387.808 182.63 388.759 174.541ZM371.009 199.087C371.219 199.256 371.36 199.494 371.408 199.758C371.776 201.754 373.371 209.688 373.914 212.382H375.418C374.983 207.3 375.409 200.484 375.94 195.703C374.325 196.926 372.584 197.974 370.747 198.829C370.904 198.997 371.009 199.087 371.009 199.087ZM353.414 193.189C353.591 193.194 353.776 193.198 353.956 193.203C354.363 193.213 354.778 193.221 355.201 193.228C355.464 193.232 355.73 193.235 355.998 193.238C356.402 193.242 356.814 193.244 357.231 193.245C357.465 193.245 357.695 193.245 357.935 193.245C358.524 193.245 359.127 193.238 359.738 193.23L360.454 192.771C363.604 190.761 365.685 189.431 366.289 187.684C366.367 187.44 366.377 187.179 366.317 186.931C366.256 186.682 366.128 186.455 365.947 186.274C364.934 184.969 362.487 183.995 360.605 184.153C358.075 184.362 356.92 184.457 354.343 190.782C353.997 191.629 353.648 192.432 353.302 193.184L353.414 193.189ZM341.453 212.383H343.817L342.591 199.181C342.568 198.938 342.625 198.695 342.753 198.488C342.882 198.28 343.074 198.121 343.301 198.032C344.262 197.659 345.498 196.559 346.76 194.992C345.066 194.837 343.395 194.484 341.782 193.941C341.261 195.294 340.471 196.527 339.459 197.565C339.874 202.528 341.033 209.817 341.453 212.382V212.383ZM331.215 190.683C331.102 191.688 330.985 192.728 330.909 193.862C330.657 197.525 332.476 209.018 333.028 212.382H335.392L334.167 199.18C334.144 198.939 334.201 198.696 334.328 198.489C334.455 198.282 334.646 198.122 334.872 198.033C338.432 196.638 339.903 193.169 339.875 192.475C339.831 192.25 339.857 192.017 339.95 191.807C340.043 191.597 340.198 191.421 340.394 191.302C340.589 191.183 340.817 191.127 341.046 191.141C341.275 191.155 341.494 191.24 341.673 191.382C342.289 191.872 344.315 192.727 350.866 193.081C351.331 192.128 351.798 191.075 352.265 189.935C354.914 183.434 356.623 182.234 360.419 181.918C363.045 181.703 366.248 183.011 367.716 184.9C368.123 185.378 368.4 185.953 368.521 186.568C368.641 187.184 368.602 187.821 368.406 188.417C367.754 190.305 366.17 191.669 363.948 193.173C364.096 193.202 364.236 193.262 364.36 193.347C364.484 193.432 364.589 193.542 364.67 193.67C364.774 193.835 364.832 194.025 364.84 194.22C364.848 194.415 364.805 194.609 364.715 194.782C364.215 195.789 363.59 196.729 362.854 197.579C363.271 202.542 364.429 209.821 364.85 212.382H367.314C367.325 210.148 367.407 204.823 367.891 198.289C367.891 198.273 367.898 198.258 367.9 198.243C367.909 198.169 367.925 198.097 367.948 198.026C367.954 198.006 367.959 197.986 367.966 197.966C367.999 197.883 368.042 197.804 368.095 197.731C368.108 197.711 368.125 197.695 368.139 197.677C368.181 197.625 368.227 197.577 368.276 197.533C368.301 197.511 368.325 197.491 368.352 197.469C368.413 197.424 368.479 197.386 368.548 197.355C368.561 197.349 368.571 197.339 368.584 197.333C371.511 196.157 374.188 194.438 376.476 192.267C376.487 192.25 376.5 192.236 376.51 192.221C377.37 190.91 378.306 189.651 379.314 188.45C379.742 187.977 380.215 187.477 380.717 186.962C376.879 186.79 373.454 185.242 372.226 174.801C372.194 174.528 372.18 174.273 372.157 174.01C371.009 173.887 369.901 173.512 368.915 172.912C367.928 172.311 367.086 171.5 366.449 170.536C366.326 170.365 366.253 170.163 366.24 169.952C366.226 169.742 366.272 169.532 366.373 169.346C363.509 169.239 360.728 169.277 358.59 169.315C358.063 170.16 357.619 171.386 357.244 174.672C356.873 177.97 355.094 180.365 352.233 181.413C351.188 181.79 350.084 181.979 348.973 181.974C346.73 181.974 344.667 181.238 343.584 180.216C343.126 179.782 342.483 179.041 341.669 178.102C339.568 175.683 336.129 171.726 332.742 169.582C330.435 171.34 329.844 175.227 330.984 181.13C331.856 185.006 331.546 187.764 331.215 190.683ZM323.982 194.456C324.405 193.667 324.638 192.789 324.662 191.894C324.662 190.144 324.245 189.491 323.982 189.491C323.718 189.491 323.301 190.144 323.301 191.894C323.325 192.79 323.56 193.667 323.984 194.456H323.982Z"/>
</mask>
<path d="M322.923 187.483C323.418 177.301 325.316 172.148 329.017 171.019C329.596 169.443 330.711 168.121 332.167 167.284C332.179 167.277 332.192 167.273 332.204 167.266L332.245 167.246C334.435 166.037 336.997 166.076 338.698 166.105C338.932 166.109 339.15 166.113 339.351 166.113C340.903 166.113 342.757 166.301 344.904 166.518C348.093 166.888 351.298 167.093 354.508 167.132C355.191 167.132 355.982 167.119 356.861 167.104L357.973 167.088C361.7 167.018 367.788 166.906 372.839 167.647C372.882 167.54 372.92 167.429 372.967 167.327C371.912 166.056 371.119 164.589 370.631 163.011C370.144 161.433 369.972 159.774 370.127 158.129C370.151 157.9 370.246 157.685 370.397 157.511C370.548 157.338 370.749 157.216 370.973 157.161C371.196 157.105 371.431 157.12 371.645 157.203C371.86 157.286 372.044 157.433 372.172 157.624C373.805 159.828 375.787 161.75 378.04 163.315C379.179 163.093 380.34 162.999 381.5 163.035H381.709C382.869 162.998 384.029 163.092 385.168 163.315C387.422 161.75 389.404 159.828 391.037 157.624C391.165 157.433 391.349 157.286 391.563 157.203C391.778 157.12 392.013 157.105 392.236 157.161C392.459 157.216 392.66 157.338 392.812 157.511C392.963 157.685 393.057 157.9 393.082 158.129C393.236 159.773 393.065 161.431 392.577 163.009C392.09 164.586 391.297 166.053 390.242 167.323C390.301 167.451 390.349 167.593 390.402 167.729C392.479 167.464 395.139 167.966 396.512 168.972C396.751 169.148 396.911 169.411 396.957 169.704C397.003 169.997 396.931 170.296 396.757 170.536C396.12 171.5 395.279 172.312 394.292 172.912C393.306 173.513 392.199 173.889 391.05 174.011C391.028 174.275 391.014 174.53 390.981 174.803C389.925 183.782 387.243 186.183 384.071 186.789C382.888 187.927 381.843 188.994 380.967 189.963C380.086 191.017 379.264 192.12 378.505 193.264C377.816 197.991 377.031 207.391 377.769 213.366C377.789 213.523 377.774 213.683 377.727 213.835C377.68 213.987 377.602 214.127 377.496 214.246C377.391 214.365 377.262 214.46 377.117 214.525C376.972 214.591 376.815 214.624 376.656 214.624H372.992C372.734 214.625 372.483 214.535 372.283 214.372C372.082 214.208 371.945 213.981 371.893 213.728C371.825 213.391 370.617 207.411 369.818 203.363C369.513 209.343 369.551 213.443 369.552 213.494C369.554 213.642 369.526 213.789 369.47 213.927C369.415 214.064 369.332 214.189 369.228 214.294C369.124 214.4 369 214.483 368.863 214.541C368.726 214.598 368.579 214.627 368.431 214.627H363.895C363.631 214.627 363.374 214.533 363.172 214.363C362.97 214.192 362.835 213.955 362.79 213.694C362.773 213.592 361.04 203.392 360.574 197.248C360.561 197.081 360.586 196.914 360.646 196.758C360.707 196.602 360.802 196.461 360.923 196.346C361.209 196.07 361.468 195.767 361.697 195.442C361.178 195.454 360.637 195.464 360.081 195.472C359.245 195.485 358.43 195.491 357.636 195.49H357.508C356.884 195.49 356.276 195.486 355.678 195.479C355.54 195.479 355.405 195.474 355.268 195.472C354.746 195.465 354.235 195.454 353.735 195.441C353.579 195.437 353.422 195.433 353.268 195.428C352.66 195.41 352.064 195.388 351.492 195.364C350.752 195.33 350.059 195.287 349.389 195.236C348.342 196.694 346.678 198.719 344.892 199.745L346.16 213.402C346.174 213.557 346.156 213.713 346.106 213.861C346.056 214.009 345.977 214.145 345.872 214.26C345.766 214.376 345.638 214.468 345.496 214.531C345.353 214.594 345.199 214.626 345.043 214.626H340.504C340.239 214.626 339.983 214.533 339.781 214.362C339.579 214.191 339.443 213.955 339.399 213.694C339.383 213.602 337.99 205.398 337.366 199.274C337.079 199.452 336.789 199.624 336.474 199.777L337.738 213.402C337.752 213.557 337.734 213.713 337.685 213.861C337.635 214.009 337.555 214.145 337.45 214.26C337.345 214.376 337.217 214.468 337.075 214.531C336.932 214.594 336.778 214.626 336.622 214.626H332.08C331.815 214.626 331.559 214.533 331.357 214.362C331.155 214.191 331.019 213.955 330.975 213.694C330.868 213.066 328.362 198.262 328.674 193.712C328.754 192.529 328.874 191.464 328.989 190.434C329.31 187.588 329.587 185.131 328.797 181.593C328.267 179.14 328.099 176.623 328.296 174.122C326.562 176.049 325.513 180.545 325.168 187.552C326.023 188.008 326.909 189.142 326.909 191.902C326.817 193.861 326.087 195.737 324.831 197.244C324.725 197.364 324.596 197.461 324.45 197.527C324.305 197.593 324.146 197.628 323.987 197.628C323.827 197.628 323.669 197.593 323.523 197.527C323.377 197.461 323.248 197.364 323.143 197.244C321.886 195.737 321.156 193.861 321.064 191.902C321.061 189.008 322.032 187.895 322.923 187.483ZM344.678 168.745C342.591 168.535 340.789 168.352 339.351 168.352C339.139 168.352 338.907 168.348 338.66 168.344C337.503 168.29 336.343 168.359 335.2 168.549C338.381 170.895 341.313 174.266 343.367 176.632C344.111 177.49 344.754 178.23 345.131 178.587C346.1 179.502 348.978 180.22 351.468 179.307C353.547 178.546 354.743 176.902 355.022 174.421C355.15 172.695 355.502 170.993 356.071 169.358C355.505 169.366 354.982 169.373 354.508 169.373C351.222 169.334 347.941 169.125 344.678 168.745ZM372.074 171.744C372.09 171.133 372.146 170.524 372.239 169.92C371.202 169.849 370.159 169.962 369.161 170.255C369.947 171.051 370.968 171.573 372.074 171.744ZM372.551 161.562C372.88 162.919 373.467 164.2 374.28 165.335C374.663 164.934 375.095 164.583 375.565 164.291C374.499 163.452 373.491 162.54 372.551 161.562ZM387.648 164.291C388.117 164.584 388.548 164.935 388.929 165.336C389.742 164.2 390.329 162.919 390.659 161.562C389.719 162.54 388.713 163.452 387.648 164.291ZM390.973 169.921C391.067 170.525 391.122 171.134 391.138 171.745C392.244 171.574 393.266 171.051 394.052 170.255C393.054 169.962 392.011 169.849 390.973 169.921ZM388.759 174.541C389.176 170.995 388.723 168.452 387.411 166.982C385.974 165.373 383.708 165.274 382.069 165.274H381.493C380.4 165.229 379.306 165.327 378.238 165.564C378.182 165.586 378.125 165.603 378.066 165.615C377.197 165.847 376.412 166.322 375.803 166.984C374.491 168.452 374.037 170.995 374.457 174.543C375.656 184.736 378.685 184.739 381.609 184.743C382.173 184.754 382.738 184.729 383.299 184.667C383.338 184.659 383.377 184.653 383.417 184.65C385.704 184.301 387.808 182.63 388.759 174.541ZM371.009 199.087C371.219 199.256 371.36 199.494 371.408 199.758C371.776 201.754 373.371 209.688 373.914 212.382H375.418C374.983 207.3 375.409 200.484 375.94 195.703C374.325 196.926 372.584 197.974 370.747 198.829C370.904 198.997 371.009 199.087 371.009 199.087ZM353.414 193.189C353.591 193.194 353.776 193.198 353.956 193.203C354.363 193.213 354.778 193.221 355.201 193.228C355.464 193.232 355.73 193.235 355.998 193.238C356.402 193.242 356.814 193.244 357.231 193.245C357.465 193.245 357.695 193.245 357.935 193.245C358.524 193.245 359.127 193.238 359.738 193.23L360.454 192.771C363.604 190.761 365.685 189.431 366.289 187.684C366.367 187.44 366.377 187.179 366.317 186.931C366.256 186.682 366.128 186.455 365.947 186.274C364.934 184.969 362.487 183.995 360.605 184.153C358.075 184.362 356.92 184.457 354.343 190.782C353.997 191.629 353.648 192.432 353.302 193.184L353.414 193.189ZM341.453 212.383H343.817L342.591 199.181C342.568 198.938 342.625 198.695 342.753 198.488C342.882 198.28 343.074 198.121 343.301 198.032C344.262 197.659 345.498 196.559 346.76 194.992C345.066 194.837 343.395 194.484 341.782 193.941C341.261 195.294 340.471 196.527 339.459 197.565C339.874 202.528 341.033 209.817 341.453 212.382V212.383ZM331.215 190.683C331.102 191.688 330.985 192.728 330.909 193.862C330.657 197.525 332.476 209.018 333.028 212.382H335.392L334.167 199.18C334.144 198.939 334.201 198.696 334.328 198.489C334.455 198.282 334.646 198.122 334.872 198.033C338.432 196.638 339.903 193.169 339.875 192.475C339.831 192.25 339.857 192.017 339.95 191.807C340.043 191.597 340.198 191.421 340.394 191.302C340.589 191.183 340.817 191.127 341.046 191.141C341.275 191.155 341.494 191.24 341.673 191.382C342.289 191.872 344.315 192.727 350.866 193.081C351.331 192.128 351.798 191.075 352.265 189.935C354.914 183.434 356.623 182.234 360.419 181.918C363.045 181.703 366.248 183.011 367.716 184.9C368.123 185.378 368.4 185.953 368.521 186.568C368.641 187.184 368.602 187.821 368.406 188.417C367.754 190.305 366.17 191.669 363.948 193.173C364.096 193.202 364.236 193.262 364.36 193.347C364.484 193.432 364.589 193.542 364.67 193.67C364.774 193.835 364.832 194.025 364.84 194.22C364.848 194.415 364.805 194.609 364.715 194.782C364.215 195.789 363.59 196.729 362.854 197.579C363.271 202.542 364.429 209.821 364.85 212.382H367.314C367.325 210.148 367.407 204.823 367.891 198.289C367.891 198.273 367.898 198.258 367.9 198.243C367.909 198.169 367.925 198.097 367.948 198.026C367.954 198.006 367.959 197.986 367.966 197.966C367.999 197.883 368.042 197.804 368.095 197.731C368.108 197.711 368.125 197.695 368.139 197.677C368.181 197.625 368.227 197.577 368.276 197.533C368.301 197.511 368.325 197.491 368.352 197.469C368.413 197.424 368.479 197.386 368.548 197.355C368.561 197.349 368.571 197.339 368.584 197.333C371.511 196.157 374.188 194.438 376.476 192.267C376.487 192.25 376.5 192.236 376.51 192.221C377.37 190.91 378.306 189.651 379.314 188.45C379.742 187.977 380.215 187.477 380.717 186.962C376.879 186.79 373.454 185.242 372.226 174.801C372.194 174.528 372.18 174.273 372.157 174.01C371.009 173.887 369.901 173.512 368.915 172.912C367.928 172.311 367.086 171.5 366.449 170.536C366.326 170.365 366.253 170.163 366.24 169.952C366.226 169.742 366.272 169.532 366.373 169.346C363.509 169.239 360.728 169.277 358.59 169.315C358.063 170.16 357.619 171.386 357.244 174.672C356.873 177.97 355.094 180.365 352.233 181.413C351.188 181.79 350.084 181.979 348.973 181.974C346.73 181.974 344.667 181.238 343.584 180.216C343.126 179.782 342.483 179.041 341.669 178.102C339.568 175.683 336.129 171.726 332.742 169.582C330.435 171.34 329.844 175.227 330.984 181.13C331.856 185.006 331.546 187.764 331.215 190.683ZM323.982 194.456C324.405 193.667 324.638 192.789 324.662 191.894C324.662 190.144 324.245 189.491 323.982 189.491C323.718 189.491 323.301 190.144 323.301 191.894C323.325 192.79 323.56 193.667 323.984 194.456H323.982Z" fill="#202020"/>
<path d="M322.923 187.483C323.418 177.301 325.316 172.148 329.017 171.019C329.596 169.443 330.711 168.121 332.167 167.284C332.179 167.277 332.192 167.273 332.204 167.266L332.245 167.246C334.435 166.037 336.997 166.076 338.698 166.105C338.932 166.109 339.15 166.113 339.351 166.113C340.903 166.113 342.757 166.301 344.904 166.518C348.093 166.888 351.298 167.093 354.508 167.132C355.191 167.132 355.982 167.119 356.861 167.104L357.973 167.088C361.7 167.018 367.788 166.906 372.839 167.647C372.882 167.54 372.92 167.429 372.967 167.327C371.912 166.056 371.119 164.589 370.631 163.011C370.144 161.433 369.972 159.774 370.127 158.129C370.151 157.9 370.246 157.685 370.397 157.511C370.548 157.338 370.749 157.216 370.973 157.161C371.196 157.105 371.431 157.12 371.645 157.203C371.86 157.286 372.044 157.433 372.172 157.624C373.805 159.828 375.787 161.75 378.04 163.315C379.179 163.093 380.34 162.999 381.5 163.035H381.709C382.869 162.998 384.029 163.092 385.168 163.315C387.422 161.75 389.404 159.828 391.037 157.624C391.165 157.433 391.349 157.286 391.563 157.203C391.778 157.12 392.013 157.105 392.236 157.161C392.459 157.216 392.66 157.338 392.812 157.511C392.963 157.685 393.057 157.9 393.082 158.129C393.236 159.773 393.065 161.431 392.577 163.009C392.09 164.586 391.297 166.053 390.242 167.323C390.301 167.451 390.349 167.593 390.402 167.729C392.479 167.464 395.139 167.966 396.512 168.972C396.751 169.148 396.911 169.411 396.957 169.704C397.003 169.997 396.931 170.296 396.757 170.536C396.12 171.5 395.279 172.312 394.292 172.912C393.306 173.513 392.199 173.889 391.05 174.011C391.028 174.275 391.014 174.53 390.981 174.803C389.925 183.782 387.243 186.183 384.071 186.789C382.888 187.927 381.843 188.994 380.967 189.963C380.086 191.017 379.264 192.12 378.505 193.264C377.816 197.991 377.031 207.391 377.769 213.366C377.789 213.523 377.774 213.683 377.727 213.835C377.68 213.987 377.602 214.127 377.496 214.246C377.391 214.365 377.262 214.46 377.117 214.525C376.972 214.591 376.815 214.624 376.656 214.624H372.992C372.734 214.625 372.483 214.535 372.283 214.372C372.082 214.208 371.945 213.981 371.893 213.728C371.825 213.391 370.617 207.411 369.818 203.363C369.513 209.343 369.551 213.443 369.552 213.494C369.554 213.642 369.526 213.789 369.47 213.927C369.415 214.064 369.332 214.189 369.228 214.294C369.124 214.4 369 214.483 368.863 214.541C368.726 214.598 368.579 214.627 368.431 214.627H363.895C363.631 214.627 363.374 214.533 363.172 214.363C362.97 214.192 362.835 213.955 362.79 213.694C362.773 213.592 361.04 203.392 360.574 197.248C360.561 197.081 360.586 196.914 360.646 196.758C360.707 196.602 360.802 196.461 360.923 196.346C361.209 196.07 361.468 195.767 361.697 195.442C361.178 195.454 360.637 195.464 360.081 195.472C359.245 195.485 358.43 195.491 357.636 195.49H357.508C356.884 195.49 356.276 195.486 355.678 195.479C355.54 195.479 355.405 195.474 355.268 195.472C354.746 195.465 354.235 195.454 353.735 195.441C353.579 195.437 353.422 195.433 353.268 195.428C352.66 195.41 352.064 195.388 351.492 195.364C350.752 195.33 350.059 195.287 349.389 195.236C348.342 196.694 346.678 198.719 344.892 199.745L346.16 213.402C346.174 213.557 346.156 213.713 346.106 213.861C346.056 214.009 345.977 214.145 345.872 214.26C345.766 214.376 345.638 214.468 345.496 214.531C345.353 214.594 345.199 214.626 345.043 214.626H340.504C340.239 214.626 339.983 214.533 339.781 214.362C339.579 214.191 339.443 213.955 339.399 213.694C339.383 213.602 337.99 205.398 337.366 199.274C337.079 199.452 336.789 199.624 336.474 199.777L337.738 213.402C337.752 213.557 337.734 213.713 337.685 213.861C337.635 214.009 337.555 214.145 337.45 214.26C337.345 214.376 337.217 214.468 337.075 214.531C336.932 214.594 336.778 214.626 336.622 214.626H332.08C331.815 214.626 331.559 214.533 331.357 214.362C331.155 214.191 331.019 213.955 330.975 213.694C330.868 213.066 328.362 198.262 328.674 193.712C328.754 192.529 328.874 191.464 328.989 190.434C329.31 187.588 329.587 185.131 328.797 181.593C328.267 179.14 328.099 176.623 328.296 174.122C326.562 176.049 325.513 180.545 325.168 187.552C326.023 188.008 326.909 189.142 326.909 191.902C326.817 193.861 326.087 195.737 324.831 197.244C324.725 197.364 324.596 197.461 324.45 197.527C324.305 197.593 324.146 197.628 323.987 197.628C323.827 197.628 323.669 197.593 323.523 197.527C323.377 197.461 323.248 197.364 323.143 197.244C321.886 195.737 321.156 193.861 321.064 191.902C321.061 189.008 322.032 187.895 322.923 187.483ZM344.678 168.745C342.591 168.535 340.789 168.352 339.351 168.352C339.139 168.352 338.907 168.348 338.66 168.344C337.503 168.29 336.343 168.359 335.2 168.549C338.381 170.895 341.313 174.266 343.367 176.632C344.111 177.49 344.754 178.23 345.131 178.587C346.1 179.502 348.978 180.22 351.468 179.307C353.547 178.546 354.743 176.902 355.022 174.421C355.15 172.695 355.502 170.993 356.071 169.358C355.505 169.366 354.982 169.373 354.508 169.373C351.222 169.334 347.941 169.125 344.678 168.745ZM372.074 171.744C372.09 171.133 372.146 170.524 372.239 169.92C371.202 169.849 370.159 169.962 369.161 170.255C369.947 171.051 370.968 171.573 372.074 171.744ZM372.551 161.562C372.88 162.919 373.467 164.2 374.28 165.335C374.663 164.934 375.095 164.583 375.565 164.291C374.499 163.452 373.491 162.54 372.551 161.562ZM387.648 164.291C388.117 164.584 388.548 164.935 388.929 165.336C389.742 164.2 390.329 162.919 390.659 161.562C389.719 162.54 388.713 163.452 387.648 164.291ZM390.973 169.921C391.067 170.525 391.122 171.134 391.138 171.745C392.244 171.574 393.266 171.051 394.052 170.255C393.054 169.962 392.011 169.849 390.973 169.921ZM388.759 174.541C389.176 170.995 388.723 168.452 387.411 166.982C385.974 165.373 383.708 165.274 382.069 165.274H381.493C380.4 165.229 379.306 165.327 378.238 165.564C378.182 165.586 378.125 165.603 378.066 165.615C377.197 165.847 376.412 166.322 375.803 166.984C374.491 168.452 374.037 170.995 374.457 174.543C375.656 184.736 378.685 184.739 381.609 184.743C382.173 184.754 382.738 184.729 383.299 184.667C383.338 184.659 383.377 184.653 383.417 184.65C385.704 184.301 387.808 182.63 388.759 174.541ZM371.009 199.087C371.219 199.256 371.36 199.494 371.408 199.758C371.776 201.754 373.371 209.688 373.914 212.382H375.418C374.983 207.3 375.409 200.484 375.94 195.703C374.325 196.926 372.584 197.974 370.747 198.829C370.904 198.997 371.009 199.087 371.009 199.087ZM353.414 193.189C353.591 193.194 353.776 193.198 353.956 193.203C354.363 193.213 354.778 193.221 355.201 193.228C355.464 193.232 355.73 193.235 355.998 193.238C356.402 193.242 356.814 193.244 357.231 193.245C357.465 193.245 357.695 193.245 357.935 193.245C358.524 193.245 359.127 193.238 359.738 193.23L360.454 192.771C363.604 190.761 365.685 189.431 366.289 187.684C366.367 187.44 366.377 187.179 366.317 186.931C366.256 186.682 366.128 186.455 365.947 186.274C364.934 184.969 362.487 183.995 360.605 184.153C358.075 184.362 356.92 184.457 354.343 190.782C353.997 191.629 353.648 192.432 353.302 193.184L353.414 193.189ZM341.453 212.383H343.817L342.591 199.181C342.568 198.938 342.625 198.695 342.753 198.488C342.882 198.28 343.074 198.121 343.301 198.032C344.262 197.659 345.498 196.559 346.76 194.992C345.066 194.837 343.395 194.484 341.782 193.941C341.261 195.294 340.471 196.527 339.459 197.565C339.874 202.528 341.033 209.817 341.453 212.382V212.383ZM331.215 190.683C331.102 191.688 330.985 192.728 330.909 193.862C330.657 197.525 332.476 209.018 333.028 212.382H335.392L334.167 199.18C334.144 198.939 334.201 198.696 334.328 198.489C334.455 198.282 334.646 198.122 334.872 198.033C338.432 196.638 339.903 193.169 339.875 192.475C339.831 192.25 339.857 192.017 339.95 191.807C340.043 191.597 340.198 191.421 340.394 191.302C340.589 191.183 340.817 191.127 341.046 191.141C341.275 191.155 341.494 191.24 341.673 191.382C342.289 191.872 344.315 192.727 350.866 193.081C351.331 192.128 351.798 191.075 352.265 189.935C354.914 183.434 356.623 182.234 360.419 181.918C363.045 181.703 366.248 183.011 367.716 184.9C368.123 185.378 368.4 185.953 368.521 186.568C368.641 187.184 368.602 187.821 368.406 188.417C367.754 190.305 366.17 191.669 363.948 193.173C364.096 193.202 364.236 193.262 364.36 193.347C364.484 193.432 364.589 193.542 364.67 193.67C364.774 193.835 364.832 194.025 364.84 194.22C364.848 194.415 364.805 194.609 364.715 194.782C364.215 195.789 363.59 196.729 362.854 197.579C363.271 202.542 364.429 209.821 364.85 212.382H367.314C367.325 210.148 367.407 204.823 367.891 198.289C367.891 198.273 367.898 198.258 367.9 198.243C367.909 198.169 367.925 198.097 367.948 198.026C367.954 198.006 367.959 197.986 367.966 197.966C367.999 197.883 368.042 197.804 368.095 197.731C368.108 197.711 368.125 197.695 368.139 197.677C368.181 197.625 368.227 197.577 368.276 197.533C368.301 197.511 368.325 197.491 368.352 197.469C368.413 197.424 368.479 197.386 368.548 197.355C368.561 197.349 368.571 197.339 368.584 197.333C371.511 196.157 374.188 194.438 376.476 192.267C376.487 192.25 376.5 192.236 376.51 192.221C377.37 190.91 378.306 189.651 379.314 188.45C379.742 187.977 380.215 187.477 380.717 186.962C376.879 186.79 373.454 185.242 372.226 174.801C372.194 174.528 372.18 174.273 372.157 174.01C371.009 173.887 369.901 173.512 368.915 172.912C367.928 172.311 367.086 171.5 366.449 170.536C366.326 170.365 366.253 170.163 366.24 169.952C366.226 169.742 366.272 169.532 366.373 169.346C363.509 169.239 360.728 169.277 358.59 169.315C358.063 170.16 357.619 171.386 357.244 174.672C356.873 177.97 355.094 180.365 352.233 181.413C351.188 181.79 350.084 181.979 348.973 181.974C346.73 181.974 344.667 181.238 343.584 180.216C343.126 179.782 342.483 179.041 341.669 178.102C339.568 175.683 336.129 171.726 332.742 169.582C330.435 171.34 329.844 175.227 330.984 181.13C331.856 185.006 331.546 187.764 331.215 190.683ZM323.982 194.456C324.405 193.667 324.638 192.789 324.662 191.894C324.662 190.144 324.245 189.491 323.982 189.491C323.718 189.491 323.301 190.144 323.301 191.894C323.325 192.79 323.56 193.667 323.984 194.456H323.982Z" stroke="#202020" mask="url(#path-33-outside-4)"/>
<mask id="path-34-inside-5" fill="white">
<rect x="414.705" y="192.038" width="71.1683" height="56.0974" rx="2"/>
</mask>
<rect x="414.705" y="192.038" width="71.1683" height="56.0974" rx="2" stroke="black" stroke-width="6" mask="url(#path-34-inside-5)"/>
<mask id="path-35-inside-6" fill="white">
<rect x="428.938" y="212.132" width="16.7455" height="18.42" rx="2"/>
</mask>
<rect x="428.938" y="212.132" width="16.7455" height="18.42" rx="2" stroke="black" stroke-width="6" mask="url(#path-35-inside-6)"/>
<mask id="path-36-inside-7" fill="white">
<rect x="483.361" y="210.458" width="16.7455" height="18.42" rx="2"/>
</mask>
<rect x="483.361" y="210.458" width="16.7455" height="18.42" rx="2" stroke="black" stroke-width="6" mask="url(#path-36-inside-7)"/>
<mask id="path-37-inside-8" fill="white">
<rect x="453.22" y="212.132" width="16.7455" height="18.42" rx="2"/>
</mask>
<rect x="453.22" y="212.132" width="16.7455" height="18.42" rx="2" stroke="black" stroke-width="6" mask="url(#path-37-inside-8)"/>
<path d="M502.793 219.668C502.793 222.009 502.272 224.055 501.505 225.462C500.707 226.925 499.851 227.378 499.27 227.378C498.689 227.378 497.833 226.925 497.034 225.462C496.267 224.055 495.746 222.009 495.746 219.668C495.746 217.326 496.267 215.28 497.034 213.873C497.833 212.41 498.689 211.958 499.27 211.958C499.851 211.958 500.707 212.41 501.505 213.873C502.272 215.28 502.793 217.326 502.793 219.668Z" fill="white" stroke="black" stroke-width="3"/>
<path d="M500.107 219.929C500.107 219.929 516.907 223.903 514.34 245.047" stroke="black" stroke-width="3" stroke-linecap="round" stroke-dasharray="4 5"/>
<path d="M687.564 206.936C690.713 206.936 693.274 209.497 693.274 212.646C693.274 215.795 690.713 218.357 687.564 218.357C684.415 218.357 681.853 215.795 681.853 212.646C681.853 209.497 684.415 206.936 687.564 206.936ZM687.564 215.57C689.176 215.57 690.487 214.258 690.487 212.646C690.487 211.034 689.176 209.723 687.564 209.723C685.952 209.723 684.64 211.034 684.64 212.646C684.64 214.258 685.952 215.57 687.564 215.57Z" fill="#202020" stroke="#202020" stroke-width="0.5"/>
<mask id="path-41-outside-9" maskUnits="userSpaceOnUse" x="663.018" y="160.837" width="79" height="71" fill="black">
<rect fill="white" x="663.018" y="160.837" width="79" height="71"/>
<path d="M675.115 191.67V172.213V167.815C675.115 167.184 675.627 166.672 676.259 166.672H680.485C681.116 166.672 681.628 167.184 681.628 167.815C681.628 168.447 681.116 168.959 680.485 168.959H677.403V171.069H707.994H714.064V168.959H679.899C679.267 168.959 678.755 168.447 678.755 167.815C678.755 167.184 679.267 166.672 679.899 166.672H715.207C715.839 166.672 716.351 167.184 716.351 167.815V172.213C716.351 172.844 715.839 173.356 715.207 173.356H709.489L714.096 190.366H721.853V177.529C721.853 175.714 723.325 174.243 725.14 174.243H725.596V166.807C725.596 165.325 724.395 164.124 722.913 164.124H721.75C721.118 164.124 720.606 163.612 720.606 162.981C720.606 162.349 721.118 161.837 721.75 161.837H722.913C725.658 161.837 727.883 164.062 727.883 166.807V174.243H728.066C729.881 174.243 731.353 175.714 731.353 177.53V190.366H734.724C738.2 190.366 741.018 193.184 741.018 196.659V218.145C741.018 218.151 741.018 218.157 741.018 218.163C741.018 225.331 735.186 231.163 728.018 231.163C721.235 231.163 715.653 225.941 715.071 219.307H713.221L705.513 219.306C702.53 226.271 695.607 231.163 687.564 231.163C677.187 231.163 668.676 223.021 668.082 212.791H665.162C664.53 212.791 664.018 212.278 664.018 211.646C664.018 203.231 668.457 195.834 675.115 191.67ZM729.065 177.529C729.065 176.978 728.617 176.53 728.066 176.53H725.139C724.588 176.53 724.14 176.978 724.14 177.529V190.366H729.065V177.529ZM728.018 228.875C733.925 228.875 738.731 224.07 738.731 218.163L738.73 218.145C738.721 212.246 733.919 207.45 728.018 207.45C722.111 207.45 717.305 212.255 717.305 218.163C717.305 224.07 722.111 228.875 728.018 228.875ZM711.108 217.019H712.077L712.113 217.019C712.113 217.019 712.625 217.019 713.257 217.019C713.889 217.019 714.4 217.019 714.4 217.019H714.365C714.089 217.019 715.071 217.019 715.071 217.019C715.652 210.385 721.235 205.162 728.018 205.162C732.458 205.162 736.384 207.402 738.73 210.809V196.661C738.73 194.447 736.936 192.653 734.723 192.653H714.364V202.259C714.364 202.89 713.852 203.402 713.221 203.402C712.589 203.402 712.077 202.89 712.077 202.259V191.661L707.119 173.357H677.402V190.409C678.066 190.09 678.746 189.802 679.443 189.545V176.541C679.443 175.909 679.955 175.397 680.586 175.397H704.682C705.199 175.397 705.651 175.743 705.786 176.242L709.997 191.786C710.119 192.239 709.955 192.733 709.552 193.021C709.355 193.161 709.114 193.227 708.872 193.229L702.294 193.293C707.664 197.612 711.108 204.235 711.108 211.647V217.019ZM681.73 177.684V188.833C683.596 188.356 685.551 188.101 687.564 188.101C691.687 188.101 695.566 189.168 698.94 191.038L707.402 190.956L703.807 177.684H681.73ZM687.564 228.875C697.064 228.875 704.793 221.146 704.793 211.646C704.793 202.146 697.064 194.417 687.564 194.417C678.064 194.417 670.335 202.146 670.335 211.646C670.335 221.147 678.063 228.875 687.564 228.875ZM668.082 210.503C668.676 200.272 677.186 192.13 687.564 192.13C698.325 192.13 707.08 200.885 707.08 211.646C707.08 213.509 706.817 215.312 706.328 217.019H708.821V211.647C708.821 199.925 699.285 190.388 687.564 190.388C676.225 190.388 666.932 199.311 666.336 210.503H668.082Z"/>
</mask>
<path d="M675.115 191.67V172.213V167.815C675.115 167.184 675.627 166.672 676.259 166.672H680.485C681.116 166.672 681.628 167.184 681.628 167.815C681.628 168.447 681.116 168.959 680.485 168.959H677.403V171.069H707.994H714.064V168.959H679.899C679.267 168.959 678.755 168.447 678.755 167.815C678.755 167.184 679.267 166.672 679.899 166.672H715.207C715.839 166.672 716.351 167.184 716.351 167.815V172.213C716.351 172.844 715.839 173.356 715.207 173.356H709.489L714.096 190.366H721.853V177.529C721.853 175.714 723.325 174.243 725.14 174.243H725.596V166.807C725.596 165.325 724.395 164.124 722.913 164.124H721.75C721.118 164.124 720.606 163.612 720.606 162.981C720.606 162.349 721.118 161.837 721.75 161.837H722.913C725.658 161.837 727.883 164.062 727.883 166.807V174.243H728.066C729.881 174.243 731.353 175.714 731.353 177.53V190.366H734.724C738.2 190.366 741.018 193.184 741.018 196.659V218.145C741.018 218.151 741.018 218.157 741.018 218.163C741.018 225.331 735.186 231.163 728.018 231.163C721.235 231.163 715.653 225.941 715.071 219.307H713.221L705.513 219.306C702.53 226.271 695.607 231.163 687.564 231.163C677.187 231.163 668.676 223.021 668.082 212.791H665.162C664.53 212.791 664.018 212.278 664.018 211.646C664.018 203.231 668.457 195.834 675.115 191.67ZM729.065 177.529C729.065 176.978 728.617 176.53 728.066 176.53H725.139C724.588 176.53 724.14 176.978 724.14 177.529V190.366H729.065V177.529ZM728.018 228.875C733.925 228.875 738.731 224.07 738.731 218.163L738.73 218.145C738.721 212.246 733.919 207.45 728.018 207.45C722.111 207.45 717.305 212.255 717.305 218.163C717.305 224.07 722.111 228.875 728.018 228.875ZM711.108 217.019H712.077L712.113 217.019C712.113 217.019 712.625 217.019 713.257 217.019C713.889 217.019 714.4 217.019 714.4 217.019H714.365C714.089 217.019 715.071 217.019 715.071 217.019C715.652 210.385 721.235 205.162 728.018 205.162C732.458 205.162 736.384 207.402 738.73 210.809V196.661C738.73 194.447 736.936 192.653 734.723 192.653H714.364V202.259C714.364 202.89 713.852 203.402 713.221 203.402C712.589 203.402 712.077 202.89 712.077 202.259V191.661L707.119 173.357H677.402V190.409C678.066 190.09 678.746 189.802 679.443 189.545V176.541C679.443 175.909 679.955 175.397 680.586 175.397H704.682C705.199 175.397 705.651 175.743 705.786 176.242L709.997 191.786C710.119 192.239 709.955 192.733 709.552 193.021C709.355 193.161 709.114 193.227 708.872 193.229L702.294 193.293C707.664 197.612 711.108 204.235 711.108 211.647V217.019ZM681.73 177.684V188.833C683.596 188.356 685.551 188.101 687.564 188.101C691.687 188.101 695.566 189.168 698.94 191.038L707.402 190.956L703.807 177.684H681.73ZM687.564 228.875C697.064 228.875 704.793 221.146 704.793 211.646C704.793 202.146 697.064 194.417 687.564 194.417C678.064 194.417 670.335 202.146 670.335 211.646C670.335 221.147 678.063 228.875 687.564 228.875ZM668.082 210.503C668.676 200.272 677.186 192.13 687.564 192.13C698.325 192.13 707.08 200.885 707.08 211.646C707.08 213.509 706.817 215.312 706.328 217.019H708.821V211.647C708.821 199.925 699.285 190.388 687.564 190.388C676.225 190.388 666.932 199.311 666.336 210.503H668.082Z" fill="#202020"/>
<path d="M675.115 191.67V172.213V167.815C675.115 167.184 675.627 166.672 676.259 166.672H680.485C681.116 166.672 681.628 167.184 681.628 167.815C681.628 168.447 681.116 168.959 680.485 168.959H677.403V171.069H707.994H714.064V168.959H679.899C679.267 168.959 678.755 168.447 678.755 167.815C678.755 167.184 679.267 166.672 679.899 166.672H715.207C715.839 166.672 716.351 167.184 716.351 167.815V172.213C716.351 172.844 715.839 173.356 715.207 173.356H709.489L714.096 190.366H721.853V177.529C721.853 175.714 723.325 174.243 725.14 174.243H725.596V166.807C725.596 165.325 724.395 164.124 722.913 164.124H721.75C721.118 164.124 720.606 163.612 720.606 162.981C720.606 162.349 721.118 161.837 721.75 161.837H722.913C725.658 161.837 727.883 164.062 727.883 166.807V174.243H728.066C729.881 174.243 731.353 175.714 731.353 177.53V190.366H734.724C738.2 190.366 741.018 193.184 741.018 196.659V218.145C741.018 218.151 741.018 218.157 741.018 218.163C741.018 225.331 735.186 231.163 728.018 231.163C721.235 231.163 715.653 225.941 715.071 219.307H713.221L705.513 219.306C702.53 226.271 695.607 231.163 687.564 231.163C677.187 231.163 668.676 223.021 668.082 212.791H665.162C664.53 212.791 664.018 212.278 664.018 211.646C664.018 203.231 668.457 195.834 675.115 191.67ZM729.065 177.529C729.065 176.978 728.617 176.53 728.066 176.53H725.139C724.588 176.53 724.14 176.978 724.14 177.529V190.366H729.065V177.529ZM728.018 228.875C733.925 228.875 738.731 224.07 738.731 218.163L738.73 218.145C738.721 212.246 733.919 207.45 728.018 207.45C722.111 207.45 717.305 212.255 717.305 218.163C717.305 224.07 722.111 228.875 728.018 228.875ZM711.108 217.019H712.077L712.113 217.019C712.113 217.019 712.625 217.019 713.257 217.019C713.889 217.019 714.4 217.019 714.4 217.019H714.365C714.089 217.019 715.071 217.019 715.071 217.019C715.652 210.385 721.235 205.162 728.018 205.162C732.458 205.162 736.384 207.402 738.73 210.809V196.661C738.73 194.447 736.936 192.653 734.723 192.653H714.364V202.259C714.364 202.89 713.852 203.402 713.221 203.402C712.589 203.402 712.077 202.89 712.077 202.259V191.661L707.119 173.357H677.402V190.409C678.066 190.09 678.746 189.802 679.443 189.545V176.541C679.443 175.909 679.955 175.397 680.586 175.397H704.682C705.199 175.397 705.651 175.743 705.786 176.242L709.997 191.786C710.119 192.239 709.955 192.733 709.552 193.021C709.355 193.161 709.114 193.227 708.872 193.229L702.294 193.293C707.664 197.612 711.108 204.235 711.108 211.647V217.019ZM681.73 177.684V188.833C683.596 188.356 685.551 188.101 687.564 188.101C691.687 188.101 695.566 189.168 698.94 191.038L707.402 190.956L703.807 177.684H681.73ZM687.564 228.875C697.064 228.875 704.793 221.146 704.793 211.646C704.793 202.146 697.064 194.417 687.564 194.417C678.064 194.417 670.335 202.146 670.335 211.646C670.335 221.147 678.063 228.875 687.564 228.875ZM668.082 210.503C668.676 200.272 677.186 192.13 687.564 192.13C698.325 192.13 707.08 200.885 707.08 211.646C707.08 213.509 706.817 215.312 706.328 217.019H708.821V211.647C708.821 199.925 699.285 190.388 687.564 190.388C676.225 190.388 666.932 199.311 666.336 210.503H668.082Z" stroke="#202020" mask="url(#path-41-outside-9)"/>
<path d="M728.018 211.75C731.465 211.75 734.268 214.554 734.268 218C734.268 221.446 731.465 224.25 728.018 224.25C724.572 224.25 721.768 221.446 721.768 218C721.768 214.554 724.572 211.75 728.018 211.75ZM728.018 221.757C730.089 221.757 731.775 220.071 731.775 218C731.775 215.929 730.089 214.243 728.018 214.243C725.947 214.243 724.261 215.929 724.261 218C724.261 220.071 725.947 221.757 728.018 221.757Z" fill="#202020" stroke="#202020" stroke-width="0.5"/>
<path d="M735.734 195.871C736.365 195.871 736.877 196.383 736.877 197.014V204.948C736.877 205.58 736.365 206.092 735.734 206.092C732.916 206.092 730.623 203.799 730.623 200.981C730.623 198.164 732.916 195.871 735.734 195.871ZM734.59 203.563V198.4C733.601 198.84 732.91 199.832 732.91 200.982C732.91 202.132 733.601 203.123 734.59 203.563Z" fill="#202020"/>
<mask id="path-44-inside-10" fill="white">
<rect x="593.281" y="179.897" width="56.0974" height="51.911" rx="1"/>
</mask>
<rect x="593.281" y="179.897" width="56.0974" height="51.911" rx="1" stroke="#202020" stroke-width="6" stroke-linejoin="round" mask="url(#path-44-inside-10)"/>
<rect x="609.852" y="162.14" width="22.1182" height="18.7691" stroke="#202020" stroke-width="3" stroke-linejoin="round"/>
<rect x="606.503" y="207.353" width="29.6537" height="22.9555" stroke="#202020" stroke-width="3" stroke-linejoin="round"/>
<rect x="604.829" y="192.281" width="7.04729" height="7.88456" stroke="#202020" stroke-width="3" stroke-linejoin="round"/>
<rect x="617.388" y="192.281" width="7.04729" height="7.88456" stroke="#202020" stroke-width="3" stroke-linejoin="round"/>
<rect x="629.947" y="192.281" width="7.04729" height="7.88456" stroke="#202020" stroke-width="3" stroke-linejoin="round"/>
<path d="M591.709 121.816C591.563 121.485 591.805 121.113 592.166 121.113H649.656C650.017 121.113 650.26 121.485 650.113 121.816L632.494 161.652H609.329L591.709 121.816Z" stroke="#202020" stroke-width="3" stroke-linejoin="round"/>
<path d="M918.451 169.579C918.483 169.329 918.695 169.141 918.947 169.141H938.86C939.112 169.141 939.325 169.329 939.356 169.579L946.711 228.419C946.772 228.907 946.167 229.181 945.841 228.814L931.52 212.702C930.127 211.135 927.68 211.135 926.288 212.702L911.966 228.814L913.061 229.787L911.966 228.814C911.64 229.181 911.035 228.907 911.096 228.419L918.451 169.579Z" stroke="#202020" stroke-width="3" stroke-linejoin="round"/>
<path d="M928.347 189.561C928.901 189.129 929.681 189.139 930.223 189.587L940.095 197.731C940.792 198.306 940.826 199.361 940.169 199.98L930.293 209.28C929.727 209.813 928.848 209.825 928.267 209.309L917.819 200.012C917.119 199.389 917.155 198.285 917.894 197.709L928.347 189.561Z" stroke="#202020" stroke-width="3"/>
<path d="M955.696 168.479L909.367 168.479C906.449 168.479 905.248 172.221 907.621 173.918L926.998 187.781C928.172 188.621 929.777 188.506 930.82 187.507L940.625 178.107" stroke="#202020" stroke-width="3" stroke-linecap="round"/>
<path d="M912.684 152.778C912.29 151.793 913.016 150.721 914.077 150.721H943.73C944.791 150.721 945.516 151.793 945.122 152.778L939.149 167.71C938.922 168.28 938.37 168.653 937.757 168.653H920.05C919.436 168.653 918.885 168.28 918.657 167.71L912.684 152.778Z" stroke="#202020" stroke-width="3"/>
<line x1="906.123" y1="150.233" x2="950.01" y2="150.233" stroke="#202020" stroke-width="3" stroke-linecap="round"/>
<path d="M929.243 121L922.544 130.21L935.184 130.21L929.243 140.43" stroke="#202020" stroke-width="3" stroke-linecap="round" stroke-linejoin="round"/>
<rect x="868.355" y="201.059" width="23.9319" height="4.67455" rx="2.33727" stroke="#202020" stroke-width="3" stroke-linejoin="round"/>
<rect x="868.355" y="225.34" width="23.9319" height="4.67455" rx="2.33727" stroke="#202020" stroke-width="3" stroke-linejoin="round"/>
<line x1="870.518" y1="205.908" x2="870.518" y2="225.165" stroke="#202020" stroke-width="3"/>
<line x1="890.612" y1="205.908" x2="890.612" y2="225.165" stroke="#202020" stroke-width="3"/>
<path d="M889.949 201.722V200.861C889.949 198.099 887.711 195.861 884.949 195.861H876.529C873.768 195.861 871.529 198.099 871.529 200.861V201.722" stroke="#202020" stroke-width="3"/>
<path d="M884.088 190H885.588C885.588 189.172 884.917 188.5 884.088 188.5V190ZM882.39 191.5H884.088V188.5H882.39V191.5ZM882.588 190V195.861H885.588V190H882.588ZM878.89 195.861V195H875.89V195.861H878.89ZM882.39 188.5C878.8 188.5 875.89 191.41 875.89 195H878.89C878.89 193.067 880.457 191.5 882.39 191.5V188.5Z" fill="#202020"/>
<path d="M889.95 221.816C885.788 221.816 882.414 219.192 882.414 215.955C882.414 212.719 885.788 210.094 889.95 210.094" stroke="#202020" stroke-width="3"/>
<line x1="892.089" y1="190" x2="902.509" y2="188.698" stroke="#202020" stroke-width="3" stroke-linecap="round"/>
<line x1="892.531" y1="193.816" x2="898.789" y2="194.954" stroke="#202020" stroke-width="3" stroke-linecap="round"/>
<path d="M853.705 144.237L861.403 218.522V229.89H802.425V218.522L810.123 144.237H853.705Z" stroke="#202020" stroke-width="3" stroke-linejoin="round"/>
<path d="M807.296 137.135L809.798 143.591H853.932L855.817 137.105L854.087 133.254H809.621L807.296 137.135Z" stroke="#202020" stroke-width="3" stroke-linejoin="round"/>
<line x1="801.71" y1="218.906" x2="861.335" y2="218.906" stroke="#202020" stroke-width="3" stroke-linejoin="round"/>
<line x1="802.258" y1="229.506" x2="813.241" y2="219.307" stroke="#202020" stroke-width="3" stroke-linejoin="round"/>
<line y1="-1.5" x2="16.4752" y2="-1.5" transform="matrix(0.732783 -0.680462 0.68044 0.732804 818.185 231.389)" stroke="#202020" stroke-width="3" stroke-linejoin="round"/>
<line y1="-1.5" x2="16.4752" y2="-1.5" transform="matrix(0.73278 -0.680465 0.680437 0.732807 833.876 231.389)" stroke="#202020" stroke-width="3" stroke-linejoin="round"/>
<line y1="-1.5" x2="16.4752" y2="-1.5" transform="matrix(0.732783 -0.680462 0.68044 0.732804 849.566 231.389)" stroke="#202020" stroke-width="3" stroke-linejoin="round"/>
<path d="M836.974 167.842V149.798C832.529 149.929 824.657 153.721 828.737 167.842" stroke="#202020" stroke-width="3" stroke-linejoin="round"/>
<path d="M825.967 173.334L810.34 182.356C812.676 186.141 819.896 191.062 830.086 180.468" stroke="#202020" stroke-width="3" stroke-linejoin="round"/>
<path d="M835.445 179.884L851.071 188.906C853.181 184.991 853.833 176.278 839.563 172.75" stroke="#202020" stroke-width="3" stroke-linejoin="round"/>
<circle cx="832.699" cy="173.726" r="6.73759" stroke="#202020" stroke-width="3" stroke-linejoin="round"/>
<circle cx="832.699" cy="173.726" r="2.81493" stroke="#202020" stroke-width="3" stroke-linejoin="round"/>
<line y1="-1.5" x2="38.5993" y2="-1.5" transform="matrix(-0.0508473 0.998706 -0.998388 -0.0567561 829.562 180.395)" stroke="#202020" stroke-width="3" stroke-linejoin="round"/>
<line y1="-1.5" x2="39.2952" y2="-1.5" transform="matrix(0.0201082 0.999798 -1 0.00040714 833.763 180.571)" stroke="#202020" stroke-width="3" stroke-linejoin="round"/>
<path d="M1013.18 222.716L995.399 195.574H961.758L979.123 222.716H1013.18ZM995.251 195.348C995.251 195.348 995.251 195.348 995.251 195.348L995.251 195.348L995.669 195.074L995.251 195.348Z" stroke="#202020" stroke-width="3" stroke-linecap="round" stroke-linejoin="round"/>
<path d="M1003.13 222.716L985.296 195.574H974.345L992.027 222.716H1003.13Z" stroke="#202020" stroke-width="3" stroke-linecap="round" stroke-linejoin="round"/>
<path d="M973.389 214.021L1006.86 214.119L1000.91 205.062L967.49 204.841L973.389 214.021ZM1001.18 205.063L1001.18 205.063L1001.18 205.063Z" stroke="#202020" stroke-width="3" stroke-linecap="round" stroke-linejoin="round"/>
<path d="M1013.98 223.683V229.076C1013.98 229.629 1013.53 230.076 1012.98 230.076H960.855C960.303 230.076 959.855 229.629 959.855 229.076V194.911" stroke="#202020" stroke-width="3" stroke-linecap="round" stroke-linejoin="round"/>
<line x1="979.775" y1="224.041" x2="979.775" y2="228.576" stroke="#202020" stroke-width="3" stroke-linecap="round" stroke-linejoin="round"/>
<circle r="6.5034" transform="matrix(-1 0 0 1 1004.98 157.864)" stroke="#202020" stroke-width="3"/>
<line x1="1.5" y1="-1.5" x2="20.4902" y2="-1.5" transform="matrix(-0.707116 0.707097 0.707116 0.707097 996.062 164.952)" stroke="#202020" stroke-width="3" stroke-linecap="round"/>
<line x1="1.5" y1="-1.5" x2="14.9641" y2="-1.5" transform="matrix(0 1 1 0 1004.75 169.068)" stroke="#202020" stroke-width="3" stroke-linecap="round"/>
<line x1="1.5" y1="-1.5" x2="14.9705" y2="-1.5" transform="matrix(-0.999615 -0.0277507 -0.0277834 0.999614 992.404 156.263)" stroke="#202020" stroke-width="3" stroke-linecap="round"/>
<line x1="1.5" y1="-1.5" x2="9.21575" y2="-1.5" transform="matrix(0.768217 0.640189 0.64018 -0.768225 1013.9 165.409)" stroke="#202020" stroke-width="3" stroke-linecap="round"/>
<line x1="1.5" y1="-1.5" x2="9.21575" y2="-1.5" transform="matrix(0.768221 0.640184 0.640184 -0.768221 987.374 143)" stroke="#202020" stroke-width="3" stroke-linecap="round"/>
<path d="M57.4819 83.3155C56.8707 83.603 56.601 84.3267 56.8734 84.9452L59.6653 90.9529C59.8025 91.252 60.0527 91.4849 60.3605 91.5998C60.4953 91.6489 60.6383 91.6742 60.7821 91.6742C60.962 91.6758 61.1396 91.6372 61.3031 91.5628L82.3971 81.6866L80.4865 101.711C80.4496 102.105 80.6012 102.493 80.8953 102.756C81.8201 103.524 82.9726 103.961 84.1718 104C84.5024 104 84.8312 103.958 85.1517 103.876C86.8642 103.428 88.1919 101.899 89.0977 99.2863L97.3987 74.6472L113.839 66.96C118.678 64.6966 121.172 60.1071 119.498 56.5248C118.547 54.6525 116.727 53.3788 114.646 53.1292C112.334 52.7794 109.971 53.144 107.871 54.1746L88.8987 63.0922L68.5003 55.0946C65.9314 54.1247 63.8969 54.1497 62.47 55.1822C61.2728 56.1669 60.5917 57.647 60.6208 59.1992C60.6332 59.5929 60.831 59.9571 61.1543 60.1823L74.8899 69.6471L67.0237 73.3786L53.8332 70.0199C53.2927 69.8867 52.7301 70.1309 52.4561 70.617L49.1684 76.5495C48.9978 76.8638 48.971 77.237 49.095 77.5727C49.2182 77.9089 49.4801 78.1749 49.8139 78.3034L59.579 82.3461L57.4819 83.3155ZM63.164 58.5775C63.2371 58.0517 63.5025 57.573 63.9089 57.2341C64.6165 56.7239 65.9069 56.7987 67.6314 57.4452L85.7971 64.5474L77.5081 68.428L63.164 58.5775ZM51.9972 76.5374L54.1561 72.6942L66.8496 75.8531C67.1232 75.9224 67.4119 75.8963 67.6691 75.7791L108.926 56.4629C110.566 55.652 112.414 55.3567 114.224 55.6169C115.494 55.7342 116.625 56.4687 117.252 57.5819C118.293 59.8212 116.246 63.0922 112.784 64.709L98.4902 71.426L99.3591 68.8506C99.5786 68.1881 99.22 67.4722 98.559 67.2525C97.8973 67.0328 97.1835 67.3923 96.9643 68.0549L86.7523 98.5146C86.1441 100.244 85.3872 101.277 84.5436 101.5C84.021 101.601 83.4801 101.498 83.0297 101.214L85.5116 75.0943C85.5764 74.4076 85.074 73.7981 84.3882 73.733C83.7031 73.6672 83.095 74.1716 83.0297 74.8583L82.6454 78.8507L61.3525 88.8009L59.6039 85.0695L63.1022 83.4281C63.5526 83.2291 63.8428 82.7827 63.8428 82.29C63.8428 81.7969 63.5526 81.3505 63.1022 81.1518L51.9972 76.5374Z" fill="#00C7A5"/>
<circle cx="235.518" cy="115.5" r="8.5" fill="#00C7A5"/>
<circle cx="414.518" cy="142.5" r="8.5" fill="#8D75F3"/>
<circle cx="679.518" cy="112.5" r="8.5" fill="#6CBAFA"/>
<circle cx="898.518" cy="106.5" r="8.5" fill="#FBC800"/>
</svg>
