<svg width="1440" height="1024" viewBox="0 0 1440 1024" fill="none" xmlns="http://www.w3.org/2000/svg">
<g clip-path="url(#clip0)">
<rect width="1440" height="1024" fill="white"/>
<path d="M191 704V570H237V660H383V570H431V704H191Z" stroke="black" stroke-width="3"/>
<path d="M-1 570H159H201H211H367H383H431V550H533V590H654.5C669 590 666.5 599.5 678.5 599.5C685.542 599.5 685.5 588.5 685.5 588.5C694.5 588.5 694.5 599.5 700 599.5C710.5 599.5 709 588.5 709 588.5C720.5 588.5 718 599.5 724 599.5C734.5 599.5 733 588.5 733 588.5C744 587.5 741 598 748 598C755 598 756.5 588.5 756.5 588.5C766.5 588.5 767.09 597.566 771 598C784.5 599.5 783 590 797.5 590V570H1385V590H1437" stroke="black" stroke-width="3"/>
<rect x="938" y="428" width="166" height="189" rx="8" transform="rotate(-90 938 428)" fill="#6CBAFA" fill-opacity="0.16"/>
<g filter="url(#filter0_d)">
<circle cx="938" cy="427" r="23" fill="#6CBAFA"/>
</g>
<line x1="938.29" y1="416.105" x2="938.29" y2="439.105" stroke="white" stroke-width="3"/>
<path d="M950.105 428.21L926.5 428.21" stroke="white" stroke-width="3"/>
<g filter="url(#filter1_d)">
<circle cx="568" cy="466" r="23" fill="#8D75F3"/>
</g>
<line x1="568.29" y1="455.105" x2="568.29" y2="478.105" stroke="white" stroke-width="3"/>
<path d="M580.105 467.21L556.5 467.21" stroke="white" stroke-width="3"/>
<g filter="url(#filter2_d)">
<circle cx="338" cy="435" r="23" fill="#00C7A5"/>
</g>
<line x1="338.29" y1="424.105" x2="338.29" y2="447.105" stroke="white" stroke-width="3"/>
<path d="M350.105 436.21L326.5 436.21" stroke="white" stroke-width="3"/>
<path d="M966.404 308.689H960.896L959.744 312H957.176L962.547 297.781H964.764L970.145 312H967.566L966.404 308.689ZM961.59 306.697H965.711L963.65 300.799L961.59 306.697ZM971.121 306.639C971.121 304.998 971.505 303.689 972.273 302.713C973.048 301.73 974.074 301.238 975.35 301.238C976.554 301.238 977.501 301.658 978.191 302.498L978.299 301.434H980.438V311.678C980.438 313.064 980.005 314.158 979.139 314.959C978.279 315.76 977.117 316.16 975.652 316.16C974.878 316.16 974.119 315.997 973.377 315.672C972.641 315.353 972.081 314.933 971.697 314.412L972.82 312.986C973.549 313.852 974.448 314.285 975.516 314.285C976.303 314.285 976.925 314.07 977.381 313.641C977.837 313.217 978.064 312.592 978.064 311.766V311.053C977.381 311.814 976.469 312.195 975.33 312.195C974.093 312.195 973.081 311.704 972.293 310.721C971.512 309.738 971.121 308.377 971.121 306.639ZM973.484 306.844C973.484 307.905 973.699 308.742 974.129 309.354C974.565 309.959 975.167 310.262 975.936 310.262C976.893 310.262 977.602 309.852 978.064 309.031V304.383C977.615 303.582 976.912 303.182 975.955 303.182C975.174 303.182 974.565 303.491 974.129 304.109C973.699 304.728 973.484 305.639 973.484 306.844ZM988.416 303.602C988.104 303.549 987.781 303.523 987.449 303.523C986.362 303.523 985.63 303.94 985.252 304.773V312H982.879V301.434H985.145L985.203 302.615C985.776 301.697 986.57 301.238 987.586 301.238C987.924 301.238 988.204 301.284 988.426 301.375L988.416 303.602ZM992.439 312H990.066V301.434H992.439V312ZM989.92 298.689C989.92 298.325 990.034 298.022 990.262 297.781C990.496 297.54 990.828 297.42 991.258 297.42C991.688 297.42 992.02 297.54 992.254 297.781C992.488 298.022 992.605 298.325 992.605 298.689C992.605 299.048 992.488 299.347 992.254 299.588C992.02 299.822 991.688 299.939 991.258 299.939C990.828 299.939 990.496 299.822 990.262 299.588C990.034 299.347 989.92 299.048 989.92 298.689ZM999.373 310.301C999.965 310.301 1000.46 310.128 1000.85 309.783C1001.24 309.438 1001.45 309.012 1001.47 308.504H1003.71C1003.68 309.161 1003.48 309.777 1003.09 310.35C1002.71 310.916 1002.19 311.365 1001.53 311.697C1000.87 312.029 1000.16 312.195 999.402 312.195C997.924 312.195 996.753 311.717 995.887 310.76C995.021 309.803 994.588 308.481 994.588 306.795V306.551C994.588 304.943 995.018 303.657 995.877 302.693C996.736 301.723 997.908 301.238 999.393 301.238C1000.65 301.238 1001.67 301.606 1002.46 302.342C1003.25 303.071 1003.67 304.031 1003.71 305.223H1001.47C1001.45 304.617 1001.24 304.119 1000.85 303.729C1000.46 303.338 999.972 303.143 999.373 303.143C998.605 303.143 998.012 303.423 997.596 303.982C997.179 304.536 996.967 305.379 996.961 306.512V306.893C996.961 308.038 997.166 308.895 997.576 309.461C997.993 310.021 998.592 310.301 999.373 310.301ZM1011.9 310.965C1011.21 311.785 1010.22 312.195 1008.93 312.195C1007.79 312.195 1006.92 311.86 1006.33 311.189C1005.74 310.519 1005.45 309.549 1005.45 308.279V301.434H1007.82V308.25C1007.82 309.591 1008.38 310.262 1009.49 310.262C1010.64 310.262 1011.42 309.848 1011.82 309.021V301.434H1014.2V312H1011.96L1011.9 310.965ZM1019.14 312H1016.77V297H1019.14V312ZM1024.71 298.865V301.434H1026.57V303.191H1024.71V309.09C1024.71 309.493 1024.78 309.786 1024.94 309.969C1025.1 310.145 1025.39 310.232 1025.8 310.232C1026.07 310.232 1026.35 310.2 1026.63 310.135V311.971C1026.09 312.12 1025.57 312.195 1025.07 312.195C1023.24 312.195 1022.33 311.189 1022.33 309.178V303.191H1020.59V301.434H1022.33V298.865H1024.71ZM1034.79 310.965C1034.1 311.785 1033.11 312.195 1031.82 312.195C1030.68 312.195 1029.81 311.86 1029.22 311.189C1028.63 310.519 1028.34 309.549 1028.34 308.279V301.434H1030.71V308.25C1030.71 309.591 1031.27 310.262 1032.38 310.262C1033.53 310.262 1034.31 309.848 1034.71 309.021V301.434H1037.09V312H1034.85L1034.79 310.965ZM1045.04 303.602C1044.72 303.549 1044.4 303.523 1044.07 303.523C1042.98 303.523 1042.25 303.94 1041.87 304.773V312H1039.5V301.434H1041.77L1041.82 302.615C1042.4 301.697 1043.19 301.238 1044.21 301.238C1044.55 301.238 1044.83 301.284 1045.05 301.375L1045.04 303.602ZM1050.99 312.195C1049.49 312.195 1048.27 311.723 1047.33 310.779C1046.4 309.829 1045.94 308.566 1045.94 306.99V306.697C1045.94 305.643 1046.14 304.702 1046.54 303.875C1046.95 303.042 1047.52 302.394 1048.26 301.932C1049 301.469 1049.82 301.238 1050.72 301.238C1052.16 301.238 1053.27 301.697 1054.05 302.615C1054.84 303.533 1055.23 304.832 1055.23 306.512V307.469H1048.33C1048.4 308.341 1048.69 309.031 1049.2 309.539C1049.71 310.047 1050.36 310.301 1051.13 310.301C1052.22 310.301 1053.1 309.861 1053.79 308.982L1055.07 310.203C1054.64 310.835 1054.08 311.326 1053.37 311.678C1052.66 312.023 1051.87 312.195 1050.99 312.195ZM1050.71 303.143C1050.06 303.143 1049.53 303.37 1049.13 303.826C1048.73 304.282 1048.48 304.917 1048.37 305.73H1052.89V305.555C1052.84 304.76 1052.62 304.161 1052.25 303.758C1051.88 303.348 1051.37 303.143 1050.71 303.143ZM1061.69 308.162C1061.69 307.505 1061.87 306.902 1062.22 306.355C1062.58 305.802 1063.29 305.148 1064.34 304.393C1063.79 303.696 1063.4 303.104 1063.18 302.615C1062.97 302.127 1062.86 301.655 1062.86 301.199C1062.86 300.086 1063.2 299.207 1063.88 298.562C1064.55 297.911 1065.46 297.586 1066.61 297.586C1067.64 297.586 1068.49 297.892 1069.15 298.504C1069.81 299.109 1070.14 299.861 1070.14 300.76C1070.14 301.352 1069.99 301.899 1069.7 302.4C1069.4 302.895 1068.9 303.39 1068.22 303.885L1067.25 304.588L1070 307.83C1070.4 307.049 1070.59 306.18 1070.59 305.223H1072.65C1072.65 306.974 1072.24 308.41 1071.42 309.529L1073.51 312H1070.76L1069.96 311.053C1068.94 311.814 1067.73 312.195 1066.33 312.195C1064.92 312.195 1063.79 311.824 1062.95 311.082C1062.11 310.333 1061.69 309.36 1061.69 308.162ZM1066.39 310.301C1067.2 310.301 1067.94 310.034 1068.64 309.5L1065.54 305.838L1065.23 306.053C1064.45 306.645 1064.06 307.322 1064.06 308.084C1064.06 308.742 1064.27 309.275 1064.7 309.686C1065.12 310.096 1065.68 310.301 1066.39 310.301ZM1065.09 301.141C1065.09 301.688 1065.42 302.374 1066.09 303.201L1067.18 302.459L1067.48 302.215C1067.88 301.857 1068.08 301.398 1068.08 300.838C1068.08 300.467 1067.94 300.151 1067.66 299.891C1067.38 299.624 1067.03 299.49 1066.6 299.49C1066.14 299.49 1065.77 299.646 1065.5 299.959C1065.22 300.271 1065.09 300.665 1065.09 301.141ZM957.771 331.639C957.771 330.011 958.149 328.706 958.904 327.723C959.66 326.733 960.672 326.238 961.941 326.238C963.061 326.238 963.966 326.629 964.656 327.41V322H967.029V337H964.881L964.764 335.906C964.054 336.766 963.107 337.195 961.922 337.195C960.685 337.195 959.682 336.697 958.914 335.701C958.152 334.705 957.771 333.351 957.771 331.639ZM960.145 331.844C960.145 332.918 960.35 333.758 960.76 334.363C961.176 334.962 961.766 335.262 962.527 335.262C963.497 335.262 964.207 334.829 964.656 333.963V329.451C964.22 328.605 963.517 328.182 962.547 328.182C961.779 328.182 961.186 328.488 960.77 329.1C960.353 329.705 960.145 330.62 960.145 331.844ZM974.158 337.195C972.654 337.195 971.434 336.723 970.496 335.779C969.565 334.829 969.1 333.566 969.1 331.99V331.697C969.1 330.643 969.301 329.702 969.705 328.875C970.115 328.042 970.688 327.394 971.424 326.932C972.16 326.469 972.98 326.238 973.885 326.238C975.324 326.238 976.434 326.697 977.215 327.615C978.003 328.533 978.396 329.832 978.396 331.512V332.469H971.492C971.564 333.341 971.854 334.031 972.361 334.539C972.876 335.047 973.52 335.301 974.295 335.301C975.382 335.301 976.268 334.861 976.951 333.982L978.23 335.203C977.807 335.835 977.241 336.326 976.531 336.678C975.828 337.023 975.037 337.195 974.158 337.195ZM973.875 328.143C973.224 328.143 972.697 328.37 972.293 328.826C971.896 329.282 971.642 329.917 971.531 330.73H976.053V330.555C976.001 329.76 975.789 329.161 975.418 328.758C975.047 328.348 974.533 328.143 973.875 328.143ZM984.588 335.301C985.18 335.301 985.672 335.128 986.062 334.783C986.453 334.438 986.661 334.012 986.688 333.504H988.924C988.898 334.161 988.693 334.777 988.309 335.35C987.924 335.916 987.404 336.365 986.746 336.697C986.089 337.029 985.379 337.195 984.617 337.195C983.139 337.195 981.967 336.717 981.102 335.76C980.236 334.803 979.803 333.481 979.803 331.795V331.551C979.803 329.943 980.232 328.657 981.092 327.693C981.951 326.723 983.123 326.238 984.607 326.238C985.864 326.238 986.886 326.606 987.674 327.342C988.468 328.071 988.885 329.031 988.924 330.223H986.688C986.661 329.617 986.453 329.119 986.062 328.729C985.678 328.338 985.187 328.143 984.588 328.143C983.82 328.143 983.227 328.423 982.811 328.982C982.394 329.536 982.182 330.379 982.176 331.512V331.893C982.176 333.038 982.381 333.895 982.791 334.461C983.208 335.021 983.807 335.301 984.588 335.301ZM990.271 331.619C990.271 330.584 990.477 329.653 990.887 328.826C991.297 327.993 991.873 327.355 992.615 326.912C993.357 326.463 994.21 326.238 995.174 326.238C996.6 326.238 997.755 326.697 998.641 327.615C999.533 328.533 1000.01 329.751 1000.09 331.268L1000.1 331.824C1000.1 332.866 999.894 333.797 999.49 334.617C999.093 335.438 998.52 336.072 997.771 336.521C997.029 336.971 996.17 337.195 995.193 337.195C993.702 337.195 992.508 336.701 991.609 335.711C990.717 334.715 990.271 333.39 990.271 331.736V331.619ZM992.645 331.824C992.645 332.911 992.869 333.764 993.318 334.383C993.768 334.995 994.393 335.301 995.193 335.301C995.994 335.301 996.616 334.988 997.059 334.363C997.508 333.738 997.732 332.824 997.732 331.619C997.732 330.551 997.501 329.705 997.039 329.08C996.583 328.455 995.962 328.143 995.174 328.143C994.399 328.143 993.784 328.452 993.328 329.07C992.872 329.682 992.645 330.6 992.645 331.824ZM1004.33 326.434L1004.4 327.537C1005.14 326.671 1006.16 326.238 1007.45 326.238C1008.86 326.238 1009.83 326.779 1010.35 327.859C1011.12 326.779 1012.2 326.238 1013.59 326.238C1014.76 326.238 1015.62 326.561 1016.19 327.205C1016.76 327.85 1017.06 328.8 1017.07 330.057V337H1014.7V330.125C1014.7 329.454 1014.55 328.963 1014.26 328.65C1013.96 328.338 1013.48 328.182 1012.8 328.182C1012.26 328.182 1011.82 328.328 1011.47 328.621C1011.13 328.908 1010.9 329.285 1010.76 329.754L1010.77 337H1008.4V330.047C1008.36 328.803 1007.73 328.182 1006.49 328.182C1005.54 328.182 1004.87 328.569 1004.47 329.344V337H1002.1V326.434H1004.33ZM1028.76 331.824C1028.76 333.458 1028.39 334.764 1027.64 335.74C1026.9 336.71 1025.91 337.195 1024.66 337.195C1023.5 337.195 1022.57 336.814 1021.87 336.053V341.062H1019.5V326.434H1021.69L1021.79 327.508C1022.48 326.661 1023.43 326.238 1024.63 326.238C1025.92 326.238 1026.93 326.72 1027.65 327.684C1028.39 328.641 1028.76 329.972 1028.76 331.678V331.824ZM1026.39 331.619C1026.39 330.564 1026.18 329.728 1025.76 329.109C1025.34 328.491 1024.74 328.182 1023.96 328.182C1022.99 328.182 1022.3 328.582 1021.87 329.383V334.07C1022.3 334.891 1023.01 335.301 1023.98 335.301C1024.74 335.301 1025.33 334.998 1025.75 334.393C1026.18 333.781 1026.39 332.856 1026.39 331.619ZM1030.33 331.619C1030.33 330.584 1030.54 329.653 1030.95 328.826C1031.36 327.993 1031.93 327.355 1032.67 326.912C1033.42 326.463 1034.27 326.238 1035.23 326.238C1036.66 326.238 1037.81 326.697 1038.7 327.615C1039.59 328.533 1040.07 329.751 1040.14 331.268L1040.15 331.824C1040.15 332.866 1039.95 333.797 1039.55 334.617C1039.15 335.438 1038.58 336.072 1037.83 336.521C1037.09 336.971 1036.23 337.195 1035.25 337.195C1033.76 337.195 1032.57 336.701 1031.67 335.711C1030.78 334.715 1030.33 333.39 1030.33 331.736V331.619ZM1032.7 331.824C1032.7 332.911 1032.93 333.764 1033.38 334.383C1033.83 334.995 1034.45 335.301 1035.25 335.301C1036.05 335.301 1036.67 334.988 1037.12 334.363C1037.57 333.738 1037.79 332.824 1037.79 331.619C1037.79 330.551 1037.56 329.705 1037.1 329.08C1036.64 328.455 1036.02 328.143 1035.23 328.143C1034.46 328.143 1033.84 328.452 1033.39 329.07C1032.93 329.682 1032.7 330.6 1032.7 331.824ZM1048.08 334.129C1048.08 333.706 1047.91 333.383 1047.56 333.162C1047.21 332.941 1046.64 332.745 1045.83 332.576C1045.02 332.407 1044.35 332.192 1043.81 331.932C1042.62 331.359 1042.03 330.529 1042.03 329.441C1042.03 328.53 1042.41 327.768 1043.18 327.156C1043.95 326.544 1044.93 326.238 1046.11 326.238C1047.37 326.238 1048.39 326.551 1049.17 327.176C1049.95 327.801 1050.34 328.611 1050.34 329.607H1047.97C1047.97 329.152 1047.8 328.774 1047.46 328.475C1047.12 328.169 1046.67 328.016 1046.11 328.016C1045.59 328.016 1045.16 328.136 1044.83 328.377C1044.51 328.618 1044.34 328.94 1044.34 329.344C1044.34 329.708 1044.5 329.992 1044.8 330.193C1045.11 330.395 1045.73 330.6 1046.66 330.809C1047.59 331.01 1048.32 331.255 1048.85 331.541C1049.38 331.821 1049.77 332.16 1050.03 332.557C1050.29 332.954 1050.42 333.436 1050.42 334.002C1050.42 334.952 1050.02 335.724 1049.24 336.316C1048.45 336.902 1047.42 337.195 1046.14 337.195C1045.27 337.195 1044.5 337.039 1043.83 336.727C1043.15 336.414 1042.62 335.984 1042.24 335.438C1041.87 334.891 1041.68 334.301 1041.68 333.67H1043.98C1044.01 334.23 1044.23 334.663 1044.62 334.969C1045.01 335.268 1045.53 335.418 1046.17 335.418C1046.79 335.418 1047.27 335.301 1047.6 335.066C1047.92 334.826 1048.08 334.513 1048.08 334.129ZM1055.47 323.865V326.434H1057.33V328.191H1055.47V334.09C1055.47 334.493 1055.54 334.786 1055.7 334.969C1055.86 335.145 1056.15 335.232 1056.56 335.232C1056.83 335.232 1057.11 335.2 1057.39 335.135V336.971C1056.85 337.12 1056.33 337.195 1055.83 337.195C1054.01 337.195 1053.09 336.189 1053.09 334.178V328.191H1051.36V326.434H1053.09V323.865H1055.47ZM1061.68 337H1059.3V326.434H1061.68V337ZM1059.16 323.689C1059.16 323.325 1059.27 323.022 1059.5 322.781C1059.73 322.54 1060.07 322.42 1060.5 322.42C1060.93 322.42 1061.26 322.54 1061.49 322.781C1061.73 323.022 1061.84 323.325 1061.84 323.689C1061.84 324.048 1061.73 324.347 1061.49 324.588C1061.26 324.822 1060.93 324.939 1060.5 324.939C1060.07 324.939 1059.73 324.822 1059.5 324.588C1059.27 324.347 1059.16 324.048 1059.16 323.689ZM1066.47 326.434L1066.54 327.654C1067.32 326.71 1068.35 326.238 1069.62 326.238C1071.82 326.238 1072.94 327.498 1072.98 330.018V337H1070.6V330.154C1070.6 329.484 1070.46 328.989 1070.16 328.67C1069.88 328.344 1069.41 328.182 1068.75 328.182C1067.79 328.182 1067.08 328.615 1066.61 329.48V337H1064.24V326.434H1066.47ZM1074.99 331.639C1074.99 329.998 1075.37 328.689 1076.14 327.713C1076.92 326.73 1077.94 326.238 1079.22 326.238C1080.42 326.238 1081.37 326.658 1082.06 327.498L1082.17 326.434H1084.3V336.678C1084.3 338.064 1083.87 339.158 1083.01 339.959C1082.15 340.76 1080.98 341.16 1079.52 341.16C1078.74 341.16 1077.99 340.997 1077.24 340.672C1076.51 340.353 1075.95 339.933 1075.56 339.412L1076.69 337.986C1077.42 338.852 1078.32 339.285 1079.38 339.285C1080.17 339.285 1080.79 339.07 1081.25 338.641C1081.7 338.217 1081.93 337.592 1081.93 336.766V336.053C1081.25 336.814 1080.34 337.195 1079.2 337.195C1077.96 337.195 1076.95 336.704 1076.16 335.721C1075.38 334.738 1074.99 333.377 1074.99 331.639ZM1077.35 331.844C1077.35 332.905 1077.57 333.742 1078 334.354C1078.43 334.959 1079.03 335.262 1079.8 335.262C1080.76 335.262 1081.47 334.852 1081.93 334.031V329.383C1081.48 328.582 1080.78 328.182 1079.82 328.182C1079.04 328.182 1078.43 328.491 1078 329.109C1077.57 329.728 1077.35 330.639 1077.35 331.844ZM1091.29 331.619C1091.29 330.584 1091.49 329.653 1091.9 328.826C1092.31 327.993 1092.89 327.355 1093.63 326.912C1094.37 326.463 1095.23 326.238 1096.19 326.238C1097.62 326.238 1098.77 326.697 1099.66 327.615C1100.55 328.533 1101.03 329.751 1101.1 331.268L1101.11 331.824C1101.11 332.866 1100.91 333.797 1100.51 334.617C1100.11 335.438 1099.54 336.072 1098.79 336.521C1098.04 336.971 1097.19 337.195 1096.21 337.195C1094.72 337.195 1093.52 336.701 1092.62 335.711C1091.73 334.715 1091.29 333.39 1091.29 331.736V331.619ZM1093.66 331.824C1093.66 332.911 1093.88 333.764 1094.33 334.383C1094.78 334.995 1095.41 335.301 1096.21 335.301C1097.01 335.301 1097.63 334.988 1098.07 334.363C1098.52 333.738 1098.75 332.824 1098.75 331.619C1098.75 330.551 1098.52 329.705 1098.05 329.08C1097.6 328.455 1096.98 328.143 1096.19 328.143C1095.41 328.143 1094.8 328.452 1094.34 329.07C1093.89 329.682 1093.66 330.6 1093.66 331.824ZM1103.95 337V328.191H1102.34V326.434H1103.95V325.467C1103.95 324.295 1104.28 323.39 1104.93 322.752C1105.58 322.114 1106.49 321.795 1107.66 321.795C1108.08 321.795 1108.52 321.854 1108.99 321.971L1108.93 323.826C1108.67 323.774 1108.37 323.748 1108.03 323.748C1106.89 323.748 1106.33 324.331 1106.33 325.496V326.434H1108.47V328.191H1106.33V337H1103.95ZM960.447 351.434L960.516 352.537C961.258 351.671 962.273 351.238 963.562 351.238C964.975 351.238 965.942 351.779 966.463 352.859C967.231 351.779 968.312 351.238 969.705 351.238C970.87 351.238 971.736 351.561 972.303 352.205C972.876 352.85 973.169 353.8 973.182 355.057V362H970.809V355.125C970.809 354.454 970.662 353.963 970.369 353.65C970.076 353.338 969.591 353.182 968.914 353.182C968.374 353.182 967.931 353.328 967.586 353.621C967.247 353.908 967.01 354.285 966.873 354.754L966.883 362H964.51V355.047C964.477 353.803 963.842 353.182 962.605 353.182C961.655 353.182 960.981 353.569 960.584 354.344V362H958.211V351.434H960.447ZM978.143 362H975.77V351.434H978.143V362ZM975.623 348.689C975.623 348.325 975.737 348.022 975.965 347.781C976.199 347.54 976.531 347.42 976.961 347.42C977.391 347.42 977.723 347.54 977.957 347.781C978.191 348.022 978.309 348.325 978.309 348.689C978.309 349.048 978.191 349.347 977.957 349.588C977.723 349.822 977.391 349.939 976.961 349.939C976.531 349.939 976.199 349.822 975.965 349.588C975.737 349.347 975.623 349.048 975.623 348.689ZM982.938 351.434L983.006 352.654C983.787 351.71 984.812 351.238 986.082 351.238C988.283 351.238 989.402 352.498 989.441 355.018V362H987.068V355.154C987.068 354.484 986.922 353.989 986.629 353.67C986.342 353.344 985.87 353.182 985.213 353.182C984.256 353.182 983.543 353.615 983.074 354.48V362H980.701V351.434H982.938ZM996.521 362.195C995.018 362.195 993.797 361.723 992.859 360.779C991.928 359.829 991.463 358.566 991.463 356.99V356.697C991.463 355.643 991.665 354.702 992.068 353.875C992.479 353.042 993.051 352.394 993.787 351.932C994.523 351.469 995.343 351.238 996.248 351.238C997.687 351.238 998.797 351.697 999.578 352.615C1000.37 353.533 1000.76 354.832 1000.76 356.512V357.469H993.855C993.927 358.341 994.217 359.031 994.725 359.539C995.239 360.047 995.883 360.301 996.658 360.301C997.745 360.301 998.631 359.861 999.314 358.982L1000.59 360.203C1000.17 360.835 999.604 361.326 998.895 361.678C998.191 362.023 997.4 362.195 996.521 362.195ZM996.238 353.143C995.587 353.143 995.06 353.37 994.656 353.826C994.259 354.282 994.005 354.917 993.895 355.73H998.416V355.555C998.364 354.76 998.152 354.161 997.781 353.758C997.41 353.348 996.896 353.143 996.238 353.143ZM1008.14 353.602C1007.83 353.549 1007.51 353.523 1007.18 353.523C1006.09 353.523 1005.36 353.94 1004.98 354.773V362H1002.61V351.434H1004.87L1004.93 352.615C1005.5 351.697 1006.3 351.238 1007.31 351.238C1007.65 351.238 1007.93 351.284 1008.15 351.375L1008.14 353.602ZM1015.66 362C1015.56 361.798 1015.47 361.469 1015.39 361.014C1014.63 361.801 1013.71 362.195 1012.62 362.195C1011.55 362.195 1010.69 361.893 1010.02 361.287C1009.35 360.682 1009.01 359.933 1009.01 359.041C1009.01 357.915 1009.43 357.052 1010.26 356.453C1011.1 355.848 1012.3 355.545 1013.86 355.545H1015.31V354.852C1015.31 354.305 1015.16 353.868 1014.85 353.543C1014.55 353.211 1014.08 353.045 1013.46 353.045C1012.91 353.045 1012.47 353.182 1012.13 353.455C1011.78 353.722 1011.61 354.064 1011.61 354.48H1009.24C1009.24 353.901 1009.43 353.361 1009.81 352.859C1010.2 352.352 1010.72 351.954 1011.38 351.668C1012.04 351.382 1012.78 351.238 1013.59 351.238C1014.83 351.238 1015.82 351.551 1016.55 352.176C1017.29 352.794 1017.66 353.667 1017.68 354.793V359.559C1017.68 360.509 1017.82 361.268 1018.08 361.834V362H1015.66ZM1013.05 360.291C1013.52 360.291 1013.96 360.177 1014.37 359.949C1014.79 359.721 1015.1 359.415 1015.31 359.031V357.039H1014.03C1013.15 357.039 1012.49 357.192 1012.05 357.498C1011.61 357.804 1011.38 358.237 1011.38 358.797C1011.38 359.253 1011.53 359.617 1011.83 359.891C1012.14 360.158 1012.55 360.291 1013.05 360.291ZM1022.69 362H1020.32V347H1022.69V362ZM1032.47 351.434L1032.54 352.654C1033.32 351.71 1034.34 351.238 1035.61 351.238C1037.81 351.238 1038.93 352.498 1038.97 355.018V362H1036.6V355.154C1036.6 354.484 1036.45 353.989 1036.16 353.67C1035.87 353.344 1035.4 353.182 1034.74 353.182C1033.79 353.182 1033.07 353.615 1032.61 354.48V362H1030.23V351.434H1032.47ZM1043.92 362H1041.55V351.434H1043.92V362ZM1041.4 348.689C1041.4 348.325 1041.52 348.022 1041.75 347.781C1041.98 347.54 1042.31 347.42 1042.74 347.42C1043.17 347.42 1043.5 347.54 1043.74 347.781C1043.97 348.022 1044.09 348.325 1044.09 348.689C1044.09 349.048 1043.97 349.347 1043.74 349.588C1043.5 349.822 1043.17 349.939 1042.74 349.939C1042.31 349.939 1041.98 349.822 1041.75 349.588C1041.52 349.347 1041.4 349.048 1041.4 348.689ZM1049.49 348.865V351.434H1051.36V353.191H1049.49V359.09C1049.49 359.493 1049.57 359.786 1049.72 359.969C1049.89 360.145 1050.17 360.232 1050.58 360.232C1050.86 360.232 1051.13 360.2 1051.41 360.135V361.971C1050.87 362.12 1050.35 362.195 1049.85 362.195C1048.03 362.195 1047.12 361.189 1047.12 359.178V353.191H1045.38V351.434H1047.12V348.865H1049.49ZM1058.71 353.602C1058.4 353.549 1058.07 353.523 1057.74 353.523C1056.65 353.523 1055.92 353.94 1055.54 354.773V362H1053.17V351.434H1055.44L1055.5 352.615C1056.07 351.697 1056.86 351.238 1057.88 351.238C1058.22 351.238 1058.5 351.284 1058.72 351.375L1058.71 353.602ZM1059.41 356.619C1059.41 355.584 1059.62 354.653 1060.03 353.826C1060.44 352.993 1061.01 352.355 1061.76 351.912C1062.5 351.463 1063.35 351.238 1064.31 351.238C1065.74 351.238 1066.9 351.697 1067.78 352.615C1068.67 353.533 1069.15 354.751 1069.23 356.268L1069.24 356.824C1069.24 357.866 1069.03 358.797 1068.63 359.617C1068.23 360.438 1067.66 361.072 1066.91 361.521C1066.17 361.971 1065.31 362.195 1064.33 362.195C1062.84 362.195 1061.65 361.701 1060.75 360.711C1059.86 359.715 1059.41 358.39 1059.41 356.736V356.619ZM1061.79 356.824C1061.79 357.911 1062.01 358.764 1062.46 359.383C1062.91 359.995 1063.53 360.301 1064.33 360.301C1065.13 360.301 1065.76 359.988 1066.2 359.363C1066.65 358.738 1066.87 357.824 1066.87 356.619C1066.87 355.551 1066.64 354.705 1066.18 354.08C1065.72 353.455 1065.1 353.143 1064.31 353.143C1063.54 353.143 1062.92 353.452 1062.47 354.07C1062.01 354.682 1061.79 355.6 1061.79 356.824ZM1070.83 356.639C1070.83 354.998 1071.21 353.689 1071.98 352.713C1072.76 351.73 1073.78 351.238 1075.06 351.238C1076.26 351.238 1077.21 351.658 1077.9 352.498L1078.01 351.434H1080.14V361.678C1080.14 363.064 1079.71 364.158 1078.85 364.959C1077.99 365.76 1076.82 366.16 1075.36 366.16C1074.58 366.16 1073.83 365.997 1073.08 365.672C1072.35 365.353 1071.79 364.933 1071.4 364.412L1072.53 362.986C1073.26 363.852 1074.15 364.285 1075.22 364.285C1076.01 364.285 1076.63 364.07 1077.09 363.641C1077.54 363.217 1077.77 362.592 1077.77 361.766V361.053C1077.09 361.814 1076.18 362.195 1075.04 362.195C1073.8 362.195 1072.79 361.704 1072 360.721C1071.22 359.738 1070.83 358.377 1070.83 356.639ZM1073.19 356.844C1073.19 357.905 1073.41 358.742 1073.84 359.354C1074.27 359.959 1074.87 360.262 1075.64 360.262C1076.6 360.262 1077.31 359.852 1077.77 359.031V354.383C1077.32 353.582 1076.62 353.182 1075.66 353.182C1074.88 353.182 1074.27 353.491 1073.84 354.109C1073.41 354.728 1073.19 355.639 1073.19 356.844ZM1087.24 362.195C1085.74 362.195 1084.52 361.723 1083.58 360.779C1082.65 359.829 1082.19 358.566 1082.19 356.99V356.697C1082.19 355.643 1082.39 354.702 1082.79 353.875C1083.2 353.042 1083.77 352.394 1084.51 351.932C1085.25 351.469 1086.07 351.238 1086.97 351.238C1088.41 351.238 1089.52 351.697 1090.3 352.615C1091.09 353.533 1091.48 354.832 1091.48 356.512V357.469H1084.58C1084.65 358.341 1084.94 359.031 1085.45 359.539C1085.96 360.047 1086.61 360.301 1087.38 360.301C1088.47 360.301 1089.35 359.861 1090.04 358.982L1091.32 360.203C1090.89 360.835 1090.33 361.326 1089.62 361.678C1088.91 362.023 1088.12 362.195 1087.24 362.195ZM1086.96 353.143C1086.31 353.143 1085.78 353.37 1085.38 353.826C1084.98 354.282 1084.73 354.917 1084.62 355.73H1089.14V355.555C1089.09 354.76 1088.88 354.161 1088.5 353.758C1088.13 353.348 1087.62 353.143 1086.96 353.143ZM1095.54 351.434L1095.6 352.654C1096.38 351.71 1097.41 351.238 1098.68 351.238C1100.88 351.238 1102 352.498 1102.04 355.018V362H1099.67V355.154C1099.67 354.484 1099.52 353.989 1099.23 353.67C1098.94 353.344 1098.47 353.182 1097.81 353.182C1096.85 353.182 1096.14 353.615 1095.67 354.48V362H1093.3V351.434H1095.54ZM959.051 387V378.191H957.439V376.434H959.051V375.467C959.051 374.295 959.376 373.39 960.027 372.752C960.678 372.114 961.59 371.795 962.762 371.795C963.178 371.795 963.621 371.854 964.09 371.971L964.031 373.826C963.771 373.774 963.468 373.748 963.123 373.748C961.99 373.748 961.424 374.331 961.424 375.496V376.434H963.572V378.191H961.424V387H959.051ZM969.725 387.195C968.221 387.195 967 386.723 966.062 385.779C965.132 384.829 964.666 383.566 964.666 381.99V381.697C964.666 380.643 964.868 379.702 965.271 378.875C965.682 378.042 966.255 377.394 966.99 376.932C967.726 376.469 968.546 376.238 969.451 376.238C970.89 376.238 972 376.697 972.781 377.615C973.569 378.533 973.963 379.832 973.963 381.512V382.469H967.059C967.13 383.341 967.42 384.031 967.928 384.539C968.442 385.047 969.087 385.301 969.861 385.301C970.949 385.301 971.834 384.861 972.518 383.982L973.797 385.203C973.374 385.835 972.807 386.326 972.098 386.678C971.395 387.023 970.604 387.195 969.725 387.195ZM969.441 378.143C968.79 378.143 968.263 378.37 967.859 378.826C967.462 379.282 967.208 379.917 967.098 380.73H971.619V380.555C971.567 379.76 971.355 379.161 970.984 378.758C970.613 378.348 970.099 378.143 969.441 378.143ZM981.346 378.602C981.033 378.549 980.711 378.523 980.379 378.523C979.292 378.523 978.559 378.94 978.182 379.773V387H975.809V376.434H978.074L978.133 377.615C978.706 376.697 979.5 376.238 980.516 376.238C980.854 376.238 981.134 376.284 981.355 376.375L981.346 378.602ZM986.307 373.865V376.434H988.172V378.191H986.307V384.09C986.307 384.493 986.385 384.786 986.541 384.969C986.704 385.145 986.99 385.232 987.4 385.232C987.674 385.232 987.951 385.2 988.23 385.135V386.971C987.69 387.12 987.169 387.195 986.668 387.195C984.845 387.195 983.934 386.189 983.934 384.178V378.191H982.195V376.434H983.934V373.865H986.307ZM992.518 387H990.145V376.434H992.518V387ZM989.998 373.689C989.998 373.325 990.112 373.022 990.34 372.781C990.574 372.54 990.906 372.42 991.336 372.42C991.766 372.42 992.098 372.54 992.332 372.781C992.566 373.022 992.684 373.325 992.684 373.689C992.684 374.048 992.566 374.347 992.332 374.588C992.098 374.822 991.766 374.939 991.336 374.939C990.906 374.939 990.574 374.822 990.34 374.588C990.112 374.347 989.998 374.048 989.998 373.689ZM997.635 387H995.262V372H997.635V387ZM1002.75 387H1000.38V376.434H1002.75V387ZM1000.23 373.689C1000.23 373.325 1000.35 373.022 1000.57 372.781C1000.81 372.54 1001.14 372.42 1001.57 372.42C1002 372.42 1002.33 372.54 1002.57 372.781C1002.8 373.022 1002.92 373.325 1002.92 373.689C1002.92 374.048 1002.8 374.347 1002.57 374.588C1002.33 374.822 1002 374.939 1001.57 374.939C1001.14 374.939 1000.81 374.822 1000.57 374.588C1000.35 374.347 1000.23 374.048 1000.23 373.689ZM1007.88 385.105H1013.5V387H1004.93V385.447L1010.29 378.348H1005.03V376.434H1013.3V377.938L1007.88 385.105ZM1019.9 387.195C1018.4 387.195 1017.18 386.723 1016.24 385.779C1015.31 384.829 1014.84 383.566 1014.84 381.99V381.697C1014.84 380.643 1015.04 379.702 1015.45 378.875C1015.86 378.042 1016.43 377.394 1017.17 376.932C1017.9 376.469 1018.72 376.238 1019.63 376.238C1021.07 376.238 1022.18 376.697 1022.96 377.615C1023.74 378.533 1024.14 379.832 1024.14 381.512V382.469H1017.23C1017.31 383.341 1017.6 384.031 1018.1 384.539C1018.62 385.047 1019.26 385.301 1020.04 385.301C1021.12 385.301 1022.01 384.861 1022.69 383.982L1023.97 385.203C1023.55 385.835 1022.98 386.326 1022.27 386.678C1021.57 387.023 1020.78 387.195 1019.9 387.195ZM1019.62 378.143C1018.97 378.143 1018.44 378.37 1018.04 378.826C1017.64 379.282 1017.38 379.917 1017.27 380.73H1021.79V380.555C1021.74 379.76 1021.53 379.161 1021.16 378.758C1020.79 378.348 1020.27 378.143 1019.62 378.143ZM1031.52 378.602C1031.21 378.549 1030.89 378.523 1030.55 378.523C1029.47 378.523 1028.74 378.94 1028.36 379.773V387H1025.98V376.434H1028.25L1028.31 377.615C1028.88 376.697 1029.68 376.238 1030.69 376.238C1031.03 376.238 1031.31 376.284 1031.53 376.375L1031.52 378.602ZM1038.94 384.129C1038.94 383.706 1038.77 383.383 1038.42 383.162C1038.07 382.941 1037.49 382.745 1036.69 382.576C1035.88 382.407 1035.21 382.192 1034.67 381.932C1033.48 381.359 1032.89 380.529 1032.89 379.441C1032.89 378.53 1033.27 377.768 1034.04 377.156C1034.81 376.544 1035.79 376.238 1036.97 376.238C1038.23 376.238 1039.25 376.551 1040.03 377.176C1040.81 377.801 1041.2 378.611 1041.2 379.607H1038.83C1038.83 379.152 1038.66 378.774 1038.32 378.475C1037.98 378.169 1037.53 378.016 1036.97 378.016C1036.45 378.016 1036.02 378.136 1035.69 378.377C1035.37 378.618 1035.2 378.94 1035.2 379.344C1035.2 379.708 1035.36 379.992 1035.66 380.193C1035.97 380.395 1036.59 380.6 1037.52 380.809C1038.45 381.01 1039.18 381.255 1039.71 381.541C1040.24 381.821 1040.63 382.16 1040.89 382.557C1041.15 382.954 1041.28 383.436 1041.28 384.002C1041.28 384.952 1040.88 385.724 1040.1 386.316C1039.31 386.902 1038.28 387.195 1037 387.195C1036.13 387.195 1035.36 387.039 1034.69 386.727C1034.01 386.414 1033.48 385.984 1033.1 385.438C1032.73 384.891 1032.54 384.301 1032.54 383.67H1034.84C1034.87 384.23 1035.09 384.663 1035.48 384.969C1035.87 385.268 1036.38 385.418 1037.03 385.418C1037.65 385.418 1038.13 385.301 1038.46 385.066C1038.78 384.826 1038.94 384.513 1038.94 384.129Z" fill="#6CBAFA"/>
<path d="M407 588V620" stroke="black" stroke-width="3"/>
<path d="M214 641V673" stroke="black" stroke-width="3"/>
<path d="M214 588V620" stroke="black" stroke-width="3"/>
<path d="M407 641V673" stroke="black" stroke-width="3"/>
<line x1="159.889" y1="568.583" x2="159.889" y2="531.583" stroke="black" stroke-width="3"/>
<line x1="166.889" y1="568.583" x2="166.889" y2="531.583" stroke="black" stroke-width="3"/>
<path d="M148.917 503.581C151.078 503.564 156.488 504.603 159.233 510.524" stroke="black" stroke-width="3"/>
<path d="M273 626.5H271.5V628V671V672.5H273H277.389H278.013L278.453 672.057L282.402 668.085H294.32L298.27 672.057L298.709 672.5H299.333H323.472H324.096L324.536 672.057L328.485 668.085H340.404L344.353 672.057L344.793 672.5H345.417H352H353.5V671V654.443V653.143L352.213 652.958L330.047 649.773L321.583 627.468L321.216 626.5H320.181H273Z" fill="white" stroke="black" stroke-width="3"/>
<path d="M325.676 638H306L306 650H334" stroke="black" stroke-width="3"/>
<rect x="282" y="638" width="12" height="12" fill="white" stroke="black" stroke-width="3"/>
<rect x="264.5" y="646.5" width="5" height="15" fill="white" stroke="black" stroke-width="3"/>
<path d="M330.622 502.455H366.5V566.972H250.5V502.455H279.513H281.013V500.955V482.662L304.492 502.11L306.949 504.145V500.955V482.724L329.648 502.096L330.069 502.455H330.622Z" stroke="black" stroke-width="3"/>
<rect x="331.5" y="531.972" width="20" height="35" stroke="black" stroke-width="3"/>
<path d="M250.5 492.889L254.99 433.972H267.508L270.5 492.87V566.972H250.5V492.889Z" fill="white" stroke="black" stroke-width="3"/>
<line x1="252" y1="488.972" x2="269" y2="488.972" stroke="black" stroke-width="3"/>
<line x1="251" y1="517.972" x2="270" y2="517.972" stroke="black" stroke-width="3"/>
<line x1="251" y1="527.972" x2="270" y2="527.972" stroke="black" stroke-width="3"/>
<line x1="251" y1="536.972" x2="270" y2="536.972" stroke="black" stroke-width="3"/>
<mask id="path-33-inside-1" fill="white">
<path fill-rule="evenodd" clip-rule="evenodd" d="M236.783 384C236.783 381.239 239.021 379 241.783 379H270.593C273.354 379 275.593 381.239 275.593 384V386.222C275.593 388.984 277.832 391.222 280.593 391.222H285.278C288.039 391.222 290.278 393.461 290.278 396.222V401.5C290.278 404.261 288.039 406.5 285.278 406.5H275.417C272.655 406.5 270.417 408.739 270.417 411.5V418.305C270.417 421.067 268.178 423.305 265.417 423.305H255.512C253.618 423.305 252.083 421.77 252.083 419.877V419.877C252.083 417.983 250.548 416.448 248.655 416.448H236.538C233.777 416.448 231.538 414.21 231.538 411.448V408.444C231.538 405.683 229.3 403.444 226.538 403.444H225C222.239 403.444 220 401.206 220 398.444V394.694C220 391.933 222.239 389.694 225 389.694H231.783C234.544 389.694 236.783 387.456 236.783 384.694V384Z"/>
</mask>
<path d="M270.593 376H241.783V382H270.593V376ZM278.593 386.222V384H272.593V386.222H278.593ZM285.278 388.222H280.593V394.222H285.278V388.222ZM293.278 401.5V396.222H287.278V401.5H293.278ZM275.417 409.5H285.278V403.5H275.417V409.5ZM267.417 411.5V418.305H273.417V411.5H267.417ZM265.417 420.305H255.512V426.305H265.417V420.305ZM236.538 419.448H248.655V413.448H236.538V419.448ZM228.538 408.444V411.448H234.538V408.444H228.538ZM225 406.444H226.538V400.444H225V406.444ZM217 394.694V398.444H223V394.694H217ZM231.783 386.694H225V392.694H231.783V386.694ZM233.783 384V384.694H239.783V384H233.783ZM231.783 392.694C236.201 392.694 239.783 389.113 239.783 384.694H233.783C233.783 385.799 232.887 386.694 231.783 386.694V392.694ZM223 394.694C223 393.59 223.895 392.694 225 392.694V386.694C220.582 386.694 217 390.276 217 394.694H223ZM225 400.444C223.895 400.444 223 399.549 223 398.444H217C217 402.863 220.582 406.444 225 406.444V400.444ZM234.538 408.444C234.538 404.026 230.956 400.444 226.538 400.444V406.444C227.643 406.444 228.538 407.34 228.538 408.444H234.538ZM236.538 413.448C235.434 413.448 234.538 412.553 234.538 411.448H228.538C228.538 415.867 232.12 419.448 236.538 419.448V413.448ZM255.083 419.877C255.083 416.327 252.205 413.448 248.655 413.448V419.448C248.891 419.448 249.083 419.64 249.083 419.877H255.083ZM255.512 420.305C255.275 420.305 255.083 420.114 255.083 419.877H249.083C249.083 423.427 251.962 426.305 255.512 426.305V420.305ZM267.417 418.305C267.417 419.41 266.521 420.305 265.417 420.305V426.305C269.835 426.305 273.417 422.724 273.417 418.305H267.417ZM275.417 403.5C270.998 403.5 267.417 407.082 267.417 411.5H273.417C273.417 410.395 274.312 409.5 275.417 409.5V403.5ZM287.278 401.5C287.278 402.605 286.382 403.5 285.278 403.5V409.5C289.696 409.5 293.278 405.918 293.278 401.5H287.278ZM285.278 394.222C286.382 394.222 287.278 395.118 287.278 396.222H293.278C293.278 391.804 289.696 388.222 285.278 388.222V394.222ZM272.593 386.222C272.593 390.64 276.175 394.222 280.593 394.222V388.222C279.488 388.222 278.593 387.327 278.593 386.222H272.593ZM241.783 376C237.365 376 233.783 379.582 233.783 384H239.783C239.783 382.895 240.678 382 241.783 382V376ZM270.593 382C271.697 382 272.593 382.895 272.593 384H278.593C278.593 379.582 275.011 376 270.593 376V382Z" fill="black" mask="url(#path-33-inside-1)"/>
<mask id="path-35-inside-2" fill="white">
<path fill-rule="evenodd" clip-rule="evenodd" d="M878.495 434.702C878.495 435.971 877.466 437 876.197 437L841.982 437C840.714 437 839.685 435.971 839.685 434.702V434.702L839.685 429.862C839.685 427.101 837.446 424.862 834.685 424.862L830 424.862C827.239 424.862 825 422.624 825 419.862L825 414.69C825 411.928 827.239 409.69 830 409.69L839.861 409.69C842.623 409.69 844.861 407.451 844.861 404.69L844.861 398C844.861 395.239 847.1 393 849.861 393L859.79 393C861.67 393 863.194 394.524 863.194 396.405V396.405C863.194 398.285 864.719 399.81 866.599 399.81L878.74 399.81C881.501 399.81 883.74 402.048 883.74 404.81L883.74 407.724C883.74 410.486 885.978 412.724 888.74 412.724L890.278 412.724C893.039 412.724 895.278 414.963 895.278 417.724L895.278 421.379C895.278 424.141 893.039 426.379 890.278 426.379L883.495 426.379C880.734 426.379 878.495 428.618 878.495 431.379L878.495 434.702V434.702ZM863.194 418.405C863.194 418.405 863.194 418.405 863.194 418.405L863.194 418.405C863.194 418.405 863.194 418.405 863.194 418.405V418.405C863.194 418.405 863.195 418.405 863.195 418.405L863.195 418.405C863.195 418.405 863.194 418.405 863.194 418.405V418.405Z"/>
</mask>
<path d="M878.74 399.81L878.74 402.81L878.74 399.81ZM866.599 399.81L866.599 402.81L866.599 399.81ZM839.861 409.69L839.861 406.69L839.861 409.69ZM844.861 404.69L847.861 404.69L844.861 404.69ZM839.685 429.862L836.685 429.862L839.685 429.862ZM841.982 440L876.197 440L876.197 434L841.982 434L841.982 440ZM836.685 429.862L836.685 434.702L842.685 434.702L842.685 429.862L836.685 429.862ZM830 427.862L834.685 427.862L834.685 421.862L830 421.862L830 427.862ZM822 414.69L822 419.862L828 419.862L828 414.69L822 414.69ZM839.861 406.69L830 406.69L830 412.69L839.861 412.69L839.861 406.69ZM847.861 404.69L847.861 398L841.861 398L841.861 404.69L847.861 404.69ZM849.861 396L859.79 396L859.79 390L849.861 390L849.861 396ZM878.74 396.81L866.599 396.81L866.599 402.81L878.74 402.81L878.74 396.81ZM886.74 407.724L886.74 404.81L880.74 404.81L880.74 407.724L886.74 407.724ZM890.278 409.724L888.74 409.724L888.74 415.724L890.278 415.724L890.278 409.724ZM898.278 421.379L898.278 417.724L892.278 417.724L892.278 421.379L898.278 421.379ZM883.495 429.379L890.278 429.379L890.278 423.379L883.495 423.379L883.495 429.379ZM881.495 434.702L881.495 431.379L875.495 431.379L875.495 434.702L881.495 434.702ZM860.194 418.405L860.194 418.405L866.194 418.405L866.194 418.405L860.194 418.405ZM860.195 418.405L860.195 418.405L866.195 418.405L866.195 418.405L860.195 418.405ZM866.195 418.405C866.195 416.748 864.851 415.405 863.194 415.405L863.194 421.405C861.538 421.405 860.195 420.062 860.195 418.405L866.195 418.405ZM863.194 421.405C864.851 421.405 866.195 420.062 866.195 418.405L860.195 418.405C860.195 416.748 861.538 415.405 863.194 415.405L863.194 421.405ZM860.194 418.405C860.194 420.062 861.538 421.405 863.194 421.405L863.194 415.405C864.851 415.405 866.194 416.748 866.194 418.405L860.194 418.405ZM866.194 418.405C866.194 420.062 864.851 421.405 863.194 421.405L863.194 415.405C861.538 415.405 860.194 416.748 860.194 418.405L866.194 418.405ZM883.495 423.379C879.077 423.379 875.495 426.961 875.495 431.379L881.495 431.379C881.495 430.275 882.39 429.379 883.495 429.379L883.495 423.379ZM892.278 421.379C892.278 422.484 891.382 423.379 890.278 423.379L890.278 429.379C894.696 429.379 898.278 425.798 898.278 421.379L892.278 421.379ZM890.278 415.724C891.382 415.724 892.278 416.62 892.278 417.724L898.278 417.724C898.278 413.306 894.696 409.724 890.278 409.724L890.278 415.724ZM878.74 402.81C879.844 402.81 880.74 403.705 880.74 404.81L886.74 404.81C886.74 400.391 883.158 396.81 878.74 396.81L878.74 402.81ZM860.194 396.405C860.194 399.942 863.062 402.81 866.599 402.81L866.599 396.81C866.376 396.81 866.194 396.628 866.194 396.405L860.194 396.405ZM859.79 396C860.013 396 860.194 396.181 860.194 396.405L866.194 396.405C866.194 392.868 863.327 390 859.79 390L859.79 396ZM847.861 398C847.861 396.896 848.757 396 849.861 396L849.861 390C845.443 390 841.861 393.582 841.861 398L847.861 398ZM839.861 412.69C844.279 412.69 847.861 409.108 847.861 404.69L841.861 404.69C841.861 405.794 840.966 406.69 839.861 406.69L839.861 412.69ZM830 421.862C828.895 421.862 828 420.967 828 419.862L822 419.862C822 424.281 825.582 427.862 830 427.862L830 421.862ZM842.685 429.862C842.685 425.444 839.103 421.862 834.685 421.862L834.685 427.862C835.789 427.862 836.685 428.758 836.685 429.862L842.685 429.862ZM876.197 440C879.123 440 881.495 437.628 881.495 434.702L875.495 434.702C875.495 434.314 875.809 434 876.197 434L876.197 440ZM828 414.69C828 413.585 828.895 412.69 830 412.69L830 406.69C825.582 406.69 822 410.272 822 414.69L828 414.69ZM880.74 407.724C880.74 412.142 884.321 415.724 888.74 415.724L888.74 409.724C887.635 409.724 886.74 408.829 886.74 407.724L880.74 407.724ZM841.982 434C842.37 434 842.685 434.314 842.685 434.702L836.685 434.702C836.685 437.628 839.057 440 841.982 440L841.982 434Z" fill="#6CBAFA" mask="url(#path-35-inside-2)"/>
<mask id="path-37-inside-3" fill="white">
<path fill-rule="evenodd" clip-rule="evenodd" d="M152.736 473.861C156.167 473.861 159.368 474.845 162.073 476.545C167.753 478.72 172.016 483.759 173.095 489.895C175.653 488.442 178.611 487.611 181.764 487.611C189.859 487.611 196.676 493.086 198.713 500.536C201.017 503.508 202.389 507.24 202.389 511.292C202.389 520.995 194.523 528.861 184.819 528.861C182.8 528.861 180.86 528.52 179.054 527.893C175.851 532.19 170.73 534.972 164.958 534.972C159.491 534.972 154.607 532.475 151.385 528.559C149.031 529.73 146.377 530.389 143.569 530.389C133.866 530.389 126 522.523 126 512.819C126 505.808 130.107 499.756 136.047 496.937C135.476 495.205 135.167 493.354 135.167 491.431C135.167 481.727 143.033 473.861 152.736 473.861Z"/>
</mask>
<path d="M162.073 476.545L160.476 479.085L160.725 479.241L161 479.346L162.073 476.545ZM173.095 489.895L170.14 490.415L170.877 494.607L174.577 492.504L173.095 489.895ZM198.713 500.536L195.819 501.327L195.976 501.902L196.342 502.374L198.713 500.536ZM179.054 527.893L180.038 525.059L177.962 524.338L176.648 526.1L179.054 527.893ZM151.385 528.559L153.701 526.653L152.185 524.81L150.049 525.873L151.385 528.559ZM136.047 496.937L137.333 499.648L139.725 498.513L138.896 495.998L136.047 496.937ZM163.669 474.005C160.5 472.013 156.748 470.861 152.736 470.861V476.861C155.586 476.861 158.236 477.676 160.476 479.085L163.669 474.005ZM176.05 489.376C174.785 482.183 169.794 476.289 163.145 473.743L161 479.346C165.712 481.151 169.247 485.335 170.14 490.415L176.05 489.376ZM181.764 484.611C178.078 484.611 174.611 485.583 171.613 487.287L174.577 492.504C176.695 491.3 179.145 490.611 181.764 490.611V484.611ZM201.607 499.744C199.222 491.024 191.246 484.611 181.764 484.611V490.611C188.473 490.611 194.13 495.148 195.819 501.327L201.607 499.744ZM205.389 511.292C205.389 506.551 203.781 502.177 201.084 498.697L196.342 502.374C198.253 504.839 199.389 507.928 199.389 511.292H205.389ZM184.819 531.861C196.18 531.861 205.389 522.652 205.389 511.292H199.389C199.389 519.338 192.866 525.861 184.819 525.861V531.861ZM178.07 530.727C180.188 531.463 182.46 531.861 184.819 531.861V525.861C183.139 525.861 181.532 525.578 180.038 525.059L178.07 530.727ZM176.648 526.1C173.987 529.67 169.742 531.972 164.958 531.972V537.972C171.717 537.972 177.714 534.71 181.459 529.686L176.648 526.1ZM164.958 531.972C160.426 531.972 156.378 529.906 153.701 526.653L149.068 530.465C152.836 535.044 158.557 537.972 164.958 537.972V531.972ZM143.569 533.389C146.851 533.389 149.961 532.618 152.721 531.245L150.049 525.873C148.1 526.842 145.903 527.389 143.569 527.389V533.389ZM123 512.819C123 524.18 132.209 533.389 143.569 533.389V527.389C135.523 527.389 129 520.866 129 512.819H123ZM134.761 494.227C127.814 497.523 123 504.606 123 512.819H129C129 507.01 132.4 501.988 137.333 499.648L134.761 494.227ZM132.167 491.431C132.167 493.677 132.528 495.845 133.198 497.877L138.896 495.998C138.424 494.565 138.167 493.031 138.167 491.431H132.167ZM152.736 470.861C141.376 470.861 132.167 480.071 132.167 491.431H138.167C138.167 483.384 144.69 476.861 152.736 476.861V470.861Z" fill="black" mask="url(#path-37-inside-3)"/>
<path d="M193.93 458.098L195.429 458.031C195.403 457.446 195.038 456.929 194.495 456.708C193.952 456.488 193.33 456.604 192.903 457.006L193.93 458.098ZM200.163 473.299L201.434 472.503L200.163 473.299ZM179.336 468.189L180.782 467.79C180.651 467.317 180.297 466.938 179.834 466.774C179.371 466.611 178.858 466.685 178.459 466.972L179.336 468.189ZM183.716 474.829L183.017 476.157C183.433 476.375 183.927 476.387 184.352 476.188C184.777 475.989 185.085 475.602 185.183 475.143L183.716 474.829ZM192.432 458.165C192.448 458.517 192.562 458.97 192.667 459.349C192.788 459.784 192.955 460.319 193.157 460.919C193.56 462.122 194.114 463.637 194.742 465.23C195.985 468.384 197.571 471.985 198.891 474.094L201.434 472.503C200.274 470.649 198.772 467.274 197.533 464.13C196.92 462.575 196.384 461.111 196.001 459.966C195.809 459.393 195.659 458.912 195.558 458.546C195.44 458.124 195.427 457.991 195.429 458.031L192.432 458.165ZM198.891 474.094C201.516 478.29 201.107 482.75 198.72 485.931C196.329 489.117 191.796 491.209 185.812 490.217L185.321 493.177C192.261 494.328 197.971 491.927 201.119 487.732C204.271 483.532 204.699 477.721 201.434 472.503L198.891 474.094ZM185.812 490.217C179.999 489.254 176.806 485.385 175.933 481.102C175.046 476.744 176.567 472.032 180.212 469.407L178.459 466.972C173.729 470.378 171.903 476.348 172.994 481.701C174.1 487.129 178.209 491.998 185.321 493.177L185.812 490.217ZM177.89 468.588C178.073 469.252 178.174 469.778 178.337 470.452C178.489 471.077 178.679 471.754 179.008 472.43C179.701 473.858 180.885 475.035 183.017 476.157L184.414 473.502C182.671 472.584 182.044 471.814 181.706 471.119C181.519 470.733 181.388 470.304 181.253 469.746C181.129 469.236 180.977 468.5 180.782 467.79L177.89 468.588ZM185.183 475.143C185.65 472.957 187.149 469.839 189.076 466.751C190.99 463.684 193.204 460.84 194.958 459.191L192.903 457.006C190.893 458.896 188.522 461.973 186.531 465.163C184.553 468.332 182.827 471.809 182.249 474.516L185.183 475.143Z" fill="black"/>
<path d="M192.459 475.389C192.891 476.871 191.527 481.252 192.459 483.028C194.482 486.885 191.716 492.32 186.283 491.414C180.851 490.508 182.002 491.775 185.537 489.139C185.851 490.331 184.056 486.847 185.537 484.09C185.986 481.962 190.074 476.114 192.459 475.389Z" stroke="black" stroke-width="3" stroke-linejoin="round"/>
<path d="M443.862 516.382C444.453 504.214 446.722 498.055 451.145 496.706C451.837 494.822 453.169 493.242 454.91 492.242C454.924 492.234 454.939 492.228 454.954 492.221L455.003 492.197C457.62 490.752 460.682 490.798 462.715 490.834C462.995 490.838 463.256 490.843 463.495 490.843C465.35 490.843 467.565 491.067 470.132 491.327C473.943 491.769 477.774 492.014 481.61 492.06C482.426 492.06 483.371 492.045 484.421 492.027L485.75 492.007C490.205 491.924 497.481 491.79 503.518 492.676C503.569 492.549 503.614 492.415 503.671 492.294C502.41 490.774 501.461 489.021 500.879 487.135C500.296 485.249 500.091 483.266 500.276 481.301C500.305 481.027 500.418 480.77 500.599 480.563C500.78 480.356 501.02 480.209 501.287 480.143C501.554 480.077 501.835 480.095 502.091 480.194C502.348 480.293 502.567 480.469 502.721 480.697C504.672 483.331 507.041 485.629 509.734 487.498C511.095 487.233 512.482 487.12 513.868 487.164H514.118C515.505 487.12 516.892 487.232 518.253 487.498C520.946 485.629 523.314 483.331 525.266 480.697C525.419 480.469 525.639 480.293 525.895 480.194C526.152 480.095 526.433 480.077 526.699 480.143C526.966 480.209 527.207 480.356 527.387 480.563C527.568 480.77 527.681 481.027 527.711 481.301C527.895 483.265 527.69 485.247 527.107 487.133C526.525 489.018 525.577 490.77 524.317 492.289C524.386 492.442 524.444 492.611 524.507 492.774C526.99 492.457 530.168 493.057 531.81 494.26C532.096 494.469 532.287 494.784 532.342 495.134C532.397 495.484 532.31 495.842 532.102 496.129C531.342 497.281 530.336 498.251 529.157 498.969C527.978 499.687 526.655 500.135 525.282 500.282C525.255 500.598 525.238 500.902 525.2 501.228C523.938 511.959 520.733 514.829 516.941 515.552C515.528 516.913 514.278 518.189 513.231 519.346C512.179 520.606 511.197 521.923 510.289 523.291C509.466 528.941 508.528 540.175 509.41 547.315C509.433 547.504 509.416 547.695 509.36 547.876C509.304 548.057 509.209 548.225 509.084 548.367C508.958 548.509 508.803 548.623 508.63 548.701C508.457 548.779 508.27 548.82 508.08 548.82H503.701C503.392 548.82 503.092 548.713 502.853 548.518C502.613 548.322 502.449 548.05 502.387 547.748C502.306 547.345 500.862 540.199 499.908 535.361C499.542 542.507 499.588 547.407 499.589 547.468C499.591 547.645 499.558 547.821 499.491 547.986C499.425 548.15 499.327 548.299 499.202 548.425C499.077 548.551 498.929 548.651 498.765 548.719C498.602 548.788 498.426 548.823 498.249 548.823H492.829C492.512 548.823 492.206 548.711 491.965 548.507C491.723 548.303 491.561 548.02 491.508 547.708C491.487 547.585 489.416 535.396 488.859 528.053C488.844 527.853 488.874 527.653 488.946 527.467C489.018 527.28 489.131 527.112 489.277 526.975C489.619 526.645 489.928 526.283 490.202 525.895C489.581 525.908 488.935 525.921 488.27 525.931C487.271 525.945 486.297 525.952 485.349 525.952H485.195C484.449 525.952 483.722 525.947 483.008 525.938C482.843 525.938 482.682 525.933 482.518 525.931C481.894 525.921 481.284 525.909 480.686 525.893C480.499 525.888 480.312 525.884 480.128 525.878C479.401 525.855 478.688 525.83 478.005 525.801C477.12 525.761 476.293 525.708 475.492 525.648C474.241 527.391 472.253 529.811 470.117 531.037L471.632 547.358C471.649 547.544 471.628 547.731 471.568 547.908C471.509 548.084 471.414 548.247 471.288 548.384C471.163 548.522 471.01 548.632 470.839 548.708C470.669 548.783 470.484 548.822 470.298 548.822H464.873C464.557 548.822 464.251 548.71 464.009 548.506C463.768 548.302 463.606 548.019 463.553 547.707C463.534 547.598 461.868 537.793 461.123 530.474C460.78 530.687 460.434 530.892 460.057 531.076L461.567 547.358C461.585 547.544 461.563 547.731 461.504 547.908C461.445 548.084 461.349 548.247 461.224 548.384C461.098 548.522 460.945 548.632 460.775 548.708C460.604 548.783 460.42 548.822 460.234 548.822H454.805C454.489 548.822 454.183 548.71 453.941 548.506C453.7 548.302 453.538 548.019 453.485 547.707C453.358 546.957 450.362 529.265 450.735 523.827C450.83 522.413 450.973 521.14 451.112 519.909C451.495 516.508 451.826 513.571 450.882 509.343C450.249 506.412 450.047 503.404 450.284 500.414C448.21 502.718 446.957 508.091 446.544 516.464C447.567 517.009 448.626 518.365 448.626 521.663C448.516 524.005 447.643 526.247 446.142 528.047C446.016 528.192 445.861 528.307 445.687 528.386C445.513 528.465 445.324 528.506 445.133 528.506C444.942 528.506 444.753 528.465 444.579 528.386C444.405 528.307 444.25 528.192 444.124 528.047C442.623 526.247 441.75 524.005 441.64 521.663C441.637 518.205 442.797 516.875 443.862 516.382V516.382ZM469.861 493.989C467.368 493.737 465.214 493.519 463.495 493.519C463.242 493.519 462.965 493.514 462.669 493.509C461.286 493.445 459.9 493.527 458.535 493.754C462.336 496.557 465.84 500.587 468.295 503.414C469.185 504.439 469.953 505.324 470.403 505.751C471.561 506.844 475.001 507.702 477.976 506.612C480.462 505.701 481.891 503.737 482.224 500.771C482.377 498.708 482.798 496.674 483.478 494.721C482.801 494.731 482.177 494.738 481.609 494.738C477.683 494.692 473.762 494.442 469.861 493.989V493.989ZM502.603 497.573C502.623 496.843 502.689 496.114 502.801 495.393C501.561 495.307 500.315 495.443 499.122 495.792C500.061 496.744 501.282 497.368 502.603 497.573V497.573ZM503.173 485.403C503.567 487.025 504.268 488.556 505.24 489.913C505.697 489.434 506.213 489.014 506.776 488.664C505.501 487.662 504.297 486.572 503.173 485.403ZM521.216 488.665C521.777 489.015 522.292 489.434 522.747 489.914C523.719 488.557 524.421 487.025 524.814 485.403C523.692 486.572 522.489 487.662 521.216 488.665V488.665ZM525.19 495.394C525.302 496.115 525.368 496.843 525.388 497.573C526.709 497.369 527.93 496.745 528.87 495.792C527.677 495.442 526.431 495.307 525.19 495.394ZM522.544 500.915C523.043 496.678 522.5 493.638 520.932 491.881C519.215 489.958 516.508 489.84 514.549 489.84H513.86C512.554 489.786 511.246 489.903 509.97 490.187C509.903 490.212 509.835 490.233 509.764 490.247C508.726 490.525 507.788 491.092 507.059 491.883C505.491 493.638 504.949 496.677 505.452 500.918C506.884 513.099 510.505 513.103 513.998 513.107C514.673 513.121 515.348 513.091 516.019 513.017C516.065 513.007 516.112 513 516.16 512.996C518.893 512.579 521.407 510.583 522.544 500.915V500.915ZM501.331 530.251C501.581 530.452 501.75 530.737 501.808 531.053C502.247 533.438 504.154 542.92 504.802 546.14H506.6C506.079 540.065 506.588 531.92 507.224 526.206C505.294 527.668 503.213 528.921 501.018 529.942C501.205 530.143 501.331 530.251 501.331 530.251V530.251ZM480.302 523.202C480.514 523.208 480.735 523.212 480.95 523.218C481.437 523.23 481.933 523.24 482.438 523.249C482.752 523.253 483.07 523.257 483.391 523.26C483.873 523.265 484.365 523.268 484.864 523.268C485.144 523.268 485.419 523.268 485.706 523.268C486.41 523.268 487.13 523.26 487.861 523.25L488.717 522.703C492.481 520.299 494.968 518.711 495.689 516.622C495.783 516.331 495.795 516.019 495.722 515.722C495.65 515.425 495.497 515.153 495.28 514.938C494.07 513.377 491.146 512.214 488.896 512.402C485.872 512.652 484.493 512.766 481.412 520.325C480.999 521.338 480.583 522.297 480.169 523.196L480.302 523.202ZM466.008 546.141H468.832L467.367 530.363C467.34 530.073 467.408 529.782 467.562 529.534C467.715 529.286 467.945 529.095 468.216 528.99C469.365 528.544 470.842 527.229 472.351 525.356C470.325 525.171 468.328 524.75 466.401 524.101C465.779 525.718 464.834 527.191 463.624 528.432C464.12 534.362 465.505 543.074 466.008 546.14V546.141ZM453.772 520.207C453.637 521.408 453.497 522.651 453.406 524.006C453.105 528.384 455.279 542.12 455.939 546.14H458.764L457.3 530.362C457.273 530.073 457.34 529.783 457.492 529.536C457.644 529.288 457.872 529.097 458.142 528.991C462.397 527.324 464.154 523.178 464.122 522.348C464.069 522.079 464.101 521.801 464.211 521.55C464.322 521.3 464.507 521.089 464.741 520.947C464.975 520.804 465.247 520.737 465.521 520.754C465.794 520.771 466.056 520.872 466.271 521.042C467.006 521.628 469.427 522.65 477.257 523.072C477.812 521.934 478.371 520.675 478.93 519.312C482.095 511.544 484.138 510.11 488.674 509.731C491.813 509.475 495.641 511.038 497.395 513.295C497.881 513.867 498.212 514.553 498.357 515.289C498.501 516.025 498.454 516.786 498.219 517.499C497.441 519.755 495.547 521.385 492.891 523.183C493.068 523.218 493.236 523.288 493.384 523.39C493.532 523.492 493.658 523.624 493.754 523.776C493.878 523.974 493.949 524.201 493.958 524.434C493.968 524.667 493.916 524.899 493.809 525.106C493.211 526.309 492.463 527.432 491.585 528.449C492.082 534.379 493.466 543.079 493.969 546.14H496.915C496.928 543.47 497.026 537.106 497.604 529.296C497.604 529.277 497.613 529.26 497.615 529.242C497.626 529.154 497.645 529.067 497.672 528.982C497.68 528.959 497.685 528.934 497.694 528.911C497.733 528.811 497.785 528.717 497.847 528.629C497.863 528.606 497.883 528.586 497.901 528.565C497.95 528.503 498.005 528.446 498.065 528.394C498.095 528.368 498.123 528.343 498.155 528.317C498.228 528.263 498.307 528.217 498.389 528.18C498.405 528.173 498.417 528.161 498.432 528.155C501.93 526.749 505.13 524.694 507.865 522.099C507.877 522.079 507.892 522.063 507.905 522.044C508.933 520.478 510.051 518.973 511.256 517.539C511.768 516.973 512.332 516.376 512.932 515.759C508.346 515.554 504.253 513.704 502.785 501.226C502.747 500.9 502.73 500.594 502.703 500.28C501.33 500.133 500.007 499.685 498.828 498.968C497.648 498.25 496.642 497.281 495.881 496.129C495.734 495.924 495.647 495.682 495.63 495.431C495.614 495.179 495.67 494.928 495.79 494.707C492.367 494.579 489.043 494.623 486.488 494.669C485.858 495.679 485.328 497.145 484.88 501.071C484.437 505.014 482.31 507.875 478.891 509.128C477.641 509.578 476.322 509.805 474.994 509.799C472.315 509.799 469.848 508.919 468.554 507.697C468.007 507.178 467.238 506.293 466.265 505.171C463.755 502.28 459.645 497.55 455.596 494.988C452.84 497.089 452.133 501.734 453.496 508.79C454.537 513.422 454.168 516.718 453.772 520.207V520.207ZM445.127 524.716C445.633 523.773 445.911 522.724 445.94 521.654C445.94 519.563 445.442 518.783 445.127 518.783C444.813 518.783 444.313 519.563 444.313 521.654C444.343 522.724 444.623 523.773 445.13 524.716H445.127Z" fill="black"/>
<mask id="path-43-inside-4" fill="white">
<rect x="554" y="522" width="85" height="67" rx="2"/>
</mask>
<rect x="554" y="522" width="85" height="67" rx="2" stroke="black" stroke-width="6" mask="url(#path-43-inside-4)"/>
<mask id="path-44-inside-5" fill="white">
<rect x="571" y="546" width="20" height="22" rx="2"/>
</mask>
<rect x="571" y="546" width="20" height="22" rx="2" stroke="black" stroke-width="6" mask="url(#path-44-inside-5)"/>
<mask id="path-45-inside-6" fill="white">
<rect x="636" y="544" width="20" height="22" rx="2"/>
</mask>
<rect x="636" y="544" width="20" height="22" rx="2" stroke="black" stroke-width="6" mask="url(#path-45-inside-6)"/>
<mask id="path-46-inside-7" fill="white">
<rect x="600" y="546" width="20" height="22" rx="2"/>
</mask>
<rect x="600" y="546" width="20" height="22" rx="2" stroke="black" stroke-width="6" mask="url(#path-46-inside-7)"/>
<path d="M659.5 555C659.5 557.836 658.87 560.329 657.926 562.06C656.951 563.847 655.851 564.5 655 564.5C654.149 564.5 653.049 563.847 652.074 562.06C651.13 560.329 650.5 557.836 650.5 555C650.5 552.164 651.13 549.671 652.074 547.94C653.049 546.153 654.149 545.5 655 545.5C655.851 545.5 656.951 546.153 657.926 547.94C658.87 549.671 659.5 552.164 659.5 555Z" fill="white" stroke="black" stroke-width="3"/>
<path d="M656 555.312C656 555.312 676.065 560.059 673 585.312" stroke="black" stroke-width="3" stroke-linecap="round" stroke-dasharray="4 5"/>
<path d="M939.827 538.947C943.385 538.947 946.28 541.842 946.28 545.4C946.28 548.959 943.385 551.853 939.827 551.853C936.268 551.853 933.373 548.959 933.373 545.4C933.373 541.842 936.268 538.947 939.827 538.947ZM939.827 549.151C941.895 549.151 943.577 547.468 943.577 545.4C943.577 543.332 941.895 541.65 939.827 541.65C937.759 541.65 936.076 543.332 936.076 545.4C936.076 547.468 937.759 549.151 939.827 549.151Z" fill="#6CBAFA"/>
<path d="M925.115 521.792V498.797V493.6C925.115 492.854 925.72 492.249 926.467 492.249H931.461C932.207 492.249 932.812 492.854 932.812 493.6C932.812 494.347 932.207 494.952 931.461 494.952H927.818V497.446H963.972H971.145V494.952H930.768C930.022 494.952 929.416 494.347 929.416 493.6C929.416 492.854 930.022 492.249 930.768 492.249H972.496C973.242 492.249 973.848 492.854 973.848 493.6V498.797C973.848 499.543 973.242 500.149 972.496 500.149H965.738L971.183 520.251H980.351V505.08C980.351 502.935 982.09 501.196 984.235 501.196H984.774V492.408C984.774 490.657 983.354 489.238 981.603 489.238H980.228C979.482 489.238 978.877 488.633 978.877 487.886C978.877 487.14 979.482 486.535 980.228 486.535H981.603C984.847 486.535 987.477 489.164 987.477 492.408V501.196H987.694C989.839 501.196 991.578 502.935 991.578 505.08V520.251H995.562C999.67 520.251 1003 523.581 1003 527.688V553.081C1003 553.088 1003 553.094 1003 553.101C1003 561.573 996.108 568.465 987.636 568.465C979.62 568.465 973.023 562.293 972.335 554.453H970.149L961.04 554.453C957.514 562.684 949.333 568.465 939.827 568.465C927.563 568.465 917.505 558.843 916.803 546.753H913.351C912.605 546.753 912 546.146 912 545.4C912 535.455 917.246 526.713 925.115 521.792ZM988.874 505.08C988.874 504.429 988.344 503.899 987.693 503.899H984.234C983.583 503.899 983.053 504.429 983.053 505.08V520.25H988.874V505.08ZM987.636 565.762C994.617 565.762 1000.3 560.082 1000.3 553.102L1000.3 553.08C1000.29 546.109 994.611 540.441 987.636 540.441C980.655 540.441 974.976 546.12 974.976 553.101C974.976 560.083 980.655 565.762 987.636 565.762ZM967.652 551.75H968.797L968.839 551.75C968.839 551.75 969.445 551.75 970.191 551.75C970.938 551.75 971.542 551.75 971.542 551.75H971.5C971.174 551.75 972.335 551.75 972.335 551.75C973.022 543.91 979.62 537.738 987.636 537.738C992.884 537.738 997.524 540.384 1000.3 544.41V527.69C1000.3 525.074 998.176 522.954 995.56 522.954H971.5V534.306C971.5 535.052 970.895 535.657 970.149 535.657C969.403 535.657 968.797 535.052 968.797 534.306V521.782L962.938 500.149H927.818V520.302C928.602 519.925 929.406 519.584 930.229 519.281V503.912C930.229 503.165 930.834 502.56 931.581 502.56H960.058C960.668 502.56 961.203 502.969 961.362 503.558L966.339 521.929C966.483 522.464 966.289 523.048 965.813 523.388C965.58 523.554 965.295 523.631 965.009 523.634L957.235 523.71C963.582 528.814 967.652 536.641 967.652 545.401V551.75ZM932.932 505.263V518.439C935.138 517.875 937.448 517.574 939.827 517.574C944.7 517.574 949.284 518.835 953.271 521.045L963.272 520.948L959.023 505.263H932.932ZM939.827 565.762C951.054 565.762 960.189 556.628 960.189 545.4C960.189 534.173 951.054 525.039 939.827 525.039C928.599 525.039 919.465 534.173 919.465 545.4C919.465 556.628 928.599 565.762 939.827 565.762ZM916.803 544.05C917.504 531.958 927.562 522.336 939.827 522.336C952.544 522.336 962.891 532.683 962.891 545.4C962.891 547.602 962.581 549.732 962.002 551.75H964.949V545.401C964.949 531.548 953.679 520.277 939.827 520.277C926.427 520.277 915.443 530.822 914.739 544.05H916.803Z" fill="#6CBAFA"/>
<path d="M987.636 544.965C992.123 544.965 995.773 548.615 995.773 553.101C995.773 557.588 992.123 561.237 987.636 561.237C983.15 561.237 979.5 557.588 979.5 553.101C979.5 548.615 983.15 544.965 987.636 544.965ZM987.636 558.535C990.632 558.535 993.07 556.097 993.07 553.101C993.07 550.105 990.632 547.668 987.636 547.668C984.64 547.668 982.203 550.105 982.203 553.101C982.203 556.097 984.64 558.535 987.636 558.535Z" fill="#6CBAFA"/>
<path d="M996.755 525.575C997.501 525.575 998.107 526.18 998.107 526.926V536.303C998.107 537.049 997.501 537.654 996.755 537.654C993.425 537.654 990.715 534.945 990.715 531.614C990.715 528.284 993.425 525.575 996.755 525.575ZM995.404 534.665V528.564C994.235 529.084 993.418 530.256 993.418 531.615C993.418 532.974 994.235 534.146 995.404 534.665Z" fill="#6CBAFA"/>
<mask id="path-54-inside-8" fill="white">
<rect x="827" y="506.5" width="67" height="62" rx="1"/>
</mask>
<rect x="827" y="506.5" width="67" height="62" rx="1" stroke="#6CBAFA" stroke-width="6" stroke-linejoin="round" mask="url(#path-54-inside-8)"/>
<rect x="846.5" y="485" width="27" height="23" stroke="#6CBAFA" stroke-width="3" stroke-linejoin="round"/>
<rect x="842.5" y="539" width="36" height="28" stroke="#6CBAFA" stroke-width="3" stroke-linejoin="round"/>
<rect x="840.5" y="521" width="9" height="10" stroke="#6CBAFA" stroke-width="3" stroke-linejoin="round"/>
<rect x="855.5" y="521" width="9" height="10" stroke="#6CBAFA" stroke-width="3" stroke-linejoin="round"/>
<rect x="870.5" y="521" width="9" height="10" stroke="#6CBAFA" stroke-width="3" stroke-linejoin="round"/>
<path d="M825.072 436H894.928C895.29 436 895.532 436.372 895.386 436.702L874.023 485H845.977L824.614 436.702C824.468 436.372 824.71 436 825.072 436Z" stroke="#6CBAFA" stroke-width="3" stroke-linejoin="round"/>
<path d="M1090.77 494.5H1115.23C1115.49 494.5 1115.7 494.688 1115.73 494.938L1124.71 566.796C1124.77 567.284 1124.17 567.558 1123.84 567.191L1105.62 546.685C1104.22 545.119 1101.78 545.119 1100.38 546.685L1082.16 567.191C1081.83 567.558 1081.23 567.284 1081.29 566.796L1090.27 494.938C1090.3 494.688 1090.51 494.5 1090.77 494.5Z" stroke="black" stroke-width="3" stroke-linejoin="round"/>
<path d="M1104.4 518.688L1117.06 529.134C1117.76 529.708 1117.79 530.764 1117.14 531.383L1104.47 543.31C1103.91 543.842 1103.03 543.855 1102.45 543.338L1089.05 531.415C1088.35 530.792 1088.38 529.687 1089.12 529.111L1102.52 518.662C1103.08 518.23 1103.86 518.241 1104.4 518.688Z" stroke="black" stroke-width="3"/>
<path d="M1135 494L1077.85 494C1074.93 494 1073.73 497.742 1076.1 499.44L1101.12 517.336C1102.29 518.176 1103.9 518.061 1104.94 517.062L1117 505.5" stroke="black" stroke-width="3" stroke-linecap="round"/>
<path d="M1084.43 472.5H1121.57C1122.63 472.5 1123.36 473.572 1122.96 474.557L1115.36 493.557C1115.13 494.127 1114.58 494.5 1113.97 494.5H1092.03C1091.42 494.5 1090.87 494.127 1090.64 493.557L1083.04 474.557C1082.64 473.572 1083.37 472.5 1084.43 472.5Z" stroke="black" stroke-width="3"/>
<line x1="1075.5" y1="472.5" x2="1128.5" y2="472.5" stroke="black" stroke-width="3" stroke-linecap="round"/>
<path d="M1103.4 437.294L1095.4 448.294L1110.5 448.294L1103.4 460.5" stroke="black" stroke-width="3" stroke-linecap="round" stroke-linejoin="round"/>
<g filter="url(#filter3_d)">
<circle cx="1168" cy="410" r="23" fill="#FBC800"/>
</g>
<line x1="1168.29" y1="399.105" x2="1168.29" y2="422.105" stroke="white" stroke-width="3"/>
<path d="M1180.11 411.21L1156.5 411.21" stroke="white" stroke-width="3"/>
<rect x="1147.5" y="533" width="28" height="5" rx="2.5" stroke="black" stroke-width="3" stroke-linejoin="round"/>
<rect x="1147.5" y="562" width="28" height="5" rx="2.5" stroke="black" stroke-width="3" stroke-linejoin="round"/>
<line x1="1149.5" y1="538.5" x2="1149.5" y2="561.5" stroke="black" stroke-width="3"/>
<line x1="1173.5" y1="538.5" x2="1173.5" y2="561.5" stroke="black" stroke-width="3"/>
<path d="M1173 533.5V531.5C1173 528.739 1170.76 526.5 1168 526.5H1156C1153.24 526.5 1151 528.739 1151 531.5V533.5" stroke="black" stroke-width="3"/>
<path d="M1166 519.5H1167.5C1167.5 518.672 1166.83 518 1166 518V519.5ZM1163 521H1166V518H1163V521ZM1164.5 519.5V526.5H1167.5V519.5H1164.5ZM1159.5 526.5V524.5H1156.5V526.5H1159.5ZM1163 518C1159.41 518 1156.5 520.91 1156.5 524.5H1159.5C1159.5 522.567 1161.07 521 1163 521V518Z" fill="black"/>
<path d="M1173 557.5C1168.03 557.5 1164 554.366 1164 550.5C1164 546.634 1168.03 543.5 1173 543.5" stroke="black" stroke-width="3"/>
<line x1="1175.3" y1="519.826" x2="1188.33" y2="518.198" stroke="black" stroke-width="3" stroke-linecap="round"/>
<line x1="1175.74" y1="524.293" x2="1183.79" y2="525.756" stroke="black" stroke-width="3" stroke-linecap="round"/>
<path d="M1216.5 553.217L1225.72 464.218H1278.3L1287.52 553.217V567.1H1216.5V553.217Z" stroke="black" stroke-width="3" stroke-linejoin="round"/>
<path d="M1222.29 456L1225.4 464.029H1278.53L1280.87 455.969L1278.68 451.1H1225.22L1222.29 456Z" stroke="black" stroke-width="3" stroke-linejoin="round"/>
<line x1="1215.94" y1="553.982" x2="1287.15" y2="553.982" stroke="black" stroke-width="3" stroke-linejoin="round"/>
<line x1="1216.79" y1="566.564" x2="1229.91" y2="554.383" stroke="black" stroke-width="3" stroke-linejoin="round"/>
<line y1="-1.5" x2="19.6772" y2="-1.5" transform="matrix(0.732783 -0.680462 0.68044 0.732804 1235.61 568.6)" stroke="black" stroke-width="3" stroke-linejoin="round"/>
<line y1="-1.5" x2="19.6772" y2="-1.5" transform="matrix(0.73278 -0.680465 0.680437 0.732807 1254.35 568.6)" stroke="black" stroke-width="3" stroke-linejoin="round"/>
<line y1="-1.5" x2="19.6772" y2="-1.5" transform="matrix(0.732783 -0.680462 0.68044 0.732804 1273.09 568.6)" stroke="black" stroke-width="3" stroke-linejoin="round"/>
<path d="M1258.06 492.703V471.151C1252.75 471.308 1243.34 475.836 1248.22 492.703" stroke="black" stroke-width="3" stroke-linejoin="round"/>
<path d="M1244.91 499.262L1226.24 510.037C1229.03 514.557 1237.66 520.435 1249.83 507.782" stroke="black" stroke-width="3" stroke-linejoin="round"/>
<path d="M1256.23 507.084L1274.89 517.86C1277.41 513.183 1278.19 502.777 1261.15 498.564" stroke="black" stroke-width="3" stroke-linejoin="round"/>
<circle cx="1252.95" cy="499.73" r="8.33859" stroke="black" stroke-width="3" stroke-linejoin="round"/>
<circle cx="1252.95" cy="499.73" r="3.65355" stroke="black" stroke-width="3" stroke-linejoin="round"/>
<line y1="-1.5" x2="46.1012" y2="-1.5" transform="matrix(-0.0508473 0.998706 -0.998388 -0.0567561 1249.2 507.695)" stroke="black" stroke-width="3" stroke-linejoin="round"/>
<line y1="-1.5" x2="46.9323" y2="-1.5" transform="matrix(0.0201082 0.999798 -1 0.00040714 1254.22 507.905)" stroke="black" stroke-width="3" stroke-linejoin="round"/>
<path d="M1370.22 558.5L1348.61 525.5H1307.74L1328.85 558.5H1370.22Z" stroke="black" stroke-width="3" stroke-linecap="round" stroke-linejoin="round"/>
<path d="M1358.22 558.5L1336.54 525.5H1322.77L1344.27 558.5H1358.22Z" stroke="black" stroke-width="3" stroke-linecap="round" stroke-linejoin="round"/>
<path d="M1322 548.115L1362.68 548.234L1355.19 536.833L1314.58 536.565L1322 548.115Z" stroke="black" stroke-width="3" stroke-linecap="round" stroke-linejoin="round"/>
<path d="M1370.64 559.364V566C1370.64 566.552 1370.19 567 1369.64 567H1307C1306.45 567 1306 566.552 1306 566V525" stroke="black" stroke-width="3" stroke-linecap="round" stroke-linejoin="round"/>
<line x1="1329.5" y1="559.5" x2="1329.5" y2="565.5" stroke="black" stroke-width="3" stroke-linecap="round" stroke-linejoin="round"/>
<circle r="8.05887" transform="matrix(-1 0 0 1 1359.9 480.752)" stroke="black" stroke-width="3"/>
<line x1="1.5" y1="-1.5" x2="24.7641" y2="-1.5" transform="matrix(-0.707116 0.707097 0.707116 0.707097 1349.24 489.219)" stroke="black" stroke-width="3" stroke-linecap="round"/>
<line x1="1.5" y1="-1.5" x2="18.164" y2="-1.5" transform="matrix(0 1 1 0 1359.62 494.135)" stroke="black" stroke-width="3" stroke-linecap="round"/>
<line x1="1.5" y1="-1.5" x2="18.1716" y2="-1.5" transform="matrix(-0.999615 -0.0277507 -0.0277834 0.999614 1344.87 478.84)" stroke="black" stroke-width="3" stroke-linecap="round"/>
<line x1="1.5" y1="-1.5" x2="11.2984" y2="-1.5" transform="matrix(0.768217 0.640189 0.64018 -0.768225 1370.55 489.765)" stroke="black" stroke-width="3" stroke-linecap="round"/>
<line x1="1.5" y1="-1.5" x2="11.2984" y2="-1.5" transform="matrix(0.768221 0.640184 0.640184 -0.768221 1338.87 463)" stroke="black" stroke-width="3" stroke-linecap="round"/>
<path d="M136.133 371.26C135.401 371.604 135.078 372.469 135.404 373.209L138.747 380.395C138.911 380.752 139.21 381.031 139.579 381.168C139.74 381.227 139.912 381.257 140.084 381.257C140.299 381.259 140.512 381.213 140.707 381.124L165.961 369.311L163.674 393.263C163.629 393.734 163.811 394.198 164.163 394.512C165.27 395.43 166.65 395.953 168.085 396C168.481 396 168.875 395.95 169.259 395.852C171.309 395.316 172.898 393.487 173.983 390.362L183.921 360.892L203.603 351.697C209.396 348.99 212.382 343.501 210.377 339.216C209.239 336.977 207.06 335.453 204.569 335.154C201.801 334.736 198.972 335.172 196.458 336.405L173.744 347.071L149.324 337.505C146.248 336.345 143.813 336.375 142.104 337.61C140.671 338.788 139.856 340.558 139.891 342.415C139.905 342.886 140.142 343.321 140.529 343.591L156.973 354.911L147.556 359.374L131.765 355.357C131.118 355.198 130.444 355.49 130.116 356.071L126.18 363.167C125.976 363.543 125.944 363.989 126.092 364.391C126.24 364.793 126.553 365.111 126.953 365.265L138.643 370.1L136.133 371.26ZM142.935 341.671C143.023 341.042 143.34 340.47 143.827 340.064C144.674 339.454 146.219 339.543 148.284 340.317L170.031 348.812L160.108 353.453L142.935 341.671ZM129.567 363.153L132.151 358.556L147.348 362.334C147.675 362.417 148.021 362.386 148.329 362.246L197.721 339.142C199.684 338.172 201.896 337.819 204.064 338.13C205.584 338.27 206.938 339.149 207.689 340.48C208.935 343.159 206.485 347.071 202.34 349.005L185.227 357.039L186.267 353.959C186.53 353.166 186.101 352.31 185.31 352.047C184.517 351.784 183.663 352.214 183.4 353.007L171.175 389.439C170.447 391.508 169.541 392.743 168.531 393.01C167.905 393.13 167.257 393.007 166.718 392.668L169.689 361.427C169.767 360.605 169.166 359.876 168.345 359.798C167.524 359.72 166.796 360.323 166.718 361.144L166.258 365.919L140.767 377.821L138.673 373.358L142.861 371.394C143.4 371.156 143.748 370.622 143.748 370.033C143.748 369.443 143.4 368.909 142.861 368.672L129.567 363.153Z" fill="black"/>
<path d="M136.133 371.26C135.401 371.604 135.078 372.469 135.404 373.209L138.747 380.395C138.911 380.752 139.21 381.031 139.579 381.168C139.74 381.227 139.912 381.257 140.084 381.257C140.299 381.259 140.512 381.213 140.707 381.124L165.961 369.311L163.674 393.263C163.629 393.734 163.811 394.198 164.163 394.512C165.27 395.43 166.65 395.953 168.085 396C168.481 396 168.875 395.95 169.259 395.852C171.309 395.316 172.898 393.487 173.983 390.362L183.921 360.892L203.603 351.697C209.396 348.99 212.382 343.501 210.377 339.216C209.239 336.977 207.06 335.453 204.569 335.154C201.801 334.736 198.972 335.172 196.458 336.405L173.744 347.071L149.324 337.505C146.248 336.345 143.813 336.375 142.104 337.61C140.671 338.788 139.856 340.558 139.891 342.415C139.905 342.886 140.142 343.321 140.529 343.591L156.973 354.911L147.556 359.374L131.765 355.357C131.118 355.198 130.444 355.49 130.116 356.071L126.18 363.167C125.976 363.543 125.944 363.989 126.092 364.391C126.24 364.793 126.553 365.111 126.953 365.265L138.643 370.1L136.133 371.26ZM142.935 341.671C143.023 341.042 143.34 340.47 143.827 340.064C144.674 339.454 146.219 339.543 148.284 340.317L170.031 348.812L160.108 353.453L142.935 341.671ZM129.567 363.153L132.151 358.556L147.348 362.334C147.675 362.417 148.021 362.386 148.329 362.246L197.721 339.142C199.684 338.172 201.896 337.819 204.064 338.13C205.584 338.27 206.938 339.149 207.689 340.48C208.935 343.159 206.485 347.071 202.34 349.005L185.227 357.039L186.267 353.959C186.53 353.166 186.101 352.31 185.31 352.047C184.517 351.784 183.663 352.214 183.4 353.007L171.175 389.439C170.447 391.508 169.541 392.743 168.531 393.01C167.905 393.13 167.257 393.007 166.718 392.668L169.689 361.427C169.767 360.605 169.166 359.876 168.345 359.798C167.524 359.72 166.796 360.323 166.718 361.144L166.258 365.919L140.767 377.821L138.673 373.358L142.861 371.394C143.4 371.156 143.748 370.622 143.748 370.033C143.748 369.443 143.4 368.909 142.861 368.672L129.567 363.153Z" fill="black"/>
<path d="M299 677C299 683.075 294.075 688 288 688C281.925 688 277 683.075 277 677" stroke="black" stroke-width="3"/>
<path d="M346 677C346 683.075 340.851 688 334.5 688C328.149 688 323 683.075 323 677" stroke="black" stroke-width="3"/>
</g>
<defs>
<filter id="filter0_d" x="895" y="384" width="86" height="86" filterUnits="userSpaceOnUse" color-interpolation-filters="sRGB">
<feFlood flood-opacity="0" result="BackgroundImageFix"/>
<feColorMatrix in="SourceAlpha" type="matrix" values="0 0 0 0 0 0 0 0 0 0 0 0 0 0 0 0 0 0 127 0"/>
<feOffset/>
<feGaussianBlur stdDeviation="10"/>
<feColorMatrix type="matrix" values="0 0 0 0 0 0 0 0 0 0 0 0 0 0 0 0 0 0 0.1 0"/>
<feBlend mode="normal" in2="BackgroundImageFix" result="effect1_dropShadow"/>
<feBlend mode="normal" in="SourceGraphic" in2="effect1_dropShadow" result="shape"/>
</filter>
<filter id="filter1_d" x="525" y="423" width="86" height="86" filterUnits="userSpaceOnUse" color-interpolation-filters="sRGB">
<feFlood flood-opacity="0" result="BackgroundImageFix"/>
<feColorMatrix in="SourceAlpha" type="matrix" values="0 0 0 0 0 0 0 0 0 0 0 0 0 0 0 0 0 0 127 0"/>
<feOffset/>
<feGaussianBlur stdDeviation="10"/>
<feColorMatrix type="matrix" values="0 0 0 0 0 0 0 0 0 0 0 0 0 0 0 0 0 0 0.1 0"/>
<feBlend mode="normal" in2="BackgroundImageFix" result="effect1_dropShadow"/>
<feBlend mode="normal" in="SourceGraphic" in2="effect1_dropShadow" result="shape"/>
</filter>
<filter id="filter2_d" x="295" y="392" width="86" height="86" filterUnits="userSpaceOnUse" color-interpolation-filters="sRGB">
<feFlood flood-opacity="0" result="BackgroundImageFix"/>
<feColorMatrix in="SourceAlpha" type="matrix" values="0 0 0 0 0 0 0 0 0 0 0 0 0 0 0 0 0 0 127 0"/>
<feOffset/>
<feGaussianBlur stdDeviation="10"/>
<feColorMatrix type="matrix" values="0 0 0 0 0 0 0 0 0 0 0 0 0 0 0 0 0 0 0.1 0"/>
<feBlend mode="normal" in2="BackgroundImageFix" result="effect1_dropShadow"/>
<feBlend mode="normal" in="SourceGraphic" in2="effect1_dropShadow" result="shape"/>
</filter>
<filter id="filter3_d" x="1125" y="367" width="86" height="86" filterUnits="userSpaceOnUse" color-interpolation-filters="sRGB">
<feFlood flood-opacity="0" result="BackgroundImageFix"/>
<feColorMatrix in="SourceAlpha" type="matrix" values="0 0 0 0 0 0 0 0 0 0 0 0 0 0 0 0 0 0 127 0"/>
<feOffset/>
<feGaussianBlur stdDeviation="10"/>
<feColorMatrix type="matrix" values="0 0 0 0 0 0 0 0 0 0 0 0 0 0 0 0 0 0 0.1 0"/>
<feBlend mode="normal" in2="BackgroundImageFix" result="effect1_dropShadow"/>
<feBlend mode="normal" in="SourceGraphic" in2="effect1_dropShadow" result="shape"/>
</filter>
<clipPath id="clip0">
<rect width="1440" height="1024" fill="white"/>
</clipPath>
</defs>
</svg>
