<svg width="652" height="489" viewBox="0 0 652 489" fill="none" xmlns="http://www.w3.org/2000/svg">
<circle cx="217" cy="465" r="10" fill="#FBC800"/>
<circle cx="193" cy="465" r="10" fill="#FBC800"/>
<circle cx="174" cy="460" r="5" fill="#FBC800"/>
<circle r="10" transform="matrix(-1 1.74846e-07 1.74846e-07 1 296 465)" fill="#FBC800"/>
<circle r="10" transform="matrix(-1 1.74846e-07 1.74846e-07 1 272 465)" fill="#FBC800"/>
<circle r="10" transform="matrix(-1 1.74846e-07 1.74846e-07 1 320 465)" fill="#FBC800"/>
<circle r="5" transform="matrix(-1 1.74846e-07 1.74846e-07 1 339 460)" fill="#FBC800"/>
<circle cx="217" cy="393" r="10" fill="#8D75F3"/>
<circle cx="193" cy="393" r="10" fill="#8D75F3"/>
<circle cx="169" cy="393" r="10" fill="#8D75F3"/>
<circle cx="145" cy="393" r="10" fill="#8D75F3"/>
<circle cx="169" cy="417" r="10" fill="#8D75F3"/>
<circle cx="145" cy="417" r="10" fill="#8D75F3"/>
<circle cx="121" cy="417" r="10" fill="#8D75F3"/>
<circle cx="97" cy="417" r="10" fill="#8D75F3"/>
<circle cx="78" cy="412" r="5" fill="#8D75F3"/>
<circle cx="73" cy="393" r="10" fill="#8D75F3"/>
<circle cx="121" cy="393" r="10" fill="#8D75F3"/>
<circle cx="97" cy="393" r="10" fill="#8D75F3"/>
<circle cx="217" cy="417" r="10" fill="#8D75F3"/>
<circle cx="193" cy="417" r="10" fill="#8D75F3"/>
<circle r="10" transform="matrix(-1 1.74846e-07 1.74846e-07 1 217 441)" fill="#6CBAFA"/>
<circle r="10" transform="matrix(-1 1.74846e-07 1.74846e-07 1 193 441)" fill="#6CBAFA"/>
<circle r="10" transform="matrix(-1 1.74846e-07 1.74846e-07 1 169 441)" fill="#6CBAFA"/>
<circle r="10" transform="matrix(-1 1.74846e-07 1.74846e-07 1 145 441)" fill="#6CBAFA"/>
<circle r="10" transform="matrix(-1 1.74846e-07 1.74846e-07 1 121 441)" fill="#6CBAFA"/>
<circle r="10" transform="matrix(-1 1.74846e-07 1.74846e-07 1 97 441)" fill="#6CBAFA"/>
<circle r="10" transform="matrix(-1 1.74846e-07 1.74846e-07 1 392 441)" fill="#6CBAFA"/>
<circle r="10" transform="matrix(-1 1.74846e-07 1.74846e-07 1 368 441)" fill="#6CBAFA"/>
<circle r="10" transform="matrix(-1 1.74846e-07 1.74846e-07 1 344 441)" fill="#6CBAFA"/>
<circle r="10" transform="matrix(-1 1.74846e-07 1.74846e-07 1 320 441)" fill="#6CBAFA"/>
<circle r="10" transform="matrix(-1 1.74846e-07 1.74846e-07 1 488 441)" fill="#6CBAFA"/>
<circle r="10" transform="matrix(-1 1.74846e-07 1.74846e-07 1 464 441)" fill="#6CBAFA"/>
<circle r="10" transform="matrix(-1 1.74846e-07 1.74846e-07 1 440 441)" fill="#6CBAFA"/>
<circle r="10" transform="matrix(-1 1.74846e-07 1.74846e-07 1 416 441)" fill="#6CBAFA"/>
<circle r="10" transform="matrix(-1 1.74846e-07 1.74846e-07 1 296 441)" fill="#6CBAFA"/>
<circle r="10" transform="matrix(-1 1.74846e-07 1.74846e-07 1 272 441)" fill="#6CBAFA"/>
<circle r="10" transform="matrix(-1 1.74846e-07 1.74846e-07 1 272 393)" fill="#8D75F3"/>
<circle r="10" transform="matrix(-1 1.74846e-07 1.74846e-07 1 296 393)" fill="#8D75F3"/>
<circle r="10" transform="matrix(-1 1.74846e-07 1.74846e-07 1 320 393)" fill="#8D75F3"/>
<circle r="10" transform="matrix(-1 1.74846e-07 1.74846e-07 1 344 393)" fill="#8D75F3"/>
<circle r="10" transform="matrix(-1 1.74846e-07 1.74846e-07 1 320 417)" fill="#8D75F3"/>
<circle r="10" transform="matrix(-1 1.74846e-07 1.74846e-07 1 344 417)" fill="#8D75F3"/>
<circle r="10" transform="matrix(-1 1.74846e-07 1.74846e-07 1 368 417)" fill="#8D75F3"/>
<circle r="10" transform="matrix(-1 1.74846e-07 1.74846e-07 1 392 417)" fill="#8D75F3"/>
<circle r="5" transform="matrix(-1 1.74846e-07 1.74846e-07 1 435 412)" fill="#8D75F3"/>
<circle r="10" transform="matrix(-1 1.74846e-07 1.74846e-07 1 440 393)" fill="#8D75F3"/>
<circle r="10" transform="matrix(-1 1.74846e-07 1.74846e-07 1 368 393)" fill="#8D75F3"/>
<circle r="10" transform="matrix(-1 1.74846e-07 1.74846e-07 1 392 393)" fill="#8D75F3"/>
<circle r="10" transform="matrix(-1 1.74846e-07 1.74846e-07 1 416 417)" fill="#8D75F3"/>
<circle r="10" transform="matrix(-1 1.74846e-07 1.74846e-07 1 416 393)" fill="#8D75F3"/>
<circle r="10" transform="matrix(-1 1.74846e-07 1.74846e-07 1 272 417)" fill="#8D75F3"/>
<circle r="10" transform="matrix(-1 1.74846e-07 1.74846e-07 1 296 417)" fill="#8D75F3"/>
<path d="M35.16 34.43C35.16 35.19 35.045 35.905 34.815 36.575C34.585 37.245 34.29 37.86 33.93 38.42C33.57 38.98 33.165 39.48 32.715 39.92C32.275 40.36 31.84 40.72 31.41 41H29.16C29.75 40.57 30.28 40.155 30.75 39.755C31.22 39.355 31.63 38.945 31.98 38.525C32.33 38.105 32.62 37.66 32.85 37.19C33.09 36.72 33.275 36.205 33.405 35.645L33.3 35.615C33.19 35.825 33.06 36.025 32.91 36.215C32.77 36.395 32.6 36.555 32.4 36.695C32.21 36.835 31.99 36.945 31.74 37.025C31.49 37.105 31.2 37.145 30.87 37.145C30.43 37.145 30.02 37.07 29.64 36.92C29.27 36.77 28.945 36.555 28.665 36.275C28.395 35.985 28.18 35.645 28.02 35.255C27.87 34.855 27.795 34.405 27.795 33.905C27.795 33.385 27.88 32.905 28.05 32.465C28.23 32.025 28.48 31.65 28.8 31.34C29.12 31.03 29.505 30.79 29.955 30.62C30.405 30.44 30.91 30.35 31.47 30.35C32.05 30.35 32.565 30.445 33.015 30.635C33.475 30.825 33.86 31.1 34.17 31.46C34.49 31.81 34.735 32.235 34.905 32.735C35.075 33.235 35.16 33.8 35.16 34.43ZM31.47 35.78C32.08 35.78 32.555 35.62 32.895 35.3C33.235 34.97 33.405 34.49 33.405 33.86V33.65C33.405 33.02 33.235 32.545 32.895 32.225C32.555 31.895 32.08 31.73 31.47 31.73C30.86 31.73 30.385 31.895 30.045 32.225C29.705 32.545 29.535 33.02 29.535 33.65V33.86C29.535 34.49 29.705 34.97 30.045 35.3C30.385 35.62 30.86 35.78 31.47 35.78ZM40.4941 41.18C39.8841 41.18 39.3441 41.105 38.8741 40.955C38.4141 40.795 38.0241 40.58 37.7041 40.31C37.3941 40.04 37.1541 39.72 36.9841 39.35C36.8241 38.98 36.7441 38.58 36.7441 38.15C36.7441 37.45 36.9341 36.89 37.3141 36.47C37.7041 36.04 38.2141 35.74 38.8441 35.57V35.45C38.3041 35.26 37.8691 34.96 37.5391 34.55C37.2191 34.14 37.0591 33.635 37.0591 33.035C37.0591 32.635 37.1341 32.27 37.2841 31.94C37.4441 31.61 37.6691 31.33 37.9591 31.1C38.2491 30.86 38.6091 30.675 39.0391 30.545C39.4691 30.415 39.9541 30.35 40.4941 30.35C41.0341 30.35 41.5191 30.415 41.9491 30.545C42.3791 30.675 42.7391 30.86 43.0291 31.1C43.3191 31.33 43.5391 31.61 43.6891 31.94C43.8491 32.27 43.9291 32.635 43.9291 33.035C43.9291 33.635 43.7641 34.14 43.4341 34.55C43.1141 34.96 42.6841 35.26 42.1441 35.45V35.57C42.7741 35.74 43.2791 36.04 43.6591 36.47C44.0491 36.89 44.2441 37.45 44.2441 38.15C44.2441 38.58 44.1591 38.98 43.9891 39.35C43.8291 39.72 43.5891 40.04 43.2691 40.31C42.9591 40.58 42.5691 40.795 42.0991 40.955C41.6391 41.105 41.1041 41.18 40.4941 41.18ZM40.4941 39.815C41.1241 39.815 41.6091 39.67 41.9491 39.38C42.2991 39.09 42.4741 38.685 42.4741 38.165V37.865C42.4741 37.345 42.2991 36.94 41.9491 36.65C41.6091 36.36 41.1241 36.215 40.4941 36.215C39.8641 36.215 39.3741 36.36 39.0241 36.65C38.6841 36.94 38.5141 37.345 38.5141 37.865V38.165C38.5141 38.685 38.6841 39.09 39.0241 39.38C39.3741 39.67 39.8641 39.815 40.4941 39.815ZM40.4941 34.91C41.0741 34.91 41.5141 34.785 41.8141 34.535C42.1241 34.285 42.2791 33.92 42.2791 33.44V33.185C42.2791 32.705 42.1241 32.34 41.8141 32.09C41.5141 31.84 41.0741 31.715 40.4941 31.715C39.9141 31.715 39.4691 31.84 39.1591 32.09C38.8591 32.34 38.7091 32.705 38.7091 33.185V33.44C38.7091 33.92 38.8591 34.285 39.1591 34.535C39.4691 34.785 39.9141 34.91 40.4941 34.91ZM53.1483 34.43C53.1483 35.19 53.0333 35.905 52.8033 36.575C52.5733 37.245 52.2783 37.86 51.9183 38.42C51.5583 38.98 51.1533 39.48 50.7033 39.92C50.2633 40.36 49.8283 40.72 49.3983 41H47.1483C47.7383 40.57 48.2683 40.155 48.7383 39.755C49.2083 39.355 49.6183 38.945 49.9683 38.525C50.3183 38.105 50.6083 37.66 50.8383 37.19C51.0783 36.72 51.2633 36.205 51.3933 35.645L51.2883 35.615C51.1783 35.825 51.0483 36.025 50.8983 36.215C50.7583 36.395 50.5883 36.555 50.3883 36.695C50.1983 36.835 49.9783 36.945 49.7283 37.025C49.4783 37.105 49.1883 37.145 48.8583 37.145C48.4183 37.145 48.0083 37.07 47.6283 36.92C47.2583 36.77 46.9333 36.555 46.6533 36.275C46.3833 35.985 46.1683 35.645 46.0083 35.255C45.8583 34.855 45.7833 34.405 45.7833 33.905C45.7833 33.385 45.8683 32.905 46.0383 32.465C46.2183 32.025 46.4683 31.65 46.7883 31.34C47.1083 31.03 47.4933 30.79 47.9433 30.62C48.3933 30.44 48.8983 30.35 49.4583 30.35C50.0383 30.35 50.5533 30.445 51.0033 30.635C51.4633 30.825 51.8483 31.1 52.1583 31.46C52.4783 31.81 52.7233 32.235 52.8933 32.735C53.0633 33.235 53.1483 33.8 53.1483 34.43ZM49.4583 35.78C50.0683 35.78 50.5433 35.62 50.8833 35.3C51.2233 34.97 51.3933 34.49 51.3933 33.86V33.65C51.3933 33.02 51.2233 32.545 50.8833 32.225C50.5433 31.895 50.0683 31.73 49.4583 31.73C48.8483 31.73 48.3733 31.895 48.0333 32.225C47.6933 32.545 47.5233 33.02 47.5233 33.65V33.86C47.5233 34.49 47.6933 34.97 48.0333 35.3C48.3733 35.62 48.8483 35.78 49.4583 35.78ZM56.1574 38.915C56.5274 38.915 56.8024 39.01 56.9824 39.2C57.1624 39.39 57.2524 39.635 57.2524 39.935V40.175C57.2524 40.665 57.1174 41.175 56.8474 41.705C56.5874 42.245 56.2324 42.7 55.7824 43.07H54.5674C54.8874 42.75 55.1524 42.44 55.3624 42.14C55.5724 41.84 55.7324 41.505 55.8424 41.135C55.5824 41.085 55.3874 40.975 55.2574 40.805C55.1274 40.625 55.0624 40.415 55.0624 40.175V39.935C55.0624 39.635 55.1524 39.39 55.3324 39.2C55.5124 39.01 55.7874 38.915 56.1574 38.915ZM66.493 34.43C66.493 35.19 66.378 35.905 66.148 36.575C65.918 37.245 65.623 37.86 65.263 38.42C64.903 38.98 64.498 39.48 64.048 39.92C63.608 40.36 63.173 40.72 62.743 41H60.493C61.083 40.57 61.613 40.155 62.083 39.755C62.553 39.355 62.963 38.945 63.313 38.525C63.663 38.105 63.953 37.66 64.183 37.19C64.423 36.72 64.608 36.205 64.738 35.645L64.633 35.615C64.523 35.825 64.393 36.025 64.243 36.215C64.103 36.395 63.933 36.555 63.733 36.695C63.543 36.835 63.323 36.945 63.073 37.025C62.823 37.105 62.533 37.145 62.203 37.145C61.763 37.145 61.353 37.07 60.973 36.92C60.603 36.77 60.278 36.555 59.998 36.275C59.728 35.985 59.513 35.645 59.353 35.255C59.203 34.855 59.128 34.405 59.128 33.905C59.128 33.385 59.213 32.905 59.383 32.465C59.563 32.025 59.813 31.65 60.133 31.34C60.453 31.03 60.838 30.79 61.288 30.62C61.738 30.44 62.243 30.35 62.803 30.35C63.383 30.35 63.898 30.445 64.348 30.635C64.808 30.825 65.193 31.1 65.503 31.46C65.823 31.81 66.068 32.235 66.238 32.735C66.408 33.235 66.493 33.8 66.493 34.43ZM62.803 35.78C63.413 35.78 63.888 35.62 64.228 35.3C64.568 34.97 64.738 34.49 64.738 33.86V33.65C64.738 33.02 64.568 32.545 64.228 32.225C63.888 31.895 63.413 31.73 62.803 31.73C62.193 31.73 61.718 31.895 61.378 32.225C61.038 32.545 60.868 33.02 60.868 33.65V33.86C60.868 34.49 61.038 34.97 61.378 35.3C61.718 35.62 62.193 35.78 62.803 35.78ZM70.6571 41C70.0871 41 69.6571 40.855 69.3671 40.565C69.0771 40.265 68.9321 39.845 68.9321 39.305V34.535H67.7171V33.2H68.3771C68.6471 33.2 68.8321 33.14 68.9321 33.02C69.0421 32.9 69.0971 32.705 69.0971 32.435V31.07H70.5671V33.2H72.2021V34.535H70.5671V39.665H72.0821V41H70.6571Z" fill="#00C7A5"/>
<path d="M585.32 38V36.59H588.26V28.76H588.14L585.71 31.355L584.675 30.425L587.345 27.53H589.925V36.59H592.475V38H585.32ZM601.154 31.43C601.154 32.19 601.039 32.905 600.809 33.575C600.579 34.245 600.284 34.86 599.924 35.42C599.564 35.98 599.159 36.48 598.709 36.92C598.269 37.36 597.834 37.72 597.404 38H595.154C595.744 37.57 596.274 37.155 596.744 36.755C597.214 36.355 597.624 35.945 597.974 35.525C598.324 35.105 598.614 34.66 598.844 34.19C599.084 33.72 599.269 33.205 599.399 32.645L599.294 32.615C599.184 32.825 599.054 33.025 598.904 33.215C598.764 33.395 598.594 33.555 598.394 33.695C598.204 33.835 597.984 33.945 597.734 34.025C597.484 34.105 597.194 34.145 596.864 34.145C596.424 34.145 596.014 34.07 595.634 33.92C595.264 33.77 594.939 33.555 594.659 33.275C594.389 32.985 594.174 32.645 594.014 32.255C593.864 31.855 593.789 31.405 593.789 30.905C593.789 30.385 593.874 29.905 594.044 29.465C594.224 29.025 594.474 28.65 594.794 28.34C595.114 28.03 595.499 27.79 595.949 27.62C596.399 27.44 596.904 27.35 597.464 27.35C598.044 27.35 598.559 27.445 599.009 27.635C599.469 27.825 599.854 28.1 600.164 28.46C600.484 28.81 600.729 29.235 600.899 29.735C601.069 30.235 601.154 30.8 601.154 31.43ZM597.464 32.78C598.074 32.78 598.549 32.62 598.889 32.3C599.229 31.97 599.399 31.49 599.399 30.86V30.65C599.399 30.02 599.229 29.545 598.889 29.225C598.549 28.895 598.074 28.73 597.464 28.73C596.854 28.73 596.379 28.895 596.039 29.225C595.699 29.545 595.529 30.02 595.529 30.65V30.86C595.529 31.49 595.699 31.97 596.039 32.3C596.379 32.62 596.854 32.78 597.464 32.78ZM606.488 38.18C605.878 38.18 605.338 38.105 604.868 37.955C604.408 37.795 604.018 37.58 603.698 37.31C603.388 37.04 603.148 36.72 602.978 36.35C602.818 35.98 602.738 35.58 602.738 35.15C602.738 34.45 602.928 33.89 603.308 33.47C603.698 33.04 604.208 32.74 604.838 32.57V32.45C604.298 32.26 603.863 31.96 603.533 31.55C603.213 31.14 603.053 30.635 603.053 30.035C603.053 29.635 603.128 29.27 603.278 28.94C603.438 28.61 603.663 28.33 603.953 28.1C604.243 27.86 604.603 27.675 605.033 27.545C605.463 27.415 605.948 27.35 606.488 27.35C607.028 27.35 607.513 27.415 607.943 27.545C608.373 27.675 608.733 27.86 609.023 28.1C609.313 28.33 609.533 28.61 609.683 28.94C609.843 29.27 609.923 29.635 609.923 30.035C609.923 30.635 609.758 31.14 609.428 31.55C609.108 31.96 608.678 32.26 608.138 32.45V32.57C608.768 32.74 609.273 33.04 609.653 33.47C610.043 33.89 610.238 34.45 610.238 35.15C610.238 35.58 610.153 35.98 609.983 36.35C609.823 36.72 609.583 37.04 609.263 37.31C608.953 37.58 608.563 37.795 608.093 37.955C607.633 38.105 607.098 38.18 606.488 38.18ZM606.488 36.815C607.118 36.815 607.603 36.67 607.943 36.38C608.293 36.09 608.468 35.685 608.468 35.165V34.865C608.468 34.345 608.293 33.94 607.943 33.65C607.603 33.36 607.118 33.215 606.488 33.215C605.858 33.215 605.368 33.36 605.018 33.65C604.678 33.94 604.508 34.345 604.508 34.865V35.165C604.508 35.685 604.678 36.09 605.018 36.38C605.368 36.67 605.858 36.815 606.488 36.815ZM606.488 31.91C607.068 31.91 607.508 31.785 607.808 31.535C608.118 31.285 608.273 30.92 608.273 30.44V30.185C608.273 29.705 608.118 29.34 607.808 29.09C607.508 28.84 607.068 28.715 606.488 28.715C605.908 28.715 605.463 28.84 605.153 29.09C604.853 29.34 604.703 29.705 604.703 30.185V30.44C604.703 30.92 604.853 31.285 605.153 31.535C605.463 31.785 605.908 31.91 606.488 31.91ZM618.602 29H613.952L613.682 32.705H613.787C613.907 32.495 614.032 32.31 614.162 32.15C614.292 31.98 614.442 31.835 614.612 31.715C614.782 31.595 614.977 31.505 615.197 31.445C615.417 31.375 615.677 31.34 615.977 31.34C616.427 31.34 616.842 31.415 617.222 31.565C617.612 31.715 617.947 31.93 618.227 32.21C618.517 32.49 618.742 32.835 618.902 33.245C619.062 33.645 619.142 34.1 619.142 34.61C619.142 35.13 619.057 35.61 618.887 36.05C618.727 36.49 618.487 36.87 618.167 37.19C617.847 37.5 617.452 37.745 616.982 37.925C616.522 38.095 615.997 38.18 615.407 38.18C614.937 38.18 614.522 38.125 614.162 38.015C613.802 37.915 613.482 37.78 613.202 37.61C612.932 37.43 612.692 37.23 612.482 37.01C612.282 36.78 612.102 36.545 611.942 36.305L613.172 35.33C613.302 35.54 613.437 35.73 613.577 35.9C613.717 36.07 613.877 36.22 614.057 36.35C614.237 36.48 614.437 36.58 614.657 36.65C614.887 36.72 615.147 36.755 615.437 36.755C616.057 36.755 616.532 36.585 616.862 36.245C617.202 35.905 617.372 35.435 617.372 34.835V34.655C617.372 34.055 617.202 33.585 616.862 33.245C616.532 32.905 616.057 32.735 615.437 32.735C614.987 32.735 614.627 32.82 614.357 32.99C614.087 33.16 613.857 33.35 613.667 33.56L612.272 33.365L612.662 27.53H618.602V29ZM622.152 35.915C622.522 35.915 622.797 36.01 622.977 36.2C623.157 36.39 623.247 36.635 623.247 36.935V37.175C623.247 37.665 623.112 38.175 622.842 38.705C622.582 39.245 622.227 39.7 621.777 40.07H620.562C620.882 39.75 621.147 39.44 621.357 39.14C621.567 38.84 621.727 38.505 621.837 38.135C621.577 38.085 621.382 37.975 621.252 37.805C621.122 37.625 621.057 37.415 621.057 37.175V36.935C621.057 36.635 621.147 36.39 621.327 36.2C621.507 36.01 621.782 35.915 622.152 35.915ZM631.947 29H627.297L627.027 32.705H627.132C627.252 32.495 627.377 32.31 627.507 32.15C627.637 31.98 627.787 31.835 627.957 31.715C628.127 31.595 628.322 31.505 628.542 31.445C628.762 31.375 629.022 31.34 629.322 31.34C629.772 31.34 630.187 31.415 630.567 31.565C630.957 31.715 631.292 31.93 631.572 32.21C631.862 32.49 632.087 32.835 632.247 33.245C632.407 33.645 632.487 34.1 632.487 34.61C632.487 35.13 632.402 35.61 632.232 36.05C632.072 36.49 631.832 36.87 631.512 37.19C631.192 37.5 630.797 37.745 630.327 37.925C629.867 38.095 629.342 38.18 628.752 38.18C628.282 38.18 627.867 38.125 627.507 38.015C627.147 37.915 626.827 37.78 626.547 37.61C626.277 37.43 626.037 37.23 625.827 37.01C625.627 36.78 625.447 36.545 625.287 36.305L626.517 35.33C626.647 35.54 626.782 35.73 626.922 35.9C627.062 36.07 627.222 36.22 627.402 36.35C627.582 36.48 627.782 36.58 628.002 36.65C628.232 36.72 628.492 36.755 628.782 36.755C629.402 36.755 629.877 36.585 630.207 36.245C630.547 35.905 630.717 35.435 630.717 34.835V34.655C630.717 34.055 630.547 33.585 630.207 33.245C629.877 32.905 629.402 32.735 628.782 32.735C628.332 32.735 627.972 32.82 627.702 32.99C627.432 33.16 627.202 33.35 627.012 33.56L625.617 33.365L626.007 27.53H631.947V29ZM637.851 38.18C637.271 38.18 636.751 38.085 636.291 37.895C635.841 37.705 635.456 37.435 635.136 37.085C634.826 36.725 634.586 36.295 634.416 35.795C634.246 35.295 634.161 34.73 634.161 34.1C634.161 33.34 634.276 32.625 634.506 31.955C634.736 31.285 635.031 30.67 635.391 30.11C635.751 29.55 636.151 29.055 636.591 28.625C637.041 28.185 637.481 27.82 637.911 27.53H640.161C639.571 27.96 639.041 28.375 638.571 28.775C638.101 29.175 637.691 29.585 637.341 30.005C636.991 30.425 636.696 30.87 636.456 31.34C636.226 31.81 636.046 32.325 635.916 32.885L636.021 32.915C636.131 32.705 636.256 32.51 636.396 32.33C636.546 32.14 636.716 31.975 636.906 31.835C637.106 31.695 637.331 31.585 637.581 31.505C637.831 31.425 638.121 31.385 638.451 31.385C638.891 31.385 639.296 31.46 639.666 31.61C640.046 31.76 640.371 31.98 640.641 32.27C640.921 32.55 641.136 32.89 641.286 33.29C641.446 33.69 641.526 34.135 641.526 34.625C641.526 35.155 641.436 35.64 641.256 36.08C641.086 36.51 640.841 36.88 640.521 37.19C640.201 37.5 639.811 37.745 639.351 37.925C638.901 38.095 638.401 38.18 637.851 38.18ZM637.851 36.8C638.461 36.8 638.936 36.64 639.276 36.32C639.616 35.99 639.786 35.51 639.786 34.88V34.67C639.786 34.04 639.616 33.565 639.276 33.245C638.936 32.915 638.461 32.75 637.851 32.75C637.241 32.75 636.766 32.915 636.426 33.245C636.086 33.565 635.916 34.04 635.916 34.67V34.88C635.916 35.51 636.086 35.99 636.426 36.32C636.766 36.64 637.241 36.8 637.851 36.8ZM645.645 38C645.075 38 644.645 37.855 644.355 37.565C644.065 37.265 643.92 36.845 643.92 36.305V31.535H642.705V30.2H643.365C643.635 30.2 643.82 30.14 643.92 30.02C644.03 29.9 644.085 29.705 644.085 29.435V28.07H645.555V30.2H647.19V31.535H645.555V36.665H647.07V38H645.645Z" fill="#00C7A5"/>
<path d="M1.32 403V401.59H4.26V393.76H4.14L1.71 396.355L0.675 395.425L3.345 392.53H5.925V401.59H8.475V403H1.32ZM12.9241 396.835C13.5741 396.835 14.0541 396.7 14.3641 396.43C14.6741 396.15 14.8291 395.795 14.8291 395.365V395.26C14.8291 394.78 14.6791 394.415 14.3791 394.165C14.0791 393.905 13.6741 393.775 13.1641 393.775C12.6641 393.775 12.2391 393.89 11.8891 394.12C11.5391 394.34 11.2441 394.65 11.0041 395.05L9.87914 394.075C10.0391 393.845 10.2191 393.625 10.4191 393.415C10.6191 393.205 10.8541 393.025 11.1241 392.875C11.3941 392.715 11.6991 392.59 12.0391 392.5C12.3791 392.4 12.7691 392.35 13.2091 392.35C13.6991 392.35 14.1541 392.41 14.5741 392.53C14.9941 392.65 15.3541 392.83 15.6541 393.07C15.9541 393.3 16.1891 393.585 16.3591 393.925C16.5291 394.255 16.6141 394.63 16.6141 395.05C16.6141 395.38 16.5591 395.68 16.4491 395.95C16.3491 396.22 16.2041 396.46 16.0141 396.67C15.8341 396.87 15.6191 397.035 15.3691 397.165C15.1291 397.295 14.8741 397.39 14.6041 397.45V397.525C14.9041 397.585 15.1841 397.685 15.4441 397.825C15.7141 397.955 15.9491 398.13 16.1491 398.35C16.3491 398.56 16.5041 398.815 16.6141 399.115C16.7341 399.405 16.7941 399.74 16.7941 400.12C16.7941 400.58 16.7041 401 16.5241 401.38C16.3441 401.75 16.0891 402.07 15.7591 402.34C15.4391 402.61 15.0491 402.82 14.5891 402.97C14.1291 403.11 13.6191 403.18 13.0591 403.18C12.5691 403.18 12.1391 403.125 11.7691 403.015C11.3991 402.915 11.0691 402.78 10.7791 402.61C10.4991 402.43 10.2491 402.23 10.0291 402.01C9.81914 401.78 9.63414 401.545 9.47414 401.305L10.7191 400.33C10.8491 400.54 10.9841 400.735 11.1241 400.915C11.2741 401.085 11.4391 401.235 11.6191 401.365C11.8091 401.485 12.0191 401.58 12.2491 401.65C12.4891 401.72 12.7591 401.755 13.0591 401.755C13.6991 401.755 14.1891 401.605 14.5291 401.305C14.8691 400.995 15.0391 400.57 15.0391 400.03V399.925C15.0391 399.385 14.8591 398.975 14.4991 398.695C14.1391 398.415 13.6291 398.275 12.9691 398.275H11.8591V396.835H12.9241ZM25.6083 394H20.9583L20.6883 397.705H20.7933C20.9133 397.495 21.0383 397.31 21.1683 397.15C21.2983 396.98 21.4483 396.835 21.6183 396.715C21.7883 396.595 21.9833 396.505 22.2033 396.445C22.4233 396.375 22.6833 396.34 22.9833 396.34C23.4333 396.34 23.8483 396.415 24.2283 396.565C24.6183 396.715 24.9533 396.93 25.2333 397.21C25.5233 397.49 25.7483 397.835 25.9083 398.245C26.0683 398.645 26.1483 399.1 26.1483 399.61C26.1483 400.13 26.0633 400.61 25.8933 401.05C25.7333 401.49 25.4933 401.87 25.1733 402.19C24.8533 402.5 24.4583 402.745 23.9883 402.925C23.5283 403.095 23.0033 403.18 22.4133 403.18C21.9433 403.18 21.5283 403.125 21.1683 403.015C20.8083 402.915 20.4883 402.78 20.2083 402.61C19.9383 402.43 19.6983 402.23 19.4883 402.01C19.2883 401.78 19.1083 401.545 18.9483 401.305L20.1783 400.33C20.3083 400.54 20.4433 400.73 20.5833 400.9C20.7233 401.07 20.8833 401.22 21.0633 401.35C21.2433 401.48 21.4433 401.58 21.6633 401.65C21.8933 401.72 22.1533 401.755 22.4433 401.755C23.0633 401.755 23.5383 401.585 23.8683 401.245C24.2083 400.905 24.3783 400.435 24.3783 399.835V399.655C24.3783 399.055 24.2083 398.585 23.8683 398.245C23.5383 397.905 23.0633 397.735 22.4433 397.735C21.9933 397.735 21.6333 397.82 21.3633 397.99C21.0933 398.16 20.8633 398.35 20.6733 398.56L19.2783 398.365L19.6683 392.53H25.6083V394ZM29.1574 400.915C29.5274 400.915 29.8024 401.01 29.9824 401.2C30.1624 401.39 30.2524 401.635 30.2524 401.935V402.175C30.2524 402.665 30.1174 403.175 29.8474 403.705C29.5874 404.245 29.2324 404.7 28.7824 405.07H27.5674C27.8874 404.75 28.1524 404.44 28.3624 404.14C28.5724 403.84 28.7324 403.505 28.8424 403.135C28.5824 403.085 28.3874 402.975 28.2574 402.805C28.1274 402.625 28.0624 402.415 28.0624 402.175V401.935C28.0624 401.635 28.1524 401.39 28.3324 401.2C28.5124 401.01 28.7874 400.915 29.1574 400.915ZM36.718 403V400.96H31.858V399.505L36.103 392.53H38.323V399.625H39.748V400.96H38.323V403H36.718ZM33.298 399.625H36.718V394.075H36.613L33.298 399.625ZM44.8571 403.18C44.2771 403.18 43.7571 403.085 43.2971 402.895C42.8471 402.705 42.4621 402.435 42.1421 402.085C41.8321 401.725 41.5921 401.295 41.4221 400.795C41.2521 400.295 41.1671 399.73 41.1671 399.1C41.1671 398.34 41.2821 397.625 41.5121 396.955C41.7421 396.285 42.0371 395.67 42.3971 395.11C42.7571 394.55 43.1571 394.055 43.5971 393.625C44.0471 393.185 44.4871 392.82 44.9171 392.53H47.1671C46.5771 392.96 46.0471 393.375 45.5771 393.775C45.1071 394.175 44.6971 394.585 44.3471 395.005C43.9971 395.425 43.7021 395.87 43.4621 396.34C43.2321 396.81 43.0521 397.325 42.9221 397.885L43.0271 397.915C43.1371 397.705 43.2621 397.51 43.4021 397.33C43.5521 397.14 43.7221 396.975 43.9121 396.835C44.1121 396.695 44.3371 396.585 44.5871 396.505C44.8371 396.425 45.1271 396.385 45.4571 396.385C45.8971 396.385 46.3021 396.46 46.6721 396.61C47.0521 396.76 47.3771 396.98 47.6471 397.27C47.9271 397.55 48.1421 397.89 48.2921 398.29C48.4521 398.69 48.5321 399.135 48.5321 399.625C48.5321 400.155 48.4421 400.64 48.2621 401.08C48.0921 401.51 47.8471 401.88 47.5271 402.19C47.2071 402.5 46.8171 402.745 46.3571 402.925C45.9071 403.095 45.4071 403.18 44.8571 403.18ZM44.8571 401.8C45.4671 401.8 45.9421 401.64 46.2821 401.32C46.6221 400.99 46.7921 400.51 46.7921 399.88V399.67C46.7921 399.04 46.6221 398.565 46.2821 398.245C45.9421 397.915 45.4671 397.75 44.8571 397.75C44.2471 397.75 43.7721 397.915 43.4321 398.245C43.0921 398.565 42.9221 399.04 42.9221 399.67V399.88C42.9221 400.51 43.0921 400.99 43.4321 401.32C43.7721 401.64 44.2471 401.8 44.8571 401.8ZM52.6513 403C52.0813 403 51.6513 402.855 51.3613 402.565C51.0713 402.265 50.9263 401.845 50.9263 401.305V396.535H49.7113V395.2H50.3713C50.6413 395.2 50.8263 395.14 50.9263 395.02C51.0363 394.9 51.0913 394.705 51.0913 394.435V393.07H52.5613V395.2H54.1963V396.535H52.5613V401.665H54.0763V403H52.6513Z" fill="#8D75F3"/>
<path d="M458.32 402V400.59H461.26V392.76H461.14L458.71 395.355L457.675 394.425L460.345 391.53H462.925V400.59H465.475V402H458.32ZM473.614 393H468.964L468.694 396.705H468.799C468.919 396.495 469.044 396.31 469.174 396.15C469.304 395.98 469.454 395.835 469.624 395.715C469.794 395.595 469.989 395.505 470.209 395.445C470.429 395.375 470.689 395.34 470.989 395.34C471.439 395.34 471.854 395.415 472.234 395.565C472.624 395.715 472.959 395.93 473.239 396.21C473.529 396.49 473.754 396.835 473.914 397.245C474.074 397.645 474.154 398.1 474.154 398.61C474.154 399.13 474.069 399.61 473.899 400.05C473.739 400.49 473.499 400.87 473.179 401.19C472.859 401.5 472.464 401.745 471.994 401.925C471.534 402.095 471.009 402.18 470.419 402.18C469.949 402.18 469.534 402.125 469.174 402.015C468.814 401.915 468.494 401.78 468.214 401.61C467.944 401.43 467.704 401.23 467.494 401.01C467.294 400.78 467.114 400.545 466.954 400.305L468.184 399.33C468.314 399.54 468.449 399.73 468.589 399.9C468.729 400.07 468.889 400.22 469.069 400.35C469.249 400.48 469.449 400.58 469.669 400.65C469.899 400.72 470.159 400.755 470.449 400.755C471.069 400.755 471.544 400.585 471.874 400.245C472.214 399.905 472.384 399.435 472.384 398.835V398.655C472.384 398.055 472.214 397.585 471.874 397.245C471.544 396.905 471.069 396.735 470.449 396.735C469.999 396.735 469.639 396.82 469.369 396.99C469.099 397.16 468.869 397.35 468.679 397.56L467.284 397.365L467.674 391.53H473.614V393ZM479.518 402.18C478.938 402.18 478.418 402.085 477.958 401.895C477.508 401.705 477.123 401.435 476.803 401.085C476.493 400.725 476.253 400.295 476.083 399.795C475.913 399.295 475.828 398.73 475.828 398.1C475.828 397.34 475.943 396.625 476.173 395.955C476.403 395.285 476.698 394.67 477.058 394.11C477.418 393.55 477.818 393.055 478.258 392.625C478.708 392.185 479.148 391.82 479.578 391.53H481.828C481.238 391.96 480.708 392.375 480.238 392.775C479.768 393.175 479.358 393.585 479.008 394.005C478.658 394.425 478.363 394.87 478.123 395.34C477.893 395.81 477.713 396.325 477.583 396.885L477.688 396.915C477.798 396.705 477.923 396.51 478.063 396.33C478.213 396.14 478.383 395.975 478.573 395.835C478.773 395.695 478.998 395.585 479.248 395.505C479.498 395.425 479.788 395.385 480.118 395.385C480.558 395.385 480.963 395.46 481.333 395.61C481.713 395.76 482.038 395.98 482.308 396.27C482.588 396.55 482.803 396.89 482.953 397.29C483.113 397.69 483.193 398.135 483.193 398.625C483.193 399.155 483.103 399.64 482.923 400.08C482.753 400.51 482.508 400.88 482.188 401.19C481.868 401.5 481.478 401.745 481.018 401.925C480.568 402.095 480.068 402.18 479.518 402.18ZM479.518 400.8C480.128 400.8 480.603 400.64 480.943 400.32C481.283 399.99 481.453 399.51 481.453 398.88V398.67C481.453 398.04 481.283 397.565 480.943 397.245C480.603 396.915 480.128 396.75 479.518 396.75C478.908 396.75 478.433 396.915 478.093 397.245C477.753 397.565 477.583 398.04 477.583 398.67V398.88C477.583 399.51 477.753 399.99 478.093 400.32C478.433 400.64 478.908 400.8 479.518 400.8ZM486.157 399.915C486.527 399.915 486.802 400.01 486.982 400.2C487.162 400.39 487.252 400.635 487.252 400.935V401.175C487.252 401.665 487.117 402.175 486.847 402.705C486.587 403.245 486.232 403.7 485.782 404.07H484.567C484.887 403.75 485.152 403.44 485.362 403.14C485.572 402.84 485.732 402.505 485.842 402.135C485.582 402.085 485.387 401.975 485.257 401.805C485.127 401.625 485.062 401.415 485.062 401.175V400.935C485.062 400.635 485.152 400.39 485.332 400.2C485.512 400.01 485.787 399.915 486.157 399.915ZM492.863 402.18C492.283 402.18 491.763 402.085 491.303 401.895C490.853 401.705 490.468 401.435 490.148 401.085C489.838 400.725 489.598 400.295 489.428 399.795C489.258 399.295 489.173 398.73 489.173 398.1C489.173 397.34 489.288 396.625 489.518 395.955C489.748 395.285 490.043 394.67 490.403 394.11C490.763 393.55 491.163 393.055 491.603 392.625C492.053 392.185 492.493 391.82 492.923 391.53H495.173C494.583 391.96 494.053 392.375 493.583 392.775C493.113 393.175 492.703 393.585 492.353 394.005C492.003 394.425 491.708 394.87 491.468 395.34C491.238 395.81 491.058 396.325 490.928 396.885L491.033 396.915C491.143 396.705 491.268 396.51 491.408 396.33C491.558 396.14 491.728 395.975 491.918 395.835C492.118 395.695 492.343 395.585 492.593 395.505C492.843 395.425 493.133 395.385 493.463 395.385C493.903 395.385 494.308 395.46 494.678 395.61C495.058 395.76 495.383 395.98 495.653 396.27C495.933 396.55 496.148 396.89 496.298 397.29C496.458 397.69 496.538 398.135 496.538 398.625C496.538 399.155 496.448 399.64 496.268 400.08C496.098 400.51 495.853 400.88 495.533 401.19C495.213 401.5 494.823 401.745 494.363 401.925C493.913 402.095 493.413 402.18 492.863 402.18ZM492.863 400.8C493.473 400.8 493.948 400.64 494.288 400.32C494.628 399.99 494.798 399.51 494.798 398.88V398.67C494.798 398.04 494.628 397.565 494.288 397.245C493.948 396.915 493.473 396.75 492.863 396.75C492.253 396.75 491.778 396.915 491.438 397.245C491.098 397.565 490.928 398.04 490.928 398.67V398.88C490.928 399.51 491.098 399.99 491.438 400.32C491.778 400.64 492.253 400.8 492.863 400.8ZM498.647 402V400.59H501.587V392.76H501.467L499.037 395.355L498.002 394.425L500.672 391.53H503.252V400.59H505.802V402H498.647ZM509.651 402C509.081 402 508.651 401.855 508.361 401.565C508.071 401.265 507.926 400.845 507.926 400.305V395.535H506.711V394.2H507.371C507.641 394.2 507.826 394.14 507.926 394.02C508.036 393.9 508.091 393.705 508.091 393.435V392.07H509.561V394.2H511.196V395.535H509.561V400.665H511.076V402H509.651Z" fill="#8D75F3"/>
<path d="M30.62 439H25.97L25.7 442.705H25.805C25.925 442.495 26.05 442.31 26.18 442.15C26.31 441.98 26.46 441.835 26.63 441.715C26.8 441.595 26.995 441.505 27.215 441.445C27.435 441.375 27.695 441.34 27.995 441.34C28.445 441.34 28.86 441.415 29.24 441.565C29.63 441.715 29.965 441.93 30.245 442.21C30.535 442.49 30.76 442.835 30.92 443.245C31.08 443.645 31.16 444.1 31.16 444.61C31.16 445.13 31.075 445.61 30.905 446.05C30.745 446.49 30.505 446.87 30.185 447.19C29.865 447.5 29.47 447.745 29 447.925C28.54 448.095 28.015 448.18 27.425 448.18C26.955 448.18 26.54 448.125 26.18 448.015C25.82 447.915 25.5 447.78 25.22 447.61C24.95 447.43 24.71 447.23 24.5 447.01C24.3 446.78 24.12 446.545 23.96 446.305L25.19 445.33C25.32 445.54 25.455 445.73 25.595 445.9C25.735 446.07 25.895 446.22 26.075 446.35C26.255 446.48 26.455 446.58 26.675 446.65C26.905 446.72 27.165 446.755 27.455 446.755C28.075 446.755 28.55 446.585 28.88 446.245C29.22 445.905 29.39 445.435 29.39 444.835V444.655C29.39 444.055 29.22 443.585 28.88 443.245C28.55 442.905 28.075 442.735 27.455 442.735C27.005 442.735 26.645 442.82 26.375 442.99C26.105 443.16 25.875 443.35 25.685 443.56L24.29 443.365L24.68 437.53H30.62V439ZM36.4941 448.18C35.8841 448.18 35.3441 448.105 34.8741 447.955C34.4141 447.795 34.0241 447.58 33.7041 447.31C33.3941 447.04 33.1541 446.72 32.9841 446.35C32.8241 445.98 32.7441 445.58 32.7441 445.15C32.7441 444.45 32.9341 443.89 33.3141 443.47C33.7041 443.04 34.2141 442.74 34.8441 442.57V442.45C34.3041 442.26 33.8691 441.96 33.5391 441.55C33.2191 441.14 33.0591 440.635 33.0591 440.035C33.0591 439.635 33.1341 439.27 33.2841 438.94C33.4441 438.61 33.6691 438.33 33.9591 438.1C34.2491 437.86 34.6091 437.675 35.0391 437.545C35.4691 437.415 35.9541 437.35 36.4941 437.35C37.0341 437.35 37.5191 437.415 37.9491 437.545C38.3791 437.675 38.7391 437.86 39.0291 438.1C39.3191 438.33 39.5391 438.61 39.6891 438.94C39.8491 439.27 39.9291 439.635 39.9291 440.035C39.9291 440.635 39.7641 441.14 39.4341 441.55C39.1141 441.96 38.6841 442.26 38.1441 442.45V442.57C38.7741 442.74 39.2791 443.04 39.6591 443.47C40.0491 443.89 40.2441 444.45 40.2441 445.15C40.2441 445.58 40.1591 445.98 39.9891 446.35C39.8291 446.72 39.5891 447.04 39.2691 447.31C38.9591 447.58 38.5691 447.795 38.0991 447.955C37.6391 448.105 37.1041 448.18 36.4941 448.18ZM36.4941 446.815C37.1241 446.815 37.6091 446.67 37.9491 446.38C38.2991 446.09 38.4741 445.685 38.4741 445.165V444.865C38.4741 444.345 38.2991 443.94 37.9491 443.65C37.6091 443.36 37.1241 443.215 36.4941 443.215C35.8641 443.215 35.3741 443.36 35.0241 443.65C34.6841 443.94 34.5141 444.345 34.5141 444.865V445.165C34.5141 445.685 34.6841 446.09 35.0241 446.38C35.3741 446.67 35.8641 446.815 36.4941 446.815ZM36.4941 441.91C37.0741 441.91 37.5141 441.785 37.8141 441.535C38.1241 441.285 38.2791 440.92 38.2791 440.44V440.185C38.2791 439.705 38.1241 439.34 37.8141 439.09C37.5141 438.84 37.0741 438.715 36.4941 438.715C35.9141 438.715 35.4691 438.84 35.1591 439.09C34.8591 439.34 34.7091 439.705 34.7091 440.185V440.44C34.7091 440.92 34.8591 441.285 35.1591 441.535C35.4691 441.785 35.9141 441.91 36.4941 441.91ZM43.1633 445.915C43.5333 445.915 43.8083 446.01 43.9883 446.2C44.1683 446.39 44.2583 446.635 44.2583 446.935V447.175C44.2583 447.665 44.1233 448.175 43.8533 448.705C43.5933 449.245 43.2383 449.7 42.7883 450.07H41.5733C41.8933 449.75 42.1583 449.44 42.3683 449.14C42.5783 448.84 42.7383 448.505 42.8483 448.135C42.5883 448.085 42.3933 447.975 42.2633 447.805C42.1333 447.625 42.0683 447.415 42.0683 447.175V446.935C42.0683 446.635 42.1583 446.39 42.3383 446.2C42.5183 446.01 42.7933 445.915 43.1633 445.915ZM49.2689 441.835C49.9189 441.835 50.3989 441.7 50.7089 441.43C51.0189 441.15 51.1739 440.795 51.1739 440.365V440.26C51.1739 439.78 51.0239 439.415 50.7239 439.165C50.4239 438.905 50.0189 438.775 49.5089 438.775C49.0089 438.775 48.5839 438.89 48.2339 439.12C47.8839 439.34 47.5889 439.65 47.3489 440.05L46.2239 439.075C46.3839 438.845 46.5639 438.625 46.7639 438.415C46.9639 438.205 47.1989 438.025 47.4689 437.875C47.7389 437.715 48.0439 437.59 48.3839 437.5C48.7239 437.4 49.1139 437.35 49.5539 437.35C50.0439 437.35 50.4989 437.41 50.9189 437.53C51.3389 437.65 51.6989 437.83 51.9989 438.07C52.2989 438.3 52.5339 438.585 52.7039 438.925C52.8739 439.255 52.9589 439.63 52.9589 440.05C52.9589 440.38 52.9039 440.68 52.7939 440.95C52.6939 441.22 52.5489 441.46 52.3589 441.67C52.1789 441.87 51.9639 442.035 51.7139 442.165C51.4739 442.295 51.2189 442.39 50.9489 442.45V442.525C51.2489 442.585 51.5289 442.685 51.7889 442.825C52.0589 442.955 52.2939 443.13 52.4939 443.35C52.6939 443.56 52.8489 443.815 52.9589 444.115C53.0789 444.405 53.1389 444.74 53.1389 445.12C53.1389 445.58 53.0489 446 52.8689 446.38C52.6889 446.75 52.4339 447.07 52.1039 447.34C51.7839 447.61 51.3939 447.82 50.9339 447.97C50.4739 448.11 49.9639 448.18 49.4039 448.18C48.9139 448.18 48.4839 448.125 48.1139 448.015C47.7439 447.915 47.4139 447.78 47.1239 447.61C46.8439 447.43 46.5939 447.23 46.3739 447.01C46.1639 446.78 45.9789 446.545 45.8189 446.305L47.0639 445.33C47.1939 445.54 47.3289 445.735 47.4689 445.915C47.6189 446.085 47.7839 446.235 47.9639 446.365C48.1539 446.485 48.3639 446.58 48.5939 446.65C48.8339 446.72 49.1039 446.755 49.4039 446.755C50.0439 446.755 50.5339 446.605 50.8739 446.305C51.2139 445.995 51.3839 445.57 51.3839 445.03V444.925C51.3839 444.385 51.2039 443.975 50.8439 443.695C50.4839 443.415 49.9739 443.275 49.3139 443.275H48.2039V441.835H49.2689ZM61.953 439H57.303L57.033 442.705H57.138C57.258 442.495 57.383 442.31 57.513 442.15C57.643 441.98 57.793 441.835 57.963 441.715C58.133 441.595 58.328 441.505 58.548 441.445C58.768 441.375 59.028 441.34 59.328 441.34C59.778 441.34 60.193 441.415 60.573 441.565C60.963 441.715 61.298 441.93 61.578 442.21C61.868 442.49 62.093 442.835 62.253 443.245C62.413 443.645 62.493 444.1 62.493 444.61C62.493 445.13 62.408 445.61 62.238 446.05C62.078 446.49 61.838 446.87 61.518 447.19C61.198 447.5 60.803 447.745 60.333 447.925C59.873 448.095 59.348 448.18 58.758 448.18C58.288 448.18 57.873 448.125 57.513 448.015C57.153 447.915 56.833 447.78 56.553 447.61C56.283 447.43 56.043 447.23 55.833 447.01C55.633 446.78 55.453 446.545 55.293 446.305L56.523 445.33C56.653 445.54 56.788 445.73 56.928 445.9C57.068 446.07 57.228 446.22 57.408 446.35C57.588 446.48 57.788 446.58 58.008 446.65C58.238 446.72 58.498 446.755 58.788 446.755C59.408 446.755 59.883 446.585 60.213 446.245C60.553 445.905 60.723 445.435 60.723 444.835V444.655C60.723 444.055 60.553 443.585 60.213 443.245C59.883 442.905 59.408 442.735 58.788 442.735C58.338 442.735 57.978 442.82 57.708 442.99C57.438 443.16 57.208 443.35 57.018 443.56L55.623 443.365L56.013 437.53H61.953V439ZM66.6571 448C66.0871 448 65.6571 447.855 65.3671 447.565C65.0771 447.265 64.9321 446.845 64.9321 446.305V441.535H63.7171V440.2H64.3771C64.6471 440.2 64.8321 440.14 64.9321 440.02C65.0421 439.9 65.0971 439.705 65.0971 439.435V438.07H66.5671V440.2H68.2021V441.535H66.5671V446.665H68.0821V448H66.6571Z" fill="#6CBAFA"/>
<path d="M118.115 475H111.005V473.38L114.35 470.395C114.88 469.915 115.285 469.46 115.565 469.03C115.855 468.59 116 468.13 116 467.65V467.455C116 466.945 115.845 466.545 115.535 466.255C115.235 465.965 114.825 465.82 114.305 465.82C114.015 465.82 113.76 465.865 113.54 465.955C113.33 466.035 113.145 466.15 112.985 466.3C112.825 466.45 112.69 466.625 112.58 466.825C112.48 467.025 112.4 467.24 112.34 467.47L110.855 466.9C110.965 466.57 111.115 466.255 111.305 465.955C111.495 465.645 111.735 465.37 112.025 465.13C112.315 464.89 112.655 464.7 113.045 464.56C113.445 464.42 113.91 464.35 114.44 464.35C114.97 464.35 115.445 464.43 115.865 464.59C116.285 464.74 116.635 464.955 116.915 465.235C117.205 465.505 117.425 465.83 117.575 466.21C117.725 466.59 117.8 467.005 117.8 467.455C117.8 467.875 117.735 468.265 117.605 468.625C117.475 468.985 117.295 469.325 117.065 469.645C116.835 469.965 116.565 470.27 116.255 470.56C115.955 470.85 115.635 471.145 115.295 471.445L112.835 473.56H118.115V475ZM123.524 475.18C122.944 475.18 122.424 475.085 121.964 474.895C121.514 474.705 121.129 474.435 120.809 474.085C120.499 473.725 120.259 473.295 120.089 472.795C119.919 472.295 119.834 471.73 119.834 471.1C119.834 470.34 119.949 469.625 120.179 468.955C120.409 468.285 120.704 467.67 121.064 467.11C121.424 466.55 121.824 466.055 122.264 465.625C122.714 465.185 123.154 464.82 123.584 464.53H125.834C125.244 464.96 124.714 465.375 124.244 465.775C123.774 466.175 123.364 466.585 123.014 467.005C122.664 467.425 122.369 467.87 122.129 468.34C121.899 468.81 121.719 469.325 121.589 469.885L121.694 469.915C121.804 469.705 121.929 469.51 122.069 469.33C122.219 469.14 122.389 468.975 122.579 468.835C122.779 468.695 123.004 468.585 123.254 468.505C123.504 468.425 123.794 468.385 124.124 468.385C124.564 468.385 124.969 468.46 125.339 468.61C125.719 468.76 126.044 468.98 126.314 469.27C126.594 469.55 126.809 469.89 126.959 470.29C127.119 470.69 127.199 471.135 127.199 471.625C127.199 472.155 127.109 472.64 126.929 473.08C126.759 473.51 126.514 473.88 126.194 474.19C125.874 474.5 125.484 474.745 125.024 474.925C124.574 475.095 124.074 475.18 123.524 475.18ZM123.524 473.8C124.134 473.8 124.609 473.64 124.949 473.32C125.289 472.99 125.459 472.51 125.459 471.88V471.67C125.459 471.04 125.289 470.565 124.949 470.245C124.609 469.915 124.134 469.75 123.524 469.75C122.914 469.75 122.439 469.915 122.099 470.245C121.759 470.565 121.589 471.04 121.589 471.67V471.88C121.589 472.51 121.759 472.99 122.099 473.32C122.439 473.64 122.914 473.8 123.524 473.8ZM130.163 472.915C130.533 472.915 130.808 473.01 130.988 473.2C131.168 473.39 131.258 473.635 131.258 473.935V474.175C131.258 474.665 131.123 475.175 130.853 475.705C130.593 476.245 130.238 476.7 129.788 477.07H128.573C128.893 476.75 129.158 476.44 129.368 476.14C129.578 475.84 129.738 475.505 129.848 475.135C129.588 475.085 129.393 474.975 129.263 474.805C129.133 474.625 129.068 474.415 129.068 474.175V473.935C129.068 473.635 129.158 473.39 129.338 473.2C129.518 473.01 129.793 472.915 130.163 472.915ZM136.839 475.18C136.189 475.18 135.624 475.06 135.144 474.82C134.664 474.57 134.269 474.215 133.959 473.755C133.649 473.295 133.419 472.73 133.269 472.06C133.119 471.39 133.044 470.625 133.044 469.765C133.044 468.915 133.119 468.155 133.269 467.485C133.419 466.805 133.649 466.235 133.959 465.775C134.269 465.315 134.664 464.965 135.144 464.725C135.624 464.475 136.189 464.35 136.839 464.35C138.139 464.35 139.094 464.825 139.704 465.775C140.324 466.725 140.634 468.055 140.634 469.765C140.634 471.475 140.324 472.805 139.704 473.755C139.094 474.705 138.139 475.18 136.839 475.18ZM136.839 473.74C137.199 473.74 137.504 473.67 137.754 473.53C138.014 473.38 138.224 473.17 138.384 472.9C138.544 472.63 138.659 472.31 138.729 471.94C138.799 471.56 138.834 471.14 138.834 470.68V468.85C138.834 468.39 138.799 467.975 138.729 467.605C138.659 467.225 138.544 466.9 138.384 466.63C138.224 466.36 138.014 466.155 137.754 466.015C137.504 465.865 137.199 465.79 136.839 465.79C136.479 465.79 136.169 465.865 135.909 466.015C135.659 466.155 135.454 466.36 135.294 466.63C135.134 466.9 135.019 467.225 134.949 467.605C134.879 467.975 134.844 468.39 134.844 468.85V470.68C134.844 471.14 134.879 471.56 134.949 471.94C135.019 472.31 135.134 472.63 135.294 472.9C135.454 473.17 135.659 473.38 135.909 473.53C136.169 473.67 136.479 473.74 136.839 473.74ZM148.953 466H144.303L144.033 469.705H144.138C144.258 469.495 144.383 469.31 144.513 469.15C144.643 468.98 144.793 468.835 144.963 468.715C145.133 468.595 145.328 468.505 145.548 468.445C145.768 468.375 146.028 468.34 146.328 468.34C146.778 468.34 147.193 468.415 147.573 468.565C147.963 468.715 148.298 468.93 148.578 469.21C148.868 469.49 149.093 469.835 149.253 470.245C149.413 470.645 149.493 471.1 149.493 471.61C149.493 472.13 149.408 472.61 149.238 473.05C149.078 473.49 148.838 473.87 148.518 474.19C148.198 474.5 147.803 474.745 147.333 474.925C146.873 475.095 146.348 475.18 145.758 475.18C145.288 475.18 144.873 475.125 144.513 475.015C144.153 474.915 143.833 474.78 143.553 474.61C143.283 474.43 143.043 474.23 142.833 474.01C142.633 473.78 142.453 473.545 142.293 473.305L143.523 472.33C143.653 472.54 143.788 472.73 143.928 472.9C144.068 473.07 144.228 473.22 144.408 473.35C144.588 473.48 144.788 473.58 145.008 473.65C145.238 473.72 145.498 473.755 145.788 473.755C146.408 473.755 146.883 473.585 147.213 473.245C147.553 472.905 147.723 472.435 147.723 471.835V471.655C147.723 471.055 147.553 470.585 147.213 470.245C146.883 469.905 146.408 469.735 145.788 469.735C145.338 469.735 144.978 469.82 144.708 469.99C144.438 470.16 144.208 470.35 144.018 470.56L142.623 470.365L143.013 464.53H148.953V466ZM153.657 475C153.087 475 152.657 474.855 152.367 474.565C152.077 474.265 151.932 473.845 151.932 473.305V468.535H150.717V467.2H151.377C151.647 467.2 151.832 467.14 151.932 467.02C152.042 466.9 152.097 466.705 152.097 466.435V465.07H153.567V467.2H155.202V468.535H153.567V473.665H155.082V475H153.657Z" fill="#FBC800"/>
<path d="M357.93 468.835C358.58 468.835 359.06 468.7 359.37 468.43C359.68 468.15 359.835 467.795 359.835 467.365V467.26C359.835 466.78 359.685 466.415 359.385 466.165C359.085 465.905 358.68 465.775 358.17 465.775C357.67 465.775 357.245 465.89 356.895 466.12C356.545 466.34 356.25 466.65 356.01 467.05L354.885 466.075C355.045 465.845 355.225 465.625 355.425 465.415C355.625 465.205 355.86 465.025 356.13 464.875C356.4 464.715 356.705 464.59 357.045 464.5C357.385 464.4 357.775 464.35 358.215 464.35C358.705 464.35 359.16 464.41 359.58 464.53C360 464.65 360.36 464.83 360.66 465.07C360.96 465.3 361.195 465.585 361.365 465.925C361.535 466.255 361.62 466.63 361.62 467.05C361.62 467.38 361.565 467.68 361.455 467.95C361.355 468.22 361.21 468.46 361.02 468.67C360.84 468.87 360.625 469.035 360.375 469.165C360.135 469.295 359.88 469.39 359.61 469.45V469.525C359.91 469.585 360.19 469.685 360.45 469.825C360.72 469.955 360.955 470.13 361.155 470.35C361.355 470.56 361.51 470.815 361.62 471.115C361.74 471.405 361.8 471.74 361.8 472.12C361.8 472.58 361.71 473 361.53 473.38C361.35 473.75 361.095 474.07 360.765 474.34C360.445 474.61 360.055 474.82 359.595 474.97C359.135 475.11 358.625 475.18 358.065 475.18C357.575 475.18 357.145 475.125 356.775 475.015C356.405 474.915 356.075 474.78 355.785 474.61C355.505 474.43 355.255 474.23 355.035 474.01C354.825 473.78 354.64 473.545 354.48 473.305L355.725 472.33C355.855 472.54 355.99 472.735 356.13 472.915C356.28 473.085 356.445 473.235 356.625 473.365C356.815 473.485 357.025 473.58 357.255 473.65C357.495 473.72 357.765 473.755 358.065 473.755C358.705 473.755 359.195 473.605 359.535 473.305C359.875 472.995 360.045 472.57 360.045 472.03V471.925C360.045 471.385 359.865 470.975 359.505 470.695C359.145 470.415 358.635 470.275 357.975 470.275H356.865V468.835H357.93ZM366.924 468.835C367.574 468.835 368.054 468.7 368.364 468.43C368.674 468.15 368.829 467.795 368.829 467.365V467.26C368.829 466.78 368.679 466.415 368.379 466.165C368.079 465.905 367.674 465.775 367.164 465.775C366.664 465.775 366.239 465.89 365.889 466.12C365.539 466.34 365.244 466.65 365.004 467.05L363.879 466.075C364.039 465.845 364.219 465.625 364.419 465.415C364.619 465.205 364.854 465.025 365.124 464.875C365.394 464.715 365.699 464.59 366.039 464.5C366.379 464.4 366.769 464.35 367.209 464.35C367.699 464.35 368.154 464.41 368.574 464.53C368.994 464.65 369.354 464.83 369.654 465.07C369.954 465.3 370.189 465.585 370.359 465.925C370.529 466.255 370.614 466.63 370.614 467.05C370.614 467.38 370.559 467.68 370.449 467.95C370.349 468.22 370.204 468.46 370.014 468.67C369.834 468.87 369.619 469.035 369.369 469.165C369.129 469.295 368.874 469.39 368.604 469.45V469.525C368.904 469.585 369.184 469.685 369.444 469.825C369.714 469.955 369.949 470.13 370.149 470.35C370.349 470.56 370.504 470.815 370.614 471.115C370.734 471.405 370.794 471.74 370.794 472.12C370.794 472.58 370.704 473 370.524 473.38C370.344 473.75 370.089 474.07 369.759 474.34C369.439 474.61 369.049 474.82 368.589 474.97C368.129 475.11 367.619 475.18 367.059 475.18C366.569 475.18 366.139 475.125 365.769 475.015C365.399 474.915 365.069 474.78 364.779 474.61C364.499 474.43 364.249 474.23 364.029 474.01C363.819 473.78 363.634 473.545 363.474 473.305L364.719 472.33C364.849 472.54 364.984 472.735 365.124 472.915C365.274 473.085 365.439 473.235 365.619 473.365C365.809 473.485 366.019 473.58 366.249 473.65C366.489 473.72 366.759 473.755 367.059 473.755C367.699 473.755 368.189 473.605 368.529 473.305C368.869 472.995 369.039 472.57 369.039 472.03V471.925C369.039 471.385 368.859 470.975 368.499 470.695C368.139 470.415 367.629 470.275 366.969 470.275H365.859V468.835H366.924ZM374.163 472.915C374.533 472.915 374.808 473.01 374.988 473.2C375.168 473.39 375.258 473.635 375.258 473.935V474.175C375.258 474.665 375.123 475.175 374.853 475.705C374.593 476.245 374.238 476.7 373.788 477.07H372.573C372.893 476.75 373.158 476.44 373.368 476.14C373.578 475.84 373.738 475.505 373.848 475.135C373.588 475.085 373.393 474.975 373.263 474.805C373.133 474.625 373.068 474.415 373.068 474.175V473.935C373.068 473.635 373.158 473.39 373.338 473.2C373.518 473.01 373.793 472.915 374.163 472.915ZM383.959 466H379.309L379.039 469.705H379.144C379.264 469.495 379.389 469.31 379.519 469.15C379.649 468.98 379.799 468.835 379.969 468.715C380.139 468.595 380.334 468.505 380.554 468.445C380.774 468.375 381.034 468.34 381.334 468.34C381.784 468.34 382.199 468.415 382.579 468.565C382.969 468.715 383.304 468.93 383.584 469.21C383.874 469.49 384.099 469.835 384.259 470.245C384.419 470.645 384.499 471.1 384.499 471.61C384.499 472.13 384.414 472.61 384.244 473.05C384.084 473.49 383.844 473.87 383.524 474.19C383.204 474.5 382.809 474.745 382.339 474.925C381.879 475.095 381.354 475.18 380.764 475.18C380.294 475.18 379.879 475.125 379.519 475.015C379.159 474.915 378.839 474.78 378.559 474.61C378.289 474.43 378.049 474.23 377.839 474.01C377.639 473.78 377.459 473.545 377.299 473.305L378.529 472.33C378.659 472.54 378.794 472.73 378.934 472.9C379.074 473.07 379.234 473.22 379.414 473.35C379.594 473.48 379.794 473.58 380.014 473.65C380.244 473.72 380.504 473.755 380.794 473.755C381.414 473.755 381.889 473.585 382.219 473.245C382.559 472.905 382.729 472.435 382.729 471.835V471.655C382.729 471.055 382.559 470.585 382.219 470.245C381.889 469.905 381.414 469.735 380.794 469.735C380.344 469.735 379.984 469.82 379.714 469.99C379.444 470.16 379.214 470.35 379.024 470.56L377.629 470.365L378.019 464.53H383.959V466ZM389.863 475.18C389.283 475.18 388.763 475.085 388.303 474.895C387.853 474.705 387.468 474.435 387.148 474.085C386.838 473.725 386.598 473.295 386.428 472.795C386.258 472.295 386.173 471.73 386.173 471.1C386.173 470.34 386.288 469.625 386.518 468.955C386.748 468.285 387.043 467.67 387.403 467.11C387.763 466.55 388.163 466.055 388.603 465.625C389.053 465.185 389.493 464.82 389.923 464.53H392.173C391.583 464.96 391.053 465.375 390.583 465.775C390.113 466.175 389.703 466.585 389.353 467.005C389.003 467.425 388.708 467.87 388.468 468.34C388.238 468.81 388.058 469.325 387.928 469.885L388.033 469.915C388.143 469.705 388.268 469.51 388.408 469.33C388.558 469.14 388.728 468.975 388.918 468.835C389.118 468.695 389.343 468.585 389.593 468.505C389.843 468.425 390.133 468.385 390.463 468.385C390.903 468.385 391.308 468.46 391.678 468.61C392.058 468.76 392.383 468.98 392.653 469.27C392.933 469.55 393.148 469.89 393.298 470.29C393.458 470.69 393.538 471.135 393.538 471.625C393.538 472.155 393.448 472.64 393.268 473.08C393.098 473.51 392.853 473.88 392.533 474.19C392.213 474.5 391.823 474.745 391.363 474.925C390.913 475.095 390.413 475.18 389.863 475.18ZM389.863 473.8C390.473 473.8 390.948 473.64 391.288 473.32C391.628 472.99 391.798 472.51 391.798 471.88V471.67C391.798 471.04 391.628 470.565 391.288 470.245C390.948 469.915 390.473 469.75 389.863 469.75C389.253 469.75 388.778 469.915 388.438 470.245C388.098 470.565 387.928 471.04 387.928 471.67V471.88C387.928 472.51 388.098 472.99 388.438 473.32C388.778 473.64 389.253 473.8 389.863 473.8ZM397.657 475C397.087 475 396.657 474.855 396.367 474.565C396.077 474.265 395.932 473.845 395.932 473.305V468.535H394.717V467.2H395.377C395.647 467.2 395.832 467.14 395.932 467.02C396.042 466.9 396.097 466.705 396.097 466.435V465.07H397.567V467.2H399.202V468.535H397.567V473.665H399.082V475H397.657Z" fill="#FBC800"/>
<path d="M510.32 448V446.59H513.26V438.76H513.14L510.71 441.355L509.675 440.425L512.345 437.53H514.925V446.59H517.475V448H510.32ZM522.494 448.18C521.844 448.18 521.279 448.06 520.799 447.82C520.319 447.57 519.924 447.215 519.614 446.755C519.304 446.295 519.074 445.73 518.924 445.06C518.774 444.39 518.699 443.625 518.699 442.765C518.699 441.915 518.774 441.155 518.924 440.485C519.074 439.805 519.304 439.235 519.614 438.775C519.924 438.315 520.319 437.965 520.799 437.725C521.279 437.475 521.844 437.35 522.494 437.35C523.794 437.35 524.749 437.825 525.359 438.775C525.979 439.725 526.289 441.055 526.289 442.765C526.289 444.475 525.979 445.805 525.359 446.755C524.749 447.705 523.794 448.18 522.494 448.18ZM522.494 446.74C522.854 446.74 523.159 446.67 523.409 446.53C523.669 446.38 523.879 446.17 524.039 445.9C524.199 445.63 524.314 445.31 524.384 444.94C524.454 444.56 524.489 444.14 524.489 443.68V441.85C524.489 441.39 524.454 440.975 524.384 440.605C524.314 440.225 524.199 439.9 524.039 439.63C523.879 439.36 523.669 439.155 523.409 439.015C523.159 438.865 522.854 438.79 522.494 438.79C522.134 438.79 521.824 438.865 521.564 439.015C521.314 439.155 521.109 439.36 520.949 439.63C520.789 439.9 520.674 440.225 520.604 440.605C520.534 440.975 520.499 441.39 520.499 441.85V443.68C520.499 444.14 520.534 444.56 520.604 444.94C520.674 445.31 520.789 445.63 520.949 445.9C521.109 446.17 521.314 446.38 521.564 446.53C521.824 446.67 522.134 446.74 522.494 446.74ZM531.488 448.18C530.838 448.18 530.273 448.06 529.793 447.82C529.313 447.57 528.918 447.215 528.608 446.755C528.298 446.295 528.068 445.73 527.918 445.06C527.768 444.39 527.693 443.625 527.693 442.765C527.693 441.915 527.768 441.155 527.918 440.485C528.068 439.805 528.298 439.235 528.608 438.775C528.918 438.315 529.313 437.965 529.793 437.725C530.273 437.475 530.838 437.35 531.488 437.35C532.788 437.35 533.743 437.825 534.353 438.775C534.973 439.725 535.283 441.055 535.283 442.765C535.283 444.475 534.973 445.805 534.353 446.755C533.743 447.705 532.788 448.18 531.488 448.18ZM531.488 446.74C531.848 446.74 532.153 446.67 532.403 446.53C532.663 446.38 532.873 446.17 533.033 445.9C533.193 445.63 533.308 445.31 533.378 444.94C533.448 444.56 533.483 444.14 533.483 443.68V441.85C533.483 441.39 533.448 440.975 533.378 440.605C533.308 440.225 533.193 439.9 533.033 439.63C532.873 439.36 532.663 439.155 532.403 439.015C532.153 438.865 531.848 438.79 531.488 438.79C531.128 438.79 530.818 438.865 530.558 439.015C530.308 439.155 530.103 439.36 529.943 439.63C529.783 439.9 529.668 440.225 529.598 440.605C529.528 440.975 529.493 441.39 529.493 441.85V443.68C529.493 444.14 529.528 444.56 529.598 444.94C529.668 445.31 529.783 445.63 529.943 445.9C530.103 446.17 530.308 446.38 530.558 446.53C530.818 446.67 531.128 446.74 531.488 446.74ZM538.157 445.915C538.527 445.915 538.802 446.01 538.982 446.2C539.162 446.39 539.252 446.635 539.252 446.935V447.175C539.252 447.665 539.117 448.175 538.847 448.705C538.587 449.245 538.232 449.7 537.782 450.07H536.567C536.887 449.75 537.152 449.44 537.362 449.14C537.572 448.84 537.732 448.505 537.842 448.135C537.582 448.085 537.387 447.975 537.257 447.805C537.127 447.625 537.062 447.415 537.062 447.175V446.935C537.062 446.635 537.152 446.39 537.332 446.2C537.512 446.01 537.787 445.915 538.157 445.915ZM544.863 448.18C544.283 448.18 543.763 448.085 543.303 447.895C542.853 447.705 542.468 447.435 542.148 447.085C541.838 446.725 541.598 446.295 541.428 445.795C541.258 445.295 541.173 444.73 541.173 444.1C541.173 443.34 541.288 442.625 541.518 441.955C541.748 441.285 542.043 440.67 542.403 440.11C542.763 439.55 543.163 439.055 543.603 438.625C544.053 438.185 544.493 437.82 544.923 437.53H547.173C546.583 437.96 546.053 438.375 545.583 438.775C545.113 439.175 544.703 439.585 544.353 440.005C544.003 440.425 543.708 440.87 543.468 441.34C543.238 441.81 543.058 442.325 542.928 442.885L543.033 442.915C543.143 442.705 543.268 442.51 543.408 442.33C543.558 442.14 543.728 441.975 543.918 441.835C544.118 441.695 544.343 441.585 544.593 441.505C544.843 441.425 545.133 441.385 545.463 441.385C545.903 441.385 546.308 441.46 546.678 441.61C547.058 441.76 547.383 441.98 547.653 442.27C547.933 442.55 548.148 442.89 548.298 443.29C548.458 443.69 548.538 444.135 548.538 444.625C548.538 445.155 548.448 445.64 548.268 446.08C548.098 446.51 547.853 446.88 547.533 447.19C547.213 447.5 546.823 447.745 546.363 447.925C545.913 448.095 545.413 448.18 544.863 448.18ZM544.863 446.8C545.473 446.8 545.948 446.64 546.288 446.32C546.628 445.99 546.798 445.51 546.798 444.88V444.67C546.798 444.04 546.628 443.565 546.288 443.245C545.948 442.915 545.473 442.75 544.863 442.75C544.253 442.75 543.778 442.915 543.438 443.245C543.098 443.565 542.928 444.04 542.928 444.67V444.88C542.928 445.51 543.098 445.99 543.438 446.32C543.778 446.64 544.253 446.8 544.863 446.8ZM553.827 448.18C553.217 448.18 552.677 448.105 552.207 447.955C551.747 447.795 551.357 447.58 551.037 447.31C550.727 447.04 550.487 446.72 550.317 446.35C550.157 445.98 550.077 445.58 550.077 445.15C550.077 444.45 550.267 443.89 550.647 443.47C551.037 443.04 551.547 442.74 552.177 442.57V442.45C551.637 442.26 551.202 441.96 550.872 441.55C550.552 441.14 550.392 440.635 550.392 440.035C550.392 439.635 550.467 439.27 550.617 438.94C550.777 438.61 551.002 438.33 551.292 438.1C551.582 437.86 551.942 437.675 552.372 437.545C552.802 437.415 553.287 437.35 553.827 437.35C554.367 437.35 554.852 437.415 555.282 437.545C555.712 437.675 556.072 437.86 556.362 438.1C556.652 438.33 556.872 438.61 557.022 438.94C557.182 439.27 557.262 439.635 557.262 440.035C557.262 440.635 557.097 441.14 556.767 441.55C556.447 441.96 556.017 442.26 555.477 442.45V442.57C556.107 442.74 556.612 443.04 556.992 443.47C557.382 443.89 557.577 444.45 557.577 445.15C557.577 445.58 557.492 445.98 557.322 446.35C557.162 446.72 556.922 447.04 556.602 447.31C556.292 447.58 555.902 447.795 555.432 447.955C554.972 448.105 554.437 448.18 553.827 448.18ZM553.827 446.815C554.457 446.815 554.942 446.67 555.282 446.38C555.632 446.09 555.807 445.685 555.807 445.165V444.865C555.807 444.345 555.632 443.94 555.282 443.65C554.942 443.36 554.457 443.215 553.827 443.215C553.197 443.215 552.707 443.36 552.357 443.65C552.017 443.94 551.847 444.345 551.847 444.865V445.165C551.847 445.685 552.017 446.09 552.357 446.38C552.707 446.67 553.197 446.815 553.827 446.815ZM553.827 441.91C554.407 441.91 554.847 441.785 555.147 441.535C555.457 441.285 555.612 440.92 555.612 440.44V440.185C555.612 439.705 555.457 439.34 555.147 439.09C554.847 438.84 554.407 438.715 553.827 438.715C553.247 438.715 552.802 438.84 552.492 439.09C552.192 439.34 552.042 439.705 552.042 440.185V440.44C552.042 440.92 552.192 441.285 552.492 441.535C552.802 441.785 553.247 441.91 553.827 441.91ZM561.651 448C561.081 448 560.651 447.855 560.361 447.565C560.071 447.265 559.926 446.845 559.926 446.305V441.535H558.711V440.2H559.371C559.641 440.2 559.826 440.14 559.926 440.02C560.036 439.9 560.091 439.705 560.091 439.435V438.07H561.561V440.2H563.196V441.535H561.561V446.665H563.076V448H561.651Z" fill="#6CBAFA"/>
<circle cx="73" cy="200" r="10" transform="rotate(-90 73 200)" fill="#00C7A5"/>
<circle cx="217" cy="369" r="10" transform="rotate(90 217 369)" fill="#00C7A5"/>
<circle cx="217" cy="32" r="10" fill="#00C7A5"/>
<circle cx="193" cy="32" r="10" fill="#00C7A5"/>
<circle cx="169" cy="32" r="10" fill="#00C7A5"/>
<circle cx="145" cy="32" r="10" fill="#00C7A5"/>
<circle cx="121" cy="32" r="10" fill="#00C7A5"/>
<circle cx="217" cy="344" r="10" transform="rotate(90 217 344)" fill="#00C7A5"/>
<circle cx="193" cy="369" r="10" transform="rotate(90 193 369)" fill="#00C7A5"/>
<circle cx="217" cy="56" r="10" fill="#00C7A5"/>
<circle cx="193" cy="56" r="10" fill="#00C7A5"/>
<circle cx="169" cy="56" r="10" fill="#00C7A5"/>
<circle cx="145" cy="56" r="10" fill="#00C7A5"/>
<circle cx="121" cy="56" r="10" fill="#00C7A5"/>
<circle cx="97" cy="32" r="10" fill="#00C7A5"/>
<circle cx="97" cy="56" r="10" fill="#00C7A5"/>
<circle cx="193" cy="344" r="10" transform="rotate(90 193 344)" fill="#00C7A5"/>
<circle cx="169" cy="369" r="10" transform="rotate(90 169 369)" fill="#00C7A5"/>
<circle cx="217" cy="80" r="10" fill="#00C7A5"/>
<circle cx="193" cy="80" r="10" fill="#00C7A5"/>
<circle cx="169" cy="80" r="10" fill="#00C7A5"/>
<circle cx="145" cy="80" r="10" fill="#00C7A5"/>
<circle cx="121" cy="80" r="10" fill="#00C7A5"/>
<circle cx="169" cy="344" r="10" transform="rotate(90 169 344)" fill="#00C7A5"/>
<circle cx="145" cy="369" r="10" transform="rotate(90 145 369)" fill="#00C7A5"/>
<circle cx="217" cy="104" r="10" fill="#00C7A5"/>
<circle cx="193" cy="104" r="10" fill="#00C7A5"/>
<circle cx="169" cy="104" r="10" fill="#00C7A5"/>
<circle cx="145" cy="104" r="10" fill="#00C7A5"/>
<circle cx="121" cy="104" r="10" fill="#00C7A5"/>
<circle cx="97" cy="80" r="10" fill="#00C7A5"/>
<circle cx="97" cy="104" r="10" fill="#00C7A5"/>
<circle cx="193" cy="320" r="10" transform="rotate(90 193 320)" fill="#00C7A5"/>
<circle cx="73" cy="224" r="10" transform="rotate(-90 73 224)" fill="#00C7A5"/>
<circle cx="121" cy="369" r="10" transform="rotate(90 121 369)" fill="#00C7A5"/>
<circle cx="217" cy="128" r="10" fill="#00C7A5"/>
<circle cx="193" cy="128" r="10" fill="#00C7A5"/>
<circle cx="169" cy="128" r="10" fill="#00C7A5"/>
<circle cx="169" cy="320" r="10" transform="rotate(90 169 320)" fill="#00C7A5"/>
<circle cx="217" cy="320" r="10" transform="rotate(90 217 320)" fill="#00C7A5"/>
<circle cx="97" cy="369" r="10" transform="rotate(90 97 369)" fill="#00C7A5"/>
<circle cx="217" cy="152" r="10" fill="#00C7A5"/>
<circle cx="193" cy="152" r="10" fill="#00C7A5"/>
<circle cx="169" cy="152" r="10" fill="#00C7A5"/>
<circle cx="145" cy="128" r="10" fill="#00C7A5"/>
<circle cx="145" cy="152" r="10" fill="#00C7A5"/>
<circle cx="145" cy="320" r="10" transform="rotate(90 145 320)" fill="#00C7A5"/>
<circle cx="121" cy="128" r="10" fill="#00C7A5"/>
<circle cx="97" cy="128" r="10" fill="#00C7A5"/>
<circle cx="97" cy="320" r="10" transform="rotate(90 97 320)" fill="#00C7A5"/>
<circle cx="121" cy="320" r="10" transform="rotate(90 121 320)" fill="#00C7A5"/>
<circle cx="121" cy="152" r="10" fill="#00C7A5"/>
<circle cx="97" cy="152" r="10" fill="#00C7A5"/>
<circle cx="97" cy="345" r="10" transform="rotate(-180 97 345)" fill="#00C7A5"/>
<circle cx="73" cy="368" r="10" transform="rotate(-180 73 368)" fill="#00C7A5"/>
<circle cx="73" cy="344" r="10" transform="rotate(-180 73 344)" fill="#00C7A5"/>
<circle cx="73" cy="320" r="10" transform="rotate(-180 73 320)" fill="#00C7A5"/>
<circle cx="73" cy="272" r="10" transform="rotate(-180 73 272)" fill="#00C7A5"/>
<circle cx="73" cy="296" r="10" transform="rotate(-180 73 296)" fill="#00C7A5"/>
<circle cx="217" cy="224" r="10" fill="#00C7A5"/>
<circle cx="193" cy="224" r="10" fill="#00C7A5"/>
<circle cx="217" cy="248" r="10" fill="#00C7A5"/>
<circle cx="193" cy="248" r="10" fill="#00C7A5"/>
<circle cx="169" cy="224" r="10" fill="#00C7A5"/>
<circle cx="169" cy="248" r="10" fill="#00C7A5"/>
<circle cx="217" cy="272" r="10" fill="#00C7A5"/>
<circle cx="193" cy="272" r="10" fill="#00C7A5"/>
<circle cx="217" cy="296" r="10" fill="#00C7A5"/>
<circle cx="193" cy="296" r="10" fill="#00C7A5"/>
<circle cx="169" cy="272" r="10" fill="#00C7A5"/>
<circle cx="169" cy="296" r="10" fill="#00C7A5"/>
<circle cx="145" cy="224" r="10" fill="#00C7A5"/>
<circle cx="145" cy="248" r="10" fill="#00C7A5"/>
<circle cx="145" cy="272" r="10" fill="#00C7A5"/>
<circle cx="145" cy="296" r="10" fill="#00C7A5"/>
<circle cx="121" cy="224" r="10" fill="#00C7A5"/>
<circle cx="121" cy="248" r="10" fill="#00C7A5"/>
<circle cx="217" cy="176" r="10" fill="#00C7A5"/>
<circle cx="193" cy="176" r="10" fill="#00C7A5"/>
<circle cx="217" cy="200" r="10" fill="#00C7A5"/>
<circle cx="193" cy="200" r="10" fill="#00C7A5"/>
<circle cx="169" cy="176" r="10" fill="#00C7A5"/>
<circle cx="169" cy="200" r="10" fill="#00C7A5"/>
<circle cx="145" cy="176" r="10" fill="#00C7A5"/>
<circle cx="145" cy="200" r="10" fill="#00C7A5"/>
<circle cx="121" cy="176" r="10" fill="#00C7A5"/>
<circle cx="121" cy="200" r="10" fill="#00C7A5"/>
<circle cx="121" cy="272" r="10" fill="#00C7A5"/>
<circle cx="121" cy="296" r="10" fill="#00C7A5"/>
<circle cx="97" cy="224" r="10" fill="#00C7A5"/>
<circle cx="97" cy="248" r="10" fill="#00C7A5"/>
<circle cx="97" cy="176" r="10" fill="#00C7A5"/>
<circle cx="97" cy="200" r="10" fill="#00C7A5"/>
<circle cx="97" cy="272" r="10" fill="#00C7A5"/>
<circle cx="97" cy="296" r="10" fill="#00C7A5"/>
<circle cx="145" cy="345" r="10" transform="rotate(90 145 345)" fill="#00C7A5"/>
<circle cx="121" cy="345" r="10" transform="rotate(90 121 345)" fill="#00C7A5"/>
<circle cx="73" cy="248" r="10" transform="rotate(-180 73 248)" fill="#00C7A5"/>
<circle cx="560" cy="33" r="10" fill="#00C7A5"/>
<circle cx="536" cy="33" r="10" fill="#00C7A5"/>
<circle cx="512" cy="33" r="10" fill="#00C7A5"/>
<circle cx="488" cy="33" r="10" fill="#00C7A5"/>
<circle cx="464" cy="33" r="10" fill="#00C7A5"/>
<circle cx="440" cy="33" r="10" fill="#00C7A5"/>
<circle cx="416" cy="33" r="10" fill="#00C7A5"/>
<circle cx="560" cy="57" r="10" fill="#00C7A5"/>
<circle cx="536" cy="57" r="10" fill="#00C7A5"/>
<circle cx="512" cy="57" r="10" fill="#00C7A5"/>
<circle cx="488" cy="57" r="10" fill="#00C7A5"/>
<circle cx="464" cy="57" r="10" fill="#00C7A5"/>
<circle cx="440" cy="57" r="10" fill="#00C7A5"/>
<circle cx="416" cy="57" r="10" fill="#00C7A5"/>
<circle cx="392" cy="33" r="10" fill="#00C7A5"/>
<circle cx="392" cy="57" r="10" fill="#00C7A5"/>
<circle cx="560" cy="81" r="10" fill="#00C7A5"/>
<circle cx="536" cy="81" r="10" fill="#00C7A5"/>
<circle cx="512" cy="81" r="10" fill="#00C7A5"/>
<circle cx="488" cy="81" r="10" fill="#00C7A5"/>
<circle cx="464" cy="81" r="10" fill="#00C7A5"/>
<circle cx="440" cy="81" r="10" fill="#00C7A5"/>
<circle cx="416" cy="81" r="10" fill="#00C7A5"/>
<circle cx="560" cy="105" r="10" fill="#00C7A5"/>
<circle cx="536" cy="105" r="10" fill="#00C7A5"/>
<circle cx="512" cy="105" r="10" fill="#00C7A5"/>
<circle cx="488" cy="105" r="10" fill="#00C7A5"/>
<circle cx="464" cy="105" r="10" fill="#00C7A5"/>
<circle cx="440" cy="105" r="10" fill="#00C7A5"/>
<circle cx="416" cy="105" r="10" fill="#00C7A5"/>
<circle cx="392" cy="81" r="10" fill="#00C7A5"/>
<circle cx="392" cy="105" r="10" fill="#00C7A5"/>
<circle cx="368" cy="33" r="10" fill="#00C7A5"/>
<circle cx="560" cy="129" r="10" fill="#00C7A5"/>
<circle cx="536" cy="129" r="10" fill="#00C7A5"/>
<circle cx="512" cy="129" r="10" fill="#00C7A5"/>
<circle cx="488" cy="129" r="10" fill="#00C7A5"/>
<circle cx="464" cy="129" r="10" fill="#00C7A5"/>
<circle cx="368" cy="57" r="10" fill="#00C7A5"/>
<circle cx="560" cy="153" r="10" fill="#00C7A5"/>
<circle cx="536" cy="153" r="10" fill="#00C7A5"/>
<circle cx="512" cy="153" r="10" fill="#00C7A5"/>
<circle cx="488" cy="153" r="10" fill="#00C7A5"/>
<circle cx="464" cy="153" r="10" fill="#00C7A5"/>
<circle cx="440" cy="129" r="10" fill="#00C7A5"/>
<circle cx="440" cy="153" r="10" fill="#00C7A5"/>
<circle cx="368" cy="81" r="10" fill="#00C7A5"/>
<circle cx="416" cy="129" r="10" fill="#00C7A5"/>
<circle cx="392" cy="129" r="10" fill="#00C7A5"/>
<circle cx="368" cy="129" r="10" fill="#00C7A5"/>
<circle cx="368" cy="105" r="10" fill="#00C7A5"/>
<circle cx="416" cy="153" r="10" fill="#00C7A5"/>
<circle cx="392" cy="153" r="10" fill="#00C7A5"/>
<circle cx="368" cy="153" r="10" fill="#00C7A5"/>
<circle cx="344" cy="33" r="10" fill="#00C7A5"/>
<circle cx="344" cy="57" r="10" fill="#00C7A5"/>
<circle cx="344" cy="81" r="10" fill="#00C7A5"/>
<circle cx="344" cy="129" r="10" fill="#00C7A5"/>
<circle cx="344" cy="105" r="10" fill="#00C7A5"/>
<circle cx="320" cy="81" r="10" fill="#00C7A5"/>
<circle cx="296" cy="81" r="10" fill="#00C7A5"/>
<circle cx="320" cy="105" r="10" fill="#00C7A5"/>
<circle cx="296" cy="105" r="10" fill="#00C7A5"/>
<circle cx="272" cy="81" r="10" fill="#00C7A5"/>
<circle cx="272" cy="105" r="10" fill="#00C7A5"/>
<circle cx="320" cy="129" r="10" fill="#00C7A5"/>
<circle cx="296" cy="129" r="10" fill="#00C7A5"/>
<circle cx="320" cy="153" r="10" fill="#00C7A5"/>
<circle cx="296" cy="153" r="10" fill="#00C7A5"/>
<circle cx="272" cy="129" r="10" fill="#00C7A5"/>
<circle cx="272" cy="153" r="10" fill="#00C7A5"/>
<circle cx="320" cy="321" r="10" transform="rotate(-90 320 321)" fill="#00C7A5"/>
<circle cx="344" cy="321" r="10" transform="rotate(-90 344 321)" fill="#00C7A5"/>
<circle cx="368" cy="321" r="10" transform="rotate(-90 368 321)" fill="#00C7A5"/>
<circle cx="392" cy="321" r="10" transform="rotate(-90 392 321)" fill="#00C7A5"/>
<circle cx="320" cy="345" r="10" transform="rotate(-90 320 345)" fill="#00C7A5"/>
<circle cx="344" cy="345" r="10" transform="rotate(-90 344 345)" fill="#00C7A5"/>
<circle cx="320" cy="33" r="10" fill="#00C7A5"/>
<circle cx="296" cy="33" r="10" fill="#00C7A5"/>
<circle cx="320" cy="57" r="10" fill="#00C7A5"/>
<circle cx="296" cy="57" r="10" fill="#00C7A5"/>
<circle cx="272" cy="33" r="10" fill="#00C7A5"/>
<circle cx="272" cy="57" r="10" fill="#00C7A5"/>
<circle cx="272" cy="321" r="10" transform="rotate(-90 272 321)" fill="#00C7A5"/>
<circle cx="296" cy="321" r="10" transform="rotate(-90 296 321)" fill="#00C7A5"/>
<circle cx="272" cy="345" r="10" transform="rotate(-90 272 345)" fill="#00C7A5"/>
<circle cx="296" cy="345" r="10" transform="rotate(-90 296 345)" fill="#00C7A5"/>
<circle cx="368" cy="345" r="10" transform="rotate(-90 368 345)" fill="#00C7A5"/>
<circle cx="392" cy="345" r="10" transform="rotate(-90 392 345)" fill="#00C7A5"/>
<circle cx="320" cy="369" r="10" transform="rotate(-90 320 369)" fill="#00C7A5"/>
<circle cx="344" cy="369" r="10" transform="rotate(-90 344 369)" fill="#00C7A5"/>
<circle cx="272" cy="369" r="10" transform="rotate(-90 272 369)" fill="#00C7A5"/>
<circle cx="296" cy="369" r="10" transform="rotate(-90 296 369)" fill="#00C7A5"/>
<circle cx="368" cy="369" r="10" transform="rotate(-90 368 369)" fill="#00C7A5"/>
<circle cx="392" cy="369" r="10" transform="rotate(-90 392 369)" fill="#00C7A5"/>
<circle cx="344" cy="153" r="10" fill="#00C7A5"/>
<circle cx="560" cy="177" r="10" fill="#00C7A5"/>
<circle cx="536" cy="177" r="10" fill="#00C7A5"/>
<circle cx="512" cy="177" r="10" fill="#00C7A5"/>
<circle cx="488" cy="177" r="10" fill="#00C7A5"/>
<circle cx="464" cy="177" r="10" fill="#00C7A5"/>
<circle cx="440" cy="177" r="10" fill="#00C7A5"/>
<circle cx="416" cy="177" r="10" fill="#00C7A5"/>
<circle cx="560" cy="201" r="10" fill="#00C7A5"/>
<circle cx="536" cy="201" r="10" fill="#00C7A5"/>
<circle cx="512" cy="201" r="10" fill="#00C7A5"/>
<circle cx="488" cy="201" r="10" fill="#00C7A5"/>
<circle cx="464" cy="201" r="10" fill="#00C7A5"/>
<circle cx="440" cy="201" r="10" fill="#00C7A5"/>
<circle cx="416" cy="201" r="10" fill="#00C7A5"/>
<circle cx="392" cy="177" r="10" fill="#00C7A5"/>
<circle cx="392" cy="201" r="10" fill="#00C7A5"/>
<circle cx="560" cy="225" r="10" fill="#00C7A5"/>
<circle cx="536" cy="225" r="10" fill="#00C7A5"/>
<circle cx="512" cy="225" r="10" fill="#00C7A5"/>
<circle cx="488" cy="225" r="10" fill="#00C7A5"/>
<circle cx="464" cy="225" r="10" fill="#00C7A5"/>
<circle cx="440" cy="225" r="10" fill="#00C7A5"/>
<circle cx="416" cy="225" r="10" fill="#00C7A5"/>
<circle cx="560" cy="249" r="10" fill="#00C7A5"/>
<circle cx="536" cy="249" r="10" fill="#00C7A5"/>
<circle cx="512" cy="249" r="10" fill="#00C7A5"/>
<circle cx="488" cy="249" r="10" fill="#00C7A5"/>
<circle cx="464" cy="249" r="10" fill="#00C7A5"/>
<circle cx="440" cy="249" r="10" fill="#00C7A5"/>
<circle cx="416" cy="249" r="10" fill="#00C7A5"/>
<circle cx="392" cy="225" r="10" fill="#00C7A5"/>
<circle cx="392" cy="249" r="10" fill="#00C7A5"/>
<circle cx="368" cy="177" r="10" fill="#00C7A5"/>
<circle cx="560" cy="273" r="10" fill="#00C7A5"/>
<circle cx="536" cy="273" r="10" fill="#00C7A5"/>
<circle cx="512" cy="273" r="10" fill="#00C7A5"/>
<circle cx="488" cy="273" r="10" fill="#00C7A5"/>
<circle cx="464" cy="273" r="10" fill="#00C7A5"/>
<circle cx="368" cy="201" r="10" fill="#00C7A5"/>
<circle cx="560" cy="297" r="10" fill="#00C7A5"/>
<circle cx="584" cy="321" r="10" fill="#00C7A5"/>
<circle cx="584" cy="345" r="10" fill="#00C7A5"/>
<circle cx="584" cy="369" r="10" fill="#00C7A5"/>
<circle cx="560" cy="321" r="10" fill="#00C7A5"/>
<circle cx="560" cy="345" r="10" fill="#00C7A5"/>
<circle cx="560" cy="369" r="10" fill="#00C7A5"/>
<circle cx="536" cy="297" r="10" fill="#00C7A5"/>
<circle cx="512" cy="297" r="10" fill="#00C7A5"/>
<circle cx="488" cy="297" r="10" fill="#00C7A5"/>
<circle cx="464" cy="297" r="10" fill="#00C7A5"/>
<circle cx="440" cy="273" r="10" fill="#00C7A5"/>
<circle cx="440" cy="297" r="10" fill="#00C7A5"/>
<circle cx="368" cy="225" r="10" fill="#00C7A5"/>
<circle cx="416" cy="273" r="10" fill="#00C7A5"/>
<circle cx="392" cy="273" r="10" fill="#00C7A5"/>
<circle cx="368" cy="273" r="10" fill="#00C7A5"/>
<circle cx="368" cy="249" r="10" fill="#00C7A5"/>
<circle cx="416" cy="297" r="10" fill="#00C7A5"/>
<circle cx="392" cy="297" r="10" fill="#00C7A5"/>
<circle cx="368" cy="297" r="10" fill="#00C7A5"/>
<circle cx="344" cy="177" r="10" fill="#00C7A5"/>
<circle cx="344" cy="201" r="10" fill="#00C7A5"/>
<circle cx="344" cy="225" r="10" fill="#00C7A5"/>
<circle cx="344" cy="273" r="10" fill="#00C7A5"/>
<circle cx="344" cy="249" r="10" fill="#00C7A5"/>
<circle cx="320" cy="225" r="10" fill="#00C7A5"/>
<circle cx="296" cy="225" r="10" fill="#00C7A5"/>
<circle cx="320" cy="249" r="10" fill="#00C7A5"/>
<circle cx="296" cy="249" r="10" fill="#00C7A5"/>
<circle cx="272" cy="225" r="10" fill="#00C7A5"/>
<circle cx="272" cy="249" r="10" fill="#00C7A5"/>
<circle cx="320" cy="273" r="10" fill="#00C7A5"/>
<circle cx="296" cy="273" r="10" fill="#00C7A5"/>
<circle cx="320" cy="297" r="10" fill="#00C7A5"/>
<circle cx="296" cy="297" r="10" fill="#00C7A5"/>
<circle cx="272" cy="273" r="10" fill="#00C7A5"/>
<circle cx="272" cy="297" r="10" fill="#00C7A5"/>
<circle cx="464" cy="321" r="10" transform="rotate(-90 464 321)" fill="#00C7A5"/>
<circle cx="488" cy="321" r="10" transform="rotate(-90 488 321)" fill="#00C7A5"/>
<circle cx="512" cy="321" r="10" transform="rotate(-90 512 321)" fill="#00C7A5"/>
<circle cx="536" cy="321" r="10" transform="rotate(-90 536 321)" fill="#00C7A5"/>
<circle cx="464" cy="345" r="10" transform="rotate(-90 464 345)" fill="#00C7A5"/>
<circle cx="488" cy="345" r="10" transform="rotate(-90 488 345)" fill="#00C7A5"/>
<circle cx="320" cy="177" r="10" fill="#00C7A5"/>
<circle cx="296" cy="177" r="10" fill="#00C7A5"/>
<circle cx="320" cy="201" r="10" fill="#00C7A5"/>
<circle cx="296" cy="201" r="10" fill="#00C7A5"/>
<circle cx="272" cy="177" r="10" fill="#00C7A5"/>
<circle cx="272" cy="201" r="10" fill="#00C7A5"/>
<circle cx="416" cy="321" r="10" transform="rotate(-90 416 321)" fill="#00C7A5"/>
<circle cx="440" cy="321" r="10" transform="rotate(-90 440 321)" fill="#00C7A5"/>
<circle cx="416" cy="345" r="10" transform="rotate(-90 416 345)" fill="#00C7A5"/>
<circle cx="440" cy="345" r="10" transform="rotate(-90 440 345)" fill="#00C7A5"/>
<circle cx="512" cy="345" r="10" transform="rotate(-90 512 345)" fill="#00C7A5"/>
<circle cx="536" cy="345" r="10" transform="rotate(-90 536 345)" fill="#00C7A5"/>
<circle cx="464" cy="369" r="10" transform="rotate(-90 464 369)" fill="#00C7A5"/>
<circle cx="488" cy="369" r="10" transform="rotate(-90 488 369)" fill="#00C7A5"/>
<circle cx="416" cy="369" r="10" transform="rotate(-90 416 369)" fill="#00C7A5"/>
<circle cx="440" cy="369" r="10" transform="rotate(-90 440 369)" fill="#00C7A5"/>
<circle cx="512" cy="369" r="10" transform="rotate(-90 512 369)" fill="#00C7A5"/>
<circle cx="536" cy="369" r="10" transform="rotate(-90 536 369)" fill="#00C7A5"/>
<circle cx="344" cy="297" r="10" fill="#00C7A5"/>
<path d="M96.2212 10.5283C96.1138 11.666 95.6938 12.5547 94.9614 13.1943C94.229 13.8291 93.2549 14.1465 92.0391 14.1465C91.1895 14.1465 90.4399 13.9463 89.7905 13.5459C89.146 13.1406 88.6479 12.5669 88.2964 11.8247C87.9448 11.0825 87.7617 10.2207 87.7471 9.23926V8.24316C87.7471 7.2373 87.9253 6.35107 88.2817 5.58447C88.6382 4.81787 89.1484 4.22705 89.8125 3.81201C90.4814 3.39697 91.2529 3.18945 92.127 3.18945C93.3037 3.18945 94.251 3.50928 94.9688 4.14893C95.6865 4.78857 96.104 5.69189 96.2212 6.85889H94.3755C94.2876 6.09229 94.063 5.54053 93.7017 5.20361C93.3452 4.86182 92.8203 4.69092 92.127 4.69092C91.3213 4.69092 90.7012 4.98633 90.2666 5.57715C89.8369 6.16309 89.6172 7.0249 89.6074 8.1626V9.10742C89.6074 10.2598 89.8125 11.1387 90.2227 11.7441C90.6377 12.3496 91.2432 12.6523 92.0391 12.6523C92.7666 12.6523 93.3135 12.4888 93.6797 12.1616C94.0459 11.8345 94.2778 11.29 94.3755 10.5283H96.2212ZM99.4658 6.93945C100.047 6.26562 100.782 5.92871 101.67 5.92871C103.36 5.92871 104.217 6.89307 104.241 8.82178V14H102.461V8.8877C102.461 8.34082 102.342 7.95508 102.103 7.73047C101.868 7.50098 101.521 7.38623 101.062 7.38623C100.35 7.38623 99.8174 7.70361 99.4658 8.33838V14H97.686V2.75L99.4658 2.75V6.93945ZM107.94 14H106.16V6.0752H107.94V14ZM106.05 4.01709C106.05 3.74365 106.136 3.5166 106.307 3.33594C106.482 3.15527 106.731 3.06494 107.054 3.06494C107.376 3.06494 107.625 3.15527 107.801 3.33594C107.977 3.5166 108.064 3.74365 108.064 4.01709C108.064 4.28564 107.977 4.51025 107.801 4.69092C107.625 4.8667 107.376 4.95459 107.054 4.95459C106.731 4.95459 106.482 4.8667 106.307 4.69092C106.136 4.51025 106.05 4.28564 106.05 4.01709ZM111.536 6.0752L111.587 6.99072C112.173 6.28271 112.942 5.92871 113.895 5.92871C115.545 5.92871 116.385 6.87354 116.414 8.76318V14H114.634V8.86572C114.634 8.36279 114.524 7.9917 114.305 7.75244C114.09 7.5083 113.736 7.38623 113.243 7.38623C112.525 7.38623 111.99 7.71094 111.639 8.36035V14H109.859V6.0752H111.536ZM122.969 14C122.891 13.8486 122.823 13.6021 122.764 13.2603C122.198 13.8511 121.504 14.1465 120.684 14.1465C119.888 14.1465 119.239 13.9194 118.736 13.4653C118.233 13.0112 117.981 12.4497 117.981 11.7808C117.981 10.936 118.294 10.2891 118.919 9.83984C119.549 9.38574 120.447 9.15869 121.614 9.15869H122.706V8.63867C122.706 8.22852 122.591 7.90137 122.361 7.65723C122.132 7.4082 121.783 7.28369 121.314 7.28369C120.909 7.28369 120.577 7.38623 120.318 7.59131C120.059 7.7915 119.93 8.04785 119.93 8.36035H118.15C118.15 7.92578 118.294 7.52051 118.582 7.14453C118.87 6.76367 119.261 6.46582 119.754 6.25098C120.252 6.03613 120.806 5.92871 121.417 5.92871C122.344 5.92871 123.084 6.16309 123.636 6.63184C124.188 7.0957 124.471 7.75 124.485 8.59473V12.1689C124.485 12.8818 124.585 13.4507 124.786 13.8755V14H122.969ZM121.014 12.7183C121.365 12.7183 121.695 12.6328 122.002 12.4619C122.315 12.291 122.549 12.0615 122.706 11.7734V10.2793H121.746C121.087 10.2793 120.591 10.394 120.259 10.6235C119.927 10.853 119.761 11.1777 119.761 11.5977C119.761 11.9395 119.874 12.2129 120.098 12.418C120.328 12.6182 120.633 12.7183 121.014 12.7183Z" fill="#343434"/>
<path d="M514.258 12.6157C513.872 13.1187 513.337 13.4995 512.654 13.7583C511.97 14.0171 511.194 14.1465 510.325 14.1465C509.431 14.1465 508.64 13.9438 507.952 13.5386C507.263 13.1333 506.731 12.5547 506.355 11.8027C505.984 11.0459 505.791 10.1646 505.776 9.15869V8.32373C505.776 6.7124 506.162 5.45508 506.934 4.55176C507.705 3.64355 508.782 3.18945 510.164 3.18945C511.35 3.18945 512.292 3.48242 512.991 4.06836C513.689 4.6543 514.109 5.49902 514.25 6.60254L512.434 6.60254C512.229 5.31836 511.484 4.67627 510.2 4.67627C509.37 4.67627 508.738 4.97656 508.303 5.57715C507.874 6.17285 507.651 7.04932 507.637 8.20654V9.02686C507.637 10.1792 507.878 11.0752 508.362 11.7148C508.85 12.3496 509.526 12.667 510.391 12.667C511.338 12.667 512.012 12.4521 512.412 12.0225V9.93506L510.215 9.93506V8.52881L514.258 8.52881V12.6157ZM519.612 14.1465C518.484 14.1465 517.568 13.7925 516.865 13.0845C516.167 12.3716 515.818 11.4243 515.818 10.2427V10.0229C515.818 9.23193 515.969 8.52637 516.272 7.90625C516.58 7.28125 517.009 6.79541 517.561 6.44873C518.113 6.10205 518.728 5.92871 519.407 5.92871C520.486 5.92871 521.318 6.27295 521.904 6.96143C522.495 7.6499 522.791 8.62402 522.791 9.88379V10.6016L517.612 10.6016C517.666 11.2559 517.883 11.7734 518.264 12.1543C518.65 12.5352 519.133 12.7256 519.714 12.7256C520.53 12.7256 521.194 12.396 521.707 11.7368L522.666 12.6523C522.349 13.126 521.924 13.4946 521.392 13.7583C520.864 14.0171 520.271 14.1465 519.612 14.1465ZM519.399 7.35693C518.911 7.35693 518.516 7.52783 518.213 7.86963C517.915 8.21143 517.725 8.6875 517.642 9.29785H521.033V9.16602C520.994 8.57031 520.835 8.12109 520.557 7.81836C520.278 7.51074 519.893 7.35693 519.399 7.35693ZM528.328 7.70117C528.093 7.66211 527.852 7.64258 527.603 7.64258C526.787 7.64258 526.238 7.95508 525.955 8.58008V14H524.175V6.0752L525.874 6.0752L525.918 6.96143C526.348 6.27295 526.943 5.92871 527.705 5.92871C527.959 5.92871 528.169 5.96289 528.335 6.03125L528.328 7.70117ZM531.125 6.0752L531.177 6.90283C531.733 6.25342 532.495 5.92871 533.462 5.92871C534.521 5.92871 535.247 6.33398 535.637 7.14453C536.213 6.33398 537.024 5.92871 538.069 5.92871C538.943 5.92871 539.592 6.17041 540.017 6.65381C540.447 7.13721 540.667 7.8501 540.676 8.79248V14H538.896V8.84375C538.896 8.34082 538.787 7.97217 538.567 7.73779C538.347 7.50342 537.983 7.38623 537.476 7.38623C537.07 7.38623 536.738 7.49609 536.479 7.71582C536.226 7.93066 536.047 8.21387 535.945 8.56543L535.952 14H534.172V8.78516C534.148 7.85254 533.672 7.38623 532.744 7.38623C532.031 7.38623 531.526 7.67676 531.228 8.25781V14H529.448V6.0752L531.125 6.0752ZM547.239 14C547.161 13.8486 547.092 13.6021 547.034 13.2603C546.467 13.8511 545.774 14.1465 544.954 14.1465C544.158 14.1465 543.508 13.9194 543.005 13.4653C542.502 13.0112 542.251 12.4497 542.251 11.7808C542.251 10.936 542.563 10.2891 543.188 9.83984C543.818 9.38574 544.717 9.15869 545.884 9.15869H546.975V8.63867C546.975 8.22852 546.86 7.90137 546.631 7.65723C546.401 7.4082 546.052 7.28369 545.583 7.28369C545.178 7.28369 544.846 7.38623 544.587 7.59131C544.329 7.7915 544.199 8.04785 544.199 8.36035L542.419 8.36035C542.419 7.92578 542.563 7.52051 542.852 7.14453C543.14 6.76367 543.53 6.46582 544.023 6.25098C544.521 6.03613 545.076 5.92871 545.686 5.92871C546.614 5.92871 547.354 6.16309 547.905 6.63184C548.457 7.0957 548.74 7.75 548.755 8.59473V12.1689C548.755 12.8818 548.855 13.4507 549.055 13.8755V14H547.239ZM545.283 12.7183C545.635 12.7183 545.964 12.6328 546.272 12.4619C546.584 12.291 546.819 12.0615 546.975 11.7734V10.2793H546.016C545.356 10.2793 544.861 10.394 544.529 10.6235C544.197 10.853 544.031 11.1777 544.031 11.5977C544.031 11.9395 544.143 12.2129 544.368 12.418C544.597 12.6182 544.902 12.7183 545.283 12.7183ZM552.271 6.0752L552.322 6.99072C552.908 6.28271 553.677 5.92871 554.629 5.92871C556.279 5.92871 557.119 6.87354 557.148 8.76318V14H555.369V8.86572C555.369 8.36279 555.259 7.9917 555.039 7.75244C554.824 7.5083 554.47 7.38623 553.977 7.38623C553.259 7.38623 552.725 7.71094 552.373 8.36035V14H550.593V6.0752L552.271 6.0752ZM561.741 11.4512L563.352 6.0752H565.249L562.1 15.2012C561.616 16.5342 560.796 17.2007 559.639 17.2007C559.38 17.2007 559.094 17.1567 558.782 17.0688V15.6919L559.119 15.7139C559.568 15.7139 559.905 15.6309 560.129 15.4648C560.359 15.3037 560.54 15.0303 560.671 14.6445L560.928 13.9634L558.145 6.0752H560.063L561.741 11.4512Z" fill="#343434"/>
</svg>
