<svg width="463" height="126" viewBox="0 0 463 126" fill="none" xmlns="http://www.w3.org/2000/svg">
<circle cx="199" cy="32" r="10" fill="#00C7A5"/>
<circle cx="175" cy="32" r="10" fill="#00C7A5"/>
<circle cx="151" cy="32" r="10" fill="#00C7A5"/>
<circle cx="127" cy="32" r="10" fill="#00C7A5"/>
<circle cx="103" cy="32" r="10" fill="#00C7A5"/>
<circle cx="79" cy="32" r="10" fill="#00C7A5"/>
<circle cx="55" cy="32" r="10" fill="#00C7A5"/>
<circle cx="199" cy="56" r="10" fill="#00C7A5"/>
<circle cx="175" cy="56" r="10" fill="#00C7A5"/>
<circle cx="151" cy="56" r="10" fill="#00C7A5"/>
<circle cx="127" cy="56" r="10" fill="#00C7A5"/>
<circle cx="103" cy="56" r="10" fill="#00C7A5"/>
<circle cx="79" cy="56" r="10" fill="#00C7A5"/>
<circle cx="55" cy="56" r="10" fill="#00C7A5"/>
<circle cx="395" cy="32" r="10" fill="#00C7A5"/>
<circle cx="371" cy="32" r="10" fill="#00C7A5"/>
<circle cx="347" cy="32" r="10" fill="#00C7A5"/>
<circle cx="323" cy="32" r="10" fill="#00C7A5"/>
<circle cx="299" cy="32" r="10" fill="#00C7A5"/>
<circle cx="275" cy="32" r="10" fill="#00C7A5"/>
<circle cx="251" cy="32" r="10" fill="#00C7A5"/>
<circle cx="395" cy="56" r="10" fill="#00C7A5"/>
<circle cx="419" cy="32" r="10" fill="#00C7A5"/>
<circle cx="419" cy="56" r="10" fill="#00C7A5"/>
<circle cx="443" cy="56" r="10" fill="#00C7A5"/>
<circle cx="371" cy="56" r="10" fill="#00C7A5"/>
<circle cx="347" cy="56" r="10" fill="#00C7A5"/>
<circle cx="323" cy="56" r="10" fill="#00C7A5"/>
<circle cx="299" cy="56" r="10" fill="#00C7A5"/>
<circle cx="275" cy="56" r="10" fill="#00C7A5"/>
<circle cx="251" cy="56" r="10" fill="#00C7A5"/>
<circle cx="199" cy="104" r="10" fill="#6CBAFA"/>
<circle cx="205" cy="122" r="4" fill="#FBC800"/>
<circle r="10" transform="matrix(-1 1.74846e-07 1.74846e-07 1 251 104)" fill="#6CBAFA"/>
<circle r="4" transform="matrix(-1 1.74846e-07 1.74846e-07 1 245 122)" fill="#FBC800"/>
<circle cx="199" cy="80" r="10" fill="#8D75F3"/>
<circle cx="175" cy="80" r="10" fill="#8D75F3"/>
<circle cx="251" cy="80" r="10" fill="#8D75F3"/>
<circle cx="270" cy="85" r="5" fill="#8D75F3"/>
<path d="M54.2212 10.5283C54.1138 11.666 53.6938 12.5547 52.9614 13.1943C52.229 13.8291 51.2549 14.1465 50.0391 14.1465C49.1895 14.1465 48.4399 13.9463 47.7905 13.5459C47.146 13.1406 46.6479 12.5669 46.2964 11.8247C45.9448 11.0825 45.7617 10.2207 45.7471 9.23926V8.24316C45.7471 7.2373 45.9253 6.35107 46.2817 5.58447C46.6382 4.81787 47.1484 4.22705 47.8125 3.81201C48.4814 3.39697 49.2529 3.18945 50.127 3.18945C51.3037 3.18945 52.251 3.50928 52.9688 4.14893C53.6865 4.78857 54.104 5.69189 54.2212 6.85889H52.3755C52.2876 6.09229 52.063 5.54053 51.7017 5.20361C51.3452 4.86182 50.8203 4.69092 50.127 4.69092C49.3213 4.69092 48.7012 4.98633 48.2666 5.57715C47.8369 6.16309 47.6172 7.0249 47.6074 8.1626V9.10742C47.6074 10.2598 47.8125 11.1387 48.2227 11.7441C48.6377 12.3496 49.2432 12.6523 50.0391 12.6523C50.7666 12.6523 51.3135 12.4888 51.6797 12.1616C52.0459 11.8345 52.2778 11.29 52.3755 10.5283H54.2212ZM57.4658 6.93945C58.0469 6.26562 58.7817 5.92871 59.6704 5.92871C61.3599 5.92871 62.2168 6.89307 62.2412 8.82178V14H60.4614V8.8877C60.4614 8.34082 60.3418 7.95508 60.1025 7.73047C59.8682 7.50098 59.5215 7.38623 59.0625 7.38623C58.3496 7.38623 57.8174 7.70361 57.4658 8.33838V14H55.686V2.75L57.4658 2.75V6.93945ZM65.9399 14H64.1602V6.0752H65.9399V14ZM64.0503 4.01709C64.0503 3.74365 64.1357 3.5166 64.3066 3.33594C64.4824 3.15527 64.7314 3.06494 65.0537 3.06494C65.376 3.06494 65.625 3.15527 65.8008 3.33594C65.9766 3.5166 66.0645 3.74365 66.0645 4.01709C66.0645 4.28564 65.9766 4.51025 65.8008 4.69092C65.625 4.8667 65.376 4.95459 65.0537 4.95459C64.7314 4.95459 64.4824 4.8667 64.3066 4.69092C64.1357 4.51025 64.0503 4.28564 64.0503 4.01709ZM69.5361 6.0752L69.5874 6.99072C70.1733 6.28271 70.9424 5.92871 71.8945 5.92871C73.5449 5.92871 74.3848 6.87354 74.4141 8.76318V14H72.6343V8.86572C72.6343 8.36279 72.5244 7.9917 72.3047 7.75244C72.0898 7.5083 71.7358 7.38623 71.2427 7.38623C70.5249 7.38623 69.9902 7.71094 69.6387 8.36035V14H67.8589V6.0752H69.5361ZM80.9692 14C80.8911 13.8486 80.8228 13.6021 80.7642 13.2603C80.1978 13.8511 79.5044 14.1465 78.6841 14.1465C77.8882 14.1465 77.2388 13.9194 76.7358 13.4653C76.2329 13.0112 75.9814 12.4497 75.9814 11.7808C75.9814 10.936 76.2939 10.2891 76.9189 9.83984C77.5488 9.38574 78.4473 9.15869 79.6143 9.15869H80.7056V8.63867C80.7056 8.22852 80.5908 7.90137 80.3613 7.65723C80.1318 7.4082 79.7827 7.28369 79.314 7.28369C78.9087 7.28369 78.5767 7.38623 78.3179 7.59131C78.0591 7.7915 77.9297 8.04785 77.9297 8.36035H76.1499C76.1499 7.92578 76.2939 7.52051 76.582 7.14453C76.8701 6.76367 77.2607 6.46582 77.7539 6.25098C78.252 6.03613 78.8062 5.92871 79.4165 5.92871C80.3442 5.92871 81.084 6.16309 81.6357 6.63184C82.1875 7.0957 82.4707 7.75 82.4854 8.59473V12.1689C82.4854 12.8818 82.5854 13.4507 82.7856 13.8755V14H80.9692ZM79.0137 12.7183C79.3652 12.7183 79.6948 12.6328 80.0024 12.4619C80.3149 12.291 80.5493 12.0615 80.7056 11.7734V10.2793H79.7461C79.0869 10.2793 78.5913 10.394 78.2593 10.6235C77.9272 10.853 77.7612 11.1777 77.7612 11.5977C77.7612 11.9395 77.8735 12.2129 78.0981 12.418C78.3276 12.6182 78.6328 12.7183 79.0137 12.7183Z" fill="#343434"/>
<path d="M377.258 12.6157C376.872 13.1187 376.337 13.4995 375.654 13.7583C374.97 14.0171 374.194 14.1465 373.325 14.1465C372.431 14.1465 371.64 13.9438 370.952 13.5386C370.263 13.1333 369.731 12.5547 369.355 11.8027C368.984 11.0459 368.791 10.1646 368.776 9.15869V8.32373C368.776 6.7124 369.162 5.45508 369.934 4.55176C370.705 3.64355 371.782 3.18945 373.164 3.18945C374.35 3.18945 375.292 3.48242 375.991 4.06836C376.689 4.6543 377.109 5.49902 377.25 6.60254L375.434 6.60254C375.229 5.31836 374.484 4.67627 373.2 4.67627C372.37 4.67627 371.738 4.97656 371.303 5.57715C370.874 6.17285 370.651 7.04932 370.637 8.20654V9.02686C370.637 10.1792 370.878 11.0752 371.362 11.7148C371.85 12.3496 372.526 12.667 373.391 12.667C374.338 12.667 375.012 12.4521 375.412 12.0225V9.93506L373.215 9.93506V8.52881L377.258 8.52881V12.6157ZM382.612 14.1465C381.484 14.1465 380.568 13.7925 379.865 13.0845C379.167 12.3716 378.818 11.4243 378.818 10.2427V10.0229C378.818 9.23193 378.969 8.52637 379.272 7.90625C379.58 7.28125 380.009 6.79541 380.561 6.44873C381.113 6.10205 381.728 5.92871 382.407 5.92871C383.486 5.92871 384.318 6.27295 384.904 6.96143C385.495 7.6499 385.791 8.62402 385.791 9.88379V10.6016L380.612 10.6016C380.666 11.2559 380.883 11.7734 381.264 12.1543C381.65 12.5352 382.133 12.7256 382.714 12.7256C383.53 12.7256 384.194 12.396 384.707 11.7368L385.666 12.6523C385.349 13.126 384.924 13.4946 384.392 13.7583C383.864 14.0171 383.271 14.1465 382.612 14.1465ZM382.399 7.35693C381.911 7.35693 381.516 7.52783 381.213 7.86963C380.915 8.21143 380.725 8.6875 380.642 9.29785H384.033V9.16602C383.994 8.57031 383.835 8.12109 383.557 7.81836C383.278 7.51074 382.893 7.35693 382.399 7.35693ZM391.328 7.70117C391.093 7.66211 390.852 7.64258 390.603 7.64258C389.787 7.64258 389.238 7.95508 388.955 8.58008V14H387.175V6.0752L388.874 6.0752L388.918 6.96143C389.348 6.27295 389.943 5.92871 390.705 5.92871C390.959 5.92871 391.169 5.96289 391.335 6.03125L391.328 7.70117ZM394.125 6.0752L394.177 6.90283C394.733 6.25342 395.495 5.92871 396.462 5.92871C397.521 5.92871 398.247 6.33398 398.637 7.14453C399.213 6.33398 400.024 5.92871 401.069 5.92871C401.943 5.92871 402.592 6.17041 403.017 6.65381C403.447 7.13721 403.667 7.8501 403.676 8.79248V14H401.896V8.84375C401.896 8.34082 401.787 7.97217 401.567 7.73779C401.347 7.50342 400.983 7.38623 400.476 7.38623C400.07 7.38623 399.738 7.49609 399.479 7.71582C399.226 7.93066 399.047 8.21387 398.945 8.56543L398.952 14H397.172V8.78516C397.148 7.85254 396.672 7.38623 395.744 7.38623C395.031 7.38623 394.526 7.67676 394.228 8.25781V14H392.448V6.0752L394.125 6.0752ZM410.239 14C410.161 13.8486 410.092 13.6021 410.034 13.2603C409.467 13.8511 408.774 14.1465 407.954 14.1465C407.158 14.1465 406.508 13.9194 406.005 13.4653C405.502 13.0112 405.251 12.4497 405.251 11.7808C405.251 10.936 405.563 10.2891 406.188 9.83984C406.818 9.38574 407.717 9.15869 408.884 9.15869H409.975V8.63867C409.975 8.22852 409.86 7.90137 409.631 7.65723C409.401 7.4082 409.052 7.28369 408.583 7.28369C408.178 7.28369 407.846 7.38623 407.587 7.59131C407.329 7.7915 407.199 8.04785 407.199 8.36035L405.419 8.36035C405.419 7.92578 405.563 7.52051 405.852 7.14453C406.14 6.76367 406.53 6.46582 407.023 6.25098C407.521 6.03613 408.076 5.92871 408.686 5.92871C409.614 5.92871 410.354 6.16309 410.905 6.63184C411.457 7.0957 411.74 7.75 411.755 8.59473V12.1689C411.755 12.8818 411.855 13.4507 412.055 13.8755V14H410.239ZM408.283 12.7183C408.635 12.7183 408.964 12.6328 409.272 12.4619C409.584 12.291 409.819 12.0615 409.975 11.7734V10.2793H409.016C408.356 10.2793 407.861 10.394 407.529 10.6235C407.197 10.853 407.031 11.1777 407.031 11.5977C407.031 11.9395 407.143 12.2129 407.368 12.418C407.597 12.6182 407.902 12.7183 408.283 12.7183ZM415.271 6.0752L415.322 6.99072C415.908 6.28271 416.677 5.92871 417.629 5.92871C419.279 5.92871 420.119 6.87354 420.148 8.76318V14H418.369V8.86572C418.369 8.36279 418.259 7.9917 418.039 7.75244C417.824 7.5083 417.47 7.38623 416.977 7.38623C416.259 7.38623 415.725 7.71094 415.373 8.36035V14H413.593V6.0752L415.271 6.0752ZM424.741 11.4512L426.352 6.0752H428.249L425.1 15.2012C424.616 16.5342 423.796 17.2007 422.639 17.2007C422.38 17.2007 422.094 17.1567 421.782 17.0688V15.6919L422.119 15.7139C422.568 15.7139 422.905 15.6309 423.129 15.4648C423.359 15.3037 423.54 15.0303 423.671 14.6445L423.928 13.9634L421.145 6.0752H423.063L424.741 11.4512Z" fill="#343434"/>
<path d="M4.56 40.18C3.94 40.18 3.385 40.085 2.895 39.895C2.405 39.695 1.99 39.415 1.65 39.055C1.32 38.685 1.065 38.245 0.885 37.735C0.715 37.225 0.63 36.655 0.63 36.025C0.63 35.295 0.74 34.605 0.96 33.955C1.19 33.295 1.48 32.69 1.83 32.14C2.19 31.58 2.59 31.08 3.03 30.64C3.48 30.2 3.93 29.83 4.38 29.53H7.485C6.845 29.99 6.27 30.43 5.76 30.85C5.25 31.26 4.805 31.675 4.425 32.095C4.055 32.515 3.745 32.945 3.495 33.385C3.255 33.815 3.085 34.28 2.985 34.78L3.12 34.825C3.21 34.625 3.315 34.43 3.435 34.24C3.565 34.05 3.72 33.885 3.9 33.745C4.09 33.595 4.31 33.475 4.56 33.385C4.81 33.295 5.1 33.25 5.43 33.25C5.86 33.25 6.26 33.33 6.63 33.49C7.01 33.64 7.335 33.855 7.605 34.135C7.885 34.415 8.1 34.76 8.25 35.17C8.41 35.57 8.49 36.015 8.49 36.505C8.49 37.045 8.395 37.54 8.205 37.99C8.025 38.44 7.76 38.83 7.41 39.16C7.07 39.48 6.66 39.73 6.18 39.91C5.7 40.09 5.16 40.18 4.56 40.18ZM4.56 38.425C5.06 38.425 5.45 38.29 5.73 38.02C6.01 37.74 6.15 37.345 6.15 36.835V36.565C6.15 36.055 6.01 35.665 5.73 35.395C5.45 35.115 5.06 34.975 4.56 34.975C4.06 34.975 3.67 35.115 3.39 35.395C3.11 35.665 2.97 36.055 2.97 36.565V36.835C2.97 37.345 3.11 37.74 3.39 38.02C3.67 38.29 4.06 38.425 4.56 38.425ZM11.3491 37.465C11.7991 37.465 12.1291 37.58 12.3391 37.81C12.5591 38.03 12.6691 38.315 12.6691 38.665V38.965C12.6691 39.575 12.5191 40.175 12.2191 40.765C11.9291 41.355 11.5441 41.835 11.0641 42.205H9.56414C9.91414 41.875 10.2141 41.545 10.4641 41.215C10.7141 40.895 10.9041 40.535 11.0341 40.135C10.6841 40.075 10.4291 39.94 10.2691 39.73C10.1091 39.51 10.0291 39.255 10.0291 38.965V38.665C10.0291 38.315 10.1341 38.03 10.3441 37.81C10.5641 37.58 10.8991 37.465 11.3491 37.465ZM18.1377 40.18C17.5177 40.18 16.9627 40.105 16.4727 39.955C15.9927 39.795 15.5877 39.58 15.2577 39.31C14.9277 39.04 14.6727 38.72 14.4927 38.35C14.3227 37.98 14.2377 37.575 14.2377 37.135C14.2377 36.465 14.4227 35.92 14.7927 35.5C15.1627 35.07 15.6627 34.77 16.2927 34.6V34.48C15.7827 34.29 15.3627 34 15.0327 33.61C14.7127 33.22 14.5527 32.72 14.5527 32.11C14.5527 31.71 14.6277 31.34 14.7777 31C14.9377 30.66 15.1677 30.37 15.4677 30.13C15.7777 29.88 16.1527 29.69 16.5927 29.56C17.0427 29.42 17.5577 29.35 18.1377 29.35C18.7177 29.35 19.2277 29.42 19.6677 29.56C20.1177 29.69 20.4927 29.88 20.7927 30.13C21.1027 30.37 21.3327 30.66 21.4827 31C21.6427 31.34 21.7227 31.71 21.7227 32.11C21.7227 32.72 21.5577 33.22 21.2277 33.61C20.9077 34 20.4927 34.29 19.9827 34.48V34.6C20.6127 34.77 21.1127 35.07 21.4827 35.5C21.8527 35.92 22.0377 36.465 22.0377 37.135C22.0377 37.575 21.9477 37.98 21.7677 38.35C21.5977 38.72 21.3477 39.04 21.0177 39.31C20.6877 39.58 20.2777 39.795 19.7877 39.955C19.3077 40.105 18.7577 40.18 18.1377 40.18ZM18.1377 38.455C18.6377 38.455 19.0177 38.34 19.2777 38.11C19.5477 37.87 19.6827 37.54 19.6827 37.12V36.82C19.6827 36.4 19.5477 36.075 19.2777 35.845C19.0177 35.605 18.6377 35.485 18.1377 35.485C17.6377 35.485 17.2527 35.605 16.9827 35.845C16.7227 36.075 16.5927 36.4 16.5927 36.82V37.12C16.5927 37.54 16.7227 37.87 16.9827 38.11C17.2527 38.34 17.6377 38.455 18.1377 38.455ZM18.1377 33.835C18.6177 33.835 18.9827 33.725 19.2327 33.505C19.4827 33.275 19.6077 32.965 19.6077 32.575V32.335C19.6077 31.945 19.4827 31.64 19.2327 31.42C18.9827 31.19 18.6177 31.075 18.1377 31.075C17.6577 31.075 17.2927 31.19 17.0427 31.42C16.7927 31.64 16.6677 31.945 16.6677 32.335V32.575C16.6677 32.965 16.7927 33.275 17.0427 33.505C17.2927 33.725 17.6577 33.835 18.1377 33.835ZM25.1218 40L28.6318 31.36H25.3618V33.265H23.4568V29.53H30.8668V31.48L27.4918 40H25.1218Z" fill="#00C7A5"/>
<path d="M444.5 40.18C443.88 40.18 443.325 40.105 442.835 39.955C442.355 39.795 441.95 39.58 441.62 39.31C441.29 39.04 441.035 38.72 440.855 38.35C440.685 37.98 440.6 37.575 440.6 37.135C440.6 36.465 440.785 35.92 441.155 35.5C441.525 35.07 442.025 34.77 442.655 34.6V34.48C442.145 34.29 441.725 34 441.395 33.61C441.075 33.22 440.915 32.72 440.915 32.11C440.915 31.71 440.99 31.34 441.14 31C441.3 30.66 441.53 30.37 441.83 30.13C442.14 29.88 442.515 29.69 442.955 29.56C443.405 29.42 443.92 29.35 444.5 29.35C445.08 29.35 445.59 29.42 446.03 29.56C446.48 29.69 446.855 29.88 447.155 30.13C447.465 30.37 447.695 30.66 447.845 31C448.005 31.34 448.085 31.71 448.085 32.11C448.085 32.72 447.92 33.22 447.59 33.61C447.27 34 446.855 34.29 446.345 34.48V34.6C446.975 34.77 447.475 35.07 447.845 35.5C448.215 35.92 448.4 36.465 448.4 37.135C448.4 37.575 448.31 37.98 448.13 38.35C447.96 38.72 447.71 39.04 447.38 39.31C447.05 39.58 446.64 39.795 446.15 39.955C445.67 40.105 445.12 40.18 444.5 40.18ZM444.5 38.455C445 38.455 445.38 38.34 445.64 38.11C445.91 37.87 446.045 37.54 446.045 37.12V36.82C446.045 36.4 445.91 36.075 445.64 35.845C445.38 35.605 445 35.485 444.5 35.485C444 35.485 443.615 35.605 443.345 35.845C443.085 36.075 442.955 36.4 442.955 36.82V37.12C442.955 37.54 443.085 37.87 443.345 38.11C443.615 38.34 444 38.455 444.5 38.455ZM444.5 33.835C444.98 33.835 445.345 33.725 445.595 33.505C445.845 33.275 445.97 32.965 445.97 32.575V32.335C445.97 31.945 445.845 31.64 445.595 31.42C445.345 31.19 444.98 31.075 444.5 31.075C444.02 31.075 443.655 31.19 443.405 31.42C443.155 31.64 443.03 31.945 443.03 32.335V32.575C443.03 32.965 443.155 33.275 443.405 33.505C443.655 33.725 444.02 33.835 444.5 33.835ZM451.349 37.465C451.799 37.465 452.129 37.58 452.339 37.81C452.559 38.03 452.669 38.315 452.669 38.665V38.965C452.669 39.575 452.519 40.175 452.219 40.765C451.929 41.355 451.544 41.835 451.064 42.205H449.564C449.914 41.875 450.214 41.545 450.464 41.215C450.714 40.895 450.904 40.535 451.034 40.135C450.684 40.075 450.429 39.94 450.269 39.73C450.109 39.51 450.029 39.255 450.029 38.965V38.665C450.029 38.315 450.134 38.03 450.344 37.81C450.564 37.58 450.899 37.465 451.349 37.465ZM458.198 40.18C457.578 40.18 457.023 40.085 456.533 39.895C456.043 39.695 455.628 39.415 455.288 39.055C454.958 38.685 454.703 38.245 454.523 37.735C454.353 37.225 454.268 36.655 454.268 36.025C454.268 35.295 454.378 34.605 454.598 33.955C454.828 33.295 455.118 32.69 455.468 32.14C455.828 31.58 456.228 31.08 456.668 30.64C457.118 30.2 457.568 29.83 458.018 29.53H461.123C460.483 29.99 459.908 30.43 459.398 30.85C458.888 31.26 458.443 31.675 458.063 32.095C457.693 32.515 457.383 32.945 457.133 33.385C456.893 33.815 456.723 34.28 456.623 34.78L456.758 34.825C456.848 34.625 456.953 34.43 457.073 34.24C457.203 34.05 457.358 33.885 457.538 33.745C457.728 33.595 457.948 33.475 458.198 33.385C458.448 33.295 458.738 33.25 459.068 33.25C459.498 33.25 459.898 33.33 460.268 33.49C460.648 33.64 460.973 33.855 461.243 34.135C461.523 34.415 461.738 34.76 461.888 35.17C462.048 35.57 462.128 36.015 462.128 36.505C462.128 37.045 462.033 37.54 461.843 37.99C461.663 38.44 461.398 38.83 461.048 39.16C460.708 39.48 460.298 39.73 459.818 39.91C459.338 40.09 458.798 40.18 458.198 40.18ZM458.198 38.425C458.698 38.425 459.088 38.29 459.368 38.02C459.648 37.74 459.788 37.345 459.788 36.835V36.565C459.788 36.055 459.648 35.665 459.368 35.395C459.088 35.115 458.698 34.975 458.198 34.975C457.698 34.975 457.308 35.115 457.028 35.395C456.748 35.665 456.608 36.055 456.608 36.565V36.835C456.608 37.345 456.748 37.74 457.028 38.02C457.308 38.29 457.698 38.425 458.198 38.425Z" fill="#00C7A5"/>
</svg>
