<svg width="544" height="649" viewBox="0 0 544 649" fill="none" xmlns="http://www.w3.org/2000/svg">
<circle cx="442" cy="39" r="10" fill="#00C7A5"/>
<circle cx="418" cy="39" r="10" fill="#00C7A5"/>
<circle cx="394" cy="39" r="10" fill="#00C7A5"/>
<circle cx="370" cy="39" r="10" fill="#00C7A5"/>
<circle cx="346" cy="39" r="10" fill="#00C7A5"/>
<circle cx="322" cy="39" r="10" fill="#00C7A5"/>
<circle cx="298" cy="39" r="10" fill="#00C7A5"/>
<circle cx="274" cy="39" r="10" fill="#00C7A5"/>
<circle cx="250" cy="39" r="10" fill="#00C7A5"/>
<circle cx="226" cy="39" r="10" fill="#00C7A5"/>
<circle cx="202" cy="39" r="10" fill="#00C7A5"/>
<circle cx="178" cy="39" r="10" fill="#00C7A5"/>
<circle cx="154" cy="39" r="10" fill="#00C7A5"/>
<circle cx="130" cy="39" r="10" fill="#00C7A5"/>
<circle cx="106" cy="39" r="10" fill="#00C7A5"/>
<circle cx="82" cy="39" r="10" fill="#00C7A5"/>
<circle cx="58" cy="39" r="10" fill="#00C7A5"/>
<circle cx="34" cy="39" r="10" fill="#00C7A5"/>
<circle cx="10" cy="39" r="10" fill="#00C7A5"/>
<circle cx="442" cy="63" r="10" fill="#00C7A5"/>
<circle cx="418" cy="63" r="10" fill="#00C7A5"/>
<circle cx="394" cy="63" r="10" fill="#00C7A5"/>
<circle cx="370" cy="63" r="10" fill="#00C7A5"/>
<circle cx="346" cy="63" r="10" fill="#00C7A5"/>
<circle cx="322" cy="63" r="10" fill="#00C7A5"/>
<circle cx="298" cy="63" r="10" fill="#00C7A5"/>
<circle cx="274" cy="63" r="10" fill="#00C7A5"/>
<circle cx="250" cy="63" r="10" fill="#00C7A5"/>
<circle cx="226" cy="63" r="10" fill="#00C7A5"/>
<circle cx="202" cy="63" r="10" fill="#00C7A5"/>
<circle cx="178" cy="63" r="10" fill="#00C7A5"/>
<circle cx="154" cy="63" r="10" fill="#00C7A5"/>
<circle cx="130" cy="63" r="10" fill="#00C7A5"/>
<circle cx="106" cy="63" r="10" fill="#00C7A5"/>
<circle cx="82" cy="63" r="10" fill="#00C7A5"/>
<circle cx="58" cy="63" r="10" fill="#00C7A5"/>
<circle cx="34" cy="63" r="10" fill="#00C7A5"/>
<circle cx="10" cy="63" r="10" fill="#00C7A5"/>
<circle cx="442" cy="87" r="10" fill="#00C7A5"/>
<circle cx="418" cy="87" r="10" fill="#00C7A5"/>
<circle cx="394" cy="87" r="10" fill="#00C7A5"/>
<circle cx="370" cy="87" r="10" fill="#00C7A5"/>
<circle cx="346" cy="87" r="10" fill="#00C7A5"/>
<circle cx="322" cy="87" r="10" fill="#00C7A5"/>
<circle cx="298" cy="87" r="10" fill="#00C7A5"/>
<circle cx="274" cy="87" r="10" fill="#00C7A5"/>
<circle cx="250" cy="87" r="10" fill="#00C7A5"/>
<circle cx="226" cy="87" r="10" fill="#00C7A5"/>
<circle cx="202" cy="87" r="10" fill="#00C7A5"/>
<circle cx="178" cy="87" r="10" fill="#00C7A5"/>
<circle cx="154" cy="87" r="10" fill="#00C7A5"/>
<circle cx="130" cy="87" r="10" fill="#00C7A5"/>
<circle cx="106" cy="87" r="10" fill="#00C7A5"/>
<circle cx="82" cy="87" r="10" fill="#00C7A5"/>
<circle cx="58" cy="87" r="10" fill="#00C7A5"/>
<circle cx="34" cy="87" r="10" fill="#00C7A5"/>
<circle cx="10" cy="87" r="10" fill="#00C7A5"/>
<circle cx="442" cy="111" r="10" fill="#00C7A5"/>
<circle cx="418" cy="111" r="10" fill="#00C7A5"/>
<circle cx="394" cy="111" r="10" fill="#00C7A5"/>
<circle cx="370" cy="111" r="10" fill="#00C7A5"/>
<circle cx="346" cy="111" r="10" fill="#00C7A5"/>
<circle cx="322" cy="111" r="10" fill="#00C7A5"/>
<circle cx="298" cy="111" r="10" fill="#00C7A5"/>
<circle cx="274" cy="111" r="10" fill="#00C7A5"/>
<circle cx="250" cy="111" r="10" fill="#00C7A5"/>
<circle cx="226" cy="111" r="10" fill="#00C7A5"/>
<circle cx="202" cy="111" r="10" fill="#00C7A5"/>
<circle cx="178" cy="111" r="10" fill="#00C7A5"/>
<circle cx="154" cy="111" r="10" fill="#00C7A5"/>
<circle cx="130" cy="111" r="10" fill="#00C7A5"/>
<circle cx="106" cy="111" r="10" fill="#00C7A5"/>
<circle cx="82" cy="111" r="10" fill="#00C7A5"/>
<circle cx="58" cy="111" r="10" fill="#00C7A5"/>
<circle cx="34" cy="111" r="10" fill="#00C7A5"/>
<circle cx="10" cy="111" r="10" fill="#00C7A5"/>
<circle cx="442" cy="135" r="10" fill="#00C7A5"/>
<circle cx="418" cy="135" r="10" fill="#00C7A5"/>
<circle cx="394" cy="135" r="10" fill="#00C7A5"/>
<circle cx="370" cy="135" r="10" fill="#00C7A5"/>
<circle cx="346" cy="135" r="10" fill="#00C7A5"/>
<circle cx="322" cy="135" r="10" fill="#00C7A5"/>
<circle cx="298" cy="135" r="10" fill="#00C7A5"/>
<circle cx="274" cy="135" r="10" fill="#00C7A5"/>
<circle cx="250" cy="135" r="10" fill="#00C7A5"/>
<circle cx="226" cy="135" r="10" fill="#00C7A5"/>
<circle cx="202" cy="135" r="10" fill="#00C7A5"/>
<circle cx="178" cy="135" r="10" fill="#00C7A5"/>
<circle cx="154" cy="135" r="10" fill="#00C7A5"/>
<circle cx="130" cy="135" r="10" fill="#00C7A5"/>
<circle cx="106" cy="135" r="10" fill="#00C7A5"/>
<circle cx="82" cy="135" r="10" fill="#00C7A5"/>
<circle cx="58" cy="135" r="10" fill="#00C7A5"/>
<circle cx="34" cy="135" r="10" fill="#00C7A5"/>
<circle cx="10" cy="135" r="10" fill="#00C7A5"/>
<circle cx="442" cy="159" r="10" fill="#00C7A5"/>
<circle cx="418" cy="159" r="10" fill="#00C7A5"/>
<circle cx="394" cy="159" r="10" fill="#00C7A5"/>
<circle cx="370" cy="159" r="10" fill="#00C7A5"/>
<circle cx="346" cy="159" r="10" fill="#00C7A5"/>
<circle cx="322" cy="159" r="10" fill="#00C7A5"/>
<circle cx="298" cy="159" r="10" fill="#00C7A5"/>
<circle cx="274" cy="159" r="10" fill="#00C7A5"/>
<circle cx="250" cy="159" r="10" fill="#00C7A5"/>
<circle cx="226" cy="159" r="10" fill="#00C7A5"/>
<circle cx="202" cy="159" r="10" fill="#00C7A5"/>
<circle cx="178" cy="159" r="10" fill="#00C7A5"/>
<circle cx="154" cy="159" r="10" fill="#00C7A5"/>
<circle cx="130" cy="159" r="10" fill="#00C7A5"/>
<circle cx="106" cy="159" r="10" fill="#00C7A5"/>
<circle cx="82" cy="159" r="10" fill="#00C7A5"/>
<circle cx="58" cy="159" r="10" fill="#00C7A5"/>
<circle cx="34" cy="159" r="10" fill="#00C7A5"/>
<circle cx="10" cy="159" r="10" fill="#00C7A5"/>
<circle cx="442" cy="183" r="10" fill="#00C7A5"/>
<circle cx="418" cy="183" r="10" fill="#00C7A5"/>
<circle cx="394" cy="183" r="10" fill="#00C7A5"/>
<circle cx="370" cy="183" r="10" fill="#00C7A5"/>
<circle cx="346" cy="183" r="10" fill="#00C7A5"/>
<circle cx="322" cy="183" r="10" fill="#00C7A5"/>
<circle cx="298" cy="183" r="10" fill="#00C7A5"/>
<circle cx="274" cy="183" r="10" fill="#00C7A5"/>
<circle cx="250" cy="183" r="10" fill="#00C7A5"/>
<circle cx="226" cy="183" r="10" fill="#00C7A5"/>
<circle cx="202" cy="183" r="10" fill="#00C7A5"/>
<circle cx="178" cy="183" r="10" fill="#00C7A5"/>
<circle cx="154" cy="183" r="10" fill="#00C7A5"/>
<circle cx="130" cy="183" r="10" fill="#00C7A5"/>
<circle cx="106" cy="183" r="10" fill="#00C7A5"/>
<circle cx="82" cy="183" r="10" fill="#00C7A5"/>
<circle cx="58" cy="183" r="10" fill="#00C7A5"/>
<circle cx="34" cy="183" r="10" fill="#00C7A5"/>
<circle cx="10" cy="183" r="10" fill="#00C7A5"/>
<circle cx="442" cy="207" r="10" fill="#00C7A5"/>
<circle cx="418" cy="207" r="10" fill="#00C7A5"/>
<circle cx="394" cy="207" r="10" fill="#00C7A5"/>
<circle cx="370" cy="207" r="10" fill="#00C7A5"/>
<circle cx="346" cy="207" r="10" fill="#00C7A5"/>
<circle cx="322" cy="207" r="10" fill="#00C7A5"/>
<circle cx="298" cy="207" r="10" fill="#00C7A5"/>
<circle cx="274" cy="207" r="10" fill="#00C7A5"/>
<circle cx="250" cy="207" r="10" fill="#00C7A5"/>
<circle cx="226" cy="207" r="10" fill="#00C7A5"/>
<circle cx="202" cy="207" r="10" fill="#00C7A5"/>
<circle cx="178" cy="207" r="10" fill="#00C7A5"/>
<circle cx="154" cy="207" r="10" fill="#00C7A5"/>
<circle cx="130" cy="207" r="10" fill="#00C7A5"/>
<circle cx="106" cy="207" r="10" fill="#00C7A5"/>
<circle cx="82" cy="207" r="10" fill="#00C7A5"/>
<circle cx="58" cy="207" r="10" fill="#00C7A5"/>
<circle cx="34" cy="207" r="10" fill="#00C7A5"/>
<circle cx="10" cy="207" r="10" fill="#00C7A5"/>
<circle cx="442" cy="231" r="10" fill="#00C7A5"/>
<circle cx="418" cy="231" r="10" fill="#00C7A5"/>
<circle cx="394" cy="231" r="10" fill="#00C7A5"/>
<circle cx="370" cy="231" r="10" fill="#00C7A5"/>
<circle cx="346" cy="231" r="10" fill="#00C7A5"/>
<circle cx="322" cy="231" r="10" fill="#00C7A5"/>
<circle cx="298" cy="231" r="10" fill="#00C7A5"/>
<circle cx="274" cy="231" r="10" fill="#00C7A5"/>
<circle cx="250" cy="231" r="10" fill="#00C7A5"/>
<circle cx="226" cy="231" r="10" fill="#00C7A5"/>
<circle cx="202" cy="231" r="10" fill="#00C7A5"/>
<circle cx="178" cy="231" r="10" fill="#00C7A5"/>
<circle cx="154" cy="231" r="10" fill="#00C7A5"/>
<circle cx="130" cy="231" r="10" fill="#00C7A5"/>
<circle cx="106" cy="231" r="10" fill="#00C7A5"/>
<circle cx="82" cy="231" r="10" fill="#00C7A5"/>
<circle cx="58" cy="231" r="10" fill="#00C7A5"/>
<circle cx="34" cy="231" r="10" fill="#00C7A5"/>
<circle cx="10" cy="231" r="10" fill="#00C7A5"/>
<circle cx="442" cy="255" r="10" fill="#00C7A5"/>
<circle cx="418" cy="255" r="10" fill="#00C7A5"/>
<circle cx="394" cy="255" r="10" fill="#00C7A5"/>
<circle cx="370" cy="255" r="10" fill="#00C7A5"/>
<circle cx="346" cy="255" r="10" fill="#00C7A5"/>
<circle cx="322" cy="255" r="10" fill="#00C7A5"/>
<circle cx="298" cy="255" r="10" fill="#00C7A5"/>
<circle cx="274" cy="255" r="10" fill="#00C7A5"/>
<circle cx="250" cy="255" r="10" fill="#00C7A5"/>
<circle cx="226" cy="255" r="10" fill="#00C7A5"/>
<circle cx="202" cy="255" r="10" fill="#00C7A5"/>
<circle cx="178" cy="255" r="10" fill="#00C7A5"/>
<circle cx="154" cy="255" r="10" fill="#00C7A5"/>
<circle cx="130" cy="255" r="10" fill="#00C7A5"/>
<circle cx="106" cy="255" r="10" fill="#00C7A5"/>
<circle cx="82" cy="255" r="10" fill="#00C7A5"/>
<circle cx="58" cy="255" r="10" fill="#00C7A5"/>
<circle cx="34" cy="255" r="10" fill="#00C7A5"/>
<circle cx="10" cy="255" r="10" fill="#00C7A5"/>
<circle cx="442" cy="279" r="10" fill="#00C7A5"/>
<circle cx="418" cy="279" r="10" fill="#00C7A5"/>
<circle cx="394" cy="279" r="10" fill="#00C7A5"/>
<circle cx="370" cy="279" r="10" fill="#00C7A5"/>
<circle cx="346" cy="279" r="10" fill="#00C7A5"/>
<circle cx="322" cy="279" r="10" fill="#00C7A5"/>
<circle cx="298" cy="279" r="10" fill="#00C7A5"/>
<circle cx="274" cy="279" r="10" fill="#00C7A5"/>
<circle cx="250" cy="279" r="10" fill="#00C7A5"/>
<circle cx="226" cy="279" r="10" fill="#00C7A5"/>
<circle cx="202" cy="279" r="10" fill="#00C7A5"/>
<circle cx="178" cy="279" r="10" fill="#00C7A5"/>
<circle cx="154" cy="279" r="10" fill="#00C7A5"/>
<circle cx="130" cy="279" r="10" fill="#00C7A5"/>
<circle cx="106" cy="279" r="10" fill="#00C7A5"/>
<circle cx="82" cy="279" r="10" fill="#00C7A5"/>
<circle cx="58" cy="279" r="10" fill="#00C7A5"/>
<circle cx="34" cy="279" r="10" fill="#00C7A5"/>
<circle cx="10" cy="279" r="10" fill="#00C7A5"/>
<circle cx="442" cy="303" r="10" fill="#00C7A5"/>
<circle cx="418" cy="303" r="10" fill="#00C7A5"/>
<circle cx="394" cy="303" r="10" fill="#00C7A5"/>
<circle cx="370" cy="303" r="10" fill="#00C7A5"/>
<circle cx="346" cy="303" r="10" fill="#00C7A5"/>
<circle cx="322" cy="303" r="10" fill="#00C7A5"/>
<circle cx="298" cy="303" r="10" fill="#00C7A5"/>
<circle cx="274" cy="303" r="10" fill="#00C7A5"/>
<circle cx="250" cy="303" r="10" fill="#00C7A5"/>
<circle cx="226" cy="303" r="10" fill="#00C7A5"/>
<circle cx="202" cy="303" r="10" fill="#00C7A5"/>
<circle cx="178" cy="303" r="10" fill="#00C7A5"/>
<circle cx="154" cy="303" r="10" fill="#00C7A5"/>
<circle cx="130" cy="303" r="10" fill="#00C7A5"/>
<circle cx="106" cy="303" r="10" fill="#00C7A5"/>
<circle cx="82" cy="303" r="10" fill="#00C7A5"/>
<circle cx="58" cy="303" r="10" fill="#00C7A5"/>
<circle cx="34" cy="303" r="10" fill="#00C7A5"/>
<circle cx="10" cy="303" r="10" fill="#00C7A5"/>
<circle cx="442" cy="327" r="10" fill="#00C7A5"/>
<circle cx="418" cy="327" r="10" fill="#00C7A5"/>
<circle cx="394" cy="327" r="10" fill="#00C7A5"/>
<circle cx="370" cy="327" r="10" fill="#00C7A5"/>
<circle cx="346" cy="327" r="10" fill="#00C7A5"/>
<circle cx="322" cy="327" r="10" fill="#00C7A5"/>
<circle cx="298" cy="327" r="10" fill="#00C7A5"/>
<circle cx="274" cy="327" r="10" fill="#00C7A5"/>
<circle cx="250" cy="327" r="10" fill="#00C7A5"/>
<circle cx="226" cy="327" r="10" fill="#00C7A5"/>
<circle cx="202" cy="327" r="10" fill="#00C7A5"/>
<circle cx="178" cy="327" r="10" fill="#00C7A5"/>
<circle cx="154" cy="327" r="10" fill="#00C7A5"/>
<circle cx="130" cy="327" r="10" fill="#00C7A5"/>
<circle cx="106" cy="327" r="10" fill="#00C7A5"/>
<circle cx="82" cy="327" r="10" fill="#00C7A5"/>
<circle cx="58" cy="327" r="10" fill="#00C7A5"/>
<circle cx="34" cy="327" r="10" fill="#00C7A5"/>
<circle cx="10" cy="327" r="10" fill="#00C7A5"/>
<circle cx="442" cy="351" r="10" fill="#00C7A5"/>
<circle cx="418" cy="351" r="10" fill="#00C7A5"/>
<circle cx="394" cy="351" r="10" fill="#00C7A5"/>
<circle cx="370" cy="351" r="10" fill="#00C7A5"/>
<circle cx="346" cy="351" r="10" fill="#00C7A5"/>
<circle cx="322" cy="351" r="10" fill="#00C7A5"/>
<circle cx="298" cy="351" r="10" fill="#00C7A5"/>
<circle cx="274" cy="351" r="10" fill="#00C7A5"/>
<circle cx="250" cy="351" r="10" fill="#00C7A5"/>
<circle cx="226" cy="351" r="10" fill="#00C7A5"/>
<circle cx="202" cy="351" r="10" fill="#00C7A5"/>
<circle cx="178" cy="351" r="10" fill="#00C7A5"/>
<circle cx="154" cy="351" r="10" fill="#00C7A5"/>
<circle cx="130" cy="351" r="10" fill="#00C7A5"/>
<circle cx="106" cy="351" r="10" fill="#00C7A5"/>
<circle cx="82" cy="351" r="10" fill="#00C7A5"/>
<circle cx="58" cy="351" r="10" fill="#00C7A5"/>
<circle cx="34" cy="351" r="10" fill="#00C7A5"/>
<circle cx="10" cy="351" r="10" fill="#00C7A5"/>
<circle cx="442" cy="375" r="10" fill="#00C7A5"/>
<circle cx="418" cy="375" r="10" fill="#00C7A5"/>
<circle cx="394" cy="375" r="10" fill="#00C7A5"/>
<circle cx="370" cy="375" r="10" fill="#00C7A5"/>
<circle cx="346" cy="375" r="10" fill="#00C7A5"/>
<circle cx="322" cy="375" r="10" fill="#00C7A5"/>
<circle cx="298" cy="375" r="10" fill="#00C7A5"/>
<circle cx="274" cy="375" r="10" fill="#00C7A5"/>
<circle cx="250" cy="375" r="10" fill="#00C7A5"/>
<circle cx="226" cy="375" r="10" fill="#00C7A5"/>
<circle cx="202" cy="375" r="10" fill="#00C7A5"/>
<circle cx="178" cy="375" r="10" fill="#00C7A5"/>
<circle cx="154" cy="375" r="10" fill="#00C7A5"/>
<circle cx="130" cy="375" r="10" fill="#00C7A5"/>
<circle cx="106" cy="375" r="10" fill="#00C7A5"/>
<circle cx="82" cy="375" r="10" fill="#00C7A5"/>
<circle cx="58" cy="375" r="10" fill="#00C7A5"/>
<circle cx="34" cy="375" r="10" fill="#00C7A5"/>
<circle cx="10" cy="375" r="10" fill="#00C7A5"/>
<circle cx="442" cy="399" r="10" fill="#00C7A5"/>
<circle cx="418" cy="399" r="10" fill="#00C7A5"/>
<circle cx="394" cy="399" r="10" fill="#00C7A5"/>
<circle cx="370" cy="399" r="10" fill="#00C7A5"/>
<circle cx="346" cy="399" r="10" fill="#00C7A5"/>
<circle cx="322" cy="399" r="10" fill="#00C7A5"/>
<circle cx="298" cy="399" r="10" fill="#00C7A5"/>
<circle cx="274" cy="399" r="10" fill="#00C7A5"/>
<circle cx="250" cy="399" r="10" fill="#00C7A5"/>
<circle cx="226" cy="399" r="10" fill="#00C7A5"/>
<circle cx="202" cy="399" r="10" fill="#00C7A5"/>
<circle cx="178" cy="399" r="10" fill="#00C7A5"/>
<circle cx="154" cy="399" r="10" fill="#00C7A5"/>
<circle cx="130" cy="399" r="10" fill="#00C7A5"/>
<circle cx="106" cy="399" r="10" fill="#00C7A5"/>
<circle cx="82" cy="399" r="10" fill="#00C7A5"/>
<circle cx="58" cy="399" r="10" fill="#00C7A5"/>
<circle cx="34" cy="399" r="10" fill="#00C7A5"/>
<circle cx="10" cy="399" r="10" fill="#00C7A5"/>
<circle cx="442" cy="423" r="10" fill="#00C7A5"/>
<circle cx="418" cy="423" r="10" fill="#00C7A5"/>
<circle cx="394" cy="423" r="10" fill="#00C7A5"/>
<circle cx="370" cy="423" r="10" fill="#00C7A5"/>
<circle cx="346" cy="423" r="10" fill="#00C7A5"/>
<circle cx="322" cy="423" r="10" fill="#00C7A5"/>
<circle cx="298" cy="423" r="10" fill="#00C7A5"/>
<circle cx="274" cy="423" r="10" fill="#00C7A5"/>
<circle cx="250" cy="423" r="10" fill="#00C7A5"/>
<circle cx="226" cy="423" r="10" fill="#00C7A5"/>
<circle cx="202" cy="423" r="10" fill="#00C7A5"/>
<circle cx="178" cy="423" r="10" fill="#00C7A5"/>
<circle cx="154" cy="423" r="10" fill="#00C7A5"/>
<circle cx="130" cy="423" r="10" fill="#00C7A5"/>
<circle cx="106" cy="423" r="10" fill="#00C7A5"/>
<circle cx="82" cy="423" r="10" fill="#00C7A5"/>
<circle cx="58" cy="423" r="10" fill="#00C7A5"/>
<circle cx="34" cy="423" r="10" fill="#00C7A5"/>
<circle cx="10" cy="423" r="10" fill="#00C7A5"/>
<circle cx="442" cy="447" r="10" fill="#00C7A5"/>
<circle cx="442" cy="567" r="10" fill="#8D75F3"/>
<circle cx="442" cy="591" r="10" fill="#6CBAFA"/>
<circle cx="493" cy="591" r="10" fill="#6CBAFA"/>
<circle cx="442" cy="615" r="10" fill="#6CBAFA"/>
<circle cx="442" cy="639" r="10" fill="#FBC800"/>
<circle cx="418" cy="447" r="10" fill="#00C7A5"/>
<circle cx="418" cy="567" r="10" fill="#8D75F3"/>
<circle cx="418" cy="591" r="10" fill="#6CBAFA"/>
<circle cx="418" cy="615" r="10" fill="#6CBAFA"/>
<circle cx="418" cy="639" r="10" fill="#FBC800"/>
<circle cx="394" cy="447" r="10" fill="#00C7A5"/>
<circle cx="394" cy="567" r="10" fill="#8D75F3"/>
<circle cx="394" cy="591" r="10" fill="#6CBAFA"/>
<circle cx="394" cy="615" r="10" fill="#6CBAFA"/>
<circle cx="394" cy="639" r="10" fill="#FBC800"/>
<circle cx="370" cy="447" r="10" fill="#00C7A5"/>
<circle cx="370" cy="567" r="10" fill="#8D75F3"/>
<circle cx="370" cy="591" r="10" fill="#6CBAFA"/>
<circle cx="370" cy="615" r="10" fill="#6CBAFA"/>
<circle cx="370" cy="639" r="10" fill="#FBC800"/>
<circle cx="346" cy="447" r="10" fill="#00C7A5"/>
<circle cx="346" cy="567" r="10" fill="#8D75F3"/>
<circle cx="346" cy="591" r="10" fill="#6CBAFA"/>
<circle cx="346" cy="615" r="10" fill="#6CBAFA"/>
<circle cx="346" cy="639" r="10" fill="#FBC800"/>
<circle cx="322" cy="447" r="10" fill="#00C7A5"/>
<circle cx="322" cy="567" r="10" fill="#8D75F3"/>
<circle cx="322" cy="591" r="10" fill="#6CBAFA"/>
<circle cx="322" cy="615" r="10" fill="#6CBAFA"/>
<circle cx="322" cy="639" r="10" fill="#FBC800"/>
<circle cx="298" cy="447" r="10" fill="#00C7A5"/>
<circle cx="298" cy="567" r="10" fill="#8D75F3"/>
<circle cx="298" cy="591" r="10" fill="#6CBAFA"/>
<circle cx="298" cy="615" r="10" fill="#6CBAFA"/>
<circle cx="298" cy="639" r="10" fill="#FBC800"/>
<circle cx="274" cy="447" r="10" fill="#00C7A5"/>
<circle cx="274" cy="567" r="10" fill="#8D75F3"/>
<circle cx="274" cy="591" r="10" fill="#6CBAFA"/>
<circle cx="274" cy="615" r="10" fill="#6CBAFA"/>
<circle cx="274" cy="639" r="10" fill="#FBC800"/>
<circle cx="250" cy="447" r="10" fill="#00C7A5"/>
<circle cx="250" cy="567" r="10" fill="#8D75F3"/>
<circle cx="250" cy="591" r="10" fill="#6CBAFA"/>
<circle cx="250" cy="615" r="10" fill="#6CBAFA"/>
<circle cx="250" cy="639" r="10" fill="#FBC800"/>
<circle cx="226" cy="447" r="10" fill="#00C7A5"/>
<circle cx="226" cy="567" r="10" fill="#8D75F3"/>
<circle cx="226" cy="591" r="10" fill="#6CBAFA"/>
<circle cx="226" cy="615" r="10" fill="#6CBAFA"/>
<circle cx="226" cy="639" r="10" fill="#FBC800"/>
<circle cx="202" cy="447" r="10" fill="#00C7A5"/>
<circle cx="202" cy="567" r="10" fill="#8D75F3"/>
<circle cx="202" cy="591" r="10" fill="#6CBAFA"/>
<circle cx="202" cy="615" r="10" fill="#6CBAFA"/>
<circle cx="178" cy="447" r="10" fill="#00C7A5"/>
<circle cx="178" cy="567" r="10" fill="#8D75F3"/>
<circle cx="154" cy="447" r="10" fill="#00C7A5"/>
<circle cx="130" cy="447" r="10" fill="#00C7A5"/>
<circle cx="106" cy="447" r="10" fill="#00C7A5"/>
<circle cx="82" cy="447" r="10" fill="#00C7A5"/>
<circle cx="58" cy="447" r="10" fill="#00C7A5"/>
<circle cx="34" cy="447" r="10" fill="#00C7A5"/>
<circle cx="10" cy="447" r="10" fill="#00C7A5"/>
<circle cx="442" cy="471" r="10" fill="#00C7A5"/>
<circle cx="442" cy="519" r="10" fill="#8D75F3"/>
<circle cx="418" cy="471" r="10" fill="#00C7A5"/>
<circle cx="418" cy="519" r="10" fill="#8D75F3"/>
<circle cx="394" cy="471" r="10" fill="#00C7A5"/>
<circle cx="394" cy="519" r="10" fill="#8D75F3"/>
<circle cx="370" cy="471" r="10" fill="#00C7A5"/>
<circle cx="370" cy="519" r="10" fill="#8D75F3"/>
<circle cx="346" cy="471" r="10" fill="#00C7A5"/>
<circle cx="346" cy="519" r="10" fill="#8D75F3"/>
<circle cx="322" cy="471" r="10" fill="#00C7A5"/>
<circle cx="322" cy="519" r="10" fill="#8D75F3"/>
<circle cx="494" cy="182" r="10" transform="rotate(-90 494 182)" fill="#00C7A5"/>
<circle cx="298" cy="471" r="10" fill="#00C7A5"/>
<circle cx="298" cy="519" r="10" fill="#8D75F3"/>
<circle cx="494" cy="206" r="10" transform="rotate(-90 494 206)" fill="#00C7A5"/>
<circle cx="274" cy="471" r="10" fill="#00C7A5"/>
<circle cx="274" cy="519" r="10" fill="#8D75F3"/>
<circle cx="494" cy="230" r="10" transform="rotate(-90 494 230)" fill="#00C7A5"/>
<circle cx="250" cy="471" r="10" fill="#00C7A5"/>
<circle cx="250" cy="519" r="10" fill="#8D75F3"/>
<circle cx="494" cy="254" r="10" transform="rotate(-90 494 254)" fill="#00C7A5"/>
<circle cx="226" cy="471" r="10" fill="#00C7A5"/>
<circle cx="226" cy="519" r="10" fill="#8D75F3"/>
<circle cx="494" cy="278" r="10" transform="rotate(-90 494 278)" fill="#00C7A5"/>
<circle cx="202" cy="471" r="10" fill="#00C7A5"/>
<circle cx="202" cy="519" r="10" fill="#8D75F3"/>
<circle cx="494" cy="302" r="10" transform="rotate(-90 494 302)" fill="#00C7A5"/>
<circle cx="178" cy="471" r="10" fill="#00C7A5"/>
<circle cx="178" cy="519" r="10" fill="#8D75F3"/>
<circle cx="494" cy="326" r="10" transform="rotate(-90 494 326)" fill="#00C7A5"/>
<circle cx="154" cy="471" r="10" fill="#00C7A5"/>
<circle cx="154" cy="519" r="10" fill="#8D75F3"/>
<circle cx="494" cy="350" r="10" transform="rotate(-90 494 350)" fill="#00C7A5"/>
<circle cx="130" cy="471" r="10" fill="#00C7A5"/>
<circle cx="130" cy="519" r="10" fill="#8D75F3"/>
<circle cx="494" cy="374" r="10" transform="rotate(-90 494 374)" fill="#00C7A5"/>
<circle cx="106" cy="471" r="10" fill="#00C7A5"/>
<circle cx="106" cy="519" r="10" fill="#8D75F3"/>
<circle cx="494" cy="398" r="10" transform="rotate(-90 494 398)" fill="#00C7A5"/>
<circle cx="82" cy="471" r="10" fill="#00C7A5"/>
<circle cx="82" cy="519" r="10" fill="#8D75F3"/>
<circle cx="494" cy="422" r="10" transform="rotate(-90 494 422)" fill="#00C7A5"/>
<circle cx="58" cy="471" r="10" fill="#00C7A5"/>
<circle cx="58" cy="543" r="10" fill="#8D75F3"/>
<circle cx="493" cy="543" r="10" fill="#8D75F3"/>
<circle cx="485.5" cy="559.5" r="2.5" fill="#8D75F3"/>
<circle cx="494" cy="446" r="10" transform="rotate(-90 494 446)" fill="#00C7A5"/>
<circle cx="34" cy="471" r="10" fill="#00C7A5"/>
<circle cx="82" cy="567" r="10" fill="#8D75F3"/>
<circle cx="494" cy="470" r="10" transform="rotate(-90 494 470)" fill="#00C7A5"/>
<circle cx="10" cy="471" r="10" fill="#00C7A5"/>
<circle cx="130" cy="567" r="10" fill="#8D75F3"/>
<circle cx="494" cy="494" r="10" transform="rotate(-90 494 494)" fill="#00C7A5"/>
<circle cx="442" cy="495" r="10" fill="#00C7A5"/>
<circle cx="442" cy="543" r="10" fill="#8D75F3"/>
<circle cx="418" cy="495" r="10" fill="#00C7A5"/>
<circle cx="418" cy="543" r="10" fill="#8D75F3"/>
<circle cx="394" cy="495" r="10" fill="#00C7A5"/>
<circle cx="394" cy="543" r="10" fill="#8D75F3"/>
<circle cx="370" cy="495" r="10" fill="#00C7A5"/>
<circle cx="370" cy="543" r="10" fill="#8D75F3"/>
<circle cx="346" cy="495" r="10" fill="#00C7A5"/>
<circle cx="346" cy="543" r="10" fill="#8D75F3"/>
<circle cx="322" cy="495" r="10" fill="#00C7A5"/>
<circle cx="322" cy="543" r="10" fill="#8D75F3"/>
<circle cx="518" cy="182" r="10" transform="rotate(-90 518 182)" fill="#00C7A5"/>
<circle cx="488" cy="164" r="4" transform="rotate(-90 488 164)" fill="#00C7A5"/>
<circle cx="182" cy="585" r="4" fill="#6CBAFA"/>
<circle cx="487" cy="611" r="4" fill="#6CBAFA"/>
<circle cx="488" cy="634" r="5" fill="#FBC800"/>
<circle cx="298" cy="495" r="10" fill="#00C7A5"/>
<circle cx="298" cy="543" r="10" fill="#8D75F3"/>
<circle cx="518" cy="206" r="10" transform="rotate(-90 518 206)" fill="#00C7A5"/>
<circle cx="274" cy="495" r="10" fill="#00C7A5"/>
<circle cx="274" cy="543" r="10" fill="#8D75F3"/>
<circle cx="518" cy="230" r="10" transform="rotate(-90 518 230)" fill="#00C7A5"/>
<circle cx="250" cy="495" r="10" fill="#00C7A5"/>
<circle cx="250" cy="543" r="10" fill="#8D75F3"/>
<circle cx="518" cy="254" r="10" transform="rotate(-90 518 254)" fill="#00C7A5"/>
<circle cx="226" cy="495" r="10" fill="#00C7A5"/>
<circle cx="226" cy="543" r="10" fill="#8D75F3"/>
<circle cx="518" cy="278" r="10" transform="rotate(-90 518 278)" fill="#00C7A5"/>
<circle cx="202" cy="495" r="10" fill="#00C7A5"/>
<circle cx="202" cy="543" r="10" fill="#8D75F3"/>
<circle cx="518" cy="302" r="10" transform="rotate(-90 518 302)" fill="#00C7A5"/>
<circle cx="178" cy="495" r="10" fill="#00C7A5"/>
<circle cx="178" cy="543" r="10" fill="#8D75F3"/>
<circle cx="518" cy="326" r="10" transform="rotate(-90 518 326)" fill="#00C7A5"/>
<circle cx="154" cy="495" r="10" fill="#00C7A5"/>
<circle cx="154" cy="543" r="10" fill="#8D75F3"/>
<circle cx="518" cy="350" r="10" transform="rotate(-90 518 350)" fill="#00C7A5"/>
<circle cx="130" cy="495" r="10" fill="#00C7A5"/>
<circle cx="130" cy="543" r="10" fill="#8D75F3"/>
<circle cx="518" cy="374" r="10" transform="rotate(-90 518 374)" fill="#00C7A5"/>
<circle cx="106" cy="495" r="10" fill="#00C7A5"/>
<circle cx="106" cy="543" r="10" fill="#8D75F3"/>
<circle cx="518" cy="398" r="10" transform="rotate(-90 518 398)" fill="#00C7A5"/>
<circle cx="82" cy="495" r="10" fill="#00C7A5"/>
<circle cx="82" cy="543" r="10" fill="#8D75F3"/>
<circle cx="518" cy="422" r="10" transform="rotate(-90 518 422)" fill="#00C7A5"/>
<circle cx="58" cy="495" r="10" fill="#00C7A5"/>
<circle cx="58" cy="519" r="10" fill="#8D75F3"/>
<circle cx="493" cy="519" r="10" fill="#8D75F3"/>
<circle cx="518" cy="446" r="10" transform="rotate(-90 518 446)" fill="#00C7A5"/>
<circle cx="34" cy="495" r="10" fill="#00C7A5"/>
<circle cx="106" cy="567" r="10" fill="#8D75F3"/>
<circle cx="518" cy="470" r="10" transform="rotate(-90 518 470)" fill="#00C7A5"/>
<circle cx="10" cy="495" r="10" fill="#00C7A5"/>
<circle cx="154" cy="567" r="10" fill="#8D75F3"/>
<circle cx="518" cy="494" r="10" transform="rotate(-90 518 494)" fill="#00C7A5"/>
<path d="M9.22119 10.5283C9.11377 11.666 8.69385 12.5547 7.96143 13.1943C7.229 13.8291 6.25488 14.1465 5.03906 14.1465C4.18945 14.1465 3.43994 13.9463 2.79053 13.5459C2.146 13.1406 1.64795 12.5669 1.29639 11.8247C0.944824 11.0825 0.761719 10.2207 0.74707 9.23926V8.24316C0.74707 7.2373 0.925293 6.35107 1.28174 5.58447C1.63818 4.81787 2.14844 4.22705 2.8125 3.81201C3.48145 3.39697 4.25293 3.18945 5.12695 3.18945C6.30371 3.18945 7.25098 3.50928 7.96875 4.14893C8.68652 4.78857 9.104 5.69189 9.22119 6.85889H7.37549C7.2876 6.09229 7.06299 5.54053 6.70166 5.20361C6.34521 4.86182 5.82031 4.69092 5.12695 4.69092C4.32129 4.69092 3.70117 4.98633 3.2666 5.57715C2.83691 6.16309 2.61719 7.0249 2.60742 8.1626V9.10742C2.60742 10.2598 2.8125 11.1387 3.22266 11.7441C3.6377 12.3496 4.24316 12.6523 5.03906 12.6523C5.7666 12.6523 6.31348 12.4888 6.67969 12.1616C7.0459 11.8345 7.27783 11.29 7.37549 10.5283H9.22119ZM12.4658 6.93945C13.0469 6.26562 13.7817 5.92871 14.6704 5.92871C16.3599 5.92871 17.2168 6.89307 17.2412 8.82178V14H15.4614V8.8877C15.4614 8.34082 15.3418 7.95508 15.1025 7.73047C14.8682 7.50098 14.5215 7.38623 14.0625 7.38623C13.3496 7.38623 12.8174 7.70361 12.4658 8.33838V14H10.686V2.75L12.4658 2.75V6.93945ZM20.9399 14H19.1602V6.0752H20.9399V14ZM19.0503 4.01709C19.0503 3.74365 19.1357 3.5166 19.3066 3.33594C19.4824 3.15527 19.7314 3.06494 20.0537 3.06494C20.376 3.06494 20.625 3.15527 20.8008 3.33594C20.9766 3.5166 21.0645 3.74365 21.0645 4.01709C21.0645 4.28564 20.9766 4.51025 20.8008 4.69092C20.625 4.8667 20.376 4.95459 20.0537 4.95459C19.7314 4.95459 19.4824 4.8667 19.3066 4.69092C19.1357 4.51025 19.0503 4.28564 19.0503 4.01709ZM24.5361 6.0752L24.5874 6.99072C25.1733 6.28271 25.9424 5.92871 26.8945 5.92871C28.5449 5.92871 29.3848 6.87354 29.4141 8.76318V14H27.6343V8.86572C27.6343 8.36279 27.5244 7.9917 27.3047 7.75244C27.0898 7.5083 26.7358 7.38623 26.2427 7.38623C25.5249 7.38623 24.9902 7.71094 24.6387 8.36035V14H22.8589V6.0752H24.5361ZM35.9692 14C35.8911 13.8486 35.8228 13.6021 35.7642 13.2603C35.1978 13.8511 34.5044 14.1465 33.6841 14.1465C32.8882 14.1465 32.2388 13.9194 31.7358 13.4653C31.2329 13.0112 30.9814 12.4497 30.9814 11.7808C30.9814 10.936 31.2939 10.2891 31.9189 9.83984C32.5488 9.38574 33.4473 9.15869 34.6143 9.15869H35.7056V8.63867C35.7056 8.22852 35.5908 7.90137 35.3613 7.65723C35.1318 7.4082 34.7827 7.28369 34.314 7.28369C33.9087 7.28369 33.5767 7.38623 33.3179 7.59131C33.0591 7.7915 32.9297 8.04785 32.9297 8.36035H31.1499C31.1499 7.92578 31.2939 7.52051 31.582 7.14453C31.8701 6.76367 32.2607 6.46582 32.7539 6.25098C33.252 6.03613 33.8062 5.92871 34.4165 5.92871C35.3442 5.92871 36.084 6.16309 36.6357 6.63184C37.1875 7.0957 37.4707 7.75 37.4854 8.59473V12.1689C37.4854 12.8818 37.5854 13.4507 37.7856 13.8755V14H35.9692ZM34.0137 12.7183C34.3652 12.7183 34.6948 12.6328 35.0024 12.4619C35.3149 12.291 35.5493 12.0615 35.7056 11.7734V10.2793H34.7461C34.0869 10.2793 33.5913 10.394 33.2593 10.6235C32.9272 10.853 32.7612 11.1777 32.7612 11.5977C32.7612 11.9395 32.8735 12.2129 33.0981 12.418C33.3276 12.6182 33.6328 12.7183 34.0137 12.7183Z" fill="#343434"/>
<path d="M492.258 137.616C491.872 138.119 491.337 138.5 490.654 138.758C489.97 139.017 489.194 139.146 488.325 139.146C487.431 139.146 486.64 138.944 485.952 138.539C485.263 138.133 484.731 137.555 484.355 136.803C483.984 136.046 483.791 135.165 483.776 134.159V133.324C483.776 131.712 484.162 130.455 484.934 129.552C485.705 128.644 486.782 128.189 488.164 128.189C489.35 128.189 490.292 128.482 490.991 129.068C491.689 129.654 492.109 130.499 492.25 131.603H490.434C490.229 130.318 489.484 129.676 488.2 129.676C487.37 129.676 486.738 129.977 486.303 130.577C485.874 131.173 485.651 132.049 485.637 133.207V134.027C485.637 135.179 485.878 136.075 486.362 136.715C486.85 137.35 487.526 137.667 488.391 137.667C489.338 137.667 490.012 137.452 490.412 137.022V134.935H488.215V133.529H492.258V137.616ZM497.612 139.146C496.484 139.146 495.568 138.792 494.865 138.084C494.167 137.372 493.818 136.424 493.818 135.243V135.023C493.818 134.232 493.969 133.526 494.272 132.906C494.58 132.281 495.009 131.795 495.561 131.449C496.113 131.102 496.728 130.929 497.407 130.929C498.486 130.929 499.318 131.273 499.904 131.961C500.495 132.65 500.791 133.624 500.791 134.884V135.602H495.612C495.666 136.256 495.883 136.773 496.264 137.154C496.65 137.535 497.133 137.726 497.714 137.726C498.53 137.726 499.194 137.396 499.707 136.737L500.666 137.652C500.349 138.126 499.924 138.495 499.392 138.758C498.864 139.017 498.271 139.146 497.612 139.146ZM497.399 132.357C496.911 132.357 496.516 132.528 496.213 132.87C495.915 133.211 495.725 133.688 495.642 134.298H499.033V134.166C498.994 133.57 498.835 133.121 498.557 132.818C498.278 132.511 497.893 132.357 497.399 132.357ZM506.328 132.701C506.093 132.662 505.852 132.643 505.603 132.643C504.787 132.643 504.238 132.955 503.955 133.58V139H502.175V131.075H503.874L503.918 131.961C504.348 131.273 504.943 130.929 505.705 130.929C505.959 130.929 506.169 130.963 506.335 131.031L506.328 132.701ZM509.125 131.075L509.177 131.903C509.733 131.253 510.495 130.929 511.462 130.929C512.521 130.929 513.247 131.334 513.637 132.145C514.213 131.334 515.024 130.929 516.069 130.929C516.943 130.929 517.592 131.17 518.017 131.654C518.447 132.137 518.667 132.85 518.676 133.792V139H516.896V133.844C516.896 133.341 516.787 132.972 516.567 132.738C516.347 132.503 515.983 132.386 515.476 132.386C515.07 132.386 514.738 132.496 514.479 132.716C514.226 132.931 514.047 133.214 513.945 133.565L513.952 139H512.172V133.785C512.148 132.853 511.672 132.386 510.744 132.386C510.031 132.386 509.526 132.677 509.228 133.258V139H507.448V131.075H509.125ZM525.239 139C525.161 138.849 525.092 138.602 525.034 138.26C524.467 138.851 523.774 139.146 522.954 139.146C522.158 139.146 521.508 138.919 521.005 138.465C520.502 138.011 520.251 137.45 520.251 136.781C520.251 135.936 520.563 135.289 521.188 134.84C521.818 134.386 522.717 134.159 523.884 134.159H524.975V133.639C524.975 133.229 524.86 132.901 524.631 132.657C524.401 132.408 524.052 132.284 523.583 132.284C523.178 132.284 522.846 132.386 522.587 132.591C522.329 132.792 522.199 133.048 522.199 133.36H520.419C520.419 132.926 520.563 132.521 520.852 132.145C521.14 131.764 521.53 131.466 522.023 131.251C522.521 131.036 523.076 130.929 523.686 130.929C524.614 130.929 525.354 131.163 525.905 131.632C526.457 132.096 526.74 132.75 526.755 133.595V137.169C526.755 137.882 526.855 138.451 527.055 138.875V139H525.239ZM523.283 137.718C523.635 137.718 523.964 137.633 524.272 137.462C524.584 137.291 524.819 137.062 524.975 136.773V135.279H524.016C523.356 135.279 522.861 135.394 522.529 135.624C522.197 135.853 522.031 136.178 522.031 136.598C522.031 136.939 522.143 137.213 522.368 137.418C522.597 137.618 522.902 137.718 523.283 137.718ZM530.271 131.075L530.322 131.991C530.908 131.283 531.677 130.929 532.629 130.929C534.279 130.929 535.119 131.874 535.148 133.763V139H533.369V133.866C533.369 133.363 533.259 132.992 533.039 132.752C532.824 132.508 532.47 132.386 531.977 132.386C531.259 132.386 530.725 132.711 530.373 133.36V139H528.593V131.075H530.271ZM539.741 136.451L541.352 131.075H543.249L540.1 140.201C539.616 141.534 538.796 142.201 537.639 142.201C537.38 142.201 537.094 142.157 536.782 142.069V140.692L537.119 140.714C537.568 140.714 537.905 140.631 538.129 140.465C538.359 140.304 538.54 140.03 538.671 139.645L538.928 138.963L536.145 131.075H538.063L539.741 136.451Z" fill="#343434"/>
<rect x="190" y="268" width="72" height="21" fill="white"/>
<rect x="468" y="316" width="72" height="21" fill="white"/>
<path d="M216.37 278.505C216.37 279.245 216.255 279.94 216.025 280.59C215.805 281.24 215.515 281.845 215.155 282.405C214.805 282.955 214.405 283.45 213.955 283.89C213.515 284.33 213.07 284.7 212.62 285H209.515C210.155 284.54 210.73 284.105 211.24 283.695C211.75 283.275 212.19 282.855 212.56 282.435C212.94 282.015 213.25 281.59 213.49 281.16C213.73 280.72 213.905 280.25 214.015 279.75L213.88 279.705C213.79 279.905 213.68 280.1 213.55 280.29C213.43 280.48 213.275 280.65 213.085 280.8C212.905 280.94 212.69 281.055 212.44 281.145C212.19 281.235 211.9 281.28 211.57 281.28C211.14 281.28 210.735 281.205 210.355 281.055C209.985 280.895 209.66 280.675 209.38 280.395C209.11 280.115 208.895 279.775 208.735 279.375C208.585 278.975 208.51 278.525 208.51 278.025C208.51 277.485 208.6 276.99 208.78 276.54C208.97 276.09 209.235 275.705 209.575 275.385C209.925 275.055 210.34 274.8 210.82 274.62C211.3 274.44 211.84 274.35 212.44 274.35C213.06 274.35 213.615 274.45 214.105 274.65C214.595 274.84 215.005 275.12 215.335 275.49C215.675 275.85 215.93 276.285 216.1 276.795C216.28 277.305 216.37 277.875 216.37 278.505ZM212.44 279.555C212.94 279.555 213.33 279.42 213.61 279.15C213.89 278.87 214.03 278.475 214.03 277.965V277.695C214.03 277.185 213.89 276.795 213.61 276.525C213.33 276.245 212.94 276.105 212.44 276.105C211.94 276.105 211.55 276.245 211.27 276.525C210.99 276.795 210.85 277.185 210.85 277.695V277.965C210.85 278.475 210.99 278.87 211.27 279.15C211.55 279.42 211.94 279.555 212.44 279.555ZM224.824 276.495H220.069L219.844 279.81H219.964C220.064 279.56 220.174 279.335 220.294 279.135C220.424 278.925 220.574 278.75 220.744 278.61C220.914 278.46 221.119 278.345 221.359 278.265C221.599 278.185 221.884 278.145 222.214 278.145C222.664 278.145 223.084 278.22 223.474 278.37C223.864 278.52 224.204 278.74 224.494 279.03C224.784 279.31 225.014 279.66 225.184 280.08C225.354 280.49 225.439 280.955 225.439 281.475C225.439 282.005 225.349 282.5 225.169 282.96C224.999 283.41 224.739 283.8 224.389 284.13C224.049 284.46 223.629 284.72 223.129 284.91C222.629 285.09 222.059 285.18 221.419 285.18C220.909 285.18 220.459 285.125 220.069 285.015C219.679 284.905 219.334 284.76 219.034 284.58C218.734 284.39 218.474 284.175 218.254 283.935C218.034 283.695 217.844 283.44 217.684 283.17L219.319 281.88C219.549 282.29 219.824 282.64 220.144 282.93C220.464 283.21 220.894 283.35 221.434 283.35C221.974 283.35 222.379 283.195 222.649 282.885C222.929 282.575 223.069 282.165 223.069 281.655V281.535C223.069 281.055 222.929 280.675 222.649 280.395C222.369 280.115 221.984 279.975 221.494 279.975C221.084 279.975 220.744 280.06 220.474 280.23C220.214 280.39 220.014 280.55 219.874 280.71L218.029 280.455L218.419 274.53H224.824V276.495ZM230.488 285.18C229.118 285.18 228.103 284.705 227.443 283.755C226.783 282.805 226.453 281.475 226.453 279.765C226.453 278.055 226.783 276.725 227.443 275.775C228.103 274.825 229.118 274.35 230.488 274.35C231.858 274.35 232.873 274.825 233.533 275.775C234.193 276.725 234.523 278.055 234.523 279.765C234.523 281.475 234.193 282.805 233.533 283.755C232.873 284.705 231.858 285.18 230.488 285.18ZM230.488 283.275C231.088 283.275 231.503 283.055 231.733 282.615C231.963 282.175 232.078 281.555 232.078 280.755V278.775C232.078 277.975 231.963 277.355 231.733 276.915C231.503 276.475 231.088 276.255 230.488 276.255C229.888 276.255 229.473 276.475 229.243 276.915C229.013 277.355 228.898 277.975 228.898 278.775V280.755C228.898 281.555 229.013 282.175 229.243 282.615C229.473 283.055 229.888 283.275 230.488 283.275ZM239.482 285.18C238.112 285.18 237.097 284.705 236.437 283.755C235.777 282.805 235.447 281.475 235.447 279.765C235.447 278.055 235.777 276.725 236.437 275.775C237.097 274.825 238.112 274.35 239.482 274.35C240.852 274.35 241.867 274.825 242.527 275.775C243.187 276.725 243.517 278.055 243.517 279.765C243.517 281.475 243.187 282.805 242.527 283.755C241.867 284.705 240.852 285.18 239.482 285.18ZM239.482 283.275C240.082 283.275 240.497 283.055 240.727 282.615C240.957 282.175 241.072 281.555 241.072 280.755V278.775C241.072 277.975 240.957 277.355 240.727 276.915C240.497 276.475 240.082 276.255 239.482 276.255C238.882 276.255 238.467 276.475 238.237 276.915C238.007 277.355 237.892 277.975 237.892 278.775V280.755C237.892 281.555 238.007 282.175 238.237 282.615C238.467 283.055 238.882 283.275 239.482 283.275Z" fill="#00C7A5"/>
<path d="M495.49 331L499 322.36H495.73V324.265H493.825V320.53H501.235V322.48L497.86 331H495.49ZM503.404 331V329.185H506.224V322.165H506.089L503.959 324.955L502.519 323.83L505.024 320.53H508.474V329.185H510.694V331H503.404ZM515.488 331.18C514.118 331.18 513.103 330.705 512.443 329.755C511.783 328.805 511.453 327.475 511.453 325.765C511.453 324.055 511.783 322.725 512.443 321.775C513.103 320.825 514.118 320.35 515.488 320.35C516.858 320.35 517.873 320.825 518.533 321.775C519.193 322.725 519.523 324.055 519.523 325.765C519.523 327.475 519.193 328.805 518.533 329.755C517.873 330.705 516.858 331.18 515.488 331.18ZM515.488 329.275C516.088 329.275 516.503 329.055 516.733 328.615C516.963 328.175 517.078 327.555 517.078 326.755V324.775C517.078 323.975 516.963 323.355 516.733 322.915C516.503 322.475 516.088 322.255 515.488 322.255C514.888 322.255 514.473 322.475 514.243 322.915C514.013 323.355 513.898 323.975 513.898 324.775V326.755C513.898 327.555 514.013 328.175 514.243 328.615C514.473 329.055 514.888 329.275 515.488 329.275Z" fill="#00C7A5"/>
</svg>
