<?xml version="1.0" encoding="iso-8859-1"?>
<!-- Generator: Adobe Illustrator 19.0.0, SVG Export Plug-In . SVG Version: 6.00 Build 0)  -->
<svg version="1.1" id="Capa_1" xmlns="http://www.w3.org/2000/svg" xmlns:xlink="http://www.w3.org/1999/xlink" x="0px" y="0px"
	 viewBox="0 0 512 512" style="enable-background:new 0 0 512 512;" xml:space="preserve">
<g>
	<g>
		<path d="M511.994,215.146c-0.001-0.128-0.006-0.255-0.012-0.383c-0.006-0.122-0.015-0.244-0.025-0.365
			c-0.007-0.085-0.013-0.171-0.022-0.255c-0.014-0.122-0.032-0.242-0.05-0.363c-0.017-0.11-0.036-0.221-0.056-0.33
			c-0.018-0.101-0.034-0.203-0.056-0.302c-0.023-0.107-0.051-0.214-0.078-0.321c-0.026-0.104-0.054-0.207-0.084-0.31
			c-0.033-0.114-0.063-0.23-0.099-0.343c-0.029-0.088-0.062-0.176-0.093-0.264c-0.037-0.106-0.078-0.212-0.119-0.316
			c-0.047-0.121-0.094-0.242-0.147-0.361c-0.031-0.07-0.064-0.141-0.097-0.211c-0.052-0.112-0.108-0.223-0.166-0.334
			c-0.061-0.118-0.122-0.237-0.189-0.352c-0.02-0.035-0.035-0.072-0.055-0.107c-0.015-0.025-0.032-0.048-0.047-0.073
			c-0.066-0.112-0.138-0.223-0.209-0.332c-0.068-0.106-0.139-0.211-0.211-0.314c-0.044-0.063-0.086-0.13-0.133-0.192
			c-0.075-0.102-0.157-0.2-0.235-0.299c-0.071-0.089-0.144-0.177-0.218-0.264c-0.062-0.072-0.12-0.149-0.185-0.219
			c-0.076-0.085-0.16-0.165-0.24-0.248c-0.075-0.078-0.153-0.155-0.231-0.231c-0.081-0.078-0.16-0.16-0.243-0.235
			c-0.072-0.065-0.15-0.125-0.223-0.188c-0.086-0.074-0.175-0.147-0.264-0.218c-0.098-0.078-0.195-0.158-0.295-0.232
			c-0.063-0.046-0.131-0.089-0.195-0.135c-0.103-0.072-0.209-0.143-0.314-0.211c-0.109-0.07-0.219-0.142-0.33-0.208
			c-0.026-0.015-0.048-0.033-0.074-0.048l-86.485-50.161V11.399c0-5.544-4.495-10.039-10.039-10.039h-308.96
			c-5.544,0-10.039,4.496-10.039,10.039v145.019L5.001,206.579c-0.027,0.016-0.05,0.034-0.077,0.05
			c-0.108,0.064-0.215,0.134-0.321,0.202c-0.108,0.07-0.216,0.142-0.322,0.216c-0.064,0.045-0.132,0.088-0.195,0.135
			c-0.098,0.072-0.193,0.151-0.289,0.227c-0.092,0.073-0.183,0.148-0.272,0.224c-0.073,0.062-0.149,0.122-0.22,0.186
			c-0.082,0.074-0.161,0.156-0.241,0.233c-0.08,0.077-0.16,0.157-0.237,0.237c-0.078,0.081-0.16,0.16-0.235,0.243
			c-0.063,0.07-0.122,0.146-0.184,0.219c-0.076,0.089-0.15,0.179-0.223,0.27c-0.077,0.097-0.157,0.193-0.229,0.292
			c-0.046,0.063-0.089,0.13-0.135,0.194c-0.073,0.105-0.145,0.212-0.215,0.32c-0.069,0.107-0.139,0.214-0.204,0.324
			c-0.015,0.026-0.034,0.05-0.049,0.076c-0.021,0.035-0.035,0.072-0.055,0.107c-0.066,0.117-0.128,0.238-0.191,0.358
			c-0.055,0.107-0.109,0.216-0.161,0.325c-0.033,0.071-0.067,0.142-0.098,0.214c-0.053,0.12-0.1,0.243-0.149,0.366
			c-0.04,0.102-0.079,0.205-0.116,0.308c-0.032,0.089-0.065,0.178-0.094,0.267c-0.037,0.114-0.068,0.231-0.1,0.347
			c-0.029,0.101-0.057,0.202-0.082,0.304c-0.027,0.107-0.056,0.215-0.079,0.323c-0.021,0.1-0.037,0.203-0.056,0.305
			c-0.02,0.108-0.039,0.217-0.055,0.326c-0.018,0.121-0.036,0.243-0.05,0.365c-0.009,0.085-0.015,0.171-0.022,0.256
			c-0.01,0.121-0.019,0.242-0.025,0.364c-0.006,0.128-0.011,0.255-0.012,0.383c0,0.039-0.006,0.077-0.006,0.116v285.337
			c0,5.544,4.496,10.039,10.039,10.039h491.921c5.544,0,10.039-4.496,10.039-10.039V215.263
			C512,215.224,511.995,215.186,511.994,215.146z M420.514,179.63l61.437,35.633L420.514,250.9V179.63z M111.553,21.439h288.881
			v241.108l-144.435,83.779L111.553,262.54V21.439z M91.475,179.631v71.262h-0.001l-61.427-35.631L91.475,179.631z M491.92,490.561
			H20.078V232.692l230.884,133.924c1.558,0.903,3.297,1.355,5.038,1.355c1.741,0,3.48-0.452,5.038-1.355L491.92,232.693V490.561z"/>
	</g>
</g>
<g>
	<g>
		<path d="M354.745,87.36H157.254c-5.544,0-10.039,4.496-10.039,10.039c0,5.544,4.495,10.039,10.039,10.039h197.491
			c5.544,0,10.039-4.496,10.039-10.039C364.784,91.855,360.289,87.36,354.745,87.36z"/>
	</g>
</g>
<g>
	<g>
		<path d="M354.745,139.83H157.254c-5.544,0-10.039,4.496-10.039,10.039c0,5.544,4.495,10.039,10.039,10.039h197.491
			c5.544,0,10.039-4.496,10.039-10.039C364.784,144.326,360.289,139.83,354.745,139.83z"/>
	</g>
</g>
<g>
	<g>
		<path d="M354.745,192.303H157.254c-5.544,0-10.039,4.496-10.039,10.039c0,5.544,4.495,10.039,10.039,10.039h197.491
			c5.544,0,10.039-4.496,10.039-10.039C364.784,196.799,360.289,192.303,354.745,192.303z"/>
	</g>
</g>
<g>
	<g>
		<path d="M255.999,244.774h-98.745c-5.544,0-10.039,4.496-10.039,10.039c0,5.544,4.495,10.039,10.039,10.039h98.745
			c5.544,0,10.039-4.496,10.039-10.039C266.038,249.269,261.543,244.774,255.999,244.774z"/>
	</g>
</g>
<g>
	<g>
		<path d="M414.849,456.115h-83.423c-12.92,0-12.941,20.079,0,20.079h83.423C427.769,476.193,427.79,456.115,414.849,456.115z"/>
	</g>
</g>
<g>
	<g>
		<path d="M452.404,453.928c-12.92,0-12.941,20.079,0,20.079C465.323,474.007,465.344,453.928,452.404,453.928z"/>
	</g>
</g>
<g>
</g>
<g>
</g>
<g>
</g>
<g>
</g>
<g>
</g>
<g>
</g>
<g>
</g>
<g>
</g>
<g>
</g>
<g>
</g>
<g>
</g>
<g>
</g>
<g>
</g>
<g>
</g>
<g>
</g>
</svg>
