<svg width="222" height="475" viewBox="0 0 222 475" fill="none" xmlns="http://www.w3.org/2000/svg">
<circle r="7.5" transform="matrix(-1 -8.74228e-08 -8.74228e-08 1 7.50024 53.5)" fill="#6CBAFA"/>
<circle r="7.5" transform="matrix(-1 -8.74228e-08 -8.74228e-08 1 30.5002 7.5)" fill="#6CBAFA"/>
<circle r="7.5" transform="matrix(-1 -8.74228e-08 -8.74228e-08 1 53.5002 7.5)" fill="#6CBAFA"/>
<circle r="7.5" transform="matrix(-1 -8.74228e-08 -8.74228e-08 1 122.5 30.5)" fill="#6CBAFA"/>
<circle r="7.5" transform="matrix(-1 -8.74228e-08 -8.74228e-08 1 99.5002 7.5)" fill="#6CBAFA"/>
<circle r="7.5" transform="matrix(-1 -8.74228e-08 -8.74228e-08 1 99.5002 30.5)" fill="#6CBAFA"/>
<circle r="7.5" transform="matrix(-1 -8.74228e-08 -8.74228e-08 1 145.5 30.5)" fill="#6CBAFA"/>
<circle r="7.5" transform="matrix(-1 -8.74228e-08 -8.74228e-08 1 122.5 7.5)" fill="#6CBAFA"/>
<circle r="7.5" transform="matrix(-1 -8.74228e-08 -8.74228e-08 1 145.5 7.5)" fill="#6CBAFA"/>
<circle r="7.5" transform="matrix(-1 -8.74228e-08 -8.74228e-08 1 168.5 30.5)" fill="#6CBAFA"/>
<circle r="7.5" transform="matrix(-1 -8.74228e-08 -8.74228e-08 1 122.5 53.5)" fill="#6CBAFA"/>
<circle r="7.5" transform="matrix(-1 -8.74228e-08 -8.74228e-08 1 99.5002 53.5)" fill="#6CBAFA"/>
<circle r="7.5" transform="matrix(-1 -8.74228e-08 -8.74228e-08 1 145.5 53.5)" fill="#6CBAFA"/>
<circle r="7.5" transform="matrix(-1 -8.74228e-08 -8.74228e-08 1 168.5 53.5)" fill="#6CBAFA"/>
<circle r="7.5" transform="matrix(-1 -8.74228e-08 -8.74228e-08 1 191.5 53.5)" fill="#6CBAFA"/>
<circle r="7.5" transform="matrix(-1 -8.74228e-08 -8.74228e-08 1 122.5 76.5)" fill="#6CBAFA"/>
<circle r="7.5" transform="matrix(-1 -8.74228e-08 -8.74228e-08 1 99.5002 76.5)" fill="#6CBAFA"/>
<circle r="7.5" transform="matrix(-1 -8.74228e-08 -8.74228e-08 1 145.5 76.5)" fill="#6CBAFA"/>
<circle r="7.5" transform="matrix(-1 -8.74228e-08 -8.74228e-08 1 168.5 76.5)" fill="#6CBAFA"/>
<circle r="7.5" transform="matrix(-1 -8.74228e-08 -8.74228e-08 1 191.5 76.5)" fill="#6CBAFA"/>
<circle r="7.5" transform="matrix(-1 -8.74228e-08 -8.74228e-08 1 214.5 76.5)" fill="#6CBAFA"/>
<circle r="7.5" transform="matrix(-1 -8.74228e-08 -8.74228e-08 1 122.5 99.5)" fill="#6CBAFA"/>
<circle r="7.5" transform="matrix(-1 -8.74228e-08 -8.74228e-08 1 99.5002 99.5)" fill="#6CBAFA"/>
<circle r="7.5" transform="matrix(-1 -8.74228e-08 -8.74228e-08 1 145.5 99.5)" fill="#6CBAFA"/>
<circle r="7.5" transform="matrix(-1 -8.74228e-08 -8.74228e-08 1 168.5 99.5)" fill="#6CBAFA"/>
<circle r="7.5" transform="matrix(-1 -8.74228e-08 -8.74228e-08 1 191.5 99.5)" fill="#6CBAFA"/>
<circle r="7.5" transform="matrix(-1 -8.74228e-08 -8.74228e-08 1 214.5 99.5)" fill="#6CBAFA"/>
<circle r="7.5" transform="matrix(-1 -8.74228e-08 -8.74228e-08 1 7.50024 76.5)" fill="#6CBAFA"/>
<circle r="7.5" transform="matrix(-1 -8.74228e-08 -8.74228e-08 1 99.5002 145.5)" fill="#6CBAFA"/>
<circle r="7.5" transform="matrix(-1 -8.74228e-08 -8.74228e-08 1 7.50024 168.5)" fill="#6CBAFA"/>
<circle r="7.5" transform="matrix(-1 -8.74228e-08 -8.74228e-08 1 122.5 145.5)" fill="#6CBAFA"/>
<circle r="7.5" transform="matrix(-1 -8.74228e-08 -8.74228e-08 1 30.5002 191.5)" fill="#6CBAFA"/>
<circle r="7.5" transform="matrix(-1 -8.74228e-08 -8.74228e-08 1 7.50024 191.5)" fill="#6CBAFA"/>
<circle r="7.5" transform="matrix(-1 -8.74228e-08 -8.74228e-08 1 99.5002 168.5)" fill="#6CBAFA"/>
<circle r="7.5" transform="matrix(-1 -8.74228e-08 -8.74228e-08 1 53.5002 168.5)" fill="#6CBAFA"/>
<circle r="7.5" transform="matrix(-1 -8.74228e-08 -8.74228e-08 1 30.5002 168.5)" fill="#6CBAFA"/>
<circle r="7.5" transform="matrix(-1 -8.74228e-08 -8.74228e-08 1 145.5 145.5)" fill="#6CBAFA"/>
<circle r="7.5" transform="matrix(-1 -8.74228e-08 -8.74228e-08 1 168.5 145.5)" fill="#6CBAFA"/>
<circle r="7.5" transform="matrix(-1 -8.74228e-08 -8.74228e-08 1 122.5 168.5)" fill="#6CBAFA"/>
<circle r="7.5" transform="matrix(-1 -8.74228e-08 -8.74228e-08 1 191.5 7.5)" fill="#6CBAFA"/>
<circle r="7.5" transform="matrix(-1 -8.74228e-08 -8.74228e-08 1 53.5002 191.5)" fill="#6CBAFA"/>
<circle r="7.5" transform="matrix(-1 -8.74228e-08 -8.74228e-08 1 168.5 168.5)" fill="#6CBAFA"/>
<circle r="7.5" transform="matrix(-1 -8.74228e-08 -8.74228e-08 1 191.5 145.5)" fill="#6CBAFA"/>
<circle r="7.5" transform="matrix(-1 -8.74228e-08 -8.74228e-08 1 214.5 7.5)" fill="#6CBAFA"/>
<circle r="7.5" transform="matrix(-1 -8.74228e-08 -8.74228e-08 1 30.5002 30.5)" fill="#6CBAFA"/>
<circle r="7.5" transform="matrix(-1 -8.74228e-08 -8.74228e-08 1 145.5 168.5)" fill="#6CBAFA"/>
<circle r="7.5" transform="matrix(-1 -8.74228e-08 -8.74228e-08 1 122.5 191.5)" fill="#6CBAFA"/>
<circle r="7.5" transform="matrix(-1 -8.74228e-08 -8.74228e-08 1 191.5 168.5)" fill="#6CBAFA"/>
<circle r="7.5" transform="matrix(-1 -8.74228e-08 -8.74228e-08 1 214.5 145.5)" fill="#6CBAFA"/>
<circle r="7.5" transform="matrix(-1 -8.74228e-08 -8.74228e-08 1 53.5002 30.5)" fill="#6CBAFA"/>
<circle r="7.5" transform="matrix(-1 -8.74228e-08 -8.74228e-08 1 53.5002 145.5)" fill="#6CBAFA"/>
<circle r="7.5" transform="matrix(-1 -8.74228e-08 -8.74228e-08 1 7.50024 145.5)" fill="#6CBAFA"/>
<circle r="7.5" transform="matrix(-1 -8.74228e-08 -8.74228e-08 1 76.5002 191.5)" fill="#6CBAFA"/>
<circle r="7.5" transform="matrix(-1 -8.74228e-08 -8.74228e-08 1 145.5 191.5)" fill="#6CBAFA"/>
<circle r="7.5" transform="matrix(-1 -8.74228e-08 -8.74228e-08 1 99.5002 191.5)" fill="#6CBAFA"/>
<circle r="7.5" transform="matrix(-1 -8.74228e-08 -8.74228e-08 1 30.5002 145.5)" fill="#6CBAFA"/>
<circle r="7.5" transform="matrix(-1 -8.74228e-08 -8.74228e-08 1 76.5002 30.5)" fill="#6CBAFA"/>
<circle r="7.5" transform="matrix(-1 -8.74228e-08 -8.74228e-08 1 191.5 191.5)" fill="#6CBAFA"/>
<circle r="7.5" transform="matrix(-1 -8.74228e-08 -8.74228e-08 1 168.5 191.5)" fill="#6CBAFA"/>
<circle cx="168.5" cy="7.5" r="7.5" fill="#6CBAFA"/>
<circle cx="191.5" cy="30.5" r="7.5" fill="#6CBAFA"/>
<circle cx="214.5" cy="53.5" r="7.5" fill="#6CBAFA"/>
<circle cx="76.5002" cy="7.5" r="7.5" fill="#6CBAFA"/>
<circle r="7.5" transform="matrix(-1 -8.74228e-08 -8.74228e-08 1 7.50024 122.5)" fill="#6CBAFA"/>
<circle r="7.5" transform="matrix(-1 -8.74228e-08 -8.74228e-08 1 122.5 122.5)" fill="#6CBAFA"/>
<circle r="7.5" transform="matrix(-1 -8.74228e-08 -8.74228e-08 1 76.5002 76.5)" fill="#6CBAFA"/>
<circle r="7.5" transform="matrix(-1 -8.74228e-08 -8.74228e-08 1 76.5002 122.5)" fill="#6CBAFA"/>
<circle r="7.5" transform="matrix(-1 -8.74228e-08 -8.74228e-08 1 76.5002 99.5)" fill="#6CBAFA"/>
<circle r="7.5" transform="matrix(-1 -8.74228e-08 -8.74228e-08 1 76.5002 168.5)" fill="#6CBAFA"/>
<circle r="7.5" transform="matrix(-1 -8.74228e-08 -8.74228e-08 1 214.5 30.5)" fill="#6CBAFA"/>
<circle r="7.5" transform="matrix(-1 -8.74228e-08 -8.74228e-08 1 7.50024 30.5)" fill="#6CBAFA"/>
<circle r="7.5" transform="matrix(-1 -8.74228e-08 -8.74228e-08 1 76.5002 53.5)" fill="#6CBAFA"/>
<circle r="7.5" transform="matrix(-1 -8.74228e-08 -8.74228e-08 1 53.5002 76.5)" fill="#6CBAFA"/>
<circle r="7.5" transform="matrix(-1 -8.74228e-08 -8.74228e-08 1 53.5002 122.5)" fill="#6CBAFA"/>
<circle r="7.5" transform="matrix(-1 -8.74228e-08 -8.74228e-08 1 53.5002 99.5)" fill="#6CBAFA"/>
<circle r="7.5" transform="matrix(-1 -8.74228e-08 -8.74228e-08 1 76.5002 145.5)" fill="#6CBAFA"/>
<circle r="7.5" transform="matrix(-1 -8.74228e-08 -8.74228e-08 1 30.5002 53.5)" fill="#6CBAFA"/>
<circle r="7.5" transform="matrix(-1 -8.74228e-08 -8.74228e-08 1 30.5002 99.5)" fill="#6CBAFA"/>
<circle r="7.5" transform="matrix(-1 -8.74228e-08 -8.74228e-08 1 30.5002 76.5)" fill="#6CBAFA"/>
<circle r="7.5" transform="matrix(-1 -8.74228e-08 -8.74228e-08 1 30.5002 122.5)" fill="#6CBAFA"/>
<circle r="7.5" transform="matrix(-1 -8.74228e-08 -8.74228e-08 1 7.50024 7.5)" fill="#6CBAFA"/>
<circle r="7.5" transform="matrix(-1 -8.74228e-08 -8.74228e-08 1 53.5002 53.5)" fill="#6CBAFA"/>
<circle r="7.5" transform="matrix(-1 -8.74228e-08 -8.74228e-08 1 99.5002 122.5)" fill="#6CBAFA"/>
<circle r="7.5" transform="matrix(-1 -8.74228e-08 -8.74228e-08 1 145.5 122.5)" fill="#6CBAFA"/>
<circle r="7.5" transform="matrix(-1 -8.74228e-08 -8.74228e-08 1 168.5 122.5)" fill="#6CBAFA"/>
<circle r="7.5" transform="matrix(-1 -8.74228e-08 -8.74228e-08 1 191.5 122.5)" fill="#6CBAFA"/>
<circle r="7.5" transform="matrix(-1 -8.74228e-08 -8.74228e-08 1 214.5 122.5)" fill="#6CBAFA"/>
<circle r="7.5" transform="matrix(-1 -8.74228e-08 -8.74228e-08 1 214.5 191.5)" fill="#6CBAFA"/>
<circle r="7.5" transform="matrix(-1 -8.74228e-08 -8.74228e-08 1 214.5 168.5)" fill="#6CBAFA"/>
<circle r="7.5" transform="matrix(-1 -8.74228e-08 -8.74228e-08 1 7.50024 99.5)" fill="#6CBAFA"/>
<circle r="7.5" transform="matrix(-1 -8.74228e-08 -8.74228e-08 1 7.50024 260.5)" fill="#6CBAFA"/>
<circle r="7.5" transform="matrix(-1 -8.74228e-08 -8.74228e-08 1 30.5002 214.5)" fill="#6CBAFA"/>
<circle r="7.5" transform="matrix(-1 -8.74228e-08 -8.74228e-08 1 53.5002 214.5)" fill="#6CBAFA"/>
<circle r="7.5" transform="matrix(-1 -8.74228e-08 -8.74228e-08 1 122.5 237.5)" fill="#6CBAFA"/>
<circle r="7.5" transform="matrix(-1 -8.74228e-08 -8.74228e-08 1 99.5002 214.5)" fill="#6CBAFA"/>
<circle r="7.5" transform="matrix(-1 -8.74228e-08 -8.74228e-08 1 99.5002 237.5)" fill="#6CBAFA"/>
<circle r="7.5" transform="matrix(-1 -8.74228e-08 -8.74228e-08 1 145.5 237.5)" fill="#6CBAFA"/>
<circle r="7.5" transform="matrix(-1 -8.74228e-08 -8.74228e-08 1 122.5 214.5)" fill="#6CBAFA"/>
<circle r="7.5" transform="matrix(-1 -8.74228e-08 -8.74228e-08 1 145.5 214.5)" fill="#6CBAFA"/>
<circle r="7.5" transform="matrix(-1 -8.74228e-08 -8.74228e-08 1 168.5 237.5)" fill="#6CBAFA"/>
<circle r="7.5" transform="matrix(-1 -8.74228e-08 -8.74228e-08 1 122.5 260.5)" fill="#6CBAFA"/>
<circle r="7.5" transform="matrix(-1 -8.74228e-08 -8.74228e-08 1 99.5002 260.5)" fill="#6CBAFA"/>
<circle r="7.5" transform="matrix(-1 -8.74228e-08 -8.74228e-08 1 145.5 260.5)" fill="#6CBAFA"/>
<circle r="7.5" transform="matrix(-1 -8.74228e-08 -8.74228e-08 1 168.5 260.5)" fill="#6CBAFA"/>
<circle r="7.5" transform="matrix(-1 -8.74228e-08 -8.74228e-08 1 191.5 260.5)" fill="#6CBAFA"/>
<circle r="7.5" transform="matrix(-1 -8.74228e-08 -8.74228e-08 1 122.5 283.5)" fill="#6CBAFA"/>
<circle r="7.5" transform="matrix(-1 -8.74228e-08 -8.74228e-08 1 99.5002 283.5)" fill="#6CBAFA"/>
<circle r="7.5" transform="matrix(-1 -8.74228e-08 -8.74228e-08 1 145.5 283.5)" fill="#6CBAFA"/>
<circle r="7.5" transform="matrix(-1 -8.74228e-08 -8.74228e-08 1 168.5 283.5)" fill="#6CBAFA"/>
<circle r="7.5" transform="matrix(-1 -8.74228e-08 -8.74228e-08 1 191.5 283.5)" fill="#6CBAFA"/>
<circle r="7.5" transform="matrix(-1 -8.74228e-08 -8.74228e-08 1 214.5 283.5)" fill="#6CBAFA"/>
<circle r="7.5" transform="matrix(-1 -8.74228e-08 -8.74228e-08 1 122.5 306.5)" fill="#6CBAFA"/>
<circle r="7.5" transform="matrix(-1 -8.74228e-08 -8.74228e-08 1 99.5002 306.5)" fill="#6CBAFA"/>
<circle r="7.5" transform="matrix(-1 -8.74228e-08 -8.74228e-08 1 145.5 306.5)" fill="#6CBAFA"/>
<circle r="7.5" transform="matrix(-1 -8.74228e-08 -8.74228e-08 1 168.5 306.5)" fill="#6CBAFA"/>
<circle r="7.5" transform="matrix(-1 -8.74228e-08 -8.74228e-08 1 191.5 306.5)" fill="#6CBAFA"/>
<circle r="7.5" transform="matrix(-1 -8.74228e-08 -8.74228e-08 1 214.5 306.5)" fill="#6CBAFA"/>
<circle r="7.5" transform="matrix(-1 -8.74228e-08 -8.74228e-08 1 7.50024 283.5)" fill="#6CBAFA"/>
<circle r="7.5" transform="matrix(-1 -8.74228e-08 -8.74228e-08 1 99.5002 352.5)" fill="#6CBAFA"/>
<circle r="7.5" transform="matrix(-1 -8.74228e-08 -8.74228e-08 1 7.50024 375.5)" fill="#6CBAFA"/>
<circle r="7.5" transform="matrix(-1 -8.74228e-08 -8.74228e-08 1 122.5 352.5)" fill="#6CBAFA"/>
<circle r="7.5" transform="matrix(-1 -8.74228e-08 -8.74228e-08 1 30.5002 398.5)" fill="#6CBAFA"/>
<circle r="7.5" transform="matrix(-1 -8.74228e-08 -8.74228e-08 1 7.50024 398.5)" fill="#6CBAFA"/>
<circle r="7.5" transform="matrix(-1 -8.74228e-08 -8.74228e-08 1 99.5002 375.5)" fill="#6CBAFA"/>
<circle r="7.5" transform="matrix(-1 -8.74228e-08 -8.74228e-08 1 53.5002 375.5)" fill="#6CBAFA"/>
<circle r="7.5" transform="matrix(-1 -8.74228e-08 -8.74228e-08 1 30.5002 375.5)" fill="#6CBAFA"/>
<circle r="7.5" transform="matrix(-1 -8.74228e-08 -8.74228e-08 1 145.5 352.5)" fill="#6CBAFA"/>
<circle r="7.5" transform="matrix(-1 -8.74228e-08 -8.74228e-08 1 168.5 352.5)" fill="#6CBAFA"/>
<circle r="7.5" transform="matrix(-1 -8.74228e-08 -8.74228e-08 1 122.5 375.5)" fill="#6CBAFA"/>
<circle r="7.5" transform="matrix(-1 -8.74228e-08 -8.74228e-08 1 191.5 214.5)" fill="#6CBAFA"/>
<circle r="7.5" transform="matrix(-1 -8.74228e-08 -8.74228e-08 1 53.5002 398.5)" fill="#6CBAFA"/>
<circle r="7.5" transform="matrix(-1 -8.74228e-08 -8.74228e-08 1 168.5 375.5)" fill="#6CBAFA"/>
<circle r="7.5" transform="matrix(-1 -8.74228e-08 -8.74228e-08 1 191.5 352.5)" fill="#6CBAFA"/>
<circle r="7.5" transform="matrix(-1 -8.74228e-08 -8.74228e-08 1 214.5 214.5)" fill="#6CBAFA"/>
<circle r="7.5" transform="matrix(-1 -8.74228e-08 -8.74228e-08 1 30.5002 237.5)" fill="#6CBAFA"/>
<circle r="7.5" transform="matrix(-1 -8.74228e-08 -8.74228e-08 1 145.5 375.5)" fill="#6CBAFA"/>
<circle r="7.5" transform="matrix(-1 -8.74228e-08 -8.74228e-08 1 122.5 398.5)" fill="#6CBAFA"/>
<circle r="7.5" transform="matrix(-1 -8.74228e-08 -8.74228e-08 1 191.5 375.5)" fill="#6CBAFA"/>
<circle r="7.5" transform="matrix(-1 -8.74228e-08 -8.74228e-08 1 214.5 352.5)" fill="#6CBAFA"/>
<circle r="7.5" transform="matrix(-1 -8.74228e-08 -8.74228e-08 1 53.5002 237.5)" fill="#6CBAFA"/>
<circle r="7.5" transform="matrix(-1 -8.74228e-08 -8.74228e-08 1 53.5002 352.5)" fill="#6CBAFA"/>
<circle r="7.5" transform="matrix(-1 -8.74228e-08 -8.74228e-08 1 7.50024 352.5)" fill="#6CBAFA"/>
<circle r="7.5" transform="matrix(-1 -8.74228e-08 -8.74228e-08 1 76.5002 398.5)" fill="#6CBAFA"/>
<circle r="7.5" transform="matrix(-1 -8.74228e-08 -8.74228e-08 1 145.5 398.5)" fill="#6CBAFA"/>
<circle r="7.5" transform="matrix(-1 -8.74228e-08 -8.74228e-08 1 99.5002 398.5)" fill="#6CBAFA"/>
<circle r="7.5" transform="matrix(-1 -8.74228e-08 -8.74228e-08 1 30.5002 352.5)" fill="#6CBAFA"/>
<circle r="7.5" transform="matrix(-1 -8.74228e-08 -8.74228e-08 1 76.5002 237.5)" fill="#6CBAFA"/>
<circle r="7.5" transform="matrix(-1 -8.74228e-08 -8.74228e-08 1 191.5 398.5)" fill="#6CBAFA"/>
<circle r="7.5" transform="matrix(-1 -8.74228e-08 -8.74228e-08 1 168.5 398.5)" fill="#6CBAFA"/>
<circle cx="168.5" cy="214.5" r="7.5" fill="#6CBAFA"/>
<circle cx="191.5" cy="237.5" r="7.5" fill="#6CBAFA"/>
<circle cx="214.5" cy="260.5" r="7.5" fill="#6CBAFA"/>
<circle cx="76.5002" cy="214.5" r="7.5" fill="#6CBAFA"/>
<circle r="7.5" transform="matrix(-1 -8.74228e-08 -8.74228e-08 1 7.50024 329.5)" fill="#6CBAFA"/>
<circle r="7.5" transform="matrix(-1 -8.74228e-08 -8.74228e-08 1 122.5 329.5)" fill="#6CBAFA"/>
<circle r="7.5" transform="matrix(-1 -8.74228e-08 -8.74228e-08 1 76.5002 283.5)" fill="#6CBAFA"/>
<circle r="7.5" transform="matrix(-1 -8.74228e-08 -8.74228e-08 1 76.5002 329.5)" fill="#6CBAFA"/>
<circle r="7.5" transform="matrix(-1 -8.74228e-08 -8.74228e-08 1 76.5002 306.5)" fill="#6CBAFA"/>
<circle r="7.5" transform="matrix(-1 -8.74228e-08 -8.74228e-08 1 76.5002 375.5)" fill="#6CBAFA"/>
<circle r="7.5" transform="matrix(-1 -8.74228e-08 -8.74228e-08 1 214.5 237.5)" fill="#6CBAFA"/>
<circle r="7.5" transform="matrix(-1 -8.74228e-08 -8.74228e-08 1 7.50024 237.5)" fill="#6CBAFA"/>
<circle r="7.5" transform="matrix(-1 -8.74228e-08 -8.74228e-08 1 76.5002 260.5)" fill="#6CBAFA"/>
<circle r="7.5" transform="matrix(-1 -8.74228e-08 -8.74228e-08 1 53.5002 283.5)" fill="#6CBAFA"/>
<circle r="7.5" transform="matrix(-1 -8.74228e-08 -8.74228e-08 1 53.5002 329.5)" fill="#6CBAFA"/>
<circle r="7.5" transform="matrix(-1 -8.74228e-08 -8.74228e-08 1 53.5002 306.5)" fill="#6CBAFA"/>
<circle r="7.5" transform="matrix(-1 -8.74228e-08 -8.74228e-08 1 76.5002 352.5)" fill="#6CBAFA"/>
<circle r="7.5" transform="matrix(-1 -8.74228e-08 -8.74228e-08 1 30.5002 260.5)" fill="#6CBAFA"/>
<circle r="7.5" transform="matrix(-1 -8.74228e-08 -8.74228e-08 1 30.5002 306.5)" fill="#6CBAFA"/>
<circle r="7.5" transform="matrix(-1 -8.74228e-08 -8.74228e-08 1 30.5002 283.5)" fill="#6CBAFA"/>
<circle r="7.5" transform="matrix(-1 -8.74228e-08 -8.74228e-08 1 30.5002 329.5)" fill="#6CBAFA"/>
<circle r="7.5" transform="matrix(-1 -8.74228e-08 -8.74228e-08 1 7.50024 214.5)" fill="#6CBAFA"/>
<circle r="7.5" transform="matrix(-1 -8.74228e-08 -8.74228e-08 1 53.5002 260.5)" fill="#6CBAFA"/>
<circle r="7.5" transform="matrix(-1 -8.74228e-08 -8.74228e-08 1 99.5002 329.5)" fill="#6CBAFA"/>
<circle r="7.5" transform="matrix(-1 -8.74228e-08 -8.74228e-08 1 145.5 329.5)" fill="#6CBAFA"/>
<circle r="7.5" transform="matrix(-1 -8.74228e-08 -8.74228e-08 1 168.5 329.5)" fill="#6CBAFA"/>
<circle r="7.5" transform="matrix(-1 -8.74228e-08 -8.74228e-08 1 191.5 329.5)" fill="#6CBAFA"/>
<circle r="7.5" transform="matrix(-1 -8.74228e-08 -8.74228e-08 1 214.5 329.5)" fill="#6CBAFA"/>
<circle r="7.5" transform="matrix(-1 -8.74228e-08 -8.74228e-08 1 214.5 398.5)" fill="#6CBAFA"/>
<circle r="7.5" transform="matrix(-1 -8.74228e-08 -8.74228e-08 1 214.5 375.5)" fill="#6CBAFA"/>
<circle r="7.5" transform="matrix(-1 -8.74228e-08 -8.74228e-08 1 99.5005 467.5)" fill="#6CBAFA"/>
<circle r="7.5" transform="matrix(-1 -8.74228e-08 -8.74228e-08 1 7.50049 421.5)" fill="#6CBAFA"/>
<circle r="7.5" transform="matrix(-1 -8.74228e-08 -8.74228e-08 1 30.5005 444.5)" fill="#6CBAFA"/>
<circle r="7.5" transform="matrix(-1 -8.74228e-08 -8.74228e-08 1 7.50049 444.5)" fill="#6CBAFA"/>
<circle r="7.5" transform="matrix(-1 -8.74228e-08 -8.74228e-08 1 99.5005 421.5)" fill="#6CBAFA"/>
<circle r="7.5" transform="matrix(-1 -8.74228e-08 -8.74228e-08 1 53.5005 421.5)" fill="#6CBAFA"/>
<circle r="7.5" transform="matrix(-1 -8.74228e-08 -8.74228e-08 1 30.5005 421.5)" fill="#6CBAFA"/>
<circle r="7.5" transform="matrix(-1 -8.74228e-08 -8.74228e-08 1 122.5 421.5)" fill="#6CBAFA"/>
<circle r="7.5" transform="matrix(-1 -8.74228e-08 -8.74228e-08 1 53.5005 444.5)" fill="#6CBAFA"/>
<circle r="7.5" transform="matrix(-1 -8.74228e-08 -8.74228e-08 1 168.5 421.5)" fill="#6CBAFA"/>
<circle r="7.5" transform="matrix(-1 -8.74228e-08 -8.74228e-08 1 145.5 421.5)" fill="#6CBAFA"/>
<circle r="7.5" transform="matrix(-1 -8.74228e-08 -8.74228e-08 1 122.5 444.5)" fill="#6CBAFA"/>
<circle r="7.5" transform="matrix(-1 -8.74228e-08 -8.74228e-08 1 191.5 421.5)" fill="#6CBAFA"/>
<circle r="7.5" transform="matrix(-1 -8.74228e-08 -8.74228e-08 1 53.5005 467.5)" fill="#6CBAFA"/>
<circle r="7.5" transform="matrix(-1 -8.74228e-08 -8.74228e-08 1 7.50049 467.5)" fill="#6CBAFA"/>
<circle r="7.5" transform="matrix(-1 -8.74228e-08 -8.74228e-08 1 76.5005 444.5)" fill="#6CBAFA"/>
<circle r="7.5" transform="matrix(-1 -8.74228e-08 -8.74228e-08 1 145.5 444.5)" fill="#6CBAFA"/>
<circle r="7.5" transform="matrix(-1 -8.74228e-08 -8.74228e-08 1 99.5005 444.5)" fill="#6CBAFA"/>
<circle r="7.5" transform="matrix(-1 -8.74228e-08 -8.74228e-08 1 30.5005 467.5)" fill="#6CBAFA"/>
<circle r="7.5" transform="matrix(-1 -8.74228e-08 -8.74228e-08 1 191.5 444.5)" fill="#6CBAFA"/>
<circle r="7.5" transform="matrix(-1 -8.74228e-08 -8.74228e-08 1 168.5 444.5)" fill="#6CBAFA"/>
<circle r="7.5" transform="matrix(-1 -8.74228e-08 -8.74228e-08 1 76.5005 421.5)" fill="#6CBAFA"/>
<circle r="7.5" transform="matrix(-1 -8.74228e-08 -8.74228e-08 1 76.5005 467.5)" fill="#6CBAFA"/>
<circle r="7.5" transform="matrix(-1 -8.74228e-08 -8.74228e-08 1 214.5 444.5)" fill="#6CBAFA"/>
<circle r="7.5" transform="matrix(-1 -8.74228e-08 -8.74228e-08 1 214.5 421.5)" fill="#6CBAFA"/>
<circle r="7.5" transform="matrix(-1 -8.74228e-08 -8.74228e-08 1 7.50024 306.5)" fill="#6CBAFA"/>
</svg>
