<svg width="250" height="212" viewBox="0 0 250 212" fill="none" xmlns="http://www.w3.org/2000/svg">
<rect width="250" height="207" fill="white"/>
<path d="M83.75 177H78.2812L70.3711 158.66V177H64.8438V148.562H70.3711L78.2227 166.824L78.2422 148.562H83.75V177ZM109.492 165.262H87.6562V160.828H109.492V165.262ZM131.797 177H126.328L118.418 158.66V177H112.891V148.562H118.418L126.27 166.824L126.289 148.562H131.797V177ZM157.539 165.262H135.703V160.828H157.539V165.262ZM180.938 164.871C180.938 166.694 180.697 168.374 180.215 169.91C179.733 171.447 179.036 172.768 178.125 173.875C177.214 174.982 176.1 175.848 174.785 176.473C173.483 177.085 172.012 177.391 170.371 177.391C168.73 177.391 167.272 177.085 165.996 176.473C164.72 175.848 163.646 174.982 162.773 173.875C161.901 172.755 161.237 171.434 160.781 169.91C160.326 168.374 160.098 166.694 160.098 164.871V160.73C160.098 158.908 160.326 157.228 160.781 155.691C161.237 154.155 161.901 152.833 162.773 151.727C163.646 150.607 164.714 149.734 165.977 149.109C167.253 148.484 168.711 148.172 170.352 148.172C172.005 148.172 173.483 148.484 174.785 149.109C176.1 149.734 177.214 150.607 178.125 151.727C179.036 152.833 179.733 154.155 180.215 155.691C180.697 157.228 180.938 158.908 180.938 160.73V164.871ZM175.371 160.691C175.371 159.533 175.273 158.465 175.078 157.488C174.896 156.512 174.603 155.672 174.199 154.969C173.796 154.266 173.275 153.719 172.637 153.328C172.012 152.924 171.25 152.723 170.352 152.723C169.466 152.723 168.724 152.924 168.125 153.328C167.526 153.719 167.044 154.266 166.68 154.969C166.315 155.672 166.055 156.512 165.898 157.488C165.742 158.465 165.664 159.533 165.664 160.691V164.871C165.664 166.017 165.742 167.078 165.898 168.055C166.055 169.031 166.315 169.878 166.68 170.594C167.044 171.31 167.526 171.87 168.125 172.273C168.724 172.677 169.473 172.879 170.371 172.879C171.257 172.879 172.012 172.677 172.637 172.273C173.275 171.87 173.789 171.316 174.18 170.613C174.583 169.897 174.883 169.051 175.078 168.074C175.273 167.098 175.371 166.03 175.371 164.871V160.691Z" fill="#6CBAFA"/>
<rect y="212" width="5" height="250" transform="rotate(-90 0 212)" fill="#6CBAFA"/>
</svg>
