<svg width="220" height="212" viewBox="0 0 220 212" fill="none" xmlns="http://www.w3.org/2000/svg">
<rect width="220" height="207" fill="white"/>
<path d="M70.75 177H65.2812L57.3711 158.66V177H51.8438V148.562H57.3711L65.2227 166.824L65.2422 148.562H70.75V177ZM96.4922 165.262H74.6562V160.828H96.4922V165.262ZM118.797 177H113.328L105.418 158.66V177H99.8906V148.562H105.418L113.27 166.824L113.289 148.562H118.797V177ZM144.539 165.262H122.703V160.828H144.539V165.262ZM167.938 164.871C167.938 166.694 167.697 168.374 167.215 169.91C166.733 171.447 166.036 172.768 165.125 173.875C164.214 174.982 163.1 175.848 161.785 176.473C160.483 177.085 159.012 177.391 157.371 177.391C155.73 177.391 154.272 177.085 152.996 176.473C151.72 175.848 150.646 174.982 149.773 173.875C148.901 172.755 148.237 171.434 147.781 169.91C147.326 168.374 147.098 166.694 147.098 164.871V160.73C147.098 158.908 147.326 157.228 147.781 155.691C148.237 154.155 148.901 152.833 149.773 151.727C150.646 150.607 151.714 149.734 152.977 149.109C154.253 148.484 155.711 148.172 157.352 148.172C159.005 148.172 160.483 148.484 161.785 149.109C163.1 149.734 164.214 150.607 165.125 151.727C166.036 152.833 166.733 154.155 167.215 155.691C167.697 157.228 167.938 158.908 167.938 160.73V164.871ZM162.371 160.691C162.371 159.533 162.273 158.465 162.078 157.488C161.896 156.512 161.603 155.672 161.199 154.969C160.796 154.266 160.275 153.719 159.637 153.328C159.012 152.924 158.25 152.723 157.352 152.723C156.466 152.723 155.724 152.924 155.125 153.328C154.526 153.719 154.044 154.266 153.68 154.969C153.315 155.672 153.055 156.512 152.898 157.488C152.742 158.465 152.664 159.533 152.664 160.691V164.871C152.664 166.017 152.742 167.078 152.898 168.055C153.055 169.031 153.315 169.878 153.68 170.594C154.044 171.31 154.526 171.87 155.125 172.273C155.724 172.677 156.473 172.879 157.371 172.879C158.257 172.879 159.012 172.677 159.637 172.273C160.275 171.87 160.789 171.316 161.18 170.613C161.583 169.897 161.883 169.051 162.078 168.074C162.273 167.098 162.371 166.03 162.371 164.871V160.691Z" fill="#6CBAFA"/>
<rect y="212" width="5" height="220" transform="rotate(-90 0 212)" fill="#6CBAFA"/>
</svg>
