<svg width="1200" height="400" viewBox="0 0 1200 400" fill="none" xmlns="http://www.w3.org/2000/svg">
<rect width="1200" height="400" fill="white"/>
<path d="M205.201 62.1704C205.201 62.688 205.069 63.1494 204.805 63.5547C204.546 63.9551 204.19 64.2749 203.736 64.5142C204.253 64.7583 204.664 65.1001 204.966 65.5396C205.274 65.979 205.428 66.4941 205.428 67.085C205.428 67.5879 205.335 68.0298 205.149 68.4106C204.969 68.7915 204.717 69.1113 204.395 69.3701C204.078 69.624 203.702 69.8169 203.267 69.9487C202.833 70.0806 202.364 70.1465 201.861 70.1465C201.353 70.1465 200.879 70.0806 200.44 69.9487C200.005 69.8169 199.627 69.624 199.305 69.3701C198.982 69.1113 198.729 68.7915 198.543 68.4106C198.362 68.0298 198.272 67.5879 198.272 67.085C198.272 66.792 198.311 66.5161 198.389 66.2573C198.472 65.9937 198.587 65.7544 198.733 65.5396C198.88 65.3198 199.056 65.1245 199.261 64.9536C199.471 64.7778 199.705 64.6289 199.964 64.5068C199.51 64.2725 199.153 63.9551 198.895 63.5547C198.636 63.1494 198.506 62.688 198.506 62.1704C198.506 61.687 198.589 61.2622 198.755 60.896C198.921 60.5249 199.151 60.2124 199.444 59.9585C199.742 59.7046 200.093 59.5142 200.499 59.3872C200.909 59.2554 201.355 59.1895 201.839 59.1895C202.322 59.1895 202.769 59.2554 203.179 59.3872C203.589 59.5142 203.943 59.7046 204.241 59.9585C204.544 60.2124 204.778 60.5249 204.944 60.896C205.115 61.2622 205.201 61.687 205.201 62.1704ZM203.384 66.9458C203.384 66.7017 203.348 66.4819 203.274 66.2866C203.201 66.0913 203.096 65.9253 202.959 65.7886C202.828 65.647 202.667 65.5396 202.476 65.4663C202.291 65.3931 202.081 65.3564 201.846 65.3564C201.612 65.3564 201.399 65.3931 201.209 65.4663C201.023 65.5396 200.865 65.647 200.733 65.7886C200.601 65.9253 200.499 66.0913 200.425 66.2866C200.352 66.4819 200.315 66.7017 200.315 66.9458C200.315 67.4341 200.455 67.8174 200.733 68.0957C201.011 68.374 201.387 68.5132 201.861 68.5132C202.085 68.5132 202.291 68.479 202.476 68.4106C202.662 68.3374 202.82 68.2324 202.952 68.0957C203.089 67.959 203.194 67.7954 203.267 67.605C203.345 67.4097 203.384 67.1899 203.384 66.9458ZM203.172 62.2656C203.172 62.0508 203.14 61.8555 203.077 61.6797C203.013 61.5039 202.923 61.355 202.806 61.2329C202.693 61.106 202.554 61.0083 202.388 60.9399C202.227 60.8716 202.044 60.8374 201.839 60.8374C201.424 60.8374 201.104 60.9644 200.879 61.2183C200.655 61.4722 200.542 61.8213 200.542 62.2656C200.542 62.4805 200.572 62.6782 200.63 62.8589C200.689 63.0347 200.774 63.186 200.887 63.313C201.004 63.4399 201.143 63.54 201.304 63.6133C201.47 63.6816 201.656 63.7158 201.861 63.7158C202.066 63.7158 202.249 63.6816 202.41 63.6133C202.571 63.54 202.708 63.4399 202.82 63.313C202.933 63.186 203.018 63.0347 203.077 62.8589C203.14 62.6782 203.172 62.4805 203.172 62.2656ZM214.209 62.1704C214.209 62.688 214.078 63.1494 213.814 63.5547C213.555 63.9551 213.199 64.2749 212.745 64.5142C213.262 64.7583 213.672 65.1001 213.975 65.5396C214.283 65.979 214.437 66.4941 214.437 67.085C214.437 67.5879 214.344 68.0298 214.158 68.4106C213.978 68.7915 213.726 69.1113 213.404 69.3701C213.086 69.624 212.71 69.8169 212.276 69.9487C211.841 70.0806 211.373 70.1465 210.87 70.1465C210.362 70.1465 209.888 70.0806 209.449 69.9487C209.014 69.8169 208.636 69.624 208.313 69.3701C207.991 69.1113 207.737 68.7915 207.552 68.4106C207.371 68.0298 207.281 67.5879 207.281 67.085C207.281 66.792 207.32 66.5161 207.398 66.2573C207.481 65.9937 207.596 65.7544 207.742 65.5396C207.889 65.3198 208.064 65.1245 208.27 64.9536C208.479 64.7778 208.714 64.6289 208.973 64.5068C208.519 64.2725 208.162 63.9551 207.903 63.5547C207.645 63.1494 207.515 62.688 207.515 62.1704C207.515 61.687 207.598 61.2622 207.764 60.896C207.93 60.5249 208.16 60.2124 208.453 59.9585C208.75 59.7046 209.102 59.5142 209.507 59.3872C209.917 59.2554 210.364 59.1895 210.848 59.1895C211.331 59.1895 211.778 59.2554 212.188 59.3872C212.598 59.5142 212.952 59.7046 213.25 59.9585C213.553 60.2124 213.787 60.5249 213.953 60.896C214.124 61.2622 214.209 61.687 214.209 62.1704ZM212.393 66.9458C212.393 66.7017 212.356 66.4819 212.283 66.2866C212.21 66.0913 212.105 65.9253 211.968 65.7886C211.836 65.647 211.675 65.5396 211.485 65.4663C211.299 65.3931 211.089 65.3564 210.855 65.3564C210.621 65.3564 210.408 65.3931 210.218 65.4663C210.032 65.5396 209.874 65.647 209.742 65.7886C209.61 65.9253 209.507 66.0913 209.434 66.2866C209.361 66.4819 209.324 66.7017 209.324 66.9458C209.324 67.4341 209.463 67.8174 209.742 68.0957C210.02 68.374 210.396 68.5132 210.87 68.5132C211.094 68.5132 211.299 68.479 211.485 68.4106C211.67 68.3374 211.829 68.2324 211.961 68.0957C212.098 67.959 212.203 67.7954 212.276 67.605C212.354 67.4097 212.393 67.1899 212.393 66.9458ZM212.181 62.2656C212.181 62.0508 212.149 61.8555 212.085 61.6797C212.022 61.5039 211.932 61.355 211.814 61.2329C211.702 61.106 211.563 61.0083 211.397 60.9399C211.236 60.8716 211.053 60.8374 210.848 60.8374C210.433 60.8374 210.113 60.9644 209.888 61.2183C209.664 61.4722 209.551 61.8213 209.551 62.2656C209.551 62.4805 209.581 62.6782 209.639 62.8589C209.698 63.0347 209.783 63.186 209.896 63.313C210.013 63.4399 210.152 63.54 210.313 63.6133C210.479 63.6816 210.665 63.7158 210.87 63.7158C211.075 63.7158 211.258 63.6816 211.419 63.6133C211.58 63.54 211.717 63.4399 211.829 63.313C211.941 63.186 212.027 63.0347 212.085 62.8589C212.149 62.6782 212.181 62.4805 212.181 62.2656ZM218.582 68.8208C218.582 68.6304 218.614 68.4546 218.677 68.2935C218.741 68.1274 218.833 67.9858 218.956 67.8687C219.078 67.7466 219.227 67.6514 219.402 67.583C219.578 67.5098 219.776 67.4731 219.996 67.4731C220.215 67.4731 220.413 67.5098 220.589 67.583C220.765 67.6514 220.911 67.7466 221.028 67.8687C221.15 67.9858 221.243 68.1274 221.307 68.2935C221.375 68.4546 221.409 68.6304 221.409 68.8208C221.409 69.0063 221.375 69.1797 221.307 69.3408C221.243 69.502 221.15 69.6436 221.028 69.7656C220.911 69.8828 220.765 69.9756 220.589 70.0439C220.413 70.1123 220.215 70.1465 219.996 70.1465C219.776 70.1465 219.578 70.1123 219.402 70.0439C219.227 69.9756 219.078 69.8828 218.956 69.7656C218.833 69.6436 218.741 69.502 218.677 69.3408C218.614 69.1797 218.582 69.0063 218.582 68.8208ZM232.505 70H225.232V68.6084L228.682 64.9023C228.951 64.6094 229.178 64.3433 229.363 64.104C229.549 63.8647 229.698 63.6475 229.81 63.4521C229.927 63.252 230.01 63.0664 230.059 62.8955C230.113 62.7246 230.14 62.5586 230.14 62.3975C230.14 62.1582 230.105 61.9458 230.037 61.7603C229.969 61.5747 229.871 61.4185 229.744 61.2915C229.622 61.1597 229.473 61.0596 229.297 60.9912C229.126 60.9229 228.936 60.8887 228.726 60.8887C228.165 60.8887 227.745 61.0449 227.466 61.3574C227.193 61.6699 227.056 62.1069 227.056 62.6685H225.013C225.013 62.1948 225.103 61.748 225.284 61.3281C225.464 60.9033 225.718 60.5322 226.045 60.2148C226.377 59.8975 226.775 59.6484 227.239 59.4678C227.708 59.2822 228.226 59.1895 228.792 59.1895C229.334 59.1895 229.812 59.2651 230.228 59.4165C230.647 59.5679 230.997 59.7803 231.275 60.0537C231.558 60.3271 231.773 60.6567 231.919 61.0425C232.066 61.4233 232.139 61.8457 232.139 62.3096C232.139 62.6611 232.083 62.998 231.971 63.3203C231.863 63.6377 231.707 63.9526 231.502 64.2651C231.302 64.5776 231.06 64.8975 230.777 65.2246C230.494 65.5469 230.179 65.8862 229.832 66.2427L227.825 68.3667H232.505V70ZM242.774 61.2402C242.774 60.957 242.815 60.6909 242.898 60.4419C242.986 60.1929 243.116 59.9756 243.287 59.79C243.462 59.6045 243.68 59.458 243.938 59.3506C244.202 59.2383 244.507 59.1821 244.854 59.1821C245.21 59.1821 245.518 59.2383 245.777 59.3506C246.041 59.458 246.258 59.6045 246.429 59.79C246.6 59.9756 246.727 60.1929 246.81 60.4419C246.897 60.6909 246.941 60.957 246.941 61.2402V61.8042C246.941 62.0825 246.897 62.3462 246.81 62.5952C246.727 62.8394 246.6 63.0566 246.429 63.2471C246.258 63.4326 246.043 63.5791 245.784 63.6865C245.525 63.7939 245.22 63.8477 244.869 63.8477C244.517 63.8477 244.209 63.7939 243.946 63.6865C243.687 63.5791 243.47 63.4326 243.294 63.2471C243.123 63.0566 242.994 62.8394 242.906 62.5952C242.818 62.3462 242.774 62.0825 242.774 61.8042V61.2402ZM244.151 61.8042C244.151 61.9165 244.163 62.0264 244.188 62.1338C244.212 62.2363 244.251 62.3291 244.305 62.4121C244.363 62.4902 244.439 62.5537 244.532 62.6025C244.625 62.6465 244.737 62.6685 244.869 62.6685C245 62.6685 245.11 62.6465 245.198 62.6025C245.291 62.5537 245.364 62.4902 245.418 62.4121C245.472 62.3291 245.511 62.2363 245.535 62.1338C245.56 62.0264 245.572 61.9165 245.572 61.8042V61.2402C245.572 61.1279 245.56 61.0205 245.535 60.918C245.511 60.8105 245.469 60.7178 245.411 60.6396C245.357 60.5566 245.284 60.4932 245.191 60.4492C245.103 60.4004 244.991 60.376 244.854 60.376C244.722 60.376 244.612 60.4004 244.524 60.4492C244.437 60.4932 244.363 60.5566 244.305 60.6396C244.251 60.7178 244.212 60.8105 244.188 60.918C244.163 61.0205 244.151 61.1279 244.151 61.2402V61.8042ZM247.081 67.5317C247.081 67.2534 247.125 66.9897 247.212 66.7407C247.3 66.4917 247.43 66.2744 247.601 66.0889C247.776 65.8984 247.994 65.7495 248.252 65.6421C248.516 65.5347 248.821 65.481 249.168 65.481C249.524 65.481 249.832 65.5347 250.091 65.6421C250.354 65.7495 250.572 65.8984 250.743 66.0889C250.914 66.2744 251.041 66.4917 251.124 66.7407C251.211 66.9897 251.255 67.2534 251.255 67.5317V68.103C251.255 68.3813 251.214 68.645 251.131 68.894C251.048 69.1431 250.918 69.3604 250.743 69.5459C250.572 69.7314 250.357 69.8779 250.098 69.9854C249.839 70.0928 249.534 70.1465 249.183 70.1465C248.831 70.1465 248.523 70.0928 248.26 69.9854C247.996 69.8779 247.776 69.7314 247.601 69.5459C247.43 69.3604 247.3 69.1431 247.212 68.894C247.125 68.645 247.081 68.3813 247.081 68.103V67.5317ZM248.458 68.103C248.458 68.2153 248.472 68.3252 248.501 68.4326C248.531 68.5352 248.575 68.6279 248.633 68.7109C248.697 68.7891 248.772 68.8525 248.86 68.9014C248.953 68.9453 249.061 68.9673 249.183 68.9673C249.334 68.9673 249.456 68.9453 249.549 68.9014C249.642 68.8525 249.712 68.7891 249.761 68.7109C249.81 68.6279 249.842 68.5352 249.856 68.4326C249.871 68.3301 249.878 68.2202 249.878 68.103V67.5317C249.878 67.4194 249.866 67.312 249.842 67.2095C249.817 67.1069 249.776 67.0166 249.717 66.9385C249.664 66.8555 249.59 66.792 249.498 66.748C249.41 66.6992 249.3 66.6748 249.168 66.6748C249.036 66.6748 248.924 66.6992 248.831 66.748C248.738 66.792 248.665 66.8555 248.611 66.9385C248.558 67.0166 248.519 67.1069 248.494 67.2095C248.47 67.312 248.458 67.4194 248.458 67.5317V68.103ZM245.557 68.5498L244.561 68.0737L248.67 60.5444L249.666 61.0205L245.557 68.5498Z" fill="#00C7A5"/>
<circle r="7.5" transform="matrix(1 0 0 -1 343.5 246.5)" fill="#00C7A5"/>
<circle r="7.5" transform="matrix(1 0 0 -1 316.5 298.5)" fill="#00C7A5"/>
<circle r="7.5" transform="matrix(1 0 0 -1 289.5 298.5)" fill="#00C7A5"/>
<circle r="7.5" transform="matrix(1 0 0 -1 208.5 272.5)" fill="#00C7A5"/>
<circle r="7.5" transform="matrix(1 0 0 -1 235.5 298.5)" fill="#00C7A5"/>
<circle r="7.5" transform="matrix(1 0 0 -1 235.5 272.5)" fill="#00C7A5"/>
<circle r="7.5" transform="matrix(1 0 0 -1 181.5 272.5)" fill="#00C7A5"/>
<circle r="7.5" transform="matrix(1 0 0 -1 208.5 298.5)" fill="#00C7A5"/>
<circle r="7.5" transform="matrix(1 0 0 -1 181.5 298.5)" fill="#00C7A5"/>
<circle r="7.5" transform="matrix(1 0 0 -1 154.5 272.5)" fill="#00C7A5"/>
<circle r="7.5" transform="matrix(1 0 0 -1 208.5 246.5)" fill="#00C7A5"/>
<circle r="7.5" transform="matrix(1 0 0 -1 235.5 246.5)" fill="#00C7A5"/>
<circle r="7.5" transform="matrix(1 0 0 -1 181.5 246.5)" fill="#00C7A5"/>
<circle r="7.5" transform="matrix(1 0 0 -1 154.5 246.5)" fill="#00C7A5"/>
<circle r="7.5" transform="matrix(1 0 0 -1 128.5 246.5)" fill="#00C7A5"/>
<circle r="7.5" transform="matrix(1 0 0 -1 208.5 220.5)" fill="#00C7A5"/>
<circle r="7.5" transform="matrix(1 0 0 -1 235.5 220.5)" fill="#00C7A5"/>
<circle r="7.5" transform="matrix(1 0 0 -1 181.5 220.5)" fill="#00C7A5"/>
<circle r="7.5" transform="matrix(1 0 0 -1 154.5 220.5)" fill="#00C7A5"/>
<circle r="7.5" transform="matrix(1 0 0 -1 128.5 220.5)" fill="#00C7A5"/>
<circle r="7.5" transform="matrix(1 0 0 -1 100.5 220.5)" fill="#00C7A5"/>
<circle r="7.5" transform="matrix(1 0 0 -1 208.5 194.5)" fill="#00C7A5"/>
<circle r="7.5" transform="matrix(1 0 0 -1 235.5 194.5)" fill="#00C7A5"/>
<circle r="7.5" transform="matrix(1 0 0 -1 181.5 194.5)" fill="#00C7A5"/>
<circle r="7.5" transform="matrix(1 0 0 -1 154.5 194.5)" fill="#00C7A5"/>
<circle r="7.5" transform="matrix(1 0 0 -1 128.5 194.5)" fill="#00C7A5"/>
<circle r="7.5" transform="matrix(1 0 0 -1 100.5 194.5)" fill="#00C7A5"/>
<circle r="7.5" transform="matrix(1 0 0 -1 343.5 220.5)" fill="#00C7A5"/>
<circle r="7.5" transform="matrix(1 0 0 -1 235.5 142.5)" fill="#00C7A5"/>
<circle r="7.5" transform="matrix(1 0 0 -1 343.5 116.5)" fill="#00C7A5"/>
<circle r="7.5" transform="matrix(1 0 0 -1 208.5 142.5)" fill="#00C7A5"/>
<circle r="7.5" transform="matrix(1 0 0 -1 316.5 90.5)" fill="#00C7A5"/>
<circle r="7.5" transform="matrix(1 0 0 -1 343.5 90.5)" fill="#00C7A5"/>
<circle r="7.5" transform="matrix(1 0 0 -1 316.5 64.5)" fill="#00C7A5"/>
<circle r="7.5" transform="matrix(1 0 0 -1 289.5 116.5)" fill="#00C7A5"/>
<circle r="7.5" transform="matrix(1 0 0 -1 316.5 116.5)" fill="#00C7A5"/>
<circle r="7.5" transform="matrix(1 0 0 -1 181.5 142.5)" fill="#00C7A5"/>
<circle r="7.5" transform="matrix(1 0 0 -1 154.5 142.5)" fill="#00C7A5"/>
<circle r="7.5" transform="matrix(1 0 0 -1 289.5 64.5)" fill="#00C7A5"/>
<circle r="7.5" transform="matrix(1 0 0 -1 128.5 298.5)" fill="#00C7A5"/>
<circle r="7.5" transform="matrix(1 0 0 -1 289.5 90.5)" fill="#00C7A5"/>
<circle r="7.5" transform="matrix(1 0 0 -1 154.5 116.5)" fill="#00C7A5"/>
<circle r="7.5" transform="matrix(1 0 0 -1 128.5 142.5)" fill="#00C7A5"/>
<circle r="7.5" transform="matrix(1 0 0 -1 100.5 298.5)" fill="#00C7A5"/>
<circle r="7.5" transform="matrix(1 0 0 -1 316.5 272.5)" fill="#00C7A5"/>
<circle r="7.5" transform="matrix(1 0 0 -1 154.5 64.5)" fill="#00C7A5"/>
<circle r="7.5" transform="matrix(1 0 0 -1 154.5 90.5)" fill="#00C7A5"/>
<circle r="7.5" transform="matrix(1 0 0 -1 128.5 116.5)" fill="#00C7A5"/>
<circle r="7.5" transform="matrix(1 0 0 -1 100.5 142.5)" fill="#00C7A5"/>
<circle r="7.5" transform="matrix(1 0 0 -1 289.5 272.5)" fill="#00C7A5"/>
<circle r="7.5" transform="matrix(1 0 0 -1 289.5 142.5)" fill="#00C7A5"/>
<circle r="7.5" transform="matrix(1 0 0 -1 343.5 142.5)" fill="#00C7A5"/>
<circle r="7.5" transform="matrix(1 0 0 -1 128.5 64.5)" fill="#00C7A5"/>
<circle r="7.5" transform="matrix(1 0 0 -1 128.5 90.5)" fill="#00C7A5"/>
<circle r="7.5" transform="matrix(1 0 0 -1 100.5 64.5)" fill="#00C7A5"/>
<circle r="7.5" transform="matrix(1 0 0 -1 316.5 142.5)" fill="#00C7A5"/>
<circle r="7.5" transform="matrix(1 0 0 -1 262.5 272.5)" fill="#00C7A5"/>
<circle r="7.5" transform="matrix(1 0 0 -1 100.5 116.5)" fill="#00C7A5"/>
<circle r="7.5" transform="matrix(1 0 0 -1 100.5 90.5)" fill="#00C7A5"/>
<circle cx="154.5" cy="298.5" r="7.5" transform="rotate(-180 154.5 298.5)" fill="#00C7A5"/>
<circle cx="128.5" cy="272.5" r="7.5" transform="rotate(-180 128.5 272.5)" fill="#00C7A5"/>
<circle cx="100.5" cy="246.5" r="7.5" transform="rotate(-180 100.5 246.5)" fill="#00C7A5"/>
<circle cx="262.5" cy="298.5" r="7.5" transform="rotate(-180 262.5 298.5)" fill="#00C7A5"/>
<circle r="7.5" transform="matrix(1 0 0 -1 343.5 168.5)" fill="#00C7A5"/>
<circle r="7.5" transform="matrix(1 0 0 -1 208.5 168.5)" fill="#00C7A5"/>
<circle r="7.5" transform="matrix(1 0 0 -1 262.5 220.5)" fill="#00C7A5"/>
<circle r="7.5" transform="matrix(1 0 0 -1 262.5 168.5)" fill="#00C7A5"/>
<circle r="7.5" transform="matrix(1 0 0 -1 262.5 194.5)" fill="#00C7A5"/>
<circle r="7.5" transform="matrix(1 0 0 -1 343.5 64.5)" fill="#00C7A5"/>
<circle r="7.5" transform="matrix(1 0 0 -1 100.5 272.5)" fill="#00C7A5"/>
<circle r="7.5" transform="matrix(1 0 0 -1 343.5 272.5)" fill="#00C7A5"/>
<circle r="7.5" transform="matrix(1 0 0 -1 262.5 246.5)" fill="#00C7A5"/>
<circle r="7.5" transform="matrix(1 0 0 -1 289.5 220.5)" fill="#00C7A5"/>
<circle r="7.5" transform="matrix(1 0 0 -1 289.5 168.5)" fill="#00C7A5"/>
<circle r="7.5" transform="matrix(1 0 0 -1 289.5 194.5)" fill="#00C7A5"/>
<circle r="7.5" transform="matrix(1 0 0 -1 262.5 142.5)" fill="#00C7A5"/>
<circle r="7.5" transform="matrix(1 0 0 -1 316.5 246.5)" fill="#00C7A5"/>
<circle r="7.5" transform="matrix(1 0 0 -1 316.5 194.5)" fill="#00C7A5"/>
<circle r="7.5" transform="matrix(1 0 0 -1 316.5 220.5)" fill="#00C7A5"/>
<circle r="7.5" transform="matrix(1 0 0 -1 316.5 168.5)" fill="#00C7A5"/>
<circle r="7.5" transform="matrix(1 0 0 -1 343.5 298.5)" fill="#00C7A5"/>
<circle r="7.5" transform="matrix(1 0 0 -1 289.5 246.5)" fill="#00C7A5"/>
<circle r="7.5" transform="matrix(1 0 0 -1 235.5 168.5)" fill="#00C7A5"/>
<circle r="7.5" transform="matrix(1 0 0 -1 181.5 168.5)" fill="#00C7A5"/>
<circle r="7.5" transform="matrix(1 0 0 -1 154.5 168.5)" fill="#00C7A5"/>
<circle r="7.5" transform="matrix(1 0 0 -1 128.5 168.5)" fill="#00C7A5"/>
<circle r="7.5" transform="matrix(1 0 0 -1 100.5 168.5)" fill="#00C7A5"/>
<circle r="7.5" transform="matrix(1 0 0 -1 343.5 194.5)" fill="#00C7A5"/>
<path d="M470.929 59.248V60.9399H470.812C470.275 60.9399 469.799 61.0107 469.384 61.1523C468.974 61.2939 468.622 61.4941 468.329 61.7529C468.041 62.0117 467.812 62.3218 467.641 62.6831C467.475 63.0444 467.37 63.4473 467.326 63.8916C467.438 63.7695 467.567 63.6499 467.714 63.5327C467.86 63.4106 468.024 63.3032 468.205 63.2104C468.39 63.1128 468.59 63.0347 468.805 62.9761C469.02 62.9175 469.252 62.8882 469.501 62.8882C470.009 62.8882 470.451 62.9858 470.827 63.1812C471.208 63.3716 471.525 63.6328 471.779 63.9648C472.033 64.292 472.221 64.6753 472.343 65.1147C472.47 65.5493 472.533 66.0083 472.533 66.4917C472.533 67.0093 472.45 67.4902 472.284 67.9346C472.118 68.3789 471.881 68.7646 471.574 69.0918C471.266 69.4189 470.893 69.6777 470.453 69.8682C470.014 70.0537 469.521 70.1465 468.974 70.1465C468.402 70.1465 467.887 70.0415 467.428 69.8315C466.969 69.6167 466.579 69.3213 466.256 68.9453C465.939 68.5693 465.692 68.125 465.517 67.6123C465.346 67.0947 465.26 66.5308 465.26 65.9204V65.1367C465.26 64.292 465.375 63.5107 465.604 62.793C465.834 62.0703 466.176 61.4478 466.63 60.9253C467.084 60.3979 467.648 59.9878 468.322 59.6948C468.996 59.397 469.774 59.248 470.658 59.248H470.929ZM468.908 64.5215C468.542 64.5215 468.217 64.6191 467.934 64.8145C467.655 65.0098 467.445 65.2612 467.304 65.5688V66.1694C467.304 66.5601 467.343 66.9019 467.421 67.1948C467.504 67.4878 467.619 67.7319 467.765 67.9272C467.912 68.1177 468.085 68.2617 468.285 68.3594C468.485 68.457 468.703 68.5059 468.937 68.5059C469.176 68.5059 469.394 68.457 469.589 68.3594C469.784 68.2568 469.95 68.1177 470.087 67.9419C470.224 67.7661 470.329 67.5586 470.402 67.3193C470.475 67.0752 470.512 66.8091 470.512 66.521C470.512 66.2329 470.475 65.9668 470.402 65.7227C470.329 65.4785 470.224 65.2686 470.087 65.0928C469.95 64.9121 469.782 64.7729 469.582 64.6753C469.386 64.5728 469.162 64.5215 468.908 64.5215ZM473.756 61.2402C473.756 60.957 473.798 60.6909 473.881 60.4419C473.969 60.1929 474.098 59.9756 474.269 59.79C474.445 59.6045 474.662 59.458 474.921 59.3506C475.185 59.2383 475.49 59.1821 475.836 59.1821C476.193 59.1821 476.5 59.2383 476.759 59.3506C477.023 59.458 477.24 59.6045 477.411 59.79C477.582 59.9756 477.709 60.1929 477.792 60.4419C477.88 60.6909 477.924 60.957 477.924 61.2402V61.8042C477.924 62.0825 477.88 62.3462 477.792 62.5952C477.709 62.8394 477.582 63.0566 477.411 63.2471C477.24 63.4326 477.025 63.5791 476.767 63.6865C476.508 63.7939 476.203 63.8477 475.851 63.8477C475.5 63.8477 475.192 63.7939 474.928 63.6865C474.669 63.5791 474.452 63.4326 474.276 63.2471C474.105 63.0566 473.976 62.8394 473.888 62.5952C473.8 62.3462 473.756 62.0825 473.756 61.8042V61.2402ZM475.133 61.8042C475.133 61.9165 475.146 62.0264 475.17 62.1338C475.194 62.2363 475.233 62.3291 475.287 62.4121C475.346 62.4902 475.421 62.5537 475.514 62.6025C475.607 62.6465 475.719 62.6685 475.851 62.6685C475.983 62.6685 476.093 62.6465 476.181 62.6025C476.273 62.5537 476.347 62.4902 476.4 62.4121C476.454 62.3291 476.493 62.2363 476.518 62.1338C476.542 62.0264 476.554 61.9165 476.554 61.8042V61.2402C476.554 61.1279 476.542 61.0205 476.518 60.918C476.493 60.8105 476.452 60.7178 476.393 60.6396C476.339 60.5566 476.266 60.4932 476.173 60.4492C476.085 60.4004 475.973 60.376 475.836 60.376C475.705 60.376 475.595 60.4004 475.507 60.4492C475.419 60.4932 475.346 60.5566 475.287 60.6396C475.233 60.7178 475.194 60.8105 475.17 60.918C475.146 61.0205 475.133 61.1279 475.133 61.2402V61.8042ZM478.063 67.5317C478.063 67.2534 478.107 66.9897 478.195 66.7407C478.283 66.4917 478.412 66.2744 478.583 66.0889C478.759 65.8984 478.976 65.7495 479.235 65.6421C479.499 65.5347 479.804 65.481 480.15 65.481C480.507 65.481 480.814 65.5347 481.073 65.6421C481.337 65.7495 481.554 65.8984 481.725 66.0889C481.896 66.2744 482.023 66.4917 482.106 66.7407C482.194 66.9897 482.238 67.2534 482.238 67.5317V68.103C482.238 68.3813 482.196 68.645 482.113 68.894C482.03 69.1431 481.901 69.3604 481.725 69.5459C481.554 69.7314 481.339 69.8779 481.081 69.9854C480.822 70.0928 480.517 70.1465 480.165 70.1465C479.813 70.1465 479.506 70.0928 479.242 69.9854C478.979 69.8779 478.759 69.7314 478.583 69.5459C478.412 69.3604 478.283 69.1431 478.195 68.894C478.107 68.645 478.063 68.3813 478.063 68.103V67.5317ZM479.44 68.103C479.44 68.2153 479.455 68.3252 479.484 68.4326C479.513 68.5352 479.557 68.6279 479.616 68.7109C479.679 68.7891 479.755 68.8525 479.843 68.9014C479.936 68.9453 480.043 68.9673 480.165 68.9673C480.316 68.9673 480.438 68.9453 480.531 68.9014C480.624 68.8525 480.695 68.7891 480.744 68.7109C480.792 68.6279 480.824 68.5352 480.839 68.4326C480.854 68.3301 480.861 68.2202 480.861 68.103V67.5317C480.861 67.4194 480.849 67.312 480.824 67.2095C480.8 67.1069 480.758 67.0166 480.7 66.9385C480.646 66.8555 480.573 66.792 480.48 66.748C480.392 66.6992 480.282 66.6748 480.15 66.6748C480.019 66.6748 479.906 66.6992 479.813 66.748C479.721 66.792 479.647 66.8555 479.594 66.9385C479.54 67.0166 479.501 67.1069 479.477 67.2095C479.452 67.312 479.44 67.4194 479.44 67.5317V68.103ZM476.54 68.5498L475.543 68.0737L479.652 60.5444L480.648 61.0205L476.54 68.5498Z" fill="#8D75F3"/>
<circle cx="487.5" cy="90.5" r="7.5" fill="#8D75F3"/>
<circle cx="487.5" cy="142.5" r="7.5" fill="#8D75F3"/>
<circle cx="460.5" cy="90.5" r="7.5" fill="#8D75F3"/>
<circle cx="460.5" cy="116.5" r="7.5" fill="#8D75F3"/>
<circle cx="487.5" cy="116.5" r="7.5" fill="#8D75F3"/>
<circle cx="460.5" cy="142.5" r="7.5" fill="#8D75F3"/>
<path d="M722.462 69.0376H723.7V70.6855H722.462V73H720.426V70.6855H715.995L715.915 69.4111L720.397 62.3359H722.462V69.0376ZM717.914 69.0376H720.426V65.0752L720.229 65.4268L717.914 69.0376ZM727.582 71.8208C727.582 71.6304 727.614 71.4546 727.677 71.2935C727.741 71.1274 727.833 70.9858 727.956 70.8687C728.078 70.7466 728.227 70.6514 728.402 70.583C728.578 70.5098 728.776 70.4731 728.996 70.4731C729.215 70.4731 729.413 70.5098 729.589 70.583C729.765 70.6514 729.911 70.7466 730.028 70.8687C730.15 70.9858 730.243 71.1274 730.307 71.2935C730.375 71.4546 730.409 71.6304 730.409 71.8208C730.409 72.0063 730.375 72.1797 730.307 72.3408C730.243 72.502 730.15 72.6436 730.028 72.7656C729.911 72.8828 729.765 72.9756 729.589 73.0439C729.413 73.1123 729.215 73.1465 728.996 73.1465C728.776 73.1465 728.578 73.1123 728.402 73.0439C728.227 72.9756 728.078 72.8828 727.956 72.7656C727.833 72.6436 727.741 72.502 727.677 72.3408C727.614 72.1797 727.582 72.0063 727.582 71.8208ZM741.505 73H734.232V71.6084L737.682 67.9023C737.951 67.6094 738.178 67.3433 738.363 67.104C738.549 66.8647 738.698 66.6475 738.81 66.4521C738.927 66.252 739.01 66.0664 739.059 65.8955C739.113 65.7246 739.14 65.5586 739.14 65.3975C739.14 65.1582 739.105 64.9458 739.037 64.7603C738.969 64.5747 738.871 64.4185 738.744 64.2915C738.622 64.1597 738.473 64.0596 738.297 63.9912C738.126 63.9229 737.936 63.8887 737.726 63.8887C737.165 63.8887 736.745 64.0449 736.466 64.3574C736.193 64.6699 736.056 65.1069 736.056 65.6685H734.013C734.013 65.1948 734.103 64.748 734.284 64.3281C734.464 63.9033 734.718 63.5322 735.045 63.2148C735.377 62.8975 735.775 62.6484 736.239 62.4678C736.708 62.2822 737.226 62.1895 737.792 62.1895C738.334 62.1895 738.812 62.2651 739.228 62.4165C739.647 62.5679 739.997 62.7803 740.275 63.0537C740.558 63.3271 740.773 63.6567 740.919 64.0425C741.066 64.4233 741.139 64.8457 741.139 65.3096C741.139 65.6611 741.083 65.998 740.971 66.3203C740.863 66.6377 740.707 66.9526 740.502 67.2651C740.302 67.5776 740.06 67.8975 739.777 68.2246C739.494 68.5469 739.179 68.8862 738.832 69.2427L736.825 71.3667H741.505V73ZM742.765 64.2402C742.765 63.957 742.807 63.6909 742.89 63.4419C742.978 63.1929 743.107 62.9756 743.278 62.79C743.454 62.6045 743.671 62.458 743.93 62.3506C744.193 62.2383 744.499 62.1821 744.845 62.1821C745.202 62.1821 745.509 62.2383 745.768 62.3506C746.032 62.458 746.249 62.6045 746.42 62.79C746.591 62.9756 746.718 63.1929 746.801 63.4419C746.889 63.6909 746.933 63.957 746.933 64.2402V64.8042C746.933 65.0825 746.889 65.3462 746.801 65.5952C746.718 65.8394 746.591 66.0566 746.42 66.2471C746.249 66.4326 746.034 66.5791 745.775 66.6865C745.517 66.7939 745.211 66.8477 744.86 66.8477C744.508 66.8477 744.201 66.7939 743.937 66.6865C743.678 66.5791 743.461 66.4326 743.285 66.2471C743.114 66.0566 742.985 65.8394 742.897 65.5952C742.809 65.3462 742.765 65.0825 742.765 64.8042V64.2402ZM744.142 64.8042C744.142 64.9165 744.154 65.0264 744.179 65.1338C744.203 65.2363 744.242 65.3291 744.296 65.4121C744.354 65.4902 744.43 65.5537 744.523 65.6025C744.616 65.6465 744.728 65.6685 744.86 65.6685C744.992 65.6685 745.102 65.6465 745.189 65.6025C745.282 65.5537 745.355 65.4902 745.409 65.4121C745.463 65.3291 745.502 65.2363 745.526 65.1338C745.551 65.0264 745.563 64.9165 745.563 64.8042V64.2402C745.563 64.1279 745.551 64.0205 745.526 63.918C745.502 63.8105 745.46 63.7178 745.402 63.6396C745.348 63.5566 745.275 63.4932 745.182 63.4492C745.094 63.4004 744.982 63.376 744.845 63.376C744.713 63.376 744.604 63.4004 744.516 63.4492C744.428 63.4932 744.354 63.5566 744.296 63.6396C744.242 63.7178 744.203 63.8105 744.179 63.918C744.154 64.0205 744.142 64.1279 744.142 64.2402V64.8042ZM747.072 70.5317C747.072 70.2534 747.116 69.9897 747.204 69.7407C747.292 69.4917 747.421 69.2744 747.592 69.0889C747.768 68.8984 747.985 68.7495 748.244 68.6421C748.507 68.5347 748.812 68.481 749.159 68.481C749.516 68.481 749.823 68.5347 750.082 68.6421C750.346 68.7495 750.563 68.8984 750.734 69.0889C750.905 69.2744 751.032 69.4917 751.115 69.7407C751.203 69.9897 751.247 70.2534 751.247 70.5317V71.103C751.247 71.3813 751.205 71.645 751.122 71.894C751.039 72.1431 750.91 72.3604 750.734 72.5459C750.563 72.7314 750.348 72.8779 750.089 72.9854C749.831 73.0928 749.525 73.1465 749.174 73.1465C748.822 73.1465 748.515 73.0928 748.251 72.9854C747.987 72.8779 747.768 72.7314 747.592 72.5459C747.421 72.3604 747.292 72.1431 747.204 71.894C747.116 71.645 747.072 71.3813 747.072 71.103V70.5317ZM748.449 71.103C748.449 71.2153 748.463 71.3252 748.493 71.4326C748.522 71.5352 748.566 71.6279 748.625 71.7109C748.688 71.7891 748.764 71.8525 748.852 71.9014C748.944 71.9453 749.052 71.9673 749.174 71.9673C749.325 71.9673 749.447 71.9453 749.54 71.9014C749.633 71.8525 749.704 71.7891 749.752 71.7109C749.801 71.6279 749.833 71.5352 749.848 71.4326C749.862 71.3301 749.87 71.2202 749.87 71.103V70.5317C749.87 70.4194 749.857 70.312 749.833 70.2095C749.809 70.1069 749.767 70.0166 749.708 69.9385C749.655 69.8555 749.582 69.792 749.489 69.748C749.401 69.6992 749.291 69.6748 749.159 69.6748C749.027 69.6748 748.915 69.6992 748.822 69.748C748.729 69.792 748.656 69.8555 748.603 69.9385C748.549 70.0166 748.51 70.1069 748.485 70.2095C748.461 70.312 748.449 70.4194 748.449 70.5317V71.103ZM745.548 71.5498L744.552 71.0737L748.661 63.5444L749.657 64.0205L745.548 71.5498Z" fill="#6CBAFA"/>
<circle cx="716.5" cy="90.5" r="7.5" fill="#6CBAFA"/>
<circle cx="716.5" cy="142.5" r="7.5" fill="#6CBAFA"/>
<circle cx="716.5" cy="116.5" r="7.5" fill="#6CBAFA"/>
<circle cx="743.5" cy="90.5" r="7.5" fill="#6CBAFA"/>
<circle cx="741" cy="112" r="3" fill="#6CBAFA"/>
<path d="M976.503 73H974.445V64.8188L971.75 65.7856V64.0132L976.393 62.3359H976.503V73ZM982.582 71.8208C982.582 71.6304 982.614 71.4546 982.677 71.2935C982.741 71.1274 982.833 70.9858 982.956 70.8687C983.078 70.7466 983.227 70.6514 983.402 70.583C983.578 70.5098 983.776 70.4731 983.996 70.4731C984.215 70.4731 984.413 70.5098 984.589 70.583C984.765 70.6514 984.911 70.7466 985.028 70.8687C985.15 70.9858 985.243 71.1274 985.307 71.2935C985.375 71.4546 985.409 71.6304 985.409 71.8208C985.409 72.0063 985.375 72.1797 985.307 72.3408C985.243 72.502 985.15 72.6436 985.028 72.7656C984.911 72.8828 984.765 72.9756 984.589 73.0439C984.413 73.1123 984.215 73.1465 983.996 73.1465C983.776 73.1465 983.578 73.1123 983.402 73.0439C983.227 72.9756 983.078 72.8828 982.956 72.7656C982.833 72.6436 982.741 72.502 982.677 72.3408C982.614 72.1797 982.582 72.0063 982.582 71.8208ZM994.938 62.248V63.9399H994.821C994.284 63.9399 993.808 64.0107 993.393 64.1523C992.982 64.2939 992.631 64.4941 992.338 64.7529C992.05 65.0117 991.82 65.3218 991.649 65.6831C991.483 66.0444 991.378 66.4473 991.334 66.8916C991.447 66.7695 991.576 66.6499 991.723 66.5327C991.869 66.4106 992.033 66.3032 992.213 66.2104C992.399 66.1128 992.599 66.0347 992.814 65.9761C993.029 65.9175 993.261 65.8882 993.51 65.8882C994.018 65.8882 994.459 65.9858 994.835 66.1812C995.216 66.3716 995.534 66.6328 995.788 66.9648C996.042 67.292 996.229 67.6753 996.352 68.1147C996.479 68.5493 996.542 69.0083 996.542 69.4917C996.542 70.0093 996.459 70.4902 996.293 70.9346C996.127 71.3789 995.89 71.7646 995.583 72.0918C995.275 72.4189 994.901 72.6777 994.462 72.8682C994.022 73.0537 993.529 73.1465 992.982 73.1465C992.411 73.1465 991.896 73.0415 991.437 72.8315C990.978 72.6167 990.587 72.3213 990.265 71.9453C989.948 71.5693 989.701 71.125 989.525 70.6123C989.354 70.0947 989.269 69.5308 989.269 68.9204V68.1367C989.269 67.292 989.384 66.5107 989.613 65.793C989.843 65.0703 990.185 64.4478 990.639 63.9253C991.093 63.3979 991.657 62.9878 992.331 62.6948C993.004 62.397 993.783 62.248 994.667 62.248H994.938ZM992.917 67.5215C992.55 67.5215 992.226 67.6191 991.942 67.8145C991.664 68.0098 991.454 68.2612 991.312 68.5688V69.1694C991.312 69.5601 991.352 69.9019 991.43 70.1948C991.513 70.4878 991.627 70.7319 991.774 70.9272C991.92 71.1177 992.094 71.2617 992.294 71.3594C992.494 71.457 992.711 71.5059 992.946 71.5059C993.185 71.5059 993.402 71.457 993.598 71.3594C993.793 71.2568 993.959 71.1177 994.096 70.9419C994.232 70.7661 994.337 70.5586 994.411 70.3193C994.484 70.0752 994.521 69.8091 994.521 69.521C994.521 69.2329 994.484 68.9668 994.411 68.7227C994.337 68.4785 994.232 68.2686 994.096 68.0928C993.959 67.9121 993.791 67.7729 993.59 67.6753C993.395 67.5728 993.17 67.5215 992.917 67.5215ZM997.765 64.2402C997.765 63.957 997.807 63.6909 997.89 63.4419C997.978 63.1929 998.107 62.9756 998.278 62.79C998.454 62.6045 998.671 62.458 998.93 62.3506C999.193 62.2383 999.499 62.1821 999.845 62.1821C1000.2 62.1821 1000.51 62.2383 1000.77 62.3506C1001.03 62.458 1001.25 62.6045 1001.42 62.79C1001.59 62.9756 1001.72 63.1929 1001.8 63.4419C1001.89 63.6909 1001.93 63.957 1001.93 64.2402V64.8042C1001.93 65.0825 1001.89 65.3462 1001.8 65.5952C1001.72 65.8394 1001.59 66.0566 1001.42 66.2471C1001.25 66.4326 1001.03 66.5791 1000.78 66.6865C1000.52 66.7939 1000.21 66.8477 999.86 66.8477C999.508 66.8477 999.201 66.7939 998.937 66.6865C998.678 66.5791 998.461 66.4326 998.285 66.2471C998.114 66.0566 997.985 65.8394 997.897 65.5952C997.809 65.3462 997.765 65.0825 997.765 64.8042V64.2402ZM999.142 64.8042C999.142 64.9165 999.154 65.0264 999.179 65.1338C999.203 65.2363 999.242 65.3291 999.296 65.4121C999.354 65.4902 999.43 65.5537 999.523 65.6025C999.616 65.6465 999.728 65.6685 999.86 65.6685C999.992 65.6685 1000.1 65.6465 1000.19 65.6025C1000.28 65.5537 1000.36 65.4902 1000.41 65.4121C1000.46 65.3291 1000.5 65.2363 1000.53 65.1338C1000.55 65.0264 1000.56 64.9165 1000.56 64.8042V64.2402C1000.56 64.1279 1000.55 64.0205 1000.53 63.918C1000.5 63.8105 1000.46 63.7178 1000.4 63.6396C1000.35 63.5566 1000.27 63.4932 1000.18 63.4492C1000.09 63.4004 999.982 63.376 999.845 63.376C999.713 63.376 999.604 63.4004 999.516 63.4492C999.428 63.4932 999.354 63.5566 999.296 63.6396C999.242 63.7178 999.203 63.8105 999.179 63.918C999.154 64.0205 999.142 64.1279 999.142 64.2402V64.8042ZM1002.07 70.5317C1002.07 70.2534 1002.12 69.9897 1002.2 69.7407C1002.29 69.4917 1002.42 69.2744 1002.59 69.0889C1002.77 68.8984 1002.98 68.7495 1003.24 68.6421C1003.51 68.5347 1003.81 68.481 1004.16 68.481C1004.52 68.481 1004.82 68.5347 1005.08 68.6421C1005.35 68.7495 1005.56 68.8984 1005.73 69.0889C1005.9 69.2744 1006.03 69.4917 1006.11 69.7407C1006.2 69.9897 1006.25 70.2534 1006.25 70.5317V71.103C1006.25 71.3813 1006.21 71.645 1006.12 71.894C1006.04 72.1431 1005.91 72.3604 1005.73 72.5459C1005.56 72.7314 1005.35 72.8779 1005.09 72.9854C1004.83 73.0928 1004.53 73.1465 1004.17 73.1465C1003.82 73.1465 1003.51 73.0928 1003.25 72.9854C1002.99 72.8779 1002.77 72.7314 1002.59 72.5459C1002.42 72.3604 1002.29 72.1431 1002.2 71.894C1002.12 71.645 1002.07 71.3813 1002.07 71.103V70.5317ZM1003.45 71.103C1003.45 71.2153 1003.46 71.3252 1003.49 71.4326C1003.52 71.5352 1003.57 71.6279 1003.62 71.7109C1003.69 71.7891 1003.76 71.8525 1003.85 71.9014C1003.94 71.9453 1004.05 71.9673 1004.17 71.9673C1004.33 71.9673 1004.45 71.9453 1004.54 71.9014C1004.63 71.8525 1004.7 71.7891 1004.75 71.7109C1004.8 71.6279 1004.83 71.5352 1004.85 71.4326C1004.86 71.3301 1004.87 71.2202 1004.87 71.103V70.5317C1004.87 70.4194 1004.86 70.312 1004.83 70.2095C1004.81 70.1069 1004.77 70.0166 1004.71 69.9385C1004.65 69.8555 1004.58 69.792 1004.49 69.748C1004.4 69.6992 1004.29 69.6748 1004.16 69.6748C1004.03 69.6748 1003.92 69.6992 1003.82 69.748C1003.73 69.792 1003.66 69.8555 1003.6 69.9385C1003.55 70.0166 1003.51 70.1069 1003.49 70.2095C1003.46 70.312 1003.45 70.4194 1003.45 70.5317V71.103ZM1000.55 71.5498L999.552 71.0737L1003.66 63.5444L1004.66 64.0205L1000.55 71.5498Z" fill="#FBC800"/>
<circle cx="983.5" cy="90.5" r="7.5" fill="#FBC800"/>
<circle cx="983.5" cy="113.5" r="4.5" fill="#FBC800"/>
<path d="M459.628 257.253C459.628 257 459.575 256.777 459.467 256.587C459.365 256.392 459.216 256.221 459.021 256.074C458.83 255.928 458.601 255.801 458.332 255.693C458.068 255.581 457.78 255.479 457.468 255.386C457.048 255.264 456.633 255.112 456.223 254.932C455.817 254.751 455.454 254.531 455.131 254.272C454.814 254.009 454.555 253.704 454.355 253.357C454.16 253.005 454.062 252.6 454.062 252.141C454.062 251.682 454.16 251.272 454.355 250.911C454.555 250.544 454.821 250.234 455.153 249.98C455.485 249.727 455.871 249.531 456.311 249.395C456.75 249.258 457.209 249.189 457.688 249.189C458.2 249.189 458.679 249.27 459.123 249.431C459.572 249.587 459.963 249.81 460.295 250.098C460.632 250.381 460.898 250.723 461.093 251.123C461.289 251.519 461.389 251.958 461.394 252.441H459.636C459.611 252.173 459.553 251.929 459.46 251.709C459.372 251.484 459.245 251.292 459.079 251.13C458.918 250.969 458.72 250.845 458.486 250.757C458.251 250.669 457.98 250.625 457.673 250.625C457.409 250.625 457.165 250.659 456.94 250.728C456.716 250.796 456.521 250.896 456.354 251.028C456.193 251.16 456.066 251.318 455.974 251.504C455.881 251.689 455.834 251.899 455.834 252.134C455.834 252.383 455.898 252.6 456.025 252.786C456.152 252.966 456.318 253.125 456.523 253.262C456.728 253.398 456.962 253.518 457.226 253.621C457.495 253.718 457.773 253.809 458.061 253.892C458.505 254.023 458.93 254.187 459.335 254.382C459.741 254.573 460.097 254.805 460.405 255.078C460.712 255.347 460.957 255.659 461.137 256.016C461.318 256.372 461.408 256.78 461.408 257.239C461.408 257.712 461.308 258.13 461.108 258.491C460.908 258.853 460.639 259.155 460.302 259.399C459.965 259.644 459.575 259.829 459.13 259.956C458.686 260.078 458.222 260.139 457.739 260.139C457.412 260.139 457.087 260.107 456.765 260.044C456.442 259.98 456.132 259.885 455.834 259.758C455.542 259.631 455.268 259.475 455.014 259.29C454.76 259.099 454.538 258.882 454.348 258.638C454.162 258.389 454.016 258.113 453.908 257.81C453.801 257.502 453.745 257.166 453.74 256.799H455.505C455.529 257.122 455.6 257.402 455.717 257.642C455.834 257.881 455.991 258.081 456.186 258.242C456.381 258.398 456.608 258.518 456.867 258.601C457.131 258.679 457.421 258.718 457.739 258.718C458.002 258.718 458.249 258.687 458.479 258.623C458.708 258.56 458.908 258.467 459.079 258.345C459.25 258.218 459.384 258.064 459.482 257.883C459.58 257.698 459.628 257.488 459.628 257.253ZM470.007 260H468.293V255.239H464.667V260H462.961V249.336H464.667V253.796H468.293V249.336H470.007V260ZM477.28 257.524H473.947L473.215 260H471.398L474.863 249.336H476.408L479.807 260H477.998L477.28 257.524ZM474.394 256.023H476.84L475.632 251.841L474.394 256.023ZM484.692 255.84H482.905V260H481.147V249.336H484.516C485.063 249.341 485.566 249.412 486.025 249.548C486.489 249.68 486.889 249.88 487.226 250.149C487.563 250.413 487.824 250.745 488.01 251.145C488.195 251.545 488.288 252.014 488.288 252.551C488.288 252.913 488.239 253.242 488.142 253.54C488.049 253.833 487.917 254.099 487.746 254.338C487.575 254.578 487.37 254.788 487.131 254.968C486.892 255.149 486.628 255.303 486.34 255.43L488.596 259.912V260H486.721L484.692 255.84ZM482.905 254.419H484.523C484.816 254.419 485.085 254.377 485.329 254.294C485.573 254.211 485.783 254.094 485.959 253.943C486.14 253.787 486.279 253.599 486.376 253.379C486.474 253.154 486.523 252.898 486.523 252.61C486.523 252.312 486.477 252.048 486.384 251.819C486.291 251.589 486.157 251.396 485.981 251.24C485.81 251.084 485.6 250.967 485.351 250.889C485.102 250.806 484.824 250.762 484.516 250.757H482.905V254.419ZM496.374 255.217H491.987V258.564H497.121V260H490.222V249.336H497.07V250.786H491.987V253.796H496.374V255.217ZM515.373 255.356C515.373 255.986 515.292 256.592 515.131 257.173C514.97 257.749 514.729 258.259 514.406 258.704C514.089 259.143 513.688 259.495 513.205 259.758C512.727 260.017 512.165 260.146 511.521 260.146C510.881 260.146 510.324 260.015 509.851 259.751C509.377 259.487 508.981 259.136 508.664 258.696C508.352 258.252 508.115 257.742 507.954 257.166C507.797 256.589 507.719 255.986 507.719 255.356V253.994C507.719 253.574 507.753 253.164 507.822 252.764C507.895 252.363 508 251.987 508.137 251.636C508.278 251.279 508.452 250.952 508.657 250.654C508.867 250.352 509.111 250.093 509.389 249.878C509.672 249.663 509.99 249.495 510.341 249.373C510.698 249.25 511.088 249.189 511.513 249.189C512.158 249.189 512.719 249.321 513.198 249.585C513.681 249.849 514.084 250.203 514.406 250.647C514.729 251.086 514.97 251.597 515.131 252.178C515.292 252.759 515.373 253.364 515.373 253.994V255.356ZM513.608 253.979C513.603 253.579 513.566 253.181 513.498 252.786C513.43 252.39 513.315 252.039 513.154 251.731C512.993 251.418 512.778 251.167 512.509 250.977C512.246 250.781 511.914 250.684 511.513 250.684C511.118 250.684 510.788 250.781 510.524 250.977C510.266 251.167 510.058 251.418 509.902 251.731C509.75 252.043 509.643 252.397 509.58 252.793C509.521 253.184 509.489 253.579 509.484 253.979V255.356C509.489 255.757 509.523 256.155 509.587 256.55C509.65 256.941 509.758 257.295 509.909 257.612C510.065 257.925 510.273 258.179 510.532 258.374C510.795 258.569 511.125 258.667 511.521 258.667C511.921 258.667 512.253 258.569 512.517 258.374C512.785 258.179 513 257.925 513.161 257.612C513.322 257.3 513.435 256.946 513.498 256.55C513.566 256.155 513.603 255.757 513.608 255.356V253.979ZM523.54 255.459H519.064V260H517.292V249.336H524.199V250.786H519.064V254.016H523.54V255.459ZM535.405 249.336H541.748V250.793H539.44V258.55H541.748V260H535.405V258.55H537.661V250.793H535.405V249.336ZM551.079 260H549.306L545.834 252.661L545.827 260H544.047V249.336H545.827L549.284 256.653L549.299 249.336H551.079V260ZM553.1 260V249.336H555.708C556.44 249.341 557.097 249.463 557.678 249.702C558.264 249.941 558.759 250.278 559.165 250.713C559.575 251.147 559.89 251.667 560.109 252.273C560.329 252.874 560.441 253.54 560.446 254.272V255.078C560.441 255.811 560.329 256.479 560.109 257.085C559.89 257.686 559.577 258.203 559.172 258.638C558.767 259.067 558.276 259.402 557.7 259.641C557.124 259.88 556.477 260 555.759 260H553.1ZM554.887 250.757V258.586H555.759C556.242 258.582 556.665 258.496 557.026 258.33C557.387 258.159 557.688 257.922 557.927 257.62C558.171 257.312 558.352 256.943 558.469 256.514C558.591 256.084 558.654 255.605 558.659 255.078V254.258C558.654 253.745 558.591 253.276 558.469 252.852C558.352 252.427 558.171 252.061 557.927 251.753C557.683 251.44 557.375 251.199 557.004 251.028C556.638 250.852 556.206 250.762 555.708 250.757H554.887ZM562.431 249.336H568.774V250.793H566.467V258.55H568.774V260H562.431V258.55H564.687V250.793H562.431V249.336ZM574.597 257.327L576.816 249.336H578.735L575.439 260H573.762L570.473 249.336H572.392L574.597 257.327ZM580.449 249.336H586.792V250.793H584.484V258.55H586.792V260H580.449V258.55H582.705V250.793H580.449V249.336ZM589.135 260V249.336H591.743C592.475 249.341 593.132 249.463 593.713 249.702C594.299 249.941 594.794 250.278 595.2 250.713C595.61 251.147 595.925 251.667 596.145 252.273C596.364 252.874 596.477 253.54 596.481 254.272V255.078C596.477 255.811 596.364 256.479 596.145 257.085C595.925 257.686 595.612 258.203 595.207 258.638C594.802 259.067 594.311 259.402 593.735 259.641C593.159 259.88 592.512 260 591.794 260H589.135ZM590.922 250.757V258.586H591.794C592.277 258.582 592.7 258.496 593.061 258.33C593.422 258.159 593.723 257.922 593.962 257.62C594.206 257.312 594.387 256.943 594.504 256.514C594.626 256.084 594.689 255.605 594.694 255.078V254.258C594.689 253.745 594.626 253.276 594.504 252.852C594.387 252.427 594.206 252.061 593.962 251.753C593.718 251.44 593.41 251.199 593.039 251.028C592.673 250.852 592.241 250.762 591.743 250.757H590.922ZM605.168 249.336L605.183 256.477C605.178 257.024 605.09 257.524 604.919 257.979C604.748 258.428 604.509 258.813 604.201 259.136C603.894 259.458 603.52 259.707 603.081 259.883C602.646 260.059 602.158 260.146 601.616 260.146C601.088 260.146 600.61 260.059 600.18 259.883C599.75 259.707 599.382 259.46 599.074 259.143C598.767 258.821 598.527 258.435 598.356 257.986C598.186 257.532 598.098 257.029 598.093 256.477L598.107 249.336H599.836L599.851 256.477C599.855 256.804 599.897 257.104 599.975 257.378C600.053 257.651 600.166 257.888 600.312 258.088C600.458 258.284 600.639 258.438 600.854 258.55C601.074 258.657 601.328 258.711 601.616 258.711C601.909 258.711 602.167 258.657 602.392 258.55C602.617 258.438 602.805 258.284 602.956 258.088C603.107 257.888 603.222 257.651 603.3 257.378C603.378 257.104 603.42 256.804 603.425 256.477L603.439 249.336H605.168ZM612.412 257.524H609.079L608.347 260H606.53L609.995 249.336H611.54L614.938 260H613.129L612.412 257.524ZM609.526 256.023H611.972L610.764 251.841L609.526 256.023ZM618.176 258.564H623.259V260H616.418V249.336H618.176V258.564ZM641.423 258.667C641.242 258.882 641.03 259.08 640.786 259.26C640.542 259.441 640.268 259.597 639.965 259.729C639.663 259.861 639.333 259.963 638.977 260.037C638.625 260.11 638.249 260.146 637.849 260.146C637.209 260.146 636.643 260.022 636.149 259.773C635.656 259.524 635.239 259.185 634.897 258.755C634.56 258.32 634.301 257.81 634.121 257.224C633.945 256.638 633.854 256.008 633.85 255.334V254.016C633.85 253.342 633.938 252.712 634.113 252.126C634.289 251.541 634.541 251.03 634.868 250.596C635.2 250.161 635.605 249.819 636.083 249.57C636.562 249.316 637.109 249.189 637.724 249.189C638.276 249.189 638.769 249.265 639.204 249.417C639.638 249.568 640.012 249.788 640.324 250.076C640.637 250.359 640.883 250.706 641.064 251.116C641.25 251.526 641.367 251.985 641.416 252.493H639.687C639.643 252.205 639.575 251.946 639.482 251.716C639.389 251.487 639.265 251.292 639.108 251.13C638.952 250.969 638.762 250.847 638.537 250.764C638.317 250.676 638.056 250.632 637.753 250.632C637.382 250.632 637.062 250.725 636.794 250.911C636.53 251.091 636.311 251.338 636.135 251.65C635.959 251.958 635.83 252.317 635.747 252.727C635.664 253.132 635.62 253.557 635.615 254.001V255.334C635.62 255.779 635.664 256.204 635.747 256.609C635.834 257.014 635.969 257.373 636.149 257.686C636.335 257.993 636.572 258.24 636.86 258.425C637.148 258.611 637.495 258.706 637.9 258.711C638.066 258.711 638.237 258.701 638.413 258.682C638.588 258.657 638.754 258.621 638.911 258.572C639.072 258.523 639.218 258.462 639.35 258.389C639.482 258.311 639.589 258.215 639.672 258.103L639.687 255.972H637.761V254.602H641.408L641.423 258.667ZM648.447 257.524H645.114L644.382 260H642.565L646.03 249.336H647.575L650.974 260H649.165L648.447 257.524ZM645.561 256.023H648.007L646.799 251.841L645.561 256.023ZM657.822 257.253C657.822 257 657.768 256.777 657.661 256.587C657.558 256.392 657.409 256.221 657.214 256.074C657.023 255.928 656.794 255.801 656.525 255.693C656.262 255.581 655.974 255.479 655.661 255.386C655.241 255.264 654.826 255.112 654.416 254.932C654.011 254.751 653.647 254.531 653.325 254.272C653.007 254.009 652.749 253.704 652.548 253.357C652.353 253.005 652.255 252.6 652.255 252.141C652.255 251.682 652.353 251.272 652.548 250.911C652.749 250.544 653.015 250.234 653.347 249.98C653.679 249.727 654.064 249.531 654.504 249.395C654.943 249.258 655.402 249.189 655.881 249.189C656.394 249.189 656.872 249.27 657.316 249.431C657.766 249.587 658.156 249.81 658.488 250.098C658.825 250.381 659.091 250.723 659.287 251.123C659.482 251.519 659.582 251.958 659.587 252.441H657.829C657.805 252.173 657.746 251.929 657.653 251.709C657.565 251.484 657.438 251.292 657.272 251.13C657.111 250.969 656.914 250.845 656.679 250.757C656.445 250.669 656.174 250.625 655.866 250.625C655.603 250.625 655.358 250.659 655.134 250.728C654.909 250.796 654.714 250.896 654.548 251.028C654.387 251.16 654.26 251.318 654.167 251.504C654.074 251.689 654.028 251.899 654.028 252.134C654.028 252.383 654.091 252.6 654.218 252.786C654.345 252.966 654.511 253.125 654.716 253.262C654.921 253.398 655.156 253.518 655.419 253.621C655.688 253.718 655.966 253.809 656.254 253.892C656.699 254.023 657.124 254.187 657.529 254.382C657.934 254.573 658.291 254.805 658.598 255.078C658.906 255.347 659.15 255.659 659.331 256.016C659.511 256.372 659.602 256.78 659.602 257.239C659.602 257.712 659.501 258.13 659.301 258.491C659.101 258.853 658.833 259.155 658.496 259.399C658.159 259.644 657.768 259.829 657.324 259.956C656.879 260.078 656.416 260.139 655.932 260.139C655.605 260.139 655.28 260.107 654.958 260.044C654.636 259.98 654.326 259.885 654.028 259.758C653.735 259.631 653.461 259.475 653.208 259.29C652.954 259.099 652.731 258.882 652.541 258.638C652.355 258.389 652.209 258.113 652.102 257.81C651.994 257.502 651.938 257.166 651.933 256.799H653.698C653.723 257.122 653.793 257.402 653.911 257.642C654.028 257.881 654.184 258.081 654.379 258.242C654.575 258.398 654.802 258.518 655.061 258.601C655.324 258.679 655.615 258.718 655.932 258.718C656.196 258.718 656.442 258.687 656.672 258.623C656.901 258.56 657.102 258.467 657.272 258.345C657.443 258.218 657.578 258.064 657.675 257.883C657.773 257.698 657.822 257.488 657.822 257.253ZM667.541 255.217H663.154V258.564H668.288V260H661.389V249.336H668.237V250.786H663.154V253.796H667.541V255.217ZM675.839 257.253C675.839 257 675.786 256.777 675.678 256.587C675.576 256.392 675.427 256.221 675.231 256.074C675.041 255.928 674.812 255.801 674.543 255.693C674.279 255.581 673.991 255.479 673.679 255.386C673.259 255.264 672.844 255.112 672.434 254.932C672.028 254.751 671.665 254.531 671.342 254.272C671.025 254.009 670.766 253.704 670.566 253.357C670.371 253.005 670.273 252.6 670.273 252.141C670.273 251.682 670.371 251.272 670.566 250.911C670.766 250.544 671.032 250.234 671.364 249.98C671.696 249.727 672.082 249.531 672.521 249.395C672.961 249.258 673.42 249.189 673.898 249.189C674.411 249.189 674.89 249.27 675.334 249.431C675.783 249.587 676.174 249.81 676.506 250.098C676.843 250.381 677.109 250.723 677.304 251.123C677.5 251.519 677.6 251.958 677.604 252.441H675.847C675.822 252.173 675.764 251.929 675.671 251.709C675.583 251.484 675.456 251.292 675.29 251.13C675.129 250.969 674.931 250.845 674.697 250.757C674.462 250.669 674.191 250.625 673.884 250.625C673.62 250.625 673.376 250.659 673.151 250.728C672.927 250.796 672.731 250.896 672.565 251.028C672.404 251.16 672.277 251.318 672.185 251.504C672.092 251.689 672.045 251.899 672.045 252.134C672.045 252.383 672.109 252.6 672.236 252.786C672.363 252.966 672.529 253.125 672.734 253.262C672.939 253.398 673.173 253.518 673.437 253.621C673.706 253.718 673.984 253.809 674.272 253.892C674.716 254.023 675.141 254.187 675.546 254.382C675.952 254.573 676.308 254.805 676.616 255.078C676.923 255.347 677.167 255.659 677.348 256.016C677.529 256.372 677.619 256.78 677.619 257.239C677.619 257.712 677.519 258.13 677.319 258.491C677.119 258.853 676.85 259.155 676.513 259.399C676.176 259.644 675.786 259.829 675.341 259.956C674.897 260.078 674.433 260.139 673.95 260.139C673.623 260.139 673.298 260.107 672.976 260.044C672.653 259.98 672.343 259.885 672.045 259.758C671.752 259.631 671.479 259.475 671.225 259.29C670.971 259.099 670.749 258.882 670.559 258.638C670.373 258.389 670.227 258.113 670.119 257.81C670.012 257.502 669.956 257.166 669.951 256.799H671.716C671.74 257.122 671.811 257.402 671.928 257.642C672.045 257.881 672.202 258.081 672.397 258.242C672.592 258.398 672.819 258.518 673.078 258.601C673.342 258.679 673.632 258.718 673.95 258.718C674.213 258.718 674.46 258.687 674.689 258.623C674.919 258.56 675.119 258.467 675.29 258.345C675.461 258.218 675.595 258.064 675.693 257.883C675.791 257.698 675.839 257.488 675.839 257.253ZM688.554 249.336H694.897V250.793H692.59V258.55H694.897V260H688.554V258.55H690.81V250.793H688.554V249.336ZM704.228 260H702.456L698.984 252.661L698.977 260H697.197V249.336H698.977L702.434 256.653L702.448 249.336H704.228V260ZM718.92 255.84H717.133V260H715.375V249.336H718.745C719.292 249.341 719.794 249.412 720.253 249.548C720.717 249.68 721.118 249.88 721.455 250.149C721.792 250.413 722.053 250.745 722.238 251.145C722.424 251.545 722.517 252.014 722.517 252.551C722.517 252.913 722.468 253.242 722.37 253.54C722.277 253.833 722.146 254.099 721.975 254.338C721.804 254.578 721.599 254.788 721.359 254.968C721.12 255.149 720.856 255.303 720.568 255.43L722.824 259.912V260H720.949L718.92 255.84ZM717.133 254.419H718.752C719.045 254.419 719.313 254.377 719.558 254.294C719.802 254.211 720.012 254.094 720.188 253.943C720.368 253.787 720.507 253.599 720.605 253.379C720.703 253.154 720.751 252.898 720.751 252.61C720.751 252.312 720.705 252.048 720.612 251.819C720.52 251.589 720.385 251.396 720.209 251.24C720.039 251.084 719.829 250.967 719.58 250.889C719.331 250.806 719.052 250.762 718.745 250.757H717.133V254.419ZM730.603 255.217H726.215V258.564H731.35V260H724.45V249.336H731.298V250.786H726.215V253.796H730.603V255.217ZM735.29 258.564H740.373V260H733.532V249.336H735.29V258.564ZM747.543 257.524H744.211L743.479 260H741.662L745.126 249.336H746.672L750.07 260H748.261L747.543 257.524ZM744.658 256.023H747.104L745.896 251.841L744.658 256.023ZM758.933 250.786H755.659V260H753.908V250.786H750.656V249.336H758.933V250.786ZM760.625 249.336H766.967V250.793H764.66V258.55H766.967V260H760.625V258.55H762.88V250.793H760.625V249.336ZM776.628 255.356C776.628 255.986 776.547 256.592 776.386 257.173C776.225 257.749 775.983 258.259 775.661 258.704C775.344 259.143 774.943 259.495 774.46 259.758C773.981 260.017 773.42 260.146 772.775 260.146C772.136 260.146 771.579 260.015 771.105 259.751C770.632 259.487 770.236 259.136 769.919 258.696C769.606 258.252 769.37 257.742 769.208 257.166C769.052 256.589 768.974 255.986 768.974 255.356V253.994C768.974 253.574 769.008 253.164 769.077 252.764C769.15 252.363 769.255 251.987 769.392 251.636C769.533 251.279 769.707 250.952 769.912 250.654C770.122 250.352 770.366 250.093 770.644 249.878C770.927 249.663 771.245 249.495 771.596 249.373C771.953 249.25 772.343 249.189 772.768 249.189C773.413 249.189 773.974 249.321 774.453 249.585C774.936 249.849 775.339 250.203 775.661 250.647C775.983 251.086 776.225 251.597 776.386 252.178C776.547 252.759 776.628 253.364 776.628 253.994V255.356ZM774.863 253.979C774.858 253.579 774.821 253.181 774.753 252.786C774.685 252.39 774.57 252.039 774.409 251.731C774.248 251.418 774.033 251.167 773.764 250.977C773.5 250.781 773.168 250.684 772.768 250.684C772.373 250.684 772.043 250.781 771.779 250.977C771.521 251.167 771.313 251.418 771.157 251.731C771.005 252.043 770.898 252.397 770.834 252.793C770.776 253.184 770.744 253.579 770.739 253.979V255.356C770.744 255.757 770.778 256.155 770.842 256.55C770.905 256.941 771.013 257.295 771.164 257.612C771.32 257.925 771.528 258.179 771.787 258.374C772.05 258.569 772.38 258.667 772.775 258.667C773.176 258.667 773.508 258.569 773.771 258.374C774.04 258.179 774.255 257.925 774.416 257.612C774.577 257.3 774.689 256.946 774.753 256.55C774.821 256.155 774.858 255.757 774.863 255.356V253.979ZM785.307 260H783.535L780.063 252.661L780.056 260H778.276V249.336H780.056L783.513 256.653L783.527 249.336H785.307V260ZM803.977 250.786H800.703V260H798.952V250.786H795.7V249.336H803.977V250.786ZM812.663 255.356C812.663 255.986 812.583 256.592 812.421 257.173C812.26 257.749 812.019 258.259 811.696 258.704C811.379 259.143 810.979 259.495 810.495 259.758C810.017 260.017 809.455 260.146 808.811 260.146C808.171 260.146 807.614 260.015 807.141 259.751C806.667 259.487 806.271 259.136 805.954 258.696C805.642 258.252 805.405 257.742 805.244 257.166C805.087 256.589 805.009 255.986 805.009 255.356V253.994C805.009 253.574 805.043 253.164 805.112 252.764C805.185 252.363 805.29 251.987 805.427 251.636C805.568 251.279 805.742 250.952 805.947 250.654C806.157 250.352 806.401 250.093 806.679 249.878C806.962 249.663 807.28 249.495 807.631 249.373C807.988 249.25 808.378 249.189 808.803 249.189C809.448 249.189 810.009 249.321 810.488 249.585C810.971 249.849 811.374 250.203 811.696 250.647C812.019 251.086 812.26 251.597 812.421 252.178C812.583 252.759 812.663 253.364 812.663 253.994V255.356ZM810.898 253.979C810.893 253.579 810.856 253.181 810.788 252.786C810.72 252.39 810.605 252.039 810.444 251.731C810.283 251.418 810.068 251.167 809.799 250.977C809.536 250.781 809.204 250.684 808.803 250.684C808.408 250.684 808.078 250.781 807.814 250.977C807.556 251.167 807.348 251.418 807.192 251.731C807.041 252.043 806.933 252.397 806.87 252.793C806.811 253.184 806.779 253.579 806.774 253.979V255.356C806.779 255.757 806.813 256.155 806.877 256.55C806.94 256.941 807.048 257.295 807.199 257.612C807.355 257.925 807.563 258.179 807.822 258.374C808.085 258.569 808.415 258.667 808.811 258.667C809.211 258.667 809.543 258.569 809.807 258.374C810.075 258.179 810.29 257.925 810.451 257.612C810.612 257.3 810.725 256.946 810.788 256.55C810.856 256.155 810.893 255.757 810.898 255.356V253.979ZM831.003 250.786H827.729V260H825.979V250.786H822.727V249.336H831.003V250.786ZM839.689 255.356C839.689 255.986 839.609 256.592 839.448 257.173C839.287 257.749 839.045 258.259 838.723 258.704C838.405 259.143 838.005 259.495 837.521 259.758C837.043 260.017 836.481 260.146 835.837 260.146C835.197 260.146 834.641 260.015 834.167 259.751C833.693 259.487 833.298 259.136 832.98 258.696C832.668 258.252 832.431 257.742 832.27 257.166C832.114 256.589 832.036 255.986 832.036 255.356V253.994C832.036 253.574 832.07 253.164 832.138 252.764C832.211 252.363 832.316 251.987 832.453 251.636C832.595 251.279 832.768 250.952 832.973 250.654C833.183 250.352 833.427 250.093 833.706 249.878C833.989 249.663 834.306 249.495 834.658 249.373C835.014 249.25 835.405 249.189 835.83 249.189C836.474 249.189 837.036 249.321 837.514 249.585C837.998 249.849 838.4 250.203 838.723 250.647C839.045 251.086 839.287 251.597 839.448 252.178C839.609 252.759 839.689 253.364 839.689 253.994V255.356ZM837.924 253.979C837.919 253.579 837.883 253.181 837.814 252.786C837.746 252.39 837.631 252.039 837.47 251.731C837.309 251.418 837.094 251.167 836.826 250.977C836.562 250.781 836.23 250.684 835.83 250.684C835.434 250.684 835.104 250.781 834.841 250.977C834.582 251.167 834.375 251.418 834.218 251.731C834.067 252.043 833.959 252.397 833.896 252.793C833.837 253.184 833.806 253.579 833.801 253.979V255.356C833.806 255.757 833.84 256.155 833.903 256.55C833.967 256.941 834.074 257.295 834.226 257.612C834.382 257.925 834.589 258.179 834.848 258.374C835.112 258.569 835.441 258.667 835.837 258.667C836.237 258.667 836.569 258.569 836.833 258.374C837.102 258.179 837.316 257.925 837.478 257.612C837.639 257.3 837.751 256.946 837.814 256.55C837.883 256.155 837.919 255.757 837.924 255.356V253.979ZM849.021 250.786H845.747V260H843.996V250.786H840.744V249.336H849.021V250.786ZM855.649 257.524H852.316L851.584 260H849.768L853.232 249.336H854.777L858.176 260H856.367L855.649 257.524ZM852.763 256.023H855.209L854.001 251.841L852.763 256.023ZM861.413 258.564H866.496V260H859.655V249.336H861.413V258.564ZM884.66 258.667C884.479 258.882 884.267 259.08 884.023 259.26C883.779 259.441 883.505 259.597 883.203 259.729C882.9 259.861 882.57 259.963 882.214 260.037C881.862 260.11 881.486 260.146 881.086 260.146C880.446 260.146 879.88 260.022 879.387 259.773C878.894 259.524 878.476 259.185 878.134 258.755C877.797 258.32 877.539 257.81 877.358 257.224C877.182 256.638 877.092 256.008 877.087 255.334V254.016C877.087 253.342 877.175 252.712 877.351 252.126C877.526 251.541 877.778 251.03 878.105 250.596C878.437 250.161 878.842 249.819 879.321 249.57C879.799 249.316 880.346 249.189 880.961 249.189C881.513 249.189 882.006 249.265 882.441 249.417C882.875 249.568 883.249 249.788 883.562 250.076C883.874 250.359 884.121 250.706 884.301 251.116C884.487 251.526 884.604 251.985 884.653 252.493H882.924C882.88 252.205 882.812 251.946 882.719 251.716C882.626 251.487 882.502 251.292 882.346 251.13C882.189 250.969 881.999 250.847 881.774 250.764C881.555 250.676 881.293 250.632 880.991 250.632C880.62 250.632 880.3 250.725 880.031 250.911C879.768 251.091 879.548 251.338 879.372 251.65C879.196 251.958 879.067 252.317 878.984 252.727C878.901 253.132 878.857 253.557 878.852 254.001V255.334C878.857 255.779 878.901 256.204 878.984 256.609C879.072 257.014 879.206 257.373 879.387 257.686C879.572 257.993 879.809 258.24 880.097 258.425C880.385 258.611 880.732 258.706 881.137 258.711C881.303 258.711 881.474 258.701 881.65 258.682C881.826 258.657 881.992 258.621 882.148 258.572C882.309 258.523 882.456 258.462 882.587 258.389C882.719 258.311 882.827 258.215 882.91 258.103L882.924 255.972H880.998V254.602H884.646L884.66 258.667ZM890.087 255.84H888.3V260H886.542V249.336H889.912C890.458 249.341 890.961 249.412 891.42 249.548C891.884 249.68 892.285 249.88 892.622 250.149C892.958 250.413 893.22 250.745 893.405 251.145C893.591 251.545 893.684 252.014 893.684 252.551C893.684 252.913 893.635 253.242 893.537 253.54C893.444 253.833 893.312 254.099 893.142 254.338C892.971 254.578 892.766 254.788 892.526 254.968C892.287 255.149 892.023 255.303 891.735 255.43L893.991 259.912V260H892.116L890.087 255.84ZM888.3 254.419H889.919C890.212 254.419 890.48 254.377 890.725 254.294C890.969 254.211 891.179 254.094 891.354 253.943C891.535 253.787 891.674 253.599 891.772 253.379C891.87 253.154 891.918 252.898 891.918 252.61C891.918 252.312 891.872 252.048 891.779 251.819C891.687 251.589 891.552 251.396 891.376 251.24C891.206 251.084 890.996 250.967 890.747 250.889C890.498 250.806 890.219 250.762 889.912 250.757H888.3V254.419ZM901.77 255.217H897.382V258.564H902.517V260H895.617V249.336H902.465V250.786H897.382V253.796H901.77V255.217ZM910.778 255.217H906.391V258.564H911.525V260H904.626V249.336H911.474V250.786H906.391V253.796H910.778V255.217ZM920.439 260H918.667L915.195 252.661L915.188 260H913.408V249.336H915.188L918.645 256.653L918.659 249.336H920.439V260ZM929.455 260H927.741V255.239H924.116V260H922.409V249.336H924.116V253.796H927.741V249.336H929.455V260ZM938.786 255.356C938.786 255.986 938.706 256.592 938.544 257.173C938.383 257.749 938.142 258.259 937.819 258.704C937.502 259.143 937.102 259.495 936.618 259.758C936.14 260.017 935.578 260.146 934.934 260.146C934.294 260.146 933.737 260.015 933.264 259.751C932.79 259.487 932.395 259.136 932.077 258.696C931.765 258.252 931.528 257.742 931.367 257.166C931.21 256.589 931.132 255.986 931.132 255.356V253.994C931.132 253.574 931.167 253.164 931.235 252.764C931.308 252.363 931.413 251.987 931.55 251.636C931.691 251.279 931.865 250.952 932.07 250.654C932.28 250.352 932.524 250.093 932.802 249.878C933.085 249.663 933.403 249.495 933.754 249.373C934.111 249.25 934.501 249.189 934.926 249.189C935.571 249.189 936.132 249.321 936.611 249.585C937.094 249.849 937.497 250.203 937.819 250.647C938.142 251.086 938.383 251.597 938.544 252.178C938.706 252.759 938.786 253.364 938.786 253.994V255.356ZM937.021 253.979C937.016 253.579 936.979 253.181 936.911 252.786C936.843 252.39 936.728 252.039 936.567 251.731C936.406 251.418 936.191 251.167 935.922 250.977C935.659 250.781 935.327 250.684 934.926 250.684C934.531 250.684 934.201 250.781 933.938 250.977C933.679 251.167 933.471 251.418 933.315 251.731C933.164 252.043 933.056 252.397 932.993 252.793C932.934 253.184 932.902 253.579 932.897 253.979V255.356C932.902 255.757 932.937 256.155 933 256.55C933.063 256.941 933.171 257.295 933.322 257.612C933.479 257.925 933.686 258.179 933.945 258.374C934.208 258.569 934.538 258.667 934.934 258.667C935.334 258.667 935.666 258.569 935.93 258.374C936.198 258.179 936.413 257.925 936.574 257.612C936.735 257.3 936.848 256.946 936.911 256.55C936.979 256.155 937.016 255.757 937.021 255.356V253.979ZM947.502 249.336L947.517 256.477C947.512 257.024 947.424 257.524 947.253 257.979C947.082 258.428 946.843 258.813 946.535 259.136C946.228 259.458 945.854 259.707 945.415 259.883C944.98 260.059 944.492 260.146 943.95 260.146C943.422 260.146 942.944 260.059 942.514 259.883C942.084 259.707 941.716 259.46 941.408 259.143C941.101 258.821 940.861 258.435 940.69 257.986C940.52 257.532 940.432 257.029 940.427 256.477L940.441 249.336H942.17L942.185 256.477C942.189 256.804 942.231 257.104 942.309 257.378C942.387 257.651 942.5 257.888 942.646 258.088C942.792 258.284 942.973 258.438 943.188 258.55C943.408 258.657 943.662 258.711 943.95 258.711C944.243 258.711 944.501 258.657 944.726 258.55C944.951 258.438 945.139 258.284 945.29 258.088C945.441 257.888 945.556 257.651 945.634 257.378C945.712 257.104 945.754 256.804 945.759 256.477L945.773 249.336H947.502ZM955.112 257.253C955.112 257 955.058 256.777 954.951 256.587C954.848 256.392 954.699 256.221 954.504 256.074C954.313 255.928 954.084 255.801 953.815 255.693C953.552 255.581 953.264 255.479 952.951 255.386C952.531 255.264 952.116 255.112 951.706 254.932C951.301 254.751 950.937 254.531 950.615 254.272C950.297 254.009 950.039 253.704 949.838 253.357C949.643 253.005 949.545 252.6 949.545 252.141C949.545 251.682 949.643 251.272 949.838 250.911C950.039 250.544 950.305 250.234 950.637 249.98C950.969 249.727 951.354 249.531 951.794 249.395C952.233 249.258 952.692 249.189 953.171 249.189C953.684 249.189 954.162 249.27 954.606 249.431C955.056 249.587 955.446 249.81 955.778 250.098C956.115 250.381 956.381 250.723 956.577 251.123C956.772 251.519 956.872 251.958 956.877 252.441H955.119C955.095 252.173 955.036 251.929 954.943 251.709C954.855 251.484 954.729 251.292 954.562 251.13C954.401 250.969 954.204 250.845 953.969 250.757C953.735 250.669 953.464 250.625 953.156 250.625C952.893 250.625 952.648 250.659 952.424 250.728C952.199 250.796 952.004 250.896 951.838 251.028C951.677 251.16 951.55 251.318 951.457 251.504C951.364 251.689 951.318 251.899 951.318 252.134C951.318 252.383 951.381 252.6 951.508 252.786C951.635 252.966 951.801 253.125 952.006 253.262C952.211 253.398 952.446 253.518 952.709 253.621C952.978 253.718 953.256 253.809 953.544 253.892C953.989 254.023 954.414 254.187 954.819 254.382C955.224 254.573 955.581 254.805 955.888 255.078C956.196 255.347 956.44 255.659 956.621 256.016C956.801 256.372 956.892 256.78 956.892 257.239C956.892 257.712 956.792 258.13 956.591 258.491C956.391 258.853 956.123 259.155 955.786 259.399C955.449 259.644 955.058 259.829 954.614 259.956C954.169 260.078 953.706 260.139 953.222 260.139C952.895 260.139 952.57 260.107 952.248 260.044C951.926 259.98 951.616 259.885 951.318 259.758C951.025 259.631 950.751 259.475 950.498 259.29C950.244 259.099 950.021 258.882 949.831 258.638C949.646 258.389 949.499 258.113 949.392 257.81C949.284 257.502 949.228 257.166 949.223 256.799H950.988C951.013 257.122 951.083 257.402 951.201 257.642C951.318 257.881 951.474 258.081 951.669 258.242C951.865 258.398 952.092 258.518 952.351 258.601C952.614 258.679 952.905 258.718 953.222 258.718C953.486 258.718 953.732 258.687 953.962 258.623C954.191 258.56 954.392 258.467 954.562 258.345C954.733 258.218 954.868 258.064 954.965 257.883C955.063 257.698 955.112 257.488 955.112 257.253ZM964.831 255.217H960.444V258.564H965.578V260H958.679V249.336H965.527V250.786H960.444V253.796H964.831V255.217ZM983.757 258.667C983.576 258.882 983.364 259.08 983.12 259.26C982.875 259.441 982.602 259.597 982.299 259.729C981.997 259.861 981.667 259.963 981.311 260.037C980.959 260.11 980.583 260.146 980.183 260.146C979.543 260.146 978.977 260.022 978.483 259.773C977.99 259.524 977.573 259.185 977.231 258.755C976.894 258.32 976.635 257.81 976.455 257.224C976.279 256.638 976.188 256.008 976.184 255.334V254.016C976.184 253.342 976.271 252.712 976.447 252.126C976.623 251.541 976.875 251.03 977.202 250.596C977.534 250.161 977.939 249.819 978.417 249.57C978.896 249.316 979.443 249.189 980.058 249.189C980.61 249.189 981.103 249.265 981.538 249.417C981.972 249.568 982.346 249.788 982.658 250.076C982.971 250.359 983.217 250.706 983.398 251.116C983.583 251.526 983.701 251.985 983.75 252.493H982.021C981.977 252.205 981.909 251.946 981.816 251.716C981.723 251.487 981.599 251.292 981.442 251.13C981.286 250.969 981.096 250.847 980.871 250.764C980.651 250.676 980.39 250.632 980.087 250.632C979.716 250.632 979.396 250.725 979.128 250.911C978.864 251.091 978.645 251.338 978.469 251.65C978.293 251.958 978.164 252.317 978.081 252.727C977.998 253.132 977.954 253.557 977.949 254.001V255.334C977.954 255.779 977.998 256.204 978.081 256.609C978.168 257.014 978.303 257.373 978.483 257.686C978.669 257.993 978.906 258.24 979.194 258.425C979.482 258.611 979.829 258.706 980.234 258.711C980.4 258.711 980.571 258.701 980.747 258.682C980.922 258.657 981.088 258.621 981.245 258.572C981.406 258.523 981.552 258.462 981.684 258.389C981.816 258.311 981.923 258.215 982.006 258.103L982.021 255.972H980.095V254.602H983.742L983.757 258.667ZM990.781 257.524H987.448L986.716 260H984.899L988.364 249.336H989.909L993.308 260H991.499L990.781 257.524ZM987.895 256.023H990.341L989.133 251.841L987.895 256.023ZM1000.16 257.253C1000.16 257 1000.1 256.777 999.995 256.587C999.892 256.392 999.743 256.221 999.548 256.074C999.357 255.928 999.128 255.801 998.859 255.693C998.596 255.581 998.308 255.479 997.995 255.386C997.575 255.264 997.16 255.112 996.75 254.932C996.345 254.751 995.981 254.531 995.659 254.272C995.341 254.009 995.083 253.704 994.882 253.357C994.687 253.005 994.589 252.6 994.589 252.141C994.589 251.682 994.687 251.272 994.882 250.911C995.083 250.544 995.349 250.234 995.681 249.98C996.013 249.727 996.398 249.531 996.838 249.395C997.277 249.258 997.736 249.189 998.215 249.189C998.728 249.189 999.206 249.27 999.65 249.431C1000.1 249.587 1000.49 249.81 1000.82 250.098C1001.16 250.381 1001.43 250.723 1001.62 251.123C1001.82 251.519 1001.92 251.958 1001.92 252.441H1000.16C1000.14 252.173 1000.08 251.929 999.987 251.709C999.899 251.484 999.772 251.292 999.606 251.13C999.445 250.969 999.248 250.845 999.013 250.757C998.779 250.669 998.508 250.625 998.2 250.625C997.937 250.625 997.692 250.659 997.468 250.728C997.243 250.796 997.048 250.896 996.882 251.028C996.721 251.16 996.594 251.318 996.501 251.504C996.408 251.689 996.362 251.899 996.362 252.134C996.362 252.383 996.425 252.6 996.552 252.786C996.679 252.966 996.845 253.125 997.05 253.262C997.255 253.398 997.49 253.518 997.753 253.621C998.022 253.718 998.3 253.809 998.588 253.892C999.033 254.023 999.458 254.187 999.863 254.382C1000.27 254.573 1000.62 254.805 1000.93 255.078C1001.24 255.347 1001.48 255.659 1001.66 256.016C1001.85 256.372 1001.94 256.78 1001.94 257.239C1001.94 257.712 1001.84 258.13 1001.64 258.491C1001.44 258.853 1001.17 259.155 1000.83 259.399C1000.49 259.644 1000.1 259.829 999.658 259.956C999.213 260.078 998.75 260.139 998.266 260.139C997.939 260.139 997.614 260.107 997.292 260.044C996.97 259.98 996.66 259.885 996.362 259.758C996.069 259.631 995.795 259.475 995.542 259.29C995.288 259.099 995.065 258.882 994.875 258.638C994.689 258.389 994.543 258.113 994.436 257.81C994.328 257.502 994.272 257.166 994.267 256.799H996.032C996.057 257.122 996.127 257.402 996.245 257.642C996.362 257.881 996.518 258.081 996.713 258.242C996.909 258.398 997.136 258.518 997.395 258.601C997.658 258.679 997.949 258.718 998.266 258.718C998.53 258.718 998.776 258.687 999.006 258.623C999.235 258.56 999.436 258.467 999.606 258.345C999.777 258.218 999.912 258.064 1000.01 257.883C1000.11 257.698 1000.16 257.488 1000.16 257.253ZM1009.88 255.217H1005.49V258.564H1010.62V260H1003.72V249.336H1010.57V250.786H1005.49V253.796H1009.88V255.217ZM1018.17 257.253C1018.17 257 1018.12 256.777 1018.01 256.587C1017.91 256.392 1017.76 256.221 1017.57 256.074C1017.38 255.928 1017.15 255.801 1016.88 255.693C1016.61 255.581 1016.33 255.479 1016.01 255.386C1015.59 255.264 1015.18 255.112 1014.77 254.932C1014.36 254.751 1014 254.531 1013.68 254.272C1013.36 254.009 1013.1 253.704 1012.9 253.357C1012.7 253.005 1012.61 252.6 1012.61 252.141C1012.61 251.682 1012.7 251.272 1012.9 250.911C1013.1 250.544 1013.37 250.234 1013.7 249.98C1014.03 249.727 1014.42 249.531 1014.86 249.395C1015.29 249.258 1015.75 249.189 1016.23 249.189C1016.75 249.189 1017.22 249.27 1017.67 249.431C1018.12 249.587 1018.51 249.81 1018.84 250.098C1019.18 250.381 1019.44 250.723 1019.64 251.123C1019.83 251.519 1019.93 251.958 1019.94 252.441H1018.18C1018.16 252.173 1018.1 251.929 1018 251.709C1017.92 251.484 1017.79 251.292 1017.62 251.13C1017.46 250.969 1017.27 250.845 1017.03 250.757C1016.8 250.669 1016.53 250.625 1016.22 250.625C1015.95 250.625 1015.71 250.659 1015.49 250.728C1015.26 250.796 1015.07 250.896 1014.9 251.028C1014.74 251.16 1014.61 251.318 1014.52 251.504C1014.43 251.689 1014.38 251.899 1014.38 252.134C1014.38 252.383 1014.44 252.6 1014.57 252.786C1014.7 252.966 1014.86 253.125 1015.07 253.262C1015.27 253.398 1015.51 253.518 1015.77 253.621C1016.04 253.718 1016.32 253.809 1016.61 253.892C1017.05 254.023 1017.48 254.187 1017.88 254.382C1018.29 254.573 1018.64 254.805 1018.95 255.078C1019.26 255.347 1019.5 255.659 1019.68 256.016C1019.86 256.372 1019.95 256.78 1019.95 257.239C1019.95 257.712 1019.85 258.13 1019.65 258.491C1019.45 258.853 1019.18 259.155 1018.85 259.399C1018.51 259.644 1018.12 259.829 1017.68 259.956C1017.23 260.078 1016.77 260.139 1016.28 260.139C1015.96 260.139 1015.63 260.107 1015.31 260.044C1014.99 259.98 1014.68 259.885 1014.38 259.758C1014.09 259.631 1013.81 259.475 1013.56 259.29C1013.31 259.099 1013.08 258.882 1012.89 258.638C1012.71 258.389 1012.56 258.113 1012.45 257.81C1012.35 257.502 1012.29 257.166 1012.28 256.799H1014.05C1014.07 257.122 1014.15 257.402 1014.26 257.642C1014.38 257.881 1014.54 258.081 1014.73 258.242C1014.93 258.398 1015.15 258.518 1015.41 258.601C1015.68 258.679 1015.97 258.718 1016.28 258.718C1016.55 258.718 1016.79 258.687 1017.02 258.623C1017.25 258.56 1017.45 258.467 1017.62 258.345C1017.79 258.218 1017.93 258.064 1018.03 257.883C1018.12 257.698 1018.17 257.488 1018.17 257.253ZM1035.82 257.524H1032.49L1031.76 260H1029.94L1033.41 249.336H1034.95L1038.35 260H1036.54L1035.82 257.524ZM1032.94 256.023H1035.39L1034.18 251.841L1032.94 256.023ZM1041.74 249.336L1043.07 253.943L1044.53 249.336H1046.72V260H1045.06V256.338L1045.16 251.665L1043.52 256.777H1042.6L1041.11 251.841L1041.22 256.338V260H1039.56V249.336H1041.74ZM1055.9 255.356C1055.9 255.986 1055.82 256.592 1055.66 257.173C1055.5 257.749 1055.26 258.259 1054.93 258.704C1054.62 259.143 1054.22 259.495 1053.73 259.758C1053.25 260.017 1052.69 260.146 1052.05 260.146C1051.41 260.146 1050.85 260.015 1050.38 259.751C1049.9 259.487 1049.51 259.136 1049.19 258.696C1048.88 258.252 1048.64 257.742 1048.48 257.166C1048.32 256.589 1048.25 255.986 1048.25 255.356V253.994C1048.25 253.574 1048.28 253.164 1048.35 252.764C1048.42 252.363 1048.53 251.987 1048.66 251.636C1048.81 251.279 1048.98 250.952 1049.18 250.654C1049.39 250.352 1049.64 250.093 1049.92 249.878C1050.2 249.663 1050.52 249.495 1050.87 249.373C1051.23 249.25 1051.62 249.189 1052.04 249.189C1052.69 249.189 1053.25 249.321 1053.73 249.585C1054.21 249.849 1054.61 250.203 1054.93 250.647C1055.26 251.086 1055.5 251.597 1055.66 252.178C1055.82 252.759 1055.9 253.364 1055.9 253.994V255.356ZM1054.14 253.979C1054.13 253.579 1054.09 253.181 1054.03 252.786C1053.96 252.39 1053.84 252.039 1053.68 251.731C1053.52 251.418 1053.31 251.167 1053.04 250.977C1052.77 250.781 1052.44 250.684 1052.04 250.684C1051.65 250.684 1051.32 250.781 1051.05 250.977C1050.79 251.167 1050.59 251.418 1050.43 251.731C1050.28 252.043 1050.17 252.397 1050.11 252.793C1050.05 253.184 1050.02 253.579 1050.01 253.979V255.356C1050.02 255.757 1050.05 256.155 1050.11 256.55C1050.18 256.941 1050.29 257.295 1050.44 257.612C1050.59 257.925 1050.8 258.179 1051.06 258.374C1051.32 258.569 1051.65 258.667 1052.05 258.667C1052.45 258.667 1052.78 258.569 1053.04 258.374C1053.31 258.179 1053.53 257.925 1053.69 257.612C1053.85 257.3 1053.96 256.946 1054.03 256.55C1054.09 256.155 1054.13 255.757 1054.14 255.356V253.979ZM1064.62 249.336L1064.63 256.477C1064.63 257.024 1064.54 257.524 1064.37 257.979C1064.2 258.428 1063.96 258.813 1063.65 259.136C1063.34 259.458 1062.97 259.707 1062.53 259.883C1062.09 260.059 1061.61 260.146 1061.06 260.146C1060.54 260.146 1060.06 260.059 1059.63 259.883C1059.2 259.707 1058.83 259.46 1058.52 259.143C1058.21 258.821 1057.98 258.435 1057.8 257.986C1057.63 257.532 1057.55 257.029 1057.54 256.477L1057.56 249.336H1059.28L1059.3 256.477C1059.3 256.804 1059.35 257.104 1059.42 257.378C1059.5 257.651 1059.61 257.888 1059.76 258.088C1059.91 258.284 1060.09 258.438 1060.3 258.55C1060.52 258.657 1060.78 258.711 1061.06 258.711C1061.36 258.711 1061.62 258.657 1061.84 258.55C1062.06 258.438 1062.25 258.284 1062.4 258.088C1062.56 257.888 1062.67 257.651 1062.75 257.378C1062.83 257.104 1062.87 256.804 1062.87 256.477L1062.89 249.336H1064.62ZM1073.59 260H1071.82L1068.34 252.661L1068.34 260H1066.56V249.336H1068.34L1071.79 256.653L1071.81 249.336H1073.59V260ZM1083.25 250.786H1079.98V260H1078.22V250.786H1074.97V249.336H1083.25V250.786Z" fill="#C4C4C4"/>
</svg>
