<svg width="1300" height="400" viewBox="0 0 1300 400" fill="none" xmlns="http://www.w3.org/2000/svg">
<rect width="1300" height="400" fill="white"/>
<circle cx="772" cy="213" r="10" fill="#00C7A5"/>
<circle cx="744" cy="161" r="10" fill="#00C7A5"/>
<circle cx="717" cy="161" r="10" fill="#00C7A5"/>
<circle cx="636" cy="109" r="10" fill="#00C7A5"/>
<circle cx="663" cy="83" r="10" fill="#00C7A5"/>
<circle cx="663" cy="109" r="10" fill="#00C7A5"/>
<circle cx="609" cy="109" r="10" fill="#00C7A5"/>
<circle cx="636" cy="83" r="10" fill="#00C7A5"/>
<circle cx="609" cy="83" r="10" fill="#00C7A5"/>
<circle cx="582" cy="109" r="10" fill="#00C7A5"/>
<circle cx="636" cy="135" r="10" fill="#00C7A5"/>
<circle cx="663" cy="135" r="10" fill="#00C7A5"/>
<circle cx="609" cy="135" r="10" fill="#00C7A5"/>
<circle cx="582" cy="135" r="10" fill="#00C7A5"/>
<circle cx="556" cy="135" r="10" fill="#00C7A5"/>
<circle cx="636" cy="161" r="10" fill="#00C7A5"/>
<circle cx="663" cy="161" r="10" fill="#00C7A5"/>
<circle cx="609" cy="161" r="10" fill="#00C7A5"/>
<circle cx="582" cy="161" r="10" fill="#00C7A5"/>
<circle cx="556" cy="161" r="10" fill="#00C7A5"/>
<circle cx="528" cy="161" r="10" fill="#00C7A5"/>
<circle cx="636" cy="187" r="10" fill="#00C7A5"/>
<circle cx="663" cy="187" r="10" fill="#00C7A5"/>
<circle cx="609" cy="187" r="10" fill="#00C7A5"/>
<circle cx="582" cy="187" r="10" fill="#00C7A5"/>
<circle cx="556" cy="187" r="10" fill="#00C7A5"/>
<circle cx="528" cy="187" r="10" fill="#00C7A5"/>
<circle cx="772" cy="239" r="10" fill="#00C7A5"/>
<circle cx="663" cy="239" r="10" fill="#00C7A5"/>
<circle cx="663" cy="265" r="10" fill="#00C7A5"/>
<circle cx="636" cy="239" r="10" fill="#00C7A5"/>
<circle cx="636" cy="291" r="10" fill="#00C7A5"/>
<circle cx="663" cy="291" r="10" fill="#00C7A5"/>
<circle cx="636" cy="317" r="10" fill="#00C7A5"/>
<circle cx="609" cy="265" r="10" fill="#00C7A5"/>
<circle cx="636" cy="265" r="10" fill="#00C7A5"/>
<circle cx="609" cy="239" r="10" fill="#00C7A5"/>
<circle cx="582" cy="239" r="10" fill="#00C7A5"/>
<circle cx="609" cy="317" r="10" fill="#00C7A5"/>
<circle cx="556" cy="83" r="10" fill="#00C7A5"/>
<circle cx="609" cy="291" r="10" fill="#00C7A5"/>
<circle cx="582" cy="265" r="10" fill="#00C7A5"/>
<circle cx="556" cy="239" r="10" fill="#00C7A5"/>
<circle cx="528" cy="83" r="10" fill="#00C7A5"/>
<circle cx="744" cy="187" r="10" fill="#00C7A5"/>
<circle cx="582" cy="317" r="10" fill="#00C7A5"/>
<circle cx="582" cy="291" r="10" fill="#00C7A5"/>
<circle cx="556" cy="265" r="10" fill="#00C7A5"/>
<circle cx="528" cy="239" r="10" fill="#00C7A5"/>
<circle cx="717" cy="187" r="10" fill="#00C7A5"/>
<circle cx="717" cy="317" r="10" fill="#00C7A5"/>
<circle cx="772" cy="317" r="10" fill="#00C7A5"/>
<circle cx="556" cy="317" r="10" fill="#00C7A5"/>
<circle cx="556" cy="291" r="10" fill="#00C7A5"/>
<circle cx="528" cy="317" r="10" fill="#00C7A5"/>
<circle cx="744" cy="317" r="10" fill="#00C7A5"/>
<circle cx="690" cy="187" r="10" fill="#00C7A5"/>
<circle cx="528" cy="265" r="10" fill="#00C7A5"/>
<circle cx="528" cy="291" r="10" fill="#00C7A5"/>
<circle r="10" transform="matrix(-1 0 0 1 582 83)" fill="#00C7A5"/>
<circle r="10" transform="matrix(-1 0 0 1 556 109)" fill="#00C7A5"/>
<circle r="10" transform="matrix(-1 0 0 1 528 135)" fill="#00C7A5"/>
<circle r="10" transform="matrix(-1 0 0 1 690 161)" fill="#00C7A5"/>
<circle cx="772" cy="291" r="10" fill="#00C7A5"/>
<circle cx="636" cy="213" r="10" fill="#00C7A5"/>
<circle cx="690" cy="239" r="10" fill="#00C7A5"/>
<circle cx="690" cy="291" r="10" fill="#00C7A5"/>
<circle cx="690" cy="265" r="10" fill="#00C7A5"/>
<circle cx="663" cy="317" r="10" fill="#00C7A5"/>
<circle cx="528" cy="109" r="10" fill="#00C7A5"/>
<circle cx="772" cy="187" r="10" fill="#00C7A5"/>
<circle cx="690" cy="213" r="10" fill="#00C7A5"/>
<circle cx="717" cy="239" r="10" fill="#00C7A5"/>
<circle cx="717" cy="291" r="10" fill="#00C7A5"/>
<circle cx="717" cy="265" r="10" fill="#00C7A5"/>
<circle cx="690" cy="317" r="10" fill="#00C7A5"/>
<circle cx="744" cy="213" r="10" fill="#00C7A5"/>
<circle cx="744" cy="265" r="10" fill="#00C7A5"/>
<circle cx="744" cy="239" r="10" fill="#00C7A5"/>
<circle cx="744" cy="291" r="10" fill="#00C7A5"/>
<circle cx="772" cy="161" r="10" fill="#00C7A5"/>
<circle cx="717" cy="213" r="10" fill="#00C7A5"/>
<circle cx="663" cy="213" r="10" fill="#00C7A5"/>
<circle cx="609" cy="213" r="10" fill="#00C7A5"/>
<circle cx="582" cy="213" r="10" fill="#00C7A5"/>
<circle cx="556" cy="213" r="10" fill="#00C7A5"/>
<circle cx="528" cy="213" r="10" fill="#00C7A5"/>
<circle cx="772" cy="265" r="10" fill="#00C7A5"/>
<circle cx="717" cy="83" r="10" fill="#8D75F3"/>
<circle cx="717" cy="135" r="10" fill="#8D75F3"/>
<circle cx="690" cy="83" r="10" fill="#8D75F3"/>
<circle cx="690" cy="109" r="10" fill="#8D75F3"/>
<circle cx="717" cy="109" r="10" fill="#8D75F3"/>
<circle cx="690" cy="135" r="10" fill="#8D75F3"/>
<circle cx="744" cy="83" r="10" fill="#6CBAFA"/>
<circle cx="744" cy="135" r="10" fill="#6CBAFA"/>
<circle cx="744" cy="109" r="10" fill="#6CBAFA"/>
<circle cx="772" cy="83" r="10" fill="#6CBAFA"/>
<circle cx="772" cy="109" r="10" fill="url(#paint0_linear)"/>
<circle cx="772" cy="109" r="10" fill="url(#paint1_linear)"/>
<circle cx="772" cy="135" r="10" fill="#FBC800"/>
<defs>
<linearGradient id="paint0_linear" x1="765.5" y1="102" x2="779.5" y2="115" gradientUnits="userSpaceOnUse">
<stop stop-color="#6CBAFA"/>
<stop offset="0.447917" stop-color="#6CBAFA"/>
<stop offset="0.479067" stop-color="#6CBAFA"/>
<stop offset="0.479167" stop-color="white" stop-opacity="0"/>
</linearGradient>
<linearGradient id="paint1_linear" x1="765.5" y1="102" x2="779.5" y2="115" gradientUnits="userSpaceOnUse">
<stop stop-color="white" stop-opacity="0"/>
<stop offset="0.447917" stop-color="white" stop-opacity="0"/>
<stop offset="0.463168" stop-color="#FBC800"/>
</linearGradient>
</defs>
</svg>
