<svg width="1300" height="400" viewBox="0 0 1300 400" fill="none" xmlns="http://www.w3.org/2000/svg">
<rect width="1300" height="400" fill="white"/>
<circle cx="381" cy="213" r="10" fill="#00C7A5"/>
<circle cx="353" cy="161" r="10" fill="#00C7A5"/>
<circle cx="326" cy="161" r="10" fill="#00C7A5"/>
<circle cx="245" cy="109" r="10" fill="#00C7A5"/>
<circle cx="272" cy="83" r="10" fill="#00C7A5"/>
<circle cx="272" cy="109" r="10" fill="#00C7A5"/>
<circle cx="218" cy="109" r="10" fill="#00C7A5"/>
<circle cx="245" cy="83" r="10" fill="#00C7A5"/>
<circle cx="218" cy="83" r="10" fill="#00C7A5"/>
<circle cx="191" cy="109" r="10" fill="#00C7A5"/>
<circle cx="245" cy="135" r="10" fill="#00C7A5"/>
<circle cx="272" cy="135" r="10" fill="#00C7A5"/>
<circle cx="218" cy="135" r="10" fill="#00C7A5"/>
<circle cx="191" cy="135" r="10" fill="#00C7A5"/>
<circle cx="165" cy="135" r="10" fill="#00C7A5"/>
<circle cx="245" cy="161" r="10" fill="#00C7A5"/>
<circle cx="272" cy="161" r="10" fill="#00C7A5"/>
<circle cx="218" cy="161" r="10" fill="#00C7A5"/>
<circle cx="191" cy="161" r="10" fill="#00C7A5"/>
<circle cx="165" cy="161" r="10" fill="#00C7A5"/>
<circle cx="137" cy="161" r="10" fill="#00C7A5"/>
<circle cx="245" cy="187" r="10" fill="#00C7A5"/>
<circle cx="272" cy="187" r="10" fill="#00C7A5"/>
<circle cx="218" cy="187" r="10" fill="#00C7A5"/>
<circle cx="191" cy="187" r="10" fill="#00C7A5"/>
<circle cx="165" cy="187" r="10" fill="#00C7A5"/>
<circle cx="137" cy="187" r="10" fill="#00C7A5"/>
<circle cx="381" cy="239" r="10" fill="#00C7A5"/>
<circle cx="272" cy="239" r="10" fill="#00C7A5"/>
<circle cx="272" cy="265" r="10" fill="#00C7A5"/>
<circle cx="245" cy="239" r="10" fill="#00C7A5"/>
<circle cx="245" cy="291" r="10" fill="#00C7A5"/>
<circle cx="272" cy="291" r="10" fill="#00C7A5"/>
<circle cx="245" cy="317" r="10" fill="#00C7A5"/>
<circle cx="218" cy="265" r="10" fill="#00C7A5"/>
<circle cx="245" cy="265" r="10" fill="#00C7A5"/>
<circle cx="218" cy="239" r="10" fill="#00C7A5"/>
<circle cx="191" cy="239" r="10" fill="#00C7A5"/>
<circle cx="218" cy="317" r="10" fill="#00C7A5"/>
<circle cx="165" cy="83" r="10" fill="#00C7A5"/>
<circle cx="218" cy="291" r="10" fill="#00C7A5"/>
<circle cx="191" cy="265" r="10" fill="#00C7A5"/>
<circle cx="165" cy="239" r="10" fill="#00C7A5"/>
<circle cx="137" cy="83" r="10" fill="#00C7A5"/>
<circle cx="353" cy="187" r="10" fill="#00C7A5"/>
<circle cx="191" cy="317" r="10" fill="#00C7A5"/>
<circle cx="191" cy="291" r="10" fill="#00C7A5"/>
<circle cx="165" cy="265" r="10" fill="#00C7A5"/>
<circle cx="137" cy="239" r="10" fill="#00C7A5"/>
<circle cx="326" cy="187" r="10" fill="#00C7A5"/>
<circle cx="326" cy="317" r="10" fill="#00C7A5"/>
<circle cx="381" cy="317" r="10" fill="#00C7A5"/>
<circle cx="165" cy="317" r="10" fill="#00C7A5"/>
<circle cx="165" cy="291" r="10" fill="#00C7A5"/>
<circle cx="137" cy="317" r="10" fill="#00C7A5"/>
<circle cx="353" cy="317" r="10" fill="#00C7A5"/>
<circle cx="299" cy="187" r="10" fill="#00C7A5"/>
<circle cx="137" cy="265" r="10" fill="#00C7A5"/>
<circle cx="137" cy="291" r="10" fill="#00C7A5"/>
<circle r="10" transform="matrix(-1 0 0 1 191 83)" fill="#00C7A5"/>
<circle r="10" transform="matrix(-1 0 0 1 165 109)" fill="#00C7A5"/>
<circle r="10" transform="matrix(-1 0 0 1 137 135)" fill="#00C7A5"/>
<circle r="10" transform="matrix(-1 0 0 1 299 161)" fill="#00C7A5"/>
<circle cx="381" cy="291" r="10" fill="#00C7A5"/>
<circle cx="245" cy="213" r="10" fill="#00C7A5"/>
<circle cx="299" cy="239" r="10" fill="#00C7A5"/>
<circle cx="299" cy="291" r="10" fill="#00C7A5"/>
<circle cx="299" cy="265" r="10" fill="#00C7A5"/>
<circle cx="272" cy="317" r="10" fill="#00C7A5"/>
<circle cx="137" cy="109" r="10" fill="#00C7A5"/>
<circle cx="381" cy="187" r="10" fill="#00C7A5"/>
<circle cx="299" cy="213" r="10" fill="#00C7A5"/>
<circle cx="326" cy="239" r="10" fill="#00C7A5"/>
<circle cx="326" cy="291" r="10" fill="#00C7A5"/>
<circle cx="326" cy="265" r="10" fill="#00C7A5"/>
<circle cx="299" cy="317" r="10" fill="#00C7A5"/>
<circle cx="353" cy="213" r="10" fill="#00C7A5"/>
<circle cx="353" cy="265" r="10" fill="#00C7A5"/>
<circle cx="353" cy="239" r="10" fill="#00C7A5"/>
<circle cx="353" cy="291" r="10" fill="#00C7A5"/>
<circle cx="381" cy="161" r="10" fill="#00C7A5"/>
<circle cx="326" cy="213" r="10" fill="#00C7A5"/>
<circle cx="272" cy="213" r="10" fill="#00C7A5"/>
<circle cx="218" cy="213" r="10" fill="#00C7A5"/>
<circle cx="191" cy="213" r="10" fill="#00C7A5"/>
<circle cx="165" cy="213" r="10" fill="#00C7A5"/>
<circle cx="137" cy="213" r="10" fill="#00C7A5"/>
<circle cx="381" cy="265" r="10" fill="#00C7A5"/>
<circle cx="535" cy="83" r="10" fill="#8D75F3"/>
<circle cx="535" cy="135" r="10" fill="#8D75F3"/>
<circle cx="508" cy="83" r="10" fill="#8D75F3"/>
<circle cx="508" cy="109" r="10" fill="#8D75F3"/>
<circle cx="535" cy="109" r="10" fill="#8D75F3"/>
<circle cx="508" cy="135" r="10" fill="#8D75F3"/>
<circle cx="769" cy="83" r="10" fill="#6CBAFA"/>
<circle cx="769" cy="135" r="10" fill="#6CBAFA"/>
<circle cx="769" cy="109" r="10" fill="#6CBAFA"/>
<circle cx="797" cy="83" r="10" fill="#6CBAFA"/>
<circle cx="797" cy="109" r="10" fill="url(#paint0_linear)"/>
<circle cx="1041" cy="83" r="10" fill="url(#paint1_linear)"/>
<circle cx="1041" cy="109" r="10" fill="#FBC800"/>
<path d="M235.914 38.4922C235.908 39.2018 235.715 39.8333 235.338 40.3867C234.96 40.9401 234.456 41.373 233.824 41.6855C234.189 41.8418 234.518 42.0371 234.811 42.2715C235.11 42.4993 235.364 42.763 235.572 43.0625C235.787 43.362 235.95 43.6875 236.061 44.0391C236.178 44.3906 236.236 44.765 236.236 45.1621C236.236 45.8066 236.116 46.3796 235.875 46.8809C235.641 47.3822 235.318 47.8053 234.908 48.1504C234.505 48.4889 234.029 48.7493 233.482 48.9316C232.936 49.1074 232.35 49.1953 231.725 49.1953C231.087 49.1953 230.491 49.1074 229.938 48.9316C229.391 48.7559 228.912 48.4987 228.502 48.1602C228.098 47.8151 227.779 47.3919 227.545 46.8906C227.311 46.3893 227.193 45.8132 227.193 45.1621C227.193 44.765 227.249 44.3906 227.359 44.0391C227.47 43.681 227.63 43.3555 227.838 43.0625C228.046 42.763 228.297 42.4961 228.59 42.2617C228.883 42.0273 229.212 41.832 229.576 41.6758C229.264 41.5195 228.98 41.334 228.727 41.1191C228.473 40.8978 228.258 40.6536 228.082 40.3867C227.906 40.1133 227.77 39.8171 227.672 39.498C227.574 39.179 227.525 38.8438 227.525 38.4922C227.525 37.8737 227.63 37.3236 227.838 36.8418C228.046 36.3535 228.333 35.9434 228.697 35.6113C229.068 35.2793 229.508 35.0254 230.016 34.8496C230.53 34.6738 231.09 34.5859 231.695 34.5859C232.294 34.5859 232.851 34.6738 233.365 34.8496C233.88 35.0254 234.326 35.2793 234.703 35.6113C235.081 35.9434 235.377 36.3535 235.592 36.8418C235.807 37.3236 235.914 37.8737 235.914 38.4922ZM234.43 45.123C234.43 44.7259 234.361 44.3613 234.225 44.0293C234.094 43.6973 233.909 43.4141 233.668 43.1797C233.427 42.9388 233.137 42.7533 232.799 42.623C232.467 42.4928 232.102 42.4277 231.705 42.4277C231.295 42.4277 230.924 42.4928 230.592 42.623C230.26 42.7533 229.977 42.9388 229.742 43.1797C229.508 43.4141 229.326 43.6973 229.195 44.0293C229.072 44.3613 229.01 44.7259 229.01 45.123C229.01 45.5332 229.072 45.901 229.195 46.2266C229.326 46.5456 229.508 46.8158 229.742 47.0371C229.977 47.2585 230.26 47.4277 230.592 47.5449C230.93 47.6621 231.308 47.7207 231.725 47.7207C232.122 47.7207 232.486 47.6621 232.818 47.5449C233.15 47.4277 233.434 47.2585 233.668 47.0371C233.909 46.8158 234.094 46.5456 234.225 46.2266C234.361 45.901 234.43 45.5332 234.43 45.123ZM234.098 38.5215C234.098 38.1634 234.036 37.8346 233.912 37.5352C233.795 37.2357 233.629 36.9785 233.414 36.7637C233.206 36.5423 232.955 36.373 232.662 36.2559C232.369 36.1322 232.047 36.0703 231.695 36.0703C231.344 36.0703 231.025 36.1289 230.738 36.2461C230.452 36.3568 230.204 36.5195 229.996 36.7344C229.788 36.9492 229.625 37.2096 229.508 37.5156C229.397 37.8151 229.342 38.1504 229.342 38.5215C229.342 38.8926 229.397 39.2279 229.508 39.5273C229.625 39.8203 229.788 40.0742 229.996 40.2891C230.211 40.4974 230.462 40.6602 230.748 40.7773C231.041 40.888 231.363 40.9434 231.715 40.9434C232.06 40.9434 232.379 40.888 232.672 40.7773C232.965 40.6602 233.215 40.4974 233.424 40.2891C233.639 40.0742 233.805 39.8171 233.922 39.5176C234.039 39.2181 234.098 38.8861 234.098 38.5215ZM247.926 38.4922C247.919 39.2018 247.727 39.8333 247.35 40.3867C246.972 40.9401 246.467 41.373 245.836 41.6855C246.201 41.8418 246.529 42.0371 246.822 42.2715C247.122 42.4993 247.376 42.763 247.584 43.0625C247.799 43.362 247.962 43.6875 248.072 44.0391C248.189 44.3906 248.248 44.765 248.248 45.1621C248.248 45.8066 248.128 46.3796 247.887 46.8809C247.652 47.3822 247.33 47.8053 246.92 48.1504C246.516 48.4889 246.041 48.7493 245.494 48.9316C244.947 49.1074 244.361 49.1953 243.736 49.1953C243.098 49.1953 242.503 49.1074 241.949 48.9316C241.402 48.7559 240.924 48.4987 240.514 48.1602C240.11 47.8151 239.791 47.3919 239.557 46.8906C239.322 46.3893 239.205 45.8132 239.205 45.1621C239.205 44.765 239.26 44.3906 239.371 44.0391C239.482 43.681 239.641 43.3555 239.85 43.0625C240.058 42.763 240.309 42.4961 240.602 42.2617C240.895 42.0273 241.223 41.832 241.588 41.6758C241.275 41.5195 240.992 41.334 240.738 41.1191C240.484 40.8978 240.27 40.6536 240.094 40.3867C239.918 40.1133 239.781 39.8171 239.684 39.498C239.586 39.179 239.537 38.8438 239.537 38.4922C239.537 37.8737 239.641 37.3236 239.85 36.8418C240.058 36.3535 240.344 35.9434 240.709 35.6113C241.08 35.2793 241.52 35.0254 242.027 34.8496C242.542 34.6738 243.102 34.5859 243.707 34.5859C244.306 34.5859 244.863 34.6738 245.377 34.8496C245.891 35.0254 246.337 35.2793 246.715 35.6113C247.092 35.9434 247.389 36.3535 247.604 36.8418C247.818 37.3236 247.926 37.8737 247.926 38.4922ZM246.441 45.123C246.441 44.7259 246.373 44.3613 246.236 44.0293C246.106 43.6973 245.921 43.4141 245.68 43.1797C245.439 42.9388 245.149 42.7533 244.811 42.623C244.479 42.4928 244.114 42.4277 243.717 42.4277C243.307 42.4277 242.936 42.4928 242.604 42.623C242.271 42.7533 241.988 42.9388 241.754 43.1797C241.52 43.4141 241.337 43.6973 241.207 44.0293C241.083 44.3613 241.021 44.7259 241.021 45.123C241.021 45.5332 241.083 45.901 241.207 46.2266C241.337 46.5456 241.52 46.8158 241.754 47.0371C241.988 47.2585 242.271 47.4277 242.604 47.5449C242.942 47.6621 243.32 47.7207 243.736 47.7207C244.133 47.7207 244.498 47.6621 244.83 47.5449C245.162 47.4277 245.445 47.2585 245.68 47.0371C245.921 46.8158 246.106 46.5456 246.236 46.2266C246.373 45.901 246.441 45.5332 246.441 45.123ZM246.109 38.5215C246.109 38.1634 246.048 37.8346 245.924 37.5352C245.807 37.2357 245.641 36.9785 245.426 36.7637C245.217 36.5423 244.967 36.373 244.674 36.2559C244.381 36.1322 244.059 36.0703 243.707 36.0703C243.355 36.0703 243.036 36.1289 242.75 36.2461C242.464 36.3568 242.216 36.5195 242.008 36.7344C241.799 36.9492 241.637 37.2096 241.52 37.5156C241.409 37.8151 241.354 38.1504 241.354 38.5215C241.354 38.8926 241.409 39.2279 241.52 39.5273C241.637 39.8203 241.799 40.0742 242.008 40.2891C242.223 40.4974 242.473 40.6602 242.76 40.7773C243.053 40.888 243.375 40.9434 243.727 40.9434C244.072 40.9434 244.391 40.888 244.684 40.7773C244.977 40.6602 245.227 40.4974 245.436 40.2891C245.65 40.0742 245.816 39.8171 245.934 39.5176C246.051 39.2181 246.109 38.8861 246.109 38.5215ZM255.768 48.5801C255.768 48.8861 255.729 49.2051 255.65 49.5371C255.579 49.8757 255.468 50.2077 255.318 50.5332C255.175 50.8652 254.999 51.181 254.791 51.4805C254.583 51.7799 254.342 52.0469 254.068 52.2812L252.945 51.666C253.258 51.2103 253.479 50.7253 253.609 50.2109C253.74 49.6966 253.805 49.1628 253.805 48.6094V46.8613H255.768V48.5801ZM271.92 49H262.604V47.7012L267.262 42.5254C267.678 42.0632 268.027 41.653 268.307 41.2949C268.587 40.9368 268.811 40.6081 268.98 40.3086C269.15 40.0026 269.27 39.7161 269.342 39.4492C269.413 39.1758 269.449 38.8958 269.449 38.6094C269.449 38.2578 269.391 37.929 269.273 37.623C269.163 37.3105 268.997 37.0404 268.775 36.8125C268.561 36.5846 268.297 36.4056 267.984 36.2754C267.678 36.1387 267.33 36.0703 266.939 36.0703C266.464 36.0703 266.051 36.1387 265.699 36.2754C265.354 36.4121 265.064 36.6074 264.83 36.8613C264.602 37.1087 264.43 37.4115 264.312 37.7695C264.202 38.1276 264.146 38.528 264.146 38.9707H262.33C262.33 38.3717 262.434 37.8086 262.643 37.2812C262.851 36.7474 263.15 36.2819 263.541 35.8848C263.938 35.4876 264.42 35.1719 264.986 34.9375C265.559 34.7031 266.21 34.5859 266.939 34.5859C267.61 34.5859 268.212 34.6868 268.746 34.8887C269.286 35.084 269.742 35.3574 270.113 35.709C270.484 36.0605 270.768 36.4772 270.963 36.959C271.165 37.4408 271.266 37.9648 271.266 38.5312C271.266 38.9544 271.194 39.3743 271.051 39.791C270.908 40.2012 270.712 40.6081 270.465 41.0117C270.224 41.4154 269.941 41.8158 269.615 42.2129C269.296 42.6035 268.958 42.9941 268.6 43.3848L264.781 47.5254H271.92V49ZM285.953 37.3398C285.953 36.9688 286.008 36.6172 286.119 36.2852C286.236 35.9466 286.402 35.6504 286.617 35.3965C286.839 35.1426 287.112 34.944 287.438 34.8008C287.763 34.651 288.137 34.5762 288.561 34.5762C288.99 34.5762 289.368 34.651 289.693 34.8008C290.025 34.944 290.299 35.1426 290.514 35.3965C290.735 35.6504 290.901 35.9466 291.012 36.2852C291.129 36.6172 291.188 36.9688 291.188 37.3398V38.0918C291.188 38.4629 291.129 38.8145 291.012 39.1465C290.901 39.4785 290.735 39.7715 290.514 40.0254C290.299 40.2728 290.029 40.4714 289.703 40.6211C289.378 40.7643 289.003 40.8359 288.58 40.8359C288.157 40.8359 287.779 40.7643 287.447 40.6211C287.122 40.4714 286.848 40.2728 286.627 40.0254C286.406 39.7715 286.236 39.4785 286.119 39.1465C286.008 38.8145 285.953 38.4629 285.953 38.0918V37.3398ZM287.301 38.0918C287.301 38.2936 287.324 38.4889 287.369 38.6777C287.415 38.86 287.49 39.026 287.594 39.1758C287.698 39.319 287.828 39.4362 287.984 39.5273C288.147 39.612 288.346 39.6543 288.58 39.6543C288.808 39.6543 289 39.612 289.156 39.5273C289.319 39.4362 289.449 39.319 289.547 39.1758C289.645 39.026 289.716 38.86 289.762 38.6777C289.814 38.4889 289.84 38.2936 289.84 38.0918V37.3398C289.84 37.138 289.814 36.9427 289.762 36.7539C289.716 36.5586 289.641 36.3893 289.537 36.2461C289.439 36.0964 289.309 35.9792 289.146 35.8945C288.99 35.8034 288.795 35.7578 288.561 35.7578C288.333 35.7578 288.137 35.8034 287.975 35.8945C287.818 35.9792 287.688 36.0964 287.584 36.2461C287.486 36.3893 287.415 36.5586 287.369 36.7539C287.324 36.9427 287.301 37.138 287.301 37.3398V38.0918ZM291.822 45.6992C291.822 45.3281 291.878 44.9766 291.988 44.6445C292.105 44.3125 292.275 44.0195 292.496 43.7656C292.717 43.5117 292.991 43.3132 293.316 43.1699C293.642 43.0202 294.016 42.9453 294.439 42.9453C294.869 42.9453 295.247 43.0202 295.572 43.1699C295.898 43.3132 296.171 43.5117 296.393 43.7656C296.614 44.0195 296.78 44.3125 296.891 44.6445C297.008 44.9766 297.066 45.3281 297.066 45.6992V46.4609C297.066 46.832 297.008 47.1836 296.891 47.5156C296.78 47.8477 296.614 48.1406 296.393 48.3945C296.171 48.6419 295.898 48.8405 295.572 48.9902C295.253 49.1335 294.882 49.2051 294.459 49.2051C294.029 49.2051 293.648 49.1335 293.316 48.9902C292.991 48.8405 292.717 48.6419 292.496 48.3945C292.275 48.1406 292.105 47.8477 291.988 47.5156C291.878 47.1836 291.822 46.832 291.822 46.4609V45.6992ZM293.17 46.4609C293.17 46.6628 293.193 46.8581 293.238 47.0469C293.29 47.2357 293.365 47.4049 293.463 47.5547C293.567 47.6979 293.701 47.8151 293.863 47.9062C294.026 47.9909 294.225 48.0332 294.459 48.0332C294.687 48.0332 294.879 47.9909 295.035 47.9062C295.198 47.8151 295.328 47.6979 295.426 47.5547C295.523 47.4049 295.595 47.2357 295.641 47.0469C295.686 46.8581 295.709 46.6628 295.709 46.4609V45.6992C295.709 45.4974 295.686 45.3021 295.641 45.1133C295.595 44.9245 295.52 44.7585 295.416 44.6152C295.318 44.4655 295.188 44.3483 295.025 44.2637C294.863 44.1725 294.667 44.127 294.439 44.127C294.205 44.127 294.007 44.1725 293.844 44.2637C293.688 44.3483 293.557 44.4655 293.453 44.6152C293.355 44.7585 293.284 44.9245 293.238 45.1133C293.193 45.3021 293.17 45.4974 293.17 45.6992V46.4609ZM289.41 47.1641L288.326 46.5586L293.863 36.4316L294.947 37.0371L289.41 47.1641Z" fill="black"/>
<path d="M1024.04 49H1022.23V37.0859L1018.51 38.502V36.8516L1023.89 34.7812H1024.04V49ZM1034.77 48.5801C1034.77 48.8861 1034.73 49.2051 1034.65 49.5371C1034.58 49.8757 1034.47 50.2077 1034.32 50.5332C1034.18 50.8652 1034 51.181 1033.79 51.4805C1033.58 51.7799 1033.34 52.0469 1033.07 52.2812L1031.95 51.666C1032.26 51.2103 1032.48 50.7253 1032.61 50.2109C1032.74 49.6966 1032.8 49.1628 1032.8 48.6094V46.8613H1034.77V48.5801ZM1048.86 34.7715V36.3926H1048.7C1048.1 36.3926 1047.57 36.4544 1047.09 36.5781C1046.62 36.7018 1046.21 36.8711 1045.85 37.0859C1045.49 37.3008 1045.18 37.5579 1044.92 37.8574C1044.67 38.1504 1044.46 38.4727 1044.29 38.8242C1044.12 39.1758 1043.99 39.5436 1043.9 39.9277C1043.81 40.3118 1043.75 40.7025 1043.72 41.0996C1043.89 40.8978 1044.09 40.7122 1044.31 40.543C1044.53 40.3672 1044.77 40.2174 1045.02 40.0938C1045.28 39.9635 1045.56 39.8626 1045.85 39.791C1046.15 39.7129 1046.46 39.6738 1046.79 39.6738C1047.5 39.6738 1048.11 39.8105 1048.62 40.084C1049.14 40.3509 1049.56 40.7057 1049.89 41.1484C1050.23 41.5911 1050.47 42.0924 1050.63 42.6523C1050.78 43.2122 1050.86 43.7819 1050.86 44.3613C1050.86 45.0254 1050.77 45.6504 1050.58 46.2363C1050.4 46.8223 1050.12 47.3366 1049.75 47.7793C1049.38 48.2155 1048.91 48.5605 1048.36 48.8145C1047.81 49.0684 1047.18 49.1953 1046.46 49.1953C1045.94 49.1953 1045.47 49.1204 1045.04 48.9707C1044.62 48.821 1044.24 48.6191 1043.9 48.3652C1043.56 48.1048 1043.26 47.7988 1043.01 47.4473C1042.76 47.0957 1042.54 46.7181 1042.38 46.3145C1042.21 45.9108 1042.09 45.4909 1042 45.0547C1041.92 44.6185 1041.88 44.1823 1041.88 43.7461V42.8965C1041.88 42.2454 1041.92 41.5944 1041.99 40.9434C1042.08 40.2858 1042.22 39.6576 1042.41 39.0586C1042.61 38.4596 1042.87 37.8997 1043.21 37.3789C1043.54 36.8516 1043.95 36.3958 1044.46 36.0117C1044.96 35.6276 1045.57 35.3249 1046.26 35.1035C1046.96 34.8822 1047.77 34.7715 1048.7 34.7715H1048.86ZM1046.5 41.1777C1046.19 41.1777 1045.89 41.2266 1045.61 41.3242C1045.32 41.4219 1045.05 41.5586 1044.81 41.7344C1044.56 41.9102 1044.34 42.1217 1044.15 42.3691C1043.96 42.6165 1043.81 42.89 1043.7 43.1895V43.7949C1043.7 44.4199 1043.78 44.9766 1043.93 45.4648C1044.08 45.9466 1044.28 46.3535 1044.53 46.6855C1044.79 47.0176 1045.08 47.2715 1045.41 47.4473C1045.74 47.6165 1046.09 47.7012 1046.46 47.7012C1046.88 47.7012 1047.25 47.6198 1047.58 47.457C1047.91 47.2943 1048.18 47.0697 1048.4 46.7832C1048.63 46.4967 1048.8 46.1549 1048.91 45.7578C1049.03 45.3542 1049.08 44.918 1049.08 44.4492C1049.08 44.0326 1049.03 43.6289 1048.93 43.2383C1048.82 42.8411 1048.66 42.4896 1048.45 42.1836C1048.23 41.8776 1047.96 41.6335 1047.64 41.4512C1047.31 41.2689 1046.93 41.1777 1046.5 41.1777ZM1052.94 37.3398C1052.94 36.9688 1053 36.6172 1053.11 36.2852C1053.22 35.9466 1053.39 35.6504 1053.61 35.3965C1053.83 35.1426 1054.1 34.944 1054.43 34.8008C1054.75 34.651 1055.13 34.5762 1055.55 34.5762C1055.98 34.5762 1056.36 34.651 1056.68 34.8008C1057.01 34.944 1057.29 35.1426 1057.5 35.3965C1057.72 35.6504 1057.89 35.9466 1058 36.2852C1058.12 36.6172 1058.18 36.9688 1058.18 37.3398V38.0918C1058.18 38.4629 1058.12 38.8145 1058 39.1465C1057.89 39.4785 1057.72 39.7715 1057.5 40.0254C1057.29 40.2728 1057.02 40.4714 1056.69 40.6211C1056.37 40.7643 1055.99 40.8359 1055.57 40.8359C1055.15 40.8359 1054.77 40.7643 1054.44 40.6211C1054.11 40.4714 1053.84 40.2728 1053.62 40.0254C1053.39 39.7715 1053.22 39.4785 1053.11 39.1465C1053 38.8145 1052.94 38.4629 1052.94 38.0918V37.3398ZM1054.29 38.0918C1054.29 38.2936 1054.31 38.4889 1054.36 38.6777C1054.4 38.86 1054.48 39.026 1054.58 39.1758C1054.69 39.319 1054.82 39.4362 1054.97 39.5273C1055.14 39.612 1055.33 39.6543 1055.57 39.6543C1055.8 39.6543 1055.99 39.612 1056.14 39.5273C1056.31 39.4362 1056.44 39.319 1056.54 39.1758C1056.63 39.026 1056.7 38.86 1056.75 38.6777C1056.8 38.4889 1056.83 38.2936 1056.83 38.0918V37.3398C1056.83 37.138 1056.8 36.9427 1056.75 36.7539C1056.7 36.5586 1056.63 36.3893 1056.53 36.2461C1056.43 36.0964 1056.3 35.9792 1056.13 35.8945C1055.98 35.8034 1055.78 35.7578 1055.55 35.7578C1055.32 35.7578 1055.13 35.8034 1054.96 35.8945C1054.81 35.9792 1054.68 36.0964 1054.57 36.2461C1054.47 36.3893 1054.4 36.5586 1054.36 36.7539C1054.31 36.9427 1054.29 37.138 1054.29 37.3398V38.0918ZM1058.81 45.6992C1058.81 45.3281 1058.87 44.9766 1058.98 44.6445C1059.09 44.3125 1059.26 44.0195 1059.48 43.7656C1059.71 43.5117 1059.98 43.3132 1060.3 43.1699C1060.63 43.0202 1061 42.9453 1061.43 42.9453C1061.86 42.9453 1062.24 43.0202 1062.56 43.1699C1062.89 43.3132 1063.16 43.5117 1063.38 43.7656C1063.6 44.0195 1063.77 44.3125 1063.88 44.6445C1064 44.9766 1064.05 45.3281 1064.05 45.6992V46.4609C1064.05 46.832 1064 47.1836 1063.88 47.5156C1063.77 47.8477 1063.6 48.1406 1063.38 48.3945C1063.16 48.6419 1062.89 48.8405 1062.56 48.9902C1062.24 49.1335 1061.87 49.2051 1061.45 49.2051C1061.02 49.2051 1060.64 49.1335 1060.3 48.9902C1059.98 48.8405 1059.71 48.6419 1059.48 48.3945C1059.26 48.1406 1059.09 47.8477 1058.98 47.5156C1058.87 47.1836 1058.81 46.832 1058.81 46.4609V45.6992ZM1060.16 46.4609C1060.16 46.6628 1060.18 46.8581 1060.23 47.0469C1060.28 47.2357 1060.35 47.4049 1060.45 47.5547C1060.56 47.6979 1060.69 47.8151 1060.85 47.9062C1061.01 47.9909 1061.21 48.0332 1061.45 48.0332C1061.68 48.0332 1061.87 47.9909 1062.02 47.9062C1062.19 47.8151 1062.32 47.6979 1062.41 47.5547C1062.51 47.4049 1062.58 47.2357 1062.63 47.0469C1062.67 46.8581 1062.7 46.6628 1062.7 46.4609V45.6992C1062.7 45.4974 1062.67 45.3021 1062.63 45.1133C1062.58 44.9245 1062.51 44.7585 1062.4 44.6152C1062.31 44.4655 1062.18 44.3483 1062.01 44.2637C1061.85 44.1725 1061.66 44.127 1061.43 44.127C1061.19 44.127 1060.99 44.1725 1060.83 44.2637C1060.68 44.3483 1060.55 44.4655 1060.44 44.6152C1060.34 44.7585 1060.27 44.9245 1060.23 45.1133C1060.18 45.3021 1060.16 45.4974 1060.16 45.6992V46.4609ZM1056.4 47.1641L1055.31 46.5586L1060.85 36.4316L1061.94 37.0371L1056.4 47.1641Z" fill="black"/>
<path d="M515.848 34.7715V36.3926H515.691C515.092 36.3926 514.555 36.4544 514.08 36.5781C513.611 36.7018 513.198 36.8711 512.84 37.0859C512.482 37.3008 512.173 37.5579 511.912 37.8574C511.658 38.1504 511.447 38.4727 511.277 38.8242C511.108 39.1758 510.978 39.5436 510.887 39.9277C510.796 40.3118 510.737 40.7025 510.711 41.0996C510.88 40.8978 511.076 40.7122 511.297 40.543C511.518 40.3672 511.756 40.2174 512.01 40.0938C512.27 39.9635 512.547 39.8626 512.84 39.791C513.139 39.7129 513.452 39.6738 513.777 39.6738C514.487 39.6738 515.099 39.8105 515.613 40.084C516.128 40.3509 516.551 40.7057 516.883 41.1484C517.215 41.5911 517.459 42.0924 517.615 42.6523C517.771 43.2122 517.85 43.7819 517.85 44.3613C517.85 45.0254 517.755 45.6504 517.566 46.2363C517.384 46.8223 517.107 47.3366 516.736 47.7793C516.365 48.2155 515.903 48.5605 515.35 48.8145C514.803 49.0684 514.168 49.1953 513.445 49.1953C512.931 49.1953 512.459 49.1204 512.029 48.9707C511.606 48.821 511.225 48.6191 510.887 48.3652C510.548 48.1048 510.252 47.7988 509.998 47.4473C509.744 47.0957 509.533 46.7181 509.363 46.3145C509.201 45.9108 509.077 45.4909 508.992 45.0547C508.908 44.6185 508.865 44.1823 508.865 43.7461V42.8965C508.865 42.2454 508.904 41.5944 508.982 40.9434C509.067 40.2858 509.207 39.6576 509.402 39.0586C509.598 38.4596 509.861 37.8997 510.193 37.3789C510.525 36.8516 510.942 36.3958 511.443 36.0117C511.951 35.6276 512.553 35.3249 513.25 35.1035C513.947 34.8822 514.76 34.7715 515.691 34.7715H515.848ZM513.484 41.1777C513.178 41.1777 512.882 41.2266 512.596 41.3242C512.309 41.4219 512.042 41.5586 511.795 41.7344C511.548 41.9102 511.329 42.1217 511.141 42.3691C510.952 42.6165 510.802 42.89 510.691 43.1895V43.7949C510.691 44.4199 510.766 44.9766 510.916 45.4648C511.066 45.9466 511.268 46.3535 511.521 46.6855C511.775 47.0176 512.068 47.2715 512.4 47.4473C512.732 47.6165 513.081 47.7012 513.445 47.7012C513.868 47.7012 514.243 47.6198 514.568 47.457C514.894 47.2943 515.167 47.0697 515.389 46.7832C515.617 46.4967 515.786 46.1549 515.896 45.7578C516.014 45.3542 516.072 44.918 516.072 44.4492C516.072 44.0326 516.02 43.6289 515.916 43.2383C515.812 42.8411 515.652 42.4896 515.438 42.1836C515.223 41.8776 514.952 41.6335 514.627 41.4512C514.301 41.2689 513.921 41.1777 513.484 41.1777ZM519.93 37.3398C519.93 36.9688 519.985 36.6172 520.096 36.2852C520.213 35.9466 520.379 35.6504 520.594 35.3965C520.815 35.1426 521.089 34.944 521.414 34.8008C521.74 34.651 522.114 34.5762 522.537 34.5762C522.967 34.5762 523.344 34.651 523.67 34.8008C524.002 34.944 524.275 35.1426 524.49 35.3965C524.712 35.6504 524.878 35.9466 524.988 36.2852C525.105 36.6172 525.164 36.9688 525.164 37.3398V38.0918C525.164 38.4629 525.105 38.8145 524.988 39.1465C524.878 39.4785 524.712 39.7715 524.49 40.0254C524.275 40.2728 524.005 40.4714 523.68 40.6211C523.354 40.7643 522.98 40.8359 522.557 40.8359C522.133 40.8359 521.756 40.7643 521.424 40.6211C521.098 40.4714 520.825 40.2728 520.604 40.0254C520.382 39.7715 520.213 39.4785 520.096 39.1465C519.985 38.8145 519.93 38.4629 519.93 38.0918V37.3398ZM521.277 38.0918C521.277 38.2936 521.3 38.4889 521.346 38.6777C521.391 38.86 521.466 39.026 521.57 39.1758C521.674 39.319 521.805 39.4362 521.961 39.5273C522.124 39.612 522.322 39.6543 522.557 39.6543C522.785 39.6543 522.977 39.612 523.133 39.5273C523.296 39.4362 523.426 39.319 523.523 39.1758C523.621 39.026 523.693 38.86 523.738 38.6777C523.79 38.4889 523.816 38.2936 523.816 38.0918V37.3398C523.816 37.138 523.79 36.9427 523.738 36.7539C523.693 36.5586 523.618 36.3893 523.514 36.2461C523.416 36.0964 523.286 35.9792 523.123 35.8945C522.967 35.8034 522.771 35.7578 522.537 35.7578C522.309 35.7578 522.114 35.8034 521.951 35.8945C521.795 35.9792 521.665 36.0964 521.561 36.2461C521.463 36.3893 521.391 36.5586 521.346 36.7539C521.3 36.9427 521.277 37.138 521.277 37.3398V38.0918ZM525.799 45.6992C525.799 45.3281 525.854 44.9766 525.965 44.6445C526.082 44.3125 526.251 44.0195 526.473 43.7656C526.694 43.5117 526.967 43.3132 527.293 43.1699C527.618 43.0202 527.993 42.9453 528.416 42.9453C528.846 42.9453 529.223 43.0202 529.549 43.1699C529.874 43.3132 530.148 43.5117 530.369 43.7656C530.59 44.0195 530.757 44.3125 530.867 44.6445C530.984 44.9766 531.043 45.3281 531.043 45.6992V46.4609C531.043 46.832 530.984 47.1836 530.867 47.5156C530.757 47.8477 530.59 48.1406 530.369 48.3945C530.148 48.6419 529.874 48.8405 529.549 48.9902C529.23 49.1335 528.859 49.2051 528.436 49.2051C528.006 49.2051 527.625 49.1335 527.293 48.9902C526.967 48.8405 526.694 48.6419 526.473 48.3945C526.251 48.1406 526.082 47.8477 525.965 47.5156C525.854 47.1836 525.799 46.832 525.799 46.4609V45.6992ZM527.146 46.4609C527.146 46.6628 527.169 46.8581 527.215 47.0469C527.267 47.2357 527.342 47.4049 527.439 47.5547C527.544 47.6979 527.677 47.8151 527.84 47.9062C528.003 47.9909 528.201 48.0332 528.436 48.0332C528.663 48.0332 528.855 47.9909 529.012 47.9062C529.174 47.8151 529.305 47.6979 529.402 47.5547C529.5 47.4049 529.572 47.2357 529.617 47.0469C529.663 46.8581 529.686 46.6628 529.686 46.4609V45.6992C529.686 45.4974 529.663 45.3021 529.617 45.1133C529.572 44.9245 529.497 44.7585 529.393 44.6152C529.295 44.4655 529.165 44.3483 529.002 44.2637C528.839 44.1725 528.644 44.127 528.416 44.127C528.182 44.127 527.983 44.1725 527.82 44.2637C527.664 44.3483 527.534 44.4655 527.43 44.6152C527.332 44.7585 527.26 44.9245 527.215 45.1133C527.169 45.3021 527.146 45.4974 527.146 45.6992V46.4609ZM523.387 47.1641L522.303 46.5586L527.84 36.4316L528.924 37.0371L523.387 47.1641Z" fill="black"/>
<path d="M765.5 44.2246H767.482V45.6992H765.5V49H763.693V45.6992H757.209V44.6348L763.576 34.7812H765.5V44.2246ZM759.211 44.2246H763.693V37.1836L763.4 37.7305L759.211 44.2246ZM774.768 48.5801C774.768 48.8861 774.729 49.2051 774.65 49.5371C774.579 49.8757 774.468 50.2077 774.318 50.5332C774.175 50.8652 773.999 51.181 773.791 51.4805C773.583 51.7799 773.342 52.0469 773.068 52.2812L771.945 51.666C772.258 51.2103 772.479 50.7253 772.609 50.2109C772.74 49.6966 772.805 49.1628 772.805 48.6094V46.8613H774.768V48.5801ZM790.92 49H781.604V47.7012L786.262 42.5254C786.678 42.0632 787.027 41.653 787.307 41.2949C787.587 40.9368 787.811 40.6081 787.98 40.3086C788.15 40.0026 788.27 39.7161 788.342 39.4492C788.413 39.1758 788.449 38.8958 788.449 38.6094C788.449 38.2578 788.391 37.929 788.273 37.623C788.163 37.3105 787.997 37.0404 787.775 36.8125C787.561 36.5846 787.297 36.4056 786.984 36.2754C786.678 36.1387 786.33 36.0703 785.939 36.0703C785.464 36.0703 785.051 36.1387 784.699 36.2754C784.354 36.4121 784.064 36.6074 783.83 36.8613C783.602 37.1087 783.43 37.4115 783.312 37.7695C783.202 38.1276 783.146 38.528 783.146 38.9707H781.33C781.33 38.3717 781.434 37.8086 781.643 37.2812C781.851 36.7474 782.15 36.2819 782.541 35.8848C782.938 35.4876 783.42 35.1719 783.986 34.9375C784.559 34.7031 785.21 34.5859 785.939 34.5859C786.61 34.5859 787.212 34.6868 787.746 34.8887C788.286 35.084 788.742 35.3574 789.113 35.709C789.484 36.0605 789.768 36.4772 789.963 36.959C790.165 37.4408 790.266 37.9648 790.266 38.5312C790.266 38.9544 790.194 39.3743 790.051 39.791C789.908 40.2012 789.712 40.6081 789.465 41.0117C789.224 41.4154 788.941 41.8158 788.615 42.2129C788.296 42.6035 787.958 42.9941 787.6 43.3848L783.781 47.5254H790.92V49ZM792.941 37.3398C792.941 36.9688 792.997 36.6172 793.107 36.2852C793.225 35.9466 793.391 35.6504 793.605 35.3965C793.827 35.1426 794.1 34.944 794.426 34.8008C794.751 34.651 795.126 34.5762 795.549 34.5762C795.979 34.5762 796.356 34.651 796.682 34.8008C797.014 34.944 797.287 35.1426 797.502 35.3965C797.723 35.6504 797.889 35.9466 798 36.2852C798.117 36.6172 798.176 36.9688 798.176 37.3398V38.0918C798.176 38.4629 798.117 38.8145 798 39.1465C797.889 39.4785 797.723 39.7715 797.502 40.0254C797.287 40.2728 797.017 40.4714 796.691 40.6211C796.366 40.7643 795.992 40.8359 795.568 40.8359C795.145 40.8359 794.768 40.7643 794.436 40.6211C794.11 40.4714 793.837 40.2728 793.615 40.0254C793.394 39.7715 793.225 39.4785 793.107 39.1465C792.997 38.8145 792.941 38.4629 792.941 38.0918V37.3398ZM794.289 38.0918C794.289 38.2936 794.312 38.4889 794.357 38.6777C794.403 38.86 794.478 39.026 794.582 39.1758C794.686 39.319 794.816 39.4362 794.973 39.5273C795.135 39.612 795.334 39.6543 795.568 39.6543C795.796 39.6543 795.988 39.612 796.145 39.5273C796.307 39.4362 796.438 39.319 796.535 39.1758C796.633 39.026 796.704 38.86 796.75 38.6777C796.802 38.4889 796.828 38.2936 796.828 38.0918V37.3398C796.828 37.138 796.802 36.9427 796.75 36.7539C796.704 36.5586 796.63 36.3893 796.525 36.2461C796.428 36.0964 796.298 35.9792 796.135 35.8945C795.979 35.8034 795.783 35.7578 795.549 35.7578C795.321 35.7578 795.126 35.8034 794.963 35.8945C794.807 35.9792 794.676 36.0964 794.572 36.2461C794.475 36.3893 794.403 36.5586 794.357 36.7539C794.312 36.9427 794.289 37.138 794.289 37.3398V38.0918ZM798.811 45.6992C798.811 45.3281 798.866 44.9766 798.977 44.6445C799.094 44.3125 799.263 44.0195 799.484 43.7656C799.706 43.5117 799.979 43.3132 800.305 43.1699C800.63 43.0202 801.005 42.9453 801.428 42.9453C801.857 42.9453 802.235 43.0202 802.561 43.1699C802.886 43.3132 803.16 43.5117 803.381 43.7656C803.602 44.0195 803.768 44.3125 803.879 44.6445C803.996 44.9766 804.055 45.3281 804.055 45.6992V46.4609C804.055 46.832 803.996 47.1836 803.879 47.5156C803.768 47.8477 803.602 48.1406 803.381 48.3945C803.16 48.6419 802.886 48.8405 802.561 48.9902C802.242 49.1335 801.87 49.2051 801.447 49.2051C801.018 49.2051 800.637 49.1335 800.305 48.9902C799.979 48.8405 799.706 48.6419 799.484 48.3945C799.263 48.1406 799.094 47.8477 798.977 47.5156C798.866 47.1836 798.811 46.832 798.811 46.4609V45.6992ZM800.158 46.4609C800.158 46.6628 800.181 46.8581 800.227 47.0469C800.279 47.2357 800.354 47.4049 800.451 47.5547C800.555 47.6979 800.689 47.8151 800.852 47.9062C801.014 47.9909 801.213 48.0332 801.447 48.0332C801.675 48.0332 801.867 47.9909 802.023 47.9062C802.186 47.8151 802.316 47.6979 802.414 47.5547C802.512 47.4049 802.583 47.2357 802.629 47.0469C802.674 46.8581 802.697 46.6628 802.697 46.4609V45.6992C802.697 45.4974 802.674 45.3021 802.629 45.1133C802.583 44.9245 802.508 44.7585 802.404 44.6152C802.307 44.4655 802.176 44.3483 802.014 44.2637C801.851 44.1725 801.656 44.127 801.428 44.127C801.193 44.127 800.995 44.1725 800.832 44.2637C800.676 44.3483 800.546 44.4655 800.441 44.6152C800.344 44.7585 800.272 44.9245 800.227 45.1133C800.181 45.3021 800.158 45.4974 800.158 45.6992V46.4609ZM796.398 47.1641L795.314 46.5586L800.852 36.4316L801.936 37.0371L796.398 47.1641Z" fill="black"/>
<defs>
<linearGradient id="paint0_linear" x1="790.5" y1="102" x2="804.5" y2="115" gradientUnits="userSpaceOnUse">
<stop stop-color="#6CBAFA"/>
<stop offset="0.447917" stop-color="#6CBAFA"/>
<stop offset="0.479067" stop-color="#6CBAFA"/>
<stop offset="0.479167" stop-color="white" stop-opacity="0"/>
</linearGradient>
<linearGradient id="paint1_linear" x1="1034.5" y1="76" x2="1048.5" y2="89" gradientUnits="userSpaceOnUse">
<stop stop-color="white" stop-opacity="0"/>
<stop offset="0.447917" stop-color="white" stop-opacity="0"/>
<stop offset="0.463168" stop-color="#FBC800"/>
</linearGradient>
</defs>
</svg>
