<svg width="1200" height="400" viewBox="0 0 1200 400" fill="none" xmlns="http://www.w3.org/2000/svg">
<rect width="1200" height="400" fill="white"/>
<path d="M205.311 62.1191C205.306 62.6514 205.162 63.125 204.878 63.54C204.595 63.9551 204.217 64.2798 203.743 64.5142C204.017 64.6313 204.263 64.7778 204.483 64.9536C204.708 65.1245 204.898 65.3223 205.054 65.5469C205.215 65.7715 205.337 66.0156 205.42 66.2793C205.508 66.543 205.552 66.8237 205.552 67.1216C205.552 67.605 205.462 68.0347 205.281 68.4106C205.105 68.7866 204.864 69.104 204.556 69.3628C204.253 69.6167 203.897 69.812 203.487 69.9487C203.077 70.0806 202.637 70.1465 202.168 70.1465C201.69 70.1465 201.243 70.0806 200.828 69.9487C200.418 69.8169 200.059 69.624 199.751 69.3701C199.449 69.1113 199.209 68.7939 199.034 68.418C198.858 68.042 198.77 67.6099 198.77 67.1216C198.77 66.8237 198.812 66.543 198.895 66.2793C198.978 66.0107 199.097 65.7666 199.253 65.5469C199.41 65.3223 199.598 65.1221 199.817 64.9463C200.037 64.7705 200.284 64.624 200.557 64.5068C200.323 64.3896 200.11 64.2505 199.92 64.0894C199.729 63.9233 199.568 63.7402 199.437 63.54C199.305 63.335 199.202 63.1128 199.129 62.8735C199.056 62.6343 199.019 62.3828 199.019 62.1191C199.019 61.6553 199.097 61.2427 199.253 60.8813C199.41 60.5151 199.625 60.2075 199.898 59.9585C200.176 59.7095 200.506 59.519 200.887 59.3872C201.272 59.2554 201.692 59.1895 202.146 59.1895C202.596 59.1895 203.013 59.2554 203.399 59.3872C203.785 59.519 204.119 59.7095 204.402 59.9585C204.686 60.2075 204.908 60.5151 205.069 60.8813C205.23 61.2427 205.311 61.6553 205.311 62.1191ZM204.197 67.0923C204.197 66.7944 204.146 66.521 204.043 66.272C203.946 66.0229 203.807 65.8105 203.626 65.6348C203.445 65.4541 203.228 65.3149 202.974 65.2173C202.725 65.1196 202.452 65.0708 202.154 65.0708C201.846 65.0708 201.568 65.1196 201.319 65.2173C201.07 65.3149 200.857 65.4541 200.682 65.6348C200.506 65.8105 200.369 66.0229 200.271 66.272C200.179 66.521 200.132 66.7944 200.132 67.0923C200.132 67.3999 200.179 67.6758 200.271 67.9199C200.369 68.1592 200.506 68.3618 200.682 68.5278C200.857 68.6938 201.07 68.8208 201.319 68.9087C201.573 68.9966 201.856 69.0405 202.168 69.0405C202.466 69.0405 202.74 68.9966 202.989 68.9087C203.238 68.8208 203.45 68.6938 203.626 68.5278C203.807 68.3618 203.946 68.1592 204.043 67.9199C204.146 67.6758 204.197 67.3999 204.197 67.0923ZM203.948 62.1411C203.948 61.8726 203.902 61.626 203.809 61.4014C203.721 61.1768 203.597 60.9839 203.436 60.8228C203.279 60.6567 203.091 60.5298 202.872 60.4419C202.652 60.3491 202.41 60.3027 202.146 60.3027C201.883 60.3027 201.644 60.3467 201.429 60.4346C201.214 60.5176 201.028 60.6396 200.872 60.8008C200.716 60.9619 200.594 61.1572 200.506 61.3867C200.423 61.6113 200.381 61.8628 200.381 62.1411C200.381 62.4194 200.423 62.6709 200.506 62.8955C200.594 63.1152 200.716 63.3057 200.872 63.4668C201.033 63.623 201.221 63.7451 201.436 63.833C201.656 63.916 201.897 63.9575 202.161 63.9575C202.42 63.9575 202.659 63.916 202.879 63.833C203.099 63.7451 203.287 63.623 203.443 63.4668C203.604 63.3057 203.729 63.1128 203.816 62.8882C203.904 62.6636 203.948 62.4146 203.948 62.1411ZM214.319 62.1191C214.314 62.6514 214.17 63.125 213.887 63.54C213.604 63.9551 213.226 64.2798 212.752 64.5142C213.025 64.6313 213.272 64.7778 213.492 64.9536C213.716 65.1245 213.907 65.3223 214.063 65.5469C214.224 65.7715 214.346 66.0156 214.429 66.2793C214.517 66.543 214.561 66.8237 214.561 67.1216C214.561 67.605 214.471 68.0347 214.29 68.4106C214.114 68.7866 213.873 69.104 213.565 69.3628C213.262 69.6167 212.906 69.812 212.496 69.9487C212.085 70.0806 211.646 70.1465 211.177 70.1465C210.699 70.1465 210.252 70.0806 209.837 69.9487C209.427 69.8169 209.068 69.624 208.76 69.3701C208.458 69.1113 208.218 68.7939 208.042 68.418C207.867 68.042 207.779 67.6099 207.779 67.1216C207.779 66.8237 207.82 66.543 207.903 66.2793C207.986 66.0107 208.106 65.7666 208.262 65.5469C208.418 65.3223 208.606 65.1221 208.826 64.9463C209.046 64.7705 209.292 64.624 209.566 64.5068C209.332 64.3896 209.119 64.2505 208.929 64.0894C208.738 63.9233 208.577 63.7402 208.445 63.54C208.313 63.335 208.211 63.1128 208.138 62.8735C208.064 62.6343 208.028 62.3828 208.028 62.1191C208.028 61.6553 208.106 61.2427 208.262 60.8813C208.418 60.5151 208.633 60.2075 208.907 59.9585C209.185 59.7095 209.515 59.519 209.896 59.3872C210.281 59.2554 210.701 59.1895 211.155 59.1895C211.604 59.1895 212.022 59.2554 212.408 59.3872C212.793 59.519 213.128 59.7095 213.411 59.9585C213.694 60.2075 213.917 60.5151 214.078 60.8813C214.239 61.2427 214.319 61.6553 214.319 62.1191ZM213.206 67.0923C213.206 66.7944 213.155 66.521 213.052 66.272C212.955 66.0229 212.815 65.8105 212.635 65.6348C212.454 65.4541 212.237 65.3149 211.983 65.2173C211.734 65.1196 211.46 65.0708 211.163 65.0708C210.855 65.0708 210.577 65.1196 210.328 65.2173C210.079 65.3149 209.866 65.4541 209.69 65.6348C209.515 65.8105 209.378 66.0229 209.28 66.272C209.188 66.521 209.141 66.7944 209.141 67.0923C209.141 67.3999 209.188 67.6758 209.28 67.9199C209.378 68.1592 209.515 68.3618 209.69 68.5278C209.866 68.6938 210.079 68.8208 210.328 68.9087C210.582 68.9966 210.865 69.0405 211.177 69.0405C211.475 69.0405 211.749 68.9966 211.998 68.9087C212.247 68.8208 212.459 68.6938 212.635 68.5278C212.815 68.3618 212.955 68.1592 213.052 67.9199C213.155 67.6758 213.206 67.3999 213.206 67.0923ZM212.957 62.1411C212.957 61.8726 212.911 61.626 212.818 61.4014C212.73 61.1768 212.605 60.9839 212.444 60.8228C212.288 60.6567 212.1 60.5298 211.88 60.4419C211.661 60.3491 211.419 60.3027 211.155 60.3027C210.892 60.3027 210.652 60.3467 210.438 60.4346C210.223 60.5176 210.037 60.6396 209.881 60.8008C209.725 60.9619 209.603 61.1572 209.515 61.3867C209.432 61.6113 209.39 61.8628 209.39 62.1411C209.39 62.4194 209.432 62.6709 209.515 62.8955C209.603 63.1152 209.725 63.3057 209.881 63.4668C210.042 63.623 210.23 63.7451 210.445 63.833C210.665 63.916 210.906 63.9575 211.17 63.9575C211.429 63.9575 211.668 63.916 211.888 63.833C212.107 63.7451 212.295 63.623 212.452 63.4668C212.613 63.3057 212.737 63.1128 212.825 62.8882C212.913 62.6636 212.957 62.4146 212.957 62.1411ZM220.201 69.6851C220.201 69.9146 220.171 70.1538 220.113 70.4028C220.059 70.6567 219.976 70.9058 219.864 71.1499C219.756 71.3989 219.625 71.6357 219.468 71.8604C219.312 72.085 219.131 72.2852 218.926 72.4609L218.084 71.9995C218.318 71.6577 218.484 71.2939 218.582 70.9082C218.68 70.5225 218.729 70.1221 218.729 69.707V68.396H220.201V69.6851ZM232.315 70H225.328V69.0259L228.821 65.144C229.134 64.7974 229.395 64.4897 229.605 64.2212C229.815 63.9526 229.983 63.7061 230.11 63.4814C230.237 63.252 230.328 63.0371 230.381 62.8369C230.435 62.6318 230.462 62.4219 230.462 62.207C230.462 61.9434 230.418 61.6968 230.33 61.4673C230.247 61.2329 230.123 61.0303 229.957 60.8594C229.795 60.6885 229.598 60.5542 229.363 60.4565C229.134 60.354 228.873 60.3027 228.58 60.3027C228.223 60.3027 227.913 60.354 227.649 60.4565C227.391 60.5591 227.173 60.7056 226.998 60.896C226.827 61.0815 226.697 61.3086 226.609 61.5771C226.526 61.8457 226.485 62.146 226.485 62.478H225.123C225.123 62.0288 225.201 61.6064 225.357 61.2109C225.513 60.8105 225.738 60.4614 226.031 60.1636C226.329 59.8657 226.69 59.6289 227.115 59.4531C227.544 59.2773 228.033 59.1895 228.58 59.1895C229.083 59.1895 229.534 59.2651 229.935 59.4165C230.34 59.563 230.682 59.7681 230.96 60.0317C231.238 60.2954 231.451 60.6079 231.597 60.9692C231.749 61.3306 231.824 61.7236 231.824 62.1484C231.824 62.4658 231.771 62.7808 231.663 63.0933C231.556 63.4009 231.409 63.7061 231.224 64.0088C231.043 64.3115 230.831 64.6118 230.586 64.9097C230.347 65.2026 230.093 65.4956 229.825 65.7886L226.961 68.894H232.315V70ZM242.84 61.2549C242.84 60.9766 242.881 60.7129 242.964 60.4639C243.052 60.21 243.177 59.9878 243.338 59.7974C243.504 59.6069 243.709 59.458 243.953 59.3506C244.197 59.2383 244.478 59.1821 244.795 59.1821C245.118 59.1821 245.401 59.2383 245.645 59.3506C245.894 59.458 246.099 59.6069 246.26 59.7974C246.426 59.9878 246.551 60.21 246.634 60.4639C246.722 60.7129 246.766 60.9766 246.766 61.2549V61.8188C246.766 62.0972 246.722 62.3608 246.634 62.6099C246.551 62.8589 246.426 63.0786 246.26 63.269C246.099 63.4546 245.896 63.6035 245.652 63.7158C245.408 63.8232 245.127 63.877 244.81 63.877C244.493 63.877 244.209 63.8232 243.96 63.7158C243.716 63.6035 243.511 63.4546 243.345 63.269C243.179 63.0786 243.052 62.8589 242.964 62.6099C242.881 62.3608 242.84 62.0972 242.84 61.8188V61.2549ZM243.851 61.8188C243.851 61.9702 243.868 62.1167 243.902 62.2583C243.936 62.395 243.992 62.5195 244.07 62.6318C244.148 62.7393 244.246 62.8271 244.363 62.8955C244.485 62.959 244.634 62.9907 244.81 62.9907C244.981 62.9907 245.125 62.959 245.242 62.8955C245.364 62.8271 245.462 62.7393 245.535 62.6318C245.608 62.5195 245.662 62.395 245.696 62.2583C245.735 62.1167 245.755 61.9702 245.755 61.8188V61.2549C245.755 61.1035 245.735 60.957 245.696 60.8154C245.662 60.6689 245.606 60.542 245.528 60.4346C245.455 60.3223 245.357 60.2344 245.235 60.1709C245.118 60.1025 244.971 60.0684 244.795 60.0684C244.625 60.0684 244.478 60.1025 244.356 60.1709C244.239 60.2344 244.141 60.3223 244.063 60.4346C243.99 60.542 243.936 60.6689 243.902 60.8154C243.868 60.957 243.851 61.1035 243.851 61.2549V61.8188ZM247.242 67.5244C247.242 67.2461 247.283 66.9824 247.366 66.7334C247.454 66.4844 247.581 66.2646 247.747 66.0742C247.913 65.8838 248.118 65.7349 248.362 65.6274C248.606 65.5151 248.887 65.459 249.205 65.459C249.527 65.459 249.81 65.5151 250.054 65.6274C250.298 65.7349 250.503 65.8838 250.669 66.0742C250.835 66.2646 250.96 66.4844 251.043 66.7334C251.131 66.9824 251.175 67.2461 251.175 67.5244V68.0957C251.175 68.374 251.131 68.6377 251.043 68.8867C250.96 69.1357 250.835 69.3555 250.669 69.5459C250.503 69.7314 250.298 69.8804 250.054 69.9927C249.815 70.1001 249.537 70.1538 249.219 70.1538C248.897 70.1538 248.611 70.1001 248.362 69.9927C248.118 69.8804 247.913 69.7314 247.747 69.5459C247.581 69.3555 247.454 69.1357 247.366 68.8867C247.283 68.6377 247.242 68.374 247.242 68.0957V67.5244ZM248.252 68.0957C248.252 68.2471 248.27 68.3936 248.304 68.5352C248.343 68.6768 248.399 68.8037 248.472 68.916C248.55 69.0234 248.65 69.1113 248.772 69.1797C248.895 69.2432 249.043 69.2749 249.219 69.2749C249.39 69.2749 249.534 69.2432 249.651 69.1797C249.773 69.1113 249.871 69.0234 249.944 68.916C250.018 68.8037 250.071 68.6768 250.105 68.5352C250.14 68.3936 250.157 68.2471 250.157 68.0957V67.5244C250.157 67.373 250.14 67.2266 250.105 67.085C250.071 66.9434 250.015 66.8188 249.937 66.7114C249.864 66.5991 249.766 66.5112 249.644 66.4478C249.522 66.3794 249.375 66.3452 249.205 66.3452C249.029 66.3452 248.88 66.3794 248.758 66.4478C248.641 66.5112 248.543 66.5991 248.465 66.7114C248.392 66.8188 248.338 66.9434 248.304 67.085C248.27 67.2266 248.252 67.373 248.252 67.5244V68.0957ZM245.433 68.623L244.62 68.1689L248.772 60.5737L249.585 61.0278L245.433 68.623Z" fill="black"/>
<circle r="7.5" transform="matrix(1 0 0 -1 343.5 246.5)" fill="#00C7A5"/>
<circle r="7.5" transform="matrix(1 0 0 -1 316.5 298.5)" fill="#00C7A5"/>
<circle r="7.5" transform="matrix(1 0 0 -1 289.5 298.5)" fill="#00C7A5"/>
<circle r="7.5" transform="matrix(1 0 0 -1 208.5 272.5)" fill="#00C7A5"/>
<circle r="7.5" transform="matrix(1 0 0 -1 235.5 298.5)" fill="#00C7A5"/>
<circle r="7.5" transform="matrix(1 0 0 -1 235.5 272.5)" fill="#00C7A5"/>
<circle r="7.5" transform="matrix(1 0 0 -1 181.5 272.5)" fill="#00C7A5"/>
<circle r="7.5" transform="matrix(1 0 0 -1 208.5 298.5)" fill="#00C7A5"/>
<circle r="7.5" transform="matrix(1 0 0 -1 181.5 298.5)" fill="#00C7A5"/>
<circle r="7.5" transform="matrix(1 0 0 -1 154.5 272.5)" fill="#00C7A5"/>
<circle r="7.5" transform="matrix(1 0 0 -1 208.5 246.5)" fill="#00C7A5"/>
<circle r="7.5" transform="matrix(1 0 0 -1 235.5 246.5)" fill="#00C7A5"/>
<circle r="7.5" transform="matrix(1 0 0 -1 181.5 246.5)" fill="#00C7A5"/>
<circle r="7.5" transform="matrix(1 0 0 -1 154.5 246.5)" fill="#00C7A5"/>
<circle r="7.5" transform="matrix(1 0 0 -1 128.5 246.5)" fill="#00C7A5"/>
<circle r="7.5" transform="matrix(1 0 0 -1 208.5 220.5)" fill="#00C7A5"/>
<circle r="7.5" transform="matrix(1 0 0 -1 235.5 220.5)" fill="#00C7A5"/>
<circle r="7.5" transform="matrix(1 0 0 -1 181.5 220.5)" fill="#00C7A5"/>
<circle r="7.5" transform="matrix(1 0 0 -1 154.5 220.5)" fill="#00C7A5"/>
<circle r="7.5" transform="matrix(1 0 0 -1 128.5 220.5)" fill="#00C7A5"/>
<circle r="7.5" transform="matrix(1 0 0 -1 100.5 220.5)" fill="#00C7A5"/>
<circle r="7.5" transform="matrix(1 0 0 -1 208.5 194.5)" fill="#00C7A5"/>
<circle r="7.5" transform="matrix(1 0 0 -1 235.5 194.5)" fill="#00C7A5"/>
<circle r="7.5" transform="matrix(1 0 0 -1 181.5 194.5)" fill="#00C7A5"/>
<circle r="7.5" transform="matrix(1 0 0 -1 154.5 194.5)" fill="#00C7A5"/>
<circle r="7.5" transform="matrix(1 0 0 -1 128.5 194.5)" fill="#00C7A5"/>
<circle r="7.5" transform="matrix(1 0 0 -1 100.5 194.5)" fill="#00C7A5"/>
<circle r="7.5" transform="matrix(1 0 0 -1 343.5 220.5)" fill="#00C7A5"/>
<circle r="7.5" transform="matrix(1 0 0 -1 235.5 142.5)" fill="#00C7A5"/>
<circle r="7.5" transform="matrix(1 0 0 -1 343.5 116.5)" fill="#00C7A5"/>
<circle r="7.5" transform="matrix(1 0 0 -1 208.5 142.5)" fill="#00C7A5"/>
<circle r="7.5" transform="matrix(1 0 0 -1 316.5 90.5)" fill="#00C7A5"/>
<circle r="7.5" transform="matrix(1 0 0 -1 343.5 90.5)" fill="#00C7A5"/>
<circle r="7.5" transform="matrix(1 0 0 -1 316.5 64.5)" fill="#00C7A5"/>
<circle r="7.5" transform="matrix(1 0 0 -1 289.5 116.5)" fill="#00C7A5"/>
<circle r="7.5" transform="matrix(1 0 0 -1 316.5 116.5)" fill="#00C7A5"/>
<circle r="7.5" transform="matrix(1 0 0 -1 181.5 142.5)" fill="#00C7A5"/>
<circle r="7.5" transform="matrix(1 0 0 -1 154.5 142.5)" fill="#00C7A5"/>
<circle r="7.5" transform="matrix(1 0 0 -1 289.5 64.5)" fill="#00C7A5"/>
<circle r="7.5" transform="matrix(1 0 0 -1 128.5 298.5)" fill="#00C7A5"/>
<circle r="7.5" transform="matrix(1 0 0 -1 289.5 90.5)" fill="#00C7A5"/>
<circle r="7.5" transform="matrix(1 0 0 -1 154.5 116.5)" fill="#00C7A5"/>
<circle r="7.5" transform="matrix(1 0 0 -1 128.5 142.5)" fill="#00C7A5"/>
<circle r="7.5" transform="matrix(1 0 0 -1 100.5 298.5)" fill="#00C7A5"/>
<circle r="7.5" transform="matrix(1 0 0 -1 316.5 272.5)" fill="#00C7A5"/>
<circle r="7.5" transform="matrix(1 0 0 -1 154.5 64.5)" fill="#00C7A5"/>
<circle r="7.5" transform="matrix(1 0 0 -1 154.5 90.5)" fill="#00C7A5"/>
<circle r="7.5" transform="matrix(1 0 0 -1 128.5 116.5)" fill="#00C7A5"/>
<circle r="7.5" transform="matrix(1 0 0 -1 100.5 142.5)" fill="#00C7A5"/>
<circle r="7.5" transform="matrix(1 0 0 -1 289.5 272.5)" fill="#00C7A5"/>
<circle r="7.5" transform="matrix(1 0 0 -1 289.5 142.5)" fill="#00C7A5"/>
<circle r="7.5" transform="matrix(1 0 0 -1 343.5 142.5)" fill="#00C7A5"/>
<circle r="7.5" transform="matrix(1 0 0 -1 128.5 64.5)" fill="#00C7A5"/>
<circle r="7.5" transform="matrix(1 0 0 -1 128.5 90.5)" fill="#00C7A5"/>
<circle r="7.5" transform="matrix(1 0 0 -1 100.5 64.5)" fill="#00C7A5"/>
<circle r="7.5" transform="matrix(1 0 0 -1 316.5 142.5)" fill="#00C7A5"/>
<circle r="7.5" transform="matrix(1 0 0 -1 262.5 272.5)" fill="#00C7A5"/>
<circle r="7.5" transform="matrix(1 0 0 -1 100.5 116.5)" fill="#00C7A5"/>
<circle r="7.5" transform="matrix(1 0 0 -1 100.5 90.5)" fill="#00C7A5"/>
<circle cx="154.5" cy="298.5" r="7.5" transform="rotate(-180 154.5 298.5)" fill="#00C7A5"/>
<circle cx="128.5" cy="272.5" r="7.5" transform="rotate(-180 128.5 272.5)" fill="#00C7A5"/>
<circle cx="100.5" cy="246.5" r="7.5" transform="rotate(-180 100.5 246.5)" fill="#00C7A5"/>
<circle cx="262.5" cy="298.5" r="7.5" transform="rotate(-180 262.5 298.5)" fill="#00C7A5"/>
<circle r="7.5" transform="matrix(1 0 0 -1 343.5 168.5)" fill="#00C7A5"/>
<circle r="7.5" transform="matrix(1 0 0 -1 208.5 168.5)" fill="#00C7A5"/>
<circle r="7.5" transform="matrix(1 0 0 -1 262.5 220.5)" fill="#00C7A5"/>
<circle r="7.5" transform="matrix(1 0 0 -1 262.5 168.5)" fill="#00C7A5"/>
<circle r="7.5" transform="matrix(1 0 0 -1 262.5 194.5)" fill="#00C7A5"/>
<circle r="7.5" transform="matrix(1 0 0 -1 343.5 64.5)" fill="#00C7A5"/>
<circle r="7.5" transform="matrix(1 0 0 -1 100.5 272.5)" fill="#00C7A5"/>
<circle r="7.5" transform="matrix(1 0 0 -1 343.5 272.5)" fill="#00C7A5"/>
<circle r="7.5" transform="matrix(1 0 0 -1 262.5 246.5)" fill="#00C7A5"/>
<circle r="7.5" transform="matrix(1 0 0 -1 289.5 220.5)" fill="#00C7A5"/>
<circle r="7.5" transform="matrix(1 0 0 -1 289.5 168.5)" fill="#00C7A5"/>
<circle r="7.5" transform="matrix(1 0 0 -1 289.5 194.5)" fill="#00C7A5"/>
<circle r="7.5" transform="matrix(1 0 0 -1 262.5 142.5)" fill="#00C7A5"/>
<circle r="7.5" transform="matrix(1 0 0 -1 316.5 246.5)" fill="#00C7A5"/>
<circle r="7.5" transform="matrix(1 0 0 -1 316.5 194.5)" fill="#00C7A5"/>
<circle r="7.5" transform="matrix(1 0 0 -1 316.5 220.5)" fill="#00C7A5"/>
<circle r="7.5" transform="matrix(1 0 0 -1 316.5 168.5)" fill="#00C7A5"/>
<circle r="7.5" transform="matrix(1 0 0 -1 343.5 298.5)" fill="#00C7A5"/>
<circle r="7.5" transform="matrix(1 0 0 -1 289.5 246.5)" fill="#00C7A5"/>
<circle r="7.5" transform="matrix(1 0 0 -1 235.5 168.5)" fill="#00C7A5"/>
<circle r="7.5" transform="matrix(1 0 0 -1 181.5 168.5)" fill="#00C7A5"/>
<circle r="7.5" transform="matrix(1 0 0 -1 154.5 168.5)" fill="#00C7A5"/>
<circle r="7.5" transform="matrix(1 0 0 -1 128.5 168.5)" fill="#00C7A5"/>
<circle r="7.5" transform="matrix(1 0 0 -1 100.5 168.5)" fill="#00C7A5"/>
<circle r="7.5" transform="matrix(1 0 0 -1 343.5 194.5)" fill="#00C7A5"/>
<path d="M470.761 59.3286V60.5444H470.644C470.194 60.5444 469.792 60.5908 469.435 60.6836C469.083 60.7764 468.773 60.9033 468.505 61.0645C468.236 61.2256 468.004 61.4185 467.809 61.6431C467.619 61.8628 467.46 62.1045 467.333 62.3682C467.206 62.6318 467.108 62.9077 467.04 63.1958C466.972 63.4839 466.928 63.7769 466.908 64.0747C467.035 63.9233 467.182 63.7842 467.348 63.6572C467.514 63.5254 467.692 63.4131 467.882 63.3203C468.078 63.2227 468.285 63.147 468.505 63.0933C468.729 63.0347 468.964 63.0054 469.208 63.0054C469.74 63.0054 470.199 63.1079 470.585 63.313C470.971 63.5132 471.288 63.7793 471.537 64.1113C471.786 64.4434 471.969 64.8193 472.086 65.2393C472.204 65.6592 472.262 66.0864 472.262 66.521C472.262 67.019 472.191 67.4878 472.05 67.9272C471.913 68.3667 471.706 68.7524 471.427 69.0845C471.149 69.4116 470.802 69.6704 470.387 69.8608C469.977 70.0513 469.501 70.1465 468.959 70.1465C468.573 70.1465 468.219 70.0903 467.897 69.978C467.58 69.8657 467.294 69.7144 467.04 69.5239C466.786 69.3286 466.564 69.0991 466.374 68.8354C466.183 68.5718 466.024 68.2886 465.897 67.9858C465.775 67.6831 465.683 67.3682 465.619 67.041C465.556 66.7139 465.524 66.3867 465.524 66.0596V65.4224C465.524 64.9341 465.553 64.4458 465.612 63.9575C465.675 63.4644 465.78 62.9932 465.927 62.5439C466.073 62.0947 466.271 61.6748 466.52 61.2842C466.769 60.8887 467.082 60.5469 467.458 60.2588C467.838 59.9707 468.29 59.7437 468.812 59.5776C469.335 59.4116 469.945 59.3286 470.644 59.3286H470.761ZM468.988 64.1333C468.759 64.1333 468.537 64.1699 468.322 64.2432C468.107 64.3164 467.907 64.4189 467.721 64.5508C467.536 64.6826 467.372 64.8413 467.23 65.0269C467.089 65.2124 466.977 65.4175 466.894 65.6421V66.0962C466.894 66.5649 466.95 66.9824 467.062 67.3486C467.174 67.71 467.326 68.0151 467.516 68.2642C467.707 68.5132 467.926 68.7036 468.175 68.8354C468.424 68.9624 468.686 69.0259 468.959 69.0259C469.276 69.0259 469.557 68.9648 469.801 68.8428C470.045 68.7207 470.25 68.5522 470.417 68.3374C470.587 68.1226 470.714 67.8662 470.797 67.5684C470.885 67.2656 470.929 66.9385 470.929 66.5869C470.929 66.2744 470.89 65.9717 470.812 65.6787C470.734 65.3809 470.614 65.1172 470.453 64.8877C470.292 64.6582 470.089 64.4751 469.845 64.3384C469.601 64.2017 469.315 64.1333 468.988 64.1333ZM473.822 61.2549C473.822 60.9766 473.864 60.7129 473.947 60.4639C474.035 60.21 474.159 59.9878 474.32 59.7974C474.486 59.6069 474.691 59.458 474.936 59.3506C475.18 59.2383 475.46 59.1821 475.778 59.1821C476.1 59.1821 476.383 59.2383 476.627 59.3506C476.876 59.458 477.082 59.6069 477.243 59.7974C477.409 59.9878 477.533 60.21 477.616 60.4639C477.704 60.7129 477.748 60.9766 477.748 61.2549V61.8188C477.748 62.0972 477.704 62.3608 477.616 62.6099C477.533 62.8589 477.409 63.0786 477.243 63.269C477.082 63.4546 476.879 63.6035 476.635 63.7158C476.391 63.8232 476.11 63.877 475.792 63.877C475.475 63.877 475.192 63.8232 474.943 63.7158C474.699 63.6035 474.494 63.4546 474.328 63.269C474.162 63.0786 474.035 62.8589 473.947 62.6099C473.864 62.3608 473.822 62.0972 473.822 61.8188V61.2549ZM474.833 61.8188C474.833 61.9702 474.85 62.1167 474.884 62.2583C474.918 62.395 474.975 62.5195 475.053 62.6318C475.131 62.7393 475.229 62.8271 475.346 62.8955C475.468 62.959 475.617 62.9907 475.792 62.9907C475.963 62.9907 476.107 62.959 476.225 62.8955C476.347 62.8271 476.444 62.7393 476.518 62.6318C476.591 62.5195 476.645 62.395 476.679 62.2583C476.718 62.1167 476.737 61.9702 476.737 61.8188V61.2549C476.737 61.1035 476.718 60.957 476.679 60.8154C476.645 60.6689 476.588 60.542 476.51 60.4346C476.437 60.3223 476.339 60.2344 476.217 60.1709C476.1 60.1025 475.954 60.0684 475.778 60.0684C475.607 60.0684 475.46 60.1025 475.338 60.1709C475.221 60.2344 475.124 60.3223 475.045 60.4346C474.972 60.542 474.918 60.6689 474.884 60.8154C474.85 60.957 474.833 61.1035 474.833 61.2549V61.8188ZM478.224 67.5244C478.224 67.2461 478.266 66.9824 478.349 66.7334C478.437 66.4844 478.563 66.2646 478.729 66.0742C478.896 65.8838 479.101 65.7349 479.345 65.6274C479.589 65.5151 479.87 65.459 480.187 65.459C480.509 65.459 480.792 65.5151 481.037 65.6274C481.281 65.7349 481.486 65.8838 481.652 66.0742C481.818 66.2646 481.942 66.4844 482.025 66.7334C482.113 66.9824 482.157 67.2461 482.157 67.5244V68.0957C482.157 68.374 482.113 68.6377 482.025 68.8867C481.942 69.1357 481.818 69.3555 481.652 69.5459C481.486 69.7314 481.281 69.8804 481.037 69.9927C480.797 70.1001 480.519 70.1538 480.202 70.1538C479.879 70.1538 479.594 70.1001 479.345 69.9927C479.101 69.8804 478.896 69.7314 478.729 69.5459C478.563 69.3555 478.437 69.1357 478.349 68.8867C478.266 68.6377 478.224 68.374 478.224 68.0957V67.5244ZM479.235 68.0957C479.235 68.2471 479.252 68.3936 479.286 68.5352C479.325 68.6768 479.381 68.8037 479.455 68.916C479.533 69.0234 479.633 69.1113 479.755 69.1797C479.877 69.2432 480.026 69.2749 480.202 69.2749C480.373 69.2749 480.517 69.2432 480.634 69.1797C480.756 69.1113 480.854 69.0234 480.927 68.916C481 68.8037 481.054 68.6768 481.088 68.5352C481.122 68.3936 481.139 68.2471 481.139 68.0957V67.5244C481.139 67.373 481.122 67.2266 481.088 67.085C481.054 66.9434 480.998 66.8188 480.919 66.7114C480.846 66.5991 480.749 66.5112 480.626 66.4478C480.504 66.3794 480.358 66.3452 480.187 66.3452C480.011 66.3452 479.862 66.3794 479.74 66.4478C479.623 66.5112 479.525 66.5991 479.447 66.7114C479.374 66.8188 479.32 66.9434 479.286 67.085C479.252 67.2266 479.235 67.373 479.235 67.5244V68.0957ZM476.415 68.623L475.602 68.1689L479.755 60.5737L480.568 61.0278L476.415 68.623Z" fill="black"/>
<circle cx="487.5" cy="90.5" r="7.5" fill="#8D75F3"/>
<circle cx="487.5" cy="142.5" r="7.5" fill="#8D75F3"/>
<circle cx="460.5" cy="90.5" r="7.5" fill="#8D75F3"/>
<circle cx="460.5" cy="116.5" r="7.5" fill="#8D75F3"/>
<circle cx="487.5" cy="116.5" r="7.5" fill="#8D75F3"/>
<circle cx="460.5" cy="142.5" r="7.5" fill="#8D75F3"/>
<path d="M722.25 69.4185H723.737V70.5244H722.25V73H720.895V70.5244H716.032V69.7261L720.807 62.3359H722.25V69.4185ZM717.533 69.4185H720.895V64.1377L720.675 64.5479L717.533 69.4185ZM729.201 72.6851C729.201 72.9146 729.171 73.1538 729.113 73.4028C729.059 73.6567 728.976 73.9058 728.864 74.1499C728.756 74.3989 728.625 74.6357 728.468 74.8604C728.312 75.085 728.131 75.2852 727.926 75.4609L727.084 74.9995C727.318 74.6577 727.484 74.2939 727.582 73.9082C727.68 73.5225 727.729 73.1221 727.729 72.707V71.396H729.201V72.6851ZM741.315 73H734.328V72.0259L737.821 68.144C738.134 67.7974 738.395 67.4897 738.605 67.2212C738.815 66.9526 738.983 66.7061 739.11 66.4814C739.237 66.252 739.328 66.0371 739.381 65.8369C739.435 65.6318 739.462 65.4219 739.462 65.207C739.462 64.9434 739.418 64.6968 739.33 64.4673C739.247 64.2329 739.123 64.0303 738.957 63.8594C738.795 63.6885 738.598 63.5542 738.363 63.4565C738.134 63.354 737.873 63.3027 737.58 63.3027C737.223 63.3027 736.913 63.354 736.649 63.4565C736.391 63.5591 736.173 63.7056 735.998 63.896C735.827 64.0815 735.697 64.3086 735.609 64.5771C735.526 64.8457 735.485 65.146 735.485 65.478H734.123C734.123 65.0288 734.201 64.6064 734.357 64.2109C734.513 63.8105 734.738 63.4614 735.031 63.1636C735.329 62.8657 735.69 62.6289 736.115 62.4531C736.544 62.2773 737.033 62.1895 737.58 62.1895C738.083 62.1895 738.534 62.2651 738.935 62.4165C739.34 62.563 739.682 62.7681 739.96 63.0317C740.238 63.2954 740.451 63.6079 740.597 63.9692C740.749 64.3306 740.824 64.7236 740.824 65.1484C740.824 65.4658 740.771 65.7808 740.663 66.0933C740.556 66.4009 740.409 66.7061 740.224 67.0088C740.043 67.3115 739.831 67.6118 739.586 67.9097C739.347 68.2026 739.093 68.4956 738.825 68.7886L735.961 71.894H741.315V73ZM742.831 64.2549C742.831 63.9766 742.873 63.7129 742.956 63.4639C743.043 63.21 743.168 62.9878 743.329 62.7974C743.495 62.6069 743.7 62.458 743.944 62.3506C744.188 62.2383 744.469 62.1821 744.787 62.1821C745.109 62.1821 745.392 62.2383 745.636 62.3506C745.885 62.458 746.09 62.6069 746.251 62.7974C746.417 62.9878 746.542 63.21 746.625 63.4639C746.713 63.7129 746.757 63.9766 746.757 64.2549V64.8188C746.757 65.0972 746.713 65.3608 746.625 65.6099C746.542 65.8589 746.417 66.0786 746.251 66.269C746.09 66.4546 745.888 66.6035 745.644 66.7158C745.399 66.8232 745.119 66.877 744.801 66.877C744.484 66.877 744.201 66.8232 743.952 66.7158C743.708 66.6035 743.502 66.4546 743.336 66.269C743.17 66.0786 743.043 65.8589 742.956 65.6099C742.873 65.3608 742.831 65.0972 742.831 64.8188V64.2549ZM743.842 64.8188C743.842 64.9702 743.859 65.1167 743.893 65.2583C743.927 65.395 743.983 65.5195 744.062 65.6318C744.14 65.7393 744.237 65.8271 744.354 65.8955C744.477 65.959 744.625 65.9907 744.801 65.9907C744.972 65.9907 745.116 65.959 745.233 65.8955C745.355 65.8271 745.453 65.7393 745.526 65.6318C745.6 65.5195 745.653 65.395 745.688 65.2583C745.727 65.1167 745.746 64.9702 745.746 64.8188V64.2549C745.746 64.1035 745.727 63.957 745.688 63.8154C745.653 63.6689 745.597 63.542 745.519 63.4346C745.446 63.3223 745.348 63.2344 745.226 63.1709C745.109 63.1025 744.962 63.0684 744.787 63.0684C744.616 63.0684 744.469 63.1025 744.347 63.1709C744.23 63.2344 744.132 63.3223 744.054 63.4346C743.981 63.542 743.927 63.6689 743.893 63.8154C743.859 63.957 743.842 64.1035 743.842 64.2549V64.8188ZM747.233 70.5244C747.233 70.2461 747.274 69.9824 747.357 69.7334C747.445 69.4844 747.572 69.2646 747.738 69.0742C747.904 68.8838 748.109 68.7349 748.354 68.6274C748.598 68.5151 748.878 68.459 749.196 68.459C749.518 68.459 749.801 68.5151 750.045 68.6274C750.29 68.7349 750.495 68.8838 750.661 69.0742C750.827 69.2646 750.951 69.4844 751.034 69.7334C751.122 69.9824 751.166 70.2461 751.166 70.5244V71.0957C751.166 71.374 751.122 71.6377 751.034 71.8867C750.951 72.1357 750.827 72.3555 750.661 72.5459C750.495 72.7314 750.29 72.8804 750.045 72.9927C749.806 73.1001 749.528 73.1538 749.21 73.1538C748.888 73.1538 748.603 73.1001 748.354 72.9927C748.109 72.8804 747.904 72.7314 747.738 72.5459C747.572 72.3555 747.445 72.1357 747.357 71.8867C747.274 71.6377 747.233 71.374 747.233 71.0957V70.5244ZM748.244 71.0957C748.244 71.2471 748.261 71.3936 748.295 71.5352C748.334 71.6768 748.39 71.8037 748.463 71.916C748.542 72.0234 748.642 72.1113 748.764 72.1797C748.886 72.2432 749.035 72.2749 749.21 72.2749C749.381 72.2749 749.525 72.2432 749.643 72.1797C749.765 72.1113 749.862 72.0234 749.936 71.916C750.009 71.8037 750.062 71.6768 750.097 71.5352C750.131 71.3936 750.148 71.2471 750.148 71.0957V70.5244C750.148 70.373 750.131 70.2266 750.097 70.085C750.062 69.9434 750.006 69.8188 749.928 69.7114C749.855 69.5991 749.757 69.5112 749.635 69.4478C749.513 69.3794 749.367 69.3452 749.196 69.3452C749.02 69.3452 748.871 69.3794 748.749 69.4478C748.632 69.5112 748.534 69.5991 748.456 69.7114C748.383 69.8188 748.329 69.9434 748.295 70.085C748.261 70.2266 748.244 70.373 748.244 70.5244V71.0957ZM745.424 71.623L744.611 71.1689L748.764 63.5737L749.577 64.0278L745.424 71.623Z" fill="black"/>
<circle cx="716.5" cy="90.5" r="7.5" fill="#6CBAFA"/>
<circle cx="716.5" cy="142.5" r="7.5" fill="#6CBAFA"/>
<circle cx="716.5" cy="116.5" r="7.5" fill="#6CBAFA"/>
<circle cx="743.5" cy="90.5" r="7.5" fill="#6CBAFA"/>
<circle cx="741" cy="112" r="3" fill="#6CBAFA"/>
<path d="M976.151 73H974.796V64.0645L972.006 65.1265V63.8887L976.042 62.3359H976.151V73ZM984.201 72.6851C984.201 72.9146 984.171 73.1538 984.113 73.4028C984.059 73.6567 983.976 73.9058 983.864 74.1499C983.756 74.3989 983.625 74.6357 983.468 74.8604C983.312 75.085 983.131 75.2852 982.926 75.4609L982.084 74.9995C982.318 74.6577 982.484 74.2939 982.582 73.9082C982.68 73.5225 982.729 73.1221 982.729 72.707V71.396H984.201V72.6851ZM994.77 62.3286V63.5444H994.652C994.203 63.5444 993.8 63.5908 993.444 63.6836C993.092 63.7764 992.782 63.9033 992.514 64.0645C992.245 64.2256 992.013 64.4185 991.818 64.6431C991.627 64.8628 991.469 65.1045 991.342 65.3682C991.215 65.6318 991.117 65.9077 991.049 66.1958C990.98 66.4839 990.937 66.7769 990.917 67.0747C991.044 66.9233 991.19 66.7842 991.356 66.6572C991.522 66.5254 991.701 66.4131 991.891 66.3203C992.086 66.2227 992.294 66.147 992.514 66.0933C992.738 66.0347 992.973 66.0054 993.217 66.0054C993.749 66.0054 994.208 66.1079 994.594 66.313C994.979 66.5132 995.297 66.7793 995.546 67.1113C995.795 67.4434 995.978 67.8193 996.095 68.2393C996.212 68.6592 996.271 69.0864 996.271 69.521C996.271 70.019 996.2 70.4878 996.059 70.9272C995.922 71.3667 995.714 71.7524 995.436 72.0845C995.158 72.4116 994.811 72.6704 994.396 72.8608C993.986 73.0513 993.51 73.1465 992.968 73.1465C992.582 73.1465 992.228 73.0903 991.906 72.978C991.588 72.8657 991.303 72.7144 991.049 72.5239C990.795 72.3286 990.573 72.0991 990.382 71.8354C990.192 71.5718 990.033 71.2886 989.906 70.9858C989.784 70.6831 989.691 70.3682 989.628 70.041C989.564 69.7139 989.533 69.3867 989.533 69.0596V68.4224C989.533 67.9341 989.562 67.4458 989.621 66.9575C989.684 66.4644 989.789 65.9932 989.936 65.5439C990.082 65.0947 990.28 64.6748 990.529 64.2842C990.778 63.8887 991.09 63.5469 991.466 63.2588C991.847 62.9707 992.299 62.7437 992.821 62.5776C993.344 62.4116 993.954 62.3286 994.652 62.3286H994.77ZM992.997 67.1333C992.768 67.1333 992.545 67.1699 992.331 67.2432C992.116 67.3164 991.916 67.4189 991.73 67.5508C991.544 67.6826 991.381 67.8413 991.239 68.0269C991.098 68.2124 990.985 68.4175 990.902 68.6421V69.0962C990.902 69.5649 990.958 69.9824 991.071 70.3486C991.183 70.71 991.334 71.0151 991.525 71.2642C991.715 71.5132 991.935 71.7036 992.184 71.8354C992.433 71.9624 992.694 72.0259 992.968 72.0259C993.285 72.0259 993.566 71.9648 993.81 71.8428C994.054 71.7207 994.259 71.5522 994.425 71.3374C994.596 71.1226 994.723 70.8662 994.806 70.5684C994.894 70.2656 994.938 69.9385 994.938 69.5869C994.938 69.2744 994.899 68.9717 994.821 68.6787C994.743 68.3809 994.623 68.1172 994.462 67.8877C994.301 67.6582 994.098 67.4751 993.854 67.3384C993.61 67.2017 993.324 67.1333 992.997 67.1333ZM997.831 64.2549C997.831 63.9766 997.873 63.7129 997.956 63.4639C998.043 63.21 998.168 62.9878 998.329 62.7974C998.495 62.6069 998.7 62.458 998.944 62.3506C999.188 62.2383 999.469 62.1821 999.787 62.1821C1000.11 62.1821 1000.39 62.2383 1000.64 62.3506C1000.89 62.458 1001.09 62.6069 1001.25 62.7974C1001.42 62.9878 1001.54 63.21 1001.62 63.4639C1001.71 63.7129 1001.76 63.9766 1001.76 64.2549V64.8188C1001.76 65.0972 1001.71 65.3608 1001.62 65.6099C1001.54 65.8589 1001.42 66.0786 1001.25 66.269C1001.09 66.4546 1000.89 66.6035 1000.64 66.7158C1000.4 66.8232 1000.12 66.877 999.801 66.877C999.484 66.877 999.201 66.8232 998.952 66.7158C998.708 66.6035 998.502 66.4546 998.336 66.269C998.17 66.0786 998.043 65.8589 997.956 65.6099C997.873 65.3608 997.831 65.0972 997.831 64.8188V64.2549ZM998.842 64.8188C998.842 64.9702 998.859 65.1167 998.893 65.2583C998.927 65.395 998.983 65.5195 999.062 65.6318C999.14 65.7393 999.237 65.8271 999.354 65.8955C999.477 65.959 999.625 65.9907 999.801 65.9907C999.972 65.9907 1000.12 65.959 1000.23 65.8955C1000.36 65.8271 1000.45 65.7393 1000.53 65.6318C1000.6 65.5195 1000.65 65.395 1000.69 65.2583C1000.73 65.1167 1000.75 64.9702 1000.75 64.8188V64.2549C1000.75 64.1035 1000.73 63.957 1000.69 63.8154C1000.65 63.6689 1000.6 63.542 1000.52 63.4346C1000.45 63.3223 1000.35 63.2344 1000.23 63.1709C1000.11 63.1025 999.962 63.0684 999.787 63.0684C999.616 63.0684 999.469 63.1025 999.347 63.1709C999.23 63.2344 999.132 63.3223 999.054 63.4346C998.981 63.542 998.927 63.6689 998.893 63.8154C998.859 63.957 998.842 64.1035 998.842 64.2549V64.8188ZM1002.23 70.5244C1002.23 70.2461 1002.27 69.9824 1002.36 69.7334C1002.45 69.4844 1002.57 69.2646 1002.74 69.0742C1002.9 68.8838 1003.11 68.7349 1003.35 68.6274C1003.6 68.5151 1003.88 68.459 1004.2 68.459C1004.52 68.459 1004.8 68.5151 1005.05 68.6274C1005.29 68.7349 1005.49 68.8838 1005.66 69.0742C1005.83 69.2646 1005.95 69.4844 1006.03 69.7334C1006.12 69.9824 1006.17 70.2461 1006.17 70.5244V71.0957C1006.17 71.374 1006.12 71.6377 1006.03 71.8867C1005.95 72.1357 1005.83 72.3555 1005.66 72.5459C1005.49 72.7314 1005.29 72.8804 1005.05 72.9927C1004.81 73.1001 1004.53 73.1538 1004.21 73.1538C1003.89 73.1538 1003.6 73.1001 1003.35 72.9927C1003.11 72.8804 1002.9 72.7314 1002.74 72.5459C1002.57 72.3555 1002.45 72.1357 1002.36 71.8867C1002.27 71.6377 1002.23 71.374 1002.23 71.0957V70.5244ZM1003.24 71.0957C1003.24 71.2471 1003.26 71.3936 1003.29 71.5352C1003.33 71.6768 1003.39 71.8037 1003.46 71.916C1003.54 72.0234 1003.64 72.1113 1003.76 72.1797C1003.89 72.2432 1004.03 72.2749 1004.21 72.2749C1004.38 72.2749 1004.53 72.2432 1004.64 72.1797C1004.76 72.1113 1004.86 72.0234 1004.94 71.916C1005.01 71.8037 1005.06 71.6768 1005.1 71.5352C1005.13 71.3936 1005.15 71.2471 1005.15 71.0957V70.5244C1005.15 70.373 1005.13 70.2266 1005.1 70.085C1005.06 69.9434 1005.01 69.8188 1004.93 69.7114C1004.85 69.5991 1004.76 69.5112 1004.64 69.4478C1004.51 69.3794 1004.37 69.3452 1004.2 69.3452C1004.02 69.3452 1003.87 69.3794 1003.75 69.4478C1003.63 69.5112 1003.53 69.5991 1003.46 69.7114C1003.38 69.8188 1003.33 69.9434 1003.29 70.085C1003.26 70.2266 1003.24 70.373 1003.24 70.5244V71.0957ZM1000.42 71.623L999.611 71.1689L1003.76 63.5737L1004.58 64.0278L1000.42 71.623Z" fill="black"/>
<circle cx="983.5" cy="90.5" r="7.5" fill="#FBC800"/>
<circle cx="983.5" cy="113.5" r="4.5" fill="#FBC800"/>
<path d="M478.754 260.723V265H477.399V254.336H480.856C481.334 254.346 481.786 254.421 482.211 254.563C482.641 254.705 483.017 254.91 483.339 255.178C483.661 255.447 483.915 255.779 484.101 256.174C484.291 256.57 484.386 257.024 484.386 257.537C484.386 258.049 484.291 258.503 484.101 258.899C483.915 259.29 483.661 259.619 483.339 259.888C483.017 260.156 482.641 260.361 482.211 260.503C481.786 260.645 481.334 260.718 480.856 260.723H478.754ZM478.754 259.609H480.856C481.168 259.604 481.457 259.556 481.72 259.463C481.984 259.365 482.213 259.229 482.409 259.053C482.604 258.877 482.755 258.665 482.863 258.416C482.975 258.162 483.031 257.874 483.031 257.551C483.031 257.229 482.975 256.938 482.863 256.68C482.755 256.421 482.604 256.201 482.409 256.021C482.218 255.84 481.989 255.701 481.72 255.603C481.457 255.505 481.168 255.454 480.856 255.449H478.754V259.609ZM489.784 265.146C489.228 265.146 488.715 265.051 488.246 264.861C487.782 264.67 487.384 264.404 487.052 264.062C486.72 263.721 486.461 263.315 486.276 262.847C486.09 262.378 485.998 261.868 485.998 261.316V261.008C485.998 260.369 486.1 259.797 486.305 259.294C486.51 258.787 486.781 258.359 487.118 258.013C487.46 257.661 487.846 257.393 488.275 257.207C488.71 257.021 489.154 256.929 489.608 256.929C490.18 256.929 490.678 257.029 491.103 257.229C491.532 257.424 491.889 257.698 492.172 258.049C492.455 258.396 492.665 258.806 492.802 259.28C492.943 259.753 493.014 260.266 493.014 260.818V261.426H487.353C487.367 261.787 487.436 262.126 487.558 262.444C487.685 262.761 487.855 263.04 488.07 263.279C488.29 263.513 488.551 263.699 488.854 263.835C489.157 263.972 489.491 264.041 489.857 264.041C490.341 264.041 490.771 263.943 491.146 263.748C491.522 263.552 491.835 263.293 492.084 262.971L492.912 263.616C492.78 263.816 492.614 264.009 492.414 264.194C492.218 264.375 491.991 264.536 491.732 264.678C491.474 264.819 491.181 264.932 490.854 265.015C490.526 265.103 490.17 265.146 489.784 265.146ZM489.608 258.042C489.335 258.042 489.076 258.093 488.832 258.196C488.588 258.293 488.368 258.44 488.173 258.635C487.978 258.826 487.812 259.062 487.675 259.346C487.543 259.624 487.45 259.946 487.396 260.312H491.659V260.21C491.645 259.946 491.593 259.685 491.505 259.426C491.422 259.167 491.298 258.936 491.132 258.73C490.966 258.525 490.756 258.359 490.502 258.232C490.253 258.105 489.955 258.042 489.608 258.042ZM500.485 256.929C500.612 256.929 500.744 256.934 500.88 256.943C501.017 256.948 501.146 256.96 501.269 256.98C501.396 256.995 501.51 257.014 501.613 257.039C501.72 257.063 501.808 257.09 501.876 257.119L501.693 258.445C501.43 258.386 501.178 258.345 500.939 258.32C500.705 258.291 500.458 258.276 500.199 258.276C499.564 258.276 499.049 258.42 498.654 258.708C498.263 258.997 497.975 259.399 497.79 259.917V265H496.427V257.075H497.716L497.782 258.335C498.104 257.9 498.49 257.559 498.939 257.31C499.394 257.056 499.909 256.929 500.485 256.929ZM507.677 264.048C507.921 264.048 508.158 264.009 508.388 263.931C508.622 263.853 508.83 263.745 509.01 263.608C509.191 263.467 509.335 263.303 509.442 263.118C509.555 262.927 509.613 262.722 509.618 262.502H510.9C510.895 262.854 510.802 263.191 510.622 263.513C510.446 263.831 510.209 264.111 509.911 264.355C509.613 264.595 509.271 264.788 508.886 264.934C508.5 265.076 508.097 265.146 507.677 265.146C507.077 265.146 506.552 265.039 506.103 264.824C505.653 264.609 505.277 264.321 504.975 263.96C504.677 263.594 504.452 263.174 504.301 262.7C504.149 262.222 504.074 261.719 504.074 261.191V260.884C504.074 260.361 504.149 259.861 504.301 259.382C504.452 258.904 504.677 258.484 504.975 258.123C505.277 257.756 505.653 257.466 506.103 257.251C506.552 257.036 507.077 256.929 507.677 256.929C508.146 256.929 508.576 257.004 508.966 257.156C509.362 257.302 509.701 257.505 509.984 257.764C510.272 258.018 510.497 258.32 510.658 258.672C510.819 259.023 510.9 259.399 510.9 259.8H509.618C509.613 259.561 509.56 259.336 509.457 259.126C509.359 258.911 509.225 258.723 509.054 258.562C508.883 258.401 508.678 258.274 508.439 258.181C508.205 258.088 507.951 258.042 507.677 258.042C507.257 258.042 506.903 258.127 506.615 258.298C506.332 258.464 506.103 258.684 505.927 258.958C505.751 259.226 505.624 259.529 505.546 259.866C505.473 260.203 505.436 260.542 505.436 260.884V261.191C505.436 261.538 505.473 261.882 505.546 262.224C505.624 262.561 505.749 262.866 505.919 263.14C506.095 263.408 506.325 263.628 506.608 263.799C506.896 263.965 507.252 264.048 507.677 264.048ZM516.811 265.146C516.254 265.146 515.741 265.051 515.272 264.861C514.809 264.67 514.411 264.404 514.079 264.062C513.747 263.721 513.488 263.315 513.302 262.847C513.117 262.378 513.024 261.868 513.024 261.316V261.008C513.024 260.369 513.126 259.797 513.332 259.294C513.537 258.787 513.808 258.359 514.145 258.013C514.486 257.661 514.872 257.393 515.302 257.207C515.736 257.021 516.181 256.929 516.635 256.929C517.206 256.929 517.704 257.029 518.129 257.229C518.559 257.424 518.915 257.698 519.198 258.049C519.481 258.396 519.691 258.806 519.828 259.28C519.97 259.753 520.041 260.266 520.041 260.818V261.426H514.379C514.394 261.787 514.462 262.126 514.584 262.444C514.711 262.761 514.882 263.04 515.097 263.279C515.316 263.513 515.578 263.699 515.88 263.835C516.183 263.972 516.518 264.041 516.884 264.041C517.367 264.041 517.797 263.943 518.173 263.748C518.549 263.552 518.861 263.293 519.11 262.971L519.938 263.616C519.806 263.816 519.64 264.009 519.44 264.194C519.245 264.375 519.018 264.536 518.759 264.678C518.5 264.819 518.207 264.932 517.88 265.015C517.553 265.103 517.196 265.146 516.811 265.146ZM516.635 258.042C516.361 258.042 516.103 258.093 515.858 258.196C515.614 258.293 515.395 258.44 515.199 258.635C515.004 258.826 514.838 259.062 514.701 259.346C514.569 259.624 514.477 259.946 514.423 260.312H518.686V260.21C518.671 259.946 518.62 259.685 518.532 259.426C518.449 259.167 518.324 258.936 518.158 258.73C517.992 258.525 517.782 258.359 517.528 258.232C517.279 258.105 516.981 258.042 516.635 258.042ZM523.534 257.075L523.629 258.247C523.917 257.837 524.271 257.517 524.691 257.288C525.111 257.053 525.58 256.934 526.098 256.929C526.513 256.929 526.889 256.987 527.226 257.104C527.567 257.222 527.858 257.405 528.097 257.654C528.336 257.903 528.52 258.22 528.646 258.606C528.778 258.987 528.844 259.441 528.844 259.968V265H527.489V259.998C527.489 259.646 527.45 259.348 527.372 259.104C527.294 258.86 527.177 258.662 527.021 258.511C526.869 258.359 526.681 258.25 526.457 258.181C526.237 258.113 525.983 258.079 525.695 258.079C525.241 258.079 524.84 258.193 524.494 258.423C524.152 258.647 523.878 258.945 523.673 259.316V265H522.318V257.075H523.534ZM534.535 255.156V257.075H537.553V258.123H534.535V262.429C534.535 262.737 534.574 262.991 534.652 263.191C534.73 263.391 534.838 263.552 534.975 263.674C535.111 263.792 535.268 263.875 535.443 263.923C535.624 263.972 535.814 263.997 536.015 263.997C536.161 263.997 536.312 263.989 536.469 263.975C536.625 263.955 536.776 263.933 536.923 263.909C537.074 263.884 537.213 263.86 537.34 263.835C537.472 263.806 537.58 263.782 537.663 263.762L537.853 264.722C537.741 264.79 537.604 264.851 537.443 264.905C537.282 264.954 537.106 264.995 536.916 265.029C536.725 265.068 536.522 265.098 536.308 265.117C536.098 265.137 535.888 265.146 535.678 265.146C535.326 265.146 534.997 265.098 534.689 265C534.386 264.897 534.123 264.739 533.898 264.524C533.673 264.304 533.495 264.023 533.363 263.682C533.236 263.335 533.173 262.917 533.173 262.429V258.123H531.093V257.075H533.173V255.156H534.535ZM545.543 265C545.49 264.897 545.446 264.771 545.412 264.619C545.382 264.463 545.36 264.302 545.346 264.136C545.209 264.272 545.055 264.402 544.884 264.524C544.718 264.646 544.533 264.753 544.328 264.846C544.127 264.939 543.913 265.012 543.683 265.066C543.454 265.12 543.209 265.146 542.951 265.146C542.531 265.146 542.15 265.085 541.808 264.963C541.471 264.841 541.183 264.678 540.944 264.473C540.709 264.263 540.526 264.016 540.395 263.733C540.268 263.445 540.204 263.135 540.204 262.803C540.204 262.368 540.29 261.987 540.46 261.66C540.636 261.333 540.883 261.062 541.2 260.847C541.518 260.627 541.898 260.464 542.343 260.356C542.792 260.249 543.292 260.195 543.844 260.195H545.324V259.573C545.324 259.333 545.28 259.119 545.192 258.928C545.104 258.738 544.979 258.577 544.818 258.445C544.657 258.308 544.459 258.203 544.225 258.13C543.996 258.057 543.737 258.02 543.449 258.02C543.18 258.02 542.938 258.054 542.724 258.123C542.514 258.191 542.335 258.281 542.189 258.394C542.042 258.506 541.928 258.64 541.845 258.796C541.767 258.948 541.728 259.106 541.728 259.272H540.365C540.37 258.984 540.443 258.701 540.585 258.423C540.731 258.145 540.939 257.896 541.208 257.676C541.481 257.451 541.811 257.271 542.196 257.134C542.587 256.997 543.029 256.929 543.522 256.929C543.971 256.929 544.389 256.985 544.774 257.097C545.16 257.205 545.492 257.371 545.771 257.595C546.054 257.815 546.276 258.091 546.437 258.423C546.598 258.755 546.679 259.143 546.679 259.587V263.271C546.679 263.535 546.703 263.816 546.752 264.114C546.801 264.407 546.869 264.663 546.957 264.883V265H545.543ZM543.148 263.967C543.412 263.967 543.659 263.933 543.888 263.865C544.118 263.796 544.325 263.706 544.511 263.594C544.701 263.481 544.865 263.354 545.001 263.213C545.138 263.066 545.246 262.915 545.324 262.759V261.155H544.064C543.273 261.155 542.658 261.272 542.218 261.506C541.779 261.741 541.559 262.109 541.559 262.612C541.559 262.808 541.591 262.988 541.654 263.154C541.723 263.32 541.823 263.464 541.955 263.586C542.086 263.704 542.252 263.796 542.453 263.865C542.653 263.933 542.885 263.967 543.148 263.967ZM549.096 260.972C549.096 260.381 549.167 259.839 549.308 259.346C549.455 258.848 549.665 258.42 549.938 258.064C550.211 257.708 550.543 257.429 550.934 257.229C551.325 257.029 551.767 256.929 552.26 256.929C552.748 256.929 553.175 257.017 553.542 257.192C553.913 257.363 554.228 257.612 554.486 257.939L554.552 257.075H555.783V264.832C555.783 265.354 555.7 265.818 555.534 266.223C555.373 266.628 555.143 266.973 554.845 267.256C554.552 267.539 554.201 267.754 553.791 267.9C553.38 268.047 552.926 268.12 552.428 268.12C552.223 268.12 551.989 268.096 551.725 268.047C551.461 268.003 551.193 267.927 550.919 267.82C550.651 267.717 550.39 267.578 550.136 267.402C549.887 267.227 549.672 267.009 549.491 266.75L550.194 265.938C550.36 266.138 550.531 266.306 550.707 266.443C550.883 266.584 551.061 266.697 551.242 266.78C551.422 266.863 551.603 266.921 551.784 266.956C551.964 266.995 552.145 267.014 552.326 267.014C552.648 267.014 552.938 266.968 553.197 266.875C553.456 266.782 553.676 266.646 553.856 266.465C554.042 266.289 554.184 266.069 554.281 265.806C554.379 265.542 554.428 265.239 554.428 264.897V264.216C554.164 264.519 553.852 264.751 553.49 264.912C553.134 265.068 552.719 265.146 552.245 265.146C551.762 265.146 551.325 265.044 550.934 264.839C550.543 264.634 550.211 264.351 549.938 263.989C549.669 263.628 549.462 263.203 549.315 262.715C549.169 262.222 549.096 261.692 549.096 261.125V260.972ZM550.451 261.125C550.451 261.511 550.49 261.877 550.568 262.224C550.651 262.571 550.778 262.876 550.949 263.14C551.125 263.403 551.347 263.613 551.615 263.77C551.884 263.921 552.206 263.997 552.582 263.997C552.816 263.997 553.026 263.97 553.212 263.916C553.402 263.857 553.571 263.777 553.717 263.674C553.869 263.572 554.003 263.45 554.12 263.308C554.237 263.167 554.34 263.01 554.428 262.839V259.207C554.34 259.041 554.237 258.889 554.12 258.752C554.003 258.616 553.869 258.499 553.717 258.401C553.566 258.298 553.397 258.22 553.212 258.167C553.026 258.108 552.821 258.079 552.597 258.079C552.216 258.079 551.889 258.157 551.615 258.313C551.347 258.469 551.125 258.682 550.949 258.95C550.778 259.214 550.651 259.521 550.568 259.873C550.49 260.22 550.451 260.586 550.451 260.972V261.125ZM561.854 265.146C561.298 265.146 560.785 265.051 560.316 264.861C559.853 264.67 559.455 264.404 559.123 264.062C558.791 263.721 558.532 263.315 558.346 262.847C558.161 262.378 558.068 261.868 558.068 261.316V261.008C558.068 260.369 558.17 259.797 558.375 259.294C558.581 258.787 558.852 258.359 559.188 258.013C559.53 257.661 559.916 257.393 560.346 257.207C560.78 257.021 561.225 256.929 561.679 256.929C562.25 256.929 562.748 257.029 563.173 257.229C563.603 257.424 563.959 257.698 564.242 258.049C564.525 258.396 564.735 258.806 564.872 259.28C565.014 259.753 565.084 260.266 565.084 260.818V261.426H559.423C559.438 261.787 559.506 262.126 559.628 262.444C559.755 262.761 559.926 263.04 560.141 263.279C560.36 263.513 560.622 263.699 560.924 263.835C561.227 263.972 561.562 264.041 561.928 264.041C562.411 264.041 562.841 263.943 563.217 263.748C563.593 263.552 563.905 263.293 564.154 262.971L564.982 263.616C564.85 263.816 564.684 264.009 564.484 264.194C564.289 264.375 564.062 264.536 563.803 264.678C563.544 264.819 563.251 264.932 562.924 265.015C562.597 265.103 562.24 265.146 561.854 265.146ZM561.679 258.042C561.405 258.042 561.146 258.093 560.902 258.196C560.658 258.293 560.438 258.44 560.243 258.635C560.048 258.826 559.882 259.062 559.745 259.346C559.613 259.624 559.521 259.946 559.467 260.312H563.729V260.21C563.715 259.946 563.664 259.685 563.576 259.426C563.493 259.167 563.368 258.936 563.202 258.73C563.036 258.525 562.826 258.359 562.572 258.232C562.323 258.105 562.025 258.042 561.679 258.042ZM575.99 260.964C575.99 260.393 576.073 259.863 576.239 259.375C576.405 258.882 576.642 258.455 576.95 258.093C577.262 257.732 577.641 257.449 578.085 257.244C578.529 257.034 579.03 256.929 579.586 256.929C580.148 256.929 580.651 257.034 581.095 257.244C581.544 257.449 581.923 257.732 582.23 258.093C582.543 258.455 582.782 258.882 582.948 259.375C583.114 259.863 583.197 260.393 583.197 260.964V261.125C583.197 261.697 583.114 262.227 582.948 262.715C582.782 263.203 582.543 263.628 582.23 263.989C581.923 264.351 581.547 264.634 581.103 264.839C580.658 265.044 580.158 265.146 579.601 265.146C579.04 265.146 578.534 265.044 578.085 264.839C577.641 264.634 577.262 264.351 576.95 263.989C576.642 263.628 576.405 263.203 576.239 262.715C576.073 262.227 575.99 261.697 575.99 261.125V260.964ZM577.345 261.125C577.345 261.516 577.392 261.89 577.484 262.246C577.577 262.598 577.716 262.908 577.902 263.176C578.092 263.445 578.329 263.657 578.612 263.813C578.896 263.97 579.225 264.048 579.601 264.048C579.972 264.048 580.297 263.97 580.575 263.813C580.858 263.657 581.093 263.445 581.278 263.176C581.469 262.908 581.61 262.598 581.703 262.246C581.796 261.89 581.842 261.516 581.842 261.125V260.964C581.842 260.579 581.793 260.21 581.696 259.858C581.603 259.502 581.461 259.189 581.271 258.921C581.085 258.652 580.851 258.44 580.568 258.284C580.29 258.123 579.962 258.042 579.586 258.042C579.21 258.042 578.883 258.123 578.605 258.284C578.327 258.44 578.092 258.652 577.902 258.921C577.716 259.189 577.577 259.502 577.484 259.858C577.392 260.21 577.345 260.579 577.345 260.964V261.125ZM587.401 265V258.123H585.219V257.075H587.401V256.519C587.401 256.011 587.475 255.566 587.621 255.186C587.772 254.8 587.982 254.478 588.251 254.219C588.524 253.96 588.852 253.765 589.232 253.633C589.613 253.501 590.038 253.435 590.507 253.435C590.829 253.435 591.142 253.462 591.444 253.516C591.752 253.569 592.067 253.638 592.389 253.721L592.228 254.841C592.028 254.773 591.793 254.714 591.525 254.666C591.261 254.612 590.978 254.585 590.675 254.585C590.041 254.59 589.562 254.751 589.24 255.068C588.922 255.386 588.764 255.869 588.764 256.519V257.075H591.818V258.123H588.764V265H587.401ZM603.148 260.972C603.148 260.381 603.219 259.839 603.361 259.346C603.507 258.848 603.717 258.42 603.991 258.064C604.264 257.708 604.596 257.429 604.987 257.229C605.377 257.029 605.819 256.929 606.312 256.929C606.801 256.929 607.228 257.017 607.594 257.192C607.965 257.363 608.28 257.612 608.539 257.939L608.605 257.075H609.835V264.832C609.835 265.354 609.752 265.818 609.586 266.223C609.425 266.628 609.196 266.973 608.898 267.256C608.605 267.539 608.253 267.754 607.843 267.9C607.433 268.047 606.979 268.12 606.481 268.12C606.276 268.12 606.042 268.096 605.778 268.047C605.514 268.003 605.246 267.927 604.972 267.82C604.704 267.717 604.442 267.578 604.188 267.402C603.939 267.227 603.725 267.009 603.544 266.75L604.247 265.938C604.413 266.138 604.584 266.306 604.76 266.443C604.936 266.584 605.114 266.697 605.294 266.78C605.475 266.863 605.656 266.921 605.836 266.956C606.017 266.995 606.198 267.014 606.378 267.014C606.701 267.014 606.991 266.968 607.25 266.875C607.509 266.782 607.729 266.646 607.909 266.465C608.095 266.289 608.236 266.069 608.334 265.806C608.432 265.542 608.48 265.239 608.48 264.897V264.216C608.217 264.519 607.904 264.751 607.543 264.912C607.187 265.068 606.771 265.146 606.298 265.146C605.814 265.146 605.377 265.044 604.987 264.839C604.596 264.634 604.264 264.351 603.991 263.989C603.722 263.628 603.515 263.203 603.368 262.715C603.222 262.222 603.148 261.692 603.148 261.125V260.972ZM604.503 261.125C604.503 261.511 604.542 261.877 604.621 262.224C604.704 262.571 604.831 262.876 605.001 263.14C605.177 263.403 605.399 263.613 605.668 263.77C605.937 263.921 606.259 263.997 606.635 263.997C606.869 263.997 607.079 263.97 607.265 263.916C607.455 263.857 607.624 263.777 607.77 263.674C607.921 263.572 608.056 263.45 608.173 263.308C608.29 263.167 608.393 263.01 608.48 262.839V259.207C608.393 259.041 608.29 258.889 608.173 258.752C608.056 258.616 607.921 258.499 607.77 258.401C607.619 258.298 607.45 258.22 607.265 258.167C607.079 258.108 606.874 258.079 606.649 258.079C606.269 258.079 605.941 258.157 605.668 258.313C605.399 258.469 605.177 258.682 605.001 258.95C604.831 259.214 604.704 259.521 604.621 259.873C604.542 260.22 604.503 260.586 604.503 260.972V261.125ZM617.599 256.929C617.726 256.929 617.858 256.934 617.995 256.943C618.131 256.948 618.261 256.96 618.383 256.98C618.51 256.995 618.625 257.014 618.727 257.039C618.834 257.063 618.922 257.09 618.991 257.119L618.808 258.445C618.544 258.386 618.292 258.345 618.053 258.32C617.819 258.291 617.572 258.276 617.313 258.276C616.679 258.276 616.164 258.42 615.768 258.708C615.377 258.997 615.089 259.399 614.904 259.917V265H613.542V257.075H614.831L614.896 258.335C615.219 257.9 615.604 257.559 616.054 257.31C616.508 257.056 617.023 256.929 617.599 256.929ZM624.916 265.146C624.359 265.146 623.847 265.051 623.378 264.861C622.914 264.67 622.516 264.404 622.184 264.062C621.852 263.721 621.593 263.315 621.408 262.847C621.222 262.378 621.129 261.868 621.129 261.316V261.008C621.129 260.369 621.232 259.797 621.437 259.294C621.642 258.787 621.913 258.359 622.25 258.013C622.592 257.661 622.978 257.393 623.407 257.207C623.842 257.021 624.286 256.929 624.74 256.929C625.312 256.929 625.81 257.029 626.234 257.229C626.664 257.424 627.021 257.698 627.304 258.049C627.587 258.396 627.797 258.806 627.934 259.28C628.075 259.753 628.146 260.266 628.146 260.818V261.426H622.484C622.499 261.787 622.567 262.126 622.689 262.444C622.816 262.761 622.987 263.04 623.202 263.279C623.422 263.513 623.683 263.699 623.986 263.835C624.289 263.972 624.623 264.041 624.989 264.041C625.473 264.041 625.902 263.943 626.278 263.748C626.654 263.552 626.967 263.293 627.216 262.971L628.043 263.616C627.912 263.816 627.746 264.009 627.545 264.194C627.35 264.375 627.123 264.536 626.864 264.678C626.605 264.819 626.312 264.932 625.985 265.015C625.658 265.103 625.302 265.146 624.916 265.146ZM624.74 258.042C624.467 258.042 624.208 258.093 623.964 258.196C623.72 258.293 623.5 258.44 623.305 258.635C623.109 258.826 622.943 259.062 622.807 259.346C622.675 259.624 622.582 259.946 622.528 260.312H626.791V260.21C626.776 259.946 626.725 259.685 626.637 259.426C626.554 259.167 626.43 258.936 626.264 258.73C626.098 258.525 625.888 258.359 625.634 258.232C625.385 258.105 625.087 258.042 624.74 258.042ZM633.925 265.146C633.368 265.146 632.855 265.051 632.387 264.861C631.923 264.67 631.525 264.404 631.193 264.062C630.861 263.721 630.602 263.315 630.417 262.847C630.231 262.378 630.138 261.868 630.138 261.316V261.008C630.138 260.369 630.241 259.797 630.446 259.294C630.651 258.787 630.922 258.359 631.259 258.013C631.601 257.661 631.986 257.393 632.416 257.207C632.851 257.021 633.295 256.929 633.749 256.929C634.32 256.929 634.818 257.029 635.243 257.229C635.673 257.424 636.029 257.698 636.312 258.049C636.596 258.396 636.806 258.806 636.942 259.28C637.084 259.753 637.155 260.266 637.155 260.818V261.426H631.493C631.508 261.787 631.576 262.126 631.698 262.444C631.825 262.761 631.996 263.04 632.211 263.279C632.431 263.513 632.692 263.699 632.995 263.835C633.297 263.972 633.632 264.041 633.998 264.041C634.481 264.041 634.911 263.943 635.287 263.748C635.663 263.552 635.976 263.293 636.225 262.971L637.052 263.616C636.92 263.816 636.754 264.009 636.554 264.194C636.359 264.375 636.132 264.536 635.873 264.678C635.614 264.819 635.321 264.932 634.994 265.015C634.667 265.103 634.311 265.146 633.925 265.146ZM633.749 258.042C633.476 258.042 633.217 258.093 632.973 258.196C632.729 258.293 632.509 258.44 632.313 258.635C632.118 258.826 631.952 259.062 631.815 259.346C631.684 259.624 631.591 259.946 631.537 260.312H635.8V260.21C635.785 259.946 635.734 259.685 635.646 259.426C635.563 259.167 635.438 258.936 635.272 258.73C635.106 258.525 634.896 258.359 634.643 258.232C634.394 258.105 634.096 258.042 633.749 258.042ZM640.648 257.075L640.744 258.247C641.032 257.837 641.386 257.517 641.806 257.288C642.226 257.053 642.694 256.934 643.212 256.929C643.627 256.929 644.003 256.987 644.34 257.104C644.682 257.222 644.972 257.405 645.211 257.654C645.451 257.903 645.634 258.22 645.761 258.606C645.893 258.987 645.958 259.441 645.958 259.968V265H644.604V259.998C644.604 259.646 644.564 259.348 644.486 259.104C644.408 258.86 644.291 258.662 644.135 258.511C643.983 258.359 643.795 258.25 643.571 258.181C643.351 258.113 643.097 258.079 642.809 258.079C642.355 258.079 641.955 258.193 641.608 258.423C641.266 258.647 640.993 258.945 640.788 259.316V265H639.433V257.075H640.648ZM649.796 258.254C650.08 257.839 650.429 257.517 650.844 257.288C651.259 257.053 651.725 256.934 652.243 256.929C652.658 256.929 653.034 256.99 653.371 257.112C653.712 257.229 654.003 257.415 654.242 257.668C654.481 257.922 654.665 258.245 654.792 258.635C654.923 259.021 654.989 259.48 654.989 260.012V265H653.634V259.998C653.634 259.348 653.478 258.865 653.166 258.547C652.858 258.23 652.416 258.074 651.84 258.079C651.405 258.079 651.01 258.186 650.653 258.401C650.302 258.611 650.016 258.892 649.796 259.243V265H648.441V253.75H649.796V258.254ZM657.069 260.964C657.069 260.393 657.152 259.863 657.318 259.375C657.484 258.882 657.721 258.455 658.029 258.093C658.341 257.732 658.72 257.449 659.164 257.244C659.608 257.034 660.109 256.929 660.666 256.929C661.227 256.929 661.73 257.034 662.174 257.244C662.624 257.449 663.002 257.732 663.31 258.093C663.622 258.455 663.861 258.882 664.027 259.375C664.193 259.863 664.276 260.393 664.276 260.964V261.125C664.276 261.697 664.193 262.227 664.027 262.715C663.861 263.203 663.622 263.628 663.31 263.989C663.002 264.351 662.626 264.634 662.182 264.839C661.737 265.044 661.237 265.146 660.68 265.146C660.119 265.146 659.613 265.044 659.164 264.839C658.72 264.634 658.341 264.351 658.029 263.989C657.721 263.628 657.484 263.203 657.318 262.715C657.152 262.227 657.069 261.697 657.069 261.125V260.964ZM658.424 261.125C658.424 261.516 658.471 261.89 658.563 262.246C658.656 262.598 658.795 262.908 658.981 263.176C659.171 263.445 659.408 263.657 659.691 263.813C659.975 263.97 660.304 264.048 660.68 264.048C661.051 264.048 661.376 263.97 661.654 263.813C661.938 263.657 662.172 263.445 662.357 263.176C662.548 262.908 662.689 262.598 662.782 262.246C662.875 261.89 662.921 261.516 662.921 261.125V260.964C662.921 260.579 662.873 260.21 662.775 259.858C662.682 259.502 662.541 259.189 662.35 258.921C662.165 258.652 661.93 258.44 661.647 258.284C661.369 258.123 661.042 258.042 660.666 258.042C660.29 258.042 659.962 258.123 659.684 258.284C659.406 258.44 659.171 258.652 658.981 258.921C658.795 259.189 658.656 259.502 658.563 259.858C658.471 260.21 658.424 260.579 658.424 260.964V261.125ZM671.601 263.909C671.337 264.299 671.007 264.604 670.612 264.824C670.216 265.039 669.76 265.146 669.242 265.146C668.827 265.146 668.451 265.083 668.114 264.956C667.777 264.824 667.489 264.622 667.25 264.348C667.011 264.075 666.825 263.728 666.693 263.308C666.566 262.883 666.503 262.375 666.503 261.785V257.075H667.858V261.799C667.858 262.229 667.892 262.585 667.96 262.869C668.029 263.152 668.131 263.379 668.268 263.55C668.405 263.716 668.571 263.833 668.766 263.901C668.966 263.97 669.196 264.004 669.455 264.004C670.006 264.004 670.451 263.892 670.788 263.667C671.129 263.442 671.383 263.14 671.549 262.759V257.075H672.912V265H671.681L671.601 263.909ZM680.734 262.898C680.734 262.737 680.702 262.593 680.639 262.466C680.575 262.334 680.468 262.214 680.316 262.107C680.165 262 679.965 261.902 679.716 261.814C679.467 261.721 679.157 261.638 678.786 261.565C678.332 261.472 677.917 261.36 677.541 261.228C677.169 261.096 676.85 260.94 676.581 260.759C676.317 260.574 676.112 260.359 675.966 260.115C675.819 259.866 675.746 259.578 675.746 259.25C675.746 258.928 675.822 258.628 675.973 258.35C676.125 258.066 676.337 257.82 676.61 257.61C676.884 257.4 677.208 257.234 677.584 257.112C677.965 256.99 678.383 256.929 678.837 256.929C679.325 256.929 679.765 256.992 680.155 257.119C680.546 257.246 680.878 257.422 681.151 257.646C681.425 257.871 681.635 258.135 681.781 258.438C681.933 258.735 682.008 259.058 682.008 259.404H680.653C680.653 259.233 680.609 259.067 680.521 258.906C680.434 258.74 680.312 258.594 680.155 258.467C679.999 258.34 679.809 258.237 679.584 258.159C679.364 258.081 679.115 258.042 678.837 258.042C678.549 258.042 678.295 258.074 678.075 258.137C677.86 258.201 677.68 258.286 677.533 258.394C677.392 258.501 677.284 258.625 677.211 258.767C677.138 258.909 677.101 259.055 677.101 259.207C677.101 259.363 677.13 259.502 677.189 259.624C677.248 259.746 677.348 259.856 677.489 259.954C677.636 260.051 677.829 260.139 678.068 260.217C678.312 260.295 678.62 260.371 678.991 260.444C679.479 260.547 679.916 260.667 680.302 260.803C680.688 260.935 681.012 261.096 681.276 261.287C681.54 261.472 681.74 261.689 681.876 261.938C682.018 262.188 682.089 262.476 682.089 262.803C682.089 263.154 682.008 263.474 681.847 263.762C681.691 264.05 681.471 264.297 681.188 264.502C680.905 264.707 680.565 264.866 680.17 264.978C679.774 265.09 679.342 265.146 678.874 265.146C678.336 265.146 677.858 265.076 677.438 264.934C677.018 264.788 676.662 264.597 676.369 264.363C676.081 264.124 675.858 263.848 675.702 263.535C675.551 263.223 675.475 262.898 675.475 262.561H676.83C676.85 262.839 676.923 263.074 677.05 263.264C677.182 263.455 677.343 263.608 677.533 263.726C677.729 263.843 677.943 263.926 678.178 263.975C678.412 264.023 678.644 264.048 678.874 264.048C679.445 264.048 679.896 263.943 680.229 263.733C680.561 263.523 680.729 263.245 680.734 262.898ZM687.978 265.146C687.421 265.146 686.908 265.051 686.439 264.861C685.976 264.67 685.578 264.404 685.246 264.062C684.914 263.721 684.655 263.315 684.469 262.847C684.284 262.378 684.191 261.868 684.191 261.316V261.008C684.191 260.369 684.293 259.797 684.499 259.294C684.704 258.787 684.975 258.359 685.312 258.013C685.653 257.661 686.039 257.393 686.469 257.207C686.903 257.021 687.348 256.929 687.802 256.929C688.373 256.929 688.871 257.029 689.296 257.229C689.726 257.424 690.082 257.698 690.365 258.049C690.648 258.396 690.858 258.806 690.995 259.28C691.137 259.753 691.208 260.266 691.208 260.818V261.426H685.546C685.561 261.787 685.629 262.126 685.751 262.444C685.878 262.761 686.049 263.04 686.264 263.279C686.483 263.513 686.745 263.699 687.047 263.835C687.35 263.972 687.685 264.041 688.051 264.041C688.534 264.041 688.964 263.943 689.34 263.748C689.716 263.552 690.028 263.293 690.277 262.971L691.105 263.616C690.973 263.816 690.807 264.009 690.607 264.194C690.412 264.375 690.185 264.536 689.926 264.678C689.667 264.819 689.374 264.932 689.047 265.015C688.72 265.103 688.363 265.146 687.978 265.146ZM687.802 258.042C687.528 258.042 687.27 258.093 687.025 258.196C686.781 258.293 686.562 258.44 686.366 258.635C686.171 258.826 686.005 259.062 685.868 259.346C685.736 259.624 685.644 259.946 685.59 260.312H689.853V260.21C689.838 259.946 689.787 259.685 689.699 259.426C689.616 259.167 689.491 258.936 689.325 258.73C689.159 258.525 688.949 258.359 688.695 258.232C688.446 258.105 688.148 258.042 687.802 258.042ZM702.245 260.972C702.245 260.381 702.316 259.839 702.458 259.346C702.604 258.848 702.814 258.42 703.087 258.064C703.361 257.708 703.693 257.429 704.083 257.229C704.474 257.029 704.916 256.929 705.409 256.929C705.897 256.929 706.325 257.017 706.691 257.192C707.062 257.363 707.377 257.612 707.636 257.939L707.702 257.075H708.932V264.832C708.932 265.354 708.849 265.818 708.683 266.223C708.522 266.628 708.292 266.973 707.995 267.256C707.702 267.539 707.35 267.754 706.94 267.9C706.53 268.047 706.076 268.12 705.578 268.12C705.373 268.12 705.138 268.096 704.875 268.047C704.611 268.003 704.342 267.927 704.069 267.82C703.8 267.717 703.539 267.578 703.285 267.402C703.036 267.227 702.821 267.009 702.641 266.75L703.344 265.938C703.51 266.138 703.681 266.306 703.856 266.443C704.032 266.584 704.21 266.697 704.391 266.78C704.572 266.863 704.752 266.921 704.933 266.956C705.114 266.995 705.294 267.014 705.475 267.014C705.797 267.014 706.088 266.968 706.347 266.875C706.605 266.782 706.825 266.646 707.006 266.465C707.191 266.289 707.333 266.069 707.431 265.806C707.528 265.542 707.577 265.239 707.577 264.897V264.216C707.313 264.519 707.001 264.751 706.64 264.912C706.283 265.068 705.868 265.146 705.395 265.146C704.911 265.146 704.474 265.044 704.083 264.839C703.693 264.634 703.361 264.351 703.087 263.989C702.819 263.628 702.611 263.203 702.465 262.715C702.318 262.222 702.245 261.692 702.245 261.125V260.972ZM703.6 261.125C703.6 261.511 703.639 261.877 703.717 262.224C703.8 262.571 703.927 262.876 704.098 263.14C704.274 263.403 704.496 263.613 704.765 263.77C705.033 263.921 705.355 263.997 705.731 263.997C705.966 263.997 706.176 263.97 706.361 263.916C706.552 263.857 706.72 263.777 706.867 263.674C707.018 263.572 707.152 263.45 707.27 263.308C707.387 263.167 707.489 263.01 707.577 262.839V259.207C707.489 259.041 707.387 258.889 707.27 258.752C707.152 258.616 707.018 258.499 706.867 258.401C706.715 258.298 706.547 258.22 706.361 258.167C706.176 258.108 705.971 258.079 705.746 258.079C705.365 258.079 705.038 258.157 704.765 258.313C704.496 258.469 704.274 258.682 704.098 258.95C703.927 259.214 703.8 259.521 703.717 259.873C703.639 260.22 703.6 260.586 703.6 260.972V261.125ZM716.71 265C716.657 264.897 716.613 264.771 716.579 264.619C716.549 264.463 716.527 264.302 716.513 264.136C716.376 264.272 716.222 264.402 716.051 264.524C715.885 264.646 715.7 264.753 715.495 264.846C715.294 264.939 715.08 265.012 714.85 265.066C714.621 265.12 714.376 265.146 714.118 265.146C713.698 265.146 713.317 265.085 712.975 264.963C712.638 264.841 712.35 264.678 712.111 264.473C711.876 264.263 711.693 264.016 711.562 263.733C711.435 263.445 711.371 263.135 711.371 262.803C711.371 262.368 711.457 261.987 711.627 261.66C711.803 261.333 712.05 261.062 712.367 260.847C712.685 260.627 713.065 260.464 713.51 260.356C713.959 260.249 714.459 260.195 715.011 260.195H716.491V259.573C716.491 259.333 716.447 259.119 716.359 258.928C716.271 258.738 716.146 258.577 715.985 258.445C715.824 258.308 715.626 258.203 715.392 258.13C715.163 258.057 714.904 258.02 714.616 258.02C714.347 258.02 714.105 258.054 713.891 258.123C713.681 258.191 713.502 258.281 713.356 258.394C713.209 258.506 713.095 258.64 713.012 258.796C712.934 258.948 712.895 259.106 712.895 259.272H711.532C711.537 258.984 711.61 258.701 711.752 258.423C711.898 258.145 712.106 257.896 712.375 257.676C712.648 257.451 712.978 257.271 713.363 257.134C713.754 256.997 714.196 256.929 714.689 256.929C715.138 256.929 715.556 256.985 715.941 257.097C716.327 257.205 716.659 257.371 716.938 257.595C717.221 257.815 717.443 258.091 717.604 258.423C717.765 258.755 717.846 259.143 717.846 259.587V263.271C717.846 263.535 717.87 263.816 717.919 264.114C717.968 264.407 718.036 264.663 718.124 264.883V265H716.71ZM714.315 263.967C714.579 263.967 714.826 263.933 715.055 263.865C715.285 263.796 715.492 263.706 715.678 263.594C715.868 263.481 716.032 263.354 716.168 263.213C716.305 263.066 716.413 262.915 716.491 262.759V261.155H715.231C714.44 261.155 713.825 261.272 713.385 261.506C712.946 261.741 712.726 262.109 712.726 262.612C712.726 262.808 712.758 262.988 712.821 263.154C712.89 263.32 712.99 263.464 713.122 263.586C713.253 263.704 713.419 263.796 713.62 263.865C713.82 263.933 714.052 263.967 714.315 263.967ZM725.778 262.898C725.778 262.737 725.746 262.593 725.683 262.466C725.619 262.334 725.512 262.214 725.36 262.107C725.209 262 725.009 261.902 724.76 261.814C724.511 261.721 724.201 261.638 723.83 261.565C723.375 261.472 722.96 261.36 722.584 261.228C722.213 261.096 721.894 260.94 721.625 260.759C721.361 260.574 721.156 260.359 721.01 260.115C720.863 259.866 720.79 259.578 720.79 259.25C720.79 258.928 720.866 258.628 721.017 258.35C721.168 258.066 721.381 257.82 721.654 257.61C721.928 257.4 722.252 257.234 722.628 257.112C723.009 256.99 723.427 256.929 723.881 256.929C724.369 256.929 724.809 256.992 725.199 257.119C725.59 257.246 725.922 257.422 726.195 257.646C726.469 257.871 726.679 258.135 726.825 258.438C726.977 258.735 727.052 259.058 727.052 259.404H725.697C725.697 259.233 725.653 259.067 725.565 258.906C725.478 258.74 725.355 258.594 725.199 258.467C725.043 258.34 724.853 258.237 724.628 258.159C724.408 258.081 724.159 258.042 723.881 258.042C723.593 258.042 723.339 258.074 723.119 258.137C722.904 258.201 722.724 258.286 722.577 258.394C722.436 258.501 722.328 258.625 722.255 258.767C722.182 258.909 722.145 259.055 722.145 259.207C722.145 259.363 722.174 259.502 722.233 259.624C722.292 259.746 722.392 259.856 722.533 259.954C722.68 260.051 722.873 260.139 723.112 260.217C723.356 260.295 723.664 260.371 724.035 260.444C724.523 260.547 724.96 260.667 725.346 260.803C725.731 260.935 726.056 261.096 726.32 261.287C726.583 261.472 726.784 261.689 726.92 261.938C727.062 262.188 727.133 262.476 727.133 262.803C727.133 263.154 727.052 263.474 726.891 263.762C726.735 264.05 726.515 264.297 726.232 264.502C725.949 264.707 725.609 264.866 725.214 264.978C724.818 265.09 724.386 265.146 723.917 265.146C723.38 265.146 722.902 265.076 722.482 264.934C722.062 264.788 721.706 264.597 721.413 264.363C721.125 264.124 720.902 263.848 720.746 263.535C720.595 263.223 720.519 262.898 720.519 262.561H721.874C721.894 262.839 721.967 263.074 722.094 263.264C722.226 263.455 722.387 263.608 722.577 263.726C722.772 263.843 722.987 263.926 723.222 263.975C723.456 264.023 723.688 264.048 723.917 264.048C724.489 264.048 724.94 263.943 725.272 263.733C725.604 263.523 725.773 263.245 725.778 262.898ZM733.021 265.146C732.465 265.146 731.952 265.051 731.483 264.861C731.02 264.67 730.622 264.404 730.29 264.062C729.958 263.721 729.699 263.315 729.513 262.847C729.328 262.378 729.235 261.868 729.235 261.316V261.008C729.235 260.369 729.337 259.797 729.542 259.294C729.748 258.787 730.019 258.359 730.355 258.013C730.697 257.661 731.083 257.393 731.513 257.207C731.947 257.021 732.392 256.929 732.846 256.929C733.417 256.929 733.915 257.029 734.34 257.229C734.77 257.424 735.126 257.698 735.409 258.049C735.692 258.396 735.902 258.806 736.039 259.28C736.181 259.753 736.251 260.266 736.251 260.818V261.426H730.59C730.604 261.787 730.673 262.126 730.795 262.444C730.922 262.761 731.093 263.04 731.308 263.279C731.527 263.513 731.789 263.699 732.091 263.835C732.394 263.972 732.729 264.041 733.095 264.041C733.578 264.041 734.008 263.943 734.384 263.748C734.76 263.552 735.072 263.293 735.321 262.971L736.149 263.616C736.017 263.816 735.851 264.009 735.651 264.194C735.456 264.375 735.229 264.536 734.97 264.678C734.711 264.819 734.418 264.932 734.091 265.015C733.764 265.103 733.407 265.146 733.021 265.146ZM732.846 258.042C732.572 258.042 732.313 258.093 732.069 258.196C731.825 258.293 731.605 258.44 731.41 258.635C731.215 258.826 731.049 259.062 730.912 259.346C730.78 259.624 730.688 259.946 730.634 260.312H734.896V260.21C734.882 259.946 734.831 259.685 734.743 259.426C734.66 259.167 734.535 258.936 734.369 258.73C734.203 258.525 733.993 258.359 733.739 258.232C733.49 258.105 733.192 258.042 732.846 258.042ZM743.795 262.898C743.795 262.737 743.764 262.593 743.7 262.466C743.637 262.334 743.529 262.214 743.378 262.107C743.227 262 743.026 261.902 742.777 261.814C742.528 261.721 742.218 261.638 741.847 261.565C741.393 261.472 740.978 261.36 740.602 261.228C740.231 261.096 739.911 260.94 739.643 260.759C739.379 260.574 739.174 260.359 739.027 260.115C738.881 259.866 738.808 259.578 738.808 259.25C738.808 258.928 738.883 258.628 739.035 258.35C739.186 258.066 739.398 257.82 739.672 257.61C739.945 257.4 740.27 257.234 740.646 257.112C741.027 256.99 741.444 256.929 741.898 256.929C742.387 256.929 742.826 256.992 743.217 257.119C743.607 257.246 743.939 257.422 744.213 257.646C744.486 257.871 744.696 258.135 744.843 258.438C744.994 258.735 745.07 259.058 745.07 259.404H743.715C743.715 259.233 743.671 259.067 743.583 258.906C743.495 258.74 743.373 258.594 743.217 258.467C743.061 258.34 742.87 258.237 742.646 258.159C742.426 258.081 742.177 258.042 741.898 258.042C741.61 258.042 741.356 258.074 741.137 258.137C740.922 258.201 740.741 258.286 740.595 258.394C740.453 258.501 740.346 258.625 740.272 258.767C740.199 258.909 740.163 259.055 740.163 259.207C740.163 259.363 740.192 259.502 740.25 259.624C740.309 259.746 740.409 259.856 740.551 259.954C740.697 260.051 740.89 260.139 741.129 260.217C741.374 260.295 741.681 260.371 742.052 260.444C742.541 260.547 742.978 260.667 743.363 260.803C743.749 260.935 744.074 261.096 744.337 261.287C744.601 261.472 744.801 261.689 744.938 261.938C745.08 262.188 745.15 262.476 745.15 262.803C745.15 263.154 745.07 263.474 744.909 263.762C744.752 264.05 744.533 264.297 744.25 264.502C743.966 264.707 743.627 264.866 743.231 264.978C742.836 265.09 742.404 265.146 741.935 265.146C741.398 265.146 740.919 265.076 740.5 264.934C740.08 264.788 739.723 264.597 739.43 264.363C739.142 264.124 738.92 263.848 738.764 263.535C738.612 263.223 738.537 262.898 738.537 262.561H739.892C739.911 262.839 739.984 263.074 740.111 263.264C740.243 263.455 740.404 263.608 740.595 263.726C740.79 263.843 741.005 263.926 741.239 263.975C741.474 264.023 741.706 264.048 741.935 264.048C742.506 264.048 742.958 263.943 743.29 263.733C743.622 263.523 743.791 263.245 743.795 262.898ZM756.759 257.075H760.81V263.828H763.395V265H756.759V263.828H759.455V258.254H756.759V257.075ZM759.279 254.995C759.279 254.771 759.345 254.583 759.477 254.431C759.613 254.275 759.818 254.197 760.092 254.197C760.36 254.197 760.563 254.275 760.7 254.431C760.836 254.583 760.905 254.771 760.905 254.995C760.905 255.215 760.836 255.398 760.7 255.544C760.563 255.691 760.36 255.764 760.092 255.764C759.818 255.764 759.613 255.691 759.477 255.544C759.345 255.398 759.279 255.215 759.279 254.995ZM766.771 257.075L766.867 258.247C767.155 257.837 767.509 257.517 767.929 257.288C768.349 257.053 768.817 256.934 769.335 256.929C769.75 256.929 770.126 256.987 770.463 257.104C770.805 257.222 771.095 257.405 771.334 257.654C771.574 257.903 771.757 258.22 771.884 258.606C772.016 258.987 772.082 259.441 772.082 259.968V265H770.727V259.998C770.727 259.646 770.688 259.348 770.609 259.104C770.531 258.86 770.414 258.662 770.258 258.511C770.106 258.359 769.918 258.25 769.694 258.181C769.474 258.113 769.22 258.079 768.932 258.079C768.478 258.079 768.078 258.193 767.731 258.423C767.389 258.647 767.116 258.945 766.911 259.316V265H765.556V257.075H766.771ZM783.192 260.964C783.192 260.393 783.275 259.863 783.441 259.375C783.607 258.882 783.844 258.455 784.152 258.093C784.464 257.732 784.843 257.449 785.287 257.244C785.731 257.034 786.232 256.929 786.789 256.929C787.35 256.929 787.853 257.034 788.297 257.244C788.747 257.449 789.125 257.732 789.433 258.093C789.745 258.455 789.984 258.882 790.15 259.375C790.316 259.863 790.399 260.393 790.399 260.964V261.125C790.399 261.697 790.316 262.227 790.15 262.715C789.984 263.203 789.745 263.628 789.433 263.989C789.125 264.351 788.749 264.634 788.305 264.839C787.86 265.044 787.36 265.146 786.803 265.146C786.242 265.146 785.736 265.044 785.287 264.839C784.843 264.634 784.464 264.351 784.152 263.989C783.844 263.628 783.607 263.203 783.441 262.715C783.275 262.227 783.192 261.697 783.192 261.125V260.964ZM784.547 261.125C784.547 261.516 784.594 261.89 784.687 262.246C784.779 262.598 784.918 262.908 785.104 263.176C785.294 263.445 785.531 263.657 785.814 263.813C786.098 263.97 786.427 264.048 786.803 264.048C787.174 264.048 787.499 263.97 787.777 263.813C788.061 263.657 788.295 263.445 788.48 263.176C788.671 262.908 788.812 262.598 788.905 262.246C788.998 261.89 789.044 261.516 789.044 261.125V260.964C789.044 260.579 788.996 260.21 788.898 259.858C788.805 259.502 788.664 259.189 788.473 258.921C788.288 258.652 788.053 258.44 787.77 258.284C787.492 258.123 787.165 258.042 786.789 258.042C786.413 258.042 786.085 258.123 785.807 258.284C785.529 258.44 785.294 258.652 785.104 258.921C784.918 259.189 784.779 259.502 784.687 259.858C784.594 260.21 784.547 260.579 784.547 260.964V261.125ZM797.724 263.909C797.46 264.299 797.13 264.604 796.735 264.824C796.339 265.039 795.883 265.146 795.365 265.146C794.95 265.146 794.574 265.083 794.237 264.956C793.9 264.824 793.612 264.622 793.373 264.348C793.134 264.075 792.948 263.728 792.816 263.308C792.689 262.883 792.626 262.375 792.626 261.785V257.075H793.981V261.799C793.981 262.229 794.015 262.585 794.083 262.869C794.152 263.152 794.254 263.379 794.391 263.55C794.528 263.716 794.694 263.833 794.889 263.901C795.089 263.97 795.319 264.004 795.578 264.004C796.129 264.004 796.574 263.892 796.911 263.667C797.252 263.442 797.506 263.14 797.672 262.759V257.075H799.035V265H797.804L797.724 263.909ZM806.784 256.929C806.911 256.929 807.042 256.934 807.179 256.943C807.316 256.948 807.445 256.96 807.567 256.98C807.694 256.995 807.809 257.014 807.912 257.039C808.019 257.063 808.107 257.09 808.175 257.119L807.992 258.445C807.729 258.386 807.477 258.345 807.238 258.32C807.003 258.291 806.757 258.276 806.498 258.276C805.863 258.276 805.348 258.42 804.953 258.708C804.562 258.997 804.274 259.399 804.088 259.917V265H802.726V257.075H804.015L804.081 258.335C804.403 257.9 804.789 257.559 805.238 257.31C805.692 257.056 806.208 256.929 806.784 256.929ZM824.816 265C824.762 264.897 824.718 264.771 824.684 264.619C824.655 264.463 824.633 264.302 824.618 264.136C824.481 264.272 824.328 264.402 824.157 264.524C823.991 264.646 823.805 264.753 823.6 264.846C823.4 264.939 823.185 265.012 822.956 265.066C822.726 265.12 822.482 265.146 822.223 265.146C821.803 265.146 821.422 265.085 821.081 264.963C820.744 264.841 820.456 264.678 820.216 264.473C819.982 264.263 819.799 264.016 819.667 263.733C819.54 263.445 819.477 263.135 819.477 262.803C819.477 262.368 819.562 261.987 819.733 261.66C819.909 261.333 820.155 261.062 820.473 260.847C820.79 260.627 821.171 260.464 821.615 260.356C822.064 260.249 822.565 260.195 823.117 260.195H824.596V259.573C824.596 259.333 824.552 259.119 824.464 258.928C824.376 258.738 824.252 258.577 824.091 258.445C823.93 258.308 823.732 258.203 823.498 258.13C823.268 258.057 823.009 258.02 822.721 258.02C822.453 258.02 822.211 258.054 821.996 258.123C821.786 258.191 821.608 258.281 821.461 258.394C821.315 258.506 821.2 258.64 821.117 258.796C821.039 258.948 821 259.106 821 259.272H819.638C819.643 258.984 819.716 258.701 819.857 258.423C820.004 258.145 820.211 257.896 820.48 257.676C820.753 257.451 821.083 257.271 821.469 257.134C821.859 256.997 822.301 256.929 822.794 256.929C823.244 256.929 823.661 256.985 824.047 257.097C824.433 257.205 824.765 257.371 825.043 257.595C825.326 257.815 825.548 258.091 825.709 258.423C825.871 258.755 825.951 259.143 825.951 259.587V263.271C825.951 263.535 825.976 263.816 826.024 264.114C826.073 264.407 826.142 264.663 826.229 264.883V265H824.816ZM822.421 263.967C822.685 263.967 822.931 263.933 823.161 263.865C823.39 263.796 823.598 263.706 823.783 263.594C823.974 263.481 824.137 263.354 824.274 263.213C824.411 263.066 824.518 262.915 824.596 262.759V261.155H823.336C822.545 261.155 821.93 261.272 821.491 261.506C821.051 261.741 820.832 262.109 820.832 262.612C820.832 262.808 820.863 262.988 820.927 263.154C820.995 263.32 821.095 263.464 821.227 263.586C821.359 263.704 821.525 263.796 821.725 263.865C821.925 263.933 822.157 263.967 822.421 263.967ZM831.825 255.156V257.075H834.843V258.123H831.825V262.429C831.825 262.737 831.864 262.991 831.942 263.191C832.021 263.391 832.128 263.552 832.265 263.674C832.401 263.792 832.558 263.875 832.733 263.923C832.914 263.972 833.104 263.997 833.305 263.997C833.451 263.997 833.603 263.989 833.759 263.975C833.915 263.955 834.066 263.933 834.213 263.909C834.364 263.884 834.503 263.86 834.63 263.835C834.762 263.806 834.87 263.782 834.953 263.762L835.143 264.722C835.031 264.79 834.894 264.851 834.733 264.905C834.572 264.954 834.396 264.995 834.206 265.029C834.015 265.068 833.812 265.098 833.598 265.117C833.388 265.137 833.178 265.146 832.968 265.146C832.616 265.146 832.287 265.098 831.979 265C831.676 264.897 831.413 264.739 831.188 264.524C830.963 264.304 830.785 264.023 830.653 263.682C830.526 263.335 830.463 262.917 830.463 262.429V258.123H828.383V257.075H830.463V255.156H831.825ZM838.249 257.075L838.285 257.822C838.446 257.544 838.656 257.327 838.915 257.17C839.179 257.014 839.496 256.934 839.867 256.929C840.595 256.929 841.081 257.212 841.325 257.778C841.481 257.524 841.686 257.322 841.94 257.17C842.199 257.014 842.511 256.934 842.877 256.929C843.458 256.929 843.905 257.107 844.218 257.463C844.53 257.82 844.687 258.359 844.687 259.082V265H843.397V259.067C843.397 258.403 843.092 258.074 842.482 258.079C842.321 258.079 842.182 258.101 842.064 258.145C841.947 258.188 841.85 258.25 841.771 258.328C841.693 258.401 841.632 258.489 841.588 258.591C841.544 258.689 841.515 258.792 841.5 258.899V265H840.211V259.06C840.211 258.743 840.141 258.499 839.999 258.328C839.857 258.157 839.633 258.074 839.325 258.079C839.042 258.079 838.822 258.135 838.666 258.247C838.51 258.359 838.395 258.508 838.322 258.694V265H837.033V257.075H838.249ZM846.254 260.964C846.254 260.393 846.337 259.863 846.503 259.375C846.669 258.882 846.906 258.455 847.213 258.093C847.526 257.732 847.904 257.449 848.349 257.244C848.793 257.034 849.293 256.929 849.85 256.929C850.412 256.929 850.915 257.034 851.359 257.244C851.808 257.449 852.187 257.732 852.494 258.093C852.807 258.455 853.046 258.882 853.212 259.375C853.378 259.863 853.461 260.393 853.461 260.964V261.125C853.461 261.697 853.378 262.227 853.212 262.715C853.046 263.203 852.807 263.628 852.494 263.989C852.187 264.351 851.811 264.634 851.366 264.839C850.922 265.044 850.421 265.146 849.865 265.146C849.303 265.146 848.798 265.044 848.349 264.839C847.904 264.634 847.526 264.351 847.213 263.989C846.906 263.628 846.669 263.203 846.503 262.715C846.337 262.227 846.254 261.697 846.254 261.125V260.964ZM847.609 261.125C847.609 261.516 847.655 261.89 847.748 262.246C847.841 262.598 847.98 262.908 848.166 263.176C848.356 263.445 848.593 263.657 848.876 263.813C849.159 263.97 849.489 264.048 849.865 264.048C850.236 264.048 850.561 263.97 850.839 263.813C851.122 263.657 851.356 263.445 851.542 263.176C851.732 262.908 851.874 262.598 851.967 262.246C852.06 261.89 852.106 261.516 852.106 261.125V260.964C852.106 260.579 852.057 260.21 851.959 259.858C851.867 259.502 851.725 259.189 851.535 258.921C851.349 258.652 851.115 258.44 850.832 258.284C850.553 258.123 850.226 258.042 849.85 258.042C849.474 258.042 849.147 258.123 848.869 258.284C848.59 258.44 848.356 258.652 848.166 258.921C847.98 259.189 847.841 259.502 847.748 259.858C847.655 260.21 847.609 260.579 847.609 260.964V261.125ZM860.91 262.898C860.91 262.737 860.878 262.593 860.814 262.466C860.751 262.334 860.644 262.214 860.492 262.107C860.341 262 860.141 261.902 859.892 261.814C859.643 261.721 859.333 261.638 858.961 261.565C858.507 261.472 858.092 261.36 857.716 261.228C857.345 261.096 857.025 260.94 856.757 260.759C856.493 260.574 856.288 260.359 856.142 260.115C855.995 259.866 855.922 259.578 855.922 259.25C855.922 258.928 855.998 258.628 856.149 258.35C856.3 258.066 856.513 257.82 856.786 257.61C857.06 257.4 857.384 257.234 857.76 257.112C858.141 256.99 858.559 256.929 859.013 256.929C859.501 256.929 859.94 256.992 860.331 257.119C860.722 257.246 861.054 257.422 861.327 257.646C861.601 257.871 861.811 258.135 861.957 258.438C862.108 258.735 862.184 259.058 862.184 259.404H860.829C860.829 259.233 860.785 259.067 860.697 258.906C860.609 258.74 860.487 258.594 860.331 258.467C860.175 258.34 859.984 258.237 859.76 258.159C859.54 258.081 859.291 258.042 859.013 258.042C858.725 258.042 858.471 258.074 858.251 258.137C858.036 258.201 857.855 258.286 857.709 258.394C857.567 258.501 857.46 258.625 857.387 258.767C857.313 258.909 857.277 259.055 857.277 259.207C857.277 259.363 857.306 259.502 857.365 259.624C857.423 259.746 857.523 259.856 857.665 259.954C857.812 260.051 858.004 260.139 858.244 260.217C858.488 260.295 858.795 260.371 859.167 260.444C859.655 260.547 860.092 260.667 860.478 260.803C860.863 260.935 861.188 261.096 861.452 261.287C861.715 261.472 861.916 261.689 862.052 261.938C862.194 262.188 862.265 262.476 862.265 262.803C862.265 263.154 862.184 263.474 862.023 263.762C861.867 264.05 861.647 264.297 861.364 264.502C861.081 264.707 860.741 264.866 860.346 264.978C859.95 265.09 859.518 265.146 859.049 265.146C858.512 265.146 858.034 265.076 857.614 264.934C857.194 264.788 856.837 264.597 856.544 264.363C856.256 264.124 856.034 263.848 855.878 263.535C855.727 263.223 855.651 262.898 855.651 262.561H857.006C857.025 262.839 857.099 263.074 857.226 263.264C857.357 263.455 857.519 263.608 857.709 263.726C857.904 263.843 858.119 263.926 858.354 263.975C858.588 264.023 858.82 264.048 859.049 264.048C859.621 264.048 860.072 263.943 860.404 263.733C860.736 263.523 860.905 263.245 860.91 262.898ZM871.339 261.125C871.339 261.692 871.271 262.222 871.134 262.715C870.998 263.203 870.797 263.628 870.534 263.989C870.27 264.351 869.943 264.634 869.552 264.839C869.167 265.044 868.725 265.146 868.227 265.146C867.743 265.146 867.316 265.068 866.945 264.912C866.579 264.756 866.264 264.531 866 264.238V268.047H864.645V257.075H865.883L865.949 257.939C866.212 257.612 866.53 257.363 866.901 257.192C867.277 257.017 867.711 256.929 868.205 256.929C868.712 256.929 869.162 257.029 869.552 257.229C869.943 257.429 870.27 257.708 870.534 258.064C870.797 258.42 870.998 258.848 871.134 259.346C871.271 259.839 871.339 260.381 871.339 260.972V261.125ZM869.984 260.972C869.984 260.586 869.94 260.22 869.853 259.873C869.77 259.521 869.638 259.214 869.457 258.95C869.281 258.682 869.057 258.469 868.783 258.313C868.51 258.157 868.183 258.079 867.802 258.079C867.367 258.079 867.001 258.181 866.703 258.386C866.41 258.586 866.176 258.845 866 259.163V262.979C866.176 263.291 866.41 263.547 866.703 263.748C866.996 263.943 867.367 264.041 867.816 264.041C868.192 264.041 868.517 263.962 868.791 263.806C869.064 263.645 869.289 263.43 869.464 263.162C869.64 262.893 869.77 262.583 869.853 262.231C869.94 261.88 869.984 261.511 869.984 261.125V260.972ZM875.016 258.254C875.299 257.839 875.648 257.517 876.063 257.288C876.479 257.053 876.945 256.934 877.462 256.929C877.877 256.929 878.253 256.99 878.59 257.112C878.932 257.229 879.223 257.415 879.462 257.668C879.701 257.922 879.884 258.245 880.011 258.635C880.143 259.021 880.209 259.48 880.209 260.012V265H878.854V259.998C878.854 259.348 878.698 258.865 878.385 258.547C878.078 258.23 877.636 258.074 877.06 258.079C876.625 258.079 876.229 258.186 875.873 258.401C875.521 258.611 875.236 258.892 875.016 259.243V265H873.661V253.75H875.016V258.254ZM886.171 265.146C885.614 265.146 885.102 265.051 884.633 264.861C884.169 264.67 883.771 264.404 883.439 264.062C883.107 263.721 882.848 263.315 882.663 262.847C882.477 262.378 882.384 261.868 882.384 261.316V261.008C882.384 260.369 882.487 259.797 882.692 259.294C882.897 258.787 883.168 258.359 883.505 258.013C883.847 257.661 884.232 257.393 884.662 257.207C885.097 257.021 885.541 256.929 885.995 256.929C886.566 256.929 887.064 257.029 887.489 257.229C887.919 257.424 888.275 257.698 888.559 258.049C888.842 258.396 889.052 258.806 889.188 259.28C889.33 259.753 889.401 260.266 889.401 260.818V261.426H883.739C883.754 261.787 883.822 262.126 883.944 262.444C884.071 262.761 884.242 263.04 884.457 263.279C884.677 263.513 884.938 263.699 885.241 263.835C885.543 263.972 885.878 264.041 886.244 264.041C886.728 264.041 887.157 263.943 887.533 263.748C887.909 263.552 888.222 263.293 888.471 262.971L889.298 263.616C889.167 263.816 889 264.009 888.8 264.194C888.605 264.375 888.378 264.536 888.119 264.678C887.86 264.819 887.567 264.932 887.24 265.015C886.913 265.103 886.557 265.146 886.171 265.146ZM885.995 258.042C885.722 258.042 885.463 258.093 885.219 258.196C884.975 258.293 884.755 258.44 884.56 258.635C884.364 258.826 884.198 259.062 884.062 259.346C883.93 259.624 883.837 259.946 883.783 260.312H888.046V260.21C888.031 259.946 887.98 259.685 887.892 259.426C887.809 259.167 887.685 258.936 887.519 258.73C887.353 258.525 887.143 258.359 886.889 258.232C886.64 258.105 886.342 258.042 885.995 258.042ZM896.872 256.929C896.999 256.929 897.13 256.934 897.267 256.943C897.404 256.948 897.533 256.96 897.655 256.98C897.782 256.995 897.897 257.014 898 257.039C898.107 257.063 898.195 257.09 898.263 257.119L898.08 258.445C897.816 258.386 897.565 258.345 897.326 258.32C897.091 258.291 896.845 258.276 896.586 258.276C895.951 258.276 895.436 258.42 895.041 258.708C894.65 258.997 894.362 259.399 894.176 259.917V265H892.814V257.075H894.103L894.169 258.335C894.491 257.9 894.877 257.559 895.326 257.31C895.78 257.056 896.295 256.929 896.872 256.929ZM904.188 265.146C903.632 265.146 903.119 265.051 902.65 264.861C902.187 264.67 901.789 264.404 901.457 264.062C901.125 263.721 900.866 263.315 900.68 262.847C900.495 262.378 900.402 261.868 900.402 261.316V261.008C900.402 260.369 900.504 259.797 900.709 259.294C900.915 258.787 901.186 258.359 901.522 258.013C901.864 257.661 902.25 257.393 902.68 257.207C903.114 257.021 903.559 256.929 904.013 256.929C904.584 256.929 905.082 257.029 905.507 257.229C905.937 257.424 906.293 257.698 906.576 258.049C906.859 258.396 907.069 258.806 907.206 259.28C907.348 259.753 907.418 260.266 907.418 260.818V261.426H901.757C901.771 261.787 901.84 262.126 901.962 262.444C902.089 262.761 902.26 263.04 902.475 263.279C902.694 263.513 902.956 263.699 903.258 263.835C903.561 263.972 903.896 264.041 904.262 264.041C904.745 264.041 905.175 263.943 905.551 263.748C905.927 263.552 906.239 263.293 906.488 262.971L907.316 263.616C907.184 263.816 907.018 264.009 906.818 264.194C906.623 264.375 906.396 264.536 906.137 264.678C905.878 264.819 905.585 264.932 905.258 265.015C904.931 265.103 904.574 265.146 904.188 265.146ZM904.013 258.042C903.739 258.042 903.48 258.093 903.236 258.196C902.992 258.293 902.772 258.44 902.577 258.635C902.382 258.826 902.216 259.062 902.079 259.346C901.947 259.624 901.854 259.946 901.801 260.312H906.063V260.21C906.049 259.946 905.998 259.685 905.91 259.426C905.827 259.167 905.702 258.936 905.536 258.73C905.37 258.525 905.16 258.359 904.906 258.232C904.657 258.105 904.359 258.042 904.013 258.042Z" fill="black"/>
</svg>
