<svg width="1300" height="400" viewBox="0 0 1300 400" fill="none" xmlns="http://www.w3.org/2000/svg">
<rect width="1300" height="400" fill="white"/>
<circle cx="381" cy="213" r="10" fill="#00C7A5"/>
<circle cx="353" cy="161" r="10" fill="#00C7A5"/>
<circle cx="326" cy="161" r="10" fill="#00C7A5"/>
<circle cx="245" cy="109" r="10" fill="#00C7A5"/>
<circle cx="272" cy="83" r="10" fill="#00C7A5"/>
<circle cx="272" cy="109" r="10" fill="#00C7A5"/>
<circle cx="218" cy="109" r="10" fill="#00C7A5"/>
<circle cx="245" cy="83" r="10" fill="#00C7A5"/>
<circle cx="218" cy="83" r="10" fill="#00C7A5"/>
<circle cx="191" cy="109" r="10" fill="#00C7A5"/>
<circle cx="245" cy="135" r="10" fill="#00C7A5"/>
<circle cx="272" cy="135" r="10" fill="#00C7A5"/>
<circle cx="218" cy="135" r="10" fill="#00C7A5"/>
<circle cx="191" cy="135" r="10" fill="#00C7A5"/>
<circle cx="165" cy="135" r="10" fill="#00C7A5"/>
<circle cx="245" cy="161" r="10" fill="#00C7A5"/>
<circle cx="272" cy="161" r="10" fill="#00C7A5"/>
<circle cx="218" cy="161" r="10" fill="#00C7A5"/>
<circle cx="191" cy="161" r="10" fill="#00C7A5"/>
<circle cx="165" cy="161" r="10" fill="#00C7A5"/>
<circle cx="137" cy="161" r="10" fill="#00C7A5"/>
<circle cx="245" cy="187" r="10" fill="#00C7A5"/>
<circle cx="272" cy="187" r="10" fill="#00C7A5"/>
<circle cx="218" cy="187" r="10" fill="#00C7A5"/>
<circle cx="191" cy="187" r="10" fill="#00C7A5"/>
<circle cx="165" cy="187" r="10" fill="#00C7A5"/>
<circle cx="137" cy="187" r="10" fill="#00C7A5"/>
<circle cx="381" cy="239" r="10" fill="#00C7A5"/>
<circle cx="272" cy="239" r="10" fill="#00C7A5"/>
<circle cx="272" cy="265" r="10" fill="#00C7A5"/>
<circle cx="245" cy="239" r="10" fill="#00C7A5"/>
<circle cx="245" cy="291" r="10" fill="#00C7A5"/>
<circle cx="272" cy="291" r="10" fill="#00C7A5"/>
<circle cx="245" cy="317" r="10" fill="#00C7A5"/>
<circle cx="218" cy="265" r="10" fill="#00C7A5"/>
<circle cx="245" cy="265" r="10" fill="#00C7A5"/>
<circle cx="218" cy="239" r="10" fill="#00C7A5"/>
<circle cx="191" cy="239" r="10" fill="#00C7A5"/>
<circle cx="218" cy="317" r="10" fill="#00C7A5"/>
<circle cx="165" cy="83" r="10" fill="#00C7A5"/>
<circle cx="218" cy="291" r="10" fill="#00C7A5"/>
<circle cx="191" cy="265" r="10" fill="#00C7A5"/>
<circle cx="165" cy="239" r="10" fill="#00C7A5"/>
<circle cx="137" cy="83" r="10" fill="#00C7A5"/>
<circle cx="353" cy="187" r="10" fill="#00C7A5"/>
<circle cx="191" cy="317" r="10" fill="#00C7A5"/>
<circle cx="191" cy="291" r="10" fill="#00C7A5"/>
<circle cx="165" cy="265" r="10" fill="#00C7A5"/>
<circle cx="137" cy="239" r="10" fill="#00C7A5"/>
<circle cx="326" cy="187" r="10" fill="#00C7A5"/>
<circle cx="326" cy="317" r="10" fill="#00C7A5"/>
<circle cx="381" cy="317" r="10" fill="#00C7A5"/>
<circle cx="165" cy="317" r="10" fill="#00C7A5"/>
<circle cx="165" cy="291" r="10" fill="#00C7A5"/>
<circle cx="137" cy="317" r="10" fill="#00C7A5"/>
<circle cx="353" cy="317" r="10" fill="#00C7A5"/>
<circle cx="299" cy="187" r="10" fill="#00C7A5"/>
<circle cx="137" cy="265" r="10" fill="#00C7A5"/>
<circle cx="137" cy="291" r="10" fill="#00C7A5"/>
<circle r="10" transform="matrix(-1 0 0 1 191 83)" fill="#00C7A5"/>
<circle r="10" transform="matrix(-1 0 0 1 165 109)" fill="#00C7A5"/>
<circle r="10" transform="matrix(-1 0 0 1 137 135)" fill="#00C7A5"/>
<circle r="10" transform="matrix(-1 0 0 1 299 161)" fill="#00C7A5"/>
<circle cx="381" cy="291" r="10" fill="#00C7A5"/>
<circle cx="245" cy="213" r="10" fill="#00C7A5"/>
<circle cx="299" cy="239" r="10" fill="#00C7A5"/>
<circle cx="299" cy="291" r="10" fill="#00C7A5"/>
<circle cx="299" cy="265" r="10" fill="#00C7A5"/>
<circle cx="272" cy="317" r="10" fill="#00C7A5"/>
<circle cx="137" cy="109" r="10" fill="#00C7A5"/>
<circle cx="381" cy="187" r="10" fill="#00C7A5"/>
<circle cx="299" cy="213" r="10" fill="#00C7A5"/>
<circle cx="326" cy="239" r="10" fill="#00C7A5"/>
<circle cx="326" cy="291" r="10" fill="#00C7A5"/>
<circle cx="326" cy="265" r="10" fill="#00C7A5"/>
<circle cx="299" cy="317" r="10" fill="#00C7A5"/>
<circle cx="353" cy="213" r="10" fill="#00C7A5"/>
<circle cx="353" cy="265" r="10" fill="#00C7A5"/>
<circle cx="353" cy="239" r="10" fill="#00C7A5"/>
<circle cx="353" cy="291" r="10" fill="#00C7A5"/>
<circle cx="381" cy="161" r="10" fill="#00C7A5"/>
<circle cx="326" cy="213" r="10" fill="#00C7A5"/>
<circle cx="272" cy="213" r="10" fill="#00C7A5"/>
<circle cx="218" cy="213" r="10" fill="#00C7A5"/>
<circle cx="191" cy="213" r="10" fill="#00C7A5"/>
<circle cx="165" cy="213" r="10" fill="#00C7A5"/>
<circle cx="137" cy="213" r="10" fill="#00C7A5"/>
<circle cx="381" cy="265" r="10" fill="#00C7A5"/>
<circle cx="535" cy="83" r="10" fill="#8D75F3"/>
<circle cx="535" cy="135" r="10" fill="#8D75F3"/>
<circle cx="508" cy="83" r="10" fill="#8D75F3"/>
<circle cx="508" cy="109" r="10" fill="#8D75F3"/>
<circle cx="535" cy="109" r="10" fill="#8D75F3"/>
<circle cx="508" cy="135" r="10" fill="#8D75F3"/>
<circle cx="769" cy="83" r="10" fill="#6CBAFA"/>
<circle cx="769" cy="135" r="10" fill="#6CBAFA"/>
<circle cx="769" cy="109" r="10" fill="#6CBAFA"/>
<circle cx="797" cy="83" r="10" fill="#6CBAFA"/>
<circle cx="797" cy="109" r="10" fill="url(#paint0_linear)"/>
<circle cx="1041" cy="83" r="10" fill="url(#paint1_linear)"/>
<circle cx="1041" cy="109" r="10" fill="#FBC800"/>
<defs>
<linearGradient id="paint0_linear" x1="790.5" y1="102" x2="804.5" y2="115" gradientUnits="userSpaceOnUse">
<stop stop-color="#6CBAFA"/>
<stop offset="0.447917" stop-color="#6CBAFA"/>
<stop offset="0.479067" stop-color="#6CBAFA"/>
<stop offset="0.479167" stop-color="white" stop-opacity="0"/>
</linearGradient>
<linearGradient id="paint1_linear" x1="1034.5" y1="76" x2="1048.5" y2="89" gradientUnits="userSpaceOnUse">
<stop stop-color="white" stop-opacity="0"/>
<stop offset="0.447917" stop-color="white" stop-opacity="0"/>
<stop offset="0.463168" stop-color="#FBC800"/>
</linearGradient>
</defs>
</svg>
