<svg width="1200" height="400" viewBox="0 0 1200 400" fill="none" xmlns="http://www.w3.org/2000/svg">
<rect width="1200" height="400" fill="white"/>
<path d="M219.311 62.1191C219.306 62.6514 219.162 63.125 218.878 63.54C218.595 63.9551 218.217 64.2798 217.743 64.5142C218.017 64.6313 218.263 64.7778 218.483 64.9536C218.708 65.1245 218.898 65.3223 219.054 65.5469C219.215 65.7715 219.337 66.0156 219.42 66.2793C219.508 66.543 219.552 66.8237 219.552 67.1216C219.552 67.605 219.462 68.0347 219.281 68.4106C219.105 68.7866 218.864 69.104 218.556 69.3628C218.253 69.6167 217.897 69.812 217.487 69.9487C217.077 70.0806 216.637 70.1465 216.168 70.1465C215.69 70.1465 215.243 70.0806 214.828 69.9487C214.418 69.8169 214.059 69.624 213.751 69.3701C213.449 69.1113 213.209 68.7939 213.034 68.418C212.858 68.042 212.77 67.6099 212.77 67.1216C212.77 66.8237 212.812 66.543 212.895 66.2793C212.978 66.0107 213.097 65.7666 213.253 65.5469C213.41 65.3223 213.598 65.1221 213.817 64.9463C214.037 64.7705 214.284 64.624 214.557 64.5068C214.323 64.3896 214.11 64.2505 213.92 64.0894C213.729 63.9233 213.568 63.7402 213.437 63.54C213.305 63.335 213.202 63.1128 213.129 62.8735C213.056 62.6343 213.019 62.3828 213.019 62.1191C213.019 61.6553 213.097 61.2427 213.253 60.8813C213.41 60.5151 213.625 60.2075 213.898 59.9585C214.176 59.7095 214.506 59.519 214.887 59.3872C215.272 59.2554 215.692 59.1895 216.146 59.1895C216.596 59.1895 217.013 59.2554 217.399 59.3872C217.785 59.519 218.119 59.7095 218.402 59.9585C218.686 60.2075 218.908 60.5151 219.069 60.8813C219.23 61.2427 219.311 61.6553 219.311 62.1191ZM218.197 67.0923C218.197 66.7944 218.146 66.521 218.043 66.272C217.946 66.0229 217.807 65.8105 217.626 65.6348C217.445 65.4541 217.228 65.3149 216.974 65.2173C216.725 65.1196 216.452 65.0708 216.154 65.0708C215.846 65.0708 215.568 65.1196 215.319 65.2173C215.07 65.3149 214.857 65.4541 214.682 65.6348C214.506 65.8105 214.369 66.0229 214.271 66.272C214.179 66.521 214.132 66.7944 214.132 67.0923C214.132 67.3999 214.179 67.6758 214.271 67.9199C214.369 68.1592 214.506 68.3618 214.682 68.5278C214.857 68.6938 215.07 68.8208 215.319 68.9087C215.573 68.9966 215.856 69.0405 216.168 69.0405C216.466 69.0405 216.74 68.9966 216.989 68.9087C217.238 68.8208 217.45 68.6938 217.626 68.5278C217.807 68.3618 217.946 68.1592 218.043 67.9199C218.146 67.6758 218.197 67.3999 218.197 67.0923ZM217.948 62.1411C217.948 61.8726 217.902 61.626 217.809 61.4014C217.721 61.1768 217.597 60.9839 217.436 60.8228C217.279 60.6567 217.091 60.5298 216.872 60.4419C216.652 60.3491 216.41 60.3027 216.146 60.3027C215.883 60.3027 215.644 60.3467 215.429 60.4346C215.214 60.5176 215.028 60.6396 214.872 60.8008C214.716 60.9619 214.594 61.1572 214.506 61.3867C214.423 61.6113 214.381 61.8628 214.381 62.1411C214.381 62.4194 214.423 62.6709 214.506 62.8955C214.594 63.1152 214.716 63.3057 214.872 63.4668C215.033 63.623 215.221 63.7451 215.436 63.833C215.656 63.916 215.897 63.9575 216.161 63.9575C216.42 63.9575 216.659 63.916 216.879 63.833C217.099 63.7451 217.287 63.623 217.443 63.4668C217.604 63.3057 217.729 63.1128 217.816 62.8882C217.904 62.6636 217.948 62.4146 217.948 62.1411ZM228.319 62.1191C228.314 62.6514 228.17 63.125 227.887 63.54C227.604 63.9551 227.226 64.2798 226.752 64.5142C227.025 64.6313 227.272 64.7778 227.492 64.9536C227.716 65.1245 227.907 65.3223 228.063 65.5469C228.224 65.7715 228.346 66.0156 228.429 66.2793C228.517 66.543 228.561 66.8237 228.561 67.1216C228.561 67.605 228.471 68.0347 228.29 68.4106C228.114 68.7866 227.873 69.104 227.565 69.3628C227.262 69.6167 226.906 69.812 226.496 69.9487C226.085 70.0806 225.646 70.1465 225.177 70.1465C224.699 70.1465 224.252 70.0806 223.837 69.9487C223.427 69.8169 223.068 69.624 222.76 69.3701C222.458 69.1113 222.218 68.7939 222.042 68.418C221.867 68.042 221.779 67.6099 221.779 67.1216C221.779 66.8237 221.82 66.543 221.903 66.2793C221.986 66.0107 222.106 65.7666 222.262 65.5469C222.418 65.3223 222.606 65.1221 222.826 64.9463C223.046 64.7705 223.292 64.624 223.566 64.5068C223.332 64.3896 223.119 64.2505 222.929 64.0894C222.738 63.9233 222.577 63.7402 222.445 63.54C222.313 63.335 222.211 63.1128 222.138 62.8735C222.064 62.6343 222.028 62.3828 222.028 62.1191C222.028 61.6553 222.106 61.2427 222.262 60.8813C222.418 60.5151 222.633 60.2075 222.907 59.9585C223.185 59.7095 223.515 59.519 223.896 59.3872C224.281 59.2554 224.701 59.1895 225.155 59.1895C225.604 59.1895 226.022 59.2554 226.408 59.3872C226.793 59.519 227.128 59.7095 227.411 59.9585C227.694 60.2075 227.917 60.5151 228.078 60.8813C228.239 61.2427 228.319 61.6553 228.319 62.1191ZM227.206 67.0923C227.206 66.7944 227.155 66.521 227.052 66.272C226.955 66.0229 226.815 65.8105 226.635 65.6348C226.454 65.4541 226.237 65.3149 225.983 65.2173C225.734 65.1196 225.46 65.0708 225.163 65.0708C224.855 65.0708 224.577 65.1196 224.328 65.2173C224.079 65.3149 223.866 65.4541 223.69 65.6348C223.515 65.8105 223.378 66.0229 223.28 66.272C223.188 66.521 223.141 66.7944 223.141 67.0923C223.141 67.3999 223.188 67.6758 223.28 67.9199C223.378 68.1592 223.515 68.3618 223.69 68.5278C223.866 68.6938 224.079 68.8208 224.328 68.9087C224.582 68.9966 224.865 69.0405 225.177 69.0405C225.475 69.0405 225.749 68.9966 225.998 68.9087C226.247 68.8208 226.459 68.6938 226.635 68.5278C226.815 68.3618 226.955 68.1592 227.052 67.9199C227.155 67.6758 227.206 67.3999 227.206 67.0923ZM226.957 62.1411C226.957 61.8726 226.911 61.626 226.818 61.4014C226.73 61.1768 226.605 60.9839 226.444 60.8228C226.288 60.6567 226.1 60.5298 225.88 60.4419C225.661 60.3491 225.419 60.3027 225.155 60.3027C224.892 60.3027 224.652 60.3467 224.438 60.4346C224.223 60.5176 224.037 60.6396 223.881 60.8008C223.725 60.9619 223.603 61.1572 223.515 61.3867C223.432 61.6113 223.39 61.8628 223.39 62.1411C223.39 62.4194 223.432 62.6709 223.515 62.8955C223.603 63.1152 223.725 63.3057 223.881 63.4668C224.042 63.623 224.23 63.7451 224.445 63.833C224.665 63.916 224.906 63.9575 225.17 63.9575C225.429 63.9575 225.668 63.916 225.888 63.833C226.107 63.7451 226.295 63.623 226.452 63.4668C226.613 63.3057 226.737 63.1128 226.825 62.8882C226.913 62.6636 226.957 62.4146 226.957 62.1411ZM234.201 69.6851C234.201 69.9146 234.171 70.1538 234.113 70.4028C234.059 70.6567 233.976 70.9058 233.864 71.1499C233.756 71.3989 233.625 71.6357 233.468 71.8604C233.312 72.085 233.131 72.2852 232.926 72.4609L232.084 71.9995C232.318 71.6577 232.484 71.2939 232.582 70.9082C232.68 70.5225 232.729 70.1221 232.729 69.707V68.396H234.201V69.6851ZM246.315 70H239.328V69.0259L242.821 65.144C243.134 64.7974 243.395 64.4897 243.605 64.2212C243.815 63.9526 243.983 63.7061 244.11 63.4814C244.237 63.252 244.328 63.0371 244.381 62.8369C244.435 62.6318 244.462 62.4219 244.462 62.207C244.462 61.9434 244.418 61.6968 244.33 61.4673C244.247 61.2329 244.123 61.0303 243.957 60.8594C243.795 60.6885 243.598 60.5542 243.363 60.4565C243.134 60.354 242.873 60.3027 242.58 60.3027C242.223 60.3027 241.913 60.354 241.649 60.4565C241.391 60.5591 241.173 60.7056 240.998 60.896C240.827 61.0815 240.697 61.3086 240.609 61.5771C240.526 61.8457 240.485 62.146 240.485 62.478H239.123C239.123 62.0288 239.201 61.6064 239.357 61.2109C239.513 60.8105 239.738 60.4614 240.031 60.1636C240.329 59.8657 240.69 59.6289 241.115 59.4531C241.544 59.2773 242.033 59.1895 242.58 59.1895C243.083 59.1895 243.534 59.2651 243.935 59.4165C244.34 59.563 244.682 59.7681 244.96 60.0317C245.238 60.2954 245.451 60.6079 245.597 60.9692C245.749 61.3306 245.824 61.7236 245.824 62.1484C245.824 62.4658 245.771 62.7808 245.663 63.0933C245.556 63.4009 245.409 63.7061 245.224 64.0088C245.043 64.3115 244.831 64.6118 244.586 64.9097C244.347 65.2026 244.093 65.4956 243.825 65.7886L240.961 68.894H246.315V70ZM256.84 61.2549C256.84 60.9766 256.881 60.7129 256.964 60.4639C257.052 60.21 257.177 59.9878 257.338 59.7974C257.504 59.6069 257.709 59.458 257.953 59.3506C258.197 59.2383 258.478 59.1821 258.795 59.1821C259.118 59.1821 259.401 59.2383 259.645 59.3506C259.894 59.458 260.099 59.6069 260.26 59.7974C260.426 59.9878 260.551 60.21 260.634 60.4639C260.722 60.7129 260.766 60.9766 260.766 61.2549V61.8188C260.766 62.0972 260.722 62.3608 260.634 62.6099C260.551 62.8589 260.426 63.0786 260.26 63.269C260.099 63.4546 259.896 63.6035 259.652 63.7158C259.408 63.8232 259.127 63.877 258.81 63.877C258.493 63.877 258.209 63.8232 257.96 63.7158C257.716 63.6035 257.511 63.4546 257.345 63.269C257.179 63.0786 257.052 62.8589 256.964 62.6099C256.881 62.3608 256.84 62.0972 256.84 61.8188V61.2549ZM257.851 61.8188C257.851 61.9702 257.868 62.1167 257.902 62.2583C257.936 62.395 257.992 62.5195 258.07 62.6318C258.148 62.7393 258.246 62.8271 258.363 62.8955C258.485 62.959 258.634 62.9907 258.81 62.9907C258.981 62.9907 259.125 62.959 259.242 62.8955C259.364 62.8271 259.462 62.7393 259.535 62.6318C259.608 62.5195 259.662 62.395 259.696 62.2583C259.735 62.1167 259.755 61.9702 259.755 61.8188V61.2549C259.755 61.1035 259.735 60.957 259.696 60.8154C259.662 60.6689 259.606 60.542 259.528 60.4346C259.455 60.3223 259.357 60.2344 259.235 60.1709C259.118 60.1025 258.971 60.0684 258.795 60.0684C258.625 60.0684 258.478 60.1025 258.356 60.1709C258.239 60.2344 258.141 60.3223 258.063 60.4346C257.99 60.542 257.936 60.6689 257.902 60.8154C257.868 60.957 257.851 61.1035 257.851 61.2549V61.8188ZM261.242 67.5244C261.242 67.2461 261.283 66.9824 261.366 66.7334C261.454 66.4844 261.581 66.2646 261.747 66.0742C261.913 65.8838 262.118 65.7349 262.362 65.6274C262.606 65.5151 262.887 65.459 263.205 65.459C263.527 65.459 263.81 65.5151 264.054 65.6274C264.298 65.7349 264.503 65.8838 264.669 66.0742C264.835 66.2646 264.96 66.4844 265.043 66.7334C265.131 66.9824 265.175 67.2461 265.175 67.5244V68.0957C265.175 68.374 265.131 68.6377 265.043 68.8867C264.96 69.1357 264.835 69.3555 264.669 69.5459C264.503 69.7314 264.298 69.8804 264.054 69.9927C263.815 70.1001 263.537 70.1538 263.219 70.1538C262.897 70.1538 262.611 70.1001 262.362 69.9927C262.118 69.8804 261.913 69.7314 261.747 69.5459C261.581 69.3555 261.454 69.1357 261.366 68.8867C261.283 68.6377 261.242 68.374 261.242 68.0957V67.5244ZM262.252 68.0957C262.252 68.2471 262.27 68.3936 262.304 68.5352C262.343 68.6768 262.399 68.8037 262.472 68.916C262.55 69.0234 262.65 69.1113 262.772 69.1797C262.895 69.2432 263.043 69.2749 263.219 69.2749C263.39 69.2749 263.534 69.2432 263.651 69.1797C263.773 69.1113 263.871 69.0234 263.944 68.916C264.018 68.8037 264.071 68.6768 264.105 68.5352C264.14 68.3936 264.157 68.2471 264.157 68.0957V67.5244C264.157 67.373 264.14 67.2266 264.105 67.085C264.071 66.9434 264.015 66.8188 263.937 66.7114C263.864 66.5991 263.766 66.5112 263.644 66.4478C263.522 66.3794 263.375 66.3452 263.205 66.3452C263.029 66.3452 262.88 66.3794 262.758 66.4478C262.641 66.5112 262.543 66.5991 262.465 66.7114C262.392 66.8188 262.338 66.9434 262.304 67.085C262.27 67.2266 262.252 67.373 262.252 67.5244V68.0957ZM259.433 68.623L258.62 68.1689L262.772 60.5737L263.585 61.0278L259.433 68.623Z" fill="black"/>
<circle r="7.5" transform="matrix(1 0 0 -1 355.5 246.5)" fill="#00C7A5"/>
<circle r="7.5" transform="matrix(1 0 0 -1 328.5 298.5)" fill="#00C7A5"/>
<circle r="7.5" transform="matrix(1 0 0 -1 301.5 298.5)" fill="#00C7A5"/>
<circle r="7.5" transform="matrix(1 0 0 -1 220.5 272.5)" fill="#00C7A5"/>
<circle r="7.5" transform="matrix(1 0 0 -1 247.5 298.5)" fill="#00C7A5"/>
<circle r="7.5" transform="matrix(1 0 0 -1 247.5 272.5)" fill="#00C7A5"/>
<circle r="7.5" transform="matrix(1 0 0 -1 193.5 272.5)" fill="#00C7A5"/>
<circle r="7.5" transform="matrix(1 0 0 -1 220.5 298.5)" fill="#00C7A5"/>
<circle r="7.5" transform="matrix(1 0 0 -1 193.5 298.5)" fill="#00C7A5"/>
<circle r="7.5" transform="matrix(1 0 0 -1 166.5 272.5)" fill="#00C7A5"/>
<circle r="7.5" transform="matrix(1 0 0 -1 220.5 246.5)" fill="#00C7A5"/>
<circle r="7.5" transform="matrix(1 0 0 -1 247.5 246.5)" fill="#00C7A5"/>
<circle r="7.5" transform="matrix(1 0 0 -1 193.5 246.5)" fill="#00C7A5"/>
<circle r="7.5" transform="matrix(1 0 0 -1 166.5 246.5)" fill="#00C7A5"/>
<circle r="7.5" transform="matrix(1 0 0 -1 140.5 246.5)" fill="#00C7A5"/>
<circle r="7.5" transform="matrix(1 0 0 -1 220.5 220.5)" fill="#00C7A5"/>
<circle r="7.5" transform="matrix(1 0 0 -1 247.5 220.5)" fill="#00C7A5"/>
<circle r="7.5" transform="matrix(1 0 0 -1 193.5 220.5)" fill="#00C7A5"/>
<circle r="7.5" transform="matrix(1 0 0 -1 166.5 220.5)" fill="#00C7A5"/>
<circle r="7.5" transform="matrix(1 0 0 -1 140.5 220.5)" fill="#00C7A5"/>
<circle r="7.5" transform="matrix(1 0 0 -1 112.5 220.5)" fill="#00C7A5"/>
<circle r="7.5" transform="matrix(1 0 0 -1 220.5 194.5)" fill="#00C7A5"/>
<circle r="7.5" transform="matrix(1 0 0 -1 247.5 194.5)" fill="#00C7A5"/>
<circle r="7.5" transform="matrix(1 0 0 -1 193.5 194.5)" fill="#00C7A5"/>
<circle r="7.5" transform="matrix(1 0 0 -1 166.5 194.5)" fill="#00C7A5"/>
<circle r="7.5" transform="matrix(1 0 0 -1 140.5 194.5)" fill="#00C7A5"/>
<circle r="7.5" transform="matrix(1 0 0 -1 112.5 194.5)" fill="#00C7A5"/>
<circle r="7.5" transform="matrix(1 0 0 -1 355.5 220.5)" fill="#00C7A5"/>
<circle r="7.5" transform="matrix(1 0 0 -1 247.5 142.5)" fill="#00C7A5"/>
<circle r="7.5" transform="matrix(1 0 0 -1 355.5 116.5)" fill="#00C7A5"/>
<circle r="7.5" transform="matrix(1 0 0 -1 220.5 142.5)" fill="#00C7A5"/>
<circle r="7.5" transform="matrix(1 0 0 -1 328.5 90.5)" fill="#00C7A5"/>
<circle r="7.5" transform="matrix(1 0 0 -1 355.5 90.5)" fill="#00C7A5"/>
<circle r="7.5" transform="matrix(1 0 0 -1 328.5 64.5)" fill="#00C7A5"/>
<circle r="7.5" transform="matrix(1 0 0 -1 301.5 116.5)" fill="#00C7A5"/>
<circle r="7.5" transform="matrix(1 0 0 -1 328.5 116.5)" fill="#00C7A5"/>
<circle r="7.5" transform="matrix(1 0 0 -1 193.5 142.5)" fill="#00C7A5"/>
<circle r="7.5" transform="matrix(1 0 0 -1 166.5 142.5)" fill="#00C7A5"/>
<circle r="7.5" transform="matrix(1 0 0 -1 301.5 64.5)" fill="#00C7A5"/>
<circle r="7.5" transform="matrix(1 0 0 -1 140.5 298.5)" fill="#00C7A5"/>
<circle r="7.5" transform="matrix(1 0 0 -1 301.5 90.5)" fill="#00C7A5"/>
<circle r="7.5" transform="matrix(1 0 0 -1 166.5 116.5)" fill="#00C7A5"/>
<circle r="7.5" transform="matrix(1 0 0 -1 140.5 142.5)" fill="#00C7A5"/>
<circle r="7.5" transform="matrix(1 0 0 -1 112.5 298.5)" fill="#00C7A5"/>
<circle r="7.5" transform="matrix(1 0 0 -1 328.5 272.5)" fill="#00C7A5"/>
<circle r="7.5" transform="matrix(1 0 0 -1 166.5 64.5)" fill="#00C7A5"/>
<circle r="7.5" transform="matrix(1 0 0 -1 166.5 90.5)" fill="#00C7A5"/>
<circle r="7.5" transform="matrix(1 0 0 -1 140.5 116.5)" fill="#00C7A5"/>
<circle r="7.5" transform="matrix(1 0 0 -1 112.5 142.5)" fill="#00C7A5"/>
<circle r="7.5" transform="matrix(1 0 0 -1 301.5 272.5)" fill="#00C7A5"/>
<circle r="7.5" transform="matrix(1 0 0 -1 301.5 142.5)" fill="#00C7A5"/>
<circle r="7.5" transform="matrix(1 0 0 -1 355.5 142.5)" fill="#00C7A5"/>
<circle r="7.5" transform="matrix(1 0 0 -1 140.5 64.5)" fill="#00C7A5"/>
<circle r="7.5" transform="matrix(1 0 0 -1 140.5 90.5)" fill="#00C7A5"/>
<circle r="7.5" transform="matrix(1 0 0 -1 112.5 64.5)" fill="#00C7A5"/>
<circle r="7.5" transform="matrix(1 0 0 -1 328.5 142.5)" fill="#00C7A5"/>
<circle r="7.5" transform="matrix(1 0 0 -1 274.5 272.5)" fill="#00C7A5"/>
<circle r="7.5" transform="matrix(1 0 0 -1 112.5 116.5)" fill="#00C7A5"/>
<circle r="7.5" transform="matrix(1 0 0 -1 112.5 90.5)" fill="#00C7A5"/>
<circle cx="166.5" cy="298.5" r="7.5" transform="rotate(-180 166.5 298.5)" fill="#00C7A5"/>
<circle cx="140.5" cy="272.5" r="7.5" transform="rotate(-180 140.5 272.5)" fill="#00C7A5"/>
<circle cx="112.5" cy="246.5" r="7.5" transform="rotate(-180 112.5 246.5)" fill="#00C7A5"/>
<circle cx="274.5" cy="298.5" r="7.5" transform="rotate(-180 274.5 298.5)" fill="#00C7A5"/>
<circle r="7.5" transform="matrix(1 0 0 -1 355.5 168.5)" fill="#00C7A5"/>
<circle r="7.5" transform="matrix(1 0 0 -1 220.5 168.5)" fill="#00C7A5"/>
<circle r="7.5" transform="matrix(1 0 0 -1 274.5 220.5)" fill="#00C7A5"/>
<circle r="7.5" transform="matrix(1 0 0 -1 274.5 168.5)" fill="#00C7A5"/>
<circle r="7.5" transform="matrix(1 0 0 -1 274.5 194.5)" fill="#00C7A5"/>
<circle r="7.5" transform="matrix(1 0 0 -1 355.5 64.5)" fill="#00C7A5"/>
<circle r="7.5" transform="matrix(1 0 0 -1 112.5 272.5)" fill="#00C7A5"/>
<circle r="7.5" transform="matrix(1 0 0 -1 355.5 272.5)" fill="#00C7A5"/>
<circle r="7.5" transform="matrix(1 0 0 -1 274.5 246.5)" fill="#00C7A5"/>
<circle r="7.5" transform="matrix(1 0 0 -1 301.5 220.5)" fill="#00C7A5"/>
<circle r="7.5" transform="matrix(1 0 0 -1 301.5 168.5)" fill="#00C7A5"/>
<circle r="7.5" transform="matrix(1 0 0 -1 301.5 194.5)" fill="#00C7A5"/>
<circle r="7.5" transform="matrix(1 0 0 -1 274.5 142.5)" fill="#00C7A5"/>
<circle r="7.5" transform="matrix(1 0 0 -1 328.5 246.5)" fill="#00C7A5"/>
<circle r="7.5" transform="matrix(1 0 0 -1 328.5 194.5)" fill="#00C7A5"/>
<circle r="7.5" transform="matrix(1 0 0 -1 328.5 220.5)" fill="#00C7A5"/>
<circle r="7.5" transform="matrix(1 0 0 -1 328.5 168.5)" fill="#00C7A5"/>
<circle r="7.5" transform="matrix(1 0 0 -1 355.5 298.5)" fill="#00C7A5"/>
<circle r="7.5" transform="matrix(1 0 0 -1 301.5 246.5)" fill="#00C7A5"/>
<circle r="7.5" transform="matrix(1 0 0 -1 247.5 168.5)" fill="#00C7A5"/>
<circle r="7.5" transform="matrix(1 0 0 -1 193.5 168.5)" fill="#00C7A5"/>
<circle r="7.5" transform="matrix(1 0 0 -1 166.5 168.5)" fill="#00C7A5"/>
<circle r="7.5" transform="matrix(1 0 0 -1 140.5 168.5)" fill="#00C7A5"/>
<circle r="7.5" transform="matrix(1 0 0 -1 112.5 168.5)" fill="#00C7A5"/>
<circle r="7.5" transform="matrix(1 0 0 -1 355.5 194.5)" fill="#00C7A5"/>
<path d="M475.761 59.3286V60.5444H475.644C475.194 60.5444 474.792 60.5908 474.435 60.6836C474.083 60.7764 473.773 60.9033 473.505 61.0645C473.236 61.2256 473.004 61.4185 472.809 61.6431C472.619 61.8628 472.46 62.1045 472.333 62.3682C472.206 62.6318 472.108 62.9077 472.04 63.1958C471.972 63.4839 471.928 63.7769 471.908 64.0747C472.035 63.9233 472.182 63.7842 472.348 63.6572C472.514 63.5254 472.692 63.4131 472.882 63.3203C473.078 63.2227 473.285 63.147 473.505 63.0933C473.729 63.0347 473.964 63.0054 474.208 63.0054C474.74 63.0054 475.199 63.1079 475.585 63.313C475.971 63.5132 476.288 63.7793 476.537 64.1113C476.786 64.4434 476.969 64.8193 477.086 65.2393C477.204 65.6592 477.262 66.0864 477.262 66.521C477.262 67.019 477.191 67.4878 477.05 67.9272C476.913 68.3667 476.706 68.7524 476.427 69.0845C476.149 69.4116 475.802 69.6704 475.387 69.8608C474.977 70.0513 474.501 70.1465 473.959 70.1465C473.573 70.1465 473.219 70.0903 472.897 69.978C472.58 69.8657 472.294 69.7144 472.04 69.5239C471.786 69.3286 471.564 69.0991 471.374 68.8354C471.183 68.5718 471.024 68.2886 470.897 67.9858C470.775 67.6831 470.683 67.3682 470.619 67.041C470.556 66.7139 470.524 66.3867 470.524 66.0596V65.4224C470.524 64.9341 470.553 64.4458 470.612 63.9575C470.675 63.4644 470.78 62.9932 470.927 62.5439C471.073 62.0947 471.271 61.6748 471.52 61.2842C471.769 60.8887 472.082 60.5469 472.458 60.2588C472.838 59.9707 473.29 59.7437 473.812 59.5776C474.335 59.4116 474.945 59.3286 475.644 59.3286H475.761ZM473.988 64.1333C473.759 64.1333 473.537 64.1699 473.322 64.2432C473.107 64.3164 472.907 64.4189 472.721 64.5508C472.536 64.6826 472.372 64.8413 472.23 65.0269C472.089 65.2124 471.977 65.4175 471.894 65.6421V66.0962C471.894 66.5649 471.95 66.9824 472.062 67.3486C472.174 67.71 472.326 68.0151 472.516 68.2642C472.707 68.5132 472.926 68.7036 473.175 68.8354C473.424 68.9624 473.686 69.0259 473.959 69.0259C474.276 69.0259 474.557 68.9648 474.801 68.8428C475.045 68.7207 475.25 68.5522 475.417 68.3374C475.587 68.1226 475.714 67.8662 475.797 67.5684C475.885 67.2656 475.929 66.9385 475.929 66.5869C475.929 66.2744 475.89 65.9717 475.812 65.6787C475.734 65.3809 475.614 65.1172 475.453 64.8877C475.292 64.6582 475.089 64.4751 474.845 64.3384C474.601 64.2017 474.315 64.1333 473.988 64.1333ZM478.822 61.2549C478.822 60.9766 478.864 60.7129 478.947 60.4639C479.035 60.21 479.159 59.9878 479.32 59.7974C479.486 59.6069 479.691 59.458 479.936 59.3506C480.18 59.2383 480.46 59.1821 480.778 59.1821C481.1 59.1821 481.383 59.2383 481.627 59.3506C481.876 59.458 482.082 59.6069 482.243 59.7974C482.409 59.9878 482.533 60.21 482.616 60.4639C482.704 60.7129 482.748 60.9766 482.748 61.2549V61.8188C482.748 62.0972 482.704 62.3608 482.616 62.6099C482.533 62.8589 482.409 63.0786 482.243 63.269C482.082 63.4546 481.879 63.6035 481.635 63.7158C481.391 63.8232 481.11 63.877 480.792 63.877C480.475 63.877 480.192 63.8232 479.943 63.7158C479.699 63.6035 479.494 63.4546 479.328 63.269C479.162 63.0786 479.035 62.8589 478.947 62.6099C478.864 62.3608 478.822 62.0972 478.822 61.8188V61.2549ZM479.833 61.8188C479.833 61.9702 479.85 62.1167 479.884 62.2583C479.918 62.395 479.975 62.5195 480.053 62.6318C480.131 62.7393 480.229 62.8271 480.346 62.8955C480.468 62.959 480.617 62.9907 480.792 62.9907C480.963 62.9907 481.107 62.959 481.225 62.8955C481.347 62.8271 481.444 62.7393 481.518 62.6318C481.591 62.5195 481.645 62.395 481.679 62.2583C481.718 62.1167 481.737 61.9702 481.737 61.8188V61.2549C481.737 61.1035 481.718 60.957 481.679 60.8154C481.645 60.6689 481.588 60.542 481.51 60.4346C481.437 60.3223 481.339 60.2344 481.217 60.1709C481.1 60.1025 480.954 60.0684 480.778 60.0684C480.607 60.0684 480.46 60.1025 480.338 60.1709C480.221 60.2344 480.124 60.3223 480.045 60.4346C479.972 60.542 479.918 60.6689 479.884 60.8154C479.85 60.957 479.833 61.1035 479.833 61.2549V61.8188ZM483.224 67.5244C483.224 67.2461 483.266 66.9824 483.349 66.7334C483.437 66.4844 483.563 66.2646 483.729 66.0742C483.896 65.8838 484.101 65.7349 484.345 65.6274C484.589 65.5151 484.87 65.459 485.187 65.459C485.509 65.459 485.792 65.5151 486.037 65.6274C486.281 65.7349 486.486 65.8838 486.652 66.0742C486.818 66.2646 486.942 66.4844 487.025 66.7334C487.113 66.9824 487.157 67.2461 487.157 67.5244V68.0957C487.157 68.374 487.113 68.6377 487.025 68.8867C486.942 69.1357 486.818 69.3555 486.652 69.5459C486.486 69.7314 486.281 69.8804 486.037 69.9927C485.797 70.1001 485.519 70.1538 485.202 70.1538C484.879 70.1538 484.594 70.1001 484.345 69.9927C484.101 69.8804 483.896 69.7314 483.729 69.5459C483.563 69.3555 483.437 69.1357 483.349 68.8867C483.266 68.6377 483.224 68.374 483.224 68.0957V67.5244ZM484.235 68.0957C484.235 68.2471 484.252 68.3936 484.286 68.5352C484.325 68.6768 484.381 68.8037 484.455 68.916C484.533 69.0234 484.633 69.1113 484.755 69.1797C484.877 69.2432 485.026 69.2749 485.202 69.2749C485.373 69.2749 485.517 69.2432 485.634 69.1797C485.756 69.1113 485.854 69.0234 485.927 68.916C486 68.8037 486.054 68.6768 486.088 68.5352C486.122 68.3936 486.139 68.2471 486.139 68.0957V67.5244C486.139 67.373 486.122 67.2266 486.088 67.085C486.054 66.9434 485.998 66.8188 485.919 66.7114C485.846 66.5991 485.749 66.5112 485.626 66.4478C485.504 66.3794 485.358 66.3452 485.187 66.3452C485.011 66.3452 484.862 66.3794 484.74 66.4478C484.623 66.5112 484.525 66.5991 484.447 66.7114C484.374 66.8188 484.32 66.9434 484.286 67.085C484.252 67.2266 484.235 67.373 484.235 67.5244V68.0957ZM481.415 68.623L480.602 68.1689L484.755 60.5737L485.568 61.0278L481.415 68.623Z" fill="black"/>
<circle cx="492.5" cy="90.5" r="7.5" fill="#8D75F3"/>
<circle cx="492.5" cy="142.5" r="7.5" fill="#8D75F3"/>
<circle cx="465.5" cy="90.5" r="7.5" fill="#8D75F3"/>
<circle cx="465.5" cy="116.5" r="7.5" fill="#8D75F3"/>
<circle cx="492.5" cy="116.5" r="7.5" fill="#8D75F3"/>
<circle cx="465.5" cy="142.5" r="7.5" fill="#8D75F3"/>
<path d="M717.25 69.4185H718.737V70.5244H717.25V73H715.895V70.5244H711.032V69.7261L715.807 62.3359H717.25V69.4185ZM712.533 69.4185H715.895V64.1377L715.675 64.5479L712.533 69.4185ZM724.201 72.6851C724.201 72.9146 724.171 73.1538 724.113 73.4028C724.059 73.6567 723.976 73.9058 723.864 74.1499C723.756 74.3989 723.625 74.6357 723.468 74.8604C723.312 75.085 723.131 75.2852 722.926 75.4609L722.084 74.9995C722.318 74.6577 722.484 74.2939 722.582 73.9082C722.68 73.5225 722.729 73.1221 722.729 72.707V71.396H724.201V72.6851ZM736.315 73H729.328V72.0259L732.821 68.144C733.134 67.7974 733.395 67.4897 733.605 67.2212C733.815 66.9526 733.983 66.7061 734.11 66.4814C734.237 66.252 734.328 66.0371 734.381 65.8369C734.435 65.6318 734.462 65.4219 734.462 65.207C734.462 64.9434 734.418 64.6968 734.33 64.4673C734.247 64.2329 734.123 64.0303 733.957 63.8594C733.795 63.6885 733.598 63.5542 733.363 63.4565C733.134 63.354 732.873 63.3027 732.58 63.3027C732.223 63.3027 731.913 63.354 731.649 63.4565C731.391 63.5591 731.173 63.7056 730.998 63.896C730.827 64.0815 730.697 64.3086 730.609 64.5771C730.526 64.8457 730.485 65.146 730.485 65.478H729.123C729.123 65.0288 729.201 64.6064 729.357 64.2109C729.513 63.8105 729.738 63.4614 730.031 63.1636C730.329 62.8657 730.69 62.6289 731.115 62.4531C731.544 62.2773 732.033 62.1895 732.58 62.1895C733.083 62.1895 733.534 62.2651 733.935 62.4165C734.34 62.563 734.682 62.7681 734.96 63.0317C735.238 63.2954 735.451 63.6079 735.597 63.9692C735.749 64.3306 735.824 64.7236 735.824 65.1484C735.824 65.4658 735.771 65.7808 735.663 66.0933C735.556 66.4009 735.409 66.7061 735.224 67.0088C735.043 67.3115 734.831 67.6118 734.586 67.9097C734.347 68.2026 734.093 68.4956 733.825 68.7886L730.961 71.894H736.315V73ZM737.831 64.2549C737.831 63.9766 737.873 63.7129 737.956 63.4639C738.043 63.21 738.168 62.9878 738.329 62.7974C738.495 62.6069 738.7 62.458 738.944 62.3506C739.188 62.2383 739.469 62.1821 739.787 62.1821C740.109 62.1821 740.392 62.2383 740.636 62.3506C740.885 62.458 741.09 62.6069 741.251 62.7974C741.417 62.9878 741.542 63.21 741.625 63.4639C741.713 63.7129 741.757 63.9766 741.757 64.2549V64.8188C741.757 65.0972 741.713 65.3608 741.625 65.6099C741.542 65.8589 741.417 66.0786 741.251 66.269C741.09 66.4546 740.888 66.6035 740.644 66.7158C740.399 66.8232 740.119 66.877 739.801 66.877C739.484 66.877 739.201 66.8232 738.952 66.7158C738.708 66.6035 738.502 66.4546 738.336 66.269C738.17 66.0786 738.043 65.8589 737.956 65.6099C737.873 65.3608 737.831 65.0972 737.831 64.8188V64.2549ZM738.842 64.8188C738.842 64.9702 738.859 65.1167 738.893 65.2583C738.927 65.395 738.983 65.5195 739.062 65.6318C739.14 65.7393 739.237 65.8271 739.354 65.8955C739.477 65.959 739.625 65.9907 739.801 65.9907C739.972 65.9907 740.116 65.959 740.233 65.8955C740.355 65.8271 740.453 65.7393 740.526 65.6318C740.6 65.5195 740.653 65.395 740.688 65.2583C740.727 65.1167 740.746 64.9702 740.746 64.8188V64.2549C740.746 64.1035 740.727 63.957 740.688 63.8154C740.653 63.6689 740.597 63.542 740.519 63.4346C740.446 63.3223 740.348 63.2344 740.226 63.1709C740.109 63.1025 739.962 63.0684 739.787 63.0684C739.616 63.0684 739.469 63.1025 739.347 63.1709C739.23 63.2344 739.132 63.3223 739.054 63.4346C738.981 63.542 738.927 63.6689 738.893 63.8154C738.859 63.957 738.842 64.1035 738.842 64.2549V64.8188ZM742.233 70.5244C742.233 70.2461 742.274 69.9824 742.357 69.7334C742.445 69.4844 742.572 69.2646 742.738 69.0742C742.904 68.8838 743.109 68.7349 743.354 68.6274C743.598 68.5151 743.878 68.459 744.196 68.459C744.518 68.459 744.801 68.5151 745.045 68.6274C745.29 68.7349 745.495 68.8838 745.661 69.0742C745.827 69.2646 745.951 69.4844 746.034 69.7334C746.122 69.9824 746.166 70.2461 746.166 70.5244V71.0957C746.166 71.374 746.122 71.6377 746.034 71.8867C745.951 72.1357 745.827 72.3555 745.661 72.5459C745.495 72.7314 745.29 72.8804 745.045 72.9927C744.806 73.1001 744.528 73.1538 744.21 73.1538C743.888 73.1538 743.603 73.1001 743.354 72.9927C743.109 72.8804 742.904 72.7314 742.738 72.5459C742.572 72.3555 742.445 72.1357 742.357 71.8867C742.274 71.6377 742.233 71.374 742.233 71.0957V70.5244ZM743.244 71.0957C743.244 71.2471 743.261 71.3936 743.295 71.5352C743.334 71.6768 743.39 71.8037 743.463 71.916C743.542 72.0234 743.642 72.1113 743.764 72.1797C743.886 72.2432 744.035 72.2749 744.21 72.2749C744.381 72.2749 744.525 72.2432 744.643 72.1797C744.765 72.1113 744.862 72.0234 744.936 71.916C745.009 71.8037 745.062 71.6768 745.097 71.5352C745.131 71.3936 745.148 71.2471 745.148 71.0957V70.5244C745.148 70.373 745.131 70.2266 745.097 70.085C745.062 69.9434 745.006 69.8188 744.928 69.7114C744.855 69.5991 744.757 69.5112 744.635 69.4478C744.513 69.3794 744.367 69.3452 744.196 69.3452C744.02 69.3452 743.871 69.3794 743.749 69.4478C743.632 69.5112 743.534 69.5991 743.456 69.7114C743.383 69.8188 743.329 69.9434 743.295 70.085C743.261 70.2266 743.244 70.373 743.244 70.5244V71.0957ZM740.424 71.623L739.611 71.1689L743.764 63.5737L744.577 64.0278L740.424 71.623Z" fill="black"/>
<circle cx="711.5" cy="90.5" r="7.5" fill="#6CBAFA"/>
<circle cx="711.5" cy="142.5" r="7.5" fill="#6CBAFA"/>
<circle cx="711.5" cy="116.5" r="7.5" fill="#6CBAFA"/>
<circle cx="738.5" cy="90.5" r="7.5" fill="#6CBAFA"/>
<circle cx="738.5" cy="116.5" r="7.5" fill="url(#paint0_linear)"/>
<path d="M971.151 73H969.796V64.0645L967.006 65.1265V63.8887L971.042 62.3359H971.151V73ZM979.201 72.6851C979.201 72.9146 979.171 73.1538 979.113 73.4028C979.059 73.6567 978.976 73.9058 978.864 74.1499C978.756 74.3989 978.625 74.6357 978.468 74.8604C978.312 75.085 978.131 75.2852 977.926 75.4609L977.084 74.9995C977.318 74.6577 977.484 74.2939 977.582 73.9082C977.68 73.5225 977.729 73.1221 977.729 72.707V71.396H979.201V72.6851ZM989.77 62.3286V63.5444H989.652C989.203 63.5444 988.8 63.5908 988.444 63.6836C988.092 63.7764 987.782 63.9033 987.514 64.0645C987.245 64.2256 987.013 64.4185 986.818 64.6431C986.627 64.8628 986.469 65.1045 986.342 65.3682C986.215 65.6318 986.117 65.9077 986.049 66.1958C985.98 66.4839 985.937 66.7769 985.917 67.0747C986.044 66.9233 986.19 66.7842 986.356 66.6572C986.522 66.5254 986.701 66.4131 986.891 66.3203C987.086 66.2227 987.294 66.147 987.514 66.0933C987.738 66.0347 987.973 66.0054 988.217 66.0054C988.749 66.0054 989.208 66.1079 989.594 66.313C989.979 66.5132 990.297 66.7793 990.546 67.1113C990.795 67.4434 990.978 67.8193 991.095 68.2393C991.212 68.6592 991.271 69.0864 991.271 69.521C991.271 70.019 991.2 70.4878 991.059 70.9272C990.922 71.3667 990.714 71.7524 990.436 72.0845C990.158 72.4116 989.811 72.6704 989.396 72.8608C988.986 73.0513 988.51 73.1465 987.968 73.1465C987.582 73.1465 987.228 73.0903 986.906 72.978C986.588 72.8657 986.303 72.7144 986.049 72.5239C985.795 72.3286 985.573 72.0991 985.382 71.8354C985.192 71.5718 985.033 71.2886 984.906 70.9858C984.784 70.6831 984.691 70.3682 984.628 70.041C984.564 69.7139 984.533 69.3867 984.533 69.0596V68.4224C984.533 67.9341 984.562 67.4458 984.621 66.9575C984.684 66.4644 984.789 65.9932 984.936 65.5439C985.082 65.0947 985.28 64.6748 985.529 64.2842C985.778 63.8887 986.09 63.5469 986.466 63.2588C986.847 62.9707 987.299 62.7437 987.821 62.5776C988.344 62.4116 988.954 62.3286 989.652 62.3286H989.77ZM987.997 67.1333C987.768 67.1333 987.545 67.1699 987.331 67.2432C987.116 67.3164 986.916 67.4189 986.73 67.5508C986.544 67.6826 986.381 67.8413 986.239 68.0269C986.098 68.2124 985.985 68.4175 985.902 68.6421V69.0962C985.902 69.5649 985.958 69.9824 986.071 70.3486C986.183 70.71 986.334 71.0151 986.525 71.2642C986.715 71.5132 986.935 71.7036 987.184 71.8354C987.433 71.9624 987.694 72.0259 987.968 72.0259C988.285 72.0259 988.566 71.9648 988.81 71.8428C989.054 71.7207 989.259 71.5522 989.425 71.3374C989.596 71.1226 989.723 70.8662 989.806 70.5684C989.894 70.2656 989.938 69.9385 989.938 69.5869C989.938 69.2744 989.899 68.9717 989.821 68.6787C989.743 68.3809 989.623 68.1172 989.462 67.8877C989.301 67.6582 989.098 67.4751 988.854 67.3384C988.61 67.2017 988.324 67.1333 987.997 67.1333ZM992.831 64.2549C992.831 63.9766 992.873 63.7129 992.956 63.4639C993.043 63.21 993.168 62.9878 993.329 62.7974C993.495 62.6069 993.7 62.458 993.944 62.3506C994.188 62.2383 994.469 62.1821 994.787 62.1821C995.109 62.1821 995.392 62.2383 995.636 62.3506C995.885 62.458 996.09 62.6069 996.251 62.7974C996.417 62.9878 996.542 63.21 996.625 63.4639C996.713 63.7129 996.757 63.9766 996.757 64.2549V64.8188C996.757 65.0972 996.713 65.3608 996.625 65.6099C996.542 65.8589 996.417 66.0786 996.251 66.269C996.09 66.4546 995.888 66.6035 995.644 66.7158C995.399 66.8232 995.119 66.877 994.801 66.877C994.484 66.877 994.201 66.8232 993.952 66.7158C993.708 66.6035 993.502 66.4546 993.336 66.269C993.17 66.0786 993.043 65.8589 992.956 65.6099C992.873 65.3608 992.831 65.0972 992.831 64.8188V64.2549ZM993.842 64.8188C993.842 64.9702 993.859 65.1167 993.893 65.2583C993.927 65.395 993.983 65.5195 994.062 65.6318C994.14 65.7393 994.237 65.8271 994.354 65.8955C994.477 65.959 994.625 65.9907 994.801 65.9907C994.972 65.9907 995.116 65.959 995.233 65.8955C995.355 65.8271 995.453 65.7393 995.526 65.6318C995.6 65.5195 995.653 65.395 995.688 65.2583C995.727 65.1167 995.746 64.9702 995.746 64.8188V64.2549C995.746 64.1035 995.727 63.957 995.688 63.8154C995.653 63.6689 995.597 63.542 995.519 63.4346C995.446 63.3223 995.348 63.2344 995.226 63.1709C995.109 63.1025 994.962 63.0684 994.787 63.0684C994.616 63.0684 994.469 63.1025 994.347 63.1709C994.23 63.2344 994.132 63.3223 994.054 63.4346C993.981 63.542 993.927 63.6689 993.893 63.8154C993.859 63.957 993.842 64.1035 993.842 64.2549V64.8188ZM997.233 70.5244C997.233 70.2461 997.274 69.9824 997.357 69.7334C997.445 69.4844 997.572 69.2646 997.738 69.0742C997.904 68.8838 998.109 68.7349 998.354 68.6274C998.598 68.5151 998.878 68.459 999.196 68.459C999.518 68.459 999.801 68.5151 1000.05 68.6274C1000.29 68.7349 1000.49 68.8838 1000.66 69.0742C1000.83 69.2646 1000.95 69.4844 1001.03 69.7334C1001.12 69.9824 1001.17 70.2461 1001.17 70.5244V71.0957C1001.17 71.374 1001.12 71.6377 1001.03 71.8867C1000.95 72.1357 1000.83 72.3555 1000.66 72.5459C1000.49 72.7314 1000.29 72.8804 1000.05 72.9927C999.806 73.1001 999.528 73.1538 999.21 73.1538C998.888 73.1538 998.603 73.1001 998.354 72.9927C998.109 72.8804 997.904 72.7314 997.738 72.5459C997.572 72.3555 997.445 72.1357 997.357 71.8867C997.274 71.6377 997.233 71.374 997.233 71.0957V70.5244ZM998.244 71.0957C998.244 71.2471 998.261 71.3936 998.295 71.5352C998.334 71.6768 998.39 71.8037 998.463 71.916C998.542 72.0234 998.642 72.1113 998.764 72.1797C998.886 72.2432 999.035 72.2749 999.21 72.2749C999.381 72.2749 999.525 72.2432 999.643 72.1797C999.765 72.1113 999.862 72.0234 999.936 71.916C1000.01 71.8037 1000.06 71.6768 1000.1 71.5352C1000.13 71.3936 1000.15 71.2471 1000.15 71.0957V70.5244C1000.15 70.373 1000.13 70.2266 1000.1 70.085C1000.06 69.9434 1000.01 69.8188 999.928 69.7114C999.855 69.5991 999.757 69.5112 999.635 69.4478C999.513 69.3794 999.367 69.3452 999.196 69.3452C999.02 69.3452 998.871 69.3794 998.749 69.4478C998.632 69.5112 998.534 69.5991 998.456 69.7114C998.383 69.8188 998.329 69.9434 998.295 70.085C998.261 70.2266 998.244 70.373 998.244 70.5244V71.0957ZM995.424 71.623L994.611 71.1689L998.764 63.5737L999.577 64.0278L995.424 71.623Z" fill="black"/>
<circle cx="978.5" cy="90.5" r="7.5" fill="url(#paint1_linear)"/>
<circle cx="978.5" cy="116.5" r="7.5" fill="#FBC800"/>
<path d="M478.754 260.723V265H477.399V254.336H480.856C481.334 254.346 481.786 254.421 482.211 254.563C482.641 254.705 483.017 254.91 483.339 255.178C483.661 255.447 483.915 255.779 484.101 256.174C484.291 256.57 484.386 257.024 484.386 257.537C484.386 258.049 484.291 258.503 484.101 258.899C483.915 259.29 483.661 259.619 483.339 259.888C483.017 260.156 482.641 260.361 482.211 260.503C481.786 260.645 481.334 260.718 480.856 260.723H478.754ZM478.754 259.609H480.856C481.168 259.604 481.457 259.556 481.72 259.463C481.984 259.365 482.213 259.229 482.409 259.053C482.604 258.877 482.755 258.665 482.863 258.416C482.975 258.162 483.031 257.874 483.031 257.551C483.031 257.229 482.975 256.938 482.863 256.68C482.755 256.421 482.604 256.201 482.409 256.021C482.218 255.84 481.989 255.701 481.72 255.603C481.457 255.505 481.168 255.454 480.856 255.449H478.754V259.609ZM489.784 265.146C489.228 265.146 488.715 265.051 488.246 264.861C487.782 264.67 487.384 264.404 487.052 264.062C486.72 263.721 486.461 263.315 486.276 262.847C486.09 262.378 485.998 261.868 485.998 261.316V261.008C485.998 260.369 486.1 259.797 486.305 259.294C486.51 258.787 486.781 258.359 487.118 258.013C487.46 257.661 487.846 257.393 488.275 257.207C488.71 257.021 489.154 256.929 489.608 256.929C490.18 256.929 490.678 257.029 491.103 257.229C491.532 257.424 491.889 257.698 492.172 258.049C492.455 258.396 492.665 258.806 492.802 259.28C492.943 259.753 493.014 260.266 493.014 260.818V261.426H487.353C487.367 261.787 487.436 262.126 487.558 262.444C487.685 262.761 487.855 263.04 488.07 263.279C488.29 263.513 488.551 263.699 488.854 263.835C489.157 263.972 489.491 264.041 489.857 264.041C490.341 264.041 490.771 263.943 491.146 263.748C491.522 263.552 491.835 263.293 492.084 262.971L492.912 263.616C492.78 263.816 492.614 264.009 492.414 264.194C492.218 264.375 491.991 264.536 491.732 264.678C491.474 264.819 491.181 264.932 490.854 265.015C490.526 265.103 490.17 265.146 489.784 265.146ZM489.608 258.042C489.335 258.042 489.076 258.093 488.832 258.196C488.588 258.293 488.368 258.44 488.173 258.635C487.978 258.826 487.812 259.062 487.675 259.346C487.543 259.624 487.45 259.946 487.396 260.312H491.659V260.21C491.645 259.946 491.593 259.685 491.505 259.426C491.422 259.167 491.298 258.936 491.132 258.73C490.966 258.525 490.756 258.359 490.502 258.232C490.253 258.105 489.955 258.042 489.608 258.042ZM500.485 256.929C500.612 256.929 500.744 256.934 500.88 256.943C501.017 256.948 501.146 256.96 501.269 256.98C501.396 256.995 501.51 257.014 501.613 257.039C501.72 257.063 501.808 257.09 501.876 257.119L501.693 258.445C501.43 258.386 501.178 258.345 500.939 258.32C500.705 258.291 500.458 258.276 500.199 258.276C499.564 258.276 499.049 258.42 498.654 258.708C498.263 258.997 497.975 259.399 497.79 259.917V265H496.427V257.075H497.716L497.782 258.335C498.104 257.9 498.49 257.559 498.939 257.31C499.394 257.056 499.909 256.929 500.485 256.929ZM507.677 264.048C507.921 264.048 508.158 264.009 508.388 263.931C508.622 263.853 508.83 263.745 509.01 263.608C509.191 263.467 509.335 263.303 509.442 263.118C509.555 262.927 509.613 262.722 509.618 262.502H510.9C510.895 262.854 510.802 263.191 510.622 263.513C510.446 263.831 510.209 264.111 509.911 264.355C509.613 264.595 509.271 264.788 508.886 264.934C508.5 265.076 508.097 265.146 507.677 265.146C507.077 265.146 506.552 265.039 506.103 264.824C505.653 264.609 505.277 264.321 504.975 263.96C504.677 263.594 504.452 263.174 504.301 262.7C504.149 262.222 504.074 261.719 504.074 261.191V260.884C504.074 260.361 504.149 259.861 504.301 259.382C504.452 258.904 504.677 258.484 504.975 258.123C505.277 257.756 505.653 257.466 506.103 257.251C506.552 257.036 507.077 256.929 507.677 256.929C508.146 256.929 508.576 257.004 508.966 257.156C509.362 257.302 509.701 257.505 509.984 257.764C510.272 258.018 510.497 258.32 510.658 258.672C510.819 259.023 510.9 259.399 510.9 259.8H509.618C509.613 259.561 509.56 259.336 509.457 259.126C509.359 258.911 509.225 258.723 509.054 258.562C508.883 258.401 508.678 258.274 508.439 258.181C508.205 258.088 507.951 258.042 507.677 258.042C507.257 258.042 506.903 258.127 506.615 258.298C506.332 258.464 506.103 258.684 505.927 258.958C505.751 259.226 505.624 259.529 505.546 259.866C505.473 260.203 505.436 260.542 505.436 260.884V261.191C505.436 261.538 505.473 261.882 505.546 262.224C505.624 262.561 505.749 262.866 505.919 263.14C506.095 263.408 506.325 263.628 506.608 263.799C506.896 263.965 507.252 264.048 507.677 264.048ZM516.811 265.146C516.254 265.146 515.741 265.051 515.272 264.861C514.809 264.67 514.411 264.404 514.079 264.062C513.747 263.721 513.488 263.315 513.302 262.847C513.117 262.378 513.024 261.868 513.024 261.316V261.008C513.024 260.369 513.126 259.797 513.332 259.294C513.537 258.787 513.808 258.359 514.145 258.013C514.486 257.661 514.872 257.393 515.302 257.207C515.736 257.021 516.181 256.929 516.635 256.929C517.206 256.929 517.704 257.029 518.129 257.229C518.559 257.424 518.915 257.698 519.198 258.049C519.481 258.396 519.691 258.806 519.828 259.28C519.97 259.753 520.041 260.266 520.041 260.818V261.426H514.379C514.394 261.787 514.462 262.126 514.584 262.444C514.711 262.761 514.882 263.04 515.097 263.279C515.316 263.513 515.578 263.699 515.88 263.835C516.183 263.972 516.518 264.041 516.884 264.041C517.367 264.041 517.797 263.943 518.173 263.748C518.549 263.552 518.861 263.293 519.11 262.971L519.938 263.616C519.806 263.816 519.64 264.009 519.44 264.194C519.245 264.375 519.018 264.536 518.759 264.678C518.5 264.819 518.207 264.932 517.88 265.015C517.553 265.103 517.196 265.146 516.811 265.146ZM516.635 258.042C516.361 258.042 516.103 258.093 515.858 258.196C515.614 258.293 515.395 258.44 515.199 258.635C515.004 258.826 514.838 259.062 514.701 259.346C514.569 259.624 514.477 259.946 514.423 260.312H518.686V260.21C518.671 259.946 518.62 259.685 518.532 259.426C518.449 259.167 518.324 258.936 518.158 258.73C517.992 258.525 517.782 258.359 517.528 258.232C517.279 258.105 516.981 258.042 516.635 258.042ZM523.534 257.075L523.629 258.247C523.917 257.837 524.271 257.517 524.691 257.288C525.111 257.053 525.58 256.934 526.098 256.929C526.513 256.929 526.889 256.987 527.226 257.104C527.567 257.222 527.858 257.405 528.097 257.654C528.336 257.903 528.52 258.22 528.646 258.606C528.778 258.987 528.844 259.441 528.844 259.968V265H527.489V259.998C527.489 259.646 527.45 259.348 527.372 259.104C527.294 258.86 527.177 258.662 527.021 258.511C526.869 258.359 526.681 258.25 526.457 258.181C526.237 258.113 525.983 258.079 525.695 258.079C525.241 258.079 524.84 258.193 524.494 258.423C524.152 258.647 523.878 258.945 523.673 259.316V265H522.318V257.075H523.534ZM534.535 255.156V257.075H537.553V258.123H534.535V262.429C534.535 262.737 534.574 262.991 534.652 263.191C534.73 263.391 534.838 263.552 534.975 263.674C535.111 263.792 535.268 263.875 535.443 263.923C535.624 263.972 535.814 263.997 536.015 263.997C536.161 263.997 536.312 263.989 536.469 263.975C536.625 263.955 536.776 263.933 536.923 263.909C537.074 263.884 537.213 263.86 537.34 263.835C537.472 263.806 537.58 263.782 537.663 263.762L537.853 264.722C537.741 264.79 537.604 264.851 537.443 264.905C537.282 264.954 537.106 264.995 536.916 265.029C536.725 265.068 536.522 265.098 536.308 265.117C536.098 265.137 535.888 265.146 535.678 265.146C535.326 265.146 534.997 265.098 534.689 265C534.386 264.897 534.123 264.739 533.898 264.524C533.673 264.304 533.495 264.023 533.363 263.682C533.236 263.335 533.173 262.917 533.173 262.429V258.123H531.093V257.075H533.173V255.156H534.535ZM545.543 265C545.49 264.897 545.446 264.771 545.412 264.619C545.382 264.463 545.36 264.302 545.346 264.136C545.209 264.272 545.055 264.402 544.884 264.524C544.718 264.646 544.533 264.753 544.328 264.846C544.127 264.939 543.913 265.012 543.683 265.066C543.454 265.12 543.209 265.146 542.951 265.146C542.531 265.146 542.15 265.085 541.808 264.963C541.471 264.841 541.183 264.678 540.944 264.473C540.709 264.263 540.526 264.016 540.395 263.733C540.268 263.445 540.204 263.135 540.204 262.803C540.204 262.368 540.29 261.987 540.46 261.66C540.636 261.333 540.883 261.062 541.2 260.847C541.518 260.627 541.898 260.464 542.343 260.356C542.792 260.249 543.292 260.195 543.844 260.195H545.324V259.573C545.324 259.333 545.28 259.119 545.192 258.928C545.104 258.738 544.979 258.577 544.818 258.445C544.657 258.308 544.459 258.203 544.225 258.13C543.996 258.057 543.737 258.02 543.449 258.02C543.18 258.02 542.938 258.054 542.724 258.123C542.514 258.191 542.335 258.281 542.189 258.394C542.042 258.506 541.928 258.64 541.845 258.796C541.767 258.948 541.728 259.106 541.728 259.272H540.365C540.37 258.984 540.443 258.701 540.585 258.423C540.731 258.145 540.939 257.896 541.208 257.676C541.481 257.451 541.811 257.271 542.196 257.134C542.587 256.997 543.029 256.929 543.522 256.929C543.971 256.929 544.389 256.985 544.774 257.097C545.16 257.205 545.492 257.371 545.771 257.595C546.054 257.815 546.276 258.091 546.437 258.423C546.598 258.755 546.679 259.143 546.679 259.587V263.271C546.679 263.535 546.703 263.816 546.752 264.114C546.801 264.407 546.869 264.663 546.957 264.883V265H545.543ZM543.148 263.967C543.412 263.967 543.659 263.933 543.888 263.865C544.118 263.796 544.325 263.706 544.511 263.594C544.701 263.481 544.865 263.354 545.001 263.213C545.138 263.066 545.246 262.915 545.324 262.759V261.155H544.064C543.273 261.155 542.658 261.272 542.218 261.506C541.779 261.741 541.559 262.109 541.559 262.612C541.559 262.808 541.591 262.988 541.654 263.154C541.723 263.32 541.823 263.464 541.955 263.586C542.086 263.704 542.252 263.796 542.453 263.865C542.653 263.933 542.885 263.967 543.148 263.967ZM549.096 260.972C549.096 260.381 549.167 259.839 549.308 259.346C549.455 258.848 549.665 258.42 549.938 258.064C550.211 257.708 550.543 257.429 550.934 257.229C551.325 257.029 551.767 256.929 552.26 256.929C552.748 256.929 553.175 257.017 553.542 257.192C553.913 257.363 554.228 257.612 554.486 257.939L554.552 257.075H555.783V264.832C555.783 265.354 555.7 265.818 555.534 266.223C555.373 266.628 555.143 266.973 554.845 267.256C554.552 267.539 554.201 267.754 553.791 267.9C553.38 268.047 552.926 268.12 552.428 268.12C552.223 268.12 551.989 268.096 551.725 268.047C551.461 268.003 551.193 267.927 550.919 267.82C550.651 267.717 550.39 267.578 550.136 267.402C549.887 267.227 549.672 267.009 549.491 266.75L550.194 265.938C550.36 266.138 550.531 266.306 550.707 266.443C550.883 266.584 551.061 266.697 551.242 266.78C551.422 266.863 551.603 266.921 551.784 266.956C551.964 266.995 552.145 267.014 552.326 267.014C552.648 267.014 552.938 266.968 553.197 266.875C553.456 266.782 553.676 266.646 553.856 266.465C554.042 266.289 554.184 266.069 554.281 265.806C554.379 265.542 554.428 265.239 554.428 264.897V264.216C554.164 264.519 553.852 264.751 553.49 264.912C553.134 265.068 552.719 265.146 552.245 265.146C551.762 265.146 551.325 265.044 550.934 264.839C550.543 264.634 550.211 264.351 549.938 263.989C549.669 263.628 549.462 263.203 549.315 262.715C549.169 262.222 549.096 261.692 549.096 261.125V260.972ZM550.451 261.125C550.451 261.511 550.49 261.877 550.568 262.224C550.651 262.571 550.778 262.876 550.949 263.14C551.125 263.403 551.347 263.613 551.615 263.77C551.884 263.921 552.206 263.997 552.582 263.997C552.816 263.997 553.026 263.97 553.212 263.916C553.402 263.857 553.571 263.777 553.717 263.674C553.869 263.572 554.003 263.45 554.12 263.308C554.237 263.167 554.34 263.01 554.428 262.839V259.207C554.34 259.041 554.237 258.889 554.12 258.752C554.003 258.616 553.869 258.499 553.717 258.401C553.566 258.298 553.397 258.22 553.212 258.167C553.026 258.108 552.821 258.079 552.597 258.079C552.216 258.079 551.889 258.157 551.615 258.313C551.347 258.469 551.125 258.682 550.949 258.95C550.778 259.214 550.651 259.521 550.568 259.873C550.49 260.22 550.451 260.586 550.451 260.972V261.125ZM561.854 265.146C561.298 265.146 560.785 265.051 560.316 264.861C559.853 264.67 559.455 264.404 559.123 264.062C558.791 263.721 558.532 263.315 558.346 262.847C558.161 262.378 558.068 261.868 558.068 261.316V261.008C558.068 260.369 558.17 259.797 558.375 259.294C558.581 258.787 558.852 258.359 559.188 258.013C559.53 257.661 559.916 257.393 560.346 257.207C560.78 257.021 561.225 256.929 561.679 256.929C562.25 256.929 562.748 257.029 563.173 257.229C563.603 257.424 563.959 257.698 564.242 258.049C564.525 258.396 564.735 258.806 564.872 259.28C565.014 259.753 565.084 260.266 565.084 260.818V261.426H559.423C559.438 261.787 559.506 262.126 559.628 262.444C559.755 262.761 559.926 263.04 560.141 263.279C560.36 263.513 560.622 263.699 560.924 263.835C561.227 263.972 561.562 264.041 561.928 264.041C562.411 264.041 562.841 263.943 563.217 263.748C563.593 263.552 563.905 263.293 564.154 262.971L564.982 263.616C564.85 263.816 564.684 264.009 564.484 264.194C564.289 264.375 564.062 264.536 563.803 264.678C563.544 264.819 563.251 264.932 562.924 265.015C562.597 265.103 562.24 265.146 561.854 265.146ZM561.679 258.042C561.405 258.042 561.146 258.093 560.902 258.196C560.658 258.293 560.438 258.44 560.243 258.635C560.048 258.826 559.882 259.062 559.745 259.346C559.613 259.624 559.521 259.946 559.467 260.312H563.729V260.21C563.715 259.946 563.664 259.685 563.576 259.426C563.493 259.167 563.368 258.936 563.202 258.73C563.036 258.525 562.826 258.359 562.572 258.232C562.323 258.105 562.025 258.042 561.679 258.042ZM575.99 260.964C575.99 260.393 576.073 259.863 576.239 259.375C576.405 258.882 576.642 258.455 576.95 258.093C577.262 257.732 577.641 257.449 578.085 257.244C578.529 257.034 579.03 256.929 579.586 256.929C580.148 256.929 580.651 257.034 581.095 257.244C581.544 257.449 581.923 257.732 582.23 258.093C582.543 258.455 582.782 258.882 582.948 259.375C583.114 259.863 583.197 260.393 583.197 260.964V261.125C583.197 261.697 583.114 262.227 582.948 262.715C582.782 263.203 582.543 263.628 582.23 263.989C581.923 264.351 581.547 264.634 581.103 264.839C580.658 265.044 580.158 265.146 579.601 265.146C579.04 265.146 578.534 265.044 578.085 264.839C577.641 264.634 577.262 264.351 576.95 263.989C576.642 263.628 576.405 263.203 576.239 262.715C576.073 262.227 575.99 261.697 575.99 261.125V260.964ZM577.345 261.125C577.345 261.516 577.392 261.89 577.484 262.246C577.577 262.598 577.716 262.908 577.902 263.176C578.092 263.445 578.329 263.657 578.612 263.813C578.896 263.97 579.225 264.048 579.601 264.048C579.972 264.048 580.297 263.97 580.575 263.813C580.858 263.657 581.093 263.445 581.278 263.176C581.469 262.908 581.61 262.598 581.703 262.246C581.796 261.89 581.842 261.516 581.842 261.125V260.964C581.842 260.579 581.793 260.21 581.696 259.858C581.603 259.502 581.461 259.189 581.271 258.921C581.085 258.652 580.851 258.44 580.568 258.284C580.29 258.123 579.962 258.042 579.586 258.042C579.21 258.042 578.883 258.123 578.605 258.284C578.327 258.44 578.092 258.652 577.902 258.921C577.716 259.189 577.577 259.502 577.484 259.858C577.392 260.21 577.345 260.579 577.345 260.964V261.125ZM587.401 265V258.123H585.219V257.075H587.401V256.519C587.401 256.011 587.475 255.566 587.621 255.186C587.772 254.8 587.982 254.478 588.251 254.219C588.524 253.96 588.852 253.765 589.232 253.633C589.613 253.501 590.038 253.435 590.507 253.435C590.829 253.435 591.142 253.462 591.444 253.516C591.752 253.569 592.067 253.638 592.389 253.721L592.228 254.841C592.028 254.773 591.793 254.714 591.525 254.666C591.261 254.612 590.978 254.585 590.675 254.585C590.041 254.59 589.562 254.751 589.24 255.068C588.922 255.386 588.764 255.869 588.764 256.519V257.075H591.818V258.123H588.764V265H587.401ZM603.148 260.972C603.148 260.381 603.219 259.839 603.361 259.346C603.507 258.848 603.717 258.42 603.991 258.064C604.264 257.708 604.596 257.429 604.987 257.229C605.377 257.029 605.819 256.929 606.312 256.929C606.801 256.929 607.228 257.017 607.594 257.192C607.965 257.363 608.28 257.612 608.539 257.939L608.605 257.075H609.835V264.832C609.835 265.354 609.752 265.818 609.586 266.223C609.425 266.628 609.196 266.973 608.898 267.256C608.605 267.539 608.253 267.754 607.843 267.9C607.433 268.047 606.979 268.12 606.481 268.12C606.276 268.12 606.042 268.096 605.778 268.047C605.514 268.003 605.246 267.927 604.972 267.82C604.704 267.717 604.442 267.578 604.188 267.402C603.939 267.227 603.725 267.009 603.544 266.75L604.247 265.938C604.413 266.138 604.584 266.306 604.76 266.443C604.936 266.584 605.114 266.697 605.294 266.78C605.475 266.863 605.656 266.921 605.836 266.956C606.017 266.995 606.198 267.014 606.378 267.014C606.701 267.014 606.991 266.968 607.25 266.875C607.509 266.782 607.729 266.646 607.909 266.465C608.095 266.289 608.236 266.069 608.334 265.806C608.432 265.542 608.48 265.239 608.48 264.897V264.216C608.217 264.519 607.904 264.751 607.543 264.912C607.187 265.068 606.771 265.146 606.298 265.146C605.814 265.146 605.377 265.044 604.987 264.839C604.596 264.634 604.264 264.351 603.991 263.989C603.722 263.628 603.515 263.203 603.368 262.715C603.222 262.222 603.148 261.692 603.148 261.125V260.972ZM604.503 261.125C604.503 261.511 604.542 261.877 604.621 262.224C604.704 262.571 604.831 262.876 605.001 263.14C605.177 263.403 605.399 263.613 605.668 263.77C605.937 263.921 606.259 263.997 606.635 263.997C606.869 263.997 607.079 263.97 607.265 263.916C607.455 263.857 607.624 263.777 607.77 263.674C607.921 263.572 608.056 263.45 608.173 263.308C608.29 263.167 608.393 263.01 608.48 262.839V259.207C608.393 259.041 608.29 258.889 608.173 258.752C608.056 258.616 607.921 258.499 607.77 258.401C607.619 258.298 607.45 258.22 607.265 258.167C607.079 258.108 606.874 258.079 606.649 258.079C606.269 258.079 605.941 258.157 605.668 258.313C605.399 258.469 605.177 258.682 605.001 258.95C604.831 259.214 604.704 259.521 604.621 259.873C604.542 260.22 604.503 260.586 604.503 260.972V261.125ZM617.599 256.929C617.726 256.929 617.858 256.934 617.995 256.943C618.131 256.948 618.261 256.96 618.383 256.98C618.51 256.995 618.625 257.014 618.727 257.039C618.834 257.063 618.922 257.09 618.991 257.119L618.808 258.445C618.544 258.386 618.292 258.345 618.053 258.32C617.819 258.291 617.572 258.276 617.313 258.276C616.679 258.276 616.164 258.42 615.768 258.708C615.377 258.997 615.089 259.399 614.904 259.917V265H613.542V257.075H614.831L614.896 258.335C615.219 257.9 615.604 257.559 616.054 257.31C616.508 257.056 617.023 256.929 617.599 256.929ZM624.916 265.146C624.359 265.146 623.847 265.051 623.378 264.861C622.914 264.67 622.516 264.404 622.184 264.062C621.852 263.721 621.593 263.315 621.408 262.847C621.222 262.378 621.129 261.868 621.129 261.316V261.008C621.129 260.369 621.232 259.797 621.437 259.294C621.642 258.787 621.913 258.359 622.25 258.013C622.592 257.661 622.978 257.393 623.407 257.207C623.842 257.021 624.286 256.929 624.74 256.929C625.312 256.929 625.81 257.029 626.234 257.229C626.664 257.424 627.021 257.698 627.304 258.049C627.587 258.396 627.797 258.806 627.934 259.28C628.075 259.753 628.146 260.266 628.146 260.818V261.426H622.484C622.499 261.787 622.567 262.126 622.689 262.444C622.816 262.761 622.987 263.04 623.202 263.279C623.422 263.513 623.683 263.699 623.986 263.835C624.289 263.972 624.623 264.041 624.989 264.041C625.473 264.041 625.902 263.943 626.278 263.748C626.654 263.552 626.967 263.293 627.216 262.971L628.043 263.616C627.912 263.816 627.746 264.009 627.545 264.194C627.35 264.375 627.123 264.536 626.864 264.678C626.605 264.819 626.312 264.932 625.985 265.015C625.658 265.103 625.302 265.146 624.916 265.146ZM624.74 258.042C624.467 258.042 624.208 258.093 623.964 258.196C623.72 258.293 623.5 258.44 623.305 258.635C623.109 258.826 622.943 259.062 622.807 259.346C622.675 259.624 622.582 259.946 622.528 260.312H626.791V260.21C626.776 259.946 626.725 259.685 626.637 259.426C626.554 259.167 626.43 258.936 626.264 258.73C626.098 258.525 625.888 258.359 625.634 258.232C625.385 258.105 625.087 258.042 624.74 258.042ZM633.925 265.146C633.368 265.146 632.855 265.051 632.387 264.861C631.923 264.67 631.525 264.404 631.193 264.062C630.861 263.721 630.602 263.315 630.417 262.847C630.231 262.378 630.138 261.868 630.138 261.316V261.008C630.138 260.369 630.241 259.797 630.446 259.294C630.651 258.787 630.922 258.359 631.259 258.013C631.601 257.661 631.986 257.393 632.416 257.207C632.851 257.021 633.295 256.929 633.749 256.929C634.32 256.929 634.818 257.029 635.243 257.229C635.673 257.424 636.029 257.698 636.312 258.049C636.596 258.396 636.806 258.806 636.942 259.28C637.084 259.753 637.155 260.266 637.155 260.818V261.426H631.493C631.508 261.787 631.576 262.126 631.698 262.444C631.825 262.761 631.996 263.04 632.211 263.279C632.431 263.513 632.692 263.699 632.995 263.835C633.297 263.972 633.632 264.041 633.998 264.041C634.481 264.041 634.911 263.943 635.287 263.748C635.663 263.552 635.976 263.293 636.225 262.971L637.052 263.616C636.92 263.816 636.754 264.009 636.554 264.194C636.359 264.375 636.132 264.536 635.873 264.678C635.614 264.819 635.321 264.932 634.994 265.015C634.667 265.103 634.311 265.146 633.925 265.146ZM633.749 258.042C633.476 258.042 633.217 258.093 632.973 258.196C632.729 258.293 632.509 258.44 632.313 258.635C632.118 258.826 631.952 259.062 631.815 259.346C631.684 259.624 631.591 259.946 631.537 260.312H635.8V260.21C635.785 259.946 635.734 259.685 635.646 259.426C635.563 259.167 635.438 258.936 635.272 258.73C635.106 258.525 634.896 258.359 634.643 258.232C634.394 258.105 634.096 258.042 633.749 258.042ZM640.648 257.075L640.744 258.247C641.032 257.837 641.386 257.517 641.806 257.288C642.226 257.053 642.694 256.934 643.212 256.929C643.627 256.929 644.003 256.987 644.34 257.104C644.682 257.222 644.972 257.405 645.211 257.654C645.451 257.903 645.634 258.22 645.761 258.606C645.893 258.987 645.958 259.441 645.958 259.968V265H644.604V259.998C644.604 259.646 644.564 259.348 644.486 259.104C644.408 258.86 644.291 258.662 644.135 258.511C643.983 258.359 643.795 258.25 643.571 258.181C643.351 258.113 643.097 258.079 642.809 258.079C642.355 258.079 641.955 258.193 641.608 258.423C641.266 258.647 640.993 258.945 640.788 259.316V265H639.433V257.075H640.648ZM649.796 258.254C650.08 257.839 650.429 257.517 650.844 257.288C651.259 257.053 651.725 256.934 652.243 256.929C652.658 256.929 653.034 256.99 653.371 257.112C653.712 257.229 654.003 257.415 654.242 257.668C654.481 257.922 654.665 258.245 654.792 258.635C654.923 259.021 654.989 259.48 654.989 260.012V265H653.634V259.998C653.634 259.348 653.478 258.865 653.166 258.547C652.858 258.23 652.416 258.074 651.84 258.079C651.405 258.079 651.01 258.186 650.653 258.401C650.302 258.611 650.016 258.892 649.796 259.243V265H648.441V253.75H649.796V258.254ZM657.069 260.964C657.069 260.393 657.152 259.863 657.318 259.375C657.484 258.882 657.721 258.455 658.029 258.093C658.341 257.732 658.72 257.449 659.164 257.244C659.608 257.034 660.109 256.929 660.666 256.929C661.227 256.929 661.73 257.034 662.174 257.244C662.624 257.449 663.002 257.732 663.31 258.093C663.622 258.455 663.861 258.882 664.027 259.375C664.193 259.863 664.276 260.393 664.276 260.964V261.125C664.276 261.697 664.193 262.227 664.027 262.715C663.861 263.203 663.622 263.628 663.31 263.989C663.002 264.351 662.626 264.634 662.182 264.839C661.737 265.044 661.237 265.146 660.68 265.146C660.119 265.146 659.613 265.044 659.164 264.839C658.72 264.634 658.341 264.351 658.029 263.989C657.721 263.628 657.484 263.203 657.318 262.715C657.152 262.227 657.069 261.697 657.069 261.125V260.964ZM658.424 261.125C658.424 261.516 658.471 261.89 658.563 262.246C658.656 262.598 658.795 262.908 658.981 263.176C659.171 263.445 659.408 263.657 659.691 263.813C659.975 263.97 660.304 264.048 660.68 264.048C661.051 264.048 661.376 263.97 661.654 263.813C661.938 263.657 662.172 263.445 662.357 263.176C662.548 262.908 662.689 262.598 662.782 262.246C662.875 261.89 662.921 261.516 662.921 261.125V260.964C662.921 260.579 662.873 260.21 662.775 259.858C662.682 259.502 662.541 259.189 662.35 258.921C662.165 258.652 661.93 258.44 661.647 258.284C661.369 258.123 661.042 258.042 660.666 258.042C660.29 258.042 659.962 258.123 659.684 258.284C659.406 258.44 659.171 258.652 658.981 258.921C658.795 259.189 658.656 259.502 658.563 259.858C658.471 260.21 658.424 260.579 658.424 260.964V261.125ZM671.601 263.909C671.337 264.299 671.007 264.604 670.612 264.824C670.216 265.039 669.76 265.146 669.242 265.146C668.827 265.146 668.451 265.083 668.114 264.956C667.777 264.824 667.489 264.622 667.25 264.348C667.011 264.075 666.825 263.728 666.693 263.308C666.566 262.883 666.503 262.375 666.503 261.785V257.075H667.858V261.799C667.858 262.229 667.892 262.585 667.96 262.869C668.029 263.152 668.131 263.379 668.268 263.55C668.405 263.716 668.571 263.833 668.766 263.901C668.966 263.97 669.196 264.004 669.455 264.004C670.006 264.004 670.451 263.892 670.788 263.667C671.129 263.442 671.383 263.14 671.549 262.759V257.075H672.912V265H671.681L671.601 263.909ZM680.734 262.898C680.734 262.737 680.702 262.593 680.639 262.466C680.575 262.334 680.468 262.214 680.316 262.107C680.165 262 679.965 261.902 679.716 261.814C679.467 261.721 679.157 261.638 678.786 261.565C678.332 261.472 677.917 261.36 677.541 261.228C677.169 261.096 676.85 260.94 676.581 260.759C676.317 260.574 676.112 260.359 675.966 260.115C675.819 259.866 675.746 259.578 675.746 259.25C675.746 258.928 675.822 258.628 675.973 258.35C676.125 258.066 676.337 257.82 676.61 257.61C676.884 257.4 677.208 257.234 677.584 257.112C677.965 256.99 678.383 256.929 678.837 256.929C679.325 256.929 679.765 256.992 680.155 257.119C680.546 257.246 680.878 257.422 681.151 257.646C681.425 257.871 681.635 258.135 681.781 258.438C681.933 258.735 682.008 259.058 682.008 259.404H680.653C680.653 259.233 680.609 259.067 680.521 258.906C680.434 258.74 680.312 258.594 680.155 258.467C679.999 258.34 679.809 258.237 679.584 258.159C679.364 258.081 679.115 258.042 678.837 258.042C678.549 258.042 678.295 258.074 678.075 258.137C677.86 258.201 677.68 258.286 677.533 258.394C677.392 258.501 677.284 258.625 677.211 258.767C677.138 258.909 677.101 259.055 677.101 259.207C677.101 259.363 677.13 259.502 677.189 259.624C677.248 259.746 677.348 259.856 677.489 259.954C677.636 260.051 677.829 260.139 678.068 260.217C678.312 260.295 678.62 260.371 678.991 260.444C679.479 260.547 679.916 260.667 680.302 260.803C680.688 260.935 681.012 261.096 681.276 261.287C681.54 261.472 681.74 261.689 681.876 261.938C682.018 262.188 682.089 262.476 682.089 262.803C682.089 263.154 682.008 263.474 681.847 263.762C681.691 264.05 681.471 264.297 681.188 264.502C680.905 264.707 680.565 264.866 680.17 264.978C679.774 265.09 679.342 265.146 678.874 265.146C678.336 265.146 677.858 265.076 677.438 264.934C677.018 264.788 676.662 264.597 676.369 264.363C676.081 264.124 675.858 263.848 675.702 263.535C675.551 263.223 675.475 262.898 675.475 262.561H676.83C676.85 262.839 676.923 263.074 677.05 263.264C677.182 263.455 677.343 263.608 677.533 263.726C677.729 263.843 677.943 263.926 678.178 263.975C678.412 264.023 678.644 264.048 678.874 264.048C679.445 264.048 679.896 263.943 680.229 263.733C680.561 263.523 680.729 263.245 680.734 262.898ZM687.978 265.146C687.421 265.146 686.908 265.051 686.439 264.861C685.976 264.67 685.578 264.404 685.246 264.062C684.914 263.721 684.655 263.315 684.469 262.847C684.284 262.378 684.191 261.868 684.191 261.316V261.008C684.191 260.369 684.293 259.797 684.499 259.294C684.704 258.787 684.975 258.359 685.312 258.013C685.653 257.661 686.039 257.393 686.469 257.207C686.903 257.021 687.348 256.929 687.802 256.929C688.373 256.929 688.871 257.029 689.296 257.229C689.726 257.424 690.082 257.698 690.365 258.049C690.648 258.396 690.858 258.806 690.995 259.28C691.137 259.753 691.208 260.266 691.208 260.818V261.426H685.546C685.561 261.787 685.629 262.126 685.751 262.444C685.878 262.761 686.049 263.04 686.264 263.279C686.483 263.513 686.745 263.699 687.047 263.835C687.35 263.972 687.685 264.041 688.051 264.041C688.534 264.041 688.964 263.943 689.34 263.748C689.716 263.552 690.028 263.293 690.277 262.971L691.105 263.616C690.973 263.816 690.807 264.009 690.607 264.194C690.412 264.375 690.185 264.536 689.926 264.678C689.667 264.819 689.374 264.932 689.047 265.015C688.72 265.103 688.363 265.146 687.978 265.146ZM687.802 258.042C687.528 258.042 687.27 258.093 687.025 258.196C686.781 258.293 686.562 258.44 686.366 258.635C686.171 258.826 686.005 259.062 685.868 259.346C685.736 259.624 685.644 259.946 685.59 260.312H689.853V260.21C689.838 259.946 689.787 259.685 689.699 259.426C689.616 259.167 689.491 258.936 689.325 258.73C689.159 258.525 688.949 258.359 688.695 258.232C688.446 258.105 688.148 258.042 687.802 258.042ZM702.245 260.972C702.245 260.381 702.316 259.839 702.458 259.346C702.604 258.848 702.814 258.42 703.087 258.064C703.361 257.708 703.693 257.429 704.083 257.229C704.474 257.029 704.916 256.929 705.409 256.929C705.897 256.929 706.325 257.017 706.691 257.192C707.062 257.363 707.377 257.612 707.636 257.939L707.702 257.075H708.932V264.832C708.932 265.354 708.849 265.818 708.683 266.223C708.522 266.628 708.292 266.973 707.995 267.256C707.702 267.539 707.35 267.754 706.94 267.9C706.53 268.047 706.076 268.12 705.578 268.12C705.373 268.12 705.138 268.096 704.875 268.047C704.611 268.003 704.342 267.927 704.069 267.82C703.8 267.717 703.539 267.578 703.285 267.402C703.036 267.227 702.821 267.009 702.641 266.75L703.344 265.938C703.51 266.138 703.681 266.306 703.856 266.443C704.032 266.584 704.21 266.697 704.391 266.78C704.572 266.863 704.752 266.921 704.933 266.956C705.114 266.995 705.294 267.014 705.475 267.014C705.797 267.014 706.088 266.968 706.347 266.875C706.605 266.782 706.825 266.646 707.006 266.465C707.191 266.289 707.333 266.069 707.431 265.806C707.528 265.542 707.577 265.239 707.577 264.897V264.216C707.313 264.519 707.001 264.751 706.64 264.912C706.283 265.068 705.868 265.146 705.395 265.146C704.911 265.146 704.474 265.044 704.083 264.839C703.693 264.634 703.361 264.351 703.087 263.989C702.819 263.628 702.611 263.203 702.465 262.715C702.318 262.222 702.245 261.692 702.245 261.125V260.972ZM703.6 261.125C703.6 261.511 703.639 261.877 703.717 262.224C703.8 262.571 703.927 262.876 704.098 263.14C704.274 263.403 704.496 263.613 704.765 263.77C705.033 263.921 705.355 263.997 705.731 263.997C705.966 263.997 706.176 263.97 706.361 263.916C706.552 263.857 706.72 263.777 706.867 263.674C707.018 263.572 707.152 263.45 707.27 263.308C707.387 263.167 707.489 263.01 707.577 262.839V259.207C707.489 259.041 707.387 258.889 707.27 258.752C707.152 258.616 707.018 258.499 706.867 258.401C706.715 258.298 706.547 258.22 706.361 258.167C706.176 258.108 705.971 258.079 705.746 258.079C705.365 258.079 705.038 258.157 704.765 258.313C704.496 258.469 704.274 258.682 704.098 258.95C703.927 259.214 703.8 259.521 703.717 259.873C703.639 260.22 703.6 260.586 703.6 260.972V261.125ZM716.71 265C716.657 264.897 716.613 264.771 716.579 264.619C716.549 264.463 716.527 264.302 716.513 264.136C716.376 264.272 716.222 264.402 716.051 264.524C715.885 264.646 715.7 264.753 715.495 264.846C715.294 264.939 715.08 265.012 714.85 265.066C714.621 265.12 714.376 265.146 714.118 265.146C713.698 265.146 713.317 265.085 712.975 264.963C712.638 264.841 712.35 264.678 712.111 264.473C711.876 264.263 711.693 264.016 711.562 263.733C711.435 263.445 711.371 263.135 711.371 262.803C711.371 262.368 711.457 261.987 711.627 261.66C711.803 261.333 712.05 261.062 712.367 260.847C712.685 260.627 713.065 260.464 713.51 260.356C713.959 260.249 714.459 260.195 715.011 260.195H716.491V259.573C716.491 259.333 716.447 259.119 716.359 258.928C716.271 258.738 716.146 258.577 715.985 258.445C715.824 258.308 715.626 258.203 715.392 258.13C715.163 258.057 714.904 258.02 714.616 258.02C714.347 258.02 714.105 258.054 713.891 258.123C713.681 258.191 713.502 258.281 713.356 258.394C713.209 258.506 713.095 258.64 713.012 258.796C712.934 258.948 712.895 259.106 712.895 259.272H711.532C711.537 258.984 711.61 258.701 711.752 258.423C711.898 258.145 712.106 257.896 712.375 257.676C712.648 257.451 712.978 257.271 713.363 257.134C713.754 256.997 714.196 256.929 714.689 256.929C715.138 256.929 715.556 256.985 715.941 257.097C716.327 257.205 716.659 257.371 716.938 257.595C717.221 257.815 717.443 258.091 717.604 258.423C717.765 258.755 717.846 259.143 717.846 259.587V263.271C717.846 263.535 717.87 263.816 717.919 264.114C717.968 264.407 718.036 264.663 718.124 264.883V265H716.71ZM714.315 263.967C714.579 263.967 714.826 263.933 715.055 263.865C715.285 263.796 715.492 263.706 715.678 263.594C715.868 263.481 716.032 263.354 716.168 263.213C716.305 263.066 716.413 262.915 716.491 262.759V261.155H715.231C714.44 261.155 713.825 261.272 713.385 261.506C712.946 261.741 712.726 262.109 712.726 262.612C712.726 262.808 712.758 262.988 712.821 263.154C712.89 263.32 712.99 263.464 713.122 263.586C713.253 263.704 713.419 263.796 713.62 263.865C713.82 263.933 714.052 263.967 714.315 263.967ZM725.778 262.898C725.778 262.737 725.746 262.593 725.683 262.466C725.619 262.334 725.512 262.214 725.36 262.107C725.209 262 725.009 261.902 724.76 261.814C724.511 261.721 724.201 261.638 723.83 261.565C723.375 261.472 722.96 261.36 722.584 261.228C722.213 261.096 721.894 260.94 721.625 260.759C721.361 260.574 721.156 260.359 721.01 260.115C720.863 259.866 720.79 259.578 720.79 259.25C720.79 258.928 720.866 258.628 721.017 258.35C721.168 258.066 721.381 257.82 721.654 257.61C721.928 257.4 722.252 257.234 722.628 257.112C723.009 256.99 723.427 256.929 723.881 256.929C724.369 256.929 724.809 256.992 725.199 257.119C725.59 257.246 725.922 257.422 726.195 257.646C726.469 257.871 726.679 258.135 726.825 258.438C726.977 258.735 727.052 259.058 727.052 259.404H725.697C725.697 259.233 725.653 259.067 725.565 258.906C725.478 258.74 725.355 258.594 725.199 258.467C725.043 258.34 724.853 258.237 724.628 258.159C724.408 258.081 724.159 258.042 723.881 258.042C723.593 258.042 723.339 258.074 723.119 258.137C722.904 258.201 722.724 258.286 722.577 258.394C722.436 258.501 722.328 258.625 722.255 258.767C722.182 258.909 722.145 259.055 722.145 259.207C722.145 259.363 722.174 259.502 722.233 259.624C722.292 259.746 722.392 259.856 722.533 259.954C722.68 260.051 722.873 260.139 723.112 260.217C723.356 260.295 723.664 260.371 724.035 260.444C724.523 260.547 724.96 260.667 725.346 260.803C725.731 260.935 726.056 261.096 726.32 261.287C726.583 261.472 726.784 261.689 726.92 261.938C727.062 262.188 727.133 262.476 727.133 262.803C727.133 263.154 727.052 263.474 726.891 263.762C726.735 264.05 726.515 264.297 726.232 264.502C725.949 264.707 725.609 264.866 725.214 264.978C724.818 265.09 724.386 265.146 723.917 265.146C723.38 265.146 722.902 265.076 722.482 264.934C722.062 264.788 721.706 264.597 721.413 264.363C721.125 264.124 720.902 263.848 720.746 263.535C720.595 263.223 720.519 262.898 720.519 262.561H721.874C721.894 262.839 721.967 263.074 722.094 263.264C722.226 263.455 722.387 263.608 722.577 263.726C722.772 263.843 722.987 263.926 723.222 263.975C723.456 264.023 723.688 264.048 723.917 264.048C724.489 264.048 724.94 263.943 725.272 263.733C725.604 263.523 725.773 263.245 725.778 262.898ZM733.021 265.146C732.465 265.146 731.952 265.051 731.483 264.861C731.02 264.67 730.622 264.404 730.29 264.062C729.958 263.721 729.699 263.315 729.513 262.847C729.328 262.378 729.235 261.868 729.235 261.316V261.008C729.235 260.369 729.337 259.797 729.542 259.294C729.748 258.787 730.019 258.359 730.355 258.013C730.697 257.661 731.083 257.393 731.513 257.207C731.947 257.021 732.392 256.929 732.846 256.929C733.417 256.929 733.915 257.029 734.34 257.229C734.77 257.424 735.126 257.698 735.409 258.049C735.692 258.396 735.902 258.806 736.039 259.28C736.181 259.753 736.251 260.266 736.251 260.818V261.426H730.59C730.604 261.787 730.673 262.126 730.795 262.444C730.922 262.761 731.093 263.04 731.308 263.279C731.527 263.513 731.789 263.699 732.091 263.835C732.394 263.972 732.729 264.041 733.095 264.041C733.578 264.041 734.008 263.943 734.384 263.748C734.76 263.552 735.072 263.293 735.321 262.971L736.149 263.616C736.017 263.816 735.851 264.009 735.651 264.194C735.456 264.375 735.229 264.536 734.97 264.678C734.711 264.819 734.418 264.932 734.091 265.015C733.764 265.103 733.407 265.146 733.021 265.146ZM732.846 258.042C732.572 258.042 732.313 258.093 732.069 258.196C731.825 258.293 731.605 258.44 731.41 258.635C731.215 258.826 731.049 259.062 730.912 259.346C730.78 259.624 730.688 259.946 730.634 260.312H734.896V260.21C734.882 259.946 734.831 259.685 734.743 259.426C734.66 259.167 734.535 258.936 734.369 258.73C734.203 258.525 733.993 258.359 733.739 258.232C733.49 258.105 733.192 258.042 732.846 258.042ZM743.795 262.898C743.795 262.737 743.764 262.593 743.7 262.466C743.637 262.334 743.529 262.214 743.378 262.107C743.227 262 743.026 261.902 742.777 261.814C742.528 261.721 742.218 261.638 741.847 261.565C741.393 261.472 740.978 261.36 740.602 261.228C740.231 261.096 739.911 260.94 739.643 260.759C739.379 260.574 739.174 260.359 739.027 260.115C738.881 259.866 738.808 259.578 738.808 259.25C738.808 258.928 738.883 258.628 739.035 258.35C739.186 258.066 739.398 257.82 739.672 257.61C739.945 257.4 740.27 257.234 740.646 257.112C741.027 256.99 741.444 256.929 741.898 256.929C742.387 256.929 742.826 256.992 743.217 257.119C743.607 257.246 743.939 257.422 744.213 257.646C744.486 257.871 744.696 258.135 744.843 258.438C744.994 258.735 745.07 259.058 745.07 259.404H743.715C743.715 259.233 743.671 259.067 743.583 258.906C743.495 258.74 743.373 258.594 743.217 258.467C743.061 258.34 742.87 258.237 742.646 258.159C742.426 258.081 742.177 258.042 741.898 258.042C741.61 258.042 741.356 258.074 741.137 258.137C740.922 258.201 740.741 258.286 740.595 258.394C740.453 258.501 740.346 258.625 740.272 258.767C740.199 258.909 740.163 259.055 740.163 259.207C740.163 259.363 740.192 259.502 740.25 259.624C740.309 259.746 740.409 259.856 740.551 259.954C740.697 260.051 740.89 260.139 741.129 260.217C741.374 260.295 741.681 260.371 742.052 260.444C742.541 260.547 742.978 260.667 743.363 260.803C743.749 260.935 744.074 261.096 744.337 261.287C744.601 261.472 744.801 261.689 744.938 261.938C745.08 262.188 745.15 262.476 745.15 262.803C745.15 263.154 745.07 263.474 744.909 263.762C744.752 264.05 744.533 264.297 744.25 264.502C743.966 264.707 743.627 264.866 743.231 264.978C742.836 265.09 742.404 265.146 741.935 265.146C741.398 265.146 740.919 265.076 740.5 264.934C740.08 264.788 739.723 264.597 739.43 264.363C739.142 264.124 738.92 263.848 738.764 263.535C738.612 263.223 738.537 262.898 738.537 262.561H739.892C739.911 262.839 739.984 263.074 740.111 263.264C740.243 263.455 740.404 263.608 740.595 263.726C740.79 263.843 741.005 263.926 741.239 263.975C741.474 264.023 741.706 264.048 741.935 264.048C742.506 264.048 742.958 263.943 743.29 263.733C743.622 263.523 743.791 263.245 743.795 262.898ZM756.759 257.075H760.81V263.828H763.395V265H756.759V263.828H759.455V258.254H756.759V257.075ZM759.279 254.995C759.279 254.771 759.345 254.583 759.477 254.431C759.613 254.275 759.818 254.197 760.092 254.197C760.36 254.197 760.563 254.275 760.7 254.431C760.836 254.583 760.905 254.771 760.905 254.995C760.905 255.215 760.836 255.398 760.7 255.544C760.563 255.691 760.36 255.764 760.092 255.764C759.818 255.764 759.613 255.691 759.477 255.544C759.345 255.398 759.279 255.215 759.279 254.995ZM766.771 257.075L766.867 258.247C767.155 257.837 767.509 257.517 767.929 257.288C768.349 257.053 768.817 256.934 769.335 256.929C769.75 256.929 770.126 256.987 770.463 257.104C770.805 257.222 771.095 257.405 771.334 257.654C771.574 257.903 771.757 258.22 771.884 258.606C772.016 258.987 772.082 259.441 772.082 259.968V265H770.727V259.998C770.727 259.646 770.688 259.348 770.609 259.104C770.531 258.86 770.414 258.662 770.258 258.511C770.106 258.359 769.918 258.25 769.694 258.181C769.474 258.113 769.22 258.079 768.932 258.079C768.478 258.079 768.078 258.193 767.731 258.423C767.389 258.647 767.116 258.945 766.911 259.316V265H765.556V257.075H766.771ZM783.192 260.964C783.192 260.393 783.275 259.863 783.441 259.375C783.607 258.882 783.844 258.455 784.152 258.093C784.464 257.732 784.843 257.449 785.287 257.244C785.731 257.034 786.232 256.929 786.789 256.929C787.35 256.929 787.853 257.034 788.297 257.244C788.747 257.449 789.125 257.732 789.433 258.093C789.745 258.455 789.984 258.882 790.15 259.375C790.316 259.863 790.399 260.393 790.399 260.964V261.125C790.399 261.697 790.316 262.227 790.15 262.715C789.984 263.203 789.745 263.628 789.433 263.989C789.125 264.351 788.749 264.634 788.305 264.839C787.86 265.044 787.36 265.146 786.803 265.146C786.242 265.146 785.736 265.044 785.287 264.839C784.843 264.634 784.464 264.351 784.152 263.989C783.844 263.628 783.607 263.203 783.441 262.715C783.275 262.227 783.192 261.697 783.192 261.125V260.964ZM784.547 261.125C784.547 261.516 784.594 261.89 784.687 262.246C784.779 262.598 784.918 262.908 785.104 263.176C785.294 263.445 785.531 263.657 785.814 263.813C786.098 263.97 786.427 264.048 786.803 264.048C787.174 264.048 787.499 263.97 787.777 263.813C788.061 263.657 788.295 263.445 788.48 263.176C788.671 262.908 788.812 262.598 788.905 262.246C788.998 261.89 789.044 261.516 789.044 261.125V260.964C789.044 260.579 788.996 260.21 788.898 259.858C788.805 259.502 788.664 259.189 788.473 258.921C788.288 258.652 788.053 258.44 787.77 258.284C787.492 258.123 787.165 258.042 786.789 258.042C786.413 258.042 786.085 258.123 785.807 258.284C785.529 258.44 785.294 258.652 785.104 258.921C784.918 259.189 784.779 259.502 784.687 259.858C784.594 260.21 784.547 260.579 784.547 260.964V261.125ZM797.724 263.909C797.46 264.299 797.13 264.604 796.735 264.824C796.339 265.039 795.883 265.146 795.365 265.146C794.95 265.146 794.574 265.083 794.237 264.956C793.9 264.824 793.612 264.622 793.373 264.348C793.134 264.075 792.948 263.728 792.816 263.308C792.689 262.883 792.626 262.375 792.626 261.785V257.075H793.981V261.799C793.981 262.229 794.015 262.585 794.083 262.869C794.152 263.152 794.254 263.379 794.391 263.55C794.528 263.716 794.694 263.833 794.889 263.901C795.089 263.97 795.319 264.004 795.578 264.004C796.129 264.004 796.574 263.892 796.911 263.667C797.252 263.442 797.506 263.14 797.672 262.759V257.075H799.035V265H797.804L797.724 263.909ZM806.784 256.929C806.911 256.929 807.042 256.934 807.179 256.943C807.316 256.948 807.445 256.96 807.567 256.98C807.694 256.995 807.809 257.014 807.912 257.039C808.019 257.063 808.107 257.09 808.175 257.119L807.992 258.445C807.729 258.386 807.477 258.345 807.238 258.32C807.003 258.291 806.757 258.276 806.498 258.276C805.863 258.276 805.348 258.42 804.953 258.708C804.562 258.997 804.274 259.399 804.088 259.917V265H802.726V257.075H804.015L804.081 258.335C804.403 257.9 804.789 257.559 805.238 257.31C805.692 257.056 806.208 256.929 806.784 256.929ZM824.816 265C824.762 264.897 824.718 264.771 824.684 264.619C824.655 264.463 824.633 264.302 824.618 264.136C824.481 264.272 824.328 264.402 824.157 264.524C823.991 264.646 823.805 264.753 823.6 264.846C823.4 264.939 823.185 265.012 822.956 265.066C822.726 265.12 822.482 265.146 822.223 265.146C821.803 265.146 821.422 265.085 821.081 264.963C820.744 264.841 820.456 264.678 820.216 264.473C819.982 264.263 819.799 264.016 819.667 263.733C819.54 263.445 819.477 263.135 819.477 262.803C819.477 262.368 819.562 261.987 819.733 261.66C819.909 261.333 820.155 261.062 820.473 260.847C820.79 260.627 821.171 260.464 821.615 260.356C822.064 260.249 822.565 260.195 823.117 260.195H824.596V259.573C824.596 259.333 824.552 259.119 824.464 258.928C824.376 258.738 824.252 258.577 824.091 258.445C823.93 258.308 823.732 258.203 823.498 258.13C823.268 258.057 823.009 258.02 822.721 258.02C822.453 258.02 822.211 258.054 821.996 258.123C821.786 258.191 821.608 258.281 821.461 258.394C821.315 258.506 821.2 258.64 821.117 258.796C821.039 258.948 821 259.106 821 259.272H819.638C819.643 258.984 819.716 258.701 819.857 258.423C820.004 258.145 820.211 257.896 820.48 257.676C820.753 257.451 821.083 257.271 821.469 257.134C821.859 256.997 822.301 256.929 822.794 256.929C823.244 256.929 823.661 256.985 824.047 257.097C824.433 257.205 824.765 257.371 825.043 257.595C825.326 257.815 825.548 258.091 825.709 258.423C825.871 258.755 825.951 259.143 825.951 259.587V263.271C825.951 263.535 825.976 263.816 826.024 264.114C826.073 264.407 826.142 264.663 826.229 264.883V265H824.816ZM822.421 263.967C822.685 263.967 822.931 263.933 823.161 263.865C823.39 263.796 823.598 263.706 823.783 263.594C823.974 263.481 824.137 263.354 824.274 263.213C824.411 263.066 824.518 262.915 824.596 262.759V261.155H823.336C822.545 261.155 821.93 261.272 821.491 261.506C821.051 261.741 820.832 262.109 820.832 262.612C820.832 262.808 820.863 262.988 820.927 263.154C820.995 263.32 821.095 263.464 821.227 263.586C821.359 263.704 821.525 263.796 821.725 263.865C821.925 263.933 822.157 263.967 822.421 263.967ZM831.825 255.156V257.075H834.843V258.123H831.825V262.429C831.825 262.737 831.864 262.991 831.942 263.191C832.021 263.391 832.128 263.552 832.265 263.674C832.401 263.792 832.558 263.875 832.733 263.923C832.914 263.972 833.104 263.997 833.305 263.997C833.451 263.997 833.603 263.989 833.759 263.975C833.915 263.955 834.066 263.933 834.213 263.909C834.364 263.884 834.503 263.86 834.63 263.835C834.762 263.806 834.87 263.782 834.953 263.762L835.143 264.722C835.031 264.79 834.894 264.851 834.733 264.905C834.572 264.954 834.396 264.995 834.206 265.029C834.015 265.068 833.812 265.098 833.598 265.117C833.388 265.137 833.178 265.146 832.968 265.146C832.616 265.146 832.287 265.098 831.979 265C831.676 264.897 831.413 264.739 831.188 264.524C830.963 264.304 830.785 264.023 830.653 263.682C830.526 263.335 830.463 262.917 830.463 262.429V258.123H828.383V257.075H830.463V255.156H831.825ZM838.249 257.075L838.285 257.822C838.446 257.544 838.656 257.327 838.915 257.17C839.179 257.014 839.496 256.934 839.867 256.929C840.595 256.929 841.081 257.212 841.325 257.778C841.481 257.524 841.686 257.322 841.94 257.17C842.199 257.014 842.511 256.934 842.877 256.929C843.458 256.929 843.905 257.107 844.218 257.463C844.53 257.82 844.687 258.359 844.687 259.082V265H843.397V259.067C843.397 258.403 843.092 258.074 842.482 258.079C842.321 258.079 842.182 258.101 842.064 258.145C841.947 258.188 841.85 258.25 841.771 258.328C841.693 258.401 841.632 258.489 841.588 258.591C841.544 258.689 841.515 258.792 841.5 258.899V265H840.211V259.06C840.211 258.743 840.141 258.499 839.999 258.328C839.857 258.157 839.633 258.074 839.325 258.079C839.042 258.079 838.822 258.135 838.666 258.247C838.51 258.359 838.395 258.508 838.322 258.694V265H837.033V257.075H838.249ZM846.254 260.964C846.254 260.393 846.337 259.863 846.503 259.375C846.669 258.882 846.906 258.455 847.213 258.093C847.526 257.732 847.904 257.449 848.349 257.244C848.793 257.034 849.293 256.929 849.85 256.929C850.412 256.929 850.915 257.034 851.359 257.244C851.808 257.449 852.187 257.732 852.494 258.093C852.807 258.455 853.046 258.882 853.212 259.375C853.378 259.863 853.461 260.393 853.461 260.964V261.125C853.461 261.697 853.378 262.227 853.212 262.715C853.046 263.203 852.807 263.628 852.494 263.989C852.187 264.351 851.811 264.634 851.366 264.839C850.922 265.044 850.421 265.146 849.865 265.146C849.303 265.146 848.798 265.044 848.349 264.839C847.904 264.634 847.526 264.351 847.213 263.989C846.906 263.628 846.669 263.203 846.503 262.715C846.337 262.227 846.254 261.697 846.254 261.125V260.964ZM847.609 261.125C847.609 261.516 847.655 261.89 847.748 262.246C847.841 262.598 847.98 262.908 848.166 263.176C848.356 263.445 848.593 263.657 848.876 263.813C849.159 263.97 849.489 264.048 849.865 264.048C850.236 264.048 850.561 263.97 850.839 263.813C851.122 263.657 851.356 263.445 851.542 263.176C851.732 262.908 851.874 262.598 851.967 262.246C852.06 261.89 852.106 261.516 852.106 261.125V260.964C852.106 260.579 852.057 260.21 851.959 259.858C851.867 259.502 851.725 259.189 851.535 258.921C851.349 258.652 851.115 258.44 850.832 258.284C850.553 258.123 850.226 258.042 849.85 258.042C849.474 258.042 849.147 258.123 848.869 258.284C848.59 258.44 848.356 258.652 848.166 258.921C847.98 259.189 847.841 259.502 847.748 259.858C847.655 260.21 847.609 260.579 847.609 260.964V261.125ZM860.91 262.898C860.91 262.737 860.878 262.593 860.814 262.466C860.751 262.334 860.644 262.214 860.492 262.107C860.341 262 860.141 261.902 859.892 261.814C859.643 261.721 859.333 261.638 858.961 261.565C858.507 261.472 858.092 261.36 857.716 261.228C857.345 261.096 857.025 260.94 856.757 260.759C856.493 260.574 856.288 260.359 856.142 260.115C855.995 259.866 855.922 259.578 855.922 259.25C855.922 258.928 855.998 258.628 856.149 258.35C856.3 258.066 856.513 257.82 856.786 257.61C857.06 257.4 857.384 257.234 857.76 257.112C858.141 256.99 858.559 256.929 859.013 256.929C859.501 256.929 859.94 256.992 860.331 257.119C860.722 257.246 861.054 257.422 861.327 257.646C861.601 257.871 861.811 258.135 861.957 258.438C862.108 258.735 862.184 259.058 862.184 259.404H860.829C860.829 259.233 860.785 259.067 860.697 258.906C860.609 258.74 860.487 258.594 860.331 258.467C860.175 258.34 859.984 258.237 859.76 258.159C859.54 258.081 859.291 258.042 859.013 258.042C858.725 258.042 858.471 258.074 858.251 258.137C858.036 258.201 857.855 258.286 857.709 258.394C857.567 258.501 857.46 258.625 857.387 258.767C857.313 258.909 857.277 259.055 857.277 259.207C857.277 259.363 857.306 259.502 857.365 259.624C857.423 259.746 857.523 259.856 857.665 259.954C857.812 260.051 858.004 260.139 858.244 260.217C858.488 260.295 858.795 260.371 859.167 260.444C859.655 260.547 860.092 260.667 860.478 260.803C860.863 260.935 861.188 261.096 861.452 261.287C861.715 261.472 861.916 261.689 862.052 261.938C862.194 262.188 862.265 262.476 862.265 262.803C862.265 263.154 862.184 263.474 862.023 263.762C861.867 264.05 861.647 264.297 861.364 264.502C861.081 264.707 860.741 264.866 860.346 264.978C859.95 265.09 859.518 265.146 859.049 265.146C858.512 265.146 858.034 265.076 857.614 264.934C857.194 264.788 856.837 264.597 856.544 264.363C856.256 264.124 856.034 263.848 855.878 263.535C855.727 263.223 855.651 262.898 855.651 262.561H857.006C857.025 262.839 857.099 263.074 857.226 263.264C857.357 263.455 857.519 263.608 857.709 263.726C857.904 263.843 858.119 263.926 858.354 263.975C858.588 264.023 858.82 264.048 859.049 264.048C859.621 264.048 860.072 263.943 860.404 263.733C860.736 263.523 860.905 263.245 860.91 262.898ZM871.339 261.125C871.339 261.692 871.271 262.222 871.134 262.715C870.998 263.203 870.797 263.628 870.534 263.989C870.27 264.351 869.943 264.634 869.552 264.839C869.167 265.044 868.725 265.146 868.227 265.146C867.743 265.146 867.316 265.068 866.945 264.912C866.579 264.756 866.264 264.531 866 264.238V268.047H864.645V257.075H865.883L865.949 257.939C866.212 257.612 866.53 257.363 866.901 257.192C867.277 257.017 867.711 256.929 868.205 256.929C868.712 256.929 869.162 257.029 869.552 257.229C869.943 257.429 870.27 257.708 870.534 258.064C870.797 258.42 870.998 258.848 871.134 259.346C871.271 259.839 871.339 260.381 871.339 260.972V261.125ZM869.984 260.972C869.984 260.586 869.94 260.22 869.853 259.873C869.77 259.521 869.638 259.214 869.457 258.95C869.281 258.682 869.057 258.469 868.783 258.313C868.51 258.157 868.183 258.079 867.802 258.079C867.367 258.079 867.001 258.181 866.703 258.386C866.41 258.586 866.176 258.845 866 259.163V262.979C866.176 263.291 866.41 263.547 866.703 263.748C866.996 263.943 867.367 264.041 867.816 264.041C868.192 264.041 868.517 263.962 868.791 263.806C869.064 263.645 869.289 263.43 869.464 263.162C869.64 262.893 869.77 262.583 869.853 262.231C869.94 261.88 869.984 261.511 869.984 261.125V260.972ZM875.016 258.254C875.299 257.839 875.648 257.517 876.063 257.288C876.479 257.053 876.945 256.934 877.462 256.929C877.877 256.929 878.253 256.99 878.59 257.112C878.932 257.229 879.223 257.415 879.462 257.668C879.701 257.922 879.884 258.245 880.011 258.635C880.143 259.021 880.209 259.48 880.209 260.012V265H878.854V259.998C878.854 259.348 878.698 258.865 878.385 258.547C878.078 258.23 877.636 258.074 877.06 258.079C876.625 258.079 876.229 258.186 875.873 258.401C875.521 258.611 875.236 258.892 875.016 259.243V265H873.661V253.75H875.016V258.254ZM886.171 265.146C885.614 265.146 885.102 265.051 884.633 264.861C884.169 264.67 883.771 264.404 883.439 264.062C883.107 263.721 882.848 263.315 882.663 262.847C882.477 262.378 882.384 261.868 882.384 261.316V261.008C882.384 260.369 882.487 259.797 882.692 259.294C882.897 258.787 883.168 258.359 883.505 258.013C883.847 257.661 884.232 257.393 884.662 257.207C885.097 257.021 885.541 256.929 885.995 256.929C886.566 256.929 887.064 257.029 887.489 257.229C887.919 257.424 888.275 257.698 888.559 258.049C888.842 258.396 889.052 258.806 889.188 259.28C889.33 259.753 889.401 260.266 889.401 260.818V261.426H883.739C883.754 261.787 883.822 262.126 883.944 262.444C884.071 262.761 884.242 263.04 884.457 263.279C884.677 263.513 884.938 263.699 885.241 263.835C885.543 263.972 885.878 264.041 886.244 264.041C886.728 264.041 887.157 263.943 887.533 263.748C887.909 263.552 888.222 263.293 888.471 262.971L889.298 263.616C889.167 263.816 889 264.009 888.8 264.194C888.605 264.375 888.378 264.536 888.119 264.678C887.86 264.819 887.567 264.932 887.24 265.015C886.913 265.103 886.557 265.146 886.171 265.146ZM885.995 258.042C885.722 258.042 885.463 258.093 885.219 258.196C884.975 258.293 884.755 258.44 884.56 258.635C884.364 258.826 884.198 259.062 884.062 259.346C883.93 259.624 883.837 259.946 883.783 260.312H888.046V260.21C888.031 259.946 887.98 259.685 887.892 259.426C887.809 259.167 887.685 258.936 887.519 258.73C887.353 258.525 887.143 258.359 886.889 258.232C886.64 258.105 886.342 258.042 885.995 258.042ZM896.872 256.929C896.999 256.929 897.13 256.934 897.267 256.943C897.404 256.948 897.533 256.96 897.655 256.98C897.782 256.995 897.897 257.014 898 257.039C898.107 257.063 898.195 257.09 898.263 257.119L898.08 258.445C897.816 258.386 897.565 258.345 897.326 258.32C897.091 258.291 896.845 258.276 896.586 258.276C895.951 258.276 895.436 258.42 895.041 258.708C894.65 258.997 894.362 259.399 894.176 259.917V265H892.814V257.075H894.103L894.169 258.335C894.491 257.9 894.877 257.559 895.326 257.31C895.78 257.056 896.295 256.929 896.872 256.929ZM904.188 265.146C903.632 265.146 903.119 265.051 902.65 264.861C902.187 264.67 901.789 264.404 901.457 264.062C901.125 263.721 900.866 263.315 900.68 262.847C900.495 262.378 900.402 261.868 900.402 261.316V261.008C900.402 260.369 900.504 259.797 900.709 259.294C900.915 258.787 901.186 258.359 901.522 258.013C901.864 257.661 902.25 257.393 902.68 257.207C903.114 257.021 903.559 256.929 904.013 256.929C904.584 256.929 905.082 257.029 905.507 257.229C905.937 257.424 906.293 257.698 906.576 258.049C906.859 258.396 907.069 258.806 907.206 259.28C907.348 259.753 907.418 260.266 907.418 260.818V261.426H901.757C901.771 261.787 901.84 262.126 901.962 262.444C902.089 262.761 902.26 263.04 902.475 263.279C902.694 263.513 902.956 263.699 903.258 263.835C903.561 263.972 903.896 264.041 904.262 264.041C904.745 264.041 905.175 263.943 905.551 263.748C905.927 263.552 906.239 263.293 906.488 262.971L907.316 263.616C907.184 263.816 907.018 264.009 906.818 264.194C906.623 264.375 906.396 264.536 906.137 264.678C905.878 264.819 905.585 264.932 905.258 265.015C904.931 265.103 904.574 265.146 904.188 265.146ZM904.013 258.042C903.739 258.042 903.48 258.093 903.236 258.196C902.992 258.293 902.772 258.44 902.577 258.635C902.382 258.826 902.216 259.062 902.079 259.346C901.947 259.624 901.854 259.946 901.801 260.312H906.063V260.21C906.049 259.946 905.998 259.685 905.91 259.426C905.827 259.167 905.702 258.936 905.536 258.73C905.37 258.525 905.16 258.359 904.906 258.232C904.657 258.105 904.359 258.042 904.013 258.042Z" fill="black"/>
<defs>
<linearGradient id="paint0_linear" x1="733.625" y1="111.25" x2="744.125" y2="121" gradientUnits="userSpaceOnUse">
<stop stop-color="#6CBAFA"/>
<stop offset="0.447917" stop-color="#6CBAFA"/>
<stop offset="0.463168" stop-color="white"/>
</linearGradient>
<linearGradient id="paint1_linear" x1="973.625" y1="85.25" x2="984.125" y2="95" gradientUnits="userSpaceOnUse">
<stop stop-color="white"/>
<stop offset="0.447917" stop-color="white"/>
<stop offset="0.463168" stop-color="#FBC800"/>
</linearGradient>
</defs>
</svg>
