<svg width="1200" height="400" viewBox="0 0 1200 400" fill="none" xmlns="http://www.w3.org/2000/svg">
<rect width="1200" height="400" fill="white"/>
<circle cx="180.5" cy="79.5" r="7.5" fill="#00C7A5"/>
<circle cx="197.5" cy="79.5" r="7.5" fill="#00C7A5"/>
<circle cx="214.5" cy="79.5" r="7.5" fill="#00C7A5"/>
<circle cx="231.5" cy="79.5" r="7.5" fill="#00C7A5"/>
<circle cx="248.5" cy="79.5" r="7.5" fill="#00C7A5"/>
<circle cx="265.5" cy="79.5" r="7.5" fill="#00C7A5"/>
<circle cx="282.5" cy="79.5" r="7.5" fill="#00C7A5"/>
<circle cx="299.5" cy="79.5" r="7.5" fill="#00C7A5"/>
<circle cx="316.5" cy="79.5" r="7.5" fill="#00C7A5"/>
<circle cx="163.5" cy="79.5" r="7.5" fill="#00C7A5"/>
<circle cx="180.5" cy="96.5" r="7.5" fill="#00C7A5"/>
<circle cx="197.5" cy="96.5" r="7.5" fill="#00C7A5"/>
<circle cx="214.5" cy="96.5" r="7.5" fill="#00C7A5"/>
<circle cx="231.5" cy="96.5" r="7.5" fill="#00C7A5"/>
<circle cx="248.5" cy="96.5" r="7.5" fill="#00C7A5"/>
<circle cx="265.5" cy="96.5" r="7.5" fill="#00C7A5"/>
<circle cx="282.5" cy="96.5" r="7.5" fill="#00C7A5"/>
<circle cx="299.5" cy="96.5" r="7.5" fill="#00C7A5"/>
<circle cx="316.5" cy="96.5" r="7.5" fill="#00C7A5"/>
<circle cx="163.5" cy="96.5" r="7.5" fill="#00C7A5"/>
<circle cx="180.5" cy="113.5" r="7.5" fill="#00C7A5"/>
<circle cx="197.5" cy="113.5" r="7.5" fill="#00C7A5"/>
<circle cx="214.5" cy="113.5" r="7.5" fill="#00C7A5"/>
<circle cx="231.5" cy="113.5" r="7.5" fill="#00C7A5"/>
<circle cx="248.5" cy="113.5" r="7.5" fill="#00C7A5"/>
<circle cx="265.5" cy="113.5" r="7.5" fill="#00C7A5"/>
<circle cx="282.5" cy="113.5" r="7.5" fill="#00C7A5"/>
<circle cx="299.5" cy="113.5" r="7.5" fill="#00C7A5"/>
<circle cx="316.5" cy="113.5" r="7.5" fill="#00C7A5"/>
<circle cx="163.5" cy="113.5" r="7.5" fill="#00C7A5"/>
<circle cx="180.5" cy="130.5" r="7.5" fill="#00C7A5"/>
<circle cx="197.5" cy="130.5" r="7.5" fill="#00C7A5"/>
<circle cx="214.5" cy="130.5" r="7.5" fill="#00C7A5"/>
<circle cx="231.5" cy="130.5" r="7.5" fill="#00C7A5"/>
<circle cx="248.5" cy="130.5" r="7.5" fill="#00C7A5"/>
<circle cx="265.5" cy="130.5" r="7.5" fill="#00C7A5"/>
<circle cx="282.5" cy="130.5" r="7.5" fill="#00C7A5"/>
<circle cx="299.5" cy="130.5" r="7.5" fill="#00C7A5"/>
<circle cx="316.5" cy="130.5" r="7.5" fill="#00C7A5"/>
<circle cx="163.5" cy="130.5" r="7.5" fill="#00C7A5"/>
<circle cx="180.5" cy="147.5" r="7.5" fill="#00C7A5"/>
<circle cx="197.5" cy="147.5" r="7.5" fill="#00C7A5"/>
<circle cx="214.5" cy="147.5" r="7.5" fill="#00C7A5"/>
<circle cx="231.5" cy="147.5" r="7.5" fill="#00C7A5"/>
<circle cx="248.5" cy="147.5" r="7.5" fill="#00C7A5"/>
<circle cx="265.5" cy="147.5" r="7.5" fill="#00C7A5"/>
<circle cx="282.5" cy="147.5" r="7.5" fill="#00C7A5"/>
<circle cx="299.5" cy="147.5" r="7.5" fill="#00C7A5"/>
<circle cx="316.5" cy="147.5" r="7.5" fill="#00C7A5"/>
<circle cx="163.5" cy="147.5" r="7.5" fill="#00C7A5"/>
<circle cx="180.5" cy="164.5" r="7.5" fill="#00C7A5"/>
<circle cx="197.5" cy="164.5" r="7.5" fill="#00C7A5"/>
<circle cx="214.5" cy="164.5" r="7.5" fill="#00C7A5"/>
<circle cx="231.5" cy="164.5" r="7.5" fill="#00C7A5"/>
<circle cx="248.5" cy="164.5" r="7.5" fill="#00C7A5"/>
<circle cx="265.5" cy="164.5" r="7.5" fill="#00C7A5"/>
<circle cx="282.5" cy="164.5" r="7.5" fill="#00C7A5"/>
<circle cx="299.5" cy="164.5" r="7.5" fill="#00C7A5"/>
<circle cx="316.5" cy="164.5" r="7.5" fill="#00C7A5"/>
<circle cx="163.5" cy="164.5" r="7.5" fill="#00C7A5"/>
<circle cx="180.5" cy="181.5" r="7.5" fill="#00C7A5"/>
<circle cx="197.5" cy="181.5" r="7.5" fill="#00C7A5"/>
<circle cx="214.5" cy="181.5" r="7.5" fill="#00C7A5"/>
<circle cx="231.5" cy="181.5" r="7.5" fill="#00C7A5"/>
<circle cx="248.5" cy="181.5" r="7.5" fill="#00C7A5"/>
<circle cx="265.5" cy="181.5" r="7.5" fill="#00C7A5"/>
<circle cx="282.5" cy="181.5" r="7.5" fill="#00C7A5"/>
<circle cx="299.5" cy="181.5" r="7.5" fill="#00C7A5"/>
<circle cx="316.5" cy="181.5" r="7.5" fill="#00C7A5"/>
<circle cx="163.5" cy="181.5" r="7.5" fill="#00C7A5"/>
<circle cx="180.5" cy="198.5" r="7.5" fill="#00C7A5"/>
<circle cx="197.5" cy="198.5" r="7.5" fill="#00C7A5"/>
<circle cx="214.5" cy="198.5" r="7.5" fill="#00C7A5"/>
<circle cx="231.5" cy="198.5" r="7.5" fill="#00C7A5"/>
<circle cx="248.5" cy="198.5" r="7.5" fill="#00C7A5"/>
<circle cx="265.5" cy="198.5" r="7.5" fill="#00C7A5"/>
<circle cx="282.5" cy="198.5" r="7.5" fill="#00C7A5"/>
<circle cx="299.5" cy="198.5" r="7.5" fill="#00C7A5"/>
<circle cx="316.5" cy="198.5" r="7.5" fill="#00C7A5"/>
<circle cx="163.5" cy="198.5" r="7.5" fill="#00C7A5"/>
<circle cx="180.5" cy="215.5" r="7.5" fill="#00C7A5"/>
<circle cx="197.5" cy="215.5" r="7.5" fill="#00C7A5"/>
<circle cx="214.5" cy="215.5" r="7.5" fill="#00C7A5"/>
<circle cx="231.5" cy="215.5" r="7.5" fill="#00C7A5"/>
<circle cx="248.5" cy="215.5" r="7.5" fill="#00C7A5"/>
<circle cx="265.5" cy="215.5" r="7.5" fill="#00C7A5"/>
<circle cx="282.5" cy="215.5" r="7.5" fill="#00C7A5"/>
<circle cx="299.5" cy="215.5" r="7.5" fill="#00C7A5"/>
<circle cx="316.5" cy="215.5" r="7.5" fill="#00C7A5"/>
<circle cx="163.5" cy="215.5" r="7.5" fill="#00C7A5"/>
<circle cx="180.5" cy="232.5" r="7.5" fill="#00C7A5"/>
<circle cx="197.5" cy="232.5" r="7.5" fill="#00C7A5"/>
<circle cx="214.5" cy="232.5" r="7.5" fill="#00C7A5"/>
<circle cx="231.5" cy="232.5" r="7.5" fill="#00C7A5"/>
<circle cx="163.5" cy="232.5" r="7.5" fill="#00C7A5"/>
<circle cx="900.5" cy="79.5" r="7.5" fill="#FBC800"/>
<circle cx="917.5" cy="79.5" r="7.5" fill="#FBC800"/>
<circle cx="934.5" cy="79.5" r="7.5" fill="#FBC800"/>
<circle cx="951.5" cy="79.5" r="7.5" fill="#FBC800"/>
<circle cx="968.5" cy="79.5" r="7.5" fill="#FBC800"/>
<circle cx="985.5" cy="79.5" r="7.5" fill="#FBC800"/>
<circle cx="1002.5" cy="79.5" r="7.5" fill="#FBC800"/>
<circle cx="1019.5" cy="79.5" r="7.5" fill="#FBC800"/>
<circle cx="1036.5" cy="79.5" r="7.5" fill="#FBC800"/>
<circle cx="883.5" cy="79.5" r="7.5" fill="#FBC800"/>
<circle cx="900.5" cy="96.5" r="7.5" fill="#FBC800"/>
<circle cx="917.5" cy="96.5" r="7.5" fill="#FBC800"/>
<circle cx="934.5" cy="96.5" r="7.5" fill="#FBC800"/>
<circle cx="951.5" cy="96.5" r="7.5" fill="#FBC800"/>
<circle cx="968.5" cy="96.5" r="7.5" fill="#FBC800"/>
<circle cx="985.5" cy="96.5" r="7.5" fill="#FBC800"/>
<circle cx="1002.5" cy="96.5" r="7.5" fill="#FBC800"/>
<circle cx="1019.5" cy="96.5" r="7.5" fill="#FBC800"/>
<circle cx="1036.5" cy="96.5" r="7.5" fill="#FBC800"/>
<circle cx="883.5" cy="96.5" r="7.5" fill="#FBC800"/>
<circle cx="900.5" cy="113.5" r="7.5" fill="#FBC800"/>
<circle cx="917.5" cy="113.5" r="7.5" fill="#FBC800"/>
<circle cx="934.5" cy="113.5" r="7.5" fill="#FBC800"/>
<circle cx="951.5" cy="113.5" r="7.5" fill="#FBC800"/>
<circle cx="968.5" cy="113.5" r="7.5" fill="#FBC800"/>
<circle cx="985.5" cy="113.5" r="7.5" fill="#FBC800"/>
<circle cx="1002.5" cy="113.5" r="7.5" fill="#FBC800"/>
<circle cx="1019.5" cy="113.5" r="7.5" fill="#FBC800"/>
<circle cx="1036.5" cy="113.5" r="7.5" fill="#FBC800"/>
<circle cx="883.5" cy="113.5" r="7.5" fill="#FBC800"/>
<circle cx="900.5" cy="130.5" r="7.5" fill="#FBC800"/>
<circle cx="917.5" cy="130.5" r="7.5" fill="#FBC800"/>
<circle cx="934.5" cy="130.5" r="7.5" fill="#FBC800"/>
<circle cx="951.5" cy="130.5" r="7.5" fill="#FBC800"/>
<circle cx="968.5" cy="130.5" r="7.5" fill="#FBC800"/>
<circle cx="985.5" cy="130.5" r="7.5" fill="#FBC800"/>
<circle cx="1002.5" cy="130.5" r="7.5" fill="#FBC800"/>
<circle cx="1019.5" cy="130.5" r="7.5" fill="#FBC800"/>
<circle cx="1036.5" cy="130.5" r="7.5" fill="#FBC800"/>
<circle cx="883.5" cy="130.5" r="7.5" fill="#FBC800"/>
<circle cx="900.5" cy="147.5" r="7.5" fill="#FBC800"/>
<circle cx="917.5" cy="147.5" r="7.5" fill="#FBC800"/>
<circle cx="934.5" cy="147.5" r="7.5" fill="#FBC800"/>
<circle cx="951.5" cy="147.5" r="7.5" fill="#FBC800"/>
<circle cx="968.5" cy="147.5" r="7.5" fill="#FBC800"/>
<circle cx="985.5" cy="147.5" r="7.5" fill="#FBC800"/>
<circle cx="1002.5" cy="147.5" r="7.5" fill="#FBC800"/>
<circle cx="1019.5" cy="147.5" r="7.5" fill="#FBC800"/>
<circle cx="1036.5" cy="147.5" r="7.5" fill="#FBC800"/>
<circle cx="883.5" cy="147.5" r="7.5" fill="#FBC800"/>
<circle cx="900.5" cy="164.5" r="7.5" fill="#FBC800"/>
<circle cx="917.5" cy="164.5" r="7.5" fill="#FBC800"/>
<circle cx="934.5" cy="164.5" r="7.5" fill="#FBC800"/>
<circle cx="951.5" cy="164.5" r="7.5" fill="#FBC800"/>
<circle cx="968.5" cy="164.5" r="7.5" fill="#FBC800"/>
<circle cx="985.5" cy="164.5" r="7.5" fill="#FBC800"/>
<circle cx="1002.5" cy="164.5" r="7.5" fill="#FBC800"/>
<circle cx="1019.5" cy="164.5" r="7.5" fill="#FBC800"/>
<circle cx="1036.5" cy="164.5" r="7.5" fill="#FBC800"/>
<circle cx="883.5" cy="164.5" r="7.5" fill="#FBC800"/>
<circle cx="900.5" cy="181.5" r="7.5" fill="#FBC800"/>
<circle cx="917.5" cy="181.5" r="7.5" fill="#FBC800"/>
<circle cx="934.5" cy="181.5" r="7.5" fill="#FBC800"/>
<circle cx="951.5" cy="181.5" r="7.5" fill="#FBC800"/>
<circle cx="968.5" cy="181.5" r="7.5" fill="#FBC800"/>
<circle cx="985.5" cy="181.5" r="7.5" fill="#FBC800"/>
<circle cx="1002.5" cy="181.5" r="7.5" fill="#FBC800"/>
<circle cx="1019.5" cy="181.5" r="7.5" fill="#FBC800"/>
<circle cx="1036.5" cy="181.5" r="7.5" fill="#FBC800"/>
<circle cx="883.5" cy="181.5" r="7.5" fill="#FBC800"/>
<circle cx="900.5" cy="198.5" r="7.5" fill="#FBC800"/>
<circle cx="917.5" cy="198.5" r="7.5" fill="#FBC800"/>
<circle cx="934.5" cy="198.5" r="7.5" fill="#FBC800"/>
<circle cx="951.5" cy="198.5" r="7.5" fill="#FBC800"/>
<circle cx="968.5" cy="198.5" r="7.5" fill="#FBC800"/>
<circle cx="985.5" cy="198.5" r="7.5" fill="#FBC800"/>
<circle cx="1002.5" cy="198.5" r="7.5" fill="#FBC800"/>
<circle cx="1019.5" cy="198.5" r="7.5" fill="#FBC800"/>
<circle cx="1036.5" cy="198.5" r="7.5" fill="#FBC800"/>
<circle cx="883.5" cy="198.5" r="7.5" fill="#FBC800"/>
<circle cx="900.5" cy="215.5" r="7.5" fill="#FBC800"/>
<circle cx="917.5" cy="215.5" r="7.5" fill="#FBC800"/>
<circle cx="934.5" cy="215.5" r="7.5" fill="#FBC800"/>
<circle cx="951.5" cy="215.5" r="7.5" fill="#FBC800"/>
<circle cx="968.5" cy="215.5" r="7.5" fill="#FBC800"/>
<circle cx="985.5" cy="215.5" r="7.5" fill="#FBC800"/>
<circle cx="1002.5" cy="215.5" r="7.5" fill="#FBC800"/>
<circle cx="1019.5" cy="215.5" r="7.5" fill="#FBC800"/>
<circle cx="1036.5" cy="215.5" r="7.5" fill="#FBC800"/>
<circle cx="883.5" cy="215.5" r="7.5" fill="#FBC800"/>
<circle cx="900.5" cy="232.5" r="7.5" fill="#FBC800"/>
<circle cx="917.5" cy="232.5" r="7.5" fill="#FBC800"/>
<circle cx="934.5" cy="232.5" r="7.5" fill="#FBC800"/>
<circle cx="951.5" cy="232.5" r="7.5" fill="#FBC800"/>
<circle cx="968.5" cy="232.5" r="7.5" fill="#FBC800"/>
<circle cx="985.5" cy="232.5" r="7.5" fill="#FBC800"/>
<circle cx="998.5" cy="228.5" r="3.5" fill="#FBC800"/>
<circle cx="883.5" cy="232.5" r="7.5" fill="#FBC800"/>
<circle cx="660.5" cy="79.5" r="7.5" fill="#6CBAFA"/>
<circle cx="677.5" cy="79.5" r="7.5" fill="#6CBAFA"/>
<circle cx="694.5" cy="79.5" r="7.5" fill="#6CBAFA"/>
<circle cx="711.5" cy="79.5" r="7.5" fill="#6CBAFA"/>
<circle cx="728.5" cy="79.5" r="7.5" fill="#6CBAFA"/>
<circle cx="745.5" cy="79.5" r="7.5" fill="#6CBAFA"/>
<circle cx="762.5" cy="79.5" r="7.5" fill="#6CBAFA"/>
<circle cx="779.5" cy="79.5" r="7.5" fill="#6CBAFA"/>
<circle cx="796.5" cy="79.5" r="7.5" fill="#6CBAFA"/>
<circle cx="643.5" cy="79.5" r="7.5" fill="#6CBAFA"/>
<circle cx="660.5" cy="96.5" r="7.5" fill="#6CBAFA"/>
<circle cx="677.5" cy="96.5" r="7.5" fill="#6CBAFA"/>
<circle cx="694.5" cy="96.5" r="7.5" fill="#6CBAFA"/>
<circle cx="711.5" cy="96.5" r="7.5" fill="#6CBAFA"/>
<circle cx="728.5" cy="96.5" r="7.5" fill="#6CBAFA"/>
<circle cx="745.5" cy="96.5" r="7.5" fill="#6CBAFA"/>
<circle cx="762.5" cy="96.5" r="7.5" fill="#6CBAFA"/>
<circle cx="779.5" cy="96.5" r="7.5" fill="#6CBAFA"/>
<circle cx="796.5" cy="96.5" r="7.5" fill="#6CBAFA"/>
<circle cx="643.5" cy="96.5" r="7.5" fill="#6CBAFA"/>
<circle cx="660.5" cy="113.5" r="7.5" fill="#6CBAFA"/>
<circle cx="677.5" cy="113.5" r="7.5" fill="#6CBAFA"/>
<circle cx="694.5" cy="113.5" r="7.5" fill="#6CBAFA"/>
<circle cx="711.5" cy="113.5" r="7.5" fill="#6CBAFA"/>
<circle cx="728.5" cy="113.5" r="7.5" fill="#6CBAFA"/>
<circle cx="745.5" cy="113.5" r="7.5" fill="#6CBAFA"/>
<circle cx="762.5" cy="113.5" r="7.5" fill="#6CBAFA"/>
<circle cx="779.5" cy="113.5" r="7.5" fill="#6CBAFA"/>
<circle cx="796.5" cy="113.5" r="7.5" fill="#6CBAFA"/>
<circle cx="643.5" cy="113.5" r="7.5" fill="#6CBAFA"/>
<circle cx="660.5" cy="130.5" r="7.5" fill="#6CBAFA"/>
<circle cx="677.5" cy="130.5" r="7.5" fill="#6CBAFA"/>
<circle cx="694.5" cy="130.5" r="7.5" fill="#6CBAFA"/>
<circle cx="711.5" cy="130.5" r="7.5" fill="#6CBAFA"/>
<circle cx="728.5" cy="130.5" r="7.5" fill="#6CBAFA"/>
<circle cx="745.5" cy="130.5" r="7.5" fill="#6CBAFA"/>
<circle cx="762.5" cy="130.5" r="7.5" fill="#6CBAFA"/>
<circle cx="779.5" cy="130.5" r="7.5" fill="#6CBAFA"/>
<circle cx="796.5" cy="130.5" r="7.5" fill="#6CBAFA"/>
<circle cx="643.5" cy="130.5" r="7.5" fill="#6CBAFA"/>
<circle cx="660.5" cy="147.5" r="7.5" fill="#6CBAFA"/>
<circle cx="677.5" cy="147.5" r="7.5" fill="#6CBAFA"/>
<circle cx="694.5" cy="147.5" r="7.5" fill="#6CBAFA"/>
<circle cx="711.5" cy="147.5" r="7.5" fill="#6CBAFA"/>
<circle cx="728.5" cy="147.5" r="7.5" fill="#6CBAFA"/>
<circle cx="745.5" cy="147.5" r="7.5" fill="#6CBAFA"/>
<circle cx="762.5" cy="147.5" r="7.5" fill="#6CBAFA"/>
<circle cx="779.5" cy="147.5" r="7.5" fill="#6CBAFA"/>
<circle cx="796.5" cy="147.5" r="7.5" fill="#6CBAFA"/>
<circle cx="643.5" cy="147.5" r="7.5" fill="#6CBAFA"/>
<circle cx="660.5" cy="164.5" r="7.5" fill="#6CBAFA"/>
<circle cx="677.5" cy="164.5" r="7.5" fill="#6CBAFA"/>
<circle cx="694.5" cy="164.5" r="7.5" fill="#6CBAFA"/>
<circle cx="711.5" cy="164.5" r="7.5" fill="#6CBAFA"/>
<circle cx="728.5" cy="164.5" r="7.5" fill="#6CBAFA"/>
<circle cx="745.5" cy="164.5" r="7.5" fill="#6CBAFA"/>
<circle cx="762.5" cy="164.5" r="7.5" fill="#6CBAFA"/>
<circle cx="779.5" cy="164.5" r="7.5" fill="#6CBAFA"/>
<circle cx="796.5" cy="164.5" r="7.5" fill="#6CBAFA"/>
<circle cx="643.5" cy="164.5" r="7.5" fill="#6CBAFA"/>
<path d="M471.746 165H467.02V142.168L460.047 144.551V140.547L471.141 136.465H471.746V165ZM500.75 165H481.629V161.738L491.102 151.406C492.469 149.883 493.439 148.613 494.012 147.598C494.598 146.569 494.891 145.54 494.891 144.512C494.891 143.158 494.507 142.064 493.738 141.23C492.983 140.397 491.961 139.98 490.672 139.98C489.135 139.98 487.944 140.449 487.098 141.387C486.251 142.324 485.828 143.607 485.828 145.234H481.082C481.082 143.503 481.473 141.947 482.254 140.566C483.048 139.173 484.174 138.092 485.633 137.324C487.104 136.556 488.797 136.172 490.711 136.172C493.471 136.172 495.646 136.868 497.234 138.262C498.836 139.642 499.637 141.556 499.637 144.004C499.637 145.423 499.233 146.914 498.426 148.477C497.632 150.026 496.323 151.79 494.5 153.77L487.547 161.211H500.75V165Z" fill="#8D75F3"/>
<path d="M466.152 191.015L467.998 185.075H469.448L466.262 194.223C465.769 195.542 464.985 196.201 463.911 196.201L463.654 196.179L463.149 196.083V194.985L463.515 195.014C463.974 195.014 464.331 194.921 464.584 194.736C464.843 194.55 465.056 194.211 465.222 193.718L465.522 192.912L462.695 185.075H464.174L466.152 191.015ZM473.85 193.146C472.775 193.146 471.901 192.795 471.228 192.092C470.554 191.384 470.217 190.439 470.217 189.257V189.008C470.217 188.222 470.366 187.521 470.664 186.906C470.966 186.286 471.386 185.803 471.923 185.456C472.465 185.104 473.051 184.929 473.681 184.929C474.711 184.929 475.512 185.268 476.083 185.947C476.655 186.625 476.94 187.597 476.94 188.862V189.426H471.572C471.591 190.207 471.818 190.839 472.253 191.323C472.692 191.801 473.249 192.041 473.923 192.041C474.401 192.041 474.807 191.943 475.139 191.748C475.471 191.552 475.761 191.293 476.01 190.971L476.838 191.616C476.174 192.636 475.178 193.146 473.85 193.146ZM473.681 186.042C473.134 186.042 472.675 186.242 472.304 186.643C471.933 187.038 471.704 187.595 471.616 188.312H475.585V188.21C475.546 187.521 475.361 186.989 475.029 186.613C474.697 186.232 474.248 186.042 473.681 186.042ZM483.408 193C483.33 192.844 483.266 192.565 483.217 192.165C482.587 192.819 481.835 193.146 480.961 193.146C480.18 193.146 479.538 192.927 479.035 192.487C478.537 192.043 478.288 191.481 478.288 190.803C478.288 189.978 478.601 189.338 479.226 188.884C479.855 188.425 480.739 188.195 481.877 188.195H483.195V187.573C483.195 187.099 483.054 186.723 482.771 186.445C482.487 186.162 482.07 186.02 481.518 186.02C481.035 186.02 480.629 186.142 480.302 186.386C479.975 186.63 479.812 186.926 479.812 187.272H478.449C478.449 186.877 478.588 186.496 478.867 186.13C479.15 185.759 479.531 185.466 480.009 185.251C480.493 185.036 481.022 184.929 481.599 184.929C482.512 184.929 483.227 185.158 483.745 185.617C484.262 186.071 484.531 186.699 484.55 187.5V191.147C484.55 191.875 484.643 192.453 484.829 192.883V193H483.408ZM481.159 191.967C481.584 191.967 481.987 191.857 482.368 191.638C482.749 191.418 483.024 191.132 483.195 190.781V189.155H482.133C480.473 189.155 479.643 189.641 479.643 190.612C479.643 191.037 479.785 191.369 480.068 191.608C480.351 191.848 480.715 191.967 481.159 191.967ZM490.505 186.291C490.3 186.257 490.078 186.24 489.838 186.24C488.95 186.24 488.347 186.618 488.029 187.375V193H486.674V185.075H487.993L488.015 185.991C488.459 185.283 489.089 184.929 489.904 184.929C490.168 184.929 490.368 184.963 490.505 185.031V186.291ZM496.372 190.898C496.372 190.532 496.232 190.249 495.954 190.048C495.681 189.843 495.2 189.667 494.511 189.521C493.828 189.375 493.283 189.199 492.878 188.994C492.478 188.789 492.18 188.544 491.984 188.261C491.794 187.978 491.699 187.641 491.699 187.25C491.699 186.601 491.972 186.052 492.519 185.603C493.071 185.153 493.774 184.929 494.628 184.929C495.527 184.929 496.254 185.161 496.811 185.625C497.373 186.088 497.653 186.682 497.653 187.404H496.291C496.291 187.033 496.132 186.713 495.815 186.445C495.502 186.176 495.107 186.042 494.628 186.042C494.135 186.042 493.75 186.149 493.471 186.364C493.193 186.579 493.054 186.86 493.054 187.207C493.054 187.534 493.183 187.78 493.442 187.946C493.701 188.112 494.167 188.271 494.841 188.422C495.52 188.574 496.069 188.754 496.489 188.964C496.909 189.174 497.219 189.428 497.419 189.726C497.624 190.019 497.727 190.378 497.727 190.803C497.727 191.511 497.443 192.08 496.877 192.509C496.311 192.934 495.576 193.146 494.672 193.146C494.038 193.146 493.476 193.034 492.988 192.81C492.5 192.585 492.116 192.272 491.838 191.872C491.564 191.467 491.428 191.03 491.428 190.561H492.783C492.807 191.015 492.988 191.376 493.325 191.645C493.667 191.909 494.116 192.041 494.672 192.041C495.185 192.041 495.595 191.938 495.903 191.733C496.215 191.523 496.372 191.245 496.372 190.898Z" fill="black"/>
</svg>
