<svg width="1200" height="400" viewBox="0 0 1200 400" fill="none" xmlns="http://www.w3.org/2000/svg">
<rect width="1200" height="400" fill="white"/>
<circle cx="180.5" cy="79.5" r="7.5" fill="#00C7A5"/>
<circle cx="197.5" cy="79.5" r="7.5" fill="#00C7A5"/>
<circle cx="214.5" cy="79.5" r="7.5" fill="#00C7A5"/>
<circle cx="231.5" cy="79.5" r="7.5" fill="#00C7A5"/>
<circle cx="248.5" cy="79.5" r="7.5" fill="#00C7A5"/>
<circle cx="265.5" cy="79.5" r="7.5" fill="#00C7A5"/>
<circle cx="282.5" cy="79.5" r="7.5" fill="#00C7A5"/>
<circle cx="299.5" cy="79.5" r="7.5" fill="#00C7A5"/>
<circle cx="316.5" cy="79.5" r="7.5" fill="#00C7A5"/>
<circle cx="163.5" cy="79.5" r="7.5" fill="#00C7A5"/>
<circle cx="180.5" cy="96.5" r="7.5" fill="#00C7A5"/>
<circle cx="197.5" cy="96.5" r="7.5" fill="#00C7A5"/>
<circle cx="214.5" cy="96.5" r="7.5" fill="#00C7A5"/>
<circle cx="231.5" cy="96.5" r="7.5" fill="#00C7A5"/>
<circle cx="248.5" cy="96.5" r="7.5" fill="#00C7A5"/>
<circle cx="265.5" cy="96.5" r="7.5" fill="#00C7A5"/>
<circle cx="282.5" cy="96.5" r="7.5" fill="#00C7A5"/>
<circle cx="299.5" cy="96.5" r="7.5" fill="#00C7A5"/>
<circle cx="316.5" cy="96.5" r="7.5" fill="#00C7A5"/>
<circle cx="163.5" cy="96.5" r="7.5" fill="#00C7A5"/>
<circle cx="180.5" cy="113.5" r="7.5" fill="#00C7A5"/>
<circle cx="197.5" cy="113.5" r="7.5" fill="#00C7A5"/>
<circle cx="214.5" cy="113.5" r="7.5" fill="#00C7A5"/>
<circle cx="231.5" cy="113.5" r="7.5" fill="#00C7A5"/>
<circle cx="248.5" cy="113.5" r="7.5" fill="#00C7A5"/>
<circle cx="265.5" cy="113.5" r="7.5" fill="#00C7A5"/>
<circle cx="282.5" cy="113.5" r="7.5" fill="#00C7A5"/>
<circle cx="299.5" cy="113.5" r="7.5" fill="#00C7A5"/>
<circle cx="316.5" cy="113.5" r="7.5" fill="#00C7A5"/>
<circle cx="163.5" cy="113.5" r="7.5" fill="#00C7A5"/>
<circle cx="180.5" cy="130.5" r="7.5" fill="#00C7A5"/>
<circle cx="197.5" cy="130.5" r="7.5" fill="#00C7A5"/>
<circle cx="214.5" cy="130.5" r="7.5" fill="#00C7A5"/>
<circle cx="231.5" cy="130.5" r="7.5" fill="#00C7A5"/>
<circle cx="248.5" cy="130.5" r="7.5" fill="#00C7A5"/>
<circle cx="265.5" cy="130.5" r="7.5" fill="#00C7A5"/>
<circle cx="282.5" cy="130.5" r="7.5" fill="#00C7A5"/>
<circle cx="299.5" cy="130.5" r="7.5" fill="#00C7A5"/>
<circle cx="316.5" cy="130.5" r="7.5" fill="#00C7A5"/>
<circle cx="163.5" cy="130.5" r="7.5" fill="#00C7A5"/>
<circle cx="180.5" cy="147.5" r="7.5" fill="#00C7A5"/>
<circle cx="197.5" cy="147.5" r="7.5" fill="#00C7A5"/>
<circle cx="214.5" cy="147.5" r="7.5" fill="#00C7A5"/>
<circle cx="231.5" cy="147.5" r="7.5" fill="#00C7A5"/>
<circle cx="248.5" cy="147.5" r="7.5" fill="#00C7A5"/>
<circle cx="265.5" cy="147.5" r="7.5" fill="#00C7A5"/>
<circle cx="282.5" cy="147.5" r="7.5" fill="#00C7A5"/>
<circle cx="299.5" cy="147.5" r="7.5" fill="#00C7A5"/>
<circle cx="316.5" cy="147.5" r="7.5" fill="#00C7A5"/>
<circle cx="163.5" cy="147.5" r="7.5" fill="#00C7A5"/>
<circle cx="900.5" cy="79.5" r="7.5" fill="#FBC800"/>
<circle cx="917.5" cy="79.5" r="7.5" fill="#FBC800"/>
<circle cx="934.5" cy="79.5" r="7.5" fill="#FBC800"/>
<circle cx="951.5" cy="79.5" r="7.5" fill="#FBC800"/>
<circle cx="968.5" cy="79.5" r="7.5" fill="#FBC800"/>
<circle cx="985.5" cy="79.5" r="7.5" fill="#FBC800"/>
<circle cx="1002.5" cy="79.5" r="7.5" fill="#FBC800"/>
<circle cx="1019.5" cy="79.5" r="7.5" fill="#FBC800"/>
<circle cx="1036.5" cy="79.5" r="7.5" fill="#FBC800"/>
<circle cx="883.5" cy="79.5" r="7.5" fill="#FBC800"/>
<circle cx="900.5" cy="96.5" r="7.5" fill="#FBC800"/>
<circle cx="917.5" cy="96.5" r="7.5" fill="#FBC800"/>
<circle cx="934.5" cy="96.5" r="7.5" fill="#FBC800"/>
<circle cx="951.5" cy="96.5" r="7.5" fill="#FBC800"/>
<circle cx="968.5" cy="96.5" r="7.5" fill="#FBC800"/>
<circle cx="985.5" cy="96.5" r="7.5" fill="#FBC800"/>
<circle cx="1002.5" cy="96.5" r="7.5" fill="#FBC800"/>
<circle cx="1019.5" cy="96.5" r="7.5" fill="#FBC800"/>
<circle cx="1036.5" cy="96.5" r="7.5" fill="#FBC800"/>
<circle cx="883.5" cy="96.5" r="7.5" fill="#FBC800"/>
<circle cx="900.5" cy="113.5" r="7.5" fill="#FBC800"/>
<circle cx="917.5" cy="113.5" r="7.5" fill="#FBC800"/>
<circle cx="934.5" cy="113.5" r="7.5" fill="#FBC800"/>
<circle cx="951.5" cy="113.5" r="7.5" fill="#FBC800"/>
<circle cx="968.5" cy="113.5" r="7.5" fill="#FBC800"/>
<circle cx="985.5" cy="113.5" r="7.5" fill="#FBC800"/>
<circle cx="1002.5" cy="113.5" r="7.5" fill="#FBC800"/>
<circle cx="1019.5" cy="113.5" r="7.5" fill="#FBC800"/>
<circle cx="1036.5" cy="113.5" r="7.5" fill="#FBC800"/>
<circle cx="883.5" cy="113.5" r="7.5" fill="#FBC800"/>
<circle cx="900.5" cy="130.5" r="7.5" fill="#FBC800"/>
<circle cx="917.5" cy="130.5" r="7.5" fill="#FBC800"/>
<circle cx="934.5" cy="130.5" r="7.5" fill="#FBC800"/>
<circle cx="951.5" cy="130.5" r="7.5" fill="#FBC800"/>
<circle cx="968.5" cy="130.5" r="7.5" fill="#FBC800"/>
<circle cx="985.5" cy="130.5" r="7.5" fill="#FBC800"/>
<circle cx="1002.5" cy="130.5" r="7.5" fill="#FBC800"/>
<circle cx="1019.5" cy="130.5" r="7.5" fill="#FBC800"/>
<circle cx="1036.5" cy="130.5" r="7.5" fill="#FBC800"/>
<circle cx="883.5" cy="130.5" r="7.5" fill="#FBC800"/>
<circle cx="900.5" cy="147.5" r="7.5" fill="#FBC800"/>
<circle cx="917.5" cy="147.5" r="7.5" fill="#FBC800"/>
<circle cx="934.5" cy="147.5" r="7.5" fill="#FBC800"/>
<circle cx="951.5" cy="147.5" r="7.5" fill="#FBC800"/>
<circle cx="968.5" cy="147.5" r="7.5" fill="#FBC800"/>
<circle cx="985.5" cy="147.5" r="7.5" fill="#FBC800"/>
<circle cx="1002.5" cy="147.5" r="7.5" fill="#FBC800"/>
<circle cx="1019.5" cy="147.5" r="7.5" fill="#FBC800"/>
<circle cx="1036.5" cy="147.5" r="7.5" fill="#FBC800"/>
<circle cx="883.5" cy="147.5" r="7.5" fill="#FBC800"/>
<circle cx="900.5" cy="164.5" r="7.5" fill="#FBC800"/>
<circle cx="917.5" cy="164.5" r="7.5" fill="#FBC800"/>
<circle cx="934.5" cy="164.5" r="7.5" fill="#FBC800"/>
<circle cx="951.5" cy="164.5" r="7.5" fill="#FBC800"/>
<circle cx="968.5" cy="164.5" r="7.5" fill="#FBC800"/>
<circle cx="985.5" cy="164.5" r="7.5" fill="#FBC800"/>
<circle cx="1002.5" cy="164.5" r="7.5" fill="#FBC800"/>
<circle cx="1019.5" cy="164.5" r="7.5" fill="#FBC800"/>
<circle cx="1036.5" cy="164.5" r="7.5" fill="#FBC800"/>
<circle cx="883.5" cy="164.5" r="7.5" fill="#FBC800"/>
<circle cx="900.5" cy="181.5" r="7.5" fill="#FBC800"/>
<circle cx="917.5" cy="181.5" r="7.5" fill="#FBC800"/>
<circle cx="934.5" cy="181.5" r="7.5" fill="#FBC800"/>
<circle cx="951.5" cy="181.5" r="7.5" fill="#FBC800"/>
<circle cx="968.5" cy="181.5" r="7.5" fill="#FBC800"/>
<circle cx="985.5" cy="181.5" r="7.5" fill="#FBC800"/>
<circle cx="1002.5" cy="181.5" r="7.5" fill="#FBC800"/>
<circle cx="1019.5" cy="181.5" r="7.5" fill="#FBC800"/>
<circle cx="1036.5" cy="181.5" r="7.5" fill="#FBC800"/>
<circle cx="883.5" cy="181.5" r="7.5" fill="#FBC800"/>
<circle cx="900.5" cy="198.5" r="7.5" fill="#FBC800"/>
<circle cx="917.5" cy="198.5" r="7.5" fill="#FBC800"/>
<circle cx="934.5" cy="198.5" r="7.5" fill="#FBC800"/>
<circle cx="951.5" cy="198.5" r="7.5" fill="#FBC800"/>
<circle cx="883.5" cy="198.5" r="7.5" fill="#FBC800"/>
<path d="M460.369 194.354L462.83 186.434H464.764L460.516 198.631C459.858 200.389 458.813 201.268 457.381 201.268L457.039 201.238L456.365 201.111V199.646L456.854 199.686C457.465 199.686 457.941 199.562 458.279 199.314C458.624 199.067 458.908 198.615 459.129 197.957L459.529 196.883L455.76 186.434H457.732L460.369 194.354ZM470.633 197.195C469.201 197.195 468.035 196.727 467.137 195.789C466.238 194.845 465.789 193.585 465.789 192.01V191.678C465.789 190.63 465.988 189.695 466.385 188.875C466.788 188.048 467.348 187.404 468.064 186.941C468.787 186.473 469.568 186.238 470.408 186.238C471.782 186.238 472.85 186.691 473.611 187.596C474.373 188.501 474.754 189.796 474.754 191.482V192.234H467.596C467.622 193.276 467.924 194.119 468.504 194.764C469.09 195.402 469.832 195.721 470.73 195.721C471.368 195.721 471.909 195.59 472.352 195.33C472.794 195.07 473.182 194.725 473.514 194.295L474.617 195.154C473.732 196.515 472.404 197.195 470.633 197.195ZM470.408 187.723C469.679 187.723 469.067 187.99 468.572 188.523C468.077 189.051 467.771 189.793 467.654 190.75H472.947V190.613C472.895 189.695 472.648 188.986 472.205 188.484C471.762 187.977 471.163 187.723 470.408 187.723ZM483.377 197C483.273 196.792 483.188 196.421 483.123 195.887C482.283 196.759 481.281 197.195 480.115 197.195C479.074 197.195 478.217 196.902 477.547 196.316C476.883 195.724 476.551 194.975 476.551 194.07C476.551 192.97 476.967 192.117 477.801 191.512C478.641 190.9 479.819 190.594 481.336 190.594H483.094V189.764C483.094 189.132 482.905 188.631 482.527 188.26C482.15 187.882 481.593 187.693 480.857 187.693C480.213 187.693 479.673 187.856 479.236 188.182C478.8 188.507 478.582 188.901 478.582 189.363H476.766C476.766 188.836 476.951 188.328 477.322 187.84C477.7 187.345 478.208 186.954 478.846 186.668C479.49 186.382 480.197 186.238 480.965 186.238C482.182 186.238 483.136 186.544 483.826 187.156C484.516 187.762 484.874 188.598 484.9 189.666V194.529C484.9 195.499 485.024 196.271 485.271 196.844V197H483.377ZM480.379 195.623C480.945 195.623 481.482 195.477 481.99 195.184C482.498 194.891 482.866 194.51 483.094 194.041V191.873H481.678C479.464 191.873 478.357 192.521 478.357 193.816C478.357 194.383 478.546 194.826 478.924 195.145C479.301 195.464 479.786 195.623 480.379 195.623ZM492.84 188.055C492.566 188.009 492.27 187.986 491.951 187.986C490.766 187.986 489.962 188.491 489.539 189.5V197H487.732V186.434H489.49L489.52 187.654C490.112 186.71 490.952 186.238 492.039 186.238C492.391 186.238 492.658 186.284 492.84 186.375V188.055ZM500.662 194.197C500.662 193.709 500.477 193.331 500.105 193.064C499.741 192.791 499.1 192.557 498.182 192.361C497.27 192.166 496.544 191.932 496.004 191.658C495.47 191.385 495.073 191.059 494.812 190.682C494.559 190.304 494.432 189.855 494.432 189.334C494.432 188.468 494.796 187.736 495.525 187.137C496.261 186.538 497.199 186.238 498.338 186.238C499.536 186.238 500.506 186.548 501.248 187.166C501.997 187.785 502.371 188.576 502.371 189.539H500.555C500.555 189.044 500.343 188.618 499.92 188.26C499.503 187.902 498.976 187.723 498.338 187.723C497.68 187.723 497.166 187.866 496.795 188.152C496.424 188.439 496.238 188.813 496.238 189.275C496.238 189.712 496.411 190.04 496.756 190.262C497.101 190.483 497.723 190.695 498.621 190.896C499.526 191.098 500.258 191.339 500.818 191.619C501.378 191.899 501.792 192.238 502.059 192.635C502.332 193.025 502.469 193.504 502.469 194.07C502.469 195.014 502.091 195.773 501.336 196.346C500.581 196.912 499.601 197.195 498.396 197.195C497.55 197.195 496.801 197.046 496.15 196.746C495.499 196.447 494.988 196.03 494.617 195.496C494.253 194.956 494.07 194.373 494.07 193.748H495.877C495.91 194.354 496.15 194.835 496.6 195.193C497.055 195.545 497.654 195.721 498.396 195.721C499.08 195.721 499.627 195.584 500.037 195.311C500.454 195.031 500.662 194.66 500.662 194.197Z" fill="black"/>
<path d="M455.984 165H451.258V142.168L444.285 144.551V140.547L455.379 136.465H455.984V165ZM484.988 165H465.867V161.738L475.34 151.406C476.707 149.883 477.677 148.613 478.25 147.598C478.836 146.569 479.129 145.54 479.129 144.512C479.129 143.158 478.745 142.064 477.977 141.23C477.221 140.397 476.199 139.98 474.91 139.98C473.374 139.98 472.182 140.449 471.336 141.387C470.49 142.324 470.066 143.607 470.066 145.234H465.32C465.32 143.503 465.711 141.947 466.492 140.566C467.286 139.173 468.413 138.092 469.871 137.324C471.342 136.556 473.035 136.172 474.949 136.172C477.71 136.172 479.884 136.868 481.473 138.262C483.074 139.642 483.875 141.556 483.875 144.004C483.875 145.423 483.471 146.914 482.664 148.477C481.87 150.026 480.561 151.79 478.738 153.77L471.785 161.211H484.988V165ZM489.578 171.406L487.02 169.883C487.775 168.698 488.289 167.663 488.562 166.777C488.849 165.905 488.999 165.013 489.012 164.102V160.41H493.289L493.27 163.828C493.257 165.208 492.905 166.589 492.215 167.969C491.538 169.362 490.659 170.508 489.578 171.406ZM513.445 154.863H516.98V158.672H513.445V165H508.699V158.672H496.414L496.277 155.781L508.543 136.562H513.445V154.863ZM501.258 154.863H508.699V142.988L508.348 143.613L501.258 154.863Z" fill="#8D75F3"/>
<path d="M700.369 194.354L702.83 186.434H704.764L700.516 198.631C699.858 200.389 698.813 201.268 697.381 201.268L697.039 201.238L696.365 201.111V199.646L696.854 199.686C697.465 199.686 697.941 199.562 698.279 199.314C698.624 199.067 698.908 198.615 699.129 197.957L699.529 196.883L695.76 186.434H697.732L700.369 194.354ZM710.633 197.195C709.201 197.195 708.035 196.727 707.137 195.789C706.238 194.845 705.789 193.585 705.789 192.01V191.678C705.789 190.63 705.988 189.695 706.385 188.875C706.788 188.048 707.348 187.404 708.064 186.941C708.787 186.473 709.568 186.238 710.408 186.238C711.782 186.238 712.85 186.691 713.611 187.596C714.373 188.501 714.754 189.796 714.754 191.482V192.234H707.596C707.622 193.276 707.924 194.119 708.504 194.764C709.09 195.402 709.832 195.721 710.73 195.721C711.368 195.721 711.909 195.59 712.352 195.33C712.794 195.07 713.182 194.725 713.514 194.295L714.617 195.154C713.732 196.515 712.404 197.195 710.633 197.195ZM710.408 187.723C709.679 187.723 709.067 187.99 708.572 188.523C708.077 189.051 707.771 189.793 707.654 190.75H712.947V190.613C712.895 189.695 712.648 188.986 712.205 188.484C711.762 187.977 711.163 187.723 710.408 187.723ZM723.377 197C723.273 196.792 723.188 196.421 723.123 195.887C722.283 196.759 721.281 197.195 720.115 197.195C719.074 197.195 718.217 196.902 717.547 196.316C716.883 195.724 716.551 194.975 716.551 194.07C716.551 192.97 716.967 192.117 717.801 191.512C718.641 190.9 719.819 190.594 721.336 190.594H723.094V189.764C723.094 189.132 722.905 188.631 722.527 188.26C722.15 187.882 721.593 187.693 720.857 187.693C720.213 187.693 719.673 187.856 719.236 188.182C718.8 188.507 718.582 188.901 718.582 189.363H716.766C716.766 188.836 716.951 188.328 717.322 187.84C717.7 187.345 718.208 186.954 718.846 186.668C719.49 186.382 720.197 186.238 720.965 186.238C722.182 186.238 723.136 186.544 723.826 187.156C724.516 187.762 724.874 188.598 724.9 189.666V194.529C724.9 195.499 725.024 196.271 725.271 196.844V197H723.377ZM720.379 195.623C720.945 195.623 721.482 195.477 721.99 195.184C722.498 194.891 722.866 194.51 723.094 194.041V191.873H721.678C719.464 191.873 718.357 192.521 718.357 193.816C718.357 194.383 718.546 194.826 718.924 195.145C719.301 195.464 719.786 195.623 720.379 195.623ZM732.84 188.055C732.566 188.009 732.27 187.986 731.951 187.986C730.766 187.986 729.962 188.491 729.539 189.5V197H727.732V186.434H729.49L729.52 187.654C730.112 186.71 730.952 186.238 732.039 186.238C732.391 186.238 732.658 186.284 732.84 186.375V188.055ZM740.662 194.197C740.662 193.709 740.477 193.331 740.105 193.064C739.741 192.791 739.1 192.557 738.182 192.361C737.27 192.166 736.544 191.932 736.004 191.658C735.47 191.385 735.073 191.059 734.812 190.682C734.559 190.304 734.432 189.855 734.432 189.334C734.432 188.468 734.796 187.736 735.525 187.137C736.261 186.538 737.199 186.238 738.338 186.238C739.536 186.238 740.506 186.548 741.248 187.166C741.997 187.785 742.371 188.576 742.371 189.539H740.555C740.555 189.044 740.343 188.618 739.92 188.26C739.503 187.902 738.976 187.723 738.338 187.723C737.68 187.723 737.166 187.866 736.795 188.152C736.424 188.439 736.238 188.813 736.238 189.275C736.238 189.712 736.411 190.04 736.756 190.262C737.101 190.483 737.723 190.695 738.621 190.896C739.526 191.098 740.258 191.339 740.818 191.619C741.378 191.899 741.792 192.238 742.059 192.635C742.332 193.025 742.469 193.504 742.469 194.07C742.469 195.014 742.091 195.773 741.336 196.346C740.581 196.912 739.601 197.195 738.396 197.195C737.55 197.195 736.801 197.046 736.15 196.746C735.499 196.447 734.988 196.03 734.617 195.496C734.253 194.956 734.07 194.373 734.07 193.748H735.877C735.91 194.354 736.15 194.835 736.6 195.193C737.055 195.545 737.654 195.721 738.396 195.721C739.08 195.721 739.627 195.584 740.037 195.311C740.454 195.031 740.662 194.66 740.662 194.197Z" fill="black"/>
<path d="M700.379 165H695.652V142.168L688.68 144.551V140.547L699.773 136.465H700.379V165ZM729.383 165H710.262V161.738L719.734 151.406C721.102 149.883 722.072 148.613 722.645 147.598C723.23 146.569 723.523 145.54 723.523 144.512C723.523 143.158 723.139 142.064 722.371 141.23C721.616 140.397 720.594 139.98 719.305 139.98C717.768 139.98 716.577 140.449 715.73 141.387C714.884 142.324 714.461 143.607 714.461 145.234H709.715C709.715 143.503 710.105 141.947 710.887 140.566C711.681 139.173 712.807 138.092 714.266 137.324C715.737 136.556 717.43 136.172 719.344 136.172C722.104 136.172 724.279 136.868 725.867 138.262C727.469 139.642 728.27 141.556 728.27 144.004C728.27 145.423 727.866 146.914 727.059 148.477C726.264 150.026 724.956 151.79 723.133 153.77L716.18 161.211H729.383V165ZM745.848 165H741.121V142.168L734.148 144.551V140.547L745.242 136.465H745.848V165Z" fill="#6CBAFA"/>
</svg>
