<svg width="1200" height="400" viewBox="0 0 1200 400" fill="none" xmlns="http://www.w3.org/2000/svg">
<rect width="1200" height="400" fill="white"/>
<circle cx="241" cy="200" r="10" fill="#00C7A5"/>
<circle cx="483" cy="200" r="10" fill="#8D75F3"/>
<circle cx="720" cy="200" r="10" fill="#6CBAFA"/>
<circle cx="960" cy="200" r="10" fill="#FBC800"/>
<path d="M463.369 327.354L465.83 319.434H467.764L463.516 331.631C462.858 333.389 461.813 334.268 460.381 334.268L460.039 334.238L459.365 334.111V332.646L459.854 332.686C460.465 332.686 460.941 332.562 461.279 332.314C461.624 332.067 461.908 331.615 462.129 330.957L462.529 329.883L458.76 319.434H460.732L463.369 327.354ZM473.633 330.195C472.201 330.195 471.035 329.727 470.137 328.789C469.238 327.845 468.789 326.585 468.789 325.01V324.678C468.789 323.63 468.988 322.695 469.385 321.875C469.788 321.048 470.348 320.404 471.064 319.941C471.787 319.473 472.568 319.238 473.408 319.238C474.782 319.238 475.85 319.691 476.611 320.596C477.373 321.501 477.754 322.796 477.754 324.482V325.234H470.596C470.622 326.276 470.924 327.119 471.504 327.764C472.09 328.402 472.832 328.721 473.73 328.721C474.368 328.721 474.909 328.59 475.352 328.33C475.794 328.07 476.182 327.725 476.514 327.295L477.617 328.154C476.732 329.515 475.404 330.195 473.633 330.195ZM473.408 320.723C472.679 320.723 472.067 320.99 471.572 321.523C471.077 322.051 470.771 322.793 470.654 323.75H475.947V323.613C475.895 322.695 475.648 321.986 475.205 321.484C474.762 320.977 474.163 320.723 473.408 320.723ZM486.377 330C486.273 329.792 486.188 329.421 486.123 328.887C485.283 329.759 484.281 330.195 483.115 330.195C482.074 330.195 481.217 329.902 480.547 329.316C479.883 328.724 479.551 327.975 479.551 327.07C479.551 325.97 479.967 325.117 480.801 324.512C481.641 323.9 482.819 323.594 484.336 323.594H486.094V322.764C486.094 322.132 485.905 321.631 485.527 321.26C485.15 320.882 484.593 320.693 483.857 320.693C483.213 320.693 482.673 320.856 482.236 321.182C481.8 321.507 481.582 321.901 481.582 322.363H479.766C479.766 321.836 479.951 321.328 480.322 320.84C480.7 320.345 481.208 319.954 481.846 319.668C482.49 319.382 483.197 319.238 483.965 319.238C485.182 319.238 486.136 319.544 486.826 320.156C487.516 320.762 487.874 321.598 487.9 322.666V327.529C487.9 328.499 488.024 329.271 488.271 329.844V330H486.377ZM483.379 328.623C483.945 328.623 484.482 328.477 484.99 328.184C485.498 327.891 485.866 327.51 486.094 327.041V324.873H484.678C482.464 324.873 481.357 325.521 481.357 326.816C481.357 327.383 481.546 327.826 481.924 328.145C482.301 328.464 482.786 328.623 483.379 328.623ZM495.84 321.055C495.566 321.009 495.27 320.986 494.951 320.986C493.766 320.986 492.962 321.491 492.539 322.5V330H490.732V319.434H492.49L492.52 320.654C493.112 319.71 493.952 319.238 495.039 319.238C495.391 319.238 495.658 319.284 495.84 319.375V321.055ZM503.662 327.197C503.662 326.709 503.477 326.331 503.105 326.064C502.741 325.791 502.1 325.557 501.182 325.361C500.27 325.166 499.544 324.932 499.004 324.658C498.47 324.385 498.073 324.059 497.812 323.682C497.559 323.304 497.432 322.855 497.432 322.334C497.432 321.468 497.796 320.736 498.525 320.137C499.261 319.538 500.199 319.238 501.338 319.238C502.536 319.238 503.506 319.548 504.248 320.166C504.997 320.785 505.371 321.576 505.371 322.539H503.555C503.555 322.044 503.343 321.618 502.92 321.26C502.503 320.902 501.976 320.723 501.338 320.723C500.68 320.723 500.166 320.866 499.795 321.152C499.424 321.439 499.238 321.813 499.238 322.275C499.238 322.712 499.411 323.04 499.756 323.262C500.101 323.483 500.723 323.695 501.621 323.896C502.526 324.098 503.258 324.339 503.818 324.619C504.378 324.899 504.792 325.238 505.059 325.635C505.332 326.025 505.469 326.504 505.469 327.07C505.469 328.014 505.091 328.773 504.336 329.346C503.581 329.912 502.601 330.195 501.396 330.195C500.55 330.195 499.801 330.046 499.15 329.746C498.499 329.447 497.988 329.03 497.617 328.496C497.253 327.956 497.07 327.373 497.07 326.748H498.877C498.91 327.354 499.15 327.835 499.6 328.193C500.055 328.545 500.654 328.721 501.396 328.721C502.08 328.721 502.627 328.584 503.037 328.311C503.454 328.031 503.662 327.66 503.662 327.197Z" fill="black"/>
<path d="M453.105 296H447.197V267.46L438.481 270.438V265.434L452.349 260.331H453.105V296ZM489.36 296H465.459V291.923L477.3 279.008C479.009 277.104 480.221 275.517 480.938 274.247C481.67 272.961 482.036 271.675 482.036 270.39C482.036 268.697 481.556 267.33 480.596 266.288C479.652 265.246 478.374 264.726 476.763 264.726C474.842 264.726 473.353 265.312 472.295 266.483C471.237 267.655 470.708 269.258 470.708 271.293H464.775C464.775 269.128 465.264 267.183 466.24 265.458C467.233 263.716 468.641 262.366 470.464 261.405C472.303 260.445 474.419 259.965 476.812 259.965C480.262 259.965 482.98 260.836 484.966 262.577C486.968 264.302 487.969 266.695 487.969 269.755C487.969 271.529 487.464 273.393 486.455 275.346C485.462 277.283 483.826 279.488 481.548 281.962L472.856 291.264H489.36V296ZM495.098 304.008L491.899 302.104C492.843 300.622 493.486 299.328 493.828 298.222C494.186 297.131 494.373 296.016 494.39 294.877V290.263H499.736L499.712 294.535C499.696 296.26 499.256 297.986 498.394 299.711C497.547 301.452 496.449 302.885 495.098 304.008ZM524.932 283.329H529.351V288.09H524.932V296H518.999V288.09H503.643L503.472 284.477L518.804 260.453H524.932V283.329ZM509.697 283.329H518.999V268.485L518.56 269.267L509.697 283.329Z" fill="#8D75F3"/>
</svg>
