<svg width="1300" height="400" viewBox="0 0 1300 400" fill="none" xmlns="http://www.w3.org/2000/svg">
<rect width="1300" height="400" fill="white"/>
<circle cx="521" cy="200" r="10" fill="#8D75F3"/>
<circle cx="261" cy="135" r="75" fill="#00C7A5"/>
<circle cx="1042" cy="135" r="75" fill="#FBC800" fill-opacity="0.15"/>
<path d="M241.369 327.354L243.83 319.434H245.764L241.516 331.631C240.858 333.389 239.813 334.268 238.381 334.268L238.039 334.238L237.365 334.111V332.646L237.854 332.686C238.465 332.686 238.941 332.562 239.279 332.314C239.624 332.067 239.908 331.615 240.129 330.957L240.529 329.883L236.76 319.434H238.732L241.369 327.354ZM251.633 330.195C250.201 330.195 249.035 329.727 248.137 328.789C247.238 327.845 246.789 326.585 246.789 325.01V324.678C246.789 323.63 246.988 322.695 247.385 321.875C247.788 321.048 248.348 320.404 249.064 319.941C249.787 319.473 250.568 319.238 251.408 319.238C252.782 319.238 253.85 319.691 254.611 320.596C255.373 321.501 255.754 322.796 255.754 324.482V325.234H248.596C248.622 326.276 248.924 327.119 249.504 327.764C250.09 328.402 250.832 328.721 251.73 328.721C252.368 328.721 252.909 328.59 253.352 328.33C253.794 328.07 254.182 327.725 254.514 327.295L255.617 328.154C254.732 329.515 253.404 330.195 251.633 330.195ZM251.408 320.723C250.679 320.723 250.067 320.99 249.572 321.523C249.077 322.051 248.771 322.793 248.654 323.75H253.947V323.613C253.895 322.695 253.648 321.986 253.205 321.484C252.762 320.977 252.163 320.723 251.408 320.723ZM264.377 330C264.273 329.792 264.188 329.421 264.123 328.887C263.283 329.759 262.281 330.195 261.115 330.195C260.074 330.195 259.217 329.902 258.547 329.316C257.883 328.724 257.551 327.975 257.551 327.07C257.551 325.97 257.967 325.117 258.801 324.512C259.641 323.9 260.819 323.594 262.336 323.594H264.094V322.764C264.094 322.132 263.905 321.631 263.527 321.26C263.15 320.882 262.593 320.693 261.857 320.693C261.213 320.693 260.673 320.856 260.236 321.182C259.8 321.507 259.582 321.901 259.582 322.363H257.766C257.766 321.836 257.951 321.328 258.322 320.84C258.7 320.345 259.208 319.954 259.846 319.668C260.49 319.382 261.197 319.238 261.965 319.238C263.182 319.238 264.136 319.544 264.826 320.156C265.516 320.762 265.874 321.598 265.9 322.666V327.529C265.9 328.499 266.024 329.271 266.271 329.844V330H264.377ZM261.379 328.623C261.945 328.623 262.482 328.477 262.99 328.184C263.498 327.891 263.866 327.51 264.094 327.041V324.873H262.678C260.464 324.873 259.357 325.521 259.357 326.816C259.357 327.383 259.546 327.826 259.924 328.145C260.301 328.464 260.786 328.623 261.379 328.623ZM273.84 321.055C273.566 321.009 273.27 320.986 272.951 320.986C271.766 320.986 270.962 321.491 270.539 322.5V330H268.732V319.434H270.49L270.52 320.654C271.112 319.71 271.952 319.238 273.039 319.238C273.391 319.238 273.658 319.284 273.84 319.375V321.055ZM281.662 327.197C281.662 326.709 281.477 326.331 281.105 326.064C280.741 325.791 280.1 325.557 279.182 325.361C278.27 325.166 277.544 324.932 277.004 324.658C276.47 324.385 276.073 324.059 275.812 323.682C275.559 323.304 275.432 322.855 275.432 322.334C275.432 321.468 275.796 320.736 276.525 320.137C277.261 319.538 278.199 319.238 279.338 319.238C280.536 319.238 281.506 319.548 282.248 320.166C282.997 320.785 283.371 321.576 283.371 322.539H281.555C281.555 322.044 281.343 321.618 280.92 321.26C280.503 320.902 279.976 320.723 279.338 320.723C278.68 320.723 278.166 320.866 277.795 321.152C277.424 321.439 277.238 321.813 277.238 322.275C277.238 322.712 277.411 323.04 277.756 323.262C278.101 323.483 278.723 323.695 279.621 323.896C280.526 324.098 281.258 324.339 281.818 324.619C282.378 324.899 282.792 325.238 283.059 325.635C283.332 326.025 283.469 326.504 283.469 327.07C283.469 328.014 283.091 328.773 282.336 329.346C281.581 329.912 280.601 330.195 279.396 330.195C278.55 330.195 277.801 330.046 277.15 329.746C276.499 329.447 275.988 329.03 275.617 328.496C275.253 327.956 275.07 327.373 275.07 326.748H276.877C276.91 327.354 277.15 327.835 277.6 328.193C278.055 328.545 278.654 328.721 279.396 328.721C280.08 328.721 280.627 328.584 281.037 328.311C281.454 328.031 281.662 327.66 281.662 327.197Z" fill="black"/>
<path d="M222.39 297H216.481V268.46L207.766 271.438V266.434L221.633 261.331H222.39V297ZM257.912 282.034C257.912 287.145 256.952 291.002 255.031 293.606C253.127 296.194 250.222 297.488 246.315 297.488C242.474 297.488 239.577 296.227 237.624 293.704C235.687 291.165 234.694 287.413 234.646 282.449V276.297C234.646 271.186 235.598 267.353 237.502 264.798C239.423 262.243 242.344 260.965 246.267 260.965C250.157 260.965 253.054 262.21 254.958 264.7C256.879 267.19 257.863 270.918 257.912 275.882V282.034ZM251.979 275.394C251.979 272.057 251.524 269.616 250.612 268.069C249.701 266.507 248.252 265.726 246.267 265.726C244.33 265.726 242.906 266.466 241.994 267.947C241.083 269.412 240.603 271.707 240.554 274.832V282.889C240.554 286.209 241.018 288.683 241.945 290.311C242.873 291.938 244.33 292.752 246.315 292.752C248.22 292.752 249.628 292.003 250.539 290.506C251.451 288.992 251.931 286.632 251.979 283.426V275.394ZM286.33 282.034C286.33 287.145 285.37 291.002 283.449 293.606C281.545 296.194 278.64 297.488 274.733 297.488C270.892 297.488 267.995 296.227 266.042 293.704C264.105 291.165 263.112 287.413 263.063 282.449V276.297C263.063 271.186 264.016 267.353 265.92 264.798C267.84 262.243 270.762 260.965 274.685 260.965C278.575 260.965 281.472 262.21 283.376 264.7C285.297 267.19 286.281 270.918 286.33 275.882V282.034ZM280.397 275.394C280.397 272.057 279.942 269.616 279.03 268.069C278.119 266.507 276.67 265.726 274.685 265.726C272.748 265.726 271.324 266.466 270.412 267.947C269.501 269.412 269.021 271.707 268.972 274.832V282.889C268.972 286.209 269.436 288.683 270.363 290.311C271.291 291.938 272.748 292.752 274.733 292.752C276.638 292.752 278.046 292.003 278.957 290.506C279.868 288.992 280.349 286.632 280.397 283.426V275.394ZM314.748 282.034C314.748 287.145 313.788 291.002 311.867 293.606C309.963 296.194 307.058 297.488 303.151 297.488C299.31 297.488 296.413 296.227 294.46 293.704C292.523 291.165 291.53 287.413 291.481 282.449V276.297C291.481 271.186 292.434 267.353 294.338 264.798C296.258 262.243 299.18 260.965 303.103 260.965C306.993 260.965 309.89 262.21 311.794 264.7C313.715 267.19 314.699 270.918 314.748 275.882V282.034ZM308.815 275.394C308.815 272.057 308.36 269.616 307.448 268.069C306.537 266.507 305.088 265.726 303.103 265.726C301.166 265.726 299.742 266.466 298.83 267.947C297.919 269.412 297.438 271.707 297.39 274.832V282.889C297.39 286.209 297.854 288.683 298.781 290.311C299.709 291.938 301.166 292.752 303.151 292.752C305.056 292.752 306.464 292.003 307.375 290.506C308.286 288.992 308.767 286.632 308.815 283.426V275.394Z" fill="#00C7A5"/>
<path d="M251.411 245.216C250.883 245.836 250.109 246.146 249.089 246.146C248.244 246.146 247.6 245.902 247.155 245.414C246.716 244.921 246.494 244.193 246.489 243.231V238.075H247.844V243.195C247.844 244.396 248.332 244.997 249.309 244.997C250.344 244.997 251.032 244.611 251.374 243.839V238.075H252.729V246H251.44L251.411 245.216ZM261.489 242.125C261.489 243.332 261.213 244.303 260.661 245.041C260.109 245.778 259.362 246.146 258.42 246.146C257.458 246.146 256.701 245.841 256.149 245.231V249.047H254.794V238.075H256.032L256.098 238.954C256.65 238.271 257.417 237.929 258.398 237.929C259.35 237.929 260.102 238.288 260.654 239.005C261.21 239.723 261.489 240.722 261.489 242.001V242.125ZM260.134 241.972C260.134 241.078 259.943 240.373 259.562 239.855C259.182 239.337 258.659 239.079 257.995 239.079C257.175 239.079 256.56 239.442 256.149 240.17V243.957C256.555 244.679 257.175 245.041 258.01 245.041C258.659 245.041 259.174 244.784 259.555 244.271C259.941 243.754 260.134 242.987 260.134 241.972ZM268.776 236.156V238.075H270.256V239.123H268.776V244.037C268.776 244.354 268.842 244.594 268.974 244.755C269.106 244.911 269.331 244.989 269.648 244.989C269.804 244.989 270.019 244.96 270.292 244.901V246C269.936 246.098 269.589 246.146 269.252 246.146C268.647 246.146 268.19 245.963 267.883 245.597C267.575 245.231 267.421 244.711 267.421 244.037V239.123H265.979V238.075H267.421V236.156H268.776ZM271.34 241.964C271.34 241.188 271.491 240.49 271.794 239.87C272.102 239.25 272.526 238.771 273.068 238.434C273.615 238.097 274.238 237.929 274.936 237.929C276.015 237.929 276.887 238.302 277.551 239.049C278.22 239.796 278.554 240.79 278.554 242.03V242.125C278.554 242.897 278.405 243.59 278.107 244.206C277.814 244.816 277.392 245.292 276.84 245.634C276.293 245.976 275.664 246.146 274.951 246.146C273.876 246.146 273.005 245.773 272.336 245.026C271.672 244.279 271.34 243.29 271.34 242.06V241.964ZM272.702 242.125C272.702 243.004 272.905 243.71 273.31 244.242C273.72 244.774 274.267 245.041 274.951 245.041C275.639 245.041 276.186 244.772 276.591 244.235C276.997 243.693 277.199 242.936 277.199 241.964C277.199 241.095 276.992 240.392 276.577 239.855C276.167 239.313 275.62 239.042 274.936 239.042C274.267 239.042 273.728 239.308 273.317 239.84C272.907 240.373 272.702 241.134 272.702 242.125Z" fill="black"/>
<circle cx="781" cy="185" r="25" fill="#6CBAFA"/>
<path d="M761.369 328.354L763.83 320.434H765.764L761.516 332.631C760.858 334.389 759.813 335.268 758.381 335.268L758.039 335.238L757.365 335.111V333.646L757.854 333.686C758.465 333.686 758.941 333.562 759.279 333.314C759.624 333.067 759.908 332.615 760.129 331.957L760.529 330.883L756.76 320.434H758.732L761.369 328.354ZM771.633 331.195C770.201 331.195 769.035 330.727 768.137 329.789C767.238 328.845 766.789 327.585 766.789 326.01V325.678C766.789 324.63 766.988 323.695 767.385 322.875C767.788 322.048 768.348 321.404 769.064 320.941C769.787 320.473 770.568 320.238 771.408 320.238C772.782 320.238 773.85 320.691 774.611 321.596C775.373 322.501 775.754 323.796 775.754 325.482V326.234H768.596C768.622 327.276 768.924 328.119 769.504 328.764C770.09 329.402 770.832 329.721 771.73 329.721C772.368 329.721 772.909 329.59 773.352 329.33C773.794 329.07 774.182 328.725 774.514 328.295L775.617 329.154C774.732 330.515 773.404 331.195 771.633 331.195ZM771.408 321.723C770.679 321.723 770.067 321.99 769.572 322.523C769.077 323.051 768.771 323.793 768.654 324.75H773.947V324.613C773.895 323.695 773.648 322.986 773.205 322.484C772.762 321.977 772.163 321.723 771.408 321.723ZM784.377 331C784.273 330.792 784.188 330.421 784.123 329.887C783.283 330.759 782.281 331.195 781.115 331.195C780.074 331.195 779.217 330.902 778.547 330.316C777.883 329.724 777.551 328.975 777.551 328.07C777.551 326.97 777.967 326.117 778.801 325.512C779.641 324.9 780.819 324.594 782.336 324.594H784.094V323.764C784.094 323.132 783.905 322.631 783.527 322.26C783.15 321.882 782.593 321.693 781.857 321.693C781.213 321.693 780.673 321.856 780.236 322.182C779.8 322.507 779.582 322.901 779.582 323.363H777.766C777.766 322.836 777.951 322.328 778.322 321.84C778.7 321.345 779.208 320.954 779.846 320.668C780.49 320.382 781.197 320.238 781.965 320.238C783.182 320.238 784.136 320.544 784.826 321.156C785.516 321.762 785.874 322.598 785.9 323.666V328.529C785.9 329.499 786.024 330.271 786.271 330.844V331H784.377ZM781.379 329.623C781.945 329.623 782.482 329.477 782.99 329.184C783.498 328.891 783.866 328.51 784.094 328.041V325.873H782.678C780.464 325.873 779.357 326.521 779.357 327.816C779.357 328.383 779.546 328.826 779.924 329.145C780.301 329.464 780.786 329.623 781.379 329.623ZM793.84 322.055C793.566 322.009 793.27 321.986 792.951 321.986C791.766 321.986 790.962 322.491 790.539 323.5V331H788.732V320.434H790.49L790.52 321.654C791.112 320.71 791.952 320.238 793.039 320.238C793.391 320.238 793.658 320.284 793.84 320.375V322.055ZM801.662 328.197C801.662 327.709 801.477 327.331 801.105 327.064C800.741 326.791 800.1 326.557 799.182 326.361C798.27 326.166 797.544 325.932 797.004 325.658C796.47 325.385 796.073 325.059 795.812 324.682C795.559 324.304 795.432 323.855 795.432 323.334C795.432 322.468 795.796 321.736 796.525 321.137C797.261 320.538 798.199 320.238 799.338 320.238C800.536 320.238 801.506 320.548 802.248 321.166C802.997 321.785 803.371 322.576 803.371 323.539H801.555C801.555 323.044 801.343 322.618 800.92 322.26C800.503 321.902 799.976 321.723 799.338 321.723C798.68 321.723 798.166 321.866 797.795 322.152C797.424 322.439 797.238 322.813 797.238 323.275C797.238 323.712 797.411 324.04 797.756 324.262C798.101 324.483 798.723 324.695 799.621 324.896C800.526 325.098 801.258 325.339 801.818 325.619C802.378 325.899 802.792 326.238 803.059 326.635C803.332 327.025 803.469 327.504 803.469 328.07C803.469 329.014 803.091 329.773 802.336 330.346C801.581 330.912 800.601 331.195 799.396 331.195C798.55 331.195 797.801 331.046 797.15 330.746C796.499 330.447 795.988 330.03 795.617 329.496C795.253 328.956 795.07 328.373 795.07 327.748H796.877C796.91 328.354 797.15 328.835 797.6 329.193C798.055 329.545 798.654 329.721 799.396 329.721C800.08 329.721 800.627 329.584 801.037 329.311C801.454 329.031 801.662 328.66 801.662 328.197Z" fill="black"/>
<path d="M756.599 297H750.69V268.46L741.975 271.438V266.434L755.842 261.331H756.599V297ZM792.854 297H768.952V292.923L780.793 280.008C782.502 278.104 783.715 276.517 784.431 275.247C785.163 273.961 785.529 272.675 785.529 271.39C785.529 269.697 785.049 268.33 784.089 267.288C783.145 266.246 781.867 265.726 780.256 265.726C778.335 265.726 776.846 266.312 775.788 267.483C774.73 268.655 774.201 270.258 774.201 272.293H768.269C768.269 270.128 768.757 268.183 769.733 266.458C770.726 264.716 772.134 263.366 773.957 262.405C775.796 261.445 777.912 260.965 780.305 260.965C783.755 260.965 786.473 261.836 788.459 263.577C790.461 265.302 791.462 267.695 791.462 270.755C791.462 272.529 790.957 274.393 789.948 276.346C788.955 278.283 787.32 280.488 785.041 282.962L776.35 292.264H792.854V297ZM813.435 297H807.526V268.46L798.811 271.438V266.434L812.678 261.331H813.435V297Z" fill="#6CBAFA"/>
<path d="M501.369 327.354L503.83 319.434H505.764L501.516 331.631C500.858 333.389 499.813 334.268 498.381 334.268L498.039 334.238L497.365 334.111V332.646L497.854 332.686C498.465 332.686 498.941 332.562 499.279 332.314C499.624 332.067 499.908 331.615 500.129 330.957L500.529 329.883L496.76 319.434H498.732L501.369 327.354ZM511.633 330.195C510.201 330.195 509.035 329.727 508.137 328.789C507.238 327.845 506.789 326.585 506.789 325.01V324.678C506.789 323.63 506.988 322.695 507.385 321.875C507.788 321.048 508.348 320.404 509.064 319.941C509.787 319.473 510.568 319.238 511.408 319.238C512.782 319.238 513.85 319.691 514.611 320.596C515.373 321.501 515.754 322.796 515.754 324.482V325.234H508.596C508.622 326.276 508.924 327.119 509.504 327.764C510.09 328.402 510.832 328.721 511.73 328.721C512.368 328.721 512.909 328.59 513.352 328.33C513.794 328.07 514.182 327.725 514.514 327.295L515.617 328.154C514.732 329.515 513.404 330.195 511.633 330.195ZM511.408 320.723C510.679 320.723 510.067 320.99 509.572 321.523C509.077 322.051 508.771 322.793 508.654 323.75H513.947V323.613C513.895 322.695 513.648 321.986 513.205 321.484C512.762 320.977 512.163 320.723 511.408 320.723ZM524.377 330C524.273 329.792 524.188 329.421 524.123 328.887C523.283 329.759 522.281 330.195 521.115 330.195C520.074 330.195 519.217 329.902 518.547 329.316C517.883 328.724 517.551 327.975 517.551 327.07C517.551 325.97 517.967 325.117 518.801 324.512C519.641 323.9 520.819 323.594 522.336 323.594H524.094V322.764C524.094 322.132 523.905 321.631 523.527 321.26C523.15 320.882 522.593 320.693 521.857 320.693C521.213 320.693 520.673 320.856 520.236 321.182C519.8 321.507 519.582 321.901 519.582 322.363H517.766C517.766 321.836 517.951 321.328 518.322 320.84C518.7 320.345 519.208 319.954 519.846 319.668C520.49 319.382 521.197 319.238 521.965 319.238C523.182 319.238 524.136 319.544 524.826 320.156C525.516 320.762 525.874 321.598 525.9 322.666V327.529C525.9 328.499 526.024 329.271 526.271 329.844V330H524.377ZM521.379 328.623C521.945 328.623 522.482 328.477 522.99 328.184C523.498 327.891 523.866 327.51 524.094 327.041V324.873H522.678C520.464 324.873 519.357 325.521 519.357 326.816C519.357 327.383 519.546 327.826 519.924 328.145C520.301 328.464 520.786 328.623 521.379 328.623ZM533.84 321.055C533.566 321.009 533.27 320.986 532.951 320.986C531.766 320.986 530.962 321.491 530.539 322.5V330H528.732V319.434H530.49L530.52 320.654C531.112 319.71 531.952 319.238 533.039 319.238C533.391 319.238 533.658 319.284 533.84 319.375V321.055ZM541.662 327.197C541.662 326.709 541.477 326.331 541.105 326.064C540.741 325.791 540.1 325.557 539.182 325.361C538.27 325.166 537.544 324.932 537.004 324.658C536.47 324.385 536.073 324.059 535.812 323.682C535.559 323.304 535.432 322.855 535.432 322.334C535.432 321.468 535.796 320.736 536.525 320.137C537.261 319.538 538.199 319.238 539.338 319.238C540.536 319.238 541.506 319.548 542.248 320.166C542.997 320.785 543.371 321.576 543.371 322.539H541.555C541.555 322.044 541.343 321.618 540.92 321.26C540.503 320.902 539.976 320.723 539.338 320.723C538.68 320.723 538.166 320.866 537.795 321.152C537.424 321.439 537.238 321.813 537.238 322.275C537.238 322.712 537.411 323.04 537.756 323.262C538.101 323.483 538.723 323.695 539.621 323.896C540.526 324.098 541.258 324.339 541.818 324.619C542.378 324.899 542.792 325.238 543.059 325.635C543.332 326.025 543.469 326.504 543.469 327.07C543.469 328.014 543.091 328.773 542.336 329.346C541.581 329.912 540.601 330.195 539.396 330.195C538.55 330.195 537.801 330.046 537.15 329.746C536.499 329.447 535.988 329.03 535.617 328.496C535.253 327.956 535.07 327.373 535.07 326.748H536.877C536.91 327.354 537.15 327.835 537.6 328.193C538.055 328.545 538.654 328.721 539.396 328.721C540.08 328.721 540.627 328.584 541.037 328.311C541.454 328.031 541.662 327.66 541.662 327.197Z" fill="black"/>
<path d="M491.105 296H485.197V267.46L476.481 270.438V265.434L490.349 260.331H491.105V296ZM527.36 296H503.459V291.923L515.3 279.008C517.009 277.104 518.221 275.517 518.938 274.247C519.67 272.961 520.036 271.675 520.036 270.39C520.036 268.697 519.556 267.33 518.596 266.288C517.652 265.246 516.374 264.726 514.763 264.726C512.842 264.726 511.353 265.312 510.295 266.483C509.237 267.655 508.708 269.258 508.708 271.293H502.775C502.775 269.128 503.264 267.183 504.24 265.458C505.233 263.716 506.641 262.366 508.464 261.405C510.303 260.445 512.419 259.965 514.812 259.965C518.262 259.965 520.98 260.836 522.966 262.577C524.968 264.302 525.969 266.695 525.969 269.755C525.969 271.529 525.464 273.393 524.455 275.346C523.462 277.283 521.826 279.488 519.548 281.962L510.856 291.264H527.36V296ZM533.098 304.008L529.899 302.104C530.843 300.622 531.486 299.328 531.828 298.222C532.186 297.131 532.373 296.016 532.39 294.877V290.263H537.736L537.712 294.535C537.696 296.26 537.256 297.986 536.394 299.711C535.547 301.452 534.449 302.885 533.098 304.008ZM562.932 283.329H567.351V288.09H562.932V296H556.999V288.09H541.643L541.472 284.477L556.804 260.453H562.932V283.329ZM547.697 283.329H556.999V268.485L556.56 269.267L547.697 283.329Z" fill="#8D75F3"/>
<circle cx="1042" cy="160" r="50" fill="#FBC800"/>
<path d="M926.647 279.373L928.576 261.453H947.668V266.58H933.508L932.531 275.076C934.175 274.132 936.031 273.66 938.098 273.66C941.483 273.66 944.112 274.743 945.983 276.907C947.871 279.072 948.815 281.985 948.815 285.647C948.815 289.261 947.774 292.142 945.69 294.29C943.607 296.422 940.751 297.488 937.121 297.488C933.866 297.488 931.164 296.569 929.016 294.729C926.883 292.874 925.728 290.433 925.549 287.405H931.286C931.514 289.131 932.132 290.457 933.142 291.385C934.151 292.296 935.469 292.752 937.097 292.752C938.92 292.752 940.336 292.101 941.345 290.799C942.37 289.497 942.883 287.723 942.883 285.477C942.883 283.312 942.321 281.603 941.198 280.35C940.075 279.08 938.529 278.445 936.56 278.445C935.485 278.445 934.574 278.592 933.825 278.885C933.076 279.161 932.263 279.715 931.384 280.545L926.647 279.373ZM955.065 279.373L956.994 261.453H976.086V266.58H961.926L960.949 275.076C962.593 274.132 964.449 273.66 966.516 273.66C969.901 273.66 972.53 274.743 974.401 276.907C976.289 279.072 977.233 281.985 977.233 285.647C977.233 289.261 976.192 292.142 974.108 294.29C972.025 296.422 969.169 297.488 965.539 297.488C962.284 297.488 959.582 296.569 957.434 294.729C955.301 292.874 954.146 290.433 953.967 287.405H959.704C959.932 289.131 960.55 290.457 961.56 291.385C962.569 292.296 963.887 292.752 965.515 292.752C967.338 292.752 968.754 292.101 969.763 290.799C970.788 289.497 971.301 287.723 971.301 285.477C971.301 283.312 970.739 281.603 969.616 280.35C968.493 279.08 966.947 278.445 964.978 278.445C963.903 278.445 962.992 278.592 962.243 278.885C961.494 279.161 960.681 279.715 959.802 280.545L955.065 279.373ZM1005.07 282.034C1005.07 287.145 1004.11 291.002 1002.18 293.606C1000.28 296.194 997.375 297.488 993.469 297.488C989.628 297.488 986.73 296.227 984.777 293.704C982.84 291.165 981.848 287.413 981.799 282.449V276.297C981.799 271.186 982.751 267.353 984.655 264.798C986.576 262.243 989.497 260.965 993.42 260.965C997.31 260.965 1000.21 262.21 1002.11 264.7C1004.03 267.19 1005.02 270.918 1005.07 275.882V282.034ZM999.133 275.394C999.133 272.057 998.677 269.616 997.766 268.069C996.854 266.507 995.406 265.726 993.42 265.726C991.483 265.726 990.059 266.466 989.147 267.947C988.236 269.412 987.756 271.707 987.707 274.832V282.889C987.707 286.209 988.171 288.683 989.099 290.311C990.026 291.938 991.483 292.752 993.469 292.752C995.373 292.752 996.781 292.003 997.692 290.506C998.604 288.992 999.084 286.632 999.133 283.426V275.394ZM1039.84 281.839H1014.99V277.054H1039.84V281.839ZM1056.45 276.517H1060.06C1061.89 276.5 1063.33 276.028 1064.38 275.101C1065.46 274.173 1066 272.83 1066 271.072C1066 269.38 1065.55 268.069 1064.65 267.142C1063.77 266.198 1062.42 265.726 1060.6 265.726C1059.01 265.726 1057.7 266.189 1056.67 267.117C1055.64 268.029 1055.13 269.225 1055.13 270.706H1049.2C1049.2 268.883 1049.68 267.223 1050.64 265.726C1051.62 264.228 1052.97 263.064 1054.69 262.234C1056.43 261.388 1058.38 260.965 1060.53 260.965C1064.08 260.965 1066.86 261.86 1068.88 263.65C1070.91 265.424 1071.93 267.898 1071.93 271.072C1071.93 272.667 1071.42 274.173 1070.39 275.589C1069.38 276.989 1068.07 278.047 1066.46 278.763C1068.41 279.43 1069.89 280.48 1070.9 281.912C1071.93 283.344 1072.44 285.053 1072.44 287.039C1072.44 290.229 1071.34 292.768 1069.15 294.656C1066.96 296.544 1064.09 297.488 1060.53 297.488C1057.11 297.488 1054.31 296.577 1052.13 294.754C1049.95 292.931 1048.86 290.506 1048.86 287.479H1054.79C1054.79 289.041 1055.31 290.311 1056.35 291.287C1057.41 292.264 1058.83 292.752 1060.6 292.752C1062.44 292.752 1063.89 292.264 1064.95 291.287C1066 290.311 1066.53 288.895 1066.53 287.039C1066.53 285.167 1065.98 283.727 1064.87 282.718C1063.77 281.709 1062.12 281.204 1059.94 281.204H1056.45V276.517ZM1101.91 297H1078.01V292.923L1089.85 280.008C1091.56 278.104 1092.77 276.517 1093.49 275.247C1094.22 273.961 1094.58 272.675 1094.58 271.39C1094.58 269.697 1094.1 268.33 1093.14 267.288C1092.2 266.246 1090.92 265.726 1089.31 265.726C1087.39 265.726 1085.9 266.312 1084.84 267.483C1083.79 268.655 1083.26 270.258 1083.26 272.293H1077.32C1077.32 270.128 1077.81 268.183 1078.79 266.458C1079.78 264.716 1081.19 263.366 1083.01 262.405C1084.85 261.445 1086.97 260.965 1089.36 260.965C1092.81 260.965 1095.53 261.836 1097.51 263.577C1099.52 265.302 1100.52 267.695 1100.52 270.755C1100.52 272.529 1100.01 274.393 1099 276.346C1098.01 278.283 1096.38 280.488 1094.1 282.962L1085.41 292.264H1101.91V297ZM1129.59 282.034C1129.59 287.145 1128.63 291.002 1126.71 293.606C1124.81 296.194 1121.9 297.488 1118 297.488C1114.16 297.488 1111.26 296.227 1109.31 293.704C1107.37 291.165 1106.38 287.413 1106.33 282.449V276.297C1106.33 271.186 1107.28 267.353 1109.18 264.798C1111.11 262.243 1114.03 260.965 1117.95 260.965C1121.84 260.965 1124.74 262.21 1126.64 264.7C1128.56 267.19 1129.55 270.918 1129.59 275.882V282.034ZM1123.66 275.394C1123.66 272.057 1123.21 269.616 1122.29 268.069C1121.38 266.507 1119.93 265.726 1117.95 265.726C1116.01 265.726 1114.59 266.466 1113.68 267.947C1112.77 269.412 1112.29 271.707 1112.24 274.832V282.889C1112.24 286.209 1112.7 288.683 1113.63 290.311C1114.56 291.938 1116.01 292.752 1118 292.752C1119.9 292.752 1121.31 292.003 1122.22 290.506C1123.13 288.992 1123.61 286.632 1123.66 283.426V275.394ZM1158.01 282.034C1158.01 287.145 1157.05 291.002 1155.13 293.606C1153.23 296.194 1150.32 297.488 1146.42 297.488C1142.57 297.488 1139.68 296.227 1137.72 293.704C1135.79 291.165 1134.79 287.413 1134.75 282.449V276.297C1134.75 271.186 1135.7 267.353 1137.6 264.798C1139.52 262.243 1142.44 260.965 1146.37 260.965C1150.26 260.965 1153.15 262.21 1155.06 264.7C1156.98 267.19 1157.96 270.918 1158.01 275.882V282.034ZM1152.08 275.394C1152.08 272.057 1151.62 269.616 1150.71 268.069C1149.8 266.507 1148.35 265.726 1146.37 265.726C1144.43 265.726 1143.01 266.466 1142.09 267.947C1141.18 269.412 1140.7 271.707 1140.65 274.832V282.889C1140.65 286.209 1141.12 288.683 1142.05 290.311C1142.97 291.938 1144.43 292.752 1146.42 292.752C1148.32 292.752 1149.73 292.003 1150.64 290.506C1151.55 288.992 1152.03 286.632 1152.08 283.426V275.394Z" fill="#FBC800"/>
<path d="M988.377 245.162L990.34 239.075H991.725L988.883 247H987.85L984.979 239.075H986.363L988.377 245.162ZM997.804 247C997.726 246.844 997.662 246.565 997.613 246.165C996.983 246.819 996.231 247.146 995.357 247.146C994.576 247.146 993.934 246.927 993.431 246.487C992.933 246.043 992.684 245.481 992.684 244.803C992.684 243.978 992.997 243.338 993.622 242.884C994.251 242.425 995.135 242.195 996.273 242.195H997.591V241.573C997.591 241.099 997.45 240.723 997.167 240.445C996.883 240.162 996.466 240.02 995.914 240.02C995.431 240.02 995.025 240.142 994.698 240.386C994.371 240.63 994.208 240.926 994.208 241.272H992.845C992.845 240.877 992.984 240.496 993.263 240.13C993.546 239.759 993.927 239.466 994.405 239.251C994.889 239.036 995.418 238.929 995.995 238.929C996.908 238.929 997.623 239.158 998.141 239.617C998.658 240.071 998.927 240.699 998.946 241.5V245.147C998.946 245.875 999.039 246.453 999.225 246.883V247H997.804ZM995.555 245.967C995.98 245.967 996.383 245.857 996.764 245.638C997.145 245.418 997.42 245.132 997.591 244.781V243.155H996.529C994.869 243.155 994.039 243.641 994.039 244.612C994.039 245.037 994.181 245.369 994.464 245.608C994.747 245.848 995.111 245.967 995.555 245.967ZM1004.9 240.291C1004.7 240.257 1004.47 240.24 1004.23 240.24C1003.35 240.24 1002.74 240.618 1002.43 241.375V247H1001.07V239.075H1002.39L1002.41 239.991C1002.85 239.283 1003.48 238.929 1004.3 238.929C1004.56 238.929 1004.76 238.963 1004.9 239.031V240.291ZM1009.98 240.291C1009.78 240.257 1009.56 240.24 1009.32 240.24C1008.43 240.24 1007.83 240.618 1007.51 241.375V247H1006.15V239.075H1007.47L1007.49 239.991C1007.94 239.283 1008.57 238.929 1009.38 238.929C1009.65 238.929 1009.85 238.963 1009.98 239.031V240.291ZM1013.96 245.015L1015.81 239.075H1017.26L1014.07 248.223C1013.58 249.542 1012.79 250.201 1011.72 250.201L1011.46 250.179L1010.96 250.083V248.985L1011.32 249.014C1011.78 249.014 1012.14 248.921 1012.39 248.736C1012.65 248.55 1012.86 248.211 1013.03 247.718L1013.33 246.912L1010.5 239.075H1011.98L1013.96 245.015ZM1019.94 247H1018.59V239.075H1019.94V247ZM1018.48 236.973C1018.48 236.753 1018.55 236.568 1018.68 236.417C1018.81 236.265 1019.01 236.189 1019.28 236.189C1019.54 236.189 1019.74 236.265 1019.88 236.417C1020.02 236.568 1020.08 236.753 1020.08 236.973C1020.08 237.193 1020.02 237.376 1019.88 237.522C1019.74 237.669 1019.54 237.742 1019.28 237.742C1019.01 237.742 1018.81 237.669 1018.68 237.522C1018.55 237.376 1018.48 237.193 1018.48 236.973ZM1023.4 239.075L1023.45 240.071C1024.05 239.31 1024.84 238.929 1025.82 238.929C1027.49 238.929 1028.34 239.874 1028.35 241.763V247H1027V241.756C1026.99 241.185 1026.86 240.762 1026.6 240.489C1026.35 240.215 1025.95 240.079 1025.41 240.079C1024.97 240.079 1024.58 240.196 1024.25 240.43C1023.92 240.665 1023.66 240.972 1023.48 241.353V247H1022.12V239.075H1023.4ZM1030.07 242.972C1030.07 241.736 1030.36 240.755 1030.93 240.027C1031.5 239.295 1032.26 238.929 1033.2 238.929C1034.17 238.929 1034.92 239.271 1035.46 239.954L1035.53 239.075H1036.77V246.81C1036.77 247.835 1036.46 248.643 1035.85 249.234C1035.25 249.825 1034.43 250.12 1033.41 250.12C1032.84 250.12 1032.28 249.998 1031.73 249.754C1031.18 249.51 1030.77 249.175 1030.48 248.75L1031.18 247.938C1031.76 248.655 1032.47 249.014 1033.31 249.014C1033.97 249.014 1034.48 248.829 1034.85 248.458C1035.22 248.086 1035.41 247.564 1035.41 246.89V246.209C1034.86 246.834 1034.12 247.146 1033.19 247.146C1032.26 247.146 1031.51 246.773 1030.93 246.026C1030.36 245.279 1030.07 244.261 1030.07 242.972ZM1031.44 243.125C1031.44 244.019 1031.62 244.722 1031.99 245.235C1032.35 245.743 1032.86 245.997 1033.52 245.997C1034.38 245.997 1035.01 245.608 1035.41 244.832V241.214C1034.99 240.457 1034.37 240.079 1033.54 240.079C1032.88 240.079 1032.36 240.335 1031.99 240.848C1031.62 241.36 1031.44 242.12 1031.44 243.125ZM1049.25 243.125C1049.25 244.336 1048.97 245.311 1048.41 246.048C1047.86 246.78 1047.11 247.146 1046.17 247.146C1045.17 247.146 1044.4 246.792 1043.85 246.084L1043.79 247H1042.54V235.75H1043.9V239.947C1044.44 239.268 1045.2 238.929 1046.16 238.929C1047.12 238.929 1047.87 239.292 1048.42 240.02C1048.97 240.748 1049.25 241.744 1049.25 243.008V243.125ZM1047.89 242.972C1047.89 242.049 1047.72 241.336 1047.36 240.833C1047 240.33 1046.49 240.079 1045.82 240.079C1044.93 240.079 1044.29 240.494 1043.9 241.324V244.751C1044.31 245.582 1044.96 245.997 1045.84 245.997C1046.49 245.997 1046.99 245.745 1047.35 245.242C1047.71 244.739 1047.89 243.982 1047.89 242.972ZM1054.25 247.146C1053.18 247.146 1052.3 246.795 1051.63 246.092C1050.96 245.384 1050.62 244.439 1050.62 243.257V243.008C1050.62 242.222 1050.77 241.521 1051.07 240.906C1051.37 240.286 1051.79 239.803 1052.33 239.456C1052.87 239.104 1053.45 238.929 1054.08 238.929C1055.11 238.929 1055.91 239.268 1056.49 239.947C1057.06 240.625 1057.34 241.597 1057.34 242.862V243.426H1051.97C1051.99 244.207 1052.22 244.839 1052.65 245.323C1053.09 245.801 1053.65 246.041 1054.32 246.041C1054.8 246.041 1055.21 245.943 1055.54 245.748C1055.87 245.552 1056.16 245.293 1056.41 244.971L1057.24 245.616C1056.58 246.636 1055.58 247.146 1054.25 247.146ZM1054.08 240.042C1053.54 240.042 1053.08 240.242 1052.71 240.643C1052.33 241.038 1052.11 241.595 1052.02 242.312H1055.99V242.21C1055.95 241.521 1055.76 240.989 1055.43 240.613C1055.1 240.232 1054.65 240.042 1054.08 240.042ZM1060.76 237.156V239.075H1062.23V240.123H1060.76V245.037C1060.76 245.354 1060.82 245.594 1060.95 245.755C1061.08 245.911 1061.31 245.989 1061.63 245.989C1061.78 245.989 1062 245.96 1062.27 245.901V247C1061.92 247.098 1061.57 247.146 1061.23 247.146C1060.63 247.146 1060.17 246.963 1059.86 246.597C1059.55 246.231 1059.4 245.711 1059.4 245.037V240.123H1057.96V239.075H1059.4V237.156H1060.76ZM1070.84 245.132L1072.36 239.075H1073.72L1071.41 247H1070.31L1068.39 240.994L1066.51 247H1065.41L1063.11 239.075H1064.46L1066.02 245.008L1067.87 239.075H1068.96L1070.84 245.132ZM1078.39 247.146C1077.32 247.146 1076.44 246.795 1075.77 246.092C1075.1 245.384 1074.76 244.439 1074.76 243.257V243.008C1074.76 242.222 1074.91 241.521 1075.21 240.906C1075.51 240.286 1075.93 239.803 1076.47 239.456C1077.01 239.104 1077.59 238.929 1078.22 238.929C1079.25 238.929 1080.05 239.268 1080.63 239.947C1081.2 240.625 1081.48 241.597 1081.48 242.862V243.426H1076.11C1076.13 244.207 1076.36 244.839 1076.8 245.323C1077.23 245.801 1077.79 246.041 1078.47 246.041C1078.94 246.041 1079.35 245.943 1079.68 245.748C1080.01 245.552 1080.3 245.293 1080.55 244.971L1081.38 245.616C1080.72 246.636 1079.72 247.146 1078.39 247.146ZM1078.22 240.042C1077.68 240.042 1077.22 240.242 1076.85 240.643C1076.48 241.038 1076.25 241.595 1076.16 242.312H1080.13V242.21C1080.09 241.521 1079.9 240.989 1079.57 240.613C1079.24 240.232 1078.79 240.042 1078.22 240.042ZM1086.35 247.146C1085.27 247.146 1084.4 246.795 1083.72 246.092C1083.05 245.384 1082.71 244.439 1082.71 243.257V243.008C1082.71 242.222 1082.86 241.521 1083.16 240.906C1083.46 240.286 1083.88 239.803 1084.42 239.456C1084.96 239.104 1085.55 238.929 1086.18 238.929C1087.21 238.929 1088.01 239.268 1088.58 239.947C1089.15 240.625 1089.44 241.597 1089.44 242.862V243.426H1084.07C1084.09 244.207 1084.31 244.839 1084.75 245.323C1085.19 245.801 1085.75 246.041 1086.42 246.041C1086.9 246.041 1087.3 245.943 1087.64 245.748C1087.97 245.552 1088.26 245.293 1088.51 244.971L1089.33 245.616C1088.67 246.636 1087.67 247.146 1086.35 247.146ZM1086.18 240.042C1085.63 240.042 1085.17 240.242 1084.8 240.643C1084.43 241.038 1084.2 241.595 1084.11 242.312H1088.08V242.21C1088.04 241.521 1087.86 240.989 1087.53 240.613C1087.19 240.232 1086.74 240.042 1086.18 240.042ZM1092.29 239.075L1092.34 240.071C1092.94 239.31 1093.73 238.929 1094.71 238.929C1096.39 238.929 1097.23 239.874 1097.24 241.763V247H1095.89V241.756C1095.88 241.185 1095.75 240.762 1095.49 240.489C1095.24 240.215 1094.84 240.079 1094.3 240.079C1093.86 240.079 1093.48 240.196 1093.14 240.43C1092.81 240.665 1092.55 240.972 1092.37 241.353V247H1091.01V239.075H1092.29Z" fill="black"/>
<path d="M1021.37 327.354L1023.83 319.434H1025.76L1021.52 331.631C1020.86 333.389 1019.81 334.268 1018.38 334.268L1018.04 334.238L1017.37 334.111V332.646L1017.85 332.686C1018.47 332.686 1018.94 332.562 1019.28 332.314C1019.62 332.067 1019.91 331.615 1020.13 330.957L1020.53 329.883L1016.76 319.434H1018.73L1021.37 327.354ZM1031.63 330.195C1030.2 330.195 1029.04 329.727 1028.14 328.789C1027.24 327.845 1026.79 326.585 1026.79 325.01V324.678C1026.79 323.63 1026.99 322.695 1027.38 321.875C1027.79 321.048 1028.35 320.404 1029.06 319.941C1029.79 319.473 1030.57 319.238 1031.41 319.238C1032.78 319.238 1033.85 319.691 1034.61 320.596C1035.37 321.501 1035.75 322.796 1035.75 324.482V325.234H1028.6C1028.62 326.276 1028.92 327.119 1029.5 327.764C1030.09 328.402 1030.83 328.721 1031.73 328.721C1032.37 328.721 1032.91 328.59 1033.35 328.33C1033.79 328.07 1034.18 327.725 1034.51 327.295L1035.62 328.154C1034.73 329.515 1033.4 330.195 1031.63 330.195ZM1031.41 320.723C1030.68 320.723 1030.07 320.99 1029.57 321.523C1029.08 322.051 1028.77 322.793 1028.65 323.75H1033.95V323.613C1033.9 322.695 1033.65 321.986 1033.21 321.484C1032.76 320.977 1032.16 320.723 1031.41 320.723ZM1044.38 330C1044.27 329.792 1044.19 329.421 1044.12 328.887C1043.28 329.759 1042.28 330.195 1041.12 330.195C1040.07 330.195 1039.22 329.902 1038.55 329.316C1037.88 328.724 1037.55 327.975 1037.55 327.07C1037.55 325.97 1037.97 325.117 1038.8 324.512C1039.64 323.9 1040.82 323.594 1042.34 323.594H1044.09V322.764C1044.09 322.132 1043.9 321.631 1043.53 321.26C1043.15 320.882 1042.59 320.693 1041.86 320.693C1041.21 320.693 1040.67 320.856 1040.24 321.182C1039.8 321.507 1039.58 321.901 1039.58 322.363H1037.77C1037.77 321.836 1037.95 321.328 1038.32 320.84C1038.7 320.345 1039.21 319.954 1039.85 319.668C1040.49 319.382 1041.2 319.238 1041.96 319.238C1043.18 319.238 1044.14 319.544 1044.83 320.156C1045.52 320.762 1045.87 321.598 1045.9 322.666V327.529C1045.9 328.499 1046.02 329.271 1046.27 329.844V330H1044.38ZM1041.38 328.623C1041.95 328.623 1042.48 328.477 1042.99 328.184C1043.5 327.891 1043.87 327.51 1044.09 327.041V324.873H1042.68C1040.46 324.873 1039.36 325.521 1039.36 326.816C1039.36 327.383 1039.55 327.826 1039.92 328.145C1040.3 328.464 1040.79 328.623 1041.38 328.623ZM1053.84 321.055C1053.57 321.009 1053.27 320.986 1052.95 320.986C1051.77 320.986 1050.96 321.491 1050.54 322.5V330H1048.73V319.434H1050.49L1050.52 320.654C1051.11 319.71 1051.95 319.238 1053.04 319.238C1053.39 319.238 1053.66 319.284 1053.84 319.375V321.055ZM1061.66 327.197C1061.66 326.709 1061.48 326.331 1061.11 326.064C1060.74 325.791 1060.1 325.557 1059.18 325.361C1058.27 325.166 1057.54 324.932 1057 324.658C1056.47 324.385 1056.07 324.059 1055.81 323.682C1055.56 323.304 1055.43 322.855 1055.43 322.334C1055.43 321.468 1055.8 320.736 1056.53 320.137C1057.26 319.538 1058.2 319.238 1059.34 319.238C1060.54 319.238 1061.51 319.548 1062.25 320.166C1063 320.785 1063.37 321.576 1063.37 322.539H1061.55C1061.55 322.044 1061.34 321.618 1060.92 321.26C1060.5 320.902 1059.98 320.723 1059.34 320.723C1058.68 320.723 1058.17 320.866 1057.79 321.152C1057.42 321.439 1057.24 321.813 1057.24 322.275C1057.24 322.712 1057.41 323.04 1057.76 323.262C1058.1 323.483 1058.72 323.695 1059.62 323.896C1060.53 324.098 1061.26 324.339 1061.82 324.619C1062.38 324.899 1062.79 325.238 1063.06 325.635C1063.33 326.025 1063.47 326.504 1063.47 327.07C1063.47 328.014 1063.09 328.773 1062.34 329.346C1061.58 329.912 1060.6 330.195 1059.4 330.195C1058.55 330.195 1057.8 330.046 1057.15 329.746C1056.5 329.447 1055.99 329.03 1055.62 328.496C1055.25 327.956 1055.07 327.373 1055.07 326.748H1056.88C1056.91 327.354 1057.15 327.835 1057.6 328.193C1058.06 328.545 1058.65 328.721 1059.4 328.721C1060.08 328.721 1060.63 328.584 1061.04 328.311C1061.45 328.031 1061.66 327.66 1061.66 327.197Z" fill="black"/>
</svg>
