<svg width="1200" height="400" viewBox="0 0 1200 400" fill="none" xmlns="http://www.w3.org/2000/svg">
<rect width="1200" height="400" fill="white"/>
<path d="M471.746 165H467.02V142.168L460.047 144.551V140.547L471.141 136.465H471.746V165ZM500.75 165H481.629V161.738L491.102 151.406C492.469 149.883 493.439 148.613 494.012 147.598C494.598 146.569 494.891 145.54 494.891 144.512C494.891 143.158 494.507 142.064 493.738 141.23C492.983 140.397 491.961 139.98 490.672 139.98C489.135 139.98 487.944 140.449 487.098 141.387C486.251 142.324 485.828 143.607 485.828 145.234H481.082C481.082 143.503 481.473 141.947 482.254 140.566C483.048 139.173 484.174 138.092 485.633 137.324C487.104 136.556 488.797 136.172 490.711 136.172C493.471 136.172 495.646 136.868 497.234 138.262C498.836 139.642 499.637 141.556 499.637 144.004C499.637 145.423 499.233 146.914 498.426 148.477C497.632 150.026 496.323 151.79 494.5 153.77L487.547 161.211H500.75V165Z" fill="#8D75F3"/>
<path d="M700.379 165H695.652V142.168L688.68 144.551V140.547L699.773 136.465H700.379V165ZM729.383 165H710.262V161.738L719.734 151.406C721.102 149.883 722.072 148.613 722.645 147.598C723.23 146.569 723.523 145.54 723.523 144.512C723.523 143.158 723.139 142.064 722.371 141.23C721.616 140.397 720.594 139.98 719.305 139.98C717.768 139.98 716.577 140.449 715.73 141.387C714.884 142.324 714.461 143.607 714.461 145.234H709.715C709.715 143.503 710.105 141.947 710.887 140.566C711.681 139.173 712.807 138.092 714.266 137.324C715.737 136.556 717.43 136.172 719.344 136.172C722.104 136.172 724.279 136.868 725.867 138.262C727.469 139.642 728.27 141.556 728.27 144.004C728.27 145.423 727.866 146.914 727.059 148.477C726.264 150.026 724.956 151.79 723.133 153.77L716.18 161.211H729.383V165ZM745.848 165H741.121V142.168L734.148 144.551V140.547L745.242 136.465H745.848V165Z" fill="#6CBAFA"/>
<path d="M210.012 165H205.285V142.168L198.312 144.551V140.547L209.406 136.465H210.012V165ZM238.43 153.027C238.43 157.116 237.661 160.202 236.125 162.285C234.602 164.355 232.277 165.391 229.152 165.391C226.079 165.391 223.762 164.382 222.199 162.363C220.65 160.332 219.855 157.331 219.816 153.359V148.438C219.816 144.349 220.578 141.283 222.102 139.238C223.638 137.194 225.975 136.172 229.113 136.172C232.225 136.172 234.543 137.168 236.066 139.16C237.603 141.152 238.391 144.134 238.43 148.105V153.027ZM233.684 147.715C233.684 145.046 233.319 143.092 232.59 141.855C231.861 140.605 230.702 139.98 229.113 139.98C227.564 139.98 226.424 140.573 225.695 141.758C224.966 142.93 224.582 144.766 224.543 147.266V153.711C224.543 156.367 224.914 158.346 225.656 159.648C226.398 160.951 227.564 161.602 229.152 161.602C230.676 161.602 231.802 161.003 232.531 159.805C233.26 158.594 233.645 156.706 233.684 154.141V147.715ZM261.164 153.027C261.164 157.116 260.396 160.202 258.859 162.285C257.336 164.355 255.012 165.391 251.887 165.391C248.814 165.391 246.496 164.382 244.934 162.363C243.384 160.332 242.59 157.331 242.551 153.359V148.438C242.551 144.349 243.312 141.283 244.836 139.238C246.372 137.194 248.71 136.172 251.848 136.172C254.96 136.172 257.277 137.168 258.801 139.16C260.337 141.152 261.125 144.134 261.164 148.105V153.027ZM256.418 147.715C256.418 145.046 256.053 143.092 255.324 141.855C254.595 140.605 253.436 139.98 251.848 139.98C250.298 139.98 249.159 140.573 248.43 141.758C247.701 142.93 247.316 144.766 247.277 147.266V153.711C247.277 156.367 247.648 158.346 248.391 159.648C249.133 160.951 250.298 161.602 251.887 161.602C253.41 161.602 254.536 161.003 255.266 159.805C255.995 158.594 256.379 156.706 256.418 154.141V147.715ZM283.898 153.027C283.898 157.116 283.13 160.202 281.594 162.285C280.07 164.355 277.746 165.391 274.621 165.391C271.548 165.391 269.23 164.382 267.668 162.363C266.118 160.332 265.324 157.331 265.285 153.359V148.438C265.285 144.349 266.047 141.283 267.57 139.238C269.107 137.194 271.444 136.172 274.582 136.172C277.694 136.172 280.012 137.168 281.535 139.16C283.072 141.152 283.859 144.134 283.898 148.105V153.027ZM279.152 147.715C279.152 145.046 278.788 143.092 278.059 141.855C277.329 140.605 276.171 139.98 274.582 139.98C273.033 139.98 271.893 140.573 271.164 141.758C270.435 142.93 270.051 144.766 270.012 147.266V153.711C270.012 156.367 270.383 158.346 271.125 159.648C271.867 160.951 273.033 161.602 274.621 161.602C276.145 161.602 277.271 161.003 278 159.805C278.729 158.594 279.113 156.706 279.152 154.141V147.715Z" fill="#00C7A5"/>
<path d="M869.618 150.898L871.161 136.562H886.434V140.664H875.106L874.325 147.461C875.64 146.706 877.124 146.328 878.778 146.328C881.486 146.328 883.589 147.194 885.087 148.926C886.597 150.658 887.352 152.988 887.352 155.918C887.352 158.809 886.519 161.113 884.852 162.832C883.186 164.538 880.901 165.391 877.997 165.391C875.393 165.391 873.231 164.655 871.512 163.184C869.807 161.699 868.882 159.746 868.739 157.324H873.329C873.511 158.704 874.006 159.766 874.813 160.508C875.621 161.237 876.675 161.602 877.977 161.602C879.436 161.602 880.568 161.081 881.376 160.039C882.196 158.997 882.606 157.578 882.606 155.781C882.606 154.049 882.157 152.682 881.259 151.68C880.36 150.664 879.123 150.156 877.548 150.156C876.688 150.156 875.959 150.273 875.36 150.508C874.761 150.729 874.11 151.172 873.407 151.836L869.618 150.898ZM892.352 150.898L893.895 136.562H909.169V140.664H897.841L897.059 147.461C898.374 146.706 899.859 146.328 901.512 146.328C904.221 146.328 906.324 147.194 907.821 148.926C909.332 150.658 910.087 152.988 910.087 155.918C910.087 158.809 909.253 161.113 907.587 162.832C905.92 164.538 903.635 165.391 900.731 165.391C898.127 165.391 895.966 164.655 894.247 163.184C892.541 161.699 891.617 159.746 891.473 157.324H896.063C896.246 158.704 896.74 159.766 897.548 160.508C898.355 161.237 899.41 161.602 900.712 161.602C902.17 161.602 903.303 161.081 904.11 160.039C904.93 158.997 905.341 157.578 905.341 155.781C905.341 154.049 904.891 152.682 903.993 151.68C903.095 150.664 901.858 150.156 900.282 150.156C899.423 150.156 898.693 150.273 898.095 150.508C897.496 150.729 896.845 151.172 896.141 151.836L892.352 150.898ZM932.352 153.027C932.352 157.116 931.584 160.202 930.048 162.285C928.524 164.355 926.2 165.391 923.075 165.391C920.002 165.391 917.684 164.382 916.122 162.363C914.572 160.332 913.778 157.331 913.739 153.359V148.438C913.739 144.349 914.501 141.283 916.024 139.238C917.561 137.194 919.898 136.172 923.036 136.172C926.148 136.172 928.466 137.168 929.989 139.16C931.526 141.152 932.313 144.134 932.352 148.105V153.027ZM927.606 147.715C927.606 145.046 927.242 143.092 926.512 141.855C925.783 140.605 924.624 139.98 923.036 139.98C921.486 139.98 920.347 140.573 919.618 141.758C918.889 142.93 918.505 144.766 918.466 147.266V153.711C918.466 156.367 918.837 158.346 919.579 159.648C920.321 160.951 921.486 161.602 923.075 161.602C924.598 161.602 925.725 161.003 926.454 159.805C927.183 158.594 927.567 156.706 927.606 154.141V147.715ZM960.172 152.871H940.289V149.043H960.172V152.871ZM973.46 148.613H976.351C977.809 148.6 978.961 148.223 979.808 147.48C980.667 146.738 981.097 145.664 981.097 144.258C981.097 142.904 980.739 141.855 980.023 141.113C979.32 140.358 978.239 139.98 976.78 139.98C975.504 139.98 974.456 140.352 973.636 141.094C972.816 141.823 972.405 142.78 972.405 143.965H967.659C967.659 142.507 968.043 141.178 968.812 139.98C969.593 138.783 970.674 137.852 972.054 137.188C973.447 136.51 975.003 136.172 976.722 136.172C979.56 136.172 981.787 136.888 983.402 138.32C985.029 139.74 985.843 141.719 985.843 144.258C985.843 145.534 985.433 146.738 984.612 147.871C983.805 148.991 982.757 149.837 981.468 150.41C983.03 150.944 984.215 151.784 985.023 152.93C985.843 154.076 986.253 155.443 986.253 157.031C986.253 159.583 985.374 161.615 983.616 163.125C981.872 164.635 979.573 165.391 976.722 165.391C973.987 165.391 971.748 164.661 970.003 163.203C968.258 161.745 967.386 159.805 967.386 157.383H972.132C972.132 158.633 972.549 159.648 973.382 160.43C974.228 161.211 975.361 161.602 976.78 161.602C978.252 161.602 979.411 161.211 980.257 160.43C981.103 159.648 981.527 158.516 981.527 157.031C981.527 155.534 981.084 154.382 980.198 153.574C979.313 152.767 977.998 152.363 976.253 152.363H973.46V148.613ZM1009.83 165H990.706V161.738L1000.18 151.406C1001.55 149.883 1002.52 148.613 1003.09 147.598C1003.67 146.569 1003.97 145.54 1003.97 144.512C1003.97 143.158 1003.58 142.064 1002.82 141.23C1002.06 140.397 1001.04 139.98 999.749 139.98C998.213 139.98 997.021 140.449 996.175 141.387C995.329 142.324 994.905 143.607 994.905 145.234H990.159C990.159 143.503 990.55 141.947 991.331 140.566C992.126 139.173 993.252 138.092 994.71 137.324C996.181 136.556 997.874 136.172 999.788 136.172C1002.55 136.172 1004.72 136.868 1006.31 138.262C1007.91 139.642 1008.71 141.556 1008.71 144.004C1008.71 145.423 1008.31 146.914 1007.5 148.477C1006.71 150.026 1005.4 151.79 1003.58 153.77L996.624 161.211H1009.83V165ZM1031.98 153.027C1031.98 157.116 1031.21 160.202 1029.67 162.285C1028.15 164.355 1025.82 165.391 1022.7 165.391C1019.63 165.391 1017.31 164.382 1015.75 162.363C1014.2 160.332 1013.4 157.331 1013.36 153.359V148.438C1013.36 144.349 1014.12 141.283 1015.65 139.238C1017.18 137.194 1019.52 136.172 1022.66 136.172C1025.77 136.172 1028.09 137.168 1029.61 139.16C1031.15 141.152 1031.94 144.134 1031.98 148.105V153.027ZM1027.23 147.715C1027.23 145.046 1026.87 143.092 1026.14 141.855C1025.41 140.605 1024.25 139.98 1022.66 139.98C1021.11 139.98 1019.97 140.573 1019.24 141.758C1018.51 142.93 1018.13 144.766 1018.09 147.266V153.711C1018.09 156.367 1018.46 158.346 1019.2 159.648C1019.94 160.951 1021.11 161.602 1022.7 161.602C1024.22 161.602 1025.35 161.003 1026.08 159.805C1026.81 158.594 1027.19 156.706 1027.23 154.141V147.715ZM1054.71 153.027C1054.71 157.116 1053.94 160.202 1052.41 162.285C1050.88 164.355 1048.56 165.391 1045.43 165.391C1042.36 165.391 1040.04 164.382 1038.48 162.363C1036.93 160.332 1036.14 157.331 1036.1 153.359V148.438C1036.1 144.349 1036.86 141.283 1038.38 139.238C1039.92 137.194 1042.26 136.172 1045.39 136.172C1048.51 136.172 1050.82 137.168 1052.35 139.16C1053.88 141.152 1054.67 144.134 1054.71 148.105V153.027ZM1049.96 147.715C1049.96 145.046 1049.6 143.092 1048.87 141.855C1048.14 140.605 1046.98 139.98 1045.39 139.98C1043.84 139.98 1042.7 140.573 1041.98 141.758C1041.25 142.93 1040.86 144.766 1040.82 147.266V153.711C1040.82 156.367 1041.19 158.346 1041.94 159.648C1042.68 160.951 1043.84 161.602 1045.43 161.602C1046.96 161.602 1048.08 161.003 1048.81 159.805C1049.54 158.594 1049.93 156.706 1049.96 154.141V147.715Z" fill="#FBC800"/>
<path d="M926.085 111.774L927.394 107.717H928.316L926.422 113H925.733L923.819 107.717H924.742L926.085 111.774ZM932.369 113C932.317 112.896 932.275 112.71 932.242 112.443C931.822 112.88 931.321 113.098 930.738 113.098C930.217 113.098 929.789 112.951 929.454 112.658C929.122 112.362 928.956 111.988 928.956 111.535C928.956 110.985 929.164 110.559 929.581 110.256C930.001 109.95 930.59 109.797 931.349 109.797H932.228V109.382C932.228 109.066 932.133 108.815 931.944 108.63C931.756 108.441 931.477 108.347 931.109 108.347C930.787 108.347 930.517 108.428 930.299 108.591C930.081 108.754 929.972 108.951 929.972 109.182H929.063C929.063 108.918 929.156 108.664 929.342 108.42C929.531 108.173 929.785 107.977 930.104 107.834C930.426 107.691 930.779 107.619 931.163 107.619C931.772 107.619 932.249 107.772 932.594 108.078C932.939 108.381 933.118 108.799 933.131 109.333V111.765C933.131 112.25 933.193 112.635 933.316 112.922V113H932.369ZM930.87 112.312C931.153 112.312 931.422 112.238 931.676 112.092C931.93 111.945 932.114 111.755 932.228 111.521V110.437H931.52C930.413 110.437 929.859 110.76 929.859 111.408C929.859 111.691 929.954 111.913 930.143 112.072C930.331 112.232 930.574 112.312 930.87 112.312ZM937.101 108.527C936.964 108.505 936.816 108.493 936.656 108.493C936.064 108.493 935.662 108.745 935.45 109.25V113H934.547V107.717H935.426L935.44 108.327C935.737 107.855 936.157 107.619 936.7 107.619C936.876 107.619 937.009 107.642 937.101 107.688V108.527ZM940.489 108.527C940.353 108.505 940.204 108.493 940.045 108.493C939.452 108.493 939.05 108.745 938.839 109.25V113H937.936V107.717H938.814L938.829 108.327C939.125 107.855 939.545 107.619 940.089 107.619C940.265 107.619 940.398 107.642 940.489 107.688V108.527ZM943.141 111.677L944.371 107.717H945.338L943.214 113.815C942.885 114.694 942.363 115.134 941.646 115.134L941.476 115.119L941.139 115.056V114.323L941.383 114.343C941.689 114.343 941.926 114.281 942.096 114.157C942.268 114.034 942.41 113.807 942.521 113.479L942.721 112.941L940.836 107.717H941.822L943.141 111.677ZM947.13 113H946.227V107.717H947.13V113ZM946.153 106.315C946.153 106.169 946.197 106.045 946.285 105.944C946.376 105.843 946.51 105.793 946.686 105.793C946.861 105.793 946.995 105.843 947.086 105.944C947.177 106.045 947.223 106.169 947.223 106.315C947.223 106.462 947.177 106.584 947.086 106.682C946.995 106.779 946.861 106.828 946.686 106.828C946.51 106.828 946.376 106.779 946.285 106.682C946.197 106.584 946.153 106.462 946.153 106.315ZM949.435 107.717L949.464 108.381C949.868 107.873 950.395 107.619 951.046 107.619C952.162 107.619 952.726 108.249 952.735 109.509V113H951.832V109.504C951.829 109.123 951.741 108.841 951.568 108.659C951.399 108.477 951.134 108.386 950.772 108.386C950.479 108.386 950.222 108.464 950.001 108.62C949.78 108.776 949.607 108.981 949.483 109.235V113H948.58V107.717H949.435ZM953.883 110.314C953.883 109.491 954.073 108.837 954.454 108.352C954.835 107.863 955.34 107.619 955.968 107.619C956.612 107.619 957.115 107.847 957.477 108.303L957.521 107.717H958.346V112.873C958.346 113.557 958.142 114.095 957.735 114.489C957.332 114.883 956.788 115.08 956.104 115.08C955.724 115.08 955.351 114.999 954.986 114.836C954.622 114.673 954.343 114.45 954.151 114.167L954.62 113.625C955.007 114.104 955.481 114.343 956.041 114.343C956.48 114.343 956.822 114.219 957.066 113.972C957.314 113.724 957.438 113.376 957.438 112.927V112.473C957.076 112.889 956.583 113.098 955.958 113.098C955.34 113.098 954.838 112.849 954.454 112.351C954.073 111.853 953.883 111.174 953.883 110.314ZM954.791 110.417C954.791 111.013 954.913 111.481 955.157 111.823C955.401 112.162 955.743 112.331 956.183 112.331C956.752 112.331 957.171 112.072 957.438 111.555V109.143C957.161 108.638 956.746 108.386 956.192 108.386C955.753 108.386 955.41 108.557 955.162 108.898C954.915 109.24 954.791 109.746 954.791 110.417ZM966.666 110.417C966.666 111.224 966.48 111.874 966.109 112.365C965.738 112.854 965.24 113.098 964.615 113.098C963.948 113.098 963.432 112.862 963.067 112.39L963.023 113H962.193V105.5H963.097V108.298C963.461 107.845 963.964 107.619 964.605 107.619C965.247 107.619 965.75 107.862 966.114 108.347C966.482 108.832 966.666 109.496 966.666 110.339V110.417ZM965.763 110.314C965.763 109.699 965.644 109.224 965.406 108.889C965.169 108.553 964.827 108.386 964.381 108.386C963.785 108.386 963.357 108.662 963.097 109.216V111.501C963.373 112.054 963.805 112.331 964.391 112.331C964.824 112.331 965.16 112.163 965.401 111.828C965.642 111.493 965.763 110.988 965.763 110.314ZM970.001 113.098C969.285 113.098 968.702 112.863 968.253 112.395C967.804 111.923 967.579 111.293 967.579 110.505V110.339C967.579 109.815 967.678 109.348 967.877 108.938C968.079 108.524 968.359 108.202 968.717 107.971C969.078 107.736 969.469 107.619 969.889 107.619C970.576 107.619 971.109 107.845 971.49 108.298C971.871 108.75 972.062 109.398 972.062 110.241V110.617H968.482C968.495 111.138 968.647 111.56 968.937 111.882C969.229 112.201 969.601 112.36 970.05 112.36C970.369 112.36 970.639 112.295 970.86 112.165C971.082 112.035 971.275 111.862 971.441 111.647L971.993 112.077C971.55 112.757 970.886 113.098 970.001 113.098ZM969.889 108.361C969.524 108.361 969.218 108.495 968.971 108.762C968.723 109.025 968.57 109.396 968.512 109.875H971.158V109.807C971.132 109.348 971.008 108.993 970.787 108.742C970.566 108.488 970.266 108.361 969.889 108.361ZM974.337 106.438V107.717H975.323V108.415H974.337V111.691C974.337 111.903 974.381 112.062 974.469 112.17C974.557 112.274 974.706 112.326 974.918 112.326C975.022 112.326 975.165 112.307 975.348 112.268V113C975.11 113.065 974.879 113.098 974.654 113.098C974.251 113.098 973.946 112.976 973.741 112.731C973.536 112.487 973.434 112.141 973.434 111.691V108.415H972.472V107.717H973.434V106.438H974.337ZM981.061 111.755L982.076 107.717H982.979L981.441 113H980.709L979.425 108.996L978.175 113H977.442L975.909 107.717H976.808L977.848 111.672L979.078 107.717H979.806L981.061 111.755ZM986.095 113.098C985.379 113.098 984.796 112.863 984.347 112.395C983.897 111.923 983.673 111.293 983.673 110.505V110.339C983.673 109.815 983.772 109.348 983.971 108.938C984.173 108.524 984.452 108.202 984.811 107.971C985.172 107.736 985.562 107.619 985.982 107.619C986.669 107.619 987.203 107.845 987.584 108.298C987.965 108.75 988.155 109.398 988.155 110.241V110.617H984.576C984.589 111.138 984.741 111.56 985.03 111.882C985.323 112.201 985.694 112.36 986.144 112.36C986.463 112.36 986.733 112.295 986.954 112.165C987.175 112.035 987.369 111.862 987.535 111.647L988.087 112.077C987.644 112.757 986.98 113.098 986.095 113.098ZM985.982 108.361C985.618 108.361 985.312 108.495 985.064 108.762C984.817 109.025 984.664 109.396 984.605 109.875H987.252V109.807C987.226 109.348 987.102 108.993 986.881 108.742C986.66 108.488 986.36 108.361 985.982 108.361ZM991.397 113.098C990.681 113.098 990.099 112.863 989.649 112.395C989.2 111.923 988.976 111.293 988.976 110.505V110.339C988.976 109.815 989.075 109.348 989.273 108.938C989.475 108.524 989.755 108.202 990.113 107.971C990.475 107.736 990.865 107.619 991.285 107.619C991.972 107.619 992.506 107.845 992.887 108.298C993.268 108.75 993.458 109.398 993.458 110.241V110.617H989.879C989.892 111.138 990.043 111.56 990.333 111.882C990.626 112.201 990.997 112.36 991.446 112.36C991.765 112.36 992.035 112.295 992.257 112.165C992.478 112.035 992.672 111.862 992.838 111.647L993.39 112.077C992.947 112.757 992.283 113.098 991.397 113.098ZM991.285 108.361C990.921 108.361 990.615 108.495 990.367 108.762C990.12 109.025 989.967 109.396 989.908 109.875H992.555V109.807C992.529 109.348 992.405 108.993 992.184 108.742C991.962 108.488 991.663 108.361 991.285 108.361ZM995.362 107.717L995.392 108.381C995.795 107.873 996.323 107.619 996.974 107.619C998.09 107.619 998.653 108.249 998.663 109.509V113H997.76V109.504C997.757 109.123 997.669 108.841 997.496 108.659C997.327 108.477 997.062 108.386 996.7 108.386C996.407 108.386 996.15 108.464 995.929 108.62C995.707 108.776 995.535 108.981 995.411 109.235V113H994.508V107.717H995.362Z" fill="black"/>
<path d="M946.152 191.015L947.998 185.075H949.448L946.262 194.223C945.769 195.542 944.985 196.201 943.911 196.201L943.654 196.179L943.149 196.083V194.985L943.515 195.014C943.974 195.014 944.331 194.921 944.584 194.736C944.843 194.55 945.056 194.211 945.222 193.718L945.522 192.912L942.695 185.075H944.174L946.152 191.015ZM953.85 193.146C952.775 193.146 951.901 192.795 951.228 192.092C950.554 191.384 950.217 190.439 950.217 189.257V189.008C950.217 188.222 950.366 187.521 950.664 186.906C950.966 186.286 951.386 185.803 951.923 185.456C952.465 185.104 953.051 184.929 953.681 184.929C954.711 184.929 955.512 185.268 956.083 185.947C956.655 186.625 956.94 187.597 956.94 188.862V189.426H951.572C951.591 190.207 951.818 190.839 952.253 191.323C952.692 191.801 953.249 192.041 953.923 192.041C954.401 192.041 954.807 191.943 955.139 191.748C955.471 191.552 955.761 191.293 956.01 190.971L956.838 191.616C956.174 192.636 955.178 193.146 953.85 193.146ZM953.681 186.042C953.134 186.042 952.675 186.242 952.304 186.643C951.933 187.038 951.704 187.595 951.616 188.312H955.585V188.21C955.546 187.521 955.361 186.989 955.029 186.613C954.697 186.232 954.248 186.042 953.681 186.042ZM963.408 193C963.33 192.844 963.266 192.565 963.217 192.165C962.587 192.819 961.835 193.146 960.961 193.146C960.18 193.146 959.538 192.927 959.035 192.487C958.537 192.043 958.288 191.481 958.288 190.803C958.288 189.978 958.601 189.338 959.226 188.884C959.855 188.425 960.739 188.195 961.877 188.195H963.195V187.573C963.195 187.099 963.054 186.723 962.771 186.445C962.487 186.162 962.07 186.02 961.518 186.02C961.035 186.02 960.629 186.142 960.302 186.386C959.975 186.63 959.812 186.926 959.812 187.272H958.449C958.449 186.877 958.588 186.496 958.867 186.13C959.15 185.759 959.531 185.466 960.009 185.251C960.493 185.036 961.022 184.929 961.599 184.929C962.512 184.929 963.227 185.158 963.745 185.617C964.262 186.071 964.531 186.699 964.55 187.5V191.147C964.55 191.875 964.643 192.453 964.829 192.883V193H963.408ZM961.159 191.967C961.584 191.967 961.987 191.857 962.368 191.638C962.749 191.418 963.024 191.132 963.195 190.781V189.155H962.133C960.473 189.155 959.643 189.641 959.643 190.612C959.643 191.037 959.785 191.369 960.068 191.608C960.351 191.848 960.715 191.967 961.159 191.967ZM970.505 186.291C970.3 186.257 970.078 186.24 969.838 186.24C968.95 186.24 968.347 186.618 968.029 187.375V193H966.674V185.075H967.993L968.015 185.991C968.459 185.283 969.089 184.929 969.904 184.929C970.168 184.929 970.368 184.963 970.505 185.031V186.291ZM976.372 190.898C976.372 190.532 976.232 190.249 975.954 190.048C975.681 189.843 975.2 189.667 974.511 189.521C973.828 189.375 973.283 189.199 972.878 188.994C972.478 188.789 972.18 188.544 971.984 188.261C971.794 187.978 971.699 187.641 971.699 187.25C971.699 186.601 971.972 186.052 972.519 185.603C973.071 185.153 973.774 184.929 974.628 184.929C975.527 184.929 976.254 185.161 976.811 185.625C977.373 186.088 977.653 186.682 977.653 187.404H976.291C976.291 187.033 976.132 186.713 975.815 186.445C975.502 186.176 975.107 186.042 974.628 186.042C974.135 186.042 973.75 186.149 973.471 186.364C973.193 186.579 973.054 186.86 973.054 187.207C973.054 187.534 973.183 187.78 973.442 187.946C973.701 188.112 974.167 188.271 974.841 188.422C975.52 188.574 976.069 188.754 976.489 188.964C976.909 189.174 977.219 189.428 977.419 189.726C977.624 190.019 977.727 190.378 977.727 190.803C977.727 191.511 977.443 192.08 976.877 192.509C976.311 192.934 975.576 193.146 974.672 193.146C974.038 193.146 973.476 193.034 972.988 192.81C972.5 192.585 972.116 192.272 971.838 191.872C971.564 191.467 971.428 191.03 971.428 190.561H972.783C972.807 191.015 972.988 191.376 973.325 191.645C973.667 191.909 974.116 192.041 974.672 192.041C975.185 192.041 975.595 191.938 975.903 191.733C976.215 191.523 976.372 191.245 976.372 190.898Z" fill="black"/>
<path d="M226.152 191.015L227.998 185.075H229.448L226.262 194.223C225.769 195.542 224.985 196.201 223.911 196.201L223.654 196.179L223.149 196.083V194.985L223.515 195.014C223.974 195.014 224.331 194.921 224.584 194.736C224.843 194.55 225.056 194.211 225.222 193.718L225.522 192.912L222.695 185.075H224.174L226.152 191.015ZM233.85 193.146C232.775 193.146 231.901 192.795 231.228 192.092C230.554 191.384 230.217 190.439 230.217 189.257V189.008C230.217 188.222 230.366 187.521 230.664 186.906C230.966 186.286 231.386 185.803 231.923 185.456C232.465 185.104 233.051 184.929 233.681 184.929C234.711 184.929 235.512 185.268 236.083 185.947C236.655 186.625 236.94 187.597 236.94 188.862V189.426H231.572C231.591 190.207 231.818 190.839 232.253 191.323C232.692 191.801 233.249 192.041 233.923 192.041C234.401 192.041 234.807 191.943 235.139 191.748C235.471 191.552 235.761 191.293 236.01 190.971L236.838 191.616C236.174 192.636 235.178 193.146 233.85 193.146ZM233.681 186.042C233.134 186.042 232.675 186.242 232.304 186.643C231.933 187.038 231.704 187.595 231.616 188.312H235.585V188.21C235.546 187.521 235.361 186.989 235.029 186.613C234.697 186.232 234.248 186.042 233.681 186.042ZM243.408 193C243.33 192.844 243.266 192.565 243.217 192.165C242.587 192.819 241.835 193.146 240.961 193.146C240.18 193.146 239.538 192.927 239.035 192.487C238.537 192.043 238.288 191.481 238.288 190.803C238.288 189.978 238.601 189.338 239.226 188.884C239.855 188.425 240.739 188.195 241.877 188.195H243.195V187.573C243.195 187.099 243.054 186.723 242.771 186.445C242.487 186.162 242.07 186.02 241.518 186.02C241.035 186.02 240.629 186.142 240.302 186.386C239.975 186.63 239.812 186.926 239.812 187.272H238.449C238.449 186.877 238.588 186.496 238.867 186.13C239.15 185.759 239.531 185.466 240.009 185.251C240.493 185.036 241.022 184.929 241.599 184.929C242.512 184.929 243.227 185.158 243.745 185.617C244.262 186.071 244.531 186.699 244.55 187.5V191.147C244.55 191.875 244.643 192.453 244.829 192.883V193H243.408ZM241.159 191.967C241.584 191.967 241.987 191.857 242.368 191.638C242.749 191.418 243.024 191.132 243.195 190.781V189.155H242.133C240.473 189.155 239.643 189.641 239.643 190.612C239.643 191.037 239.785 191.369 240.068 191.608C240.351 191.848 240.715 191.967 241.159 191.967ZM250.505 186.291C250.3 186.257 250.078 186.24 249.838 186.24C248.95 186.24 248.347 186.618 248.029 187.375V193H246.674V185.075H247.993L248.015 185.991C248.459 185.283 249.089 184.929 249.904 184.929C250.168 184.929 250.368 184.963 250.505 185.031V186.291ZM256.372 190.898C256.372 190.532 256.232 190.249 255.954 190.048C255.681 189.843 255.2 189.667 254.511 189.521C253.828 189.375 253.283 189.199 252.878 188.994C252.478 188.789 252.18 188.544 251.984 188.261C251.794 187.978 251.699 187.641 251.699 187.25C251.699 186.601 251.972 186.052 252.519 185.603C253.071 185.153 253.774 184.929 254.628 184.929C255.527 184.929 256.254 185.161 256.811 185.625C257.373 186.088 257.653 186.682 257.653 187.404H256.291C256.291 187.033 256.132 186.713 255.815 186.445C255.502 186.176 255.107 186.042 254.628 186.042C254.135 186.042 253.75 186.149 253.471 186.364C253.193 186.579 253.054 186.86 253.054 187.207C253.054 187.534 253.183 187.78 253.442 187.946C253.701 188.112 254.167 188.271 254.841 188.422C255.52 188.574 256.069 188.754 256.489 188.964C256.909 189.174 257.219 189.428 257.419 189.726C257.624 190.019 257.727 190.378 257.727 190.803C257.727 191.511 257.443 192.08 256.877 192.509C256.311 192.934 255.576 193.146 254.672 193.146C254.038 193.146 253.476 193.034 252.988 192.81C252.5 192.585 252.116 192.272 251.838 191.872C251.564 191.467 251.428 191.03 251.428 190.561H252.783C252.807 191.015 252.988 191.376 253.325 191.645C253.667 191.909 254.116 192.041 254.672 192.041C255.185 192.041 255.595 191.938 255.903 191.733C256.215 191.523 256.372 191.245 256.372 190.898Z" fill="black"/>
<path d="M234.44 115.478C234.089 115.891 233.573 116.098 232.893 116.098C232.329 116.098 231.9 115.935 231.604 115.609C231.311 115.281 231.162 114.796 231.159 114.154V110.717H232.062V114.13C232.062 114.931 232.388 115.331 233.039 115.331C233.729 115.331 234.188 115.074 234.416 114.56V110.717H235.319V116H234.46L234.44 115.478ZM241.159 113.417C241.159 114.221 240.975 114.869 240.607 115.36C240.24 115.852 239.742 116.098 239.113 116.098C238.472 116.098 237.967 115.894 237.6 115.487V118.031H236.696V110.717H237.521L237.565 111.303C237.933 110.847 238.444 110.619 239.099 110.619C239.733 110.619 240.235 110.858 240.603 111.337C240.974 111.815 241.159 112.481 241.159 113.334V113.417ZM240.256 113.314C240.256 112.719 240.129 112.248 239.875 111.903C239.621 111.558 239.273 111.386 238.83 111.386C238.283 111.386 237.873 111.628 237.6 112.113V114.638C237.87 115.119 238.283 115.36 238.84 115.36C239.273 115.36 239.616 115.189 239.87 114.848C240.127 114.503 240.256 113.992 240.256 113.314ZM246.018 109.438V110.717H247.004V111.415H246.018V114.691C246.018 114.903 246.062 115.062 246.149 115.17C246.237 115.274 246.387 115.326 246.599 115.326C246.703 115.326 246.846 115.307 247.028 115.268V116C246.791 116.065 246.56 116.098 246.335 116.098C245.931 116.098 245.627 115.976 245.422 115.731C245.217 115.487 245.114 115.141 245.114 114.691V111.415H244.152V110.717H245.114V109.438H246.018ZM247.727 113.31C247.727 112.792 247.827 112.326 248.029 111.913C248.234 111.5 248.518 111.181 248.879 110.956C249.243 110.731 249.659 110.619 250.124 110.619C250.843 110.619 251.424 110.868 251.867 111.366C252.313 111.864 252.536 112.527 252.536 113.354V113.417C252.536 113.931 252.437 114.394 252.238 114.804C252.043 115.211 251.761 115.528 251.394 115.756C251.029 115.984 250.609 116.098 250.134 116.098C249.418 116.098 248.837 115.849 248.391 115.351C247.948 114.853 247.727 114.193 247.727 113.373V113.31ZM248.635 113.417C248.635 114.003 248.77 114.473 249.04 114.828C249.313 115.183 249.678 115.36 250.134 115.36C250.593 115.36 250.957 115.181 251.228 114.823C251.498 114.462 251.633 113.957 251.633 113.31C251.633 112.73 251.494 112.261 251.218 111.903C250.944 111.542 250.58 111.361 250.124 111.361C249.678 111.361 249.318 111.539 249.045 111.894C248.771 112.248 248.635 112.756 248.635 113.417Z" fill="black"/>
<path d="M705.152 191.015L706.998 185.075H708.448L705.262 194.223C704.769 195.542 703.985 196.201 702.911 196.201L702.654 196.179L702.149 196.083V194.985L702.515 195.014C702.974 195.014 703.331 194.921 703.584 194.736C703.843 194.55 704.056 194.211 704.222 193.718L704.522 192.912L701.695 185.075H703.174L705.152 191.015ZM712.85 193.146C711.775 193.146 710.901 192.795 710.228 192.092C709.554 191.384 709.217 190.439 709.217 189.257V189.008C709.217 188.222 709.366 187.521 709.664 186.906C709.966 186.286 710.386 185.803 710.923 185.456C711.465 185.104 712.051 184.929 712.681 184.929C713.711 184.929 714.512 185.268 715.083 185.947C715.655 186.625 715.94 187.597 715.94 188.862V189.426H710.572C710.591 190.207 710.818 190.839 711.253 191.323C711.692 191.801 712.249 192.041 712.923 192.041C713.401 192.041 713.807 191.943 714.139 191.748C714.471 191.552 714.761 191.293 715.01 190.971L715.838 191.616C715.174 192.636 714.178 193.146 712.85 193.146ZM712.681 186.042C712.134 186.042 711.675 186.242 711.304 186.643C710.933 187.038 710.704 187.595 710.616 188.312H714.585V188.21C714.546 187.521 714.361 186.989 714.029 186.613C713.697 186.232 713.248 186.042 712.681 186.042ZM722.408 193C722.33 192.844 722.266 192.565 722.217 192.165C721.587 192.819 720.835 193.146 719.961 193.146C719.18 193.146 718.538 192.927 718.035 192.487C717.537 192.043 717.288 191.481 717.288 190.803C717.288 189.978 717.601 189.338 718.226 188.884C718.855 188.425 719.739 188.195 720.877 188.195H722.195V187.573C722.195 187.099 722.054 186.723 721.771 186.445C721.487 186.162 721.07 186.02 720.518 186.02C720.035 186.02 719.629 186.142 719.302 186.386C718.975 186.63 718.812 186.926 718.812 187.272H717.449C717.449 186.877 717.588 186.496 717.867 186.13C718.15 185.759 718.531 185.466 719.009 185.251C719.493 185.036 720.022 184.929 720.599 184.929C721.512 184.929 722.227 185.158 722.745 185.617C723.262 186.071 723.531 186.699 723.55 187.5V191.147C723.55 191.875 723.643 192.453 723.829 192.883V193H722.408ZM720.159 191.967C720.584 191.967 720.987 191.857 721.368 191.638C721.749 191.418 722.024 191.132 722.195 190.781V189.155H721.133C719.473 189.155 718.643 189.641 718.643 190.612C718.643 191.037 718.785 191.369 719.068 191.608C719.351 191.848 719.715 191.967 720.159 191.967ZM729.505 186.291C729.3 186.257 729.078 186.24 728.838 186.24C727.95 186.24 727.347 186.618 727.029 187.375V193H725.674V185.075H726.993L727.015 185.991C727.459 185.283 728.089 184.929 728.904 184.929C729.168 184.929 729.368 184.963 729.505 185.031V186.291ZM735.372 190.898C735.372 190.532 735.232 190.249 734.954 190.048C734.681 189.843 734.2 189.667 733.511 189.521C732.828 189.375 732.283 189.199 731.878 188.994C731.478 188.789 731.18 188.544 730.984 188.261C730.794 187.978 730.699 187.641 730.699 187.25C730.699 186.601 730.972 186.052 731.519 185.603C732.071 185.153 732.774 184.929 733.628 184.929C734.527 184.929 735.254 185.161 735.811 185.625C736.373 186.088 736.653 186.682 736.653 187.404H735.291C735.291 187.033 735.132 186.713 734.815 186.445C734.502 186.176 734.107 186.042 733.628 186.042C733.135 186.042 732.75 186.149 732.471 186.364C732.193 186.579 732.054 186.86 732.054 187.207C732.054 187.534 732.183 187.78 732.442 187.946C732.701 188.112 733.167 188.271 733.841 188.422C734.52 188.574 735.069 188.754 735.489 188.964C735.909 189.174 736.219 189.428 736.419 189.726C736.624 190.019 736.727 190.378 736.727 190.803C736.727 191.511 736.443 192.08 735.877 192.509C735.311 192.934 734.576 193.146 733.672 193.146C733.038 193.146 732.476 193.034 731.988 192.81C731.5 192.585 731.116 192.272 730.838 191.872C730.564 191.467 730.428 191.03 730.428 190.561H731.783C731.807 191.015 731.988 191.376 732.325 191.645C732.667 191.909 733.116 192.041 733.672 192.041C734.185 192.041 734.595 191.938 734.903 191.733C735.215 191.523 735.372 191.245 735.372 190.898Z" fill="black"/>
<path d="M466.152 191.015L467.998 185.075H469.448L466.262 194.223C465.769 195.542 464.985 196.201 463.911 196.201L463.654 196.179L463.149 196.083V194.985L463.515 195.014C463.974 195.014 464.331 194.921 464.584 194.736C464.843 194.55 465.056 194.211 465.222 193.718L465.522 192.912L462.695 185.075H464.174L466.152 191.015ZM473.85 193.146C472.775 193.146 471.901 192.795 471.228 192.092C470.554 191.384 470.217 190.439 470.217 189.257V189.008C470.217 188.222 470.366 187.521 470.664 186.906C470.966 186.286 471.386 185.803 471.923 185.456C472.465 185.104 473.051 184.929 473.681 184.929C474.711 184.929 475.512 185.268 476.083 185.947C476.655 186.625 476.94 187.597 476.94 188.862V189.426H471.572C471.591 190.207 471.818 190.839 472.253 191.323C472.692 191.801 473.249 192.041 473.923 192.041C474.401 192.041 474.807 191.943 475.139 191.748C475.471 191.552 475.761 191.293 476.01 190.971L476.838 191.616C476.174 192.636 475.178 193.146 473.85 193.146ZM473.681 186.042C473.134 186.042 472.675 186.242 472.304 186.643C471.933 187.038 471.704 187.595 471.616 188.312H475.585V188.21C475.546 187.521 475.361 186.989 475.029 186.613C474.697 186.232 474.248 186.042 473.681 186.042ZM483.408 193C483.33 192.844 483.266 192.565 483.217 192.165C482.587 192.819 481.835 193.146 480.961 193.146C480.18 193.146 479.538 192.927 479.035 192.487C478.537 192.043 478.288 191.481 478.288 190.803C478.288 189.978 478.601 189.338 479.226 188.884C479.855 188.425 480.739 188.195 481.877 188.195H483.195V187.573C483.195 187.099 483.054 186.723 482.771 186.445C482.487 186.162 482.07 186.02 481.518 186.02C481.035 186.02 480.629 186.142 480.302 186.386C479.975 186.63 479.812 186.926 479.812 187.272H478.449C478.449 186.877 478.588 186.496 478.867 186.13C479.15 185.759 479.531 185.466 480.009 185.251C480.493 185.036 481.022 184.929 481.599 184.929C482.512 184.929 483.227 185.158 483.745 185.617C484.262 186.071 484.531 186.699 484.55 187.5V191.147C484.55 191.875 484.643 192.453 484.829 192.883V193H483.408ZM481.159 191.967C481.584 191.967 481.987 191.857 482.368 191.638C482.749 191.418 483.024 191.132 483.195 190.781V189.155H482.133C480.473 189.155 479.643 189.641 479.643 190.612C479.643 191.037 479.785 191.369 480.068 191.608C480.351 191.848 480.715 191.967 481.159 191.967ZM490.505 186.291C490.3 186.257 490.078 186.24 489.838 186.24C488.95 186.24 488.347 186.618 488.029 187.375V193H486.674V185.075H487.993L488.015 185.991C488.459 185.283 489.089 184.929 489.904 184.929C490.168 184.929 490.368 184.963 490.505 185.031V186.291ZM496.372 190.898C496.372 190.532 496.232 190.249 495.954 190.048C495.681 189.843 495.2 189.667 494.511 189.521C493.828 189.375 493.283 189.199 492.878 188.994C492.478 188.789 492.18 188.544 491.984 188.261C491.794 187.978 491.699 187.641 491.699 187.25C491.699 186.601 491.972 186.052 492.519 185.603C493.071 185.153 493.774 184.929 494.628 184.929C495.527 184.929 496.254 185.161 496.811 185.625C497.373 186.088 497.653 186.682 497.653 187.404H496.291C496.291 187.033 496.132 186.713 495.815 186.445C495.502 186.176 495.107 186.042 494.628 186.042C494.135 186.042 493.75 186.149 493.471 186.364C493.193 186.579 493.054 186.86 493.054 187.207C493.054 187.534 493.183 187.78 493.442 187.946C493.701 188.112 494.167 188.271 494.841 188.422C495.52 188.574 496.069 188.754 496.489 188.964C496.909 189.174 497.219 189.428 497.419 189.726C497.624 190.019 497.727 190.378 497.727 190.803C497.727 191.511 497.443 192.08 496.877 192.509C496.311 192.934 495.576 193.146 494.672 193.146C494.038 193.146 493.476 193.034 492.988 192.81C492.5 192.585 492.116 192.272 491.838 191.872C491.564 191.467 491.428 191.03 491.428 190.561H492.783C492.807 191.015 492.988 191.376 493.325 191.645C493.667 191.909 494.116 192.041 494.672 192.041C495.185 192.041 495.595 191.938 495.903 191.733C496.215 191.523 496.372 191.245 496.372 190.898Z" fill="black"/>
</svg>
