<svg width="1200" height="400" viewBox="0 0 1200 400" fill="none" xmlns="http://www.w3.org/2000/svg">
<rect width="1200" height="400" fill="white"/>
<circle cx="241" cy="200" r="2" fill="#00C7A5"/>
<circle cx="482" cy="200" r="2" fill="#8D75F3"/>
<circle cx="720" cy="200" r="2" fill="#6CBAFA"/>
<circle cx="961" cy="200" r="2" fill="#FBC800"/>
<path d="M478.057 159.166C478.091 158.912 478.064 158.694 477.977 158.514C477.894 158.333 477.771 158.179 477.61 158.052C477.454 157.92 477.273 157.811 477.068 157.723C476.863 157.635 476.661 157.557 476.46 157.488C476.08 157.366 475.704 157.212 475.333 157.027C474.966 156.836 474.642 156.609 474.358 156.346C474.075 156.082 473.851 155.774 473.685 155.423C473.523 155.066 473.458 154.661 473.487 154.207C473.516 153.699 473.655 153.255 473.904 152.874C474.153 152.493 474.466 152.176 474.842 151.922C475.218 151.668 475.635 151.48 476.094 151.358C476.558 151.236 477.022 151.18 477.486 151.189C477.969 151.199 478.416 151.282 478.826 151.438C479.236 151.595 479.588 151.814 479.881 152.098C480.174 152.381 480.398 152.723 480.555 153.123C480.716 153.523 480.789 153.973 480.774 154.471L478.826 154.463C478.831 154.224 478.802 154.004 478.738 153.804C478.68 153.604 478.587 153.433 478.46 153.292C478.338 153.15 478.182 153.04 477.991 152.962C477.806 152.884 477.586 152.842 477.332 152.837C477.117 152.833 476.902 152.859 476.688 152.918C476.478 152.972 476.285 153.057 476.109 153.174C475.933 153.287 475.784 153.431 475.662 153.606C475.54 153.777 475.464 153.98 475.435 154.214C475.406 154.463 475.447 154.676 475.56 154.852C475.672 155.022 475.821 155.169 476.006 155.291C476.197 155.408 476.402 155.508 476.622 155.591C476.841 155.669 477.042 155.738 477.222 155.796C477.608 155.928 477.977 156.094 478.328 156.294C478.68 156.49 478.985 156.724 479.244 156.998C479.507 157.271 479.71 157.588 479.852 157.95C479.998 158.306 480.057 158.707 480.027 159.151C480.003 159.498 479.932 159.812 479.815 160.096C479.698 160.379 479.542 160.633 479.346 160.857C479.156 161.077 478.934 161.27 478.68 161.436C478.431 161.602 478.162 161.739 477.874 161.846C477.586 161.949 477.286 162.024 476.973 162.073C476.661 162.122 476.348 162.144 476.036 162.139C475.523 162.129 475.044 162.046 474.6 161.89C474.156 161.729 473.77 161.5 473.443 161.202C473.116 160.904 472.862 160.545 472.681 160.125C472.505 159.7 472.425 159.219 472.439 158.682L474.402 158.689C474.388 159.266 474.527 159.71 474.82 160.022C475.118 160.335 475.562 160.496 476.153 160.506C476.368 160.506 476.58 160.481 476.79 160.433C477.005 160.379 477.2 160.298 477.376 160.191C477.552 160.079 477.701 159.939 477.823 159.773C477.945 159.603 478.023 159.4 478.057 159.166ZM484.693 160.528C484.888 160.533 485.074 160.508 485.25 160.455C485.43 160.401 485.591 160.323 485.733 160.22C485.879 160.113 486.001 159.981 486.099 159.825C486.202 159.668 486.268 159.493 486.297 159.297L488.157 159.283C488.133 159.732 488.013 160.137 487.798 160.499C487.583 160.855 487.308 161.158 486.971 161.407C486.639 161.656 486.265 161.846 485.85 161.978C485.44 162.105 485.022 162.164 484.598 162.154C484.026 162.144 483.536 162.029 483.125 161.81C482.72 161.59 482.391 161.299 482.137 160.938C481.888 160.572 481.714 160.152 481.617 159.678C481.519 159.2 481.497 158.699 481.551 158.177L481.573 157.95C481.641 157.398 481.785 156.875 482.005 156.382C482.225 155.889 482.513 155.459 482.869 155.093C483.226 154.722 483.643 154.432 484.122 154.222C484.605 154.012 485.14 153.914 485.726 153.929C486.18 153.938 486.59 154.019 486.956 154.17C487.322 154.322 487.632 154.534 487.886 154.808C488.145 155.076 488.338 155.398 488.465 155.774C488.597 156.146 488.65 156.558 488.626 157.012L486.758 157.005C486.773 156.81 486.758 156.626 486.714 156.456C486.67 156.28 486.597 156.128 486.495 156.001C486.392 155.875 486.263 155.774 486.106 155.701C485.95 155.623 485.767 155.579 485.557 155.569C485.22 155.56 484.932 155.625 484.693 155.767C484.458 155.909 484.263 156.097 484.107 156.331C483.951 156.561 483.829 156.819 483.741 157.107C483.653 157.391 483.592 157.671 483.558 157.95L483.528 158.169C483.504 158.404 483.492 158.658 483.492 158.931C483.492 159.205 483.528 159.458 483.602 159.693C483.675 159.922 483.794 160.118 483.96 160.279C484.131 160.435 484.375 160.518 484.693 160.528ZM496.653 153.914C496.907 153.919 497.156 153.941 497.4 153.98C497.649 154.014 497.898 154.063 498.147 154.126L497.605 156.155C497.352 156.092 497.098 156.043 496.844 156.009C496.59 155.97 496.331 155.948 496.067 155.943C495.032 155.933 494.241 156.363 493.694 157.232L492.867 162H490.882L492.259 154.075H494.104L493.899 155.379C494.075 155.164 494.263 154.966 494.463 154.786C494.664 154.605 494.878 154.451 495.108 154.324C495.337 154.192 495.579 154.092 495.833 154.024C496.092 153.951 496.365 153.914 496.653 153.914ZM499.078 158.016C499.146 157.459 499.29 156.932 499.51 156.434C499.734 155.931 500.025 155.491 500.381 155.115C500.738 154.739 501.158 154.444 501.641 154.229C502.129 154.014 502.671 153.914 503.267 153.929C503.838 153.938 504.329 154.056 504.739 154.28C505.149 154.505 505.481 154.803 505.735 155.174C505.994 155.54 506.172 155.962 506.27 156.441C506.368 156.919 506.39 157.42 506.336 157.942L506.314 158.104C506.246 158.66 506.099 159.188 505.875 159.686C505.655 160.179 505.367 160.611 505.01 160.982C504.654 161.353 504.231 161.646 503.743 161.861C503.26 162.071 502.723 162.168 502.132 162.154C501.565 162.144 501.077 162.029 500.667 161.81C500.257 161.585 499.922 161.292 499.664 160.931C499.41 160.564 499.231 160.145 499.129 159.671C499.031 159.192 499.009 158.692 499.063 158.169L499.078 158.016ZM501.048 158.169C501.023 158.414 501.014 158.672 501.019 158.946C501.023 159.214 501.065 159.466 501.143 159.7C501.226 159.93 501.355 160.125 501.531 160.286C501.712 160.442 501.961 160.525 502.278 160.535C502.61 160.545 502.896 160.477 503.135 160.33C503.379 160.179 503.582 159.986 503.743 159.751C503.909 159.512 504.036 159.249 504.124 158.96C504.217 158.667 504.283 158.382 504.322 158.104L504.336 157.95C504.351 157.789 504.361 157.62 504.366 157.444C504.375 157.264 504.368 157.088 504.344 156.917C504.324 156.741 504.288 156.575 504.234 156.419C504.185 156.258 504.112 156.116 504.014 155.994C503.921 155.872 503.802 155.774 503.655 155.701C503.509 155.623 503.331 155.579 503.121 155.569C502.784 155.56 502.493 155.628 502.249 155.774C502.01 155.921 501.807 156.114 501.641 156.353C501.48 156.592 501.351 156.858 501.253 157.151C501.16 157.444 501.097 157.732 501.062 158.016L501.048 158.169ZM509.815 150.75H514.122L512.459 160.345H514.664L514.371 162H507.859L508.152 160.345H510.452L511.829 152.413H509.522L509.815 150.75ZM518.619 150.75H522.925L521.263 160.345H523.467L523.174 162H516.663L516.956 160.345H519.256L520.633 152.413H518.326L518.619 150.75ZM539.207 152.134L538.87 154.075H541.741L541.478 155.577H538.606L538.05 158.99C538.025 159.2 538.021 159.393 538.035 159.568C538.055 159.744 538.101 159.898 538.174 160.03C538.252 160.162 538.362 160.267 538.504 160.345C538.65 160.423 538.838 160.464 539.068 160.469C539.351 160.479 539.632 160.462 539.91 160.418C540.188 160.374 540.467 160.323 540.745 160.264L540.811 161.678C540.635 161.775 540.447 161.856 540.247 161.919C540.052 161.983 539.849 162.032 539.639 162.066C539.434 162.1 539.227 162.122 539.017 162.132C538.807 162.146 538.604 162.151 538.409 162.146C537.964 162.142 537.581 162.063 537.259 161.912C536.941 161.756 536.683 161.546 536.482 161.282C536.287 161.019 536.15 160.708 536.072 160.352C535.999 159.991 535.984 159.6 536.028 159.18L536.622 155.577H534.864L535.127 154.075H536.885L537.222 152.134H539.207ZM543.096 158.016C543.165 157.459 543.309 156.932 543.528 156.434C543.753 155.931 544.043 155.491 544.4 155.115C544.756 154.739 545.176 154.444 545.66 154.229C546.148 154.014 546.69 153.914 547.286 153.929C547.857 153.938 548.348 154.056 548.758 154.28C549.168 154.505 549.5 154.803 549.754 155.174C550.013 155.54 550.191 155.962 550.289 156.441C550.386 156.919 550.408 157.42 550.354 157.942L550.333 158.104C550.264 158.66 550.118 159.188 549.893 159.686C549.673 160.179 549.385 160.611 549.029 160.982C548.672 161.353 548.25 161.646 547.762 161.861C547.278 162.071 546.741 162.168 546.15 162.154C545.584 162.144 545.096 162.029 544.686 161.81C544.275 161.585 543.941 161.292 543.682 160.931C543.428 160.564 543.25 160.145 543.147 159.671C543.05 159.192 543.028 158.692 543.082 158.169L543.096 158.016ZM545.066 158.169C545.042 158.414 545.032 158.672 545.037 158.946C545.042 159.214 545.083 159.466 545.162 159.7C545.245 159.93 545.374 160.125 545.55 160.286C545.73 160.442 545.979 160.525 546.297 160.535C546.629 160.545 546.915 160.477 547.154 160.33C547.398 160.179 547.601 159.986 547.762 159.751C547.928 159.512 548.055 159.249 548.143 158.96C548.235 158.667 548.301 158.382 548.34 158.104L548.355 157.95C548.37 157.789 548.379 157.62 548.384 157.444C548.394 157.264 548.387 157.088 548.362 156.917C548.343 156.741 548.306 156.575 548.252 156.419C548.204 156.258 548.13 156.116 548.033 155.994C547.94 155.872 547.82 155.774 547.674 155.701C547.527 155.623 547.349 155.579 547.139 155.569C546.802 155.56 546.512 155.628 546.268 155.774C546.028 155.921 545.826 156.114 545.66 156.353C545.499 156.592 545.369 156.858 545.271 157.151C545.179 157.444 545.115 157.732 545.081 158.016L545.066 158.169ZM565.655 159.781C565.679 159.659 565.667 159.554 565.618 159.466C565.569 159.373 565.501 159.295 565.413 159.231C565.325 159.163 565.22 159.107 565.098 159.063C564.981 159.014 564.861 158.975 564.739 158.946C564.617 158.912 564.498 158.885 564.38 158.865C564.268 158.846 564.173 158.826 564.095 158.807C563.792 158.733 563.475 158.641 563.143 158.528C562.815 158.411 562.515 158.262 562.242 158.082C561.973 157.896 561.753 157.669 561.583 157.4C561.412 157.132 561.333 156.81 561.348 156.434C561.358 156.141 561.419 155.875 561.531 155.635C561.644 155.391 561.788 155.176 561.963 154.991C562.144 154.805 562.349 154.644 562.579 154.507C562.813 154.371 563.06 154.261 563.318 154.178C563.582 154.09 563.848 154.026 564.117 153.987C564.385 153.943 564.646 153.924 564.9 153.929C565.301 153.934 565.691 153.987 566.072 154.09C566.453 154.188 566.792 154.341 567.09 154.551C567.393 154.761 567.635 155.027 567.815 155.35C568.001 155.667 568.094 156.048 568.094 156.492L566.116 156.485C566.121 156.294 566.089 156.131 566.021 155.994C565.958 155.857 565.867 155.748 565.75 155.665C565.633 155.577 565.494 155.513 565.333 155.474C565.176 155.43 565.008 155.408 564.827 155.408C564.676 155.408 564.515 155.423 564.344 155.452C564.173 155.481 564.012 155.533 563.86 155.606C563.709 155.674 563.577 155.77 563.465 155.892C563.357 156.009 563.289 156.155 563.26 156.331C563.226 156.517 563.255 156.666 563.348 156.778C563.44 156.89 563.56 156.98 563.707 157.049C563.853 157.112 564.012 157.161 564.183 157.195C564.354 157.229 564.502 157.259 564.629 157.283C564.957 157.347 565.298 157.432 565.655 157.54C566.011 157.642 566.333 157.784 566.622 157.964C566.915 158.145 567.151 158.375 567.332 158.653C567.518 158.931 567.601 159.275 567.581 159.686C567.566 159.993 567.5 160.269 567.383 160.513C567.266 160.752 567.112 160.965 566.922 161.15C566.736 161.336 566.519 161.495 566.27 161.626C566.026 161.753 565.767 161.858 565.494 161.941C565.225 162.02 564.949 162.076 564.666 162.11C564.388 162.144 564.122 162.159 563.868 162.154C563.462 162.149 563.064 162.09 562.674 161.978C562.283 161.866 561.932 161.7 561.619 161.48C561.312 161.255 561.06 160.979 560.865 160.652C560.674 160.32 560.579 159.93 560.579 159.48L562.461 159.488C562.471 159.703 562.518 159.886 562.601 160.037C562.684 160.188 562.793 160.313 562.93 160.411C563.072 160.503 563.23 160.572 563.406 160.616C563.587 160.66 563.777 160.682 563.978 160.682C564.129 160.682 564.295 160.669 564.476 160.645C564.661 160.621 564.834 160.577 564.996 160.513C565.162 160.445 565.303 160.352 565.42 160.235C565.542 160.118 565.621 159.966 565.655 159.781ZM572.173 155.181C572.461 154.81 572.796 154.507 573.177 154.273C573.562 154.039 574 153.924 574.488 153.929C574.957 153.934 575.347 154.029 575.66 154.214C575.977 154.4 576.224 154.646 576.399 154.954C576.58 155.257 576.697 155.604 576.751 155.994C576.81 156.385 576.817 156.788 576.773 157.203L575.975 162H573.982L574.795 157.181C574.82 156.961 574.82 156.758 574.795 156.573C574.776 156.382 574.722 156.216 574.634 156.075C574.546 155.928 574.424 155.813 574.268 155.73C574.112 155.647 573.914 155.601 573.675 155.591C573.353 155.582 573.06 155.638 572.796 155.76C572.537 155.882 572.295 156.053 572.071 156.272L571.06 162H569.075L571.031 150.75H573.016L572.173 155.181ZM578.311 158.016C578.379 157.459 578.523 156.932 578.743 156.434C578.968 155.931 579.258 155.491 579.615 155.115C579.971 154.739 580.391 154.444 580.875 154.229C581.363 154.014 581.905 153.914 582.5 153.929C583.072 153.938 583.562 154.056 583.973 154.28C584.383 154.505 584.715 154.803 584.969 155.174C585.228 155.54 585.406 155.962 585.503 156.441C585.601 156.919 585.623 157.42 585.569 157.942L585.547 158.104C585.479 158.66 585.333 159.188 585.108 159.686C584.888 160.179 584.6 160.611 584.244 160.982C583.887 161.353 583.465 161.646 582.977 161.861C582.493 162.071 581.956 162.168 581.365 162.154C580.799 162.144 580.311 162.029 579.9 161.81C579.49 161.585 579.156 161.292 578.897 160.931C578.643 160.564 578.465 160.145 578.362 159.671C578.265 159.192 578.243 158.692 578.296 158.169L578.311 158.016ZM580.281 158.169C580.257 158.414 580.247 158.672 580.252 158.946C580.257 159.214 580.298 159.466 580.376 159.7C580.459 159.93 580.589 160.125 580.765 160.286C580.945 160.442 581.194 160.525 581.512 160.535C581.844 160.545 582.129 160.477 582.369 160.33C582.613 160.179 582.815 159.986 582.977 159.751C583.143 159.512 583.27 159.249 583.357 158.96C583.45 158.667 583.516 158.382 583.555 158.104L583.57 157.95C583.584 157.789 583.594 157.62 583.599 157.444C583.609 157.264 583.602 157.088 583.577 156.917C583.558 156.741 583.521 156.575 583.467 156.419C583.418 156.258 583.345 156.116 583.248 155.994C583.155 155.872 583.035 155.774 582.889 155.701C582.742 155.623 582.564 155.579 582.354 155.569C582.017 155.56 581.727 155.628 581.482 155.774C581.243 155.921 581.041 156.114 580.875 156.353C580.713 156.592 580.584 156.858 580.486 157.151C580.394 157.444 580.33 157.732 580.296 158.016L580.281 158.169ZM592.022 159.495L593.626 154.075H595.486L592.732 162H590.989L590.857 156.99L589.019 162H587.269V154.075H589.056L588.77 159.48L590.667 154.075H592L592.022 159.495ZM609.637 152.134L609.3 154.075H612.171L611.907 155.577H609.036L608.479 158.99C608.455 159.2 608.45 159.393 608.465 159.568C608.484 159.744 608.531 159.898 608.604 160.03C608.682 160.162 608.792 160.267 608.934 160.345C609.08 160.423 609.268 160.464 609.498 160.469C609.781 160.479 610.062 160.462 610.34 160.418C610.618 160.374 610.896 160.323 611.175 160.264L611.241 161.678C611.065 161.775 610.877 161.856 610.677 161.919C610.481 161.983 610.279 162.032 610.069 162.066C609.864 162.1 609.656 162.122 609.446 162.132C609.236 162.146 609.034 162.151 608.838 162.146C608.394 162.142 608.011 162.063 607.688 161.912C607.371 161.756 607.112 161.546 606.912 161.282C606.717 161.019 606.58 160.708 606.502 160.352C606.429 159.991 606.414 159.6 606.458 159.18L607.051 155.577H605.293L605.557 154.075H607.315L607.652 152.134H609.637ZM616.192 155.181C616.48 154.81 616.814 154.507 617.195 154.273C617.581 154.039 618.018 153.924 618.506 153.929C618.975 153.934 619.366 154.029 619.678 154.214C619.996 154.4 620.242 154.646 620.418 154.954C620.599 155.257 620.716 155.604 620.77 155.994C620.828 156.385 620.835 156.788 620.792 157.203L619.993 162H618.001L618.814 157.181C618.838 156.961 618.838 156.758 618.814 156.573C618.794 156.382 618.741 156.216 618.653 156.075C618.565 155.928 618.443 155.813 618.287 155.73C618.13 155.647 617.933 155.601 617.693 155.591C617.371 155.582 617.078 155.638 616.814 155.76C616.556 155.882 616.314 156.053 616.089 156.272L615.079 162H613.094L615.049 150.75H617.034L616.192 155.181ZM625.735 162.146C625.193 162.137 624.703 162.034 624.263 161.839C623.829 161.639 623.46 161.37 623.157 161.033C622.859 160.691 622.64 160.291 622.498 159.832C622.356 159.373 622.31 158.875 622.359 158.338L622.388 158.038C622.452 157.481 622.601 156.951 622.835 156.448C623.069 155.945 623.372 155.506 623.743 155.13C624.119 154.754 624.556 154.456 625.054 154.236C625.552 154.017 626.094 153.914 626.68 153.929C627.232 153.943 627.708 154.058 628.108 154.273C628.509 154.488 628.831 154.776 629.075 155.137C629.324 155.494 629.493 155.904 629.581 156.368C629.673 156.832 629.688 157.32 629.625 157.833L629.493 158.697H624.314C624.305 158.951 624.336 159.188 624.41 159.407C624.483 159.622 624.588 159.81 624.725 159.971C624.866 160.132 625.04 160.262 625.245 160.359C625.45 160.452 625.684 160.501 625.948 160.506C626.363 160.521 626.753 160.45 627.12 160.293C627.491 160.132 627.818 159.905 628.101 159.612L629.002 160.718C628.826 160.972 628.611 161.189 628.357 161.37C628.108 161.551 627.837 161.7 627.544 161.817C627.256 161.934 626.956 162.02 626.644 162.073C626.331 162.127 626.028 162.151 625.735 162.146ZM626.534 155.569C626.27 155.56 626.033 155.604 625.823 155.701C625.613 155.799 625.425 155.931 625.259 156.097C625.098 156.263 624.957 156.451 624.834 156.661C624.712 156.871 624.605 157.083 624.512 157.298H627.742L627.779 157.115C627.813 156.9 627.808 156.7 627.764 156.514C627.72 156.329 627.642 156.167 627.53 156.031C627.422 155.894 627.283 155.787 627.112 155.708C626.946 155.625 626.753 155.579 626.534 155.569ZM640.003 158.023C640.042 157.696 640.105 157.366 640.193 157.034C640.281 156.702 640.394 156.382 640.53 156.075C640.672 155.767 640.838 155.481 641.028 155.218C641.224 154.949 641.448 154.72 641.702 154.529C641.956 154.334 642.239 154.183 642.552 154.075C642.864 153.968 643.211 153.919 643.592 153.929C643.958 153.938 644.29 154.017 644.588 154.163C644.891 154.305 645.157 154.517 645.386 154.8L646.148 150.75H648.14L646.192 162H644.412L644.515 161.172C644.236 161.48 643.924 161.722 643.577 161.897C643.235 162.073 642.85 162.156 642.42 162.146C642.068 162.137 641.761 162.073 641.497 161.956C641.233 161.834 641.006 161.675 640.816 161.48C640.625 161.28 640.469 161.05 640.347 160.792C640.225 160.533 640.132 160.259 640.069 159.971C640.005 159.678 639.966 159.38 639.952 159.078C639.942 158.77 639.952 158.472 639.981 158.184L640.003 158.023ZM641.973 158.184C641.949 158.404 641.934 158.646 641.929 158.909C641.929 159.173 641.963 159.422 642.032 159.656C642.1 159.886 642.212 160.081 642.369 160.242C642.53 160.398 642.759 160.481 643.057 160.491C643.394 160.501 643.687 160.428 643.936 160.271C644.185 160.11 644.405 159.903 644.595 159.649L645.167 156.426C644.961 155.879 644.559 155.594 643.958 155.569C643.626 155.564 643.343 155.638 643.108 155.789C642.874 155.94 642.679 156.136 642.522 156.375C642.366 156.614 642.247 156.88 642.164 157.173C642.081 157.466 642.022 157.752 641.988 158.03L641.973 158.184ZM653.648 159.495L655.252 154.075H657.112L654.358 162H652.615L652.483 156.99L650.645 162H648.895V154.075H650.682L650.396 159.48L652.293 154.075H653.626L653.648 159.495ZM660.95 162.146C660.408 162.137 659.917 162.034 659.478 161.839C659.043 161.639 658.675 161.37 658.372 161.033C658.074 160.691 657.854 160.291 657.713 159.832C657.571 159.373 657.525 158.875 657.574 158.338L657.603 158.038C657.667 157.481 657.815 156.951 658.05 156.448C658.284 155.945 658.587 155.506 658.958 155.13C659.334 154.754 659.771 154.456 660.269 154.236C660.767 154.017 661.309 153.914 661.895 153.929C662.447 153.943 662.923 154.058 663.323 154.273C663.724 154.488 664.046 154.776 664.29 155.137C664.539 155.494 664.708 155.904 664.795 156.368C664.888 156.832 664.903 157.32 664.839 157.833L664.708 158.697H659.529C659.52 158.951 659.551 159.188 659.625 159.407C659.698 159.622 659.803 159.81 659.939 159.971C660.081 160.132 660.254 160.262 660.459 160.359C660.665 160.452 660.899 160.501 661.163 160.506C661.578 160.521 661.968 160.45 662.334 160.293C662.706 160.132 663.033 159.905 663.316 159.612L664.217 160.718C664.041 160.972 663.826 161.189 663.572 161.37C663.323 161.551 663.052 161.7 662.759 161.817C662.471 161.934 662.171 162.02 661.858 162.073C661.546 162.127 661.243 162.151 660.95 162.146ZM661.749 155.569C661.485 155.56 661.248 155.604 661.038 155.701C660.828 155.799 660.64 155.931 660.474 156.097C660.313 156.263 660.171 156.451 660.049 156.661C659.927 156.871 659.82 157.083 659.727 157.298H662.957L662.994 157.115C663.028 156.9 663.023 156.7 662.979 156.514C662.935 156.329 662.857 156.167 662.745 156.031C662.637 155.894 662.498 155.787 662.327 155.708C662.161 155.625 661.968 155.579 661.749 155.569ZM668.282 150.75H672.588L670.926 160.345H673.13L672.837 162H666.326L666.619 160.345H668.919L670.296 152.413H667.989L668.282 150.75ZM677.085 150.75H681.392L679.729 160.345H681.934L681.641 162H675.13L675.423 160.345H677.723L679.1 152.413H676.792L677.085 150.75ZM697.674 152.134L697.337 154.075H700.208L699.944 155.577H697.073L696.517 158.99C696.492 159.2 696.487 159.393 696.502 159.568C696.521 159.744 696.568 159.898 696.641 160.03C696.719 160.162 696.829 160.267 696.971 160.345C697.117 160.423 697.305 160.464 697.535 160.469C697.818 160.479 698.099 160.462 698.377 160.418C698.655 160.374 698.934 160.323 699.212 160.264L699.278 161.678C699.102 161.775 698.914 161.856 698.714 161.919C698.519 161.983 698.316 162.032 698.106 162.066C697.901 162.1 697.693 162.122 697.483 162.132C697.273 162.146 697.071 162.151 696.875 162.146C696.431 162.142 696.048 162.063 695.726 161.912C695.408 161.756 695.149 161.546 694.949 161.282C694.754 161.019 694.617 160.708 694.539 160.352C694.466 159.991 694.451 159.6 694.495 159.18L695.088 155.577H693.331L693.594 154.075H695.352L695.689 152.134H697.674ZM703.035 154.075H707.232L706.141 160.345H708.228L707.935 162H701.658L701.944 160.345H704.134L704.932 155.738H702.742L703.035 154.075ZM705.43 152.083C705.43 151.917 705.459 151.766 705.518 151.629C705.577 151.492 705.657 151.375 705.76 151.277C705.867 151.175 705.989 151.097 706.126 151.043C706.268 150.984 706.419 150.955 706.58 150.955C706.736 150.95 706.883 150.972 707.02 151.021C707.156 151.07 707.276 151.141 707.378 151.233C707.481 151.326 707.562 151.438 707.62 151.57C707.684 151.702 707.715 151.849 707.715 152.01C707.715 152.176 707.686 152.327 707.627 152.464C707.569 152.601 707.488 152.72 707.386 152.823C707.283 152.92 707.161 152.999 707.02 153.057C706.878 153.111 706.727 153.138 706.565 153.138C706.409 153.143 706.263 153.121 706.126 153.072C705.989 153.023 705.87 152.952 705.767 152.859C705.665 152.767 705.582 152.654 705.518 152.522C705.459 152.391 705.43 152.244 705.43 152.083ZM712.542 154.068L712.359 155.042C712.452 154.881 712.552 154.732 712.659 154.595C712.771 154.458 712.894 154.341 713.025 154.244C713.162 154.141 713.311 154.063 713.472 154.009C713.638 153.951 713.819 153.921 714.014 153.921C714.307 153.926 714.551 153.997 714.747 154.134C714.947 154.266 715.079 154.478 715.142 154.771C715.337 154.522 715.555 154.319 715.794 154.163C716.038 154.002 716.326 153.924 716.658 153.929C716.873 153.934 717.056 153.973 717.208 154.046C717.364 154.119 717.493 154.219 717.596 154.346C717.703 154.468 717.789 154.61 717.852 154.771C717.916 154.932 717.962 155.103 717.991 155.284C718.021 155.459 718.035 155.64 718.035 155.826C718.035 156.006 718.028 156.18 718.013 156.346L717.076 162H715.267L716.226 156.324C716.236 156.246 716.241 156.165 716.241 156.082C716.241 155.994 716.229 155.914 716.204 155.84C716.18 155.767 716.138 155.706 716.08 155.657C716.026 155.608 715.948 155.584 715.845 155.584C715.704 155.584 715.584 155.621 715.486 155.694C715.389 155.762 715.296 155.845 715.208 155.943L714.146 162H712.396L713.355 156.316C713.36 156.238 713.362 156.155 713.362 156.067C713.367 155.979 713.357 155.901 713.333 155.833C713.313 155.76 713.274 155.701 713.216 155.657C713.162 155.608 713.082 155.584 712.974 155.584C712.813 155.584 712.681 155.633 712.579 155.73C712.476 155.823 712.386 155.933 712.308 156.06L711.275 162H709.466L710.843 154.075L712.542 154.068ZM722.576 162.146C722.034 162.137 721.543 162.034 721.104 161.839C720.669 161.639 720.301 161.37 719.998 161.033C719.7 160.691 719.48 160.291 719.339 159.832C719.197 159.373 719.151 158.875 719.2 158.338L719.229 158.038C719.292 157.481 719.441 156.951 719.676 156.448C719.91 155.945 720.213 155.506 720.584 155.13C720.96 154.754 721.397 154.456 721.895 154.236C722.393 154.017 722.935 153.914 723.521 153.929C724.073 153.943 724.549 154.058 724.949 154.273C725.35 154.488 725.672 154.776 725.916 155.137C726.165 155.494 726.333 155.904 726.421 156.368C726.514 156.832 726.529 157.32 726.465 157.833L726.333 158.697H721.155C721.146 158.951 721.177 159.188 721.25 159.407C721.324 159.622 721.429 159.81 721.565 159.971C721.707 160.132 721.88 160.262 722.085 160.359C722.291 160.452 722.525 160.501 722.789 160.506C723.204 160.521 723.594 160.45 723.96 160.293C724.332 160.132 724.659 159.905 724.942 159.612L725.843 160.718C725.667 160.972 725.452 161.189 725.198 161.37C724.949 161.551 724.678 161.7 724.385 161.817C724.097 161.934 723.797 162.02 723.484 162.073C723.172 162.127 722.869 162.151 722.576 162.146ZM723.375 155.569C723.111 155.56 722.874 155.604 722.664 155.701C722.454 155.799 722.266 155.931 722.1 156.097C721.939 156.263 721.797 156.451 721.675 156.661C721.553 156.871 721.446 157.083 721.353 157.298H724.583L724.62 157.115C724.654 156.9 724.649 156.7 724.605 156.514C724.561 156.329 724.483 156.167 724.371 156.031C724.263 155.894 724.124 155.787 723.953 155.708C723.787 155.625 723.594 155.579 723.375 155.569Z" fill="#C8C8C8"/>
</svg>
