<svg width="1200" height="400" viewBox="0 0 1200 400" fill="none" xmlns="http://www.w3.org/2000/svg">
<rect width="1200" height="400" fill="white"/>
<circle cx="180.5" cy="79.5" r="7.5" fill="#00C7A5"/>
<circle cx="197.5" cy="79.5" r="7.5" fill="#00C7A5"/>
<circle cx="214.5" cy="79.5" r="7.5" fill="#00C7A5"/>
<circle cx="231.5" cy="79.5" r="7.5" fill="#00C7A5"/>
<circle cx="248.5" cy="79.5" r="7.5" fill="#00C7A5"/>
<circle cx="265.5" cy="79.5" r="7.5" fill="#00C7A5"/>
<circle cx="282.5" cy="79.5" r="7.5" fill="#00C7A5"/>
<circle cx="299.5" cy="79.5" r="7.5" fill="#00C7A5"/>
<circle cx="316.5" cy="79.5" r="7.5" fill="#00C7A5"/>
<circle cx="163.5" cy="79.5" r="7.5" fill="#00C7A5"/>
<circle cx="180.5" cy="96.5" r="7.5" fill="#00C7A5"/>
<circle cx="197.5" cy="96.5" r="7.5" fill="#00C7A5"/>
<circle cx="214.5" cy="96.5" r="7.5" fill="#00C7A5"/>
<circle cx="231.5" cy="96.5" r="7.5" fill="#00C7A5"/>
<circle cx="248.5" cy="96.5" r="7.5" fill="#00C7A5"/>
<circle cx="265.5" cy="96.5" r="7.5" fill="#00C7A5"/>
<circle cx="282.5" cy="96.5" r="7.5" fill="#00C7A5"/>
<circle cx="299.5" cy="96.5" r="7.5" fill="#00C7A5"/>
<circle cx="316.5" cy="96.5" r="7.5" fill="#00C7A5"/>
<circle cx="163.5" cy="96.5" r="7.5" fill="#00C7A5"/>
<circle cx="180.5" cy="113.5" r="7.5" fill="#00C7A5"/>
<circle cx="197.5" cy="113.5" r="7.5" fill="#00C7A5"/>
<circle cx="214.5" cy="113.5" r="7.5" fill="#00C7A5"/>
<circle cx="231.5" cy="113.5" r="7.5" fill="#00C7A5"/>
<circle cx="248.5" cy="113.5" r="7.5" fill="#00C7A5"/>
<circle cx="265.5" cy="113.5" r="7.5" fill="#00C7A5"/>
<circle cx="282.5" cy="113.5" r="7.5" fill="#00C7A5"/>
<circle cx="299.5" cy="113.5" r="7.5" fill="#00C7A5"/>
<circle cx="316.5" cy="113.5" r="7.5" fill="#00C7A5"/>
<circle cx="163.5" cy="113.5" r="7.5" fill="#00C7A5"/>
<circle cx="180.5" cy="130.5" r="7.5" fill="#00C7A5"/>
<circle cx="197.5" cy="130.5" r="7.5" fill="#00C7A5"/>
<circle cx="214.5" cy="130.5" r="7.5" fill="#00C7A5"/>
<circle cx="231.5" cy="130.5" r="7.5" fill="#00C7A5"/>
<circle cx="248.5" cy="130.5" r="7.5" fill="#00C7A5"/>
<circle cx="265.5" cy="130.5" r="7.5" fill="#00C7A5"/>
<circle cx="282.5" cy="130.5" r="7.5" fill="#00C7A5"/>
<circle cx="299.5" cy="130.5" r="7.5" fill="#00C7A5"/>
<circle cx="316.5" cy="130.5" r="7.5" fill="#00C7A5"/>
<circle cx="163.5" cy="130.5" r="7.5" fill="#00C7A5"/>
<circle cx="180.5" cy="147.5" r="7.5" fill="#00C7A5"/>
<circle cx="197.5" cy="147.5" r="7.5" fill="#00C7A5"/>
<circle cx="214.5" cy="147.5" r="7.5" fill="#00C7A5"/>
<circle cx="231.5" cy="147.5" r="7.5" fill="#00C7A5"/>
<circle cx="248.5" cy="147.5" r="7.5" fill="#00C7A5"/>
<circle cx="265.5" cy="147.5" r="7.5" fill="#00C7A5"/>
<circle cx="282.5" cy="147.5" r="7.5" fill="#00C7A5"/>
<circle cx="299.5" cy="147.5" r="7.5" fill="#00C7A5"/>
<circle cx="316.5" cy="147.5" r="7.5" fill="#00C7A5"/>
<circle cx="163.5" cy="147.5" r="7.5" fill="#00C7A5"/>
<circle cx="900.5" cy="79.5" r="7.5" fill="#FBC800"/>
<circle cx="917.5" cy="79.5" r="7.5" fill="#FBC800"/>
<circle cx="934.5" cy="79.5" r="7.5" fill="#FBC800"/>
<circle cx="951.5" cy="79.5" r="7.5" fill="#FBC800"/>
<circle cx="968.5" cy="79.5" r="7.5" fill="#FBC800"/>
<circle cx="985.5" cy="79.5" r="7.5" fill="#FBC800"/>
<circle cx="1002.5" cy="79.5" r="7.5" fill="#FBC800"/>
<circle cx="1019.5" cy="79.5" r="7.5" fill="#FBC800"/>
<circle cx="1036.5" cy="79.5" r="7.5" fill="#FBC800"/>
<circle cx="883.5" cy="79.5" r="7.5" fill="#FBC800"/>
<circle cx="900.5" cy="96.5" r="7.5" fill="#FBC800"/>
<circle cx="917.5" cy="96.5" r="7.5" fill="#FBC800"/>
<circle cx="934.5" cy="96.5" r="7.5" fill="#FBC800"/>
<circle cx="951.5" cy="96.5" r="7.5" fill="#FBC800"/>
<circle cx="968.5" cy="96.5" r="7.5" fill="#FBC800"/>
<circle cx="985.5" cy="96.5" r="7.5" fill="#FBC800"/>
<circle cx="1002.5" cy="96.5" r="7.5" fill="#FBC800"/>
<circle cx="1019.5" cy="96.5" r="7.5" fill="#FBC800"/>
<circle cx="1036.5" cy="96.5" r="7.5" fill="#FBC800"/>
<circle cx="883.5" cy="96.5" r="7.5" fill="#FBC800"/>
<circle cx="900.5" cy="113.5" r="7.5" fill="#FBC800"/>
<circle cx="917.5" cy="113.5" r="7.5" fill="#FBC800"/>
<circle cx="934.5" cy="113.5" r="7.5" fill="#FBC800"/>
<circle cx="951.5" cy="113.5" r="7.5" fill="#FBC800"/>
<circle cx="968.5" cy="113.5" r="7.5" fill="#FBC800"/>
<circle cx="985.5" cy="113.5" r="7.5" fill="#FBC800"/>
<circle cx="1002.5" cy="113.5" r="7.5" fill="#FBC800"/>
<circle cx="1019.5" cy="113.5" r="7.5" fill="#FBC800"/>
<circle cx="1036.5" cy="113.5" r="7.5" fill="#FBC800"/>
<circle cx="883.5" cy="113.5" r="7.5" fill="#FBC800"/>
<circle cx="900.5" cy="130.5" r="7.5" fill="#FBC800"/>
<circle cx="917.5" cy="130.5" r="7.5" fill="#FBC800"/>
<circle cx="934.5" cy="130.5" r="7.5" fill="#FBC800"/>
<circle cx="951.5" cy="130.5" r="7.5" fill="#FBC800"/>
<circle cx="968.5" cy="130.5" r="7.5" fill="#FBC800"/>
<circle cx="985.5" cy="130.5" r="7.5" fill="#FBC800"/>
<circle cx="1002.5" cy="130.5" r="7.5" fill="#FBC800"/>
<circle cx="1019.5" cy="130.5" r="7.5" fill="#FBC800"/>
<circle cx="1036.5" cy="130.5" r="7.5" fill="#FBC800"/>
<circle cx="883.5" cy="130.5" r="7.5" fill="#FBC800"/>
<circle cx="900.5" cy="147.5" r="7.5" fill="#FBC800"/>
<circle cx="917.5" cy="147.5" r="7.5" fill="#FBC800"/>
<circle cx="934.5" cy="147.5" r="7.5" fill="#FBC800"/>
<circle cx="951.5" cy="147.5" r="7.5" fill="#FBC800"/>
<circle cx="968.5" cy="147.5" r="7.5" fill="#FBC800"/>
<circle cx="985.5" cy="147.5" r="7.5" fill="#FBC800"/>
<circle cx="1002.5" cy="147.5" r="7.5" fill="#FBC800"/>
<circle cx="1019.5" cy="147.5" r="7.5" fill="#FBC800"/>
<circle cx="1036.5" cy="147.5" r="7.5" fill="#FBC800"/>
<circle cx="883.5" cy="147.5" r="7.5" fill="#FBC800"/>
<circle cx="900.5" cy="164.5" r="7.5" fill="#FBC800"/>
<circle cx="917.5" cy="164.5" r="7.5" fill="#FBC800"/>
<circle cx="934.5" cy="164.5" r="7.5" fill="#FBC800"/>
<circle cx="951.5" cy="164.5" r="7.5" fill="#FBC800"/>
<circle cx="968.5" cy="164.5" r="7.5" fill="#FBC800"/>
<circle cx="985.5" cy="164.5" r="7.5" fill="#FBC800"/>
<circle cx="1002.5" cy="164.5" r="7.5" fill="#FBC800"/>
<circle cx="1019.5" cy="164.5" r="7.5" fill="#FBC800"/>
<circle cx="1036.5" cy="164.5" r="7.5" fill="#FBC800"/>
<circle cx="883.5" cy="164.5" r="7.5" fill="#FBC800"/>
<circle cx="900.5" cy="181.5" r="7.5" fill="#FBC800"/>
<circle cx="917.5" cy="181.5" r="7.5" fill="#FBC800"/>
<circle cx="934.5" cy="181.5" r="7.5" fill="#FBC800"/>
<circle cx="951.5" cy="181.5" r="7.5" fill="#FBC800"/>
<circle cx="968.5" cy="181.5" r="7.5" fill="#FBC800"/>
<circle cx="985.5" cy="181.5" r="7.5" fill="#FBC800"/>
<circle cx="1002.5" cy="181.5" r="7.5" fill="#FBC800"/>
<circle cx="1019.5" cy="181.5" r="7.5" fill="#FBC800"/>
<circle cx="1036.5" cy="181.5" r="7.5" fill="#FBC800"/>
<circle cx="883.5" cy="181.5" r="7.5" fill="#FBC800"/>
<circle cx="900.5" cy="198.5" r="7.5" fill="#FBC800"/>
<circle cx="917.5" cy="198.5" r="7.5" fill="#FBC800"/>
<circle cx="934.5" cy="198.5" r="7.5" fill="#FBC800"/>
<circle cx="951.5" cy="198.5" r="7.5" fill="#FBC800"/>
<circle cx="883.5" cy="198.5" r="7.5" fill="#FBC800"/>
<path d="M471.746 165H467.02V142.168L460.047 144.551V140.547L471.141 136.465H471.746V165ZM500.75 165H481.629V161.738L491.102 151.406C492.469 149.883 493.439 148.613 494.012 147.598C494.598 146.569 494.891 145.54 494.891 144.512C494.891 143.158 494.507 142.064 493.738 141.23C492.983 140.397 491.961 139.98 490.672 139.98C489.135 139.98 487.944 140.449 487.098 141.387C486.251 142.324 485.828 143.607 485.828 145.234H481.082C481.082 143.503 481.473 141.947 482.254 140.566C483.048 139.173 484.174 138.092 485.633 137.324C487.104 136.556 488.797 136.172 490.711 136.172C493.471 136.172 495.646 136.868 497.234 138.262C498.836 139.642 499.637 141.556 499.637 144.004C499.637 145.423 499.233 146.914 498.426 148.477C497.632 150.026 496.323 151.79 494.5 153.77L487.547 161.211H500.75V165Z" fill="#8D75F3"/>
<path d="M700.379 165H695.652V142.168L688.68 144.551V140.547L699.773 136.465H700.379V165ZM729.383 165H710.262V161.738L719.734 151.406C721.102 149.883 722.072 148.613 722.645 147.598C723.23 146.569 723.523 145.54 723.523 144.512C723.523 143.158 723.139 142.064 722.371 141.23C721.616 140.397 720.594 139.98 719.305 139.98C717.768 139.98 716.577 140.449 715.73 141.387C714.884 142.324 714.461 143.607 714.461 145.234H709.715C709.715 143.503 710.105 141.947 710.887 140.566C711.681 139.173 712.807 138.092 714.266 137.324C715.737 136.556 717.43 136.172 719.344 136.172C722.104 136.172 724.279 136.868 725.867 138.262C727.469 139.642 728.27 141.556 728.27 144.004C728.27 145.423 727.866 146.914 727.059 148.477C726.264 150.026 724.956 151.79 723.133 153.77L716.18 161.211H729.383V165ZM745.848 165H741.121V142.168L734.148 144.551V140.547L745.242 136.465H745.848V165Z" fill="#6CBAFA"/>
<path d="M705.152 191.015L706.998 185.075H708.448L705.262 194.223C704.769 195.542 703.985 196.201 702.911 196.201L702.654 196.179L702.149 196.083V194.985L702.515 195.014C702.974 195.014 703.331 194.921 703.584 194.736C703.843 194.55 704.056 194.211 704.222 193.718L704.522 192.912L701.695 185.075H703.174L705.152 191.015ZM712.85 193.146C711.775 193.146 710.901 192.795 710.228 192.092C709.554 191.384 709.217 190.439 709.217 189.257V189.008C709.217 188.222 709.366 187.521 709.664 186.906C709.966 186.286 710.386 185.803 710.923 185.456C711.465 185.104 712.051 184.929 712.681 184.929C713.711 184.929 714.512 185.268 715.083 185.947C715.655 186.625 715.94 187.597 715.94 188.862V189.426H710.572C710.591 190.207 710.818 190.839 711.253 191.323C711.692 191.801 712.249 192.041 712.923 192.041C713.401 192.041 713.807 191.943 714.139 191.748C714.471 191.552 714.761 191.293 715.01 190.971L715.838 191.616C715.174 192.636 714.178 193.146 712.85 193.146ZM712.681 186.042C712.134 186.042 711.675 186.242 711.304 186.643C710.933 187.038 710.704 187.595 710.616 188.312H714.585V188.21C714.546 187.521 714.361 186.989 714.029 186.613C713.697 186.232 713.248 186.042 712.681 186.042ZM722.408 193C722.33 192.844 722.266 192.565 722.217 192.165C721.587 192.819 720.835 193.146 719.961 193.146C719.18 193.146 718.538 192.927 718.035 192.487C717.537 192.043 717.288 191.481 717.288 190.803C717.288 189.978 717.601 189.338 718.226 188.884C718.855 188.425 719.739 188.195 720.877 188.195H722.195V187.573C722.195 187.099 722.054 186.723 721.771 186.445C721.487 186.162 721.07 186.02 720.518 186.02C720.035 186.02 719.629 186.142 719.302 186.386C718.975 186.63 718.812 186.926 718.812 187.272H717.449C717.449 186.877 717.588 186.496 717.867 186.13C718.15 185.759 718.531 185.466 719.009 185.251C719.493 185.036 720.022 184.929 720.599 184.929C721.512 184.929 722.227 185.158 722.745 185.617C723.262 186.071 723.531 186.699 723.55 187.5V191.147C723.55 191.875 723.643 192.453 723.829 192.883V193H722.408ZM720.159 191.967C720.584 191.967 720.987 191.857 721.368 191.638C721.749 191.418 722.024 191.132 722.195 190.781V189.155H721.133C719.473 189.155 718.643 189.641 718.643 190.612C718.643 191.037 718.785 191.369 719.068 191.608C719.351 191.848 719.715 191.967 720.159 191.967ZM729.505 186.291C729.3 186.257 729.078 186.24 728.838 186.24C727.95 186.24 727.347 186.618 727.029 187.375V193H725.674V185.075H726.993L727.015 185.991C727.459 185.283 728.089 184.929 728.904 184.929C729.168 184.929 729.368 184.963 729.505 185.031V186.291ZM735.372 190.898C735.372 190.532 735.232 190.249 734.954 190.048C734.681 189.843 734.2 189.667 733.511 189.521C732.828 189.375 732.283 189.199 731.878 188.994C731.478 188.789 731.18 188.544 730.984 188.261C730.794 187.978 730.699 187.641 730.699 187.25C730.699 186.601 730.972 186.052 731.519 185.603C732.071 185.153 732.774 184.929 733.628 184.929C734.527 184.929 735.254 185.161 735.811 185.625C736.373 186.088 736.653 186.682 736.653 187.404H735.291C735.291 187.033 735.132 186.713 734.815 186.445C734.502 186.176 734.107 186.042 733.628 186.042C733.135 186.042 732.75 186.149 732.471 186.364C732.193 186.579 732.054 186.86 732.054 187.207C732.054 187.534 732.183 187.78 732.442 187.946C732.701 188.112 733.167 188.271 733.841 188.422C734.52 188.574 735.069 188.754 735.489 188.964C735.909 189.174 736.219 189.428 736.419 189.726C736.624 190.019 736.727 190.378 736.727 190.803C736.727 191.511 736.443 192.08 735.877 192.509C735.311 192.934 734.576 193.146 733.672 193.146C733.038 193.146 732.476 193.034 731.988 192.81C731.5 192.585 731.116 192.272 730.838 191.872C730.564 191.467 730.428 191.03 730.428 190.561H731.783C731.807 191.015 731.988 191.376 732.325 191.645C732.667 191.909 733.116 192.041 733.672 192.041C734.185 192.041 734.595 191.938 734.903 191.733C735.215 191.523 735.372 191.245 735.372 190.898Z" fill="black"/>
<path d="M466.152 191.015L467.998 185.075H469.448L466.262 194.223C465.769 195.542 464.985 196.201 463.911 196.201L463.654 196.179L463.149 196.083V194.985L463.515 195.014C463.974 195.014 464.331 194.921 464.584 194.736C464.843 194.55 465.056 194.211 465.222 193.718L465.522 192.912L462.695 185.075H464.174L466.152 191.015ZM473.85 193.146C472.775 193.146 471.901 192.795 471.228 192.092C470.554 191.384 470.217 190.439 470.217 189.257V189.008C470.217 188.222 470.366 187.521 470.664 186.906C470.966 186.286 471.386 185.803 471.923 185.456C472.465 185.104 473.051 184.929 473.681 184.929C474.711 184.929 475.512 185.268 476.083 185.947C476.655 186.625 476.94 187.597 476.94 188.862V189.426H471.572C471.591 190.207 471.818 190.839 472.253 191.323C472.692 191.801 473.249 192.041 473.923 192.041C474.401 192.041 474.807 191.943 475.139 191.748C475.471 191.552 475.761 191.293 476.01 190.971L476.838 191.616C476.174 192.636 475.178 193.146 473.85 193.146ZM473.681 186.042C473.134 186.042 472.675 186.242 472.304 186.643C471.933 187.038 471.704 187.595 471.616 188.312H475.585V188.21C475.546 187.521 475.361 186.989 475.029 186.613C474.697 186.232 474.248 186.042 473.681 186.042ZM483.408 193C483.33 192.844 483.266 192.565 483.217 192.165C482.587 192.819 481.835 193.146 480.961 193.146C480.18 193.146 479.538 192.927 479.035 192.487C478.537 192.043 478.288 191.481 478.288 190.803C478.288 189.978 478.601 189.338 479.226 188.884C479.855 188.425 480.739 188.195 481.877 188.195H483.195V187.573C483.195 187.099 483.054 186.723 482.771 186.445C482.487 186.162 482.07 186.02 481.518 186.02C481.035 186.02 480.629 186.142 480.302 186.386C479.975 186.63 479.812 186.926 479.812 187.272H478.449C478.449 186.877 478.588 186.496 478.867 186.13C479.15 185.759 479.531 185.466 480.009 185.251C480.493 185.036 481.022 184.929 481.599 184.929C482.512 184.929 483.227 185.158 483.745 185.617C484.262 186.071 484.531 186.699 484.55 187.5V191.147C484.55 191.875 484.643 192.453 484.829 192.883V193H483.408ZM481.159 191.967C481.584 191.967 481.987 191.857 482.368 191.638C482.749 191.418 483.024 191.132 483.195 190.781V189.155H482.133C480.473 189.155 479.643 189.641 479.643 190.612C479.643 191.037 479.785 191.369 480.068 191.608C480.351 191.848 480.715 191.967 481.159 191.967ZM490.505 186.291C490.3 186.257 490.078 186.24 489.838 186.24C488.95 186.24 488.347 186.618 488.029 187.375V193H486.674V185.075H487.993L488.015 185.991C488.459 185.283 489.089 184.929 489.904 184.929C490.168 184.929 490.368 184.963 490.505 185.031V186.291ZM496.372 190.898C496.372 190.532 496.232 190.249 495.954 190.048C495.681 189.843 495.2 189.667 494.511 189.521C493.828 189.375 493.283 189.199 492.878 188.994C492.478 188.789 492.18 188.544 491.984 188.261C491.794 187.978 491.699 187.641 491.699 187.25C491.699 186.601 491.972 186.052 492.519 185.603C493.071 185.153 493.774 184.929 494.628 184.929C495.527 184.929 496.254 185.161 496.811 185.625C497.373 186.088 497.653 186.682 497.653 187.404H496.291C496.291 187.033 496.132 186.713 495.815 186.445C495.502 186.176 495.107 186.042 494.628 186.042C494.135 186.042 493.75 186.149 493.471 186.364C493.193 186.579 493.054 186.86 493.054 187.207C493.054 187.534 493.183 187.78 493.442 187.946C493.701 188.112 494.167 188.271 494.841 188.422C495.52 188.574 496.069 188.754 496.489 188.964C496.909 189.174 497.219 189.428 497.419 189.726C497.624 190.019 497.727 190.378 497.727 190.803C497.727 191.511 497.443 192.08 496.877 192.509C496.311 192.934 495.576 193.146 494.672 193.146C494.038 193.146 493.476 193.034 492.988 192.81C492.5 192.585 492.116 192.272 491.838 191.872C491.564 191.467 491.428 191.03 491.428 190.561H492.783C492.807 191.015 492.988 191.376 493.325 191.645C493.667 191.909 494.116 192.041 494.672 192.041C495.185 192.041 495.595 191.938 495.903 191.733C496.215 191.523 496.372 191.245 496.372 190.898Z" fill="black"/>
</svg>
