<svg width="1200" height="400" viewBox="0 0 1200 400" fill="none" xmlns="http://www.w3.org/2000/svg">
<rect width="1200" height="400" fill="white"/>
<circle cx="180.5" cy="79.5" r="7.5" fill="#00C7A5"/>
<circle cx="197.5" cy="79.5" r="7.5" fill="#00C7A5"/>
<circle cx="214.5" cy="79.5" r="7.5" fill="#00C7A5"/>
<circle cx="231.5" cy="79.5" r="7.5" fill="#00C7A5"/>
<circle cx="248.5" cy="79.5" r="7.5" fill="#00C7A5"/>
<circle cx="265.5" cy="79.5" r="7.5" fill="#00C7A5"/>
<circle cx="282.5" cy="79.5" r="7.5" fill="#00C7A5"/>
<circle cx="299.5" cy="79.5" r="7.5" fill="#00C7A5"/>
<circle cx="316.5" cy="79.5" r="7.5" fill="#00C7A5"/>
<circle cx="163.5" cy="79.5" r="7.5" fill="#00C7A5"/>
<circle cx="180.5" cy="96.5" r="7.5" fill="#00C7A5"/>
<circle cx="197.5" cy="96.5" r="7.5" fill="#00C7A5"/>
<circle cx="214.5" cy="96.5" r="7.5" fill="#00C7A5"/>
<circle cx="231.5" cy="96.5" r="7.5" fill="#00C7A5"/>
<circle cx="248.5" cy="96.5" r="7.5" fill="#00C7A5"/>
<circle cx="265.5" cy="96.5" r="7.5" fill="#00C7A5"/>
<circle cx="282.5" cy="96.5" r="7.5" fill="#00C7A5"/>
<circle cx="299.5" cy="96.5" r="7.5" fill="#00C7A5"/>
<circle cx="316.5" cy="96.5" r="7.5" fill="#00C7A5"/>
<circle cx="163.5" cy="96.5" r="7.5" fill="#00C7A5"/>
<circle cx="180.5" cy="113.5" r="7.5" fill="#00C7A5"/>
<circle cx="197.5" cy="113.5" r="7.5" fill="#00C7A5"/>
<circle cx="214.5" cy="113.5" r="7.5" fill="#00C7A5"/>
<circle cx="231.5" cy="113.5" r="7.5" fill="#00C7A5"/>
<circle cx="248.5" cy="113.5" r="7.5" fill="#00C7A5"/>
<circle cx="265.5" cy="113.5" r="7.5" fill="#00C7A5"/>
<circle cx="282.5" cy="113.5" r="7.5" fill="#00C7A5"/>
<circle cx="299.5" cy="113.5" r="7.5" fill="#00C7A5"/>
<circle cx="316.5" cy="113.5" r="7.5" fill="#00C7A5"/>
<circle cx="163.5" cy="113.5" r="7.5" fill="#00C7A5"/>
<circle cx="180.5" cy="130.5" r="7.5" fill="#00C7A5"/>
<circle cx="197.5" cy="130.5" r="7.5" fill="#00C7A5"/>
<circle cx="214.5" cy="130.5" r="7.5" fill="#00C7A5"/>
<circle cx="231.5" cy="130.5" r="7.5" fill="#00C7A5"/>
<circle cx="248.5" cy="130.5" r="7.5" fill="#00C7A5"/>
<circle cx="265.5" cy="130.5" r="7.5" fill="#00C7A5"/>
<circle cx="282.5" cy="130.5" r="7.5" fill="#00C7A5"/>
<circle cx="299.5" cy="130.5" r="7.5" fill="#00C7A5"/>
<circle cx="316.5" cy="130.5" r="7.5" fill="#00C7A5"/>
<circle cx="163.5" cy="130.5" r="7.5" fill="#00C7A5"/>
<circle cx="180.5" cy="147.5" r="7.5" fill="#00C7A5"/>
<circle cx="197.5" cy="147.5" r="7.5" fill="#00C7A5"/>
<circle cx="214.5" cy="147.5" r="7.5" fill="#00C7A5"/>
<circle cx="231.5" cy="147.5" r="7.5" fill="#00C7A5"/>
<circle cx="248.5" cy="147.5" r="7.5" fill="#00C7A5"/>
<circle cx="265.5" cy="147.5" r="7.5" fill="#00C7A5"/>
<circle cx="282.5" cy="147.5" r="7.5" fill="#00C7A5"/>
<circle cx="299.5" cy="147.5" r="7.5" fill="#00C7A5"/>
<circle cx="316.5" cy="147.5" r="7.5" fill="#00C7A5"/>
<circle cx="163.5" cy="147.5" r="7.5" fill="#00C7A5"/>
<circle cx="180.5" cy="164.5" r="7.5" fill="#00C7A5"/>
<circle cx="197.5" cy="164.5" r="7.5" fill="#00C7A5"/>
<circle cx="214.5" cy="164.5" r="7.5" fill="#00C7A5"/>
<circle cx="231.5" cy="164.5" r="7.5" fill="#00C7A5"/>
<circle cx="248.5" cy="164.5" r="7.5" fill="#00C7A5"/>
<circle cx="265.5" cy="164.5" r="7.5" fill="#00C7A5"/>
<circle cx="282.5" cy="164.5" r="7.5" fill="#00C7A5"/>
<circle cx="299.5" cy="164.5" r="7.5" fill="#00C7A5"/>
<circle cx="316.5" cy="164.5" r="7.5" fill="#00C7A5"/>
<circle cx="163.5" cy="164.5" r="7.5" fill="#00C7A5"/>
<circle cx="180.5" cy="181.5" r="7.5" fill="#00C7A5"/>
<circle cx="197.5" cy="181.5" r="7.5" fill="#00C7A5"/>
<circle cx="214.5" cy="181.5" r="7.5" fill="#00C7A5"/>
<circle cx="231.5" cy="181.5" r="7.5" fill="#00C7A5"/>
<circle cx="248.5" cy="181.5" r="7.5" fill="#00C7A5"/>
<circle cx="265.5" cy="181.5" r="7.5" fill="#00C7A5"/>
<circle cx="282.5" cy="181.5" r="7.5" fill="#00C7A5"/>
<circle cx="299.5" cy="181.5" r="7.5" fill="#00C7A5"/>
<circle cx="316.5" cy="181.5" r="7.5" fill="#00C7A5"/>
<circle cx="163.5" cy="181.5" r="7.5" fill="#00C7A5"/>
<circle cx="180.5" cy="198.5" r="7.5" fill="#00C7A5"/>
<circle cx="197.5" cy="198.5" r="7.5" fill="#00C7A5"/>
<circle cx="214.5" cy="198.5" r="7.5" fill="#00C7A5"/>
<circle cx="231.5" cy="198.5" r="7.5" fill="#00C7A5"/>
<circle cx="248.5" cy="198.5" r="7.5" fill="#00C7A5"/>
<circle cx="265.5" cy="198.5" r="7.5" fill="#00C7A5"/>
<circle cx="282.5" cy="198.5" r="7.5" fill="#00C7A5"/>
<circle cx="299.5" cy="198.5" r="7.5" fill="#00C7A5"/>
<circle cx="316.5" cy="198.5" r="7.5" fill="#00C7A5"/>
<circle cx="163.5" cy="198.5" r="7.5" fill="#00C7A5"/>
<circle cx="180.5" cy="215.5" r="7.5" fill="#00C7A5"/>
<circle cx="197.5" cy="215.5" r="7.5" fill="#00C7A5"/>
<circle cx="214.5" cy="215.5" r="7.5" fill="#00C7A5"/>
<circle cx="231.5" cy="215.5" r="7.5" fill="#00C7A5"/>
<circle cx="248.5" cy="215.5" r="7.5" fill="#00C7A5"/>
<circle cx="265.5" cy="215.5" r="7.5" fill="#00C7A5"/>
<circle cx="282.5" cy="215.5" r="7.5" fill="#00C7A5"/>
<circle cx="299.5" cy="215.5" r="7.5" fill="#00C7A5"/>
<circle cx="316.5" cy="215.5" r="7.5" fill="#00C7A5"/>
<circle cx="163.5" cy="215.5" r="7.5" fill="#00C7A5"/>
<circle cx="180.5" cy="232.5" r="7.5" fill="#00C7A5"/>
<circle cx="197.5" cy="232.5" r="7.5" fill="#00C7A5"/>
<circle cx="214.5" cy="232.5" r="7.5" fill="#00C7A5"/>
<circle cx="231.5" cy="232.5" r="7.5" fill="#00C7A5"/>
<circle cx="248.5" cy="232.5" r="7.5" fill="#00C7A5"/>
<circle cx="265.5" cy="232.5" r="7.5" fill="#00C7A5"/>
<circle cx="282.5" cy="232.5" r="7.5" fill="#00C7A5"/>
<circle cx="299.5" cy="232.5" r="7.5" fill="#00C7A5"/>
<circle cx="316.5" cy="232.5" r="7.5" fill="#00C7A5"/>
<circle cx="163.5" cy="232.5" r="7.5" fill="#00C7A5"/>
<circle cx="420.5" cy="79.5" r="7.5" fill="#8D75F3"/>
<circle cx="437.5" cy="79.5" r="7.5" fill="#8D75F3"/>
<circle cx="454.5" cy="79.5" r="7.5" fill="#8D75F3"/>
<circle cx="471.5" cy="79.5" r="7.5" fill="#8D75F3"/>
<circle cx="488.5" cy="79.5" r="7.5" fill="#8D75F3"/>
<circle cx="505.5" cy="79.5" r="7.5" fill="#8D75F3"/>
<circle cx="522.5" cy="79.5" r="7.5" fill="#8D75F3"/>
<circle cx="539.5" cy="79.5" r="7.5" fill="#8D75F3"/>
<circle cx="556.5" cy="79.5" r="7.5" fill="#8D75F3"/>
<circle cx="403.5" cy="79.5" r="7.5" fill="#8D75F3"/>
<circle cx="420.5" cy="96.5" r="7.5" fill="#8D75F3"/>
<circle cx="437.5" cy="96.5" r="7.5" fill="#8D75F3"/>
<circle cx="454.5" cy="96.5" r="7.5" fill="#8D75F3"/>
<circle cx="471.5" cy="96.5" r="7.5" fill="#8D75F3"/>
<circle cx="488.5" cy="96.5" r="7.5" fill="#8D75F3"/>
<circle cx="505.5" cy="96.5" r="7.5" fill="#8D75F3"/>
<circle cx="522.5" cy="96.5" r="7.5" fill="#8D75F3"/>
<circle cx="539.5" cy="96.5" r="7.5" fill="#8D75F3"/>
<circle cx="556.5" cy="96.5" r="7.5" fill="#8D75F3"/>
<circle cx="403.5" cy="96.5" r="7.5" fill="#8D75F3"/>
<circle cx="420.5" cy="113.5" r="7.5" fill="#8D75F3"/>
<circle cx="437.5" cy="113.5" r="7.5" fill="#8D75F3"/>
<circle cx="454.5" cy="113.5" r="7.5" fill="#8D75F3"/>
<circle cx="471.5" cy="113.5" r="7.5" fill="#8D75F3"/>
<circle cx="488.5" cy="113.5" r="7.5" fill="#8D75F3"/>
<circle cx="505.5" cy="113.5" r="7.5" fill="#8D75F3"/>
<circle cx="522.5" cy="113.5" r="7.5" fill="#8D75F3"/>
<circle cx="539.5" cy="113.5" r="7.5" fill="#8D75F3"/>
<circle cx="556.5" cy="113.5" r="7.5" fill="#8D75F3"/>
<circle cx="403.5" cy="113.5" r="7.5" fill="#8D75F3"/>
<circle cx="420.5" cy="130.5" r="7.5" fill="#8D75F3"/>
<circle cx="437.5" cy="130.5" r="7.5" fill="#8D75F3"/>
<circle cx="454.5" cy="130.5" r="7.5" fill="#8D75F3"/>
<circle cx="471.5" cy="130.5" r="7.5" fill="#8D75F3"/>
<circle cx="488.5" cy="130.5" r="7.5" fill="#8D75F3"/>
<circle cx="505.5" cy="130.5" r="7.5" fill="#8D75F3"/>
<circle cx="522.5" cy="130.5" r="7.5" fill="#8D75F3"/>
<circle cx="539.5" cy="130.5" r="7.5" fill="#8D75F3"/>
<circle cx="556.5" cy="130.5" r="7.5" fill="#8D75F3"/>
<circle cx="403.5" cy="130.5" r="7.5" fill="#8D75F3"/>
<circle cx="420.5" cy="147.5" r="7.5" fill="#8D75F3"/>
<circle cx="437.5" cy="147.5" r="7.5" fill="#8D75F3"/>
<circle cx="454.5" cy="147.5" r="7.5" fill="#8D75F3"/>
<circle cx="471.5" cy="147.5" r="7.5" fill="#8D75F3"/>
<circle cx="488.5" cy="147.5" r="7.5" fill="#8D75F3"/>
<circle cx="505.5" cy="147.5" r="7.5" fill="#8D75F3"/>
<circle cx="522.5" cy="147.5" r="7.5" fill="#8D75F3"/>
<circle cx="539.5" cy="147.5" r="7.5" fill="#8D75F3"/>
<circle cx="556.5" cy="147.5" r="7.5" fill="#8D75F3"/>
<circle cx="403.5" cy="147.5" r="7.5" fill="#8D75F3"/>
<circle cx="420.5" cy="164.5" r="7.5" fill="#8D75F3"/>
<circle cx="437.5" cy="164.5" r="7.5" fill="#8D75F3"/>
<circle cx="454.5" cy="164.5" r="7.5" fill="#8D75F3"/>
<circle cx="471.5" cy="164.5" r="7.5" fill="#8D75F3"/>
<circle cx="488.5" cy="164.5" r="7.5" fill="#8D75F3"/>
<circle cx="505.5" cy="164.5" r="7.5" fill="#8D75F3"/>
<circle cx="522.5" cy="164.5" r="7.5" fill="#8D75F3"/>
<circle cx="539.5" cy="164.5" r="7.5" fill="#8D75F3"/>
<circle cx="556.5" cy="164.5" r="7.5" fill="#8D75F3"/>
<circle cx="403.5" cy="164.5" r="7.5" fill="#8D75F3"/>
<circle cx="420.5" cy="181.5" r="7.5" fill="#8D75F3"/>
<circle cx="437.5" cy="181.5" r="7.5" fill="#8D75F3"/>
<circle cx="454.5" cy="181.5" r="7.5" fill="#8D75F3"/>
<circle cx="471.5" cy="181.5" r="7.5" fill="#8D75F3"/>
<circle cx="488.5" cy="181.5" r="7.5" fill="#8D75F3"/>
<circle cx="505.5" cy="181.5" r="7.5" fill="#8D75F3"/>
<circle cx="522.5" cy="181.5" r="7.5" fill="#8D75F3"/>
<circle cx="539.5" cy="181.5" r="7.5" fill="#8D75F3"/>
<circle cx="556.5" cy="181.5" r="7.5" fill="#8D75F3"/>
<circle cx="403.5" cy="181.5" r="7.5" fill="#8D75F3"/>
<circle cx="420.5" cy="198.5" r="7.5" fill="#8D75F3"/>
<circle cx="437.5" cy="198.5" r="7.5" fill="#8D75F3"/>
<circle cx="454.5" cy="198.5" r="7.5" fill="#8D75F3"/>
<circle cx="471.5" cy="198.5" r="7.5" fill="#8D75F3"/>
<circle cx="488.5" cy="198.5" r="7.5" fill="#8D75F3"/>
<circle cx="505.5" cy="198.5" r="7.5" fill="#8D75F3"/>
<circle cx="522.5" cy="198.5" r="7.5" fill="#8D75F3"/>
<circle cx="539.5" cy="198.5" r="7.5" fill="#8D75F3"/>
<circle cx="556.5" cy="198.5" r="7.5" fill="#8D75F3"/>
<circle cx="403.5" cy="198.5" r="7.5" fill="#8D75F3"/>
<circle cx="420.5" cy="215.5" r="7.5" fill="#8D75F3"/>
<circle cx="437.5" cy="215.5" r="7.5" fill="#8D75F3"/>
<circle cx="454.5" cy="215.5" r="7.5" fill="#8D75F3"/>
<circle cx="471.5" cy="215.5" r="7.5" fill="#8D75F3"/>
<circle cx="488.5" cy="215.5" r="7.5" fill="#8D75F3"/>
<circle cx="505.5" cy="215.5" r="7.5" fill="#8D75F3"/>
<circle cx="522.5" cy="215.5" r="7.5" fill="#8D75F3"/>
<circle cx="539.5" cy="215.5" r="7.5" fill="#8D75F3"/>
<circle cx="556.5" cy="215.5" r="7.5" fill="#8D75F3"/>
<circle cx="403.5" cy="215.5" r="7.5" fill="#8D75F3"/>
<circle cx="420.5" cy="232.5" r="7.5" fill="#8D75F3"/>
<circle cx="437.5" cy="232.5" r="7.5" fill="#8D75F3"/>
<circle cx="454.5" cy="232.5" r="7.5" fill="#8D75F3"/>
<circle cx="471.5" cy="232.5" r="7.5" fill="#8D75F3"/>
<circle cx="488.5" cy="232.5" r="7.5" fill="#8D75F3"/>
<circle cx="505.5" cy="232.5" r="7.5" fill="#8D75F3"/>
<circle cx="522.5" cy="232.5" r="7.5" fill="#8D75F3"/>
<circle cx="539.5" cy="232.5" r="7.5" fill="#8D75F3"/>
<circle cx="556.5" cy="232.5" r="7.5" fill="#8D75F3"/>
<circle cx="403.5" cy="232.5" r="7.5" fill="#8D75F3"/>
<circle cx="660.5" cy="79.5" r="7.5" fill="#6CBAFA"/>
<circle cx="677.5" cy="79.5" r="7.5" fill="#6CBAFA"/>
<circle cx="694.5" cy="79.5" r="7.5" fill="#6CBAFA"/>
<circle cx="711.5" cy="79.5" r="7.5" fill="#6CBAFA"/>
<circle cx="728.5" cy="79.5" r="7.5" fill="#6CBAFA"/>
<circle cx="745.5" cy="79.5" r="7.5" fill="#6CBAFA"/>
<circle cx="762.5" cy="79.5" r="7.5" fill="#6CBAFA"/>
<circle cx="779.5" cy="79.5" r="7.5" fill="#6CBAFA"/>
<circle cx="796.5" cy="79.5" r="7.5" fill="#6CBAFA"/>
<circle cx="643.5" cy="79.5" r="7.5" fill="#6CBAFA"/>
<circle cx="660.5" cy="96.5" r="7.5" fill="#6CBAFA"/>
<circle cx="677.5" cy="96.5" r="7.5" fill="#6CBAFA"/>
<circle cx="694.5" cy="96.5" r="7.5" fill="#6CBAFA"/>
<circle cx="711.5" cy="96.5" r="7.5" fill="#6CBAFA"/>
<circle cx="728.5" cy="96.5" r="7.5" fill="#6CBAFA"/>
<circle cx="745.5" cy="96.5" r="7.5" fill="#6CBAFA"/>
<circle cx="762.5" cy="96.5" r="7.5" fill="#6CBAFA"/>
<circle cx="779.5" cy="96.5" r="7.5" fill="#6CBAFA"/>
<circle cx="796.5" cy="96.5" r="7.5" fill="#6CBAFA"/>
<circle cx="643.5" cy="96.5" r="7.5" fill="#6CBAFA"/>
<circle cx="660.5" cy="113.5" r="7.5" fill="#6CBAFA"/>
<circle cx="677.5" cy="113.5" r="7.5" fill="#6CBAFA"/>
<circle cx="694.5" cy="113.5" r="7.5" fill="#6CBAFA"/>
<circle cx="711.5" cy="113.5" r="7.5" fill="#6CBAFA"/>
<circle cx="728.5" cy="113.5" r="7.5" fill="#6CBAFA"/>
<circle cx="745.5" cy="113.5" r="7.5" fill="#6CBAFA"/>
<circle cx="762.5" cy="113.5" r="7.5" fill="#6CBAFA"/>
<circle cx="779.5" cy="113.5" r="7.5" fill="#6CBAFA"/>
<circle cx="796.5" cy="113.5" r="7.5" fill="#6CBAFA"/>
<circle cx="643.5" cy="113.5" r="7.5" fill="#6CBAFA"/>
<circle cx="660.5" cy="130.5" r="7.5" fill="#6CBAFA"/>
<circle cx="677.5" cy="130.5" r="7.5" fill="#6CBAFA"/>
<circle cx="694.5" cy="130.5" r="7.5" fill="#6CBAFA"/>
<circle cx="711.5" cy="130.5" r="7.5" fill="#6CBAFA"/>
<circle cx="728.5" cy="130.5" r="7.5" fill="#6CBAFA"/>
<circle cx="745.5" cy="130.5" r="7.5" fill="#6CBAFA"/>
<circle cx="762.5" cy="130.5" r="7.5" fill="#6CBAFA"/>
<circle cx="779.5" cy="130.5" r="7.5" fill="#6CBAFA"/>
<circle cx="796.5" cy="130.5" r="7.5" fill="#6CBAFA"/>
<circle cx="643.5" cy="130.5" r="7.5" fill="#6CBAFA"/>
<circle cx="660.5" cy="147.5" r="7.5" fill="#6CBAFA"/>
<circle cx="677.5" cy="147.5" r="7.5" fill="#6CBAFA"/>
<circle cx="694.5" cy="147.5" r="7.5" fill="#6CBAFA"/>
<circle cx="711.5" cy="147.5" r="7.5" fill="#6CBAFA"/>
<circle cx="728.5" cy="147.5" r="7.5" fill="#6CBAFA"/>
<circle cx="745.5" cy="147.5" r="7.5" fill="#6CBAFA"/>
<circle cx="762.5" cy="147.5" r="7.5" fill="#6CBAFA"/>
<circle cx="779.5" cy="147.5" r="7.5" fill="#6CBAFA"/>
<circle cx="796.5" cy="147.5" r="7.5" fill="#6CBAFA"/>
<circle cx="643.5" cy="147.5" r="7.5" fill="#6CBAFA"/>
<circle cx="660.5" cy="164.5" r="7.5" fill="#6CBAFA"/>
<circle cx="677.5" cy="164.5" r="7.5" fill="#6CBAFA"/>
<circle cx="694.5" cy="164.5" r="7.5" fill="#6CBAFA"/>
<circle cx="711.5" cy="164.5" r="7.5" fill="#6CBAFA"/>
<circle cx="728.5" cy="164.5" r="7.5" fill="#6CBAFA"/>
<circle cx="745.5" cy="164.5" r="7.5" fill="#6CBAFA"/>
<circle cx="762.5" cy="164.5" r="7.5" fill="#6CBAFA"/>
<circle cx="779.5" cy="164.5" r="7.5" fill="#6CBAFA"/>
<circle cx="796.5" cy="164.5" r="7.5" fill="#6CBAFA"/>
<circle cx="643.5" cy="164.5" r="7.5" fill="#6CBAFA"/>
<circle cx="660.5" cy="181.5" r="7.5" fill="#6CBAFA"/>
<circle cx="677.5" cy="181.5" r="7.5" fill="#6CBAFA"/>
<circle cx="694.5" cy="181.5" r="7.5" fill="#6CBAFA"/>
<circle cx="711.5" cy="181.5" r="7.5" fill="#6CBAFA"/>
<circle cx="728.5" cy="181.5" r="7.5" fill="#6CBAFA"/>
<circle cx="745.5" cy="181.5" r="7.5" fill="#6CBAFA"/>
<circle cx="762.5" cy="181.5" r="7.5" fill="#6CBAFA"/>
<circle cx="779.5" cy="181.5" r="7.5" fill="#6CBAFA"/>
<circle cx="796.5" cy="181.5" r="7.5" fill="#6CBAFA"/>
<circle cx="643.5" cy="181.5" r="7.5" fill="#6CBAFA"/>
<circle cx="660.5" cy="198.5" r="7.5" fill="#6CBAFA"/>
<circle cx="677.5" cy="198.5" r="7.5" fill="#6CBAFA"/>
<circle cx="694.5" cy="198.5" r="7.5" fill="#6CBAFA"/>
<circle cx="711.5" cy="198.5" r="7.5" fill="#6CBAFA"/>
<circle cx="728.5" cy="198.5" r="7.5" fill="#6CBAFA"/>
<circle cx="745.5" cy="198.5" r="7.5" fill="#6CBAFA"/>
<circle cx="762.5" cy="198.5" r="7.5" fill="#6CBAFA"/>
<circle cx="779.5" cy="198.5" r="7.5" fill="#6CBAFA"/>
<circle cx="796.5" cy="198.5" r="7.5" fill="#6CBAFA"/>
<circle cx="643.5" cy="198.5" r="7.5" fill="#6CBAFA"/>
<circle cx="660.5" cy="215.5" r="7.5" fill="#6CBAFA"/>
<circle cx="677.5" cy="215.5" r="7.5" fill="#6CBAFA"/>
<circle cx="694.5" cy="215.5" r="7.5" fill="#6CBAFA"/>
<circle cx="711.5" cy="215.5" r="7.5" fill="#6CBAFA"/>
<circle cx="728.5" cy="215.5" r="7.5" fill="#6CBAFA"/>
<circle cx="745.5" cy="215.5" r="7.5" fill="#6CBAFA"/>
<circle cx="762.5" cy="215.5" r="7.5" fill="#6CBAFA"/>
<circle cx="779.5" cy="215.5" r="7.5" fill="#6CBAFA"/>
<circle cx="796.5" cy="215.5" r="7.5" fill="#6CBAFA"/>
<circle cx="643.5" cy="215.5" r="7.5" fill="#6CBAFA"/>
<circle cx="660.5" cy="232.5" r="7.5" fill="#6CBAFA"/>
<circle cx="677.5" cy="232.5" r="7.5" fill="#6CBAFA"/>
<circle cx="694.5" cy="232.5" r="7.5" fill="#6CBAFA"/>
<circle cx="711.5" cy="232.5" r="7.5" fill="#6CBAFA"/>
<circle cx="728.5" cy="232.5" r="7.5" fill="#6CBAFA"/>
<circle cx="745.5" cy="232.5" r="7.5" fill="#6CBAFA"/>
<circle cx="762.5" cy="232.5" r="7.5" fill="#6CBAFA"/>
<circle cx="779.5" cy="232.5" r="7.5" fill="#6CBAFA"/>
<circle cx="796.5" cy="232.5" r="7.5" fill="#6CBAFA"/>
<circle cx="643.5" cy="232.5" r="7.5" fill="#6CBAFA"/>
<circle cx="900.5" cy="79.5" r="7.5" fill="#FBC800"/>
<circle cx="917.5" cy="79.5" r="7.5" fill="#FBC800"/>
<circle cx="934.5" cy="79.5" r="7.5" fill="#FBC800"/>
<circle cx="951.5" cy="79.5" r="7.5" fill="#FBC800"/>
<circle cx="968.5" cy="79.5" r="7.5" fill="#FBC800"/>
<circle cx="985.5" cy="79.5" r="7.5" fill="#FBC800"/>
<circle cx="1002.5" cy="79.5" r="7.5" fill="#FBC800"/>
<circle cx="1019.5" cy="79.5" r="7.5" fill="#FBC800"/>
<circle cx="1036.5" cy="79.5" r="7.5" fill="#FBC800"/>
<circle cx="883.5" cy="79.5" r="7.5" fill="#FBC800"/>
<circle cx="900.5" cy="96.5" r="7.5" fill="#FBC800"/>
<circle cx="917.5" cy="96.5" r="7.5" fill="#FBC800"/>
<circle cx="934.5" cy="96.5" r="7.5" fill="#FBC800"/>
<circle cx="951.5" cy="96.5" r="7.5" fill="#FBC800"/>
<circle cx="968.5" cy="96.5" r="7.5" fill="#FBC800"/>
<circle cx="985.5" cy="96.5" r="7.5" fill="#FBC800"/>
<circle cx="1002.5" cy="96.5" r="7.5" fill="#FBC800"/>
<circle cx="1019.5" cy="96.5" r="7.5" fill="#FBC800"/>
<circle cx="1036.5" cy="96.5" r="7.5" fill="#FBC800"/>
<circle cx="883.5" cy="96.5" r="7.5" fill="#FBC800"/>
<circle cx="900.5" cy="113.5" r="7.5" fill="#FBC800"/>
<circle cx="917.5" cy="113.5" r="7.5" fill="#FBC800"/>
<circle cx="934.5" cy="113.5" r="7.5" fill="#FBC800"/>
<circle cx="951.5" cy="113.5" r="7.5" fill="#FBC800"/>
<circle cx="968.5" cy="113.5" r="7.5" fill="#FBC800"/>
<circle cx="985.5" cy="113.5" r="7.5" fill="#FBC800"/>
<circle cx="1002.5" cy="113.5" r="7.5" fill="#FBC800"/>
<circle cx="1019.5" cy="113.5" r="7.5" fill="#FBC800"/>
<circle cx="1036.5" cy="113.5" r="7.5" fill="#FBC800"/>
<circle cx="883.5" cy="113.5" r="7.5" fill="#FBC800"/>
<circle cx="900.5" cy="130.5" r="7.5" fill="#FBC800"/>
<circle cx="917.5" cy="130.5" r="7.5" fill="#FBC800"/>
<circle cx="934.5" cy="130.5" r="7.5" fill="#FBC800"/>
<circle cx="951.5" cy="130.5" r="7.5" fill="#FBC800"/>
<circle cx="968.5" cy="130.5" r="7.5" fill="#FBC800"/>
<circle cx="985.5" cy="130.5" r="7.5" fill="#FBC800"/>
<circle cx="1002.5" cy="130.5" r="7.5" fill="#FBC800"/>
<circle cx="1019.5" cy="130.5" r="7.5" fill="#FBC800"/>
<circle cx="1036.5" cy="130.5" r="7.5" fill="#FBC800"/>
<circle cx="883.5" cy="130.5" r="7.5" fill="#FBC800"/>
<circle cx="900.5" cy="147.5" r="7.5" fill="#FBC800"/>
<circle cx="917.5" cy="147.5" r="7.5" fill="#FBC800"/>
<circle cx="934.5" cy="147.5" r="7.5" fill="#FBC800"/>
<circle cx="951.5" cy="147.5" r="7.5" fill="#FBC800"/>
<circle cx="968.5" cy="147.5" r="7.5" fill="#FBC800"/>
<circle cx="985.5" cy="147.5" r="7.5" fill="#FBC800"/>
<circle cx="1002.5" cy="147.5" r="7.5" fill="#FBC800"/>
<circle cx="1019.5" cy="147.5" r="7.5" fill="#FBC800"/>
<circle cx="1036.5" cy="147.5" r="7.5" fill="#FBC800"/>
<circle cx="883.5" cy="147.5" r="7.5" fill="#FBC800"/>
<circle cx="900.5" cy="164.5" r="7.5" fill="#FBC800"/>
<circle cx="917.5" cy="164.5" r="7.5" fill="#FBC800"/>
<circle cx="934.5" cy="164.5" r="7.5" fill="#FBC800"/>
<circle cx="951.5" cy="164.5" r="7.5" fill="#FBC800"/>
<circle cx="968.5" cy="164.5" r="7.5" fill="#FBC800"/>
<circle cx="985.5" cy="164.5" r="7.5" fill="#FBC800"/>
<circle cx="1002.5" cy="164.5" r="7.5" fill="#FBC800"/>
<circle cx="1019.5" cy="164.5" r="7.5" fill="#FBC800"/>
<circle cx="1036.5" cy="164.5" r="7.5" fill="#FBC800"/>
<circle cx="883.5" cy="164.5" r="7.5" fill="#FBC800"/>
<circle cx="900.5" cy="181.5" r="7.5" fill="#FBC800"/>
<circle cx="917.5" cy="181.5" r="7.5" fill="#FBC800"/>
<circle cx="934.5" cy="181.5" r="7.5" fill="#FBC800"/>
<circle cx="951.5" cy="181.5" r="7.5" fill="#FBC800"/>
<circle cx="968.5" cy="181.5" r="7.5" fill="#FBC800"/>
<circle cx="985.5" cy="181.5" r="7.5" fill="#FBC800"/>
<circle cx="1002.5" cy="181.5" r="7.5" fill="#FBC800"/>
<circle cx="1019.5" cy="181.5" r="7.5" fill="#FBC800"/>
<circle cx="1036.5" cy="181.5" r="7.5" fill="#FBC800"/>
<circle cx="883.5" cy="181.5" r="7.5" fill="#FBC800"/>
<circle cx="900.5" cy="198.5" r="7.5" fill="#FBC800"/>
<circle cx="917.5" cy="198.5" r="7.5" fill="#FBC800"/>
<circle cx="934.5" cy="198.5" r="7.5" fill="#FBC800"/>
<circle cx="951.5" cy="198.5" r="7.5" fill="#FBC800"/>
<circle cx="968.5" cy="198.5" r="7.5" fill="#FBC800"/>
<circle cx="985.5" cy="198.5" r="7.5" fill="#FBC800"/>
<circle cx="1002.5" cy="198.5" r="7.5" fill="#FBC800"/>
<circle cx="1019.5" cy="198.5" r="7.5" fill="#FBC800"/>
<circle cx="1036.5" cy="198.5" r="7.5" fill="#FBC800"/>
<circle cx="883.5" cy="198.5" r="7.5" fill="#FBC800"/>
<circle cx="900.5" cy="215.5" r="7.5" fill="#FBC800"/>
<circle cx="917.5" cy="215.5" r="7.5" fill="#FBC800"/>
<circle cx="934.5" cy="215.5" r="7.5" fill="#FBC800"/>
<circle cx="951.5" cy="215.5" r="7.5" fill="#FBC800"/>
<circle cx="968.5" cy="215.5" r="7.5" fill="#FBC800"/>
<circle cx="985.5" cy="215.5" r="7.5" fill="#FBC800"/>
<circle cx="1002.5" cy="215.5" r="7.5" fill="#FBC800"/>
<circle cx="1019.5" cy="215.5" r="7.5" fill="#FBC800"/>
<circle cx="1036.5" cy="215.5" r="7.5" fill="#FBC800"/>
<circle cx="883.5" cy="215.5" r="7.5" fill="#FBC800"/>
<circle cx="900.5" cy="232.5" r="7.5" fill="#FBC800"/>
<circle cx="917.5" cy="232.5" r="7.5" fill="#FBC800"/>
<circle cx="934.5" cy="232.5" r="7.5" fill="#FBC800"/>
<circle cx="951.5" cy="232.5" r="7.5" fill="#FBC800"/>
<circle cx="968.5" cy="232.5" r="7.5" fill="#FBC800"/>
<circle cx="985.5" cy="232.5" r="7.5" fill="#FBC800"/>
<circle cx="1002.5" cy="232.5" r="7.5" fill="#FBC800"/>
<circle cx="1019.5" cy="232.5" r="7.5" fill="#FBC800"/>
<circle cx="1036.5" cy="232.5" r="7.5" fill="#FBC800"/>
<circle cx="883.5" cy="232.5" r="7.5" fill="#FBC800"/>
</svg>
