<svg width="1200" height="400" viewBox="0 0 1200 400" fill="none" xmlns="http://www.w3.org/2000/svg">
<rect width="1200" height="400" fill="white"/>
<circle cx="483" cy="200" r="10" fill="#8D75F3"/>
<path d="M463.369 327.354L465.83 319.434H467.764L463.516 331.631C462.858 333.389 461.813 334.268 460.381 334.268L460.039 334.238L459.365 334.111V332.646L459.854 332.686C460.465 332.686 460.941 332.562 461.279 332.314C461.624 332.067 461.908 331.615 462.129 330.957L462.529 329.883L458.76 319.434H460.732L463.369 327.354ZM473.633 330.195C472.201 330.195 471.035 329.727 470.137 328.789C469.238 327.845 468.789 326.585 468.789 325.01V324.678C468.789 323.63 468.988 322.695 469.385 321.875C469.788 321.048 470.348 320.404 471.064 319.941C471.787 319.473 472.568 319.238 473.408 319.238C474.782 319.238 475.85 319.691 476.611 320.596C477.373 321.501 477.754 322.796 477.754 324.482V325.234H470.596C470.622 326.276 470.924 327.119 471.504 327.764C472.09 328.402 472.832 328.721 473.73 328.721C474.368 328.721 474.909 328.59 475.352 328.33C475.794 328.07 476.182 327.725 476.514 327.295L477.617 328.154C476.732 329.515 475.404 330.195 473.633 330.195ZM473.408 320.723C472.679 320.723 472.067 320.99 471.572 321.523C471.077 322.051 470.771 322.793 470.654 323.75H475.947V323.613C475.895 322.695 475.648 321.986 475.205 321.484C474.762 320.977 474.163 320.723 473.408 320.723ZM486.377 330C486.273 329.792 486.188 329.421 486.123 328.887C485.283 329.759 484.281 330.195 483.115 330.195C482.074 330.195 481.217 329.902 480.547 329.316C479.883 328.724 479.551 327.975 479.551 327.07C479.551 325.97 479.967 325.117 480.801 324.512C481.641 323.9 482.819 323.594 484.336 323.594H486.094V322.764C486.094 322.132 485.905 321.631 485.527 321.26C485.15 320.882 484.593 320.693 483.857 320.693C483.213 320.693 482.673 320.856 482.236 321.182C481.8 321.507 481.582 321.901 481.582 322.363H479.766C479.766 321.836 479.951 321.328 480.322 320.84C480.7 320.345 481.208 319.954 481.846 319.668C482.49 319.382 483.197 319.238 483.965 319.238C485.182 319.238 486.136 319.544 486.826 320.156C487.516 320.762 487.874 321.598 487.9 322.666V327.529C487.9 328.499 488.024 329.271 488.271 329.844V330H486.377ZM483.379 328.623C483.945 328.623 484.482 328.477 484.99 328.184C485.498 327.891 485.866 327.51 486.094 327.041V324.873H484.678C482.464 324.873 481.357 325.521 481.357 326.816C481.357 327.383 481.546 327.826 481.924 328.145C482.301 328.464 482.786 328.623 483.379 328.623ZM495.84 321.055C495.566 321.009 495.27 320.986 494.951 320.986C493.766 320.986 492.962 321.491 492.539 322.5V330H490.732V319.434H492.49L492.52 320.654C493.112 319.71 493.952 319.238 495.039 319.238C495.391 319.238 495.658 319.284 495.84 319.375V321.055ZM503.662 327.197C503.662 326.709 503.477 326.331 503.105 326.064C502.741 325.791 502.1 325.557 501.182 325.361C500.27 325.166 499.544 324.932 499.004 324.658C498.47 324.385 498.073 324.059 497.812 323.682C497.559 323.304 497.432 322.855 497.432 322.334C497.432 321.468 497.796 320.736 498.525 320.137C499.261 319.538 500.199 319.238 501.338 319.238C502.536 319.238 503.506 319.548 504.248 320.166C504.997 320.785 505.371 321.576 505.371 322.539H503.555C503.555 322.044 503.343 321.618 502.92 321.26C502.503 320.902 501.976 320.723 501.338 320.723C500.68 320.723 500.166 320.866 499.795 321.152C499.424 321.439 499.238 321.813 499.238 322.275C499.238 322.712 499.411 323.04 499.756 323.262C500.101 323.483 500.723 323.695 501.621 323.896C502.526 324.098 503.258 324.339 503.818 324.619C504.378 324.899 504.792 325.238 505.059 325.635C505.332 326.025 505.469 326.504 505.469 327.07C505.469 328.014 505.091 328.773 504.336 329.346C503.581 329.912 502.601 330.195 501.396 330.195C500.55 330.195 499.801 330.046 499.15 329.746C498.499 329.447 497.988 329.03 497.617 328.496C497.253 327.956 497.07 327.373 497.07 326.748H498.877C498.91 327.354 499.15 327.835 499.6 328.193C500.055 328.545 500.654 328.721 501.396 328.721C502.08 328.721 502.627 328.584 503.037 328.311C503.454 328.031 503.662 327.66 503.662 327.197Z" fill="black"/>
<path d="M453.105 296H447.197V267.46L438.481 270.438V265.434L452.349 260.331H453.105V296ZM489.36 296H465.459V291.923L477.3 279.008C479.009 277.104 480.221 275.517 480.938 274.247C481.67 272.961 482.036 271.675 482.036 270.39C482.036 268.697 481.556 267.33 480.596 266.288C479.652 265.246 478.374 264.726 476.763 264.726C474.842 264.726 473.353 265.312 472.295 266.483C471.237 267.655 470.708 269.258 470.708 271.293H464.775C464.775 269.128 465.264 267.183 466.24 265.458C467.233 263.716 468.641 262.366 470.464 261.405C472.303 260.445 474.419 259.965 476.812 259.965C480.262 259.965 482.98 260.836 484.966 262.577C486.968 264.302 487.969 266.695 487.969 269.755C487.969 271.529 487.464 273.393 486.455 275.346C485.462 277.283 483.826 279.488 481.548 281.962L472.856 291.264H489.36V296ZM495.098 304.008L491.899 302.104C492.843 300.622 493.486 299.328 493.828 298.222C494.186 297.131 494.373 296.016 494.39 294.877V290.263H499.736L499.712 294.535C499.696 296.26 499.256 297.986 498.394 299.711C497.547 301.452 496.449 302.885 495.098 304.008ZM524.932 283.329H529.351V288.09H524.932V296H518.999V288.09H503.643L503.472 284.477L518.804 260.453H524.932V283.329ZM509.697 283.329H518.999V268.485L518.56 269.267L509.697 283.329Z" fill="#8D75F3"/>
<path d="M700.369 328.354L702.83 320.434H704.764L700.516 332.631C699.858 334.389 698.813 335.268 697.381 335.268L697.039 335.238L696.365 335.111V333.646L696.854 333.686C697.465 333.686 697.941 333.562 698.279 333.314C698.624 333.067 698.908 332.615 699.129 331.957L699.529 330.883L695.76 320.434H697.732L700.369 328.354ZM710.633 331.195C709.201 331.195 708.035 330.727 707.137 329.789C706.238 328.845 705.789 327.585 705.789 326.01V325.678C705.789 324.63 705.988 323.695 706.385 322.875C706.788 322.048 707.348 321.404 708.064 320.941C708.787 320.473 709.568 320.238 710.408 320.238C711.782 320.238 712.85 320.691 713.611 321.596C714.373 322.501 714.754 323.796 714.754 325.482V326.234H707.596C707.622 327.276 707.924 328.119 708.504 328.764C709.09 329.402 709.832 329.721 710.73 329.721C711.368 329.721 711.909 329.59 712.352 329.33C712.794 329.07 713.182 328.725 713.514 328.295L714.617 329.154C713.732 330.515 712.404 331.195 710.633 331.195ZM710.408 321.723C709.679 321.723 709.067 321.99 708.572 322.523C708.077 323.051 707.771 323.793 707.654 324.75H712.947V324.613C712.895 323.695 712.648 322.986 712.205 322.484C711.762 321.977 711.163 321.723 710.408 321.723ZM723.377 331C723.273 330.792 723.188 330.421 723.123 329.887C722.283 330.759 721.281 331.195 720.115 331.195C719.074 331.195 718.217 330.902 717.547 330.316C716.883 329.724 716.551 328.975 716.551 328.07C716.551 326.97 716.967 326.117 717.801 325.512C718.641 324.9 719.819 324.594 721.336 324.594H723.094V323.764C723.094 323.132 722.905 322.631 722.527 322.26C722.15 321.882 721.593 321.693 720.857 321.693C720.213 321.693 719.673 321.856 719.236 322.182C718.8 322.507 718.582 322.901 718.582 323.363H716.766C716.766 322.836 716.951 322.328 717.322 321.84C717.7 321.345 718.208 320.954 718.846 320.668C719.49 320.382 720.197 320.238 720.965 320.238C722.182 320.238 723.136 320.544 723.826 321.156C724.516 321.762 724.874 322.598 724.9 323.666V328.529C724.9 329.499 725.024 330.271 725.271 330.844V331H723.377ZM720.379 329.623C720.945 329.623 721.482 329.477 721.99 329.184C722.498 328.891 722.866 328.51 723.094 328.041V325.873H721.678C719.464 325.873 718.357 326.521 718.357 327.816C718.357 328.383 718.546 328.826 718.924 329.145C719.301 329.464 719.786 329.623 720.379 329.623ZM732.84 322.055C732.566 322.009 732.27 321.986 731.951 321.986C730.766 321.986 729.962 322.491 729.539 323.5V331H727.732V320.434H729.49L729.52 321.654C730.112 320.71 730.952 320.238 732.039 320.238C732.391 320.238 732.658 320.284 732.84 320.375V322.055ZM740.662 328.197C740.662 327.709 740.477 327.331 740.105 327.064C739.741 326.791 739.1 326.557 738.182 326.361C737.27 326.166 736.544 325.932 736.004 325.658C735.47 325.385 735.073 325.059 734.812 324.682C734.559 324.304 734.432 323.855 734.432 323.334C734.432 322.468 734.796 321.736 735.525 321.137C736.261 320.538 737.199 320.238 738.338 320.238C739.536 320.238 740.506 320.548 741.248 321.166C741.997 321.785 742.371 322.576 742.371 323.539H740.555C740.555 323.044 740.343 322.618 739.92 322.26C739.503 321.902 738.976 321.723 738.338 321.723C737.68 321.723 737.166 321.866 736.795 322.152C736.424 322.439 736.238 322.813 736.238 323.275C736.238 323.712 736.411 324.04 736.756 324.262C737.101 324.483 737.723 324.695 738.621 324.896C739.526 325.098 740.258 325.339 740.818 325.619C741.378 325.899 741.792 326.238 742.059 326.635C742.332 327.025 742.469 327.504 742.469 328.07C742.469 329.014 742.091 329.773 741.336 330.346C740.581 330.912 739.601 331.195 738.396 331.195C737.55 331.195 736.801 331.046 736.15 330.746C735.499 330.447 734.988 330.03 734.617 329.496C734.253 328.956 734.07 328.373 734.07 327.748H735.877C735.91 328.354 736.15 328.835 736.6 329.193C737.055 329.545 737.654 329.721 738.396 329.721C739.08 329.721 739.627 329.584 740.037 329.311C740.454 329.031 740.662 328.66 740.662 328.197Z" fill="black"/>
<path d="M695.599 297H689.69V268.46L680.975 271.438V266.434L694.842 261.331H695.599V297ZM731.854 297H707.952V292.923L719.793 280.008C721.502 278.104 722.715 276.517 723.431 275.247C724.163 273.961 724.529 272.675 724.529 271.39C724.529 269.697 724.049 268.33 723.089 267.288C722.145 266.246 720.867 265.726 719.256 265.726C717.335 265.726 715.846 266.312 714.788 267.483C713.73 268.655 713.201 270.258 713.201 272.293H707.269C707.269 270.128 707.757 268.183 708.733 266.458C709.726 264.716 711.134 263.366 712.957 262.405C714.796 261.445 716.912 260.965 719.305 260.965C722.755 260.965 725.473 261.836 727.459 263.577C729.461 265.302 730.462 267.695 730.462 270.755C730.462 272.529 729.957 274.393 728.948 276.346C727.955 278.283 726.32 280.488 724.041 282.962L715.35 292.264H731.854V297ZM752.435 297H746.526V268.46L737.811 271.438V266.434L751.678 261.331H752.435V297Z" fill="#6CBAFA"/>
<circle cx="241" cy="185" r="25" fill="#00C7A5"/>
<circle cx="720" cy="185" r="25" fill="#6CBAFA"/>
<circle cx="961" cy="185" r="25" fill="#FBC800"/>
</svg>
