<svg width="1300" height="400" viewBox="0 0 1300 400" fill="none" xmlns="http://www.w3.org/2000/svg">
<rect width="1300" height="400" fill="white"/>
<circle cx="521" cy="200" r="10" fill="#8D75F3"/>
<path d="M501.369 327.354L503.83 319.434H505.764L501.516 331.631C500.858 333.389 499.813 334.268 498.381 334.268L498.039 334.238L497.365 334.111V332.646L497.854 332.686C498.465 332.686 498.941 332.562 499.279 332.314C499.624 332.067 499.908 331.615 500.129 330.957L500.529 329.883L496.76 319.434H498.732L501.369 327.354ZM511.633 330.195C510.201 330.195 509.035 329.727 508.137 328.789C507.238 327.845 506.789 326.585 506.789 325.01V324.678C506.789 323.63 506.988 322.695 507.385 321.875C507.788 321.048 508.348 320.404 509.064 319.941C509.787 319.473 510.568 319.238 511.408 319.238C512.782 319.238 513.85 319.691 514.611 320.596C515.373 321.501 515.754 322.796 515.754 324.482V325.234H508.596C508.622 326.276 508.924 327.119 509.504 327.764C510.09 328.402 510.832 328.721 511.73 328.721C512.368 328.721 512.909 328.59 513.352 328.33C513.794 328.07 514.182 327.725 514.514 327.295L515.617 328.154C514.732 329.515 513.404 330.195 511.633 330.195ZM511.408 320.723C510.679 320.723 510.067 320.99 509.572 321.523C509.077 322.051 508.771 322.793 508.654 323.75H513.947V323.613C513.895 322.695 513.648 321.986 513.205 321.484C512.762 320.977 512.163 320.723 511.408 320.723ZM524.377 330C524.273 329.792 524.188 329.421 524.123 328.887C523.283 329.759 522.281 330.195 521.115 330.195C520.074 330.195 519.217 329.902 518.547 329.316C517.883 328.724 517.551 327.975 517.551 327.07C517.551 325.97 517.967 325.117 518.801 324.512C519.641 323.9 520.819 323.594 522.336 323.594H524.094V322.764C524.094 322.132 523.905 321.631 523.527 321.26C523.15 320.882 522.593 320.693 521.857 320.693C521.213 320.693 520.673 320.856 520.236 321.182C519.8 321.507 519.582 321.901 519.582 322.363H517.766C517.766 321.836 517.951 321.328 518.322 320.84C518.7 320.345 519.208 319.954 519.846 319.668C520.49 319.382 521.197 319.238 521.965 319.238C523.182 319.238 524.136 319.544 524.826 320.156C525.516 320.762 525.874 321.598 525.9 322.666V327.529C525.9 328.499 526.024 329.271 526.271 329.844V330H524.377ZM521.379 328.623C521.945 328.623 522.482 328.477 522.99 328.184C523.498 327.891 523.866 327.51 524.094 327.041V324.873H522.678C520.464 324.873 519.357 325.521 519.357 326.816C519.357 327.383 519.546 327.826 519.924 328.145C520.301 328.464 520.786 328.623 521.379 328.623ZM533.84 321.055C533.566 321.009 533.27 320.986 532.951 320.986C531.766 320.986 530.962 321.491 530.539 322.5V330H528.732V319.434H530.49L530.52 320.654C531.112 319.71 531.952 319.238 533.039 319.238C533.391 319.238 533.658 319.284 533.84 319.375V321.055ZM541.662 327.197C541.662 326.709 541.477 326.331 541.105 326.064C540.741 325.791 540.1 325.557 539.182 325.361C538.27 325.166 537.544 324.932 537.004 324.658C536.47 324.385 536.073 324.059 535.812 323.682C535.559 323.304 535.432 322.855 535.432 322.334C535.432 321.468 535.796 320.736 536.525 320.137C537.261 319.538 538.199 319.238 539.338 319.238C540.536 319.238 541.506 319.548 542.248 320.166C542.997 320.785 543.371 321.576 543.371 322.539H541.555C541.555 322.044 541.343 321.618 540.92 321.26C540.503 320.902 539.976 320.723 539.338 320.723C538.68 320.723 538.166 320.866 537.795 321.152C537.424 321.439 537.238 321.813 537.238 322.275C537.238 322.712 537.411 323.04 537.756 323.262C538.101 323.483 538.723 323.695 539.621 323.896C540.526 324.098 541.258 324.339 541.818 324.619C542.378 324.899 542.792 325.238 543.059 325.635C543.332 326.025 543.469 326.504 543.469 327.07C543.469 328.014 543.091 328.773 542.336 329.346C541.581 329.912 540.601 330.195 539.396 330.195C538.55 330.195 537.801 330.046 537.15 329.746C536.499 329.447 535.988 329.03 535.617 328.496C535.253 327.956 535.07 327.373 535.07 326.748H536.877C536.91 327.354 537.15 327.835 537.6 328.193C538.055 328.545 538.654 328.721 539.396 328.721C540.08 328.721 540.627 328.584 541.037 328.311C541.454 328.031 541.662 327.66 541.662 327.197Z" fill="black"/>
<path d="M491.105 296H485.197V267.46L476.481 270.438V265.434L490.349 260.331H491.105V296ZM527.36 296H503.459V291.923L515.3 279.008C517.009 277.104 518.221 275.517 518.938 274.247C519.67 272.961 520.036 271.675 520.036 270.39C520.036 268.697 519.556 267.33 518.596 266.288C517.652 265.246 516.374 264.726 514.763 264.726C512.842 264.726 511.353 265.312 510.295 266.483C509.237 267.655 508.708 269.258 508.708 271.293H502.775C502.775 269.128 503.264 267.183 504.24 265.458C505.233 263.716 506.641 262.366 508.464 261.405C510.303 260.445 512.419 259.965 514.812 259.965C518.262 259.965 520.98 260.836 522.966 262.577C524.968 264.302 525.969 266.695 525.969 269.755C525.969 271.529 525.464 273.393 524.455 275.346C523.462 277.283 521.826 279.488 519.548 281.962L510.856 291.264H527.36V296ZM533.098 304.008L529.899 302.104C530.843 300.622 531.486 299.328 531.828 298.222C532.186 297.131 532.373 296.016 532.39 294.877V290.263H537.736L537.712 294.535C537.696 296.26 537.256 297.986 536.394 299.711C535.547 301.452 534.449 302.885 533.098 304.008ZM562.932 283.329H567.351V288.09H562.932V296H556.999V288.09H541.643L541.472 284.477L556.804 260.453H562.932V283.329ZM547.697 283.329H556.999V268.485L556.56 269.267L547.697 283.329Z" fill="#8D75F3"/>
<path d="M761.369 328.354L763.83 320.434H765.764L761.516 332.631C760.858 334.389 759.813 335.268 758.381 335.268L758.039 335.238L757.365 335.111V333.646L757.854 333.686C758.465 333.686 758.941 333.562 759.279 333.314C759.624 333.067 759.908 332.615 760.129 331.957L760.529 330.883L756.76 320.434H758.732L761.369 328.354ZM771.633 331.195C770.201 331.195 769.035 330.727 768.137 329.789C767.238 328.845 766.789 327.585 766.789 326.01V325.678C766.789 324.63 766.988 323.695 767.385 322.875C767.788 322.048 768.348 321.404 769.064 320.941C769.787 320.473 770.568 320.238 771.408 320.238C772.782 320.238 773.85 320.691 774.611 321.596C775.373 322.501 775.754 323.796 775.754 325.482V326.234H768.596C768.622 327.276 768.924 328.119 769.504 328.764C770.09 329.402 770.832 329.721 771.73 329.721C772.368 329.721 772.909 329.59 773.352 329.33C773.794 329.07 774.182 328.725 774.514 328.295L775.617 329.154C774.732 330.515 773.404 331.195 771.633 331.195ZM771.408 321.723C770.679 321.723 770.067 321.99 769.572 322.523C769.077 323.051 768.771 323.793 768.654 324.75H773.947V324.613C773.895 323.695 773.648 322.986 773.205 322.484C772.762 321.977 772.163 321.723 771.408 321.723ZM784.377 331C784.273 330.792 784.188 330.421 784.123 329.887C783.283 330.759 782.281 331.195 781.115 331.195C780.074 331.195 779.217 330.902 778.547 330.316C777.883 329.724 777.551 328.975 777.551 328.07C777.551 326.97 777.967 326.117 778.801 325.512C779.641 324.9 780.819 324.594 782.336 324.594H784.094V323.764C784.094 323.132 783.905 322.631 783.527 322.26C783.15 321.882 782.593 321.693 781.857 321.693C781.213 321.693 780.673 321.856 780.236 322.182C779.8 322.507 779.582 322.901 779.582 323.363H777.766C777.766 322.836 777.951 322.328 778.322 321.84C778.7 321.345 779.208 320.954 779.846 320.668C780.49 320.382 781.197 320.238 781.965 320.238C783.182 320.238 784.136 320.544 784.826 321.156C785.516 321.762 785.874 322.598 785.9 323.666V328.529C785.9 329.499 786.024 330.271 786.271 330.844V331H784.377ZM781.379 329.623C781.945 329.623 782.482 329.477 782.99 329.184C783.498 328.891 783.866 328.51 784.094 328.041V325.873H782.678C780.464 325.873 779.357 326.521 779.357 327.816C779.357 328.383 779.546 328.826 779.924 329.145C780.301 329.464 780.786 329.623 781.379 329.623ZM793.84 322.055C793.566 322.009 793.27 321.986 792.951 321.986C791.766 321.986 790.962 322.491 790.539 323.5V331H788.732V320.434H790.49L790.52 321.654C791.112 320.71 791.952 320.238 793.039 320.238C793.391 320.238 793.658 320.284 793.84 320.375V322.055ZM801.662 328.197C801.662 327.709 801.477 327.331 801.105 327.064C800.741 326.791 800.1 326.557 799.182 326.361C798.27 326.166 797.544 325.932 797.004 325.658C796.47 325.385 796.073 325.059 795.812 324.682C795.559 324.304 795.432 323.855 795.432 323.334C795.432 322.468 795.796 321.736 796.525 321.137C797.261 320.538 798.199 320.238 799.338 320.238C800.536 320.238 801.506 320.548 802.248 321.166C802.997 321.785 803.371 322.576 803.371 323.539H801.555C801.555 323.044 801.343 322.618 800.92 322.26C800.503 321.902 799.976 321.723 799.338 321.723C798.68 321.723 798.166 321.866 797.795 322.152C797.424 322.439 797.238 322.813 797.238 323.275C797.238 323.712 797.411 324.04 797.756 324.262C798.101 324.483 798.723 324.695 799.621 324.896C800.526 325.098 801.258 325.339 801.818 325.619C802.378 325.899 802.792 326.238 803.059 326.635C803.332 327.025 803.469 327.504 803.469 328.07C803.469 329.014 803.091 329.773 802.336 330.346C801.581 330.912 800.601 331.195 799.396 331.195C798.55 331.195 797.801 331.046 797.15 330.746C796.499 330.447 795.988 330.03 795.617 329.496C795.253 328.956 795.07 328.373 795.07 327.748H796.877C796.91 328.354 797.15 328.835 797.6 329.193C798.055 329.545 798.654 329.721 799.396 329.721C800.08 329.721 800.627 329.584 801.037 329.311C801.454 329.031 801.662 328.66 801.662 328.197Z" fill="black"/>
<path d="M756.599 297H750.69V268.46L741.975 271.438V266.434L755.842 261.331H756.599V297ZM792.854 297H768.952V292.923L780.793 280.008C782.502 278.104 783.715 276.517 784.431 275.247C785.163 273.961 785.529 272.675 785.529 271.39C785.529 269.697 785.049 268.33 784.089 267.288C783.145 266.246 781.867 265.726 780.256 265.726C778.335 265.726 776.846 266.312 775.788 267.483C774.73 268.655 774.201 270.258 774.201 272.293H768.269C768.269 270.128 768.757 268.183 769.733 266.458C770.726 264.716 772.134 263.366 773.957 262.405C775.796 261.445 777.912 260.965 780.305 260.965C783.755 260.965 786.473 261.836 788.459 263.577C790.461 265.302 791.462 267.695 791.462 270.755C791.462 272.529 790.957 274.393 789.948 276.346C788.955 278.283 787.32 280.488 785.041 282.962L776.35 292.264H792.854V297ZM813.435 297H807.526V268.46L798.811 271.438V266.434L812.678 261.331H813.435V297Z" fill="#6CBAFA"/>
<circle cx="260" cy="185" r="25" fill="#00C7A5"/>
<circle cx="781" cy="185" r="25" fill="#6CBAFA"/>
<circle cx="1041" cy="185" r="25" fill="#FBC800"/>
</svg>
