<svg width="1200" height="400" viewBox="0 0 1200 400" fill="none" xmlns="http://www.w3.org/2000/svg">
<rect width="1200" height="400" fill="white"/>
<circle cx="483" cy="200" r="10" fill="#8D75F3"/>
<circle cx="241" cy="135" r="75" fill="#00C7A5"/>
<circle cx="720" cy="185" r="25" fill="#6CBAFA"/>
<path d="M700.369 328.354L702.83 320.434H704.764L700.516 332.631C699.858 334.389 698.813 335.268 697.381 335.268L697.039 335.238L696.365 335.111V333.646L696.854 333.686C697.465 333.686 697.941 333.562 698.279 333.314C698.624 333.067 698.908 332.615 699.129 331.957L699.529 330.883L695.76 320.434H697.732L700.369 328.354ZM710.633 331.195C709.201 331.195 708.035 330.727 707.137 329.789C706.238 328.845 705.789 327.585 705.789 326.01V325.678C705.789 324.63 705.988 323.695 706.385 322.875C706.788 322.048 707.348 321.404 708.064 320.941C708.787 320.473 709.568 320.238 710.408 320.238C711.782 320.238 712.85 320.691 713.611 321.596C714.373 322.501 714.754 323.796 714.754 325.482V326.234H707.596C707.622 327.276 707.924 328.119 708.504 328.764C709.09 329.402 709.832 329.721 710.73 329.721C711.368 329.721 711.909 329.59 712.352 329.33C712.794 329.07 713.182 328.725 713.514 328.295L714.617 329.154C713.732 330.515 712.404 331.195 710.633 331.195ZM710.408 321.723C709.679 321.723 709.067 321.99 708.572 322.523C708.077 323.051 707.771 323.793 707.654 324.75H712.947V324.613C712.895 323.695 712.648 322.986 712.205 322.484C711.762 321.977 711.163 321.723 710.408 321.723ZM723.377 331C723.273 330.792 723.188 330.421 723.123 329.887C722.283 330.759 721.281 331.195 720.115 331.195C719.074 331.195 718.217 330.902 717.547 330.316C716.883 329.724 716.551 328.975 716.551 328.07C716.551 326.97 716.967 326.117 717.801 325.512C718.641 324.9 719.819 324.594 721.336 324.594H723.094V323.764C723.094 323.132 722.905 322.631 722.527 322.26C722.15 321.882 721.593 321.693 720.857 321.693C720.213 321.693 719.673 321.856 719.236 322.182C718.8 322.507 718.582 322.901 718.582 323.363H716.766C716.766 322.836 716.951 322.328 717.322 321.84C717.7 321.345 718.208 320.954 718.846 320.668C719.49 320.382 720.197 320.238 720.965 320.238C722.182 320.238 723.136 320.544 723.826 321.156C724.516 321.762 724.874 322.598 724.9 323.666V328.529C724.9 329.499 725.024 330.271 725.271 330.844V331H723.377ZM720.379 329.623C720.945 329.623 721.482 329.477 721.99 329.184C722.498 328.891 722.866 328.51 723.094 328.041V325.873H721.678C719.464 325.873 718.357 326.521 718.357 327.816C718.357 328.383 718.546 328.826 718.924 329.145C719.301 329.464 719.786 329.623 720.379 329.623ZM732.84 322.055C732.566 322.009 732.27 321.986 731.951 321.986C730.766 321.986 729.962 322.491 729.539 323.5V331H727.732V320.434H729.49L729.52 321.654C730.112 320.71 730.952 320.238 732.039 320.238C732.391 320.238 732.658 320.284 732.84 320.375V322.055ZM740.662 328.197C740.662 327.709 740.477 327.331 740.105 327.064C739.741 326.791 739.1 326.557 738.182 326.361C737.27 326.166 736.544 325.932 736.004 325.658C735.47 325.385 735.073 325.059 734.812 324.682C734.559 324.304 734.432 323.855 734.432 323.334C734.432 322.468 734.796 321.736 735.525 321.137C736.261 320.538 737.199 320.238 738.338 320.238C739.536 320.238 740.506 320.548 741.248 321.166C741.997 321.785 742.371 322.576 742.371 323.539H740.555C740.555 323.044 740.343 322.618 739.92 322.26C739.503 321.902 738.976 321.723 738.338 321.723C737.68 321.723 737.166 321.866 736.795 322.152C736.424 322.439 736.238 322.813 736.238 323.275C736.238 323.712 736.411 324.04 736.756 324.262C737.101 324.483 737.723 324.695 738.621 324.896C739.526 325.098 740.258 325.339 740.818 325.619C741.378 325.899 741.792 326.238 742.059 326.635C742.332 327.025 742.469 327.504 742.469 328.07C742.469 329.014 742.091 329.773 741.336 330.346C740.581 330.912 739.601 331.195 738.396 331.195C737.55 331.195 736.801 331.046 736.15 330.746C735.499 330.447 734.988 330.03 734.617 329.496C734.253 328.956 734.07 328.373 734.07 327.748H735.877C735.91 328.354 736.15 328.835 736.6 329.193C737.055 329.545 737.654 329.721 738.396 329.721C739.08 329.721 739.627 329.584 740.037 329.311C740.454 329.031 740.662 328.66 740.662 328.197Z" fill="black"/>
<path d="M695.599 297H689.69V268.46L680.975 271.438V266.434L694.842 261.331H695.599V297ZM731.854 297H707.952V292.923L719.793 280.008C721.502 278.104 722.715 276.517 723.431 275.247C724.163 273.961 724.529 272.675 724.529 271.39C724.529 269.697 724.049 268.33 723.089 267.288C722.145 266.246 720.867 265.726 719.256 265.726C717.335 265.726 715.846 266.312 714.788 267.483C713.73 268.655 713.201 270.258 713.201 272.293H707.269C707.269 270.128 707.757 268.183 708.733 266.458C709.726 264.716 711.134 263.366 712.957 262.405C714.796 261.445 716.912 260.965 719.305 260.965C722.755 260.965 725.473 261.836 727.459 263.577C729.461 265.302 730.462 267.695 730.462 270.755C730.462 272.529 729.957 274.393 728.948 276.346C727.955 278.283 726.32 280.488 724.041 282.962L715.35 292.264H731.854V297ZM752.435 297H746.526V268.46L737.811 271.438V266.434L751.678 261.331H752.435V297Z" fill="#6CBAFA"/>
<path d="M463.369 327.354L465.83 319.434H467.764L463.516 331.631C462.858 333.389 461.813 334.268 460.381 334.268L460.039 334.238L459.365 334.111V332.646L459.854 332.686C460.465 332.686 460.941 332.562 461.279 332.314C461.624 332.067 461.908 331.615 462.129 330.957L462.529 329.883L458.76 319.434H460.732L463.369 327.354ZM473.633 330.195C472.201 330.195 471.035 329.727 470.137 328.789C469.238 327.845 468.789 326.585 468.789 325.01V324.678C468.789 323.63 468.988 322.695 469.385 321.875C469.788 321.048 470.348 320.404 471.064 319.941C471.787 319.473 472.568 319.238 473.408 319.238C474.782 319.238 475.85 319.691 476.611 320.596C477.373 321.501 477.754 322.796 477.754 324.482V325.234H470.596C470.622 326.276 470.924 327.119 471.504 327.764C472.09 328.402 472.832 328.721 473.73 328.721C474.368 328.721 474.909 328.59 475.352 328.33C475.794 328.07 476.182 327.725 476.514 327.295L477.617 328.154C476.732 329.515 475.404 330.195 473.633 330.195ZM473.408 320.723C472.679 320.723 472.067 320.99 471.572 321.523C471.077 322.051 470.771 322.793 470.654 323.75H475.947V323.613C475.895 322.695 475.648 321.986 475.205 321.484C474.762 320.977 474.163 320.723 473.408 320.723ZM486.377 330C486.273 329.792 486.188 329.421 486.123 328.887C485.283 329.759 484.281 330.195 483.115 330.195C482.074 330.195 481.217 329.902 480.547 329.316C479.883 328.724 479.551 327.975 479.551 327.07C479.551 325.97 479.967 325.117 480.801 324.512C481.641 323.9 482.819 323.594 484.336 323.594H486.094V322.764C486.094 322.132 485.905 321.631 485.527 321.26C485.15 320.882 484.593 320.693 483.857 320.693C483.213 320.693 482.673 320.856 482.236 321.182C481.8 321.507 481.582 321.901 481.582 322.363H479.766C479.766 321.836 479.951 321.328 480.322 320.84C480.7 320.345 481.208 319.954 481.846 319.668C482.49 319.382 483.197 319.238 483.965 319.238C485.182 319.238 486.136 319.544 486.826 320.156C487.516 320.762 487.874 321.598 487.9 322.666V327.529C487.9 328.499 488.024 329.271 488.271 329.844V330H486.377ZM483.379 328.623C483.945 328.623 484.482 328.477 484.99 328.184C485.498 327.891 485.866 327.51 486.094 327.041V324.873H484.678C482.464 324.873 481.357 325.521 481.357 326.816C481.357 327.383 481.546 327.826 481.924 328.145C482.301 328.464 482.786 328.623 483.379 328.623ZM495.84 321.055C495.566 321.009 495.27 320.986 494.951 320.986C493.766 320.986 492.962 321.491 492.539 322.5V330H490.732V319.434H492.49L492.52 320.654C493.112 319.71 493.952 319.238 495.039 319.238C495.391 319.238 495.658 319.284 495.84 319.375V321.055ZM503.662 327.197C503.662 326.709 503.477 326.331 503.105 326.064C502.741 325.791 502.1 325.557 501.182 325.361C500.27 325.166 499.544 324.932 499.004 324.658C498.47 324.385 498.073 324.059 497.812 323.682C497.559 323.304 497.432 322.855 497.432 322.334C497.432 321.468 497.796 320.736 498.525 320.137C499.261 319.538 500.199 319.238 501.338 319.238C502.536 319.238 503.506 319.548 504.248 320.166C504.997 320.785 505.371 321.576 505.371 322.539H503.555C503.555 322.044 503.343 321.618 502.92 321.26C502.503 320.902 501.976 320.723 501.338 320.723C500.68 320.723 500.166 320.866 499.795 321.152C499.424 321.439 499.238 321.813 499.238 322.275C499.238 322.712 499.411 323.04 499.756 323.262C500.101 323.483 500.723 323.695 501.621 323.896C502.526 324.098 503.258 324.339 503.818 324.619C504.378 324.899 504.792 325.238 505.059 325.635C505.332 326.025 505.469 326.504 505.469 327.07C505.469 328.014 505.091 328.773 504.336 329.346C503.581 329.912 502.601 330.195 501.396 330.195C500.55 330.195 499.801 330.046 499.15 329.746C498.499 329.447 497.988 329.03 497.617 328.496C497.253 327.956 497.07 327.373 497.07 326.748H498.877C498.91 327.354 499.15 327.835 499.6 328.193C500.055 328.545 500.654 328.721 501.396 328.721C502.08 328.721 502.627 328.584 503.037 328.311C503.454 328.031 503.662 327.66 503.662 327.197Z" fill="black"/>
<path d="M453.105 296H447.197V267.46L438.481 270.438V265.434L452.349 260.331H453.105V296ZM489.36 296H465.459V291.923L477.3 279.008C479.009 277.104 480.221 275.517 480.938 274.247C481.67 272.961 482.036 271.675 482.036 270.39C482.036 268.697 481.556 267.33 480.596 266.288C479.652 265.246 478.374 264.726 476.763 264.726C474.842 264.726 473.353 265.312 472.295 266.483C471.237 267.655 470.708 269.258 470.708 271.293H464.775C464.775 269.128 465.264 267.183 466.24 265.458C467.233 263.716 468.641 262.366 470.464 261.405C472.303 260.445 474.419 259.965 476.812 259.965C480.262 259.965 482.98 260.836 484.966 262.577C486.968 264.302 487.969 266.695 487.969 269.755C487.969 271.529 487.464 273.393 486.455 275.346C485.462 277.283 483.826 279.488 481.548 281.962L472.856 291.264H489.36V296ZM495.098 304.008L491.899 302.104C492.843 300.622 493.486 299.328 493.828 298.222C494.186 297.131 494.373 296.016 494.39 294.877V290.263H499.736L499.712 294.535C499.696 296.26 499.256 297.986 498.394 299.711C497.547 301.452 496.449 302.885 495.098 304.008ZM524.932 283.329H529.351V288.09H524.932V296H518.999V288.09H503.643L503.472 284.477L518.804 260.453H524.932V283.329ZM509.697 283.329H518.999V268.485L518.56 269.267L509.697 283.329Z" fill="#8D75F3"/>
<circle cx="962" cy="160" r="50" fill="#FBC800"/>
<path d="M846.647 279.373L848.576 261.453H867.668V266.58H853.508L852.531 275.076C854.175 274.132 856.031 273.66 858.098 273.66C861.483 273.66 864.112 274.743 865.983 276.907C867.871 279.072 868.815 281.985 868.815 285.647C868.815 289.261 867.774 292.142 865.69 294.29C863.607 296.422 860.751 297.488 857.121 297.488C853.866 297.488 851.164 296.569 849.016 294.729C846.883 292.874 845.728 290.433 845.549 287.405H851.286C851.514 289.131 852.132 290.457 853.142 291.385C854.151 292.296 855.469 292.752 857.097 292.752C858.92 292.752 860.336 292.101 861.345 290.799C862.37 289.497 862.883 287.723 862.883 285.477C862.883 283.312 862.321 281.603 861.198 280.35C860.075 279.08 858.529 278.445 856.56 278.445C855.485 278.445 854.574 278.592 853.825 278.885C853.076 279.161 852.263 279.715 851.384 280.545L846.647 279.373ZM875.065 279.373L876.994 261.453H896.086V266.58H881.926L880.949 275.076C882.593 274.132 884.449 273.66 886.516 273.66C889.901 273.66 892.53 274.743 894.401 276.907C896.289 279.072 897.233 281.985 897.233 285.647C897.233 289.261 896.192 292.142 894.108 294.29C892.025 296.422 889.169 297.488 885.539 297.488C882.284 297.488 879.582 296.569 877.434 294.729C875.301 292.874 874.146 290.433 873.967 287.405H879.704C879.932 289.131 880.55 290.457 881.56 291.385C882.569 292.296 883.887 292.752 885.515 292.752C887.338 292.752 888.754 292.101 889.763 290.799C890.788 289.497 891.301 287.723 891.301 285.477C891.301 283.312 890.739 281.603 889.616 280.35C888.493 279.08 886.947 278.445 884.978 278.445C883.903 278.445 882.992 278.592 882.243 278.885C881.494 279.161 880.681 279.715 879.802 280.545L875.065 279.373ZM925.065 282.034C925.065 287.145 924.105 291.002 922.185 293.606C920.28 296.194 917.375 297.488 913.469 297.488C909.628 297.488 906.73 296.227 904.777 293.704C902.84 291.165 901.848 287.413 901.799 282.449V276.297C901.799 271.186 902.751 267.353 904.655 264.798C906.576 262.243 909.497 260.965 913.42 260.965C917.31 260.965 920.207 262.21 922.111 264.7C924.032 267.19 925.017 270.918 925.065 275.882V282.034ZM919.133 275.394C919.133 272.057 918.677 269.616 917.766 268.069C916.854 266.507 915.406 265.726 913.42 265.726C911.483 265.726 910.059 266.466 909.147 267.947C908.236 269.412 907.756 271.707 907.707 274.832V282.889C907.707 286.209 908.171 288.683 909.099 290.311C910.026 291.938 911.483 292.752 913.469 292.752C915.373 292.752 916.781 292.003 917.692 290.506C918.604 288.992 919.084 286.632 919.133 283.426V275.394ZM959.84 281.839H934.986V277.054H959.84V281.839ZM976.45 276.517H980.063C981.886 276.5 983.327 276.028 984.385 275.101C985.459 274.173 985.996 272.83 985.996 271.072C985.996 269.38 985.549 268.069 984.653 267.142C983.774 266.198 982.424 265.726 980.601 265.726C979.006 265.726 977.695 266.189 976.67 267.117C975.645 268.029 975.132 269.225 975.132 270.706H969.199C969.199 268.883 969.679 267.223 970.64 265.726C971.616 264.228 972.967 263.064 974.692 262.234C976.434 261.388 978.379 260.965 980.527 260.965C984.076 260.965 986.859 261.86 988.877 263.65C990.911 265.424 991.929 267.898 991.929 271.072C991.929 272.667 991.416 274.173 990.391 275.589C989.382 276.989 988.071 278.047 986.46 278.763C988.413 279.43 989.894 280.48 990.903 281.912C991.929 283.344 992.441 285.053 992.441 287.039C992.441 290.229 991.343 292.768 989.146 294.656C986.965 296.544 984.092 297.488 980.527 297.488C977.109 297.488 974.31 296.577 972.129 294.754C969.948 292.931 968.857 290.506 968.857 287.479H974.79C974.79 289.041 975.311 290.311 976.353 291.287C977.41 292.264 978.826 292.752 980.601 292.752C982.44 292.752 983.888 292.264 984.946 291.287C986.004 290.311 986.533 288.895 986.533 287.039C986.533 285.167 985.98 283.727 984.873 282.718C983.766 281.709 982.122 281.204 979.941 281.204H976.45V276.517ZM1021.91 297H998.008V292.923L1009.85 280.008C1011.56 278.104 1012.77 276.517 1013.49 275.247C1014.22 273.961 1014.58 272.675 1014.58 271.39C1014.58 269.697 1014.1 268.33 1013.14 267.288C1012.2 266.246 1010.92 265.726 1009.31 265.726C1007.39 265.726 1005.9 266.312 1004.84 267.483C1003.79 268.655 1003.26 270.258 1003.26 272.293H997.324C997.324 270.128 997.812 268.183 998.789 266.458C999.782 264.716 1001.19 263.366 1003.01 262.405C1004.85 261.445 1006.97 260.965 1009.36 260.965C1012.81 260.965 1015.53 261.836 1017.51 263.577C1019.52 265.302 1020.52 267.695 1020.52 270.755C1020.52 272.529 1020.01 274.393 1019 276.346C1018.01 278.283 1016.38 280.488 1014.1 282.962L1005.41 292.264H1021.91V297ZM1049.59 282.034C1049.59 287.145 1048.63 291.002 1046.71 293.606C1044.81 296.194 1041.9 297.488 1038 297.488C1034.16 297.488 1031.26 296.227 1029.31 293.704C1027.37 291.165 1026.38 287.413 1026.33 282.449V276.297C1026.33 271.186 1027.28 267.353 1029.18 264.798C1031.11 262.243 1034.03 260.965 1037.95 260.965C1041.84 260.965 1044.74 262.21 1046.64 264.7C1048.56 267.19 1049.55 270.918 1049.59 275.882V282.034ZM1043.66 275.394C1043.66 272.057 1043.21 269.616 1042.29 268.069C1041.38 266.507 1039.93 265.726 1037.95 265.726C1036.01 265.726 1034.59 266.466 1033.68 267.947C1032.77 269.412 1032.29 271.707 1032.24 274.832V282.889C1032.24 286.209 1032.7 288.683 1033.63 290.311C1034.56 291.938 1036.01 292.752 1038 292.752C1039.9 292.752 1041.31 292.003 1042.22 290.506C1043.13 288.992 1043.61 286.632 1043.66 283.426V275.394ZM1078.01 282.034C1078.01 287.145 1077.05 291.002 1075.13 293.606C1073.23 296.194 1070.32 297.488 1066.42 297.488C1062.57 297.488 1059.68 296.227 1057.72 293.704C1055.79 291.165 1054.79 287.413 1054.75 282.449V276.297C1054.75 271.186 1055.7 267.353 1057.6 264.798C1059.52 262.243 1062.44 260.965 1066.37 260.965C1070.26 260.965 1073.15 262.21 1075.06 264.7C1076.98 267.19 1077.96 270.918 1078.01 275.882V282.034ZM1072.08 275.394C1072.08 272.057 1071.62 269.616 1070.71 268.069C1069.8 266.507 1068.35 265.726 1066.37 265.726C1064.43 265.726 1063.01 266.466 1062.09 267.947C1061.18 269.412 1060.7 271.707 1060.65 274.832V282.889C1060.65 286.209 1061.12 288.683 1062.05 290.311C1062.97 291.938 1064.43 292.752 1066.42 292.752C1068.32 292.752 1069.73 292.003 1070.64 290.506C1071.55 288.992 1072.03 286.632 1072.08 283.426V275.394Z" fill="#FBC800"/>
<path d="M908.377 245.162L910.34 239.075H911.725L908.883 247H907.85L904.979 239.075H906.363L908.377 245.162ZM917.804 247C917.726 246.844 917.662 246.565 917.613 246.165C916.983 246.819 916.231 247.146 915.357 247.146C914.576 247.146 913.934 246.927 913.431 246.487C912.933 246.043 912.684 245.481 912.684 244.803C912.684 243.978 912.997 243.338 913.622 242.884C914.251 242.425 915.135 242.195 916.273 242.195H917.591V241.573C917.591 241.099 917.45 240.723 917.167 240.445C916.883 240.162 916.466 240.02 915.914 240.02C915.431 240.02 915.025 240.142 914.698 240.386C914.371 240.63 914.208 240.926 914.208 241.272H912.845C912.845 240.877 912.984 240.496 913.263 240.13C913.546 239.759 913.927 239.466 914.405 239.251C914.889 239.036 915.418 238.929 915.995 238.929C916.908 238.929 917.623 239.158 918.141 239.617C918.658 240.071 918.927 240.699 918.946 241.5V245.147C918.946 245.875 919.039 246.453 919.225 246.883V247H917.804ZM915.555 245.967C915.98 245.967 916.383 245.857 916.764 245.638C917.145 245.418 917.42 245.132 917.591 244.781V243.155H916.529C914.869 243.155 914.039 243.641 914.039 244.612C914.039 245.037 914.181 245.369 914.464 245.608C914.747 245.848 915.111 245.967 915.555 245.967ZM924.901 240.291C924.696 240.257 924.474 240.24 924.234 240.24C923.346 240.24 922.743 240.618 922.425 241.375V247H921.07V239.075H922.389L922.411 239.991C922.855 239.283 923.485 238.929 924.3 238.929C924.564 238.929 924.764 238.963 924.901 239.031V240.291ZM929.984 240.291C929.779 240.257 929.557 240.24 929.317 240.24C928.429 240.24 927.826 240.618 927.508 241.375V247H926.153V239.075H927.472L927.494 239.991C927.938 239.283 928.568 238.929 929.383 238.929C929.647 238.929 929.847 238.963 929.984 239.031V240.291ZM933.961 245.015L935.807 239.075H937.257L934.071 248.223C933.578 249.542 932.794 250.201 931.72 250.201L931.463 250.179L930.958 250.083V248.985L931.324 249.014C931.783 249.014 932.14 248.921 932.394 248.736C932.652 248.55 932.865 248.211 933.031 247.718L933.331 246.912L930.504 239.075H931.983L933.961 245.015ZM939.945 247H938.59V239.075H939.945V247ZM938.48 236.973C938.48 236.753 938.546 236.568 938.678 236.417C938.814 236.265 939.015 236.189 939.278 236.189C939.542 236.189 939.742 236.265 939.879 236.417C940.016 236.568 940.084 236.753 940.084 236.973C940.084 237.193 940.016 237.376 939.879 237.522C939.742 237.669 939.542 237.742 939.278 237.742C939.015 237.742 938.814 237.669 938.678 237.522C938.546 237.376 938.48 237.193 938.48 236.973ZM943.402 239.075L943.446 240.071C944.051 239.31 944.842 238.929 945.819 238.929C947.494 238.929 948.338 239.874 948.353 241.763V247H946.998V241.756C946.993 241.185 946.861 240.762 946.603 240.489C946.349 240.215 945.951 240.079 945.409 240.079C944.969 240.079 944.583 240.196 944.251 240.43C943.919 240.665 943.661 240.972 943.475 241.353V247H942.12V239.075H943.402ZM950.074 242.972C950.074 241.736 950.36 240.755 950.931 240.027C951.502 239.295 952.259 238.929 953.202 238.929C954.168 238.929 954.923 239.271 955.465 239.954L955.531 239.075H956.769V246.81C956.769 247.835 956.463 248.643 955.853 249.234C955.248 249.825 954.432 250.12 953.407 250.12C952.835 250.12 952.276 249.998 951.729 249.754C951.183 249.51 950.765 249.175 950.477 248.75L951.18 247.938C951.761 248.655 952.472 249.014 953.312 249.014C953.971 249.014 954.483 248.829 954.85 248.458C955.221 248.086 955.406 247.564 955.406 246.89V246.209C954.864 246.834 954.125 247.146 953.187 247.146C952.259 247.146 951.507 246.773 950.931 246.026C950.36 245.279 950.074 244.261 950.074 242.972ZM951.437 243.125C951.437 244.019 951.62 244.722 951.986 245.235C952.352 245.743 952.865 245.997 953.524 245.997C954.378 245.997 955.006 245.608 955.406 244.832V241.214C954.991 240.457 954.369 240.079 953.539 240.079C952.879 240.079 952.364 240.335 951.993 240.848C951.622 241.36 951.437 242.12 951.437 243.125ZM969.249 243.125C969.249 244.336 968.971 245.311 968.414 246.048C967.857 246.78 967.11 247.146 966.173 247.146C965.172 247.146 964.398 246.792 963.851 246.084L963.785 247H962.54V235.75H963.895V239.947C964.442 239.268 965.196 238.929 966.158 238.929C967.12 238.929 967.875 239.292 968.421 240.02C968.973 240.748 969.249 241.744 969.249 243.008V243.125ZM967.894 242.972C967.894 242.049 967.716 241.336 967.359 240.833C967.003 240.33 966.49 240.079 965.821 240.079C964.928 240.079 964.286 240.494 963.895 241.324V244.751C964.31 245.582 964.957 245.997 965.836 245.997C966.485 245.997 966.991 245.745 967.352 245.242C967.713 244.739 967.894 243.982 967.894 242.972ZM974.251 247.146C973.177 247.146 972.303 246.795 971.629 246.092C970.956 245.384 970.619 244.439 970.619 243.257V243.008C970.619 242.222 970.768 241.521 971.065 240.906C971.368 240.286 971.788 239.803 972.325 239.456C972.867 239.104 973.453 238.929 974.083 238.929C975.113 238.929 975.914 239.268 976.485 239.947C977.057 240.625 977.342 241.597 977.342 242.862V243.426H971.974C971.993 244.207 972.22 244.839 972.655 245.323C973.094 245.801 973.651 246.041 974.325 246.041C974.803 246.041 975.208 245.943 975.541 245.748C975.873 245.552 976.163 245.293 976.412 244.971L977.24 245.616C976.576 246.636 975.58 247.146 974.251 247.146ZM974.083 240.042C973.536 240.042 973.077 240.242 972.706 240.643C972.335 241.038 972.105 241.595 972.018 242.312H975.987V242.21C975.948 241.521 975.763 240.989 975.431 240.613C975.099 240.232 974.649 240.042 974.083 240.042ZM980.755 237.156V239.075H982.235V240.123H980.755V245.037C980.755 245.354 980.821 245.594 980.953 245.755C981.085 245.911 981.31 245.989 981.627 245.989C981.783 245.989 981.998 245.96 982.271 245.901V247C981.915 247.098 981.568 247.146 981.231 247.146C980.626 247.146 980.169 246.963 979.862 246.597C979.554 246.231 979.4 245.711 979.4 245.037V240.123H977.958V239.075H979.4V237.156H980.755ZM990.841 245.132L992.364 239.075H993.719L991.412 247H990.313L988.387 240.994L986.512 247H985.414L983.114 239.075H984.461L986.021 245.008L987.867 239.075H988.958L990.841 245.132ZM998.392 247.146C997.318 247.146 996.444 246.795 995.77 246.092C995.096 245.384 994.759 244.439 994.759 243.257V243.008C994.759 242.222 994.908 241.521 995.206 240.906C995.509 240.286 995.929 239.803 996.466 239.456C997.008 239.104 997.594 238.929 998.224 238.929C999.254 238.929 1000.05 239.268 1000.63 239.947C1001.2 240.625 1001.48 241.597 1001.48 242.862V243.426H996.114C996.134 244.207 996.361 244.839 996.795 245.323C997.235 245.801 997.792 246.041 998.465 246.041C998.944 246.041 999.349 245.943 999.681 245.748C1000.01 245.552 1000.3 245.293 1000.55 244.971L1001.38 245.616C1000.72 246.636 999.72 247.146 998.392 247.146ZM998.224 240.042C997.677 240.042 997.218 240.242 996.847 240.643C996.476 241.038 996.246 241.595 996.158 242.312H1000.13V242.21C1000.09 241.521 999.903 240.989 999.571 240.613C999.239 240.232 998.79 240.042 998.224 240.042ZM1006.35 247.146C1005.27 247.146 1004.4 246.795 1003.72 246.092C1003.05 245.384 1002.71 244.439 1002.71 243.257V243.008C1002.71 242.222 1002.86 241.521 1003.16 240.906C1003.46 240.286 1003.88 239.803 1004.42 239.456C1004.96 239.104 1005.55 238.929 1006.18 238.929C1007.21 238.929 1008.01 239.268 1008.58 239.947C1009.15 240.625 1009.44 241.597 1009.44 242.862V243.426H1004.07C1004.09 244.207 1004.31 244.839 1004.75 245.323C1005.19 245.801 1005.75 246.041 1006.42 246.041C1006.9 246.041 1007.3 245.943 1007.64 245.748C1007.97 245.552 1008.26 245.293 1008.51 244.971L1009.33 245.616C1008.67 246.636 1007.67 247.146 1006.35 247.146ZM1006.18 240.042C1005.63 240.042 1005.17 240.242 1004.8 240.643C1004.43 241.038 1004.2 241.595 1004.11 242.312H1008.08V242.21C1008.04 241.521 1007.86 240.989 1007.53 240.613C1007.19 240.232 1006.74 240.042 1006.18 240.042ZM1012.29 239.075L1012.34 240.071C1012.94 239.31 1013.73 238.929 1014.71 238.929C1016.39 238.929 1017.23 239.874 1017.24 241.763V247H1015.89V241.756C1015.88 241.185 1015.75 240.762 1015.49 240.489C1015.24 240.215 1014.84 240.079 1014.3 240.079C1013.86 240.079 1013.48 240.196 1013.14 240.43C1012.81 240.665 1012.55 240.972 1012.37 241.353V247H1011.01V239.075H1012.29Z" fill="black"/>
<circle cx="962" cy="106" r="104" fill="#FBC800" fill-opacity="0.15"/>
<path d="M221.369 327.354L223.83 319.434H225.764L221.516 331.631C220.858 333.389 219.813 334.268 218.381 334.268L218.039 334.238L217.365 334.111V332.646L217.854 332.686C218.465 332.686 218.941 332.562 219.279 332.314C219.624 332.067 219.908 331.615 220.129 330.957L220.529 329.883L216.76 319.434H218.732L221.369 327.354ZM231.633 330.195C230.201 330.195 229.035 329.727 228.137 328.789C227.238 327.845 226.789 326.585 226.789 325.01V324.678C226.789 323.63 226.988 322.695 227.385 321.875C227.788 321.048 228.348 320.404 229.064 319.941C229.787 319.473 230.568 319.238 231.408 319.238C232.782 319.238 233.85 319.691 234.611 320.596C235.373 321.501 235.754 322.796 235.754 324.482V325.234H228.596C228.622 326.276 228.924 327.119 229.504 327.764C230.09 328.402 230.832 328.721 231.73 328.721C232.368 328.721 232.909 328.59 233.352 328.33C233.794 328.07 234.182 327.725 234.514 327.295L235.617 328.154C234.732 329.515 233.404 330.195 231.633 330.195ZM231.408 320.723C230.679 320.723 230.067 320.99 229.572 321.523C229.077 322.051 228.771 322.793 228.654 323.75H233.947V323.613C233.895 322.695 233.648 321.986 233.205 321.484C232.762 320.977 232.163 320.723 231.408 320.723ZM244.377 330C244.273 329.792 244.188 329.421 244.123 328.887C243.283 329.759 242.281 330.195 241.115 330.195C240.074 330.195 239.217 329.902 238.547 329.316C237.883 328.724 237.551 327.975 237.551 327.07C237.551 325.97 237.967 325.117 238.801 324.512C239.641 323.9 240.819 323.594 242.336 323.594H244.094V322.764C244.094 322.132 243.905 321.631 243.527 321.26C243.15 320.882 242.593 320.693 241.857 320.693C241.213 320.693 240.673 320.856 240.236 321.182C239.8 321.507 239.582 321.901 239.582 322.363H237.766C237.766 321.836 237.951 321.328 238.322 320.84C238.7 320.345 239.208 319.954 239.846 319.668C240.49 319.382 241.197 319.238 241.965 319.238C243.182 319.238 244.136 319.544 244.826 320.156C245.516 320.762 245.874 321.598 245.9 322.666V327.529C245.9 328.499 246.024 329.271 246.271 329.844V330H244.377ZM241.379 328.623C241.945 328.623 242.482 328.477 242.99 328.184C243.498 327.891 243.866 327.51 244.094 327.041V324.873H242.678C240.464 324.873 239.357 325.521 239.357 326.816C239.357 327.383 239.546 327.826 239.924 328.145C240.301 328.464 240.786 328.623 241.379 328.623ZM253.84 321.055C253.566 321.009 253.27 320.986 252.951 320.986C251.766 320.986 250.962 321.491 250.539 322.5V330H248.732V319.434H250.49L250.52 320.654C251.112 319.71 251.952 319.238 253.039 319.238C253.391 319.238 253.658 319.284 253.84 319.375V321.055ZM261.662 327.197C261.662 326.709 261.477 326.331 261.105 326.064C260.741 325.791 260.1 325.557 259.182 325.361C258.27 325.166 257.544 324.932 257.004 324.658C256.47 324.385 256.073 324.059 255.812 323.682C255.559 323.304 255.432 322.855 255.432 322.334C255.432 321.468 255.796 320.736 256.525 320.137C257.261 319.538 258.199 319.238 259.338 319.238C260.536 319.238 261.506 319.548 262.248 320.166C262.997 320.785 263.371 321.576 263.371 322.539H261.555C261.555 322.044 261.343 321.618 260.92 321.26C260.503 320.902 259.976 320.723 259.338 320.723C258.68 320.723 258.166 320.866 257.795 321.152C257.424 321.439 257.238 321.813 257.238 322.275C257.238 322.712 257.411 323.04 257.756 323.262C258.101 323.483 258.723 323.695 259.621 323.896C260.526 324.098 261.258 324.339 261.818 324.619C262.378 324.899 262.792 325.238 263.059 325.635C263.332 326.025 263.469 326.504 263.469 327.07C263.469 328.014 263.091 328.773 262.336 329.346C261.581 329.912 260.601 330.195 259.396 330.195C258.55 330.195 257.801 330.046 257.15 329.746C256.499 329.447 255.988 329.03 255.617 328.496C255.253 327.956 255.07 327.373 255.07 326.748H256.877C256.91 327.354 257.15 327.835 257.6 328.193C258.055 328.545 258.654 328.721 259.396 328.721C260.08 328.721 260.627 328.584 261.037 328.311C261.454 328.031 261.662 327.66 261.662 327.197Z" fill="black"/>
<path d="M202.39 297H196.481V268.46L187.766 271.438V266.434L201.633 261.331H202.39V297ZM237.912 282.034C237.912 287.145 236.952 291.002 235.031 293.606C233.127 296.194 230.222 297.488 226.315 297.488C222.474 297.488 219.577 296.227 217.624 293.704C215.687 291.165 214.694 287.413 214.646 282.449V276.297C214.646 271.186 215.598 267.353 217.502 264.798C219.423 262.243 222.344 260.965 226.267 260.965C230.157 260.965 233.054 262.21 234.958 264.7C236.879 267.19 237.863 270.918 237.912 275.882V282.034ZM231.979 275.394C231.979 272.057 231.524 269.616 230.612 268.069C229.701 266.507 228.252 265.726 226.267 265.726C224.33 265.726 222.906 266.466 221.994 267.947C221.083 269.412 220.603 271.707 220.554 274.832V282.889C220.554 286.209 221.018 288.683 221.945 290.311C222.873 291.938 224.33 292.752 226.315 292.752C228.22 292.752 229.628 292.003 230.539 290.506C231.451 288.992 231.931 286.632 231.979 283.426V275.394ZM266.33 282.034C266.33 287.145 265.37 291.002 263.449 293.606C261.545 296.194 258.64 297.488 254.733 297.488C250.892 297.488 247.995 296.227 246.042 293.704C244.105 291.165 243.112 287.413 243.063 282.449V276.297C243.063 271.186 244.016 267.353 245.92 264.798C247.84 262.243 250.762 260.965 254.685 260.965C258.575 260.965 261.472 262.21 263.376 264.7C265.297 267.19 266.281 270.918 266.33 275.882V282.034ZM260.397 275.394C260.397 272.057 259.942 269.616 259.03 268.069C258.119 266.507 256.67 265.726 254.685 265.726C252.748 265.726 251.324 266.466 250.412 267.947C249.501 269.412 249.021 271.707 248.972 274.832V282.889C248.972 286.209 249.436 288.683 250.363 290.311C251.291 291.938 252.748 292.752 254.733 292.752C256.638 292.752 258.046 292.003 258.957 290.506C259.868 288.992 260.349 286.632 260.397 283.426V275.394ZM294.748 282.034C294.748 287.145 293.788 291.002 291.867 293.606C289.963 296.194 287.058 297.488 283.151 297.488C279.31 297.488 276.413 296.227 274.46 293.704C272.523 291.165 271.53 287.413 271.481 282.449V276.297C271.481 271.186 272.434 267.353 274.338 264.798C276.258 262.243 279.18 260.965 283.103 260.965C286.993 260.965 289.89 262.21 291.794 264.7C293.715 267.19 294.699 270.918 294.748 275.882V282.034ZM288.815 275.394C288.815 272.057 288.36 269.616 287.448 268.069C286.537 266.507 285.088 265.726 283.103 265.726C281.166 265.726 279.742 266.466 278.83 267.947C277.919 269.412 277.438 271.707 277.39 274.832V282.889C277.39 286.209 277.854 288.683 278.781 290.311C279.709 291.938 281.166 292.752 283.151 292.752C285.056 292.752 286.464 292.003 287.375 290.506C288.286 288.992 288.767 286.632 288.815 283.426V275.394Z" fill="#00C7A5"/>
<path d="M231.411 245.216C230.883 245.836 230.109 246.146 229.089 246.146C228.244 246.146 227.6 245.902 227.155 245.414C226.716 244.921 226.494 244.193 226.489 243.231V238.075H227.844V243.195C227.844 244.396 228.332 244.997 229.309 244.997C230.344 244.997 231.032 244.611 231.374 243.839V238.075H232.729V246H231.44L231.411 245.216ZM241.489 242.125C241.489 243.332 241.213 244.303 240.661 245.041C240.109 245.778 239.362 246.146 238.42 246.146C237.458 246.146 236.701 245.841 236.149 245.231V249.047H234.794V238.075H236.032L236.098 238.954C236.65 238.271 237.417 237.929 238.398 237.929C239.35 237.929 240.102 238.288 240.654 239.005C241.21 239.723 241.489 240.722 241.489 242.001V242.125ZM240.134 241.972C240.134 241.078 239.943 240.373 239.562 239.855C239.182 239.337 238.659 239.079 237.995 239.079C237.175 239.079 236.56 239.442 236.149 240.17V243.957C236.555 244.679 237.175 245.041 238.01 245.041C238.659 245.041 239.174 244.784 239.555 244.271C239.941 243.754 240.134 242.987 240.134 241.972ZM248.776 236.156V238.075H250.256V239.123H248.776V244.037C248.776 244.354 248.842 244.594 248.974 244.755C249.106 244.911 249.331 244.989 249.648 244.989C249.804 244.989 250.019 244.96 250.292 244.901V246C249.936 246.098 249.589 246.146 249.252 246.146C248.647 246.146 248.19 245.963 247.883 245.597C247.575 245.231 247.421 244.711 247.421 244.037V239.123H245.979V238.075H247.421V236.156H248.776ZM251.34 241.964C251.34 241.188 251.491 240.49 251.794 239.87C252.102 239.25 252.526 238.771 253.068 238.434C253.615 238.097 254.238 237.929 254.936 237.929C256.015 237.929 256.887 238.302 257.551 239.049C258.22 239.796 258.554 240.79 258.554 242.03V242.125C258.554 242.897 258.405 243.59 258.107 244.206C257.814 244.816 257.392 245.292 256.84 245.634C256.293 245.976 255.664 246.146 254.951 246.146C253.876 246.146 253.005 245.773 252.336 245.026C251.672 244.279 251.34 243.29 251.34 242.06V241.964ZM252.702 242.125C252.702 243.004 252.905 243.71 253.31 244.242C253.72 244.774 254.267 245.041 254.951 245.041C255.639 245.041 256.186 244.772 256.591 244.235C256.997 243.693 257.199 242.936 257.199 241.964C257.199 241.095 256.992 240.392 256.577 239.855C256.167 239.313 255.62 239.042 254.936 239.042C254.267 239.042 253.728 239.308 253.317 239.84C252.907 240.373 252.702 241.134 252.702 242.125Z" fill="black"/>
<path d="M941.369 327.354L943.83 319.434H945.764L941.516 331.631C940.858 333.389 939.813 334.268 938.381 334.268L938.039 334.238L937.365 334.111V332.646L937.854 332.686C938.465 332.686 938.941 332.562 939.279 332.314C939.624 332.067 939.908 331.615 940.129 330.957L940.529 329.883L936.76 319.434H938.732L941.369 327.354ZM951.633 330.195C950.201 330.195 949.035 329.727 948.137 328.789C947.238 327.845 946.789 326.585 946.789 325.01V324.678C946.789 323.63 946.988 322.695 947.385 321.875C947.788 321.048 948.348 320.404 949.064 319.941C949.787 319.473 950.568 319.238 951.408 319.238C952.782 319.238 953.85 319.691 954.611 320.596C955.373 321.501 955.754 322.796 955.754 324.482V325.234H948.596C948.622 326.276 948.924 327.119 949.504 327.764C950.09 328.402 950.832 328.721 951.73 328.721C952.368 328.721 952.909 328.59 953.352 328.33C953.794 328.07 954.182 327.725 954.514 327.295L955.617 328.154C954.732 329.515 953.404 330.195 951.633 330.195ZM951.408 320.723C950.679 320.723 950.067 320.99 949.572 321.523C949.077 322.051 948.771 322.793 948.654 323.75H953.947V323.613C953.895 322.695 953.648 321.986 953.205 321.484C952.762 320.977 952.163 320.723 951.408 320.723ZM964.377 330C964.273 329.792 964.188 329.421 964.123 328.887C963.283 329.759 962.281 330.195 961.115 330.195C960.074 330.195 959.217 329.902 958.547 329.316C957.883 328.724 957.551 327.975 957.551 327.07C957.551 325.97 957.967 325.117 958.801 324.512C959.641 323.9 960.819 323.594 962.336 323.594H964.094V322.764C964.094 322.132 963.905 321.631 963.527 321.26C963.15 320.882 962.593 320.693 961.857 320.693C961.213 320.693 960.673 320.856 960.236 321.182C959.8 321.507 959.582 321.901 959.582 322.363H957.766C957.766 321.836 957.951 321.328 958.322 320.84C958.7 320.345 959.208 319.954 959.846 319.668C960.49 319.382 961.197 319.238 961.965 319.238C963.182 319.238 964.136 319.544 964.826 320.156C965.516 320.762 965.874 321.598 965.9 322.666V327.529C965.9 328.499 966.024 329.271 966.271 329.844V330H964.377ZM961.379 328.623C961.945 328.623 962.482 328.477 962.99 328.184C963.498 327.891 963.866 327.51 964.094 327.041V324.873H962.678C960.464 324.873 959.357 325.521 959.357 326.816C959.357 327.383 959.546 327.826 959.924 328.145C960.301 328.464 960.786 328.623 961.379 328.623ZM973.84 321.055C973.566 321.009 973.27 320.986 972.951 320.986C971.766 320.986 970.962 321.491 970.539 322.5V330H968.732V319.434H970.49L970.52 320.654C971.112 319.71 971.952 319.238 973.039 319.238C973.391 319.238 973.658 319.284 973.84 319.375V321.055ZM981.662 327.197C981.662 326.709 981.477 326.331 981.105 326.064C980.741 325.791 980.1 325.557 979.182 325.361C978.27 325.166 977.544 324.932 977.004 324.658C976.47 324.385 976.073 324.059 975.812 323.682C975.559 323.304 975.432 322.855 975.432 322.334C975.432 321.468 975.796 320.736 976.525 320.137C977.261 319.538 978.199 319.238 979.338 319.238C980.536 319.238 981.506 319.548 982.248 320.166C982.997 320.785 983.371 321.576 983.371 322.539H981.555C981.555 322.044 981.343 321.618 980.92 321.26C980.503 320.902 979.976 320.723 979.338 320.723C978.68 320.723 978.166 320.866 977.795 321.152C977.424 321.439 977.238 321.813 977.238 322.275C977.238 322.712 977.411 323.04 977.756 323.262C978.101 323.483 978.723 323.695 979.621 323.896C980.526 324.098 981.258 324.339 981.818 324.619C982.378 324.899 982.792 325.238 983.059 325.635C983.332 326.025 983.469 326.504 983.469 327.07C983.469 328.014 983.091 328.773 982.336 329.346C981.581 329.912 980.601 330.195 979.396 330.195C978.55 330.195 977.801 330.046 977.15 329.746C976.499 329.447 975.988 329.03 975.617 328.496C975.253 327.956 975.07 327.373 975.07 326.748H976.877C976.91 327.354 977.15 327.835 977.6 328.193C978.055 328.545 978.654 328.721 979.396 328.721C980.08 328.721 980.627 328.584 981.037 328.311C981.454 328.031 981.662 327.66 981.662 327.197Z" fill="black"/>
</svg>
