<svg width="1300" height="400" viewBox="0 0 1300 400" fill="none" xmlns="http://www.w3.org/2000/svg">
<rect width="1300" height="400" fill="white"/>
<circle cx="261" cy="200" r="10" fill="#00C7A5"/>
<circle cx="521" cy="200" r="10" fill="#8D75F3"/>
<circle cx="781" cy="200" r="10" fill="#6CBAFA"/>
<circle cx="1040" cy="200" r="10" fill="#FBC800"/>
<path d="M501.369 327.354L503.83 319.434H505.764L501.516 331.631C500.858 333.389 499.813 334.268 498.381 334.268L498.039 334.238L497.365 334.111V332.646L497.854 332.686C498.465 332.686 498.941 332.562 499.279 332.314C499.624 332.067 499.908 331.615 500.129 330.957L500.529 329.883L496.76 319.434H498.732L501.369 327.354ZM511.633 330.195C510.201 330.195 509.035 329.727 508.137 328.789C507.238 327.845 506.789 326.585 506.789 325.01V324.678C506.789 323.63 506.988 322.695 507.385 321.875C507.788 321.048 508.348 320.404 509.064 319.941C509.787 319.473 510.568 319.238 511.408 319.238C512.782 319.238 513.85 319.691 514.611 320.596C515.373 321.501 515.754 322.796 515.754 324.482V325.234H508.596C508.622 326.276 508.924 327.119 509.504 327.764C510.09 328.402 510.832 328.721 511.73 328.721C512.368 328.721 512.909 328.59 513.352 328.33C513.794 328.07 514.182 327.725 514.514 327.295L515.617 328.154C514.732 329.515 513.404 330.195 511.633 330.195ZM511.408 320.723C510.679 320.723 510.067 320.99 509.572 321.523C509.077 322.051 508.771 322.793 508.654 323.75H513.947V323.613C513.895 322.695 513.648 321.986 513.205 321.484C512.762 320.977 512.163 320.723 511.408 320.723ZM524.377 330C524.273 329.792 524.188 329.421 524.123 328.887C523.283 329.759 522.281 330.195 521.115 330.195C520.074 330.195 519.217 329.902 518.547 329.316C517.883 328.724 517.551 327.975 517.551 327.07C517.551 325.97 517.967 325.117 518.801 324.512C519.641 323.9 520.819 323.594 522.336 323.594H524.094V322.764C524.094 322.132 523.905 321.631 523.527 321.26C523.15 320.882 522.593 320.693 521.857 320.693C521.213 320.693 520.673 320.856 520.236 321.182C519.8 321.507 519.582 321.901 519.582 322.363H517.766C517.766 321.836 517.951 321.328 518.322 320.84C518.7 320.345 519.208 319.954 519.846 319.668C520.49 319.382 521.197 319.238 521.965 319.238C523.182 319.238 524.136 319.544 524.826 320.156C525.516 320.762 525.874 321.598 525.9 322.666V327.529C525.9 328.499 526.024 329.271 526.271 329.844V330H524.377ZM521.379 328.623C521.945 328.623 522.482 328.477 522.99 328.184C523.498 327.891 523.866 327.51 524.094 327.041V324.873H522.678C520.464 324.873 519.357 325.521 519.357 326.816C519.357 327.383 519.546 327.826 519.924 328.145C520.301 328.464 520.786 328.623 521.379 328.623ZM533.84 321.055C533.566 321.009 533.27 320.986 532.951 320.986C531.766 320.986 530.962 321.491 530.539 322.5V330H528.732V319.434H530.49L530.52 320.654C531.112 319.71 531.952 319.238 533.039 319.238C533.391 319.238 533.658 319.284 533.84 319.375V321.055ZM541.662 327.197C541.662 326.709 541.477 326.331 541.105 326.064C540.741 325.791 540.1 325.557 539.182 325.361C538.27 325.166 537.544 324.932 537.004 324.658C536.47 324.385 536.073 324.059 535.812 323.682C535.559 323.304 535.432 322.855 535.432 322.334C535.432 321.468 535.796 320.736 536.525 320.137C537.261 319.538 538.199 319.238 539.338 319.238C540.536 319.238 541.506 319.548 542.248 320.166C542.997 320.785 543.371 321.576 543.371 322.539H541.555C541.555 322.044 541.343 321.618 540.92 321.26C540.503 320.902 539.976 320.723 539.338 320.723C538.68 320.723 538.166 320.866 537.795 321.152C537.424 321.439 537.238 321.813 537.238 322.275C537.238 322.712 537.411 323.04 537.756 323.262C538.101 323.483 538.723 323.695 539.621 323.896C540.526 324.098 541.258 324.339 541.818 324.619C542.378 324.899 542.792 325.238 543.059 325.635C543.332 326.025 543.469 326.504 543.469 327.07C543.469 328.014 543.091 328.773 542.336 329.346C541.581 329.912 540.601 330.195 539.396 330.195C538.55 330.195 537.801 330.046 537.15 329.746C536.499 329.447 535.988 329.03 535.617 328.496C535.253 327.956 535.07 327.373 535.07 326.748H536.877C536.91 327.354 537.15 327.835 537.6 328.193C538.055 328.545 538.654 328.721 539.396 328.721C540.08 328.721 540.627 328.584 541.037 328.311C541.454 328.031 541.662 327.66 541.662 327.197Z" fill="black"/>
<path d="M491.105 296H485.197V267.46L476.481 270.438V265.434L490.349 260.331H491.105V296ZM527.36 296H503.459V291.923L515.3 279.008C517.009 277.104 518.221 275.517 518.938 274.247C519.67 272.961 520.036 271.675 520.036 270.39C520.036 268.697 519.556 267.33 518.596 266.288C517.652 265.246 516.374 264.726 514.763 264.726C512.842 264.726 511.353 265.312 510.295 266.483C509.237 267.655 508.708 269.258 508.708 271.293H502.775C502.775 269.128 503.264 267.183 504.24 265.458C505.233 263.716 506.641 262.366 508.464 261.405C510.303 260.445 512.419 259.965 514.812 259.965C518.262 259.965 520.98 260.836 522.966 262.577C524.968 264.302 525.969 266.695 525.969 269.755C525.969 271.529 525.464 273.393 524.455 275.346C523.462 277.283 521.826 279.488 519.548 281.962L510.856 291.264H527.36V296ZM533.098 304.008L529.899 302.104C530.843 300.622 531.486 299.328 531.828 298.222C532.186 297.131 532.373 296.016 532.39 294.877V290.263H537.736L537.712 294.535C537.696 296.26 537.256 297.986 536.394 299.711C535.547 301.452 534.449 302.885 533.098 304.008ZM562.932 283.329H567.351V288.09H562.932V296H556.999V288.09H541.643L541.472 284.477L556.804 260.453H562.932V283.329ZM547.697 283.329H556.999V268.485L556.56 269.267L547.697 283.329Z" fill="#8D75F3"/>
</svg>
