<svg width="1200" height="400" viewBox="0 0 1200 400" fill="none" xmlns="http://www.w3.org/2000/svg">
<rect width="1200" height="400" fill="white"/>
<path d="M460.369 194.354L462.83 186.434H464.764L460.516 198.631C459.858 200.389 458.813 201.268 457.381 201.268L457.039 201.238L456.365 201.111V199.646L456.854 199.686C457.465 199.686 457.941 199.562 458.279 199.314C458.624 199.067 458.908 198.615 459.129 197.957L459.529 196.883L455.76 186.434H457.732L460.369 194.354ZM470.633 197.195C469.201 197.195 468.035 196.727 467.137 195.789C466.238 194.845 465.789 193.585 465.789 192.01V191.678C465.789 190.63 465.988 189.695 466.385 188.875C466.788 188.048 467.348 187.404 468.064 186.941C468.787 186.473 469.568 186.238 470.408 186.238C471.782 186.238 472.85 186.691 473.611 187.596C474.373 188.501 474.754 189.796 474.754 191.482V192.234H467.596C467.622 193.276 467.924 194.119 468.504 194.764C469.09 195.402 469.832 195.721 470.73 195.721C471.368 195.721 471.909 195.59 472.352 195.33C472.794 195.07 473.182 194.725 473.514 194.295L474.617 195.154C473.732 196.515 472.404 197.195 470.633 197.195ZM470.408 187.723C469.679 187.723 469.067 187.99 468.572 188.523C468.077 189.051 467.771 189.793 467.654 190.75H472.947V190.613C472.895 189.695 472.648 188.986 472.205 188.484C471.762 187.977 471.163 187.723 470.408 187.723ZM483.377 197C483.273 196.792 483.188 196.421 483.123 195.887C482.283 196.759 481.281 197.195 480.115 197.195C479.074 197.195 478.217 196.902 477.547 196.316C476.883 195.724 476.551 194.975 476.551 194.07C476.551 192.97 476.967 192.117 477.801 191.512C478.641 190.9 479.819 190.594 481.336 190.594H483.094V189.764C483.094 189.132 482.905 188.631 482.527 188.26C482.15 187.882 481.593 187.693 480.857 187.693C480.213 187.693 479.673 187.856 479.236 188.182C478.8 188.507 478.582 188.901 478.582 189.363H476.766C476.766 188.836 476.951 188.328 477.322 187.84C477.7 187.345 478.208 186.954 478.846 186.668C479.49 186.382 480.197 186.238 480.965 186.238C482.182 186.238 483.136 186.544 483.826 187.156C484.516 187.762 484.874 188.598 484.9 189.666V194.529C484.9 195.499 485.024 196.271 485.271 196.844V197H483.377ZM480.379 195.623C480.945 195.623 481.482 195.477 481.99 195.184C482.498 194.891 482.866 194.51 483.094 194.041V191.873H481.678C479.464 191.873 478.357 192.521 478.357 193.816C478.357 194.383 478.546 194.826 478.924 195.145C479.301 195.464 479.786 195.623 480.379 195.623ZM492.84 188.055C492.566 188.009 492.27 187.986 491.951 187.986C490.766 187.986 489.962 188.491 489.539 189.5V197H487.732V186.434H489.49L489.52 187.654C490.112 186.71 490.952 186.238 492.039 186.238C492.391 186.238 492.658 186.284 492.84 186.375V188.055ZM500.662 194.197C500.662 193.709 500.477 193.331 500.105 193.064C499.741 192.791 499.1 192.557 498.182 192.361C497.27 192.166 496.544 191.932 496.004 191.658C495.47 191.385 495.073 191.059 494.812 190.682C494.559 190.304 494.432 189.855 494.432 189.334C494.432 188.468 494.796 187.736 495.525 187.137C496.261 186.538 497.199 186.238 498.338 186.238C499.536 186.238 500.506 186.548 501.248 187.166C501.997 187.785 502.371 188.576 502.371 189.539H500.555C500.555 189.044 500.343 188.618 499.92 188.26C499.503 187.902 498.976 187.723 498.338 187.723C497.68 187.723 497.166 187.866 496.795 188.152C496.424 188.439 496.238 188.813 496.238 189.275C496.238 189.712 496.411 190.04 496.756 190.262C497.101 190.483 497.723 190.695 498.621 190.896C499.526 191.098 500.258 191.339 500.818 191.619C501.378 191.899 501.792 192.238 502.059 192.635C502.332 193.025 502.469 193.504 502.469 194.07C502.469 195.014 502.091 195.773 501.336 196.346C500.581 196.912 499.601 197.195 498.396 197.195C497.55 197.195 496.801 197.046 496.15 196.746C495.499 196.447 494.988 196.03 494.617 195.496C494.253 194.956 494.07 194.373 494.07 193.748H495.877C495.91 194.354 496.15 194.835 496.6 195.193C497.055 195.545 497.654 195.721 498.396 195.721C499.08 195.721 499.627 195.584 500.037 195.311C500.454 195.031 500.662 194.66 500.662 194.197Z" fill="black"/>
<path d="M455.984 165H451.258V142.168L444.285 144.551V140.547L455.379 136.465H455.984V165ZM484.988 165H465.867V161.738L475.34 151.406C476.707 149.883 477.677 148.613 478.25 147.598C478.836 146.569 479.129 145.54 479.129 144.512C479.129 143.158 478.745 142.064 477.977 141.23C477.221 140.397 476.199 139.98 474.91 139.98C473.374 139.98 472.182 140.449 471.336 141.387C470.49 142.324 470.066 143.607 470.066 145.234H465.32C465.32 143.503 465.711 141.947 466.492 140.566C467.286 139.173 468.413 138.092 469.871 137.324C471.342 136.556 473.035 136.172 474.949 136.172C477.71 136.172 479.884 136.868 481.473 138.262C483.074 139.642 483.875 141.556 483.875 144.004C483.875 145.423 483.471 146.914 482.664 148.477C481.87 150.026 480.561 151.79 478.738 153.77L471.785 161.211H484.988V165ZM489.578 171.406L487.02 169.883C487.775 168.698 488.289 167.663 488.562 166.777C488.849 165.905 488.999 165.013 489.012 164.102V160.41H493.289L493.27 163.828C493.257 165.208 492.905 166.589 492.215 167.969C491.538 169.362 490.659 170.508 489.578 171.406ZM513.445 154.863H516.98V158.672H513.445V165H508.699V158.672H496.414L496.277 155.781L508.543 136.562H513.445V154.863ZM501.258 154.863H508.699V142.988L508.348 143.613L501.258 154.863Z" fill="#8D75F3"/>
<path d="M700.369 194.354L702.83 186.434H704.764L700.516 198.631C699.858 200.389 698.813 201.268 697.381 201.268L697.039 201.238L696.365 201.111V199.646L696.854 199.686C697.465 199.686 697.941 199.562 698.279 199.314C698.624 199.067 698.908 198.615 699.129 197.957L699.529 196.883L695.76 186.434H697.732L700.369 194.354ZM710.633 197.195C709.201 197.195 708.035 196.727 707.137 195.789C706.238 194.845 705.789 193.585 705.789 192.01V191.678C705.789 190.63 705.988 189.695 706.385 188.875C706.788 188.048 707.348 187.404 708.064 186.941C708.787 186.473 709.568 186.238 710.408 186.238C711.782 186.238 712.85 186.691 713.611 187.596C714.373 188.501 714.754 189.796 714.754 191.482V192.234H707.596C707.622 193.276 707.924 194.119 708.504 194.764C709.09 195.402 709.832 195.721 710.73 195.721C711.368 195.721 711.909 195.59 712.352 195.33C712.794 195.07 713.182 194.725 713.514 194.295L714.617 195.154C713.732 196.515 712.404 197.195 710.633 197.195ZM710.408 187.723C709.679 187.723 709.067 187.99 708.572 188.523C708.077 189.051 707.771 189.793 707.654 190.75H712.947V190.613C712.895 189.695 712.648 188.986 712.205 188.484C711.762 187.977 711.163 187.723 710.408 187.723ZM723.377 197C723.273 196.792 723.188 196.421 723.123 195.887C722.283 196.759 721.281 197.195 720.115 197.195C719.074 197.195 718.217 196.902 717.547 196.316C716.883 195.724 716.551 194.975 716.551 194.07C716.551 192.97 716.967 192.117 717.801 191.512C718.641 190.9 719.819 190.594 721.336 190.594H723.094V189.764C723.094 189.132 722.905 188.631 722.527 188.26C722.15 187.882 721.593 187.693 720.857 187.693C720.213 187.693 719.673 187.856 719.236 188.182C718.8 188.507 718.582 188.901 718.582 189.363H716.766C716.766 188.836 716.951 188.328 717.322 187.84C717.7 187.345 718.208 186.954 718.846 186.668C719.49 186.382 720.197 186.238 720.965 186.238C722.182 186.238 723.136 186.544 723.826 187.156C724.516 187.762 724.874 188.598 724.9 189.666V194.529C724.9 195.499 725.024 196.271 725.271 196.844V197H723.377ZM720.379 195.623C720.945 195.623 721.482 195.477 721.99 195.184C722.498 194.891 722.866 194.51 723.094 194.041V191.873H721.678C719.464 191.873 718.357 192.521 718.357 193.816C718.357 194.383 718.546 194.826 718.924 195.145C719.301 195.464 719.786 195.623 720.379 195.623ZM732.84 188.055C732.566 188.009 732.27 187.986 731.951 187.986C730.766 187.986 729.962 188.491 729.539 189.5V197H727.732V186.434H729.49L729.52 187.654C730.112 186.71 730.952 186.238 732.039 186.238C732.391 186.238 732.658 186.284 732.84 186.375V188.055ZM740.662 194.197C740.662 193.709 740.477 193.331 740.105 193.064C739.741 192.791 739.1 192.557 738.182 192.361C737.27 192.166 736.544 191.932 736.004 191.658C735.47 191.385 735.073 191.059 734.812 190.682C734.559 190.304 734.432 189.855 734.432 189.334C734.432 188.468 734.796 187.736 735.525 187.137C736.261 186.538 737.199 186.238 738.338 186.238C739.536 186.238 740.506 186.548 741.248 187.166C741.997 187.785 742.371 188.576 742.371 189.539H740.555C740.555 189.044 740.343 188.618 739.92 188.26C739.503 187.902 738.976 187.723 738.338 187.723C737.68 187.723 737.166 187.866 736.795 188.152C736.424 188.439 736.238 188.813 736.238 189.275C736.238 189.712 736.411 190.04 736.756 190.262C737.101 190.483 737.723 190.695 738.621 190.896C739.526 191.098 740.258 191.339 740.818 191.619C741.378 191.899 741.792 192.238 742.059 192.635C742.332 193.025 742.469 193.504 742.469 194.07C742.469 195.014 742.091 195.773 741.336 196.346C740.581 196.912 739.601 197.195 738.396 197.195C737.55 197.195 736.801 197.046 736.15 196.746C735.499 196.447 734.988 196.03 734.617 195.496C734.253 194.956 734.07 194.373 734.07 193.748H735.877C735.91 194.354 736.15 194.835 736.6 195.193C737.055 195.545 737.654 195.721 738.396 195.721C739.08 195.721 739.627 195.584 740.037 195.311C740.454 195.031 740.662 194.66 740.662 194.197Z" fill="black"/>
<path d="M700.379 165H695.652V142.168L688.68 144.551V140.547L699.773 136.465H700.379V165ZM729.383 165H710.262V161.738L719.734 151.406C721.102 149.883 722.072 148.613 722.645 147.598C723.23 146.569 723.523 145.54 723.523 144.512C723.523 143.158 723.139 142.064 722.371 141.23C721.616 140.397 720.594 139.98 719.305 139.98C717.768 139.98 716.577 140.449 715.73 141.387C714.884 142.324 714.461 143.607 714.461 145.234H709.715C709.715 143.503 710.105 141.947 710.887 140.566C711.681 139.173 712.807 138.092 714.266 137.324C715.737 136.556 717.43 136.172 719.344 136.172C722.104 136.172 724.279 136.868 725.867 138.262C727.469 139.642 728.27 141.556 728.27 144.004C728.27 145.423 727.866 146.914 727.059 148.477C726.264 150.026 724.956 151.79 723.133 153.77L716.18 161.211H729.383V165ZM745.848 165H741.121V142.168L734.148 144.551V140.547L745.242 136.465H745.848V165Z" fill="#6CBAFA"/>
<path d="M221.369 194.354L223.83 186.434H225.764L221.516 198.631C220.858 200.389 219.813 201.268 218.381 201.268L218.039 201.238L217.365 201.111V199.646L217.854 199.686C218.465 199.686 218.941 199.562 219.279 199.314C219.624 199.067 219.908 198.615 220.129 197.957L220.529 196.883L216.76 186.434H218.732L221.369 194.354ZM231.633 197.195C230.201 197.195 229.035 196.727 228.137 195.789C227.238 194.845 226.789 193.585 226.789 192.01V191.678C226.789 190.63 226.988 189.695 227.385 188.875C227.788 188.048 228.348 187.404 229.064 186.941C229.787 186.473 230.568 186.238 231.408 186.238C232.782 186.238 233.85 186.691 234.611 187.596C235.373 188.501 235.754 189.796 235.754 191.482V192.234H228.596C228.622 193.276 228.924 194.119 229.504 194.764C230.09 195.402 230.832 195.721 231.73 195.721C232.368 195.721 232.909 195.59 233.352 195.33C233.794 195.07 234.182 194.725 234.514 194.295L235.617 195.154C234.732 196.515 233.404 197.195 231.633 197.195ZM231.408 187.723C230.679 187.723 230.067 187.99 229.572 188.523C229.077 189.051 228.771 189.793 228.654 190.75H233.947V190.613C233.895 189.695 233.648 188.986 233.205 188.484C232.762 187.977 232.163 187.723 231.408 187.723ZM244.377 197C244.273 196.792 244.188 196.421 244.123 195.887C243.283 196.759 242.281 197.195 241.115 197.195C240.074 197.195 239.217 196.902 238.547 196.316C237.883 195.724 237.551 194.975 237.551 194.07C237.551 192.97 237.967 192.117 238.801 191.512C239.641 190.9 240.819 190.594 242.336 190.594H244.094V189.764C244.094 189.132 243.905 188.631 243.527 188.26C243.15 187.882 242.593 187.693 241.857 187.693C241.213 187.693 240.673 187.856 240.236 188.182C239.8 188.507 239.582 188.901 239.582 189.363H237.766C237.766 188.836 237.951 188.328 238.322 187.84C238.7 187.345 239.208 186.954 239.846 186.668C240.49 186.382 241.197 186.238 241.965 186.238C243.182 186.238 244.136 186.544 244.826 187.156C245.516 187.762 245.874 188.598 245.9 189.666V194.529C245.9 195.499 246.024 196.271 246.271 196.844V197H244.377ZM241.379 195.623C241.945 195.623 242.482 195.477 242.99 195.184C243.498 194.891 243.866 194.51 244.094 194.041V191.873H242.678C240.464 191.873 239.357 192.521 239.357 193.816C239.357 194.383 239.546 194.826 239.924 195.145C240.301 195.464 240.786 195.623 241.379 195.623ZM253.84 188.055C253.566 188.009 253.27 187.986 252.951 187.986C251.766 187.986 250.962 188.491 250.539 189.5V197H248.732V186.434H250.49L250.52 187.654C251.112 186.71 251.952 186.238 253.039 186.238C253.391 186.238 253.658 186.284 253.84 186.375V188.055ZM261.662 194.197C261.662 193.709 261.477 193.331 261.105 193.064C260.741 192.791 260.1 192.557 259.182 192.361C258.27 192.166 257.544 191.932 257.004 191.658C256.47 191.385 256.073 191.059 255.812 190.682C255.559 190.304 255.432 189.855 255.432 189.334C255.432 188.468 255.796 187.736 256.525 187.137C257.261 186.538 258.199 186.238 259.338 186.238C260.536 186.238 261.506 186.548 262.248 187.166C262.997 187.785 263.371 188.576 263.371 189.539H261.555C261.555 189.044 261.343 188.618 260.92 188.26C260.503 187.902 259.976 187.723 259.338 187.723C258.68 187.723 258.166 187.866 257.795 188.152C257.424 188.439 257.238 188.813 257.238 189.275C257.238 189.712 257.411 190.04 257.756 190.262C258.101 190.483 258.723 190.695 259.621 190.896C260.526 191.098 261.258 191.339 261.818 191.619C262.378 191.899 262.792 192.238 263.059 192.635C263.332 193.025 263.469 193.504 263.469 194.07C263.469 195.014 263.091 195.773 262.336 196.346C261.581 196.912 260.601 197.195 259.396 197.195C258.55 197.195 257.801 197.046 257.15 196.746C256.499 196.447 255.988 196.03 255.617 195.496C255.253 194.956 255.07 194.373 255.07 193.748H256.877C256.91 194.354 257.15 194.835 257.6 195.193C258.055 195.545 258.654 195.721 259.396 195.721C260.08 195.721 260.627 195.584 261.037 195.311C261.454 195.031 261.662 194.66 261.662 194.197Z" fill="black"/>
<path d="M210.012 165H205.285V142.168L198.312 144.551V140.547L209.406 136.465H210.012V165ZM238.43 153.027C238.43 157.116 237.661 160.202 236.125 162.285C234.602 164.355 232.277 165.391 229.152 165.391C226.079 165.391 223.762 164.382 222.199 162.363C220.65 160.332 219.855 157.331 219.816 153.359V148.438C219.816 144.349 220.578 141.283 222.102 139.238C223.638 137.194 225.975 136.172 229.113 136.172C232.225 136.172 234.543 137.168 236.066 139.16C237.603 141.152 238.391 144.134 238.43 148.105V153.027ZM233.684 147.715C233.684 145.046 233.319 143.092 232.59 141.855C231.861 140.605 230.702 139.98 229.113 139.98C227.564 139.98 226.424 140.573 225.695 141.758C224.966 142.93 224.582 144.766 224.543 147.266V153.711C224.543 156.367 224.914 158.346 225.656 159.648C226.398 160.951 227.564 161.602 229.152 161.602C230.676 161.602 231.802 161.003 232.531 159.805C233.26 158.594 233.645 156.706 233.684 154.141V147.715ZM261.164 153.027C261.164 157.116 260.396 160.202 258.859 162.285C257.336 164.355 255.012 165.391 251.887 165.391C248.814 165.391 246.496 164.382 244.934 162.363C243.384 160.332 242.59 157.331 242.551 153.359V148.438C242.551 144.349 243.312 141.283 244.836 139.238C246.372 137.194 248.71 136.172 251.848 136.172C254.96 136.172 257.277 137.168 258.801 139.16C260.337 141.152 261.125 144.134 261.164 148.105V153.027ZM256.418 147.715C256.418 145.046 256.053 143.092 255.324 141.855C254.595 140.605 253.436 139.98 251.848 139.98C250.298 139.98 249.159 140.573 248.43 141.758C247.701 142.93 247.316 144.766 247.277 147.266V153.711C247.277 156.367 247.648 158.346 248.391 159.648C249.133 160.951 250.298 161.602 251.887 161.602C253.41 161.602 254.536 161.003 255.266 159.805C255.995 158.594 256.379 156.706 256.418 154.141V147.715ZM283.898 153.027C283.898 157.116 283.13 160.202 281.594 162.285C280.07 164.355 277.746 165.391 274.621 165.391C271.548 165.391 269.23 164.382 267.668 162.363C266.118 160.332 265.324 157.331 265.285 153.359V148.438C265.285 144.349 266.047 141.283 267.57 139.238C269.107 137.194 271.444 136.172 274.582 136.172C277.694 136.172 280.012 137.168 281.535 139.16C283.072 141.152 283.859 144.134 283.898 148.105V153.027ZM279.152 147.715C279.152 145.046 278.788 143.092 278.059 141.855C277.329 140.605 276.171 139.98 274.582 139.98C273.033 139.98 271.893 140.573 271.164 141.758C270.435 142.93 270.051 144.766 270.012 147.266V153.711C270.012 156.367 270.383 158.346 271.125 159.648C271.867 160.951 273.033 161.602 274.621 161.602C276.145 161.602 277.271 161.003 278 159.805C278.729 158.594 279.113 156.706 279.152 154.141V147.715Z" fill="#00C7A5"/>
<path d="M231.411 112.216C230.883 112.836 230.109 113.146 229.089 113.146C228.244 113.146 227.6 112.902 227.155 112.414C226.716 111.921 226.494 111.193 226.489 110.231V105.075H227.844V110.195C227.844 111.396 228.332 111.997 229.309 111.997C230.344 111.997 231.032 111.611 231.374 110.839V105.075H232.729V113H231.44L231.411 112.216ZM241.489 109.125C241.489 110.332 241.213 111.303 240.661 112.041C240.109 112.778 239.362 113.146 238.42 113.146C237.458 113.146 236.701 112.841 236.149 112.231V116.047H234.794V105.075H236.032L236.098 105.954C236.65 105.271 237.417 104.929 238.398 104.929C239.35 104.929 240.102 105.288 240.654 106.005C241.21 106.723 241.489 107.722 241.489 109.001V109.125ZM240.134 108.972C240.134 108.078 239.943 107.373 239.562 106.855C239.182 106.337 238.659 106.079 237.995 106.079C237.175 106.079 236.56 106.442 236.149 107.17V110.957C236.555 111.679 237.175 112.041 238.01 112.041C238.659 112.041 239.174 111.784 239.555 111.271C239.941 110.754 240.134 109.987 240.134 108.972ZM248.776 103.156V105.075H250.256V106.123H248.776V111.037C248.776 111.354 248.842 111.594 248.974 111.755C249.106 111.911 249.331 111.989 249.648 111.989C249.804 111.989 250.019 111.96 250.292 111.901V113C249.936 113.098 249.589 113.146 249.252 113.146C248.647 113.146 248.19 112.963 247.883 112.597C247.575 112.231 247.421 111.711 247.421 111.037V106.123H245.979V105.075H247.421V103.156H248.776ZM251.34 108.964C251.34 108.188 251.491 107.49 251.794 106.87C252.102 106.25 252.526 105.771 253.068 105.434C253.615 105.097 254.238 104.929 254.936 104.929C256.015 104.929 256.887 105.302 257.551 106.049C258.22 106.796 258.554 107.79 258.554 109.03V109.125C258.554 109.897 258.405 110.59 258.107 111.206C257.814 111.816 257.392 112.292 256.84 112.634C256.293 112.976 255.664 113.146 254.951 113.146C253.876 113.146 253.005 112.773 252.336 112.026C251.672 111.279 251.34 110.29 251.34 109.06V108.964ZM252.702 109.125C252.702 110.004 252.905 110.71 253.31 111.242C253.72 111.774 254.267 112.041 254.951 112.041C255.639 112.041 256.186 111.772 256.591 111.235C256.997 110.693 257.199 109.936 257.199 108.964C257.199 108.095 256.992 107.392 256.577 106.855C256.167 106.313 255.62 106.042 254.936 106.042C254.267 106.042 253.728 106.308 253.317 106.84C252.907 107.373 252.702 108.134 252.702 109.125Z" fill="black"/>
<path d="M869.618 150.898L871.161 136.562H886.434V140.664H875.106L874.325 147.461C875.64 146.706 877.124 146.328 878.778 146.328C881.486 146.328 883.589 147.194 885.087 148.926C886.597 150.658 887.352 152.988 887.352 155.918C887.352 158.809 886.519 161.113 884.852 162.832C883.186 164.538 880.901 165.391 877.997 165.391C875.393 165.391 873.231 164.655 871.512 163.184C869.807 161.699 868.882 159.746 868.739 157.324H873.329C873.511 158.704 874.006 159.766 874.813 160.508C875.621 161.237 876.675 161.602 877.977 161.602C879.436 161.602 880.568 161.081 881.376 160.039C882.196 158.997 882.606 157.578 882.606 155.781C882.606 154.049 882.157 152.682 881.259 151.68C880.36 150.664 879.123 150.156 877.548 150.156C876.688 150.156 875.959 150.273 875.36 150.508C874.761 150.729 874.11 151.172 873.407 151.836L869.618 150.898ZM892.352 150.898L893.895 136.562H909.169V140.664H897.841L897.059 147.461C898.374 146.706 899.859 146.328 901.512 146.328C904.221 146.328 906.324 147.194 907.821 148.926C909.332 150.658 910.087 152.988 910.087 155.918C910.087 158.809 909.253 161.113 907.587 162.832C905.92 164.538 903.635 165.391 900.731 165.391C898.127 165.391 895.966 164.655 894.247 163.184C892.541 161.699 891.617 159.746 891.473 157.324H896.063C896.246 158.704 896.74 159.766 897.548 160.508C898.355 161.237 899.41 161.602 900.712 161.602C902.17 161.602 903.303 161.081 904.11 160.039C904.93 158.997 905.341 157.578 905.341 155.781C905.341 154.049 904.891 152.682 903.993 151.68C903.095 150.664 901.858 150.156 900.282 150.156C899.423 150.156 898.693 150.273 898.095 150.508C897.496 150.729 896.845 151.172 896.141 151.836L892.352 150.898ZM932.352 153.027C932.352 157.116 931.584 160.202 930.048 162.285C928.524 164.355 926.2 165.391 923.075 165.391C920.002 165.391 917.684 164.382 916.122 162.363C914.572 160.332 913.778 157.331 913.739 153.359V148.438C913.739 144.349 914.501 141.283 916.024 139.238C917.561 137.194 919.898 136.172 923.036 136.172C926.148 136.172 928.466 137.168 929.989 139.16C931.526 141.152 932.313 144.134 932.352 148.105V153.027ZM927.606 147.715C927.606 145.046 927.242 143.092 926.512 141.855C925.783 140.605 924.624 139.98 923.036 139.98C921.486 139.98 920.347 140.573 919.618 141.758C918.889 142.93 918.505 144.766 918.466 147.266V153.711C918.466 156.367 918.837 158.346 919.579 159.648C920.321 160.951 921.486 161.602 923.075 161.602C924.598 161.602 925.725 161.003 926.454 159.805C927.183 158.594 927.567 156.706 927.606 154.141V147.715ZM960.172 152.871H940.289V149.043H960.172V152.871ZM973.46 148.613H976.351C977.809 148.6 978.961 148.223 979.808 147.48C980.667 146.738 981.097 145.664 981.097 144.258C981.097 142.904 980.739 141.855 980.023 141.113C979.32 140.358 978.239 139.98 976.78 139.98C975.504 139.98 974.456 140.352 973.636 141.094C972.816 141.823 972.405 142.78 972.405 143.965H967.659C967.659 142.507 968.043 141.178 968.812 139.98C969.593 138.783 970.674 137.852 972.054 137.188C973.447 136.51 975.003 136.172 976.722 136.172C979.56 136.172 981.787 136.888 983.402 138.32C985.029 139.74 985.843 141.719 985.843 144.258C985.843 145.534 985.433 146.738 984.612 147.871C983.805 148.991 982.757 149.837 981.468 150.41C983.03 150.944 984.215 151.784 985.023 152.93C985.843 154.076 986.253 155.443 986.253 157.031C986.253 159.583 985.374 161.615 983.616 163.125C981.872 164.635 979.573 165.391 976.722 165.391C973.987 165.391 971.748 164.661 970.003 163.203C968.258 161.745 967.386 159.805 967.386 157.383H972.132C972.132 158.633 972.549 159.648 973.382 160.43C974.228 161.211 975.361 161.602 976.78 161.602C978.252 161.602 979.411 161.211 980.257 160.43C981.103 159.648 981.527 158.516 981.527 157.031C981.527 155.534 981.084 154.382 980.198 153.574C979.313 152.767 977.998 152.363 976.253 152.363H973.46V148.613ZM1009.83 165H990.706V161.738L1000.18 151.406C1001.55 149.883 1002.52 148.613 1003.09 147.598C1003.67 146.569 1003.97 145.54 1003.97 144.512C1003.97 143.158 1003.58 142.064 1002.82 141.23C1002.06 140.397 1001.04 139.98 999.749 139.98C998.213 139.98 997.021 140.449 996.175 141.387C995.329 142.324 994.905 143.607 994.905 145.234H990.159C990.159 143.503 990.55 141.947 991.331 140.566C992.126 139.173 993.252 138.092 994.71 137.324C996.181 136.556 997.874 136.172 999.788 136.172C1002.55 136.172 1004.72 136.868 1006.31 138.262C1007.91 139.642 1008.71 141.556 1008.71 144.004C1008.71 145.423 1008.31 146.914 1007.5 148.477C1006.71 150.026 1005.4 151.79 1003.58 153.77L996.624 161.211H1009.83V165ZM1031.98 153.027C1031.98 157.116 1031.21 160.202 1029.67 162.285C1028.15 164.355 1025.82 165.391 1022.7 165.391C1019.63 165.391 1017.31 164.382 1015.75 162.363C1014.2 160.332 1013.4 157.331 1013.36 153.359V148.438C1013.36 144.349 1014.12 141.283 1015.65 139.238C1017.18 137.194 1019.52 136.172 1022.66 136.172C1025.77 136.172 1028.09 137.168 1029.61 139.16C1031.15 141.152 1031.94 144.134 1031.98 148.105V153.027ZM1027.23 147.715C1027.23 145.046 1026.87 143.092 1026.14 141.855C1025.41 140.605 1024.25 139.98 1022.66 139.98C1021.11 139.98 1019.97 140.573 1019.24 141.758C1018.51 142.93 1018.13 144.766 1018.09 147.266V153.711C1018.09 156.367 1018.46 158.346 1019.2 159.648C1019.94 160.951 1021.11 161.602 1022.7 161.602C1024.22 161.602 1025.35 161.003 1026.08 159.805C1026.81 158.594 1027.19 156.706 1027.23 154.141V147.715ZM1054.71 153.027C1054.71 157.116 1053.94 160.202 1052.41 162.285C1050.88 164.355 1048.56 165.391 1045.43 165.391C1042.36 165.391 1040.04 164.382 1038.48 162.363C1036.93 160.332 1036.14 157.331 1036.1 153.359V148.438C1036.1 144.349 1036.86 141.283 1038.38 139.238C1039.92 137.194 1042.26 136.172 1045.39 136.172C1048.51 136.172 1050.82 137.168 1052.35 139.16C1053.88 141.152 1054.67 144.134 1054.71 148.105V153.027ZM1049.96 147.715C1049.96 145.046 1049.6 143.092 1048.87 141.855C1048.14 140.605 1046.98 139.98 1045.39 139.98C1043.84 139.98 1042.7 140.573 1041.98 141.758C1041.25 142.93 1040.86 144.766 1040.82 147.266V153.711C1040.82 156.367 1041.19 158.346 1041.94 159.648C1042.68 160.951 1043.84 161.602 1045.43 161.602C1046.96 161.602 1048.08 161.003 1048.81 159.805C1049.54 158.594 1049.93 156.706 1049.96 154.141V147.715Z" fill="#FBC800"/>
<path d="M908.377 111.162L910.34 105.075H911.725L908.883 113H907.85L904.979 105.075H906.363L908.377 111.162ZM917.804 113C917.726 112.844 917.662 112.565 917.613 112.165C916.983 112.819 916.231 113.146 915.357 113.146C914.576 113.146 913.934 112.927 913.431 112.487C912.933 112.043 912.684 111.481 912.684 110.803C912.684 109.978 912.997 109.338 913.622 108.884C914.251 108.425 915.135 108.195 916.273 108.195H917.591V107.573C917.591 107.099 917.45 106.723 917.167 106.445C916.883 106.162 916.466 106.02 915.914 106.02C915.431 106.02 915.025 106.142 914.698 106.386C914.371 106.63 914.208 106.926 914.208 107.272H912.845C912.845 106.877 912.984 106.496 913.263 106.13C913.546 105.759 913.927 105.466 914.405 105.251C914.889 105.036 915.418 104.929 915.995 104.929C916.908 104.929 917.623 105.158 918.141 105.617C918.658 106.071 918.927 106.699 918.946 107.5V111.147C918.946 111.875 919.039 112.453 919.225 112.883V113H917.804ZM915.555 111.967C915.98 111.967 916.383 111.857 916.764 111.638C917.145 111.418 917.42 111.132 917.591 110.781V109.155H916.529C914.869 109.155 914.039 109.641 914.039 110.612C914.039 111.037 914.181 111.369 914.464 111.608C914.747 111.848 915.111 111.967 915.555 111.967ZM924.901 106.291C924.696 106.257 924.474 106.24 924.234 106.24C923.346 106.24 922.743 106.618 922.425 107.375V113H921.07V105.075H922.389L922.411 105.991C922.855 105.283 923.485 104.929 924.3 104.929C924.564 104.929 924.764 104.963 924.901 105.031V106.291ZM929.984 106.291C929.779 106.257 929.557 106.24 929.317 106.24C928.429 106.24 927.826 106.618 927.508 107.375V113H926.153V105.075H927.472L927.494 105.991C927.938 105.283 928.568 104.929 929.383 104.929C929.647 104.929 929.847 104.963 929.984 105.031V106.291ZM933.961 111.015L935.807 105.075H937.257L934.071 114.223C933.578 115.542 932.794 116.201 931.72 116.201L931.463 116.179L930.958 116.083V114.985L931.324 115.014C931.783 115.014 932.14 114.921 932.394 114.736C932.652 114.55 932.865 114.211 933.031 113.718L933.331 112.912L930.504 105.075H931.983L933.961 111.015ZM939.945 113H938.59V105.075H939.945V113ZM938.48 102.973C938.48 102.753 938.546 102.568 938.678 102.417C938.814 102.265 939.015 102.189 939.278 102.189C939.542 102.189 939.742 102.265 939.879 102.417C940.016 102.568 940.084 102.753 940.084 102.973C940.084 103.193 940.016 103.376 939.879 103.522C939.742 103.669 939.542 103.742 939.278 103.742C939.015 103.742 938.814 103.669 938.678 103.522C938.546 103.376 938.48 103.193 938.48 102.973ZM943.402 105.075L943.446 106.071C944.051 105.31 944.842 104.929 945.819 104.929C947.494 104.929 948.338 105.874 948.353 107.763V113H946.998V107.756C946.993 107.185 946.861 106.762 946.603 106.489C946.349 106.215 945.951 106.079 945.409 106.079C944.969 106.079 944.583 106.196 944.251 106.43C943.919 106.665 943.661 106.972 943.475 107.353V113H942.12V105.075H943.402ZM950.074 108.972C950.074 107.736 950.36 106.755 950.931 106.027C951.502 105.295 952.259 104.929 953.202 104.929C954.168 104.929 954.923 105.271 955.465 105.954L955.531 105.075H956.769V112.81C956.769 113.835 956.463 114.643 955.853 115.234C955.248 115.825 954.432 116.12 953.407 116.12C952.835 116.12 952.276 115.998 951.729 115.754C951.183 115.51 950.765 115.175 950.477 114.75L951.18 113.938C951.761 114.655 952.472 115.014 953.312 115.014C953.971 115.014 954.483 114.829 954.85 114.458C955.221 114.086 955.406 113.564 955.406 112.89V112.209C954.864 112.834 954.125 113.146 953.187 113.146C952.259 113.146 951.507 112.773 950.931 112.026C950.36 111.279 950.074 110.261 950.074 108.972ZM951.437 109.125C951.437 110.019 951.62 110.722 951.986 111.235C952.352 111.743 952.865 111.997 953.524 111.997C954.378 111.997 955.006 111.608 955.406 110.832V107.214C954.991 106.457 954.369 106.079 953.539 106.079C952.879 106.079 952.364 106.335 951.993 106.848C951.622 107.36 951.437 108.12 951.437 109.125ZM969.249 109.125C969.249 110.336 968.971 111.311 968.414 112.048C967.857 112.78 967.11 113.146 966.173 113.146C965.172 113.146 964.398 112.792 963.851 112.084L963.785 113H962.54V101.75H963.895V105.947C964.442 105.268 965.196 104.929 966.158 104.929C967.12 104.929 967.875 105.292 968.421 106.02C968.973 106.748 969.249 107.744 969.249 109.008V109.125ZM967.894 108.972C967.894 108.049 967.716 107.336 967.359 106.833C967.003 106.33 966.49 106.079 965.821 106.079C964.928 106.079 964.286 106.494 963.895 107.324V110.751C964.31 111.582 964.957 111.997 965.836 111.997C966.485 111.997 966.991 111.745 967.352 111.242C967.713 110.739 967.894 109.982 967.894 108.972ZM974.251 113.146C973.177 113.146 972.303 112.795 971.629 112.092C970.956 111.384 970.619 110.439 970.619 109.257V109.008C970.619 108.222 970.768 107.521 971.065 106.906C971.368 106.286 971.788 105.803 972.325 105.456C972.867 105.104 973.453 104.929 974.083 104.929C975.113 104.929 975.914 105.268 976.485 105.947C977.057 106.625 977.342 107.597 977.342 108.862V109.426H971.974C971.993 110.207 972.22 110.839 972.655 111.323C973.094 111.801 973.651 112.041 974.325 112.041C974.803 112.041 975.208 111.943 975.541 111.748C975.873 111.552 976.163 111.293 976.412 110.971L977.24 111.616C976.576 112.636 975.58 113.146 974.251 113.146ZM974.083 106.042C973.536 106.042 973.077 106.242 972.706 106.643C972.335 107.038 972.105 107.595 972.018 108.312H975.987V108.21C975.948 107.521 975.763 106.989 975.431 106.613C975.099 106.232 974.649 106.042 974.083 106.042ZM980.755 103.156V105.075H982.235V106.123H980.755V111.037C980.755 111.354 980.821 111.594 980.953 111.755C981.085 111.911 981.31 111.989 981.627 111.989C981.783 111.989 981.998 111.96 982.271 111.901V113C981.915 113.098 981.568 113.146 981.231 113.146C980.626 113.146 980.169 112.963 979.862 112.597C979.554 112.231 979.4 111.711 979.4 111.037V106.123H977.958V105.075H979.4V103.156H980.755ZM990.841 111.132L992.364 105.075H993.719L991.412 113H990.313L988.387 106.994L986.512 113H985.414L983.114 105.075H984.461L986.021 111.008L987.867 105.075H988.958L990.841 111.132ZM998.392 113.146C997.318 113.146 996.444 112.795 995.77 112.092C995.096 111.384 994.759 110.439 994.759 109.257V109.008C994.759 108.222 994.908 107.521 995.206 106.906C995.509 106.286 995.929 105.803 996.466 105.456C997.008 105.104 997.594 104.929 998.224 104.929C999.254 104.929 1000.05 105.268 1000.63 105.947C1001.2 106.625 1001.48 107.597 1001.48 108.862V109.426H996.114C996.134 110.207 996.361 110.839 996.795 111.323C997.235 111.801 997.792 112.041 998.465 112.041C998.944 112.041 999.349 111.943 999.681 111.748C1000.01 111.552 1000.3 111.293 1000.55 110.971L1001.38 111.616C1000.72 112.636 999.72 113.146 998.392 113.146ZM998.224 106.042C997.677 106.042 997.218 106.242 996.847 106.643C996.476 107.038 996.246 107.595 996.158 108.312H1000.13V108.21C1000.09 107.521 999.903 106.989 999.571 106.613C999.239 106.232 998.79 106.042 998.224 106.042ZM1006.35 113.146C1005.27 113.146 1004.4 112.795 1003.72 112.092C1003.05 111.384 1002.71 110.439 1002.71 109.257V109.008C1002.71 108.222 1002.86 107.521 1003.16 106.906C1003.46 106.286 1003.88 105.803 1004.42 105.456C1004.96 105.104 1005.55 104.929 1006.18 104.929C1007.21 104.929 1008.01 105.268 1008.58 105.947C1009.15 106.625 1009.44 107.597 1009.44 108.862V109.426H1004.07C1004.09 110.207 1004.31 110.839 1004.75 111.323C1005.19 111.801 1005.75 112.041 1006.42 112.041C1006.9 112.041 1007.3 111.943 1007.64 111.748C1007.97 111.552 1008.26 111.293 1008.51 110.971L1009.33 111.616C1008.67 112.636 1007.67 113.146 1006.35 113.146ZM1006.18 106.042C1005.63 106.042 1005.17 106.242 1004.8 106.643C1004.43 107.038 1004.2 107.595 1004.11 108.312H1008.08V108.21C1008.04 107.521 1007.86 106.989 1007.53 106.613C1007.19 106.232 1006.74 106.042 1006.18 106.042ZM1012.29 105.075L1012.34 106.071C1012.94 105.31 1013.73 104.929 1014.71 104.929C1016.39 104.929 1017.23 105.874 1017.24 107.763V113H1015.89V107.756C1015.88 107.185 1015.75 106.762 1015.49 106.489C1015.24 106.215 1014.84 106.079 1014.3 106.079C1013.86 106.079 1013.48 106.196 1013.14 106.43C1012.81 106.665 1012.55 106.972 1012.37 107.353V113H1011.01V105.075H1012.29Z" fill="black"/>
<path d="M941.369 194.354L943.83 186.434H945.764L941.516 198.631C940.858 200.389 939.813 201.268 938.381 201.268L938.039 201.238L937.365 201.111V199.646L937.854 199.686C938.465 199.686 938.941 199.562 939.279 199.314C939.624 199.067 939.908 198.615 940.129 197.957L940.529 196.883L936.76 186.434H938.732L941.369 194.354ZM951.633 197.195C950.201 197.195 949.035 196.727 948.137 195.789C947.238 194.845 946.789 193.585 946.789 192.01V191.678C946.789 190.63 946.988 189.695 947.385 188.875C947.788 188.048 948.348 187.404 949.064 186.941C949.787 186.473 950.568 186.238 951.408 186.238C952.782 186.238 953.85 186.691 954.611 187.596C955.373 188.501 955.754 189.796 955.754 191.482V192.234H948.596C948.622 193.276 948.924 194.119 949.504 194.764C950.09 195.402 950.832 195.721 951.73 195.721C952.368 195.721 952.909 195.59 953.352 195.33C953.794 195.07 954.182 194.725 954.514 194.295L955.617 195.154C954.732 196.515 953.404 197.195 951.633 197.195ZM951.408 187.723C950.679 187.723 950.067 187.99 949.572 188.523C949.077 189.051 948.771 189.793 948.654 190.75H953.947V190.613C953.895 189.695 953.648 188.986 953.205 188.484C952.762 187.977 952.163 187.723 951.408 187.723ZM964.377 197C964.273 196.792 964.188 196.421 964.123 195.887C963.283 196.759 962.281 197.195 961.115 197.195C960.074 197.195 959.217 196.902 958.547 196.316C957.883 195.724 957.551 194.975 957.551 194.07C957.551 192.97 957.967 192.117 958.801 191.512C959.641 190.9 960.819 190.594 962.336 190.594H964.094V189.764C964.094 189.132 963.905 188.631 963.527 188.26C963.15 187.882 962.593 187.693 961.857 187.693C961.213 187.693 960.673 187.856 960.236 188.182C959.8 188.507 959.582 188.901 959.582 189.363H957.766C957.766 188.836 957.951 188.328 958.322 187.84C958.7 187.345 959.208 186.954 959.846 186.668C960.49 186.382 961.197 186.238 961.965 186.238C963.182 186.238 964.136 186.544 964.826 187.156C965.516 187.762 965.874 188.598 965.9 189.666V194.529C965.9 195.499 966.024 196.271 966.271 196.844V197H964.377ZM961.379 195.623C961.945 195.623 962.482 195.477 962.99 195.184C963.498 194.891 963.866 194.51 964.094 194.041V191.873H962.678C960.464 191.873 959.357 192.521 959.357 193.816C959.357 194.383 959.546 194.826 959.924 195.145C960.301 195.464 960.786 195.623 961.379 195.623ZM973.84 188.055C973.566 188.009 973.27 187.986 972.951 187.986C971.766 187.986 970.962 188.491 970.539 189.5V197H968.732V186.434H970.49L970.52 187.654C971.112 186.71 971.952 186.238 973.039 186.238C973.391 186.238 973.658 186.284 973.84 186.375V188.055ZM981.662 194.197C981.662 193.709 981.477 193.331 981.105 193.064C980.741 192.791 980.1 192.557 979.182 192.361C978.27 192.166 977.544 191.932 977.004 191.658C976.47 191.385 976.073 191.059 975.812 190.682C975.559 190.304 975.432 189.855 975.432 189.334C975.432 188.468 975.796 187.736 976.525 187.137C977.261 186.538 978.199 186.238 979.338 186.238C980.536 186.238 981.506 186.548 982.248 187.166C982.997 187.785 983.371 188.576 983.371 189.539H981.555C981.555 189.044 981.343 188.618 980.92 188.26C980.503 187.902 979.976 187.723 979.338 187.723C978.68 187.723 978.166 187.866 977.795 188.152C977.424 188.439 977.238 188.813 977.238 189.275C977.238 189.712 977.411 190.04 977.756 190.262C978.101 190.483 978.723 190.695 979.621 190.896C980.526 191.098 981.258 191.339 981.818 191.619C982.378 191.899 982.792 192.238 983.059 192.635C983.332 193.025 983.469 193.504 983.469 194.07C983.469 195.014 983.091 195.773 982.336 196.346C981.581 196.912 980.601 197.195 979.396 197.195C978.55 197.195 977.801 197.046 977.15 196.746C976.499 196.447 975.988 196.03 975.617 195.496C975.253 194.956 975.07 194.373 975.07 193.748H976.877C976.91 194.354 977.15 194.835 977.6 195.193C978.055 195.545 978.654 195.721 979.396 195.721C980.08 195.721 980.627 195.584 981.037 195.311C981.454 195.031 981.662 194.66 981.662 194.197Z" fill="black"/>
</svg>
