<svg width="1200" height="400" viewBox="0 0 1200 400" fill="none" xmlns="http://www.w3.org/2000/svg">
<rect width="1200" height="400" fill="white"/>
<circle cx="900.5" cy="79.5" r="7.5" fill="#FBC800"/>
<circle cx="917.5" cy="79.5" r="7.5" fill="#FBC800"/>
<circle cx="934.5" cy="79.5" r="7.5" fill="#FBC800"/>
<circle cx="951.5" cy="79.5" r="7.5" fill="#FBC800"/>
<circle cx="968.5" cy="79.5" r="7.5" fill="#FBC800"/>
<circle cx="985.5" cy="79.5" r="7.5" fill="#FBC800"/>
<circle cx="1002.5" cy="79.5" r="7.5" fill="#FBC800"/>
<circle cx="1019.5" cy="79.5" r="7.5" fill="#FBC800"/>
<circle cx="1036.5" cy="79.5" r="7.5" fill="#FBC800"/>
<circle cx="883.5" cy="79.5" r="7.5" fill="#FBC800"/>
<circle cx="900.5" cy="96.5" r="7.5" fill="#FBC800"/>
<circle cx="917.5" cy="96.5" r="7.5" fill="#FBC800"/>
<circle cx="934.5" cy="96.5" r="7.5" fill="#FBC800"/>
<circle cx="951.5" cy="96.5" r="7.5" fill="#FBC800"/>
<circle cx="968.5" cy="96.5" r="7.5" fill="#FBC800"/>
<circle cx="985.5" cy="96.5" r="7.5" fill="#FBC800"/>
<circle cx="1002.5" cy="96.5" r="7.5" fill="#FBC800"/>
<circle cx="1019.5" cy="96.5" r="7.5" fill="#FBC800"/>
<circle cx="1036.5" cy="96.5" r="7.5" fill="#FBC800"/>
<circle cx="883.5" cy="96.5" r="7.5" fill="#FBC800"/>
<circle cx="900.5" cy="113.5" r="7.5" fill="#FBC800"/>
<circle cx="917.5" cy="113.5" r="7.5" fill="#FBC800"/>
<circle cx="934.5" cy="113.5" r="7.5" fill="#FBC800"/>
<circle cx="951.5" cy="113.5" r="7.5" fill="#FBC800"/>
<circle cx="968.5" cy="113.5" r="7.5" fill="#FBC800"/>
<circle cx="985.5" cy="113.5" r="7.5" fill="#FBC800"/>
<circle cx="1002.5" cy="113.5" r="7.5" fill="#FBC800"/>
<circle cx="1019.5" cy="113.5" r="7.5" fill="#FBC800"/>
<circle cx="1036.5" cy="113.5" r="7.5" fill="#FBC800"/>
<circle cx="883.5" cy="113.5" r="7.5" fill="#FBC800"/>
<circle cx="900.5" cy="130.5" r="7.5" fill="#FBC800"/>
<circle cx="917.5" cy="130.5" r="7.5" fill="#FBC800"/>
<circle cx="934.5" cy="130.5" r="7.5" fill="#FBC800"/>
<circle cx="951.5" cy="130.5" r="7.5" fill="#FBC800"/>
<circle cx="968.5" cy="130.5" r="7.5" fill="#FBC800"/>
<circle cx="985.5" cy="130.5" r="7.5" fill="#FBC800"/>
<circle cx="1002.5" cy="130.5" r="7.5" fill="#FBC800"/>
<circle cx="1019.5" cy="130.5" r="7.5" fill="#FBC800"/>
<circle cx="1036.5" cy="130.5" r="7.5" fill="#FBC800"/>
<circle cx="883.5" cy="130.5" r="7.5" fill="#FBC800"/>
<circle cx="900.5" cy="147.5" r="7.5" fill="#FBC800"/>
<circle cx="917.5" cy="147.5" r="7.5" fill="#FBC800"/>
<circle cx="934.5" cy="147.5" r="7.5" fill="#FBC800"/>
<circle cx="951.5" cy="147.5" r="7.5" fill="#FBC800"/>
<circle cx="968.5" cy="147.5" r="7.5" fill="#FBC800"/>
<circle cx="985.5" cy="147.5" r="7.5" fill="#FBC800"/>
<circle cx="1002.5" cy="147.5" r="7.5" fill="#FBC800"/>
<circle cx="1019.5" cy="147.5" r="7.5" fill="#FBC800"/>
<circle cx="1036.5" cy="147.5" r="7.5" fill="#FBC800"/>
<circle cx="883.5" cy="147.5" r="7.5" fill="#FBC800"/>
<path d="M471.746 165H467.02V142.168L460.047 144.551V140.547L471.141 136.465H471.746V165ZM500.75 165H481.629V161.738L491.102 151.406C492.469 149.883 493.439 148.613 494.012 147.598C494.598 146.569 494.891 145.54 494.891 144.512C494.891 143.158 494.507 142.064 493.738 141.23C492.983 140.397 491.961 139.98 490.672 139.98C489.135 139.98 487.944 140.449 487.098 141.387C486.251 142.324 485.828 143.607 485.828 145.234H481.082C481.082 143.503 481.473 141.947 482.254 140.566C483.048 139.173 484.174 138.092 485.633 137.324C487.104 136.556 488.797 136.172 490.711 136.172C493.471 136.172 495.646 136.868 497.234 138.262C498.836 139.642 499.637 141.556 499.637 144.004C499.637 145.423 499.233 146.914 498.426 148.477C497.632 150.026 496.323 151.79 494.5 153.77L487.547 161.211H500.75V165Z" fill="#8D75F3"/>
<path d="M700.379 165H695.652V142.168L688.68 144.551V140.547L699.773 136.465H700.379V165ZM729.383 165H710.262V161.738L719.734 151.406C721.102 149.883 722.072 148.613 722.645 147.598C723.23 146.569 723.523 145.54 723.523 144.512C723.523 143.158 723.139 142.064 722.371 141.23C721.616 140.397 720.594 139.98 719.305 139.98C717.768 139.98 716.577 140.449 715.73 141.387C714.884 142.324 714.461 143.607 714.461 145.234H709.715C709.715 143.503 710.105 141.947 710.887 140.566C711.681 139.173 712.807 138.092 714.266 137.324C715.737 136.556 717.43 136.172 719.344 136.172C722.104 136.172 724.279 136.868 725.867 138.262C727.469 139.642 728.27 141.556 728.27 144.004C728.27 145.423 727.866 146.914 727.059 148.477C726.264 150.026 724.956 151.79 723.133 153.77L716.18 161.211H729.383V165ZM745.848 165H741.121V142.168L734.148 144.551V140.547L745.242 136.465H745.848V165Z" fill="#6CBAFA"/>
<path d="M226.152 191.015L227.998 185.075H229.448L226.262 194.223C225.769 195.542 224.985 196.201 223.911 196.201L223.654 196.179L223.149 196.083V194.985L223.515 195.014C223.974 195.014 224.331 194.921 224.584 194.736C224.843 194.55 225.056 194.211 225.222 193.718L225.522 192.912L222.695 185.075H224.174L226.152 191.015ZM233.85 193.146C232.775 193.146 231.901 192.795 231.228 192.092C230.554 191.384 230.217 190.439 230.217 189.257V189.008C230.217 188.222 230.366 187.521 230.664 186.906C230.966 186.286 231.386 185.803 231.923 185.456C232.465 185.104 233.051 184.929 233.681 184.929C234.711 184.929 235.512 185.268 236.083 185.947C236.655 186.625 236.94 187.597 236.94 188.862V189.426H231.572C231.591 190.207 231.818 190.839 232.253 191.323C232.692 191.801 233.249 192.041 233.923 192.041C234.401 192.041 234.807 191.943 235.139 191.748C235.471 191.552 235.761 191.293 236.01 190.971L236.838 191.616C236.174 192.636 235.178 193.146 233.85 193.146ZM233.681 186.042C233.134 186.042 232.675 186.242 232.304 186.643C231.933 187.038 231.704 187.595 231.616 188.312H235.585V188.21C235.546 187.521 235.361 186.989 235.029 186.613C234.697 186.232 234.248 186.042 233.681 186.042ZM243.408 193C243.33 192.844 243.266 192.565 243.217 192.165C242.587 192.819 241.835 193.146 240.961 193.146C240.18 193.146 239.538 192.927 239.035 192.487C238.537 192.043 238.288 191.481 238.288 190.803C238.288 189.978 238.601 189.338 239.226 188.884C239.855 188.425 240.739 188.195 241.877 188.195H243.195V187.573C243.195 187.099 243.054 186.723 242.771 186.445C242.487 186.162 242.07 186.02 241.518 186.02C241.035 186.02 240.629 186.142 240.302 186.386C239.975 186.63 239.812 186.926 239.812 187.272H238.449C238.449 186.877 238.588 186.496 238.867 186.13C239.15 185.759 239.531 185.466 240.009 185.251C240.493 185.036 241.022 184.929 241.599 184.929C242.512 184.929 243.227 185.158 243.745 185.617C244.262 186.071 244.531 186.699 244.55 187.5V191.147C244.55 191.875 244.643 192.453 244.829 192.883V193H243.408ZM241.159 191.967C241.584 191.967 241.987 191.857 242.368 191.638C242.749 191.418 243.024 191.132 243.195 190.781V189.155H242.133C240.473 189.155 239.643 189.641 239.643 190.612C239.643 191.037 239.785 191.369 240.068 191.608C240.351 191.848 240.715 191.967 241.159 191.967ZM250.505 186.291C250.3 186.257 250.078 186.24 249.838 186.24C248.95 186.24 248.347 186.618 248.029 187.375V193H246.674V185.075H247.993L248.015 185.991C248.459 185.283 249.089 184.929 249.904 184.929C250.168 184.929 250.368 184.963 250.505 185.031V186.291ZM256.372 190.898C256.372 190.532 256.232 190.249 255.954 190.048C255.681 189.843 255.2 189.667 254.511 189.521C253.828 189.375 253.283 189.199 252.878 188.994C252.478 188.789 252.18 188.544 251.984 188.261C251.794 187.978 251.699 187.641 251.699 187.25C251.699 186.601 251.972 186.052 252.519 185.603C253.071 185.153 253.774 184.929 254.628 184.929C255.527 184.929 256.254 185.161 256.811 185.625C257.373 186.088 257.653 186.682 257.653 187.404H256.291C256.291 187.033 256.132 186.713 255.815 186.445C255.502 186.176 255.107 186.042 254.628 186.042C254.135 186.042 253.75 186.149 253.471 186.364C253.193 186.579 253.054 186.86 253.054 187.207C253.054 187.534 253.183 187.78 253.442 187.946C253.701 188.112 254.167 188.271 254.841 188.422C255.52 188.574 256.069 188.754 256.489 188.964C256.909 189.174 257.219 189.428 257.419 189.726C257.624 190.019 257.727 190.378 257.727 190.803C257.727 191.511 257.443 192.08 256.877 192.509C256.311 192.934 255.576 193.146 254.672 193.146C254.038 193.146 253.476 193.034 252.988 192.81C252.5 192.585 252.116 192.272 251.838 191.872C251.564 191.467 251.428 191.03 251.428 190.561H252.783C252.807 191.015 252.988 191.376 253.325 191.645C253.667 191.909 254.116 192.041 254.672 192.041C255.185 192.041 255.595 191.938 255.903 191.733C256.215 191.523 256.372 191.245 256.372 190.898Z" fill="black"/>
<path d="M210.012 165H205.285V142.168L198.312 144.551V140.547L209.406 136.465H210.012V165ZM238.43 153.027C238.43 157.116 237.661 160.202 236.125 162.285C234.602 164.355 232.277 165.391 229.152 165.391C226.079 165.391 223.762 164.382 222.199 162.363C220.65 160.332 219.855 157.331 219.816 153.359V148.438C219.816 144.349 220.578 141.283 222.102 139.238C223.638 137.194 225.975 136.172 229.113 136.172C232.225 136.172 234.543 137.168 236.066 139.16C237.603 141.152 238.391 144.134 238.43 148.105V153.027ZM233.684 147.715C233.684 145.046 233.319 143.092 232.59 141.855C231.861 140.605 230.702 139.98 229.113 139.98C227.564 139.98 226.424 140.573 225.695 141.758C224.966 142.93 224.582 144.766 224.543 147.266V153.711C224.543 156.367 224.914 158.346 225.656 159.648C226.398 160.951 227.564 161.602 229.152 161.602C230.676 161.602 231.802 161.003 232.531 159.805C233.26 158.594 233.645 156.706 233.684 154.141V147.715ZM261.164 153.027C261.164 157.116 260.396 160.202 258.859 162.285C257.336 164.355 255.012 165.391 251.887 165.391C248.814 165.391 246.496 164.382 244.934 162.363C243.384 160.332 242.59 157.331 242.551 153.359V148.438C242.551 144.349 243.312 141.283 244.836 139.238C246.372 137.194 248.71 136.172 251.848 136.172C254.96 136.172 257.277 137.168 258.801 139.16C260.337 141.152 261.125 144.134 261.164 148.105V153.027ZM256.418 147.715C256.418 145.046 256.053 143.092 255.324 141.855C254.595 140.605 253.436 139.98 251.848 139.98C250.298 139.98 249.159 140.573 248.43 141.758C247.701 142.93 247.316 144.766 247.277 147.266V153.711C247.277 156.367 247.648 158.346 248.391 159.648C249.133 160.951 250.298 161.602 251.887 161.602C253.41 161.602 254.536 161.003 255.266 159.805C255.995 158.594 256.379 156.706 256.418 154.141V147.715ZM283.898 153.027C283.898 157.116 283.13 160.202 281.594 162.285C280.07 164.355 277.746 165.391 274.621 165.391C271.548 165.391 269.23 164.382 267.668 162.363C266.118 160.332 265.324 157.331 265.285 153.359V148.438C265.285 144.349 266.047 141.283 267.57 139.238C269.107 137.194 271.444 136.172 274.582 136.172C277.694 136.172 280.012 137.168 281.535 139.16C283.072 141.152 283.859 144.134 283.898 148.105V153.027ZM279.152 147.715C279.152 145.046 278.788 143.092 278.059 141.855C277.329 140.605 276.171 139.98 274.582 139.98C273.033 139.98 271.893 140.573 271.164 141.758C270.435 142.93 270.051 144.766 270.012 147.266V153.711C270.012 156.367 270.383 158.346 271.125 159.648C271.867 160.951 273.033 161.602 274.621 161.602C276.145 161.602 277.271 161.003 278 159.805C278.729 158.594 279.113 156.706 279.152 154.141V147.715Z" fill="#00C7A5"/>
<path d="M234.44 115.478C234.089 115.891 233.573 116.098 232.893 116.098C232.329 116.098 231.9 115.935 231.604 115.609C231.311 115.281 231.162 114.796 231.159 114.154V110.717H232.062V114.13C232.062 114.931 232.388 115.331 233.039 115.331C233.729 115.331 234.188 115.074 234.416 114.56V110.717H235.319V116H234.46L234.44 115.478ZM241.159 113.417C241.159 114.221 240.975 114.869 240.607 115.36C240.24 115.852 239.742 116.098 239.113 116.098C238.472 116.098 237.967 115.894 237.6 115.487V118.031H236.696V110.717H237.521L237.565 111.303C237.933 110.847 238.444 110.619 239.099 110.619C239.733 110.619 240.235 110.858 240.603 111.337C240.974 111.815 241.159 112.481 241.159 113.334V113.417ZM240.256 113.314C240.256 112.719 240.129 112.248 239.875 111.903C239.621 111.558 239.273 111.386 238.83 111.386C238.283 111.386 237.873 111.628 237.6 112.113V114.638C237.87 115.119 238.283 115.36 238.84 115.36C239.273 115.36 239.616 115.189 239.87 114.848C240.127 114.503 240.256 113.992 240.256 113.314ZM246.018 109.438V110.717H247.004V111.415H246.018V114.691C246.018 114.903 246.062 115.062 246.149 115.17C246.237 115.274 246.387 115.326 246.599 115.326C246.703 115.326 246.846 115.307 247.028 115.268V116C246.791 116.065 246.56 116.098 246.335 116.098C245.931 116.098 245.627 115.976 245.422 115.731C245.217 115.487 245.114 115.141 245.114 114.691V111.415H244.152V110.717H245.114V109.438H246.018ZM247.727 113.31C247.727 112.792 247.827 112.326 248.029 111.913C248.234 111.5 248.518 111.181 248.879 110.956C249.243 110.731 249.659 110.619 250.124 110.619C250.843 110.619 251.424 110.868 251.867 111.366C252.313 111.864 252.536 112.527 252.536 113.354V113.417C252.536 113.931 252.437 114.394 252.238 114.804C252.043 115.211 251.761 115.528 251.394 115.756C251.029 115.984 250.609 116.098 250.134 116.098C249.418 116.098 248.837 115.849 248.391 115.351C247.948 114.853 247.727 114.193 247.727 113.373V113.31ZM248.635 113.417C248.635 114.003 248.77 114.473 249.04 114.828C249.313 115.183 249.678 115.36 250.134 115.36C250.593 115.36 250.957 115.181 251.228 114.823C251.498 114.462 251.633 113.957 251.633 113.31C251.633 112.73 251.494 112.261 251.218 111.903C250.944 111.542 250.58 111.361 250.124 111.361C249.678 111.361 249.318 111.539 249.045 111.894C248.771 112.248 248.635 112.756 248.635 113.417Z" fill="black"/>
<path d="M705.152 191.015L706.998 185.075H708.448L705.262 194.223C704.769 195.542 703.985 196.201 702.911 196.201L702.654 196.179L702.149 196.083V194.985L702.515 195.014C702.974 195.014 703.331 194.921 703.584 194.736C703.843 194.55 704.056 194.211 704.222 193.718L704.522 192.912L701.695 185.075H703.174L705.152 191.015ZM712.85 193.146C711.775 193.146 710.901 192.795 710.228 192.092C709.554 191.384 709.217 190.439 709.217 189.257V189.008C709.217 188.222 709.366 187.521 709.664 186.906C709.966 186.286 710.386 185.803 710.923 185.456C711.465 185.104 712.051 184.929 712.681 184.929C713.711 184.929 714.512 185.268 715.083 185.947C715.655 186.625 715.94 187.597 715.94 188.862V189.426H710.572C710.591 190.207 710.818 190.839 711.253 191.323C711.692 191.801 712.249 192.041 712.923 192.041C713.401 192.041 713.807 191.943 714.139 191.748C714.471 191.552 714.761 191.293 715.01 190.971L715.838 191.616C715.174 192.636 714.178 193.146 712.85 193.146ZM712.681 186.042C712.134 186.042 711.675 186.242 711.304 186.643C710.933 187.038 710.704 187.595 710.616 188.312H714.585V188.21C714.546 187.521 714.361 186.989 714.029 186.613C713.697 186.232 713.248 186.042 712.681 186.042ZM722.408 193C722.33 192.844 722.266 192.565 722.217 192.165C721.587 192.819 720.835 193.146 719.961 193.146C719.18 193.146 718.538 192.927 718.035 192.487C717.537 192.043 717.288 191.481 717.288 190.803C717.288 189.978 717.601 189.338 718.226 188.884C718.855 188.425 719.739 188.195 720.877 188.195H722.195V187.573C722.195 187.099 722.054 186.723 721.771 186.445C721.487 186.162 721.07 186.02 720.518 186.02C720.035 186.02 719.629 186.142 719.302 186.386C718.975 186.63 718.812 186.926 718.812 187.272H717.449C717.449 186.877 717.588 186.496 717.867 186.13C718.15 185.759 718.531 185.466 719.009 185.251C719.493 185.036 720.022 184.929 720.599 184.929C721.512 184.929 722.227 185.158 722.745 185.617C723.262 186.071 723.531 186.699 723.55 187.5V191.147C723.55 191.875 723.643 192.453 723.829 192.883V193H722.408ZM720.159 191.967C720.584 191.967 720.987 191.857 721.368 191.638C721.749 191.418 722.024 191.132 722.195 190.781V189.155H721.133C719.473 189.155 718.643 189.641 718.643 190.612C718.643 191.037 718.785 191.369 719.068 191.608C719.351 191.848 719.715 191.967 720.159 191.967ZM729.505 186.291C729.3 186.257 729.078 186.24 728.838 186.24C727.95 186.24 727.347 186.618 727.029 187.375V193H725.674V185.075H726.993L727.015 185.991C727.459 185.283 728.089 184.929 728.904 184.929C729.168 184.929 729.368 184.963 729.505 185.031V186.291ZM735.372 190.898C735.372 190.532 735.232 190.249 734.954 190.048C734.681 189.843 734.2 189.667 733.511 189.521C732.828 189.375 732.283 189.199 731.878 188.994C731.478 188.789 731.18 188.544 730.984 188.261C730.794 187.978 730.699 187.641 730.699 187.25C730.699 186.601 730.972 186.052 731.519 185.603C732.071 185.153 732.774 184.929 733.628 184.929C734.527 184.929 735.254 185.161 735.811 185.625C736.373 186.088 736.653 186.682 736.653 187.404H735.291C735.291 187.033 735.132 186.713 734.815 186.445C734.502 186.176 734.107 186.042 733.628 186.042C733.135 186.042 732.75 186.149 732.471 186.364C732.193 186.579 732.054 186.86 732.054 187.207C732.054 187.534 732.183 187.78 732.442 187.946C732.701 188.112 733.167 188.271 733.841 188.422C734.52 188.574 735.069 188.754 735.489 188.964C735.909 189.174 736.219 189.428 736.419 189.726C736.624 190.019 736.727 190.378 736.727 190.803C736.727 191.511 736.443 192.08 735.877 192.509C735.311 192.934 734.576 193.146 733.672 193.146C733.038 193.146 732.476 193.034 731.988 192.81C731.5 192.585 731.116 192.272 730.838 191.872C730.564 191.467 730.428 191.03 730.428 190.561H731.783C731.807 191.015 731.988 191.376 732.325 191.645C732.667 191.909 733.116 192.041 733.672 192.041C734.185 192.041 734.595 191.938 734.903 191.733C735.215 191.523 735.372 191.245 735.372 190.898Z" fill="black"/>
<path d="M466.152 191.015L467.998 185.075H469.448L466.262 194.223C465.769 195.542 464.985 196.201 463.911 196.201L463.654 196.179L463.149 196.083V194.985L463.515 195.014C463.974 195.014 464.331 194.921 464.584 194.736C464.843 194.55 465.056 194.211 465.222 193.718L465.522 192.912L462.695 185.075H464.174L466.152 191.015ZM473.85 193.146C472.775 193.146 471.901 192.795 471.228 192.092C470.554 191.384 470.217 190.439 470.217 189.257V189.008C470.217 188.222 470.366 187.521 470.664 186.906C470.966 186.286 471.386 185.803 471.923 185.456C472.465 185.104 473.051 184.929 473.681 184.929C474.711 184.929 475.512 185.268 476.083 185.947C476.655 186.625 476.94 187.597 476.94 188.862V189.426H471.572C471.591 190.207 471.818 190.839 472.253 191.323C472.692 191.801 473.249 192.041 473.923 192.041C474.401 192.041 474.807 191.943 475.139 191.748C475.471 191.552 475.761 191.293 476.01 190.971L476.838 191.616C476.174 192.636 475.178 193.146 473.85 193.146ZM473.681 186.042C473.134 186.042 472.675 186.242 472.304 186.643C471.933 187.038 471.704 187.595 471.616 188.312H475.585V188.21C475.546 187.521 475.361 186.989 475.029 186.613C474.697 186.232 474.248 186.042 473.681 186.042ZM483.408 193C483.33 192.844 483.266 192.565 483.217 192.165C482.587 192.819 481.835 193.146 480.961 193.146C480.18 193.146 479.538 192.927 479.035 192.487C478.537 192.043 478.288 191.481 478.288 190.803C478.288 189.978 478.601 189.338 479.226 188.884C479.855 188.425 480.739 188.195 481.877 188.195H483.195V187.573C483.195 187.099 483.054 186.723 482.771 186.445C482.487 186.162 482.07 186.02 481.518 186.02C481.035 186.02 480.629 186.142 480.302 186.386C479.975 186.63 479.812 186.926 479.812 187.272H478.449C478.449 186.877 478.588 186.496 478.867 186.13C479.15 185.759 479.531 185.466 480.009 185.251C480.493 185.036 481.022 184.929 481.599 184.929C482.512 184.929 483.227 185.158 483.745 185.617C484.262 186.071 484.531 186.699 484.55 187.5V191.147C484.55 191.875 484.643 192.453 484.829 192.883V193H483.408ZM481.159 191.967C481.584 191.967 481.987 191.857 482.368 191.638C482.749 191.418 483.024 191.132 483.195 190.781V189.155H482.133C480.473 189.155 479.643 189.641 479.643 190.612C479.643 191.037 479.785 191.369 480.068 191.608C480.351 191.848 480.715 191.967 481.159 191.967ZM490.505 186.291C490.3 186.257 490.078 186.24 489.838 186.24C488.95 186.24 488.347 186.618 488.029 187.375V193H486.674V185.075H487.993L488.015 185.991C488.459 185.283 489.089 184.929 489.904 184.929C490.168 184.929 490.368 184.963 490.505 185.031V186.291ZM496.372 190.898C496.372 190.532 496.232 190.249 495.954 190.048C495.681 189.843 495.2 189.667 494.511 189.521C493.828 189.375 493.283 189.199 492.878 188.994C492.478 188.789 492.18 188.544 491.984 188.261C491.794 187.978 491.699 187.641 491.699 187.25C491.699 186.601 491.972 186.052 492.519 185.603C493.071 185.153 493.774 184.929 494.628 184.929C495.527 184.929 496.254 185.161 496.811 185.625C497.373 186.088 497.653 186.682 497.653 187.404H496.291C496.291 187.033 496.132 186.713 495.815 186.445C495.502 186.176 495.107 186.042 494.628 186.042C494.135 186.042 493.75 186.149 493.471 186.364C493.193 186.579 493.054 186.86 493.054 187.207C493.054 187.534 493.183 187.78 493.442 187.946C493.701 188.112 494.167 188.271 494.841 188.422C495.52 188.574 496.069 188.754 496.489 188.964C496.909 189.174 497.219 189.428 497.419 189.726C497.624 190.019 497.727 190.378 497.727 190.803C497.727 191.511 497.443 192.08 496.877 192.509C496.311 192.934 495.576 193.146 494.672 193.146C494.038 193.146 493.476 193.034 492.988 192.81C492.5 192.585 492.116 192.272 491.838 191.872C491.564 191.467 491.428 191.03 491.428 190.561H492.783C492.807 191.015 492.988 191.376 493.325 191.645C493.667 191.909 494.116 192.041 494.672 192.041C495.185 192.041 495.595 191.938 495.903 191.733C496.215 191.523 496.372 191.245 496.372 190.898Z" fill="black"/>
</svg>
